<svg width="450" height="195" viewBox="0 0 450 195" fill="none" xmlns="http://www.w3.org/2000/svg">
<path d="M106.731 116.481C106.318 116.769 106.057 117.735 105.007 117.466L105.279 116.662C100.079 116.379 104.254 114.695 105.546 113.284C109.392 109.085 110.397 100.466 105.262 96.8628C104.596 96.3952 101.621 95.2837 101.492 94.9225C101.178 94.0381 102.051 91.2171 102.002 89.8431C101.968 88.8722 101.136 82.1818 99.2723 83.5041C100.503 87.5829 102.464 92.242 98.497 95.4958C101.292 99.7694 97.8222 104.255 93.0997 104.77C88.0143 105.325 84.216 103.984 80.9764 100.083C80.7242 99.7795 80.6803 99.1673 80.4476 98.9823C80.2979 98.8634 77.238 99.3825 76.609 99.1346C77.1878 98.1126 78.8672 98.4372 79.3393 97.2529C75.2225 97.8461 70.0446 94.0779 70.2021 89.8316C70.2513 88.5056 71.2683 87.4905 71.4198 86.199C70.1356 86.1208 69.111 87.031 67.9429 87.4812C65.4028 88.4602 62.6251 89.1629 60.2472 90.3969C60.0913 90.6444 60.0149 90.9151 59.9697 91.2012C59.0502 97.0166 58.9435 110.826 62.5704 115.559C68.0224 122.673 77.5335 121.545 85.1528 123.187C86.7786 123.537 86.4034 124.799 85.9489 126.017C83.4455 132.727 77.0839 135.379 70.1966 134.987C69.2706 134.935 68.0022 134.429 67.1685 134.43C66.6409 134.431 66.8203 135.006 66.6408 135.002C66.3767 134.995 62.6611 133.358 61.7128 133.119C58.9146 132.415 49.5809 130.871 49.0356 135.151C48.9887 135.519 50.0094 140.406 50.1775 140.733C50.6337 141.619 51.5912 140.935 52.4326 140.91C53.9536 140.867 55.5844 141.039 57.0823 140.919C62.8041 140.461 68.2049 138.053 74.0116 138.5C74.9844 138.575 77.4898 139.33 78.0484 139.256C78.5765 139.185 81.8708 137.422 82.6219 137.019C84.9223 135.785 87.0376 134.1 89.4417 133.101C89.5357 132.982 87.8731 131.581 87.8424 130.557C88.7358 127.696 87.656 122.95 89.9843 120.835C90.9646 119.944 91.7994 120.001 92.6992 119.471C94.478 118.424 94.059 117.2 97.19 117.497C99.0705 117.676 99.2118 118.798 100.011 119.031C100.608 119.206 101.994 119.125 102.697 119.097C110.815 118.781 119.906 116.999 128.081 116.122C129.379 115.983 134.946 115.918 135.606 115.464C136.132 115.102 135.485 113.564 136.594 112.938C137.409 112.478 139.345 112.313 140.229 112.739C141.747 113.469 141.365 115.008 141.631 115.277C141.855 115.505 144.227 115.385 145.423 116.251C147.636 117.854 148.432 121.678 146.901 123.92C146.546 124.44 145.624 124.977 145.474 125.477C144.755 127.871 146.561 131.796 142.472 133.027C138.476 134.231 130.843 134.346 126.44 134.667C125.965 134.701 125.231 134.093 124.98 134.898C124.833 135.371 124.981 136.083 124.864 136.67C123.745 142.273 121.367 143.322 115.929 144.43C116.621 145.907 117.242 146.542 117.007 148.322C116.944 148.8 116.452 149.315 116.515 149.645C116.58 149.985 118.122 151.22 118.504 151.724C122.012 156.35 120.351 163.588 115.196 166.215L112.38 167.339C116.029 167.791 120.679 167.735 124.115 166.393C132.343 163.178 136.152 153.936 130.119 146.727C129.26 145.7 125.661 142.722 125.52 141.806C125.362 140.775 126.495 140.593 127.315 140.853C131.181 142.079 135.733 148.43 136.131 152.383C137.698 167.927 121.546 173.98 108.566 170.162C104.559 168.984 104.032 167.753 99.4551 167.24C96.9152 166.956 94.401 166.496 91.9013 165.996C92.1349 166.438 93.3457 166.863 93.7938 166.955C94.83 167.165 96.8043 166.738 97.0946 168.025C97.158 168.306 97.1857 168.516 96.9177 168.715C96.3959 169.103 93.4154 170.701 92.8367 170.831C91.751 171.074 93.6789 168.844 92.5792 168.951C91.2768 169.078 90.3786 170.108 89.1845 170.457C88.423 170.68 82.6379 171.596 82.343 171.383C83.2475 169.878 85.3792 169.018 86.3018 167.341C86.497 166.987 86.6404 166.36 86.0389 166.541C85.6119 166.669 84.2354 167.185 83.8799 167.376C82.2352 168.264 81.5831 169.999 78.8965 170.548C77.6639 170.8 79.6147 168.587 80.1561 168.686C79.3216 167.56 77.9543 169.887 76.6723 170.505C73.1387 172.206 60.8075 173.33 57.3283 171.977C56.8085 171.775 56.8062 171.233 56.5627 171.197C54.6553 170.917 55.9379 172.673 54.3776 172.723C53.1955 172.202 54.8646 170.651 54.7648 170.58C53.9711 170.483 53.2337 170.825 52.4551 170.857C50.0674 170.958 47.6651 170.961 45.3411 170.848C44.5264 170.808 43.3023 170.996 42.6271 170.865C42.2985 170.801 42.6564 170.083 42.3279 170.019C40.3997 169.647 36.646 170.162 34.4112 170.049C21.478 169.393 9.91685 163.323 11.081 148.88C11.3225 145.883 12.9258 144.08 13.2438 142.12C13.498 140.553 12.9517 138.887 12.9749 137.27C13.0501 132.03 15.1104 125.553 18.731 121.656C19.3429 120.998 21.4421 119.598 21.5882 119.355C21.8891 118.854 21.6382 118.015 21.7895 117.397C22.6123 114.037 27.0008 111.531 30.1281 110.533C31.8965 109.969 34.1203 109.493 35.9229 109.919C35.8364 108.471 34.2744 108.576 34.0304 107.075C33.8716 106.098 34.0905 103.353 34.6722 102.619C36.2218 100.663 41.5817 100.903 43.8427 101.291C42.7782 100.032 40.8815 99.8925 39.7489 98.731C37.3235 96.2437 38.5232 93.9854 40.0732 91.5067C40.6783 90.539 43.6711 87.2022 43.7871 86.8163C44.2161 85.3897 43.7333 81.43 43.8454 79.5951C44.5568 67.9468 52.027 59.2954 63.1094 55.7507C81.7968 49.7734 100.048 53.4311 106.294 73.4687C106.638 74.5741 106.927 77.0615 107.333 77.8342C107.577 78.2975 110.149 79.677 110.869 80.2744C114.002 82.8761 116.355 87.3791 112.625 90.6193C111.755 91.3749 107.866 92.8466 107.775 93.1078C107.089 95.0841 108.855 96.1656 109.76 97.5443C113.575 103.358 112.54 112.438 106.731 116.481ZM111.558 86.196C111.719 83.9469 109.049 81.3456 107.164 80.4279C106.102 79.9111 103.935 79.8164 103.489 78.9154C103.154 78.2389 104.193 78.1869 104.141 77.2424C103.885 72.6414 99.2181 64.0737 95.58 61.1319C83.3678 51.2572 57.9 56.4746 49.9038 69.6712C46.8064 74.783 47.5126 79.673 46.8159 85.2237C46.3501 88.9356 41.8882 91.9291 40.5662 95.3604C41.0987 95.77 45.276 92.5342 46.111 92.0761C56.3204 86.4751 69.2513 82.3255 80.8802 80.8441C88.8067 79.8344 103.056 78.6617 109.346 84.2036C109.585 84.4137 111.149 86.6564 111.558 86.196ZM91.0822 89.1626C92.6587 89.0618 98.475 85.0195 98.7245 83.9013C98.7944 83.5879 98.54 83.3784 98.2729 83.2748C90.6313 82.9563 82.9587 83.4425 75.5157 85.1206L85.487 90.5107C86.0277 90.7116 85.7491 90.4936 85.8029 90.256C86.0461 89.1823 85.6868 87.8455 86.169 86.7371C87.7337 87.3677 86.6764 90.8535 88.695 90.464C90.7361 90.0702 89.0281 85.9143 90.1249 85.9331C90.5576 85.9405 91.1304 88.6496 91.0822 89.1626ZM104.479 93.9951C105.789 94.5305 105.616 89.9427 105.55 89.3002C105.416 87.99 104.799 85.6058 103.644 84.8494C103.819 86.311 104.676 87.8523 104.713 89.3402C104.747 90.6949 103.997 92.0348 103.906 93.1006C103.901 93.1534 104.429 93.9748 104.479 93.9951ZM80.4314 91.3167C79.0829 90.0564 76.7951 89.0566 75.0436 88.419C72.5197 87.5002 72.1386 88.1907 72.5374 90.892C72.7021 92.0071 73.6558 93.3427 74.5629 94.0133C75.512 94.715 79.7922 96.0853 80.7133 95.5055C81.785 94.831 79.7933 94.322 79.6846 94.2154C79.2026 93.7424 79.0053 90.8366 80.4314 91.3167ZM90.398 92.9369C91.4243 93.1846 94.5433 92.9369 95.859 92.9369C97.1841 92.9369 99.27 90.2698 98.5866 88.8903C97.0912 89.363 95.989 90.5243 94.5459 91.1012C93.4968 91.5207 90.869 91.8355 90.2592 92.261C89.8635 92.5371 90.1664 92.881 90.398 92.9369ZM57.7669 90.5119C57.555 90.2945 55.3686 91.0877 55.1734 91.588C54.9373 100.916 55.4622 110.3 55.8584 119.624C56.9178 119.805 56.1239 118.892 56.1563 118.398C56.1812 118.018 56.5883 117.737 56.662 117.318C57.4932 112.587 57.2204 108.006 57.2339 103.327C57.2463 99.0452 56.912 94.7117 57.7669 90.5119ZM85.2484 93.5432C83.6844 93.7039 83.2547 96.6765 83.4531 97.9087C84.3517 103.492 96.2252 104.485 96.8201 99.5482C97.4231 94.5446 92.2769 95.4235 88.8825 94.7027C87.9854 94.5122 85.7514 93.4915 85.2484 93.5432ZM53.3995 105.877V101.159C53.3995 100.079 50.0372 99.0085 49.0321 99.4054C48.9434 97.7942 52.7216 97.6611 53.0085 97.2695C53.3808 96.7614 52.8272 94.1826 52.3121 93.8718C51.2377 93.2236 47.8646 94.7295 47.5264 96.1626C46.9459 98.6228 47.2484 102.1 49.5935 103.569L53.3995 105.877ZM46.5733 104.529C46.4123 104.092 45.6239 103.683 45.217 103.577C43.795 103.203 40.5089 102.777 39.086 102.934C38.3272 103.017 37.5872 103.582 36.7419 103.452C36.6181 103.573 37.0564 105.035 37.1613 105.33C38.2187 108.297 39.9384 112.721 41.3345 115.497C41.5384 115.903 42.3009 117.354 42.6425 117.435C45.1799 116.435 47.8864 116.342 50.527 115.842C50.8686 115.777 51.0222 116.042 50.9379 115.453C49.5488 113.072 48.1824 106.847 45.0089 106.208C43.9366 105.992 40.2577 106.401 39.748 105.873C39.2987 105.408 40.9438 104.904 40.9757 104.529H46.5733ZM53.6698 116.12C53.7172 114.252 53.6838 111.097 51.4883 110.462L52.3671 113.501L53.6698 116.12ZM33.1959 115.046C34.5102 114.173 35.51 114.392 36.8934 114.247C38.4743 114.082 37.4631 112.794 36.6021 112.624C34.7415 112.255 26.8994 114.051 25.4784 115.303C25.3349 115.43 24.9375 116.068 25.0023 116.118C27.8424 115.291 29.6905 114.861 32.3055 116.594C37.025 119.72 41.0242 132.877 44.3361 138.144C44.4869 138.384 45.6774 140.209 46.0259 139.843C44.9418 136.052 42.5839 132.333 41.4486 128.594C41.3986 128.429 41.1843 127.451 41.66 127.845C42.1885 128.664 42.8792 129.34 43.4178 130.154C43.7419 130.644 43.7343 131.872 44.3838 131.358C43.2163 125.849 40.6379 120.81 38.6389 115.586C37.4569 115.86 35.8936 116.011 34.6835 115.864C34.2654 115.813 33.3208 115.524 33.1959 115.046ZM139.956 115.308C140.646 114.25 138.384 114.037 137.773 114.235C137.221 115.834 139.62 115.822 139.956 115.308ZM137.864 124.387C140.246 126.675 145.229 124.631 145.666 121.355C146.249 116.975 142.541 115.616 138.866 117.066C135.866 118.25 135.712 122.319 137.864 124.387ZM74.1507 133.103C74.8247 132.474 71.0451 127.221 70.3363 126.492L59.4094 117.739C59.0152 118.186 63.206 122.941 63.7836 123.539C65.6729 125.492 68.0037 126.991 69.7826 129.058C66.6961 128.623 64.588 126.289 62.2659 124.486L59.1337 121.246C60.5634 124.391 63.3532 126.582 65.1435 129.463C63.5997 130.304 58.8231 124.688 58.5902 125.017C58.4572 126.988 58.0372 129.136 59.19 130.89L74.1507 133.103ZM134.757 117.744C132.749 118.307 120.471 118.924 119.733 119.81C119.635 119.929 118.847 121.436 118.933 121.511L131.356 119.896C132.126 120.143 132.973 120.064 133.746 120.232C134.04 120.296 134.314 120.697 134.36 120.699C134.798 120.716 135.178 118.225 134.757 117.744ZM52.5791 120.433C52.1745 119.105 52.1084 118.18 50.537 118.004C49.2725 117.862 45.5813 118.682 44.3049 119.137C43.1405 119.553 44.4879 122.062 44.6658 122.86C44.9412 123.063 46.1668 121.885 46.6009 121.675C48.3925 120.807 50.6147 120.623 52.5791 120.433ZM39.4736 133.372C39.4126 131.293 37.8481 129.848 36.9658 128.167C35.4425 125.266 33.4726 120.303 30.1156 119.027C26.1129 117.507 20.7774 123.949 19.3073 127.078C16.7802 132.455 17.8792 134.958 17.3264 140.219C17.1043 142.332 15.4131 144.484 15.1766 147.262C13.5198 166.713 34.2781 167.654 48.6196 165.992C52.0592 165.594 55.5685 165.133 58.8599 164.104C58.1385 163.262 56.8795 163.28 55.8747 162.607C54.069 161.397 52.8908 158.957 52.8521 156.828C52.06 156.592 52.3783 157.477 51.764 157.637C50.7866 152.603 53.3196 147.816 55.3092 143.35C50.4961 144.204 44.6496 143.184 40.3148 145.662C39.0416 146.39 35.6617 149.378 34.6986 149.554C34.2779 149.631 34.2266 149.544 34.2813 149.144C34.4279 148.073 35.8064 147.242 36.469 146.448C36.5124 146.247 36.1887 146.266 36.0652 146.317C34.0649 147.148 30.0212 150.943 29.0493 152.871C28.1557 154.643 27.2158 158.881 29.1705 160.149C32.666 162.417 37.3864 160.226 40.8391 158.987C38.7559 160.879 35.7539 161.952 32.9844 162.419C32.5537 162.492 30.9694 162.716 30.5845 162.746C29.2799 162.847 27.9469 162.702 26.6419 162.757C26.7735 161.21 28.4901 162.364 29.3697 162.086C21.043 158.05 27.2851 148.51 32.9456 145.126L36.4691 143.352C33.0659 143.886 29.4577 145.319 26.4985 147.118C23.947 148.669 21.8367 150.711 20.6954 153.518C20.3851 154.281 20.5958 155.932 19.4463 155.694C18.4624 155.491 17.9191 153.028 17.9698 152.176C18.2831 146.911 24.7231 142.377 29.4252 141.111C33.3967 140.042 37.4228 140.879 41.3852 141.459C40.7092 140.778 39.2817 140.274 38.3698 139.991C33.7444 138.557 29.2786 138.891 24.8989 140.955C22.4913 142.09 20.6723 144.193 18.1772 144.965C19.586 141.223 24.3129 138.704 28.0169 137.564C32.2357 136.265 35.0763 136.774 39.3285 137.432C39.5089 137.459 40.3495 137.852 40.2877 137.283C40.2711 137.13 38.1753 135.831 37.8302 135.671C35.0342 134.376 30.577 133.079 27.4537 131.897C26.609 131.578 24.9991 131.731 25.0036 130.68L27.0217 130.707L34.8303 132.433C32.0784 129.221 26.8608 126.908 22.5461 127.442C22.8092 125.253 25.3425 125.388 27.0616 125.545C29.8464 125.799 33.8597 128.44 35.927 130.271C37.1294 131.336 37.8135 132.975 39.4736 133.372ZM56.1273 123.13C56.1091 122.064 56.4174 119.745 54.7659 119.897C54.6353 120.018 55.6138 122.962 56.1273 123.13ZM117.293 120.164C116.443 120.271 111.603 120.659 111.318 121.004C111.182 121.17 111.337 121.758 111.285 122.051C112.008 122.145 117.076 121.72 117.291 121.51C117.38 121.423 117.244 120.467 117.293 120.164ZM108.554 120.704L100.912 121.514C100.796 122.56 101.697 122 101.727 122.052C101.839 122.242 101.655 123.057 101.731 123.399C101.932 123.612 106.658 122.322 107.572 122.572C107.87 122.653 108.178 125.609 110.046 125.842C112.032 125.385 117.008 125.707 118.537 124.762C119.26 124.316 119.183 123.725 119.216 123.004C119.23 122.71 119.385 121.979 118.935 122.053C118.983 124.501 117.133 123.741 115.551 123.971C112.003 124.488 108.643 125.727 108.554 120.704ZM99.1778 126.014C99.5043 125.139 99.5899 123.837 99.9532 122.859C100.148 122.334 100.689 122.088 100.635 121.513L92.6339 122.372C91.4643 122.709 91.233 126.865 91.0813 127.982C93.5155 128.497 92.647 125.769 93.047 124.397C93.0798 124.285 94.4343 122.624 94.5465 122.586C96.7618 121.84 94.6721 126.442 94.9043 126.633C95.197 126.596 95.572 126.707 95.8249 126.647C96.3232 126.529 96.6699 121.262 98.9977 122.053L98.1814 126.633C98.3942 126.894 99.1574 126.069 99.1778 126.014ZM49.5118 122.931C47.0673 123.286 45.3095 125.06 47.1087 127.328C48.1028 126.613 53.1743 125.848 53.5471 125.299C53.8798 124.809 53.6493 123.295 53.1297 122.992C52.6306 122.701 50.2182 122.829 49.5118 122.931ZM80.7049 126.368C77.5955 126.045 74.6152 125.267 71.6941 124.211C73.6883 125.954 76.3524 127.637 76.8841 130.409C77.3019 130.789 81.1067 127.397 80.7049 126.368ZM136.135 125.555L91.0789 130.41L91.0791 131.217L136.135 126.905L136.135 125.555ZM137.552 129.911C137.264 130.325 138.257 131.121 138.734 131.211C139.517 131.36 142.029 131.193 142.765 130.89C143.513 130.581 144.492 127.37 142.962 127.445C142.895 128.633 142.809 129.726 141.454 129.886C139.768 130.085 140.367 128.424 139.954 127.98C139.879 127.9 138.316 128.564 137.773 128.254C137.771 128.725 138.16 129.237 138.062 129.702C138.022 129.893 137.587 129.86 137.552 129.911ZM56.6749 129.868C55.7461 125.973 50.3836 128.458 47.6645 128.793C47.8685 129.337 48.1729 131.66 48.6273 131.758C51.0898 130.344 53.7997 129.6 56.6749 129.868ZM135.862 130.677C135.935 130.027 135.856 129.725 135.179 129.601C132.462 129.821 129.698 129.875 126.989 130.141C126.352 130.203 122.687 130.585 122.482 130.682C122.445 130.7 122.854 131.295 122.344 131.486L121.938 130.68C122.152 131.581 121.46 131.456 121.116 132.024L135.862 130.677ZM102.412 138.496C103.719 138.661 105.301 138.377 106.645 138.496L106.646 134.993C108.09 134.862 107.53 137.818 108.186 137.972C110.57 138.529 109.546 135.147 110.335 134.993C111.453 134.775 110.845 137.526 111.012 137.689C111.221 137.894 113.841 137.574 114.353 137.346C116.223 136.517 115.862 133.778 114.369 133.108C113.923 132.908 109.892 131.791 109.492 131.773C106.003 131.622 96.9007 132.807 93.5331 133.774C89.1146 135.042 80.7163 141.785 79.3238 146.164C77.865 150.751 78.6362 155.242 83.8422 156.561L81.8475 153.947C81.1268 152.988 80.9432 151.731 82.1808 153.079C84.4195 155.519 85.2077 156.799 89.0168 156.264C90.4587 156.061 90.0463 155.159 90.6569 154.117C91.3854 152.875 93.9591 150.662 95.2611 150.037C98.7745 148.352 101.431 150.998 105.004 149.276C104.954 148.878 104.038 148.649 103.7 148.547C102.597 148.212 101.577 148.158 100.453 147.709C100 147.528 97.7018 146.131 97.6274 145.91C97.5027 145.54 97.4797 145.193 98.0231 145.251C100.027 145.466 101.873 146.637 103.914 146.586C103.667 145.883 104.133 145.02 104.727 145.506C104.986 145.717 104.455 147.507 106.102 146.663C107.523 145.933 107.331 142.762 106.286 141.817C104.533 140.231 97.2336 140.828 98.047 136.875C99.3828 137.305 101.03 138.323 102.412 138.496ZM120.3 140.114C121.568 138.93 122.558 137.238 122.148 135.455C121.985 134.749 121.289 133.855 120.967 135.003C120.598 136.319 120.83 138.626 120.3 140.114ZM118.384 138.498C118.213 138.314 114.74 140.323 113.758 140.532C112.486 140.802 110.934 140.751 109.592 141.003C109.29 141.06 108.508 141.058 108.558 141.459C111.088 141.911 114.601 141.686 116.839 140.34C117.161 140.147 118.84 138.988 118.384 138.498ZM73.3308 141.193C64.6743 141.484 58.6513 150.874 63.284 158.526C64.2166 160.067 65.2006 160.829 67.052 161.139C67.2115 161.011 65.0139 158.105 65.822 157.369C67.9202 160.395 69.4631 162.842 73.5023 163.265C74.9653 163.418 77.5986 163.734 78.2472 162.222C75.9935 162.589 73.2936 162.818 71.4475 161.25C66.7374 157.248 67.5294 149.187 70.8671 144.554L73.3308 141.193ZM78.2472 142.543C76.1217 142.092 74.5833 144.351 73.6599 145.964C71.7699 149.264 71.1888 153.183 73.1325 156.621C74.6002 159.216 76.9477 158.443 79.6111 158.714C78.8622 156.529 75.7219 157.189 73.8785 156.825C74.4718 155.697 75.9985 155.576 77.1556 155.478C75.6535 151.278 75.9981 146.418 78.2472 142.543ZM63.5009 142.811C59.7282 143.676 57.4191 145.962 55.7244 149.284C53.9623 152.737 52.8853 157.628 56.6938 160.18C58.2912 161.251 63.0954 163.075 64.9953 163.041C65.2778 163.036 66.241 162.928 66.2316 162.492C58.5424 161.384 54.8771 152.1 59.9588 146.186C60.903 145.087 61.9493 144.607 62.93 143.727C63.2335 143.455 63.6158 143.33 63.5009 142.811ZM114.791 145.279C114.739 145.196 113.162 144.508 112.994 144.475C110.969 144.081 110.618 146.29 109.607 147.487C109.379 147.758 108.142 148.549 108.284 148.737C109.704 149.303 113.291 150.277 114.3 148.815C114.698 148.239 115.116 145.792 114.791 145.279ZM103.096 151.169C102.704 151.601 105.827 154.069 106.283 154.354C107.852 155.33 109.689 155.941 111.574 155.36C112.752 154.996 113.53 153.02 112.491 152.268C112.101 151.986 108.136 150.766 107.529 150.685C106.21 150.508 104.445 151.075 103.096 151.169ZM109.855 158.393C110.402 157.224 108.568 157.379 107.858 157.113C104.542 155.872 104.225 154.741 101.859 152.792C99.9618 151.228 96.9745 150.296 94.9086 152.11C96.4772 153.325 97.5963 155.048 99.1436 156.281C100.288 157.193 104.341 159.326 105.711 159.5C106.631 159.617 108.087 159.611 108.916 159.196C108.972 159.168 109.829 158.449 109.855 158.393ZM108.011 165.723C114.785 166.247 118.637 161.27 117.536 154.836C117.335 153.663 116.683 151.963 115.477 151.477C114.074 150.913 115.779 153.607 115.864 154.061C116.911 159.625 113.152 162.95 108.61 165.115C108.239 165.293 107.859 164.944 108.011 165.723ZM106.371 162.489C106.239 161.439 104.391 161.316 103.455 160.921C100.872 159.831 98.4762 158.75 96.3972 156.836C95.5549 156.06 94.5557 154.113 93.4017 154.105C90.8377 154.085 93.5753 158.483 94.3633 159.383C95.3931 160.559 99.0338 162.489 100.501 162.489H106.371ZM99.2701 163.841C95.6022 163.137 92.8699 161.375 90.6324 158.468C88.0304 159.632 91.8815 162.759 93.2933 163.405C93.848 163.659 97.1507 164.325 97.7889 164.36C98.0499 164.375 99.259 164.263 99.2701 163.841ZM69.7812 165.456C67.5866 165.576 65.3399 165.704 63.1724 166.072C62.0788 166.259 60.3226 166.411 59.6798 167.339C62.7057 167.087 66.1676 166.727 69.1198 166.001C69.5782 165.888 69.9149 166.269 69.7812 165.456ZM73.604 167.344C72.7144 167.472 71.8873 167.107 71.0226 167.061C67.2631 166.86 62.4054 168.157 58.8027 169.309C58.5161 169.401 57.9782 169.377 58.0427 169.765C62.0247 170.427 65.903 169.91 69.7184 168.761L73.604 167.344ZM76.6089 168.423C74.816 169.039 72.9942 169.618 71.2007 170.237C70.7587 170.39 70.4713 170.099 70.6037 170.845C72.6232 170.293 75.1333 170.018 76.6089 168.423ZM51.76 168.961C51.6056 168.804 47.9166 169.513 47.378 169.619C46.908 169.711 45.7094 169.883 45.4831 170.304C46.6441 170.887 47.5347 170.219 48.6486 170.065C49.439 169.956 50.9163 170.155 51.5791 169.773C51.8628 169.609 51.8324 169.034 51.76 168.961Z" fill="black"/>
<path d="M280.852 70.2944C280.902 70.3318 280.541 70.9948 280.383 71.1136C278.905 72.2273 275.744 73.4341 273.881 74.5975C268.094 78.212 263.644 82.517 259.283 87.6835C258.779 88.8915 261.906 87.1656 262.007 87.2737C262.042 87.3104 261.995 87.9318 262.258 88.2423C262.599 88.6459 263.329 88.5181 263.396 88.7746C263.735 90.071 260.455 93.781 260.646 94.0119C260.804 94.2015 261.642 94.1965 261.932 93.941C262.233 93.6755 264.216 89.7525 264.128 92.1876C264.105 92.8235 262.418 97.2852 264.323 95.6249C264.615 95.3711 265.764 92.9273 266.071 94.2017C266.417 95.6339 264.135 98.4095 265.287 100.214L261.293 97.5542C259.257 96.965 258.007 96.0883 255.94 97.0536C252.077 98.8577 253.296 101.395 255.464 104.118C257.637 106.846 261.844 109.323 265.114 106.918C265.418 106.694 266.791 104.617 267.198 105.069C267.632 106.096 266.535 107.763 266.835 108.5C267.481 110.087 274.515 113.294 276.335 113.975C277.394 114.371 278.929 114.859 280.03 115.18C280.908 115.436 285.332 116.174 285.481 116.408C286.265 117.646 283.193 117.505 282.614 117.479C279.827 117.354 277.696 116.581 275.131 115.971C274.856 115.905 274.238 115.616 274.3 116.117C277.381 117.803 280.467 120.112 284.128 120.167C283.716 121.294 282.548 120.82 281.672 121.107C282.484 122.438 289.055 125.4 289.19 126.353C289.4 127.83 285.346 125.631 284.764 125.333C276.996 121.347 270.74 114.785 262.559 111.539C263.499 115.591 263.167 120.223 262.208 124.268C262.106 124.699 260.248 130.652 259.282 129.599C259.407 127.578 260.317 125.766 260.614 123.772C261.003 121.153 261.136 117.003 260.915 114.373C260.452 108.872 256.987 109.39 254.099 105.735C252.622 103.866 252.086 101.601 250.936 99.6928C248.413 95.5078 241.949 92.8531 237.163 92.934C239.197 90.1798 243.704 91.4182 246.357 92.6209L249.722 94.5528C250.248 94.0315 245.437 90.679 246.175 89.9727C248.849 90.1525 251.601 92.4011 252.589 94.8225L254.092 91.861L252.184 92.6669C251.443 90.8465 254.024 89.8147 254.638 88.0871C248.709 86.9469 243.056 85.9769 237.107 87.6237C232.194 88.9835 227.133 92.2482 227.61 97.9224C227.939 101.826 234.696 110.842 237.323 114.211C243.793 122.506 251.893 130.682 261.192 135.805C261.309 135.973 260.608 136.571 260.231 136.61C257.564 136.887 251.273 132.43 248.907 130.948C249.22 134.186 252.034 134.482 254.333 135.698C256.08 136.623 263.021 140.383 263.647 141.87C263.863 142.383 263.365 142.299 263.02 142.22C261.326 141.836 252.094 135.88 251.364 136.61C252.009 139.461 253.909 143.064 254.073 145.952C254.146 147.233 253.161 147.576 254.21 148.766C254.465 149.055 255.146 149.272 255.191 149.414C255.52 150.448 254.483 149.97 254.365 150.089C254.211 150.246 254.666 151.05 254.609 151.137C254.518 151.275 253.684 151.273 253.82 151.837L268.015 159.523C268.167 159.414 268.34 157.499 268.615 157.013C268.953 156.416 270.192 156.243 269.806 155.481C269.5 154.876 268.28 154.393 267.607 154.396C266.516 154.402 264.949 155.797 264.734 154.533C264.314 152.068 267.878 153.297 266.786 151.439C266.119 150.306 260.674 150.114 260.643 148.608C262.386 147.462 264.884 149.405 266.643 148.324C267.011 148.099 268.503 144.966 269.021 144.217C269.265 143.864 269.619 143.898 269.633 143.866C269.741 143.62 268.612 141.925 268.432 141.458C268.044 140.456 266.699 135.84 267.655 135.24C269.25 134.237 276.658 136.776 279.08 136.875C281.315 136.966 283.82 136.546 285.903 135.801C286.733 135.504 290.031 133.644 290.276 133.64C291.235 133.626 291.151 134.912 291.232 134.992C291.285 135.043 292.497 134.751 292.667 134.66C293.347 134.297 293.21 133.635 293.699 133.253C293.787 133.184 295.624 132.29 295.736 132.301C296.028 132.329 296.072 133.175 296.277 133.103C299.457 130.655 304.597 129.586 308.569 129.333C316.399 128.835 326.393 130.131 331.779 136.336C332.916 137.647 333.271 138.107 334.508 139.304C335.939 140.688 337.608 142.189 338.515 143.973C339.825 146.547 339.761 149.967 340.379 152.784C347.684 149.6 358.288 149.54 361.535 158.179C362.325 160.281 363.831 167.572 363.592 169.639C363.362 171.635 361.223 172.715 360.092 170.656C359.418 166.575 359.909 159.216 356.757 156.157C353.782 153.27 346.864 153.439 343.162 154.59C339.46 155.741 340.211 156.751 338.305 159.231C336.171 162.009 332.751 163.823 329.457 164.919C329.57 165.519 330.534 164.916 331.029 165.097C331.367 165.221 331.349 165.718 331.534 165.74C332.213 165.821 334.471 164.195 335.276 163.789C340.369 161.22 345.991 157.994 351.845 158.718L332.186 168.423C333.994 170.54 335.864 175.146 333.96 177.58C333.108 177.031 333.282 175.562 332.922 174.967C332.836 174.825 332.449 174.768 332.353 174.601C332.093 174.147 332.107 173.37 331.642 173.274C331.555 174.387 332.602 175.883 332.464 176.896C332.381 177.508 331.709 178.131 331.085 177.735C330.522 177.377 329.272 173.657 328.777 172.728C321.768 159.571 305.546 161.191 294.046 167.294C288.985 169.979 287.391 173.033 285.499 178.265L284.666 178.538L283.859 176.51C283.081 177.341 283.612 180.142 282.179 179.885C281.878 179.831 280.828 178.712 280.707 178.401C280.436 177.711 280.987 176.456 280.849 175.7L279.772 178.815C278.396 179.888 277.376 174.325 277.036 173.4C273.854 164.74 264.299 160.402 256.273 156.697C247.025 152.427 240.334 151.347 230.396 154.325C229.747 154.519 228.585 155.306 228.074 155.174C226.954 154.885 227.063 154.021 227.732 153.311C231.777 149.016 238.402 150.541 243.3 150.369C243.714 150.355 244.102 150.546 243.995 149.95C243.868 149.243 242.842 148.396 242.472 147.678C238.866 140.674 237.741 132.28 235.329 124.806C233.054 117.753 229.853 111.081 226.361 104.545C224.724 102.472 220.5 103.839 218.411 104.751C213.852 106.74 208.564 111.119 207.976 116.284C207.176 123.301 212.711 139.965 215.123 147.182C216.164 150.297 219.291 156.71 219.64 159.461C219.832 160.974 219.035 161.367 217.901 160.344C215.584 158.254 212.865 150.171 211.764 146.993C208.973 138.937 202.727 120.451 205.712 112.701C208.407 105.702 217.241 101.887 224.216 100.769C223.291 96.5148 223.44 93.3251 226.375 89.9681C232.798 82.6194 245.762 83.8743 254.486 85.3808C255.11 85.2591 254.374 82.8672 254.768 82.4228C255.853 81.1965 255.602 84.2286 256.274 84.3086C256.305 82.6353 259.383 77.8958 260.786 77.3029C261.294 77.0884 261.241 77.5973 261.143 77.9254C260.619 79.6788 258.055 81.246 258.597 83.4999C264.062 76.7083 272.216 71.8359 280.852 70.2944ZM242.349 138.764C242.348 136.497 241.733 134.471 241.121 132.297L239.35 128.254C240 131.37 240.459 134.724 241.679 137.677C241.812 137.998 241.961 138.758 242.349 138.764ZM311.705 131.219C307.987 131.762 304.175 132.132 300.727 133.721C300.009 134.052 297.23 136.058 296.681 135.681C296.486 135.547 296.494 134.975 296.264 134.973C295.73 134.969 293.253 136.427 292.32 136.343C293.434 139.254 296.597 139.276 299.145 140.388C299.488 141.074 298.1 140.824 298.732 141.466C299.213 141.956 300.728 141.734 301.2 142.539C300.06 144.528 299.766 144.835 297.798 143.467L293.001 139.576C292.784 140.127 292.276 142.298 291.247 141.442C290.946 141.192 289.98 136.062 290.134 135.263L288.498 136.477C288.292 136.975 288.895 136.783 289.026 137.079C289.481 138.104 289.257 139.804 289.313 140.922C287.715 140.047 287.752 138.161 288.221 136.609C287.782 136.837 287.281 137.011 286.875 137.299C285.951 137.956 283.147 141.826 283.583 138.499C280.035 138.938 277.303 140 273.758 138.895C272.53 138.513 271.446 137.745 270.204 137.419C270.016 137.611 271.38 141.829 271.594 141.982C271.773 142.11 274.266 141.341 274.302 141.869C274.391 143.169 272.452 143.855 271.745 144.962C271.532 145.296 270.316 148.302 270.26 148.672C269.887 151.133 272.188 149.402 273.751 149.817C274.119 148.354 272.166 148.262 272.098 148.037C271.736 146.833 272.963 146.604 273.45 145.579C273.703 145.046 273.439 144.72 273.479 144.699C274.82 143.993 274.54 147.209 274.857 147.919C276.222 148.613 278.283 145.844 278.57 145.797C280.117 145.544 279.05 148.222 278.31 148.925C278.008 149.213 277.238 149.266 277.031 149.688C276.796 150.165 278.224 150.194 277.303 150.5C277.014 150.596 275.742 150.266 274.997 150.375C274.331 150.473 273.161 151.034 272.345 151.26C271.683 151.443 270.45 151.277 270.233 151.873C269.359 154.272 273.71 151.243 274.569 152.653L271.566 153.595C271.836 158.62 276.083 154.728 277.027 155.481C277.608 155.945 275.911 156.089 276.484 156.557C276.668 156.707 280.742 156.777 281.208 156.505C281.47 156.352 281.752 156.262 281.667 155.891C280.969 155.3 280.336 154.396 279.622 153.864C278.621 153.12 275.834 152.559 277.204 150.894C278.034 149.886 278.444 151.047 279.375 151.165C280.145 151.263 280.966 150.88 281.807 150.872C283.142 150.861 285.034 151.051 283.876 152.67C283.232 153.57 281.43 152.808 282.476 154.551C282.731 154.975 284.372 156.126 284.87 156.234C285.875 156.452 289.364 155.687 289.806 154.888C289.982 154.571 289.78 153.964 289.92 153.519C290.658 151.176 298.352 148.683 300.717 148.27C302.68 147.927 306.129 148.395 307.515 147.028C308.862 145.7 307.682 145.843 307.621 145.768C307.161 145.204 308.198 145.222 308.575 144.984C309.471 144.417 310.355 143.5 311.241 143.024C315.152 140.918 322.224 140.097 324.813 144.424C321.077 143.795 317.417 142.44 313.701 144.104L311.709 145.505C314.38 144.567 319.382 143.571 320.715 146.852C317.883 145.982 314.783 146.283 312.066 147.343L310.069 148.468C310.407 148.619 314.227 147.709 313.343 148.735C312.952 149.188 310.186 149.976 310.078 150.116C309.867 150.391 311.048 151.872 308.633 151.371C305.05 150.626 303.129 149.553 299.033 150.112C296.561 150.449 293.662 152.396 291.502 153.457C292.037 154.054 293.073 153.91 293.818 153.857C296.455 153.668 299.542 152.817 302.288 152.517C304.899 152.232 311.204 151.561 313.402 152.054C315.076 152.429 316.68 153.271 318.425 153.564C322.079 154.177 327.827 154.295 329.776 150.541C330.338 149.457 330.562 148.537 330.14 147.39C333.568 148.945 332.299 152.486 329.703 154.242C326.927 156.12 323.857 156.24 320.569 156.03C316.648 155.781 313.083 153.951 309.109 154C308.735 154.004 308.035 154.273 308.43 154.667C308.743 154.98 310.838 154.756 310.613 155.748C308.459 156.035 306.173 154.278 304.173 154.153C301.163 153.966 297.968 155.056 294.979 155.275L292.594 156.286C294.211 156.596 297.277 156.743 297.506 158.714C294.796 157.713 289.439 157.298 286.934 158.899C286.538 159.152 285.383 160.613 285.279 161.062C284.671 163.687 285.716 165.365 288.497 165.452C287.738 164.809 288.623 160.882 289.18 160.877C290.211 160.867 288.355 164.889 291.098 164.927C291.955 164.939 292.85 164.539 293.619 164.189C293.933 164.046 293.93 163.7 294.018 163.639C294.095 163.585 294.388 163.83 294.451 163.782C295.214 163.202 295.504 161.198 296.872 160.894C297.088 160.846 297.606 161.679 298.706 161.65C299.176 161.638 304.324 160.85 303.788 160.335C303.229 160.573 300.801 159.18 301.332 158.716C304.111 159.008 306.25 160.905 309.248 160.33L307.339 158.579C308.817 158.102 310.263 159.571 311.587 159.777C312.749 159.957 314.137 159.688 315.364 159.822C319.012 160.218 321.281 161.965 325.506 161.691C325.981 161.66 327.292 161.59 327.542 161.144C325.944 161.239 324.149 160.981 322.634 160.462C322.348 160.363 319.598 159.262 320.173 158.716C323.94 159.195 328.241 160.988 331.917 159.394C333.477 158.718 334.056 157.272 335.052 156.016C335.842 156.749 334.647 157.645 335.051 158.444C336.324 157.434 337.784 153.055 337.642 151.596C337.574 150.896 336.335 149.105 335.848 148.493C335.546 148.113 332.932 145.807 333.279 145.507C335.236 145.311 336.565 146.647 337.784 147.93C337.988 147.973 337.967 147.656 337.916 147.532C337.264 145.95 334.08 143.269 332.602 142.264C329.973 140.477 326.927 138.885 323.721 138.493C325.081 136.775 327.943 138.225 329.795 138.567C330.154 138.633 330.328 139.074 330.272 138.364C329.519 137.796 328.501 137.262 327.614 136.943C326.338 136.485 324.623 136.548 323.994 135.534L326.038 135.804C326.278 135.835 326.205 135.3 326.176 135.266C326.035 135.102 322.799 133.412 322.349 133.245C319.941 132.351 316.864 132.149 314.305 132.3C313.813 132.329 310.594 133.274 311.021 132.296L311.705 131.219ZM242.896 140.115C241.632 140.086 242.463 141.432 242.541 142.219L243.714 144.965L242.896 140.115ZM284.128 158.988C283.487 158.862 283.052 158.514 282.361 158.438C280.267 158.204 273.796 157.927 272.035 158.501C269.003 159.491 270.874 161.843 272.525 163.297C273.114 162.101 271.406 160.921 272.525 159.793C273.876 158.429 273.189 160.403 273.251 160.933C273.268 161.077 273.943 163.206 274.028 163.298C274.468 163.775 274.495 163.211 274.568 162.894C274.772 162.002 274.734 160.631 275.66 160.065C276.469 162.312 275.715 164.155 278.955 163.178C279.523 163.007 280.341 161.956 280.442 161.955C281.184 161.946 280.903 163.885 281.53 163.565C281.832 163.411 283.202 159.51 284.128 158.988ZM283.308 165.456C282.806 165.028 276.695 167.411 277.303 169.227C277.562 169.483 282.096 166.705 282.68 166.316C283.03 166.082 283.425 166.01 283.308 165.456ZM285.589 171.21C285.966 170.814 287.37 170.285 286.997 169.5C284.926 171.375 282.352 172.447 281.125 175.157L281.891 175.384C283.073 173.973 284.318 172.544 285.589 171.21Z" fill="black"/>
<path d="M350.206 98.6008C349.792 99.0127 350.348 99.0678 350.558 99.2023C351.07 99.5295 351.798 99.7245 352.368 100.103C356.447 102.81 361.01 108.199 356.487 112.614C359.637 112.908 363.115 113.639 366.01 114.941C368.233 115.942 370.481 117.255 370.887 119.831C371.678 124.839 368.196 127.317 364.121 129.242C364.422 132.738 364.294 136.22 364.394 139.721C364.412 140.359 364.675 140.948 364.69 141.585C364.712 142.546 364.803 148.151 364.56 148.488C364.344 148.786 363.331 148.87 363.073 148.706C361.781 147.888 362.345 132.509 362.222 130.138C361.571 130.179 360.631 129.881 360.36 130.596C360.422 134.71 360.047 139.136 360.3 143.224C360.381 144.546 360.924 145.522 360.868 146.995C360.841 147.735 360.464 149.673 360.121 150.286C359.698 151.043 358.675 150.867 358.442 150.178C358.183 149.416 358.277 147.026 357.996 145.768C356.724 140.071 352.185 136.711 346.609 135.443C343.997 134.85 339.993 135.092 337.904 134.328C337.195 134.069 337.237 133.492 336.961 133.376C336.435 133.153 336.632 133.849 336.376 133.915C335.961 134.024 335.373 133.857 334.917 133.912L335.461 132.567C333.808 132.551 333.023 131.829 331.913 130.812C332.357 130.612 333.225 130.6 333.704 130.657C334.206 130.716 334.094 131.135 334.229 131.154C338.027 131.699 344.535 131.456 348.429 131.215C350.889 131.063 354.838 130.922 355.941 128.525C352.984 128.685 350.017 128.684 347.055 128.78C340.051 129.007 332.891 129.531 326.049 127.73C325.594 127.61 323.36 126.927 323.171 126.773C322.431 126.166 322.667 125.284 324.003 125.682C332.457 128.205 351.559 128.265 360.319 126.509C363.381 125.896 367.525 124.919 368.771 121.782C364.102 124.426 358.405 125.159 353.071 125.554C345.461 126.118 330.954 126.245 323.816 124.249C322.938 124.004 320.445 123.052 322.189 122.334C326.372 122.814 330.581 123.642 334.782 123.936C342.924 124.507 355.483 124.404 363.255 122.129C368.179 120.688 370.076 118.997 364.318 116.342C362.874 115.677 357.453 113.878 356.091 113.974C355.569 114.01 354.274 114.475 354.583 115.17C354.976 116.056 359.623 115.82 356.593 118.787C353.37 121.944 340.549 121.777 336.965 119.085C336.304 118.589 334.555 116.607 335.912 116.161C337.904 115.506 337.291 116.923 337.614 117.34C339.763 120.113 350.103 120.131 353.273 118.744L355.666 117.472C355.261 117.377 355.012 117.247 354.568 117.315C352.772 117.591 351.012 118.42 348.988 118.558C347.195 118.68 344.225 118.515 342.428 118.274C340.43 118.007 339.137 117.559 337.921 116.124C338.909 116.208 338.245 115.807 338.226 115.439C338.214 115.209 338.931 115.542 338.63 114.748C338.422 114.197 336.102 111.854 335.594 111.806L325.766 112.614C325.17 112.522 321.944 112.757 321.808 112.615C321.772 112.578 321.756 111.693 321.86 111.582C321.938 111.5 322.375 111.539 322.596 111.373C323.792 110.469 324.429 110.412 326.046 110.194C328.791 109.825 331.636 109.9 334.387 109.534C334.753 107.142 335.271 105.47 336.835 103.593C337.684 102.575 340.657 99.9266 341.763 99.2936C342.254 99.0122 343.319 98.9212 343.381 98.865C344.197 98.1183 342.3 98.5051 342.199 98.4969C337.69 98.1293 331.457 97.1119 327.731 94.5035C324.927 92.5403 325.2 91.7747 325.758 88.6135C326.701 83.2744 328.793 75.7848 330.353 70.5052C331.6 66.2883 332.849 66.5063 337.043 65.7876C342.068 64.9267 354.27 64.481 358.685 66.9085C359.144 67.1609 359.603 67.4205 359.881 67.8843L367.083 92.4677C366.547 94.9954 358.56 97.1602 356.223 97.6637C355.311 97.8602 350.421 98.3876 350.206 98.6008ZM333.032 71.3924C331.397 77.1758 329.385 83.2348 328.17 89.1081C328.004 89.9113 327.591 91.1433 327.95 91.8603C328.241 92.4399 331.414 93.8683 332.19 94.1454C338.967 96.5645 355.682 96.6968 362.132 93.5234C362.531 93.3274 364.146 92.3944 364.28 92.1263L358.285 68.3828C350.198 66.0052 341.214 67.1279 333.004 68.4074C333.061 69.8978 333.77 69.287 334.656 69.6005C335.194 69.7912 335.511 70.3845 335.929 70.505C336.529 70.6783 340.052 70.8002 341.048 70.8422C343.462 70.9438 353.866 70.971 355.556 70.1965C355.973 70.0052 355.784 69.2903 356.343 69.4879C357.68 69.9601 357.314 70.9491 356.305 71.595C352.997 73.7124 341.574 73.3374 337.632 72.5972C336.895 72.4587 333.288 71.211 333.032 71.3924ZM349.387 99.9487C348.806 100.24 346.223 99.5581 346.112 99.6777C346.055 99.7398 346.142 100.265 346.112 100.484C347.151 100.094 348.746 101.062 349.387 99.9487ZM353.66 103.276C353.185 102.765 350.953 101.053 350.32 101.019C349.631 100.982 348.797 101.938 347.616 101.96C345.633 101.997 344.894 100.411 342.361 101.231C336.864 103.01 335.593 111.79 341.953 113.891C345.604 115.097 351.468 114.849 354.301 111.941C356.795 109.38 355.907 105.697 353.66 103.276ZM352.936 116.657C353.076 116.467 352.811 115.959 352.537 115.919C352.134 115.861 349.125 116.843 348.156 116.925C347.126 117.012 344.364 116.971 343.285 116.913C342.401 116.865 340.874 115.878 340.377 116.927C342.05 117.61 352.245 117.597 352.936 116.657ZM356.35 133.644C355.07 133.791 353.567 133.537 352.254 133.644L350.481 134.18C353.556 133.928 355.134 136.349 357.303 137.957L357.031 133.375C356.726 133.274 356.467 133.63 356.35 133.644Z" fill="black"/>
<path d="M201.938 2.0887C202.058 2.63458 201.815 2.8083 201.542 3.17728C200.469 4.62681 197.282 6.88497 195.792 8.55352C188.304 16.9402 184.129 30.1929 185.285 41.3102C186.315 51.2191 192.034 58.8628 192.38 69.0814C192.915 84.9037 183.801 92.7427 178.137 105.695C168.444 127.858 193.431 134.594 191.528 155.85C190.39 168.567 176.444 175.914 183.816 189.683C184.197 190.396 186.32 193.166 186.352 193.387C186.553 194.747 184.158 193.474 183.638 193.094C180.448 190.766 178.002 184.809 177.966 180.956C177.852 168.998 188.588 164.185 186.022 149.494C184.302 139.642 178.05 135.735 173.429 128.229C162.038 109.731 188.862 89.887 189.116 70.4139C189.257 59.6283 182.322 51.4772 181.722 41.0533C181.035 29.1148 186.262 13.8077 195.53 5.86872C196.295 5.2138 201.197 1.37207 201.938 2.0887Z" fill="black"/>
<path d="M253 72.7153C250.819 72.9268 250.093 72.7495 248.791 71.0773C246.111 67.6355 246.663 61.2767 241.541 59.9029C241.188 59.8082 238.038 59.3511 238.528 60.0431C244.526 62.7616 240.434 70.5818 245.372 73.9138C246.291 74.5339 247.313 74.6189 248.192 75.443C248.436 75.6724 250.113 77.9057 250.167 78.1021C250.287 78.539 249.824 79.1806 249.587 79.1832C249.431 79.185 247.94 77.4054 247.245 77.1559C246.349 76.8339 246.247 77.9225 246.034 76.4902L246.114 78.4444C245.942 78.9483 246.012 79.343 245.358 79.1871C244.732 77.4494 242.72 74.2372 240.592 74.6151C238.544 74.9789 234.763 80.8131 232.811 81.4962C232.529 81.5946 232.276 81.6576 231.976 81.6129C231.426 81.0679 235.318 76.8514 234.977 76.4935C234.147 76.3869 234.029 77.6187 233.473 77.8379C232.901 78.0632 233.153 77.2008 232.933 77.3008C232.843 77.3417 231.373 78.4979 231.7 77.4384C231.778 77.1862 232.295 77.3445 232.252 77.1712C231.862 75.6087 229.266 77.2651 228.73 78.0058C227.29 79.9946 229.456 82.3541 226.702 83.5519C224.209 84.636 222.018 84.2527 219.579 84.6074C218.554 84.7564 217.54 85.2168 216.509 85.3503C215.095 85.5333 212.144 86.002 210.885 85.8691C210.686 85.8482 210.147 85.7087 210.111 85.4905C210.365 84.5579 210.636 83.5056 211.014 82.6218C211.682 81.0572 212.723 79.9797 213.949 78.7673C214.231 78.4882 214.741 78.4083 214.77 78.3741C215.374 77.6782 213.594 77.7211 213.137 78.1095C212.738 77.5517 214.465 74.5689 214.924 74.0821C215.222 73.7658 217.868 72.2831 216.03 72.1925C212.993 72.0427 210.653 75.9639 209.726 78.3841C209.275 79.5616 208.679 83.3218 208.353 83.7674C207.908 84.3755 207.086 83.9005 206.91 83.311C205.762 79.4626 209.976 70.8567 214.194 70.1677C214.591 70.1027 215.7 70.445 215.863 70.2903C216.718 69.4835 212.954 68.384 212.388 67.9579C210.88 66.823 208.709 62.7441 209.493 60.9192C209.69 60.4616 211.001 59.9276 211.345 59.2243C212.132 57.6115 211.466 56.0872 212.992 54.1107C217.52 48.2436 229.195 47.3615 230.86 56.43C231.157 58.0437 230.188 58.8827 232.527 59.3972C233.197 59.5447 234.803 58.134 235.723 57.9517C237.071 57.6843 241.351 57.5849 242.689 57.9637C247.994 59.466 247.65 65.7592 250.042 69.3031C250.797 70.4223 252.278 71.4782 253 72.7153ZM227.606 59.5058C227.799 58.8918 228.633 58.7546 228.943 58.2669C230.331 56.0819 227.787 52.1136 225.238 52.0294C224.129 51.9928 222.994 53.6732 222.559 53.5762C221.858 52.9796 222.447 51.8404 221.252 52.0026C219.229 52.2773 218.278 54.8176 218.658 56.6179C218.772 57.1545 220.596 59.6407 218.849 59.1286C218.402 58.9976 218.087 58.3527 217.382 58.4174C215 58.6359 218.988 61.6319 217.65 62.7445C217.309 63.0286 216.009 63.2722 215.579 63.1672C214.798 62.9766 214.316 61.755 213.599 61.7296C211.023 61.6382 212.612 66.193 214.965 66.7319C215.459 66.845 216.434 66.6782 216.649 66.8207C216.879 66.9727 217.261 69.6181 217.658 70.2739C218.945 72.3993 223.899 72.602 226.112 72.4581C226.895 72.4072 227.367 71.7578 228.125 72.2069C228.582 72.9815 227.212 75.7671 226.612 75.9394C226.138 76.0752 225.752 75.5137 225.271 75.4268C224.261 75.2444 223.209 75.3779 222.145 74.8773C222.958 76.086 224.559 75.836 225.77 76.0118C226.655 76.1403 226.814 77.0098 227.993 75.9288C228.27 75.675 229.514 73.953 229.512 73.6627C229.51 73.3324 228.614 71.9353 228.491 71.1701C228.207 69.3988 228.979 67.0744 227.476 65.7023C227.04 65.3048 224.886 64.5447 224.881 64.2262C226.08 62.5343 227.454 64.9804 228.981 64.5204C229.748 64.2894 230.997 62.901 231.025 62.0731C231.092 60.1236 229.343 59.3081 227.606 59.5058ZM233.204 69.7526C234.28 69.9777 235.997 69.5889 237.163 69.7526C235.852 71.483 233.335 71.4198 231.612 70.2466C230.906 69.7659 230.642 68.6876 230.059 69.0826C230.502 73.0722 232.618 75.8048 236.995 74.5749C238.46 74.1633 239.427 72.8582 240.986 72.7149C239.836 70.1441 240.714 61.1617 237.451 60.1695C233.796 59.0581 233.744 62.8207 231.837 64.6295C231.245 65.1916 229.779 66.1224 228.972 66.2509C229.22 67.4053 231.848 66.9277 231.976 67.0554C232.094 67.173 231.487 69.3935 233.204 69.7526Z" fill="black"/>
<path d="M295.596 71.1006C295.559 71.322 295.658 71.8268 295.595 71.9036C295.448 72.0838 291.651 72.4623 291.018 72.9164L285.767 74.872C289.722 74.5376 295.266 73.0663 298.053 76.7591C295.307 75.8982 292.435 76.3034 289.589 76.2254C290.882 77.2438 292.212 78.176 293.252 79.4803C294.096 80.5388 296.352 85.3277 296.684 85.5336C297.205 85.8575 299.626 84.8856 300.508 84.7119C306.823 83.468 314.43 83.6586 319.874 87.4336C325.219 91.1407 323.608 98.0294 322.548 103.507C321.363 109.629 319.254 115.899 316.867 121.654L316.944 122.003C318.226 123.087 320.168 124.499 321.268 125.685C321.591 126.033 321.761 126.614 322.081 127.04C322.393 127.454 323.117 127.872 323.304 128.258C324.146 129.995 322.166 129.297 321.119 128.798C320.292 128.403 314.933 124.555 314.326 123.913C312.495 121.974 313.427 121.4 312.946 119.618C312.727 118.807 311.102 116.098 310.56 115.23C308.929 112.613 306.873 110.244 304.886 107.897C305.196 107.55 305.214 107.411 305.7 107.624C309.432 109.258 312.352 114.459 314.139 117.895C314.285 118.175 313.995 118.403 314.706 118.278C316.971 111.26 320.347 103.487 320.729 96.0499C321.175 87.3761 312.034 85.949 305.056 86.5111C304.073 86.5903 297.475 87.5496 297.512 88.4889C300.591 90.0727 303.039 91.7087 304.743 94.8187C306.348 92.768 309.762 91.3149 312.387 91.2941C312.704 91.2916 314.352 91.5205 314.422 91.6036C314.556 91.7646 314.474 92.6029 314.173 92.8121C313.893 93.0067 311.091 93.4212 310.061 93.8739C309.267 94.2229 306.36 96.2136 305.952 96.8266C305.435 97.6049 305.762 99.9986 305.669 101.13C305.618 101.759 305.151 102.556 305.162 103.072C305.179 103.808 305.827 103.515 306.331 103.742C309.152 105.012 313.417 107.39 313.616 110.728C312.407 110.907 312.133 109.586 311.444 108.966C309.528 107.244 307.187 106.174 304.882 105.068C304.525 107.607 303.222 110.035 301.829 112.166C301.469 112.718 300.44 113.59 300.241 114.105C300.048 114.605 300.436 114.448 300.616 114.527C301.965 115.12 303.238 115.456 304.47 116.391C304.958 116.761 307.894 119.7 307.876 120.032C307.86 120.336 307.223 120.418 306.941 120.448C305.461 120.603 299.613 121.213 298.664 120.775C298.078 120.505 297.767 119.482 298.081 119.111C298.784 118.28 303.702 119.374 304.878 118.953C303.489 118.087 300.093 115.429 298.52 115.902C298.352 115.952 295.846 117.86 295.736 118.012C294.608 119.571 295.307 123.35 292.868 124.208C292.652 122.349 293.505 120.64 293.683 118.818C292.257 119.23 291.374 120.321 289.722 120.188C288.394 120.081 288.818 119.06 289.566 118.39C290.356 117.682 293.313 116.56 294.641 115.583C301.314 110.668 306.643 97.2328 298.729 91.3262C297.669 90.5352 296.064 90.3067 295.469 89.4227C294.989 88.7101 294.986 87.7968 294.637 87.0093C292.413 81.9905 289.863 76.1865 283.204 76.7961C282.633 76.8484 278.647 78.1845 278.672 77.1662C278.68 76.8395 283.31 73.5281 283.943 73.21C284.874 72.7427 289.449 71.1006 290.271 71.1006H295.596Z" fill="black"/>
<path d="M255.186 34.9738C249.196 35.1605 243.264 36.0319 237.298 36.5918C225.662 37.6836 213.917 38.865 202.35 39.8125C200.792 39.9401 200.541 40.9994 200.128 41.1313C199.763 41.2479 198.396 41.0714 198.395 41.5807C198.395 41.6405 198.879 41.9845 198.952 42.6446C199.233 45.2077 199.057 48.1599 199.212 50.7443C199.826 60.976 200.678 71.2405 201.132 81.4684C201.308 85.4351 201.169 89.2723 201.395 93.2054C206.559 91.97 212.072 90.7945 217.369 90.243C218.526 90.1226 221.299 89.798 222.282 89.9735C222.691 90.0466 222.977 90.1758 222.975 90.6498C222.97 91.8239 218.349 92.6508 217.286 92.8572C212.696 93.7493 206.913 94.8153 202.311 95.3243C201.57 95.4063 199.741 95.7696 199.274 95.2971C197.954 93.96 198.494 86.5465 198.401 84.4338C197.872 72.402 197.419 60.3749 197.022 48.3235C196.944 45.967 196.455 43.4308 196.745 41.0357C197.061 38.4245 199.38 38.5749 201.569 38.2499C215.53 36.1764 230.284 35.4902 244.397 34.166C246.198 33.9971 253.259 32.675 254.37 33.22C254.845 33.4532 255.117 34.4656 255.186 34.9738Z" fill="black"/>
<path d="M251.361 37.137C252.232 38.0317 250.105 37.4053 250.033 37.4435C249.97 37.4772 249.921 37.9278 249.713 38.0525C248.753 38.6282 240.46 39.6172 238.662 39.8256C229.241 40.9173 219.703 41.6176 210.272 42.5286C208.129 42.7356 206.119 43.5467 203.85 43.0626L204.946 88.6233C206.721 87.7357 208.607 87.8008 210.465 87.4708C214.392 86.7733 218.692 85.6409 222.582 85.146C223.453 85.0352 225.898 84.7671 226.653 84.8323C227.06 84.8674 227.507 84.9094 227.606 85.3851C226.56 85.5106 225.711 86.1684 224.725 86.453C221.915 87.2649 218.875 87.6273 216.033 88.1156C211.917 88.8232 207.797 89.6704 203.592 89.6862L202.212 42.7944C203.287 43.1663 203.739 42.2423 204.332 42.0561C206.813 41.2772 211.117 40.9959 213.851 40.6711C222.189 39.6805 230.579 39.0368 238.936 38.2097C242.286 37.8781 246.355 36.9391 249.6 36.8535C249.957 36.8441 251.194 36.9654 251.361 37.137Z" fill="black"/>
<path d="M93.7121 111.9C93.9453 112.191 94.1457 112.486 94.0831 112.884C86.6121 112.467 79.0436 116.224 71.8273 116.657C65.8485 117.015 62.3156 114.096 64.7367 108.039C69.851 95.2424 87.8131 104.528 93.7121 111.9ZM74.6587 104.568C74.5762 104.438 73.7067 104.258 73.4613 104.248C70.1238 104.117 66.0181 107.859 66.5077 111.267C68.5864 110.855 67.9339 109.717 68.2619 108.284C68.4435 107.491 69.1327 106.449 69.2368 107.894C69.2851 108.563 69.2012 109.251 69.2384 109.919C70.227 109.317 73.8156 109.418 74.3606 108.779C74.6409 108.451 74.8222 104.825 74.6587 104.568ZM75.79 104.933C75.5206 105.786 75.9862 107.821 75.79 108.842C76.9876 108.442 80.8094 109.756 81.3424 108.511C81.6036 107.901 81.7201 106.531 81.2538 106.008C80.7497 105.443 76.1367 103.836 75.79 104.933ZM89.9865 110.463C89.0067 110.07 83.1578 105.859 82.6177 106.417C82.701 108.416 82.7451 110.004 81.7984 111.806L89.9865 110.463ZM80.978 110.19H75.79C75.4529 111.084 75.6048 112.091 75.7988 113.019C75.876 113.389 75.5767 113.458 76.1981 113.429C76.7766 113.401 80.7784 112.282 80.9312 112.033C81.1485 111.678 80.8878 110.679 80.978 110.19ZM66.779 112.621C67.4781 114.747 70.2833 114.363 72.101 114.231C72.6346 114.192 74.8655 113.937 74.9293 113.569C74.2676 112.359 74.9365 110.663 73.1677 110.466C70.8462 110.208 68.7939 111.881 66.779 112.621Z" fill="black"/>
<path d="M213.271 109.117C213.724 109.093 213.521 109.627 213.48 109.85C213.291 110.869 212.707 111.87 212.591 113.023C211.947 119.395 215.032 131.706 217.035 138.015C218.605 142.96 221.332 147.939 222.814 152.796C223.141 153.87 223.639 155.14 221.855 154.558C220.583 154.143 218.246 148.547 217.644 147.119C215.161 141.234 213.015 134.218 211.623 127.992C210.546 123.178 208.885 114.717 211.923 110.477C212.083 110.254 213.175 109.122 213.271 109.117Z" fill="black"/>
<path d="M238.238 147.377C237.359 147.996 236.108 145.575 235.864 145.036C232.318 137.204 227.976 114.122 222.147 109.514C220.794 108.444 219.227 108.097 217.502 108.032C217.539 107.812 217.444 107.299 217.503 107.229C217.71 106.985 220.643 106.617 221.197 106.679C225.53 107.162 228.305 114.283 229.592 117.8C232.934 126.929 234.962 136.772 238.619 145.841C238.797 146.119 238.304 147.331 238.238 147.377Z" fill="black"/>
<path d="M258.142 162.555C265.271 162.363 270.997 165.123 273.612 171.928C273.983 172.892 275.437 177.675 274.591 178.28C272.645 179.672 271.993 174.095 271.62 173.086C270.179 169.193 266.788 165.408 262.418 164.918C255.486 164.141 248.87 166.695 247.571 173.978C247.414 174.861 247.974 176.385 246.595 176.247C244.629 176.05 245.071 171.783 245.382 170.468C246.616 165.243 253.22 162.687 258.142 162.555Z" fill="black"/>
<path d="M253.787 69.1785C253.669 69.2509 253.104 69.2555 253.016 69.2017C252.044 68.6082 251.961 54.211 251.919 52.0838C251.831 47.6995 252.088 43.258 251.921 38.8731C251.907 38.494 251.594 37.4846 251.642 37.4218C251.697 37.348 253.154 36.8462 253.413 36.842C254.791 36.8199 254.039 37.5897 254.069 38.3438C254.265 43.2391 254.033 48.2986 254.07 53.1777C254.104 57.7508 254.801 62.5978 254.379 67.2055C254.343 67.6008 254.01 69.0413 253.787 69.1785Z" fill="black"/>
<path d="M274.123 99.5675C273.955 99.4373 274.169 98.9787 273.619 99.1393L272.39 100.754C270.725 97.3131 273.96 95.4975 277.027 96.575C273.502 97.8744 277.034 99.8012 278.943 100.616C283.539 102.578 294.525 102.218 296.54 96.6995C296.746 96.1348 296.539 93.9998 297.097 94.0207C297.402 94.0321 297.717 95.1953 297.756 95.5265C298.359 100.6 291.776 103.424 287.551 103.731C282.138 104.123 278.26 102.781 274.123 99.5675Z" fill="black"/>
<path d="M257.916 34.4381C257.964 35.1291 257.656 35.7621 257.631 36.4477C257.254 46.8554 257.582 57.8205 257.629 68.2826C257.634 69.3895 258.174 70.1404 257.665 71.2594C256.769 73.229 256.336 70.2347 256.267 69.3581C255.613 61.058 255.966 52.2946 256.016 44.0183C256.024 42.6756 255.798 34.5031 256.281 34.166L257.916 34.4381Z" fill="black"/>
<path d="M243.094 44.2203C243.375 44.4599 243.855 45.5603 243.927 45.9571C245.291 53.4521 234.746 56.5981 232.707 49.2168C232.18 47.3132 232.794 45.3957 234.555 44.3969C235.816 43.6818 237.004 44.4396 238.099 44.3945C239.527 44.3357 241.328 42.7171 243.094 44.2203ZM240.891 50.5185C241.755 49.5859 243.11 46.6473 241.534 45.8951C239.753 45.0452 238.564 47.7193 237.691 46.9891C237.226 46.6001 237.949 45.6627 236.268 46.0879C233.943 46.6759 234.505 48.4388 235.468 49.9947C236.755 52.0731 239.23 52.3096 240.891 50.5185Z" fill="black"/>
<path d="M280.853 95.0945C283.875 95.9357 292.082 95.8593 292.072 91.4533C292.062 87.0713 286.882 87.8703 284.304 89.7415C283.377 90.4149 283.286 91.6406 282.218 91.8571C282.694 85.6051 293.236 83.7023 294.206 90.6681C295.071 96.8815 288.246 98.0304 283.514 96.9128C283.138 96.824 280.189 95.7432 280.853 95.0945Z" fill="black"/>
<path d="M40.4892 38.2882L49.2552 51.8734C50.0969 53.0411 50.0746 54.8261 48.214 53.9794C47.9752 53.8706 46.7294 52.3053 46.4556 51.9416C45.3102 50.4197 38.1649 39.3769 38.392 38.3634C38.5535 37.6428 39.9849 38.165 40.4892 38.2882Z" fill="black"/>
<path d="M61.5091 134.265C62.5646 135.221 62.5794 137.456 61.8331 138.6C60.7996 140.186 56.1056 140.639 54.3714 140.367C50.8784 139.821 50.3286 134.648 53.5932 133.431C55.3086 132.791 60.1266 133.013 61.5091 134.265ZM53.4763 138.152C53.8479 138.521 54.8945 138.762 55.4416 138.788C56.1101 138.819 59.1288 138.543 59.6944 138.376C60.7975 138.051 61.3829 136.76 61.0089 135.699C60.6989 134.82 55.6303 134.824 54.6949 135.058C53.3609 135.391 52.3133 136.996 53.4763 138.152Z" fill="black"/>
<path d="M63.2901 46.7717C62.9468 46.3308 61.9079 42.0637 61.7181 41.186C61.3852 39.647 59.9458 31.8156 60.2226 30.8547C60.2701 30.69 61.0497 30.2285 61.1835 30.224C62.2691 30.1875 62.6998 32.6434 62.9365 33.5131C63.663 36.1825 65.1142 42.5464 65.1208 45.1217C65.1232 46.0537 63.9547 47.6252 63.2901 46.7717Z" fill="black"/>
<path d="M80.427 46.8373C79.8438 47.2197 79.3559 46.5422 79.3157 45.8988C79.2535 44.9021 80.4884 40.0145 80.8386 38.7486C81.2769 37.1646 83.2577 31.1024 84.1315 30.1392C84.3459 29.9028 84.6301 29.7329 84.9413 29.6538C85.0916 29.6662 85.6971 30.2457 85.7629 30.4024C86.037 31.0548 82.6379 41.1732 82.0813 42.6714C81.8724 43.2339 80.6157 46.7135 80.427 46.8373Z" fill="black"/>
<path d="M129.307 150.896C128.953 151.278 126.088 148.388 125.69 148.118C125.14 147.746 122.873 146.524 122.36 146.566C122.204 146.579 122.212 147.141 122.056 147.14C121.826 147.138 121.289 146.605 121.118 146.987C122.213 147.835 124.202 150.594 122.485 151.436C122.605 149.089 119.141 148.248 118.23 147.144C116.429 144.959 122.056 144.271 123.414 144.452C126.223 144.825 129.284 148.031 129.307 150.896Z" fill="black"/>
<path d="M101.558 48.5582C100.556 49.3345 100.153 50.1205 98.4528 49.8021C98.4042 49.3411 98.4709 48.9501 98.6605 48.5255C99.1056 47.5284 106.306 40.2379 107.452 39.4135C109.168 38.1788 110.16 39.2191 109.104 40.7752C107.593 43.0028 103.725 46.8776 101.558 48.5582Z" fill="black"/>
<path d="M24.5271 56.0651C24.9111 55.676 25.4564 55.9218 25.8832 56.0575C28.4973 56.8888 33.2418 59.0788 35.6564 60.447C36.365 60.8485 38.9276 62.2281 38.6526 63.1384C38.4257 63.8894 37.0981 63.4421 36.5921 63.2951C34.7336 62.7552 27.2633 59.2756 25.6312 58.2134C24.9323 57.7586 23.6751 56.9284 24.5271 56.0651Z" fill="black"/>
<path d="M355.327 144.222C355.776 144.662 355.63 145.501 355.359 146.012C350.147 144.91 346.426 147.002 342.563 150.088C342.072 147.966 344.408 145.503 346.192 144.642C347.966 143.785 353.852 142.78 355.327 144.222Z" fill="black"/>
<path d="M310.342 167.343C312.685 167.118 314.631 168.815 316.067 170.45C316.971 171.481 319.063 174.66 319.308 175.902C319.476 176.756 318.383 178.022 317.627 177.83C317.016 177.675 315.525 174.259 314.988 173.402C314.287 172.283 313.23 170.776 312.36 169.796C311.715 169.071 310.195 168.584 310.342 167.343Z" fill="black"/>
<path d="M248.902 101.565C248.424 102.565 247.836 103.502 247.406 104.533C246.188 107.465 245.212 110.982 244.843 114.134C244.751 114.921 244.886 119.996 243.575 116.665C242.855 114.835 243.098 111.032 243.57 109.103C243.833 108.029 247.421 100.22 248.902 101.565Z" fill="black"/>
<path d="M250.813 105.877C250.393 109.076 249.376 112.206 249.18 115.449C249.121 116.433 249.682 122.582 248.495 122.585C246.355 119.6 247.244 114.115 248.165 110.673C248.587 109.096 249.238 106.538 250.813 105.877Z" fill="black"/>
<path d="M286.039 70.2946C286.104 70.3422 285.707 70.9831 285.563 71.1096C284.381 72.149 280.755 73.6452 279.124 74.6521C278.334 75.1402 272.695 79.5348 272.115 78.9171C272.111 76.5664 275.251 74.6135 277.157 73.5191C278.352 72.8334 285.145 69.6384 286.039 70.2946Z" fill="black"/>
<path d="M349.933 163.841C349.861 164.302 349.382 164.31 349.054 164.452C347.066 165.313 345.038 165.912 343.101 166.932C342.156 167.43 336.18 171.561 335.736 171.115C335.881 168.465 339.795 166.403 342.009 165.314C344.421 164.129 347.259 162.811 349.933 163.841Z" fill="black"/>
<path d="M280.303 90.239C280.058 90.5738 275.41 89.4094 275.937 92.6659C276.107 92.4716 279.511 92.8518 278.667 93.4747C278.167 93.8435 272.505 93.0831 271.296 94.0142C271.16 93.8687 272.214 91.0343 272.427 90.6849C273.172 89.46 276.933 88.1132 278.247 88.3545C278.679 88.4338 280.619 89.8077 280.303 90.239Z" fill="black"/>
<path d="M120.57 50.6135C120.777 51.7084 119.698 52.5118 118.909 53.1507C116.549 55.0614 113.45 56.4582 111.009 58.2919C109.963 58.7693 109.648 57.8195 110.18 56.9323C110.596 56.2399 112.992 54.3045 113.767 53.7356C114.648 53.0896 119.744 49.7864 120.57 50.6135Z" fill="black"/>
<path d="M247.91 72.3513C248.847 73.2555 251.681 74.0712 251.905 74.3407C251.936 74.3778 252.006 74.9087 251.768 74.8785C250.147 74.3759 248.923 74.9884 247.262 74.2037C245.646 73.4401 244.217 70.4779 243.707 68.818C243.499 68.1422 242.425 63.4852 242.625 63.284C242.897 63.0108 243.426 63.3962 243.679 63.7235C245.415 65.97 245.518 70.0418 247.91 72.3513Z" fill="black"/>
<path d="M305.151 168.421C305.276 168.981 304.859 169.034 304.531 169.289C302.951 170.521 301.152 171.779 299.688 173.134C298.649 174.096 296.424 177.117 295.326 177.437C293.476 177.977 295.449 174.889 295.916 174.262C297.968 171.509 301.767 169.117 305.151 168.421Z" fill="black"/>
<path d="M265.599 128.742C265.449 128.498 266.063 126.288 266.101 125.688C266.294 122.712 265.346 120.045 264.743 117.201C266.734 117.543 267.84 121.253 268.016 122.998C268.114 123.98 267.972 129.248 266.521 129.263C266.467 129.264 265.626 128.787 265.599 128.742Z" fill="black"/>
<path d="M73.605 97.5226C72.668 98.7575 70.8489 98.6962 69.5356 99.2977C68.4531 99.7935 63.2759 104.261 62.6846 103.719C64.1299 99.6184 69.1191 96.1265 73.605 97.5226Z" fill="black"/>
<path d="M277.029 81.8813C276.942 81.9869 275.091 82.3027 274.384 82.6424C273.745 82.9488 272.853 83.6109 272.256 84.046C271.776 84.3957 269.333 86.9729 268.838 86.4655C268.601 84.0976 271.894 80.673 274.151 80.52C274.846 80.473 277.941 80.7729 277.029 81.8813Z" fill="black"/>
<path d="M261.959 101.792C261.923 101.844 261.602 101.81 261.548 101.896C261.111 102.598 262.09 104.202 262.009 105.066C260.293 105.256 259.719 103.55 258.462 102.773L259.282 102.37C258.664 100.267 256.389 101.489 255.189 100.35C257.194 98.3582 260.284 99.7771 262.008 101.432C262.068 101.571 262.038 101.676 261.959 101.792Z" fill="black"/>
<path d="M86.4385 133.107L81.0804 136.576C80.6239 136.588 78.0195 138.255 77.9805 137.285C77.9758 137.167 78.9706 135.493 79.2016 135.26C80.7001 133.749 84.3085 132.66 86.4385 133.107Z" fill="black"/>
<path d="M298.873 168.692C297.256 170.473 295.002 171.898 293.565 173.828C293.152 174.383 292.526 176.09 292.044 176.37C290.327 177.367 291.037 175.076 291.453 174.169C292.592 171.684 296.24 169.356 298.873 168.692Z" fill="black"/>
<path d="M102.455 104.082C103.52 105.291 104.743 108.47 103.231 109.646C101.977 107.697 101.267 105.856 100.501 103.72C100.321 103.216 99.4897 102.606 99.9532 102.104C100.588 102.758 101.897 103.45 102.455 104.082Z" fill="black"/>
<path d="M127.941 163.031L125.726 164.48C124.786 165.245 119.812 164.938 119.204 164.374C118.707 163.912 119.435 163.907 119.597 163.81C121.558 162.629 125.564 163.736 127.941 163.031Z" fill="black"/>
<path d="M290.407 82.6914C290.183 82.9266 288.358 81.7796 287.749 81.6793C286.629 81.495 285.61 81.7491 284.45 81.4235C284.163 81.3431 283.65 81.4412 283.858 80.9442C284.603 79.1594 289.577 80.1984 290.266 81.6196C290.386 81.8659 290.512 82.5806 290.407 82.6914Z" fill="black"/>
<path d="M368.774 105.065C367.28 105.297 366.064 104.181 364.823 103.711C363.068 103.048 360.672 102.724 359.49 101.297C361.144 101.356 363.057 101.971 364.595 102.59C365.89 103.111 367.845 104.107 368.774 105.065Z" fill="black"/>
<path d="M367.681 109.379C366.156 109.066 364.215 108.085 362.85 107.279C362.436 107.034 361.317 106.467 361.403 105.878C363.628 106.467 366.247 107.568 367.681 109.379Z" fill="black"/>
<path d="M129.853 160.065C128.526 161.805 124.973 162.391 123.029 161.408C123.52 160.529 124.924 161.151 125.549 161.073C127.023 160.889 128.371 160.168 129.853 160.065Z" fill="black"/>
<path d="M64.5929 61.3967C65.1119 61.8773 62.1999 63.2168 61.8871 63.4402C59.7726 64.9503 57.2044 67.3897 55.739 69.5015C55.5185 69.8193 53.8128 72.5869 53.9456 72.7153C54.4005 73.1551 54.5288 72.3589 54.6498 72.2077C58.1933 67.7814 60.8252 64.6003 66.2214 62.0582C66.4599 61.9459 68.8014 60.8461 68.4147 61.796C68.1974 62.3296 63.3515 65.5646 62.4061 66.3789C57.8453 70.3074 53.3186 75.6294 52.0368 81.6141C52.9847 80.6479 53.3922 79.0696 54.076 77.8342C57.5144 71.6222 63.2664 65.604 70.1951 63.2855C70.5644 63.1619 70.9789 62.7244 70.8733 63.4146C65.0968 66.9772 60.7115 70.4786 57.1751 76.311C55.9618 78.312 54.4985 82.2227 53.2511 83.7583C52.9759 84.0971 52.7149 84.4413 52.2045 84.2935C51.6871 84.1437 50.1884 79.3466 50.1117 78.5247C49.3808 70.695 57.2689 63.0696 64.5929 61.3967Z" fill="black"/>
<path d="M70.8745 66.7901C69.2671 68.4561 67.1378 69.6457 65.4097 71.2317C63.6154 72.8786 62.0625 74.7777 60.549 76.6769L56.6787 82.6914C57.8564 77.0288 62.0435 71.8122 66.8531 68.613C68.0021 67.8486 69.4805 66.7856 70.8745 66.7901Z" fill="black"/>
<path d="M70.6021 70.8335C70.9425 71.1408 65.6085 75.3659 65.1428 75.8197C64.6298 76.3195 61.4879 80.632 60.7725 79.994C63.0388 75.9901 66.1362 72.4759 70.6021 70.8335Z" fill="black"/>
<path d="M52.3072 161.683C51.281 163.055 48.461 163.979 46.7863 164.452C44.6682 165.05 42.4977 165.313 40.2945 165.184C40.1629 164.408 40.4672 164.739 40.9262 164.61C44.6271 163.567 48.6342 163.035 52.3072 161.683Z" fill="black"/>
<path d="M48.4849 159.527C44.9228 162.096 39.795 163.701 35.3799 163.835L48.4849 159.527Z" fill="black"/>
<path d="M91.6272 147.662C91.6029 146.636 93.4362 146.598 94.2093 146.572C95.2693 146.535 97.0349 146.523 97.6343 147.39C97.1986 147.214 96.6122 147.662 96.4056 147.662H91.6272Z" fill="black"/>
<path d="M97.9052 143.35C97.98 143.72 97.8098 143.999 97.4499 144.111C96.0725 144.54 92.7259 143.897 91.8994 142.543C93.9446 142.575 95.8375 143.585 97.9052 143.35Z" fill="black"/>
<path d="M97.3603 138.763C95.4851 138.436 93.7219 139.034 91.8994 139.302C92.7617 137.148 95.8765 137.258 97.3603 138.763Z" fill="black"/>
<path d="M86.7127 141.191C86.4153 140.89 89.0566 137.574 89.7122 137.418C89.8013 138.082 87.2145 141.698 86.7127 141.191Z" fill="black"/>
<path d="M139.497 123.043C137.366 121.272 137.864 117.588 141.182 117.452C147.754 117.185 143.599 126.452 139.497 123.043Z" fill="black"/>
<path d="M282.492 146.047C282.91 145.726 283.991 147.284 284.422 147.507C285.659 148.147 287.391 148.044 288.593 147.352C289.311 146.939 290.157 145.516 290.281 145.493C291.701 145.236 291.261 147.288 290.688 148.073C289.814 149.269 287.345 149.958 285.903 149.833C284.535 149.716 281.761 147.643 282.492 146.047Z" fill="black"/>
<path d="M297.236 146.315C299.008 147.258 300.989 145.147 302.047 145.046C302.518 145.002 303.262 145.272 303.928 145.257C304.502 145.245 306.342 144.56 306.517 145.375C306.748 146.454 303.257 145.898 302.407 146.165C300.903 146.637 298.641 150.311 297.236 146.315Z" fill="black"/>
<path d="M302.696 140.653C302.588 139.998 303.298 139.804 303.77 139.692C306.177 139.121 309.268 139.926 311.705 140.117C311.815 140.402 310.805 140.653 310.751 140.653H302.696Z" fill="black"/>
<path d="M338.738 77.8414L335.213 89.811C333.991 90.5731 334.037 88.6165 334.123 87.7103C334.26 86.2585 336.803 78.1793 337.912 77.6927C338.189 77.5711 338.452 77.9119 338.738 77.8414Z" fill="black"/>
<path d="M339.814 89.6906C339.672 89.7796 339.166 89.7826 338.988 89.5446C338.22 88.5217 339.922 83.4168 340.446 82.088C340.577 81.754 340.894 80.3366 341.328 80.5387L341.734 81.7186C341.177 82.6685 340.164 89.4709 339.814 89.6906Z" fill="black"/>
<path d="M342.098 108.492C342.211 108.646 343.139 109.152 343.385 109.242C345.202 109.91 348.36 109.59 349.91 108.414C351.935 106.877 351.394 106.099 350.265 104.066C350.043 103.667 348.739 102.581 349.801 102.633C351.391 102.71 353.128 105.315 353.627 106.678C353.952 107.563 354.29 109.313 353.866 110.163C351.82 114.26 341.145 114.17 339.537 110.345C338.185 107.132 339.357 103.314 342.965 102.371C343.399 102.704 343.368 102.709 343.257 103.187C342.898 104.724 340.699 106.59 342.098 108.492Z" fill="black"/>
<path d="M227.879 67.0597C226.608 69.6878 220.347 66.704 220.78 65.0398C221.134 63.6829 224.085 66.5445 224.747 66.7801C225.753 67.1383 226.836 67.0619 227.879 67.0597Z" fill="black"/>
<path d="M224.874 58.4316C225.667 59.216 222.57 62.0866 222.147 61.6639C222.137 60.5382 223.147 59.4068 223.976 58.7709C224.153 58.6347 224.497 58.0581 224.874 58.4316Z" fill="black"/>
<path d="M238.254 65.9773C236.755 65.2778 235.601 65.2792 234.019 65.1698C233.613 65.1417 233.229 65.3791 233.342 64.7686C234.756 63.0702 237.985 63.7702 238.254 65.9773Z" fill="black"/>
</svg>
