<svg width="1280" height="720" viewBox="0 0 1280 720" fill="none" xmlns="http://www.w3.org/2000/svg">
<path d="M595.288 59.7145C602.034 57.3547 610.334 49.266 617.62 49.2711C620.097 49.2729 622.679 50.6394 625.331 50.1384C625.582 51.8218 625.424 51.434 624.308 51.9239C618.721 54.3761 612.5 54.528 608.281 60.5051C615.483 60.1515 632.314 65.1729 635.069 72.102C636.061 74.5979 628.752 71.0169 627.576 70.6828C624.28 69.7465 619.128 68.1197 615.904 67.7833C614.946 67.6833 612.431 67.1197 613.161 68.8834C613.446 69.5715 623.397 75.6039 625.364 77.6473C633.691 86.2999 634.263 96.2743 638.735 106.015C640.037 108.851 649.319 121.195 647.253 123.579C641.154 123.871 640.941 115.566 635.898 113.203C636.939 117.99 640.689 121.68 642.545 126.22C643.341 128.165 646.067 134.281 642.802 134.575C640.54 134.779 638.614 130.366 637.519 129.556C635.335 127.94 636.688 133.095 636.697 133.566C636.984 147.816 632.733 154.003 622.901 163.901C625.478 165.767 632.719 165.237 634.869 166.897C636.328 168.023 637.697 174.984 637.518 177.073L662.688 174.278C665.819 172.332 663.503 169.547 663.499 167.092C663.481 156.012 684.487 142.264 694.862 141.243C703.238 140.418 704.469 142.54 711.222 144.123C720.467 146.291 731.757 142.484 720.342 155.507L750.002 156.29L755.191 157.986C755.54 159.225 754.954 160.353 754.34 161.4C751.335 166.518 740.413 175.904 735.242 179.344C733.734 180.347 730.596 180.067 730.902 182.654C742.428 183.481 753.695 186.238 764.628 189.814C799.025 201.063 836.734 224.554 857.426 254.257C875.375 280.022 871.658 299.286 868.142 328.363C866.987 337.907 868.882 337.362 862.074 345.55C855.636 353.294 852.569 358.443 846.87 366.527C837.029 380.482 818.732 394.598 801.054 396.528C774.567 399.419 744.527 389.534 722.386 375.858C721.388 376.183 721.139 382.132 721.244 382.517C721.876 384.815 744.576 393.783 748.324 395.048C763.92 400.312 780.773 402.81 797.042 403.028C800.51 403.074 803.822 402.388 807.226 402.596C804.856 404.896 801.101 405.197 797.927 405.428C777.43 406.92 749.993 400.76 731.157 392.765C728.276 391.542 721.128 386.364 718.754 387.404C714.664 389.197 717.757 392.355 717.477 395.13C716.657 403.244 703.478 408.468 698.534 413.913C698.285 420.817 702.605 428.029 700.843 434.926C699.681 435.119 699.74 433.54 699.471 432.707C698.396 429.373 696.405 419.697 694.753 417.38C693.699 415.9 692.077 416.474 691.073 417.734C688.45 425.303 686.724 433.331 683.608 440.73C679.137 451.347 671.26 462.836 664.832 472.567C660.397 479.281 652.559 485.422 653.951 494.218C654.214 495.877 658.8 510.545 659.394 511.218C662.967 515.265 667.581 510.258 672.858 514.746C679.895 520.731 677.726 531.043 683.046 534.268C687.524 536.983 696.088 539.404 700.783 542.377C703.19 543.901 707.684 550.046 709.562 550.566C712.388 551.347 715.048 549.158 720.088 551.341C723.882 552.983 734.803 563.528 737.376 567.075C739.492 569.993 740.294 573.25 741.876 575.443C743.388 577.539 745.625 577.673 746.969 581.599C749.992 590.428 746.138 590.913 742.899 597.216C740.539 601.809 738.89 611.155 731.506 609.624C729.712 609.252 727.219 606.541 725.629 609.78C723.697 613.713 725.685 623.091 725.006 628.324C724.185 634.654 721.84 637.417 717.91 642.088C718.202 643.419 730.04 644.564 732.11 645.699L792.609 647.298L786.514 648.877C777.112 648.367 767.895 650.438 758.512 650.491C758.322 651.884 760.356 651.241 761.342 651.281C768.922 651.586 776.518 651.792 784.099 652.076C785.082 652.113 787.116 651.482 786.925 652.87C779.154 653.214 771.54 653.623 763.753 653.709C751.217 653.847 738.28 653.088 725.586 653.643C719.412 653.913 711.864 655.691 706.077 656.018C703.163 656.183 700.841 654.004 698.995 653.901C690.863 653.448 678.78 657.848 670.301 659.166C660.755 660.65 650.551 660.664 641.205 661.626C625.36 663.257 609.26 665.813 593.296 666.467C585.33 666.793 577.272 666.194 569.307 666.445C569.136 664.392 569.164 665.106 570.524 664.876C572.894 664.473 576.175 663.433 577.925 663.281C583.106 662.831 584.11 662.803 589.421 661.879C596.632 660.625 603.92 660.602 611.16 660.1C615.867 659.774 615.887 657.978 611.159 657.632C599.986 656.815 588.934 658.908 577.863 659.297C573.943 659.435 567.696 659.729 564.01 659.266C562.825 659.117 561.496 658.661 562.811 657.672C576.674 657.944 590.126 654.139 603.828 652.891C611.34 652.207 619.865 652.716 627.276 651.993C628.719 651.853 632.735 651.155 633.45 649.693C623.032 649.803 612.582 649.529 602.157 649.651C590.89 649.784 579.322 650.517 568.114 650.518C566.38 650.518 564.739 651.176 565.247 648.89L635.886 647.285C633.053 641.032 631.508 641.182 636.288 635.307C643.543 626.39 650.723 626.888 659.357 622.024C665.921 618.326 660.99 615.513 660.283 610.869C659.971 608.821 661.125 606.585 660.045 603.994C657.312 597.436 644.349 596.549 638.061 592.864C632.227 589.445 627.411 583.195 622.033 579.083C615.794 574.311 608.331 570.867 602.209 565.87C595.148 569.596 589.488 571.392 590.93 580.314C592.373 589.248 595.494 593.593 588.669 602.063C587.162 603.932 584.298 604.671 583.471 607.331C582.289 611.134 583.518 617.011 583.02 621.258C582.493 625.748 575.691 640.934 571.528 642.694C566.789 644.697 564.633 641.258 561.215 640.445C560.161 640.194 560.104 640.727 559.585 641.359C562.552 650.205 561.705 658.302 560.985 667.453C559.551 670.774 556.94 672.388 553.876 674.035C541.781 680.538 527.766 680.924 514.3 683.028C504.622 684.541 494.936 685.929 485.352 687.3C480.559 687.985 476.139 689.561 471.046 688.795C472.931 685.933 477.891 687.544 481.11 687.122C485.593 686.533 492.314 685.66 496.548 684.736C497.994 684.421 499.137 683.311 500.669 683.204C501.964 682.539 499.919 682.009 499.494 681.986C493.715 681.671 483.458 683.562 477.128 684.005C469.873 684.512 464.857 684.444 457.458 685.423C453.047 686.007 448.627 686.432 444.249 687.198C444.539 685.597 446.007 685.93 447.07 685.589C451.413 684.194 456.846 682.996 461.305 682.413C461.415 680.532 461.566 681.01 460.101 680.82C454.36 680.079 447.78 682.547 441.817 681.614C440.54 680.659 441.799 680.157 443.013 680.016C446.505 679.611 452.21 680.743 454.805 677.634C447.787 676.5 439.787 679.775 433.194 679.936C427.058 680.086 421.634 678.485 415.317 682.183L406.903 681.206L412.583 678.826C416.226 678.166 420.009 676.647 423.623 676.11C427.703 675.503 444.4 675.66 445.886 674.845C447.489 673.967 445.808 673.009 444.66 672.831C438.15 671.819 431.313 675.096 424.765 672.827C425.062 671.279 429.776 672.168 430.4 671.184C431.559 669.356 429.809 668.545 428.226 668.27C423.218 667.4 407.802 669.229 401.625 669.65C397.589 669.926 392.659 671.131 388.66 671.27C382.248 671.492 378.256 669.104 371.982 669.639C370.709 668.679 371.964 668.182 373.178 668.041C382.417 666.972 391.602 667.71 400.838 667.281C414.346 666.653 427.806 664.859 441.399 665.659C452.992 666.341 464.678 669.121 476.333 669.635C477.562 669.689 492.697 670.11 490.534 668.055C485.39 667.564 478.869 664.399 478.384 658.763C478.218 656.824 479.668 654.003 478.393 653.246C471.165 652.572 463.62 649.366 457.069 646.261C442.381 639.299 421.634 626.262 426.582 607.168C427.98 601.773 443.915 592.628 449.266 591.149C459.8 588.238 470.114 591.574 480.394 592.188C490.741 592.805 489.652 589.583 496.293 585.491C498.591 584.075 504.276 583.962 502.52 581.18C502.131 580.564 500.615 581.366 500.226 578.286C499.165 569.89 502.27 563.386 508.687 558.158C511.66 555.735 517.705 553.535 519.295 550.629C521.202 547.146 519.195 538.359 519.837 533.594C520.547 528.33 525.982 517.681 529.536 513.591C532.473 510.21 543.586 504.703 544.013 499.857C544.129 498.544 540.455 495.753 539.397 494.271C534.041 486.771 521.502 461.954 519.908 453.492C519.477 451.203 520.712 449.764 520.573 448.131C520.359 445.608 515.64 442.462 518.02 437.922C515.294 434.785 513.224 421.168 510.864 419.331C508.613 417.58 503.218 425.343 501.857 426.503C497.073 430.58 493.044 431.144 487.525 427.913C477.437 422.008 483.153 411.302 482.335 402.694C482.1 400.222 480.45 395.144 479.554 392.639C478.796 390.523 476.366 388.05 477.132 386.238L479.989 390.219C481.758 390.141 480.567 386.545 480.177 385.639C479.629 384.365 477.827 383.328 477.552 382.624C476.994 381.199 478.813 381.718 479.121 380.867C480.665 376.616 478.548 376.718 477.765 374.44C475.341 367.381 474.78 358.761 477.755 351.715C478.833 349.162 484.802 342.243 484.834 341.153C484.907 338.624 480.253 334.321 479.516 331.203C477.5 322.681 481.797 316.567 486.138 309.661C487.185 307.996 489.182 306.88 490.398 305.068C491.562 303.335 494.863 296.52 495.217 294.645C496.818 286.159 490.344 276.267 492.935 267.64C494.495 262.444 499.03 260.179 502.254 256.047C503.023 255.063 508.26 247.459 508.254 246.916C508.25 246.548 504.298 241.092 503.995 240.876C501.732 239.261 497.325 240.286 494.255 236.887C489.191 231.28 495.952 224.275 499.487 219.8C503.502 214.718 510.827 208.557 514.085 203.82C518.144 197.918 510.618 197.197 506.371 193.834C505.358 193.031 504.964 191.503 503.929 190.647C497.075 184.976 490.624 181.122 489.791 170.98C489.568 168.26 491.433 163.56 490.991 162.706C489.818 160.438 480.862 157.818 477.952 150.72C472.931 138.472 485.424 125.374 498.254 126.776C502.196 127.206 505.072 129.946 509.208 129.165C509.703 126.322 506.369 125.33 505.419 124.115C503.312 121.418 500.949 119.354 499.443 117.403C498.384 116.031 497.82 112.838 496.617 111.556C495.604 110.476 493.973 112.311 492.555 110.848C488.759 106.931 492.191 102.421 491.863 100.001C491.722 98.9546 489.647 98.4284 489.854 97.0129C489.937 96.4447 494.151 87.4294 494.71 86.5718C496.082 84.4653 504.286 78.9848 502.711 77.2818C502.222 76.7521 495.265 81.5312 494.327 82.2034C483.933 89.6541 476.346 99.1467 469.828 109.994C466.67 110.004 471.076 98.1733 471.701 96.6826C473.24 93.0099 476.419 87.7454 478.829 84.5301C483.295 78.57 492.522 70.9541 498.103 66.7896C498.916 66.1829 500.057 65.578 500.279 64.5123C484.06 70.8855 467.268 81.1815 458.455 96.4339C457.62 92.1338 461.801 88.6664 462.11 84.4674C461.036 83.3399 455.537 91.2627 454.793 92.0346C454.19 92.6602 453.172 94.1182 452.375 92.8512C453.614 87.4163 457.342 85.7361 460.523 82.5004C470.454 72.4006 478.795 66.0286 491.868 59.8272C494.244 58.6998 506.203 54.6661 506.774 54.1149C507.951 52.9779 506.698 52.6677 505.572 52.5278C496.89 51.449 486.283 54.941 477.548 55.7198C477.243 54.0324 478.623 53.4947 479.72 52.6746C490.725 44.445 514.678 48.8809 527.885 48.5336C528.261 46.3708 527.479 47.158 526.118 46.7245C522.488 45.5683 515.087 44.6841 511.235 44.5554C504.58 44.3329 497.917 45.3963 491.351 46.1388C489.147 44.193 501.197 40.5231 502.066 40.3155C514.032 37.4584 528.243 38.1304 540.394 39.8357C550.921 41.3127 561.928 43.7607 570.919 49.3359C571.25 47.8328 570.162 47.3966 569.238 46.6051C563.34 41.5489 555.007 37.3123 549.018 32.1719C550.121 30.4183 551.685 31.6048 553.212 32.0251C555.02 32.523 561.909 35.7659 562.406 35.7454C566.403 35.5805 557.612 27.051 562.357 27.0001C566.469 26.956 581.15 40.5225 583.786 44.2781C584.972 45.9673 586.12 49.9259 586.367 50.133C589.134 52.455 587.303 44.2937 587.078 43.437C586.583 41.5513 579.177 27.4814 584.311 28.5847C587.189 29.2032 595.288 42.7309 595.288 45.7437V59.7145ZM540.069 53.3278H555.092C555.703 53.3278 565.752 56.6521 566.677 57.1232C568.65 58.1277 571.104 62.6379 574.983 60.916C566.119 52.7216 554.869 50.2288 542.879 51.7051C541.66 51.8552 540.378 51.8464 540.069 53.3278ZM537.629 54.1302C536.845 53.4589 520.159 57.3118 518.957 60.5051C523.657 58.3884 530.928 58.7573 535.191 56.9148C536.497 56.3503 537.928 55.8869 537.629 54.1302ZM549.002 58.1259C542.682 58.3138 535.924 59.611 530.35 62.5692C529.281 63.1364 528.26 62.3087 528.705 64.5005C534.071 62.624 541.482 61.9044 546.57 60.1181C547.547 59.7751 548.789 59.2436 549.002 58.1259ZM559.365 70.3268C554.791 67.738 549.621 75.7357 550.646 80.8454C551.586 85.5333 553.931 82.5097 555.289 82.2279C556.635 81.9486 557.622 83.0405 559.496 82.4796C560.419 82.2034 566.4 78.6185 567.78 77.7767C569.033 77.0127 576.581 71.8835 576.595 71.2903C570.986 66.6505 565.226 71.4166 560.683 71.7134C559.235 71.8079 559.68 70.5051 559.365 70.3268ZM536.817 77.2818C535.137 76.9226 534.97 78.1341 534.203 79.0944C532.44 81.2989 524.68 95.4316 526.27 97.2335C528.858 96.8878 531.157 95.5595 533.867 95.6905C541.412 96.0555 554.359 105.869 553.87 113.997C543.552 111.722 535.442 104.897 526.665 99.6366C526.042 113.025 519.399 102.108 517.69 95.6863C516.664 91.8316 516.618 87.5417 517.327 83.6678C512.865 83.5533 498.625 93.6048 499.464 97.6186C500 100.177 504.768 97.5192 506.432 97.3056C510.056 96.8406 512.622 97.0576 515.209 99.7227C517.057 101.627 518.497 105.256 514.657 104.273C512.107 103.62 512.367 101.276 507.541 102.357C505.7 102.769 498.702 107.134 498.779 108.646C498.848 109.996 500.379 112.935 501.495 113.986C502.894 113.979 510.819 102.691 506.781 117.191C511.643 115.684 522.01 115.46 518.565 122.772C517.647 124.719 515.777 125.76 515.314 126.787C514.162 129.339 515.966 132.304 511.688 133.597C503.238 136.15 498.337 127.332 489.762 132.8C481.494 138.074 483.877 149.313 491.595 154.073C501.352 160.09 511.506 158.294 521.126 153.257C525.186 151.132 527.144 147.638 531.133 145.939C531.457 147.657 528.958 148.498 529.516 150.292C530.114 152.216 535.191 150.251 527.503 155.535C522.416 159.031 516.783 161.995 511.412 165.047C508.171 169.965 513.538 171.687 517.828 172.191C521.044 172.569 526.019 171.045 527.889 173.869C522.449 174.651 511.675 174.317 507.592 170.249C507.219 169.877 504.966 167.108 504.327 166.337C502.969 164.702 501.881 159.15 499.492 165.518C495.84 175.25 503.761 183.72 510.826 189.454C516.268 193.871 529.517 200.072 536.38 201.053C542.538 201.933 540.321 199.73 542.471 195.793C545.151 190.885 546.153 197.336 546.557 200.221C545.527 200.194 544.233 197.884 543.724 197.843C543.295 197.808 541.634 199.426 543.329 200.61C544.822 201.653 552.22 202.188 553.823 201.393C558.504 199.073 556.205 193.099 557.126 189.043C560.455 188.759 559.41 194.51 559.557 196.642C559.639 197.831 558.932 198.951 560.767 198.62C564.424 194.622 566.814 190.975 564.419 185.462C565.814 183.537 567.538 188.235 567.673 189.518C568.138 193.917 564.762 197.778 561.188 199.832C561.106 202.635 567.058 199.803 567.968 199.309C572.67 196.756 583.841 184.88 586.693 180.196C588.066 177.941 592.787 165.514 594.163 165.245C594.801 165.12 595.854 166.146 596.093 165.892C597.283 164.63 592.172 162.117 592.856 160.309C593.55 159.633 602.9 167.861 611.146 163.517C615.612 161.164 625.399 148.834 627.11 144.089C630.04 135.967 629.674 126.22 621.563 121.301C605.811 111.75 596.643 130.588 594.451 143.128C594.329 143.822 594.931 145.946 593.269 145.13C591.488 144.255 585.404 131.019 584.338 128.359C580.498 118.769 573.621 101.101 573.333 91.2858C573.212 87.177 574.082 83.6822 574.171 79.6769C566.974 79.4394 558.168 91.7044 551.672 86.6174C548.575 84.1916 548.958 79.6131 546.575 77.2798C544.499 79.3588 542.541 95.6333 541.288 95.6239C533.933 91.5326 534.302 84.3305 536.817 77.2818ZM611.521 97.2362C610.903 92.2437 605.241 86.8098 601.38 83.6633C600.465 82.9183 600.067 81.7272 598.54 82.072C597.927 82.6763 600.413 85.7094 600.992 86.4389C603.932 90.14 607.838 94.216 611.521 97.2362ZM600.152 98.0345C601.142 96.786 593.595 84.4429 592.044 86.0637C591.511 86.6203 598.866 99.6573 600.152 98.0345ZM516.516 119.594L509.216 119.985C512.255 121.932 512.395 127.204 515.564 122.242C516.123 121.366 516.753 120.741 516.516 119.594ZM715.468 149.138C702.367 143.926 692.258 143.169 680.62 151.989C678.009 153.968 666.069 164.935 669.188 168.284C673.927 167.155 680.175 165.684 684.607 163.892C694.364 159.947 703.018 153.066 713.365 150.651C714.327 150.427 715.311 150.338 715.468 149.138ZM718.718 153.926C717.321 153.804 715.976 153.956 714.611 154.272C711.171 155.072 697.172 162.702 693.793 164.94C693.184 165.343 690.917 166.563 691.925 167.486C693.032 168.5 703.288 160.979 705.162 160.15C709.43 158.262 715.904 158.404 718.718 153.926ZM747.139 161.111C733.041 160.178 717.252 155.619 706.538 167.482C718.338 163.209 732.505 166.241 744.108 163.312C745.285 163.015 746.803 162.395 747.139 161.111ZM743.079 165.103C732.61 169.257 722.114 166.407 710.979 169.86C710.157 170.115 700.572 173.784 702.481 175.469C706.968 174.978 710.8 171.741 715.47 172.288C715.72 172.466 715.055 173.241 714.667 173.486C713.673 174.113 703.684 178.737 702.506 179.095C700.024 179.849 695.925 178.402 695.985 181.856C712.848 182.334 733.115 180.049 743.079 165.103ZM622.892 168.291C618.964 168.714 616.473 170.714 613.984 173.496C611.741 176.004 598.456 196.398 598.556 198.231C601.074 200.326 605.177 199.708 608.279 200.622C611.318 201.518 616.097 205.071 618.817 203.828C619.698 203.425 622.049 199.992 622.024 203.725C622.014 205.179 620.723 206.16 621.659 208.177C621.839 208.565 627.149 214.199 627.538 214.43C631.58 216.832 637.285 209.611 640.851 207.095C649.195 201.207 657.951 196.31 667.555 192.633C659.996 191.33 653.33 196.872 646.045 197.831C644.938 197.359 647.097 196.264 647.462 196.03C649.378 194.804 651.603 193.797 653.748 193.026C653.956 191.618 651.89 192.212 651.101 192.418C648.67 193.053 644.94 194.872 642.658 196.098C640.923 197.028 629.253 205.655 628.586 205.008C628.176 203.288 629.558 203.235 630.438 202.445C639.695 194.145 649.7 190.462 661.67 187.646C662.284 187.501 671.293 187.265 669.181 185.065C668.267 184.113 660.908 184.915 659.131 185.149C648.965 186.491 638.801 189.634 630.092 194.921C627.316 196.606 624.267 201.704 623.701 195.429L619.649 197.02C618.633 196.179 630.87 177.871 631.053 173.49C631.429 164.474 621.936 174.789 619.673 177.493C615.874 182.032 613.929 187.565 609.495 191.436C608.883 191.56 608.971 190.661 609.104 190.257C609.767 188.233 616.452 178.415 618.164 176.009C620.078 173.319 623.585 172.011 622.892 168.291ZM600.87 169.192C599.62 168.424 596.502 169.279 595.633 170.623C592.936 175.735 590.412 181.404 587.03 186.115C582.127 192.942 571.854 202.926 563.845 205.634C560.914 206.624 557.775 207.178 554.69 207.411C555.048 211.982 562.178 210.671 565.643 210.595C566.129 210.585 572.633 209.466 569.307 211.801C564.14 215.429 552.416 211.306 546.566 210.608C552.564 217.308 562.644 218.802 568.475 226.167C566.946 228.195 567.155 226.729 565.994 226.234C563.674 225.245 561.461 223.531 558.754 223.371C559.819 231.089 549.416 239.86 549.21 246.263C549.071 250.573 562.03 255.585 565.864 255.929C570.895 256.382 565.756 251.354 565.292 248.472C564.998 246.645 565.029 243.207 565.241 241.333C565.71 237.195 579.037 209.791 581.916 205.837C585.832 200.46 590.114 202.516 594.766 193.721C596.691 190.083 605.236 171.872 600.87 169.192ZM685.99 178.9C685.121 177.83 681.467 175.936 679.955 175.661C668.681 173.609 661.25 179.598 650.327 180.282L646.451 184.251C653.266 184.317 664.707 177.766 671.049 179.631C674.123 180.535 679.313 189.868 681.165 192.812C683.388 196.346 687.272 188.777 687.709 186.872C688.196 184.748 687.356 180.58 685.99 178.9ZM735.771 304.404C736.204 308.185 735.771 313.206 735.771 317.178C735.771 317.504 733.68 318.574 736.166 318.369C744.766 311.763 749.688 302.163 755.255 293.219C756.826 292.122 755.854 294.648 755.66 295.218C753.717 300.95 747.268 310.24 743.057 314.761C740.872 317.106 735.493 320.398 734.606 321.621C733.378 323.315 732.585 328.739 731.501 331.342C729.715 335.632 727.28 340.669 724.383 344.302C723.276 345.69 716.189 351.486 717.096 352.694C728.341 356.664 740.126 356.455 750.935 351.246L761.752 345.914C751.019 354.809 739.071 359.513 724.884 356.62C722.628 356.16 717.334 353.503 715.875 353.54C714.244 353.582 710.439 356.778 708.163 356.707C707.589 357.5 717.311 370.097 718.797 371.387C726.29 377.894 749.76 386.194 759.738 387.02C793.766 389.837 815.545 376.112 838.517 353.525C839.368 352.688 843.807 348.014 842.952 347.116C826.729 357.655 810.615 372.363 791.607 377.66C766.723 384.595 744.625 379.852 724.335 365.144C720.37 362.27 714.349 360.24 713.854 355.099C714.194 354.69 720.215 360.785 722.539 361.321C724.244 361.714 726.197 361.236 727.864 361.674C740.851 365.089 752.889 370.227 767.064 369.532C771.053 366.052 775.946 364.132 780.344 360.999C783.895 358.471 786.855 355.468 790.169 352.704C791.006 353.642 783.929 360.223 782.879 361.096C779.686 363.75 775.896 365.511 772.559 367.715C771.513 368.405 770.346 368.629 770.692 370.263C792.741 370.264 813.267 365.229 831.517 353.03C887.385 315.686 865.537 259.993 820.158 225.433C785.227 198.831 744.112 186.246 700.006 189.438C699.297 189.49 696.139 190.068 697.604 191.432C697.763 191.581 700.712 191.919 701.888 192.419C716.874 198.79 731.788 209.798 742.286 222.157C743.186 223.216 747.656 228.025 744.311 228.154C739.892 224.739 736.438 220.555 732.096 217.006C727.32 213.102 720.994 208.3 715.715 205.169C712.624 203.336 695.1 194.257 692.737 196.234L700.992 208.467C709.008 224.912 715.343 242.227 721.387 259.469C725.341 270.749 734.54 293.668 735.771 304.404ZM712.213 270.475C709.974 268.351 707.981 264.037 706.715 261.12C698.802 242.882 693.145 222.328 685.325 203.912C683.814 201.733 676.98 198.568 674.426 198.954C673.974 199.022 667.4 203.128 666.719 203.787C664.296 206.132 659.902 216.218 663.457 218.207C663.917 218.464 669.433 216.76 667.544 219.368C667.494 219.436 666.508 219.262 665.949 219.965C654.672 234.139 647.144 248.609 648.074 267.285C650.548 268.064 651.461 265.512 651.941 263.503C656.472 244.542 662.91 236.101 678.541 224.19C680.901 222.392 688.859 216.936 683.802 222.976C679.959 227.564 674.436 232.133 671.128 237.255C664.998 246.745 660.197 260.079 659.443 271.269C660.223 272.078 669.305 266.396 671.208 265.679C679.305 262.632 685.364 263.159 693.539 265.695C693.749 267.055 691.599 266.552 690.718 266.477C688.778 266.312 687.235 265.619 685.062 265.657C679.666 265.752 671.194 267.857 667.561 272.062C676.661 272.494 683.322 277.356 691.094 280.468C692.775 281.141 695.1 280.872 697.231 281.62C702.489 283.465 707.399 287.93 711.406 291.635C709.509 292.551 707.063 289.225 705.173 288.182C702.27 286.579 697.86 284.593 694.582 284.216C693.362 284.076 692.435 283.44 692.737 285.236C696.46 286.865 711.285 307.84 709.782 309.588C707.681 310.068 708.364 308.985 707.69 308.083C700.146 297.994 686.456 283.599 674.235 279.479C672.343 278.842 661.543 275.64 662.194 279.309C663.136 284.627 664.825 286.851 664.339 293.258C663.108 309.46 655.087 317.67 646.428 329.934C644.834 332.192 648.692 334.044 650.756 335.295C668.874 346.277 697.742 349.608 715.399 336.268C739.518 318.048 729.258 296.631 721.185 273.239C716.995 261.097 699.643 213.081 691.144 206.972C690.034 206.174 689.5 205.467 687.864 205.815L712.213 270.475ZM523.826 204.219C521.893 202.503 517.001 208.037 515.687 209.381C512.636 212.501 498.139 228.087 497.841 231.033C497.205 237.34 503.175 234.866 505.119 235.711C506.634 236.368 509.592 240.067 512.251 240.738C515.5 241.56 519.548 239.974 520.912 240.274C522.769 240.683 527.206 257.096 527.683 259.9C531.093 279.938 520.8 299.676 514.647 318.529C513.302 322.649 512.608 327.788 511.216 331.922C502.721 357.148 487.307 387.182 486.439 413.745C486.353 416.4 485.959 418.926 488.517 420.554C490.193 420.97 490.137 417.029 490.295 415.935C496.314 374.207 514.313 341.751 525.842 302.392C533.128 277.514 533.746 261.434 532.731 235.784C532.646 233.629 533.592 226.591 533.205 225.793C530.083 219.343 524.741 234.185 520.581 233.744C519.895 233.087 533.115 216.036 525.867 217.786C524.761 218.053 514.262 233.57 510.844 234.55C511.609 229.428 527.062 214.832 526.266 211.014C526.135 210.385 524.901 209.33 524.221 210.584C519.01 216.277 514.085 223.487 508.817 228.973C508.145 229.673 505.21 232.989 504.34 232.147C505.339 229.908 506.633 227.839 508.067 225.84C512.015 220.335 519.545 213.087 522.706 207.91C523.131 207.213 524.116 204.477 523.826 204.219ZM592.035 244.925C591.686 245.3 585.753 242.797 584.259 242.605C582.339 242.358 572.013 242.925 570.878 243.679C569.046 244.894 570.508 249.473 572.108 250.601C573.008 251.236 574.677 250.527 576.357 251.094C585.354 254.133 587.901 269.275 592.667 275.846C602.265 289.078 615.167 273.578 620.601 264.625C628.838 251.057 634.813 237.574 626.859 222.272C623.197 215.228 610.157 206.067 602.125 205.078C599.742 204.785 588.998 204.696 589.646 208.514C591.085 211.46 593.967 210.136 596.31 210.793C601.523 212.254 608.641 215.976 611.383 220.728C611.824 221.493 612.791 223.48 611.125 223.357C610.428 223.306 601.194 218.063 598.547 217.375C592.847 215.892 581.322 213.895 580.789 222.336C580.613 225.138 585.033 223.785 586.716 224.216C588.017 224.55 605.609 231.126 602.592 233.747C591.349 231.418 573.698 219.303 573.359 239.343C576.148 239.481 579.018 239.08 581.804 239.424C583.274 239.605 594.755 242.004 592.035 244.925ZM643.19 245.728L656.995 210.6C652.01 215.504 647.618 224.724 645.262 231.389C644.251 234.248 641.937 241.839 641.6 244.569C641.405 246.142 642.695 246.234 643.19 245.728ZM645.63 216.99C644.704 216.002 639.369 222.852 638.341 223.818C637.598 224.516 636.02 224.936 635.941 225.044C635.606 225.506 639.079 233.75 637.522 236.146L639.361 233.571C639.139 230.901 646.239 217.641 645.63 216.99ZM518.134 300.012C520.931 290.069 525.123 279.768 524.67 269.242C524.466 264.496 521.79 251.139 519.598 247.093C517.317 242.885 514.385 247.996 513.085 249.938C508.775 256.38 510.712 253.921 512.853 259.313C513.945 262.063 516.247 267.488 516.488 270.169C516.946 275.251 513.138 280.133 513.211 285.24C513.229 286.542 515.888 301.75 518.134 300.012ZM642.382 247.327C640.133 246.943 641.012 247.784 640.552 249.074C639.243 252.739 636.788 259.244 639.556 262.484L642.162 253.091L642.382 247.327ZM546.179 253.706C544.738 253.991 543.595 263.471 545.401 265.639C547.316 267.939 558.333 272.144 560.808 270.558C561.697 269.989 566.883 262.722 566.847 262.087C564.179 260.466 560.78 260.524 557.506 259.32C555.63 258.63 546.8 253.584 546.179 253.706ZM512.452 279.257C515.094 276.712 512.501 256.224 508.105 256.962C506.75 257.189 503.43 262.01 503.518 263.617C503.563 264.427 509.826 277.236 510.594 278.259C511.023 278.832 511.258 280.409 512.452 279.257ZM580.676 272.069C579.904 272.94 578.65 288.538 574.598 292.049C573.634 292.884 572.613 292.543 572.573 291.64C572.55 291.097 575.223 285.184 575.593 283.445C576.679 278.347 579.381 265.301 576.646 261.262C571.716 253.98 570.162 264.362 568.348 267.541C565.398 272.714 551.318 287.419 550.734 291.004C550.558 292.088 550.493 292.481 551.443 293.22C553.788 295.041 570.121 299.428 570.098 300.413C557.48 310.958 563.466 320.991 578.165 309.924C585.185 304.638 590.965 296.08 588.595 287.032C588.341 286.063 583.055 273.949 582.5 273.093C582.114 272.498 581.809 270.79 580.676 272.069ZM629.388 260.9C627.446 259.392 625.519 266.347 624.961 267.315C623.781 269.365 622.227 271.713 620.801 273.604C618.972 276.029 611.631 282.574 611.107 284.097C610.756 285.118 612.916 289.455 613.167 289.63C614.453 290.53 620.233 282.693 616.398 282.857C619.237 279.022 622.909 275.866 625.491 271.827C626.534 270.195 631.014 262.163 629.388 260.9ZM637.498 302.404C638.616 301.647 643.522 287.967 643.819 285.854C644.807 278.838 644.445 276.801 639.972 271.651C638.987 270.517 632.84 264.163 631.842 264.889C630.574 269.058 630.775 271.5 628.42 275.505C626.299 279.112 615.542 289.337 615.623 291.637C615.66 292.677 617.949 296.291 619.227 296.018L629.386 284.845C629.097 288.887 621.988 293.573 620.84 296.05C619.499 298.945 628.34 307.548 630.672 308.013C632.093 308.296 635.454 304.583 635.887 303.602C636.121 303.072 632.678 302.811 633.458 300.816C634.845 300.322 636.475 303.098 637.498 302.404ZM501.805 265.789C500.674 265.146 498.788 266.192 498.252 267.285C496.238 271.397 500.212 289.153 502.145 293.788C504.247 298.826 509.394 302.061 514.892 301.606C512.944 296.586 504.768 267.472 501.805 265.789ZM542.51 267.284C542.102 272.049 542.179 272.971 546.382 275.046C549.1 276.389 556.892 279.38 557.918 274.837C558.356 272.894 552.731 271.943 551.149 271.158C549.647 270.414 543.424 266.355 542.51 267.284ZM653.754 301.618C653.667 306.511 640.043 320.852 640.238 323.562C640.259 323.868 643.292 328.735 643.604 328.738C645.639 326.544 648.177 324.639 650.03 322.298C657.261 313.16 665.313 291.647 659.897 280.803C657.834 276.673 653.493 273.169 648.589 274.587C646.589 275.165 648.323 277.758 648.103 279.608C646.935 289.454 641.937 306.309 633.397 312.331C624.325 318.729 625.965 305.426 620.184 307.28C618.425 307.844 616.178 314.073 616.726 315.996C617.699 319.41 633.495 328.508 637.288 329.374C638.698 329.695 640.152 329.567 641.574 329.544C639.039 326.815 640.472 322.033 636.706 321.971C644.252 317.819 646.789 309.869 651.159 303.449C651.863 302.414 652.073 301.264 653.754 301.618ZM545.762 286.442C546.984 285.89 552.872 281.009 549.399 280.062C546.269 279.209 545.663 284.443 545.762 286.442ZM606.387 285.917C605.47 285.06 604.028 284.102 604.2 286.053C604.533 289.828 612.96 300.668 615.957 303.243C618.763 305.653 621.583 304.839 620.056 301.612C619.378 300.179 612.046 293.233 610.302 291.241C608.953 289.7 607.675 287.12 606.387 285.917ZM574.991 334.338C574.615 332.19 575.833 325.442 574.233 324.304C571.98 322.7 570.107 325.517 568.512 326.044C563.951 327.55 558.706 316.931 558.144 312.981C557.279 306.907 560.769 303.312 553.044 300.43C551.678 299.921 542.212 297.26 541.741 297.667C536.427 310.966 538.942 323.293 541.685 336.733L537.641 327.157C535.792 341.166 535.155 356.795 539.479 370.448C540.636 374.098 546.62 386.639 550.407 387.7C552.751 388.357 555.212 386.546 558.155 387.18C560.249 387.631 565.205 391.156 568.507 392.205C576.093 394.616 584.874 394.807 592.848 395.011L590.376 382.284C578.218 382.832 565.03 377.318 556.683 368.703C555.655 367.641 552.613 364.069 553.464 363.086C559.033 369.132 564.216 373.487 571.88 376.746C572.457 376.991 572.486 377.995 573.16 378.198C574.674 378.654 588.977 380.375 589.601 379.842L587.089 364.753C573.117 363.077 562.515 352.576 554.696 341.913C554.455 339.662 555.707 341.262 556.329 341.907C558.478 344.136 560.279 347.33 562.39 349.518C568.371 355.719 576.453 360.666 585.104 362.276L586.019 360.655L581.474 325.562C579.41 325.404 577.031 336.627 574.991 334.338ZM513.263 314.385C513.582 314.036 515.733 306.413 515.912 305.38C516.023 304.743 516.876 303.361 515.318 303.239C510.112 302.83 510.194 309.171 511.244 312.825C511.466 313.596 512.138 315.616 513.263 314.385ZM611.132 303.208C609.121 304.1 606.831 312.045 609.499 311.973C610.333 311.95 615.227 302.265 611.132 303.208ZM599.337 312.789C597.488 311.079 595.685 319 596.104 319.968C597.681 320.585 599.631 316.669 599.825 315.997C600.182 314.751 599.491 313.935 599.337 312.789ZM509.157 320.848C501.358 316.258 490.82 307.951 486.065 320.806C483.739 327.097 489.596 337.926 496.426 336.59C497.134 336.452 505.318 333.187 505.59 332.777C506.016 332.132 506.187 329.799 505.959 329.556C505.341 328.895 500.663 331.697 500.285 329.562C506.643 328.592 507.912 326.898 509.157 320.848ZM592.036 316.783C590.263 316.481 590.397 316.911 590.007 318.335C588.256 324.712 588.956 335.208 589.614 341.916C591.688 363.065 601.488 413.094 612.501 430.383C618.028 439.059 621.777 437.139 630.649 434.171C643.629 429.829 663.283 421.963 675.665 416.157C683.252 412.6 684.553 412.2 684.616 403.003C688.871 402.361 685.587 410.138 688.234 409.36C692.162 408.205 704.896 400.762 705.584 396.835C706.343 392.497 701.121 393.577 701.667 391.432C702.103 389.716 717.986 383.088 716.114 375.665C715.868 374.691 704.993 359.912 704.09 359.444C702.043 358.384 691.333 362.88 687.864 361.489L695.631 374.204C697.73 377.387 703.646 381.147 701.879 385.208C700.597 388.156 691.116 393.691 687.878 395.432C669.557 405.283 647.571 409.242 627.733 415.337C626.244 416.356 627.196 420.393 626.949 422.159C624.886 421.491 625.438 418.031 623.149 417.475C621.4 417.051 614.559 420.384 611.533 418.961C611.139 416.564 612.122 417.675 613.501 417.346C615.746 416.811 618.009 416.694 620.22 415.913C621.109 415.598 623.41 415.105 622.88 413.8C602.318 386.19 592.222 350.918 592.036 316.783ZM606.654 323.16C605.371 310.975 600.591 319.794 596.969 325.053C599.204 327.663 611.679 340.548 614.777 338.326C613.522 334.712 611.052 329.463 608.284 326.754C606.101 324.617 603.887 325.302 601.788 323.56L606.654 323.16ZM626.953 375.053C624.943 365.421 620.792 356.412 617.774 347.105C617.361 345.831 618.312 344.579 617.146 342.816C616.118 341.262 608.819 338.233 606.388 336.601C602.677 334.109 599.622 330.671 596.108 327.955C596.493 331.373 596.305 336.294 596.927 339.513C597.951 344.82 611.099 350.482 615.853 352.871C616.809 353.351 618.726 353.409 618.838 353.51C619.226 353.858 619.442 355.219 617.794 354.943C610.893 353.787 605.155 347.955 598.54 346.321C598.933 347.938 600.65 356.811 601.121 357.346C601.505 357.782 610.747 360.889 612.158 361.266C615.481 362.154 619.533 361.936 622.891 363.092C622.371 364.619 618.167 363.923 616.905 363.783C611.673 363.205 606.846 361.054 601.788 359.893L603.582 366.902L626.953 375.053ZM505.147 335.143C494.445 337.451 479.951 349.472 481.56 361.129C481.896 363.559 484.185 366.303 486.86 366.34C494.719 366.451 501.916 349.785 502.711 343.128L496.223 345.922C498.991 341.557 505.984 341.209 505.147 335.143ZM662.688 358.3C652.264 355.089 641 350.219 631.902 344.25C630.258 343.173 619.703 334.254 618.841 335.144C618.489 336.757 619.203 337.276 620.019 338.37C627.382 348.242 642.042 354.4 652.935 359.501C653.254 361.184 652.287 360.801 651.076 360.533C645.181 359.231 638.771 354.944 633.206 352.548L620.465 343.926C621.679 348.705 629.755 378.289 633.116 379.022C640.483 375.629 648.014 372.31 654.499 367.406C656.092 366.201 664.119 359.924 662.688 358.3ZM685.291 361.619L667.32 359.846C661.501 366.626 652.184 373.087 644.047 377.089C642.51 377.844 634.781 381.371 633.801 381.431C628.999 381.727 629.472 376.956 627.195 376.021C624.108 374.754 617.619 374.269 613.968 373.058C610.678 371.967 607.739 368.279 604.209 369.879C606.886 378.246 610.004 386.673 614.115 394.469C615.74 397.551 624.337 412.341 627.303 412.51C629.874 412.656 651.499 406.438 655.557 405.17C660.065 403.761 665.61 401.901 669.98 400.189C674.366 398.471 699.766 386.975 699.121 382.791C698.652 379.75 685.434 367.126 685.291 361.619ZM844.58 360.691L824.214 376.985L808.594 386.377L791.802 393.411C810.958 394.707 827.802 382.583 839.238 368.604C839.541 367.029 845.343 361.566 844.58 360.691ZM528.69 362.286C527.093 360.875 525.47 367.264 524.788 368.416C523.308 370.919 521.039 374.229 519.311 376.603C517.227 379.464 512.975 381.177 513.7 385.56C513.918 386.878 521.128 389.911 523.016 390.625C524.721 391.27 532.56 394.346 533.569 393.414C532.362 390.369 532.96 382.313 528.706 384.634L529.556 380.295C528.88 377.895 529.372 362.889 528.69 362.286ZM805.598 367.074C805.477 366.96 803.341 368.278 802.551 368.462C787.657 371.929 770.095 373.4 754.92 371C746.117 369.608 736.635 365.426 727.65 364.687C743.535 378.15 771.524 380.477 791.159 374.825C794.812 373.773 801.207 371.378 804.066 369.13C804.491 368.796 806.972 368.371 805.598 367.074ZM536.019 395.014L547.362 389.028L541.854 382.483L534.395 367.874C532.148 376.839 534.469 386.111 536.019 395.014ZM488.107 382.242C490.998 379.891 491.296 374.551 491.339 371.069C489.986 371.78 488.76 375.249 488.456 376.605C488.033 378.489 487.994 380.333 488.107 382.242ZM513.257 376.696C513.155 376.558 510.413 375.499 510.054 375.414C505.747 374.394 507.95 380.582 511.948 379.912C512.639 379.796 513.489 377.009 513.257 376.696ZM585.543 398.217C580.445 397.38 575.083 396.834 570.11 395.419C567.581 394.699 554.637 387.727 553.878 391.436C560.832 400.111 569.806 402.757 580.851 400.381C582.402 400.047 584.934 399.958 585.543 398.217ZM564.43 403.789C562.49 401.007 558.513 399.531 555.547 397.761C553.687 396.65 553.471 394.392 550.43 395.157C549.854 395.302 544.961 398.288 544.957 398.608C550.18 405.888 556.303 405.055 564.43 403.789ZM540.065 406.196C537.736 403.486 533.616 419.027 535.205 420.558L539.686 410.207L540.065 406.196ZM544.121 442.915C543.321 432.406 546.23 422.12 551.251 412.965L544.534 407.803C538.06 417.966 534.606 433.67 544.121 442.915ZM560.37 428.146C559.821 431.844 560.37 437.699 560.37 441.718C560.37 441.81 559.191 443.314 558.745 442.525C555.054 432.615 558.83 423.48 562.806 414.186C558.316 413.622 555.847 409.903 552.907 414.427C546.007 425.047 545.147 441.023 550.218 452.497C551.04 454.358 560.931 469.725 560.37 460.946C560.062 456.143 552.111 447.416 560.781 442.92C562.215 445.506 559.815 447.885 559.536 450.487C559.41 451.658 559.083 452.836 560.765 452.489C571.242 443.562 584.811 436.678 598.32 433.522C600.634 432.982 603.467 434.189 605.031 432.114C602.858 428.275 601.478 423.968 599.44 420.094C599.06 419.371 599.928 418.768 598.171 418.968C590.987 419.788 579.576 434.677 571.739 436.521C576.167 431.599 581.862 426.581 587.238 422.627C588.992 421.336 597.276 416.939 597.583 416.426C598.403 415.056 596.393 408.665 594.12 408.606C591.537 408.538 583.174 412.553 579.243 413.17C574.92 413.849 569.832 413.289 565.379 414.312C564.738 414.69 560.557 426.888 560.37 428.146ZM534.381 451.693C535.32 450.718 529.08 441.634 528.31 439.707C527.168 436.854 524.483 420.606 522.611 420.578C521.157 420.557 521.257 425.148 521.384 426.15C519.744 425.893 520.141 422.392 518.13 424.168C521.399 433.17 524.678 443.005 531.621 450.024C532.111 450.519 533.534 452.573 534.381 451.693ZM649.703 442.915C650.065 443.303 657.991 437.016 658.249 436.554C658.847 435.485 658.249 434.31 657.397 434.138C655.73 433.801 649.028 442.194 649.703 442.915ZM669.991 435.734C666.811 436.15 665.519 440.332 665.94 442.912C667.488 443.508 669.053 440.309 669.353 439.495C669.828 438.208 670.234 437.155 669.991 435.734ZM665.944 453.294C670.889 449.577 673.834 443.194 676.515 437.733C677.582 435.56 675.278 434.751 673.8 436.705C670.712 440.789 666.092 448.214 665.944 453.294ZM609.101 495.605C608.679 493.901 610.063 493.819 610.946 493.036C615.145 489.314 619.596 486.684 623.731 482.454C626.355 479.77 636.651 467.509 636.323 464.382C635.955 460.871 629.008 457.11 629.397 455.302C630.05 452.267 636.077 455.601 636.715 455.323C639.756 453.997 640.35 450.282 638.687 447.747C632.608 438.475 623.15 449.053 613.68 443.595C611.654 442.427 609.42 438.787 607.708 438.289C596.419 435 571.582 446.926 566.867 458.076C567.752 458.737 576.132 455.544 578.071 455.128C588.295 452.937 596.489 452.711 606.688 455.259C607.129 455.369 612.326 456.605 610.709 458.083C596.415 453.407 579.685 456.044 569.329 467.291C563.592 473.52 564.649 475.233 562.45 482.082C561.892 483.819 559.719 484.99 559.11 486.783C558.534 488.48 558.852 490.263 558.116 492.192C557.564 493.64 543.48 508.716 553.151 507.964C559.495 507.471 570.062 502.317 575.676 499.077C578.945 497.19 582.031 493.2 585.539 493.606C582.108 497.301 577.75 499.951 573.381 502.409C563.076 508.207 551.342 511.049 540.917 515.999C536.811 517.948 528.611 530.73 527.959 535.194C527.094 541.124 528.888 543.29 529.555 547.855C529.782 549.409 529.766 554.311 529.347 555.716C527.916 560.52 509.814 566.14 514.48 573.856C515.262 575.149 527.513 577.495 529.787 579.56C538.073 580.028 545.801 582.666 553.874 584.213C549.432 578.987 542.874 572.792 535.639 572.217C531.388 571.879 521.055 575.252 521.382 568.73C521.55 565.373 524.565 565.018 526.719 563.48C527.443 562.963 527.655 561.473 528.053 561.24C532.975 558.362 545.338 564.96 549.39 568.271C557.912 575.233 564.795 592.317 577.814 589.789C579.292 589.502 587.067 583.453 587.025 582.405C584.24 573.576 583.24 570.851 589.608 563.868C591.898 561.357 595.621 556.38 597.13 554.897C598.902 553.156 604.024 551.789 606.218 549.062C611.416 542.604 615.899 523.797 621.927 514.211C634.593 494.071 665.01 468.511 662.689 444.105C662.404 441.111 661.984 439.437 658.661 440.952C653.329 443.383 642.102 452.806 640.953 458.671C639.267 467.276 639.275 467.856 633.421 475.031C626.877 483.052 617.975 490.25 609.101 495.605ZM540.075 486.822L543.079 484.852C537.739 474.032 532.856 461.976 525.461 452.496C527.668 464.946 537.167 474.7 540.075 486.822ZM539.026 456.718C538.67 456.336 537.445 455.968 536.829 455.689C535.442 457.507 542.973 470.775 546.558 470.857C546.688 469.406 545.829 468.209 545.234 466.977C544.197 464.825 540.452 458.251 539.026 456.718ZM639.954 540.309L653.382 529.966C655.529 527.846 660.309 520.688 659.065 517.986C658.533 516.831 656.125 515.609 655.202 513.742C653.878 511.063 650.838 494.787 648.476 494.823L628.572 536.792C630.732 546.933 638.484 531.358 639.423 528.188C640.183 525.623 638.994 523.75 639.132 523.553C639.841 522.539 643.877 522.367 644.654 524.908C646.826 532.009 640.78 534.314 639.954 540.309ZM641.566 500.396C637.158 504.818 634.725 511.341 631.352 516.292C628.777 520.073 623.358 524.581 621.93 528.604C620.789 531.815 623.662 530.304 625.22 528.624C627.682 525.97 634.59 515.495 636.71 511.979C638.773 508.558 640.941 504.355 641.566 500.396ZM625.342 518.757C629.074 515.884 632.535 510.486 633.446 505.984C630.101 509.171 625.749 514.196 625.342 518.757ZM648.885 580.24C648.956 582.647 652.064 584.651 654.203 584.978C672.935 587.841 688.787 578.603 699.081 563.718C702.036 559.444 706.787 554.643 702.436 549.534C695.923 545.332 680.092 540.849 675.334 535.463C671.784 531.445 673.919 519.468 665.331 518.105C659.732 517.217 663.322 523.389 662.494 527.756C661.782 531.506 658.188 538.012 656.036 541.358C650.685 549.678 630.331 571.051 619.373 567.323C617.686 566.749 616.759 562.274 613.969 562.67C613.253 570.814 619.001 569.771 624.572 570.995C626.246 571.363 628.186 572.919 629.663 572.848C635.028 572.589 645.107 562.951 649.285 559.469C650.195 558.711 650.613 557.538 652.13 557.884C649.857 561.36 639.104 569.882 639.062 573.436C639.047 574.724 639.255 575.454 640.35 576.218C644.1 576.404 658.006 558.824 661.457 555.469C662.013 554.927 663.527 553.156 664.307 553.888C665.183 554.71 655.274 564.72 654.588 566.279C651.066 569.526 647.343 573.309 643.614 576.276C643.132 576.659 637.711 578.077 641.963 578.631C652.583 580.016 656.889 572.33 663.169 565.934C664.009 565.078 664.339 563.906 665.935 564.27C666.826 565.091 652.979 581.441 648.885 580.24ZM657.811 532.333L634.266 553.078C637.689 552.475 641.961 549.214 644.755 547.032C646.521 545.653 659.498 534.115 657.811 532.333ZM628.577 549.09C629.794 547.933 624.1 540.581 622.902 541.913C621.533 544.331 626.751 550.828 628.577 549.09ZM626.141 557.872C626.76 557.243 619.965 546.397 618.029 548.3C616.813 549.495 624.952 559.08 626.141 557.872ZM614.762 552.292C612.712 550.863 610.623 555.607 615.555 559.106C622.32 563.906 615.274 552.649 614.762 552.292ZM707.359 570.651C712.986 571.807 704.922 581.085 703.841 585.163C702.649 589.662 700.875 596.939 707.011 597.801C710.328 598.267 710.831 595.641 711.922 595.464C713.092 595.274 714.627 598.004 716.262 596.629C720.191 592.524 726.139 589.401 729.688 585.027C731.645 582.616 735.461 576.789 734.343 574.084C731.065 566.157 721.884 560.54 716.269 554.302C708.43 551.874 709.267 557.255 706.856 561.781C701.914 571.055 690.035 580.186 700.459 589.802C702.475 590.116 701.385 589.095 701.449 588.055C701.878 581.142 705.688 577.146 707.359 570.651ZM743.075 580.233L738.326 587.132L737.403 590.607C740.706 588.702 742.808 583.962 743.075 580.233ZM575.795 612.957C574.118 613.312 573.951 612.118 573.179 611.146C561.244 596.131 561.785 587.977 539.559 584.323C530.36 582.811 520.142 582.354 510.84 581.83C507.763 584.42 523.513 588.49 524.389 588.86C532.433 592.25 540.955 596.433 547.748 601.82C557.741 609.745 564.617 619.664 572.162 629.719C575.396 630.411 577.426 615.128 577.417 612.564C577.404 609.08 575.81 599.54 570.931 600.192C570.339 605.168 575.792 608.113 575.795 612.957ZM669.183 603.377C669.739 603.936 681.336 601.246 683.407 600.998C685.624 600.734 692.913 602.118 692.633 599.112C692.502 597.71 682.823 585.63 679.554 587.558L664.328 593.402C668.919 600.26 674.959 590.969 678.92 595.809L669.745 600.98C668.796 600.962 669.096 603.289 669.183 603.377ZM516.52 596.986C514.141 593.547 509.341 590.411 505.152 589.817C507.75 592.849 512.45 596.915 516.52 596.986ZM721.158 603.377C722.205 604.411 734.956 592.958 734.939 591.8C734.88 587.923 729.337 595.604 728.989 595.915C727.99 596.807 719.785 602.02 721.158 603.377ZM503.523 599.385C504.962 597.999 494.092 589.326 491.35 592.215C490.905 594.331 491.906 593.582 492.95 594.189C494.125 594.872 503.101 599.792 503.523 599.385ZM505.96 636.109C502.263 628.119 500.178 607.328 491.312 603.814C489.68 603.167 487.904 603.582 486.467 602.989C475.122 598.312 470.155 595.872 456.954 596.474C454.528 596.584 449.156 597.806 452.951 600.015C455.584 601.548 460.956 602.698 464.564 604.564C467.838 606.257 470.723 608.694 473.893 610.561L472.67 606.582L473.88 606.578C476.753 608.537 488.047 626.414 489.317 626.517C490.593 626.621 490.395 624.299 490.19 623.29C489.073 617.793 484.813 611.318 483.239 606.159C482.63 604.164 484.919 605.065 485.867 605.768C492.467 610.662 497.93 627.986 503.169 634.469C503.934 635.414 504.511 636.391 505.96 636.109ZM519.764 606.57C520.519 604.825 516.333 596.568 514.088 598.595C513.78 598.873 517.219 604.116 517.749 604.998C518.367 606.023 517.6 607.012 519.764 606.57ZM550.372 663.497C547.842 660.729 534.751 657.882 530.135 655.859C516.718 649.979 497.497 639.648 487.373 629.242C478.275 619.889 475.14 611.175 461.609 605.074C455.649 602.387 435.41 598.395 433.217 606.523C432.169 610.41 436.921 608.154 438.937 608.133C467.297 607.843 477.718 628.074 497.438 643.297C504.023 648.381 513.153 650.886 520.157 656.089C522.339 657.71 525.12 661.395 527.288 662.688C531.332 665.1 541.391 669.437 545.806 668.489C548.875 667.83 553.167 666.555 550.372 663.497ZM516.517 614.552C517.02 613.955 511.933 601.156 508.404 601.788C507.716 602.503 513.618 611.637 514.512 612.967C515.133 613.892 514.307 615.033 516.517 614.552ZM693.54 636.904C694.414 635.779 692.329 634.835 691.696 634.337C679.228 624.53 666.364 624.771 652.499 631.286C645.549 634.552 633.854 642.156 646.812 646.53C654.654 649.178 679.172 647.158 688.064 645.494C700.772 643.116 720.172 633.098 718.629 618.231C718.234 614.422 715.353 609.223 715.023 606.993C714.854 605.846 716.312 603.896 714.673 602.943C714.177 602.654 712.945 603.408 712.051 603.183C710.936 602.901 710.328 601.692 708.646 601.763C706.414 601.856 699.448 605.8 700.133 608.413C700.603 610.203 709.488 615.323 708.983 619.346C712.647 617.84 711.185 613.617 711.413 610.562C712.08 610.67 713.597 610.386 713.827 610.569C714.224 610.883 715.51 619.403 715.439 620.45C714.789 630.069 700.65 638.273 692.275 640.851C682.388 643.895 662.802 645.558 652.729 643.907C650.322 643.513 644.62 641.67 646.563 638.62C648.757 635.176 663.142 643.991 665.12 639.701L663.503 637.714C667.476 636.823 670.282 639.309 674.052 639.302L670 633.722C674.949 633.636 678.047 638.218 682.672 639.229C685.417 639.83 682.271 635.42 682.996 634.516C685.27 635.146 691.759 639.197 693.54 636.904ZM523.521 610.272C523.052 610.825 521.979 611.082 521.492 611.846C519.707 614.652 522.026 623.813 523.959 626.803C528.555 633.91 536.242 636.03 540.39 627.248C542.995 621.732 539.466 606.864 533.298 604.828C532.089 604.429 532.334 603.863 531.134 605.394C533.726 610.047 542.551 626.571 533.815 628.842C532.021 629.308 527.298 624.609 527.055 622.899C526.228 617.064 533.577 615.144 529.39 608.688C526.63 604.434 525.579 607.847 523.521 610.272ZM546.57 627.327C549.523 630.461 551.744 614.882 551.284 612.748C550.399 608.644 543.006 606.041 539.258 604.985C540.386 607.035 541.117 610.614 542.483 612.37C543.558 613.751 546.584 614.607 547.211 616.717C548.159 619.914 547.939 624.325 546.57 627.327ZM516.516 634.512C512.116 625.608 510.596 615.397 505.097 607.027L501.904 605.784C506.77 613.009 508.327 622.943 512.32 630.263C512.667 630.9 515.379 635.71 516.516 634.512ZM696.789 612.957C698.44 611.527 691.952 609.362 691.291 609.189C684.32 607.363 661.537 607.051 667.668 618.847C669.857 623.058 678.018 623.904 682.581 625.736C685.724 626.997 697.721 634.548 698.636 634.414C701.372 634.015 712.114 624.594 710.488 621.863C709.323 619.905 689.256 613.211 687.852 614.132C687.082 614.637 686.898 615.271 687.051 616.149C691.725 616.553 696.644 619.066 700.308 621.88C701.101 622.489 706.628 627.239 702.874 626.545C700.922 626.185 694.245 621.373 690.718 620.131C684.561 617.963 679.228 618.455 673.642 616.961C669.854 615.948 670.163 613.862 673.258 612.575C679.175 610.115 690.466 612.024 696.789 612.957ZM444.249 613.767C441.658 613.97 436.333 614.913 434.243 616.143C433.148 616.787 433.807 617.565 433.697 618.546C434.087 618.978 443.756 615.457 444.249 613.767ZM459.677 619.339C459.347 618.105 457.359 616.984 456.184 617.142C451.318 620.473 445.126 621.656 440.168 624.548C439.719 624.809 437.05 625.289 438.57 626.53C439.808 627.541 456.677 619.708 459.677 619.339ZM469.419 626.545C469.233 626.352 466.47 625.734 465.84 625.773C463.553 625.917 452.519 630.607 450.176 631.961C449.055 632.608 447.999 632.938 448.313 634.512C449.808 635.753 459.676 630.768 461.903 629.918C464.002 629.117 466.317 628.919 468.29 628.211C469.146 627.904 470.64 627.811 469.419 626.545ZM478.35 635.31C478.574 634.266 478.018 633.307 477 633.003C475.538 632.567 463.789 636.573 461.571 637.607C460.209 638.242 458.357 638.053 458.87 640.1C465.77 640.091 471.378 634.939 478.35 635.31ZM539.261 641.697C541.171 642.488 545.252 639.948 544.939 638.122C544.416 635.067 538.031 640.674 539.261 641.697ZM485.659 640.109C480.871 640.113 474.752 641.144 470.385 643.082C469.213 643.602 468.181 642.622 468.614 644.89C473.633 644.312 478.768 642.909 483.69 641.723C485.063 641.392 486.054 642.51 485.659 640.109ZM515.671 660.115C514.381 658.084 507.356 660.477 505.346 660.661C503.422 660.837 500.339 659.036 499.02 660.824C498.623 661.363 498.416 662.969 498.654 663.248C498.833 663.457 503.672 664.801 503.973 664.822C505.059 664.898 515.325 662.899 515.709 662.446C515.785 662.357 515.81 660.334 515.671 660.115Z" fill="black"/>
<path d="M196.581 613.761C196.835 614.012 203.432 613.008 203.734 612.813C204.503 612.319 204.611 608.299 208.544 607.512C213.602 606.501 214.413 610.546 214.922 610.587C215.277 610.616 221.476 609.901 221.994 609.786C222.748 609.618 223.204 607.699 224.109 606.919C228.505 603.13 230.001 607.487 231.732 607.222C234.754 606.758 239.061 603.819 241.811 602.745C244.321 601.765 247.107 600.365 249.168 599.604C256.055 597.06 262.993 603.363 259.811 609.267C258.02 612.591 247.782 622.232 244.434 624.485C232.986 632.187 207.214 633.684 194.106 630.159C190.422 629.168 188.065 626.409 184.401 626.537C184.379 627.615 184.195 628.735 184.792 629.735C185.754 631.351 189.049 630.327 188.452 632.916C186.059 632.972 184.161 629.679 183.555 633.335C182.828 637.723 188.22 643.111 192.302 643.919C195.999 644.65 202.109 642.894 206.756 643.27C211.306 643.638 215.227 646.195 219.03 646.441C227.739 647.004 246.692 641.176 254.072 637.178C270.37 628.351 291.359 622.976 307.773 634.968C315.118 640.335 319.101 652.8 311.364 659.15C306.162 663.418 291.385 666.459 284.736 665.571C280.788 665.044 282.628 663.266 280.017 661.458C271.753 655.735 262.937 660.694 254.407 663.03C249.538 664.363 244.516 665.265 239.616 666.458C240.035 668.102 240.812 667.738 242.035 667.712C246.822 667.614 252.477 666.581 257.074 666.45C259.838 666.371 263.22 667.534 266.851 667.273C270.853 666.985 274.477 665.03 278.589 665.659L268.081 669.288C257.752 671.434 240.24 668.461 230.833 670.979C227.708 671.815 224.475 675.908 221.246 677.53C213.982 681.178 202.009 684.157 193.947 683.007C183.408 681.504 183.198 677.377 177.908 670.263C177.232 669.354 175.88 669.076 175.093 668.032C170.268 661.626 174.584 654.811 180.071 650.623C182.53 648.746 186.38 648.586 184.803 645.695C184.653 645.419 181.057 641.03 180.801 640.845C176.127 637.478 150.541 645.21 144.248 637.662C142.204 635.209 140.736 619.884 140.512 615.789C140.137 608.907 140.874 601.905 140.533 595.012C139.915 582.527 137.513 571.127 140.74 558.466C143.352 548.219 148.552 545.702 152.596 538.188C154.99 533.739 154.868 522.772 154.344 517.567C153.726 511.423 152.934 511.294 153.267 504.669C153.557 498.914 149.471 497.031 155.703 492.544C162.108 487.932 173.887 487.655 178.706 494.408C181.518 498.349 179.443 499.148 179.472 503.162C179.555 514.738 177.611 530.886 184.836 541.078C185.99 542.705 188.036 543.916 189.249 545.521C200.235 560.056 195.391 579.832 195.726 596.633C195.835 602.09 197.339 608.046 196.581 613.761ZM164.693 493.37C163.541 493.613 162.406 494.318 161.664 495.227C160.793 498.958 173.024 499.036 174.636 496.005C172.115 494.182 167.736 492.728 164.693 493.37ZM171.232 507.399C171.374 507.318 172.806 504.889 172.863 504.603C173.804 499.873 164.443 502.731 161.663 502.795C161.734 506.446 168.557 508.911 171.232 507.399ZM158.411 511.572V535.123C158.411 541.196 148.491 547.313 147.463 552.185C147.244 553.224 147.986 554.511 147.78 555.735C146.048 566.067 142.879 569.795 154.934 573.669C165.58 577.09 170.884 574.343 181.144 572.25C181.433 573.679 180.435 574.238 179.473 574.99C174.46 578.914 165.095 577.698 159.325 578.74C160.343 584.572 158.62 606.308 160.972 610.044C162.83 612.996 174.527 612.722 177.898 611.756C180.119 611.119 181.394 610.034 183.207 608.983C184.01 608.518 183.654 607.636 184.796 608.974C186.264 610.694 186.086 613.231 186.015 615.354C177.545 613.926 179.8 616.144 178.669 621.302C178.224 623.329 176.934 624.496 177.028 626.911C177.14 629.823 181.112 634.933 180.913 630.313C180.762 626.798 181.51 622.427 184.779 620.126C187.438 618.254 189.95 619.751 190 614.886C190.064 608.575 188.569 600.578 188.423 594.233C188.295 588.662 189.888 562.573 186.856 559.849C186.074 559.147 185.836 559.067 185.179 559.953C180.782 565.883 183.981 567.134 174.145 568.953C157.245 572.079 142.171 566.638 156.398 549.101C157.857 548.787 160.055 554.685 162.055 556.29C164.22 558.027 168.612 558.647 169.865 560.634C171.084 562.566 167.593 566.108 174.862 564.877C181.475 563.758 178.814 560.957 180.046 558.068C180.449 557.124 181.689 557.093 181.77 556.925C182.089 556.263 179.409 555.012 184.398 555.476C183.559 548.713 177.805 544.321 175.687 538.098C174.388 534.282 173.449 528.009 173.039 523.936C172.6 519.578 175.237 508.98 167.05 511.679C164.96 512.368 165.59 522.987 165.687 525.577C165.758 527.468 166.416 529.249 166.605 531.138C166.75 532.593 165.916 534.231 166.028 535.169C166.197 536.579 169.635 537.466 169.731 538.303C169.925 539.985 163.131 543.83 161.424 543.401C157.738 542.476 160.616 536.873 160.727 534.215C160.793 532.636 160.181 530.972 160.232 529.322C160.38 524.475 161.48 519.236 160.888 514.326C160.707 512.817 160.506 511.305 158.411 511.572ZM150.527 613.59C150.25 601.583 148.394 589.544 150.056 577.533L147.461 574.645C146.285 575.383 146.325 576.196 146.192 577.397C145.002 588.194 145.904 598.808 146.226 609.379C146.309 612.111 145.535 618.928 147.025 620.558C148.932 622.645 153.416 621.169 154.344 618.937C155.276 616.694 150.512 618.767 149.487 616.541L151.913 614.155L150.527 613.59ZM155.971 577.838C154.323 577.614 154.638 577.694 154.147 578.833C151.821 584.235 153.467 587.643 153.572 592.57C153.677 597.514 152.91 602.607 154.361 607.371C157.795 605.044 155.922 600.351 155.94 597.426C155.979 590.897 155.987 584.358 155.971 577.838ZM248.601 614.666C248.801 614.414 251.122 613.974 252.224 612.982C252.889 612.383 257.833 606.291 257.932 605.847C259.307 599.7 244.795 599.487 248.545 607.367C247.439 608.483 245.47 603.667 242.049 605.354C241.147 605.798 238.211 610.872 237.159 612.162L232.307 608.977L233.123 615.352L239.964 612.08L241.255 609.773C243.56 609.389 243.322 611.903 244.53 613.313C246.114 615.165 248.504 614.268 246.927 618.545C250.094 619.34 248.334 615.003 248.601 614.666ZM230.678 615.352C231.766 614.167 227.734 610.001 227.029 608.985C225.552 611.967 215.09 621.989 219.392 624.859C222.078 626.651 226.928 620.368 227.295 617.958C227.491 616.673 224.985 612.873 227.029 612.977C227.637 613.008 229.006 615.971 230.678 615.352ZM207.134 610.566C206.744 611 207.134 620.395 207.134 622.142C207.134 624.864 213.471 622.434 213.707 618.159C213.744 617.478 212.912 611 212.713 610.678C212.156 609.773 207.409 610.259 207.134 610.566ZM215.258 619.344C216.08 620.281 221.203 615.581 220.118 613.759C218.184 614.133 213.365 617.185 215.258 619.344ZM198.205 618.553L201.444 621.357C202.628 622.234 203.877 620.022 201.909 617.702C197.768 612.821 193.276 621.988 197.085 623.239C202.719 625.09 197.694 619.11 198.205 618.553ZM245.295 616.957C244.7 616.339 241.04 617.842 240.443 618.949C243.059 622.773 247.281 619.02 245.295 616.957ZM234.643 624.818C234.794 624.589 235.848 619.86 234.339 619.363C231.479 620.94 229.948 622.836 232.711 625.717C233.069 624.997 234.458 625.096 234.643 624.818ZM236.371 624.933C238.22 625.108 240.023 624.316 241.223 622.94L236.372 620.948L236.371 624.933ZM194.137 621.751C191.55 621.259 190.181 623.42 190.145 625.645C192.299 626.638 194.01 627.812 196.573 627.327C197.07 624.239 192.776 625.191 192.511 624.932C191.012 623.466 193.935 622.617 194.137 621.751ZM210.388 628.926C210.638 629.164 217.014 628.58 217.324 628.158C219.17 625.642 213.908 620.087 211.527 624.132C210.922 625.16 212.041 626.147 212.025 626.871C212.015 627.315 208.869 627.48 210.388 628.926ZM151.913 628.121C151.606 626.6 152.966 625.968 153.954 624.936C154.864 623.218 148.129 623.135 147.854 623.344C147.603 623.534 148.373 624.699 148.249 625.295C147.711 627.886 145.918 629.304 147.472 632.903C150.579 640.103 161.637 629.884 151.913 628.121ZM204.489 623.502C202.428 623.774 197.515 625.575 199.387 628.16C203.976 632.078 211.848 622.532 204.489 623.502ZM187.026 675.05C190.966 678.421 208.185 674.154 212.744 671.567C216.693 669.326 220.254 663.649 222.617 662.113C229.073 657.916 258.959 651.246 267.673 649.734C278.465 647.86 285.34 656.823 299.913 653.481C320.326 648.8 305.296 633.451 291.982 632.13C285.383 631.476 276.16 632.099 269.913 634.366C264.176 636.447 259.393 642.015 254.251 643.716C247.437 645.968 235.107 649.676 228.425 651.133C226.824 651.482 225.525 650.359 224.209 650.855C221.423 651.903 222.322 654.638 222.554 656.869L219.318 654.473L219.306 657.668C215.669 656.62 216.718 652.677 215.25 650.886C214.731 650.253 208.958 647.118 207.968 646.868C199.205 644.654 173.641 652.71 178.345 664.022C178.578 664.583 181.988 670.295 182.304 670.511C183.559 671.371 185.402 670.996 185.872 671.378C186.416 671.82 186.11 674.266 187.026 675.05Z" fill="black"/>
<path d="M796.674 644.096C796.8 642.803 800.162 642.59 801.15 642.508C808.145 641.928 816.922 642.731 823.834 641.658C826.36 641.266 827.622 639.161 829.73 638.673C833.288 637.85 847.956 637.934 849.289 636.755C849.507 636.562 850.22 633.787 850.132 633.394C849.587 630.956 836.439 629.51 833.232 628.512C822.501 625.176 810.48 615.641 823.527 606.23C824.907 605.234 830.077 603.107 830.447 602.605C830.99 601.865 829.787 598.986 829.895 597.401C831.571 572.925 851.265 556.195 874.173 550.566C913.065 541.01 953.728 554.013 961.952 596.168C963.248 602.811 962.545 620.134 965.543 624.365C966.539 625.772 970.4 626.999 971.802 628.396C973.584 630.17 975.422 636.094 976.101 636.545C978.472 638.117 984.937 635.099 986.69 638.5C983.452 638.61 978.88 638.602 975.801 639.378C969.881 640.87 971.041 641.089 964.428 641.697C951.567 642.878 936.349 648.285 923.784 649.71C921.689 649.947 908.878 650.035 907.61 649.588C906.196 649.089 906.613 647.336 906.035 646.757C897.345 638.053 894.152 648.564 887.39 651.452C885.304 652.342 883.229 651.899 881.108 653.307C879.228 654.555 880.367 657.685 876.537 659.942C870.816 663.314 860.802 663.014 856.758 657.275C855.668 655.729 855.491 652.749 853.792 652.208C852.868 651.913 844.358 651.472 842.554 651.442C839.043 651.383 835.429 652.469 831.273 651.994C827.672 651.583 824.309 649.376 821.391 648.935C817.862 648.402 813.588 649.33 810.058 648.888C808.576 648.702 808.746 649.158 808.854 647.289H823.065C823.924 647.289 824.611 645.023 824.283 644.096H796.674ZM953.397 602.183C953.788 606.357 953.397 611.443 953.397 615.755C953.397 617.131 956.645 617.13 956.645 615.755V600.587C956.645 598.54 953.357 586.486 952.401 584.003C939.252 549.857 892.697 546.302 862.72 559.34C846.281 566.489 835.147 584.985 836.459 602.587C838.34 602.331 843.216 603.301 844.226 601.832C844.754 601.064 845.842 591.652 846.652 589.048C850.647 576.202 862.304 565.547 875.028 561.062L866.516 568.664L866.91 569.846L873.005 566.665L867.325 573.838C868.741 575.117 877.946 565.11 881.122 567.053C879.637 568.168 867.967 574.094 869.765 576.237L874.229 573.848C874.777 573.676 874.818 574.606 874.623 575.029C873.852 576.698 862.525 582.782 864.077 584.217C868.316 584.423 871.722 581.023 874.689 579.889C879.312 578.121 884.485 576.862 889.241 575.442C889.666 577.42 888.807 576.856 887.729 577.516C883.517 580.092 875.651 580.061 880.715 586.596L884.366 584.221C884.461 585.431 884.023 587.286 884.729 588.277C885.449 589.288 889.355 588.544 887.101 590.672C882.506 595.009 873.196 596.387 884.217 601.575C884.682 601.793 887.49 601.845 885.995 603.369C884.397 604.998 879.643 603.265 878.233 601.83C877.066 600.641 877.431 597.982 875.858 598.597C875.623 598.689 872.1 601.564 871.933 601.751C868.624 605.472 874.668 603.392 876.541 603.427C877.564 603.446 881.108 603.867 880.309 605.772C864.708 605.24 849.913 602.81 834.52 606.659C830.755 607.601 824.038 609.094 824.279 613.756C831.992 615.547 839.701 613.168 847.393 612.928C861.956 612.474 879.485 613.268 893.289 618.167C899.379 620.328 914.62 630.889 918.875 630.95C920.696 630.976 922.471 629.625 924.397 629.88C926.568 630.168 930.596 633.303 933.616 633.468C935.324 633.562 939.29 632.232 940.965 631.475C945.398 629.469 944.201 628.958 949.507 627.917C950.554 627.712 951.4 626.238 952.974 626.53C953.28 626.587 954.361 627.467 953.817 628.136C952.77 629.425 950.107 627.815 950.965 631.318C954.499 632.125 954.491 629.686 956.637 628.129C956.907 631.008 956.705 632.574 953.977 633.888C944.377 638.511 935.866 633.847 926.209 633.667C925.298 633.65 921.662 633.645 921.743 634.915C921.759 635.172 924.621 638.409 925.202 638.759C930.915 642.205 943.121 640.62 949.688 640.056C951.178 639.928 952.293 638.663 953.759 638.609C955.56 638.542 957.705 639.584 960.311 639.334C961.252 639.244 969.28 636.434 969.564 636.039C971 634.039 966.079 627.893 964.194 627.411C962.246 626.913 961.709 629.221 959.898 628.926C960.124 624.305 956.597 621.42 952.062 621.232C945.693 620.968 945.274 624.951 940.981 627.499C939.645 628.292 934.17 630.602 932.872 630.405C932.345 630.326 924.957 625.578 923.862 624.798C916.021 619.214 911.551 614.954 902.421 609.977C901.511 609.481 899.109 609.091 898.992 608.958C897.071 606.779 904.153 607.586 904.914 607.68C905.787 607.789 906.717 608.874 908.288 609.015C909.799 609.15 919.468 609.636 920.121 609.455C925.085 608.081 933.74 596.51 937.96 593.003C935.811 597.815 930.294 603.177 926.2 606.581C925.127 607.473 922.732 608.094 922.624 608.257C921.231 610.365 924.195 611.73 926.371 610.855C929.471 607.187 934.578 603.757 937.584 600.206C939.499 597.943 941.282 594.637 943.182 592.118C943.489 591.712 944.058 589.195 945.273 590.612C946.181 591.671 941.256 597.744 940.38 598.966L926.604 612.957C929.052 613.097 931.691 611.249 933.484 609.75C936.127 607.54 938.1 602.522 941.211 602.976C940.2 605.368 936.37 608.086 935.542 610.18C934.033 613.992 940.576 607.708 941.197 606.954C943.591 604.044 944.695 600.215 947.705 597.793C949.031 600.679 939.31 611.971 940.408 612.957C941.202 613.668 942.305 613.069 943.047 611.945C944.65 609.518 945.872 606.59 948.517 604.978C949.633 607.8 941.445 613.872 942.845 615.352C944.297 616.887 946.35 611.004 947.311 610.57L949.333 613.755C950.651 602.404 948.661 590.584 942.997 580.474C942.958 578.71 935.297 573.241 936.348 572.25C938.681 570.05 947.943 583.982 948.842 585.904C950.655 589.778 953.006 598.003 953.397 602.183ZM877.873 584.225C876.953 583.205 873.021 587.954 872.198 588.625C874.597 593.541 879.052 588.44 877.873 584.225ZM882.741 587.414C880.362 587.074 872.263 594.282 876.673 595.397C879.219 596.04 884.114 590.229 882.741 587.414ZM869.753 591.41C868.691 590.216 860.399 598.735 864.479 598.575C864.939 598.557 870.983 592.794 869.753 591.41ZM873.813 595.402C872.915 594.508 866.927 598.648 868.141 600.986C870.713 599.854 873.801 598.734 873.813 595.402ZM924.164 612.978C923.066 611.499 913.639 611.315 911.175 610.57C909.347 612.141 921.865 617.624 922.133 619.332C923.954 618.23 922.469 617.187 922.839 615.351C922.991 614.597 924.432 613.338 924.164 612.978ZM934.555 613.194C932.853 612.225 928.504 615.536 928.206 617.383C927.427 622.214 931.721 620.434 932.259 620.968C932.765 621.47 930.669 627.182 936.764 622.554C940.623 619.624 940.546 617.055 938.77 612.962C937.185 612.663 936.56 614.576 935.132 614.587C934.626 614.591 934.757 613.309 934.555 613.194ZM869.753 629.73C867.084 627.154 865.302 636.186 867.727 636.097C868.84 636.056 870.298 630.256 869.753 629.73ZM911.57 633.888C911.148 633.918 910.147 634.899 909.948 635.326C907.449 640.674 919.881 645.632 920.914 641.291C921.233 639.95 912.469 633.824 911.57 633.888ZM895.738 637.713L879.971 636.866C879.07 647.388 871.491 643.486 863.675 644.104C856.551 644.667 849.054 645.529 842.152 646.886C849.686 650.829 860.301 645.954 867.709 646.463C872.093 646.763 876.377 650.482 880.69 649.68C884.458 648.979 889.84 640.964 894.383 639.966L895.738 637.713ZM863.061 649.873C858.706 650.581 858.304 652.52 860.208 656.283C863.242 662.277 878.078 661.235 874.449 652.653C873.379 650.121 865.713 649.442 863.061 649.873Z" fill="black"/>
<path d="M1060.07 586.315C1061.64 587.757 1063.82 588.315 1065.47 590.194C1070.51 595.931 1073.48 603.213 1072.56 610.761C1072.19 613.774 1067.67 625.165 1069.53 626.537C1078.05 624.965 1087.25 625.247 1095.67 623.101C1109.75 619.511 1116.42 607.096 1133.94 615.485C1140.22 618.49 1139.37 623.318 1140.24 624.058C1140.68 624.427 1146.93 624.033 1148.62 624.21C1149.4 624.293 1151.68 624.559 1151.53 625.726C1144.9 626.317 1139.08 626.464 1132.86 628.919C1143.18 620.185 1130.14 614.663 1121.09 615.363C1113.03 615.987 1107.12 620.388 1102 626.137L1104.43 627.322C1099.5 627.131 1094.34 626.865 1089.4 627.32C1086.66 627.573 1080.87 628.489 1078.11 628.991C1073.77 629.783 1066.22 634.691 1062.82 634.379C1055.01 633.661 1056.74 624.145 1053.44 618.785C1049.6 612.541 1044.72 616.633 1038.69 616.987C1039.62 620.131 1039.61 624.772 1040.27 627.614C1040.49 628.562 1042.25 627.602 1041.91 628.919C1040.1 629.044 1032.21 629.72 1031.51 630.69C1030.57 632.001 1028.84 647.737 1023.2 641.119C1021.13 638.691 1021.07 634.011 1020.79 633.717C1020.24 633.126 1007.01 634.451 1004.56 632.91C1007.15 629.348 1004.48 623.485 1005.37 618.946C1005.32 617.947 1005.01 617.41 1004.01 617.085C1002.13 616.47 992.817 615.571 991.508 616.499C990.868 616.953 988.231 630.901 988.412 631.657C988.985 634.045 992.257 632.208 993.594 632.276C994.868 632.342 997.149 632.702 998.457 632.95C1002.63 633.742 997.329 635.205 995.255 635.35C990.121 635.709 981.747 635.347 979.917 629.599C977.89 623.23 975.849 607.23 976.124 600.621C976.52 591.079 985.014 580.925 988.494 572.022C990.842 566.017 987.816 551.834 988.281 543.871C989.312 526.206 1000.39 493.229 1010.06 478.26C1011.15 476.568 1018.62 466.089 1019.58 466.09C1025.47 472.244 1030.45 479.22 1034.19 486.832C1047.69 514.374 1049.64 546.296 1049.35 576.506C1053.18 579.513 1056.51 583.046 1060.07 586.315ZM1027.84 500.97C1028.87 498.727 1027.74 487.213 1026.94 484.371C1025.9 480.642 1021.7 474.768 1019.18 471.655L1018.52 504.628C1019.93 507.508 1025.02 508.666 1026.12 505.218C1026.9 502.741 1027.1 502.581 1027.84 500.97ZM1015.11 481.24C1013.21 481.128 1013.38 480.787 1012.46 482.237C1010.45 485.388 1001.88 505.448 1003.75 507.576C1009.08 506.532 1008.48 498.42 1009.98 494.155C1010.59 492.438 1015.8 481.863 1015.11 481.24ZM1032.99 507.578C1034.7 508.853 1036.21 504.323 1035.39 503.254L1030.55 490.819C1030.01 493.24 1031.67 506.599 1032.99 507.578ZM1038.66 587.422C1046.27 587.045 1044.56 579.155 1044.38 573.41C1044.17 566.754 1043.01 561.219 1043.49 555.057C1044.08 547.513 1041.5 531.289 1040.18 523.255C1039.74 520.638 1038.65 513.755 1036.68 512.303C1034.19 510.468 1033.27 512.878 1031.62 513.032C1030.7 513.118 1029.47 511.655 1027.74 511.524C1023.4 511.195 1018.33 511.623 1013.86 511.608C1009.98 511.595 1005.8 509.868 1001.86 513.11C1001.06 513.767 997.544 527.646 997.332 529.618C996.272 539.489 998.568 547.317 999.67 556.691C1000.22 561.349 997.374 566.971 1004.55 565.862C1005.18 568.883 1000.81 567.973 1000.49 568.258C1000.12 568.588 1001.16 571.037 1001.2 571.942C1001.27 573.59 1000.15 580.711 1000.49 581.024C1000.82 581.332 1005.03 580.279 1005.37 582.615L999.679 582.619C999.845 583.608 999.433 587.175 999.679 587.418C1000.27 588.002 1004.62 586.049 1003.75 589.007C1001.8 588.72 997.94 588.909 998.897 591.777C999.299 592.979 1007.45 594.332 1002.32 596.032C1001.1 596.437 997.978 595.827 999.722 598.535C1000.98 600.483 1006.78 597.09 1007 600.578C1007.03 601.771 1000.67 600.522 999.689 600.19C997.711 605.372 1004.38 602.48 1004.56 603.784C1005.13 608.061 1001.01 605.136 1000.07 606.544C995.682 613.075 1015.63 614.423 1017.19 612.215C1018.62 610.19 1015.87 600.522 1015.85 597.39C1015.84 595.298 1016.68 593.571 1016.73 591.796C1016.87 586.974 1014.87 574.749 1022.83 575.345C1024.94 575.504 1027.16 581.318 1027.72 583.399C1029.15 588.652 1029.69 602.602 1031.52 606.039C1031.68 606.341 1035.66 610.329 1035.96 610.42C1038.27 611.119 1044.16 611.148 1044.99 608.406C1046.92 602.043 1042.04 607.984 1041.1 603.791C1041.34 602.865 1049.54 601.577 1039.48 599.792C1050.59 595.48 1039.29 596.367 1038.66 593.39C1037.92 589.836 1042.84 593.732 1043.53 592.998C1046.1 590.267 1037.96 590.6 1038.66 587.422ZM1023.22 581.029C1022.05 579.885 1021.75 581.102 1021.61 582.21C1020.57 590.234 1022.81 597.781 1023.22 605.384C1023.7 614.122 1023.35 623.011 1024.01 631.756C1024.36 636.397 1026.16 636.399 1026.52 631.757C1027.4 620.151 1028.12 604.128 1026.27 592.806C1026.04 591.37 1023.66 581.458 1023.22 581.029ZM1060.59 605.771C1061.97 607.281 1066.7 599.886 1065.68 597.222C1063.92 592.62 1052.17 586.819 1049.62 581.841C1047.66 582.783 1049.68 585.577 1050.48 586.574C1052.24 588.788 1057.62 591.69 1058.62 593.801C1059.12 594.869 1056.79 595.5 1057.35 596.993C1059.18 594.567 1062.26 595.879 1062.91 598.359C1063.49 600.57 1059.99 603.23 1060.59 605.771ZM981.014 602.582C982.588 602.337 982.297 600.841 982.712 599.868C984.547 595.565 985.815 590.975 987.495 586.615C984.354 590.76 980.977 597.362 981.014 602.582ZM1067.89 604.981C1065.69 604.508 1066.51 605.627 1065.88 606.564C1065.45 607.223 1060.32 613.943 1063.43 613.743C1063.93 613.71 1068.29 605.464 1067.89 604.981ZM1018.16 618.744C1017.27 617.996 1013.11 617.218 1012.22 618.507C1011.47 619.603 1011.5 627.011 1012.62 627.78C1013.94 628.679 1017.44 627.898 1019.18 628.132C1018.99 625.942 1019.81 620.139 1018.16 618.744Z" fill="black"/>
<path d="M129.181 639.308C131.284 641.259 120.352 649.117 119.171 650.448C118.546 651.153 118.295 652.548 118.618 652.873C119.514 653.776 139.685 650.715 144.215 651.278C145.345 651.419 146.564 651.708 145.415 652.865C144.719 653.567 131.057 655.062 128.767 655.267C105.942 657.316 86.0848 660.052 63.8037 665.638C52.8053 664.468 41.9485 665.919 30.925 666.44L38.7209 664.138C41.3194 663.719 44.236 664.372 46.7702 664.055C47.8964 663.914 49.1378 663.616 47.9718 662.468C46.1307 660.656 28.9873 659.086 25.0211 658.278C19.9157 657.238 13.6215 655.516 9 653.272L14.6756 653.671C14.7345 652.536 14.7253 651.396 14.4936 650.27C14.1069 648.392 11.4069 642.637 11.7824 640.833C12.1599 639.021 16.504 635.822 17.9274 634.115C19.2826 632.489 20.2717 629.206 21.7743 628.103C27.9131 623.596 43.4401 622.499 51.2301 620.552C73.1053 615.084 89.6604 606.31 113.795 613.314C121.824 615.644 129.611 624.511 127.354 633.125C126.47 636.501 120.542 639.562 129.181 639.308ZM121.053 630.52C122.229 620.953 111.149 616.058 102.821 615.321C81.1107 613.401 73.4468 619.514 54.6519 624.715C50.9985 625.726 47.9851 625.154 45.1768 625.778C41.3073 626.637 37.4762 629.327 33.3538 628.93C33.1841 631.029 33.2567 630.253 34.5839 630.496C39.0387 631.31 41.567 630.342 45.0352 630.548C45.7414 630.59 54.8696 632.921 56.1205 633.292C62.2716 635.113 68.5165 643.164 74.359 643.367C79.1638 643.535 89.0834 640.222 93.8684 638.521C102.704 635.38 111.727 628.231 121.053 630.52ZM43.5599 644.451C37.5465 640.942 30.3245 639.64 23.8948 637.129C21.4237 636.917 17.4413 639.935 17.2326 642.238C17.1533 643.114 24.3586 650.503 25.2674 650.906C26.8517 651.608 27.9429 650.787 29.3887 650.917C29.6371 650.94 35.2175 652.982 33.3551 650.491C32.6283 649.52 19.972 646.868 19.8588 642.896C19.7455 638.919 26.0934 640.571 28.5162 641.27C32.4625 642.409 38.0248 644.643 42.2685 646.112C43.665 646.595 47.4763 649.641 47.1545 646.901C45.8149 646.438 44.4693 644.982 43.5599 644.451ZM118.617 636.914C117.602 636.025 103.627 642.446 101.192 643.326C98.0302 644.468 94.0911 644.905 91.013 646.13C89.7155 646.646 89.0261 646.044 89.3918 648.082C95.6161 647.762 103.057 645.941 108.862 643.682C109.769 643.329 120.385 638.463 118.617 636.914ZM62.5902 646.482C62.7947 644.535 55.1128 639.481 54.4743 640.107C53.6947 640.873 55.5057 642.353 56.1417 642.851C56.7541 643.33 62.2713 646.772 62.5902 646.482Z" fill="black"/>
<path d="M797.892 636.911C800.134 636.545 804.427 633.675 805.5 631.621C809.052 624.818 802.432 618.101 795.866 621.739C799.667 605.455 784.679 601.467 771.199 602.686C763.62 603.37 752.784 606.712 754.442 616.152C749.727 613.823 743.376 619.521 742.454 623.921C739.566 637.705 753.699 641.977 765 640.899L763.384 637.307L764.587 636.918C766.993 639.994 771.37 641.907 764.606 642.504C756.139 643.252 741.358 641.041 739.905 630.858C738.952 624.18 741.166 617.6 747.378 614.381C748.559 613.768 750.633 613.984 751.061 613.627C751.316 613.414 751.757 610.28 752.481 609.029C754.856 604.926 763.471 601.217 768.222 600.958C765.508 586.059 784.699 578.37 796.889 580.418C798.329 580.66 810.182 585.319 808.038 587.411C807.623 587.815 802.833 584.379 801.537 583.831C795.311 581.205 789.189 581.538 782.886 583.839C777.929 585.648 767.194 593.915 771.412 599.724C772.09 600.658 779.324 600.071 781.463 600.372C782.422 600.507 787.564 601.827 788.573 602.165C792.052 603.33 795.717 607.117 797.267 610.383C798.319 612.6 798.877 618.192 799.168 618.495C799.861 619.219 807.642 618.458 808.804 625.378C810.711 636.74 797.966 639.631 788.94 639.345C786.929 639.281 782.28 638.838 781.245 636.911C786.328 636.331 793.046 637.702 797.892 636.911Z" fill="black"/>
<path d="M242.262 490.617C256.298 499.447 279.429 501.809 263.502 522.682C258.216 529.609 242.658 539.855 241.562 547.472C240.882 552.207 247.08 554.079 249.782 557.061C252.911 560.516 254.284 564.473 253.034 569.079C252.586 570.729 248.606 576.997 246.929 575.844C249.691 571.754 252 566.558 249.954 561.675C248.212 557.517 239.607 554.468 238.811 549.431C236.793 536.667 268.192 523.781 266.398 509.649C265.298 500.987 245.649 498.423 240.471 492.768C239.588 491.803 239.238 490.665 239.002 489.427C236.96 478.712 249.134 474.454 255.866 468.871C263.436 462.593 276.893 449.974 261.544 444.117C262.849 441.017 268.489 445.418 269.474 447.491C275.833 460.879 255.381 471.014 247.347 478.06C243.752 481.214 239.247 485.614 242.262 490.617Z" fill="black"/>
<path d="M242.863 584.621C242.793 584.89 241.759 585.844 241.247 585.818C241.002 582.604 241.605 579.072 241.167 575.909C239.436 563.383 216.049 560.872 222.412 542.955C226.924 530.249 238.85 529.375 246.939 521.567C259.755 509.196 233.525 506.109 226.586 500.032C208.17 483.119 231.306 465.861 246.923 458.891C242.185 464.288 234.99 466.871 229.847 472.032C223.976 477.924 220.46 483.28 223.617 491.774C227.11 501.171 241.461 502.77 248.815 508.516C264.199 520.537 235.929 529.352 229.447 536.304C224.626 541.475 223.497 550.058 227.088 556.221C229.987 561.198 242.863 566.541 242.863 572.646C242.863 575.578 243.446 582.37 242.863 584.621Z" fill="black"/>
<path d="M1176.71 617.743C1180.57 613.97 1186.05 612.395 1187.69 606.603C1191.6 592.803 1169 585.372 1159.55 593.302L1150.73 601.78C1151.4 595.503 1159.83 593.98 1157.96 587.908C1153.46 573.367 1129 572.285 1119.42 582.587C1117.95 584.173 1115.63 590.369 1114.54 590.603C1113.49 590.828 1110.8 586.835 1104.65 588.827C1094.71 592.045 1092.53 605.492 1101.19 611.356C1094.54 611.158 1092.1 603.082 1093.25 597.571C1094.37 592.25 1101.29 586.566 1106.68 585.964C1109.27 585.675 1112.02 587.748 1113.36 587.064C1114.64 586.413 1116.78 581.898 1118.65 580.233C1128.43 571.513 1147 571.319 1156.44 580.599C1158.81 582.936 1160.14 588.783 1161.27 589.47C1162.25 590.065 1166.4 588.365 1168.19 588.224C1190.72 586.457 1201.71 611.404 1176.71 617.743Z" fill="black"/>
<path d="M396.306 632.063C396.109 632.336 392.564 633.172 392.282 632.915C391.942 631.308 393.788 630.855 393.864 629.359C393.97 627.261 390.492 620.794 389.029 618.949C384.484 613.213 374.928 609.762 367.578 610.632C361.817 611.314 345.76 618.172 348.971 625.571C349.392 626.54 352.155 626.711 350.856 628.128C350.603 628.405 348.422 625.58 343.798 627.973C334.844 632.607 335.617 647.783 345.936 650.139L355.73 651.271C342.316 656.698 328.233 642.103 337.18 630.243C339.419 627.275 343.883 626.363 345.229 624.585C346.622 622.746 346.738 620.188 349.224 617.336C360.188 604.758 386.638 606.604 393.798 622.244C394.493 623.761 396.872 631.277 396.306 632.063Z" fill="black"/>
<path d="M374.411 582.63C382.337 581.793 390.529 580.213 396.334 587.02C395.026 588.293 393.638 585.541 392.051 584.845C383.614 581.142 378.67 583.958 370.357 585.81C371.027 584.198 373.096 584.546 373.47 582.042C373.874 579.326 370.033 574.974 367.864 573.496C356.765 565.937 329.969 573.089 322.579 583.956C320.862 586.481 318.502 590.97 320.443 593.751C321.626 595.445 324.317 595.529 324.063 597.789C319.027 596.623 307.256 600.025 312.692 606.188L319.191 610.558C306.776 609.276 304.178 597.349 318.387 596.192C314.287 580.957 330.06 573.267 342.572 570.082C353.637 567.265 374.796 567.002 374.411 582.63Z" fill="black"/>
<path d="M389.773 656.93C389.064 656.423 375.659 662.483 373.156 662.427C362.262 658.606 352.6 663.943 341.937 661.65L361.445 659.687C363.539 658.418 358.51 652.743 358.988 650.488L364.241 657.689C369.939 661.498 376.775 659.901 382.754 657.485C387.43 655.597 392.203 650.797 397.146 650.878C395.781 652.811 392.207 653.339 392.28 656.065C401.178 658.633 407.912 658.37 415.608 653.061C418.099 651.342 422.968 644.939 423.541 644.91C425.182 644.825 424.807 647.96 423.99 649.329C421.55 653.418 411.215 659.374 406.42 659.994C403.316 660.396 393.775 660.389 391.199 659.103C389.845 658.427 389.974 657.073 389.773 656.93Z" fill="black"/>
<path d="M794.947 544.998C793.506 545.928 784.99 543.214 781.655 543.492C771.703 544.323 755.871 555.758 761.748 566.656C755.869 563.233 758.38 557.061 761.775 552.705C765.157 548.365 773.08 542.908 778.615 542.116C782.448 541.567 791.462 543.077 792.879 542.615C794.141 542.203 796.215 537.12 797.898 535.527C806.353 527.528 825.355 527.358 833.977 535.172C835.075 536.167 837.306 539.648 837.253 540.72C837.061 544.559 833.262 537.512 832.849 537.08C826.029 529.946 810.948 530.216 802.736 534.696C797.255 537.687 795.505 544.638 794.947 544.998Z" fill="black"/>
<path d="M1119.86 639.314L1106.46 640.894C1085.76 641.216 1065.12 642.127 1044.35 641.697L1045.55 640.103C1049.83 640.921 1054.63 639.272 1058.53 639.264C1061.76 639.257 1064.58 640.199 1067.45 640.141C1084.95 639.782 1102.41 637.083 1119.86 639.314Z" fill="black"/>
<path d="M629.385 620.941C628.017 620.44 628.46 618.788 627.013 617.297C618.21 608.232 588.083 620.844 600.972 634.509C594.193 633.786 595.096 624.595 598.524 620.534C600.999 617.6 609.308 613.22 613.122 612.521C618.497 611.535 630.874 613.27 629.385 620.941Z" fill="black"/>
<path d="M765.816 657.676C765.509 659.127 764.22 659.159 763.004 659.294C759.231 659.71 754.684 659.042 750.76 659.232C740.119 659.746 729.019 660.859 718.276 660.099C717.369 660.034 713.818 659.683 713.837 658.865L765.816 657.676Z" fill="black"/>
<path d="M981.818 653.668C973.297 654.033 964.813 654.966 956.247 654.467C954.467 654.363 947.637 653.85 946.632 653.541C945.565 653.213 945.061 652.374 945.278 651.287C946.619 651.778 950.658 649.542 950.888 649.719C951.178 649.942 951.15 651.704 952.113 651.879C952.662 651.98 955.381 651.093 957.067 651.216C964.243 651.738 972.416 651.323 979.006 652.05C980.222 652.185 981.511 652.217 981.818 653.668Z" fill="black"/>
<path d="M1007.8 642.504C1008.15 644.556 1007.5 643.95 1006.05 644.329C995.394 647.12 982.939 645.528 972.078 647.286C971.405 645.032 976.863 644.327 978.252 644.183C987.695 643.202 998.24 644.784 1007.8 642.504Z" fill="black"/>
<path d="M634.261 670.449C634.452 671.841 632.42 671.2 631.432 671.239C625.751 671.463 620.022 671.067 614.337 671.206C607.801 671.366 600.134 673.61 593.656 670.84C593.675 668.836 630.994 669.485 634.261 670.449Z" fill="black"/>
<path d="M296.454 672.841C296.73 674.099 296.063 674.498 295.245 675.236C292.212 677.974 276.928 677.237 272.102 676.818C272.679 675.349 276.171 674.921 277.596 674.65C280.149 674.163 295.57 671.914 296.454 672.841Z" fill="black"/>
<path d="M326.503 675.231H308.232C308.138 675.231 306.609 674.071 307.411 673.633C309.097 669.909 321.982 670.74 325.167 672.952C326.128 673.62 326.782 673.861 326.503 675.231Z" fill="black"/>
<path d="M150.286 671.244C150.691 673.093 150.061 672.526 149.249 673.038C145.052 675.687 134.207 674.445 129.465 672.954C128.387 672.614 126.993 672.681 126.742 671.248C134.725 671.193 142.315 672.097 150.286 671.244Z" fill="black"/>
<path d="M911.979 652.887C912.168 654.043 910.552 653.992 909.713 654.231C901.189 656.662 891.649 656.77 882.754 656.862C882.562 655.732 884.19 655.706 885.008 655.505C893.496 653.421 903.299 654.189 911.979 652.887Z" fill="black"/>
<path d="M646.852 671.239C646.577 671.17 645.608 670.152 645.634 669.65C653.105 668.872 660.977 667.997 668.369 669.652C668.599 669.957 667.303 671.239 667.153 671.239C662.509 671.239 650.372 672.122 646.852 671.239Z" fill="black"/>
<path d="M415.817 643.291C413.832 642.368 415.077 639.168 414.133 637.449C412.717 634.872 408.371 632.078 405.483 631.512C404.691 631.357 396.136 631.708 398.778 629.729C407.493 628.357 418.133 633.422 415.817 643.291Z" fill="black"/>
<path d="M548.998 685.613C550.306 686.592 548.99 687.061 547.799 687.208C541.614 687.972 534.18 687.776 527.893 688C526.554 686.999 527.971 686.547 529.092 686.406C535.164 685.641 542.787 685.963 548.998 685.613Z" fill="black"/>
<path d="M118.617 664.059C119.907 665.023 118.626 665.513 117.418 665.653C113.715 666.084 108.398 667.037 105.09 667.194C103.614 667.263 102.544 667.398 101.572 666.046C106.991 663.738 112.812 663.916 118.617 664.059Z" fill="black"/>
<path d="M808.85 660.857L794.238 653.685C798.731 653.637 803.694 655.291 806.993 658.3C807.858 659.089 809.264 659.118 808.85 660.857Z" fill="black"/>
<path d="M691.112 668.049C692.095 670.644 685.533 669.808 684.373 669.477C682.693 668.998 681.9 667.327 682.18 665.654C685.572 665.793 687.344 668.981 691.112 668.049Z" fill="black"/>
<path d="M249.358 678.416C247.822 679.218 239.632 680.041 239.631 678.026C239.631 676.529 248.644 675.729 249.358 678.416Z" fill="black"/>
<path d="M216.878 633.717C216.939 634.235 215.801 635.313 215.66 635.313H203.885V633.717H216.878Z" fill="black"/>
<path d="M746.323 264.891C746.706 266.34 745.242 266.677 744.956 267.803C744.768 268.538 745.692 269.737 745.179 270.496C741.853 275.416 733.262 263.055 746.323 264.891Z" fill="black"/>
<path d="M764.192 335.93C763.495 335.275 770.921 327.669 772.304 327.156C771.687 329.136 769.286 332.091 767.856 333.553C767.223 334.2 765.046 336.731 764.192 335.93Z" fill="black"/>
<path d="M573.359 585.015C571.139 585.448 571.968 584.467 571.392 583.401C569.704 580.277 567.783 575.343 566.057 572.643C564.619 570.396 550.711 556.245 552.254 554.687C557.007 554.285 567.43 570.62 568.897 570.631C572.262 568.245 573.698 563.149 576.594 560.653C577.434 559.929 578.801 558.88 579.051 560.689C579.321 562.643 570.152 572.63 569.46 576.056C568.955 578.559 573.152 582.229 573.359 585.015Z" fill="black"/>
<path d="M557.604 554.207C555.611 552.073 554.371 550.766 553.067 547.891C552.284 545.504 558.011 551.186 558.364 551.465C560.297 552.989 570.86 559.126 570.911 559.87C571.05 561.923 565.447 559.953 564.674 559.631C561.774 558.422 559.689 556.44 557.604 554.207Z" fill="black"/>
<path d="M600.968 525.148C601.585 525.753 598.646 529.065 598.047 529.852C595.011 533.838 590.18 540.055 586.774 543.518C585.929 544.378 585.348 545.382 583.924 545.098C583.67 543.642 584.065 542.713 584.672 541.451C585.842 539.019 595.526 529.514 598.207 526.816C598.71 526.309 600.086 524.282 600.968 525.148Z" fill="black"/>
<path d="M552.234 537.126C552.333 537.21 552.451 538.467 553.038 539.099C555.351 541.588 557.464 544.54 559.984 546.68C564.297 550.342 570.028 551.802 574.175 555.474C564.149 555.11 555.319 545.559 550.633 537.511C550.525 536.833 552.142 537.048 552.234 537.126Z" fill="black"/>
<path d="M581.475 551.489C576.882 549.156 572.737 546.111 569.281 542.33C567.526 540.41 564.48 537.3 564.438 534.725C568.916 539.167 574.105 543.166 578.662 547.478C579.35 548.129 582.296 550.652 581.475 551.489Z" fill="black"/>
<path d="M605.032 466.059C597.537 465.183 591.829 462.909 584.132 464.295C582.476 464.593 582.752 463.216 583.106 462.882C584.005 462.035 593.798 461.854 595.644 462.123C597.789 462.436 603.598 464.376 605.032 466.059Z" fill="black"/>
<path d="M623.709 493.219C621.94 495.448 619.809 497.771 617.601 499.58C615.58 501.236 612.355 503.367 609.905 504.38C611.916 501.784 615.03 499.248 617.638 497.222C619.4 495.853 621.584 493.729 623.709 493.219Z" fill="black"/>
<path d="M629.401 492.411C630.889 488.858 634.875 485.74 637.506 482.832C636.795 486.885 632.356 489.821 629.401 492.411Z" fill="black"/>
<path d="M565.234 133.16C559.694 130.305 553.888 128.223 547.759 126.853L545.744 132.773C545.644 135.083 551.586 136.493 553.654 136.97C556.141 137.543 560.393 135.964 560.366 139.543C553.99 140.2 548.14 137.175 541.819 137.038C539.994 134.113 542.108 131.34 542.503 128.376C536.782 129.981 537.56 124.166 535.57 121.219C534.544 119.7 532.18 120.361 531.953 118.799C543.389 121.656 555.443 120.767 563.621 130.364C564.385 131.261 565.59 131.662 565.234 133.16Z" fill="black"/>
<path d="M618.841 145.132C619.747 141.965 617.742 130.701 613.142 131.873C608.606 133.029 611.972 136.042 612.298 138.392C612.832 142.254 612.739 148.234 607.702 149.013C603.945 149.594 605.537 145.324 604.442 142.906C603.551 140.938 599.189 140.291 601.381 135.573C601.875 134.509 607.887 129.224 609.128 128.809C616.152 126.455 621.691 130.544 622.094 137.584C622.231 139.978 622.102 145.058 618.841 145.132Z" fill="black"/>
<path d="M571.738 161.894C565.348 159.224 559.479 159.15 555.092 165.079C552.144 160.224 558.872 157.699 551.727 153.236L543.322 149.935C550.16 148.395 553.216 151.889 558.193 154.063C562.934 156.134 568.723 157.046 571.738 161.894Z" fill="black"/>
<path d="M586.344 172.277C584.373 173.735 581.478 165.931 584.351 165.1C588.685 163.846 588.076 170.996 586.344 172.277Z" fill="black"/>
<path d="M574.997 187.447L570.931 177.074C572.724 175.272 579.201 186.124 574.997 187.447Z" fill="black"/>
<path d="M527.884 186.653C529.223 191.229 520.07 190.843 518.954 189.835C516.621 187.727 523.697 188.334 524.215 188.226C525.795 187.898 526.281 186.455 527.884 186.653Z" fill="black"/>
<path d="M533.573 198.618C536.595 195.54 532.327 193.253 533.975 189.848C536.88 192.519 538.853 197.717 533.573 198.618Z" fill="black"/>
<path d="M586.356 159.515C587.661 160.756 586.029 160.878 585.224 161.189C581.974 162.446 581.023 162.364 580.675 158.713C580.885 158.521 586.15 159.319 586.356 159.515Z" fill="black"/>
<path d="M583.922 153.907C581.762 151.715 590.186 151.387 589.599 154.306C589.141 156.395 584.185 154.173 583.922 153.907Z" fill="black"/>
<path d="M695.16 314.384C690.098 310.608 687.532 304.477 683.985 299.433C681.334 295.664 677.707 291.82 675.249 288.064C674.552 286.999 673.648 286.476 674.064 284.846C678.972 286.996 682.573 291.174 685.764 295.289C689.744 300.419 694.792 307.935 695.16 314.384Z" fill="black"/>
<path d="M692.732 240.146C686.903 244.294 681.423 249.094 675.598 253.231C674.415 254.072 673.149 255.397 671.62 255.299C677.254 249.092 684.845 243.384 692.732 240.146Z" fill="black"/>
<path d="M687.044 327.959C687.835 328.786 680.12 337.939 678.966 338.77C677.863 339.564 677.27 340.255 675.68 339.922L680.134 334.33L687.044 327.959Z" fill="black"/>
<path d="M666.747 336.729L677.296 326.359C677.038 328.109 675.181 330.173 674.034 331.527C672.363 333.499 669.531 336.926 666.747 336.729Z" fill="black"/>
<path d="M665.119 321.572C663.482 325.717 659.665 329.24 656.199 331.946L657.829 328.368L665.119 321.572Z" fill="black"/>
<path d="M686.24 340.724C687.21 336.301 691.743 333.79 694.348 330.35C694.603 332.632 692.673 334.172 691.427 335.852C690.303 337.369 688.243 340.487 686.24 340.724Z" fill="black"/>
<path d="M680.552 210.591C679.165 210.65 677.833 210.762 676.507 210.185C674.621 209.364 670.43 203.876 674.603 205.655C676.308 206.382 679.081 209.212 680.552 210.591Z" fill="black"/>
<path d="M702.481 337.531C701.155 336.006 706.617 329.151 708.153 327.955C707.95 329.096 704.11 339.403 702.481 337.531Z" fill="black"/>
<path d="M719.522 292.029L721.958 304.002L717.94 293.983L719.522 292.029Z" fill="black"/>
<path d="M683.8 367.081C673.46 380.028 658.391 392.126 642.39 397.402L661.805 385.765C668.935 380.84 674.66 374.492 680.931 368.679C681.813 367.861 682.303 366.759 683.8 367.081Z" fill="black"/>
<path d="M691.108 378.258L682.184 387.031C683.526 383.748 687.768 379.577 691.108 378.258Z" fill="black"/>
<path d="M604.228 258.5C602.924 257.065 610.559 251.968 611.555 250.942C613.27 249.177 615.742 246.44 617.215 244.531C617.864 243.689 620.533 238.417 620.863 238.545C622.515 239.188 621.874 240.329 621.464 241.5C618.997 248.547 610.521 254.811 604.228 258.5Z" fill="black"/>
<path d="M617.75 255.038C616.615 256.378 613.647 257.664 612.743 260.093C611.963 260.032 612.279 258.793 612.497 258.256C614.021 254.51 620.701 249.188 622.234 244.666L623.699 236.951C627.096 242.641 621.572 250.524 617.75 255.038Z" fill="black"/>
<path d="M621.27 228.158C621.112 230.677 621.854 234.119 620.497 236.381C620.107 237.032 618.751 237.369 618.163 238.241C614.763 243.278 611.665 248.52 605.852 251.314C605.496 249.816 606.702 249.415 607.466 248.518C612.902 242.143 621.003 238.036 618.84 228.159L621.27 228.158Z" fill="black"/>
<path d="M691.106 554.688C689.011 563.885 677.956 572.133 669.188 575.435L691.106 554.688Z" fill="black"/>
<path d="M566.867 283.24L571.327 274.46L574.164 264.094C575.684 267.552 574.27 271.826 572.938 275.246C572.567 276.198 568.431 284.761 566.867 283.24Z" fill="black"/>
<path d="M653.763 300.812L654.326 296.982L656.994 290.438C656.829 293.656 656.514 298.705 653.763 300.812Z" fill="black"/>
<path d="M565.527 607.093C566.145 607.836 567.608 608.242 568.509 609.344C569.166 610.147 572.551 615.071 569.699 614.571C568.234 614.314 556.106 600.795 556.314 599.801C557.336 594.908 564.951 606.401 565.527 607.093Z" fill="black"/>
<path d="M721.97 581.024C725.217 581.861 726.869 570.266 728.677 574.845C730.115 578.484 723.004 585.495 720.353 587.824C715.444 592.139 715.349 591.532 709.742 593.359C708.207 593.858 707.49 595.621 705.729 595.393C707.575 589.613 710.334 584.168 712.481 578.489C713.151 576.719 712.812 574.723 713.408 573.013C714.112 570.997 717.625 564.774 720.355 566.214C724.186 568.234 722.04 577.533 721.97 581.024Z" fill="black"/>
<path d="M181.188 664.806C179.749 662.822 190.156 654.978 192.974 654.494C201.893 652.96 210.014 662.977 200.906 668.71C197.806 670.661 189.155 671.279 185.774 670.284C183.263 669.545 184.091 667.049 183.135 665.657C182.631 664.923 181.292 664.949 181.188 664.806Z" fill="black"/>
<path d="M291.197 637.27C294.67 637.473 302.504 641.355 304.563 644.495C304.531 647.954 285.668 647.927 282.709 646.039C277.729 642.861 287.262 637.041 291.197 637.27Z" fill="black"/>
<path d="M891.678 597.789L885.191 598.588L889.652 592.221L891.678 597.789Z" fill="black"/>
<path d="M1018.96 523.737C1032.2 521.642 1034.84 541.361 1023.2 548.656C1015.83 553.271 1008.71 543.229 1008.59 536.684C1008.49 531.193 1013.24 524.643 1018.96 523.737ZM1023.64 526.755C1018.99 528.943 1017.53 542.912 1022.82 543.301C1028.4 543.711 1030.04 529.15 1023.64 526.755Z" fill="black"/>
<path d="M1041.11 580.23C1039.79 578.392 1039.98 576.041 1039.43 574.42C1039.17 573.645 1037.83 573.915 1037.83 573.446C1037.81 571.965 1041.72 569.668 1040.29 566.658C1044.5 568.641 1040.33 574.458 1040.42 575.71C1040.57 577.61 1044.37 579.082 1041.11 580.23Z" fill="black"/>
<path d="M1016.73 620.151C1016.62 622.506 1017.79 626.583 1014.3 626.53C1014.42 624.175 1013.25 620.098 1016.73 620.151Z" fill="black"/>
<path d="M90.7938 634.31C87.1461 638.126 69.096 639.097 71.5238 628.93C74.242 627.589 77.772 631.297 79.1025 631.189C81.1292 631.026 82.4645 628.296 83.721 627.718C86.3502 626.509 95.0513 629.855 90.7938 634.31Z" fill="black"/>
</svg>
