<svg width="450" height="253" viewBox="0 0 450 253" fill="none" xmlns="http://www.w3.org/2000/svg">
<path d="M125.235 253C120.883 251.694 116.7 248.825 116.703 243.727C116.704 241.972 118.158 239.743 118.005 238.928C117.923 238.494 114.59 231.212 114.237 230.948C113.239 230.201 113.489 231.906 112.52 232.006C107.446 232.529 101.117 228.072 98.3442 224.091C97.3291 222.634 96.2877 219.734 95.2739 218.653C93.628 216.897 90.3483 216.501 87.7794 213.14C85.3106 209.911 85.7376 206.803 84.291 204.611C82.6847 202.177 79.0495 202.848 78.32 197.571C77.9451 194.859 79.2217 191.629 79.1121 190.587C79.0846 190.325 76.5348 187.615 76.0339 186.331C73.5858 180.058 78.3374 175.218 82.8134 171.593C83.8583 170.747 87.2515 169.199 87.2724 168.066C87.2837 167.453 82.9428 157.259 82.5008 156.786C80.8804 155.053 81.1028 158.67 79.2669 159.517C74.2847 161.813 75.374 151.702 73.0423 151.735C71.0124 151.764 63.6259 160.257 59.7588 157.547C57.4224 155.91 62.1432 145.669 63.3866 143.582C63.9534 142.63 68.0667 137.597 67.7827 137.224C61.8545 135.147 56.3404 130.911 53.5332 125.201C52.4601 123.018 51.9132 120.549 50.8853 118.334C47.9818 112.08 43.1028 106.248 35.8135 105.643C37.811 114.461 26.3411 119.26 19.8642 113.871C13.8934 108.903 18.0376 99.6073 25.1409 99.1486C26.242 99.0775 27.5219 99.8923 28.3098 99.4015C28.773 99.1131 29.8723 96.8928 30.56 96.1112C38.3567 87.2489 50.5626 82.3454 62.2603 85.5753C64.4861 77.1623 70.6464 68.8364 78.5867 65.1032C80.1926 64.3481 84.1857 63.6357 84.9703 63.0927C85.325 62.8471 85.4473 61.0309 86.0383 60.0467C88.4673 56.0021 94.3539 55.4246 98.0112 58.0212C104.347 62.5196 100.679 72.0293 93.0275 71.5808C91.7277 71.5046 88.7624 69.9487 87.8241 70.612C86.1693 71.7818 86.1487 81.6521 87.5143 83.5934C88.1924 84.5573 89.828 83.5918 90.9937 83.5624C97.1299 83.4073 104.445 83.8903 109.718 87.3763C110.807 88.0966 112.314 90.2324 113.612 90.5031C114.738 90.7381 116.626 89.6542 118.015 89.586C120.388 89.4693 122.846 90.4294 124.154 92.4401C130.165 101.683 116.126 108.281 110.533 100.595C108.336 97.5767 109.983 96.2375 104.92 99.0412C99.2723 102.168 103.113 103.391 104.503 108.146C106.076 113.525 106.069 118.564 104.133 123.815C103.078 126.674 100.928 128.525 100.256 131.198C104.018 131.709 107.386 133.618 110.405 135.806C114.74 138.947 120.004 144.247 110.935 145.174C107.877 145.487 105.238 144.873 102.255 144.738C101.159 145.835 109.873 157.636 99.2599 154.763C98.8836 155.15 102.637 164.51 103.072 164.828C105.603 166.678 107.131 163.775 108.903 162.684C116.878 157.775 126.308 163.354 127.602 172.183C127.784 173.419 127.518 176.763 127.814 177.236C127.957 177.464 132.321 179.657 132.584 179.717C134.57 180.166 137.129 179.653 139.344 179.951C144.438 180.637 151.842 184.977 154.076 189.73C154.593 190.832 156.306 195.871 153.97 195.356C153.348 195.219 146.985 187.458 145.185 186.12C142.476 184.106 138.646 182.533 135.227 182.834C142.912 191.058 146.839 202.544 142.226 213.403C146.382 210.066 148.385 204.625 148.218 199.372C149.059 198.26 150.034 201.818 150.097 202.246C151.239 209.996 147.855 213.772 141.225 216.918C141.09 217.775 142.417 217.454 142.924 217.371C149.28 216.321 151.821 209.055 153.963 203.883C155.656 206.53 153.987 210.472 152.218 212.659C152.093 213.75 152.361 213.454 153.052 213.024C154.512 212.117 156.341 208.507 156.859 206.788C158.048 202.84 156.414 194.887 161.699 200.371C161.398 194.014 158.115 188.451 153.446 184.347C152.899 183.866 147.432 180.494 148.218 179.824C152.908 179.283 156.931 182.104 160.438 184.851L163.198 187.839C163.315 186.966 163.145 186.275 162.813 185.475C160.86 180.78 152.446 174.964 148.217 172.033C147.994 171.879 146.245 171.608 147.22 170.801C147.553 170.526 153.696 172.398 154.556 173.21L161.704 178.814C160.874 174.138 158.024 170.572 155.446 166.803C152.279 162.172 159.637 167.144 160.7 168.794C161.225 164.672 159.698 160.467 160.708 156.517C160.886 155.824 160.691 154.955 161.698 154.761L164.449 167.288C166.66 162.395 168.017 157.178 171.196 152.76C165.428 152.91 159.255 154.225 153.831 151.831L152.71 151.973L138.227 173.559C141.324 174.493 145.424 174.089 147.716 176.809C143.19 175.842 137.22 178.42 133.093 177.698C127.393 176.701 133.268 173.285 134.983 171.307C140.299 165.173 144.354 157.357 147.723 150.005C144.367 149.224 141.037 148.259 137.888 146.828C136.895 146.377 131.971 144.107 132.232 142.989L190.193 120.418C188.535 118.492 183.984 109.338 181.927 109.147C180.684 109.032 179.16 109.766 177.07 109.519C165.323 108.133 156.49 92.4112 164.204 82.3355C165.335 80.8579 169.132 78.8453 169.215 77.8261C167.981 70.0101 167.727 61.8558 168.696 54.0169C168.166 53.4457 165.488 57.1527 164.746 54.694C164.152 52.7272 167.745 49.6653 165.916 48.5528C160.642 45.3462 148.561 52.3856 143.955 55.504C142.814 56.2766 136.684 60.6552 136.922 61.5595C137.25 62.8113 139.188 63.9952 139.602 66.4141C142.186 81.5201 118.353 82.7759 117.285 69.7365C117.087 67.3129 118.336 63.8039 119.966 62.0103C121.149 60.7085 124.998 59.2058 125.156 58.9488C125.356 58.623 125.568 52.6079 125.795 51.3183C131.241 20.4451 168.581 13.7654 194.285 20.5745C196.712 21.2177 204.416 24.524 205.886 24.4271C207.59 24.3147 214.961 20.3522 218.053 19.5771C227.554 17.1949 236.639 17.6564 246.137 19.6756C249.441 20.378 258.77 24.0696 260.863 23.9736C262.816 23.8839 271.912 19.3802 274.839 18.4089C300.17 10.0034 327.348 11.4099 333.432 42.3622C333.666 43.5526 333.288 45.8245 333.777 46.5268C334.107 47.0008 337.12 47.4312 338.23 48.0739C344.009 51.4188 345.097 60.137 339.51 64.2461C330.867 70.6014 316.547 63.0952 321.482 52.1732C322.229 50.519 325.293 47.9837 325.101 46.7852C314.444 37.573 303.84 42.8368 294.584 50.7492C293.562 51.6227 288.857 56.0409 288.697 56.9052C290.305 71.3769 287.248 103.708 298.265 114.485C303.102 119.216 319.455 122.434 308.537 131.411C304.303 134.893 298.272 137.929 293.094 139.73C292.591 140.381 300.521 144.005 301.159 144.412C304.833 146.754 313.744 154.741 304.583 155.768L306.079 158.266C298.039 158.095 286.886 161.106 282.698 168.641C280.084 173.345 279.184 180.943 281.998 185.689C283.101 187.548 288.634 192.65 286.994 187.192C286.342 185.019 283.036 184.771 282.582 179.592C281.654 169.002 291.818 158.397 302.365 162.248C304.3 162.954 306.61 165.847 308.107 163.924C309.345 162.334 309.037 159.824 311.928 159.122L337.518 110.703C332.01 108.525 335.437 103.737 337.294 100.116C339.121 96.5537 341.385 93.1383 343.307 89.6085C344.909 86.6666 348.287 77.8634 350.927 76.7034C352.307 76.0969 354.675 76.3439 355.544 75.8222C356.381 75.32 357.497 71.5966 359.152 70.4197C363.411 67.3916 372.724 73.1824 373.018 77.8622C373.128 79.6218 370.313 82.5764 371.253 84.0805C371.445 84.3875 375.624 87.0599 376.369 87.4986C387.186 93.867 404.852 97.0918 417.099 94.4746C417.814 94.3217 421.825 93.303 421.981 93.1028C422.861 91.9772 420.283 92.3606 420.986 91.1075C422.391 90.6536 423.643 92.0432 424.719 92.0626C425.436 92.0755 429.277 89.9863 428.984 91.8615C428.73 93.4911 426.795 93.5048 426.531 94.4395C426.335 95.1317 427.069 96.3905 427.024 97.3706C426.367 111.512 422.324 127.27 414.697 139.18C404.382 155.285 387.652 169.045 368.031 170.797L372.124 165.635C379.271 150.88 371.692 130.304 359.272 120.69C358.428 120.037 354.921 117.091 354.064 117.69L328.614 166.548C338.006 171.732 346.13 176.608 350.898 186.734C363.66 213.839 335.824 241.038 308.966 232.312C304.756 230.944 302.544 227.784 298.594 226.435C297.005 230.276 295.558 234.277 293.174 237.718C294.598 238.888 301.28 248.567 300.858 249.498C300.006 251.379 298.467 249.656 297.29 249.492C296.14 249.331 294.439 250.236 293.589 249.262C292.276 247.757 295.095 243.918 292.098 242.474C292.406 246.502 291.214 250.418 288.097 253H273.109C270.328 251.297 267.538 249.392 264.373 248.483C263.898 250.139 266.819 251.016 266.615 253H264.117C263.611 252.453 261.823 250.685 261.367 250.495C261.14 250.401 260.909 251.556 260.337 251.949C258.911 252.929 256.647 252.337 255.129 251.741C252.129 250.564 253.437 249.183 249.721 251.357C248.947 251.81 248.288 251.083 248.63 253H244.634C242.735 251.06 241.39 248.194 238.893 246.98L239.638 253H228.647C228.225 244.98 223.437 248.071 218.429 248.007C213.93 247.949 200.27 244.728 195.666 243.236C194.355 242.811 193.329 241.605 192.176 241.223C188.988 240.168 185.619 239.658 182.474 238.449L179.194 248.277C179.077 249.978 181.481 251.416 178.445 251.491C177.126 250.645 178.318 249.556 178.194 248.282C178.106 247.37 177.333 246.507 177.178 245.249C176.81 242.269 178.177 239.821 177.94 236.956L170.697 253H166.7L167.197 247.99C166.553 247.314 159.266 253.244 158.872 249.752C158.539 246.806 166.169 236.705 166.08 235.698C166.017 234.977 160.823 232.66 160.682 228.173C160.576 224.818 163.584 220.688 166.784 219.753C168.384 219.286 170.12 219.847 171.198 218.655C171.405 217.633 166.46 212.76 166.694 210.898C164.604 212.579 163.415 215.089 161.44 216.898C152.597 224.995 139.136 226.918 127.735 224.433C127.343 224.79 131.091 233.529 131.613 234.321C132.714 235.994 134.624 236.043 136.047 238.393C140.321 245.45 135.935 251.355 128.732 253H125.235ZM208.662 33.9627C205.783 33.6622 206.243 29.9779 205.562 28.3061C204.824 26.4919 192.309 23.145 189.775 22.5929C185.241 21.6051 180.593 20.8189 175.944 20.931L178.687 22.9333C156.528 17.1657 128.589 34.2036 129.734 58.5229C130.511 58.6678 130.891 58.4458 131.504 58.0478C134.792 55.9125 138.93 51.172 142.555 48.5855C147.504 45.054 154.31 41.3491 160.496 40.976C162.585 40.85 162.433 42.83 164.215 41.7442C165.128 41.1885 168.395 31.1209 171.196 30.2036L171.698 31.958L175.692 30.4618C174.208 32.2285 166.29 40.847 167.748 42.9338C167.967 43.2474 169.609 43.5759 170.192 43.2698C170.759 42.9718 174.03 38.5859 175.455 37.4863C176.967 36.3194 179.321 34.6704 181.184 35.2151C178.679 38.9866 173.87 41.3171 172.697 45.9921L179.848 40.3904C181.488 39.4949 183.275 38.7976 185.184 38.9826C183.794 41.8021 170.7 50.9784 172.699 54.0138L174.186 54.2549C172.949 56.2595 171.48 58.5607 172.443 61.029C175.475 55.6865 178.709 50.3275 184.68 47.9997L177.275 56.3546C175.488 59.8736 171.935 63.4022 172.443 67.545C174.994 63.8938 177.066 59.7118 181.183 57.523C181.526 57.9032 176.995 64.0032 176.433 65.0323C175.642 66.4799 172.976 72.1001 172.849 73.3747C172.796 73.9137 173.546 78.3532 173.747 78.5193C173.924 78.6663 176.099 78.6543 176.185 78.5679C176.275 78.4786 176.245 76.7389 176.416 76.0468C180.738 58.5338 199.174 43.3386 216.968 41.5446C219.184 41.3212 226.688 42.0883 227.698 40.7823L230.643 21.4371C224.74 22.4912 214.173 23.5404 209.443 27.4141C208.874 27.88 209.716 28.5063 209.418 28.9774C209.222 29.288 208.291 29.2673 208.143 29.8046C207.79 31.0811 208.714 32.6613 208.662 33.9627ZM290.594 24.4467C286.94 25.3052 284.921 28.5052 283.101 31.4542C286.695 30.8824 290.615 28.3253 290.594 24.4467ZM260.617 27.4513C259.741 27.4769 258.942 27.8739 258.178 28.2577C257.317 28.6904 255.698 29.6704 255.127 30.4518C256.474 30.4358 257.893 29.7464 259.055 29.1161C259.85 28.6844 260.923 28.6442 260.617 27.4513ZM276.606 27.9556C274.65 28.4708 272.255 29.3743 271.611 31.4543C272.142 31.9288 276.366 28.9993 276.606 27.9556ZM274.608 35.9653L277.604 34.2145L281.597 27.9508C278.973 30.3045 275.976 32.6192 274.608 35.9653ZM236.141 40.4861C233.988 40.6758 232.152 43.0014 231.65 44.9921L236.141 40.4861ZM252.127 41.4888C250.831 40.5025 245.332 44.8786 244.284 45.8948C243.778 46.3866 242.872 46.3861 243.137 47.4958C243.538 47.8779 252.298 43.4681 252.127 41.4888ZM158.204 42.9921C156.047 43.2838 153.726 43.914 151.719 44.7479C150.66 45.188 148.872 46.0338 148.218 46.9921L158.204 42.9921ZM226.149 127.193V116.667C223.316 116.36 219.701 115.889 218.156 113.164L226.147 114.159L226.152 109.146C215.939 109.388 204.55 106.466 198.426 97.6694C196.251 99.5215 192.647 100.298 192.172 103.634C190.263 102.694 190.56 100.174 191.315 98.5051C193.152 94.4411 201.262 92.362 205.047 93.9832C207.856 95.1862 202.129 95.0811 202.15 96.853C202.184 99.6333 209.764 104.001 212.167 104.883C213.511 105.376 217.735 106.643 218.905 106.643H226.149C226.119 105.526 226.373 101.195 225.579 100.698C225.125 100.413 222.205 100.698 221.032 100.498C217.827 99.9514 213.009 97.6365 210.95 95.0766C204.332 86.8478 217.461 74.5358 226.152 76.5719C226.372 69.6545 225.856 62.6636 226.129 55.7478C226.349 50.1602 230.157 43.5645 221.914 43.9952C210.95 44.5682 195.956 51.5293 189.474 60.5742C187.47 63.3711 187.569 63.3547 185.235 65.8439C182.47 68.7919 180.591 77.8787 181.216 81.8033C181.627 84.3784 184.646 84.8385 182.18 88.5949C181.057 87.9803 181.263 86.08 180.621 84.9066C177.769 79.6904 170.771 80.6972 167.438 85.0788C160.257 94.5204 174.318 109.239 180.886 105.087C183.102 103.687 181.525 98.6145 182.936 98.6332C183.397 98.6393 186.52 105.587 187.28 106.796C195.295 119.539 211.213 127.352 226.149 127.193ZM253.626 51.0069H265.116C264.778 50.2681 262.377 49.824 261.646 49.7267C259.168 49.3967 257.286 49.3735 254.842 49.993C254.001 50.2061 253.388 49.4874 253.626 51.0069ZM326.74 51.6832C320.898 57.9045 330.741 65.4244 336.732 60.4569C343.946 54.4753 333.22 44.781 326.74 51.6832ZM230.143 127.195C246.159 128.511 270.152 111.588 272.056 95.3111C272.803 88.9276 270.958 85.0611 270.162 79.2761C269.096 71.5373 271.035 57.8029 261.961 54.4226C253.588 51.3033 246.529 58.058 239.484 61.1279C237.745 61.8855 230.509 63.4808 230.215 64.3582L229.864 95.1466C231.218 97.0933 242.341 94.1273 239.888 89.0954C239.386 88.0659 235.151 87.021 236.14 86.0976C236.259 85.9869 238.875 85.5545 239.341 85.5965C241.814 85.8192 244.165 88.3181 244.176 90.8502C244.206 97.8867 234.783 100.351 229.144 100.124L229.65 107.145C230.163 107.604 241.188 103.683 242.768 103.017C244.917 102.111 257.159 95.9128 256.625 93.8671C256.468 93.2658 254.975 93.2266 255.127 92.8613C256.238 90.1827 263.466 92.6614 263.662 95.8604C263.713 96.6883 261.439 103.388 261.114 103.634C259.218 105.067 259.753 98.6775 259.374 98.1252C251.045 104.818 240.425 108.942 229.644 108.645L230.143 127.195ZM92.1402 59.1207C86.2365 60.2458 86.7775 69.6809 94.4056 67.9394C99.6243 66.748 98.0331 57.9977 92.1402 59.1207ZM128.628 61.1347C119.441 61.8247 118.843 75.8825 130.363 73.9405C139.164 72.4567 136.07 60.5758 128.628 61.1347ZM103.504 93.1097C105.628 92.754 108.517 93.3679 110.748 93.1097C107.778 89.0306 100.937 86.5387 96.01 86.5472C93.1042 86.5523 83.5785 88.1704 81.5138 86.1012C80.4054 84.9903 82.372 85.3583 82.2829 84.4013C81.724 78.4011 79.4709 77.5643 82.7538 70.7876C83.5638 69.1156 85.3338 67.9911 85.2642 66.0438C77.8869 67.3318 66.7781 79.0936 66.2946 86.4059C66.2413 87.2114 66.8924 88.9954 66.783 89.0966C66.3844 89.4656 57.7941 87.5384 56.0462 87.5529C47.1443 87.627 36.063 92.9888 31.3161 100.622C33.963 101.768 36.6087 99.3729 39.1928 98.7575C45.203 97.326 49.3426 98.9003 53.8276 102.861C54.7383 103.666 54.4793 104.965 55.7849 104.634C61.9028 92.3732 79.6105 86.6987 91.7831 92.8396C93.0714 93.4896 96.487 96.4593 97.1032 96.5537C97.4622 96.6088 101.883 93.3812 103.504 93.1097ZM367.396 74.1915C366.789 73.5629 363.309 72.3896 362.396 72.6344C360.862 73.0458 359.795 76.2606 359.036 77.5634C360.741 77.7094 364.155 80.4799 365.7 80.0255C366.912 79.6692 368.719 75.5617 367.396 74.1915ZM350.044 86.5938C351.06 85.3575 352.331 83.3823 354.04 83.5915C353.792 84.5804 352.083 85.3555 351.777 86.1037C351.509 86.7616 352.072 87.6445 351.677 88.9433C350.332 93.3591 346.025 98.6715 344.303 103.139C340.423 105.239 342.74 101.08 343.768 99.0934C346.032 94.7181 347.947 91.1589 350.044 86.5938C349.872 86.8033 349.247 86.9528 349.12 87.3984L338.554 106.137C345.897 106.435 354.053 110.357 360.371 114.075C376.157 123.367 384.99 140.884 379.038 159.04C378.559 160.502 377.208 162.229 377.014 163.53C376.91 164.226 377.021 164.487 377.758 164.274C379.833 163.676 386.547 158.744 388.668 157.173C408.424 142.546 422.819 120.935 423.479 95.6173C415.133 98.2762 407.08 99.7218 398.311 98.5645C388.329 97.2469 379.399 92.5387 370.324 88.5596C367.578 91.6832 360.748 108.131 358.029 109.396C355.742 110.459 353.13 107.646 351.543 106.146C352.205 106.149 352.911 106.199 353.526 105.878C357.37 103.869 363.573 86.6144 365.856 86.1675C366.786 85.9854 367.682 87.6369 368.526 86.8468C366.776 83.7718 357.026 77.8319 354.04 79.3143C352.582 80.0378 350.781 84.989 350.044 86.5938ZM226.149 80.5791C218.659 77.9421 207.978 89.4185 217.131 94.3883C220.103 96.002 222.888 95.635 226.149 95.6158V80.5791ZM279.109 90.1023C280.097 89.8984 279.964 89.0781 280.101 88.3458C280.518 86.1239 281.099 83.861 281.097 81.584C280.362 81.6583 280.293 82.8385 279.813 83.569C279.588 83.9111 278.699 83.9516 278.58 84.443C278.255 85.7857 279.627 88.4337 279.109 90.1023ZM114.24 94.6134C108.846 100.312 122.446 103.89 122.217 96.4205C122.051 91.0151 112.277 90.9813 115.801 97.3125C116.619 98.7837 118.044 98.5135 118.738 99.6204C115.183 100.042 113.834 97.9829 114.24 94.6134ZM75.6566 94.2417C66.6255 95.4676 56.5899 105.641 56.2794 114.941C55.5234 137.58 95.6688 142.548 100.617 120.287C104.254 103.926 91.8193 92.0479 75.6566 94.2417ZM283.099 94.1121C281.928 94.0412 282.217 93.9463 282.101 94.8545C281.562 99.0754 283.213 105.821 286.593 108.647C284.586 104.026 283.145 99.2178 283.099 94.1121ZM24.6745 102.24C19.7096 103.379 18.9349 112.758 27.056 112.168C34.9347 111.596 33.769 100.153 24.6745 102.24ZM334.562 133.207C335.399 128.354 344.071 117.427 344.083 113.404C344.085 112.572 344.004 112.164 343.3 111.665C342.357 112.705 341.187 113.573 340.336 114.696C334.818 121.965 327.572 137.272 322.981 145.903C320.744 150.108 318.397 154.363 316.572 158.766C318.596 158.669 320.834 160.734 322.593 159.044C324.241 157.46 326.995 149.026 328.373 146.3C329.309 144.449 330.539 142.339 331.77 140.672C331.955 140.423 332.318 138.827 333.056 139.726C333.761 140.585 324.68 157.403 324.134 160.108C324.314 161.594 325.097 161.362 325.785 160.243L337.822 138.237L338.049 136.716C337.231 137.976 335.721 139.21 335.532 136.956C335.295 134.14 342.43 124.129 344.135 121.013C345.001 119.43 347.059 115.831 347.48 114.325C347.748 113.363 345.939 113.013 345.808 113.662C342.99 120.668 338.882 127.078 334.562 133.207ZM342.544 129.695C344.042 125.123 348.138 121.042 349.965 116.833C350.338 115.972 350.886 115.976 349.794 115.173C347.34 119.101 344.053 123.968 342.331 128.228C342.133 128.717 341.573 129.769 342.544 129.695ZM197.029 124.341C196.304 123.754 195.458 123.604 194.551 123.769C192.559 124.13 186.954 127.712 184.523 128.785C170.039 135.177 155.035 136.758 141.316 142.595C140.922 142.763 139.753 142.567 140.227 143.475C140.692 144.366 147.268 146.341 148.603 146.602C160.986 149.026 172.359 145.208 184.182 142.232C185.438 143.44 168.61 163.052 170.202 167.291C178.407 163.716 187.497 159.844 194.834 154.668C195.844 153.955 202.446 147.943 203.166 148.748L201.163 168.506C201.427 170.502 208.784 165.242 209.403 164.775C214.147 161.194 217.743 156.169 222.647 152.756C223.975 156.191 222.538 159.813 222.637 163.001C222.771 167.341 225.538 172.446 225.675 177.051C225.782 180.659 224.652 184.982 224.621 188.575C224.594 191.521 225.5 194.269 225.67 197.093C225.973 202.103 224.61 207.282 225.148 212.152C225.376 214.205 226.063 217.008 228.646 216.407C227.306 211.954 228.578 207.036 228.668 202.648C228.751 198.551 228.966 177.512 227.362 175.346C226.579 174.289 224.592 174.498 226.398 172.803C227.057 172.184 230.648 170.555 231.521 170.401C232.919 170.153 234.392 170.867 235.129 170.564C235.704 170.329 238.248 167.576 239.8 166.702C248.873 161.59 263.305 157.409 273.505 154.906C282.53 152.692 292.336 150.159 301.583 151.249C299.804 146.853 296.646 148.21 293.363 148.265C272.263 148.618 258.098 155.14 239.3 163.694C237.723 164.411 229.493 169.113 228.65 168.294L226.587 137.28C223.967 135.83 221.572 136.945 218.886 136.736C214.106 136.365 204.842 133.863 201.348 130.524C199.762 129.008 198.299 125.37 197.029 124.341ZM251.131 132.2C254.883 132.839 256.764 131.465 257.118 127.694L251.131 132.2ZM248.13 128.2L240.639 131.197C243.211 131.296 246.374 130.143 248.13 128.2ZM226.152 132.207C218.848 132.485 211.655 130.604 204.668 128.701C204.797 129.574 205.684 129.553 206.276 129.84C212.125 132.671 219.694 133.967 226.152 133.707L226.152 132.207ZM110.745 141.726C111.313 141.246 108.657 138.812 108.256 138.464C105.96 136.475 98.8617 132.293 96.0472 134.184C94.5025 135.223 99.8875 136.804 100.256 138.215C96.6592 137.13 94.8544 134.157 90.7657 136.221L93.2622 138.716C91.7555 138.77 91.0951 137.189 89.5216 137.175C88.3525 137.166 87.5358 138.064 86.4911 138.192C85.1606 138.357 82.0451 137.876 81.241 138.439C80.2462 139.135 81.006 143.368 80.7679 144.733C79.8961 144.85 80.2982 143.595 80.2735 142.987C80.216 141.569 80.3183 140.135 80.2712 138.72C76.9554 138.443 75.1826 141.886 72.5349 143.237C72.6626 141.902 76.9656 137.785 73.1346 138.825C70.2279 139.614 63.814 149.367 63.7925 152.755C64.1951 153.293 73.3969 145.436 75.0201 145.41C77.4715 145.37 77.5213 151.689 77.7878 153.503C78.2373 156.561 80.3078 150.269 80.5752 149.8C82.2833 146.809 85.1613 144.096 84.7721 140.227L100.009 150.748C101.117 148.975 95.9244 141.012 96.7619 140.227L110.745 141.726ZM268.114 139.723H276.357C278.017 139.723 283.888 136.456 285.596 135.461C285.669 135.075 285.141 135.161 284.846 135.207C280.868 135.824 274.453 137.618 270.294 138.654C269.684 138.806 268.112 138.931 268.114 139.723ZM251.627 138.225C248.702 139.524 245.6 141.719 243.635 144.23C246.724 143.423 249.616 140.661 251.627 138.225ZM260.121 143.728C261.281 143.945 264.85 142.218 264.614 140.984C264.185 138.735 259.974 142.523 260.121 143.728ZM98.2557 165.283C98.8796 164.685 92.9301 149.829 92.0458 149.214C91.6067 148.909 90.5744 148.462 90.267 148.749C89.752 149.228 93.9508 160.727 94.6748 162.115C95.0724 162.876 97.1352 166.357 98.2557 165.283ZM263.615 150.753C259.689 150.484 255.01 151.344 252.627 154.755C255.842 153.638 259.225 152.899 262.444 151.805C263.216 151.543 263.875 152.25 263.615 150.753ZM94.7642 165.781C92.7967 161.567 91.4585 156.755 88.2715 153.257C89.1186 154.954 92.1096 165.786 92.7847 166.283C93.1279 166.535 94.2246 165.681 94.7642 165.781ZM195.673 161.78C187.837 165.683 179.96 169.528 171.44 171.796C170.437 173.104 170.457 184.379 170.739 186.545C171.027 188.758 174.643 197.04 175.763 199.548C179.61 208.158 186.766 215.838 196.674 216.406C195.726 214.821 192.043 214.279 192.433 211.895C197.778 213.694 202.823 216.93 208.662 216.162C207.151 214.479 203.522 214.486 203.171 211.902C203.746 211.372 207.138 213.302 208.016 213.311C208.961 213.321 209.247 212.23 210.021 211.987C212.475 211.217 219.466 214.098 222.148 214.907L222.647 200.875L219.569 206.049C216.764 208.932 212.918 209.262 209.166 208.396C209.847 209.424 212.066 209.288 212.922 210.385C213.213 210.758 213.223 210.938 213.158 211.396C212.474 212.028 206.19 208.934 205.17 208.138L207.661 207.395C193.814 198.649 212.839 181.843 221.063 195.701L222.647 199.367C222.92 194.887 221.996 190.55 222.132 186.066C222.2 183.814 223.18 180.649 222.829 178.392C222.565 176.696 220.036 173.686 219.07 171.637C218.238 169.875 217.404 167.733 217.152 165.788C212.877 168.652 209.109 172.574 204.173 174.327C208.659 184.556 196.459 193.098 187.946 186.323C179.679 179.745 186.14 167.639 195.674 168.29C194.966 166.046 194.985 164.024 195.673 161.78ZM324.061 166.288C323.323 163.213 317.044 161.095 314.426 161.882C313.981 162.015 312.231 163.68 312.08 164.04C311.64 165.096 312.818 164.691 313.305 164.797C314.853 165.134 316.435 165.269 317.979 165.628C318.733 165.804 320.196 166.791 320.326 166.778C320.713 166.738 321.132 163.792 324.061 166.288ZM111.752 176.313C111.123 179.681 115.807 182.981 118.875 182.718C126.741 182.044 125.083 163.934 115.011 164.26C113.544 164.308 108.558 166.313 108.815 167.951C108.986 169.04 112.291 171.963 111.249 174.309C113.996 173.716 116.437 171.177 119.238 173.559C116.019 173.652 110.294 173.948 114.273 178.04L118.738 179.315C114.996 179.802 113.897 179.162 111.752 176.313ZM298.004 177.738C298.586 176.809 297.679 174.685 297.75 173.621C297.955 170.576 300.557 168.855 302.575 167.04C298.777 163.419 291.778 165.583 289.265 169.705C286.253 174.645 284.392 182.58 292.07 183.824C291.499 180.485 297.633 178.33 298.004 177.738ZM269.615 176.31C273.425 175.276 272.942 170.404 273.604 167.294L270.524 172.466L269.615 176.31ZM107.67 177.226C107.934 177.066 108.75 174.694 108.733 174.109C108.586 168.973 102.245 167.285 98.0492 167.836C93.2297 168.469 80.5728 175.92 79.8041 181.109C78.9612 186.799 83.5991 186.479 84.1974 188.705C84.6269 190.303 83.3276 191.129 83.006 192.332C82.2774 195.059 83.0192 198.342 85.2988 200.091C86.2498 200.821 89.133 201.703 89.5237 202.368C90.069 203.296 89.6091 205.419 90.3787 207.024C91.6688 209.715 98.6914 214.183 101.753 213.656C100.241 212.152 97.0768 211.951 96.7643 209.394C101.857 213.395 109.369 212.297 114.923 209.823C118.665 208.156 123.681 204.852 119.991 200.381C115.805 202.703 107.932 206.614 103.268 207.173C102.3 207.289 99.1735 206.413 98.7624 205.627C98.2895 204.723 99.4881 204.874 99.8642 204.751C103.673 203.502 117.354 201.663 118.232 197.099C118.469 195.867 118.002 192.679 117.275 191.693C114.01 187.264 96.7744 198.815 91.7661 196.114C97.0446 192.762 103.438 191.638 109.188 189.289C109.816 187.246 108.338 185.752 108.255 183.831C109.868 184.856 110.393 187.068 110.25 188.847C110.442 189.052 115.548 188.033 115.704 187.802C116.789 186.196 110.292 180.148 108.473 179.852C105.67 179.396 100.808 180.482 98.0378 181.355C94.7355 182.395 92.3377 184.566 88.5203 184.344C84.91 184.133 90.0562 181.895 91.1328 181.444C93.1012 180.619 103.755 177.79 104.201 177.268C105.131 176.178 103.194 172.324 102.255 171.306C105.335 171.351 104.679 179.039 107.67 177.226ZM331.888 186.667C333.77 184.432 333.823 183.185 332.579 180.551C330.228 175.572 319.527 169.155 314.195 168.423C309.411 167.765 300.778 168.445 301.552 175.074C301.909 178.13 303.665 176.266 305.27 176.468C306.488 176.622 307.812 177.673 309.226 177.338C309.917 177.175 311.474 172.523 313.07 172.303L311.287 177.839C314.871 179.846 320.055 180.474 323.411 182.734C324.461 183.441 325.317 183.766 325.062 185.332C317.626 184.723 303.909 175.14 297.317 181.304C294.047 184.362 294.547 187.451 299.085 188.344C298.442 187.222 301.603 181.786 302.582 182.831C302.649 184.545 299.559 187.19 301.072 188.601C302.015 189.481 311.919 192.795 314.254 193.926C316.054 194.799 318.5 195.667 319.57 197.359C311.234 197.961 301.537 188.824 293.355 190.361C288.84 191.209 290.966 199.439 293.811 198.858C295.004 198.615 294.048 196.372 295.085 196.365C295.37 202.29 304.411 202.677 308.925 204.786C310.456 205.501 314.616 207.908 310.846 207.909C307.51 207.91 297.733 203.958 294.255 202.464C292.918 201.889 289.55 199.599 288.767 199.487C285.972 199.089 284.917 204.99 288.094 206.639C290.741 208.013 289.016 202.908 292.093 202.883C287.925 208.306 292.343 209.754 297.098 211.64C305.069 214.801 311.465 215.348 319.026 210.602C320.116 209.919 325.344 205.721 324.067 204.383C323.886 204.193 322.09 204.867 322.572 203.637C322.969 202.623 327.991 200.03 329.471 197.022C331.76 192.368 329.046 190.878 329.635 188.706C329.943 187.57 331.349 187.307 331.888 186.667ZM247.305 178.644C253.039 184.29 262.77 175.56 255.376 170.797C249.329 166.903 243.271 174.672 247.305 178.644ZM194.042 171.411C186.852 172.038 185.202 184.227 194.93 184.053C204.471 183.882 202.37 170.685 194.042 171.411ZM341.551 184.328C340.459 178.318 335.388 172.846 329.561 171.306C331.326 173.977 334.21 175.484 336.311 177.811C337.819 179.482 338.888 181.637 340.263 183.384C340.676 183.909 340.246 184.647 341.551 184.328ZM124.238 217.41C142.153 215.428 142.729 193.4 130.992 183.318C122.84 176.316 128.251 185.26 129.474 188.35C132.596 196.238 136.008 205.926 128.977 212.897C128.482 213.387 123.278 216.541 124.238 217.41ZM123.727 185.335C123.595 185.225 122.649 185.4 122.24 185.332L122.233 187.841C120.654 185.816 119.263 185.246 119.859 188.471C120.416 191.48 122.796 194.431 121.243 197.865C124.412 196.636 125.06 192.177 124.693 189.134C124.637 188.675 123.877 185.461 123.727 185.335ZM261.117 186.841C260.011 186.709 259.026 188.688 258.506 189.481C253.303 197.408 261.492 191.285 261.117 186.841ZM246.632 194.853C248.412 195.302 252.598 189.381 252.122 188.844C250.986 188.871 246.232 194.483 246.632 194.853ZM239.141 193.352C240.445 193.471 241.758 193.156 242.612 192.107L240.385 189.347C240.131 189.233 238.743 192.727 239.141 193.352ZM335.057 190.347V202.126C335.057 205.931 329.569 210.873 326.402 212.489C323.244 214.099 319.061 214.362 316.572 216.907C328.767 215.917 338.871 210.965 338.07 197.094C337.959 195.173 337.501 190.536 335.057 190.347ZM345.053 198.868C346.412 198.376 346.159 196.265 346.051 195.107C345.961 194.143 345.521 191.845 344.554 191.352L345.053 198.868ZM281.597 202.875C281.745 201.588 282.083 199.926 282.863 198.879C284.602 196.542 288.029 197.29 286.593 192.853C284.917 193.342 284.085 194.871 282.853 195.882C282.361 196.285 281.364 196.249 281.193 196.449C281.075 196.588 280.653 199.556 280.655 200.069C280.656 200.467 280.924 202.88 281.597 202.875ZM216.985 195.031C210.94 188.55 201.858 199.471 208.989 203.805C215.319 207.653 221.23 199.583 216.985 195.031ZM234.617 194.882C234.46 194.753 233.292 194.799 232.947 194.911C231.626 195.339 232.643 196.934 232.668 198.094C232.738 201.287 231.889 205.239 233.895 207.887C234.612 205.963 235.798 195.851 234.617 194.882ZM123.237 210.892C130.766 210.803 127.011 200.942 126.228 196.366C125.392 196.232 125.686 197.581 125.716 198.13C125.878 201.026 127.108 203.053 126.185 206.088C125.632 207.906 124.298 209.385 123.237 210.892ZM169.697 196.362V204.131C169.697 205.669 171.005 210.068 171.754 211.59C172.346 212.792 176.793 218.143 175.486 214.865C174.939 213.494 170.495 207.278 175.169 209.167C177.561 210.133 179.637 213.272 182.192 214.15C180.298 211.362 177.695 209.366 175.785 206.544C173.558 203.251 172.436 199.284 169.697 196.362ZM252.127 203.374C255.101 203.994 255.303 200.406 256.119 198.367C255.337 198.741 251.824 203.148 252.127 203.374ZM347.54 209.391C348.597 205.795 349.349 202.153 349.04 198.369L346.044 204.643C345.997 204.919 346.939 204.8 347.047 205.211C347.342 206.333 346.394 208.732 347.54 209.391ZM248.627 198.87C245.274 198.998 244.019 199.205 243.14 202.877C245.028 201.74 248.215 201.567 248.627 198.87ZM325.567 209.391C328.983 208.36 332.209 204.574 332.054 200.873L325.567 209.391ZM263.115 210.902L254.011 212.036L248.133 213.899L258.745 212.775L263.115 210.902ZM282.099 213.406C278.628 213.263 278.91 214.368 279.107 217.411C279.822 218.243 282.537 213.805 282.099 213.406ZM118.66 213.987C118.132 213.662 116.939 214.006 116.245 213.907C117.53 221.449 121.846 227.896 124.486 234.954C125.377 236.05 127.634 235.533 127.039 233.934C125.605 231.445 119.858 214.724 118.66 213.987ZM291.598 216.915C291.428 216.741 291.702 214.486 290.102 214.908C287.452 220.182 285.327 226.877 282.235 231.821C281.778 232.552 281.013 232.851 280.606 232.447C280.049 231.896 286.882 220.514 287.391 218.415C287.584 217.62 287.246 214.426 286.108 215.412L276.605 233.202L285.118 235.742L294.082 217.15C294.578 215.498 291.845 217.168 291.598 216.915ZM122.735 236.457C123.623 235.44 117.254 221.712 116.333 219.578L113.751 215.412C112.994 218.34 114.994 222 116.156 224.768C117.456 227.864 119.54 232.373 121.222 235.223C121.467 235.638 122.096 237.188 122.735 236.457ZM187.186 217.908C191.157 219.124 195.079 220.83 199.279 221.091C199.796 221.123 200.956 221.726 201.168 220.664C201.414 219.436 199.065 219.233 198.28 219.06C195.537 218.457 191.651 217.935 188.794 217.547C188.253 217.473 187.072 216.993 187.186 217.908ZM312.573 224.937C307.725 225.019 306.844 218.7 302.631 218.457L301.598 221.906C304.768 222.603 307.807 224.638 310.946 225.317C311.451 225.426 312.698 225.826 312.573 224.937ZM239.519 241.855C241.411 239.95 238.973 229.65 238.645 226.679C238.448 224.889 239.249 220.122 237.646 219.161L206.388 219.891C204.388 219.876 204.285 221.588 204.144 223.154C203.873 226.173 204.764 238.523 205.792 241.095C206.642 243.22 212.261 243.81 214.416 243.972C218.396 244.27 237.141 244.251 239.519 241.855ZM296.587 218.919C295.865 218.19 294.852 219.498 294.482 220.06C293.081 222.185 289.139 231.173 288.211 233.817C287.848 234.851 287.465 235.827 287.602 236.958L290.181 233.288C290.878 231.264 297.556 219.898 296.587 218.919ZM264.594 220.457L241.649 223.174C241.657 225.651 247.574 225.027 249.315 224.867C252.575 224.568 256.196 223.069 259.384 222.929C262.69 222.785 265.864 224.256 268.611 221.17C267.787 220.29 265.002 222.352 264.619 221.925C264.486 221.778 264.783 220.636 264.594 220.457ZM111.242 225.934C110.632 223.24 110.209 220.498 106.751 220.927C108.019 222.845 108.833 225.163 111.242 225.934ZM168.197 224.434C165.65 230.981 176.006 231.999 174.679 225.194C173.755 220.452 164.307 222.222 164.72 227.625C165.04 231.818 170.911 234.537 174.183 231.688C175.685 230.195 171.925 231.7 171.447 231.695C169.25 231.674 166.055 229.861 166.292 227.313C166.346 226.729 167.031 223.927 168.197 224.434ZM179.686 230.447C180.36 229.608 180.316 222.22 177.691 222.43C177.53 222.591 179.118 226.022 179.186 226.732C179.31 228.024 177.657 230.79 179.686 230.447ZM196.174 225.439L191.184 223.929C191.621 227.335 194.096 228.712 196.174 225.439ZM253.124 228.944C251.987 228.848 250.875 229.076 249.787 229.375C248.935 229.61 248.396 229.01 248.633 230.442C249.845 230.34 253.302 230.986 253.124 228.944ZM195.173 229.946C193.884 230.049 191.81 229.379 191.18 230.94C192.56 231.323 195.117 232.305 195.173 229.946ZM200.64 235.497C200.206 234.787 186.294 233.844 184.187 233.457L187.97 234.918C189.705 235.41 199.965 237.7 200.674 236.959C200.724 236.906 200.735 235.652 200.64 235.497ZM281.503 235.562C280.41 234.927 272.991 235.03 271.611 235.708C271.141 235.939 268.336 240.31 268.254 240.794C267.484 245.338 276.138 249.913 279.893 250.464C281.185 250.567 281.064 250.311 279.979 249.875C275.731 248.165 269.173 246.432 269.082 240.804C272.88 237.621 281.709 241.496 284.621 244.708C285.857 246.071 285.802 247.484 287.092 248.489C288.561 246.128 285.535 243.158 285.612 241.714C285.651 240.977 286.614 240.514 286.385 239.968C286.036 239.137 283.25 237.651 282.333 236.958C281.873 236.61 281.724 235.691 281.503 235.562ZM165.204 244.978C166.404 246.273 171.241 237.289 170.691 235.958C169.429 236.52 164.757 244.496 165.204 244.978ZM260.12 236.465L243.132 236.958L243.132 239.47C248.115 239.509 253.712 239.289 258.43 237.52C259.066 237.281 259.964 237.413 260.12 236.465ZM122.247 239.972C122.151 240.052 121.283 242.034 121.246 242.263C120.468 247.129 126.135 248.226 129.876 247.381C134.413 246.357 133.816 237.729 128.481 237.72C121.802 237.709 123.778 245.773 128.45 245.482C129.528 245.415 130.14 244.355 131.23 244.484C127.876 248.946 120.579 246.073 123.244 240.225C123.3 239.787 122.317 239.915 122.247 239.972ZM201.17 241.467C199.443 239.59 195.935 240.056 193.679 239.973C193.599 240.746 195.005 240.681 195.585 240.809C197.394 241.205 199.309 241.493 201.17 241.467ZM282.599 246.482C283.35 245.771 280.399 244.166 279.937 243.895C277.757 242.617 271.811 241.088 275.842 243.492C276.619 243.955 282.33 246.736 282.599 246.482Z" fill="black"/>
<path d="M406.495 105.144C406.578 105.224 405.975 106.16 406.025 106.825C406.625 114.893 402.054 124.225 397.21 130.658C396.696 131.341 392.792 136.448 392.008 135.709C395.771 127.896 400.462 121.965 403.14 113.551C403.976 110.925 403.766 108.257 405.376 105.787C405.631 105.396 405.714 104.381 406.495 105.144Z" fill="black"/>
<path d="M363.53 85.5938C364.175 86.176 358.379 96.3948 357.562 97.2554C356.953 97.8963 354.985 98.8727 354.043 99.1219C353.521 98.5539 358.3 91.4491 359.024 90.4813C359.475 89.8793 360.514 89.6943 360.806 89.1013C361.03 88.6477 360.444 86.3692 361.646 85.706C362.002 85.5091 363.434 85.507 363.53 85.5938Z" fill="black"/>
<path d="M389.01 100.623L384.018 99.6247L383.767 101.628C382.601 99.5925 380.187 99.0558 378.155 97.7357C377.184 97.105 376.061 95.5934 375.514 95.3237C374.576 94.861 374.216 96.0674 373.495 95.9104C372.602 95.7158 371.023 93.9774 370.526 93.1147C372.516 93.2048 374.667 94.1407 376.514 94.8708C379.903 96.2101 384.163 97.9232 387.404 99.4829C387.996 99.7678 388.882 99.7563 389.01 100.623Z" fill="black"/>
<path d="M192.183 82.0828C192.043 79.2624 199.853 78.8949 200.174 78.5716C200.494 78.249 198.565 73.4802 201.168 69.8002C206.61 62.1039 219.942 68.3749 214.584 77.2457C211.504 82.3446 197.455 78.7462 192.183 82.0828Z" fill="black"/>
<path d="M196.677 61.5303C196.841 54.0142 209.116 48.77 214.838 53.083C216.251 54.1477 217.609 56.6773 215.915 58.0002C211.439 55.7708 207.438 55.0305 202.829 57.4321C201.978 57.8752 197.01 61.915 196.677 61.5303Z" fill="black"/>
<path d="M180.188 93.1048C177.202 92.6145 175.07 94.1568 175.7 97.3524C175.842 98.076 177.688 99.9553 175.936 99.6341C173.912 99.2631 172.317 96.0234 172.898 94.0964C173.254 92.9136 174.763 92.424 174.692 91.1108C171.856 89.9869 169.863 89.6638 168.95 93.1073C167.132 91.6315 168.906 88.4491 170.418 87.5715C173.644 85.6994 179.327 89.7093 180.188 93.1048Z" fill="black"/>
<path d="M260.622 69.0569C262.617 72.7575 264.271 76.2412 262.225 80.4354C261.482 81.959 259.593 82.8145 259.121 84.5841C259.547 84.2621 266.876 84.6565 265.114 86.0901C262.389 84.9214 257.694 87.6828 255.905 87.624C255.59 87.6136 255.845 86.5782 254.895 86.5358C252.272 86.4187 250.015 87.4968 246.609 86.8684C241.774 85.9766 240.605 83.3153 237.593 80.3756C236.333 79.1458 234.201 78.8959 233.738 76.7035C233.37 74.9624 233.949 72.2 235.391 71.0662C237.119 73.1904 235.612 74.8395 239.151 73.8241C242.702 72.8055 250.354 68.375 253.394 66.0408C255.046 64.7721 256.408 63.7391 258.168 62.3304C260.35 60.5835 261.866 59.5047 263.832 62.07C266.689 65.7992 265.275 68.8259 260.622 69.0569ZM257.582 71.6013C256.362 70.5605 249.779 74.1653 248.372 75.0578L244.135 82.5782C251.906 85.9488 260.516 80.5067 257.582 71.6013Z" fill="black"/>
<path d="M244.631 110.657L241.129 112.9L233.146 115.662C233.007 114.41 234.241 113.864 235.138 113.405C237.661 112.115 241.829 111.538 244.631 110.657Z" fill="black"/>
<path d="M263.621 90.5969C263.854 89.3939 266.181 90.3455 266.801 90.6676C267.596 91.0809 269.236 92.9747 269.114 93.8508C268.813 96.0051 266.288 92.1076 266.068 91.9042C265.427 91.3125 264.481 90.781 263.621 90.5969Z" fill="black"/>
<path d="M180.015 177.488C185.549 182.768 176.124 190.917 173.569 184.708C173.177 183.756 173.395 182.881 173.165 182.195C173.017 181.753 172.251 181.831 172.183 181.488C171.424 177.684 176.968 174.582 180.015 177.488ZM177.189 178.822C176.882 178.55 175.398 178.861 175.247 179.609C175.172 179.981 175.819 184.17 176.455 184.33C178.23 184.778 179.731 181.883 179.186 180.324L176.693 180.82C176.469 180.616 177.408 179.017 177.189 178.822Z" fill="black"/>
<path d="M218.153 170.301C217.628 173.649 219.306 176.525 219.153 179.819C218.13 181.047 216.767 176.056 216.702 175.521C216.548 174.239 216.175 170.062 218.153 170.301Z" fill="black"/>
<path d="M201.668 211.396C200.612 212.309 193.641 207.876 194.679 206.89C195.581 206.887 202.892 210.337 201.668 211.396Z" fill="black"/>
<path d="M187.679 209.892C187.046 210.503 182.511 206.969 183.188 205.386C183.709 204.79 188.262 209.331 187.679 209.892Z" fill="black"/>
<path d="M97.2538 113.159C95.9998 112.55 95.461 110.796 93.7635 111.157C96.1597 118.426 91.3465 128.381 83.3747 129.093C78.4519 129.532 72.5732 125.854 69.2706 122.444C68.429 121.574 66.0701 117.947 65.5307 117.672C64.2476 117.018 63.9104 121.466 64.7862 122.176C59.025 120.098 63.8557 112.474 68.7829 113.665C66.0679 116.393 67.5458 116.957 70.2739 118.43C75.5869 121.297 83.1881 121.458 88.2346 117.888C90.0278 116.62 92.9428 113.432 91.5166 111.127C91.3104 110.794 89.4224 110.591 90.2667 109.657C91.6797 108.095 98.3748 109.723 97.2538 113.159ZM76.2792 124.188C75.1647 125.173 79.9658 126.959 80.6399 127.072C83.9933 127.634 88.2318 126.863 89.7419 123.429C89.5673 121.354 82.0795 123.919 80.4588 124.121C79.07 124.294 77.6669 124.149 76.2792 124.188Z" fill="black"/>
<path d="M79.6388 107.262C83.2089 106.597 87.4146 107.345 86.7447 111.87C85.9706 117.1 75.1225 117.081 74.7827 111.87C74.6331 109.576 77.6383 107.634 79.6388 107.262ZM81.1513 108.264C76.0088 108.567 75.3239 113.661 81.4953 112.626C85.2589 111.995 85.3705 108.016 81.1513 108.264Z" fill="black"/>
<path d="M66.9412 103.796C70.738 100.303 75.5006 106.088 72.0412 109.16C68.0443 112.71 63.3284 107.12 66.9412 103.796Z" fill="black"/>
<path d="M83.4009 100.255C86.7046 96.7511 92.1811 102.338 89.0081 105.632C85.6955 109.071 80.4064 103.43 83.4009 100.255Z" fill="black"/>
<path d="M215.012 225.035C216.894 224.482 228.406 224.783 230.11 225.719C232.498 227.032 235.18 235.717 232.62 237.187C231.558 237.798 224.969 238.494 223.407 238.5C221.66 238.507 215.557 237.846 214.188 237.183C210.053 235.181 211.787 225.983 215.012 225.035ZM227.645 232.944C226.987 231.415 224.375 231.886 222.961 232.012C221.036 232.185 217.913 232.867 216.661 234.448C220.132 235.729 223.637 234.388 227.148 234.45C227.342 234.278 225.711 232.684 227.645 232.944Z" fill="black"/>
<path d="M295.588 176.811C294.976 177.36 291.887 174.836 290.599 176.312C290.157 173.356 297.17 175.391 295.588 176.811Z" fill="black"/>
<path d="M217.821 90.4044C220.357 91.9454 222.18 92.2454 225.147 92.3556C222.627 94.5856 217.902 93.8095 217.173 90.3274C217.437 88.3741 217.654 90.3024 217.821 90.4044Z" fill="black"/>
<path d="M125.732 64.5425C124.058 69.9166 127.228 71.6746 132.229 71.0606C130.42 73.8277 124.376 72.4765 123.748 69.2897C123.483 67.9399 123.758 64.527 125.732 64.5425Z" fill="black"/>
<path d="M335.556 58.5303C331.269 63.2459 323.128 57.2482 329.057 52.5107C327.567 57.5473 330.715 60.0756 335.556 58.5303Z" fill="black"/>
<path d="M214.654 201.876C214.768 204.661 208.8 203.311 210.168 201.374C210.303 201.182 213.494 203.289 214.654 201.876Z" fill="black"/>
<path d="M29.8161 109.154C26.9005 113.939 20.1044 109.069 23.8164 105.139C23.7124 108.971 26.413 110.312 29.8161 109.154Z" fill="black"/>
<path d="M95.7553 65.0412C94.533 69.506 86.1948 65.009 89.7599 62.0342C90.0047 65.1114 93.0014 66.4811 95.7553 65.0412Z" fill="black"/>
</svg>
