<svg width="1280" height="720" viewBox="0 0 1280 720" fill="none" xmlns="http://www.w3.org/2000/svg">
<path d="M773.121 276.984C771.604 277.607 770.983 280.968 770.522 282.468C758.385 321.945 732.102 343.739 698.989 367.013L688.712 373.406C695.071 374.227 700.545 370.956 706.077 369.745C720.055 366.686 739.719 366.235 754.61 364.961C795.918 361.427 837.321 359.14 878.627 355.638C890.839 354.603 915.351 349.08 926.191 353.777C927.841 354.493 931.72 357.892 933.01 359.336C933.567 359.96 933.543 361.21 934.15 362.002C935.001 363.111 936.745 363.095 937.452 364.71C939.071 368.404 935.884 378.142 939.081 379.21C947.619 378.359 956.199 376.778 964.778 375.952C977.083 374.768 988.569 374.334 1000.97 372.583C1002.42 372.378 1003.79 372.902 1004.82 371.284L998.196 367.658L976.547 364.803C975.527 353.782 973.439 342.642 972.921 331.576C971.007 290.681 971.493 249.734 968.566 208.894C968.329 205.59 970.829 203.708 967.236 200.971C963.523 198.143 953.117 194.221 948.254 191.705C934.052 184.356 919.731 176.592 905.238 169.662C900.989 167.63 888.869 161.374 885.302 160.477C884.365 160.242 883.473 160.154 882.519 160.253L890.684 337.035C888.048 337.445 886.351 325.967 886.062 323.828C884.478 312.093 885.131 299.32 884.228 287.566C881.85 256.601 878.729 225.556 877.354 194.505C876.849 183.091 877.759 171.642 876.489 160.253C872.901 159.847 870.319 160.435 867.025 161.541C847.84 167.986 827.846 179.356 809.038 187.492C800.222 191.306 790.971 194.513 782.112 198.268C781.342 199.327 781.63 215.367 781.699 218.233C782.005 230.875 785.358 247.694 784.325 259.65C784.24 260.635 783.883 264.157 782.177 263.444C777.851 259.798 776.992 253.91 776.577 248.638C775.661 236.985 776.574 223.997 775.696 212.286C775.187 205.502 773.088 198.895 772.261 192.167L763.667 189.444C764.691 186.156 767.667 185.941 769.621 184.309C770.945 183.203 771.272 181.144 773.357 180.329C775.124 179.639 782.54 181.048 785.351 179.457L832.417 157.596C832.208 152.034 832.167 145.901 831.685 140.388C831.318 136.183 829.777 121.574 827.812 118.815C826.315 116.713 819.417 118.458 819.693 110.851C819.948 103.852 827.846 105.706 828.287 103.875C830.543 94.5088 822.877 80.2634 828.683 71.447C828.968 73.6874 830.322 75.7266 830.755 77.8622C831.638 82.2149 832.283 99.7424 833.795 101.944C834.594 103.107 840.844 103.009 842.437 102.714C848.113 101.664 844.654 91.0701 844.578 87.1259C844.422 79.0258 844.361 70.8697 846.347 62.9863C848.079 63.3132 847.752 64.7754 848.055 65.9494C849.679 72.2469 850.75 99.1465 849.725 105.644C848.783 111.614 845.972 108.431 842.58 108.698C841.676 108.769 836.296 110.184 836.114 110.46C835.286 111.712 836.886 118.074 837.867 118.665C840.404 120.192 857.653 117.744 861.837 119.659C863.392 118.281 861.318 84.4671 861.857 78.6477C862.102 75.9913 862.499 71.6703 865.277 70.5979L867.879 115.427C873.07 112.902 874.872 115.119 875.572 120.133C875.994 123.155 875.723 135.781 876.867 137.463C877.843 138.898 885.916 136.834 888.539 138.26C886.771 126.155 888.437 113.842 886.619 101.669C886.17 98.6651 884.17 95.6642 884.174 92.1664C884.178 88.5108 886.479 77.5967 887.201 73.0891C887.323 72.3288 888.664 66.0757 890.262 68.0575L893.394 93.9913C890.65 103.672 892.417 113.662 892.886 123.428C893.059 127.035 891.987 138.38 893.63 140.459C911.63 149.39 929.204 159.177 947.077 168.331C953.277 171.507 976.131 180.298 978.605 185.635C978.982 186.448 977.707 187.078 977.708 187.701C977.713 191.805 976.735 193.721 976.606 196.354C976.526 197.959 978.323 199.255 978.143 201.232C977.999 202.812 975.966 204.132 975.585 206.398C974.544 212.588 976.331 219.839 976.438 225.775C976.833 247.865 977.732 269.796 978.951 291.821C979.126 294.996 980.436 298.148 979.856 301.513C983.321 299.904 989.016 302.409 992.493 303.899C996.905 305.789 1019.03 320.306 1020.64 320.037C1027.05 315.241 1032.05 309.263 1037.54 303.606C1040.9 300.135 1045.6 296.902 1048.25 292.984C1049.17 291.623 1049.62 288.531 1050.41 287.658C1051.31 286.663 1052.82 287.313 1053.06 287.13C1056.02 284.856 1050.37 286.087 1050.2 286.035C1048.06 285.384 1046.73 284.199 1043.92 283.848C1038.94 283.224 1033.88 284.218 1028.93 284.11C1025.91 288.893 1025.48 310.677 1015.55 304.941C1013.86 303.967 1006.41 295.405 1005.62 293.545C1004.89 291.818 1004.16 287.809 1003.98 285.852C1002.54 269.898 1004.17 251.485 1003.14 235.085C1002.92 231.663 1001.02 228.278 1001.4 225.046C1002.13 218.875 1005.34 220.307 1008.98 218.895C1014.95 216.586 1019.21 214.751 1019.48 207.63C1020.69 208.506 1022.72 211.523 1023.26 212.785C1027.35 222.309 1023.73 234.272 1027.71 244.029L1043.68 242.658C1045.08 240.734 1044.5 223.71 1044.49 219.856C1044.48 218.175 1043.63 216.615 1043.77 214.969C1043.95 212.73 1046.38 212.911 1046.83 210.429C1047.33 207.682 1047.32 192.568 1048.77 191.557C1051.79 189.445 1050.36 195.777 1050.4 196.192C1051.84 210.168 1054.81 223.861 1056 237.968C1056.09 239.07 1055.35 242.002 1055.65 242.3C1055.83 242.482 1060.39 243 1060.82 242.784C1062.07 242.162 1062.32 240.131 1063.08 238.988C1063.75 237.985 1066.77 237.874 1064.69 234.689C1063.8 233.333 1060.79 233.823 1061.8 230.208C1063.05 225.777 1072.62 229.441 1074.22 227.136C1074.95 226.095 1074.84 207.229 1078.89 210.165C1080.7 211.473 1082.01 223.634 1082.73 226.282C1083.55 229.271 1085.72 231.805 1086.45 234.47C1087.8 239.389 1087 255.205 1090.62 257.443C1092.73 258.748 1100.02 259.07 1101.37 256.967C1103.86 253.098 1100.23 244.192 1103.43 240.588C1107.46 236.045 1116.14 240.922 1118.6 237.534C1121.32 233.784 1116.77 223.609 1121.54 220.329C1122.65 221.152 1123.01 222.401 1123.32 223.645C1127.36 239.968 1125.33 257.513 1126.24 274.059C1126.6 280.446 1130.84 295.403 1126.72 299.836C1123.87 302.914 1111.7 303.289 1107.93 302.189C1107.56 302.08 1101.78 298.192 1101.51 297.922C1100.92 297.348 1100.94 296.123 1100.44 295.36C1100.05 294.77 1098.78 294.792 1098.68 294.203C1098.26 291.874 1101.87 287.886 1100.44 284.595C1097.26 282.949 1093.49 287.509 1093.5 290.071C1093.5 290.54 1094.99 290.424 1095.53 291.556C1098.76 298.353 1101.37 317.575 1102.15 325.631C1104.04 345.055 1105.33 365.404 1106.46 384.839C1107.61 404.637 1107.28 424.576 1107.33 444.466C1104.79 444.464 1100.66 445.218 1099.75 442.177C1100.11 437.945 1098.88 433.679 1098.68 429.695C1098.3 422.267 1099.97 410.845 1096.17 404.245C1092.76 398.319 1068.8 387.265 1062.12 382.702C1059.1 382.56 1062.44 385.194 1062.62 387.357C1062.8 389.407 1061.44 391.999 1061.71 393.224C1061.95 394.283 1065.9 394.313 1067.68 394.989C1070.52 396.064 1072.79 398.365 1074.65 399.153C1076.7 400.017 1081.43 399.719 1082.25 401.859C1083.55 405.271 1080.18 404.84 1079.88 406.019C1079.68 406.805 1082.17 419.394 1082.34 422.056C1082.74 428.208 1082.16 434.576 1082.32 440.611C1082.4 443.328 1083.69 445.874 1083.27 449.159C1083.11 450.399 1078.42 454.365 1079.79 457.12L1111.61 459.665L1123.27 428.392C1124.98 421.947 1134.72 419.389 1138.24 425.528C1141.87 431.866 1134.24 450.356 1132.36 457.623C1131.89 459.447 1131.13 461.569 1131.43 463.449C1132.12 467.689 1143.67 474.613 1143.53 482.06C1143.46 485.757 1139.35 499.289 1138.09 503.847C1134.73 515.936 1129.22 527.875 1127.95 540.369C1128.44 542.052 1144.33 540.669 1147.37 540.903C1152.06 541.264 1160.66 542.892 1164.77 544.965C1181.96 553.637 1152.72 556.816 1146.96 559.071C1149.03 562.311 1152.15 560.766 1155.13 561.196C1160.95 562.037 1169.59 562.632 1174.3 566.012C1177.13 568.038 1173.83 568.599 1171.51 568.807C1162.43 569.617 1152.48 569.702 1143.1 570.435C1137.02 570.91 1128.13 570.366 1122.44 571.381C1117.69 572.229 1109.22 582.379 1104.21 584.767C1087.5 592.716 1045.37 585.14 1025.97 583.993C1014.16 583.295 1001.64 584.585 989.752 584.028C987.644 584.221 986.669 580.726 988.111 579.709C989.62 578.644 1000.9 576.881 1003.64 576.521C1006.34 576.165 1019.97 575.899 1020.81 574.771C1021.43 573.944 1021.18 573.094 1021.19 572.19C1007.84 571.57 994.545 571.266 981.098 571.3C978.633 571.306 976.341 572.342 974.258 572.249C973.523 572.216 968.173 570.577 967.96 570.329C965.512 567.483 969.315 564.514 969.321 564.167C969.33 563.591 966.918 562.046 967.904 559.22C968.979 556.139 982.983 553.279 986.397 552.818C988.877 552.484 1003.04 551.406 1003.93 552.784C1005.39 555.061 1001.98 555.49 1001.38 556.952C1004.99 556.816 1008.11 559.039 1010.85 555.688C1011.11 555.062 1009.22 555.245 1008.7 554.458C1007.5 552.653 1008.5 534.387 1008.31 530.281C1006.23 485.476 1003 442.352 1003.93 397.483C1004 394.339 1006.38 382.248 1004.01 380.531C982.572 382.255 960.958 386.148 939.364 387.79V433.466C956.29 430.791 973.379 430.3 990.502 429.494C991.89 429.6 996.577 432.963 997.07 433.897C997.968 435.599 995.552 435.043 994.953 435.175C977.508 439.031 957.967 436.631 940.232 439.395C941.243 454.455 941.017 469.832 943.656 484.654C944.063 497.963 944.31 511.088 944.491 524.428C944.535 527.671 946.791 530.504 943.229 533.274L941.091 531.157C940.744 522.455 940.313 513.666 939.276 505.026C938.769 500.8 938.01 496.685 937.537 492.356C937.408 491.178 937.076 487.205 935.928 486.76C933.576 501.932 938.325 517.117 936.784 532.435C924.222 533.943 929.544 530.252 926.516 526.016C925.853 525.089 920.931 522.993 919.998 523.126C917.732 523.448 921.077 531.133 919.037 532.534C917.289 533.733 908.784 532.821 906.218 533.292C903.856 533.726 903.189 536.232 899.33 536.677C891.447 537.586 893.219 533.365 892.41 533.258C890.721 533.035 889.014 534.582 887.177 534.896C881.422 535.882 876.003 535.081 870.46 536.669L878.851 538.988C883.293 536.472 894.322 543.545 886.406 544.334C879.581 545.015 865.262 540.518 857.139 540.009C820.182 537.692 778.332 540.157 740.784 540.078C724.174 540.043 704.104 537.934 687.563 540.119C680.163 541.096 636.423 563.931 630.206 569.295C629.224 570.143 628.077 570.589 628.417 572.181C632.554 572.334 636.752 571.978 640.893 572.194C672.978 573.868 705.252 574.113 737.339 574.758C757.786 575.169 788.655 572.976 807.425 578.718C808.892 579.166 809.685 578.375 809.294 580.64C805.893 581.282 802.603 579.863 799.428 579.763C743.584 578.003 687.241 578.947 631.45 575.536C627.581 575.299 627.114 574.934 627.547 578.948C637.087 579.824 646.869 579.197 656.398 579.806C702.968 582.786 749.174 586.208 795.912 588.292C804.979 588.696 809.116 587.021 818.168 590.119C822.72 591.678 821.436 594.094 827.119 590.141C827.847 589.635 828.732 590.296 828.249 588.261C824.103 588.124 819.66 587.507 816.157 585.252C816.173 584.17 820.777 576.701 821.752 575.533C826.05 570.385 838.411 565.698 844.519 562.366C851.844 558.37 858.812 551.647 867.444 551.215C871.538 551.009 880.863 552.299 884.447 551.744C887.731 551.234 896.026 544.799 900.896 543.292C918.512 537.842 938.499 541.457 953.268 552.188C960.415 557.38 967.598 567.156 960.628 575.309C946.067 592.342 896.259 596.496 878.263 584.396C875.226 582.354 873.745 577.897 869.244 578.978C857.493 584.173 845.209 588.041 834.017 594.345C830.69 596.22 824.219 602.021 820.954 602.211C805.195 600.867 789.304 598.792 773.543 597.57C741.976 595.122 709.754 592.986 677.976 591.605C650.299 590.403 624.304 591.486 596.866 587.519C591.68 586.769 583.616 588.29 579.859 587.299C577.167 586.589 580.111 583.513 582.014 582.889C593.399 579.159 603.867 580.805 615.067 579.804C624.719 578.941 613.355 576.133 613.036 572.458C612.784 569.554 630.354 559.875 633.566 558.214C638.769 555.524 644.412 553.727 649.656 551.177C661.467 545.433 676.972 535.49 690 535.141C695.673 534.989 701.185 535.172 707.191 534.933C729.412 534.052 751.857 534.838 773.976 533.266L764.036 531.553C752.345 533.759 740.254 531.704 728.76 531.584C723.965 531.534 715.156 534.507 711.061 530.358C708.212 527.471 709.495 520.028 705.506 520.538C702.003 520.986 705.174 526.759 703.294 529.005C701.664 527.784 697.414 529.761 696.516 528.992C696.069 528.609 696.455 523.932 693.027 523.967C693.761 527.79 687.827 529.469 684.872 529.069C682.432 528.739 681.766 525.495 678.342 526.006C673.743 526.693 675.434 530.242 673.166 531.971C671.468 533.266 668.053 533.29 665.942 533.327C664.587 533.083 665.181 524.468 663.785 523.493C661.549 521.932 644.663 524.238 640.889 521.439C640.632 518.651 643.051 520.789 644.359 520.653C645.528 520.531 646.719 519.743 646.932 519.743H663.298C665.446 519.743 664.612 511.248 663.717 509.587L648.633 511.137L643.921 509.166C647.896 507.166 653.617 506.43 658.135 506.129C660.217 505.99 662.999 507.741 663.608 505.669L661.024 437.391C660.345 435.356 655.713 435.875 653.783 435.972C646.915 436.317 639.679 438.511 632.722 438.547C634.543 450.595 633.215 463.138 633.545 475.371C633.935 489.828 635.145 504.316 636.961 518.538C637.364 521.693 637.172 533.19 639.617 534.585C639.785 534.681 643.049 534.968 643.486 534.968H662.867C660.594 542.382 646.399 541.437 640.055 540.875C624.713 539.517 630.113 530.791 629.265 519.329C627.611 496.965 626.63 474.735 626.568 452.443C626.544 443.529 622.281 435.102 633.726 431.494C642.362 428.773 655.114 428.414 664.15 427.537C672.66 426.711 692.645 421.097 692.157 434.316L696.459 433.474C696.452 434.721 694.528 434.681 694.103 435.373C691.089 440.278 690.282 444.556 690.399 450.753L691.281 457.99C692.154 456.002 692.572 450.265 695.594 450.388C696.118 451.037 692.35 464.881 696.451 466.454C698.044 453.519 697.373 440.187 698.191 427.131C698.694 419.11 699.99 411.114 700.677 403.351C701.399 395.182 701.673 386.976 702.999 378.874C702.714 375.495 695.196 378.627 694.741 379.759C694.5 380.358 696.667 380.118 697.182 381.567C700.04 389.608 695.368 389.062 688.313 389.518C677.233 390.233 660.995 389.099 650.351 386.124C611.811 375.355 642.807 337.527 657.719 319.658L646.932 280.367C644.21 272.571 635.508 267.674 638.553 258.6C640.837 251.796 649.657 250.048 655.717 253.131C657.315 253.945 663.717 259.986 664.48 261.444C666.136 264.609 664.626 269.076 666.287 270.666C667.993 272.298 676.69 274.668 679.227 275.894C681.398 276.942 692.499 283.672 693.303 283.609C693.94 283.558 700.929 278.282 701.221 277.852C701.953 276.774 701.725 276.442 700.763 275.719L669.555 266.61C668.55 266.489 665.414 263.391 666.317 262.609C677.508 262.121 687.576 266.942 697.989 269.985C700.493 270.717 704.735 272.274 707.16 271.901C709.828 271.49 720.857 262.323 724.618 260.228C743.977 249.447 765.698 245.849 776.611 268.905C778.606 271.089 780.127 287.956 781.304 287.963C783.523 287.976 781.356 276.034 786.031 275.295C790.768 290.977 793.368 313.37 785.356 328.331C783.969 330.921 777.622 337.222 777.406 339.181C776.91 343.69 781.347 343.288 782.032 344.823C782.215 345.233 784.219 353.061 784.233 353.508C784.295 355.435 782.663 358.881 780.398 359.075C775.191 359.521 774.259 350.215 773.13 346.763C772.779 345.69 773.857 345.421 771.843 345.482C762.561 345.759 758.251 358.586 749.942 359.811L747.695 354.786C745.806 354.826 741.957 359.079 739.753 359.672C736.29 360.603 729.45 358.251 731.344 354.807C732.954 351.88 742.113 344.62 745.139 341.281C755.904 329.397 773.121 305.495 773.121 289.249V276.984ZM870.434 117.968C870.188 117.773 868.582 118.075 867.874 117.96L868.738 142.491L873.105 141.141C872.19 137.986 871.76 119.018 870.434 117.968ZM837.723 127.692C836.858 130.317 837.723 145.467 837.723 149.684C837.723 149.947 839.122 152.926 839.417 153.134C841.73 154.758 858.802 145.365 862.653 144.564C867.06 141.712 862.032 140.139 861.895 137.901C861.788 136.164 865.281 127.771 863.613 126.821C859.619 126.333 838.916 124.07 837.723 127.692ZM969.507 195.778C969.356 193.699 970.205 191.126 968.663 189.426C958.608 182.75 947.43 178.136 936.872 172.431C923.363 165.131 905.564 153.308 891.685 148.212C890.621 147.822 883.65 145.895 882.946 145.838C881.784 145.745 878.269 145.806 878.228 147.141C878.139 150.089 892.632 157.874 895.717 159.557C916.515 170.902 938.915 180.393 959.724 191.437C960.675 191.942 969.149 196.171 969.507 195.778ZM874.634 153.371C875.216 152.415 874.146 147.751 873.889 147.568C873.526 147.31 866.784 150.306 865.566 150.804C838.166 162.004 811.094 176.044 784.567 188.837C780.705 190.949 782.906 192.235 786.259 192.229L874.634 153.371ZM1021.19 284.6L1019.48 224.959C1017.45 220.419 1012.34 223.022 1009.07 225.057L1010.85 280.796C1011.53 284.217 1018.38 282.811 1021.19 284.6ZM1072.88 290.517C1075.16 288.639 1083.45 287.78 1084.98 286.752C1085.59 286.338 1085.76 285.717 1085.8 285.028C1084.73 267.971 1084.58 250.654 1081.94 233.829C1080.56 232.049 1069.71 232.981 1069.38 235.98L1072.88 290.517ZM1118.53 294.751C1119.45 283.824 1117.35 273.04 1116.77 262.217C1116.6 259.136 1118.27 244.741 1115.57 244.238C1115.27 244.184 1110.22 244.855 1109.67 245.023C1106.18 246.09 1108.21 248.779 1108.23 251.148C1108.31 262.99 1106.84 277.841 1108.18 289.263C1108.88 295.26 1113.48 294.492 1118.53 294.751ZM1035.93 248.307C1033.72 251.528 1039.65 253.884 1042.32 252.504C1045.64 246.936 1037.28 246.326 1035.93 248.307ZM1054.78 248.221C1055 250.053 1054.08 254.398 1055.61 255.486C1062.75 255.834 1064.35 254.484 1063.39 247.38C1060.71 248.759 1057.69 248.143 1054.78 248.221ZM654.018 259.452C646.572 251.968 640.426 266.551 648.241 269.771C655.963 272.953 659.008 264.468 654.018 259.452ZM642.462 373.151C648.368 379.432 669.343 376.164 676.631 372.971C700.914 362.327 735.831 333.527 750.228 311.598C758.212 299.438 779.017 260.633 752.011 258.389C739.592 257.357 724.983 265.991 715.414 273.182C720.773 275.432 727.418 275.626 732.641 278.249C733.98 278.921 735.547 279.303 735.217 281.209C732.376 281.367 730.023 282.171 727.075 282.07C722.308 281.908 713.435 278.308 709.821 278.675C708.342 278.824 701.26 284.631 700.895 286.042C699.844 290.104 708.579 292.365 711.533 294.748C717.729 299.746 713.268 300.349 707.833 298.38C703.978 296.983 698.617 292.452 694.351 293.033C692.814 293.243 686.181 299.544 686.139 301.069C686.051 304.262 705.414 322.161 707.707 328.954C708.23 330.502 708.713 331.988 708.515 333.652L703.721 332.869L681.707 306.706C680.92 306.259 679.985 306.617 679.239 307.012C677.879 307.731 665.594 321.949 665.425 323.125C664.616 328.761 675.224 343.725 671.398 349.225C668.094 353.974 664.005 344.665 663.061 342.347C661.408 338.287 661.2 332.515 657.708 329.428C657.116 333.315 653.481 336.264 651.306 339.643C645.958 347.951 640.568 357.92 640.533 368.029C640.527 369.505 641.482 372.109 642.462 373.151ZM1044.45 259.217L1028.08 258.372L1028.9 278.29C1030.44 279.295 1043.9 277.804 1044.89 276.148C1046.91 272.78 1043.31 263.475 1044.45 259.217ZM1061.67 267.68C1062.47 266.911 1061.3 262.367 1059.52 261.776C1057.06 263.636 1059.52 269.757 1061.67 267.68ZM1091.83 276.138C1095.45 274.651 1095.16 271.297 1096.32 268.287C1096.74 267.187 1098.07 266.49 1098.3 265.985C1099.38 263.597 1092.67 263.812 1091.33 265.985C1090.81 266.836 1092.61 274.158 1091.83 276.138ZM690.43 286.297C681.988 286.613 666.278 273.139 658.993 273.521C651.242 273.927 661.379 277.928 662.906 279.061C667.093 282.167 673.756 288.734 677.534 292.608C678.691 293.795 679.373 295.267 680.534 296.438L690.43 286.297ZM668.568 309.659C671.227 307.125 674.631 303.85 676.262 300.684C675.527 298.654 660.342 283.735 657.71 281.625C656.958 281.022 653.194 277.98 652.535 278.68L662.014 314.203C663.55 315.475 667.226 310.938 668.568 309.659ZM781.73 293.905C779.49 293.499 780.213 294.314 779.616 295.589C778.614 297.733 778.071 299.98 778.298 302.36C780.961 300.814 781.71 296.729 781.73 293.905ZM1078.89 304.894C1079.23 304.582 1081.52 297.287 1081.7 296.204C1081.88 295.167 1082.86 295.135 1081.06 293.922C1076.04 297.638 1074.46 297.867 1077.19 303.617C1077.48 304.219 1077.22 306.43 1078.89 304.894ZM1062.38 298.275C1060.2 297.006 1056.29 300.023 1057.49 303.488C1058.68 306.89 1068.4 306.528 1066.85 314.613C1065.39 322.203 1059.81 310.039 1059.1 309.536C1057.22 308.21 1056.55 317.515 1056.47 318.813C1056.04 325.799 1057.31 332.634 1057.37 339.573C1059.83 340.028 1058.76 338.936 1059.33 337.728C1062.93 329.959 1071.49 318.08 1072.03 310.37C1072.57 302.625 1069.09 303.775 1063.91 300.554C1062.91 299.93 1062.67 298.445 1062.38 298.275ZM1092.68 320.968C1091.8 313.463 1092.52 304.348 1087.95 298.134L1080.69 312.021C1084.38 315.406 1088.2 318.587 1092.68 320.968ZM1048.75 302.364C1046.49 300.056 1040.07 311.847 1038.99 313.068C1037.68 314.539 1028.1 322.016 1028.1 323.083C1028.1 324.053 1030.62 325.59 1032.37 324.803C1034.67 323.768 1039.82 317.043 1043.16 315.892C1043.95 314.535 1043.32 312.831 1043.77 311.424C1044.26 309.93 1051.06 304.723 1048.75 302.364ZM1038.96 375.598C1035.25 377.287 1030.93 377.973 1029.46 373.505C1028.34 361.902 1029.48 350.019 1027.99 338.405C1027.55 335.025 1026.35 332.885 1024.13 330.344C1019.38 327.431 984.412 305.218 982.442 306.59C981.908 308.984 980.453 312.464 982.423 314.637L1022.83 336.798C1019 346.936 1023.2 359.086 1019.3 369.432C1018.07 372.686 1013.25 368.594 1010.86 371.292L1049.29 388.563L1051.3 387.324L1048.77 365.365C1049.01 349.92 1048.6 334.362 1045.3 319.278C1044.92 318.892 1040.11 324.107 1039.25 324.741C1034.66 328.111 1029.89 326.045 1034.93 334.12L1036.64 371.201C1036.8 371.764 1045.07 372.81 1038.96 375.598ZM782.592 309.131C780.288 308.747 781.089 309.523 780.633 310.965C779.223 315.424 777.297 319.715 776.571 324.347C778.42 324.884 779.615 320.855 780.033 319.717C781.233 316.457 781.99 312.562 782.592 309.131ZM770.52 321.807C771.059 321.365 773.4 315.519 773.112 314.202C770.159 314.237 767.182 324.552 770.52 321.807ZM1080.06 319.772C1079.53 319.345 1080.21 318.102 1078.91 318.437C1076.75 323.718 1080.52 329.551 1080.53 335.016C1080.54 337.07 1076.95 349.706 1082.77 348.03C1084.04 343.79 1090.93 333.579 1090.87 329.831C1090.82 326.048 1082.91 322.061 1080.06 319.772ZM984.149 357.344C985.33 356.242 987.102 329.496 988.467 325.635C987.066 322.792 982.242 316.895 981.53 323.043C980.261 333.994 983.327 346.165 981.557 356.904C981.591 357.667 984.053 357.433 984.149 357.344ZM1072.87 344.229C1072.76 338.317 1072.87 332.382 1072.87 326.466C1072.87 326.085 1071.36 324.558 1070.75 326.068C1070.64 329.089 1063.38 338.609 1063.37 340.025C1063.36 341.339 1071.74 346.334 1072.45 346.323C1074.55 346.29 1072.88 344.336 1072.87 344.229ZM992.768 327.735C992.07 328.396 992.768 344.099 992.768 346.767C992.768 347.006 993.528 348.24 993.661 349.272C993.916 351.24 992.357 355.516 995.348 354.798C994.022 351.208 997.209 328.667 996.209 327.732C996.084 327.615 992.892 327.618 992.768 327.735ZM1005.5 333.869C1004.58 333.003 1002.66 332.773 1001.39 332.813C1001.15 336.615 1001.84 363.783 1003.11 364.957C1003.2 365.043 1005.59 365.028 1005.69 364.947C1005.9 364.769 1004.75 360.938 1004.75 359.473C1004.77 355.581 1007.08 335.346 1005.5 333.869ZM1016.02 364.947C1013.55 360.005 1017.08 339.495 1013.95 336.965C1012.96 336.169 1012.09 336.06 1010.86 336.197L1011.71 364.957L1016.02 364.947ZM1095.26 357.34C1094.71 352.863 1094.92 347.697 1094.45 343.339C1093.67 335.971 1089.44 346.985 1086.69 348.459L1095.26 357.34ZM1063.39 368.333C1063.48 364.184 1072.08 357.542 1072 354.356C1071.95 351.946 1063.81 347.809 1061.33 347.122C1057.58 350.804 1059.08 352.555 1059.01 356.158C1058.94 359.608 1058.34 362.89 1059.1 366.644L1061.67 365.794L1063.39 368.333ZM1096.13 394.557V371.719C1093.17 373.609 1092.33 377.49 1090.48 380.122C1089.12 382.044 1083.29 388.598 1084.23 382.471C1084.7 379.433 1095.57 363.594 1093.52 361.587C1093.39 361.453 1092.01 361.796 1091.29 361.297C1088.31 359.245 1086.09 354.733 1081.5 354.8C1078.53 364.752 1083.72 374.508 1081.93 384.446C1084.02 385.67 1094.54 396.171 1096.13 394.557ZM919.551 359.042C917.958 358.72 916.56 358.095 914.857 358.148C905.527 358.44 894.955 360.708 885.524 361.565C836.31 366.036 786.571 368.189 737.385 373.421C733.504 373.834 713.635 376.062 712.011 377.263C710.897 378.088 710.498 379.363 710.295 380.653C708.709 390.73 709.37 402.422 708.525 412.749C706.18 441.445 705.397 467.689 704.248 496.517C704.038 501.784 700.199 515.936 705.051 519.342C709.213 522.264 706.109 515.115 709.985 513.993C732.324 512.553 754.694 512.913 777.033 512.165C806.196 511.189 835.664 509.185 864.82 508.712C872.781 508.583 892.537 507.576 899.113 509.594C900.176 509.92 899.761 511.785 901.885 512.174C903.627 512.493 906.767 512.059 907.125 510.031C906.139 507.855 907.454 505.954 907.531 504.051C909.106 464.865 911.204 424.806 915.254 385.684C916.176 376.777 916.656 367.515 919.551 359.042ZM915.241 509.59L931.474 364.375C931.692 362.101 927.112 360.164 925.166 359.877C924.154 360.5 924.336 360.768 924.247 361.642C920.286 400.585 917.242 439.682 915.205 478.686C914.761 487.201 913.939 495.631 913.487 504.058C913.398 505.714 912.563 510.457 915.241 509.59ZM1074.59 364.111C1073.11 362.402 1072.85 365.502 1072.75 365.583C1072.43 365.82 1071.2 364.891 1070.3 365.324C1069.34 365.786 1069.02 367.316 1068.28 368.056C1066.5 369.82 1063.89 370.891 1064.55 374.737C1064.72 375.713 1073.81 380.899 1075.45 381.869C1075.28 379.616 1075.18 364.788 1074.59 364.111ZM1016.9 551.883C1022.08 548.527 1018.72 538.914 1018.57 533.734C1017.49 495.077 1014.6 456.154 1013.93 417.815C1013.73 406.64 1014.38 395.107 1014.88 383.927L1010.45 381.019C1009.24 381.873 1009.11 382.451 1009.18 383.861C1011.75 436.936 1010.62 490.637 1015.18 543.835C1015.41 546.554 1016.42 549.218 1016.9 551.883ZM1026.35 458.839C1027.24 458.005 1027.18 442.301 1027.22 439.819C1027.43 426.689 1026.27 412.563 1028.17 399.294C1028.55 396.636 1031.96 388.742 1029.84 387.336C1028.32 386.332 1021.65 386.292 1019.48 384.407C1018.3 388.2 1020.69 391.255 1021.15 394.177C1024.05 412.769 1022.43 431.948 1023.79 450.798C1023.92 452.718 1024.36 455.57 1024.66 457.565C1024.83 458.721 1024.99 460.113 1026.35 458.839ZM1040.13 427.541C1041.28 421.064 1042.22 413.495 1043.98 407.208C1044.82 404.203 1048.19 399.387 1047.93 396.671C1047.64 393.698 1035.13 389.344 1034.12 390.327C1033.64 402.201 1031.65 413.923 1032.4 425.849C1033.69 425.678 1033.82 422.205 1033.99 421.084C1034.54 417.617 1034.6 413.901 1035.19 410.416L1040.13 397.099C1040.2 400.914 1038.65 404.714 1039.21 408.577C1039.45 410.203 1041 409.713 1041.02 410.268C1041.13 413.252 1039.47 419.377 1039.25 422.858C1039.18 423.839 1038.63 427.544 1040.13 427.541ZM1059.04 402.958C1060.57 400.825 1053.03 397.706 1051.35 397.097L1040.15 470.68C1041.19 470.316 1042.29 466.773 1042.51 465.82C1046.04 450.518 1048.38 416.209 1056.98 403.867C1057.51 403.114 1058.92 403.122 1059.04 402.958ZM1068.57 403.86C1064.91 404.346 1061.99 401.497 1061 406.163C1058.79 416.602 1058.86 429.092 1058.06 439.621C1057.97 440.776 1056.5 441.982 1056.47 444.011C1056.44 447.2 1058.31 450.721 1056.51 454.608L1060.81 454.607C1058.76 450.031 1060.71 445.85 1060.85 441.537C1061.01 436.813 1060.46 431.802 1060.83 427.136C1061.35 420.559 1063.25 413.204 1063.4 406.403L1065.56 407.24L1066.03 452.443C1054.69 454.781 1069.28 459.483 1070 455.089C1070.33 453.077 1068.64 447.544 1068.53 444.921C1067.99 431.282 1069 417.502 1068.57 403.86ZM1123.69 461.379C1123.85 459.127 1124.16 456.617 1124.83 454.46C1126.65 448.608 1130.95 438.982 1131.73 433.293C1132.35 428.835 1130.48 429.21 1128.41 432.597C1123.98 439.849 1123.51 448.627 1119.56 456.08C1118.52 459.243 1120.52 461.223 1123.69 461.379ZM686.045 437.77C683.039 437.748 680.114 433.23 678.378 437.286C677.686 438.902 680.204 438.03 680.169 439.751C680.061 445.075 678.62 452.137 678.38 457.582C677.989 466.441 678.256 475.366 677.519 484.213L686.045 437.77ZM672.342 446.577C673.34 450.424 671.609 457.902 672.342 462.225L676.45 445.536L677.506 436.009C673.449 436.075 669.341 435.533 665.445 436.861C666.593 443.812 667.138 450.968 667.182 457.996C671.21 455.143 668.856 449.337 670.629 445.31C670.926 445.096 672.264 446.276 672.342 446.577ZM1066.6 463.249C1061.1 464.468 1058.31 473.954 1056.48 478.69C1048.31 499.814 1039.23 524.508 1033.01 546.145C1031.88 550.063 1028.33 561.78 1028.97 564.972C1030.37 572.084 1052.36 574.431 1058.63 574.758C1067.34 575.215 1085.08 575.333 1092.28 571.36C1098.59 567.879 1099.75 563.877 1102.2 557.42C1110.57 535.379 1118.28 510.173 1125.83 487.583C1126.9 484.387 1129.82 475.733 1129.47 472.896C1129.17 470.398 1123.06 467.054 1120.62 466.509C1112.57 464.712 1094.94 463.497 1086.22 463.079C1081.57 462.857 1070.62 462.357 1066.6 463.249ZM696.455 472.38C694.202 472.188 695.027 472.267 694.765 473.65C694.058 477.386 693.049 504.541 694.01 506.074C694.173 506.335 696.242 507.039 696.882 507.063L696.455 472.38ZM685.253 512.972L686.976 477.455L685.367 484.743C684.937 493.214 684.046 501.516 684.401 510.024C684.444 511.054 683.751 513.17 685.253 512.972ZM1138.33 481.684C1136.47 481.709 1134.07 481.065 1133.33 483.109L1107.34 564.573C1108.95 563.782 1110.16 561.523 1110.81 559.953C1120.43 536.778 1124.97 509.474 1135.41 486.842C1135.9 485.794 1139.11 482.342 1138.33 481.684ZM1033.25 507.905C1030.77 507.453 1031.85 508.553 1031.32 509.769C1027.95 517.419 1023.42 525.522 1026.37 534.12C1028.05 533.824 1027.78 532.335 1028.12 531.198C1030.34 523.855 1032.34 515.495 1033.25 507.905ZM904.043 512.981C900.282 512.929 896.79 512.717 893.122 513.707C891.652 514.104 890.723 513.093 891.132 515.509C894.413 515.302 899.307 515.647 902.405 514.999C903.997 514.666 904.334 514.842 904.043 512.981ZM786.043 534.117L830.26 534.829C833.871 532.702 831.943 529.648 831.857 526.932C831.789 524.831 834.213 522.135 830.398 521.438C824.09 520.285 814.666 522.313 807.965 521.394L782.6 523.131C782.996 525.996 785.979 526.696 786.581 529.873C786.883 531.464 785.877 533.978 786.043 534.117ZM843.753 535.814V523.549C843.753 522.316 839.256 521.456 838.101 523.077C837.553 523.847 837.419 533.056 837.671 534.479C837.795 535.18 842.604 535.615 843.753 535.814ZM852.376 529.054C852.645 529.252 858.215 527.725 858.906 527.433C865.603 524.601 853.49 522.298 850.644 523.135C851.444 524.109 852.126 528.869 852.376 529.054ZM1162.46 550.202C1157.53 550.344 1153.91 547.308 1149.09 546.822C1144.32 546.342 1133.04 546.204 1128.39 546.753C1125.79 547.06 1121.1 554.675 1125.11 555.99C1130.05 557.612 1138.37 553.445 1143.15 552.804C1148.07 552.144 1154.34 552.516 1159.47 551.917C1160.76 551.766 1162.13 551.752 1162.46 550.202ZM909.524 553.045C910.6 552.169 912.107 552.059 913.106 551.044C913.156 548.144 911.07 550.46 909.42 550.818C899.404 552.988 890.889 556.181 883.646 563.987C881.911 565.858 881.544 569.738 878.224 570.916C883.817 575.203 890.606 576.036 897.152 578.102C895.292 568.222 902.154 559.049 909.524 553.045ZM921.94 549.571C917.319 550.638 908.226 559.107 905.421 562.961C903.258 565.935 899.198 571.747 902.849 574.634C918.797 580.562 936.147 570.402 951.924 567.172C955.773 562.104 938.756 552.983 934.89 551.626C931.993 550.609 924.739 548.924 921.94 549.571ZM831.698 578.102L870.438 558.229C868.971 556.206 868.964 557.528 867.614 557.967C860.618 560.242 840.86 569.894 834.852 574.018C834.115 574.524 830.657 577.129 831.698 578.102ZM871.983 570.297C872.604 569.577 873.714 563.541 873.475 562.041C871.16 562.78 870.798 565.105 869.189 566.284C866.843 568.003 864.301 568.764 861.736 570.832C861.321 571.167 858.621 571.756 860.125 573.029C860.586 573.419 871.518 570.835 871.983 570.297ZM984.15 563.732C982.171 565.394 972.1 562.558 972.113 564.996C972.126 567.478 987.411 566.539 984.15 563.732ZM919.983 579.798C914.386 580.351 908.015 579.394 902.325 579.798C902.074 581.427 902.994 582.063 904.483 582.33C909.543 583.237 925.499 580.931 930.389 579.021C931.386 578.632 933.515 577.654 932.034 576.407C928.503 577.714 923.663 579.435 919.983 579.798Z" fill="black"/>
<path d="M292.051 539.197C285.682 539.9 273.592 545.255 272.851 552.506C272.125 559.614 276.099 557.392 279.828 555.107C281.537 554.06 287.358 548.725 287.869 548.631C288.281 548.556 295.627 550.766 295.869 551.102C296.634 552.165 294.751 555.46 295.07 556.956L305.398 552.733L305.404 556.121C308.483 556.059 313.288 554.419 312.3 558.65C309.768 557.064 301.012 566.126 301.965 567.11C306.791 566.669 308.001 561.459 313.402 562.859C313.769 562.955 317.691 567.001 319.168 567.534L314.016 573.023C317.888 571.884 328.817 566.793 326.055 574.282L300.648 589.937C299.374 590.167 299.121 589.936 299.358 588.67C300.12 584.617 309.257 579.43 311.432 575.578C301.497 575.3 292.926 583.345 283.01 582.332C282.715 582.052 284.677 575.205 284.956 574.523C285.427 573.374 289.818 569.529 286.86 568.809C284.763 568.3 278.613 572.389 277.474 573.943C274.607 577.854 278.696 589.347 273.086 588.882C272.758 588.855 268.365 585.424 267.971 584.836C266.33 582.389 264.45 569.606 259.781 574.301C256.276 577.827 260.233 585.438 256.596 586.477C251.437 587.952 249.096 580.155 247.469 579.492C244.3 578.199 240.166 581.057 236.985 580.648C233.283 580.171 225.748 572.735 220.993 574.296C222.962 576.183 225.659 580.674 224.038 583.225C223.498 584.073 217.058 583.312 216.778 583.085C216.502 582.862 216.534 580.922 216.024 580.051C213.817 576.286 211.038 571.119 208.792 567.668C205.324 562.34 200.362 556.974 196.106 552.192C197.087 550.877 197.245 546.589 199.845 547.695C200.432 547.945 206.713 555.438 208.476 556.983C209.889 558.221 213.215 561.227 214.52 562.044C217.694 564.03 221.147 563.125 224.009 565.414C225.515 564.352 223.645 563.627 222.988 563.032C219.568 559.939 214.19 558.267 214.959 552.735C222.983 552.866 230.582 557.243 236.057 562.883C237.941 562.658 240.887 567.694 242.523 566.256C243.41 565.476 229.913 550.603 227.82 549.83C227.155 549.226 226.638 547.359 227.023 546.821C229.207 543.768 243.338 551.352 244.66 551.041C245.891 550.75 245.859 549.589 245.584 548.477C244.937 545.857 242.487 542.572 241.672 540.452C241.061 538.86 242.546 539.001 243.629 539.378C245.097 539.891 250.703 544.279 251.993 545.546C255.38 548.871 257.814 554.551 260.626 557.368C261.448 558.191 261.757 558.969 263.191 558.648C263.1 556.538 263.294 554.427 264.25 552.497C264.553 551.884 268.307 546.635 268.85 546.019C271.7 542.793 279.902 539.716 276.703 536.067C270.236 528.687 257.627 534.23 249.26 535.216C229.609 537.531 209.156 538.368 189.65 540.988C183.346 541.835 176.218 543.788 169.937 545.14C169.63 546.008 167.68 546.914 167.588 547.433C165.55 558.889 179.348 562.303 188.252 563.724C188.835 563.166 182.298 556.445 187.844 556.055C191.727 555.781 204.991 569.365 208.053 572.609C206.011 573.96 204.12 576.348 201.614 576.504C194.7 574.906 187.665 572.825 180.682 571.589C169.209 569.559 149.981 566.562 138.706 567.933C135.348 568.342 131.812 571.111 129.174 571.335C128.213 571.417 121.607 571.436 120.686 571.386C120.152 571.356 120.263 569.951 120.077 569.818C119.376 569.318 113.09 573.698 110.232 573.827C107.425 573.953 104.761 571.522 104.258 571.537C103.44 571.561 102.108 573.878 101.69 573.862C101.398 573.85 99.7314 569.701 97.8169 571.346C97.5118 571.608 99.2291 576.919 96.9418 578.951C93.9675 577.633 89.5954 574.108 86.3843 574.738C83.3522 575.333 85.0559 579.534 84.517 580.627C82.07 585.591 73.8788 577.187 68.965 577.185C52.37 577.18 36.0376 581.029 19.8469 582.323C16.4948 582.59 3.66862 581.93 11.6503 579.348C17.4492 577.471 28.2479 575.897 34.615 574.832C38.9464 574.107 43.9085 574.358 48.3239 573.058C49.5719 572.691 49.8241 573.534 49.5794 571.349L6.51755 557.372C6.15731 555.454 7.36809 556.211 8.64726 556.117C21.6432 555.168 32.9758 559.444 45.0849 562.641C48.229 563.472 51.4645 564.458 54.7461 564.564C52.8888 561.902 48.5143 562.45 45.5244 561.364C44.5685 561.017 37.8176 557.292 37.5258 556.944C36.5802 555.817 41.7156 552.509 42.5713 552.315C43.171 552.179 49.0027 552.633 49.936 552.808C54.3686 553.637 63.7211 558.235 67.9422 560.496C71.6149 562.463 74.6378 567.293 78.8613 565.408L64.2165 549.775C62.3155 548.592 60.7542 546.923 58.9764 545.617C53.382 541.505 38.4706 535.505 35.1708 532.204C34.667 531.7 33.763 529.478 34.0724 529.054C35.059 528.985 35.9204 528.444 36.9361 528.478C38.2764 528.522 51.9797 532.745 54.0596 533.528C65.2716 537.75 79.1394 546.421 88.7443 553.602C92.0396 556.066 94.1571 560.03 98.6672 561.189C95.3074 550.153 86.353 540.479 77.0826 533.757C74.5833 531.945 63.9527 526.429 62.8984 524.841C61.8644 523.283 64.0924 521.485 65.4964 521.449C66.3253 521.428 74.1533 525.816 75.6756 526.681C89.7472 534.668 101.396 547.132 110.239 560.407L114.176 561.185C114.171 558.679 111.496 558.866 109.999 556.41C106.551 550.752 104.545 542.759 100.248 536.385C96.5152 530.85 89.9225 525.493 87.3272 519.451C86.8946 518.444 86.6266 517.261 87.9032 517.226C90.7063 517.149 106.022 536.337 108.151 539.62C111.177 544.288 115.782 556.313 119.308 559.736C119.843 560.256 124.196 562.359 124.512 562.031C124.691 559.368 122.596 558.24 121.987 555.638C118.126 539.159 119.498 515.694 116.713 498.226C116.283 495.53 112.242 491.876 116.781 489.673C118.742 488.722 124.053 490.699 126.222 487.178L105.15 486.768C100.152 487.195 81.6971 491.963 78.5589 490.907C77.2781 490.475 76.0308 487.108 76.6595 485.913C77.431 484.447 83.7743 481.379 84.031 480.401C84.5471 478.437 81.2348 478.672 80.5185 477.744C76.7421 472.847 88.2878 467.276 91.3375 464.746C101.328 456.46 110.951 447.207 119.791 437.707C137.068 419.141 152.947 398.96 165.841 377.212C164.012 374.568 159.317 376.963 157.221 375.552C157.01 375.41 154.845 371.373 154.809 371.124C154.615 369.785 157.147 368.763 156.23 367.604C156.01 367.325 153.044 367.757 155.509 365.359L226.956 350.919C228.538 348.81 225.631 333.722 225.304 329.842C224.867 324.66 226.005 312.811 223.623 308.655C222.46 306.626 216.126 303.989 216.811 300.359C217.27 297.922 226.597 295.991 226.184 293.532C225.47 289.278 216.812 285.863 213.541 282.607C206.358 275.457 203.676 264.491 205.739 254.819C209.203 238.584 216.535 231.745 229.196 222.027C237.23 215.86 261.19 201.922 263.036 192.611C264.361 185.928 256.216 181.243 263.702 171.327C267.88 165.792 270.324 166.692 269.694 157.685C268.78 144.614 255.789 148.998 252.864 138.269C259.528 137.334 264.078 140.716 270.082 141.65C270.93 140.843 271.405 123.11 270.783 121.087C269.096 115.599 243.072 118.094 241.767 112.301C241.182 109.706 244.573 110.489 239.095 108.237C242.455 104.635 246.144 107.627 249.854 107.806L270.116 108.268C273.969 100.605 257.093 105.237 257.119 99.7659C257.138 95.6767 267.11 96.3969 267.989 95.1816C269.374 93.2653 266.451 80.2888 273.021 82.5028C275.866 83.4612 274.478 93.4264 275.647 95.1636C276.539 96.4881 284.802 97.5647 286.489 99.8011C284.904 106.8 274.483 99.4216 276.987 110.343C281.345 111.296 308.272 113.869 308.9 116.857C309.316 118.833 308.04 121.785 305.835 122.192C303.742 122.58 293.921 121.632 291.256 121.283C289.349 121.034 276.977 116.613 276.977 120.079V147.992C276.977 150.813 280.83 154.722 283.058 156.396C285.738 158.41 290.75 158.325 288.412 163.403C285.755 169.176 280.53 158.037 276.936 160.624C275.521 161.643 276.261 166.604 277.185 167.671C277.753 168.327 279.286 168.194 279.795 168.656C283.165 171.712 285.573 175.829 286 180.451C286.387 184.643 283.405 184.28 282.084 185.988C278.519 190.601 287.213 203.608 290.849 207.113C304.284 220.061 325.471 228.441 335.035 246.616C342.614 261.018 342.162 283.397 322.629 287.141C321.223 288.622 331.409 293.709 326.486 300.65C324.863 302.94 320.553 303.505 320.039 306.161C319.479 309.06 320.76 327.671 322.217 329.47C323.442 330.983 338.076 328.804 340.895 328.332C360.885 324.98 382.4 318.038 402.392 315.986C409.229 315.285 413.609 316.119 410.395 323.843C408.36 328.735 402.962 327.023 401.882 332.402C400.857 337.501 409.044 330.713 410.373 335.945C411.23 339.318 405.798 341.19 406.135 344.179C406.191 344.673 407.508 344.661 407.876 345.266C424.454 372.431 449.75 404.145 471.62 427.146C482.726 438.826 495.126 449.172 506.882 460.193C508.796 466.033 496.211 460.055 495.768 460.537C494.375 464.212 499.894 468.438 497.574 471.173C493.387 476.107 481.323 464.655 475.664 465.557C475.189 465.632 471.685 471.156 467.88 470.731C467.383 470.676 462.393 464.749 459.59 465.613C459.858 468.072 462.013 468.709 462.819 471.314C464.485 476.699 466.086 492.085 466.468 498.182C466.784 503.222 465.657 533.575 467.346 534.969C468.652 535.157 469.364 534.955 470.407 534.176C473.474 531.884 478.92 522.094 482.007 518.499C487.62 511.962 495.876 504.946 504.376 502.834C501.668 507.833 496.171 510.613 492.336 515.109C489.145 518.85 483.71 527.123 483.687 532.003C483.679 533.698 485.318 539.449 487.527 537.459C489.726 535.478 492.171 530.707 494.461 528.192C502.142 519.752 511.118 511.841 522.46 508.751C522.691 508.971 519.856 514.19 519.641 514.425C518.954 515.176 517.078 515.302 515.996 516.347C510.018 522.117 502.445 527.774 501.797 536.656C502.947 537.926 513.522 526.366 514.967 525.49C518.864 523.128 523.151 522.836 527.631 523.131C529.627 525.042 516.298 537.991 516.436 541.727C523.832 540.116 529.941 535.128 537.956 536.673C537.994 538.411 538.98 544.819 537.863 545.865C536.814 546.847 532.911 544.895 532.802 551.877C536.168 552.274 549.134 547.908 550.881 551.475C551.533 552.805 546.793 553.943 545.896 554.174C540.966 555.442 537.049 556.073 532.419 557.008C531.378 557.218 516.054 566.723 514.485 567.93C511.989 569.848 512.058 573.235 507.052 573.46C502.303 573.674 501.258 568.059 497.773 565.559C495.389 563.849 491.453 563.261 490.183 562.017C487.465 559.354 487.065 550.61 483.344 550.991C481.387 551.192 479.538 563.031 479.025 563.785C477.264 566.372 459.675 564.658 455.736 566.31C451.038 563.531 436.629 564.191 433.375 561.976C430.906 560.294 432.253 551.403 432.013 548.088C430.989 533.929 432.095 517.831 430.9 505.053C430.548 501.298 426.403 497.081 427.888 492.423C428.247 491.299 432.985 487.306 428.87 486C427.823 485.667 421.273 486.69 419.933 487.143C414.666 488.921 417.958 490.946 418.172 494.019C419.624 514.924 419.93 535.936 420.73 556.871C404.003 558.259 387.199 559.91 370.424 560.355C368.038 560.097 367.635 556.892 367.422 554.843C366.36 544.616 366.934 533.091 366.523 522.738C366.165 513.719 366.183 504.661 365.692 495.642L363.118 493.526C362.646 500.695 360.072 506.791 359.627 514.204C359.008 524.492 359.16 538.61 360.735 548.723C361.337 552.59 364.172 556.746 363.064 561.146C355.367 562.365 347.4 562.291 339.608 562.143C338.066 562.544 334.753 569.572 332.111 567.113C330.028 565.175 331.361 517.916 331.278 510.826C331.224 506.164 328.894 501.311 332.078 496.47C331.946 494.758 324.887 495.753 325.167 498.193C326.292 505.14 327.473 512.25 327.802 519.257C328.273 529.27 328.736 544.284 327.831 554.033C326.744 565.731 320.153 558.414 320.017 551.419C319.975 549.246 320.935 547.158 320.948 544.736C321.024 529.455 319.693 514.29 320.057 499.008C316.857 496.76 316.992 493.339 315.3 490.992C314.19 489.453 307.421 487.023 308.85 485.075C309.047 484.806 313.143 483.591 314.921 482.149C320.793 477.382 329.12 464.441 335.107 457.984C339.139 453.636 345.257 449.274 348.817 445.23C350.27 443.579 350.577 441.33 351.677 440.197C356.955 434.766 387.077 434.643 395.45 434.347C402.157 434.11 409.566 432.341 416.499 433.907C426.735 445.513 437.372 457.162 446.175 469.896C447.342 471.584 452.971 479.533 451.829 480.83C450.105 481.041 448.979 479.4 447.946 478.307C439.142 468.993 426.18 447.363 416.949 441.078C410.235 436.507 399.289 441.133 391.955 441.911C379.822 443.197 368.51 441.08 356.774 447.119C349.753 450.731 329.831 475.251 324.852 482.593C324.156 483.619 323.26 484.53 323.495 485.904C324.77 487.031 336.722 483.546 338.585 481.7C344.405 474.686 354.896 455.542 363.561 452.934C364.006 452.8 364.966 452.7 364.832 453.339C357.237 463.075 348.465 472.082 343.306 483.367C348.202 482.586 356.995 483.729 360.567 480.448C362.765 478.428 366.586 469.158 368.779 465.675C371.827 460.832 376.121 455.49 379.914 451.233C380.981 452.059 380.086 454.201 379.679 455.232C378.118 459.194 362.946 478.96 365.702 481.675L374.292 480.393C381.4 472.183 388.744 464.003 395.358 455.403C397.336 452.832 401.277 445.228 403.173 443.627C404.318 442.659 404.954 442.48 406.433 442.898L447.493 482.982L447.092 485.068C442.632 485.603 438.17 483.163 437.964 489.706C437.568 502.3 444.12 519.676 445.682 532.974C446.526 540.169 446.006 547.809 447.951 554.417C451.067 551.98 458.552 549.205 459.177 545.186C459.329 544.21 459.336 539.311 458.837 538.722C456.64 536.131 450.594 539.295 450.12 533.688C449.918 531.308 457.027 532.652 458.346 530.79C458.916 529.982 459.385 520.915 458.528 519.959C456.207 517.367 447.038 522.419 450.309 516.541C451.31 514.741 457.484 513.198 457.763 512.885C459.479 510.962 455.707 503.188 455.353 500.639C454.318 493.198 455.44 483.405 454.214 476.381C451.987 463.618 438.548 439.147 429.369 429.731C425.803 426.072 425.197 429.251 421.976 429.777C412.9 431.258 415.972 429.383 412.703 424.948C411.175 422.875 408.048 422.492 407.403 421.641C407.178 421.344 407.619 418.374 406.829 416.374C406.219 414.832 398.334 402.955 397.573 402.586L394.603 402.13L362.431 404.889L356.227 416.545C368.626 416.12 382.989 413.214 395.178 415.098C400.5 415.92 399.243 417.88 394.598 418.285C382.914 419.305 369.285 418.44 357.724 420.136C351.655 421.026 352.504 424.172 349.332 428.383L402.227 426.686C403.127 426.634 402.818 429.121 402.735 429.22C400.92 431.388 352.5 433.045 345.841 433.845C339.307 439.509 334.059 447.47 329.134 454.656C320.996 458.202 315.617 458.688 317.93 447.877C328.869 433.078 340.888 418.721 350.904 403.291C351.796 401.918 358.544 390.882 357.941 390.333C356.123 388.676 348.952 397.695 347.633 399.233C334.054 415.064 320.517 435.7 308.342 452.847C307.088 454.614 305.101 455.933 303.687 457.584C303.406 460.222 306.02 456.927 308.045 458.351C309.488 459.366 308.53 462.744 308.856 463.063C309.044 463.248 311.465 462.92 312.508 463.259C313.938 463.725 320.417 466.125 318.322 468.142C318.002 468.449 310.045 468.225 309.371 468.129C306.513 467.723 302.344 464.853 299.814 464.691C295.438 464.409 289.327 468.182 284.427 467.429C283.864 467.578 283.326 467.957 283.22 468.532C283.13 469.026 283.875 477.988 284.045 478.546C284.334 479.498 288.701 483.796 289.655 484.075C296.061 485.944 300.585 476.615 298.073 471.529C299.104 469.651 300.49 472.47 300.704 473.181C301.225 474.912 300.751 487.091 300.231 487.604C299.658 488.171 295.959 486.923 294.746 487.012C291.141 487.277 286.515 493.839 286.518 497.211C286.527 509.653 297.848 506.424 300.256 495.639C301.169 491.551 302.876 496.694 302.894 499.016C302.916 502.04 301.981 504.894 299.844 507.096C297.8 509.202 295.328 509.286 293.872 510.38C291.398 512.24 295.812 512.347 296.81 513.397C297.721 514.354 297.518 516.111 297.718 516.29C298.113 516.643 306.56 514.821 307.969 517.628C303.111 521.302 298.471 518.605 298.746 526.704C299.028 534.991 304.401 532.486 309.896 535.207C313.303 536.894 311.344 539.197 310.14 539.197C304.557 539.197 297.368 538.611 292.051 539.197ZM272.68 182.248C274.033 181.03 277.544 180.27 278.302 178.895C281.109 173.807 268.56 174.205 272.68 182.248ZM309.408 269.921C308.193 271.192 300.257 277.268 300.249 278.253C310.313 285.946 329.292 279.123 331.165 266.34C335.378 237.581 288.315 222.914 277.502 198.228C276.748 196.506 276.226 191.111 274.79 190.719C271.167 189.729 267.671 199.617 265.778 202.125C249.131 224.176 219.07 225.984 214.189 258.041C214.134 258.4 213.344 263.356 214.962 262.189C218.688 253.101 220.783 242.764 232.182 240.617C230.714 244.257 227.265 246.916 225.523 250.563C223.361 255.089 221.013 262.52 222.583 267.39L225.287 273.597C224.084 266.162 225.749 258.673 228.312 251.61C232.973 238.769 237.412 234.12 249.135 227.228C250.889 226.197 256.365 222.706 256.335 226.662C256.325 228.014 246.874 236.753 245.106 239.343C244.28 240.551 240.361 247.769 240.134 248.843C239.345 252.57 241.523 258.134 242.958 261.755C246.276 252.094 254.243 239.646 264.894 236.783C274.921 234.089 266.009 241.934 264.083 244.444C262.404 246.631 252.95 261.096 254.585 262.6C256.382 264.251 259.397 258.924 260.574 257.918C263.046 255.805 271.278 250.702 274.156 250.108C276.22 249.681 278.343 249.96 280.418 249.921C277.751 255.957 272.185 260.718 269.681 266.866C269.168 268.127 268.753 268.836 270.07 269.817C273.373 272.067 281.187 261.655 283.921 259.696C286.823 257.616 291.469 255.24 295.061 255.842C296.377 257.091 289.355 264.795 288.313 266.547C286.547 269.518 285.631 273.138 283.868 276.13C289.454 277.062 295.912 273.175 300.244 269.804C302.798 267.816 304.985 264.614 307.556 262.605C308.342 261.991 314.858 257.716 315.322 257.539C317.634 256.658 316.324 260.517 315.934 261.529C315.068 263.777 311.214 268.033 309.408 269.921ZM245.102 266.838C241.315 266.47 240.374 273.184 242.966 274.438C244.653 275.254 244.312 272.676 244.507 271.753C244.853 270.117 245.349 268.543 245.102 266.838ZM239.084 285.462C234.947 284.741 231.424 281.723 227.023 282.068C227.851 283.321 230.337 284.705 231.707 285.51C232.945 286.238 234.396 286.005 235.379 286.544C237 287.434 239.083 292.457 243.38 288.399L238.211 287.128L239.084 285.462ZM244.246 287.989C245.32 289.964 250.272 290.334 252.441 290.505C267.027 291.661 281.086 289.309 296.284 291.436C299.337 291.863 314.644 299.252 315.732 295.14C316.016 293.322 314.805 292.364 313.588 291.36C305.958 285.068 282.409 281.167 273.006 283.584C270.658 284.187 269.235 285.891 267.029 286.247C260.298 287.332 251.306 286.059 244.246 287.989ZM256.301 369.186C269.843 370.878 275.321 361.224 284.299 353.957C294.14 345.992 298.089 344.909 305.923 333.745C306.534 332.875 307.977 332.616 308.406 331.956C309.077 330.923 308.234 316.212 307.975 313.79C307.688 311.111 306.805 302.892 304.913 301.571C302.809 300.102 290.637 300.059 289.046 302.16C284.58 308.055 290.343 326.846 288.987 334.876C287.791 341.956 280.918 340.198 279.767 333.877C278.859 328.891 278.844 310.419 281.786 306.659C282.762 305.411 287.237 303.552 287.297 302.783C287.405 301.382 285.461 302.04 284.894 302.089C281.898 302.346 267.062 302.354 266.639 304.494C266.517 305.112 270.577 314.231 270.896 316.367C272.11 324.515 270.868 333.692 271.033 341.782C271.132 346.63 272.552 352.196 271.802 357.346L270.093 356.488C272.745 361.525 268.701 368.131 266.841 360.95C263.612 348.488 265.223 333.92 264.042 321.406C263.732 318.122 261.626 314.129 261.472 312.022C261.306 309.744 263.615 308.098 263.191 305.747C261.932 305.759 260.09 305.38 259.28 306.551C258.942 307.04 256.41 316.816 256.316 318.018C256.028 321.696 257.213 324.255 257.237 327.312C257.259 330.018 255.833 332.705 256.229 335.794C256.463 337.616 258.359 337.288 259.127 338.906C260.787 342.404 261.701 363.558 259.617 364.841C257.755 365.987 255.408 362.701 256.301 369.186ZM240.789 315.887C241.547 313.765 242.593 307.307 240.864 306.106C239.099 304.878 235.84 305.929 236.629 308.508L240.789 315.887ZM237.364 372.564C239.244 372.266 239.58 369.451 240.815 368.773C242.273 367.972 245.412 368.796 245.879 367.004C243.297 350.931 246.431 333.764 240.365 318.435L241.653 367.49C236.627 366.076 239.217 364.275 238.796 362.106C236.851 352.07 236.728 344.018 235.533 334.168C235.372 332.839 235.229 329.544 233.052 330.277L237.364 372.564ZM395.822 326.912C377.216 330.108 358.26 331.279 339.662 334.734C335.026 335.595 330.087 337.536 325.425 338.516C321.389 339.364 315.109 337.988 312.293 342.106C318.894 343.011 325.238 340.986 331.683 340.432C345.12 339.278 358.723 338.498 372.061 336.945C376.207 336.462 379.875 334.105 384.228 333.666C392.063 332.875 399.213 337.804 395.822 326.912ZM467.895 434.61C452.655 416.153 435.253 399.203 420.464 380.109C413.07 370.563 401.526 356.599 397.817 345.677C397.332 344.249 397.807 342.629 397.193 341.213C393.375 340.672 383.926 337.348 385.515 343.804L388.948 342.963C388.805 347.804 390.499 353.018 392.902 357.27C400.605 370.903 415.183 389.654 424.776 402.941C433.022 414.361 457.889 449.843 469.119 454.974C470.778 455.732 475.829 457.262 474.636 453.813C474.026 452.048 472.509 447.841 474.235 446.147C474.488 445.898 476.466 447.72 476.809 446.581C472.577 443.375 471.189 438.6 467.895 434.61ZM376.029 341.272C372.296 342.31 351.336 343.415 349.75 345.486C349.069 346.375 349.016 349.177 348.248 350.778C339.496 369.006 325.528 391.669 315.025 409.504C310.041 417.968 304.672 426.342 298.938 434.308C298.289 431.985 299.954 428.313 300.936 426.12C306.244 414.264 314.562 399.884 321.063 388.367C329.294 373.786 338.361 359.386 347.609 345.506C333.346 345.113 317.888 348.746 303.905 352.063C302.106 352.49 300.107 352.062 298.286 352.466C291.254 354.029 285.08 363.235 279.571 367.923C264.653 380.62 249.683 383.236 236.515 399.233C223.143 415.479 212.997 434.505 198.151 449.53L197.321 447.019L239.926 388.197C240.481 386.323 238.318 386.777 237.135 387.151C229.693 389.507 209.721 412.54 203.783 419.531C192.76 432.506 183.47 446.811 172.318 459.683C170.372 456.337 173.822 455.091 174.742 453.559C188.371 430.883 205.331 410.924 220.122 389.054C210.385 387.757 209.272 393.519 204.626 398.978C195.503 409.699 185.868 420.4 177.085 431.377C170.932 439.067 162.51 453.632 155.987 459.718C152.604 462.875 150.699 461.713 153.057 457.686C167.935 432.268 199.502 403.147 209.977 376.554C210.282 375.781 211.372 373.546 210.213 373.405C204.763 373.075 199.175 373.789 194.333 376.417C174.538 404.765 155.674 434.202 134.203 461.163L130.551 462.222L187.375 378.037C187.971 376.071 184.799 376.718 183.491 376.765C173.793 377.113 171.598 381.734 166.371 388.714C143.147 419.728 124.37 447.068 94.0802 472.515C93.1845 473.267 92.275 473.338 92.6504 474.909C94.2262 476.262 129.184 471.293 134.214 470.486C135.415 470.294 136.493 469.112 137.906 469.016C140.476 468.842 146.394 470.717 149.105 470.336C150.133 470.191 151.452 467.947 153.549 467.472C157.615 466.551 163.838 467.094 167.973 466.413C178.32 464.708 187.389 462.113 198.199 461.341C201.338 461.116 205.704 462.048 209.347 461.365C211.523 460.957 212.916 458.236 216.359 458.029C218.62 457.893 220.617 458.991 223.098 458.874C227.006 458.689 232.385 456.551 235.236 456.336C237.728 456.147 241.498 458.239 243.809 458C245.377 457.838 246.652 455.795 248.684 455.165C251.054 454.432 258.695 452.689 261.245 452.283C266.388 451.463 270.728 453.63 275.636 452.864C278.682 452.389 280.915 449.775 284.301 449.494C285.43 449.4 291.323 450.061 291.628 450.388C291.868 450.644 288.858 455.96 294.247 454.259C298.469 452.926 311.496 439.462 314.851 435.555C337.347 409.363 359.845 376.413 374.624 345.383C375.248 344.073 376.136 342.804 376.029 341.272ZM378.613 350.57C376.624 350.094 377.197 350.952 376.645 351.641C374.197 354.694 373.33 358.527 371.653 361.737C370.299 364.33 366.003 366.863 367.429 371.719C370.411 369.65 378.976 357.907 379.199 355.115C379.309 353.733 378.378 352.077 378.613 350.57ZM228.744 357.334C227.068 355.629 218.581 360.242 216.202 360.675C213.028 361.251 208.66 360.94 205.059 361.597C203.651 361.854 203.571 361.044 203.766 363.256C210.95 364.78 220.606 359.621 227.351 361.514C228.36 361.797 227.686 366.135 231.325 364.944C228.223 363.541 229.042 357.637 228.744 357.334ZM384.644 377.636C383.771 369.225 380.624 370.735 378.622 377.636H384.644ZM220.993 375.106C218.389 373.21 214.738 379.524 214.109 381.462C213.298 383.965 218.705 382.126 219.271 382.708C219.514 382.957 219.109 385.284 219.271 386.095C219.934 386.867 232.099 378.722 225.611 376.836C223.804 376.31 219.288 381.522 220.993 375.106ZM393.261 398.786C393.099 395.97 387.03 382.167 385.514 381.447C383.476 380.48 376.696 381.416 375.38 382.924C374.568 383.855 372.023 391.448 371.017 393.437C370.155 395.141 367.899 397.248 367.43 398.377C366.389 400.883 369.429 398.786 369.574 398.786H393.261ZM408.506 454.886C404.697 451.647 404.224 456.815 402.585 459.116C399.425 463.553 394.597 467.415 394.125 473.217C402.532 473.764 411.257 472.346 419.522 473.251C420.336 473.34 422.521 472.749 421.678 474.478C419.502 478.94 403.454 476.89 398.974 477.486C394.074 478.137 388.396 481.265 382.989 480.898C380.145 487.539 383.543 492.199 382.068 498.592C384.192 500.856 388.625 488.183 389.108 487.329C390.033 485.695 391.707 483.062 393.476 482.314C395.121 481.619 402.515 480.992 404.898 480.842C411.645 480.419 418.443 481.329 425.135 479.985C425.627 479.532 423.645 474.456 423.106 473.504C422.865 473.077 421.725 472.845 421.386 472.283C418.286 467.143 413.02 458.725 408.506 454.886ZM276.982 474.073C273.111 472.975 269.808 474.628 266.194 474.9C241.596 476.753 216.482 480.976 192.149 483.567C191.238 483.664 183.792 483.971 185.676 485.896C189.083 489.378 223.335 482.398 230.047 481.693C246.213 479.995 258.765 480.471 275.181 476.254C276.684 475.868 277.291 477.97 276.982 474.073ZM231.325 503.672V516.782L280.42 512.132C280.043 518.225 277.047 522.681 280.236 528.807C282.11 532.407 291.679 535.862 292.518 531.138L291.729 518.53L295.926 515.523C287.176 513.102 279.693 506.134 280.676 496.587C280.872 494.681 285.777 487.309 285.567 486.397C285.499 486.101 281.214 482.844 280.664 482.699C274.625 483.504 267.997 483.613 262.013 484.325C256.684 484.959 249.224 485.977 244.032 486.968C236.733 488.36 229.878 488.555 231.321 497.754C238.263 497.652 245.515 497.539 252.421 496.898C255.634 496.6 276.884 491.972 276.96 496.482C276.053 497.884 274.615 497.59 273.27 497.916C259.961 501.146 244.978 502.117 231.325 503.672ZM204.619 488.451C202.146 489.724 189.694 488.784 189.156 489.332C188.965 489.526 189.324 491.798 188.332 493.166C187.264 494.639 181.851 495.714 182.272 498.074C182.367 498.605 183.667 499.836 184.342 499.939C189.17 500.676 199.147 497.306 204.622 497.745C203.279 494.362 203.964 491.84 204.619 488.451ZM151.215 494.373C148.888 491.328 142.872 500.675 142.15 502.822C141.791 503.891 142.535 505.118 142.219 506.232C141.724 507.973 139.118 509.48 140.016 512.125C142.311 512.547 152.444 512.722 153.427 511.338C154.113 510.372 154.105 502.931 153.415 501.931C152.295 500.308 148.331 503.233 147.754 499.03C147.468 496.948 148.754 498.104 149.691 497.54C150.939 496.789 152.094 495.522 151.215 494.373ZM136.571 508.743C135.291 504.482 140.3 496.561 135.296 494.372C133.35 494.759 134.599 505.426 134.848 507.497C135 508.762 135.554 510.083 136.571 508.743ZM398.438 504.518L402.727 494.368C399.487 496.133 398.67 501.113 398.438 504.518ZM127.957 540.039C128.715 528.745 125.915 517.762 124.522 506.626C124.088 503.149 125.88 498.222 121.941 496.059C121.814 506.97 124.192 517.783 125.371 528.631C125.733 531.959 124.999 534.686 125.992 538.211C126.414 539.706 125.719 540.407 127.957 540.039ZM172.535 496.336C169.39 494.906 170.675 497.058 169.919 498.338C169.629 498.828 167.681 498.123 168.45 500.284L174.053 498.601C174.731 498.29 172.66 496.393 172.535 496.336ZM436.324 497.755C432.939 497.099 435.408 501.442 435.461 503.256C435.888 517.714 436.446 532.001 438.152 546.289C438.258 547.179 438.495 550.256 439.766 550.189L436.324 497.755ZM207.161 502.029C205.073 501.899 202.94 501.864 200.848 502.084C191.553 503.058 175.506 504.769 166.869 506.799C165.484 507.125 159.15 509.217 162.209 510.419C162.606 510.575 163.747 510.165 164.042 510.489C164.674 511.185 162.754 515.872 168.346 516.74C172.108 517.325 182.965 515.775 187.696 515.371C193.201 514.9 200.368 511.838 205.476 515.104C205.884 517.132 203.978 516.215 202.597 516.476C196.146 517.693 189.717 519.233 183.283 520.356C179.819 520.96 167.397 520.444 165.989 524.536C165.285 526.582 166.035 532.019 169.012 530.924C176.489 528.175 180.063 528.299 187.608 527.141C190.759 526.657 194.11 525.378 197.407 524.921C201.936 524.294 209.269 526.383 211.948 521.432C213.596 518.384 210.49 519.195 209.331 516.388C208.265 513.808 207.731 502.572 207.161 502.029ZM398.433 552.73C401.315 552.852 401.823 549.077 402.491 546.993C406.344 534.977 408.361 521.183 410.48 508.747C407.419 510.806 406.199 516.196 404.922 519.775C402.542 526.45 397.759 540.121 396.824 546.603C396.55 548.509 399.142 550.378 398.433 552.73ZM224.426 518.051C224.411 515.239 224.947 512.022 223.147 509.597L221.843 513.827L220.134 512.971L220.136 517.201L221.416 514.672L224.426 518.051ZM340.727 530.739C342.38 530.443 342.148 528.973 342.478 527.815C343.861 522.964 343.553 516.42 344.155 511.289L340.808 525.329L340.727 530.739ZM141.735 517.206C138.806 519.039 136.241 517.097 133.134 517.204C132.768 525.697 136.704 534.185 133.975 542.581L132.276 541.73C132.544 544.856 131.877 548.433 132.25 551.48C132.416 552.834 135.801 559.432 136.247 559.551C137.623 559.919 140.119 559.219 141.739 559.489C141.799 558.1 140.124 558.777 139.319 557.23C136.36 551.548 138.79 546.318 142.249 541.808C143.062 540.749 144.938 540.41 145.604 539.183C146.437 537.649 146.278 534.749 146.967 532.957C146.731 531.405 139.818 532.899 138.469 527.569C137.543 523.911 140.332 524.736 140.863 523.329C141.365 522 141.255 518.862 141.735 517.206ZM167.702 533.386C167.304 534.015 167.447 536.159 167.716 536.948C168.648 539.686 172.079 537.573 174.054 537.509C197.834 536.731 227.991 534.371 251.465 530.639C254.332 530.183 267.788 527.777 269.173 526.878C270.614 525.943 271.27 519.885 270.884 518.597C270.404 516.996 263.879 517.23 262.174 517.395C237.491 519.774 212.783 527.159 188.469 531.37C185.002 531.971 168.297 532.447 167.702 533.386ZM156.24 531.441C158 528.692 154.732 515.767 151.223 518.902C150.506 519.542 156.741 525.51 147.778 523.13C147.77 526.644 147.564 532.968 152.511 532.954C152.968 532.953 156.132 531.609 156.24 531.441ZM351.924 524.822C351.525 530.84 351.018 536.962 350.117 542.929C349.56 546.62 345.914 551.073 350.636 554.419C353.021 554.917 353.561 548.045 353.669 546.42C354.045 540.768 353.007 533.723 352.777 527.77C352.737 526.743 353.424 524.623 351.924 524.822ZM413.934 530.739C411.912 530.625 412.412 530.452 412.21 531.993C411.816 534.993 411.256 549.289 413.084 551.037C413.154 551.104 414.906 551.362 414.814 550.599C414.728 549.822 413.934 549.151 413.934 548.925V530.739ZM152.937 545.113C150.447 544.548 147.441 547.797 147.045 549.971C146.849 551.047 148.404 557.342 148.782 557.664C149.119 557.949 155.95 559.753 157.244 560.339C159.096 555.305 154.194 556.238 153.877 554.792C153.711 554.031 154.885 552.271 154.675 550.688C154.467 549.119 152.238 547.345 152.937 545.113ZM506.108 564.573C508.675 560.808 526.816 551.518 525.913 547.251C525.082 543.321 513.092 550.407 511.342 552.381C510.815 552.975 507.231 558.865 507.048 559.331C506.487 560.754 506.288 562.996 506.108 564.573ZM501.788 554.427C499.772 553.875 500.333 554.945 499.823 555.507C497.959 557.561 495.52 559.936 495.762 562.875C504.036 565.656 500.433 559.997 501.788 554.427Z" fill="black"/>
<path d="M606.012 84.1342C606.74 86.9562 606.679 88.2369 605.585 90.8872C599.058 106.703 578.482 123.761 584.057 142.489C589.869 162.014 611.222 169.057 607.354 193.288C604.862 208.899 583.928 230.512 574.636 244.054C565.479 257.399 551.977 276.141 562.948 291.788C573.749 307.191 602.545 311.091 586.408 335.123C576.773 349.472 556.587 361.534 547.916 375.989C536.91 394.337 553.425 397.109 565.454 405.207C573.418 410.569 582.645 417.056 578.228 427.746C575.006 435.544 559.202 444.353 552.592 450.786C544.754 458.413 541.447 463.361 553.738 468.31C564.346 472.581 588.118 476.021 589.473 489.917C589.97 495.008 582.909 501.711 579.327 504.953C574.787 509.061 559.265 518.338 560.548 525.036C562.115 533.215 596.727 537.787 597.185 552.455C597.291 555.82 591.778 562.288 589.242 564.595C579.61 573.357 564.86 578.949 556.061 588.682C537.513 609.2 577.855 613.972 578.509 628.447C578.862 636.262 569.415 642.647 564.67 647.888C562.426 650.366 562.058 654.757 556.924 654.229C554.472 651.715 568.384 637.594 569.755 634.272C574.061 623.833 563.935 621.952 557.159 617.203C546.826 609.96 540.1 601.725 547.265 589.349C549.777 585.011 559.886 576.434 564.267 573.057C569.451 569.061 589.223 558.464 588.603 551.593C587.915 543.966 556.979 539.061 554.518 528.447C552.363 519.151 558.136 513.133 564.661 507.468C569.39 503.363 583.143 496.115 581.91 488.914C579.916 477.259 534.414 479.298 539.031 457.762C540.749 449.747 561.818 436.293 568.155 429.697C580.668 416.672 555.082 408.794 546.641 402.536C516.979 380.548 563.075 352.678 576.311 337.05C593.345 316.936 577.68 315.389 564.662 304.484C524.018 270.438 585.113 229.87 598.157 199.483C611.496 168.407 568.129 161.502 579.056 125.746C581.533 117.641 596.537 93.7957 602.2 86.7261C603.14 85.5524 604.249 83.9088 606.012 84.1342Z" fill="black"/>
<path d="M815.328 555.26C821.44 555.416 828.714 555.097 834.71 556.113C837.68 556.616 838.053 559.887 834.597 560.04C825.554 560.442 814.03 553.983 807.593 564.15C810.851 567.219 815.707 565.627 819.633 567.121C817.454 573.717 807.651 569.149 801.966 568.813C796.818 568.509 791.589 569.041 786.437 568.837C746.524 567.263 706.671 565.432 666.708 564.608C661.781 564.506 657.039 562.808 651.669 564.565C655.431 557.04 666.945 562.302 672.326 559.905C673.654 559.314 675.867 556.122 677.582 554.917C679.811 553.35 689.722 548.357 690.247 547.462C690.815 546.493 690.186 544.53 690.429 544.273C690.709 543.977 697.367 543.515 698.622 543.435C708.999 542.773 719.389 544.205 729.587 544.308C759.862 544.613 790.242 544.495 820.032 545.078C828.173 545.237 837.066 544.541 845.036 545.127C847.662 545.321 857.369 545.982 852.661 549.213C845.78 550.022 823.483 546.112 818.82 549.817C818.173 550.331 815.065 555.069 815.328 555.26ZM710.242 546.81H696.891C695.668 546.81 693.033 549.342 693.88 551.035C699.77 550.662 706.901 552.988 710.242 546.81ZM731.776 546.81H715.841L711.969 551.035C719.569 550.074 727.02 554.872 731.776 546.81ZM795.512 547.661L739.055 546.769C736.002 546.678 734.972 549.829 733.499 551.877C738.042 551.506 743.303 552.407 747.738 551.911C749.811 551.68 752.366 549.897 753.634 550.119C754.397 550.252 754.379 551.889 755.01 552.293C756.715 553.384 771.72 552.626 775.31 552.696C782.298 552.833 792.303 556.883 795.512 547.661ZM816.189 548.502H801.977C801.069 548.502 800.851 547.426 799.028 548.949C798.384 549.486 795.003 553.229 796.363 554.015C798.555 555.28 809.09 555.995 811.017 554.842C811.93 554.296 814.8 549.613 816.189 548.502ZM702.49 552.731H688.277C686.555 552.731 680.751 558.723 679.233 560.344H696.029C696.705 558.542 703.632 553.787 702.49 552.731ZM723.158 553.582C719.266 554.83 712.468 552.495 709.267 553.166C707.161 553.608 703.134 558.535 701.628 560.335C710.656 560.663 720.241 565.345 723.158 553.582ZM742.543 554.423C740.047 553.815 732.829 554.423 729.622 554.423C729.174 554.423 723.147 560.45 724.028 561.185C728.84 560.524 735.591 563.994 739.598 560.836C739.92 560.582 743.297 556.389 743.418 556.111C743.776 555.286 742.998 554.534 742.543 554.423ZM764.503 556.119C756.459 555.237 748.167 552.794 744.699 562.03C752.737 563.182 761.38 565.518 764.503 556.119ZM786.042 556.115H770.968C770.524 556.115 766.306 561.919 765.369 562.873C773.082 563.922 784.065 565.845 786.042 556.115ZM808.432 558.662C803.48 557.447 798.561 556.605 793.378 556.982L785.184 563.719C791.489 564.668 797.207 564.937 803.492 563.526L808.432 558.662Z" fill="black"/>
<path d="M363.065 567.2C363.403 567.527 362.885 569.367 363.135 569.618C363.929 570.412 370.374 567.965 372.202 567.923C379.461 567.754 377.986 573.046 379.582 577.998C387.909 579.647 397.484 577.566 404.459 583.174C395.857 584.237 386.592 583.385 378.276 585.807C372.261 587.558 367.236 592.51 360.534 591.636C366.527 577.219 356.17 587.36 350.518 589.84C347.841 591.015 345.047 592.512 342.45 590.382C344.428 586.329 347.74 583.244 351.045 580.212C352.527 578.851 360.46 574.644 357.941 572.19C355.866 570.167 329.114 583.956 324.353 584.865C327.713 583.071 326.481 580.814 327.741 578.685C327.904 578.41 332.113 575.273 332.75 574.931C335.873 573.253 350.914 567.925 354.273 567.31C355.635 567.061 362.676 566.824 363.065 567.2Z" fill="black"/>
<path d="M908.348 338.726C906.748 339.869 905.163 336.14 904.963 334.873C903.639 326.481 904.628 315.618 904.039 307.021C901.313 267.224 899.552 227.646 898.871 187.756C898.804 183.82 896.347 179.237 900.176 175.487C902.393 178.853 901.177 183.114 901.473 186.893C904.673 227.764 907.324 271.105 908.39 312.053C908.48 315.511 909.447 337.941 908.348 338.726Z" fill="black"/>
<path d="M437.852 566.524C438.305 567.113 437.595 568.505 438.59 568.836C447.227 571.707 458.933 571.469 468.657 574.698C470.105 575.179 483.075 579.84 480.254 582.332C473.62 583.719 468.22 580.874 462.365 580.03C449.687 578.203 437.347 577.419 424.665 576.451C422.681 576.299 411.944 575.459 411.346 575.164C410.988 574.987 410.416 574.366 410.489 573.886C411.438 573.2 427.707 574.385 429.439 573.475C429.849 573.26 430.544 572.386 430.299 572.194C416.624 570.273 402.778 570.381 388.955 570.486C389.335 569.135 390.697 568.417 391.915 567.904C401.58 563.837 422.751 563.202 433.259 564.625C434.197 564.752 437.386 565.92 437.852 566.524Z" fill="black"/>
<path d="M927.301 189.013C927.071 191.467 928.035 193.759 928.201 196.172C930.04 222.852 927.822 252.091 928.992 279.134C929.694 295.378 931.456 311.855 932.479 328.152C932.842 333.925 934.837 339.748 933.329 345.494C931.775 345.835 931.638 345.031 930.892 344.09C927.07 339.266 927.717 313.632 927.296 306.175C925.285 270.613 922.276 231.82 924.685 196.172C924.801 194.462 925.192 191.934 925.598 190.283C925.915 188.999 924.997 188.798 927.301 189.013Z" fill="black"/>
<path d="M960.027 353.106L956.795 346.566C953.35 301.018 948.099 250.236 951.377 204.619C951.481 203.171 951.289 201.822 952.719 200.862L960.027 353.106Z" fill="black"/>
<path d="M912.653 189.016C914.075 198.145 913.046 207.364 913.487 216.541C915.248 253.158 919.312 290.93 920.449 327.277C920.516 329.405 921.068 342.927 919.122 342.943C917.881 342.954 916.311 332.286 916.119 330.684C911.238 289.96 910.446 241.334 911.017 200.44C911.064 197.007 908.485 191.937 912.653 189.016Z" fill="black"/>
<path d="M936.775 194.095L943.666 341.264C942.185 341.558 941.912 340.904 941.274 339.816C939.426 336.668 939.742 321.914 939.35 317.176C936.535 283.163 935.842 248.99 935.021 214.849C934.887 209.258 934.374 200.586 935.055 195.345C935.216 194.111 935.726 192.709 936.775 194.095Z" fill="black"/>
<path d="M977.908 462.384C983.793 461.24 991.382 469.294 990.566 474.998C988.533 489.197 962.727 488.812 965.373 473.022C966.272 467.657 972.884 463.36 977.908 462.384ZM979.666 470.872C978.95 470.466 973.399 470.491 973.055 470.784C972.852 470.957 971.8 475.004 972.46 475.803C975.553 476.265 976.512 480.158 979.811 478.744C983.627 477.108 982.021 472.205 979.666 470.872Z" fill="black"/>
<path d="M955.82 517.08C955.503 516.523 956.155 514.91 956.538 514.403C959.266 510.793 981.955 511.351 987.203 511.323C991.149 511.302 994.025 509.292 998.269 512.222C1004.65 516.628 991.181 517.849 988.883 518.043C979.547 518.828 969.825 518.183 960.511 519.773C959.738 519.341 955.953 517.313 955.82 517.08Z" fill="black"/>
<path d="M569.84 564.565L516.44 572.182C515.782 569.08 519.134 568.398 520.563 566.336C536.2 564.547 549.91 557.898 565.706 562.289C567.185 562.701 569.327 562.808 569.84 564.565Z" fill="black"/>
<path d="M999.654 530.754C1001.3 533.012 993.626 534.832 992.34 534.971C986.071 535.65 970.71 536.485 964.751 535.839C962.808 535.628 960.717 534.758 959.143 533.662C959.118 528.956 967.26 528.485 970.814 528.212C976.143 527.802 989.112 527.452 994.016 528.244C994.713 528.356 999.474 530.507 999.654 530.754Z" fill="black"/>
<path d="M860.988 208.472C859.786 207.513 858.92 184.116 859.216 180.94C859.409 178.862 859.525 176.386 861.832 175.483C863.765 179.934 866.008 206.377 863.611 208.094C863.035 208.507 861.299 208.719 860.988 208.472Z" fill="black"/>
<path d="M836.862 265.142C835.384 265.433 835.123 264.752 834.403 263.75C831.668 259.949 830.931 239.586 832.303 234.842C832.524 234.079 832.207 232.38 833.834 233.008C837.425 234.397 834.949 240.033 836.862 242.727V265.142Z" fill="black"/>
<path d="M850.635 227.078C850.898 227.342 852.276 233.324 852.373 234.262C853.147 241.765 852.188 250.646 853.223 258.372C851.853 258.493 851.225 258.571 850.21 257.532C848.052 255.323 846.953 238.838 847.214 235.127C847.284 234.143 848.556 224.986 850.635 227.078Z" fill="black"/>
<path d="M817.04 227.077C816.624 227.376 814.445 225.079 814.106 224.473C811.825 220.402 811.656 204.495 812.74 199.585C813.878 194.424 816.474 198.075 817.001 201.33C817.624 205.18 817.823 213.784 817.948 218.153C818.036 221.206 818.043 224.156 817.04 227.077Z" fill="black"/>
<path d="M828.248 191.977C828.697 190.436 830.609 190.172 831.51 192.157C834.224 198.135 832.257 215.611 833.412 222.847C830.892 225.34 828.248 216.006 828.248 214.814C828.248 210.036 827.277 195.304 828.248 191.977Z" fill="black"/>
<path d="M991.9 414.869C992.048 416.112 989.68 416.362 988.82 416.476C975.647 418.223 962.131 418.815 948.839 419.079C954.94 413.794 965.753 415.278 973.423 414.892C979.417 414.591 985.836 412.734 991.9 414.869Z" fill="black"/>
<path d="M989.319 403.881C989.517 404.121 989.21 405.701 989.327 406.395L948.843 409.778C948.863 406.178 953.482 406.145 956.27 405.661C963.736 404.368 974.48 403.151 981.99 402.956C983.142 402.926 989.036 403.538 989.319 403.881Z" fill="black"/>
<path d="M843.753 186.055C844.277 182.567 846.373 184.345 847.011 187.085C848.074 191.647 849.357 206.878 848.959 211.476C848.207 220.153 843.753 211.685 843.753 207.202C843.753 201.064 842.905 191.686 843.753 186.055Z" fill="black"/>
<path d="M808.432 314.198C807.992 314.634 806.228 314.243 805.45 313.328C805.117 312.937 802.682 304.704 802.488 303.549C801.72 298.989 801.176 289.833 805.426 287.139C807.305 290.456 809.661 312.981 808.432 314.198Z" fill="black"/>
<path d="M821.352 282.057C821.929 282.735 824.67 297.53 824.792 299.409C824.928 301.511 825.479 308.289 823.504 309.12C822.878 309.383 821.84 309.437 821.355 308.585C819.725 305.722 817.559 290.436 818.118 286.911C818.199 286.397 820.005 280.473 821.352 282.057Z" fill="black"/>
<path d="M825.655 321.818C826.824 322.644 829.912 344.609 826.956 345.512C826.238 345.731 825.275 345.74 824.725 344.996C823.834 343.792 821.533 335.11 821.369 333.229C821.218 331.486 821.914 319.177 825.655 321.818Z" fill="black"/>
<path d="M816.189 241.036C816.212 240.885 817.07 239.122 817.477 238.925C821.657 240.68 820.417 254.744 820.505 258.79C820.586 262.524 823.19 266.899 819.204 270.2C818.293 270.222 816.189 261.391 816.189 260.49C816.189 254.824 815.407 246.234 816.189 241.036Z" fill="black"/>
<path d="M853.216 272.758C854.439 273.91 856.305 294.231 855.788 296.84C855.073 300.446 852.67 300.429 851.706 296.664C850.457 291.787 849.138 281.556 849.979 276.755C850.089 276.131 851.743 271.372 853.216 272.758Z" fill="black"/>
<path d="M799.82 203.394L802.365 228.473C802.712 231.288 799.835 232.725 798.296 229.848C796.468 226.434 795.974 212.331 796.58 208.249C796.671 207.632 798.333 201.541 799.82 203.394Z" fill="black"/>
<path d="M840.32 342.112C839.93 341.856 837.794 334.457 837.678 333.278C837.361 330.067 836.835 318.848 839.881 317.589C841.05 317.106 846.191 339.391 842.939 341.739C842.34 342.171 840.696 342.359 840.32 342.112Z" fill="black"/>
<path d="M799.823 247.803C800.714 244.749 803.659 247.652 804.419 250.057C805.684 254.058 805.616 266.113 804.984 270.563C804.861 271.427 803.239 271.237 802.842 271.06C801.82 270.604 799.823 262.515 799.823 261.336C799.823 258.266 799.187 249.983 799.823 247.803Z" fill="black"/>
<path d="M873.035 311.668C872.081 318.873 875.647 327.148 874.801 334.125C874.632 335.515 874.579 337.066 872.617 337.049C870.766 337.032 866.455 315.255 869.948 312.435C870.932 311.641 871.808 311.529 873.035 311.668Z" fill="black"/>
<path d="M866.143 226.237C867.239 233.049 868.484 240.01 868.244 246.953C868.192 248.454 868.144 253.862 865.729 253.297C862.848 252.622 863.641 241.074 863.556 238.508C863.442 235.035 860.841 227.569 866.143 226.237Z" fill="black"/>
<path d="M853.228 315.47C853.378 314.957 854.599 314.026 855.37 314.205C858.08 314.832 856.893 323.573 858.396 325.62V338.308C858.396 338.533 857.407 339.155 857.104 339.56C855.606 339.572 853.228 332.823 853.228 331.541C853.228 327.999 852.499 317.968 853.228 315.47Z" fill="black"/>
<path d="M839.437 304.047C838.418 304.773 837.501 303.415 837.042 302.606C835.365 299.653 832.354 282.223 835.578 281.221C837.048 280.764 837.784 281.362 838.396 282.667C839.669 285.381 841.403 302.646 839.437 304.047Z" fill="black"/>
<path d="M868.726 269.374C869.544 270.102 870.769 288.604 870.494 290.982C870.351 292.211 870.045 294.322 868.313 293.897C866.402 293.429 864.529 278.906 864.591 276.554C864.628 275.176 866.644 267.522 868.726 269.374Z" fill="black"/>
<path d="M987.601 394.566C988.954 395.856 987.28 396.021 986.405 396.342C982 397.957 976.351 396.66 971.679 397.109C965.382 397.713 958.687 400.167 952.286 398.776C951.764 398.158 954.171 396.984 954.869 396.672C958.948 394.852 977.516 393.747 982.862 393.709C983.504 393.705 987.428 394.401 987.601 394.566Z" fill="black"/>
<path d="M808.449 347.187C806.977 346.116 802.535 327.418 808.007 326.061C810.742 326.087 811.701 343.198 810.872 345.775C810.556 346.757 809.198 347.732 808.449 347.187Z" fill="black"/>
<path d="M662.002 500.279C661.2 501.394 650.009 501.286 647.803 501.125L641.341 499.033C642.331 497.545 643.656 497.822 645.16 497.703C648.499 497.439 658.701 496.24 660.762 497.704C661.47 498.207 662.516 499.565 662.002 500.279Z" fill="black"/>
<path d="M722.501 387.144C728.714 383.17 735.889 384.378 742.536 383.555C789.32 377.762 839.237 374.264 886.381 372.557C892.378 372.339 905.079 368.397 905.456 377.351C905.969 389.571 902.68 402.433 901.473 414.444C898.946 439.603 897.024 464.71 893.68 489.765C893.436 491.593 894.524 492.969 893.79 494.83C891.744 500.018 881.45 497.476 876.916 497.672C838.298 499.345 799.312 500.235 760.667 501.169C746.105 501.521 731.604 501.63 717.141 501.605C715.862 499.999 714.806 498.636 714.51 496.52C713.687 490.631 714.663 481.65 714.589 475.296C714.423 460.97 714.868 445.688 716.282 431.362C717.741 416.591 721.077 401.929 722.501 387.144ZM887.564 490.866L898.054 378.843L734.483 391.292C733.847 391.682 732.864 400.744 732.642 402.597C730.736 418.459 728.843 435.568 728.295 451.617C727.831 465.193 728.973 478.704 729.191 492.252C726.932 497.745 725.396 492.187 724.359 491.884C720.507 490.759 719.953 494.927 720.583 497.748C733.043 494.149 746.024 494.905 758.944 494.402C782.937 493.47 807.23 492.262 831.227 491.795C848.014 491.469 866.518 493.046 882.982 491.868C884.577 491.754 886.131 491.592 887.564 490.866Z" fill="black"/>
<path d="M1115.74 478.495C1118.24 480.915 1115.36 490.086 1114.46 493.337C1112.17 501.653 1107.77 509.882 1105.02 517.899C1103.12 523.443 1093.48 556.087 1090.8 557.633C1089.34 558.476 1075.16 552.788 1071.34 552.121C1064.37 550.905 1059.62 552.043 1053.57 551.82C1050.22 551.697 1044.59 546.885 1045.47 543.231C1049.8 530.229 1052.78 516.723 1056.96 503.688C1059.24 496.54 1062.23 486.131 1065.06 479.511C1065.33 478.878 1067.69 475.256 1067.92 475.127C1068.51 474.794 1076.5 473.586 1077.76 473.542C1081.66 473.407 1114.37 477.173 1115.74 478.495ZM1109.69 485.269C1101.2 482.408 1092.56 482.349 1083.73 481.59C1074.71 480.815 1073.21 476.787 1069.03 487.635C1066.34 494.627 1062.12 505.924 1060.33 512.924C1059.62 515.732 1059.64 519.339 1059.1 522.281C1068.89 516.391 1078.38 506.867 1088.46 501.638C1096.09 497.683 1112.78 496.971 1109.69 485.269ZM1095.39 511.347C1095.97 510.975 1097.53 512.47 1098.71 511.763C1098.94 511.621 1102.36 508.054 1102.52 507.829C1103.75 506.04 1104.46 502.297 1103.46 500.293L1056.51 531.996C1057.41 533.085 1057.83 533.556 1059.37 533.141C1060.57 532.817 1068.96 526.564 1071.24 525.331C1077.35 522.027 1087.18 518.57 1092.61 515.025C1094.48 513.804 1095.16 511.499 1095.39 511.347ZM1095.05 530.528C1096.1 529.587 1099.17 522.129 1095.7 521.439C1095.19 524.421 1092.48 527.628 1091.84 530.337C1091.33 532.471 1094.81 530.741 1095.05 530.528ZM1055.64 540.051C1055.19 539.598 1056.6 536.472 1054.79 536.664L1053.07 545.115C1053.66 545.712 1063.15 542.136 1064.26 540.462C1062.88 539.33 1056.15 540.559 1055.64 540.051ZM1084.09 551.033C1085.49 551.904 1090.41 543.206 1080.63 547.666C1080.5 549.062 1082.51 548.648 1083.51 549.323C1084.3 549.857 1084.01 550.985 1084.09 551.033Z" fill="black"/>
<path d="M1060.62 556.265C1066.15 555.559 1077.86 565.342 1067.42 567.746C1062.46 565.716 1057.55 566.944 1053.46 562.892C1054.4 559.764 1057.22 556.698 1060.62 556.265Z" fill="black"/>
<path d="M255.448 436C254.961 435.51 260.499 425.083 261.325 423.594C269.891 408.158 279.141 391.549 288.341 376.534C292.802 369.252 297.044 361.288 303.671 355.648C303.277 358.726 301.183 362.077 299.711 364.862C289.176 384.791 275.222 408.831 263.028 427.804C262.39 428.797 257.01 437.574 255.448 436Z" fill="black"/>
<path d="M283.858 429.231C281.763 428.751 283.869 424.479 284.316 423.333C288.313 413.101 295.935 400.086 301.216 390.023C303.652 385.383 320.857 352.484 323.06 352.281C323.94 352.2 324.734 354.506 323.738 355.456C312.147 380.817 297.318 404.767 283.858 429.231Z" fill="black"/>
<path d="M265.775 387.795C266.709 388.783 253.639 408.583 252.022 411.075C245.622 420.933 237.87 433.628 230.837 442.714C230.092 443.677 229.071 444.898 227.889 445.308C228.031 439.016 233.05 432.436 236.469 427.099C243.393 416.291 253.155 400.938 261.097 391.227C261.685 390.507 264.861 386.827 265.775 387.795Z" fill="black"/>
</svg>
