<svg width="1280" height="720" viewBox="0 0 1280 720" fill="none" xmlns="http://www.w3.org/2000/svg">
<g clip-path="url(#clip0_184_82)">
<path d="M15 649.789C21.1484 641.695 32.8925 642.46 41.9628 640.793C41.5384 638.359 39.6513 637.26 38.5718 634.76C32.5693 620.859 40.6389 602.779 45.5466 589.111C61.565 544.501 81.5254 493.484 100.858 450.293C117.887 412.251 136.849 381.757 166.449 352.28C208.711 310.193 264.27 279.475 296.197 227.696C298.978 223.186 311.566 199.417 310.609 195.683C310.278 194.39 308.056 193.242 307.269 191.782C303.219 184.266 303.197 173.951 308.035 166.737C309.987 163.826 317.818 159.054 318.251 157.956C319.226 155.485 316.963 151.831 317.01 148.814C317.202 136.214 327.774 128.594 339.842 129.56C343.218 129.83 349.511 132.97 351.691 131.328C352.66 130.597 357.13 122.095 357.322 120.676C357.709 117.816 355.694 114.641 355.619 111.034C355.342 97.7997 367.936 78.5907 380.222 73.548C401.4 64.8553 436.184 79.5834 445.937 99.8776C453.573 115.765 443.324 142.254 427.805 149.878C422.648 152.411 415.174 151.647 412.54 157.103C410.451 161.431 415.318 161.24 418.585 164.968C422.874 169.864 423.496 177.737 421.347 183.862C419.98 187.758 414.484 191.3 414.095 193.755C413.708 196.192 415.067 198.484 415.081 200.89C415.136 210.065 409.379 221.783 400.134 224.664C397.399 225.516 393.481 225.174 391.632 226.049C386.795 228.338 376.348 267.895 374.963 274.989C363.4 334.206 378.477 371.108 383.545 427.368C388.83 486.04 368.909 556.444 349.425 611.628C343.728 627.762 337.023 644.25 328.713 659.204C329.186 661.532 342.391 660.408 345.337 660.582C355.663 661.192 366.423 662.041 376.679 663.398C381.654 664.056 386.687 665.148 391.633 665.977L384.218 667.092L381.756 668.652C392.631 668.413 402.953 668.489 413.657 670.488C415.125 670.762 415.211 669.9 415.006 672.251C404.438 671.816 393.618 672.842 383.068 672.288C377.137 671.976 370.731 669.141 364.181 670.415C353.662 672.476 341.375 670.553 331.002 672.294C329.938 672.473 328.874 672.829 328.717 674.045L348.716 676.077L367.365 681.234L293.219 681.252C246.375 693.445 198.034 688.163 150.322 685.699C128.833 684.59 104.951 685.342 83.8448 682.06C82.9167 681.915 80.4857 681.701 80.6245 680.354C90.2416 678.628 100.012 677.834 109.827 677.641L120.167 675.86L31.1849 667.758C30.7515 665.268 31.6998 666.243 33.1516 665.732C43.055 662.25 54.0312 661.515 64.438 660.569C64.8705 657.862 63.7729 659.126 62.2556 658.751C53.788 656.656 44.3155 655.764 35.6679 654.279L35.6695 651.59L40.1649 651.577C40.5491 650.67 38.0698 649.789 37.922 649.789H15ZM393.438 142.039C405.122 145.408 413.143 149.166 424.639 142.219C434.547 136.231 442.805 117.509 439.48 106.334C437.365 99.2246 425.117 88.4724 418.658 84.9116C391.073 69.7018 361.741 83.7627 363.742 116.442C363.882 118.731 365.529 120.049 365.216 122.282C364.553 127.02 354.731 138.296 354.808 142.502C354.927 148.987 362.189 143.371 363.765 140.233C363.841 143.034 359.48 146.057 362.605 148.377C364.81 150.015 378.456 156.96 381.023 157.597C385.189 158.632 387.565 156.726 390.145 157.289C390.926 157.46 390.395 159.818 392.969 159.135C393.435 159.011 398.638 152.139 398.901 151.534C401.502 145.549 395.761 146.513 393.438 142.039ZM406.175 169.111C405.969 169.228 405.633 170.823 404.584 171.561C399.596 175.073 389.408 171.131 383.755 169.235C377.045 166.985 344.124 152.248 342.397 146.776C341.675 144.489 343.199 141.461 339.617 140.708C338.654 140.505 333.998 141.118 333.205 141.581C329.897 143.511 329.468 152.994 333.673 154.603C335.63 155.352 335.307 150.156 337.256 150.136C339.044 150.119 339.655 156.546 341.755 157.304C342.38 154.739 342.027 153.844 345.344 154.609C349.037 155.46 346.392 158.728 348.955 160.894C350.941 161.484 350.256 159.174 351.154 158.594C353.672 156.966 358.103 161.537 350.29 161.814C351.006 166.991 356.138 164.091 357.477 164.895C358.436 165.471 359.546 168.444 362.24 170.075C365.44 172.013 382.859 179.331 385.756 178.908C388.091 178.566 395.392 171.413 396.144 179.778L401.523 177.982C402.339 178.903 398.69 184.95 408.082 182.281C414.87 180.352 410.048 166.911 406.175 169.111ZM408.714 149.224C405.97 146.779 397.706 157.81 396.572 159.997C395.759 161.565 396.396 161.694 397.477 162.678L402.406 158.636L408.714 149.224ZM334.112 169.906C325.835 165.059 320.158 167.25 317.035 176.175C318.876 176.881 320.28 174.653 321.251 174.522C322.411 174.367 323.212 175.935 323.787 175.972C324.724 176.032 325.917 172.806 327.817 173.493L328.255 177.97L334.112 169.906ZM343.736 177.272C340.432 178.239 339.59 181.551 341.7 184.327C344.613 188.16 369.065 198.09 374.378 198.485C378.742 198.809 382.808 194.91 380.393 190.563C380.035 189.92 377.021 188.228 376.062 187.71C371.353 185.168 355.243 178.399 350.338 177.488C348.165 177.085 345.929 176.63 343.736 177.272ZM388.948 211.224C396.005 212.679 402.758 208.131 403.008 200.758C403.104 197.918 400.004 192.078 398.354 195.024C396.421 198.475 400.211 203.042 393.896 207.64C391.822 209.15 388.656 208.694 388.948 211.224ZM366.466 210.326L363.777 207.182C359.92 206.88 336.31 196.721 335.014 197.753C333.356 199.073 336.211 199.707 336.763 200.003C339.822 201.645 365.283 211.364 366.466 210.326ZM319.728 212.119C321.179 209.332 322.645 206.384 322.415 203.141C322.17 202.808 321.43 203.633 321.088 204.051C316.102 210.131 310.134 228.377 305.203 236.699C293.529 256.403 276.065 273.804 260.055 289.96L243.33 304.23C244.26 305.695 244.722 305.275 246.008 305.223C265.062 304.449 276.802 308.553 291.386 320.896C293.385 322.588 299.933 330.62 300.589 330.782C303.742 331.562 319.215 326.114 325.521 326.23C330.187 326.315 339.609 328.465 343.985 330.318C348.611 332.277 352.033 335.962 356.578 337.94C356.311 303.935 361.091 271.55 372.974 239.749C373.877 237.332 380.8 222.865 379.95 222.018C377.07 219.148 372.5 231.885 371.414 231.881L366.92 225.625C364.255 227.791 363.464 231.306 362.203 234.372C351.219 261.083 344.5 291.229 342.191 319.966C340.622 320.175 341.346 317.925 341.301 316.834C340.63 300.6 343.028 285.955 346.954 270.353C351.426 252.581 358.72 235.849 365.456 218.852C365.317 216.995 347.327 212.03 344.541 210.406C342.477 210.885 331.95 235.777 327.826 238.189L340.273 211.461C341.456 208.069 334.744 206.499 333.298 207.728C332.88 208.084 330.69 216.125 329.772 218.125C323.534 231.71 314.165 247.305 305.733 259.697C304.996 260.78 300.882 265.026 300.868 265.601C300.769 269.668 307.262 262.92 308.033 262.454C304.329 272.83 293.725 282.465 285.582 289.877C280.875 294.161 275.281 299.692 269.389 301.988C274.781 297.021 280.631 292.661 285.593 287.191C287.349 285.254 299.092 271.504 299.533 270.511C300.346 268.682 299.234 267.394 299.59 266.015C302.54 254.578 315.708 239.354 321.369 228.597C324.94 221.812 327.468 213.233 331.274 206.415C326.579 198.319 323.459 214.897 319.728 212.119ZM368.272 225.611C369.677 226.982 374.115 224.106 373.661 221.59C373.386 220.073 368.642 219.838 368.269 220.212C368.078 220.403 368.079 225.423 368.272 225.611ZM279.834 322.119C270.633 313.817 255.159 309.426 242.948 311.06C233.456 312.33 208.059 324.673 206.644 335.039C205.733 341.714 212.641 348.758 217.862 352.163C233.156 362.137 251.876 363.371 269.389 359.522C265.601 363.952 271.167 365.078 273.353 368.58C280.692 380.333 280.8 388.516 295.545 395.822C330.657 413.218 379.625 365.543 348.503 340.18C335.447 329.54 314.885 331.716 299.719 336.363C297.15 337.15 282.788 344.042 281.974 343.327C283.29 339.312 288.009 338.247 290.958 335.693C290.294 334.757 288.564 335.513 287.357 334.814C285.227 333.581 286.757 329.826 284.23 329.819C279.74 329.807 281.711 332.771 280.893 335.515C280.051 338.339 272.234 339.666 269.389 340.631C271.218 336.52 277.089 338.581 279.238 334.701C279.429 333.571 277.055 331.485 276.136 330.749C274.707 329.605 272.47 329.525 272.09 328.068C274.118 327.7 283.26 329.102 283.767 326.697C283.923 325.954 280.563 322.777 279.834 322.119ZM297.25 333.446C299.21 331.571 292.341 324.278 290.969 325.368C288.866 328.272 294.922 335.675 297.25 333.446ZM160.102 377.866C157.731 380.734 154.874 384.136 152.684 387.075C150.455 390.067 137.782 408.514 137.381 410.502C136.603 414.363 147.475 422.336 148.978 421.14C149.686 420.576 151.55 414.9 152.68 413.133C157.574 405.484 165.437 397.973 170.88 389.988C178.309 379.09 183.382 367.803 192.52 357.702C194.024 356.04 200.397 351.052 200.661 350.524C201.748 348.352 199.366 339.53 196.1 342.407C183.484 353.617 170.878 364.826 160.102 377.866ZM219.944 363.123C213.999 360.954 209.232 356.913 204.232 353.226C202.277 356.232 202.815 359.096 201.093 362.679C196.632 371.961 186.09 377.668 182.2 387.367C183.158 388.352 187.275 383.712 188.051 382.891C191.306 379.45 202.154 363.749 204.706 362.629C206.233 361.959 210.068 363.119 211.344 364.076C213.132 365.417 212.631 367.471 212.768 367.603C213.085 367.912 221.215 364.887 219.944 363.123ZM265.784 375.689C266.479 368.63 261.795 367.473 255.911 369.408C256.354 371.212 259.435 369.818 261.309 370.737C262.892 371.514 263.606 375.138 265.784 375.689ZM238.826 378.396C228.605 374.465 224.365 377.197 217.689 384.663C215.167 387.484 200.419 408.238 199.681 410.695C198.619 414.233 198.049 422.626 203.216 422.407C204.979 422.332 212.871 417.996 214.277 416.744C216.312 414.931 236.513 384.256 238.12 380.819C238.489 380.028 238.998 379.338 238.826 378.396ZM269.377 381.982C265.892 379.366 267.592 389.301 267.51 390.386C267.14 395.285 264.127 396.375 263.976 396.984C263.436 399.158 265.466 404.231 260.987 403.363C260.171 403.205 256.449 399.373 255.914 399.954C255.072 403.528 263.135 404.117 261.291 406.243C261.121 406.439 258.737 404.919 257.708 405.35C256.275 406.791 262.623 410.906 258.998 416.08C256.307 419.922 252.499 416.448 248.719 417.038L257.686 421.971C255.549 426.14 248.838 421.218 247.011 422.501C244.804 424.05 246.795 429.774 248.714 431.399L243.325 431.417L251.924 434.973C251.695 445.48 240.408 434.492 238.829 435.9C238.381 436.3 239.964 439.475 237.041 438.594L232.546 411.643C231.298 419.698 231.076 428.073 230.916 436.171C234.896 439.278 232.15 441.119 232.666 444.224C233.525 449.385 243.467 448.719 243.354 450.769C243.328 451.247 241.537 454.5 241.35 454.61C240.692 454.997 231.309 452.667 234.334 455.659C234.69 456.011 242.581 457.802 244.036 458.103C252.576 459.871 266.826 462.512 275.253 462.859C278.242 462.982 281.498 461.787 283.308 461.956C285.474 462.159 286.257 464.982 287.803 464.655C291.315 463.911 287.37 459.999 287.381 459.712C287.408 458.992 289.827 458.768 290.084 457.738C291.079 453.762 289.65 445.312 290.295 440.176C291.026 434.349 293.701 428.831 295.467 423.318C303.648 426.611 301.612 434.147 299.955 441.287C302.903 442.284 304.794 439.098 306.894 438.743C308.122 438.536 309.705 439.585 309.832 439.503C310.845 438.853 314.122 418.141 313.319 415.793C312.814 414.32 307.416 412.983 306.216 413.808C304.585 414.931 304.787 423.857 302.658 421.524C300.755 419.439 305.427 411.524 298.159 411.641L299.949 416.554C290.964 422.026 296.357 412.561 294.122 408.927C293.686 408.217 288.504 405.731 286.94 404.425C280.894 399.381 275.216 392.816 271.026 386.186C270.281 385.007 269.557 382.118 269.377 381.982ZM356.578 389.173C355.189 387.749 349.629 393.043 349.364 395.059C349.121 396.91 350.288 399.146 350.33 401.265C351.964 484.102 323.989 568.525 291.064 643.149C290.494 644.442 289.824 645.597 290.073 647.093C290.951 648.216 301.729 637.132 302.674 636.735C303.87 636.232 305.316 637.384 306.247 636.819C309.353 634.932 319.438 610.85 321.301 605.978C341.17 554.004 361.817 478.346 359.316 422.833C358.812 411.637 356.152 400.418 356.578 389.173ZM316.137 473.65C315.085 472.544 304.344 474.563 302.199 474.544C257.918 474.151 189.498 459.83 152.609 434.476C149.61 432.415 134.438 418.568 133.22 418.83C128.623 419.817 135.635 426.498 135.314 428.133C135.156 428.937 132.228 431.657 131.874 431.408C131.614 431.225 130.208 425.953 127.41 427.855C126.344 428.58 119.243 447.49 116.683 449.938L71.8067 562.408C71.5183 563.126 71.7636 563.745 71.9744 564.43C72.6446 566.608 86.5545 579.989 89.2728 582.233C133.389 618.644 204.024 636.75 260.18 625.754C262.146 624.79 267.456 614.775 268.959 612.063C283.16 586.442 295.621 554.453 306.033 526.907C310.472 515.162 316.878 499.744 320.2 488.049C320.618 486.577 320.903 485.114 320.564 483.591C304.279 482.994 287.938 485.248 271.594 484.473C235.653 482.768 179.502 465.96 149.897 445.275C145.434 442.157 137.462 437.291 139.053 431.412C140.46 431.054 141.169 431.787 142.238 432.263C149.926 435.687 159.213 442.725 167.209 446.84C202.755 465.131 246.831 476.719 286.881 478.176C290.574 478.311 314.767 477.79 316.136 476.336C316.313 476.148 316.023 474.378 316.137 473.65ZM303.845 450.866C302.555 448.835 304.171 447.279 302.185 445.791L298.672 448.551L294.542 464.225C296.959 464.536 300.05 466.372 301.783 464.271C302.131 463.849 305.954 454.719 306.023 454.176C306.347 451.629 304.253 451.508 303.845 450.866ZM362.884 505.1C364.496 503.745 365.86 498.367 366.253 496.345C367.156 491.701 367.474 486.478 367.36 481.739L364.895 488.697L362.884 505.1ZM305.35 658.771C314.243 655.356 319.703 645.407 323.795 637.229C336.426 611.988 348.48 571.67 355.425 543.934C357.591 535.283 359.854 525.62 360.169 516.787C358.946 517.278 358.127 520.702 357.743 521.988C346.818 558.511 337.624 595.679 321.398 630.34L305.35 658.771ZM68.934 635.401C67.2554 632.192 63.0003 631.146 63.5288 626.958C63.7184 625.456 65.0294 624.217 65.1575 623.077C65.5169 619.878 64.8362 617.033 65.7591 612.911C67.1522 606.689 76.2829 587.656 76.0829 583.693C75.9994 582.039 69.8688 575.717 67.6117 576.075C64.9717 587.802 53.3053 607.366 53.5796 618.783C53.7694 626.687 61.6373 633.465 68.934 635.401ZM215.453 639.892C215.106 638.085 213.551 638.427 212.304 638.111C200.022 634.995 184.129 635.01 170.325 631.551C160.347 629.05 146.455 622.205 137.68 621.039C134.172 620.573 140.741 624.691 135.905 625.525L95.0067 623.736L106.441 629.815C138.101 641.093 170.467 650.91 204.187 653.416C208.886 653.765 214.53 653.638 219.044 652.474L174.11 644.842C184.663 642.526 195.704 646.848 206.461 646.189C206.802 644.204 206.31 644.392 204.71 643.947C197.134 641.844 187.338 642 179.5 638.995L180.808 637.517C192.177 638.559 204.115 642.055 215.453 639.892ZM284.666 630.921C283.269 629.461 277.622 638.418 276.606 639.479C269.591 646.806 264.149 647.608 255.167 650.441C253.645 650.921 252.802 650.062 253.214 652.48C269.161 653.664 280.316 646.23 284.666 630.921ZM106.681 641.724L84.2156 634.52C85.8282 637.019 105.878 645.332 106.682 644.394C106.769 644.292 106.765 641.827 106.681 641.724ZM135.003 647.093C130.167 646.378 122.295 647.093 117.025 647.093C116.858 647.093 115.424 648.539 115.679 648.879C135.507 658.9 156.444 666.255 178.414 670.196C211.554 676.141 246.363 676.825 278.566 665.704C280.478 665.044 301.688 655.986 298.149 652.489C263.454 668.221 219.772 666.483 182.911 659.409C167.465 656.444 149.536 649.239 135.003 647.093Z" fill="black"/>
<path d="M843.258 465.031C841.19 467.003 835.582 470.403 834.965 472.496C834.211 475.048 835.724 477.678 835.337 480.849C834.247 489.78 827.527 493.268 826.672 504.616C824.475 533.781 827.643 581.432 832.25 610.547C833.536 618.674 834.528 630.426 843.576 633.378C861.54 636.428 902.7 634.58 910.472 655.465C912.864 661.892 912.367 669.329 907.965 674.859C905.297 678.209 898.225 680.185 909.87 681.229C925.321 682.615 941.661 682.395 956.768 686.509C958.31 686.929 959.266 685.87 958.842 688.428L904.917 690.239C907.587 694.506 914.356 691.139 916.598 694.715C914.26 696.567 881.424 696.138 875.706 696.529C836.921 699.185 802.979 704.124 763.425 698.229C750.135 696.248 736.974 690.648 723.689 689.426C718.968 688.992 713.997 689.738 709.367 689.37C707.682 689.235 700.304 688.206 704.812 686.545C707.215 685.659 710.22 685.373 712.738 684.57C713.678 684.271 715.454 684.339 715.237 683.052C708.177 681.551 700.887 680.411 693.675 680.34C693.236 677.634 694.337 678.897 695.854 678.523C703.426 676.654 710.987 675.244 718.841 675.847C713.46 654.391 738.37 646.057 754.591 641.946C765.719 639.126 786.58 640.222 789.454 626.474C793.953 604.96 790.421 564.302 788.963 541.488C788.414 532.889 787.709 502.671 783.043 497.08C781.661 495.424 778.814 494.302 777.264 492.073C772.974 485.905 775.733 476.781 774.424 474.688C774.219 474.36 768.875 472.254 767.453 471.327C714.619 436.884 717.664 345.246 717.978 289.902C718.11 266.527 717.041 243.005 719.743 219.772C721.204 207.214 719.923 202.509 732.338 197.315C756.843 187.061 810.031 185.577 835.729 191.875C840.707 193.095 846.431 193.782 848.476 198.903C853.469 211.409 857.675 232.635 860.448 246.246C866.45 275.7 871.492 310.223 873.441 340.2C876.249 383.372 876.615 433.205 843.258 465.031ZM836.591 202.238C836.835 201.002 836.285 200.075 835.085 199.708C833.079 199.095 825.165 198.009 822.648 197.764C797.013 195.27 766.947 196.724 741.858 202.339C739.974 202.76 730.106 204.987 729.589 205.35C727.082 207.112 729.696 216.78 729.66 219.725C729.399 241.09 729.31 262.136 729.663 283.537C730.529 335.931 725.943 437.697 782.471 464.4C785.043 465.615 795.438 468.63 796.23 469.772C799.825 474.953 786.8 476.699 786.374 477.355C785.172 479.209 787.102 484.56 788.736 486.252C796.752 494.549 826.137 491.872 823.109 475.448C820.505 476.188 811.129 473.664 812.743 470.037C813.875 467.492 824.671 462.614 828.036 460.145C869.015 430.075 862.36 360.691 858.162 315.934C854.765 279.731 847.877 243.963 840.878 208.298L838.87 206.168C812.881 212.57 784.688 214.124 757.905 213.064C751.351 212.804 741.001 212.36 734.808 210.973C730.153 209.932 732.245 207.534 736.23 207.695C758.676 208.602 780.44 208.854 802.879 206.728C814.11 205.664 825.382 203.498 836.591 202.238ZM813.674 500.607C809.172 501.225 802.338 500.607 797.493 500.607C797.182 500.607 795.957 501.929 796.295 502.655C801.858 525.642 801.636 549.449 802.4 572.988C802.992 591.228 808.898 638.186 790.802 648.489C784.463 652.099 786.255 649.383 784.299 648.153C783.18 647.449 761.533 652.133 758.36 652.904C751.643 654.534 738.991 657.969 735.021 663.72C729.312 671.99 737.208 675.369 743.688 678.418C774.216 692.784 852.078 687.917 883.323 674.488C896.678 668.748 906.12 658.844 887.18 651.79C874.895 647.216 861.349 648.117 848.803 646.123C847.319 645.887 842.629 643.764 841.993 644.399C841.611 644.781 843.33 648.765 837.945 647.18C822.008 642.488 820.144 619.03 818.625 605.296C815.986 581.426 814.558 552.922 814.086 528.953C813.893 519.161 814.106 509.425 815.013 499.708C814.686 499.254 813.928 500.572 813.674 500.607Z" fill="black"/>
<path d="M653.803 439.179C651.133 441.687 645.9 445.551 642.711 447.413C640.161 448.902 631.848 451.749 630.681 453.358C628.769 455.996 629.354 463.161 626.426 467.977C624.303 471.47 621.444 472.333 619.576 474.609C614.643 480.619 606.463 527.449 604.788 538.011C601.898 556.243 597.141 586.743 599.262 604.428C599.622 607.43 601.525 610.469 604.035 612.238C610.372 616.704 629.671 620.416 638.544 624.469C650.956 630.138 665.974 641.441 657.003 656.716C655.595 659.114 649.099 663.333 650.523 665.052C651.343 666.043 669.193 665.933 671.196 670.448C665.292 673.056 653.486 669.43 648.443 672.423C647.04 673.256 646.796 674.899 646.021 675.393C644.538 676.336 628.192 675.967 624.868 675.888C571.987 674.625 519.187 672.975 466.777 664.984C465.852 664.844 463.416 664.623 463.557 663.279L467.145 661.482C450.229 659.824 432.942 660.916 415.915 658.766C416.679 657.43 420.489 656.671 421.999 656.325C441.66 651.823 462.212 648.98 482.424 649.784C480.961 645.907 477.086 643.334 475.216 639.475C464.495 617.34 494.294 607.831 510.709 606.617C521.91 605.788 542.8 609.949 550.759 600.823C557.462 593.137 563.313 561.307 565.61 550.067C568.311 536.853 579.57 477.242 575.45 468.269C574.969 467.222 572.855 465.692 571.824 463.806C567.324 455.583 571.999 449.351 570.757 446.037C569.674 443.147 565.087 440.889 563.323 438.796C521.577 389.269 545.572 278.581 560.181 220.213C562.287 211.797 571.054 177.153 576.16 172.839C582.384 167.582 612.536 167.624 621.346 168.055C639.04 168.92 680.793 175.935 694.867 186.218C701.029 190.72 698.654 201.178 699.027 208.121C700.975 244.424 699.543 281.538 695.463 317.718C691.199 355.532 682.604 412.128 653.803 439.179ZM686.481 191.467C664.63 184.827 642.58 178.167 619.548 177.042C610.892 176.619 598.298 176.347 589.8 177.032C588.223 177.159 586.856 176.85 585.811 178.44L594.102 181.812C616.509 187.345 639.418 192.362 662.616 193.298C668.804 193.548 679.322 193.999 685.147 193.257C686.387 193.099 687.826 192.718 686.481 191.467ZM584.217 184.052C583.336 183.205 583.334 180.617 581.757 179.793C578.936 179.782 570.181 229.059 568.036 234.357C560.261 286.483 532.312 397.451 579.979 435.881C582.654 438.038 594.447 443.165 590.32 447.146C586.812 450.531 578.178 444.743 582.002 456.331C585.396 466.618 609.735 470.363 615.874 461.028C620.124 454.565 614.939 455.358 611.059 453.337C608.309 451.905 604.432 449.141 607.602 446.003C608.597 445.018 623.993 441.37 627.762 439.656C662.163 424.02 672.299 379.961 678.126 346.219C684.685 308.238 688.209 268.146 689.213 229.689C689.394 222.748 690.319 206.813 689.175 200.895C688.374 196.746 683.782 199.487 680.674 199.584C663.298 200.131 641.468 197.732 624.268 194.79C618.158 193.745 587.361 187.077 584.217 184.052ZM601.769 626.159C597.458 628.695 588.652 618.442 587.234 614.656C585.008 608.715 585.464 595.787 585.765 589.09C586.581 570.994 590.889 549.031 594.134 530.954C597.338 513.109 601.336 495.341 605.575 477.723C604.934 476.747 604.607 476.658 603.522 476.565C600.856 476.336 597.388 476.745 594.426 476.255C592.058 475.864 590.071 474.402 587.605 474.548C585.205 506.604 580.759 539.475 573.832 570.869C571.405 581.871 565.541 608.43 556.356 614.747C555.132 615.589 547.654 619.05 546.518 619.104C544.081 619.218 544.904 616.299 544.332 615.775C542.959 614.518 532.296 617.405 529.619 617.434C518.476 617.552 509.086 616.483 497.672 619.644C490.278 621.692 482.097 628.29 488.709 635.87C510.729 661.111 611.061 671.157 638.967 653.963C653.535 644.987 638.304 637.099 628.835 633.277C625.888 632.087 603.91 624.374 602.539 624.578C601.959 624.664 602.01 626.017 601.769 626.159Z" fill="black"/>
<path d="M444.46 512.523C447.257 512.113 451.261 511.984 454.035 512.368C475.349 515.316 472.832 549.727 444.324 546.338C421.947 543.679 424.346 515.473 444.46 512.523ZM458.754 537.149C463.246 532.456 462.907 522.735 457.584 518.706C446.395 510.238 430.048 522.216 436.087 534.806C439.638 542.208 453.685 542.445 458.754 537.149Z" fill="black"/>
<path d="M438.383 645.304C438.043 646.938 436.616 646.974 435.27 647.126C431.096 647.594 426.124 646.837 421.762 647.102C397.033 648.602 374.595 649.892 349.809 647.125C348.463 646.975 347.035 646.938 346.696 645.305C377.106 640.602 407.864 643.14 438.383 645.304Z" fill="black"/>
<path d="M714.959 521.896C708.657 529.057 692.252 527.866 687.922 518.487C680.49 502.387 702.871 491.227 714.806 501.495C720.613 506.491 719.693 516.517 714.959 521.896ZM700.615 501.716C689.813 503.959 687.906 519.725 701.574 521.082C716.544 522.568 718.556 497.991 700.615 501.716Z" fill="black"/>
<path d="M920.509 553.947C931.391 543.785 955.517 554.828 947.042 570.136C939.333 584.057 912.295 579.182 916.982 559.855C917.38 558.214 919.305 555.071 920.509 553.947ZM925.858 555.703C925.541 555.926 923.351 559.142 923.114 559.69C917.181 573.423 937.854 577.368 942.22 567.102C946.378 557.324 933.694 550.199 925.858 555.703Z" fill="black"/>
<path d="M993 672.265C992.591 673.604 988.36 673.949 987.15 674.041C978.378 674.713 969.282 672.967 960.64 674.959L961.092 676.753C946.188 677.096 931.268 675.994 916.589 673.603C941.142 664.608 967.669 670.331 993 672.265Z" fill="black"/>
<path d="M925.349 288.733C927.299 288.4 929.464 288.329 931.433 288.515C951.119 290.372 944.2 319.877 922.489 312.733C910.604 308.822 912.641 290.901 925.349 288.733ZM926.223 292.305C919.756 293.792 917.227 303.91 924.062 307.562C939.057 315.573 945.245 287.932 926.223 292.305Z" fill="black"/>
<path d="M890.805 161.173C896.357 155.022 913.041 156.435 914.608 166.074C917.7 185.085 884.202 185.661 888.036 166.944C888.222 166.038 890.218 161.824 890.805 161.173ZM899.291 161.12C889.285 163.772 891.963 179.883 904.962 175.773C913.419 173.099 910.226 158.222 899.291 161.12Z" fill="black"/>
<path d="M488.491 431.626C495.246 429.908 505.109 431.735 505.842 439.947C507.566 459.261 475.364 455.477 481.125 438.636C481.842 436.539 486.341 432.173 488.491 431.626ZM491.164 435.192C485.726 436.428 483.43 446.35 491.029 447.532C504.375 449.607 503.273 432.442 491.164 435.192Z" fill="black"/>
<path d="M485.783 329.152C486.877 329.064 494.348 329.771 495.282 330.036C501.849 331.902 501.712 342.944 495.85 346.42C478.484 356.717 470.664 330.377 485.783 329.152ZM486.656 332.742C482.372 334.015 480.607 339.802 485.174 342.838C495.061 349.408 500.806 328.536 486.656 332.742Z" fill="black"/>
<path d="M934.339 402.868C944.933 401.165 953.278 411.007 945.745 419.656C940.914 425.202 927.652 423.462 925.964 415.237C925.861 414.734 928.473 405.789 928.735 405.347C929.338 404.333 933.058 403.073 934.339 402.868ZM934.335 406.425C928.323 407.739 928.483 417.627 936.128 418.652C945.995 419.974 946.153 403.842 934.335 406.425Z" fill="black"/>
<path d="M919.923 362.477C927.337 372.687 908.24 380.095 904.488 371.178C900.286 361.194 914.971 355.658 919.923 362.477ZM908.641 370.164C910.24 372.698 919.553 370.546 916.16 364.891C913.249 360.041 905.647 365.418 908.641 370.164Z" fill="black"/>
<path d="M724.902 597.892C739.804 594.059 742.301 614.801 724.737 611.986C717.336 610.8 718.297 599.591 724.902 597.892ZM727.5 600.595C723.614 601.011 721.089 606.421 725.991 608.053C733.941 610.699 734.68 599.827 727.5 600.595Z" fill="black"/>
<path d="M492.087 570.032C506.256 566.385 505.375 585.186 490.986 582.364C483.623 580.92 486.101 571.573 492.087 570.032ZM497.643 573.47C495.921 571.038 488.106 574.652 491.539 578.676C494.783 580.351 499.528 576.136 497.643 573.47Z" fill="black"/>
<path d="M662.849 581.684C677.925 578.163 674.244 597.145 662.362 593.471C656.308 591.599 657.647 582.899 662.849 581.684ZM663.341 589.374C665.948 592.047 672.404 587.582 667.615 584.608C664.493 582.668 660.57 586.531 663.341 589.374Z" fill="black"/>
<path d="M691.868 658.785C691.05 660.271 686.728 660.508 685.166 660.609C682.944 660.753 663.111 660.837 663.099 659.225C672.613 655.666 682.171 657.845 691.868 658.785Z" fill="black"/>
<path d="M461.758 637.211C463.242 638.331 461.659 638.849 460.421 639.007C454.162 639.803 443.697 638.36 437.493 636.738C436.469 636.471 434.573 636.801 434.791 635.419C444.232 633.05 452.439 636.57 461.758 637.211Z" fill="black"/>
<path d="M453.664 674.961C452.036 677.865 445.125 677.43 442.882 675.397L453.664 674.961Z" fill="black"/>
<path d="M664.003 674.957C665.462 676.066 663.986 676.584 662.675 676.751C660.018 677.09 656.857 676.516 654.124 676.74C654.526 674.415 663.593 674.645 664.003 674.957Z" fill="black"/>
<path d="M258.602 500.598C214.594 495.832 170.514 482.67 134.99 455.854C133.92 455.94 131.666 459.968 131.349 461.047C130.163 465.082 133.165 464.017 135.54 465.938C136.583 466.782 137.039 469.021 137.878 469.205C142.228 470.161 142.596 465.295 144.693 474.304L160.617 484.422C156.914 483.977 152.811 481.635 149.545 479.778C147.453 478.589 137.494 472.449 136.404 471.344C134.664 469.578 135.012 466.916 131.871 466.456C131.192 469.305 126.233 486.873 127.368 488.021C127.88 488.54 129.697 488.025 130.49 487.07C131.167 486.255 130.371 483.047 132.741 484.864L114.769 533.858C112.23 532.934 112.822 529.485 113.194 527.331C114.986 516.966 122.06 507.61 124.474 498.165C124.843 496.722 124.585 493.358 122.877 495.213C122.736 495.367 122.521 498.102 122.005 499.285C117.787 508.966 113.67 518.851 108.485 528.016L100.4 535.651C100.246 533.95 100.943 532.46 101.503 530.92C109.75 508.224 120.399 490.299 125.801 466.244C126.082 464.994 132.477 451.432 133.285 451.202C134.864 450.751 151.395 462.919 154.625 464.814C188.99 484.971 219.703 487.015 255.728 498.538C256.885 498.908 258.356 499.166 258.602 500.598Z" fill="black"/>
<path d="M246.013 611.154C246.191 612.456 243.571 612.526 242.62 612.687C200.375 619.838 132.494 598.544 99.9703 570.68C98.482 569.405 91.0099 562.996 90.4447 562.232C87.7076 558.535 93.7735 547.75 96.7913 544.643C97.186 547.757 92.4035 556.761 92.6091 558.594C92.8284 560.548 113.957 576.496 117.197 578.621C154.302 602.951 202.024 612.276 246.013 611.154Z" fill="black"/>
<path d="M298.147 497.914C298.984 498.911 295.635 508.587 294.99 510.475C285.065 539.513 272.511 567.872 259.839 595.757L252.319 607.547C252.004 605.967 252.588 604.751 253.026 603.323C256.388 592.369 264.352 579.015 268.927 567.996C277.642 547.005 285.717 525.249 292.807 503.778C292.155 499.564 285.034 502.524 281.557 502.421C279.376 502.357 275.008 501.728 272.647 501.394C271.509 501.233 267.756 501.029 267.596 499.718C277.778 499.8 288.048 499.265 298.147 497.914Z" fill="black"/>
<path d="M105.602 549.356C105.839 549.49 108.944 553.194 109.043 553.566C109.777 556.35 107.74 558.943 108.908 560.808L130.059 576.986L116.696 570.135C114.35 568.72 101.119 559.91 100.336 558.636C97.9732 554.795 101.773 547.175 105.602 549.356ZM106.613 557.149C107.569 555.496 106.561 550.892 103.55 551.84C102.131 552.287 101.691 556.165 102.268 557.149C102.637 557.779 106.25 557.778 106.613 557.149Z" fill="black"/>
<path d="M161.52 492.51C153.707 490.922 148.151 483.118 139.947 483.536L143.525 487.576C141.837 490.676 138.642 487.043 138.39 484.768C138.159 482.669 140.208 479.614 139.955 477.24L143.475 478.657L161.52 492.51Z" fill="black"/>
<path d="M224.893 604.855C224.524 604.803 222.322 603.971 222.65 603.066C228.912 602.197 235.183 601.937 241.518 602.163C242.299 603.666 239.983 604.855 239.276 604.855C234.963 604.855 228.891 605.413 224.893 604.855Z" fill="black"/>
<path d="M237.033 598.559C236.567 595.882 237.738 597.136 239.136 596.669C241.489 595.882 243.889 595.513 246.009 594.07C245.335 598.767 240.877 598.979 237.033 598.559Z" fill="black"/>
<path d="M142.635 544.638C138.91 545.445 139.479 538.294 141.296 538.37C144.052 540.283 143.624 541.81 142.635 544.638Z" fill="black"/>
<path d="M128.255 565.329C128.762 565.901 128.406 567.737 126.925 567.102C125.511 566.496 120.133 562.069 118.374 560.828C119.931 560.492 127.703 564.706 128.255 565.329Z" fill="black"/>
<path d="M341.301 362.217C337.588 370.259 334.868 382.07 323.328 380.172C324.652 377.65 329.734 376.879 331.385 375.211C332.323 374.264 332.428 372.708 333.209 371.642L341.301 362.217Z" fill="black"/>
<path d="M239.721 323.574L228.907 329.375C226.501 332.304 227.643 336.409 226.696 339.737C217.753 330.388 231.599 324.332 239.721 323.574Z" fill="black"/>
<path d="M299.044 375.689C295.007 371.762 290.183 363.963 294.114 358.619C295.922 361.37 294.953 364.951 295.658 367.85C296.323 370.581 298.878 372.759 299.044 375.689Z" fill="black"/>
<path d="M238.821 345.147C237.723 347.525 232.281 347.752 231.635 345.143L234.342 344.675L232.543 340.641L238.821 345.147Z" fill="black"/>
<path d="M339.267 347.169C340.536 348.549 341.326 353.017 341.292 355.019L335.912 346.477C336.353 345.306 338.834 346.697 339.267 347.169Z" fill="black"/>
<path d="M284.67 368.491C282.088 368.928 283.181 367.946 282.755 366.423C281.734 362.771 281.96 360.457 282.883 356.822L284.67 368.491Z" fill="black"/>
<path d="M425.488 138.124C418.956 143.733 410.077 142.187 402.427 140.222C405.907 136.037 416.197 140.475 419.971 136.653C423.37 133.212 416.594 136.354 416.259 136.395C414.65 136.597 409.945 135.556 410.521 133.047C412.345 132.939 414.419 133.379 416.179 132.861C422.063 131.131 414.148 117.777 418.597 115.069C418.774 117.102 419.738 126.754 421.753 126.734C432.061 115.429 416.403 109.748 407.824 105.587C406.525 104.956 405.576 105.775 406.026 103.391C414.923 104.375 422.528 111.834 431.682 112.412C433.522 112.528 437.622 110.333 438.374 112.831C439.408 116.268 434.564 115.542 433.941 117.432C433.454 118.91 434.793 120.935 434.734 122.641C434.604 126.428 428.373 135.647 425.488 138.124Z" fill="black"/>
<path d="M381.747 90.8092L373.235 103.407C371.498 108.265 371.337 112.067 374.555 116.423C374.968 117.714 371.655 116.704 371.024 112.769C370.253 107.963 371.218 103.368 373.477 99.1572C374.261 97.6956 379.829 89.0848 381.747 90.8092Z" fill="black"/>
<path d="M396.13 95.2945C394.808 96.6068 387.173 89.749 388.049 87.2154C389.027 86.173 397.158 94.2737 396.13 95.2945Z" fill="black"/>
<path d="M243.317 442.202C245.649 445.33 235.348 446.12 236.134 441.757C236.484 439.813 243.098 441.908 243.317 442.202Z" fill="black"/>
<path d="M844.676 411.631C843.068 411.836 843.805 409.616 843.899 408.61C844.783 399.207 846.971 389.36 847.43 379.759C845.889 357.322 846.645 334.734 843.776 312.342C843.34 308.938 842.487 300.308 841.319 297.727C839.563 293.848 837.007 297.294 834.105 298.158C819.978 302.362 805.542 305.887 790.756 306.48C790.86 305.249 794.077 304.225 795.018 304.013C807.171 301.278 819.899 300.471 831.2 294.796C831.051 293.7 830.239 293.228 829.171 293.216C825.573 293.177 819.527 295.305 815.459 295.692C793.787 297.754 772.305 299.284 750.965 304.008L748.508 307.384C756.461 308.072 764.268 309.754 772.313 309.196L779.062 310.974C772.374 311.763 765.571 312.291 758.798 311.924C753.536 311.639 744.59 307.174 744.875 314.084C745.747 335.232 747.965 362.235 751.461 383.066C756.047 410.398 770.509 447.737 802.437 450.288C800.291 453.871 790.856 450.69 787.569 449.418C750.589 435.1 746.151 372.491 743.999 339.301C742.479 315.848 741.23 291.804 741.275 268.332C741.301 254.134 742.53 239.784 743.119 225.612L744.945 235.905C746.562 256.005 741.612 279.159 743.966 298.894C744.149 300.429 744.142 302.005 746.213 302.006C747.22 302.006 754.262 299.346 756.584 298.842C765.405 296.925 776.247 294.319 784.998 293.099C800.819 290.892 818.621 291.734 834.29 289.357C835.708 289.142 836.95 288.6 838.015 287.636C832.951 265.361 829.323 242.587 827.602 219.77L828.97 220.2C837.212 259.328 845.643 298.324 848.272 338.402C849.87 362.774 850.375 387.804 844.676 411.631Z" fill="black"/>
<path d="M816.815 274.133C814.757 274.481 815.06 273.956 814.586 272.369C811.317 261.426 811.789 246.526 811.422 235.055C811.341 232.517 809.106 229.584 811.88 227.41C815.621 242.647 816.715 258.437 816.815 274.133Z" fill="black"/>
<path d="M786.849 431.734C790.196 434.288 790.609 435.266 795.069 437.466C796.274 438.06 797.542 436.894 797.045 439.487C791.805 441.109 789.119 440.196 785.868 435.842C784.092 433.463 781.637 427.757 786.849 431.734Z" fill="black"/>
<path d="M833.894 381.974C830.984 382.948 832.592 377.752 829.868 378.389C828.753 378.649 826.801 389.258 821.319 387.366C819.999 386.214 826.609 381.297 827.129 380.153C827.928 378.392 827.098 376.119 828.956 374.807C831.127 377.389 834.858 377.724 833.894 381.974Z" fill="black"/>
<path d="M838.393 307.398C833.371 311.158 826.962 316.049 820.42 315.468L834.465 308.405L838.393 307.398Z" fill="black"/>
<path d="M767.38 372.984C762.32 369.991 762.69 382.974 759.713 378.416C757.078 374.382 764.768 366.438 767.38 372.984Z" fill="black"/>
<path d="M799.74 405.337C797.762 405.624 796.976 403.162 794.874 403.479C794.033 403.607 792.288 410.061 790.757 408.037C789.537 406.425 792.25 401.191 793.932 399.955L799.74 405.337Z" fill="black"/>
<path d="M797.939 360.407C793.478 359.561 794.994 361.312 792.999 363.988C790.962 362.087 790.598 359.329 791.719 356.877C792.935 356.012 798.583 357.737 797.939 360.407Z" fill="black"/>
<path d="M830.307 346.937C833.306 344.196 837.865 355.144 834.349 355.001C832.904 354.943 829.725 347.468 830.307 346.937Z" fill="black"/>
<path d="M822.209 328.055C820.001 328.139 814.936 321.717 818.184 320.871C821.957 319.888 822.818 325.558 822.209 328.055Z" fill="black"/>
<path d="M822.204 417.025C820.762 417.042 820.279 413.446 819.067 413.451C818.783 413.452 813.47 418.786 815.033 414.798C817.546 408.383 823.26 410.219 822.204 417.025Z" fill="black"/>
<path d="M778.163 340.644L779.061 349.622C774.704 349.22 775.037 345.124 776.274 341.89C776.741 340.672 775.964 340.342 778.163 340.644Z" fill="black"/>
<path d="M836.591 343.332C834.253 343.764 835.008 342.897 834.385 341.544C829.19 330.249 838.11 333.789 836.591 343.332Z" fill="black"/>
<path d="M790.735 328.964C791.477 329.54 794.852 335.886 792.091 337.037C788.094 338.703 790.916 330.803 788.955 328.965C789.505 329.015 790.545 328.817 790.735 328.964Z" fill="black"/>
<path d="M856.373 657.886C857.465 658.944 856.216 659.495 855.257 659.904C849.731 662.264 830.852 658.68 823.551 658.712C816.091 658.744 805.109 659.769 797.499 660.578C788.873 661.496 780.36 663.389 771.881 665.063C770.246 663.451 777.889 659.479 778.89 659.048C795.064 652.088 826.722 651.254 843.972 654.546C845.612 654.859 855.912 657.439 856.373 657.886Z" fill="black"/>
<path d="M809.625 505.103C809.847 508.313 809.537 511.483 808.751 514.596C808.37 516.1 809.655 517.217 806.937 516.781C807.722 512.62 802.903 504.693 809.625 505.103Z" fill="black"/>
<path d="M578.615 266.045C586.73 264.861 595.116 264.975 603.241 266.139C618.001 268.254 633.698 275.782 648.505 277.504C655.864 278.36 664.734 277.899 672.155 278.236C673.223 277.492 673.547 267.212 673.916 264.705C674.147 263.138 673.445 263.193 675.688 263.358L673.88 292.547C669.398 321.712 665.203 350.974 656.805 379.279C655.224 379.481 655.808 376.128 655.973 375.299C658.864 360.822 663.268 347.286 665.695 331.994C667.672 319.54 670.831 302.042 671.212 289.838C671.362 285.021 671.434 282.767 666.269 282.226C658.661 281.429 651.333 282.207 643.144 281.066C626.257 278.714 609.085 271.016 592.429 269.76C588.844 269.49 572.968 268.349 580.855 274.142C586.583 278.349 604.679 281.128 612.319 283.126C613.56 283.45 615.119 283.1 615.466 284.913C608.434 284.74 600.596 284.432 593.711 282.857C587.829 281.511 583.479 277.983 577.736 276.848C575.016 285.42 575.151 294.408 574.008 303.236C569.942 334.626 559.947 404.223 595.977 420.787C610.647 427.531 626.824 422.251 637.624 411.323C641.715 407.184 644.367 401.858 647.818 397.259C643.732 411.262 625.091 426.813 610.511 427.795C572.849 430.333 564.606 381.072 565.091 352.736C565.686 317.919 573.009 275.765 579.929 241.755C582.519 229.021 585.992 212.203 590.534 200.233C590.963 199.101 592.085 197.306 592.088 199.979L578.615 266.045Z" fill="black"/>
<path d="M665.814 275.036C664.938 265.166 666.722 255.556 667.596 245.822C668.534 235.368 668.959 221.032 671.451 211.032C671.833 209.499 672.081 207.255 673.886 206.736C673.528 214.559 674.409 222.758 673.886 230.542C673.205 240.657 671.087 255.309 669.117 265.317C668.53 268.297 668.346 273.242 665.814 275.036Z" fill="black"/>
<path d="M647.836 355.019L645.678 352.421L638.843 359.509C637.591 355.442 642.604 349.381 646.069 348.275C648.211 347.592 650.733 349.975 653.211 346.932L647.836 355.019Z" fill="black"/>
<path d="M646.919 250.766C645.345 250.975 646.081 248.733 646.033 247.638C645.944 245.624 645.864 243.338 646.043 241.349C646.707 233.991 647.863 224.628 648.953 217.298C649.168 215.857 649.847 211.794 651.413 211.232C651.035 224.551 647.617 237.575 646.919 250.766Z" fill="black"/>
<path d="M653.682 300.551C655.202 300.615 656.722 302.282 657.711 303.357C657.307 306.859 654.992 304.424 652.788 304.604C649.559 304.867 648.373 305.87 645.758 306.677C644.075 307.196 643.849 307.994 642.438 306.027C642.084 304.242 652.463 300.5 653.682 300.551Z" fill="black"/>
<path d="M587.395 335.453C588.28 336.362 590.002 344.555 589.393 345.134C586.101 348.27 586.48 338.514 584.964 337.44C582.991 336.043 580.87 337.091 580.423 339.306C577.397 339.697 579.066 335.132 581.01 334.481C582.466 333.993 586.343 334.374 587.395 335.453Z" fill="black"/>
<path d="M631.642 328.063C632.299 330.209 631.01 341.163 627.614 340.636C625.23 340.265 628.817 336.502 627.958 333.996C627.508 332.685 623.886 332.552 625.361 330.772C625.579 330.509 631.029 327.411 631.642 328.063Z" fill="black"/>
<path d="M602.875 412.558C603.171 412.894 603.683 415.34 601.533 415.25C596.451 415.036 589.687 411.323 591.205 405.346C593.387 406.771 593.822 409.112 596.272 410.604C598.116 411.727 602.648 412.299 602.875 412.558Z" fill="black"/>
<path d="M607.371 373.908C607.896 374.649 606.851 376.25 605.895 376.511C602.321 377.485 594.575 368.999 600.193 367.135C600.038 371.306 606.869 373.198 607.371 373.908Z" fill="black"/>
<path d="M597.484 381.984C597.375 383.794 597.443 385.439 598.161 387.146C599.333 389.926 602.251 389.106 601.978 391.861C595.698 393.8 591.2 384.007 597.484 381.984Z" fill="black"/>
<path d="M656.683 310.217C658.051 311.024 658.259 319.362 656.371 320.864L653.209 310.544C653.205 309.773 656.073 309.857 656.683 310.217Z" fill="black"/>
<path d="M620.859 406.253C620.568 408.716 613.921 415.066 611.875 413.429C610.245 412.125 613.129 411.44 613.571 411.115C614.632 410.335 620.228 405.67 620.859 406.253Z" fill="black"/>
<path d="M631.642 382.883C632.194 383.426 629.901 386.982 629.196 387.433C626.881 388.913 620.617 386.883 624.89 385.568C627.599 384.734 629.145 383.876 631.642 382.883Z" fill="black"/>
<path d="M621.759 360.401C623.552 359.411 625.994 352.375 626.703 352.34C630.225 352.168 625.634 362.149 621.759 360.401Z" fill="black"/>
<path d="M613.664 313.683C614.718 314.79 609.49 321.301 608.28 319.965C607.125 317.848 612.704 312.677 613.664 313.683Z" fill="black"/>
<path d="M526.475 631.807C526.724 630.648 527.958 629.907 528.875 629.272C543.84 618.903 589.411 627.562 605.9 634.64C607.508 635.33 617.2 640.266 617.246 641.252C617.295 642.294 615.244 642.531 614.234 642.525C607.392 642.484 591.488 636.245 583.332 634.735C564.545 631.255 545.526 631.699 526.475 631.807Z" fill="black"/>
<path d="M524.673 647.987C523.08 649.388 506.934 641.576 504.583 639.772C503.495 638.936 502.19 637.316 503.108 636.313C503.781 635.578 508.496 639.453 509.687 640.061C513.537 642.027 518.817 643.393 522.486 645.24C523.196 645.597 525.91 646.898 524.673 647.987Z" fill="black"/>
<path d="M599.281 481.74C599.972 482.37 596.961 491.151 594.8 491.62C595.051 487.547 593.172 480.352 599.281 481.74Z" fill="black"/>
</g>
<defs>
<clipPath id="clip0_184_82">
<rect width="978" height="630" fill="white" transform="translate(15 71)"/>
</clipPath>
</defs>
</svg>
