<svg width="960" height="720" viewBox="0 0 960 720" fill="none" xmlns="http://www.w3.org/2000/svg">
<path d="M225.223 180.255C225.664 175.151 228.88 164.848 232.905 161.513C233.901 160.688 235.036 159.709 235.925 161.205C231.322 172.329 232.115 184.019 233.951 195.666L239.266 195.697C237.067 187.862 240.927 178.324 245.407 171.827C247.847 168.288 251.376 163.996 255.986 163.497L250.8 181.071C251.082 184.252 246.113 196.669 252.821 195.587C253.582 195.464 254.352 194.641 255.137 194.53C286.389 190.114 307.773 180.533 336.908 171.701C347.854 168.383 356.364 167.718 367.312 166.087C373.255 165.202 376.061 160.96 379.681 159.838C382.268 159.036 389.46 159.848 386.113 155.568C384.044 152.921 375.035 149.702 377.201 145.885C379.069 142.592 387.098 147.03 389.753 148.049C400.657 152.233 418.983 160.815 428.206 168.103C430.906 170.237 434.418 172.898 435.113 176.477C435.554 178.75 433.097 184.157 433.959 185.128C434.256 185.463 441.028 187.567 442.391 188.339C467.268 202.433 464.983 244.393 453.416 266.482C447.586 277.616 430.993 293.085 418.145 294.912C414.944 295.367 410.777 293.515 408.444 296.561C406.759 298.762 406.319 306.714 405.647 309.586C405.137 311.769 402.428 317.696 402.468 318.993C402.517 320.563 408.717 322.751 410.283 323.746C419.619 329.675 419.86 337.863 421.342 347.715C421.471 348.573 422.369 349.438 422.49 350.53C423.078 355.828 422.005 361.76 422.673 367.119C424.819 369.243 427.561 369.689 429.823 370.93C448.231 381.027 462.467 389.548 471.202 409.797C473.918 416.091 475.678 419.058 478.625 424.85C487.572 442.432 488.087 464.72 490.797 483.876C493.673 504.198 499.206 527.124 496.707 547.624C495.904 554.215 495.888 558.914 495.456 565.456C494.227 584.092 489.164 602.208 491.395 620.662C493.392 637.171 495.178 658.932 488.091 674.559C485.647 679.946 481.165 683.467 474.953 684.039C473.36 684.186 468.134 681.773 467.958 681.01C467.749 680.11 468.769 674.836 469.198 673.739C470.307 670.897 474.377 668.606 476.205 666.165C482.447 657.827 479.762 646.799 478.377 637.406C473.672 641.954 472.657 649.342 470.144 654.949C466.324 663.471 456.282 678.308 448.833 683.961C444.543 687.216 440.323 688.124 435.917 684.4L445.565 674.848C447.049 673.103 447.391 670.624 449.554 669.579L452.617 662.381C451.115 664.091 448.814 664.735 447.244 665.966C440.345 671.376 434.565 677.56 425.873 681.115C420.573 683.282 410.784 683.108 404.958 684.223C400.664 685.045 396.153 690.414 392.443 685.714C393.829 684.393 397.036 682.109 397.775 680.447C398.841 678.052 395.246 680.793 394.914 680.926C387.621 683.837 372.169 690.874 365.3 691.917C363.873 692.134 360.071 692.205 358.788 691.827C358.538 691.753 354.784 688.891 354.647 688.671C351.531 683.663 363.41 681.026 355.297 677.495C350.625 678.023 345.981 678.902 341.332 679.536C333.488 680.606 325.434 681.269 317.828 684.044C315.046 685.058 313.756 687.545 310.138 686.413C309.557 686.231 305.596 683.816 305.186 683.377C302.635 680.641 306.936 680.972 307.436 679.02C307.827 677.491 304.516 675.531 307.108 673.503C307.836 672.933 314.449 670.919 316.012 670.428C322.005 668.549 328.153 666.614 334.184 664.611C335.078 664.314 337.416 663.767 336.914 662.384C331.605 661.28 327.658 663.784 323.05 664.856C312.802 667.242 301.898 668.441 292.294 673.41C287.921 675.673 281.605 682.123 276.526 680.642C274.889 680.165 273.296 678.033 274.656 676.456C275.201 675.825 280.1 673.32 281.367 672.531C282.159 672.039 282.657 671.01 283.446 670.612C284.265 670.198 285.902 670.36 286.041 670.218C286.135 670.123 286.186 667.731 286.092 667.641C285.81 667.369 281.669 668.486 283.718 665.64C284.694 664.285 292.877 662.319 294.621 661.224C295.646 660.581 296.147 659.146 296.596 659.056C299.591 658.455 302.759 657.999 305.984 657.286C309.635 656.479 313.863 656.556 317.516 655.142C316.684 653.455 312.783 653.672 311.133 653.803C308.973 653.975 293.786 659.126 290.938 660.247C281.146 664.097 271.999 670.413 262.631 675.152C259.734 676.618 248.818 677.549 252.597 672.518L277.391 657.129C274.174 656.138 273.147 658.379 271.096 659.151C263.617 661.967 256.182 664.545 248.815 668.147C241.73 671.612 234.847 676.972 226.707 677.969C224.569 678.23 219.696 679.255 219.987 675.994C220.255 672.99 225.469 673.289 227.709 672.382C230.117 671.407 235.865 668.299 238.159 666.877C239.093 666.297 243.721 662.972 244.172 662.434C244.948 661.509 244.608 660.803 244.612 659.751C241.64 662.571 238.839 661.749 235.749 662.537C231.222 663.692 223.943 667.98 218.9 669.641C216.859 670.312 210.951 672.284 209.316 671.826C207.966 671.447 207.237 670.187 205.831 670.271L205.187 688.892C202.932 690.054 199.626 693.45 199.107 689.033C198.576 684.529 198.674 673.874 199.145 669.288C199.413 666.687 200.797 664.296 201.09 661.997C202.471 651.163 201.919 638.004 203.859 627.252C204.47 623.864 207.423 622.179 204.522 617.325C204.024 616.492 196.35 610.498 195.798 611.115C195.481 614.578 196.214 618.599 195.816 621.977C193.778 639.234 190.092 659.75 190.552 677.192C190.596 678.86 191.933 680.344 191.831 682.423C191.729 684.503 189.723 688.127 189.767 690.639L186.28 685.863C184.351 681.24 183.792 672.89 184.404 667.947C185.912 655.769 186.42 643.049 187.803 630.535C188.398 625.147 190.239 620.111 189.774 614.058C189.699 613.082 190.298 612.157 188.781 612.431C187.392 614.508 183.568 615.614 183.104 618.03C182.556 620.886 183.478 624.881 183.108 627.893C181.946 637.356 180.592 647.254 178.824 656.548C178.508 658.209 178.501 667.817 175.071 665.664C174.147 665.084 175.269 660.727 173.382 661.055C167.978 661.994 160.11 675.311 152.159 672.066C146.93 669.931 154.369 665.823 152.986 664.355C152.205 663.525 148.1 667.048 147.13 667.463C144.343 668.655 141.217 667.908 139.436 668.4C138.59 668.633 134.573 672.484 133.597 671.579L137.828 665.228L147.634 655.47C146.653 652.271 144.459 655.972 144.263 656.07C135.374 660.519 130.43 666.681 120.418 670.793C118.38 671.63 113.14 675.601 112.359 671.098C111.59 666.667 114.055 666.431 114.736 663.836C115.115 662.388 114.288 659.74 115.529 657.78C112.44 661.01 107.938 658.688 105.49 659.353C103.456 659.906 99.1041 665.074 96.4754 665.08C95.3347 665.083 92.9942 663.679 92.9691 662.723C92.9499 661.992 97 655.909 97.4772 654.499C95.4419 654.245 94.0674 655.841 92.2943 656.312C91.6187 656.492 90.5081 655.836 90.0932 656.098C89.1871 656.671 89.2116 664.48 89.4219 666.024C89.7252 668.253 91.234 669.528 91.4805 672.541C91.8231 676.728 90.3667 679.328 90.0991 683.059C89.8339 686.756 92.9222 696.681 85.9119 694.448C84.6374 694.042 81.5279 690.239 80.7707 688.987C75.6051 680.447 76.6918 655.373 77.4194 644.969C77.9148 637.884 79.298 630.819 80.1087 623.949C80.8698 617.499 81.0477 607.215 73.9011 604.374C70.6217 603.071 65.5734 602.458 62.2603 601.354C54.0782 598.627 46.2765 594.664 39.7293 589.647C23.9486 577.553 11.3458 554.11 13.1773 533.852C15.4764 508.421 19.1769 479.845 32.0193 457.207C41.442 440.597 53.1681 421.356 65.3901 406.38C77.0805 392.055 89.2002 383.347 104.903 373.566C106.276 372.711 111.51 370.576 112.259 369.622C113.17 368.462 112.715 366.382 113.367 364.795C116.255 357.759 124.089 344.568 129.038 338.756C131.064 336.377 133.734 333.791 136.313 331.971C136.892 329.245 131.744 324.584 130.342 322.14C128.314 318.607 125.27 310.818 123.871 306.809C118.509 291.447 119.007 273.593 123.055 257.975C128.128 238.409 138.044 220.13 151.647 205.223C151.874 203.76 151.383 204.464 150.666 204.24C143.172 201.901 134.251 196.594 137.623 187.501C139.276 183.045 147.122 175.365 150.843 172.047C152.603 170.478 159.362 166.188 159.998 164.794C160.82 162.995 160.1 160.631 160.427 158.642C162.569 145.582 167.697 133.272 169.752 120.481C170.991 112.765 183.05 105.224 189.593 101.858C197.557 97.7609 210.326 92.7453 219.027 90.6887C220.819 90.2652 222.743 90.8226 224.594 90.2467C226.922 89.5228 236.997 79.8543 241.056 77.5018C253.299 70.4063 272.819 64.9051 287.118 66.1861C291.232 66.5546 294.631 69.3124 297.888 69.4617C313.259 70.1663 322.834 67.5192 338.956 71.7694C340.081 72.0662 347.338 74.4072 347.616 74.7664C349.989 77.8349 339.857 76.6751 339.309 76.7473C335.329 77.2715 329.34 79.5756 325.234 80.038C318.96 80.7444 312.172 78.7333 306.153 81.3397C305.96 81.5821 307.028 82.6464 307.154 82.6464H331.232C332.28 82.6464 348.442 87.2778 351.16 88.0392C352.278 88.3523 353.047 90.0054 354.781 90.3966C361.04 91.8092 370.268 90.2713 378.204 91.6966C391.899 94.1563 407.096 94.242 419.155 102.06C420.442 102.894 423.397 104.773 422.221 106.335C420.914 108.073 415.252 105.003 413.301 104.53C401.186 101.596 392.673 102.038 380.72 101.056C378.085 100.839 374.354 98.5678 371.678 100.048C370.285 100.818 372.6 102.203 372.367 103.337C371.761 104.298 371.053 104.256 370.056 104.369C360.324 105.471 346.34 101.516 335.907 101.057C315.156 100.144 299.534 102.861 281.571 112.06C274.305 115.781 268.525 111.933 276.029 105.299C290.216 92.7559 319.275 92.9071 337.278 93.1332C339.854 93.1655 342.071 94.3744 344.942 93.1561C344.638 92.3172 342.678 90.9284 341.951 90.8384C331.769 89.5795 310.146 89.63 299.774 90.5107C290.641 91.2862 277.781 97.341 270.368 102.364C263.854 106.777 260.102 115.168 250.663 112.202C251.799 99.7806 262.319 95.4693 271.971 90.1368C281.465 84.8918 291.235 79.867 302.108 77.03C303.671 76.6221 305.228 76.6834 306.817 76.7241L301.888 75.6088C286.726 78.7507 271.274 83.2945 258.046 90.9121C256.445 91.8338 250.629 95.4389 249.632 96.4464C248.244 97.8506 248.142 99.568 247.307 100.56C246.086 102.01 240.621 108.355 239.623 108.958C238.577 109.591 234.102 111.09 232.955 110.932C228.059 110.257 231.206 104.707 232.71 102.164C238.468 92.4268 244.022 88.1688 254.05 83.0408C257.247 81.4055 277.497 73.62 278.054 72.449C278.883 70.7101 274.636 71.6445 274.012 71.7666C264.823 73.5644 246.945 81.9469 240.171 88.1357C234.367 93.4381 223.561 112.393 218.524 114.51C213.688 116.542 213.192 112.302 211.535 112.495C206.765 114.596 201.372 115.636 196.27 116.307C193.301 119.012 189.02 119.177 186.16 122.146C182.925 125.506 181.88 130.547 179.994 134.491C176.825 141.117 169.913 153.844 171.084 161.158C171.309 162.563 172.431 163.512 172.37 165.069C172.211 169.138 168.87 171.548 165.652 173.635C164.717 174.241 163.156 174.057 162.152 174.635C160.928 175.341 150.936 184.492 149.953 185.813C148.842 187.306 147.554 189.064 149.385 190.36C153.031 192.942 158.281 193.409 162.694 193.723C173.325 194.478 183.58 194.632 194.075 195.748C200.256 196.405 216.791 196.441 222.916 195.735C223.59 195.657 225.223 195.435 225.223 194.715C225.223 190.107 224.836 184.737 225.223 180.255ZM406.478 170.064C408.487 168.174 400.608 165.586 398.871 166.187C397.372 166.706 398.066 168.481 397.585 169.546C396.973 170.902 395.713 171.827 395.777 173.35C396.526 174.055 404.3 168.825 406.478 170.064ZM375.624 177.37C374.933 176.975 372.088 177.78 371.696 176.296C371.295 174.778 373.766 173.752 372.376 173.014C370.904 172.531 368.889 172.471 367.384 172.736C361.189 173.827 354.747 176.793 349.14 179.121C347.886 179.641 340.689 182.006 340.263 182.564C339.838 183.121 341.076 184.682 341.599 184.897C341.845 184.998 345.557 182.573 345.619 186.164C345.632 186.917 343.254 186.061 342.557 187.112C341.567 188.604 341.745 196.256 340.161 199.875C336.827 207.49 331.322 212.372 324.03 216.097C323.616 216.308 323.618 217.257 323.075 217.378C321.615 217.7 318.348 217.644 317.2 216.724C313.255 213.563 318.694 210.459 317.231 208.183C316.629 207.246 314.525 207.153 313.564 206.492C309.588 203.758 308.05 200.568 305.015 197.092C298.75 199.219 291.682 200.119 285.405 201.933C284.14 202.299 282.769 203.324 281.283 203.798C279.073 204.503 276.283 203.828 274.729 205.938C274.588 206.577 278.294 211.267 279.056 212.141C285.045 219.017 290.08 220.196 297.495 224.255C301.559 226.48 307.173 230.94 311.466 232.216C314.051 232.985 317.406 231.885 319.514 234.153C319.519 234.537 313.912 236.312 313.137 236.417C307.842 237.129 297.199 234.239 292.15 232.138C291.751 231.971 286.161 227.707 286.102 230.205C286.086 230.889 293.029 239.966 294.11 241.385C304.683 255.274 315.642 271.728 322.2 288.054C323.337 290.885 328.728 309.641 329.888 309.874C330.284 309.953 331.345 309.152 331.563 309.411C332.18 312.408 328.367 315.644 325.871 316.636C324.6 317.141 325.02 316.125 324.873 315.672C315.864 287.871 299.298 265.252 283.516 241.28C282.557 239.823 280.92 234.592 279.343 236.216C276.275 239.377 274.054 244.929 271.35 248.445C255.927 268.5 232.599 282.367 206.168 280.485C186.205 279.064 163.066 263.417 175.228 241.547C176.417 239.407 183.559 232.476 183.077 230.904C182.876 230.247 173.574 225.295 171.708 222.988C170.692 221.732 167.476 215.147 167.192 213.622C166.538 210.104 168.722 205.066 162.766 205.744C161.385 205.902 160.252 207.265 159.395 208.24C145.09 224.531 131.808 259.36 132.893 280.852C134.617 314.992 167.413 351.588 198.474 364.293C228.344 376.51 257.026 376.816 288.257 370.375C320.767 363.67 356.445 351.162 378.364 325.497C391.323 310.323 394.193 289.884 393.771 270.636C400.606 272.053 405.225 281.055 412.328 281.686C413.315 281.774 422.143 278.627 423.366 277.876C441.152 266.956 458.549 214.413 440.92 199.645C435.048 194.726 429.535 194.277 422.229 196.394C415.447 198.359 402.401 208.96 397.749 214.403C393.056 219.895 394.156 219.314 387.79 223.678C386.198 224.769 384.128 228.7 381.893 226.426C380.49 224.998 381.433 221.254 380.991 220.743C380.846 220.574 378.983 220.512 378.105 219.946C377.466 219.534 377.297 218.629 376.817 218.278C375.929 217.628 374.188 217.826 373.792 216.281C373.353 214.566 377.134 208.1 376.892 206.521C376.749 205.585 372.703 204.679 372.997 201.989C373.036 201.636 374.157 201.599 374.573 200.805C374.904 200.174 376.528 196.557 376.379 196.368C376.272 196.233 373.819 195.991 373.052 195.357C370.457 193.211 373.608 189.596 374.134 187.36C374.292 186.686 373.711 185.737 373.883 185.032C374.281 183.396 376.837 178.064 375.624 177.37ZM328.887 195.705C328.573 192.791 332.059 189.564 329.173 187.23C328.639 187.1 323.808 188.838 323.546 189.141C322.209 190.688 326.092 190.325 326.954 191.362C328.362 193.052 326.344 196.173 328.887 195.705ZM211.176 217.384C211.985 216.289 207.411 213.537 206.464 212.493C204.954 210.829 204.927 208.542 202.516 207.829C194.02 207.38 185.581 206.578 177.064 206.872C176.539 212.046 178.346 218.588 181.982 222.421C182.337 222.795 187.383 226.873 187.733 226.99C188.662 227.299 189.548 227.369 190.47 226.984C196.956 223.023 203.99 219.851 211.176 217.384ZM270.177 227.394C270.806 226.88 274.575 227.09 275.374 224.95C271.466 222.359 266.728 209.373 263.332 207.874C262.099 207.33 258.353 207.301 256.956 207.5C255.39 207.722 254.573 208.667 253.014 208.881C247.11 209.694 238.782 208.736 232.58 209.511C233.699 212.83 240.805 208.241 239.661 212.178C238.994 214.473 235.151 216.032 233.049 216.867C217.68 222.971 201.977 228.095 190.417 240.717C183.263 248.527 182.307 257.819 192.221 263.957C205.373 272.1 221.476 266.305 234.773 261.942C236.537 261.363 253.37 249.819 255.122 248.083C259.082 244.161 265.811 234.445 269.372 229.531C269.85 228.872 269.922 227.603 270.177 227.394ZM300.135 411.947C301.399 412.15 302.096 411.925 303.173 411.324C318.924 402.529 338.678 395.966 356.313 390.589C369.865 386.456 383.852 384.083 397.479 381.091C402.863 379.909 403.642 382.726 404.456 374.802C405.523 364.423 407.218 345.125 403.451 335.719C402.213 332.628 399.798 330.28 396.432 329.431C389.887 337.097 383.72 344.25 375.663 350.452C374.394 351.429 368.785 354.401 368.286 355.031C367.621 355.87 367.045 362.749 366.705 364.651C366.422 366.238 365.037 368.605 365.045 369.558C365.06 371.565 368.039 372.733 364.022 375.162C359.033 378.178 349.23 379.148 343.467 381.251C331.419 385.646 321.752 396.076 311.669 403.415C308.385 405.805 304.695 407.863 301.397 410.255C300.645 410.801 299.735 410.246 300.135 411.947ZM155.883 350.598C154.062 349.103 146.75 341.942 145.173 341.708C142.646 341.333 135.285 353.651 133.999 356.15C129.962 364.001 129.575 365.049 137.806 370.018C147.296 375.746 158.193 379.24 167.636 384.083C177.547 389.167 185.677 396.097 193.782 403.406C194.235 400.218 191.483 399.13 190.274 397.347C184.33 388.577 183.232 382.239 173.422 376.425C171.221 375.121 167.553 373.838 165.329 372.547C163.933 371.736 160.156 369.57 159.359 368.547C156.951 365.453 160.257 364.811 160.812 362.884C160.968 362.342 160.444 361.408 160.659 360.663C161.048 359.313 162.606 356.244 162.288 355.198C161.924 353.997 157.007 351.521 155.883 350.598ZM175.73 369.878C172.624 367.939 168.098 359.815 165.041 364.297C165.033 365.258 173.868 370.073 175.73 369.878ZM344.278 375.139C346.854 374.331 361.577 371.481 361.62 369.564C361.627 369.266 359.138 365.953 360.319 363.969C354.563 366.247 351.367 374.269 344.27 373.173L344.278 375.139ZM176.614 397.932C163.771 388.576 148.501 382.908 134.573 375.167C134.396 375.068 130.362 371.271 131.594 374.147C131.93 374.934 141.353 381.858 142.87 382.787C146.068 384.747 150.556 386.364 153.892 388.388C169.878 398.085 177.469 407.415 190.695 419.585C194.305 422.908 198.825 425.464 202.413 428.781C210.982 436.702 220.98 451.904 226.565 462.229C227.935 464.761 230.184 474.527 232.765 468.278C233.929 465.458 231.228 465.241 230.173 463.291C227.304 457.982 224.339 445.042 221.245 440.505C220.58 439.529 217.156 437.209 216.094 436.039C203.621 422.286 191.537 408.803 176.614 397.932ZM74.4944 433.407C80.0227 426.476 85.6361 418.273 90.684 410.862C92.989 407.478 93.6421 403.338 97.4607 400.432C100.405 398.192 104.993 397.249 107.866 395.54C110.579 393.927 112.027 389.735 114.255 388.016C116.746 386.094 126.241 384.366 126.856 382.613C127.85 379.781 121.85 375.274 120.237 376.094C117.812 377.329 115.338 381.384 112.434 382.939C110.259 384.103 106.768 384.586 104.593 385.75C94.7244 391.033 78.7463 406.125 72.8246 415.658C67.3465 424.478 61.1384 433.696 56.5946 443.09C53.5986 449.284 51.2091 455.372 47.8519 461.447C41.0516 473.751 30.8193 493.752 32.6771 508.17C32.9705 510.447 34.5728 512.547 34.6679 514.156C34.9304 518.596 31.7438 526.92 31.9472 529.894C32.2126 533.773 38.2536 543.211 40.6121 546.862C41.1239 547.655 42.4324 547.842 43.2218 549.073C44.2897 550.738 44.4783 552.998 45.8147 555.073C46.591 556.278 52.5846 561.67 53.4877 562.04C56.5851 563.307 62.845 564.187 66.1972 565.277C67.5057 565.703 68.3584 566.979 69.4163 567.372C83.8508 572.739 102.428 570.833 117.365 567.884C146.377 562.156 174.075 551.327 202.65 544.563C210.692 542.659 205.266 537.043 206.385 530.701C203.703 526.985 201.85 530.123 199.844 530.63C175.558 536.77 148.676 543.164 124.598 547.386C116.438 548.817 108.398 550.101 99.9992 551.475C95.4961 552.212 91.1583 554.578 86.4801 553.883C80.9042 553.055 77.7652 552.444 71.735 551.947C66.3102 551.501 65.4852 549.544 62.8968 548.802C61.7427 548.471 60.3532 548.842 59.1795 548.511C50.2576 546.001 43.8804 531.039 42.67 522.66C41.6099 515.322 48.6169 512.165 48.6006 508.245C48.5871 505.035 44.7389 502.629 45.3801 496.482C46.6466 484.341 52.3761 475.06 57.0137 464.535C60.1236 457.477 61.5204 452.673 63.8762 445.645C65.2362 441.587 71.6493 436.974 74.4944 433.407ZM319.305 378.219C319.728 377.74 320.774 376.252 319.866 375.804C316.447 378.892 311.996 377.729 308.528 378.464C281.769 384.133 263.487 385.629 236.186 384.282C229.943 383.974 224.705 382.042 218.816 381.112C215.521 380.591 213.196 381.337 217.032 383.521C218.829 384.544 221.21 384.748 223.022 385.522C242.14 393.691 256.351 396.458 277.526 392.693C287.43 390.932 296.406 386.798 305.87 383.74C310.253 382.323 315.695 382.302 319.305 378.219ZM439.062 388.479C437.954 387.637 436.384 387.933 435.28 387.255C432.17 385.346 421.761 377.088 418.841 377.285C417.351 377.386 416.246 382.426 416.81 383.664C417.215 384.553 423.935 389.882 425.218 391.414C438.529 407.306 439.216 418.609 436.49 438.49C433.89 457.448 428.204 472.663 415.607 486.958C408.641 494.863 401.935 502.995 394.269 509.856C388.452 515.062 382.665 520.092 376.963 525.252C373.254 528.609 369.351 531.81 365.627 535.142C363.356 537.385 368.888 542.129 367.394 544.099C365.51 546.584 358.953 540.904 355.978 540.717C355.315 540.675 350.156 541.943 349.431 542.234C348.886 542.453 345.151 546.311 343.835 547.248C342.732 548.033 340.475 548.605 340.35 548.746C339.212 550.031 343.564 557.424 338.584 557.135C335.267 556.943 332.277 549.334 327.84 548.696C323.803 548.114 322.815 550.881 319.208 551.312C309.345 552.49 297.31 550.313 287.201 551.407C285.772 551.883 283.169 558.316 281.968 560.067C280.809 561.756 278.545 563.409 277.458 564.844C277.024 565.418 276.102 566.467 276.726 567.069C277.121 567.45 286.017 566.963 287.786 567.045C298.664 567.551 309.589 568.025 320.563 567.761C328.864 567.562 343.716 567.87 350.789 564.602C366.365 557.405 383.44 545.113 396.798 534.199C405.731 526.9 415.827 515.389 423.629 506.371C437.171 490.721 444.671 476.229 449.754 456.127C452.874 443.789 457.797 415.456 451.988 404.36C451.285 403.019 439.885 389.105 439.062 388.479ZM206.692 387.432C205.074 386.066 202.568 382.658 200.803 381.062C199.227 380.732 199.683 382.392 199.968 383.2C201.066 386.316 206.655 393.145 208.632 397.034C213.687 406.974 216.919 418.203 222.287 428.311C225.782 434.894 230.114 440.362 232.905 446.786C233.718 448.655 237.255 458.174 238.274 458.614C239.17 459.001 240.107 456.963 240.565 456.291C254.501 435.868 271.031 420.748 289.081 404.735C290.379 403.584 297.834 397.819 298.119 397.153C298.669 395.863 297.12 396.096 296.446 396.161C293.141 396.484 286.357 399.989 282.607 400.973C259.681 406.992 224.932 402.83 206.692 387.432ZM271.605 446.36C288.268 432.478 313.483 416.245 334.218 409.627C349.494 404.751 369.693 398.468 385.448 396.216C390.848 395.445 396.415 397.004 401.466 392.896C403.479 391.259 405.35 388.036 401.491 387.599C389.645 386.258 367.329 394.382 355.846 398.017C342.416 402.268 328.79 406.001 316.363 411.799C296.817 420.918 267.28 440.522 254.755 457.737C253.771 459.089 253.608 460.865 252.645 462.234C251.587 463.736 245.693 470.11 245.479 470.615C245.226 471.21 244.919 472.754 245.619 473.076C249.603 468.897 252.974 464.082 256.995 459.965C261.439 455.413 266.72 450.429 271.605 446.36ZM412.962 396.386C412.317 395.842 411.342 395.36 410.491 395.802C409.891 396.113 406.295 400.262 406.442 401.079C406.521 401.523 411.085 405.02 412.156 408.011C417.41 422.685 413.788 430.257 409.499 444.173C407.66 450.138 405.954 457.955 402.964 463.385C401.522 466.005 398.61 466.968 399.128 470.722C399.346 472.303 401.138 473.879 400.289 475.56C400.21 475.716 397.958 477.944 397.799 478.019C396.585 478.591 395.073 478.111 393.777 478.676C390.188 480.241 375.043 495.886 372.819 499.55C371.674 501.436 371.439 504.442 370.133 506.377C369.044 507.991 362.507 511.494 360.632 511.832C357.375 512.419 352.309 511.397 348.974 512.864C348.43 513.103 339.983 519.547 339.588 520.072C338.17 521.953 337.084 527.461 336.276 527.991C334.654 529.054 329.226 527.576 326.385 528.786C324.625 529.536 322.577 532.203 321.117 533.44C319.75 534.598 316.96 534.575 317.518 537.49C320.908 536.493 326.987 541.008 329.198 540.799C331.53 540.578 333.497 535.697 335.234 534.198C340.081 530.014 346.818 532.713 349.223 530.993C349.572 530.744 350.734 525.816 353.279 523.693C359.012 518.91 366.594 513.983 372.532 509.262C375.13 507.197 378.395 505.367 380.728 503.317C383.327 501.033 386.516 495.591 388.721 494.109C390.46 492.94 393.134 492.54 394.901 491.28C399.55 487.968 400.274 479.588 403.117 476.207C404.486 474.579 407.549 474.139 409.379 472.975C414.246 469.881 413.172 466.525 414.85 461.92C419.593 448.899 428.053 425.704 423.505 412.633C422.961 411.071 420.609 409.422 419.709 407.819C418.702 406.023 418.634 404.162 417.751 402.513C417.351 401.767 413.539 396.872 412.962 396.386ZM136.266 396.179C134.535 395.786 135.099 396.679 134.544 397.42C131.875 400.978 128.582 405.857 126.23 409.644C123.395 414.209 119.226 419.857 118.887 425.094L132.664 402.166C133.886 401.479 137.275 397.528 136.266 396.179ZM154.323 398.818C154.194 398.638 150.468 396.671 150.318 396.837C148.878 404.253 155.556 400.541 154.323 398.818ZM367.942 418.115C369.46 416.162 372.728 414.421 372.358 411.294C369.349 411.98 368.747 415.348 367.269 417.131C364.867 420.026 361.28 423.313 358.995 426.276C355.53 430.771 352.787 435.936 348.956 440.208C350.47 440.603 351.495 439.336 352.261 438.388C357.594 431.782 362.718 424.835 367.942 418.115ZM345.847 420.726C347.152 419.242 351.879 416.516 349.29 414.593C346.791 416.95 345.145 420.005 342.897 422.6C337.411 428.935 330.856 435.166 325.567 441.877C324.591 443.116 323.363 444.418 323.547 446.13C332.071 438.622 338.394 429.208 345.847 420.726ZM95.3461 456.513C95.6697 456.321 95.8019 455.078 96.4087 454.635C98.4833 453.122 99.0713 454.555 101.46 451.031C105.082 445.688 106.893 437.724 106.136 431.378C105.995 430.2 105.058 429.235 104.869 428.021C104.528 425.836 105.264 415.967 100.928 421.587C97.3877 426.177 89.1104 438.52 87.1839 443.572C84.6646 450.179 87.1663 447.252 90.0755 449.131C90.6355 449.493 90.8657 450.461 91.55 451.003C92.2988 451.596 93.5649 450.992 93.8004 452.701C94.1769 455.434 90.2389 451.72 90.1262 454.337C91.1394 455.807 93.57 457.567 95.3461 456.513ZM331.553 425.09C331.619 425.035 331.712 424.117 332.274 423.523C332.69 423.083 336.081 421.256 333.23 420.5C329.94 419.628 329.354 426.914 331.553 425.09ZM168.12 436.031C167.895 436.383 167.1 436.56 166.809 437.007C165.605 438.853 158.919 448.633 159.124 449.651C159.259 450.322 160.214 450.869 160.691 451.386C162.412 451.774 165.164 443.088 166.002 441.5C167.76 438.165 171.477 433.556 172.751 430.385C172.983 429.808 173.687 427.609 172.394 427.731C170.759 430.289 169.731 433.515 168.12 436.031ZM399.118 439.564C397.559 439.408 396.687 440.948 395.891 441.973C394.844 443.323 390.486 451.062 389.957 452.574C388.54 456.628 388.921 462.801 388.423 467.16C389.415 467.037 389.978 464.836 390.234 464.02C391.91 458.68 393.225 456.965 395.121 452.39C396.827 448.274 397.022 443.562 399.118 439.564ZM451.541 520.647C461.164 505.9 468.169 486.281 470.716 468.842C471.308 464.788 469.217 452.844 467.199 449.225C466.723 448.37 466.452 447.887 465.335 448.106C465.262 450.783 465.52 453.475 465.16 456.15C461.627 482.407 448.673 503.497 431.678 522.826C418.9 537.359 405.653 549.54 390.377 561.426C382.943 567.21 376.599 569.862 368.362 573.327C365.512 574.525 359.956 578.787 356.147 580.384C342.227 586.223 300.098 584.149 283.773 583.478C275.928 583.155 273.857 583.671 266.16 581.725C264.421 581.286 260.876 580.46 259.23 580.586C255.87 580.844 249.35 586.998 245.562 588.701C243.186 589.77 241.159 588.542 240.606 591.383C242.079 591.995 244.081 591.775 245.421 592.248C256.595 596.188 264.238 598.533 276.337 599.988C295.257 602.263 326.751 602.809 345.974 601.279C358.697 600.267 371.056 593.603 381.779 587.17C397.267 577.878 412.073 564.983 425.817 553.547C435.095 545.827 444.925 530.784 451.541 520.647ZM85.4381 452.052C84.6536 452.103 83.9933 451.696 83.3834 452.454C81.7863 454.44 79.82 459.983 77.8424 462.657C73.9235 467.955 70.2485 468.698 67.9263 475.917C66.9173 479.054 67.1617 481.727 66.43 484.306C65.4486 487.764 59.4686 497.33 65.3524 499.109C66.2856 499.392 72.3902 498.816 73.5883 498.571C77.2985 497.813 75.7501 494.647 76.1579 491.894C76.7243 488.071 77.9859 485.366 78.7889 481.991C79.4057 479.398 79.07 476.563 79.7215 474.363C80.7906 470.752 88.5261 465.364 88.8028 462.869C89.1737 459.523 82.1682 456.709 85.4381 452.052ZM150.318 498.716C150.069 498.964 145.843 498.7 144.925 498.423C143.364 497.952 140.239 494.869 138.199 493.859C131.422 490.503 122.753 488.423 115.174 488.827C110.583 489.072 99.1636 491.781 96.6663 495.616C93.6299 500.279 94.1562 505.952 100.658 506.479C102.764 506.65 103.211 505.22 104.699 504.824C108.91 503.703 118.198 503.443 122.575 503.956C125.5 504.298 129.64 507.873 132.567 507.96C134.163 508.008 135.725 506.826 137.325 506.654C148.772 505.423 160.118 503.416 171.418 502.035C178.65 501.151 185.996 502.063 192.79 501.348C200.69 500.516 199.791 498.445 195.488 493.428C177.166 472.067 153.701 454.953 123.307 459.355C122.556 459.464 120.189 459.59 120.221 460.584C125.396 460.727 130.986 461.699 135.957 463.198C144.333 465.723 159.803 475.244 164.629 482.345C165.798 484.065 167.965 487.039 164.559 488.062C159.094 489.704 156.487 484.182 153.335 481.643C140.707 471.475 122.17 463.106 106.221 470.827C102.287 472.732 91.5023 481.159 95.6386 486.06C97.2799 488.004 103.13 484.367 105.349 483.773C115.572 481.036 121.893 480.615 131.966 484.21C135.215 485.37 149.337 492.466 150.188 495.222C150.378 495.837 150.462 498.572 150.318 498.716ZM344.846 460.035C343.239 457.547 340.219 461.946 339.551 463.507C338.209 466.641 337.548 471.251 339.312 474.341C339.947 475.453 349.915 485.304 351.01 485.85C352.296 486.491 353.881 486.408 355.175 487.015C356.856 487.805 364.231 491.734 365.254 491.428C365.969 491.214 369.393 486.503 369.594 485.734C370.263 483.172 362.607 479.677 360.761 478.239C358.108 476.172 353.799 472.604 351.612 470.112C351.058 469.481 351.18 468.26 350.522 467.771C347.371 465.428 344.802 471.043 341.602 470.447C340.833 469.744 346.55 462.673 344.846 460.035ZM225.226 493.452C227.756 493.347 229.771 494.217 231.552 492.117C234.503 488.639 234.937 486.092 232.572 482.286L226.03 491.29L225.226 493.452ZM354.746 501.119C355.687 500.322 357.471 498.173 356.364 497.027C355.759 496.401 348.51 493.965 347.121 493.615C321.544 487.172 293.053 483.013 268.075 493.83C265.801 494.815 262.64 497.658 261.446 499.805C257.759 506.435 257.359 529.128 257.97 537.191C258.352 542.245 259.938 549.674 265.55 551.226C275.227 545.324 282.73 537.669 289.833 529.017C290.776 527.75 298.784 523.022 299.459 523.695L297.46 528.289C301.219 527.646 306.254 528.167 309.796 527.602C311.506 527.329 312.128 526.195 313.332 525.818C316.264 524.901 317.735 525.985 320.659 522.835C326.156 516.913 326.086 511.041 335.199 507.214C340.217 505.106 351.601 503.784 354.746 501.119ZM245.953 501.347C245.425 500.816 239.694 502.538 239.269 503.966C242.518 503.486 247.056 505.739 245.953 501.347ZM74.5435 511.673C79.591 506.554 77.9898 502.932 70.422 504.034C67.2961 504.49 63.8143 511.179 61.0029 513.201C59.8982 515.623 63.3606 519.769 63.3029 522.066C63.2467 524.301 61.1696 524.942 62.4191 528.929C63.1223 531.172 64.6637 530.812 65.6156 531.67C66.5395 532.502 68.7537 535.263 69.8215 535.447C70.1911 535.511 73.7769 533.693 77.0476 534.244C78.0947 534.421 82.864 535.893 84.298 536.315C85.834 536.767 86.7113 538.222 88.4477 538.216C90.1727 538.21 91.5587 536.478 93.2787 536.316C99.8542 535.696 108.586 537.031 115.033 536.677C119.052 536.456 125.232 532.358 128.872 531.211C133.236 529.836 141.218 529.107 145.937 528.263C163.456 525.126 181.041 521.493 198.886 519.17C201.336 518.852 204.567 519.56 206.69 518.952C209.48 518.153 210.625 510.829 211.854 508.252C207.219 508.465 201.322 508.081 196.853 508.628C194.026 508.974 190.474 510.627 187.355 511.124C168.356 514.155 148.491 513.93 129.402 517.929C124.633 518.928 117.085 522.309 113.154 522.993C109.914 523.558 104.854 522.315 101.959 523.165C100.658 523.548 100.302 525.295 98.4684 525.647C97.4283 525.846 94.1551 525.871 93.2369 525.556C92.2204 525.208 90.637 521.709 88.4524 521.735C85.6271 521.767 80.9397 526.654 78.3096 528.188C76.7328 529.108 71.6414 532.274 70.8238 529.833C68.9971 524.379 77.6997 521.671 78.7135 519.382C80.0623 516.336 72.898 518.193 71.6918 515.795C70.1497 512.729 73.7502 512.478 74.5435 511.673ZM238.596 503.976C234.415 503.053 232.019 505.17 228.615 506.32C226.733 506.956 223.253 505.741 223.889 509.227C226.49 509.897 228.741 507.576 230.575 507.049C232.652 506.451 234.813 506.693 237.27 505.593C238.284 505.138 238.915 505.674 238.596 503.976ZM222.036 513.327C221.043 514.273 220.746 517.017 222.23 517.776C228.93 515.215 235.845 512.873 242.942 511.855C245.845 511.912 243.819 507.952 242.953 507.954C242.807 507.954 242.127 508.913 241.43 509.049C237.769 509.765 235.175 510.82 231.957 511.576C229.784 512.086 223.423 512.007 222.036 513.327ZM242.61 517.779C241.007 516.216 236.032 519.189 234.722 519.552C232.652 520.123 228.603 521.393 226.861 521.685C224.206 522.129 218.49 520.214 219.919 525.251C220.657 527.854 228.578 523.728 230.401 523.192C233.804 522.193 235.386 522.137 239.147 520.614C239.96 520.285 241.252 520.533 241.946 520.078C242.72 519.571 242.869 518.031 242.61 517.779ZM241.272 526.977C238.732 527.749 235.725 527.887 233.224 528.597C231.768 529.01 230.327 530.415 228.752 530.774C226.68 531.246 223.799 530.543 221.918 531.943C219.448 533.781 220.865 539.559 223.215 538.489C226.018 537.214 228.861 535.508 231.712 534.34C235.561 532.763 242.775 532.919 241.272 526.977ZM241.778 538.289C240.023 536.61 229.982 541.208 227.402 541.936C225.155 542.571 219.934 541.635 222.683 546.23C224.179 548.73 225.66 545.621 227.743 544.901C230.154 544.067 232.732 543.082 235.122 542.293C236.58 541.811 245.034 541.401 241.778 538.289ZM451.283 542.099L423.868 570.356C425.835 570.169 428.287 568.261 430.057 567.086C431.534 566.105 433.086 565.296 434.273 564.483C435.808 563.433 448.914 547.029 450.31 544.751C450.843 543.879 451.639 543.447 451.283 542.099ZM223.886 550.644C224.292 552.65 224.609 556.199 227.521 555.919C232.004 552.673 239.952 551.989 244.21 549.251C246.329 547.888 243.858 544.965 242.959 544.889C242.063 544.814 239.913 546.823 238.753 547.176C236.227 547.945 232.303 548.099 229.747 548.842C228.017 549.345 226.525 551.474 223.886 550.644ZM470.39 577.97C475.175 570.12 482.004 561.772 479.715 551.958L472.584 568.613C463.749 579.742 457.569 591.631 446.295 600.619C445.392 601.339 443.933 601.158 442.874 601.884C441.113 603.092 438.091 607.682 436.248 609.152C434.256 610.741 430.994 611.53 429.417 612.626C428.606 613.189 426.466 616.286 425.547 617.008C411.217 628.267 402.01 634.227 383.509 636.994C375.633 638.171 361.027 640.429 353.265 639.413C351.046 639.122 350.247 637.341 347.794 636.902C344.644 636.337 338.422 638.333 338.926 634.12C349.674 634.721 360.166 632.587 370.357 629.508C367.084 626.082 360.508 629.935 356.473 630.662C346.502 632.459 328.175 632.645 318.363 631.64C297.454 629.497 276.864 625.23 256.694 620.607C243.865 617.666 228.372 615.008 216.391 609.603C215.033 608.991 212.41 605.919 212.521 609.127C219.51 614.025 227.686 616.846 235.201 620.695C241.197 623.767 247.024 627.746 253.309 630.506C269.692 637.701 290.203 640.867 307.673 643.466C319.333 645.201 331.5 644.181 343.112 646.104C346.359 646.642 350.266 649.726 353.401 649.853C360.311 650.133 364.405 648.945 370.733 647.959C378.656 646.725 384.373 647.133 392.431 644.306C413.893 636.776 436.812 617.278 452.259 601.221C459.966 593.21 464.606 587.46 470.39 577.97ZM249.101 554.124C246.249 551.759 237.014 558.18 233.624 559.225C231.448 559.895 229.4 559.72 227.234 560.167C228.903 561.907 229.87 565.769 232.763 565.001C238.426 561.451 244.619 559.315 250.638 556.547C250.725 556.433 249.348 554.329 249.101 554.124ZM206.495 557.221C205.583 557.299 204.776 556.338 203.823 556.836C203.538 556.986 199.383 561.431 199.811 561.811C200.922 562.078 206.815 557.581 206.495 557.221ZM176.615 570.571C180.065 568.202 183.903 566.1 187.31 563.664C188.265 562.982 193.089 559.471 193.106 558.856C193.177 556.316 187.804 559.779 187.146 560.217C180.885 564.383 173.934 570.837 167.486 575.404C165.234 576.998 161.239 578.034 160.347 580.869C160.997 581.363 166.314 578.246 167.36 577.579C170.602 575.512 173.751 572.537 176.615 570.571ZM214.521 561.164C213.063 559.798 209.082 563.089 209.189 564.118C209.467 566.798 214.273 561.64 214.521 561.164ZM162.609 567.984C163.5 567.255 166.153 567.49 164.699 565.105C163.37 566.438 161.14 567.166 159.758 568.137C158.488 569.028 155.86 570.706 155.668 572.327C158.44 572.176 160.638 569.599 162.609 567.984ZM92.4611 578.247C89.497 577.913 85.547 578.247 82.4287 578.247C82.1841 578.247 81.2876 579.238 81.429 579.88C81.8417 581.754 92.7174 581.048 94.797 579.553C95.05 578.857 92.7279 578.277 92.4611 578.247ZM130.247 584.169C127.082 583.32 125.721 585.351 123.384 586.288C120.584 587.41 119.734 588.014 117.518 589.068C116.23 589.681 114.118 589.765 112.316 590.558C111.347 590.985 110.502 590.18 110.857 592.046C115.32 593.013 116.475 591.293 119.611 589.811C122.152 588.61 124.968 587.491 127.367 586.274C128.159 585.872 130.044 585.027 130.247 584.169ZM117.542 617.684H106.172C105.766 617.684 104.477 623.805 105.646 625.427C106.623 626.785 114.764 625.947 116.399 625.436C116.615 625.368 119.873 622.918 120.007 622.738C121.4 620.862 121.117 615.663 123.356 615.155C123.773 615.06 130.811 615.617 131.889 615.744C136.228 616.255 139.252 617.606 144.63 617.027C147.131 616.758 148.33 615.391 150.018 615.092C152.262 614.696 154.948 615.326 157.299 615.018C163.905 614.152 176.248 607.94 182.187 604.625C189.319 600.644 196.772 596.683 203.89 592.447C208.263 589.844 212.739 587.273 217.192 584.811C217.367 583.946 216.919 584.116 216.174 584.13C213.583 584.176 208.452 587.758 205.633 588.901C192.643 594.168 180.375 597.702 167.009 601.555C164.508 602.276 160.495 605.244 157.808 606.316C142.304 612.5 129.055 612.908 112.498 612.453C110.341 612.393 105.73 610.344 105.156 613.089C108.412 617.078 117.56 612.423 117.542 617.684ZM350.962 609.803C346.28 610.045 341.26 609.432 336.619 609.833C332.999 610.145 326.979 612.018 323.227 612.446C316.295 613.238 307.896 611.816 300.797 612.429L300.797 614.395C301.377 614.996 307.676 613.924 309.073 613.945C323.611 614.161 332.325 612.795 346.624 611.123C348.176 610.942 349.824 612.758 350.962 609.803ZM342.936 622.943H359.323C359.686 622.943 365.685 621.486 366.317 621.271C367.757 620.78 369.129 618.897 370.412 618.066C371.675 617.249 374.385 617.469 375.04 615.062C370.952 615.107 366.848 618.326 362.74 619.128C360.296 619.606 357.239 618.308 355.554 618.682C353.927 619.043 349.881 621.019 347.772 621.469C346.331 621.776 343.948 620.265 342.936 622.943ZM214.309 626.695C214.69 626.269 214.747 625.645 215.173 625.24C213.884 622.141 209.508 627.233 210.512 628.198C211.676 628.34 213.594 627.493 214.309 626.695ZM169.045 632.799C170.249 632.32 175.367 630.722 175.058 629.197C174.371 625.816 168.089 631.92 169.045 632.799ZM146.305 635.428C146.572 635.7 152.953 632.659 152.976 631.816C150.038 629.136 146.209 631.935 146.305 635.428ZM175.058 636.749L173.532 637.588L168.379 644.633C172.193 641.971 176.377 642.644 175.058 636.749ZM244.617 638.71C243.838 636.965 241.649 636.619 239.941 636.749C239.19 640.809 241.591 639.346 244.617 638.71ZM107.496 651.857C107.562 651.801 107.63 650.878 108.233 650.304C109.456 649.141 116.686 642.629 115.529 641.347C114.805 641.805 113.618 641.802 113.075 642.217C112.633 642.554 106.397 650.38 106.177 650.886C105.706 651.973 107.067 652.222 107.496 651.857ZM444.363 649.66C445.542 648.44 447.316 646.074 448.271 644.626C448.917 643.646 449.914 643.932 448.276 642.674C447.161 643.819 445.491 646.134 444.403 647.077C441.884 649.262 437.84 651.877 435.294 654.22C434.876 654.605 430.884 658.801 431.222 659.087C432.95 659.026 435.444 657.346 436.807 656.367C438.622 655.064 442.733 651.346 444.363 649.66ZM129.381 658.892C131.1 657.503 136.1 653.054 137.502 651.438C140.185 648.346 140.319 643.985 135.641 647.63C131.546 650.821 126.466 657.997 122.659 662.151C122.059 662.806 120.747 663.111 120.223 664.033C119.973 665.285 120.619 665.301 121.565 664.692C123.42 663.499 127.625 660.31 129.381 658.892ZM168.379 655.807C170.107 653.901 175.932 653.098 172.717 649.895C172.375 652.845 168.711 652.942 168.379 655.807ZM213.848 654.501L207.162 653.833L207.165 657.125C207.974 657.918 213.337 656.005 213.848 654.501ZM231.242 657.129C229.854 657.139 228.421 656.956 227.042 657.267C223.414 658.086 217.31 661.624 214.027 662.223C208.494 663.232 204.738 659.769 205.831 668.294C208.493 668.553 210.326 666.226 212.503 665.326C217.899 663.096 223.935 661.482 229.273 658.802C230.019 658.428 231.079 658.033 231.242 657.129ZM377.043 670.271C374.89 670.03 372.668 670.911 371.696 672.89C373.297 673.074 377.154 672.627 377.043 670.271Z" fill="black"/>
<path d="M745.781 433.423C767.517 447.646 771.11 469.329 749.81 486.12L738.218 491.475C740.219 492.322 742.361 491.941 744.415 492.29C752.728 493.704 761.498 494.143 769.822 496.242C782.983 499.56 816.639 511.957 823.801 523.53C825.738 526.66 825.7 529.532 823.959 532.698C821.666 536.866 816.56 540.444 812.516 542.487C804.035 546.771 792.041 551.998 781.997 551.321C774.719 550.831 766.564 547.129 759.913 546.076C756.197 545.487 749.277 545.428 753.053 550.223C756.793 554.971 755.309 557.293 757.11 562.633C758.451 566.611 761.871 570.945 763.174 575.078C764.049 577.852 764.315 581.991 765.143 584.974C765.821 587.416 769.011 593.913 768.931 595.684C768.671 601.411 757.75 601.523 755.801 596.14C755.432 595.123 755.734 593.883 755.23 592.745C753.33 588.459 749.121 583.919 748.238 578.908C747.405 578.717 747.393 579.589 747.231 580.197C743.233 595.206 748.949 606.921 756.293 619.82C759.132 624.806 761.634 629.945 763.817 635.574C764.404 637.089 765.79 643.428 766.312 643.976C767.446 645.167 767.463 643.448 767.71 643.038C769.509 640.047 770.874 636.027 772.647 632.793C779.585 620.139 788.363 608.702 798.745 598.626C799.244 600.066 797.892 602.382 797.301 603.78C791.979 616.357 786.636 629.298 781.147 641.802C779.568 645.398 774.697 651.738 774.306 654.805C774.221 655.47 774.026 656.994 775.323 656.459C777.688 655.483 784.167 642.688 786.362 639.873C788.224 637.486 791.303 635.497 793.334 632.744C802.128 620.826 807.61 610.881 820.145 601.911C821.093 601.233 828.337 596.644 828.847 596.67C829.941 596.726 829.785 598.171 829.333 599.104C828.476 600.87 825.494 603.448 824.201 605.236C816.98 615.227 810.699 626.146 804.034 636.689C799.907 643.218 794.549 650.005 790.69 656.438C788.525 660.048 791.197 660.529 794.2 658.892C806.879 643.135 820.993 626.876 837.925 615.44C839.991 614.045 850.74 607.872 852.585 609.8C854.053 611.333 848.892 615.501 847.896 616.694C841.094 624.84 832.496 631.186 825.141 639.025C819.664 644.862 815.054 651.426 809.79 657.452C814.383 660.903 817.114 656.281 820.553 654.238C832.488 647.148 843.066 643.003 856.101 639.218C858.474 638.529 862.453 636.095 864.848 636.824C868.312 637.879 863.741 640.779 862.427 641.494C854.1 646.023 844.786 650.78 837.369 656.478C835.977 657.547 833.311 657.476 833.858 660.405C838.425 660.759 843.752 660.596 848.229 661.072C854.674 661.757 864.569 663.382 870.664 665.315C871.856 665.693 877.813 668.495 877.964 669.352C878.726 673.659 867.058 670.366 864.979 670.245C856.691 669.759 851.272 670.353 842.85 668.987C827.563 666.506 809.67 667.569 794.087 667.666C786.272 667.714 771.465 666.397 764.66 667.667C763.258 667.928 762.483 669.164 761.144 669.47C757.731 670.248 750.834 669.636 748.683 670.37C747.596 670.74 747.54 672.451 746.473 672.798C745.29 673.183 743.501 672.756 742.043 673.047C737.416 673.969 732.859 675.497 728.182 676.197L728.177 678.153C734.685 677.635 742.228 678.855 748.6 678.176C751.491 677.868 756.523 675.858 759.317 675.562C765.247 674.934 772 676.017 777.998 675.516C781.407 675.232 784.762 673.815 788.013 673.527C794.868 672.918 801.586 674.805 808.084 675.547C811.937 675.987 817.185 674.881 820.809 675.53C821.956 675.736 822.687 676.232 822.482 677.495C811.183 677.936 799.949 679.821 788.754 681.486C786.342 681.845 783.609 683.154 780.673 683.404C769.943 684.319 754.767 682.534 744.729 684.231C743.653 684.413 741.911 684.833 741.558 686.035C745.618 686.122 754.139 689.386 746.605 691.99C732.847 690.77 716.514 693.511 703.079 691.979C681.131 689.477 660.5 694.241 638.864 693.301C616.945 692.349 597.923 692.117 576.043 694.608C572.036 695.065 561.254 695.085 557.274 694.608C555.301 694.372 554.058 693.199 551.946 693.205C550.293 693.21 544.339 695.863 543.586 692.276C542.944 689.21 553.089 689.03 555.215 688.599C570.129 685.582 586.009 682.735 601.418 682.722C605.325 682.719 610.759 684.202 614.182 684.003C615.19 683.945 615.866 682.879 616.851 682.782C619.175 682.551 623.065 683.561 624.509 681.449C616.606 680.981 608.654 681.092 600.743 680.815C589.968 680.437 579.794 679.258 568.638 679.443C543.011 679.869 517.098 681.033 491.756 678.808C490.505 678.698 489.333 678.165 488.073 678.148C489.996 674.364 493.923 675.997 497.069 675.495C499.852 675.051 505.018 673.229 507.839 672.933C510.756 672.627 513.893 673.078 516.835 672.894C517.463 670.062 515.543 671.09 513.985 670.116C513.032 669.521 512.183 668.536 511.312 668.133C509.823 667.444 507.938 668.076 506.812 666.653C508.45 663.588 514.141 665.173 515.559 663.43C516.855 661.837 515.787 657.476 516.166 657.12C518.516 654.907 521.891 662.952 523.992 663.559C526.329 664.234 532.945 664.067 535.556 663.687C530.993 654.329 529.299 643.969 526.673 633.976C525.265 628.62 523.691 623.311 522.31 617.878C522.216 617.508 520.866 615.577 522.516 615.726C522.756 615.747 524.177 617.297 524.464 617.742C530.909 632.934 542.652 645.813 546.105 662.203C546.337 663.303 546.058 665.933 546.336 666.253C546.502 666.443 550.726 667.66 551.221 667.635C555.978 667.391 555.454 658.543 556.945 654.806C559.323 648.846 566.273 637.5 564.974 631.166C564.682 629.742 563.413 629.351 563.115 628.397C562.611 626.786 563.163 624.651 562.977 622.946C561.669 621.488 558.873 629.146 558.426 629.97C557.668 631.363 555.777 632.868 555.317 634.144C554.231 637.152 556.209 642.685 550.945 642.658C550.723 640.983 551.344 638.706 550.831 637.161C550.552 636.32 549.323 636.243 548.919 635.604C544.849 629.173 550.853 622.6 553.274 617.019C554.127 615.054 556.883 608.638 557.198 607.013C557.363 606.161 557.196 602.833 556.959 602.561C556.882 602.474 555.78 603.234 555.343 603.128C554.126 602.834 554.689 600.607 553.613 601.573L543.902 618.325C542.853 619.523 541.093 619.769 539.575 619.653C539.299 617.282 540.918 615.807 540.975 613.416C541.037 610.79 539.795 610.242 539.57 608.759C539.324 607.142 543.927 594.947 544.905 592.362C545.488 590.821 547.117 589.462 547.437 588.277C548.014 586.139 547.277 583.636 547.75 581.354C548.098 579.674 550.24 576.846 551.061 574.749C551.9 572.604 556.782 561.689 552.137 566.604C550.56 568.273 546.858 574.566 545.591 575.289C544.384 575.978 542.757 575.237 541.575 575.943C540.933 576.326 540.846 577.796 539.8 578.142C539.256 578.322 537.014 578.365 536.897 578.25C536.649 578.007 536.174 571.749 536.221 571.395C536.347 570.443 543.723 556.034 544.818 554.148C547.388 549.721 551.203 545.665 554.219 541.695C556.975 538.066 550.238 539.67 547.27 539.46C534.508 538.556 527.087 537.809 516.366 530.72C512.241 527.993 508.995 521.215 505.801 517.771C501.642 513.285 495.805 513.97 504.82 507.615C519.979 496.929 531.879 495.327 549.743 491.949C551.457 491.625 562.218 489.422 562.655 488.863C563.428 487.875 562.792 487.858 562.321 487.203C560.727 484.985 558.62 483.632 556.848 480.75C548.732 467.553 555.839 454.839 567.036 446.484C575.954 439.83 590.584 437.889 602.016 438.987C604.183 439.195 606.753 439.479 607.788 441.523C605.331 441.412 603.124 442.424 601.475 444.195C598.188 447.726 591.737 457.566 591.687 462.24C591.651 465.53 596.684 472.127 599.564 472.949C601.395 473.472 607.384 473.826 609.494 473.767C614.275 473.634 617.34 472.059 621.343 469.807C638.169 460.343 656.38 451.413 676.958 454.074C677.855 454.19 685.602 456.687 686.029 456.991C689.069 459.157 684.629 459.383 683.83 459.894C683.176 460.313 683.109 461.626 682.283 461.839C681.012 462.166 678.29 460.133 678.022 463.874C684.445 463.339 690.01 464.829 695.366 468.191C696.672 469.011 698.868 471.586 700.121 472.08C701.196 472.505 706.9 471.986 708.418 471.734C709.344 471.58 714.514 470.266 715.306 469.958C716.044 469.671 722.703 464.96 723.267 464.309C726.752 460.284 726.659 450.864 726.201 445.775C725.884 442.246 724.501 439.87 722.156 437.265C721.038 436.024 712.711 430.87 716.116 428.685C716.496 428.442 723.913 427.733 725.142 427.7C734.081 427.461 738.761 428.83 745.781 433.423ZM744.485 478.581C757.308 466.691 757.241 453.253 745.25 440.858C741.916 437.41 737.252 435.452 732.451 434.978C724.432 434.187 729.877 438.709 731.227 441.493C738.004 455.475 734.548 472.96 717.514 476.072L712.804 479.314L723.122 485.617C728.973 483.661 737.689 483.851 742.879 480.609C743.723 480.081 743.882 479.14 744.485 478.581ZM590.637 475.478C585.159 470.139 585.197 459.296 587.96 452.603C589.025 450.024 593.528 445.687 588.736 445.416C583.023 445.093 570.224 453.254 567.379 458.012C565.283 461.517 563.322 470.743 564.458 474.585C565.54 478.243 572.28 484.382 575.749 485.837C580.788 487.951 586.239 486.107 591.25 487.035C593.669 487.483 596.851 489.737 599.766 489.519C599.837 489.589 599.126 491.092 598.901 491.296C597.991 492.121 588.755 495.26 587.312 495.396C584.491 495.662 583.413 494.099 581.387 494.08C579.676 494.064 577.954 495.273 576.028 495.432C570.325 495.904 563.731 494.964 558.005 496.125C546.84 498.387 523.84 504.492 514.35 510.408C511.001 512.495 510.563 514.105 513.692 516.912C516.93 519.817 528.306 526.962 532.536 527.037C534.027 527.064 535.43 525.854 537.209 525.643C544.031 524.834 548.263 526.509 554.262 527.317C556.074 527.561 559.122 526.693 560.516 526.965C561.048 527.068 560.943 528.214 561.396 528.311C564.713 529.016 564.811 525.586 566.311 524.006C569.116 521.051 578.706 514.648 582.702 514.48C584.774 515.648 577.812 526.401 580.044 526.33C583.496 525.955 584.538 524.578 586.21 521.875C587.561 519.692 586.743 516.941 590.399 517.772C590.163 523.762 588.014 529.745 587.737 535.856C586.842 555.527 599.202 574.305 600.463 593.666C600.879 600.058 599.886 607.06 600.445 613.402C600.711 616.43 602.159 619.382 602.462 621.936C602.707 623.997 601.802 632.344 602.095 632.806C602.893 634.065 603.32 633.347 604.114 632.804C607.671 630.371 611.031 625.967 614.536 623.326C634.647 608.179 667.953 601.726 693.095 603.196C703.562 603.809 724.61 609.616 731.318 617.877C731.921 618.62 733.164 621.194 731.234 620.94C729.621 620.727 726.872 620.416 725.481 620.009C721.621 618.88 717.734 616.227 712.772 614.751C683.122 605.932 641.026 614.078 615.987 630.843C612.003 633.51 601.909 639.088 601.137 643.682C600.716 646.184 600.472 652.615 600.408 655.45C600.32 659.377 601.056 663.121 600.705 667.018C603.897 667.866 606.907 669.84 610.204 670.192C612.711 670.459 614.684 669.777 616.706 669.862C621.282 670.055 624.177 672.155 629.565 671.617C652.752 669.303 676.482 668.248 699.792 666.36C706.843 665.789 712.58 665.811 719.799 664.989C724.296 664.477 736.235 666.085 739.252 664.388C741.256 663.261 744.146 658.462 746.404 656.888C749.468 654.753 753.455 655.627 755.609 654.17C756.784 653.375 755.92 653.425 755.588 652.872C750.684 644.695 751.71 640.834 749.217 632.833C746.571 624.339 739.561 615.084 735.858 605.209C730.889 591.958 728.687 588.154 731.025 573.484C731.814 568.536 737.456 558.33 728.508 559.13C726.545 559.306 725.842 560.692 724.366 561.023C721.054 561.767 716.913 560.365 713.624 562.626C711.777 569.541 713.421 578.956 706.045 583.114C705.36 583.5 699.562 586.042 699.191 586.006C698.69 585.958 694.399 583.377 693.738 582.846C687.377 577.743 689.314 572.436 687.729 565.746C686.457 560.378 684.107 557.542 681.352 553.433C679.134 550.126 679.475 548.707 683.737 548.642C695.947 548.457 709.554 549.79 720.959 554.122C726.738 556.317 723.029 556.486 730.533 556.498C733.674 556.503 736.118 558.778 736.834 554.215C739.168 539.343 730.422 504.389 720.135 493.117C717.636 490.379 708.86 483.137 705.686 481.712C703.688 480.815 702.01 481.194 700.254 480.477C692.937 477.489 690.654 472.497 681.036 472.376C679.793 472.36 662.091 474.896 664.698 470.502L669.989 465.853C667.099 466.78 663.206 467.171 660.475 467.998C655.031 469.646 649.252 473.53 644.401 475.207C643.608 475.481 639.149 476.618 639.903 474.734C639.995 474.503 642.505 470.958 642.793 470.669C643.906 469.552 646.744 469.259 646.579 467.166C645.655 466.292 630.651 472.239 628.583 473.465C623.521 476.464 620.155 480.101 613.403 480.894C606.68 481.683 595.522 480.238 590.637 475.478ZM786.416 524.417C789.569 522.441 794.304 522.543 797.672 524.085C799.267 524.816 801.706 527.811 802.889 528.16C804.043 528.501 810.297 528.523 811.134 527.984C812.884 526.855 810.596 524.402 809.704 523.435C802.757 515.907 774.732 506.996 764.327 504.271C755.708 502.013 747.262 501.804 738.914 499.668C737.188 499.226 735.264 499.264 733.536 498.716C733.097 501.583 735.723 503.271 736.804 505.686C738.155 508.702 740.229 517.194 742.923 518.734C744.334 519.541 747.277 519.694 749.096 520.554C750.222 521.087 750.765 522.255 751.643 522.652C753.87 523.66 767.463 529.064 768.307 528.289L767.643 523.035C772.593 521.354 772.011 527.724 773.799 528.511C776.494 529.698 778.157 528.268 780.049 528.363C781.042 528.413 788.607 532.371 788.279 528.736C788.19 527.752 785.848 525.217 786.416 524.417ZM743.567 524.352C743.152 524.745 744.117 527.539 744.892 527.972C745.451 528.285 751.654 529.282 751.576 527.964C751.089 526.449 744.301 523.657 743.567 524.352ZM755.963 530.929C752.216 531.645 759.113 536.012 759.612 533.212C759.844 531.906 756.644 530.799 755.963 530.929ZM773.122 536.704C772.762 536.501 772.595 535 771.653 534.512C771.023 534.185 766.791 534.614 765.635 534.215C766.525 537.846 771.292 536.915 774.595 537.562C775.969 537.831 777.632 539.627 779.008 538.484C777.769 535.901 774.403 537.427 773.122 536.704ZM794.393 536.173C793.085 533.783 789.283 535.218 787.04 534.869C787.135 538.088 792.349 536.463 794.393 536.173ZM562.977 548.014C561.017 547.628 561.921 548.633 561.476 549.463C560.471 551.341 553.989 560.722 554.958 561.811C556.123 561.744 558.202 559.545 558.795 558.714C560.703 556.036 562.856 551.306 562.977 548.014ZM572.337 586.791C572.433 582.741 571.779 578.113 570.813 574.158C570.652 573.502 570.617 572.178 569.676 572.335C568.248 577.485 568.43 582.719 572.337 586.791ZM589.061 631.491C587.292 629.203 587.655 637.642 587.73 638.057C589.499 640.345 589.137 631.906 589.061 631.491ZM570.728 653.567C574.606 647.306 574.275 644.505 572.336 637.407C571.365 637.287 571.132 639.134 571.066 639.76C570.076 649.12 569.745 644.856 566.809 650.724C565.985 652.371 564.702 658.086 564.372 660.132C564.247 660.901 563.751 664.212 564.978 664.347C565.79 662.424 566.559 659.749 567.541 657.991C568.441 656.377 569.938 654.843 570.728 653.567ZM577.953 659.998C576.79 661.372 575.831 662.884 574.364 664.024C576.966 667.169 582.838 661.273 584.724 659.1C585.965 657.671 588.803 653.675 589.669 652.072C591.217 649.207 587.213 642.649 585.055 644.637C584.768 644.902 585.834 647.246 585.455 648.585C584.329 652.563 580.554 656.924 577.953 659.998ZM536.226 672.9C536.39 672.765 537.208 670.724 535.809 670.35C534.635 670.036 528.248 669.922 528.216 671.252C528.148 674.1 532.823 672.553 534.589 672.383C535.232 672.321 536.16 672.955 536.226 672.9ZM678.021 673.558C669.761 674.987 661.244 673.558 652.947 674.219C651.963 674.297 647.959 674.433 648.594 676.18L678.022 675.524L678.021 673.558ZM669.989 683.41C670.088 680.549 667.102 682.303 664.963 682.154C656.574 681.568 649.939 683.41 641.561 684.065C639.239 684.246 636.862 683.951 634.541 684.074L634.54 686.041C646.398 687.549 658.066 683.37 669.989 683.41Z" fill="black"/>
<path d="M403.805 119.463C404.086 120.24 406.909 121.113 407.635 121.273C420.137 124.041 435.751 130.31 445.601 138.517C446.959 139.648 453.672 147.135 448.971 147.068C438.638 141.728 427.85 137.604 417.33 132.779C412.6 131.694 407.804 130.811 403.09 129.683C400.484 129.06 398.076 127.883 395.448 127.334L395.767 130.629C393.972 129.545 392.002 130.219 390.161 129.901C387.323 129.411 385.479 128.078 383.214 127.526C367.886 123.788 348.857 120.735 333.184 118.851C328.013 118.229 325.14 120.04 320.371 116.358C319.829 115.94 319.143 116.372 319.53 114.864C321.625 114.715 323.487 112.751 325.36 112.37C326.891 112.058 328.589 112.497 329.86 112.191C365.576 103.59 400.526 107.522 435.897 116.503C437.335 118.945 441.78 119.136 442.941 121.415C444.717 124.898 436.211 121.764 434.819 121.506C427.075 120.068 421.533 119.65 413.47 119.482C410.307 119.416 407.168 117.855 403.805 119.463Z" fill="black"/>
<path d="M432.346 149.255C432.711 149.514 432.941 150.389 433.643 150.897C437.835 153.93 448.305 160.554 449.787 165.295C450.058 166.161 450.609 169.187 448.981 168.724C445.033 167.6 434.604 161.162 430.338 158.774C426.759 156.77 423.484 153.582 420.007 151.838C408.343 145.991 389.896 141.374 377.227 138.01C373.006 136.889 368.523 137.142 364.104 134.474C358.997 131.392 363.016 129.078 367.217 128.879C373.356 128.588 380.886 130.714 386.814 131.875C401.804 134.812 419.876 140.423 432.346 149.255Z" fill="black"/>
<path d="M744.901 703.139C744.714 703.944 743.801 704.625 743.079 704.957C731.918 710.091 712.026 710.444 699.75 709.71C697.983 709.605 696.505 708.528 695.019 708.444C692.247 708.287 677.199 709.031 676.671 707.405C676.529 706.969 676.37 705.88 677.128 705.771C679.212 705.469 681.475 705.423 683.519 704.924C692.021 702.849 700.242 701.988 708.626 701.329C716.879 700.681 725.507 699.978 733.679 700.68C737.588 701.016 740.909 703.185 744.901 703.139Z" fill="black"/>
<path d="M844.552 689.333C844.076 693.429 838.634 691.608 835.538 691.969C831.735 692.413 828.047 692.931 824.207 693.323C812.995 694.467 795.86 695.988 784.666 694.619C783.265 694.448 778.725 693.152 781.2 691.805C787.508 688.373 793.49 689.853 800.068 689.319C803.586 689.033 807.342 687.65 810.791 687.368C819.952 686.618 826.641 688.41 834.894 689.293C838 689.625 841.409 689.129 844.552 689.333Z" fill="black"/>
<path d="M649.257 698.523C646.167 700.879 643.037 699.521 640.292 699.852C639.15 699.989 638.271 700.891 637.403 701.015C625.78 702.668 613.931 701.892 602.143 703.168C600.766 703.317 599.736 704.462 598.108 704.48C596.424 704.499 594.976 703.326 593.358 703.186C586.903 702.628 577.905 704.251 573.016 699.514C576.448 697.915 581.32 698.526 585.22 698.691C586.319 698.738 587.497 699.746 588.778 699.809C607.934 700.742 627.435 695.05 646.943 697.193C647.943 697.303 649.005 697.329 649.257 698.523Z" fill="black"/>
<path d="M299.228 296.498C301.163 298.453 305.451 304.716 305.997 307.258C306.266 308.513 306.699 313.16 304.488 312.697C297.655 303.259 288.404 296.633 276.877 293.815C250.641 287.401 219.024 296.361 198.78 312.677C195.998 314.92 190.137 320.121 187.787 322.906C186.841 324.027 182.768 332.148 181.169 327.386C178.877 320.557 193.07 306.189 198.153 302.2C219.262 285.634 252.284 277.435 278.25 285.235C284.572 287.134 294.608 291.832 299.228 296.498Z" fill="black"/>
<path d="M288.089 331.758C281.199 331.619 281.403 324.829 276.679 320.959C263.731 310.351 240.989 307.35 225.221 312.369C223.184 313.017 221.085 315.216 218.724 315.177C212.576 315.074 222.215 307.2 224.201 306.109C226.418 304.89 232.01 303.291 234.406 302.991C247.306 301.373 270.14 305.895 279.326 315.071C281.333 317.076 289.961 329.796 288.089 331.758Z" fill="black"/>
<path d="M431.662 223.751C426.432 230.63 420.682 231.182 415.272 235.539C413.582 236.9 412.079 238.939 410.047 240.292C407.897 241.724 400.323 246.175 398.747 243.014C397.837 241.189 400.028 240.586 400.22 240.179C404.991 230.081 405.536 229.799 413.996 222.658C420.437 217.221 421.672 213.596 431.594 214.725C437.042 215.345 433.645 221.143 431.662 223.751Z" fill="black"/>
<path d="M186.841 292.733C181.302 299.941 175.95 305.346 173.336 314.619C172.653 317.04 173.898 320.474 171.057 321.9C164.316 312.276 172.714 299.783 178.794 291.719C179.645 290.589 185.868 283.051 186.411 282.789C187.64 282.195 191.365 282.071 191.777 283.484C192.251 285.114 188.037 291.177 186.841 292.733Z" fill="black"/>
<path d="M419.183 236.782C419.269 236.439 419.855 235.844 420.52 236.119C421.414 236.488 425.616 243.312 426.024 244.513C428.598 252.096 419.183 252.527 419.183 249.928C419.183 246.787 418.569 239.212 419.183 236.782Z" fill="black"/>
<path d="M663.303 548.675C662.018 551.244 658.655 550.786 656.603 551.613C655.489 552.062 654.729 552.976 653.741 553.399C649.885 555.047 649.276 553.215 648.09 558.367C646.436 565.556 647.739 572.668 643.517 579.505C639.828 585.479 630.084 587.144 626.293 580.776C625.041 578.674 623.697 574.202 623.328 571.852C622.97 569.576 623.786 564.697 622.523 563.441C620.765 561.694 614.213 562.73 611.478 562.464C608.667 562.19 598.47 559.175 601.382 555.195C602.446 553.742 612.302 554.125 614.654 553.769C624.862 552.226 634.436 547.966 645.548 547.323C651.51 546.977 657.454 547.732 663.303 548.675Z" fill="black"/>
<path d="M726.384 535.972C727.971 537.243 728.076 536.874 729.848 538.814C730.256 539.261 731.472 539.284 731.577 539.891C731.937 541.976 729.917 545.236 727.317 543.944C721.324 541.013 715.764 537.24 709.937 534.061C703.635 530.623 697.163 527.034 690.964 523.785C688.718 522.608 686.032 521.251 684.401 519.078C681.584 515.326 681.763 509.632 687.361 508.843C691.398 508.273 690.242 511.374 690.859 513.372C691.129 514.246 698.04 519.072 699.473 520.025C708.132 525.787 718.167 529.393 726.384 535.972Z" fill="black"/>
<path d="M643.91 511.863C644.586 516.627 640.16 518.04 637.454 520.636C626.608 531.037 622.381 532.451 609.854 539.85C605.719 542.292 602.833 547.304 597.093 543.072C596.978 542.573 603.228 536.217 604.113 535.522C612.097 529.255 622.933 522.79 631.536 516.462C636.093 513.11 636.333 510.519 643.91 511.863Z" fill="black"/>
<path d="M636.066 639.557C636.325 639.398 640.994 638.19 641.619 638.116C650.946 637.018 661.407 643.937 661.997 653.527C662.548 662.485 655.035 655.84 651.264 654.166C647.508 652.5 641.321 651.637 637.935 649.518C637.565 649.287 634.639 646.124 634.536 645.628C634.223 644.117 634.707 640.387 636.066 639.557Z" fill="black"/>
<path d="M698.895 652.375C696.07 650.775 699.488 643.786 700.73 641.648C703.644 636.634 716.965 631.208 721.512 635.083C724.492 637.622 723.762 641.025 721.78 643.93C719.9 646.685 710.92 651.754 707.621 652.364C706.276 652.612 699.671 652.814 698.895 652.375Z" fill="black"/>
</svg>
