<svg preserveAspectRatio="xMidYMid meet" width="904" height="904" overflow="visible" style="display: block;" viewBox="-59.073 0 904.155 904.155" fill="none" xmlns="http://www.w3.org/2000/svg">
<g id="Group">
<path id="Vector" d="M583.616 151.662C585.469 152.1 585.553 151.034 586.442 150.002C593.938 141.298 600.941 127.95 608.61 118.194C613.789 111.606 630.063 91.4349 636.201 87.8155C650.591 79.3306 654.941 95.4537 656.406 106.29C659.63 130.129 654.196 154.2 646.541 176.657C672.959 166.656 698.04 161.461 725.891 169.728C733.161 171.886 756.664 182.431 758.967 189.61C763.788 204.641 745.205 205.429 735.919 208.644C722.591 213.257 708.754 218.531 697.503 227.167C740.207 250.709 775.001 291.445 784.117 340.438C785.69 348.892 790.266 373.402 775.171 371.489C771.416 371.013 744.513 353.218 743.443 354.667C744.727 365.511 747.472 376.275 748.417 387.177C751.307 420.481 744.178 453.898 733.659 485.384C733.468 486.181 733.904 486.625 734.34 487.2C736.742 490.368 747.194 496.687 751.45 501.141C781.362 532.436 786.887 580.815 776.722 621.492C758.389 694.859 681.121 756.273 603.711 738.781C601.956 743.022 600.027 747.339 597.766 751.338C574.67 792.175 536.574 832.807 492.988 851.444C490.096 852.681 486.499 852.699 483.794 854.24C480.509 856.112 475.654 862.746 472.204 865.637C460.948 875.067 448.897 881.685 433.981 876.961C431.839 876.282 430.334 874.566 428.8 874.065C424.646 872.71 418.529 881.107 415.266 883.637C400.981 894.713 385.952 903.239 367.961 894.054C365.674 892.887 359.344 887.462 357.511 887.823C343.738 898.244 328.548 908.317 310.685 902.393C305.298 900.607 297.611 895.572 293.016 892.083C290.28 890.005 286.251 884.288 283.217 883.821C281.375 883.537 269.831 889.029 265.354 889.559C247.73 891.645 235.731 881.937 225.036 869.137C223.004 866.704 216.31 855.761 215.01 855.121C212.454 853.864 205.066 856.707 201.528 856.749C185.06 856.945 174.544 844.454 168.889 830.347C167.27 826.309 166.05 817.083 164.517 814.723C163.452 813.083 157.034 809.043 155.07 807.181C117.817 771.864 92.4623 728.661 79.6472 678.687C13.3384 659.605 -13.2254 588.357 6.22877 525.147C18.3499 485.763 51.7871 448.072 96.1544 450.672C96.4838 440.528 95.709 430.269 96.108 420.125C97.7061 379.501 105.47 340.577 120.946 302.991C123.435 296.944 128.103 289.879 130.097 284.147C130.961 281.666 129.125 283.26 128.357 283.403C112.697 286.314 86.1788 300.653 72.2538 309.245C63.8866 314.407 51.6568 325.442 44.1092 329.061C37.4714 332.244 29.1175 328.761 28.244 321.067C27.7558 316.767 31.8704 303.118 33.4601 298.408C53.5865 238.779 109.472 194.652 170.066 181.656C164.813 177.422 156.77 175.726 150.305 173.951C123.885 166.699 93.0642 162.777 65.6418 163.625C58.1046 163.859 46.6644 167.425 40.044 163.335C34.9128 160.165 34.0997 153.845 36.7916 148.743C38.7108 145.105 51.8351 133.836 55.7359 130.709C117.979 80.8133 206.658 75.2013 278.947 105.657C259.153 81.2415 232.2 62.4061 204.701 47.4946C195.666 42.5951 167.185 34.9711 178.512 20.6212C182.091 16.0867 201.423 12.1025 207.796 10.9364C282.548 -2.74134 365.539 27.9175 420.317 78.6402C430.824 88.3693 439.508 99.7208 449.748 109.667C446.061 75.7077 434.319 43.5386 421.829 12.0519C422.355 -10.1842 451.071 4.13849 462.418 9.49273C518.503 35.9565 566.763 91.9382 583.616 151.662ZM307.915 202.677C275.464 206.461 241.726 223.112 216.544 243.694C161.502 288.681 138.322 353.489 134.117 423.177C132.158 455.654 135.862 492.12 128.618 523.671C124.247 542.706 116.927 560.69 113.446 580.483C103.021 639.775 117.796 701.644 153.271 749.982C157.197 755.33 165.338 766.144 170.035 770.192C176.353 775.636 177.207 767.234 184.488 767.698C195.556 768.404 193.76 782.815 195.175 790.032C196.295 795.748 200.32 814.558 204.484 817.765C209.098 821.318 218.997 806.633 226.506 806.65C237.552 806.676 237.259 818.103 240.507 825.65C242.316 829.855 245.122 835.805 247.564 839.585C249.132 842.012 255.846 850.155 257.986 851.144C268.228 855.881 275.904 833.746 284.914 832.069C296.056 829.995 298.206 842.728 303.111 849.976C306.258 854.628 316.33 866.719 322.247 866.38C327.646 866.071 339.153 855.336 342.849 851.14C348.985 844.174 355.229 828.87 367.37 837.646C371.705 840.778 377.515 860.104 385.163 859.443C392.181 858.837 407.648 840.389 412.19 834.557C418.124 826.94 420.441 815.793 432.225 817.729C442.836 819.473 441.492 839.305 448.053 837.549C453.676 836.043 468.853 815.741 472.753 810.188C476.219 805.253 481.088 793.915 485.799 791.252C494.838 786.143 501.674 793.975 502.713 802.666C529.798 784.555 554.34 755.546 568.484 726.024C571.888 718.921 576.101 703.23 579.766 698.318C587.77 687.588 602.338 698.94 612.376 701.369C693.614 721.025 775.762 613.048 733.25 540.361C702.36 487.546 643.491 511.492 611.606 549.194C603.913 558.29 599.154 572.728 584.555 568.222C573.521 564.816 576.125 548.488 575.66 540.125C572.803 488.699 570.076 408.918 591.425 361.99C593.491 357.449 602.613 343.225 602.632 340.183C602.661 335.779 595.653 321.131 593.312 316.454C546.06 222.053 428.641 200.218 340.208 250.496C331.058 255.698 319.867 265.892 311.608 269.865C303.982 273.534 294.83 271.678 291.987 263.114C289.319 255.074 293.966 237.28 296.641 228.881C299.435 220.11 303.952 210.992 307.915 202.677ZM73.1692 634.662C72.2058 611.453 73.9418 589.332 78.6592 566.657C83.057 545.518 93.3016 522.018 95.1396 501.155C95.2984 499.353 95.9498 490.985 95.8144 490.105C95.3238 486.918 86.3344 487.605 83.9186 487.928C65.8542 490.345 50.3676 509.904 43.724 525.683C28.4966 561.85 34.8697 616.115 73.1692 634.662Z" fill="var(--fill-0, black)"/>
<path id="Vector_2" d="M257.718 505.661C267.181 506.298 292.536 511.169 297.524 519.316C300.581 524.31 299.988 532.977 293.628 535.116C286.701 537.446 268.725 532.969 260.257 532.625C222.216 531.076 176.792 549.432 183.902 595.063C191.457 643.55 260.36 649.886 297.657 635.149C305.816 631.925 320.355 619.44 327.659 627.148C340.662 640.871 310.466 662.197 299.884 667.377C254.565 689.562 188.044 678.277 159.419 634.574C131.979 592.682 146.493 533.853 193.626 514.512C193.546 506.64 191.574 499.12 191.805 491.172C192.333 472.995 201.474 441.509 222.495 437.904C256.81 432.019 263.987 481.758 257.718 505.661Z" fill="var(--fill-0, black)"/>
<path id="Vector_3" d="M458.234 629.903C485.314 625.363 506.965 642.168 512.164 668.439C514.308 679.274 513.201 699.6 496.711 692.905C491.739 690.887 486.835 674.722 483.007 675.668C482.313 675.839 475.874 685.473 474.449 687.136C420.196 750.421 309.83 782.3 234.725 739.185C225.656 733.978 204.212 719.713 213.288 707.687C220.389 698.277 235.727 709.255 244.486 712.413C303.323 733.626 367.547 725.911 420.454 693.081C430.884 686.609 454.484 668.948 459.587 658.233C462.252 652.637 456.304 653.07 452.791 650.877C441.759 643.992 446.274 631.909 458.234 629.903Z" fill="var(--fill-0, black)"/>
<path id="Vector_4" d="M419.304 447.914C475.277 441.95 468.419 579.003 410.277 560.44C373.548 548.713 375.937 452.535 419.304 447.914Z" fill="var(--fill-0, black)"/>
<path id="Vector_5" d="M405.312 321.926C439.328 317.348 487.327 346.495 503.618 375.995C510.255 388.012 522.671 428.451 497 423.61C491.516 422.576 482.955 405.557 478.444 400.196C463.097 381.955 441.148 368.471 417.596 364.111C412.264 363.124 405.696 363.473 400.498 362.229C380.127 357.351 381.45 325.138 405.312 321.926Z" fill="var(--fill-0, black)"/>
<path id="Vector_6" d="M247.523 325.959C258.576 324.941 272.531 325.785 276.99 337.874C281.471 350.02 275.298 363.488 261.953 365.405C256.129 366.242 250.053 365.167 244.249 365.682C226.874 367.224 205.815 378.796 193.264 390.64C186.858 396.685 179.042 411.634 168.772 401.212C159.156 391.452 173.879 369.508 180.833 361.196C196.126 342.918 223.722 328.15 247.523 325.959Z" fill="var(--fill-0, black)"/>
<path id="Vector_7" d="M681.04 551.965C691.055 551.119 706.873 554.548 707.268 567.201C707.733 582.133 694.136 578.705 685.004 579.925C668.915 582.076 656.468 596.293 650.802 610.685C647.284 619.62 647.587 633.298 634.692 633.584C619.465 633.922 621.618 614.642 624.03 604.884C630.379 579.208 653.798 554.268 681.04 551.965Z" fill="var(--fill-0, black)"/>
</g>
</svg>
