<svg width="444" height="250" viewBox="0 0 444 250" fill="none" xmlns="http://www.w3.org/2000/svg">
<path d="M174.824 153.89L175.976 154.15C178.281 158.401 179.619 162.948 182.918 166.615C186.856 170.993 194.516 174.852 200.484 173.308C209.319 171.022 210.319 161.135 205.8 154.404C204.879 155.161 204.398 159.493 203.232 159.502C201.134 159.519 202.743 152.591 200.778 151.718C199.828 151.295 198.876 152.566 198.14 152.924C195.321 154.297 192.495 154.528 189.417 153.822C188.669 153.65 185.246 152.105 185.015 152.148C183.741 152.385 184.776 153.766 184.837 154.286C184.921 155.015 184.991 159.252 183.711 158.968C183.088 158.83 181.687 156.304 181.125 155.669C178.775 153.01 168.09 148.316 164.2 145.96C162.281 144.798 159.434 142.405 157.529 141.622C157.212 141.492 156.931 141.359 156.575 141.423C155.681 147.831 152.95 153.872 149.075 159.063C148.448 159.902 145.767 162.518 145.781 163.184C145.794 163.805 147.802 164.811 148.43 165.13C151.802 166.843 155.69 168.096 159.072 169.863C160.739 171.416 160.961 173.671 159.891 175.641C160.213 179.094 161.347 182.396 161.973 185.806C161.769 187.081 160.323 186.578 160.177 186.716C159.902 186.978 160.544 190.433 157.77 189.468C155.888 188.814 154.727 175.718 154.125 173.486C148.443 170.304 142.477 167.701 136.905 164.325C136.063 161.732 138.272 159.912 139.036 157.778C139.184 157.363 139.768 155.068 139.606 154.909C138.915 154.235 138.17 156.351 137.921 156.674C134.807 160.702 129.751 164.546 124.339 164.039C119.856 163.619 124.037 161.465 125.347 160.258C126.919 158.808 129.851 155.871 131.123 154.271C131.789 153.433 132.537 151.866 132.922 150.839C132.346 150.73 132.109 151.474 131.784 151.878C129.852 154.281 126.567 157.019 123.676 158.35C120.809 159.671 118.354 160.118 115.187 159.486C115.143 158.559 116.388 158.698 117.058 158.414C120.809 156.821 127.331 150.996 128.938 147.274C129.372 146.267 129.669 144.583 128.495 146.073C124.41 151.26 121.893 154.255 114.528 153.898C113.641 153.855 111.888 153.823 111.45 152.875C111.005 151.911 113.842 152.144 114.256 152.079C120.124 151.16 124.951 146.683 125.729 140.801C123.111 137.477 119.779 134.603 116.853 131.505C114.002 128.485 111.357 125.243 108.373 122.343C107.094 121.462 102.986 121.896 100.986 121.513C99.0735 121.147 95.9599 119.631 94.1868 119.613C93.5235 119.607 90.7208 120.965 89.7489 121.209C87.5043 121.772 82.6257 122.672 80.4799 122.218C79.9003 122.095 78.289 121.349 78.0451 120.811C76.7069 117.859 80.2214 115.487 82.2016 113.994C82.927 113.447 83.8614 113.34 84.0818 112.422C80.7767 113.589 75.7741 113.511 72.4528 112.353C69.2732 111.244 67.9777 107.947 71.2581 105.961C74.3229 104.105 79.2281 103.276 82.7955 103.259C82.8117 102.865 82.8972 102.645 82.5337 102.376C82.2101 102.135 78.0064 101.189 76.9664 100.762C75.1887 100.032 71.1527 97.8126 71.5294 95.5656C71.6814 94.6594 73.5662 92.724 74.3882 92.2667C77.5768 90.4926 82.7448 91.5152 86.1397 92.446C87.2468 92.7496 93.137 95.2447 93.5919 94.8629L88.7615 87.8157C85.1736 82.1375 90.3232 80.6464 95.2504 82.1566C98.4664 83.1424 101.806 86.3619 103.724 89.0349C104.843 90.5928 106.24 92.7136 106.447 94.6087C107.512 94.5596 107.461 93.0872 107.885 92.3446C109.976 88.6775 114.533 84.6285 119.097 86.0322C122.472 87.0705 122.081 90.4702 120.966 93.0797C119.801 95.8069 117.777 97.0685 118.286 100.576C118.361 101.09 118.719 101.478 118.793 102.107C119.11 104.809 117.92 105.821 120.187 108.106C122.362 110.3 125.434 112.433 127.786 114.579C128.477 115.209 136.896 123.608 137.291 123.105C137.012 121.534 136.494 119.954 136.296 118.368C135.211 109.699 138.522 100.39 143.962 93.7051C144.496 86.8717 144 79.965 144.225 73.1022C144.882 53.0782 146.088 32.7096 148.602 12.8113C148.878 10.6284 148.273 7.70134 151.567 9.62633C156.373 12.4363 163.365 19.0794 167.63 22.9864C184.464 38.4071 200.242 55.0483 216.477 71.0669C217.795 71.9263 221.053 70.7986 222.768 70.6966C229.389 70.3031 241.334 73.1788 244.966 79.252C245.152 79.563 245.603 80.5623 244.88 80.3571C238.178 75.5242 229.678 72.7983 221.354 73.7501L226.636 75.2601C233.505 77.621 241.549 83.6491 240.886 91.6828C240.842 92.2227 240.799 93.3543 239.989 93.0871C239.767 93.0138 238.488 89.5114 238.109 88.8382C234.698 82.7847 227.177 78.4135 220.539 76.7141C217.419 75.9152 214.015 75.2482 210.812 75.7838C210.736 76.4557 210.825 76.186 211.192 76.2957C218.014 78.34 223.658 81.2645 229.186 85.7114C233.807 89.4287 240.186 96.5355 239.332 102.863C239.121 104.425 238.459 104.802 237.702 103.234C236.284 100.298 235.662 98.1675 233.54 95.3951C232.966 94.6439 229.148 90.1238 228.293 90.7961C229.97 93.6746 231.915 96.3588 232.904 99.5867C233.134 100.338 233.775 102.741 233.696 103.373C233.53 104.697 231.697 103.851 232.154 104.909C232.312 105.275 233.237 105.439 233.658 105.965C235.626 108.424 237.101 112.996 238.788 115.898C241.004 119.711 245.936 125.525 250.19 127.002C251.146 127.334 255.893 127.895 256.054 128.579C256.229 129.323 253.617 129.69 253.108 129.729C249.794 129.988 246.627 128.673 243.99 126.778C242.213 125.502 240.37 122.962 238.819 121.974C237.71 121.268 237.039 121.477 237.79 122.737C238.869 124.545 241.526 127.047 242.938 128.837C248.235 135.55 253.962 142.302 252.972 151.475C252.853 152.58 252.274 154.984 250.915 155.161C251.214 146.832 248.045 139.336 242.938 132.907C241.26 130.795 239.245 128.906 237.415 126.925C236.783 126.242 236.214 124.76 235.235 124.886C234.333 125.771 238.223 130.407 238.839 131.367C243.28 138.281 247.551 144.774 245.969 153.448C245.457 156.254 243.272 160.504 240.725 161.997C238.381 163.372 240.493 160.372 240.757 159.739C241.527 157.897 242.669 154.691 242.443 152.733C242.414 152.48 242.317 151.847 242.045 151.86C241.589 151.882 237.736 158.549 235.749 158.214C236.26 156.024 237.512 154.104 237.945 151.867C238.437 149.325 238.519 146.189 237.99 143.657C237.825 142.868 237.464 140.927 236.519 140.915V149.184C236.519 149.715 236.043 151.95 235.885 152.627C234.501 158.547 230.518 163.819 226.615 168.365C227.768 173.881 228.267 180.801 225.566 185.92C224.938 187.109 222.845 190.369 221.472 190.527C220.917 190.59 221.181 190.457 221.066 190.166C220.456 188.622 222.891 183.001 223.288 180.869C224.501 174.363 222.834 167.891 221.611 161.524C222.652 161.177 223.839 164.053 224.076 164.088C226.112 163.501 227.493 161.195 228.337 159.405C230.403 155.024 230.374 151.111 229.541 146.421C229.395 145.597 228.532 141.526 228.005 141.202C227.731 141.033 227.314 141.205 227.023 141.311C223.924 142.447 218.108 147.133 214.8 149.059C212.857 150.19 210.418 151.091 208.666 152.146C206.806 153.267 208.465 153.563 208.933 154.222C211.953 158.472 212.703 165.861 209.792 170.308C202.601 181.288 185.344 176.323 178.724 167.204C177.55 165.588 174.824 160.161 174.824 158.343V153.89ZM161.713 21.8405C161.897 21.574 161.608 21.39 161.441 21.225C160.02 19.8257 157.986 18.0543 156.437 16.7634C155.888 16.3051 150.966 12.3559 150.662 12.6871L150.148 23.6247C150.616 23.7286 150.651 23.4832 150.873 23.2005C152.095 21.6451 153.25 19.021 155.026 17.8968C156.276 17.1056 155.333 19.6143 155.13 20.0366C154.053 22.2775 152.096 24.4403 151.127 26.7591C150.463 28.3467 150.053 31.1511 149.894 32.9166C149.8 33.9534 149.948 35.05 149.892 36.0926C151.305 34.5302 152.082 32.2525 153.28 30.4164C154.753 28.1579 156.991 25.4027 159.022 23.6328C159.538 23.1836 161.621 21.9729 161.713 21.8405ZM149.378 52.6301C150.316 51.7508 150.599 50.2242 151.127 49.148C153.638 44.028 156.932 38.1553 160.324 33.5717C162.207 31.0266 164.462 28.5758 167.108 26.8065C166.318 26.2519 163.588 22.7083 162.738 23.2361C162.61 23.3161 162.55 23.6579 162.395 23.7878C157.107 28.2213 153.56 34.3007 150.006 40.1514L149.378 52.6301ZM148.347 74.8921C148.003 76.8047 148.601 79.6135 148.347 81.6343L156.825 71.0698C158.336 70.6927 156.647 73.1897 156.267 73.8257C155.27 75.4918 148.604 84.9641 148.604 85.8323V92.0657C154.082 89.0753 159.883 86.634 165.759 84.4926C171.102 82.5452 176.648 80.6755 182.082 79.0222C184.501 78.2859 187.014 77.8165 189.456 77.1621C190.523 76.5387 190.359 75.5282 190.823 74.6978C191.917 72.7381 192.953 70.7073 194.06 68.7425C195.889 65.4953 198.024 62.4162 199.756 59.112L174.131 33.8292C173.679 33.7096 172.074 35.1683 171.604 35.5771C170.566 36.4813 169.182 37.8596 168.265 38.8877C167.836 39.3693 163.89 44.9514 163.258 44.233C163.344 43.4356 163.355 42.1558 163.654 41.4469C163.987 40.6571 165.958 38.0134 166.606 37.2451C168.272 35.2696 170.342 33.5748 172.492 32.1539C172.513 31.9111 169.415 28.941 169.052 28.6994C168.792 28.5269 168.678 28.394 168.321 28.4871C167.842 28.6118 164.06 32.7224 163.513 33.4208C162.455 34.7716 161.158 36.8206 160.221 38.3042C157.134 43.19 149.491 56.1959 148.863 61.4101L148.607 70.9485C149.744 70.1222 150.413 68.7189 151.562 67.8975C151.769 67.7496 152.616 67.0843 152.717 67.7728C152.988 69.6118 148.57 73.6501 148.347 74.8921ZM200.726 73.9398L205.665 65.2163C205.658 64.9092 201.946 61.09 201.443 60.7591C201.197 60.597 201 60.4485 200.679 60.499L192.042 75.9068C191.9 76.6164 193.202 76.2564 193.604 76.1781C195.935 75.7242 198.414 74.5525 200.726 73.9398ZM212.355 72.2181C210.75 70.0245 208.878 68.0072 206.703 66.3696C206.665 67.6655 202.596 73.3023 203.103 74.0016L212.355 72.2181ZM223.15 89.0114C223.232 88.3893 222.82 87.9605 222.484 87.5102C221.892 86.7142 220.179 84.9044 219.427 84.1754C216.042 80.8932 210.757 77.6817 205.93 77.5662L214.959 82.4921C217.2 83.8842 219.036 85.7949 220.965 87.4856C221.198 87.6904 222.991 89.1838 223.15 89.0114ZM226.514 113.925C226.059 111.144 226.232 108.264 225.692 105.453C223.266 92.8292 210.034 82.1154 197.315 80.8732C196.342 80.7783 189.836 81.0252 189.37 81.3513C188.82 81.7365 190.168 86.3344 190.244 87.3628C190.469 90.4453 189.416 94.2837 187.033 96.3896C186.952 92.8542 187.843 89.7095 187.417 86.0897C187.315 85.225 187.06 82.0651 185.753 82.3982L184.52 89.3221C184.24 90.4061 182.974 94.3984 182.394 95.1054C182.197 95.3454 180.338 96.5439 180.065 96.575C178.778 96.7212 176.52 96.1961 174.947 96.3852C173.483 96.5611 169.713 99.7287 168.395 100.841C164.765 103.903 161.474 107.423 157.856 110.51C156.76 112.178 157.593 116.321 157.928 118.329C158.11 119.418 159.561 123.345 158.644 124.01C157.711 124.685 157.79 123.297 157.469 122.599C156.289 120.037 154.383 115.637 151.385 114.883C150.348 114.622 149.426 114.864 148.459 114.486C148.322 114.477 148.356 114.849 148.165 114.96C142.498 118.234 145.292 130.326 150.951 132.358C152.305 132.844 155.078 133.476 156.377 132.96C159.233 131.825 157.975 128.581 159.735 127.868C161.437 127.178 161.955 130.109 162.527 131.079C172.156 147.427 191.924 152.956 209.187 145.03C216.937 141.472 224.115 132.836 225.662 124.445C225.989 122.67 225.404 115.895 227.988 119.972C228.908 121.423 228.866 122.278 229.313 123.755C229.384 123.987 229.184 124.267 229.701 124.118C231.482 123.608 234.158 119.222 234.538 117.456C235.052 115.071 234.154 109.963 231.45 109.161C230.582 108.904 230.955 109.483 230.576 109.963C229.883 110.841 227.629 114.674 226.514 113.925ZM182.278 83.6683C182.066 83.7024 181.589 83.612 181.515 83.6724C181.379 83.7839 180.587 86.4536 180.347 86.9733C179.639 88.5081 178.547 90.4664 177.509 91.7973C176.947 92.5186 175.486 93.1456 175.597 94.3543C176.61 93.9648 179.967 94.0547 180.493 93.4115C181.552 92.1164 181.278 90.5246 181.533 89.1653C181.88 87.3212 182.554 85.6238 182.278 83.6683ZM100.126 88.9074C97.7902 86.3317 94.5286 83.5253 90.7667 84.1799C91.4848 85.7445 92.2383 87.3593 93.129 88.8359C94.0937 90.4351 102.968 101.568 95.3421 98.858C90.197 97.0295 86.4082 93.9688 80.3669 93.8342C79.6477 93.8182 76.3384 94.1212 75.9174 94.4156C75.7383 94.5409 75.3058 95.7118 75.3329 95.9993C75.3772 96.4672 76.1415 97.1308 76.5362 97.3713C79.8985 99.42 86.3238 100.817 90.2514 102.624C91.1144 103.021 94.5007 104.803 91.915 105.288C89.924 105.662 87.2694 104.992 85.2279 105.031C82.1859 105.088 75.3952 106.096 73.0411 107.978C71.4017 109.289 74.2775 110.019 75.329 110.27C80.5102 111.502 85.9081 110.512 91.1388 110.372C91.8375 110.353 94.8236 110.351 93.9887 111.666C93.5965 112.284 88.7566 113.308 87.6137 113.752C85.2251 114.681 81.8279 116.823 80.997 119.287C82.8207 119.692 84.3826 119.55 86.1913 119.214C88.9642 118.699 94.3311 116.235 96.2942 116.222C98.8294 116.204 105.527 117.718 108.313 118.332C111.883 119.119 113.905 122.046 116.347 124.628C124.75 133.514 133.191 143.517 142.051 151.853C143.528 153.243 145.11 154.618 146.667 155.926C147.323 155.766 150.146 149.741 150.476 148.747C150.976 147.241 152.377 141.606 152.195 140.299C151.991 138.837 150.024 138.195 148.995 137.348C146.995 135.7 145.175 133.811 143.209 132.134C134.875 125.021 126.182 118.315 118.096 110.919C117.818 110.71 117.641 110.683 117.32 110.822C116.899 111.004 113.648 113.479 113.388 113.181C113.183 111.299 114.194 109.699 114.552 107.849C114.863 106.25 115.143 104.297 114.869 102.684C114.708 101.741 113.821 100.567 113.688 99.7586C113.46 98.3712 116.803 94.0211 117.546 92.2388C117.822 91.5776 118.812 89.0306 118.496 88.5356C117.389 87.9566 116.034 88.4043 115.006 88.9611C111.217 91.0124 110.261 96.5583 107.692 99.5322C106.971 100.367 105.657 100.938 104.772 101.985C104.034 102.858 102.189 105.896 102.068 106.944C101.903 108.373 102.92 109.573 102.823 109.954C102.644 110.659 101.632 110.977 100.962 110.608C98.8267 109.434 99.5142 106.226 100.222 104.351C100.936 102.459 104.18 98.6574 104.143 97.0404C104.07 93.9181 102.152 91.1414 100.126 88.9074ZM178.165 84.4343C177.124 84.3059 176.271 84.5281 175.285 84.7621C168.328 86.4141 154.174 91.8007 148.37 95.778C142.984 99.4689 141.334 105.4 141.409 111.656C141.854 111.586 141.855 111.148 141.991 110.835C144.172 105.814 144.52 103.06 148.354 98.5606C148.766 98.0768 151.409 95.0848 151.944 95.6289C151.99 96.2233 151.95 96.7902 151.773 97.3648C151.372 98.6674 149.381 101.601 148.64 103.169C148.014 104.495 146.404 107.724 146.289 108.987C146.255 109.365 146.132 109.727 146.672 109.619C151.088 103.816 154.89 97.5043 159.915 92.1921C160.381 91.8851 160.919 92.1126 160.937 92.6831C160.983 94.1049 153.436 104.658 152.159 106.906C152.015 107.159 150.933 108.867 151.812 108.6C156.057 105.522 160.644 102.292 164.545 98.8115C167.867 95.8485 170.79 92.4143 173.918 89.2602C174.473 88.6997 178.998 85.2356 178.165 84.4343ZM232.919 135.064C233.423 133.154 232.114 126.554 228.956 128.723C227.387 129.801 230.081 131.498 230.461 132.026C231.103 132.915 231.174 135.415 232.919 135.064ZM143.977 158.476C143.618 158.556 143.238 158.022 143.074 158.018C142.271 158.002 140.789 161.137 141.151 162.031C141.637 162.586 143.707 158.807 143.977 158.476Z" fill="black"/>
<path d="M88.3234 196.633C89.8174 196.816 91.5552 197.597 91.663 199.295C91.7327 200.391 90.7516 204.575 90.3856 205.798C90.1973 206.427 89.4346 208.397 89.0719 208.823C87.643 210.501 82.4664 209.076 80.4935 208.7C80.1709 208.639 79.7938 208.603 79.7132 208.976C79.6461 209.287 80.9563 210.234 81.2764 210.477C82.4798 211.391 86.5477 213.424 87.1832 214.297C87.7579 215.086 87.4603 215.901 86.7826 216.479C86.2807 216.908 83.2846 218.203 82.5544 218.401C81.6021 218.659 76.0694 219.277 75.8795 219.555C75.4569 220.27 76.6977 221.352 76.6257 221.679C76.3204 223.065 70.4855 222.956 69.304 222.835C68.5805 222.761 66.789 222.019 66.5139 222.096C65.7807 222.299 66.0952 225.047 63.1311 225.383C60.469 225.684 56.7816 224.883 54.2733 223.973C53.4201 223.664 50.7478 222.73 50.6846 221.711L54.9902 209.415C54.8441 207.748 53.4381 206.366 54.2575 204.536C50.3429 203.455 46.4344 202.717 42.6414 201.139C33.2138 197.215 21.2329 187.614 16.1739 178.74C15.2932 177.195 13.8755 172.782 13.0204 171.938C12.194 171.124 9.02901 169.764 7.61349 168.639C5.53433 166.988 0.658198 161.699 4.32972 159.552C8.03693 157.383 14.71 158.279 18.7861 158.978C18.9629 158.274 18.3468 158.541 18.0682 158.048C17.8729 157.702 17.6784 156.649 17.444 156.492C17.2284 156.348 16.6582 156.413 16.2924 156.239C12.4624 154.411 13.0952 149.274 16.2174 147.024C5.65191 143.634 13.312 135.692 21.1857 137.836C22.2223 136.125 23.4616 133.803 25.406 132.835C28.0838 131.501 32.3444 131.676 32.4143 135.317C34.878 134.847 37.0108 133.314 39.6123 133.282C39.701 131.897 38.8725 130.702 38.8228 129.34C38.5999 123.238 45.9795 123.473 47.5832 128.447C47.9144 128.75 48.6306 127.478 48.9879 127.169C50.1056 126.202 52.6108 124.906 54.0731 125.193C55.372 125.448 56.7379 126.571 57.0424 127.867C57.5071 129.845 54.8421 131.917 55.049 132.612C55.7935 133.353 56.8173 133.742 57.6103 134.421C58.7192 135.37 58.6076 136.527 60.6898 136.079C59.6777 132.853 61.2497 128.809 64.962 128.459C67.5241 128.218 71.4552 131.919 70.9731 134.553C71.6049 134.524 71.9865 133.961 72.5845 133.733C76.201 132.355 82.4782 132.694 80.0231 138.042C79.7001 138.746 78.4277 139.675 78.4078 139.793C78.3412 140.19 79.8662 142.116 79.9674 143.102C80.0683 144.086 79.1515 144.867 79.239 145.33C79.3098 145.704 81.6315 147.293 81.9287 148.018C82.3254 148.087 86.1019 144.851 86.9372 144.376C89.1016 143.146 95.413 141.277 97.5214 142.685C97.6172 142.749 98.3177 143.649 98.347 143.725C98.9384 145.255 95.8278 151.198 94.8297 152.697C94.3295 153.448 92.2872 155.614 92.1647 156.157C92.0977 156.453 92.8936 158.063 92.9424 158.846C93.0436 160.47 92.7588 163.508 92.5617 165.209C91.6027 173.483 88.125 189.805 81.9075 195.627C81.693 195.828 80.2755 196.633 81.3827 196.633C83.4751 196.633 86.3526 196.391 88.3234 196.633ZM50.9219 133.789C50.5343 133.357 52.3117 132.304 52.5987 132.016C53.4239 131.19 55.7972 128.629 54.1487 127.67C52.7254 126.842 50.5997 128.914 49.7745 129.984C49.2491 130.666 49.1048 132.244 47.7082 132.246C45.6827 132.249 46.0632 127.549 43.5406 126.975C40.9124 126.378 40.9054 128.928 41.1753 130.842C41.366 132.195 42.2769 133.297 42.9532 134.42C42.757 134.669 42.4912 134.845 42.19 134.944C39.9524 135.681 37.0836 135.877 34.7808 136.769C34.4991 136.878 33.24 137.329 33.4432 137.731C33.7352 138.307 38.1749 139.204 38.7106 140.398C40.1742 138.319 44.7982 136.124 47.0629 137.738C48.6418 138.863 48.1383 139.593 50.9193 140.28C54.3394 141.125 53.2814 139.952 55.1537 138.107C56.2701 137.007 57.6673 137.393 56.0342 135.727C54.6137 134.277 52.8697 134.042 50.9219 133.789ZM65.3152 142.442C64.9267 144.852 62.7717 143.471 62.9908 146.397C63.2871 150.354 69.8776 149.503 69.0458 146C68.7735 144.853 67.0192 143.358 68.0472 142.459C69.4321 142.03 71.1784 145.576 74.0663 145.133C75.7998 144.866 77.3531 144.212 76.4925 142.191C76.103 141.277 73.6795 140.576 73.8005 140.027C73.9474 139.362 78.3202 137.884 77.802 135.816C77.5679 135.565 77.248 135.501 76.9422 135.388C73.9074 134.264 70.1712 137.708 69.0782 137.334C67.8984 136.931 68.5657 133.766 67.7455 132.529C66.0364 129.952 63.0825 130.027 62.792 133.41L64.1784 137.862C63.7385 138.722 61.457 138.283 60.5653 138.375C58.9908 138.536 55.5442 139.384 56.0453 141.513C56.0936 141.719 59.592 142.917 60.0488 142.953C61.7515 143.09 63.5859 142.294 65.3152 142.442ZM17.1177 144.985C18.4026 145.165 20.0292 144.854 21.3592 144.985C21.2295 146.274 19.4802 146.783 18.529 147.654C17.3738 148.712 16.3247 150.093 16.3544 151.729C16.3845 153.386 18.1412 154.223 19.625 153.828C21.2427 153.398 23.5555 150.172 23.8315 150.102C24.8921 149.837 24.9408 151.991 25.5889 152.629C26.9094 153.93 31.1628 154.705 32.2644 152.853C33.3743 150.987 32.2205 146.85 32.4409 146.54C32.7649 146.083 36.718 145.987 37.1923 143.466C37.7604 140.447 32.9542 140.463 30.991 140.652C30.2491 140.724 29.7575 141.329 29.0652 141.049C28.3122 140.535 29.6979 138.972 29.9233 138.323C30.539 136.551 30.8867 134.439 28.4368 134.543C27.1838 134.596 25.6727 136.008 24.9585 136.971C23.7832 138.556 24.0825 141.028 21.4986 140.668C20.9672 140.594 20.8052 140.077 20.4056 139.95C18.8067 139.444 15.0753 139.418 13.9022 140.784C12.2374 142.723 15.3329 144.735 17.1177 144.985ZM42.5212 145.915C45.6057 147.897 46.9664 141.697 45.5805 139.458C44.723 138.072 42.5319 139.364 41.6562 140.268C40.631 141.325 40.3027 142.522 40.754 143.981C40.8536 144.303 42.2542 145.744 42.5212 145.915ZM62.4785 150.825C62.7883 150.387 61.436 149.018 61.1577 148.465C60.8255 147.806 60.3721 145.628 59.9232 145.362C59.45 145.081 58.4529 145.314 57.7934 145.18C56.9522 145.009 56.1377 144.31 55.3642 144.022C53.1944 143.216 51.0371 142.34 48.6496 142.738C48.1747 143.669 47.9243 144.817 47.4212 145.719C46.8528 146.738 45.3687 147.489 46.8138 148.167C48.0428 148.743 48.8791 146.89 49.7076 146.434C51.3902 145.509 54.736 145.934 55.8127 147.649C56.3313 148.475 56.1947 150.25 57.0975 150.703C57.2856 150.797 60.6392 151.589 60.8307 151.578C60.9213 151.573 62.4265 150.898 62.4785 150.825ZM84.0819 156.432C84.8389 156.128 85.7401 156.533 86.4035 156.334C86.99 156.159 89.7994 153.947 90.383 153.384C92.1674 151.663 95.2788 147.22 95.5994 144.797C95.7498 143.66 93.8625 144.162 93.0648 144.335C90.2786 144.938 86.4238 146.721 84.3358 148.671C83.5478 149.407 81.9804 152.019 81.3366 152.071C81.0301 152.096 77.2108 148.667 76.6221 148.164L75.7782 148.07C74.8151 149.424 73.2833 150.196 72.3774 151.592C70.3036 154.788 69.5926 159.651 68.1512 163.179C68.1707 163.615 68.4564 163.491 68.7817 163.301C71.1599 161.917 72.5946 160.063 74.5671 158.339C74.9811 157.977 76.6536 156.494 76.9492 156.373C78.8637 155.59 79.626 157.401 80.4697 157.076L89.3516 148.552C90.4326 149.476 88.7519 150.55 88.3525 151.12C87.0172 153.027 85.5799 154.625 84.0819 156.432ZM40.316 148.994C41.3062 148.047 38.5163 146.266 37.6766 146.286C36.4382 146.315 35.2985 147.933 35.0525 148.996C34.5588 151.129 35.7994 153.783 36.7115 155.614C36.8893 155.971 37.0866 157.851 37.5833 156.584C38.2852 154.794 36.6616 154.501 36.5224 153.771C36.3703 152.973 36.5391 151.569 36.906 150.832C37.7257 149.184 39.5789 149.698 40.316 148.994ZM53.6721 149.129C53.0579 148.407 50.9921 148.375 50.1334 148.658C48.9476 149.047 48.5139 151.26 48.2102 151.344C47.7628 151.469 46.8477 150.661 46.2877 150.461C42.7244 149.19 35.3264 152.499 42.011 154.693C42.2209 155.11 43.6578 155.288 43.4639 155.794C43.2543 156.342 41.2975 156.878 40.6559 157.342C38.8493 158.648 38.6953 161.076 39.3779 163.024C42.3265 163.485 44.8401 161.553 47.4543 160.5C48.1173 160.491 49.2127 162.822 49.8832 163.44C51.3672 164.809 53.7443 165.352 55.1817 163.579C56.5791 161.854 53.5686 160.191 53.7553 159.375C53.9881 158.359 56.7483 159.02 57.4666 158.983C60.2416 158.841 61.9247 157.157 61.0528 154.364C60.562 152.792 55.4674 152.45 54.006 152.873C53.8999 151.635 54.5836 150.201 53.6721 149.129ZM67.6285 151.092C66.3389 151.524 65.3413 151.138 64.0621 151.122C63.0662 153.311 64.2799 154.839 64.5467 156.944C65.1386 157.085 64.9683 156.834 65.1344 156.622C65.6329 155.987 68.0161 151.503 67.6285 151.092ZM21.1686 157.386C21.2706 157.508 23.8263 158.699 24.0826 158.722C24.3335 158.745 26.3576 158.5 26.588 158.429C27.961 158.01 26.3651 156.939 26.1419 156.662C25.27 155.578 24.5048 154.401 23.5439 153.386C23.2923 154.246 21.2052 154.952 20.8971 155.467C20.72 155.763 20.9622 157.138 21.1686 157.386ZM34.4666 159.996C34.9 159.417 32.7403 154.949 32.2873 154.952C32.1014 154.953 31.3072 155.586 31.2269 155.91C30.8212 157.548 33.0638 159.51 34.4666 159.996ZM88.9331 159.01C88.1778 158.546 83.1159 160.682 82.0254 161.141C74.8988 164.141 68.1135 168.126 60.7405 170.86C51.1695 174.408 34.4151 178.069 24.3046 177.562C23.1109 177.502 21.624 177.04 20.4656 177.033C20.0781 177.031 19.7108 176.871 19.8189 177.421C20.8009 178.258 21.3648 179.445 22.2468 180.362C32.5549 191.072 52.4112 206.055 68.0663 198.973C82.3702 192.502 87.5433 176.825 88.963 162.41C89.0133 161.899 89.1823 159.163 88.9331 159.01ZM20.5879 165.591C20.3659 160.494 13.0676 159.878 9.15097 160.253C5.64532 160.587 5.20947 161.382 7.26513 164.15C9.74486 167.489 16.5878 170.246 20.7127 169.916C21.473 169.855 22.8167 169.782 22.331 168.949C22.1179 168.583 18.3995 167.016 17.7054 166.793C15.6451 166.13 12.6622 166.019 10.9391 165.094C10.5056 164.861 9.95733 164.701 10.051 164.067C12.1291 164.739 14.4221 163.981 16.5643 164.36C18.0589 164.624 19.0604 165.541 20.5879 165.591ZM62.4557 161.046C62.0055 160.339 58.4176 161.191 57.7275 161.771C57.3373 163.001 57.1921 167.034 58.372 167.772C58.9404 168.128 60.3346 167.252 60.659 166.708C60.9052 166.295 62.3065 162.625 62.4279 162.094C62.493 161.809 62.5981 161.269 62.4557 161.046ZM33.3125 171.954C34.2343 172.129 36.1019 171.954 37.1684 171.954C37.3151 171.954 38.2748 172.629 38.3232 171.957C36.5176 171.999 36.0841 171.026 34.9668 170.317C33.8234 169.591 32.5924 168.964 31.5183 168.132C30.9823 167.717 28.4336 165.731 29.0723 165.086C30.009 164.14 37.4171 170.489 38.9642 170.685C39.4012 170.687 38.7875 169.122 38.7057 168.906C36.6025 163.34 31.0832 160.094 25.144 161.325C20.5528 162.276 25.1277 168.196 27.2833 169.525C28.1306 170.048 32.4163 171.784 33.3125 171.954ZM47.2495 170.243C47.5721 170.501 47.4182 171.028 48.2288 171.189C49.8388 171.507 53.3011 170.414 51.922 168.29C51.5801 167.763 46.1559 165.265 45.1279 165.071C43.1012 165.133 43.2626 166.08 44.2349 167.434C44.9891 168.484 46.3083 169.493 47.2495 170.243ZM24.0583 172.208H19.0456C21.0269 174.069 24.7046 174.561 27.273 173.859L24.0583 172.208ZM82.714 202.307C83.9122 203.658 81.6327 203.61 80.6315 203.481C78.8168 203.247 76.842 202.705 74.9564 202.718C73.0138 202.732 74.2736 203.833 75.2563 204.477C76.9529 205.59 81.1768 206.494 83.1957 206.797C84.4403 206.983 86.196 207.079 86.8736 205.884C87.216 205.28 88.107 202.046 88.1649 201.305C88.2672 199.998 88.2095 199.59 86.7855 199.427C83.9968 199.108 76.6175 199.435 73.9405 200.207C73.666 200.286 73.4203 200.268 73.3054 200.6C72.672 202.434 75.6152 201.484 76.4879 201.457C77.9501 201.41 81.7493 201.219 82.714 202.307ZM70.379 204.695C71.3045 203.877 70.9035 201.798 70.0766 201.772C69.8669 201.765 66.4791 203.407 66.3871 203.67C65.8483 205.209 67.0929 206.026 68.471 205.741C68.5777 205.719 70.2839 204.779 70.379 204.695ZM62.2312 204.01L57.8012 204.778C56.5758 205.346 58.3447 206.583 58.9994 206.828C61.3539 207.707 62.592 206.29 62.2312 204.01ZM69.7109 207.852C69.5908 208.019 69.6903 208.426 69.7428 208.653C70.5851 209.751 73.7843 215.974 74.5685 216.352C74.9892 216.554 75.529 216.505 75.991 216.492C77.2692 216.458 80.128 216.182 81.3714 215.958C81.8838 215.865 82.3988 215.406 82.7916 215.079C81.6483 214.039 80.1742 213.447 78.9622 212.513C77.1016 211.08 74.0012 207.158 71.6224 207.307C71.3342 207.325 69.7779 207.759 69.7109 207.852ZM67.5418 209.186C67.0347 208.702 66.4076 208.528 65.7063 208.573C65.3143 208.598 63.3271 209.388 63.136 209.613C62.3849 210.499 62.0501 215.504 61.0715 215.967C60.6157 216.182 60.6842 215.661 60.6137 215.414C60.074 213.524 60.884 211.775 60.6904 209.862C59.9708 209.91 59.0916 209.668 58.4843 210.097C57.8439 210.551 55.1392 219.341 54.7871 220.787C57.0678 221.561 60.1922 222.183 62.6027 221.806C64.5148 221.508 64.3449 219.09 65.9552 219C67.0309 218.939 72.3826 220.463 72.7808 220.183C73.054 219.991 73.0307 219.729 73.0179 219.438C72.9582 218.077 70.5604 213.849 69.7351 212.486C69.2498 211.685 68.1307 209.749 67.5418 209.186Z" fill="black"/>
<path d="M372.505 77.5625C383.97 73.3169 395.051 79.4453 398.708 90.6819C402.884 103.513 396.815 125.294 382.288 129.1C381.403 129.332 378.837 129.054 379.968 130.347C381.144 131.693 383.267 132.159 383.754 134.483C384.019 135.747 383.371 137.647 382.02 138.014C381.313 138.206 377.332 136.951 377.11 138.022C377 138.554 378.014 141.046 378.14 141.822C378.397 143.403 378.349 146.563 378.139 148.146C377.001 156.709 369.982 163.055 370.96 171.829C371.076 172.875 373.136 177.234 371.096 177.29C368.877 177.351 368.224 173.445 368.123 171.838C367.505 162.096 374.267 155.943 375.33 146.638C375.464 145.462 375.821 139.242 375.09 138.736C374.061 138.024 370.369 140.047 369.361 137.03C368.762 135.239 369.926 133.569 371.005 132.181C371.398 131.675 373.786 129.564 373.531 129.215C368.749 127.474 364.334 123.374 361.867 119.003C361.236 117.884 358.978 111.733 358.631 111.515C357.971 111.098 357.483 112.017 356.824 112.294C356.127 112.586 352.429 113.211 352.195 113.44C351.799 113.827 352.395 113.912 352.522 114.02C353.998 115.282 356.161 116.739 356.703 118.774C357.161 120.493 356.137 122.64 354.149 122.577C353.109 122.543 349.77 120.83 350.255 122.853C351.2 126.79 353.011 132.023 354.803 135.663C358.551 143.281 364.348 147.391 364.017 156.814C363.899 160.172 362.814 163.444 362.482 166.743C362.344 168.116 363.02 171.145 361.626 171.77C360.506 172.273 359.958 169.195 359.896 168.531C359.316 162.281 362.652 156.147 360.43 149.938C359.106 146.238 355.708 142.944 353.731 139.523C350.653 134.198 349.574 128.544 348.319 122.615C347.626 122.127 342.357 125.137 341.716 121.389C341.134 117.987 345.087 116.274 346.279 113.578C344.361 112.555 342.309 112.031 340.365 111.026C325.104 103.133 317.873 81.6349 324.168 65.9793C329.956 51.585 347.575 44.2032 361.169 53.2895C368.839 58.4162 372.486 68.6788 372.505 77.5625ZM346.477 51.9317C327.635 54.1003 321.527 74.2182 327.651 90.026C331.693 100.46 346.944 116.163 358.368 106.189C371.022 95.1421 374.343 66.839 360.142 55.8326C356.599 53.0867 350.96 51.4159 346.477 51.9317ZM367.45 120.224C376.973 131.827 388.893 123.84 394.022 112.982C396.807 107.088 397.756 99.6756 396.334 93.286C393.907 82.3888 383.807 75.576 372.795 79.8873C372.312 85.6621 371.433 91.228 369.284 96.639C367.475 101.193 364.843 105.434 361.49 109.021C362.768 111.487 363.584 114.275 364.999 116.667C365.529 117.563 366.803 119.436 367.45 120.224ZM352.111 117.087C351.872 116.905 350.408 116.057 350.214 116.025C348.82 115.797 344.57 119.354 345.256 120.051C348.013 118.882 350.792 118.738 353.737 119.288C354.074 118.964 352.423 117.326 352.111 117.087ZM373.276 134.808C375.484 134.123 377.868 134.044 380.067 134.788C381.482 134.486 378.733 131.411 377.279 131.504C376.408 131.56 372.802 134.347 373.276 134.808Z" fill="black"/>
<path d="M270.195 189.254C270.64 189.369 270.709 189.071 270.966 188.875C273.989 186.58 275.582 183.819 279.61 182.165C288.34 178.58 293.099 185.4 287.16 192.305L300.001 195.627C300.084 197.103 299.935 198.602 300.002 200.079C300.11 202.485 299.981 204.388 300.001 206.67C300.018 208.5 300.773 216.185 299.946 217.176C290.69 221.887 281.354 226.462 271.872 230.732C270.264 231.153 269.227 230.294 267.994 229.978C263.348 228.787 258.372 227.388 253.797 225.965C253.006 225.719 250.004 224.853 249.607 224.515C248.536 223.603 249.771 221.805 249.895 220.431C250.193 217.121 249.611 210.506 248.781 207.268C248.651 206.759 247.839 203.99 247.7 203.758C247.234 202.978 240.382 201.547 239.033 201.142C237.596 200.711 234.088 199.723 232.987 199.006C232.644 198.782 231.984 197.569 231.983 197.27C231.979 196.44 235.023 195.214 235.794 195.026C237.496 194.612 239.025 194.395 240.836 193.91C241.428 193.752 243.625 193.621 243.715 193.195C241.911 191.154 240.642 187.816 242.073 185.21C243.946 181.799 249.175 182.433 252.258 183.727C254.122 184.509 255.438 186.156 257.339 186.71C256.782 184.525 257.187 180.434 258.962 178.904C260.342 177.714 262.227 177.563 263.977 177.98C268.272 179.005 270.305 185.367 270.195 189.254ZM261.632 180.904C259.081 181.688 260.574 188.23 261.324 190.019C261.621 190.728 263.622 194.454 264.374 194.325C266.848 192.366 266.94 189.547 266.534 186.644C266.258 184.667 264.219 180.11 261.632 180.904ZM267.109 196.122C272.318 195.453 279.702 194.025 283.309 189.897C285.473 187.422 286.269 183.829 281.654 184.445C278.877 184.815 269.694 192.726 267.745 195.101C267.61 195.266 267.029 196.06 267.109 196.122ZM256.473 189.862C254.328 187.86 249.809 184.58 246.723 185.489C245.855 185.744 245.464 187.693 245.695 188.486C246.218 190.286 247.934 191.439 249.449 192.359C252.785 194.383 256.594 195.455 260.424 196.124C259.731 193.568 258.387 191.649 256.473 189.862ZM293.842 196.126C291.051 196.466 287.541 194.213 284.977 194.328C284.366 194.355 280.696 196.149 280.036 196.572C279.787 196.732 279.576 196.544 279.704 197.14C281.954 197.32 285.195 199.631 287.289 199.443C288.005 199.379 292.452 197.404 293.253 196.94C293.607 196.734 293.941 196.625 293.842 196.126ZM253.74 198.922C253.825 198.486 253.643 198.395 253.291 198.224C251.929 197.562 246.198 195.676 244.846 195.642C242.351 195.578 239.77 197.055 237.289 197.144C237.258 197.553 237.224 197.731 237.548 198.032C238.137 198.581 245.065 200.378 246.162 200.446C249.032 200.622 251.034 199.242 253.74 198.922ZM297.183 197.652C296.965 197.421 292.261 199.35 291.612 199.641C290.861 199.976 288.018 201.162 287.814 201.709L288.702 218.769C289.251 219.299 295.339 216.558 296.244 215.917L297.183 197.652ZM270.966 199.937C271.12 200.092 274.066 200.552 274.678 200.718C277.818 201.572 280.493 203.285 283.555 201.086C283.551 200.813 280.152 199.589 279.588 199.42C278.917 199.219 276.193 198.453 275.705 198.42C275.489 198.405 271.921 199.18 271.467 199.305C271.206 199.377 270.595 199.566 270.966 199.937ZM262.738 199.944C261.373 199.886 260.16 199.009 258.782 199.194L251.176 201.595C251.185 202.175 255.193 203.071 255.902 202.989C256.778 202.888 261.018 200.967 262.105 200.459C262.356 200.341 262.709 200.31 262.738 199.944ZM276.876 203.76C273.954 203.111 271.36 201.301 268.277 201.202C265.29 201.105 262.634 202.756 259.912 203.761L260.68 204.396C263.393 204.343 266.828 206.324 269.294 206.323C270.923 206.322 274.27 205.07 275.893 204.437C276.169 204.33 276.87 204.103 276.876 203.76ZM285.078 203.277C284.828 202.866 282.056 203.679 282.016 204.39L283.047 221.06C283.965 221.08 285.682 220.686 285.801 219.628C285.613 214.168 285.36 208.722 285.078 203.277ZM256.568 223.094C256.515 217.357 255.998 211.678 255.488 205.972C255.161 204.815 251.536 204.29 250.401 204.014C250.73 206.037 251.391 208.273 251.655 210.275C251.892 212.066 252.22 221.943 253.026 222.532C253.17 222.638 256.441 223.22 256.568 223.094ZM279.448 205.537C278.945 205.052 272.175 207.869 271.212 208.508C271.275 209.763 271.156 211.036 271.211 212.291C271.359 215.677 271.879 219.109 272.246 222.462C272.321 223.147 271.977 225.762 272.642 225.893C273.016 225.966 278.989 223.269 279.628 222.89C279.952 222.697 280.304 222.557 280.426 222.154L279.448 205.537ZM268.361 208.625L258.627 206.049L259.137 223.224L259.574 223.809L269.421 226.402L268.361 208.625Z" fill="black"/>
<path d="M216.581 205.688C216.791 205.999 217.09 206.449 217.504 206.184C218.525 205.533 220.023 202.853 221.341 201.839C224.653 199.291 230.824 198.404 232.769 203.014C233.002 203.564 233.191 205.281 233.03 205.822C232.774 206.685 232.045 206.734 231.636 207.317C234.424 207.211 237.139 208.371 239.801 209.032C243.753 210.014 246.714 208.883 246.554 214.073C246.441 217.729 245.876 221.387 245.52 225.006C245.325 226.994 245.48 229.229 245.127 231.232C244.857 231.452 244.528 231.718 244.209 231.85C240.506 233.378 236.495 234.177 232.717 235.487C229.641 236.555 226.601 237.764 223.529 238.86C220.297 240.013 220.649 240.404 216.979 239.507C213.971 238.772 210.852 237.457 207.841 236.593C202.668 235.109 197.344 233.958 192.3 232.13C191.27 228.557 191.021 224.874 190.468 221.222C190.193 219.407 188.67 213.585 189.46 212.264C189.657 211.935 190.167 211.7 190.506 211.519C192.266 210.583 196.628 209.237 198.674 208.663C199.594 208.405 203.927 207.761 204.129 207.571C204.656 207.079 203.203 206.976 202.959 206.826C202.345 206.449 201.253 204.274 201.103 203.575C200.421 200.397 202.891 200.156 205.072 198.967C207.475 197.657 206.877 196.838 210.107 197.968C214.419 199.477 214.44 202.514 216.581 205.688ZM213.896 207.318C213.409 205.703 212.867 203.723 211.84 202.359C210.332 200.355 207.117 198.523 207.468 202.612C207.698 205.283 211.33 207.543 213.896 207.318ZM218.784 209.609C221.055 209.439 228.91 206.661 229.28 204.337C229.374 203.753 228.658 202.742 228.178 202.472C226.022 201.257 223.074 203.682 221.611 205.159C221.005 205.769 218.366 208.878 218.784 209.609ZM241.916 211.903C238.211 210.968 234.503 209.938 230.732 209.352C230.279 209.358 226.411 210.96 226.237 211.14C225.852 211.538 226.32 211.574 226.593 211.671C228.643 212.399 230.653 212.7 232.533 213.936C233.018 214.255 233.453 215.164 234.064 215.195C234.846 215.233 238.465 213.384 239.532 212.973C240.191 212.72 240.934 212.66 241.558 212.434C241.914 212.306 241.998 212.523 241.916 211.903ZM194.361 212.411C194.399 212.804 194.751 212.798 195.019 212.901C196.394 213.431 201.568 215.343 202.692 215.202C203.033 215.16 206.955 212.759 207.34 212.406C207.991 211.811 208.662 211.116 207.712 210.515C203.744 208.007 198.48 211.78 194.361 212.411ZM229.321 216.222C229.089 215.71 228.268 215.525 227.767 215.345C227.294 215.174 224.245 214.196 224.051 214.201C223.817 214.208 222.303 214.995 221.984 215.196C220.388 216.205 219.888 218.054 217.884 216.222C217.157 215.557 215.899 213.363 214.82 213.421C213.267 214.377 211.703 215.268 210.12 216.175C209.86 216.324 209.437 216.464 209.529 216.857C209.643 217.348 218.001 219.676 219.125 220.239C222.389 218.595 225.866 217.413 229.321 216.222ZM201.504 217.293L192.563 214.699C192.958 215.974 192.77 219.01 193.47 220.032C193.74 220.428 202.01 223.176 202.328 222.838L201.504 217.293ZM235.233 217.369V223.094C236.497 222.44 241.416 221.129 242.171 220.42C242.847 219.786 242.368 219.068 242.428 218.405C242.537 217.192 242.682 215.891 242.945 214.7C242.613 214.464 235.36 216.984 235.233 217.369ZM229.321 218.26C228.112 218.254 221.52 220.956 221.222 221.566C220.599 222.842 221.458 226.166 221.353 227.672L229.321 224.62V218.26ZM218.009 227.672C217.885 226.8 217.609 221.931 217.251 221.683L208.243 219.278C208.554 220.372 208.582 224.708 209.081 225.316C209.784 226.172 216.568 226.95 218.009 227.672ZM202.782 225.188L194.105 222.586L195.188 230.164C197.814 231.316 200.809 231.603 203.48 232.764C204.092 232.655 203.405 230.637 203.361 230.087C203.296 229.252 203.321 225.616 202.782 225.188ZM235.233 224.875V231.744L241.634 229.684C241.388 227.682 242.246 225.391 242.185 223.482C242.171 223.061 242.367 222.777 241.797 222.844C239.856 223.07 237.263 224.715 235.233 224.875ZM229.32 226.91L221.364 229.465L221.61 236.323C223.018 235.808 224.586 235.46 225.974 234.919C226.597 234.677 229.102 233.747 229.341 233.418C230.176 232.265 228.961 228.459 229.32 226.91ZM217.699 229.76C216.406 229.724 210.355 227.286 209.677 227.445C208.786 227.653 209.722 230.211 209.793 230.846C209.897 231.771 209.663 232.81 209.818 233.745L218.266 236.068C218.239 235.164 218.112 230.047 217.699 229.76Z" fill="black"/>
<path d="M304.577 129.017C304.823 129.437 304.974 131.809 304.88 132.378C304.712 133.398 303.991 133.519 303.744 134.049C303.47 134.641 304.012 145.74 304.241 147.034C304.651 149.359 306.445 149.75 307.891 151.18C314.825 158.034 313.326 172.756 313.896 182.001C314.327 188.993 315.177 196.092 315.446 203.11C315.498 204.464 315.71 205.638 314.387 206.408C313.506 206.92 308.677 208.069 307.597 208.099C306.035 208.143 301.723 207.223 302.058 205.164L310.689 202.244L309.926 187.967C309.477 187.336 307.664 188.009 306.965 187.993C307.327 190.135 307.077 192.317 307.214 194.466C307.291 195.655 308.328 198.397 307.4 199.367C307.183 199.594 306.21 199.951 305.855 199.901C303.904 199.627 303.949 194.102 302.726 193.056C301.897 192.347 296.914 191.876 296.527 191.306L296.155 185.946L309.487 185.403C310.362 182.977 309.398 180.335 309.269 177.93C309.064 174.09 309.181 170.183 308.897 166.342C308.715 166.083 308.411 166.089 308.123 166.091C306.726 166.102 303.812 166.695 302.268 166.935C297.707 167.645 294.615 168.053 289.861 167.626C288.513 167.505 284.847 166.494 283.816 166.993C283.193 167.294 283.163 169.941 283.1 170.811C282.939 173.04 283.316 175.636 281.614 177.533C280 179.332 279.492 178.332 279.218 176.379C278.775 173.215 278.979 169.84 278.935 166.738C278.839 159.809 279.564 154.803 285.353 150.194C286.477 149.299 289.658 148.055 289.932 146.839C290.407 144.73 289.943 140.368 289.976 137.978C289.991 136.906 290.479 134.979 290.104 134.054C289.375 132.256 288.402 133.096 288.692 129.837C288.888 127.641 290.383 127.617 290.476 127.013C290.523 126.709 289.956 126.385 289.981 125.801C290.036 124.517 290.907 123.824 292.039 123.482C294.977 122.594 299.137 122.569 301.958 123.851C303.759 124.67 302.762 126.733 303.494 128.181C303.761 128.709 304.471 128.836 304.577 129.017ZM295.597 125.454C295.022 125.482 292.285 125.665 292.933 126.675C293.498 127.555 299.869 127.544 300.778 126.285C299.626 125.022 298.467 125.668 297.301 125.662C296.703 125.658 296.26 125.422 295.597 125.454ZM296.109 129.024C295.309 129.038 292.238 129.18 291.901 129.712C291.45 130.426 292.851 131.554 293.511 131.702C294.995 132.034 303.726 132.427 300.878 129.245C299.281 129.348 297.692 128.995 296.109 129.024ZM293.714 144.731C294.958 145.113 298.139 144.447 299.627 144.731C300.676 143.255 300.038 141.35 300.002 139.78C299.983 138.941 300.225 135.232 299.772 134.919C299.365 134.639 293.848 134.737 293.624 135.101C293.513 136.408 293.331 137.692 293.316 139.012C293.305 139.927 293.6 140.683 293.608 141.549C293.614 142.21 292.835 144.46 293.714 144.731ZM308.16 162.97C309.424 162.067 308.109 158.465 307.567 157.225C306.84 155.56 304.674 152.687 303.181 151.644C301.895 150.746 300.128 150.744 300.02 148.897C299.985 148.29 300.52 147.458 300.024 147.137C299.582 146.85 293.329 146.945 293.106 147.31C292.892 147.66 293.302 148.937 292.749 149.501C292.232 150.028 289.588 151.317 288.58 152.116C287.483 152.987 286.015 154.292 285.261 155.445C284.138 157.161 281.954 163.542 284.602 164.434C287.616 165.45 287.68 162.755 289.075 161.256C290.013 160.247 292.183 159.744 292.829 158.611C293.179 157.998 292.997 157.499 293.187 156.929C293.539 155.868 296.921 153.098 298.058 153.136C298.599 153.154 301.647 154.757 302.13 155.157C302.98 155.862 304.614 158.863 304.839 159.925C305.075 161.039 304.54 162.174 304.911 163.289C305.774 163.274 307.458 163.471 308.16 162.97Z" fill="black"/>
<path d="M320.14 209.282C319.142 208.051 320.081 205.897 321.367 205.176C321.864 204.897 324.507 204.047 325.192 203.873C325.993 203.67 331.845 202.925 331.903 202.592L331.576 190.071C328.433 188.772 325.395 187.67 322.77 185.431C314.282 178.195 316.755 164.752 319.625 155.365C320.09 153.843 320.355 153.497 321.901 153.038C329.59 150.756 338.976 152.147 346.733 153.573C348.088 154.184 347.632 155.416 347.937 156.451C349.994 163.443 353.503 174.477 349.928 181.286C347.697 185.534 343.81 187.593 339.724 189.76L339.856 201.341C340.069 202.474 342.083 202.342 342.95 202.604C344.991 203.22 348.784 204.132 350.491 205.062C352.654 206.24 352.662 208.647 350.578 209.916C346.103 212.641 337.927 213.202 332.777 212.927C329.935 212.775 321.908 211.463 320.14 209.282ZM323.725 156.124C324.092 156.398 328.958 157.391 329.706 157.449C333.636 157.756 339.607 157.683 343.313 156.421C344.322 156.078 344.078 155.587 343.258 155.231C342.851 155.054 340.517 154.504 339.968 154.416C336.621 153.878 327.729 153.371 324.771 154.607C324.269 154.817 322.888 155.502 323.725 156.124ZM345.768 157.451C344.224 157.432 342.908 158.306 341.451 158.649C336.146 159.896 330.897 159.608 325.615 158.7C324.603 158.525 323.709 157.884 322.635 157.961C322.884 161.175 321.226 164.143 321.607 167.374C322.663 167.242 323.486 166.465 324.552 166.093C328.984 164.545 336.093 164.373 340.69 165.151C342.15 165.397 344.067 166.053 344.997 167.249C345.178 167.481 346.451 169.676 346.479 169.822C346.648 170.698 345.894 172.334 345.782 173.113C345.394 175.824 345.818 177.03 344.08 179.569C340.345 185.026 333.244 187.08 328.553 181.488C328.1 180.947 326.985 179.457 326.869 178.844C326.6 177.423 331.574 173.92 332.659 172.975C329.636 172.765 327.597 175.342 324.692 175.516C324.344 173.862 325.915 173.453 326.489 172.212L321.35 170.683C320.927 176.419 323.62 182.463 328.568 185.544C329.842 186.337 333.426 187.279 333.831 188.475C334.177 193.958 335.008 199.518 334.478 205.011C335.258 205.64 339.66 205.606 339.855 205.794C339.992 205.926 339.862 206.478 339.593 206.677C338.064 207.81 331.67 206.467 329.573 206.812L329.573 205.539C327.201 205.5 320.07 207.337 325.832 209.115C331.355 210.819 340.297 210.598 345.824 209.028C346.857 208.734 348.328 208.147 349.108 207.443L337.609 203.439C336.633 199.439 336.675 195.247 336.525 191.153C336.488 190.128 335.942 189.036 336.384 187.98C341.167 186.04 346.29 182.196 347.659 177.005C348.889 172.34 347.031 163.319 345.783 158.58C345.694 158.242 345.798 157.81 345.768 157.451ZM343.457 169.664C343.691 167.907 341.31 167.249 339.909 166.941C336.196 166.125 327.216 166.633 323.6 167.95C323.284 168.065 323.103 168.282 322.892 168.521C329.25 171.175 336.718 170.133 343.457 169.664ZM334.299 175.865C334.801 175.312 337.058 173.402 335.128 173.49C333.814 173.55 331.565 175.783 330.728 176.786C329.577 178.165 328.955 179.343 331.449 178.838C332.33 177.773 333.369 176.89 334.299 175.865ZM338.503 177.741C339.09 177.144 338.464 175.531 338.444 174.754L335.231 178.568C336.006 178.679 337.986 178.267 338.503 177.741Z" fill="black"/>
<path d="M303.097 90.0272C305.68 89.5954 308.062 88.13 310.752 87.8112C313.7 87.4619 320.95 87.6855 320.847 91.9264C320.804 93.7089 317.979 95.7865 316.464 96.5175C315.712 96.8804 312.257 97.7593 312.094 97.9194C311.793 98.2151 312.131 98.3767 312.413 98.4914C313.259 98.8352 314.594 98.9121 315.689 99.3207C317.777 100.1 320.731 101.801 321.067 104.175C321.262 105.55 320.402 106.151 319.214 106.871C318.099 107.547 316.569 108.131 315.267 108.256C314.814 108.299 313.284 107.734 313.123 108.48C313.006 109.025 315.533 110.664 315.125 112.739C314.533 115.749 308.745 115.923 306.344 115.694C303.685 115.44 299.883 113.835 297.53 113.786C295.415 113.743 291.937 115.629 289.344 115.726C288.484 115.759 287.83 115.169 286.705 115.642C286.271 115.824 284.03 118.907 283.436 119.546C278.074 125.322 271.979 131.487 266.084 136.72C264.61 138.029 260.876 141.551 259.37 142.287C258.562 142.682 257.78 142.934 256.94 142.453C256.425 142.158 255.408 140.866 256.037 140.269C266.009 131.484 275.507 122.237 284.761 112.716C286.508 111.643 287.315 112.555 289.056 112.393C291.094 112.203 294.247 110.937 296.562 110.659C299.285 110.332 302.967 112.359 305.828 112.643C306.792 112.738 311.254 112.852 311.927 112.635C313.093 112.259 311.568 110.448 311.076 109.992C308.829 107.912 300.337 107.046 300.013 106.564C299.935 106.447 300.002 105.969 300.127 105.79C300.963 104.596 311.844 105.693 314.02 105.547C314.671 105.504 317.767 105.109 318.006 104.782C316.757 100.767 311.226 100.272 307.593 99.9547C307.058 99.908 299.817 100.179 302.6 98.0594C304.875 96.3267 312.064 95.4681 315.232 94.0258C316.521 93.4392 317.393 92.5699 318.519 91.805C318.865 91.3176 316.486 90.4647 316.013 90.3494C312.916 89.5952 309.384 90.4876 306.38 91.3705C304.216 92.0065 301.272 93.6362 299.311 94.0396C298.391 94.2291 297.632 94.3222 297.335 93.3233C296.561 90.7115 299.275 89.3108 300.795 87.6173C302.063 86.2038 305.433 82.4852 305.803 80.872C306.211 79.0956 303.983 79.5491 302.842 79.9827C301.788 80.3831 299.645 81.7636 298.646 82.4443C295.115 84.852 292.464 88.0226 289.723 91.2211C289.52 92.4856 292.328 94.6353 293.079 96.0013C294.125 97.9007 294.115 99.2517 294.099 101.349C294.087 102.869 294.01 104.717 292.985 105.97C292.397 106.688 290.885 106.442 290.746 105.887C290.537 105.057 291.571 102.24 291.549 100.84C291.512 98.5038 290.223 96.1908 288.448 94.7336C287.863 94.2531 285.453 93.0882 285.395 92.9219C284.995 91.7846 286.199 90.0966 286.139 88.6434C285.991 85.0679 281.763 80.1077 277.895 82.0576C277.22 84.9815 280.52 88.7749 280.734 91.943C280.902 94.4371 279.381 96.7631 279.182 99.3072C278.962 102.099 279.519 104.426 280.218 107.075C279.112 107.621 278.127 105.816 277.994 105.787C277.032 105.58 276.153 107.008 275.457 107.578C271.072 111.172 258.051 122.15 253.077 122.829C252.449 122.914 251.801 122.827 251.172 122.849C250.687 122.377 252.705 120.896 253.106 120.567C257.849 116.684 263.811 113.259 268.772 109.359C269.862 108.502 275.379 104.147 275.665 103.437C275.9 102.853 275.517 101.861 275.577 101.089C275.636 100.334 275.771 99.3471 275.886 98.5892C276.348 95.5383 277.592 94.8674 276.743 91.5624C275.753 87.7103 271.237 82.6006 276.183 79.8021C281.765 76.6439 287.959 82.2042 289.859 87.2261C292.737 83.2817 299.661 77.3687 304.768 77.3623C306.222 77.3605 308.207 77.9363 308.815 79.4085C310.217 82.8065 304.803 87.495 303.097 90.0272Z" fill="black"/>
<path d="M117.499 66.3677C115.968 66.4917 114.791 65.7565 113.512 65.0999C108.226 62.3854 101.642 57.9517 96.5969 54.6186C95.4934 53.8895 92.3575 52.0822 92.099 50.9206C91.533 48.3765 94.9455 50.1308 96.0043 50.6255C102.251 53.5447 111.539 59.6953 116.474 64.4584C117.072 65.0358 117.684 65.4135 117.499 66.3677Z" fill="black"/>
<path d="M239.788 53.8259C238.374 54.9861 237.408 53.2069 237.604 51.8036C238.112 48.1698 243.175 37.6288 245.125 34.0519C245.625 33.1352 247.393 29.9171 248.47 32.2835C248.807 33.0242 247.669 36.0176 247.326 36.9939C246.095 40.5013 244.293 44.5637 242.735 47.9698C242.25 49.0316 240.423 53.3041 239.788 53.8259Z" fill="black"/>
<path d="M129.058 54.1501C128.801 54.3284 127.624 53.7868 127.348 53.567C125.002 51.6969 121.787 45.815 120.022 43.1371C119.076 41.7018 115.771 37.8792 115.705 36.4453C115.646 35.1424 117.176 35.5329 117.87 36.108C120.19 38.0311 127.811 48.5511 128.939 51.3577C129.179 51.9565 129.602 53.7725 129.058 54.1501Z" fill="black"/>
<path d="M272.508 51.8673C273.269 52.63 270.416 55.1611 269.815 55.6902C268.073 57.2229 259.993 63.2907 258.178 63.7622C257.716 63.8823 256.476 63.9737 256.314 63.4354C256.208 62.9974 256.469 62.8264 256.687 62.5412C258.043 60.761 269.186 52.3514 271.152 51.9252C271.6 51.828 272.056 51.8554 272.508 51.8673Z" fill="black"/>
<path d="M305.409 174.5C305.386 177.347 302.031 179.595 299.5 180.349C299.427 179.313 299.537 178.459 300.255 177.665C300.643 177.236 305.18 174.243 305.409 174.5Z" fill="black"/>
<path d="M303.016 169.956C303.414 169.92 303.59 170.21 303.624 170.555C303.774 172.075 300.805 173.22 299.772 173.879C299.239 174.219 297.646 176.127 297.046 175.27C296.257 174.142 299.343 171.746 300.183 171.233C300.598 170.98 302.686 169.986 303.016 169.956Z" fill="black"/>
<path d="M220.067 116.999H214.669C213.062 119.628 212.919 122.714 212.084 125.508C210.963 129.254 209.74 133.227 207.428 136.419C197.16 150.597 180.359 139.65 175.034 127.095C174.675 126.247 173.791 122.771 173.29 122.452C172.522 121.964 170.484 124.137 169.77 124.59C169.107 125.011 168.304 125.247 167.629 125.649C167.492 124.491 167.746 123.001 168.544 122.105C168.773 121.847 173.031 118.316 173.303 118.164C174.15 117.691 176.969 117.299 177.151 118.405C177.353 119.639 175.646 120.389 176.373 120.936C178.6 121.598 180.987 122.828 183.249 123.29C189.202 124.504 203.3 123.852 208.246 120.183C209.371 119.348 211.962 116.591 211.597 115.14C211.507 114.781 210.214 114.883 211.206 113.698C212.526 112.124 220.783 113.753 220.067 116.999ZM208.233 123.618C206.059 124.124 203.847 125.159 201.66 125.622C195.991 126.821 187.392 126.787 181.707 125.579C181.104 125.451 180.464 125.018 179.779 124.941C179.528 124.912 178.971 124.731 179.197 125.264C179.27 125.438 181.453 127.779 181.773 128.051C186.96 132.464 193.315 132.671 199.768 131.383C203.8 130.578 205.796 129.716 207.736 126.039C208.151 125.254 208.644 124.469 208.233 123.618ZM202.586 138.622C202.779 138.345 198.627 136.045 198.072 136.097L184.849 135.318C184.83 135.673 184.774 135.804 185.025 136.091C185.466 136.596 188.472 138.775 189.131 139.094C193.255 141.087 198.633 140.885 202.586 138.622Z" fill="black"/>
<path d="M186.134 109.874C183.447 108.966 181.4 106.676 178.355 107.139C176.19 107.468 173.182 109.548 172.24 111.516C171.643 112.763 171.916 113.892 171.499 115.108C169.442 115.49 167.253 115.658 165.253 114.896C162.261 113.756 167.363 113.19 167.364 112.547C166.727 111.7 165.177 111.602 165.057 110.387C165.748 109.886 168.623 110.326 168.883 110.1C168.933 110.057 169.082 109.191 169.28 108.841C173.559 101.281 184.696 99.9023 186.134 109.874Z" fill="black"/>
<path d="M218.718 102.302C219.893 103.352 216.954 103.416 216.593 104.019C216.373 104.384 216.478 104.885 216.47 105.294C217.449 104.723 219.944 105.39 219.056 106.648C218.817 106.986 215.311 108.05 214.76 108.081C212.892 108.185 213.396 107.196 212.843 106.212C211.754 104.274 209.523 101.967 207.109 102.263C205.219 102.496 202.119 105.305 201.684 105.309C201.044 105.316 200.821 104.388 200.777 103.896C200.594 101.825 202.407 99.9678 204.114 99.0473C206.777 97.6114 208.607 97.6651 211.252 99.1362C212.317 99.7286 214.008 101.71 214.86 101.926C215.879 102.183 218.01 101.669 218.718 102.302Z" fill="black"/>
<path d="M201.983 109.964C204.877 112.587 202.218 117.696 198.349 117.523C195.259 117.384 198.225 115.833 198.87 115.229C200.856 113.368 199.274 111.169 196.927 111.77C195.344 112.176 194.513 113.528 193.077 113.945C192.446 109.479 199.041 107.297 201.983 109.964Z" fill="black"/>
<path d="M200.79 91.5567L200.695 90.0974C202.067 88.5607 203.881 87.077 206.101 87.0674C207.876 87.0598 212.091 88.8555 212.122 90.9206C212.152 92.9751 208.126 90.3858 206.972 90.1431C204.426 89.6078 203.072 90.9049 200.79 91.5567Z" fill="black"/>
<path d="M155.029 127.435C155.883 128.595 152.872 127.974 152.072 127.432C149.14 125.444 151.233 122.883 150.604 120.742C150.454 120.232 148.189 118.137 148.605 117.764C151.116 117.471 153.142 119.571 154.768 121.197C153.367 122.42 151.954 124.207 153.231 126.032C153.681 126.675 154.96 127.342 155.029 127.435Z" fill="black"/>
<path d="M175.082 59.5026C165.263 55.6929 170.677 41.7748 180.793 44.8143C186.309 46.4714 187.678 53.7826 183.055 57.3371C185.508 58.5832 188.11 59.2265 189.346 62.0457C195.346 75.727 170.738 80.2163 172.257 65.4817C172.509 63.0305 174.16 61.559 175.082 59.5026ZM177.849 48.6041C174.876 49.0742 173.354 53.7113 176.557 55.1133C179.961 56.6031 181.165 53.2489 180.72 50.4834C180.542 49.3755 178.845 48.4466 177.849 48.6041ZM182.96 62.6413C178.819 58.3299 174.898 67.5667 178.586 69.6424C182.67 71.9406 186.22 66.0355 182.96 62.6413Z" fill="black"/>
<path d="M161.197 59.2467C160.187 59.9868 159.059 62.0808 158.13 62.6927C157.583 63.0529 157.265 63.2881 156.571 62.9246C156.442 62.857 154.58 60.9871 154.543 60.8474C154.486 60.6324 154.501 60.4513 154.64 60.2719L160.061 52.1334C160.648 50.371 157.521 48.7946 160.62 47.8585C162.752 47.2146 165.022 47.9573 166.144 49.8989C167.203 56.3841 167.996 62.9107 169.386 69.3334C169.646 70.5349 171.317 74.5875 170.193 75.3977C169.962 75.5642 167.901 75.9662 167.467 76.0055C165.69 76.1663 164.097 76.345 163.576 74.3209C162.592 70.5005 162.555 66.3015 161.941 62.4551C161.772 61.3965 161.371 60.3127 161.197 59.2467Z" fill="black"/>
<path d="M160.685 78.3282C160.745 78.7717 160.656 79.1218 160.485 79.5278C159.892 80.9394 155.491 87.3915 154.246 87.8545C153.905 87.9814 153.595 88.0462 153.232 87.9936C152.818 87.6248 157.698 80.8247 158.27 80.1353C158.92 79.3534 159.51 78.2886 160.685 78.3282Z" fill="black"/>
<path d="M82.795 167.63C83.1374 170.134 82.0849 172.753 81.1967 175.078C79.1799 180.356 75.0734 187.777 71.3602 192.056C70.606 192.926 65.6358 198.106 64.5464 197.141C64.5884 196.589 65.1351 196.087 65.4712 195.642C69.965 189.683 74.386 184.549 77.7018 177.725C78.6508 175.771 80.9712 169.072 82.0307 168.016C82.2766 167.771 82.3632 167.532 82.795 167.63Z" fill="black"/>
<path d="M74.3121 170.938C74.386 171.382 74.2547 171.732 74.1132 172.138C71.8282 178.698 64.2251 192.872 59.515 197.888C58.8758 198.569 57.5609 199.59 56.5776 199.431C56.1581 199.053 61.1751 191.924 61.6736 191.12C65.2547 185.343 68.4513 178.828 72.1502 173.248C72.3225 172.988 73.8749 170.45 74.3121 170.938Z" fill="black"/>
<path d="M34.379 182.475C35.5289 183.538 36.693 185.231 37.7978 186.342C40.0514 188.61 42.8893 190.548 44.2377 193.578C43.4738 194.143 39.075 190.591 38.3221 189.894C36.9192 188.596 32.464 183.646 32.1731 181.986C31.8502 180.143 33.7686 181.911 34.379 182.475Z" fill="black"/>
<path d="M40.1259 183.405C40.7636 182.743 45.3894 188.15 45.9339 188.721C47.4386 190.298 50.0969 192.653 51.1758 194.476C51.7177 195.391 50.4932 195.01 50.05 194.824C48.3437 194.104 46.4073 192.135 45.1336 190.785C44.3543 189.959 39.3874 184.171 40.1259 183.405Z" fill="black"/>
<path d="M23.7458 146.188C21.8512 144.366 25.4235 140.914 27.6452 143.215C29.7037 145.348 25.5621 147.935 23.7458 146.188Z" fill="black"/>
<path d="M47.1461 158.132C46.9802 157.994 46.2895 157.01 46.2905 156.821C46.2911 156.721 46.8809 155.057 46.9488 154.92C48.163 152.466 52.4775 153.264 52.2024 156.029C51.992 158.143 48.7066 159.435 47.1461 158.132Z" fill="black"/>
<path d="M352.129 67.4472C359.754 66.1744 361.23 74.0721 358.764 79.6119C357.333 82.8254 352.468 88.9455 349.451 90.7481C347.9 91.6746 347.504 91.5969 345.851 90.8401C341.335 88.7717 334.103 81.8021 333.692 76.6695C333.211 70.6625 338.331 66.4884 343.697 70.0741C344.443 70.5732 345.069 71.832 346.146 71.7193C346.907 71.6396 349.52 67.8826 352.129 67.4472ZM352.121 70.4941C349.412 71.1085 348.385 77.035 347.164 77.2999C346.674 77.4059 344.629 73.8495 344.074 73.2621C341.328 70.3531 337.037 70.4554 337.084 75.1463C337.116 78.3381 339.904 81.7193 342.305 83.6642C343.996 85.0345 346.617 86.9367 348.862 86.3481C351.37 85.6904 355.783 78.5337 356.43 76.0318C357.245 72.8797 355.954 69.6249 352.121 70.4941Z" fill="black"/>
<path d="M362.477 92.5735C362.576 94.7278 361.328 97.2538 360.12 99.0177C359.785 99.5053 356.35 103.612 355.796 103.005C356.259 100.496 358.354 98.2704 359.758 96.116C360.283 95.3103 361.092 93.287 361.694 92.7421C361.976 92.4865 362.129 92.5652 362.477 92.5735Z" fill="black"/>
<path d="M355.022 97.9184C355.199 99.9739 353.764 103.105 352.173 104.383C351.592 104.849 350.037 105.967 350.265 104.533C351.594 102.968 352.374 100.701 353.523 99.1034C353.683 98.88 354.733 97.5938 355.022 97.9184Z" fill="black"/>
<path d="M349.109 100.972C349.37 101.219 347.268 105.013 346.923 105.293C346.468 105.663 346.04 105.567 345.513 105.549C345.14 105.196 347.954 99.879 349.109 100.972Z" fill="black"/>
<path d="M383.044 118.524L390.365 104.789C391.44 105.311 390.029 109.274 389.665 110.196C389.073 111.697 385.434 118.042 384.145 118.472C383.801 118.586 383.402 118.521 383.044 118.524Z" fill="black"/>
<path d="M383.04 112.165C383.784 113.162 380.298 118.885 379.199 119.682C376.852 121.384 377.899 118.823 378.619 117.582C379.091 116.766 381.442 113.35 382.014 112.801C382.308 112.519 382.66 112.307 383.04 112.165Z" fill="black"/>
<path d="M294.613 151.602C295.251 152.207 291.582 154.78 291.105 155.252C290.497 155.855 289.504 156.924 288.959 157.58C288.149 158.555 288.111 160.124 286.388 159.744C286.035 157.521 287.798 155.552 289.338 154.138C290.744 152.847 292.591 151.371 294.613 151.602Z" fill="black"/>
</svg>
