<svg width="444" height="250" viewBox="0 0 444 250" fill="none" xmlns="http://www.w3.org/2000/svg">
<path d="M198.387 31.1142C199.353 30.8236 200.134 29.9634 201.194 29.7686C203.064 29.4251 204.717 29.869 205.377 31.7583C206.233 34.2101 203.732 34.9806 203.869 35.5014C204.766 36.3074 207.105 36.7698 207.491 37.895C208.23 40.0511 206.37 40.1793 205.589 41.4432C205.08 42.2671 205.305 43.1629 204.306 43.8649C202.434 45.1788 196.584 44.5427 197.233 41.3123C197.488 41.0325 199.921 42.8657 200.587 42.9297C200.847 42.9546 202.646 42.5199 202.705 42.43C203.333 41.4747 201.958 41.6191 201.355 41.3735C200.723 41.1161 199.84 40.6602 199.243 40.3161C198.87 40.1006 198.517 40.3664 198.675 39.6132C199.814 39.6369 204.975 40.2356 205.288 38.8743C205.707 37.0579 199.467 36.3699 198.188 36.3245C194.329 36.1876 193.983 37.5066 190.985 39.0041C189.017 39.9875 186.414 40.3402 184.824 41.8745C185.809 41.8953 186.794 41.8089 187.778 41.9512C189.549 42.2073 192.392 44.6257 193.444 42.8342C194.494 41.0464 192.351 39.0039 192.616 38.7637C198.003 38.882 195.063 45.4157 194.668 48.5656C193.347 59.0771 193.956 69.9563 191.752 80.3928C192.795 80.2566 195.186 75.7798 196.23 77.2757C197.003 78.3835 193.629 82.7631 194.059 83.2236C195.888 82.6716 197.092 80.8401 199.252 81.2412C199.31 82.1846 199.296 83.171 198.766 83.9964C198.494 84.4184 196.801 85.5385 196.945 85.911C197.182 86.5237 199.963 85.6864 200.392 86.3576C200.974 87.268 198.472 87.8245 198.674 88.8867C210.002 92.7607 204.871 106.657 197.812 112.268C198.237 113.334 199.255 114.775 199.256 115.935C199.258 117.234 198.183 117.991 198.098 119.19C200.522 118.533 203.22 117.834 205.749 117.775C207.172 117.743 208.572 118.393 209.48 118.331C210.213 118.281 211.936 117.211 213.025 116.992C213.71 116.855 216.357 116.571 216.783 116.994C217.038 117.246 217.072 118.118 217.282 118.056C219.686 116.023 222.128 114.086 224.843 112.449C229.559 109.606 234.804 107.612 239.509 104.754C241.324 103.651 247.942 99.2727 248.004 97.2467C248.014 96.9197 247.081 94.3502 246.939 93.485C245.889 87.0891 245.964 77.5984 254.94 78.126L252.377 60.9602C252.666 59.4566 251.78 57.5073 251.904 56.1671C251.962 55.5465 253.563 53.5431 254.076 53.0658C258.521 48.9337 276.695 47.0449 282.424 48.7449C284.513 49.3649 284.874 53.1942 285.192 55.091C285.914 59.3975 285.692 63.5421 286.108 67.7857C286.259 69.3298 286.96 70.8281 286.678 72.4646C291.497 72.1579 294.948 75.7103 294.113 80.4664C293.95 81.3917 292.958 82.469 293.012 83.0692C293.058 83.5715 294.603 84.9597 294.888 85.7887C295.382 87.2257 295.252 88.4754 294.721 89.8445C294.464 90.5075 293.017 92.538 293.017 92.7119C293.015 93.2012 293.933 93.7889 294.242 94.3529C295.722 97.0535 294.735 99.6343 292.31 101.363C291.95 101.62 291.338 101.605 291.303 101.643C291.043 101.92 292.276 104.295 292.315 104.882C292.521 108.002 288.58 111.092 285.895 112.053C284.402 112.587 281.996 112.358 280.507 112.422C279.844 112.45 279.074 112.86 278.31 112.677C278.553 113.943 278.341 117.051 279.187 117.908C279.851 118.579 285.073 119.822 286.467 120.392C288.888 121.38 292.093 122.604 289.126 125.132C287.681 126.364 281.706 127.706 279.526 128.171C276.489 128.819 267.901 130.254 265.259 129.312C259.924 127.411 268.191 121.933 270.277 120.793C270.73 120.546 272.162 120.083 272.237 120.011C272.293 119.958 272.263 118.562 272.249 118.487C272.211 118.284 271.07 116.953 270.969 116.954C269.122 116.966 266.491 119.638 264.756 117.492C264.777 118.774 261.468 120.07 261.324 120.787C261.202 121.396 262.51 122.247 262.44 123.276C262.304 125.252 256.875 131.029 255.24 132.648C244.747 143.04 231.199 150.476 217.793 156.646C216.655 158.542 217.669 160.248 217.659 162.097C217.623 168.544 217.213 175.759 216.855 182.207C216.804 183.129 216.991 188.382 216.085 188.588C214.189 189.019 213.838 188.013 213.462 186.381C213.06 184.643 212.649 181.19 212.528 179.369C212.306 176.041 212.925 172.635 212.38 169.316C208.697 176.167 205.359 184.076 198.388 188.293C198.07 187.057 199.42 186.206 199.821 185.535C203.683 179.084 208.297 172.157 211.707 165.543C212.298 164.398 212.85 163.227 213.098 161.955C212.691 161.473 209.144 166.225 208.771 166.626C204.969 170.709 198.144 177.074 192.962 179.147C192.707 179.249 191.112 179.947 191.463 179.093C194.562 176.294 197.932 173.722 200.986 170.88C202.973 169.031 205.757 166.504 207.455 164.484C207.765 164.115 209.544 161.756 209.635 161.526C209.77 161.185 209.558 160.962 209.21 161.108C208.772 161.292 206.466 163.627 205.697 164.175C204.635 164.932 202.42 166.341 201.275 166.916C196.479 169.324 198.9 166.784 200.834 164.783C208.752 156.594 220.852 151.347 230.504 145.193C235.867 141.773 240.902 137.872 246.282 134.479C246.506 133.654 245.75 134.035 245.271 133.648C244.527 133.046 242.848 130.294 243.689 129.672C244.319 129.206 246.589 132.82 247.872 132.816C248.505 132.814 252.204 130.245 252.504 129.667C252.721 129.249 252.569 129.256 252.358 128.956C251.29 127.432 249.692 126.055 248.585 124.438C246.266 121.053 244.444 116.193 243.421 112.231C243.023 110.693 242.19 108.769 242.821 107.3L224.555 116.698C213.441 123.687 208.815 131.511 207.299 144.225C206.875 147.783 205.813 146.481 205.588 143.699C204.925 135.489 210.386 126.855 214.831 120.239C214.865 120.189 216.185 119.595 215.264 119.473C213.02 119.177 207.546 123.608 205.28 124.684C204.513 125.048 203.108 125.709 203.736 124.302C203.965 123.788 206.757 120.853 206.463 120.609C203.929 121.023 200.744 121 198.309 121.524C196.445 121.925 195.243 124.238 194.226 125.729C189.711 132.349 188.056 137.737 185.251 144.957C184.784 146.158 184.328 148.208 182.883 147.582C181.135 146.825 179.023 144.258 176.852 143.3C174.155 142.11 171.928 142.751 169.549 144.273C167.382 145.661 162.338 151.008 160.309 151.357C159.814 151.442 159.783 151.513 159.433 151.048C163.206 146.726 166.812 141.934 171.163 138.211C173.473 136.531 175.825 138.103 177.748 139.588C178.88 140.463 181.203 143.166 182.226 143.689C182.521 143.84 182.766 143.87 183.09 143.831C184.661 137.229 187.421 130.694 191.169 124.994C192.651 122.74 196.755 118.62 196.354 115.956C195.721 111.745 192.465 117.637 191.742 118.477C183.602 127.946 173.107 132.774 164.477 141.278C158.071 147.59 150.219 156.815 145.758 164.535C144.947 165.937 144.605 168.623 142.409 168.751C142.411 168.244 142.36 167.725 142.431 167.218C143.5 159.66 159.174 141.935 165.355 136.759C173.206 130.184 182.639 125.668 188.526 117.02C190.666 113.876 189.292 112.881 188.576 109.564C191.419 109.254 191.152 112.79 194.156 111.5C197.912 109.887 202.412 102.881 202.707 98.9389C202.965 95.4984 200.801 90.9113 196.948 90.4107C196.505 90.3532 194.987 91.1743 194.537 91.4836C193.818 91.9773 191.116 95.1315 190.339 93.9508C190.132 93.6373 190.61 89.2827 191.747 89.0292C191.749 88.7783 191.182 88.8506 191.052 88.9133C190.243 89.3045 187.409 93.7619 185.838 94.8409C183.864 96.1969 185.759 91.605 186.019 91.0535C186.91 89.1624 188.334 88.1604 189.149 86.3403L182.51 90.172C181.603 90.5743 181.257 89.1985 181.579 88.4102C182.224 86.8331 184.314 86.0232 184.675 85.2032C184.958 84.5602 184.687 83.8666 184.971 83.2282C185.197 82.7206 186.479 82.0159 186.696 81.5359C186.912 81.0583 184.456 77.0063 183.966 76.2785C179.061 68.9917 170.709 62.927 161.592 62.2716C144.109 61.0146 135.912 74.4156 128.313 87.3752C123.157 96.1694 120.71 103.162 123.27 113.478C127.175 129.219 144.068 139.844 160.296 137.601C160.809 138.025 158.038 139.396 157.766 139.506C153.055 141.412 148.899 139.81 144.14 139.301C145.073 141.52 146.589 143.479 147.605 145.667C148.121 146.777 150.093 151.158 149.489 152.056C148.557 153.44 146.645 150.113 146.298 149.499C143.609 144.743 142.508 139.904 137.477 136.633C136.585 136.054 135.53 135.749 134.64 135.17C132.499 133.776 130.509 132.251 128.418 130.798C126.894 132.51 122.561 143.207 123.655 144.68C126.303 143.425 128.557 138.318 131.598 138.155C135.225 137.961 137.516 142.252 139.283 144.773L143.272 152.042C138.959 151.022 137.392 143.652 133.011 142.997C129.778 142.514 125.65 146.837 123.29 148.713C121.185 149.308 120.392 148.984 120.477 146.811C120.608 143.439 122.489 137.161 123.888 134.008C124.32 133.035 127.15 128.574 127.067 128.153C127.029 127.956 126.153 127.064 125.95 126.974C124.428 126.297 116.508 129.852 114.486 130.472C114.107 130.642 112.136 129.933 112.093 129.781C111.593 128.029 112.871 127.466 114.223 126.788C115.582 126.108 122.552 123.678 122.887 122.795C123.174 122.039 121.923 120.751 121.578 119.952C119.903 116.063 118.863 111.921 118.856 107.675C118.855 106.831 119.374 105.158 119.332 104.63C119.317 104.439 118.608 104.29 118.321 103.896C114.65 98.8596 116.509 90.9957 121.369 87.3559C122.934 86.1837 124.488 85.4077 126.175 84.7103C126.701 84.4928 127.301 83.7803 127.644 83.3199L130.576 77.8456L126.827 79.2587C126.513 75.4518 133.333 76.5752 133.314 73.0256C132.077 73.5932 125.718 74.9354 127.981 72.4023C128.631 71.6736 130.955 70.9672 131.95 70.8373C133.689 70.6103 135.228 71.2859 136.597 70.4415C136.957 69.8403 135.082 67.8602 134.762 67.0811C133.419 63.8076 134.858 58.2934 137.935 56.3194C138.307 56.0808 138.567 56.018 138.657 56.4678C138.787 57.1184 136.882 61.7199 136.901 63.5413C136.912 64.5843 137.313 67.9768 138.953 67.5311C139.373 67.417 142.002 64.6228 142.079 64.3287C142.226 63.7686 141.814 63.133 141.849 62.4534C141.931 60.8497 143.096 58.5658 144.271 57.4415C144.59 57.1362 147.22 55.167 147.028 56.4622C146.891 57.3897 144.248 61.4954 145.006 62.2665C148.178 62.1892 149.503 56.3622 151.548 55.8028C152.039 55.6683 152.249 55.5905 152.224 56.1801C152.172 57.4091 151.266 58.281 151.077 59.3102C151.007 59.6932 150.917 60.1624 151.491 59.9984C152.646 59.668 154.668 57.6119 155.818 56.88C165.374 50.7961 175.238 44.723 185.208 39.2808C186.181 38.7493 189.935 37.47 190.025 36.6391C190.1 35.95 189.505 34.1273 189.444 33.236C189.292 31.039 189.263 28.2634 191.363 26.914C193.177 25.7481 195.002 25.8156 196.85 26.8169C199.128 28.0513 198.273 28.7692 198.387 31.1142ZM192.701 28.6542C191.627 29.8209 191.805 33.43 192.033 34.9451C192.218 36.1718 192.497 36.0978 193.46 35.4857C195.309 34.3112 196.567 30.7902 195.712 28.7807C195.208 27.5962 193.374 27.9237 192.701 28.6542ZM203.289 31.9668C200.798 31.1761 198.694 33.3107 197.231 35.0776C199.693 35.0681 202.314 34.4007 203.289 31.9668ZM185.112 44.1456C184.71 43.6099 181.874 44.4275 181.211 44.704L177.611 46.6889C178.952 46.4138 180.459 47.2395 181.723 46.9078C182.304 46.755 185.691 44.918 185.112 44.1456ZM190.886 47.8246C190.936 49.161 190.041 50.4446 191.316 51.5006C191.768 51.5216 192.23 47.9839 190.886 47.8246ZM190.882 61.417C190.865 59.5852 191.667 57.3244 190.905 55.5908C189.752 52.9663 182.126 49.1846 179.288 48.5845C176.304 47.9533 175.546 48.0055 172.71 49.1039C172.194 49.3037 168.821 50.7872 168.666 50.9442C167.798 51.8223 170.058 51.237 170.219 51.2493C176.725 51.7399 182.184 54.4649 187.135 58.4414C187.514 58.7458 190.451 61.9299 190.882 61.417ZM281.737 50.6934C273.898 50.5435 264.914 50.5594 257.63 53.7215C256.835 54.0666 254.168 55.4593 254.058 56.1863C254.842 63.7019 256.424 71.0834 257.873 78.5056C258.009 78.9154 261.269 79.6165 261.291 79.3988L258.693 63.1189C260.298 63.5376 261.485 63.751 263.177 63.6948C267.648 63.5461 272.845 62.231 277.305 62.2656C277.92 62.2704 278.735 62.5252 279.176 62.9774C273.068 64.7732 266.731 64.8156 260.422 65.3844C260.919 69.1515 261.703 72.8718 262.408 76.6031C262.613 77.6875 262.506 79.5305 262.789 80.4773C263.029 81.2827 265.24 82.6952 265.826 84.8602C266.794 88.4389 264.882 89.9779 266.723 93.3257C267.851 95.3785 269.616 95.9957 270.533 97.8103C270.706 98.1537 271.085 99.6393 270.956 99.9325C270.383 99.1786 269.295 99.3441 268.659 98.7883C268.379 98.5437 266.461 96.1624 266.073 95.662C265.614 95.0683 263.692 91.7347 263.452 91.7266C262.38 91.6904 263.892 95.668 264.121 96.162C266.483 101.256 271.763 102.406 272.795 107.756L273.969 120.17C273.4 122.296 271.293 122.404 269.944 123.72C273.415 123.388 276.851 123.294 280.331 123.441C280.487 124.251 280.109 123.896 279.7 124.081C276.21 125.662 271.473 124.171 268.13 124.916C267.443 125.069 265.491 126.436 266.033 127.137C266.564 127.823 272.264 127.225 273.512 127.083C278.373 126.528 283.082 125.066 287.834 124.003C288.125 123.616 287.097 122.832 286.758 122.655C282.277 120.317 276.797 122.065 276.041 115.615C275.688 112.592 275.384 108.44 275.428 105.457C275.44 104.648 276.104 102.696 275.962 102.111C275.708 101.065 272.564 101.123 272.398 98.1025C272.298 96.2743 273.966 94.217 273.936 93.8908C273.898 93.4843 273.13 92.7181 272.907 92.0707C271.721 88.6199 274.226 86.4634 277.157 85.2031C277.383 84.4293 276.685 84.7041 276.281 84.2377C275.378 83.1958 275.219 80.8817 275.616 79.5887C276.198 77.6955 279.96 75.7962 280.183 74.7659C279.782 68.1517 279.26 61.5468 279.468 54.9061C280.209 54.6336 280.255 56.0795 280.297 56.4971C280.717 60.7076 280.876 64.9808 281.201 69.203C281.352 71.1702 282.215 72.6663 281.199 74.727C281.461 74.9618 283.925 73.7541 284.045 73.4172C284.586 71.9001 283.626 68.6133 283.51 66.9371C283.134 61.5049 283.424 55.943 281.737 50.6934ZM178.475 56.0347C175.851 54.1294 172.082 53.0064 168.824 52.9093C167.4 52.8668 166.702 52.9611 165.431 53.5717C164.961 53.7977 162.325 55.7041 162.323 55.8959C162.319 56.2018 163.021 56.3035 163.313 56.3345C164.622 56.4734 165.561 56.4444 166.935 56.7447C168.685 57.1275 171.823 58.7495 173.156 58.8614C174.759 58.9959 174.23 58.0236 174.702 57.2942C175.372 56.2577 177.245 55.4152 178.475 56.0347ZM188.992 74.0442C184.718 67.4457 170.375 58.7467 162.459 58.0235C160.843 57.8759 158.965 57.7775 157.497 58.5287C156.737 58.9178 155.832 59.6171 157.263 59.7192C160.706 59.9648 163.155 59.8294 166.647 60.709C176.711 63.245 184.371 70.4423 188.719 79.5376C189.411 79.5557 189.564 74.9478 189.434 74.362C189.384 74.1386 189.05 74.1344 188.992 74.0442ZM190.017 65.6635C190.196 65.5633 189.394 63.8574 189.148 63.5432C188.32 62.4877 186.936 61.7974 185.981 60.852C186.237 61.4678 186.756 62.4594 187.132 62.9763C187.366 63.2995 189.003 65.3652 189.133 65.476C189.395 65.6981 189.789 65.7911 190.017 65.6635ZM186.826 64.5511C186.501 64.3556 186.179 64.7253 185.984 64.9584L186.843 65.9467C186.008 66.0174 184.863 65.0283 185.119 66.3709L190.014 71.3304C190.045 70.2226 190.503 68.9061 189.952 67.8527C189.734 67.4352 187.589 65.5149 187.057 65.0923C186.813 64.8984 186.852 64.5664 186.826 64.5511ZM291.501 81.7296C291.805 81.3594 292.136 79.9073 292.166 79.3928C292.402 75.2522 288.076 74.3161 284.79 75.5639C284.058 75.8418 283.514 76.4509 282.837 76.7627C281.022 77.5984 277.612 78.5908 277.429 81.1051C277.383 81.7364 277.895 83.7474 278.368 84.019C278.901 84.3252 282.513 83.5467 283.214 82.9356C282.828 82.1643 281.303 80.0489 281.239 79.352C281.212 79.0533 281.415 78.764 281.656 78.7043C283.14 78.3359 284.417 81.8029 284.373 82.9432C285.904 82.3529 290.639 82.7817 291.501 81.7296ZM251.48 86.9066C252.366 87.294 252.705 88.2815 253.396 88.8464C256.126 91.0775 262.773 92.1058 263.526 87.547C264.57 81.2301 254.945 78.3645 250.598 82.2205C248.387 84.1822 249.773 87.7927 251.233 89.8492C251.455 90.1629 252.043 90.2854 252.077 90.4893C252.171 91.0393 251.475 91.7029 251.474 92.287L249.172 90.8715C248.131 92.2979 252.303 98.8517 253.377 100.194C253.867 100.806 255.065 102.176 255.604 102.678C256.01 103.057 257.236 103.311 257.534 104.044C257.899 104.94 255.69 104.27 255.401 104.154C254.966 103.98 253.671 102.721 253.797 103.741L258.69 116.73C259.484 117.479 259.646 116.32 260.143 115.949C260.8 115.46 264.871 112.719 265.341 112.531C265.988 112.271 266.704 113.031 267.475 112.955C268.612 112.844 270.409 111.27 270.686 110.149C271.789 105.669 268.014 105.062 265.044 103.049C264.937 104.021 261.055 109.052 260.135 108.145C260.8 105.308 263.263 103.852 263.319 100.625C263.356 98.5007 260.838 95.9912 261.152 93.6935C260.654 93.0842 259.268 93.7277 258.343 93.6445C255.153 93.3575 251.799 89.9914 251.48 86.9066ZM292.36 85.5777C292.308 85.5088 291.081 84.54 291.002 84.5039C289.541 83.8363 282.656 84.6751 281.093 85.5298C279.071 86.6362 280.678 87.4598 280.891 88.7647C281.069 89.8522 280.803 91.1683 280.908 92.2887L290.723 91.2999C292.059 89.8441 293.788 87.4744 292.36 85.5777ZM277.641 87.2187C275.959 88.1298 274.085 89.8668 275.064 91.9375C275.733 93.3509 279.236 92.6743 279.426 92.1063C279.986 90.4416 279.295 88.0835 277.641 87.2187ZM119.609 101.348C120.235 98.9528 120.473 96.8664 121.498 94.5628C122.501 92.3084 124.04 90.2698 125.092 88.0395C119.976 90.4328 118.321 95.295 119.107 100.574C119.143 100.818 119.236 101.427 119.609 101.348ZM290.97 100.461C291.111 100.381 292.518 98.0036 292.602 97.6768C293.25 95.1801 291.725 93.6323 289.349 93.2063L278.313 94.5573L278.887 94.834C279.253 95.8484 278.252 96.9602 278.154 97.6555C278.114 97.9424 279.252 100.382 276.868 99.2253C275.051 98.3433 277.832 95.1868 277.445 94.8379C276.31 94.5352 274.666 96.7015 274.565 97.553C274.378 99.1223 274.666 99.9879 276.18 100.182C278.532 100.483 285.665 100.53 287.999 100.24C288.591 100.167 288.281 99.5794 288.821 99.6366C289.565 99.7154 290.378 100.797 290.97 100.461ZM278.054 105.853C278.234 106.061 282.789 107.117 283.441 107.219C286.616 107.715 291.194 107.96 289.04 103.424C288.83 102.982 288.091 101.823 287.636 101.686C286.918 101.471 282.304 101.526 281.341 101.632C280.618 101.712 278.901 102.229 278.473 102.782C278.109 103.252 277.781 105.539 278.054 105.853ZM244.642 105.952C244.316 106.907 245.532 110.822 245.913 112.051C247.756 118.003 250.602 123.306 254.796 127.966C256.207 126.581 258.373 125.483 258.641 123.368C255.34 117.354 253.652 110.345 250.662 104.274C250.445 103.834 249.945 102.422 249.359 102.511C249.068 102.555 244.736 105.679 244.642 105.952Z" fill="black"/>
<path d="M77.7079 102.83C77.9998 103.114 78.4793 106.45 78.6031 107.191C78.7235 107.911 78.3458 109.277 79.1122 109.523C79.7651 109.733 81.9442 109.576 82.8342 109.576C87.8005 109.575 93.0829 109.762 98.0788 110.449C103.815 111.238 110.1 113.766 109.785 120.447C109.758 121.022 109.305 121.588 109.239 122.196C109.116 123.323 109.606 124.601 109.523 125.554C109.438 126.537 108.937 127.234 108.915 128.393C108.901 129.14 109.146 131.252 109.437 131.869C110.224 133.54 117.932 133.405 118.45 136.049C119.243 140.101 115.195 143.48 112.085 145.363C106.352 148.835 98.7834 150.858 92.202 152.045C92.2275 153.183 93.7692 153.106 94.6169 153.495C95.5935 153.943 97.3786 154.749 98.1139 155.444C99.4923 156.746 100.962 159.788 102.154 161.388C102.687 161.126 104.835 155.942 104.606 155.726C103.907 155.918 101.298 155.893 100.985 155.458C100.271 154.464 101.451 154.625 102.107 154.265C105.045 152.652 107.848 150.163 111.036 148.865C111.503 148.675 112.458 148.265 112.41 149.077C112.362 149.905 109.798 152.961 109.173 154.117C104.936 161.953 103.98 170.334 101.51 178.597C100.559 181.777 98.1129 185.577 97.3999 188.442C97.2557 189.021 97.5016 188.932 97.8315 188.581C100.502 185.737 102.663 181.88 105.613 178.943C105.914 178.644 106.823 177.882 106.611 178.787C106.365 179.841 105.153 181.696 104.553 182.717C102.347 186.465 97.0574 192.879 96.3705 196.776C96.3003 197.174 96.041 197.901 96.3831 198.204L106.344 183.48C107.173 183.337 106.948 183.764 106.794 184.349C106.42 185.766 100.968 196.005 99.9443 197.451C98.0594 200.115 95.7558 200.597 95.0075 204.208C94.6385 205.988 95.3043 209.437 92.8868 209.805C91.7662 209.975 91.6183 209.306 91.2533 208.338C89.2249 202.958 93.4593 193.792 94.3724 188.292L91.3974 189.629C83.4531 192.041 71.1698 184.501 65.9353 178.814C62.1865 174.741 60.0391 170.176 58.8578 164.803C58.6788 163.989 58.8768 162.222 58.3736 161.738C57.4168 160.817 52.2681 160.27 53.2467 157.144C49.8093 158.262 44.0502 158.995 42.4301 154.872C42.0651 153.943 42.0648 151.735 41.8683 151.459C41.5545 151.016 39.1822 151.143 38.1286 148.899C36.5017 145.432 38.7505 141.664 41.3969 139.404C40.5164 138.191 39.7771 138.088 39.3547 136.368C38.0217 130.94 43.7908 127.062 48.5067 126.005C48.4114 123.96 48.0894 121.332 48.3351 119.327C48.7179 116.203 53.6059 114.02 56.2245 112.91C58.4482 111.968 64.2108 109.855 66.4376 109.933C67.5748 109.972 68.1755 110.924 67.9714 111.965C67.7702 112.991 66.6347 112.587 65.7049 112.87C62.2871 113.909 57.8813 115.287 54.6932 116.788C53.4519 117.373 51.5823 117.996 51.2285 119.472C55.058 120.209 58.6857 122.277 62.4142 123.363C64.3878 123.939 67.0898 123.809 68.5398 125.136C64.1707 126.255 60.8932 124.276 57.0755 122.939C56.0353 122.575 51.0371 120.574 50.5028 121.167C49.7626 121.988 50.3489 123.528 50.3889 124.432C50.4159 125.041 49.9186 125.736 50.1998 126.267C50.4772 126.791 53.2645 128.009 54.1149 129.243C54.7534 130.17 54.7624 131.523 55.4241 132.206C56.1306 132.936 58.3565 133.057 59.5022 133.585C62.0512 134.758 63.0111 137.276 62.045 139.863C61.8149 140.479 61.0762 141.006 61.1075 141.657C61.116 141.833 62.4306 144.761 62.5494 144.893C63.4326 145.881 70.4884 145.052 70.8471 146.525C71.1618 147.817 67.5928 146.715 66.9481 146.667C65.8196 146.584 63.8996 146.369 63.2257 147.252C63.075 147.45 62.381 148.584 62.7642 148.791C66.2945 148.801 69.7981 149.628 73.3038 149.775C83.8405 150.218 103.516 145.904 112.599 140.487C113.675 139.845 117.699 137.303 115.841 136.06C115.108 135.57 109.857 133.847 109.514 134.2C109.681 136.129 108.801 137.859 106.996 138.67C103.664 140.166 97.9051 141.543 94.2201 142.556C88.1591 144.222 81.9944 145.582 75.8433 146.868C72.6454 145.947 74.052 141.901 73.442 139.58C66.7353 141.085 67.6162 133.115 67.1 128.821C70.4932 130.297 68.0786 137.296 72.2882 137.884C72.7087 135.706 73.5405 133.569 73.5635 131.329C73.5775 129.962 72.428 127.086 74.7538 126.942C75.2355 126.913 75.9969 128.063 77.8569 127.626C79.2045 127.309 79.056 126.116 79.225 125.99C79.4683 125.809 80.8684 126.763 81.6201 126.527C82.3446 126.299 83.0268 123.271 84.4845 123.479C84.9689 123.548 85.5188 124.133 86.0687 124.238C88.5543 124.716 89.338 121.913 90.6595 121.797C91.2608 121.745 91.7087 122.461 92.3597 122.58C94.6929 123.006 95.7384 121.648 96.9631 120.043C97.2146 121.272 99.6556 120.298 100.355 119.766C101.207 119.118 101.682 117.301 103.425 118.088L103.454 120.043C104.297 120.042 105.863 120.044 106.054 119.055C106.481 116.834 105.635 115.019 103.456 114.234C101.572 113.555 96.2804 113.122 94.0733 112.964C91.5739 112.785 88.5536 112.725 86.0144 112.669C83.7521 112.619 81.4776 112.724 79.2176 112.68C79.1754 116.035 76.9799 118.544 73.5061 118.85C71.9368 118.989 71.1154 117.665 70.1374 117.766C69.5375 117.828 69.1796 118.567 68.5537 118.781C65.6774 119.761 61.5321 119.262 58.9074 117.743C57.7284 117.061 59.7169 116.647 60.3265 116.62C61.3744 116.574 62.4136 117.98 63.9231 117.49L63.0575 116.08L64.2114 116.074L63.9239 115.229C64.8463 115.436 65.8022 114.964 66.6315 114.974C67.4153 114.984 68.4915 115.614 69.2692 115.244C69.7927 114.359 68.2988 107.204 68.2389 105.468C68.1879 103.987 68.3786 102.768 70.1432 102.499C71.0625 102.359 73.4812 102.188 74.4557 102.176C75.0344 102.169 77.3859 102.518 77.7079 102.83ZM72.0313 115.481C74.6498 115.606 76.3094 115.752 76.6148 112.816C76.8101 110.939 76.5997 107.124 76.2598 105.243C75.7562 102.456 71.8218 104.643 69.9863 104.755L72.0313 115.481ZM68.251 117.214C67.098 116.582 66.1005 116.549 64.7902 116.645C64.5981 117.751 67.8564 117.915 68.251 117.214ZM105.14 129.627C105.269 129.476 105.726 127.171 104.775 127.41C100.936 128.309 97.1473 129.681 93.3625 130.669C88.8686 131.843 80.2967 133.142 76.6106 135.468C74.7365 136.65 74.2152 137.968 77.0296 137.577C84.5345 136.536 93.1829 132.873 100.638 130.73C101.399 130.511 104.909 129.899 105.14 129.627ZM47.4761 133.638C49.185 133.692 50.095 135.264 51.7779 134.317C53.4012 133.404 53.2172 131.859 52.2191 130.538C49.2491 126.605 41.099 130.601 41.4286 135.16C41.7074 139.015 46.3004 138.047 48.6027 136.582C50.9315 135.101 47.7689 135.004 47.4761 133.638ZM59.495 136.283C58.5538 135.318 55.8466 134.68 54.5928 135.099C54.1251 135.255 53.6916 136.401 53.2167 136.862C49.3463 140.625 43.7003 137.936 40.7329 144.151C40.2614 145.138 39.6652 146.108 40.1298 147.218C40.1859 147.352 41.3074 148.737 41.4127 148.788C43.2427 149.677 45.7528 147.119 47.2712 146.32C48.4338 145.708 54.7562 143.246 54.6442 142.041C54.5827 141.38 52.1982 137.642 53.6812 137.035L55.8475 142.129L56.1273 142.128C56.1412 141.069 58.2139 141.424 58.9345 140.916C60.1022 140.092 60.6333 137.449 59.495 136.283ZM54.9817 146.663C56.0708 147.181 55.8337 148.497 56.8486 149.216C59.9722 151.429 62.4161 145.452 59.9885 143.855C59.1819 143.324 57.5905 144.171 56.7147 144.544C54.2645 145.586 47.5992 148.929 45.8783 150.616C44.0008 152.456 45.2582 155.231 47.9085 155.458C51.3228 155.75 54.472 152.901 57.2843 151.472C57.4775 150.641 56.368 150.815 55.6965 150.346C54.1666 149.277 54.2263 148.197 54.9817 146.663ZM61.2525 151.259C59.7872 151.503 58.8096 153.095 57.7117 154.018C57.2125 154.438 54.9226 155.856 54.8305 156.003C54.0462 157.256 55.083 158.242 56.3438 158.491C59.2418 159.064 63.2714 158.411 65.0798 155.869C65.3496 155.49 66.4825 153.106 66.3856 152.888C65.8597 151.704 62.4291 151.062 61.2525 151.259ZM61.3292 164.221C61.704 167.34 64.0387 170.662 66.5172 172.578C69.0994 174.575 73.817 175.036 77.0208 174.669C84.1523 173.852 89.8642 164.397 89.9142 157.855C89.921 156.966 89.3861 152.979 88.3727 152.951L80.0791 154.027C82.1965 162.603 73.6181 171.141 65.0654 166.64C63.7098 165.927 62.782 164.763 61.3292 164.221ZM76.8351 154.665C75.5081 153.438 70.8219 153.991 69.0095 153.199C68.0635 154.88 67.5427 156.627 66.2245 158.125L63.059 160.537C64.9276 160.87 66.4862 161.659 68.4306 161.921C70.3216 162.176 72.7253 162.193 74.5978 161.957C74.4196 164.427 70.131 164.542 68.2534 164.222C68.1159 165.089 68.4716 164.683 68.9801 164.774C72.9381 165.482 75.9729 163.708 77.3336 159.966C77.8435 158.564 78.0022 155.744 76.8351 154.665ZM92.886 181.054C93.9004 180.191 95.4674 178.989 96.2397 177.956C97.5116 176.255 100.73 167.265 100.843 165.172C100.93 163.573 97.5783 159.396 96.0847 159.123C93.3134 158.618 95.1447 160.678 95.4618 161.728C96.5819 165.438 96.457 171.932 94.4364 175.336C94.1097 175.887 92.8111 177.405 92.5054 176.229C92.3992 175.821 93.2954 172.413 93.3658 171.454C93.4566 170.218 93.3838 163.422 92.7748 162.805C92.298 162.322 92.2875 162.956 92.1731 163.203C91.8583 163.883 91.7531 164.801 91.3876 165.547C86.8285 174.85 78.6362 178.797 68.2514 175.835C72.089 180.359 78.0214 179.359 83.2538 178.382C83.8156 178.94 81.3089 180.095 80.9455 180.22C79.1011 180.857 76.8308 180.996 74.8893 180.933C74.8169 181.355 75.4299 181.284 75.7495 181.356C78.0719 181.878 80.9506 181.93 83.274 181.373C85.3249 180.882 86.9448 179.128 89.0251 178.666C88.0874 181.985 84.5608 182.555 81.8131 183.634C81.3494 183.816 81.1082 183.606 81.2373 184.327C85.305 184.376 89.0294 183.207 92.3463 180.931L92.4916 181.495C92.9217 181.605 92.7088 181.204 92.886 181.054ZM83.8329 186.314C85.8094 188.042 89.8734 187.083 90.755 184.612C88.7019 185.678 86.1905 186.652 83.8329 186.314Z" fill="black"/>
<path d="M280.044 162.519C280.24 162.78 284.75 163.019 285.603 163.154C288.608 163.631 294.136 164.334 296.788 165.203C298.498 165.763 299.199 166.837 299.091 168.603C298.927 171.289 297.834 175.154 297.455 178.048C296.608 184.508 296.101 191.118 295.064 197.514C294.726 197.843 294.394 198.186 293.991 198.442C293.006 199.068 283.955 201.88 282.646 202.049C280.675 202.303 281.574 200.651 282.663 200.068C284.271 199.207 291.697 197.643 292.296 196.779L294.468 180.364L286.533 182.627C285.425 184.822 285.989 193.606 284.249 194.828C283.82 195.13 283.43 195.131 282.93 195.091L284.9 170.781C283.772 170.292 282.598 169.891 281.418 169.527C277.048 168.179 270.846 166.36 266.326 166.759C264.658 166.906 259.007 169.67 257.724 170.777C257.458 171.006 256.992 171.122 257.533 171.447C259.509 172.635 266.411 172.129 268.884 173.197C271.46 173.087 278.071 170.409 280.182 170.72C281.444 170.906 281.829 173.223 281.788 174.285C281.644 178.051 281.217 182.636 280.906 186.45C280.635 189.789 280.111 193.113 279.852 196.46C279.6 197.41 278.736 197.979 277.737 197.921L278.617 184.179C277.551 183.569 271.965 185.286 270.49 185.632C270.029 186.257 270.057 192.95 269.907 194.346C269.613 197.1 267.703 198.244 267.341 195.238C266.996 192.374 267.939 188.697 267.807 185.736C267.381 185.133 258.949 184.354 257.539 183.763C257.611 185.597 257.439 187.462 257.525 189.296C257.608 191.075 258.861 197.446 257.413 198.508C256.15 199.434 256.157 197.757 255.585 196.864C254.075 188.242 254.804 179.385 254.351 170.641C256.616 169.398 258.691 167.854 260.91 166.532C261.226 166.344 261.834 166.239 261.865 166.2C262.58 165.289 259.222 165.192 258.819 165.622L249.154 170.075C250.145 176.078 250.023 182.11 250.311 188.164C250.46 191.285 251.627 194.86 250.031 197.638C249.648 197.606 249.56 197.237 249.439 196.949C247.698 192.815 248.209 187.886 247.167 183.604L237.052 181.781C236.693 182.118 239.122 190.1 238.173 191.376C235.965 191.628 236.799 191.435 236.335 190.279C234.72 186.248 232.557 174.283 232.184 169.708C231.914 166.393 234.02 166.362 236.823 165.556C240.885 164.387 245.145 164.066 249.168 162.803C249.275 162.366 249.1 162.35 248.861 162.117C247.352 160.645 244.236 158.657 245.75 156.19C246.735 154.586 251.393 151.873 253.319 152.056C255.317 152.246 257.605 153.936 258.988 155.292C259.444 155.74 261.16 158.145 261.324 158.239C261.694 158.45 263.099 157.522 263.981 157.529C265.113 157.537 266.477 158.459 266.915 158.458C267.384 158.458 273.105 153.536 274.297 152.775C277.201 150.922 281.022 148.845 283.786 152.194C286.766 155.804 282.498 159.988 280.044 162.519ZM281.98 153.261C279.898 151.534 275.37 154.621 273.439 155.899C271.118 157.435 267.792 159.68 267.349 162.52C268.999 162.217 270.162 160.838 271.765 160.202C272.399 159.951 276.977 158.62 275.703 160.524C275.554 160.747 271.794 162.185 270.876 163.003C270.492 163.345 270.414 163.232 270.523 163.937C272.869 162.981 275.95 162.584 278.122 161.345C280.002 160.272 284.404 155.271 281.98 153.261ZM259.554 161.956C260.3 158.694 255.074 153.321 251.846 154.531C251.067 154.823 248.66 156.937 248.417 157.702C247.996 159.031 250.824 162.028 252.038 162.397C252.766 162.617 255.509 162.755 256.518 162.817C256.83 162.836 257.613 162.998 257.535 162.526C256.027 161.912 252.346 161.301 251.197 160.39C250.802 160.077 250.873 159.858 250.901 159.41C251.523 158.51 258.458 161.224 259.554 161.956ZM265.906 159.69C264.813 159.677 263.268 159.553 262.432 160.386C260.991 161.823 263.209 165.119 264.768 163.528C265.212 163.075 266.237 160.019 265.906 159.69ZM257.535 163.939C251.2 164.616 244.856 165.644 238.783 167.477C240.518 168.24 244.545 169.473 246.352 169.268C248.134 169.066 254.83 165.567 256.903 164.577C257.293 164.391 257.698 164.759 257.535 163.939ZM294.183 166.771L277.576 164.262C276.721 164.392 274.303 165.332 275.924 166.141L286.563 169.294C288.877 168.688 291.549 168.164 293.779 167.366C294.066 167.263 294.701 167.161 294.183 166.771ZM296.489 168.47L286.966 170.737C287.375 173.555 286.522 176.413 286.504 179.216C286.502 179.558 286.548 179.586 286.831 179.799L295.21 177.549L296.489 168.47ZM247.147 180.646C247.303 177.457 246.844 174.282 246.304 171.16L234.744 168.754L236.472 179.233L247.147 180.646ZM279.115 181.146L279.763 172.853C279.025 172.425 272.277 174.392 270.938 174.683L270.522 182.914L279.115 181.146ZM268.478 174.722L256.673 173.002L256.958 181.498L268.215 182.914C268.215 180.175 268.11 177.435 268.478 174.722Z" fill="black"/>
<path d="M80.2263 205.852C80.4331 205.884 81.918 206.387 81.2426 206.849C80.3832 207.437 77.3714 207.93 75.9485 208.733C74.9268 209.31 72.6367 211.119 71.7108 211.937C71.0309 212.538 68.7636 215.689 67.9646 214.913C67.5584 214.518 69.1335 212.059 69.5056 211.612C70.1323 210.86 72.7922 209.048 73.0113 208.682C73.158 208.438 73.2534 207.684 73.1541 207.551C72.9864 207.326 68.5005 209.843 68.1121 210.104C66.7561 211.016 63.5865 214.533 62.5747 214.866C62.3531 214.939 62.1305 214.924 61.9052 214.913C61.0984 213.445 66.4921 209.819 65.9405 209.25C63.0037 210.306 59.7062 211.223 57.7128 213.774C57.2552 214.36 55.9014 217.761 54.9494 216.449C53.274 214.141 58.7716 210.953 58.1511 210.384C55.3503 210.925 53.3984 210.757 52.0417 213.589C51.346 215.041 50.8066 221.584 48.34 218.739C45.3973 215.345 46.0255 207.712 45.6774 203.497C45.6954 202.993 44.4587 202.024 44.0942 201.932C43.0271 201.662 42.4891 203.258 41.3946 203.476C41.2198 205.501 46.2161 216.138 45.1665 217.178C45.0792 217.265 44.2727 217.24 44.1706 216.884C42.9537 213.1 41.2388 209.866 39.158 206.511C38.8059 205.943 38.9122 205.059 38.1037 204.997C37.7355 205.232 35.3476 204.525 35.3644 205.142C35.3706 205.367 37.3486 208.482 37.6725 209.041C37.7805 209.227 38.1329 209.271 38.3236 209.609C40.0042 212.589 41.5119 216.012 42.8583 219.161C42.3564 219.209 41.896 219.163 41.4089 219.028C39.7062 218.557 31.1153 213.232 30.1649 214.066C32.2355 219.244 29.4377 215.1 27.5369 214.235C24.8334 213.005 22.4161 214.286 19.778 214.065C19.9748 215.849 21.8521 216.568 22.37 218.174L21.4374 218.24C18.9995 215.964 15.5616 214.147 13.2743 211.808C11.5155 210.01 13.1939 210.081 14.7845 210.892C17.518 212.287 16.7276 213.487 20.6521 212.518C21.0067 212.43 22.0352 212.225 22.0825 211.803C21.3777 211.5 18.9724 210.099 20.0574 209.385C23.5604 209.19 26.6748 207.347 30.2387 207.902C32.3732 208.234 34.2277 209.552 36.2231 210.097C35.0259 209.363 31.1415 202.594 30.5933 202.454C29.988 202.298 29.9027 203.379 29.5719 203.713C27.9802 205.32 24.4058 206.461 22.3875 205.129C19.7163 203.366 21.5887 199.756 21.2172 199.339C20.2271 199.513 20.0416 200.374 18.9303 200.632C10.7066 202.545 10.3324 193.831 16.6014 191.404C16.6582 190.595 15.6813 190.547 15.1966 189.814C11.6291 184.423 20.7525 181.646 24.6796 183.761C23.7333 175.794 34.3453 177.715 34.2062 184.328C37.8417 181.456 43.9671 181.791 44.2508 187.382C44.2963 188.28 43.2587 188.719 43.4706 189.514C43.6235 190.087 44.764 190.357 45.1383 191.013C45.7122 192.018 45.7885 194.211 45.1361 195.202C44.5317 196.119 42.506 196.293 43.8955 198.182C44.6342 199.186 46.7552 199.25 47.8959 199.041C48.0474 199.014 50.5206 197.722 50.6026 197.594C51.0794 196.849 50.0495 193.704 50.3633 193.391C53.4626 193.265 52.1931 196.479 55.1897 197.008C55.9083 197.135 57.5733 197.199 58.2353 197.012C58.3599 196.977 60.2944 195.675 60.3773 195.578C61.7084 194.006 59.6883 191.89 58.4228 191.001C57.9305 190.656 55.3845 189.896 56.1312 189.145C56.2021 189.073 57.843 188.935 58.1526 188.97C59.3603 189.107 60.8873 190.312 62.1049 189.768C63.3424 189.215 64.0369 188.28 64.1461 186.941C64.3167 184.848 60.0671 184.367 58.4205 184.733C55.2149 185.444 56.2696 186.819 55.2278 188.679C54.368 190.214 51.6203 191.236 49.921 191.147C45.0106 190.891 44.4008 184.148 48.7751 183.762C51.1506 183.553 53.5914 185.085 54.8368 182.348C56.6109 178.449 52.2143 175.542 50.6272 179.351C50.3012 180.133 50.6338 181.537 49.4982 181.495C49.664 179.184 47.4612 175.352 44.7427 175.822C42.1832 176.265 45.4736 180.657 46.3222 181.493C42.4306 181.466 40.0975 174.104 45.3124 174.111C48.0414 174.115 49.3987 176.954 49.6686 176.989C50.1442 177.049 50.7626 176.472 51.3223 176.35C56.9522 175.122 57.832 179.362 56.4228 183.76C59.4208 182.669 66.0102 182.006 66.2458 186.463C66.2749 187.014 66.0692 188.436 65.8679 188.927C65.3334 190.23 63.295 190.594 63.0593 191.973C63.7292 192.552 68.2386 190.099 70.8359 192.129C73.306 194.059 69.3577 198.661 66.8103 197.782C67.7631 197.053 70.3893 195.227 69.9528 193.864C69.3532 191.993 64.1298 193.503 63.4888 194.805C62.9253 195.949 63.748 198.724 61.8841 200.027C59.6889 201.561 57.7822 200.233 55.5577 200.769C56.4637 204.193 54.0433 205.683 52.4308 208.024C51.5794 209.26 47.9159 214.806 48.9207 216.046C49.5286 216.134 49.3889 216.078 49.5659 215.689C50.0565 214.61 50.1729 213.26 50.7786 212.066C53.1604 207.372 60.2936 202.144 65.8092 202.443C68.4493 202.586 69.9076 204.678 72.4374 204.451C74.1553 204.296 78.4485 202.182 77.7371 200.094C77.0261 198.008 70.2476 199.594 68.5416 199.903C68.0484 199.48 70.174 198.376 70.4753 198.264C71.2824 197.962 73.3445 197.471 74.196 197.387C78.5716 196.955 81.7257 199.568 78.3646 203.46C77.7317 204.193 76.2057 204.819 76.0424 205.852C77.3377 205.993 78.9878 205.657 80.2263 205.852ZM32.1849 186.309C34.8475 180.918 24.7011 176.631 26.4733 184.41C26.6989 185.4 27.9717 186.046 27.8538 187.159C26.7595 187.27 25.8912 185.916 25.2457 185.615C23.0213 184.579 16.5081 184.224 16.3175 187.608C16.1191 191.131 22.1432 188.767 22.3717 191.973C19.395 192.353 15.1217 192.202 14.3599 195.861C13.7408 198.835 15.6382 199.579 18.3037 198.873C18.988 198.692 18.8983 198.306 19.2768 198.128C21.1506 197.247 22.9869 196.258 24.9671 195.656C24.1504 197.454 21.6771 201.611 23.3719 203.315C25.1463 205.099 27.9144 203.121 29.1196 201.57C29.7119 200.808 30.6159 197.987 30.8892 197.923C31.843 197.701 31.4697 199.512 31.7374 199.917C31.8845 200.14 33.1057 200.467 33.545 200.692C33.9735 200.912 34.2903 201.414 34.6993 201.54C37.0689 202.267 42.303 201.189 40.6808 197.935C40.1445 196.859 38.4443 196.667 37.4936 196.25C37.2339 196.136 36.6167 196.135 37.0898 195.66C37.7616 194.987 42.3704 195.532 43.2931 193.677C44.8871 190.471 39.839 190.859 38.175 190.484C37.9721 190.438 37.0637 190.041 37.0909 189.713C38.7388 188.883 42.9286 188.442 41.7779 185.82C39.9283 181.605 33.0424 187.081 32.1849 186.309ZM51.4467 188.509C52.7768 187.204 50.7525 184.661 48.6341 185.609C45.8183 186.868 49.5918 190.329 51.4467 188.509ZM50.9405 206.417C51.5413 206.548 51.5963 206.106 51.8683 205.773C53.0152 204.365 54.1995 202.248 53.7597 200.392C53.6114 199.766 53.0581 198.911 52.3591 199.52C51.1346 201.339 51.1075 204.193 50.9405 206.417ZM49.4946 202.171C45.7595 202.665 47.512 206.988 47.7684 209.533C48.2908 209.387 48.4578 208.981 48.6107 208.523C48.8326 207.857 49.7131 202.41 49.4946 202.171ZM55.5557 209.53C57.0621 209.158 58.7206 209.427 60.1757 209.112C60.8356 208.969 65.903 206.846 66.4386 206.48C68.3119 205.201 66.438 204.384 64.9535 204.455C62.4827 204.574 57.2591 207.641 55.5557 209.53ZM39.9728 216.329C38.0742 211.709 32.1928 209.783 27.4209 210.097C26.7089 210.144 26.2244 210.502 25.6216 210.6C25.1899 210.67 23.6553 210.413 23.2394 210.953C22.4395 211.993 25.8877 211.781 26.2338 211.833C28.3067 212.146 31.1321 212.679 33.1097 213.297C35.5914 214.072 37.475 215.806 39.9728 216.329Z" fill="black"/>
<path d="M42.2831 76.7151C43.9178 78.0229 47.8964 79.5667 46.6815 82.304C45.8463 84.1861 42.7089 83.7587 41.0562 83.4378C40.3209 83.295 38.3875 82.1235 37.7982 82.9375C37.6135 83.1924 38.986 87.9437 39.0715 89.0675C39.4856 94.5103 37.3909 99.8368 33.6338 103.765C31.4718 106.026 25.5949 109.981 24.7655 112.617C22.8288 118.773 32.1789 117.704 32.7667 122.725C33.2746 127.064 29.2089 127.359 27.2754 130.093C25.2461 132.963 24.959 136.674 28.4318 138.454C27.0785 140.005 24.0196 138.381 23.3772 136.756C22.3168 134.073 23.5305 130.85 25.2652 128.686C26.2886 127.409 29.8611 125.012 30.301 124.002C31.4996 121.251 27.0467 120.34 25.29 119.303C23.5111 118.252 22.278 116.569 22.1074 114.482C21.6854 109.322 28.8345 105.544 31.9022 102.066C35.7448 97.7085 38.3801 90.9294 35.987 85.2988C34.0729 80.7954 31.2328 85.5426 27.9235 86.0027C24.8453 86.4306 24.1135 83.2583 25.8288 81.095C26.211 80.613 28.721 78.7277 28.4313 78.4128C24.8294 77.7064 21.5134 76.1713 18.5264 74.1149C-1.9642 60.008 3.63071 25.3166 27.0014 17.3924C46.9351 10.6336 63.5952 29.1931 62.4778 47.964C61.7478 60.2272 53.9927 72.1029 42.2831 76.7151ZM33.2779 18.455C11.5121 20.3839 2.13752 47.4173 13.1944 64.3383C17.2223 70.5024 25.6014 76.6741 33.4525 75.8309C35.3157 75.6308 35.9881 75.6414 37.7934 75.588C46.0593 75.3438 55.6198 62.8292 57.9401 55.688C63.1551 39.6381 52.5578 16.7464 33.2779 18.455ZM37.5881 77.9069C37.1799 77.9892 34.1727 79.3685 35.5308 79.7822C36.2998 80.0164 38.4892 79.8424 39.7979 80.1415C41.4958 80.5295 43.8421 82.251 45.4549 81.0971C45.6878 79.9302 39.0065 77.6208 37.5881 77.9069ZM26.4374 84.0463C27.4845 85.4792 33.8627 81.1634 33.6275 79.9752C33.418 78.9174 29.1383 79.9769 28.3316 80.4362C27.4849 80.9182 25.8674 83.2662 26.4374 84.0463Z" fill="black"/>
<path d="M222.303 200.437C217.817 202.736 214.621 207.02 215.125 212.221C215.624 217.362 221.652 219.938 226.317 218.397C229.667 217.291 231.598 211.721 231.595 208.542C231.594 207.293 230.459 202.182 229.914 201.1C229.663 200.602 228.981 200.472 228.986 200.342C229.003 199.93 230.632 195.81 231.007 195.531C232.331 194.546 236.786 195.404 238.432 195.858C240.031 196.299 245.951 198.532 246.225 200.098C246.4 201.103 242.981 203.92 242.924 204.861C242.902 205.221 244.104 207.542 244.232 208.573C244.582 211.39 244.131 216.476 243.319 219.225C238.032 237.116 211.061 238.498 202.016 222.821C198.151 216.123 199.919 205.217 206.175 200.327C206.344 199.757 205.864 200.012 205.606 199.695C204.293 198.087 203.7 196.737 205.742 195.372C208.481 193.54 218.189 191.665 220.434 194.548C220.978 195.246 222.697 199.911 222.303 200.437ZM218.209 196.304C217.187 195.109 211.572 195.691 209.965 196.117C208.713 196.45 207.555 196.623 207.98 197.992C209.029 201.375 211.781 198.79 213.678 201.033C212.219 201.894 210.381 201.563 208.819 202.072C205.724 203.082 203.305 209.296 203.039 212.26C201.264 232.038 232.539 235.762 239.415 220.491C240.744 217.539 242.428 210.021 240.795 207.205C240.71 207.058 238.733 205.697 238.405 205.514C236.85 204.643 235.098 204.256 233.591 203.303C235.849 213.423 230.587 225.413 218.193 220.254C213.662 218.368 212.202 214.277 212.512 209.662C212.742 206.237 215.1 202.999 217.314 200.486C217.361 200.432 218.728 199.582 217.859 199.617C217.04 199.651 215.634 200.794 215.121 199.624C217.27 199.833 220.202 198.635 218.209 196.304ZM232.754 202.424C232.827 202.475 233.75 202.138 234.518 202.236C236.231 202.453 238.086 203.672 239.763 204.129C240.187 203.54 242.584 200.811 242.507 200.366C242.321 199.284 234.622 197.07 233.194 197.387C232.962 197.466 231.852 200.622 231.86 200.904C231.862 201.006 232.681 202.374 232.754 202.424Z" fill="black"/>
<path d="M179.63 93.9911C179.311 95.4449 175.25 95.4968 174.981 95.8569C173.451 100.463 172.697 105.448 171.338 110.063C169.602 115.958 167.273 119.149 161.828 122.253C149.702 129.167 144.626 119.445 140.336 110.04C139.542 108.3 138.547 104.258 137.509 102.981C136.948 102.292 135.505 101.557 134.752 100.794C133.384 99.4093 133.022 97.6372 130.819 97.2899C129.992 97.1594 128.957 97.6929 128.339 96.6902C129.37 93.3521 134.29 93.5395 137.214 93.1413C136.876 94.0301 134.707 95.0822 134.947 96.043C134.984 96.1936 136.449 98.4632 136.631 98.6663C141.859 104.497 153.827 105.084 160.689 102.16C162.441 101.414 170.483 96.4796 170.325 94.6907C169.42 94.1828 166.215 91.5447 168.585 90.9126C169.145 90.7632 173.839 92.6713 175.012 92.9977C176.51 93.4144 178.131 93.5519 179.63 93.9911ZM163.123 109.649C160.469 109.897 158.528 110.873 157.252 113.23C156.92 113.843 156.263 116.351 155.537 116.356C153.577 116.37 157.124 110.701 152.709 113.02C149.364 114.777 146.054 118.204 151.269 120.266C156.819 122.461 162.959 119.763 165.901 114.923C168.096 111.311 168.375 109.156 163.123 109.649Z" fill="black"/>
<path d="M251.045 221.428C249.687 221.25 247.71 220.087 246.986 218.898C243.965 213.932 248.016 207.537 253.785 207.833C253.145 205.366 254.387 202.738 256.38 201.177C261.149 197.441 266.668 198.895 268.795 204.436C275.156 197.636 286.241 206.461 280.322 213.649C281.217 214.864 282.273 214.726 282.986 216.417C286.295 224.26 276.955 228.68 270.529 225.391C270.122 227.518 267.808 229.533 265.825 230.27C261.336 231.938 254.836 228.918 255.663 223.695C254.429 224.843 253.08 226.199 251.742 227.21C250.308 228.295 247.291 230.477 245.799 231.29C244.778 231.846 244.308 232.093 243.102 231.774C241.919 231.461 240.334 230.497 241.354 229.19C241.558 228.929 246.505 227.447 247.631 226.857C249.465 225.897 252.073 224.061 253.861 222.852C254.22 222.61 254.261 222.04 254.645 221.85C255.09 221.63 255.838 221.946 255.806 221.428C254.304 221.289 252.503 221.62 251.045 221.428ZM264.459 212.933C265.2 209.406 268.235 207.372 266.246 203.677C263.404 198.396 254.828 201.9 256.157 207.634C256.535 209.267 260.668 210.91 262.003 212.084C262.532 211.75 262.331 211.637 262.316 211.236C262.282 210.309 261.494 205.709 262.171 205.297C262.247 205.251 262.982 205.26 263.015 205.286C263.182 205.419 263.782 208.901 263.85 209.427C263.983 210.445 263.759 211.546 263.885 212.512C263.936 212.902 264.057 213.359 264.459 212.933ZM267.638 213.497C271.111 213.866 278.064 214.311 279.53 210.305C280.331 208.114 278.406 205.626 276.488 204.669C273.686 203.271 272.157 204.15 269.929 205.985C268.629 207.057 268.441 207.933 267.783 209.253C267.323 210.175 266.417 210.965 266.484 212.081C268.254 211.268 269.344 210.395 271.327 209.899C271.918 209.752 274.2 208.939 273.983 210.096L268.233 212.527L267.638 213.497ZM261.866 215.198H255.518C255.553 214.969 255.459 214.41 255.516 214.35C255.729 214.129 259.106 214.041 259.716 214.052C260.124 214.06 262.953 214.724 262.152 213.787C258.853 211.957 254.752 208.739 250.805 210.714C248.163 212.036 247.823 215.816 249.734 217.901C251.792 220.146 254.553 219.605 257.111 218.602C257.936 218.279 261.199 216.574 261.676 216.062C261.967 215.75 261.874 215.582 261.866 215.198ZM277.014 214.915C273.985 214.419 269.66 215.283 266.482 214.915L272.923 218.647L273.696 219.443C271.86 219.723 270.346 218.974 268.72 218.241C267.78 217.816 264.53 215.34 263.73 216.611C263.063 217.669 265.903 220.527 264.246 223.048C264.096 223.277 264.05 223.814 263.601 223.41C263.298 223.137 263.14 218.746 262.592 217.742C262.332 217.266 261.231 218.211 260.988 218.443C258.32 221 256.11 225.663 260.51 227.715C263.306 229.019 266.091 228.632 267.921 226.099C269.308 224.181 268.238 223.127 268.109 221.085C267.97 218.9 271.014 222.785 271.695 223.251C275.496 225.854 281.435 223.701 281.334 219.017C281.288 216.877 278.984 215.237 277.014 214.915Z" fill="black"/>
<path d="M158.565 85.7723C158.279 86.1088 156.713 84.352 156.355 84.1205C152.669 81.7354 148.803 81.8511 145.286 84.4924C140.197 88.314 142.866 93.039 148.392 94.202C154.115 95.4065 160.088 93.1983 162.032 87.4736C163.761 88.71 162.697 91.752 161.692 93.2313C157.673 99.147 143.089 98.7296 139.846 92.1108C138.818 90.0118 138.876 88.3728 139.845 86.2169C140.798 84.0942 143.075 82.8004 145.011 81.6624C145.377 81.4473 145.743 81.7187 145.579 80.9594C143.844 81.2149 141.704 81.4651 139.964 81.5363C138.487 81.5966 138.64 81.1329 139.67 80.396C141.315 79.2186 143.951 78.8301 145.942 79.0499C146.779 79.1423 149.675 80.2141 150.024 80.0948C150.554 79.9134 150.621 77.5294 152.016 77.8738C153.33 78.1982 152.576 79.6346 151.936 80.2529C154.806 81.5728 158.918 81.4704 158.565 85.7723Z" fill="black"/>
<path d="M235.319 64.8208C235.238 65.1839 234.844 65.4217 234.549 65.6201C232.962 66.6907 225.691 69.2281 223.873 69.247C223.019 69.2558 221.693 68.7559 221.034 68.2187C217.296 65.1725 225.201 59.6873 227.623 58.2558C230.561 56.5197 236.548 54.7555 237.494 51.231C237.981 49.4198 236.552 48.6891 234.886 48.653C230.657 48.5615 221.184 53.6282 218.003 56.4601C216.791 57.5395 213.456 61.367 213.215 62.83C212.861 64.9787 214.661 64.9275 214.832 66.5146C211.794 67.0147 211.311 63.8966 212.181 61.5079C214.426 55.3437 228.897 46.5445 235.47 47.2532C237.65 47.4882 239.285 49.14 239.084 51.3654C238.684 55.7862 228.687 58.8424 225.371 61.4264C222.714 63.4972 218.896 68.0351 225.25 67.4781C228.711 67.1749 231.875 65.0707 235.319 64.8208Z" fill="black"/>
<path d="M72.0011 80.9609C71.923 82.3389 72.2236 83.8625 72.8208 85.1157C73.5744 86.6972 75.094 87.0536 76.3336 88.1785C78.198 89.8703 79.644 92.4675 79.7911 94.9852C80.1585 101.271 70.7313 103.879 67.7094 98.3421C64.9845 93.3498 67.9176 90.5991 69.5432 86.0506C70.1317 84.404 69.8935 81.5576 72.0011 80.9609ZM72.8711 93.9869C74.56 94.6794 73.4021 100.138 75.9011 97.9532C80.0042 94.3661 74.4575 89.7615 71.1419 88.0393C69.6815 91.3717 67.2848 98.1769 72.8667 98.8004L72.8711 93.9869Z" fill="black"/>
<path d="M87.0069 61.9811C89.1236 62.3558 91.072 63.9315 91.3165 66.1217C91.4552 67.3639 90.4802 70.5537 89.7287 71.5949C87.1414 75.1791 82.5992 72.0083 82.671 68.0875C82.7008 66.4572 83.7464 65.0148 83.8312 63.4023C81.6205 64.1758 79.9811 66.0416 78.8768 68.023C78.6931 68.3524 77.9838 70.8875 77.5177 69.1625C77.1065 67.6405 80.0074 64.1336 81.2543 63.2774C83.1244 61.9933 84.8012 62.5676 85.5783 59.8746C87.1869 54.3004 82.7206 55.2711 79.2029 53.6433C75.4533 51.9082 75.0115 47.2764 78.4961 44.9941C78.8055 46.7783 77.7962 48.2574 78.9252 49.951C80.7536 52.6936 81.9998 52.2655 84.6496 53.1119C88.3724 54.3011 88.486 59.0133 87.0069 61.9811ZM89.2286 64.8981C88.6404 64.1782 87.1005 63.6028 86.2827 63.1295C85.6225 63.1761 83.2801 70.9717 86.9349 71.5652C87.4561 71.6498 87.5876 71.6863 88.0136 71.3278C89.2609 70.278 90.2881 66.1947 89.2286 64.8981Z" fill="black"/>
<path d="M234.939 73.1166C236.523 75.2571 233.494 77.327 231.947 78.3579C229.843 79.7614 225.57 82.0761 223.055 82.0901C222.227 82.0947 221.548 81.6747 220.48 81.825C218.84 82.056 216.207 85.1778 215.128 86.4888C214.856 86.8195 213.31 89.7239 212.814 89.1709C212.605 87.0498 214.121 85.4262 215.418 83.9407C216.496 82.7046 218.288 80.5974 220.028 80.6745C218.511 77.0692 223.912 74.2376 226.747 73.2534C228.342 72.6997 233.91 71.7251 234.939 73.1166ZM232.001 73.7556C229.42 73.7329 223.356 75.6204 221.917 77.8574C220.91 79.4213 221.476 80.3665 223.344 80.4184C226.262 80.4994 231.393 77.8426 233.16 75.5838C234.333 74.0856 233.876 73.7721 232.001 73.7556Z" fill="black"/>
<path d="M225.079 117.209L225.747 117.858C223.591 123.762 221.704 129.812 220.927 136.076C220.824 136.904 220.584 138.411 220.594 139.142C220.614 140.601 221.535 142.295 221.639 143.54C221.749 144.855 220.596 144.388 220.06 143.655C217.744 140.49 219.65 130.801 220.685 127.059C221.058 125.711 224.069 117.451 225.079 117.209Z" fill="black"/>
<path d="M105.406 36.0055C106.232 35.8797 109.83 35.727 110.24 36.209C110.565 36.5909 112.215 44.5746 112.068 45.0744C111.552 46.8166 105.866 47.169 104.928 45.1046C104.802 42.9948 103.273 39.4137 103.43 37.486C103.526 36.3029 104.368 36.1636 105.406 36.0055ZM110.38 44.1398C109.389 42.9373 109.58 38.567 108.962 37.746C108.616 37.2872 105.543 37.5408 105.174 37.7611C104.558 38.1288 105.591 39.7196 105.746 40.3361C105.905 40.9667 106.473 44.2676 106.667 44.3897C106.979 44.5864 110.181 44.4024 110.38 44.1398Z" fill="black"/>
<path d="M198.672 152.608L198.39 152.047C196.854 152.124 196.265 149.888 195.923 148.653C194.135 142.18 194.148 131.002 199.248 125.988C196.259 134.823 196.504 143.62 198.672 152.608Z" fill="black"/>
<path d="M111.753 51.5806C112.916 51.4137 115.233 51.1919 115.996 52.0834C117.034 53.2977 116.513 54.3474 116.756 55.585C117.367 58.6934 119.04 60.6223 114.31 60.2509C111.864 60.0589 110.558 59.5852 109.888 57.2285C109.16 54.6693 108.354 52.0681 111.753 51.5806ZM114.705 53.2087L111.244 53.2064C111.06 53.3885 111.928 58.0711 112.171 58.2473C112.478 58.4692 115.431 58.7271 115.574 58.5856L114.705 53.2087Z" fill="black"/>
<path d="M174.147 81.5241C171.763 80.8131 168.09 83.2668 166.2 83.1009C165.42 83.0324 164.551 81.9008 163.828 81.6019C161.346 80.5763 159.798 81.4575 157.849 81.2533C156.783 81.1417 158.066 79.8288 158.417 79.5398C160.528 77.8005 163.532 77.8546 165.894 79.0077C166.66 79.3819 167.328 80.2719 167.95 80.3885C170.176 80.8061 173.244 79.041 174.147 81.5241Z" fill="black"/>
<path d="M285.852 204.186C286.229 203.53 293.699 200.974 294.988 200.554C296.964 199.91 301.869 198.215 303.635 197.976C304.838 197.812 305.379 198.565 304.39 199.303C303.971 199.614 302.811 200.088 302.257 200.325C298.985 201.723 294.546 203.008 291.073 204.074C290.306 204.31 287.013 205.292 286.517 205.282C285.925 205.271 285.594 204.635 285.852 204.186Z" fill="black"/>
<path d="M116.437 150.63C117.146 151.312 112.789 157.176 112.166 158.188C110.514 160.87 108.939 164.036 107.151 166.575C106.842 167.014 106.395 168.008 105.764 167.902C105.693 167.021 105.952 166.184 106.194 165.353C107.136 162.117 112.578 152.977 115.271 151.04C115.666 150.756 115.854 150.507 116.437 150.63Z" fill="black"/>
<path d="M199.934 95.5822C200.194 95.8088 200.647 95.8859 200.693 96.2503C200.054 96.1929 197.238 97.7428 197.036 98.084C196.63 98.7732 197.873 99.1364 198.044 99.563C198.921 101.748 197.694 104.487 196.224 106.169C195.933 106.502 194.546 108.02 194.058 107.58C194.401 106.661 195.017 106.082 195.435 105.11C196.204 103.32 196.683 101.733 195.784 99.9334L193.334 101.061C192.79 100.84 193.233 100.24 193.194 100.22C192.958 100.098 192.195 100.427 192.039 100.078C193.262 98.6628 197.405 94.2237 199.354 94.8754C199.692 94.9887 199.733 95.4072 199.934 95.5822Z" fill="black"/>
<path d="M166.068 123.443C164.022 128.575 155.34 132.257 150.791 128.381C147.527 125.598 153.224 127.57 154.129 127.652C156.067 127.826 159.027 127.11 160.838 126.378C162.752 125.605 164.156 123.99 166.068 123.443Z" fill="black"/>
<path d="M155.03 159.482C157.697 161.933 152.141 168.57 149.179 166.212C146.487 164.068 152.706 157.346 155.03 159.482ZM153.948 160.542C153.226 159.802 150.516 163.519 150.317 164.203C149.982 165.356 150.984 165.064 151.686 164.69C153.176 163.897 154.201 162.216 153.948 160.542Z" fill="black"/>
<path d="M171.837 73.8807C168.942 71.3553 168.816 69.2012 164.437 68.8103C163.893 68.7617 161.191 69.3348 161.867 67.9259C162.117 67.4041 164.728 66.3085 165.382 66.2473C168.886 65.9193 172.856 70.4458 171.837 73.8807Z" fill="black"/>
<path d="M143.164 73.2031C142.521 73.6987 141.347 74.4296 141.239 73.1684C141.141 72.0312 143.088 69.9883 144.041 69.394C145.126 68.718 150.42 67.0282 150.772 68.6479C150.957 69.4975 148.364 69.9602 147.782 70.2335C145.938 71.0996 144.723 72.0027 143.164 73.2031Z" fill="black"/>
<path d="M82.3131 207.902C83.2069 207.748 87.2211 208.066 85.5686 209.113C84.9369 209.513 81.5082 209.743 80.1675 210.326C78.9558 210.852 75.8696 213.308 74.9758 213.45C72.6734 213.814 75.9645 210.743 76.6391 210.261C77.7423 209.473 80.9908 208.129 82.3131 207.902Z" fill="black"/>
<path d="M63.4572 128.477C63.4855 128.545 64.3728 128.474 63.6312 128.958C62.7784 129.515 61.4985 129.553 60.7544 130.377C61.4797 132.303 63.5642 131.604 64.627 132.519C65.4395 133.218 65.986 135.278 64.4118 134.77C63.9177 134.611 63.73 133.235 63.5851 133.118C63.4355 132.998 62.502 133.07 61.9747 132.856C61.1572 132.525 59.959 131.204 58.8181 130.997L56.4224 127.972C57.6363 127.663 58.807 128.965 59.7823 129.023C60.8001 129.083 62.3644 127.561 63.1967 127.687C63.5945 127.747 63.3891 128.315 63.4572 128.477Z" fill="black"/>
<path d="M300.24 205.572C300.092 205.998 299.201 206.365 298.793 206.554C296.965 207.404 292.083 209.183 290.152 209.684C289.466 209.862 288.821 209.846 288.125 209.815C288.135 208.493 290.133 207.769 291.221 207.335C293.759 206.324 297.568 205.08 300.24 205.572Z" fill="black"/>
<path d="M177.609 84.64C174.764 83.7295 171.249 85.2468 168.509 84.9337C168.078 84.8844 167.62 84.8783 167.511 84.3613C169.025 84.4733 170.507 82.9742 171.76 82.7227C173.573 82.3589 176.937 82.6165 177.609 84.64Z" fill="black"/>
<path d="M215.118 141.85C214.633 142.356 214.631 141.746 214.551 141.426C213.66 137.907 215.819 132.262 217.586 129.117C217.764 128.8 217.827 128.324 218.292 128.256C218.006 130.832 216.668 133.4 216.069 135.842C215.816 136.874 215.33 141.628 215.118 141.85Z" fill="black"/>
<path d="M93.3535 116.929C93.4972 117.789 93.1285 117.378 92.6526 117.499C91.4561 117.804 88.0149 118.334 86.8475 118.351C85.6411 118.369 84.554 117.509 83.2573 117.775C83.8161 116.082 85.3902 116.592 86.5789 116.641C87.6537 116.686 89.3098 116.555 90.3125 116.631C91.2826 116.705 92.2876 117.142 93.3535 116.929Z" fill="black"/>
<path d="M128.474 41.6817C129.053 42.1629 130.833 45.8665 130.287 46.4078C129.591 47.099 128.916 45.2608 128.682 45.0132C127.885 44.1716 126.51 44.0936 126.634 42.6291C126.731 41.4876 127.45 40.832 128.474 41.6817Z" fill="black"/>
<path d="M239.648 36.4981C239.785 37.6156 238.308 37.8655 237.478 38.7562C236.771 39.5138 236.103 41.2631 235.622 41.6901C235.304 41.9728 235.136 41.8897 234.744 41.8787C234.347 39.3848 236.954 36.1114 239.648 36.4981Z" fill="black"/>
<path d="M102.875 72.7453C101.513 73.1075 98.342 69.6948 98.0898 68.8012C97.7341 67.5403 98.8813 68.0251 99.5556 68.5015C100.207 68.9617 103.506 72.0396 102.875 72.7453Z" fill="black"/>
<path d="M207.906 62.5514C207.634 62.8337 207.064 62.4708 206.807 62.067C205.862 60.5799 208.176 56.5878 209.924 56.0391C210.225 56.4077 208.145 59.6894 207.971 60.4913C207.862 60.9994 207.978 62.4765 207.906 62.5514Z" fill="black"/>
<path d="M135.194 84.9256C134.477 84.2006 136.246 83.0106 137.085 82.9554C139.121 82.8213 141.029 84.9256 139.667 84.9256C139.026 84.9256 135.35 85.0831 135.194 84.9256Z" fill="black"/>
<path d="M104.608 196.792C104.89 197.06 101.339 203.027 99.993 202.735C99.5436 202.283 103.078 197.936 103.625 197.382C103.924 197.079 104.041 196.662 104.608 196.792Z" fill="black"/>
<path d="M192.714 119.02C192.647 119.06 192.508 119.955 192.038 119.473C191.688 119.114 194.08 116.482 194.781 116.367C195.944 117.371 193.437 118.588 192.714 119.02Z" fill="black"/>
<path d="M280.043 53.2051C280.133 55.2642 280.047 54.2995 279.383 54.4395C279.021 54.516 278.666 54.8403 278.216 54.9545C271.093 56.7652 263.647 57.5115 256.384 56.0357C256.83 54.1897 259.223 55.4283 260.557 55.4811C267.13 55.7416 273.567 53.9437 280.043 53.2051Z" fill="black"/>
<path d="M268.21 75.8614L268.505 77.8435C269.208 77.6395 268.711 76.6684 269.565 76.4563C271.349 76.0133 271.332 79.7811 268.613 79.8213C266.327 79.855 265.8 75.4479 268.21 75.8614Z" fill="black"/>
<path d="M267.639 87.1902L268.499 87.4723L268.216 85.207C269.673 86.2703 268.961 88.7768 269.084 90.4416C269.139 91.183 270.191 94.062 269.219 94.268C267.735 94.5822 267.515 88.2178 267.639 87.1902Z" fill="black"/>
<path d="M275.095 68.5508C275.242 68.6375 275.726 69.7647 275.744 70.057C275.913 72.7992 272.507 73.5495 272.595 70.6168C272.646 68.9627 273.272 69.3893 274.185 68.9625C274.263 68.9257 274.376 68.1285 275.095 68.5508Z" fill="black"/>
<path d="M265.923 70.4969C266.814 70.4294 267.662 69.9885 268.371 70.7486C270.477 73.0044 264.799 74.8107 265.923 70.4969Z" fill="black"/>
<path d="M30.401 188.644C32.6293 188.575 35.4671 190.695 34.3427 193.106C34.1482 193.523 31.5694 195.187 31.1038 195.304C25.0725 196.824 22.8148 188.879 30.401 188.644ZM27.3202 191.166C26.0129 193.23 30.4152 194.816 30.9807 192.053C31.4001 190.003 27.4686 190.932 27.3202 191.166Z" fill="black"/>
<path d="M18.043 56.3191C14.5201 55.7415 15.1276 51.099 14.8545 48.5481C14.7919 47.9634 14.3688 47.4383 14.2779 46.5652C13.3738 37.8802 18.7812 30.5265 25.1139 25.1738C25.526 25.4728 25.5936 25.6446 25.5431 26.1489C25.4444 27.134 21.6811 30.8243 20.8115 31.9903C18.5184 35.0649 15.5576 41.3378 15.7589 45.1562C15.7928 45.7992 16.9947 46.3922 16.8475 47.0767C16.782 47.3816 16.2115 47.6199 16.0825 48.0221C15.3556 50.2884 18.5881 55.7532 18.043 56.3191Z" fill="black"/>
<path d="M223.2 226.238C221.443 227.7 213.641 226.404 214.568 223.591C215.054 222.114 217.782 224.184 218.53 224.454C219.736 224.888 221.8 225.078 222.702 225.457C223.102 225.625 223.285 225.786 223.2 226.238Z" fill="black"/>
<path d="M236.476 215.481C235.742 214.081 236.636 213.35 236.749 212.494C236.939 211.068 236.126 208.491 238.597 209.292C239.465 209.573 239.09 213.001 238.705 213.848C238.477 214.352 236.998 215.915 236.476 215.481Z" fill="black"/>
<path d="M211.044 220.541C210.922 220.728 209.888 220.906 209.559 220.821C208.478 220.543 207.772 218.562 207.651 217.574C207.475 216.135 207.261 214.845 209.057 215.627C209.962 216.022 211.498 219.841 211.044 220.541Z" fill="black"/>
<path d="M210.173 206.178C211.244 206.828 208.795 212.582 207.622 211.801C206.573 210.375 208.197 204.98 210.173 206.178Z" fill="black"/>
<path d="M235.216 221.894C233.923 223.162 231.172 224.217 231.571 221.43L232.141 221.993C232.647 221.222 235.189 218.297 236.202 219.004C236.962 219.812 235.845 221.278 235.216 221.894Z" fill="black"/>
</svg>
