<svg width="444" height="250" viewBox="0 0 444 250" fill="none" xmlns="http://www.w3.org/2000/svg">
<path d="M105.248 44.1945C105.836 44.1065 106.296 43.736 106.883 43.5539C111.016 42.273 120.418 42.3563 124.511 43.749C125.51 44.089 126.346 44.6618 127.34 44.9778C124.857 42.4005 121.75 40.0518 117.986 39.8867C118.037 39.586 118.366 39.5086 118.62 39.4356C121.847 38.5082 126.023 41.5389 128.436 43.4119C128.747 43.2384 128.369 42.97 128.258 42.8033C127.831 42.1592 126.545 40.8702 126.347 40.3749C126.244 40.1176 126.37 40.0334 126.633 40.0929C128.648 40.5478 132.69 44.9749 133.792 46.7575L134.9 48.8944C135.202 47.2951 135.286 45.1889 134.798 43.6145C134.708 43.3243 133.262 41.0436 134.375 41.4846C136.033 42.1414 137.239 46.253 137.094 47.9159L137.693 46.0494C137.167 44.202 137.97 43.044 138.548 45.4075C139.015 47.3166 138.322 49.0888 137.691 50.8539C138.646 50.0817 139.907 49.2995 140.374 48.1104C140.515 47.7506 140.692 46.1519 140.973 46.1585C142.188 47.7957 141.236 50.0206 140.078 51.4394C142.504 51.1501 145.621 51.0596 147.779 52.3824C148.23 52.659 149.286 53.4169 148.931 53.9898C147.042 53.2161 145.009 52.9671 142.965 53.0102L141.074 53.3973C144.593 54.3467 149.635 56.8223 149.93 60.8392C148.554 58.9488 146.839 57.69 144.651 56.8302C144.341 56.7085 143.763 56.3972 143.462 56.6294C145.686 58.8185 147.115 61.6394 149.039 64.0656C150.882 66.3891 153.095 68.4602 155.005 70.7279C155.191 70.9486 155.487 71.0454 155.402 71.4129C154.978 71.7994 152.246 69.6815 151.822 69.2601C152.864 71.4567 153.571 73.6488 153.124 76.1235C153.021 76.6925 152.723 77.5307 152.22 77.8747C152.447 74.1863 151.212 70.3919 148.638 67.6936C149.328 69.4834 149.917 71.3309 150.038 73.2648C150.19 75.68 149.803 80.2108 148.712 82.3569C148.535 82.7066 147.565 84.3292 147.043 83.9438C148.509 81.3444 148.44 77.9616 147.98 75.0935C147.943 74.8618 147.932 74.1441 147.643 74.1562C147.483 80.0251 144.405 84.9948 138.685 86.9798L143.199 88.2177C145.534 89.609 146.724 91.2264 146.444 94.028C146.36 94.8736 145.643 96.3223 145.707 96.9412C145.779 97.6424 147.018 99.2246 147.195 100.343C147.335 101.232 147.067 102.446 147.285 103.191C147.422 103.658 148.677 104.839 149.003 105.417C150.048 107.276 149.719 109.094 150.126 110.97C150.477 112.59 152.562 113.863 152.627 115.575C152.641 115.941 152.436 116.273 152.442 116.559C152.469 117.707 155.16 118.439 155.213 120.667C155.224 121.1 155.008 121.467 154.993 121.848C154.925 123.701 159.026 124.707 159.535 127.559C159.657 128.24 159.473 128.818 159.737 129.514C160.16 130.626 161.433 131.037 161.976 132.011C162.464 132.886 162.385 133.788 162.725 134.603C163.2 135.74 164.836 137.218 165.496 138.534C166.649 140.834 167.05 144.045 165.831 146.389C164.982 148.023 164.006 147.698 162.631 148.332C159.461 149.793 159.888 151.387 158.422 153.981C154.059 161.7 144.329 165.716 135.61 165.605L128.944 164.623C127.751 167.341 125.77 169.642 123.975 171.983C123.866 172.366 124.058 172.205 124.213 172.297C125.562 173.093 128.79 174.511 129.5 175.711C129.904 176.393 129.806 177.29 130.65 177.713C131.261 178.02 132.599 178.04 133.462 178.275C134.937 178.678 136.075 179.478 136.976 180.692C137.912 181.954 137.816 182.759 136.097 183.027C137.917 184.67 140.212 183.347 142.607 184.159C148.449 186.139 147.737 194.112 144.251 197.999C143.421 198.924 142.187 199.579 141.504 200.583C140.575 201.947 141.169 202.582 141.079 204.083C140.756 209.439 134.625 215.314 129.238 215.733C122.966 216.22 120.765 212.212 122.375 206.631C123.301 203.424 126.361 202.226 126.543 198.887C123.405 200.418 118.955 201.56 116.393 198.496C118.958 199.252 121.133 199.545 123.758 198.788C124.334 198.622 126.755 197.594 126.751 197.032C126.75 196.866 125.527 194.926 125.319 194.706C123.339 192.615 120.478 196.724 118.615 193.273C117.77 191.708 118.502 191.527 116.445 190.709C114.024 189.745 111.009 189.276 109.623 186.746L103.151 193.407C102.871 193.999 104.239 195.15 104.617 195.688C113.09 207.737 114.322 225.75 108.404 239.097C107.541 241.043 105.674 244.653 103.953 245.879C103.045 246.527 102.091 246.875 102.064 245.411C102.892 243.142 103.962 240.948 104.803 238.687C105.173 237.693 107.139 232.357 106.939 231.791C106.119 229.471 101.763 227.222 99.478 226.591C90.6835 224.163 79.8869 225.596 71.8764 229.79C70.8322 230.337 67.8567 232.025 67.1326 232.759C66.0767 233.831 64.916 239.983 64.6714 241.695C64.5549 242.511 64.7124 245.869 63.7436 246.072C63.4874 246.126 63.3895 245.93 63.2748 245.761C62.7849 245.035 63.1302 240.224 63.0622 238.921C62.9948 237.627 62.6192 236.23 62.6539 234.915C56.8098 237.791 49.514 240.052 42.9503 238.539C41.9145 238.3 41.0141 237.809 39.9669 237.658C40.57 239.781 41.1845 241.92 42.0031 243.975C42.423 245.028 43.7317 247.144 43.9075 247.982C44.1768 249.267 43.4421 249.25 42.671 248.409C39.6613 245.125 39.2749 239.981 37.6762 236.091C36.8039 233.969 35.0903 231.787 34.1924 229.629C33.7038 229.989 33.2557 230.857 33.4326 231.445C33.5521 231.843 35.0394 233.135 35.3597 233.671C35.873 234.53 35.9347 235.662 35.5979 236.589C35.4458 237.008 34.8763 237.536 34.8329 237.788C34.7923 238.024 35.3434 238.949 35.3917 239.518C35.4427 240.119 35.2373 242.632 34.7915 242.851C33.9777 243.251 32.2761 241.523 31.4694 241.023C27.3263 238.454 24.7605 239.209 22.9968 233.89C22.4356 232.197 21.6692 229.845 21.2733 228.145C19.9646 222.526 23.4034 219.287 25.5307 214.544C29.8587 204.895 29.9761 192.961 31.8693 182.597C32.7606 177.719 34.5852 172.06 34.9655 167.237C35.7716 157.016 32.6488 144.879 30.5511 134.819C28.448 124.732 23.81 111.436 29.3842 101.829L32.0047 98.045C29.4652 99.1387 24.6189 100.053 23.2467 96.9689C23.7374 97.131 23.9146 97.4895 24.4818 97.7118C26.8425 98.6371 30.5683 97.2725 32.2047 95.5005C30.1114 95.975 26.773 95.6797 25.8555 93.4232C25.5528 92.6785 25.4643 91.2684 26.33 92.1731C26.6297 92.4863 26.6985 93.0177 27.2225 93.449C29.5959 95.4026 32.468 92.2515 32.785 89.9012C33.0384 88.0226 32.5986 86.763 31.8077 85.1216C32.086 84.8277 33.6687 86.6634 33.6005 87.0772C33.923 87.1322 33.7989 86.8302 33.7537 86.6346C33.5667 85.8255 32.4291 83.3669 31.8202 82.8555C31.2844 82.4054 29.6423 82.009 28.8853 81.6309C23.2721 78.8268 22.0011 73.1414 23.8437 67.4989L21.4918 70.5668C19.8905 73.7881 19.9148 77.7449 21.8552 80.8109C20.5174 80.3292 19.7565 78.7163 19.4113 77.441C17.4541 70.21 22.7939 62.9276 28.8381 59.3882L32.8009 57.1219C29.2449 57.4227 25.2699 58.1133 21.9166 56.57C20.8561 56.082 19.3458 55.0857 19.469 53.7911C20.42 54.3146 21.1503 55.1079 22.1799 55.5278C25.3153 56.8065 29.4309 56.0755 32.6026 55.2594C36.5642 54.2401 40.981 52.8252 43.9464 49.9719C43.978 49.8262 43.7423 49.8399 43.652 49.8771C43.136 50.0893 42.2894 50.7244 41.6305 51.0222C38.6458 52.3709 35.3432 53.6071 32.0058 53.5972C32.078 53.9376 32.406 53.9862 32.704 54.0044C33.0776 54.0273 33.689 53.5748 33.5966 54.0825C31.9221 55.3504 26.0898 55.9945 24.7367 54.3828C23.9085 53.3963 25.7009 54.1206 26.1557 54.1612C26.8295 54.2214 28.1975 54.3751 28.6213 53.7931C25.7287 53.8368 22.9229 51.0338 22.2769 48.3832C22.0731 47.5472 21.952 44.6842 22.8502 44.2922C23.4503 44.0302 23.0525 45.0568 23.0516 45.2738C23.0319 49.8777 26.1156 51.8161 30.5048 52.0368C31.6596 52.0949 34.9093 51.8504 35.7874 51.1475C36.2396 50.7855 34.9628 50.3302 34.6935 50.0698C31.4911 46.9741 32.7382 41.1466 35.0279 37.8688C36.0977 36.3373 38.7747 34.1704 39.4104 32.9775C40.4333 31.0582 40.8429 26.8897 41.861 24.423C47.0489 11.8535 65.2752 5.82371 78.079 7.18997C82.2375 7.63372 88.8688 9.46548 91.9171 12.3733C92.5385 12.966 93.7475 15.2251 93.9008 15.3169C94.3028 15.5576 95.3875 15.3529 95.9688 15.4362C100.668 16.1096 106.755 20.2077 109.063 24.2882C113.118 31.4547 109.379 38.1387 105.248 44.1945ZM84.7467 10.5194C74.9096 6.86785 63.5337 8.72157 54.9022 14.3439C54.4587 14.7045 54.8037 14.7089 55.1116 14.5501C58.3174 12.8974 62.3382 11.0015 65.9617 10.5382C66.1729 10.5112 66.87 10.3545 66.834 10.7106C61.6259 12.5059 55.8304 14.9584 51.7066 18.6405C51.4282 18.8891 49.5082 20.6602 49.7211 20.895C57.7556 14.67 68.3616 9.43166 78.8746 9.93176C80.6335 10.0154 82.3729 10.4336 84.1061 10.6608C84.3223 10.6891 84.7917 10.8775 84.7467 10.5194ZM86.9371 13.8441C85.9156 13.0467 84.2299 12.6471 82.9587 12.3754C75.8689 10.86 68.4296 12.2381 62.0827 15.5339C57.6007 17.8613 53.3907 21.1399 50.2336 25.0236L49.9201 25.7903C51.8129 23.6899 54.1703 21.9621 56.6244 20.5416C59.6703 18.7785 63.951 16.765 67.3296 15.8007C68.1369 15.5702 72.3543 14.5048 72.8062 14.827C72.824 14.9467 72.701 15.0595 72.6084 15.1198C71.6199 15.7642 68.7632 16.5057 67.4392 17.0833C64.0592 18.5578 59.5464 20.888 56.6154 23.0784C56.431 23.2162 55.9896 23.4737 56.5817 23.4378C65.4504 19.0472 75.4747 15.3688 85.543 15.4105C85.5898 15.128 85.192 15.138 84.9867 15.0816C81.6092 14.1528 78.2029 14.6107 74.8888 14.2448C74.591 14.2119 74.2749 14.2041 74.1995 13.8479C78.442 13.0967 82.7267 12.7119 86.9371 13.8441ZM87.9314 17.5683C80.3667 17.2822 72.5093 19.6605 65.5885 22.5075C60.8057 24.475 55.9339 26.9905 52.5056 30.8795L62.5221 25.1692C64.6401 24.2381 66.6452 22.9564 68.8298 22.1719C69.8179 21.817 71.158 21.4619 72.2083 21.3837C68.8508 23.4933 65.4488 25.6136 62.6569 28.4347L62.9512 28.5295C69.1902 24.673 76.1167 20.7404 83.2518 18.7378C84.6735 18.3388 86.0201 18.2304 87.3788 17.901C87.5786 17.8526 87.9783 17.8454 87.9314 17.5683ZM108.034 30.5877C108.185 31.9829 108.034 33.8295 108.034 35.2871C108.034 35.4127 107.483 36.3008 108.032 36.3626C111.128 29.6 108.116 23.1263 101.871 19.6157C100.997 19.1245 99.6735 18.3828 98.6778 18.4475C102.595 20.4988 106.263 24.0709 107.493 28.3791C107.644 28.9105 107.982 30.1094 108.034 30.5877ZM90.1216 19.1348C84.4262 19.8514 78.9123 21.6076 73.7972 24.1218L68.0307 27.5507L81.7625 22.6594C79.1519 24.7251 76.0519 26.211 73.4034 28.1381C79.321 25.9779 85.5521 23.6104 90.1216 19.1348ZM49.7201 35.9705C58.8966 36.8047 67.7709 34.1468 76.2395 31.0282C80.5734 29.4322 90.4708 25.9203 92.3158 21.5852C92.5654 20.9986 92.7571 20.3695 92.707 19.7203C90.9881 21.6016 88.9838 23.045 86.7995 24.3821C76.7763 30.5178 65.2842 33.3835 53.776 35.558L49.7201 35.9705ZM105.445 30.0972C104.747 26.412 102.294 23.3646 99.257 21.2084C98.9667 21.0023 98.6568 20.6773 98.2819 20.7012C99.4161 21.7855 100.583 22.7987 101.55 24.0439L105.445 30.0972ZM53.5007 43.0216H50.6148C50.3061 43.0216 49.6842 44.2236 49.6086 44.5772C48.8025 48.3471 51.5512 52.4104 55.2913 53.2047C55.3299 51.0617 57.1846 51.0589 58.8731 50.8547C59.4767 51.4243 56.0567 51.8598 56.9124 53.4688C57.9348 55.3913 61.4058 53.0007 61.6607 53.2056C60.317 54.3189 61.1039 55.9858 61.7518 57.324C64.7134 63.4404 75.4932 69.9562 82.0092 71.6608C87.144 73.004 88.8928 70.6988 92.0153 67.1089C96.4776 61.9784 100.764 54.5199 99.4475 47.5526C97.2383 47.6133 94.9428 47.2153 93.109 45.9588C92.9264 46.1825 94.5472 49.5175 94.6105 50.257C94.7899 52.3517 92.5036 53.2008 90.7188 53.0059C91.2193 52.1277 93.3324 51.6081 93.5081 50.5502C93.668 49.587 91.9107 46.7799 91.736 45.2528C91.6287 44.3148 91.6091 42.6638 92.7089 42.4361C92.4807 42.8892 92.3522 43.4944 92.6913 43.9217C93.2058 44.5699 98.9798 46.065 99.477 45.5681C98.9211 44.1695 101.148 40.571 100.849 39.6285C100.766 39.3661 99.7859 38.9136 99.4742 38.8133C97.5102 38.1812 95.5067 38.9076 93.7052 39.6918C93.4817 39.49 94.6263 38.4612 94.8039 38.3272C96.4909 37.0535 99.2987 36.5605 101.066 37.9303C102.024 32.2639 98.8968 26.7653 95.1007 22.7518C94.923 22.5722 94.8495 22.5597 94.693 22.7729C94.4109 23.1573 94.1978 24.0102 93.8709 24.4858C90.7509 29.0254 84.5454 30.7297 79.7732 32.9383C82.8442 32.6744 87.6163 33.5652 88.1304 37.1463C87.3945 37.2537 87.1479 36.5266 86.6058 36.2006C85.0854 35.2867 82.851 34.5166 81.0736 34.3982C80.3634 34.3509 77.5325 34.71 77.3849 34.6007C76.9765 34.2984 78.0762 34.0374 77.9809 33.8204C71.6953 35.0299 66.7052 38.0397 64.152 44.0039C63.4127 45.7309 63.2483 47.691 62.3564 49.2865C61.5145 46.3775 62.6316 43.2223 64.049 40.6738C63.6881 40.3304 61.3323 42.9657 61.0676 43.3191C60.7468 43.7474 60.2552 44.386 60.0242 44.8393C59.8752 45.1314 59.8338 46.4502 59.4194 45.5193C58.8601 44.2628 60.4445 42.2594 60.2656 42.0426C57.0182 43.5027 55.7446 46.2861 58.0783 49.2855C55.6017 48.815 55.2503 45.8938 56.2869 44.0025C53.9381 44.4218 52.6732 45.7555 53.6988 48.1114C52.3068 47.6559 51.6745 45.4489 52.5009 44.2903L53.5007 43.0216ZM104.648 36.9503C105.417 34.1463 105.122 31.1235 104.062 28.4256C103.937 28.1069 103.842 27.665 103.458 27.5528C103.766 29.1472 104.263 30.7323 104.449 32.3521C104.616 33.8057 104.532 34.8566 104.444 36.26C104.43 36.473 104.316 37.0028 104.648 36.9503ZM52.9026 33.4289L46.3367 34.4039C47.9573 34.6338 49.8655 34.4762 51.4671 34.0697C51.8457 33.9736 52.7044 33.7715 52.9026 33.4289ZM65.0441 36.5618C61.6267 37.7986 58.1982 38.8024 54.5708 39.2771C51.0561 39.7371 49.0453 39.6186 45.5843 39.1577C45.3687 39.129 44.8983 38.9413 44.944 39.2987C51.7184 42.4125 59.346 41.1663 65.0441 36.5618ZM38.1756 43.7069C38.0357 42.8248 38.1756 41.3487 38.1756 40.3782C38.1756 40.2694 38.6672 39.695 38.178 39.6943C37.5465 41.4427 37.1591 43.5515 38.2079 45.2415C38.3645 45.4939 38.8286 46.0825 39.1725 46.0548C38.9883 45.3713 38.2789 44.359 38.1756 43.7069ZM39.3693 48.5066C37.087 47.7004 35.7101 45.4066 35.4147 43.0963L35.3917 40.8691C33.8805 44.1776 33.4929 48.5195 37.0519 50.642C37.3382 50.4778 39.4994 48.6694 39.3693 48.5066ZM111.617 44.3922H108.532C108.064 44.3922 105.624 45.2592 105.109 45.5282C104.965 45.6034 104.351 45.9304 104.553 46.1566C106.009 45.8099 107.036 46.437 108.38 45.4178L111.617 44.3922ZM121.965 47.136C117.015 45.3163 111.036 45.4154 106.641 48.5023C110.608 47.1012 114.678 46.7258 118.889 46.9296C119.669 46.9673 120.54 47.2019 121.329 47.2727C121.548 47.2925 122.005 47.5059 121.965 47.136ZM126.94 50.269C122.38 48.8435 117.649 48.1471 113.105 50.0663L111.22 51.0479C114.738 50.2297 118.645 49.9281 122.273 50.0626C123.517 50.1088 124.984 50.3938 126.239 50.4701C126.455 50.4833 126.994 50.5953 126.94 50.269ZM25.8378 67.8893C27.0604 66.1292 28.1479 64.6574 29.8369 63.308C33.185 60.6331 37.4487 59.2976 41.1652 57.222C43.1139 56.1336 45.8122 54.4968 46.3337 52.2247C43.3524 55.4625 38.8731 56.6419 35.0564 58.6526C31.0945 60.7398 27.2507 63.4976 25.8378 67.8893ZM108.63 52.2256C105.016 53.4054 104.665 57.1779 102.904 59.8075C102.064 61.063 100.9 62.1883 99.6789 63.092C99.6727 63.3003 102.03 63.9496 101.863 64.7554C99.5204 64.6734 94.3827 63.5861 94.9167 67.3837C95.0719 68.487 97.7491 71.4364 98.7908 71.5985C99.591 71.7231 100.478 71.4521 101.266 71.7067C100.538 72.66 98.1459 72.8699 97.1322 72.459C96.7245 72.2937 96.7645 71.6718 96.4928 71.3131C95.795 70.3917 94.5201 69.8759 94.0029 68.6761C90.0273 71.9072 91.5191 75.9658 92.0878 80.1512C92.3886 82.3655 91.6588 84.1294 94.0023 85.7085C94.8979 86.3119 98.5321 86.6449 99.9116 86.9438C106.466 88.3638 115.367 91.6417 119.877 84.7299C120.022 86.6313 120.726 88.6311 122.909 88.9894C124.146 89.1924 126.53 88.7664 128.045 88.8329C129.945 88.9163 131.54 89.4913 133.474 88.9036C136.066 88.1159 137.065 84.2944 135.208 82.3728C133.233 80.3293 129.633 81.1802 127.635 82.7687L127.538 82.185C125.927 82.1374 124.268 82.8978 123.16 84.046C122.563 84.3052 122.826 83.085 122.899 82.8066C123.421 80.8088 127.504 78.5249 129.097 76.374C130.189 74.9 131.566 72.6332 131.62 70.8274C130.165 72.981 128.394 75.0207 125.949 76.1133L127.573 73.6993C128.833 71.0655 130.482 68.3705 130.323 65.3448L129.167 68.6104C129.013 68.7379 128.26 70.4092 127.938 70.0423L128.731 60.4486C126.733 62.9808 126.319 66.1747 126.343 69.26C123.966 66.6668 125.145 62.086 126.639 59.2697L129.328 55.5534C126.889 56.6808 124.428 58.2386 122.884 60.4705C122.383 61.1937 122.108 61.9603 121.57 62.6025C121.778 62.0831 121.26 61.5572 121.264 61.2162C121.28 59.733 123.342 57.2973 124.449 56.3315L126.344 54.9679C124.036 55.4519 121.699 56.2809 119.715 57.5488C119.069 57.9616 118.513 58.6512 117.788 58.8812C117.079 58.1012 121.84 52.6998 123.358 53.0057C123.411 52.6742 122.878 52.7927 122.667 52.8142C120.545 53.0303 118.214 54.7964 117.106 56.5486C115.961 58.3608 115.878 60.4133 115.3 62.4058C113.159 59.6184 114.321 55.5985 116.791 53.4014C113.659 53.9449 110.774 55.1788 108.434 57.3156C108.921 54.7653 111.102 53.5015 113.208 52.3216C110.636 52.5056 107.93 53.8274 106.74 56.1428C106.438 55.4711 107.083 54.2814 107.47 53.7255C107.647 53.4704 108.854 52.4334 108.63 52.2256ZM56.2832 54.3802C55.9679 54.1256 55.942 54.4528 55.8429 54.6282C55.1434 55.866 55.4928 58.651 55.116 59.1596C55.0453 59.2549 53.6537 59.4274 53.112 59.7725C52.5087 60.1569 51.6383 61.2163 51.5238 61.9293C50.6289 67.4991 60.2277 66.9916 58.987 61.8052C58.5817 60.1107 56.4205 59.4489 56.3142 59.1506C55.9154 58.0319 57.2752 55.1814 56.2832 54.3802ZM133.308 66.713C134.547 63.8991 135.226 61.2259 134.312 58.1904C134.093 57.4613 133.636 56.3217 133.114 55.7492C132.957 58.4667 133.66 61.1559 133.508 63.8732C133.47 64.5428 133.234 65.3908 133.169 66.0874C133.149 66.3033 132.932 66.7528 133.308 66.713ZM140.672 72.3918C141.739 68.4903 139.704 64.1102 138.059 60.5744C137.468 59.3047 136.757 57.8074 135.9 56.7283C137.015 60.7717 136.217 64.9864 135.701 69.0633L136.785 66.7065C137.194 65.5833 137.137 64.2091 137.789 63.1939C138.337 63.1962 139.685 67.4351 139.935 68.1279L140.672 72.3918ZM46.7337 58.6883C46.077 58.8948 45.572 59.4229 44.946 59.7668C41.8413 61.4721 37.549 62.8014 35.196 65.4475C31.8222 69.2416 31.8932 74.0127 35.0916 77.8747L33.9445 74.8912C32.2743 69.8931 35.6664 65.3328 40.1657 63.3877C38.0692 66.4502 36.4421 69.5639 37.9464 73.3113C38.0758 73.6336 38.0931 74.0842 38.5729 73.9581C36.2607 67.3856 42.3419 62.5628 46.7337 58.6883ZM144.257 69.7496C144.391 68.6036 144.257 67.0395 144.257 65.8334C144.257 64.6195 142.619 61.0482 141.835 59.9928C141.704 59.8172 141.343 59.2385 141.071 59.3735C143.026 62.7347 143.816 66.5771 143.861 70.4339C144.072 70.5072 144.248 69.8282 144.257 69.7496ZM83.1557 73.9614C77.6649 73.3522 72.2041 69.8428 67.9356 66.5133C65.9442 64.9599 64.585 63.4811 62.8512 61.7251C62.662 61.5334 62.5905 61.3544 62.2589 61.4287C63.021 67.1172 63.714 73.1448 61.6606 78.6563C63.3449 79.1483 65.138 79.1389 66.8373 79.5383C68.0399 79.8209 69.8184 80.8563 70.7288 80.9965C73.7837 81.4672 74.9228 80.6793 78.189 82.2726C79.1309 82.732 80.575 84.0346 81.3203 84.2829C82.4534 84.6605 84.3112 84.5864 85.544 84.9228C83.4373 81.9767 82.1961 77.492 83.1557 73.9614ZM45.7385 76.1114C43.3703 73.7341 42.7043 70.0934 43.6927 66.9535C44.1397 65.5334 45.1221 64.33 45.7366 62.9942C43.0731 64.9855 41.3191 68.7068 42.2921 71.9655C42.773 73.5759 44.1092 75.4723 45.7385 76.1114ZM32.8017 80.8109C31.2013 79.6701 29.7903 78.5558 28.7883 76.8312C27.6115 74.8058 27.4822 72.852 27.644 70.5494L29.3198 66.1281C27.3284 68.1112 25.4943 71.3406 25.8877 74.2028C26.3351 77.4585 29.6541 80.2071 32.8017 80.8109ZM138.883 84.9229C142.51 84.0665 145.003 80.4279 145.25 76.8975L142.946 80.9911C141.786 82.499 140.401 83.7811 138.883 84.9229ZM68.4272 81.9853C68.0014 81.4982 66.8695 81.2883 66.2071 81.1373C62.5621 80.3066 55.8861 78.5861 52.4143 78.455C48.9085 78.3225 44.2119 80.42 41.7791 82.8895C38.4481 86.2707 42.0668 90.6386 45.3386 92.3655L43.5132 89.9534C42.7684 88.5902 42.5167 87.0762 42.8896 85.5485C42.9571 85.272 43.7458 83.5327 44.1454 83.9468C42.9654 86.1864 43.7125 88.2763 44.9779 90.2747C45.2182 90.6543 47.5091 93.542 47.9278 93.1469C45.1576 89.5587 45.3382 83.3926 50.1171 81.598C45.1585 85.9809 47.4566 93.7768 53.5006 95.6924C50.5094 92.2947 48.5002 85.6795 53.1006 82.771C52.7518 83.5952 52.29 84.2648 52.0484 85.1604C50.9167 89.3565 53.5804 95.9464 58.2763 96.8681L56.3222 94.1912C55.1115 92.1579 54.0392 88.4624 55.688 86.4913C55.4278 89.7718 56.7984 93.1074 59.2704 95.3027C57.8708 91.1999 58.715 86.3032 62.853 84.1416C63.0049 84.3013 61.6142 85.8508 61.4232 86.1596C59.4767 89.3074 59.258 93.8271 61.5745 96.8561C61.7451 97.0791 63.0204 98.4556 63.2529 98.2379C61.6851 95.6108 61.2315 91.9569 62.7486 89.2259C62.8452 89.0521 63.7753 87.5827 64.0481 87.8629C64.1832 88.0017 63.5977 88.7066 63.4931 88.9793C62.1134 92.577 63.4032 97.8684 66.6343 100.198C66.6681 99.4342 67.0527 98.2778 67.0219 97.5688C66.9898 96.8279 66.1769 95.22 65.9714 94.2927C65.5976 92.6058 65.448 91.3684 66.2741 89.7573C67.1053 88.1361 72.3722 83.8953 74.1473 83.6007C75.0017 83.459 75.9232 83.6061 76.7868 83.5522C76.7321 83.2129 76.3897 83.2124 76.1448 83.1089C72.3055 81.4863 68.0663 82.5398 64.8472 84.9247C64.4326 84.4943 67.7147 81.8431 68.4272 81.9853ZM92.9081 93.1508C96.5322 93.9621 97.988 98.0765 100.665 100.105C103.332 102.125 103.456 99.5933 102.754 97.4619C100.815 91.5732 93.0324 90.1415 87.88 88.2071C83.983 86.7441 80.5118 84.9668 76.0799 84.9176C73.274 84.8865 71.4567 86.5184 70.4657 88.9859C69.8794 90.4459 69.1861 93.5644 71.0691 94.3752C72.9228 95.1734 71.6092 92.1614 72.3087 92.1737C72.9461 92.1848 74.7386 97.5944 76.7859 97.0639C76.8034 96.4857 76.4832 95.9853 76.343 95.4452C76.2756 95.1853 75.9669 95.0704 76.4857 95.1085C79.8023 98.2226 80.5577 103.97 85.7424 104.899C86.1054 100.977 83.3046 97.0416 80.7683 94.2248C80.9112 93.9515 81.289 94.2164 81.4759 94.312C83.6 95.3989 86.4052 99.0242 87.4769 101.136C88.1926 102.546 88.7549 105.107 90.1305 105.964C91.2572 106.666 92.1337 106.125 92.4618 104.948C93.9686 99.5393 87.9982 94.5745 84.748 90.9968C88.4925 92.6134 92.4296 96.9968 93.8554 100.734C94.3427 102.012 94.5656 104.707 96.2374 105.058C98.4628 105.526 97.9177 101.44 97.5862 100.197C96.8434 97.4109 94.7548 95.2574 92.9081 93.1508ZM33.4009 92.9529C35.9714 91.3014 36.2876 87.7189 34.9886 85.1221L35.1388 89.084C35.0089 89.5962 34.8834 90.107 34.6898 90.6006C34.3498 91.4678 33.7037 92.1042 33.4009 92.9529ZM107.238 91.1935C107.095 91.0026 103.243 89.8822 102.66 89.7225C98.6292 88.6198 94.4502 88.1123 90.3217 87.4723L96.4256 89.786C99.5009 91.1326 102.615 93.35 103.89 96.5401C105.672 100.996 103.37 104.61 99.2788 100.59C99.6758 102.23 99.6056 104.01 98.6799 105.483C103.981 105.948 109.491 105.471 114.645 106.911C118.002 107.848 121.125 109.56 124.551 110.284C127.3 110.865 130.102 111.067 132.912 110.965L129.07 108.971C123.18 105.531 119.246 99.8043 113.807 95.7913C113.776 95.6434 113.999 95.6658 114.101 95.6972C118.977 97.2001 123.663 103.2 127.536 106.368C127.972 106.725 129.181 107.646 129.632 107.832C129.722 107.87 129.958 107.883 129.926 107.738C129.213 107.055 128.498 106.177 127.974 105.351C127.832 105.127 127.399 104.557 127.637 104.311C130.954 107.439 134.362 110.696 139.082 111.553C138.474 110.885 137.576 110.487 136.891 109.893C134.373 107.711 132.92 104.579 130.326 102.449C130.295 102.303 130.529 102.317 130.62 102.354C131.004 102.508 133.27 104.389 133.712 104.797C134.803 105.805 135.65 107.042 136.788 108.036C138.468 109.502 140.612 110.805 142.863 111.163C140.681 104.731 134.513 100.576 129.261 96.6439C129.077 96.5066 128.634 96.2479 129.226 96.2855C135.6 99.2167 142.038 103.814 144.06 110.772C146.451 109.971 148.071 106.338 146.05 104.506C146.157 104.8 145.656 105.973 145.255 105.68C145.138 105.595 144.311 103.607 143.984 103.11C138.598 94.9244 125.569 91.4097 116.195 90.9969L120.975 93.2425C123.924 94.8284 126.734 96.8786 128.533 99.7097L128.238 99.8047C123.143 95.087 116.338 91.9758 109.428 90.9969L116.177 94.6343L117.188 95.4016C116.918 95.6586 116.449 95.1046 116.071 94.9344C112.191 93.1892 108.217 92.2597 104.055 91.3843C104.181 91.0297 105.242 91.164 105.543 91.1941C105.98 91.2376 107.717 91.8346 107.238 91.1935ZM67.8326 92.5613C68.2316 92.4861 68.1581 92.1473 68.228 91.8754C68.4655 90.9519 68.434 89.9433 68.8238 89.0369C67.522 89.9211 67.5737 91.174 67.8326 92.5613ZM144.255 95.4976C145.221 92.4115 143.096 90.1151 140.078 89.6261C140.767 90.4171 142.111 90.8142 142.43 91.9117C142.744 92.9898 141.278 91.6121 140.933 91.4257C139.832 90.8296 137.977 90.1521 136.733 90.0577C136.369 90.0301 136.149 89.9587 135.899 90.3105C138.339 91.0153 140.546 92.4114 142.469 94.0271C142.77 94.2799 143.954 95.7075 144.255 95.4976ZM145.25 101.96C145.413 100.081 144.236 98.3517 143.057 96.9729C138.653 91.8223 132.016 90.944 125.55 90.6053C125.502 90.8793 125.885 90.8712 126.093 90.9464C128.831 91.9335 130.981 92.6126 133.643 93.899C135.184 94.6439 136.859 95.464 138.387 96.2802C141.044 97.6996 143.276 99.7426 145.25 101.96ZM72.011 95.6947C71.5397 95.6946 71.069 95.7468 70.6056 95.6071C70.0409 95.4369 69.8364 94.7254 69.2262 94.7158C68.444 97.2458 67.734 100.413 68.679 102.986C69.3497 104.812 71.5822 104.995 73.2024 105.485C71.6523 102.371 71.5466 99.0807 72.011 95.6947ZM44.1457 95.4999C37.3538 96.208 32.8113 98.3997 30.2647 104.849C28.1654 110.165 28.7397 115.116 29.68 120.598C31.669 132.194 35.1709 144.202 36.754 155.738C38.2559 166.682 35.5204 174.104 33.6559 184.551C31.93 194.221 31.5572 204.7 27.7203 213.761C26.4306 216.807 22.3557 222.973 22.4394 225.811C22.4624 226.591 22.7916 227.633 22.9974 228.406C23.3591 229.766 25.0536 235.247 25.7441 236.082C26.8238 237.388 30.31 238.472 31.8708 239.453C32.439 239.81 33.3344 240.801 33.7001 240.983C34.1176 241.191 33.9446 239.938 33.9162 239.808C33.7061 238.849 32.9137 237.212 31.9557 236.824C31.4955 236.638 31.0123 236.738 30.6078 236.584C29.6568 236.22 28.3484 235.49 27.9246 234.524C26.3851 231.015 27.4741 227.163 27.6282 223.559C28.529 223.597 28.7256 225.149 28.797 225.834C29.1018 228.76 27.2698 234.41 31.6062 235.111C31.9856 233.776 31.0352 232.729 31.2558 231.341C31.4419 230.169 32.5275 229.519 32.9796 228.53C34.1092 226.06 32.6144 223.819 32.0648 221.444C30.4906 214.641 30.8362 205.958 33.1961 199.372C35.8831 191.872 41.5073 185.895 44.4414 178.518C46.1549 174.21 47.2742 167.75 46.9411 163.142C46.7479 160.471 45.8817 160.825 44.9078 158.877C43.4427 155.946 43.7473 152.399 43.3488 149.25C42.8666 145.438 41.014 145.081 38.6703 142.495C34.201 137.564 32.3726 132.521 34.6439 125.997C35.0097 124.946 36.7371 122.066 36.7805 121.428C36.8148 120.923 35.3405 118.794 35.0477 117.863C34.892 117.368 34.0169 113.606 35.3865 114.493C35.484 114.556 35.8688 116.287 36.0339 116.697C36.3295 117.431 36.8941 118.71 37.334 119.327C37.4534 119.495 37.3001 119.692 37.7744 119.582C41.1301 111.923 42.632 103.673 44.1457 95.4999ZM62.6565 126.631C72.1605 126.666 80.6641 121.607 84.1012 112.779C84.5725 111.568 84.8675 110.313 85.3392 109.105C85.2048 108.882 85.0567 108.88 84.8392 108.822C83.5367 108.472 81.2023 108.041 79.8483 107.858C76.228 107.369 72.4704 107.82 69.1188 105.882C67.3723 104.872 67.6145 103.531 66.5349 102.55C65.8388 101.917 64.0339 101.031 63.1252 100.617C58.7395 98.6213 53.8 98.0038 49.3232 96.282C48.9709 98.2047 48.6075 100.143 48.3513 102.083C47.7148 106.904 46.7488 114.18 47.1246 118.905C47.6253 125.198 55.7908 126.491 60.9381 126.606C61.1793 126.526 61.6588 124.551 61.8882 124.017C62.8391 121.804 65.2555 118.706 67.6316 118.019C65.6297 120.659 63.1179 123.211 62.6565 126.631ZM73.0053 96.2817V100.883C73.0053 101.308 73.6865 103.404 73.9038 103.915C74.5733 105.491 75.5082 106.813 77.3801 105.779C75.7774 103.889 75.737 101.65 75.7819 99.3082C75.8021 98.2527 76.4196 98.2611 74.89 97.8543L73.0053 96.2817ZM88.1299 107.25C84.6461 106.498 81.9369 105.344 79.6894 102.531C78.6838 101.273 78.2486 99.9482 77.5425 98.5734C77.4366 98.3673 77.2854 98.075 77.0821 98.4324C76.3689 99.6868 77.7636 105.247 79.096 106.052C81.851 106.687 84.6753 107.136 87.493 107.387C87.7125 107.407 88.1704 107.619 88.1299 107.25ZM107.237 107.053C105.355 107.05 103.456 107.105 101.59 106.832C100.698 106.701 99.0289 106.055 98.3773 106.062C97.9044 106.067 97.6022 106.386 97.1768 106.453C95.648 106.693 94.9406 106.013 93.9053 105.093C93.9073 106.008 93.223 106.594 92.7095 107.245C96.997 108.406 101.396 107.54 105.743 107.441L107.237 107.053ZM96.192 207.501C97.601 207.42 99.1427 207.501 100.571 207.501C101.221 207.501 103.399 208.271 103.855 208.87C101.653 208.567 99.4004 208.697 97.189 208.874C81.3759 210.141 64.6953 214.2 48.839 210.423C44.3028 209.343 39.0908 207.535 37.0033 203.074L36.3863 201.432C36.7298 210.857 48.4525 212.601 55.9905 213.178C70.098 214.258 87.2341 208.994 100.279 211.9C100.722 211.999 103.532 212.844 103.655 212.987C103.686 213.024 103.643 213.255 103.654 213.376C101.255 213.045 98.807 212.927 96.3816 212.975C86.3688 213.174 76.5183 215.489 66.5394 215.924L65.0452 216.311C71.7941 216.367 78.503 216.078 85.2537 215.929C90.7902 215.807 97.9177 215.283 103.066 217.773C103.361 217.916 104.158 218.226 104.052 218.662C99.2357 217.483 94.1794 217.434 89.2166 217.478C77.5162 217.582 64.0983 219.92 52.6676 218.014C47.7078 217.187 42.9894 215.37 38.9736 212.397C38.753 212.634 40.4228 214.139 40.6694 214.349C53.6689 225.418 77.9898 217.133 94.1761 219.275C97.4031 219.702 101.172 220.429 103.854 222.286L98.9206 221.265C80.3318 217.414 62.0436 230.951 44.0117 222.809L41.161 221.21C43.3144 223.486 46.5853 225.072 49.6356 225.892C64.0368 229.761 77.9615 222.164 92.4093 223.559C97.8575 224.085 104.025 225.764 107.435 230.215C110.752 217.84 109.197 203.428 100.369 193.595C100.228 193.389 100.249 193.193 100.307 192.965C100.41 192.561 102.506 190.173 102.956 189.68C109.132 182.907 116.707 177.1 122.443 169.886C125.914 165.521 131.251 157.657 129.788 151.93C127.524 145.923 124.886 140.036 122.758 133.979C120.339 127.09 118.774 119.396 115.831 112.794C115.639 112.364 114.417 109.688 114.273 109.58C113.757 109.193 111.102 108.851 110.333 108.804C104.98 108.474 99.3798 109.74 93.7956 109.605C92.337 109.569 91.9747 108.733 91.7352 110.891C91.205 115.67 93.0204 121.272 96.5602 124.606C96.727 124.763 97.9416 125.791 98.0827 125.651C97.5114 124.75 95.5369 117.971 95.8944 117.624C95.9545 117.566 96.6681 117.586 96.7917 117.818C99.681 126.158 102.94 134.285 107.204 142.037C108.925 145.167 111.929 149.068 113.244 152.151C114.504 155.106 112.222 155.056 111.709 156.976C110.94 159.856 111.14 160.769 109.531 163.644C108.949 164.685 105.558 169.117 105.486 169.462C105.372 170.014 105.768 171.515 105.598 172.502C105.397 173.672 104.15 174.354 104.096 174.929C104.013 175.815 106.043 177.06 105.003 179.162C104.628 179.921 103.318 180.658 102.857 181.358C102.585 181.77 102.569 182.219 102.343 182.615C101.534 184.032 100.28 184.508 98.6813 184.004C98.5683 185.599 98.2005 187.212 98.0847 188.804C97.9095 191.212 98.8214 194.913 95.8377 195.993C93.9087 196.691 93.3204 195.874 91.5989 195.572C91.1629 195.496 88.3863 195.181 88.1304 195.248C87.0809 195.522 85.4977 197.054 84.2862 197.355L79.1762 199.275C81.0365 198.968 82.9106 198.616 84.7501 198.203C86.582 197.791 92.1523 195.997 93.5774 196.368C93.8622 196.442 93.9441 196.577 93.7093 196.834C93.2109 197.381 90.8001 198.485 89.994 198.858C78.8317 204.025 64.9888 205.318 52.8619 203.333C48.7242 202.655 43.9603 201.537 40.5658 199.082C40.2126 199.459 42.876 201.578 43.2458 201.828C50.7341 206.882 66.1697 206.512 74.8692 205.125C83.3328 203.776 91.3357 199.504 99.874 198.3C99.8195 198.643 99.474 198.638 99.2313 198.743C94.6907 200.707 90.2293 201.928 85.6402 203.582C85.3392 203.69 84.6441 203.853 84.5499 204.171C86.5932 203.884 88.6036 203.319 90.6463 203.025C93.9329 202.551 98.4889 202.067 101.709 202.857C102.048 202.94 102.545 202.994 102.66 203.388C93.3373 203.99 84.3313 206.556 75.0668 207.669C71.2096 208.133 67.3375 208.363 63.453 208.483C63.4065 208.824 63.9047 208.667 64.1466 208.676C67.642 208.817 71.8021 208.832 75.2921 208.674C81.99 208.372 88.6946 207.014 95.3876 206.71C97.983 206.592 97.9505 207.092 95.4969 207.504C95.4994 207.982 96.066 207.509 96.192 207.501ZM146.248 113.908C146.323 113.833 147.37 113.491 147.741 113.122C149.014 111.851 148.18 110.812 147.837 109.401C147.035 110.125 145.211 112.103 144.225 112.404C142.724 112.863 141.297 112.317 139.88 111.948L141.537 112.958L141.868 113.512C141.216 114.073 135.768 112.368 134.593 112.332C133.976 112.313 133.448 112.542 132.823 112.543C130.652 112.548 128.5 112.563 126.346 112.34L131.236 113.889L145.053 117.04L144.541 117.43C137.063 116.979 129.608 115.704 122.565 113.217L120.574 112.239C123.4 115.883 127.647 117.608 132.114 118.508C136.018 119.296 142.67 119.477 145.653 122.224C145.897 122.449 145.966 122.613 145.555 122.517C144.949 122.374 144.193 121.965 143.504 121.792C140.221 120.973 137.131 120.996 133.836 120.534C132.335 120.324 130.869 119.833 129.375 119.635C129.159 119.607 128.689 119.419 128.735 119.776L149.232 129.567C144.367 128.477 139.535 126.681 134.968 124.708C130.473 122.766 126.038 120.558 122.264 117.43C122.116 117.399 122.128 117.635 122.167 117.72C122.239 117.879 124.145 120.037 124.451 120.369C126.854 122.981 130.245 125.729 133.376 127.449C143.64 133.087 153.969 131.919 162.471 141.707L164.357 144.254C165.736 136.266 156.057 131.822 150.03 128.979C149.984 128.615 150.43 128.835 150.636 128.873C153.855 129.464 157.429 131.247 160.081 133.093C160.229 133.124 160.214 132.893 160.177 132.803C159.888 132.108 158.628 131.166 158.184 130.259C157.6 129.065 158.039 128.2 156.782 127.331C156.247 126.96 155.114 126.542 154.46 126.286C153.513 125.915 148.107 124.37 147.84 124.084C147.823 124.065 147.765 123.67 147.942 123.692L149.728 123.893L155.203 124.969C153.959 123.873 152.883 122.69 151.423 121.834C151.916 121.459 152.951 122.32 153.186 121.608C154.144 118.708 147.748 117.863 146.05 117.035C146.002 116.694 146.503 116.851 146.743 116.842C148.185 116.787 149.429 116.914 150.825 117.231C150.433 116.392 150.842 115.714 150.318 114.893C150.188 114.688 149.056 113.574 148.893 113.534C148.458 113.424 148.202 113.897 147.843 114.006C147.649 114.065 145.607 114.551 146.248 113.908ZM70.2201 127.805C76.9348 127.055 84.7556 122.863 85.144 115.472L84.3848 117.17C82.296 121.21 78.8974 124.392 74.6687 126.213L70.2201 127.805ZM45.1415 119.681C45.0046 118.485 45.2416 117.084 45.1415 115.863L44.5474 118.508C44.1631 124.908 49.3846 128.058 55.2919 128.197C55.2293 127.837 54.8824 127.868 54.622 127.781C50.2492 126.312 45.7699 125.17 45.1415 119.681ZM136.295 130.551C131.132 128.755 126.661 125.457 122.963 121.541C123.142 122.079 123.504 122.673 123.795 123.168C125.385 125.867 127.351 128.598 129.465 130.923C130.061 131.232 131.654 130.761 132.407 130.736C133.468 130.7 134.539 130.783 135.601 130.744C135.841 130.735 136.342 130.891 136.295 130.551ZM156.595 142.884C153.905 137.133 146.105 133.793 139.975 133.293C139.711 133.271 138.743 133.125 138.685 133.483C141.76 133.97 145.222 135.983 147.126 138.397C147.349 138.68 147.956 139.395 147.738 139.753C141.765 134.835 133.695 133.962 126.147 134.271L131.87 135.784C133.022 136.071 137.277 137.917 137.687 138.873C137.846 139.243 137.559 139.189 137.294 139.064C133.648 137.339 130.04 136.614 126.048 136.028L125.948 136.419C126.682 136.68 127.223 137.335 127.875 137.756C130.804 139.648 134.258 140.615 136.096 143.962L135.802 144.057L126.944 139.164C127.628 140.757 128.169 142.999 129.021 144.462C129.603 145.461 131.956 147.159 132.907 148.275C134.189 149.781 135.103 151.521 135.998 153.261C136.015 152.05 135.648 150.86 135.198 149.741C134.584 148.213 133.262 146.807 132.716 145.525C132.666 145.409 132.68 145.193 132.812 145.235C135.644 147.018 138.39 149.315 139.982 152.28C140.463 153.177 140.747 154.108 141.173 155.024C141.792 151.834 139.734 149.115 138.087 146.607C138.47 146.289 141.04 148.486 141.372 148.954C141.522 148.984 141.5 148.765 141.468 148.665C140.599 145.937 137.641 143.683 135.898 141.612C135.712 141.391 135.415 141.295 135.501 140.927C138.856 142.248 142.051 144.948 144.02 147.915C144.991 149.378 146.057 151.302 146.049 153.066C146.522 153.095 146.4 153.129 146.445 152.774C147.215 146.747 143.637 142.984 139.68 138.97C143.235 140.397 146.39 142.841 148.935 145.625C149.229 145.475 148.893 145.152 148.794 144.98C147.749 143.16 146.299 141.65 144.854 140.145C149.772 141.089 153.972 145.991 154.21 150.912C154.519 150.918 154.542 150.233 154.578 150.006C155.122 146.612 153.475 143.421 151.416 140.834L147.642 137.011C151.229 137.834 154.248 140.192 156.595 142.884ZM103.822 139.784C98.7515 138.63 93.3851 139.554 90.559 144.196C89.5806 145.803 89.4996 147.011 88.8824 148.616C88.5208 149.557 87.7015 150.431 87.4718 151.341C87.1165 152.747 87.5435 154.22 87.2473 155.623C86.8606 157.456 84.0845 160.858 84.8991 162.808C85.3795 163.957 87.8838 165.115 89.1265 165.205C88.2032 163.889 86.3915 160.961 87.0852 159.379C87.2072 159.101 87.134 159.084 87.5334 159.136C87.6329 160.865 88.9701 162.832 90.0383 164.212C92.0162 166.766 93.6778 167.21 96.2747 168.846C97.8724 169.852 99.4744 170.909 100.971 172.058L101.266 171.963L97.0877 167.558L103.455 171.472C104.017 170.942 102.539 166.597 102.212 165.746C100.472 161.22 97.4301 158.06 94.1023 154.635L98.1485 157.016C100.253 158.782 102.531 160.701 103.892 163.114C104.218 163.694 104.35 164.381 104.632 164.929C104.739 165.135 104.53 165.298 105.046 165.206C107.419 160.988 103.897 156.72 101.073 153.747C99.2709 151.848 97.1422 150.295 95.0984 148.66C95.6921 148.688 96.5307 149.02 97.0846 149.251C100.789 150.798 103.644 153.591 106.905 155.059C107.636 155.388 108.402 155.721 109.227 155.611C108.83 153.607 106.856 151.865 105.353 150.516C103.718 149.048 101.733 147.585 99.8756 146.406C99.8392 146.029 100.491 146.247 100.683 146.298C103.578 147.082 106.903 149.156 109.13 151.107C109.429 150.954 109.072 150.635 108.996 150.456C107.007 145.79 101.118 142.749 96.0935 142.882C96.0471 142.599 96.4445 142.611 96.6499 142.554C99.8126 141.666 103.742 142.983 106.44 144.647L103.822 139.784ZM55.0928 162.659L51.5651 160.943C47.5154 158.489 47.1841 155.066 45.994 150.955C45.8822 150.569 45.7005 149.746 45.3426 149.543C45.5618 152.225 45.3785 155.078 46.3835 157.621C47.7328 161.035 51.7042 162.198 55.0928 162.659ZM140.675 161.095H143.959C144.886 161.095 147.801 159.828 148.618 159.217C149.685 158.421 150.872 157.02 151.42 155.808C149.243 157.959 146.895 159.629 143.857 160.408L140.675 161.095ZM50.2549 163.31C49.8578 162.98 48.991 162.798 48.527 162.465C48.8473 166.849 48.484 171.776 47.2742 176.018C46.6737 178.124 45.8365 178.87 46.226 181.273C46.9737 185.887 52.6561 188.41 56.883 188.899C56.9846 188.345 56.7498 188.577 56.4467 188.458C53.4122 187.271 48.8214 185.396 48.1748 181.706C47.8702 179.968 48.892 178.977 49.4198 177.346C49.9567 175.686 50.3018 173.793 50.5162 172.061C50.8191 171.98 50.8471 172.139 51.0153 172.253C52.3435 173.153 53.5395 174.966 55.2918 175.387C52.9749 173.137 50.807 170.362 50.9143 166.97C51.304 166.574 52.752 168.357 53.1002 168.636C54.433 169.702 55.9951 170.65 57.6801 171.079C56.2026 169.913 54.686 168.955 53.3983 167.559C52.4284 166.508 51.0648 163.984 50.2549 163.31ZM85.743 165.6C85.1947 165.627 84.6128 165.536 84.0689 165.616C81.2518 166.026 77.6506 172.186 82.1596 172.646C82.0916 171.998 81.5221 171.607 81.4069 170.935C81.0488 168.844 84.2101 166.63 85.743 165.6ZM102.066 179.5C103.872 178.795 103.426 177.131 102.457 175.883C99.9858 172.701 93.252 168.039 89.3772 166.82C87.818 166.33 87.0724 166.154 85.6445 167.166C85.0982 167.553 82.1628 170.32 82.9771 170.867C83.1353 170.973 86.1411 171.206 86.779 171.335C92.1275 172.412 95.2359 175.011 97.9178 179.565C98.4307 180.436 99.0975 183.103 100.386 182.256C102.336 180.973 99.5566 178.062 98.5831 176.952C95.6822 173.646 91.9006 171.151 87.9334 169.22C88.3933 169.004 89.0575 169.292 89.5225 169.419C93.8084 170.587 98.2424 174.544 101.062 177.842C101.459 178.306 101.965 178.906 102.066 179.5ZM93.9012 179.109C93.1141 176.21 90.5213 173.729 87.3363 173.824L90.5061 175.696C91.8804 176.673 92.84 177.838 93.9012 179.109ZM90.1685 181.412C90.6393 181.873 91.7202 181.691 92.0076 181.063C92.7294 179.486 89.9046 177.055 88.6626 176.335C86.9218 175.325 85.349 175.036 83.3557 175.391L85.8843 175.935C87.2907 176.594 89.1615 177.507 89.6311 179.102C89.8011 179.679 89.7304 180.983 90.1685 181.412ZM82.7615 182.045C82.7372 182.024 82.7084 181.716 82.5644 181.561C80.5884 179.43 79.3194 177.401 76.4594 176.2C74.0261 175.179 70.5341 174.785 68.4233 176.657C67.7709 177.236 66.9952 177.945 68.0282 178.426C69.4247 179.076 71.4807 179.436 73.0765 180.116C77.7311 182.099 82.4123 185.978 87.2257 187.342C88.1351 187.6 88.8707 187.835 88.5845 186.612C86.9549 184.467 85.8282 181.84 84.2287 179.718C83.1786 178.324 81.8444 176.786 79.9723 176.856C81.4566 178.29 82.5865 179.968 83.1531 181.951C83.1802 182.116 82.7839 182.064 82.7615 182.045ZM88.5274 183.612C88.2175 181.888 88.0146 180.092 87.5392 178.419C86.4899 177.081 84.9463 176.95 83.3548 176.761L86.0199 179.718L88.5274 183.612ZM130.325 179.111C129.524 179.106 128.647 178.186 127.933 178.403C127.504 178.534 126.301 179.781 125.729 180.168C124.805 180.793 123.758 181.254 122.759 181.749L119.579 182.827C123.432 182.588 127.225 181.305 130.325 179.111ZM66.6382 179.109C65.5572 182.53 68.5878 182.295 70.8872 183.249C76.0699 185.399 79.9693 188.987 85.8115 190.497C86.1178 190.576 87.5118 190.9 87.6395 190.673C87.6529 190.179 88.1217 189.097 87.7365 188.801C87.3815 188.529 85.5189 188.121 84.894 187.875C80.3431 186.084 77.173 183.579 73.011 181.551C70.9681 180.556 68.7372 179.965 66.6382 179.109ZM119.778 185.569C124.97 185.589 130.314 184.243 134.501 181.165C132.6 178.611 130.785 181.043 128.867 182.08C127.827 182.642 126.749 183.136 125.683 183.647L119.778 185.569ZM54.2957 192.035C50.7438 191.5 46.7418 189.203 45.3692 185.836L44.5434 182.534C41.6771 187.577 48.4641 191.624 52.8248 192.208C53.1181 192.247 54.1772 192.402 54.2957 192.035ZM129.529 185.96C130.069 185.842 132.248 185.906 132.103 185.107C131.897 183.979 129.824 185.393 129.529 185.96ZM135.5 185.573C132.929 185.226 130.914 187.078 129.427 188.897C128.162 190.445 127.124 192.773 127.341 194.773C127.907 194.874 127.666 194.636 127.788 194.343C128.418 192.823 129.104 191.246 130.522 190.27L130.721 191.052L135.5 185.573ZM136.893 195.749C139.195 196.858 140.178 199.593 142.745 196.909C146.168 193.33 145.907 185.05 139.185 185.574C135.871 185.833 133.795 189.258 133.41 192.23C133.465 191.671 136.156 188.941 136.494 189.292L134.905 194.483L135.298 194.577C136.777 191.907 138.669 187.682 142.266 187.726C142.309 188.334 141.547 188.383 141.172 188.703C138.92 190.621 138.072 193.153 136.893 195.749ZM89.3312 189.101C89.3632 190.027 88.4952 192.295 89.3352 192.905C89.6171 193.109 93.6741 194.146 94.2037 194.185C96.1394 194.327 97.2312 192.485 95.6827 191.359C94.9627 190.835 92.1776 189.787 91.2189 189.484C90.6022 189.29 90.0098 189.002 89.3312 189.101ZM76.7859 198.692C69.5862 199.675 62.2616 199.901 55.0882 198.597C51.8098 198.001 47.9534 196.992 45.0807 195.323C43.4534 194.378 42.4135 193.375 41.362 191.837C42.6071 197.064 48.5701 198.75 53.2969 199.576C59.8799 200.726 66.6531 200.778 73.2409 199.607L76.7859 198.692ZM87.1362 194.38C86.8654 194.131 85.7239 193 85.4811 193.037C85.1336 193.089 83.161 194.537 82.4094 194.529L75.9917 196.534C79.7992 196.28 83.3941 194.789 87.1362 194.38ZM138.483 198.69C138.813 198.348 136.791 196.905 136.297 197.126L138.483 198.69ZM133.111 198.691C131.03 198.831 129.181 200.161 128.337 202.019C129.237 201.378 130.099 200.66 131.056 200.095C131.714 199.706 133.007 199.647 133.111 198.691ZM139.08 203.389C139.454 201.012 136.93 200.006 135.303 198.886L134.904 200.645C136.682 200.874 137.803 202.329 139.08 203.389ZM130.922 204.956C129.663 206.1 127.502 207.305 126.143 208.576C125.001 209.643 124.271 210.35 125.111 211.946C126.209 214.034 129.028 213.632 130.924 213.08C130.916 212.671 128.618 211.515 128.134 211.126C127.841 210.891 126.044 209.187 126.346 208.873L131.859 212.567C132.577 212.747 133.787 211.393 134.503 211.219L130.433 208.668C129.905 208.104 128.953 207.825 128.934 206.914C131.037 207.995 133.116 209.164 134.803 210.827L136.693 208.969C134.937 208.277 133.294 207.11 131.826 205.927C131.512 205.674 130.871 205.376 130.922 204.956C133.336 205.332 135.146 207.074 136.986 208.481C137.224 208.096 138.277 207.134 138.003 206.715C137.82 206.434 135.884 205.699 135.517 205.233L132.914 202.803C135.075 203.176 136.738 204.824 138.386 206.127C138.663 206.129 139.169 204.06 139.084 203.978C137.923 204.324 135.031 201.023 134.402 201.076C133.42 202.25 132.324 203.316 131.207 204.364C130.992 204.565 130.953 204.928 130.922 204.956ZM64.8442 229.434C58.959 231.691 52.6141 233.116 46.2602 232.346L41.958 231.291C47.9295 235.199 55.6405 233.814 61.7948 231.033L64.8442 229.434ZM34.1926 236.481C34.7774 235.1 33.7421 233.731 32.8038 232.761C33.1779 234.26 32.5267 235.637 34.1926 236.481Z" fill="black"/>
<path d="M165.751 155.417C166.212 155.875 164.453 159.502 164.067 160.122C162.406 162.793 159.006 165.498 155.69 165.604C155.184 165.621 153.468 165.346 154.484 164.989C155.624 164.589 156.849 164.57 158.065 164.007C160.188 163.026 162.266 160.892 163.447 158.925C163.835 158.279 164.806 155.845 165.059 155.616C165.248 155.445 165.625 155.292 165.751 155.417Z" fill="black"/>
<path d="M170.907 154.067C171.182 154.494 170.774 157.096 170.63 157.766C169.955 160.925 167.687 164.908 164.359 165.79C166.47 163.279 168.404 161.27 169.278 158.002C169.48 157.248 169.821 153.962 170.424 153.895C170.45 153.892 170.894 154.045 170.907 154.067Z" fill="black"/>
<path d="M146.248 204.953L148.541 203.394C150.653 201.454 152.02 198.847 151.919 195.949C153.247 196.962 152.857 198.561 152.372 199.918C151.467 202.451 149.166 205.008 146.248 204.953Z" fill="black"/>
<path d="M151.024 208.283C153.034 206.722 154.501 205.167 155.499 202.799C155.843 201.982 156.008 200.811 156.351 200.113C156.655 199.494 157.173 199.927 157.211 200.548C157.372 203.2 154.12 208.345 151.024 208.283Z" fill="black"/>
<path d="M130.722 219.839C130.774 220.122 130.346 220.092 130.132 220.134C126.9 220.78 121.999 219.81 120.973 216.312C123.693 218.532 127.18 219.788 130.722 219.839Z" fill="black"/>
<path d="M116.99 207.889C115.031 208.015 113.136 204.916 113.022 203.263C112.955 202.296 113.423 202.075 113.904 202.997C114.8 204.715 115.519 206.517 116.99 207.889Z" fill="black"/>
<path d="M157.094 170.104C158.472 169.96 159.939 169.283 161.271 168.926C161.419 169.052 160.689 169.649 160.649 169.677C159.084 170.78 157.059 171.182 155.152 170.84C154.76 170.77 154.131 170.615 154.208 170.104C155.138 170.035 156.181 170.199 157.094 170.104Z" fill="black"/>
<path d="M93.9037 58.0985C94.075 59.4171 92.4933 59.8208 91.42 59.8692C89.8502 59.9398 88.0202 59.1477 86.4164 58.9037C84.1992 58.5663 78.6525 58.531 77.4877 56.1354C76.6519 54.4163 79.0935 56.1184 79.6696 56.3384C82.2694 57.3313 84.4563 56.669 87.0343 56.9252C88.3977 57.0607 90.1486 57.908 91.6303 58.082C92.3721 58.1691 93.1576 58.0535 93.9037 58.0985Z" fill="black"/>
<path d="M85.3444 44.0003C83.6109 43.5544 81.9707 44.2467 80.264 44.2068C78.1189 44.1567 74.4861 42.9167 73.4292 40.9405C72.2891 38.8088 74.6576 40.6482 75.3958 40.9636C78.1803 42.1534 79.7795 42.026 82.6502 42.0339C84.1899 42.0381 85.4858 42.0827 85.3444 44.0003Z" fill="black"/>
<path d="M90.3209 62.0167C90.4752 62.7086 89.7115 62.9813 89.1732 63.1377C86.5804 63.8909 82.7176 62.5852 81.5635 60.0586C83.2115 60.4777 84.5713 61.4527 86.291 61.7693C87.6263 62.0152 88.9915 61.8045 90.3209 62.0167Z" fill="black"/>
<path d="M90.3198 51.4414C89.8403 51.4501 89.3524 51.3949 88.8753 51.4891C88.0704 51.6479 87.1314 52.6079 86.5407 51.9222C86.2811 50.8347 90.1099 49.89 90.3198 51.4414Z" fill="black"/>
<path d="M84.7459 41.8478C84.129 41.4575 84.0173 40.5649 83.5568 40.0397C82.6494 39.0049 81.5938 38.8852 80.366 38.6181C80.1471 38.5705 79.7229 38.6148 79.7731 38.3253C82.2578 38.2885 84.4421 39.1707 84.7459 41.8478Z" fill="black"/>
<path d="M107.038 78.657C106.896 77.8307 106.181 77.3349 105.929 76.519C105.847 76.2555 105.645 75.8367 106.141 75.9183C107.711 77.2668 110.076 79.6523 107.638 81.3992C107.914 80.6095 107.822 80.0378 107.634 79.2457C103.688 80.5087 99.7851 79.6669 96.6873 76.996C95.3383 75.8329 93.2947 73.4017 94.8965 71.8047C95.3393 77.0832 102.372 79.5766 107.038 78.657Z" fill="black"/>
<path d="M132.514 86.8819C133.345 86.1948 133.165 84.3164 132.179 83.9827C131.228 83.6611 131.64 84.302 131.428 84.9327C130.94 86.3892 128.723 87.0036 127.338 86.6863C127.359 84.0308 129.618 82.1728 132.321 82.864C134.223 83.3505 134.583 86.278 132.514 86.8819Z" fill="black"/>
<path d="M120.572 74.7446C120.387 75.9373 118.651 75.8119 117.709 75.7008C115.62 75.4545 113.606 73.5785 113.425 71.4872C113.311 70.175 113.724 70.3072 114.583 70.9447C116.413 72.3039 117.85 74.8355 120.572 74.7446Z" fill="black"/>
<path d="M105.448 63.3869C107.053 63.2573 108.128 64.7448 109.363 65.5047C109.785 65.7641 111.816 66.5336 111.812 66.8123C109.136 68.6297 105.947 66.1935 105.448 63.3869Z" fill="black"/>
<path d="M118.185 64.9483C118.382 64.3199 119.916 64.6977 120.378 64.8486C122.729 65.6175 124.904 69.5569 123.061 71.6042C122.538 70.5433 122.607 69.3463 122.12 68.2255C121.419 66.6106 119.975 65.2634 118.185 64.9483Z" fill="black"/>
<path d="M111.615 60.8388C110.561 60.0153 109.269 59.7563 107.935 59.8608C107.495 59.563 108.439 59.1368 108.74 59.0874C110.078 58.8683 111.654 59.317 111.615 60.8388Z" fill="black"/>
<path d="M118.78 106.66C115.003 103.443 111.222 100.595 108.153 96.6553C108.017 96.4807 107.494 95.8534 107.638 95.6953C111.904 98.5242 116.636 101.927 118.78 106.66Z" fill="black"/>
<path d="M110.422 105.679C108.584 105.38 106.847 103.737 105.447 102.55C106.43 102.636 106.163 102.575 106.341 101.766C107.599 103.198 109.417 104.043 110.422 105.679Z" fill="black"/>
<path d="M100.47 166.969L97.0849 164.33C94.5759 162.063 92.4349 159.565 90.8141 156.597C90.1358 155.354 89.3385 153.927 89.3276 152.48C89.8385 152.913 90.0562 153.662 90.439 154.224C93.5392 158.779 98.3981 161.853 100.47 166.969Z" fill="black"/>
<path d="M56.6363 60.4952C58.057 61.886 54.7451 62.7258 54.3247 61.2914C53.9845 60.1304 56.1129 59.9828 56.6363 60.4952Z" fill="black"/>
</svg>
