<svg width="1280" height="720" viewBox="0 0 1280 720" fill="none" xmlns="http://www.w3.org/2000/svg">
<path d="M439.225 655.827C438.7 653.83 440.809 654.069 442.139 653.796C447.569 652.68 453.13 653.268 458.507 652.048C458.647 651.863 456.201 648.473 455.864 648.233C451.944 645.443 436.474 649.97 431.025 650.456C430.162 650.532 428.257 651.155 428.433 649.804C433.834 645.908 450.467 646.351 454.315 643.056C455.256 642.25 455.959 639.76 455.419 639.242C454.932 638.774 443.787 640.477 441.828 640.657C440.967 640.736 439.053 641.347 439.231 640.002C443.146 638.264 453.091 639.211 456.182 637.341C457.645 636.456 459.11 631.125 460.051 629.443L429.848 639.496C411.796 643.188 393.448 642.468 375.21 640.739L379.831 639.619C372.494 635.955 367.126 631.63 358.242 633.198L365.162 630.572C352.719 614.343 367.019 599.957 381.631 592.36C388.118 588.987 395.62 587.058 401.968 583.588C404.252 582.34 406.04 579.864 408.614 578.775C413.175 576.845 418.984 577.023 423.835 574.804C428.819 572.524 432.445 567.952 436.908 564.963C432.111 563.745 426.767 564.378 421.965 563.744C415.186 562.849 400.33 559.564 394.475 556.686C382.343 550.72 388.146 547.46 390.575 537.765C397.91 508.491 381.624 478.543 374.657 450.891C370.836 435.725 374.824 424.097 388.854 416.193C397.492 411.326 411.061 407.256 420.706 410.768L417.016 385.51C420.236 379.707 417.417 372.805 418.765 367.764C419.936 363.385 428.284 353.661 431.88 350.428C440.87 342.345 447.131 344.629 453.241 332.101C454.893 328.712 455.886 324.579 457.602 321.283C459.231 318.154 463.785 313.384 464.383 310.509C465.147 306.833 462.861 301.514 464.26 296.877C465.713 292.058 472.344 290.945 473.586 287.148C474.642 283.923 473.073 282.337 473.163 279.944C473.527 270.252 474.369 262.523 480.558 254.75C483.734 250.761 488.686 246.201 493.994 245.63L491.726 236.16C480.694 236.106 473.988 236.106 464.443 230.408C449.191 221.304 437.388 203.081 443.488 185.334C444.47 182.477 449.804 175.421 449.918 174.25C450.023 173.168 445.64 169.154 444.806 167.417C441.095 159.689 443.45 150.431 446.931 143.088C446.173 142.193 437.974 151.207 437.333 152.171C435.56 154.835 435.853 158.686 433.063 160.431C432.164 149.194 438.901 142.488 444.174 133.976C449.722 125.019 454.18 114.598 463.901 109.147C463.915 107.606 460.817 108.513 460.03 108.76C457.746 109.478 453.27 112.295 451.313 113.81C447.128 117.05 442.327 125.587 437.306 126.512C436.244 126.707 435.827 126.46 436.153 125.385C436.823 123.171 441.547 116.254 443.214 114.187C448.194 108.017 456.511 101.987 464.478 100.289C468.505 99.4308 474.872 100.46 477.791 97.0998C471.968 97.1179 467.165 95.2561 461.175 95.5583C453.458 95.9476 450.921 98.6155 442.3 96.7179C441.45 96.5308 439.805 96.7111 440.003 95.5938C452.296 90.1702 463.017 87.8075 476.541 89.6432C480.143 90.1322 496.048 94.9359 497.843 92.5591C497.368 91.3052 496.073 90.4442 495.009 89.6854C485.727 83.0663 473.631 77.4217 462.366 75.22C459.88 72.5173 470.236 72.8973 471.223 72.9756C480.623 73.7216 490.25 78.5826 497.472 84.2654L498.624 80.5039L501.694 83.5161C500.057 73.1508 501.43 60.5262 511.721 54.8669C512.036 58.6599 508.975 61.5776 507.73 64.9022C505.945 69.6665 507.112 79.2858 507.942 84.5847C508.064 85.3602 508.252 87.4034 509.406 87.2855C512.324 73.7315 528.075 54.6726 542.952 54.0857C543.799 54.0523 545.099 53.6671 544.889 54.857C543.751 55.158 541.21 56.3071 540.604 57.121C539.994 57.9395 541.909 58.4314 541.484 59.3909C540.712 61.1342 533.158 66.4922 531.035 68.839C527.14 73.1448 523.044 79.6518 520.992 85.0276C530.843 73.7871 544.157 63.9797 558.375 58.6196C565.458 55.9495 572.782 53.7689 580.375 55.6284C581.466 56.4725 573.34 58.4559 572.461 58.8174C564.421 62.1247 555.343 67.3876 548.752 72.9561C557.368 69.0038 566.499 65.4285 576.146 64.6813C584.592 64.027 597.204 64.1979 602.743 71.4479C595.829 72.5137 588.997 69.7783 582.32 69.9469C576.061 70.105 565.889 72.0084 561.093 75.9725C565.274 75.1705 569.572 74.1084 573.829 73.7272C590.754 72.2116 610.398 73.1325 624.273 83.9622C627.257 86.291 630.857 90.0669 630.9 94.0725C629.866 93.0677 628.913 91.9803 627.678 91.1898C622.706 88.0067 601.237 80.8039 595.436 80.4774C594.592 80.43 592.516 79.9877 592.721 81.2493C613.856 87.2681 640.049 98.8228 640.541 123.858C640.632 124.511 639.105 124.31 639.01 124.232C638.63 123.917 635.362 117.277 634.224 115.706C627.562 106.511 618.893 97.7925 607.379 94.8308L620.79 109.235C625.348 114.131 627.236 120.255 627.462 126.843C627.497 127.862 628.138 130.692 626.28 130.263C620.709 123.758 621.161 113.977 612.778 109.157C616.48 117.9 619.198 125.249 617.052 134.831C616.181 138.716 613.315 143.486 612.837 147.299C612.29 151.668 614.229 156.009 613.546 160.427C620.571 157.076 625.258 156.135 632.003 160.857C637.782 164.902 639.699 175.348 638.997 181.928C638.453 187.022 634.08 192.665 633.787 197.187C633.574 200.457 635.657 204.446 635.15 207.924C639.122 208.428 644.76 208.45 648.076 210.744C650.439 212.378 652.607 216.344 654.691 218.227C662.76 225.521 672.448 231.283 680.657 238.462C706.621 261.169 730.056 301.755 743.495 333.115C746.979 341.245 748.562 351.665 754.676 358.379C757.527 361.51 761.422 363.692 764.343 367.025C775.287 379.514 772.33 394.03 777.27 407.923C779.768 414.946 786.347 420.783 787.184 428.771C805.446 429.777 822.949 435.473 840.771 438.591C842.52 438.896 844.442 438.401 846.088 438.671C856.868 440.445 871.269 441.33 874.787 453.594C876.281 458.801 878.031 473.004 877.147 478.074C876.285 483.017 872.456 484.474 872.655 490.333C873.035 501.536 874.954 513.049 875.779 524.257C876.899 539.452 876.277 557.758 880.614 572.313C882.072 577.202 885.989 574.464 890.02 574.356C894.814 574.228 899.602 574.335 904.322 575.154C904.503 576.469 902.57 575.863 901.634 575.9C895.054 576.159 888.475 575.47 881.964 576.66L881.954 589.476C891.447 589.7 901.174 588.778 910.541 590.559C911.678 590.775 914.811 591.207 915.12 592.48C903.482 593.301 892.52 593.631 881.191 597.021C881.313 598.23 884.509 598.438 885.439 598.512C892.584 599.081 899.863 598.817 907.008 600.063C908.376 600.302 909.316 599.232 908.947 601.536C889.668 599.662 868.923 600.771 850.331 606.434C844.3 608.271 838.407 612.153 831.828 612.856C831.645 614.169 833.581 613.566 834.515 613.601C853.805 614.33 873.11 612.825 892.277 615.955L898.923 617.364C863.964 616.86 828.057 614.027 794.033 623.412C793.851 624.726 795.786 624.122 796.72 624.158C818.301 624.977 839.963 623.461 861.51 625.674L871.156 627.166L773.683 627.266C771.564 627.474 762.199 629.404 760.685 630.202C759.701 630.72 758.257 634.057 756.615 635.463C752.38 639.089 739.721 642.708 734.059 643.574C709.28 647.361 687.642 637.023 663.283 635.476C639.806 633.985 616.812 637.265 594.086 642.463C587.49 643.971 581.397 646.899 574.365 648.066C570.017 648.788 564.77 648.52 561.038 649.365C557.239 650.225 550.764 655.399 546.729 657.243C527.461 666.05 491.298 667.907 471.636 659.959C469.95 659.277 464.717 655.827 464.293 655.827H439.225ZM607.364 106.894C602.767 95.5814 588.933 87.1898 576.523 87.2977L591.58 94.8097L607.364 106.894ZM600.423 127.26C601.209 122.579 596.982 119.681 595.732 115.566C594.181 110.456 595.932 111.326 590.765 106.917C583.074 100.353 570.183 93.6702 559.927 94.0773C558.994 94.1144 557.059 93.5064 557.242 94.8208C562.899 96.9593 568.673 99.3069 573.952 102.241C580.059 105.637 587.166 109.573 588.852 116.697C581.663 112.547 573.055 108.368 565.166 105.552C560.925 104.039 554.304 101.978 549.89 101.628C549.045 101.561 547.018 101.071 547.214 102.362C552.246 102.767 557.532 105.164 559.55 109.903C555.263 110.184 551.508 107.011 547.538 106.201C543.711 105.421 540.183 106.443 536.828 106.156C533.111 105.837 528.709 103.824 525.226 103.824C522.253 103.824 505.997 108.271 503.472 109.756C497.574 113.227 500.41 117.102 505.847 114.336C508.909 112.777 511.018 106.995 515.582 108.776C512.355 110.605 510.255 113.669 507.47 115.927C505.068 117.873 502.01 119.056 499.745 121.193C493.989 126.622 489.435 135.601 486.29 142.729C486.162 145.018 487.123 143.252 487.689 142.585C491.417 138.184 494.319 133.133 499.006 129.519C500.159 130.112 498.829 131.332 498.454 131.996C495.78 136.729 491.996 140.938 490.14 146.104C492.24 145.045 492.656 141.526 495.527 141.584C496.396 142.459 491.267 148.137 492.828 149.871C496.03 147.125 498.504 143.339 502.465 141.58C503.163 142.396 497.557 150.338 498.998 152.133C500.428 151.292 502.104 147.682 504.025 148.753C501.433 158.207 496.295 168.194 496.242 178.138C496.23 180.368 497.767 186.205 496.956 187.459C496.624 187.971 494.096 188.537 493.214 188C492.728 187.704 488.968 180.35 487.442 178.518C477.976 167.158 463.999 169.468 455.028 180.027C445.342 191.428 448.265 204.197 457.342 214.73C466.808 225.713 476.603 229.809 491.565 228.188C493.557 226.969 490.87 215.217 494.752 213.213C496.56 218.938 496.564 227.706 498.826 232.99C499.644 234.902 510.177 247.865 511.343 247.883C512.946 245.317 513.125 242.523 516.349 241.112C517.225 242.079 513.096 244.859 513.234 246.762C513.262 247.157 514.755 247.087 514.736 247.466C514.581 250.568 513.403 250.417 516.444 253.468C523.598 260.648 521.649 253.063 527.926 250.921C524.563 253.528 522.408 260.43 528.688 258.828L535.635 252.426C535.176 255.117 531.91 257.118 530.866 259.457C530.417 260.462 530.529 261.503 531.397 261.455C532.087 261.418 537.097 255.169 538.717 254.684L534.096 262.972C536.472 263.157 538.801 264.312 541.264 263.581C543.852 262.813 546.951 256.512 550.294 256.2C549.976 257.647 542.134 263.42 543.356 264.483C552.649 266.342 553.253 261.593 559.157 256.939C559.19 258.48 552.957 264.179 554.155 265.236C559.247 266.837 562.187 259.03 565.345 257.707C566.259 257.324 566.876 257.928 566.485 258.821C565.999 259.931 561.298 262.873 562.242 264.487C563.612 266.829 570.461 261.659 572.269 261.463L572.268 264.478C599.772 255.783 630.152 239.875 627.327 206.901C626.781 200.539 623.491 194.713 623.577 188.333L625.498 191.331C626.725 188.893 629.356 187.984 630.852 186.024C635.709 179.662 632.083 164.115 623.084 163.472C618.754 163.163 613.384 168.238 609.695 170.231C608.351 155.751 606.769 140.415 598.898 127.616L600.423 127.26ZM480.873 113.685C479.517 113.422 478.649 114.042 477.534 114.562C474.464 115.993 466.891 124.275 465.111 127.299C464.208 128.836 463.258 130.738 463.144 132.531L478.961 117.463L480.873 113.685ZM489.36 118.213C487.445 116.508 480.4 128.069 479.697 129.494C478.9 131.112 477.933 132.99 477.799 134.793L489.36 118.213ZM450.803 173.245C451.635 173.851 452.98 172.379 453.466 171.717C456.813 167.156 453.286 161.639 453.873 156.661C451.387 157.821 452.602 161.269 452.123 163.614C451.705 165.664 449.224 172.097 450.803 173.245ZM601.193 367.79C601.592 367.368 603.508 358.404 604.083 356.656C607.97 344.828 615.565 328.262 621.898 317.52C625.917 310.704 629.908 310.958 624.229 301.92C622.652 299.41 614.322 293.024 614.501 290.494C614.751 286.955 638.415 280.643 639.621 276.786C640.233 269.082 640.073 261.261 640.546 253.561C641.17 243.391 643.919 227.241 640.965 217.696C640.139 215.028 635.552 213.356 634.278 215.162C633.225 216.656 632.131 224.832 631.094 227.732C628.564 234.8 623.233 239.578 620.336 245.868C616.644 253.884 610.946 269.183 609.697 277.694C606.802 297.431 602.82 317.236 600.438 337.258C600.867 346.676 598.442 357.352 599.657 366.671C599.792 367.711 600.123 368.923 601.193 367.79ZM746.983 376.079C746.229 369.155 743.613 361.554 741.358 354.81C732.109 327.159 717.011 298.106 701.02 273.599C686.67 251.606 675.137 243.258 655.953 226.419C654.854 225.454 646.853 216.73 645.941 217.741C647.495 235.704 645.596 253.627 645.158 271.642C645.091 274.4 642.42 279.431 647.115 280.299C658.09 282.328 663.215 274.712 671.841 273.599C675.856 273.081 681.503 273.25 685.27 274.662C680.58 279.278 674.549 277.581 668.551 280.184C656.982 285.204 641.653 304.173 643.627 317.265C644.964 317.605 645.169 316.722 645.942 316.142C649.217 313.69 652.864 308.63 655.941 305.559C663.737 297.777 672.227 290.782 678.721 281.833C679.883 282.423 678.498 283.651 678.202 284.341C673.167 296.083 662.144 303.295 654.42 312.366C653.698 313.214 652.551 313.587 652.883 315.003L687.216 292.396L687.581 293.887L691.062 291.635C691.634 291.515 691.59 292.427 691.438 292.753C690.457 294.857 684.954 300.728 682.971 302.576C668.203 316.339 646.568 323.633 637.294 343.127C636.958 343.833 636.076 345.451 637.061 345.916C646.713 341.746 655.153 335.288 664.431 330.447C666.061 329.596 668.777 327.77 670.615 328.198L644.029 347.45L632.828 359.49C645.329 359.147 657.79 359.755 670.105 361.881C674.884 362.707 681.576 363.857 685.833 366.1C686.745 366.58 687.129 366.088 686.812 367.784C674.512 368.777 662.315 365.378 650.211 364.741C644.695 364.45 634.559 364.121 629.34 364.771C624.792 365.337 631.532 366.883 632.265 367.205C643.098 371.971 654.555 379.521 663.287 387.397C664.966 388.912 667.369 393.369 669.618 394.023C672.525 394.868 682.255 393.335 686.462 393.394C690.196 393.446 694.605 394.895 698.648 394.214C699.486 394.018 701.361 387.114 701.324 386.083C701.2 382.671 693.872 385.042 691.83 384.979C685.442 384.784 679.04 382.882 672.555 383.615L665.995 382.123L701.155 379.167C704.145 376.939 704.222 360.735 703.79 356.85C703.287 352.327 700.447 348.637 699.165 344.414C705.002 348.337 706.865 355.477 708.795 361.753L721.516 339.141C724.541 354.585 712.005 368.729 707.645 382.865C714.508 383.417 720.049 377.773 726.71 376.997C727.866 376.862 728.752 376.265 728.46 377.957C726.311 379.515 724.295 381.646 722.232 383.182C717.197 386.931 707.81 389.414 708.412 396.438C709.544 397.539 729.945 392.385 733.554 391.974C734.988 391.811 735.204 392.764 734.631 393.411C733.872 394.269 721.364 398.466 719.206 399.075C715.645 400.08 707.459 400.132 706.431 403.191C705.185 406.901 707.852 407.422 711.115 407.75C722.387 408.882 734.721 407.688 745.85 408.476C747.807 408.614 749.644 409.287 751.61 409.265C751.806 411.287 751.617 410.477 750.451 410.753C747.121 411.542 741.666 412.066 738.141 412.307C733.343 412.636 727.249 411.111 723.072 413.411C729.998 416.35 737.888 417.261 744.861 420.004C746.185 420.525 749.067 420.965 748.517 422.828C740.355 422.974 732.843 419.14 724.949 417.594L725.382 419.809C720.335 420.274 705.246 412.863 701.663 416.24C699.031 418.72 699.58 425.153 698.15 427.129C697.138 428.527 691.557 431.784 690.679 433.776C689.766 435.849 695.195 434.613 695.297 436.397C694.699 436.793 687.136 434.339 688.366 436.772C709.515 448.417 730.457 467.615 756.646 459.805C764.497 457.463 779.753 448.706 780.111 439.724C780.268 435.787 776.317 435.677 776.281 433.773L780.139 433.022C760.933 415.833 776.202 380.516 751.987 367.04C749.255 369.598 756.727 378.384 752.128 378.235C749.164 378.139 750.113 375.269 750.056 373.067L746.983 376.079ZM500.923 333.853C499.86 328.738 497.703 324.046 496.53 318.931C493.682 306.509 491.058 290.273 489.46 277.585C488.123 266.971 489.81 267.526 491.629 258.788C491.79 258.015 492.297 254.044 490.913 253.936C488.681 258.727 484.665 262.567 482.976 267.67C478.226 282.026 486.594 313.715 494.907 326.55L500.923 333.853ZM568.034 272.027H547.98C549.117 278.287 553.904 284.038 555.472 289.975C556.487 293.818 555.817 297.663 558.007 301.426C556.222 303.103 553.056 295.194 552.483 294.393C549.321 289.98 544.262 286.269 542.572 281.081C541.629 280.632 541.663 284.302 540.271 282.583C539.863 282.08 541.121 279.405 539.506 279.573C536.451 303.409 545.446 331.544 557.104 352.46C558.593 355.131 567.265 367.434 567.244 368.925C567.232 369.857 566.41 369.99 565.335 369.3C562.774 367.656 556.908 360.219 555.069 357.465C549.761 349.518 545.912 339.736 542.572 330.847C541.28 330.648 541.776 332.636 541.787 333.496C541.966 347.682 545.427 360.529 550.693 373.808C552.184 377.566 555.42 380.845 554.925 385.13C563.844 385.166 582.894 386.136 589.676 379.52C593.488 375.801 591.898 371.485 591.909 367.441L591.941 355.728C590.464 355.375 590.456 356.255 589.771 356.991C586.879 360.098 584.984 364.312 581.529 367.031C580.948 367.148 581.031 366.298 581.157 365.917C581.951 363.521 586.825 358.122 588.49 354.986C590.272 351.629 591.489 347.986 592.709 344.414C587.999 347.095 583.966 355.469 580.39 358.378C579.35 359.224 578.346 358.759 578.839 357.619C579.377 356.375 584.701 350.95 586.09 348.869C592.571 339.157 596.737 328.104 598.108 316.518L587.688 332.335C586.461 336.395 588.116 333.26 590.399 334.23C585.749 338.163 581.157 343.259 576.525 347.058C575.914 347.56 574.979 349.036 574.209 347.81L598.173 313.931C602.849 294.979 602.743 275.399 608.149 256.575L597.702 264.459C593.178 275.084 577.937 285.944 574.574 296.14C571.879 304.312 571.165 314.358 568.595 322.718C568.246 323.854 566.018 330.532 565.71 330.839C563.099 333.435 564.894 324.529 564.815 323.876C563.94 316.65 553.235 313.621 548.719 309.384C547.182 307.942 540.459 300.231 541.818 298.418C544.211 300.258 547.773 300.446 550.237 301.867C552.165 302.979 563.486 315.773 565.717 313.494C565.411 310.138 566.125 306.922 566.869 303.688C570.994 285.759 574.957 286.148 583.805 272.741C584.392 271.851 586.201 268.129 583.86 269.02C581.037 270.095 577.457 272.935 574.585 274.284L573.808 272.014L566.492 274.282L568.034 272.027ZM532.546 373.82C533.162 367.202 531.25 360.373 530.98 353.87C530.007 330.443 534.488 298.169 530.042 276.368C528.029 266.502 526.42 270.259 519.254 267.309C517.822 266.72 510.763 260.824 510.19 261.474C509.561 267.372 512.062 273.036 510.177 278.808C509.011 278.803 508.75 276.545 508.437 275.622C507.401 272.569 507.007 269.513 506.259 266.44C506.042 265.548 505.953 264.632 504.796 264.488C504.671 266.783 502.411 269.195 501.925 271.119C501.241 273.826 503.664 278.765 500.16 278.828C499.847 279.964 501.108 279.258 501.705 280.088C502.414 281.074 502.621 283.091 503.975 283.68C504.55 283.93 506.202 283.39 508.161 284.151C510.712 285.14 525.474 296.15 525.466 298.05C521.874 303.646 511.226 307.329 511.693 314.608C512.005 319.477 515.204 331.003 516.575 336.282C519.813 348.742 524.008 364.012 532.546 373.82ZM499.396 293.889L495.522 275.049C494.152 274.917 494.704 277.596 494.769 278.425C496.807 304.228 503.204 325.939 512.898 349.68C513.868 352.055 515.138 355.725 517.12 357.232C512.946 345.669 511.699 332.528 508.264 321.032C507.552 318.648 504.765 314.069 504.728 312.383C504.602 306.632 518.008 301.733 517.058 298.177C516.655 296.668 502.241 287.203 501.313 283.341C500.554 285.295 501.076 287.556 500.834 289.652C500.732 290.538 500.495 293.783 499.396 293.889ZM656.735 281.837C652.763 282.837 648.386 284.574 644.646 286.223C642.24 287.283 637.918 290.374 636.281 290.867C632.47 292.013 639.326 286.335 637.843 285.604C636.268 286.824 626.497 291.643 625.985 292.497C624.983 294.167 629.254 298.757 630.357 300.453C631.11 301.612 632.652 305.726 632.899 305.902C636.421 308.413 645.373 294.574 647.498 292.027C650.43 288.513 653.755 285.298 656.735 281.837ZM508.636 360.248C505.875 352.237 497.76 347.417 493.372 340.115C488.564 332.114 479.593 314.894 477.986 306.144C476.847 299.94 479.247 290.508 472.209 301.632C465.383 323.86 484.857 335.813 498.267 348.902C501.757 352.309 504.686 357.199 508.636 360.248ZM635.91 311.236C634.392 310.991 633.714 312.222 632.847 313.143C622.29 324.35 616.438 343.502 612.778 357.986C617.603 355.723 619.767 339.743 622.014 338.029C622.304 337.807 623.252 338.345 623.431 338.2C624.696 337.173 624.303 332.109 627.436 334.254C627.468 340.551 623.236 348.05 622.949 354.063C622.892 355.269 622.912 356.133 624.331 356.476L635.91 329.71V311.236ZM501.694 362.51C502.031 361.096 500.89 360.715 500.161 359.869C491.181 349.439 477.38 340.464 471.483 327.582C469.96 324.255 469.643 319.699 467.001 317.269C467.014 318.24 466.788 319.176 466.382 320.062C462.801 327.9 459.219 335.72 455.764 343.616C453.433 346.244 449.726 346.592 446.703 348.33C438.324 353.148 426.504 364.186 427.664 374.574C429.436 373.505 431.287 372.342 432.731 370.849C435.461 368.025 432.786 367.96 439.071 366.502C445.898 364.919 451.192 365.507 457.731 367.798L444.423 371.739C439.896 373.284 424.094 382.399 424.033 386.854C423.996 389.582 430.133 411.716 431.525 413.027C432.824 414.251 432.847 412.837 433.028 411.885C435.006 401.465 435.461 395.317 442.761 386.702C450.99 376.992 471.428 369.157 483.599 375.306L501.701 388.14L496.31 379.099L503.235 382.115L504.011 377.594L500.937 379.097C502.672 374.757 494.888 371.067 491.421 369.167C477.102 361.319 460.95 358.235 444.629 357.978L453.083 354.567C463.995 351.947 474.591 354.879 484.733 358.733C484.279 356.355 462.026 340.578 463.908 339.143C465.191 338.935 466.183 339.495 467.292 339.974C471.913 341.968 479.493 346.026 483.9 348.621C490.463 352.486 495.962 357.603 501.694 362.51ZM550.291 384.373C550.81 383.898 544.967 373.37 544.307 371.757C541.057 363.813 539.362 355.456 536.946 347.276C536.717 346.498 536.765 344.996 535.647 345.171C536.472 354.823 537.5 366.139 540.668 375.314C542.51 380.649 543.962 384.185 550.291 384.373ZM679.098 430.371C680.686 424.697 677.542 418.011 675.137 412.76C667.33 395.716 646.887 376.334 628.958 369.683C623.206 367.549 608.346 364.141 608.917 374.144C609.194 378.991 627.403 388.256 631.987 391.605C651.051 405.537 651.289 413.973 661.982 432.407C663.052 434.251 664.972 436.687 667.542 435.266L664.456 421.324C667.979 422.874 669.29 432.956 671.786 434.137C673.192 434.802 673.031 433.219 672.884 432.313C672.408 429.394 670.778 425.977 670.626 422.833C673.574 424.326 672.601 428.421 674.463 430.762L676.025 428.86L679.098 430.371ZM644.386 415.292C645.681 413.56 639.328 406.377 637.849 404.725C628.518 394.297 615.766 386.776 604.534 378.5C603.037 378.244 598.947 382.077 597.097 383.004C594.563 384.274 579.947 388.609 579.605 390.043C579.24 391.574 590.588 398.068 592.726 399.826C603.303 408.523 607.128 417.543 621.656 422.067C622.047 422.189 622.914 422.274 622.794 421.705C620.204 418.533 616.895 414.426 617.78 410.018C623.171 414.06 629.311 424.775 636.102 426.058C641.002 426.984 633.37 419.321 632.83 417.172C642.098 416.325 642.824 429.217 651.336 431.119L645.171 423.958L650.557 426.602C650.177 420.387 639.349 418.365 637.573 414.043C635.758 409.628 644.119 415.65 644.386 415.292ZM449.241 446.959C457.154 431.217 461.482 418.816 477.556 409.407C480.392 407.747 497.002 400.437 497.504 399.458C498.054 398.39 496.686 394.496 495.88 393.462C494.862 392.156 485.015 385.692 483.103 384.84C470.996 379.448 455.526 386.92 449.606 397.918C448.924 399.185 447.447 401.812 448.092 403.224C450.785 399.496 452.629 396.659 457.737 397.203C453.699 403.562 446.985 410.277 448.092 418.305C450.135 415.528 452.531 412.341 456.194 411.529C447.693 420.198 444.764 429.972 446.231 441.995C446.319 442.715 447.662 448.425 449.241 446.959ZM551.838 390.416C547.3 389.936 543.433 386.919 538.673 388.479C536.214 389.285 535.686 392.683 533.554 393.272C530.918 394 527.924 393.866 524.444 394.923C508.585 399.736 476.638 412.506 467.14 425.615C460.144 435.271 452.781 451.69 455.001 463.585C456.29 470.491 462.354 479.421 470.075 480.134C467.819 471.389 465.209 461.088 467.371 452.233C469.976 441.56 476.823 429.079 485.497 422.079C480.823 433.004 474.842 443.509 473.944 455.642C472.985 468.615 476.766 486.374 493.217 486.163C486.218 470.069 485.966 446.537 495.156 431.133C496.783 430.839 496.414 431.73 496.152 432.858C495.551 435.442 494.03 438.094 493.447 440.776C490.828 452.814 491.462 477.705 502.858 485.418C505.467 487.184 516.139 487.913 516.321 485.804C516.377 485.156 512.532 475.717 511.948 473.515C509.01 462.443 507.34 451.593 509.423 440.175C510.967 440.465 510.685 441.768 510.955 442.816C514.657 457.197 514.452 478.556 535.677 477.523L531.051 450.766C536.244 450.13 542.962 445.036 546.003 440.881C551.78 432.989 551.323 430.392 561.079 424.704C572.927 417.796 586.784 415.434 600.428 416.037C594.613 408.032 587.618 399.505 578.578 394.806C572.088 391.433 562.811 390.478 555.928 393.277C553.66 394.199 552.53 396.019 550.298 396.438L551.838 390.416ZM679.106 406.252C683.487 404.501 689.25 405.119 693.422 403.276C696.427 401.947 699.431 399.165 694.87 397.993C687.401 396.075 678.015 397.553 670.626 394.934C672.57 399.578 676.624 403.162 678.718 407.751C681.412 413.654 682.376 420.415 684.113 426.599C685.271 424.863 686.453 422.485 687.22 420.563C688.355 417.717 686.145 417.079 691.449 417.547C689.615 415.446 693.166 415.881 694.134 413.773C694.564 412.835 694.824 408.791 694.531 408.504C693.013 407.016 679.33 412.573 679.106 406.252ZM433.047 427.356C430.692 425.154 429.678 422.232 426.905 420.174C413.663 410.344 376.621 423.133 381.576 443.376C391.199 469.011 402.067 507.894 424.203 525.362C425.652 526.506 427.343 527.288 428.818 528.391C429.461 503.611 401.917 489.105 392.954 468.074C396.662 471.268 398.58 476.06 402.966 478.63C400.8 471.604 392.123 456.098 394.084 449.211C394.36 448.242 394.316 447.395 395.637 447.72L404.146 463.536L404.898 461.292L415.307 471.09L406.835 457.136L409.908 458.271L408.378 454.874C408.208 454.356 409.181 454.325 409.522 454.505C410.761 455.159 415.629 462.55 417.234 464.313C427.083 475.13 435.819 481.837 448.407 488.882C456.154 493.218 461.121 500.216 466.985 506.529C463.666 498.31 457.292 489.657 450.387 483.931C435.729 471.776 420.355 460.173 407.978 445.462C407.042 444.35 403.7 440.093 403.768 439.035C403.799 438.539 405.104 437.524 405.791 438.536C415.792 445.209 424.249 454.85 436.14 458.264C431.107 447.387 419.004 441.677 413.006 431.499C413.826 430.498 415.598 431.373 416.533 431.821C424.501 435.641 432.599 445.759 440.76 449.977C441.234 445.144 436.382 442.401 433.059 439.795C434.432 438.433 442.247 445.3 440.599 440.718C439.325 437.174 432.301 433.936 431.505 429.248C433.488 429.53 438.256 435.617 439.612 435.636C440.3 435.646 440.934 434.167 440.65 433.14C440.042 430.945 433.539 427.843 433.817 424.346L433.047 427.356ZM568.034 438.667V449.223L570.342 448.471L571.127 465.812L573.425 463.555C574.421 470.289 575.174 476.893 578.071 483.149C579.406 483.152 578.918 479.846 578.869 478.972C578.733 476.531 577.971 474.283 578.069 471.844C578.258 471.593 579.014 472.287 579.223 472.593C581.75 476.286 582.558 487.452 585.114 493.226C588 499.748 593.007 505.025 597.734 510.296C598.614 509.837 597.984 508.026 597.772 507.242C594.803 496.255 588.717 484.364 585.999 473.51C585.033 469.653 584.373 465.892 585.784 462.044C596.221 468.59 601.148 480.205 607.825 489.874C609.159 491.806 616.848 501.871 618.171 502.405C620.365 503.29 621.208 496.199 621.174 494.92C620.925 485.729 607.857 466.34 602.292 458.336C597.684 451.707 591.932 445.746 588.089 438.674L621.656 471.833C623.616 471.99 622.515 471.566 622.214 470.531C620.585 464.93 616.861 455.556 614.478 450.193C612.428 445.58 606.218 440.77 604.286 435.658C606.427 433.747 623.93 451.164 625.903 453.351C631.029 459.032 634.744 465.659 640.156 471.086C641.049 470.292 640.434 468.317 640.188 467.284C637.195 454.689 626.04 443.954 618.941 433.396C620.417 432.101 631.787 443.939 633.221 445.443C639.65 452.184 645.152 459.949 651.725 466.562C652.828 464.595 651.49 461.977 650.698 460.027C648.225 453.942 633.286 433.993 627.718 431.218C608.805 421.791 572.399 415.251 559.891 437.115C547.106 459.465 542.121 497.059 549.139 521.609C553.052 535.298 561.675 549.865 573.824 557.798C573.894 555.199 571.076 552.574 570.107 550.268C561.469 529.722 552.743 501.374 554.158 479.015C554.953 466.46 558.015 450.088 565.843 439.918C566.508 439.054 566.657 438.388 568.034 438.667ZM824.106 440.183L787.089 432.64C788.244 435.556 786.634 438.804 790.259 439.683L817 446.073C818.697 446.674 825.056 441.42 824.106 440.183ZM662.138 458.276C666.606 458.862 669.292 468.748 674.474 466.213C679.714 463.65 672.573 454.177 670.242 451.476C660.944 440.7 646.903 435.165 632.825 433.396C637.941 438.478 643.858 443.063 648.647 448.459C653.821 454.287 657.374 461.399 663.295 466.562C664.693 465.058 661.379 459.069 662.138 458.276ZM699.929 455.994L680.318 440.873L675.251 440.179C674.686 443.449 678.254 444.045 679.867 445.838C682.794 449.091 685.022 453.271 688.376 456.276C688.629 456.502 689.611 456.05 689.766 456.19C691.01 457.317 693.464 464.73 695.731 467.276C696.267 467.878 701.489 472.437 701.868 472.592C703.84 473.399 703.016 467.913 702.84 467.113C702.05 463.529 694.596 456.964 699.929 455.994ZM675.751 445.716C674.859 444.904 669.752 442.008 668.675 441.694C667.7 441.41 667.125 441.877 667.54 442.804C668.151 444.167 672.985 448.644 674.344 450.482C676.047 452.784 678.155 455.778 679.503 458.258C680.959 460.937 681.54 464.136 682.777 466.36C683.265 467.236 682.753 467.629 684.491 467.317C684.537 466.419 685.185 465.598 685.16 464.69C685.089 462.056 677.916 447.685 675.751 445.716ZM814.853 463.556C813.274 465.358 824.836 467.358 826.042 467.378C828.277 467.413 841.386 465.014 842.643 463.933C844.259 462.543 841.093 458.641 839.949 457.491C834.663 452.184 829.172 452.616 822.695 450.984C810.94 448.021 799.229 444.919 787.53 441.772C786.78 444.015 779.985 453.06 780.975 454.436C781.661 455.388 789.041 456.756 790.403 457.495C791.363 458.016 790.469 459.503 792.788 460.617C797.636 462.946 800.822 461.137 805.171 461.262C808.594 461.361 812.796 463.018 816.393 462.803C816.698 464.174 815.097 463.279 814.853 463.556ZM859.587 456.015C859.744 460.374 856.36 461.323 854.566 463.587C851.107 467.954 860.519 482.385 868.144 476.06C872.922 472.097 869.486 454.416 865.027 450.317C858.63 444.436 834.459 440.867 827.21 447.338C829.829 451.639 832.993 450.638 836.489 451.825C842.375 453.823 847.441 458.215 852.262 462.017L859.587 456.015ZM715.351 467.316C714.63 461.924 710.092 456.596 704.557 455.263L708.019 460.542L715.351 467.316ZM788.629 460.534H776.674C776.562 460.534 774.948 461.303 774.75 461.661C776.272 465.154 784.964 463.681 787.641 462.219C788.525 461.737 788.946 462.268 788.629 460.534ZM794.027 465.821C785.813 463.574 777.447 468.576 769.345 469.59L773.971 471.098L770.12 474.097C771.551 474.362 772.793 474.945 774.318 474.893C777.369 474.788 789.047 469.703 791.988 467.965C792.493 467.667 794.338 466.237 794.027 465.821ZM770.887 468.065C768.312 464.621 760.151 467.691 757.777 470.328C762.529 471.342 766.548 469.648 770.887 468.065ZM844.809 468.955C834.883 468.552 825.424 471.02 815.63 468.078C814.921 468.798 819.431 476.76 820.073 478.43C823.301 486.832 824.068 494.141 823.369 503.166C823.168 505.754 821.53 514.693 820.314 516.583C818.989 518.642 807.867 520.891 804.988 521.39C798.858 522.453 782.835 525.552 781.647 516.749C780.229 506.239 784.125 493.644 776.626 483.915C766.78 491.251 755.548 491.475 744.246 494.448C751.044 505.741 751.636 524.04 740.071 532.576C737.14 534.739 729.652 536.983 727.69 538.57C725.484 540.355 727.652 554.05 727.728 557.395C727.958 567.556 727.962 578.217 727.732 588.378C727.67 591.134 725.594 596.729 728.007 598.594C729.909 600.064 735.093 598.874 737.937 599.443C739.064 599.669 748.513 603.302 749.565 603.91C755.078 607.098 755.336 616.639 756.336 617.27C758.359 618.549 780.007 612.685 783.817 611.536C800.868 606.394 822.64 599.508 839.182 593.274C840.757 592.681 844.3 591.317 845.295 590.201C847.704 587.5 848.354 577.865 850.68 573.598C852.588 570.098 858.489 565.309 859.401 561.766C860.634 556.981 856.858 549.872 864.988 550.27L865.358 552.513C869.87 550.565 867.965 541.708 868.042 537.037C868.071 535.246 868.878 533.621 868.875 531.825C868.87 528.915 867.279 524.945 868.07 521.614C867.216 520.657 863.184 524.99 862.19 525.181C861.405 525.331 860.248 524.549 859.385 524.79C855.354 525.919 851.53 528.569 847.249 529.143C849.671 525.505 860.306 524.451 860.4 519.763L856.944 491.396C856.676 489.626 853.891 489.118 853.493 487.927C852.951 486.309 854.868 483.836 854.059 482.536C853.882 482.253 852.481 482.018 851.881 481.297C848.487 477.219 846.327 474.144 844.809 468.955ZM787.862 483.905C787.594 482.042 789.386 481.606 790.722 481.053C794.975 479.295 810.211 476.527 812.564 474.489C815.58 471.878 808.851 468.59 805.309 468.896C802.06 469.177 783.989 474.812 782.805 477.126C782.178 478.352 785.818 490.044 786.224 492.67C787.019 497.806 786.875 502.559 787.087 507.668C787.125 508.584 786.504 510.472 787.85 510.296C788.732 507.218 787.421 501.314 790.189 500.065L788.187 487.672C789.708 485.247 810.443 483.35 814.09 480.515C814.043 478.546 789.967 483.812 787.862 483.905ZM636.674 481.646L632.701 473.85L628.976 470.336L634.372 479.757L636.674 481.646ZM760.862 471.852C758.58 471.858 754.79 470.205 753.155 472.589C755.489 473.155 759.428 474.604 760.862 471.852ZM712.27 485.409C724.007 486.047 736.485 490.758 748.123 489.929C752.165 489.641 771.077 486.762 771.467 482.038C770.776 479.446 768.607 478.926 766.272 478.243C751.865 474.027 732.587 476.445 718.605 481.431C716.369 482.228 713.623 483.383 712.27 485.409ZM694.528 483.146C691.197 478.648 680.013 482.653 675.4 484.471C674.235 484.93 673.312 484.029 673.708 486.167L694.528 483.146ZM790.558 514.824C793.784 515.264 798.647 514.824 802.127 514.824C803.108 514.824 810.323 513.186 811.549 512.724C812.462 512.38 813.788 511.71 814.481 511.066C818.435 507.392 817.237 490.88 816.391 485.414L812.54 486.163L814.846 482.401C811.978 484.436 809.215 486.967 805.604 487.688C805.422 489.087 807.159 488.252 807.954 488.103C810.489 487.627 812.843 486.446 815.628 486.921C815.425 488.869 816.051 491.356 815.473 493.183C815.104 494.352 813.455 494.793 813.366 496.289C813.277 497.792 814.233 499.803 814.028 502.349C813.976 503.001 812.818 507.61 811.776 506.54C811.418 507.837 814.124 506.725 813.305 508.404C811.562 511.982 792.911 511.995 788.634 513.324C788.352 514.083 790.242 514.781 790.558 514.824ZM865.749 487.682C865.033 487.219 863.784 487.794 863.065 488.437C858.579 492.453 863.438 513.676 861.908 520.099C865.429 520.074 867.888 518.867 868.015 515.137C868.238 508.577 867.165 497.921 866.537 491.062C866.488 490.529 865.897 487.777 865.749 487.682ZM475.473 488.437C472.322 488.915 469.99 490.833 470.039 494.042C470.137 500.405 472.814 512.817 474.176 519.489C475.757 527.237 482.674 545.461 482.451 551.377C482.189 558.334 471.377 554.328 471.725 558.047C472.235 563.507 487.204 573.739 490.521 578.912L488.971 572.888C489.327 574.063 492.25 575.042 492.377 575.224C492.483 575.377 491.623 576.932 491.621 577.798C491.615 581.681 497.794 582.498 500.553 584.186C500.438 581.562 499.087 576.303 498.02 573.844C496.732 570.879 488.683 561.407 497.066 567.605C496.67 564.586 493.697 561.936 497.837 560.066C498.085 564.265 500.638 568.52 504.781 569.878L499.394 570.235L507.097 577.035L501.706 576.273C502.762 577.445 509.122 582.773 510.186 581.925C507.476 579.645 508.936 577.945 508.455 575.776C507.952 573.501 506.951 571.231 506.534 569.29C505.861 566.151 507.704 560.727 502.474 563.075C506.069 561.228 501.076 556.942 499.766 557.063C498.889 557.145 498.855 560.211 497.833 558.924C498.401 557.676 500.796 550.767 501.124 550.446C501.518 550.06 502.987 550.121 504.043 549.172C506.047 547.371 509.893 540.891 510.95 538.199C507.802 541.236 502.47 544.439 501.693 548.751L498.769 545.371L517.892 521.61C508.838 528.908 502.672 538.767 492.056 544.227L491.681 543.11C497.96 535.01 505.04 527.394 511.263 519.27C512.798 517.266 514.988 515.016 515.578 512.562L490.923 538.594C486.847 542.353 486.623 539.858 489.18 536.136C492.816 530.844 498.249 526.344 501.701 520.863C499.914 519.327 488.925 533.533 485.875 534.417C484.839 534.717 484.439 534.324 484.744 533.312C485.179 531.872 493.386 522.847 495.135 520.845C496.884 518.844 499.171 517.211 500.91 515.18L507.865 505.776C502.993 510.487 498.49 515.384 493.228 519.735C491.989 520.76 482.433 528.454 481.652 527.638L483.954 512.562C483.742 512.282 480.209 514.717 479.704 514.829C479.25 514.928 479.663 512.457 477.798 514.074C476.674 513.55 477.406 497.98 477.081 495.545C476.894 494.15 475.64 494.557 475.494 493.947C475.109 492.334 475.704 490.161 475.473 488.437ZM727.696 498.243C726.09 501.201 720.19 504.329 719.986 507.717C719.871 509.637 723.138 516.055 723.64 519.166C724.094 521.982 723.378 532.774 727.408 533.53C729.385 533.902 735.281 530.184 736.96 528.781C747.823 519.706 747.468 497.853 733.077 492.597C719.442 487.618 688.504 488.318 674.644 492.746C669.272 494.462 664.161 496.88 673.518 498.042C683.279 499.254 692.69 497.381 702.896 499.481C706.682 500.26 714.71 504.128 717.622 503.132C720.432 502.172 723.459 497.229 727.696 498.243ZM483.186 491.453C479.718 490.767 479.642 500.679 480.109 501.247C481.9 501.719 481.399 500.835 481.874 500.293C483.159 498.826 484.075 496.967 485.495 495.583L483.196 495.217L483.186 491.453ZM483.194 505.018C484.232 506.111 489.949 498.112 489.353 497.481C487.694 497.737 481.913 503.668 483.194 505.018ZM486.279 511.05C487.889 511.395 488.028 510.235 488.76 509.335C490.68 506.974 493.086 503.418 493.981 500.498C491.87 500.973 485.312 510.059 486.279 511.05ZM504.015 502.013C502.569 501.683 502.18 502.8 501.314 503.512C498.044 506.199 488.639 515.511 486.988 518.913C486.412 520.101 486.071 521.009 486.283 522.364C493.297 516.636 497.624 508.386 504.015 502.013ZM720.571 539.886C719.604 538.94 711.258 538.524 708.224 537.252C697.989 532.961 691.545 520.25 690.644 509.885C690.48 508.008 692.642 503.975 689.388 502.882C687.138 502.127 672.23 502.617 668.703 502.772C665.291 502.922 661.307 503.313 657.973 503.584C653.465 503.95 645.845 504.116 641.866 505.189C637.932 506.25 631.297 515.119 628.215 518.235C623.286 523.218 615.4 527.354 615.092 535.182C619.287 532.333 620.888 527.049 624.306 523.462C627.281 520.341 638.277 510.812 641.809 508.904C642.63 508.46 644.432 507.391 645.162 508.411L639.77 514.451C639.648 515.01 640.576 514.965 640.913 514.818C642.661 514.056 646.798 509.294 650.015 507.878C650.98 507.453 653.46 506.423 652.867 508.4C651.576 512.706 632.246 527.806 628.2 533.301C627.219 534.634 625.224 537.307 626.276 538.96C638.626 528.955 647.449 515.415 660.21 505.779L660.585 506.896L626.766 543.206C624.473 548.095 626.804 548.917 630.503 545.739L628.976 549.509C629.168 549.73 631.178 548.324 631.598 547.933C639.148 540.917 646.804 529.816 654.401 521.967C658.241 518 663.353 512.584 667.527 509.163C668.139 508.662 669.073 507.184 669.844 508.411C663.343 515.877 656.719 523.224 650.19 530.669C641.501 540.576 628.366 550.648 630.515 565.34L633.588 563.082L634.742 566.091L665.991 535.19C659.16 544.097 650.829 551.854 643.643 560.462C638.091 567.114 628.613 575.197 634.764 584.191C635.82 584.419 636.789 582.971 637.434 582.291C644.346 575.012 650.825 564.355 657.881 556.285C659.965 553.902 662.719 551.884 664.845 549.52C672.423 541.092 679.462 532.211 687.977 524.63L688.353 525.747C680.554 535.136 671.634 543.674 663.698 552.923C656.02 561.871 643.312 575.789 637.591 585.461C633.126 593.009 636.643 598.66 637.462 606.813C654.61 583.953 675.255 564.146 694.509 543.08C694.806 542.755 696.419 540.755 696.851 541.599C681.837 561.988 661.453 578.202 645.958 598.165C642.587 602.509 638.246 606.978 638.228 612.844C639.708 613.09 640.449 611.87 641.291 610.945C645.635 606.175 649.364 598.934 654.027 593.988C655.107 592.842 656.52 590.933 658.278 590.988C659.307 591.96 643.194 610.602 642.238 614.157C641.847 615.611 641.906 616.502 643.286 617.357L645.7 616.37C664.614 590.437 688.757 568.721 710.345 544.989C711.642 545.782 710.001 546.637 709.568 547.245C707.992 549.464 705.968 551.974 704.182 554.044C689.189 571.415 671.926 587.068 657.526 604.949C656.36 606.397 647.698 616.992 649.026 618.122C651.14 617.626 655.763 619.755 657.388 618.756C657.646 618.598 659.257 614.468 659.975 613.374C666.288 603.76 675.425 594.864 683.349 586.46C684.647 587.265 683.029 588.114 682.564 588.709C679.431 592.713 658.316 616.672 660.151 619.664C669.075 623.323 679.555 623.244 689.155 624.613C691.622 623.841 695.747 614.253 698.067 611.405C703.798 604.37 712.629 601.516 720.827 598.215C721.459 597.401 722.085 592.037 722.214 590.519C723.296 577.813 722.534 565.656 721.533 552.894C721.306 549.994 722.299 541.576 720.571 539.886ZM698.987 503.663C695.118 504.166 695.019 505.716 695.29 509.166C696.385 523.094 721.734 547.593 719.203 521.239C718.249 511.307 709.803 502.256 698.987 503.663ZM549.515 540.46L544.676 528.233L540.275 512.566C540.458 515.32 538.894 517.824 538.716 520.501C538.249 527.489 544.74 535.64 549.515 540.46ZM451.568 543.471C452.138 542.016 452.828 541.367 451.017 540.62C446.831 538.895 438.659 540.904 433.453 540.449C418.672 539.156 407.254 528.313 398.354 517.84C401.458 524.543 396.095 542.765 399.067 547.673C400.4 549.875 412.836 553.99 415.895 554.597C424.448 556.293 433.182 556.654 441.534 554.024L431.517 552.517L439.221 551.026C429.326 548.466 417.933 546.775 411.458 538.206C417.715 538.985 422.251 544.93 428.433 546.864C433.361 548.405 447.419 550.511 452.822 550.929C455.359 551.126 459.733 551.47 460.047 548.005C455.903 548.631 457.496 547.359 456.374 545.218C455.045 542.681 454.257 542.577 451.568 543.471ZM532.549 529.153C531.118 528.824 531.055 529.629 530.368 530.406C529.034 531.912 522.027 543.301 521.399 545.033C518.821 552.136 530.501 559.672 535.895 562.454C545.819 567.573 569.646 574.167 580.777 575.133C581.61 575.205 584.367 575.735 584.226 574.401C568.122 569.608 550.244 564.761 537.182 554.041C541.125 554.907 544.122 557.62 547.779 559.132C563.927 565.807 583.93 566.892 601.197 566.09C601.226 564.963 598.453 564.988 597.493 564.823C573.724 560.731 538.583 556.867 532.549 529.153ZM619.704 535.94C614.032 537.011 613.278 547.106 614.32 551.27C614.467 551.858 615.895 551.789 615.899 552.168C615.91 553.248 614.653 554.202 614.526 555.25C614.186 558.049 616.201 562.987 615.86 566.094C617.039 567.46 623.131 557.881 622.018 556.295L618.934 557.419C620.246 554.062 622.943 552.064 622.022 548.005L616.631 551.013C618.786 546.433 621.312 541.051 619.704 535.94ZM465.646 547.093C465.242 546.391 469.413 539.065 467.756 536.691C463.299 538.173 460.547 543.205 463.58 547.226C464.085 547.896 465.318 547.923 465.412 548.049C465.84 548.623 462.985 551.529 464.685 553.278C466.597 553.266 468.092 551.925 469.291 550.64C468.811 549.386 466.333 549.636 466.209 549.503C466.046 549.329 467.031 548.19 467.009 547.687C466.985 547.142 465.749 547.273 465.646 547.093ZM511.188 553.812C510.392 552.702 510.475 548.285 508.268 548.758C507.291 548.968 503.084 554.354 504.384 556.314C505.892 558.588 509.114 553.908 510.186 554.795C507.268 558.238 508.91 562.687 513.654 562.331C514.493 562.269 512.167 560.298 514.409 560.834C515.717 561.147 518.062 563.061 518.287 563.066C518.801 563.078 519.684 561.968 519.072 560.807C517.912 558.609 512.282 555.336 511.188 553.812ZM869.613 553.283C865.62 553.403 861.943 553.939 864.259 558.529C867.435 558.665 870.238 556.659 869.613 553.283ZM625.111 595.513C620.724 597.771 628.41 615.106 630.125 615.095C631 615.09 632.067 612.811 632.095 611.753C632.276 604.931 629.545 597.6 628.381 591.178C627.803 587.992 627.817 584.278 627.217 581.005C626.006 574.405 623.339 568.767 623.958 561.577C615.57 567.317 617.765 573.37 619.722 581.927L622.79 578.916C621.401 582.413 618.476 585.526 620.856 589.488C622.457 592.152 624.39 584.019 626.654 584.956C627.263 585.553 621.97 593.539 622.049 594.383C622.121 595.156 624.27 595.609 625.111 595.513ZM517.373 586.753C519.748 585.075 522.957 584.79 522.531 580.874C522.397 579.641 520.296 573.596 519.602 572.351C517.945 569.381 514.338 567.766 512.89 564.593C510.176 565.518 511.185 570.192 512.719 571.217C513.301 571.606 516.229 571.109 514.801 572.875C514.719 572.977 513.724 572.709 513.429 573.023C512.411 574.106 515.089 578.972 515.358 580.28C515.796 582.406 515.382 585.596 516.365 587.96C517.544 588.272 516.936 587.062 517.373 586.753ZM868.075 586.079C868.812 583.499 867.537 578.121 868.075 575.146C869.376 575.146 869.559 577.667 869.618 578.532C869.797 581.161 869.513 583.202 868.853 585.702C876.003 584.34 870.914 565.636 867.566 564.657C863.887 563.582 857.222 574.357 855.829 577.124C854.744 579.279 851.085 588.767 851.136 590.678C851.16 591.589 851.556 592.009 852.321 592.428C855.578 591.459 867.111 589.449 868.075 586.079ZM521.388 565.34C518.713 565.817 522.864 570.584 523.696 571.364C525.344 572.908 529.772 575.519 531.939 576.134C532.864 576.396 534.937 576.824 534.853 575.523C534.781 574.406 522.586 565.127 521.388 565.34ZM610.453 568.364C609.141 567.039 602.79 575.519 601.993 576.297C598.513 579.695 589.428 584.497 594.654 588.713L608.478 572.835L610.453 568.364ZM473.706 574.474C469.232 575.635 475.165 581.372 476.535 581.132C480.58 580.422 476.668 573.705 473.706 574.474ZM535.636 577.412C533.69 578.568 528.293 576.073 527.93 576.23C526.515 576.842 526.028 584.612 526.747 585.728C527.393 586.732 527.83 586.403 528.751 586.147C530.61 585.631 537.229 578.905 535.636 577.412ZM599.662 595.501C598.582 594.482 610.773 582.558 611.582 580.391C612.21 578.709 612.509 577.134 610.83 575.908L600.45 586.854C592.124 590.019 597.367 594.878 600.815 600.015C602.763 598.602 603.679 596.3 605.407 594.715C606.848 593.393 612.681 589.685 613.164 588.726C613.576 587.908 614.364 583.401 612.395 584.201C610.441 585.165 601.635 597.363 599.662 595.501ZM457.743 580.415C461.009 581.703 464.486 582.565 467.764 583.817C468.346 584.039 475.568 588.824 475.462 585.326C475.447 584.819 469.369 577.725 468.777 577.549C467.61 577.202 463.333 577.156 462.127 577.421C461.478 577.564 461.509 578.7 461.066 578.917C459.874 579.501 457.774 579.173 457.743 580.415ZM503.252 580.424C502.354 582.522 507.577 588.255 509.017 587.961C513.164 587.115 505.212 580.425 503.252 580.424ZM445.125 591.999C438.766 585.442 425.335 579.42 416.091 581.941L427.12 587.357C429.783 589.236 432.818 590.821 435.29 592.943C439.181 596.284 441.997 603.515 446.973 601.96C452.503 600.232 447.686 594.639 445.125 591.999ZM466.221 587.964H453.109C453.01 589.539 457.113 594.457 458.111 594.537C459.358 594.636 467.662 589.177 466.221 587.964ZM401.437 595.495C411.297 598.637 420.818 603.256 428.151 610.507C430.701 608.229 439.767 606.735 436.957 602.634C431.872 595.212 417.71 589.097 408.756 588.874L402.207 590.219C407.911 591.269 415.319 593.447 420.468 596.122C423.639 597.77 426.978 599.755 426.108 603.796C418.69 601.648 412.959 595.755 404.903 594.747C404.146 594.653 401.271 594.197 401.437 595.495ZM602.748 604.549C604.201 604.877 604.574 603.744 605.445 603.046C607.545 601.361 616.285 593.639 614.305 590.981C611.665 591.865 600.688 602.263 602.748 604.549ZM469.303 592.492C467.36 592.735 458.064 596.779 460.059 599.275C463.074 597.606 468.048 596.099 469.303 592.492ZM564.949 601.529C562.955 598.053 559.555 596.799 555.699 596.261C555.368 597.767 558.821 599.719 559.781 600.184C561.49 601.011 562.913 601.818 564.949 601.529ZM542.196 597.013C537.643 596.03 529.805 597.738 524.841 597.013C524.46 599.155 525.357 598.253 526.536 598.713C537.97 603.177 546.417 605.303 556.074 613.607C557.194 614.569 561.229 621.19 562.566 616.886C563.572 613.647 556.32 605.963 553.633 603.928C552.481 603.056 542.852 597.155 542.196 597.013ZM610.457 604.553C608.309 604.136 605.589 606.779 605.949 608.591C606.198 609.847 613.554 616.499 615.081 615.105C614.508 611.149 610.432 608.635 610.457 604.553C611.933 604.84 612.241 607.271 615.102 604.189C617.149 601.985 617.448 599.777 616.619 597.013C614.281 599.01 610.476 601.311 610.457 604.553ZM581.151 606.811C585.167 605.308 589.553 600.994 584.618 597.78C581.57 599.977 580.843 603.246 581.151 606.811ZM406.831 616.61C409.336 615.437 411.439 617.33 413.16 617.242C414.172 617.19 418.999 615.774 419.078 614.747C419.244 612.6 406.99 599.461 402.978 601.91L406.055 606.057C399.712 603.742 375.35 598.049 373.8 608.098C372.997 613.3 378.549 607.169 379.832 608.329C378.465 612.349 380.421 615.134 384.453 612.089C384.721 618.748 389.85 610.285 389.871 616.622L393.333 614.37C394.716 614.885 393.615 616.556 393.717 616.61C394.884 617.232 396.789 614.826 397.928 615.116C399.076 615.407 398.23 619.322 403.683 616.176C405.169 615.318 405.964 613.517 407.594 612.847L406.831 616.61ZM486.275 604.56L471.061 613.431C463.996 616.408 454.612 616.823 447.711 619.258C439.881 622.02 437.977 626.285 427.258 627.162C415.065 628.161 378.93 627.297 370.603 618.479C369.384 617.188 365.521 610.137 365.931 615.495C367.275 633.048 407.215 632.086 419.549 630.936C434.688 629.525 438.331 625.523 451.168 621.13C463.187 617.017 479.094 616.645 486.275 604.56ZM718.957 604.662C717.601 604.795 714.465 607.678 712.806 608.47C711.063 609.303 709.076 609.342 707.095 610.428C704.81 611.68 697.354 620.931 696.979 623.185C695.564 631.682 718.029 635.642 720.829 632.148C721.364 631.48 722.17 625.057 722.221 623.7C722.281 622.09 721.438 620.415 721.456 618.504C721.476 616.36 723.739 604.196 718.957 604.662ZM727.418 604.658C724.718 605.539 726.884 610.946 726.956 613.193C727.195 620.623 726.861 628.116 726.476 635.515C728.627 638.377 745.779 632.423 748.462 629.755C753.652 624.592 750.038 610.194 743.669 606.657C740.317 604.795 730.846 603.541 727.418 604.658ZM510.192 606.806C519.499 610.023 529.039 613.701 537.113 619.324C538.708 620.435 544.755 626.147 545.442 626.319C547.52 626.839 552.574 623.039 554.138 621.519C544.387 613.057 527.116 604.117 513.747 605.401C512.969 605.476 510.121 605.699 510.192 606.806ZM620.476 614.355C621.127 612.761 619.103 606.361 617.024 606.819C613.8 607.53 617.505 614.379 620.476 614.355ZM573.433 612.101C572.199 612.456 564.369 614.365 566.496 616.614C567.12 617.274 573.168 613.458 573.433 612.101ZM503.241 616.613C510.702 617.403 517.979 622.63 523.985 626.879C527.972 629.699 532.03 635.822 536.706 633.888C543.636 631.021 540.706 629.021 536.344 626.108C528.995 621.199 518.026 615.498 509.065 615.075C508.267 615.038 500.838 614.727 503.241 616.613ZM524.04 637.692C527.185 633.446 509.643 624.182 506.298 623.058C500.804 621.211 486.863 618.815 481.445 619.816C477.069 620.624 470.7 625.156 468.54 629.064C471.357 629.558 474.088 627.891 476.241 626.42C477.507 627.685 470.213 631.641 473.559 632.449C476.743 633.218 478.592 628.841 481.647 628.689C480.681 630.353 479.789 631.932 480.109 633.956L485.504 631.706L485.104 634.704L490.124 631.698C490.493 633.21 488.588 633.753 488.566 635.095C488.513 638.433 500.844 640.221 503.238 637.724C503.496 638.05 502.729 639.868 503.665 640.044C506.388 640.556 522.664 639.55 524.04 637.692ZM592.712 623.408L570.748 632.466C560.465 632.672 554.658 640.013 546.48 644.181C532.177 651.472 497.758 649.989 482.261 645.802C477.057 644.397 472.373 640.917 468.48 637.391C467.193 636.226 467.056 633.579 465.446 635.093C463.711 646.12 473.991 649.943 483.151 651.718C515.971 658.078 540.911 652.527 568.435 634.725L568.803 636.206C577.369 638.034 592.927 633.855 592.712 623.408ZM632.05 631.706C624.183 631.81 616.447 628.401 608.963 632.124L604.29 636.968C612.493 635.433 621.895 634.918 629.908 632.987C630.683 632.8 632.232 632.772 632.05 631.706Z" fill="black"/>
<path d="M222.101 519.348C222.748 519.266 223.78 518.327 224.796 518.586L224.801 517.84H211.303C211.077 517.84 207.015 517.039 207.064 516.339C211.033 515.073 235.852 516.475 236.426 514.373C237.075 511.999 234.419 508.431 234.796 505.808L208.607 505.018L209.742 503.515C216.934 503.515 225.009 505.123 232.165 504.303C233.231 504.181 234.366 504.287 234.769 503.028L226.342 455.611C225.137 448.215 236.016 445.686 241.761 444.313C256.815 440.717 272.894 440.22 288.192 442.674C295.394 443.83 310.038 445.9 310.263 454.875C308.505 475.537 305.539 496.089 303.481 516.716C302.533 526.22 305.964 534.507 293.79 538.156C281.954 541.704 259.097 541.357 247.337 537.658C239.535 535.203 238.703 532.89 229.125 533.754C223.738 534.24 215.858 536.828 210.469 536.636C209.567 536.604 208.732 536.105 208.603 535.19C212.198 534.739 217.108 534.969 220.514 534.385C225.646 533.507 225.456 533.128 231.305 532.88C231.745 532.861 236.927 531.605 237.147 531.404C237.347 531.223 235.571 527.527 236.367 526.134C233.853 525.287 235.908 528.362 234.455 528.372C234.06 528.375 232.73 527.433 231.349 527.542C230.078 527.643 228.554 528.396 228.272 528.396H210.917L224.796 526.143C222.579 525.789 220.536 525.261 218.232 525.322C216.243 525.374 205.267 525.995 204.487 526.257C203.559 526.569 201.918 529.545 200.504 530.658C184.842 542.99 137.011 542.351 117.243 540.436L89.8252 544.977C90.5299 543.791 93.6437 543.324 95.0529 542.935C105.312 540.109 116.191 537.463 126.84 536.687C127.284 534.951 126.508 535.447 125.871 534.963C124.199 533.689 118.601 531.735 118.361 531.401C117.86 530.704 119.522 529.397 119.593 528.772C119.694 527.88 118.423 525.884 118.354 524.25C117.016 492.673 115.604 460.072 116.021 428.527C116.289 408.253 135.465 400.352 139.002 385.329C140.445 379.201 141.8 345.202 139.996 340.228C138.892 337.188 135 334.793 136.657 331.057C137.081 330.1 138.317 329.417 138.683 328.586C140.604 324.223 133.857 320.751 136.501 315.017C138.777 310.083 158.92 310.092 164.038 310.692C168.263 311.188 173.413 312.515 174.37 317.245C174.97 320.209 172.557 322.393 172.652 324.445C172.717 325.857 174.858 327.377 175.272 329.112C176.899 335.915 171.616 337.641 171.535 340.979C174.748 354.837 172.32 372.662 175.633 386.071C177.267 392.686 185.382 397.301 189.716 402.464C205.446 421.207 202.559 462.419 202.396 485.758C202.324 496.117 202.698 506.39 203.191 516.722C202.949 517.938 205.928 519.348 206.675 519.348C211.326 519.348 217.746 519.901 222.101 519.348ZM163.093 324.054C162.162 319.322 165.472 319.154 168.48 316.892C167.851 316.16 167.312 315.571 166.362 315.207C162.786 313.834 146.068 313.578 142.831 315.178C138.528 317.305 141.88 319.065 145.017 319.488C149.698 320.119 161.164 316.416 161.537 322.982C161.964 330.519 146.46 330.107 141.504 331.604C141.347 332.69 143.607 332.761 144.413 332.89C146.444 333.217 149.41 332.848 151.116 333.819C151.711 334.157 150.89 335.076 151.148 335.373C152.407 336.819 168.361 337.504 168.458 331.919C168.557 326.265 162.345 328.387 162.34 326.694L168.491 324.062L163.093 324.054ZM162.325 382.492C161.781 387.97 162.325 394.909 162.325 400.589C162.325 402.485 160.015 400.85 159.247 400.212C161.165 403.388 151.137 410.315 152.305 411.522C153.988 411.237 161.498 402.996 162.321 403.985C161.323 406.542 163.516 406.93 163.801 407.582C166.128 412.908 162.617 413.03 160.011 416.793C160.384 417.105 167.568 412.418 166.175 415.659C165.744 416.661 158.307 423.431 159.243 424.337C161.637 424.429 167.075 416.46 167.442 420.657C167.466 420.929 166.64 421.797 166.956 422.075C167.285 422.363 173.677 419.813 170.811 426.597C172.936 426.209 175.801 426.274 177.817 426.938C181.319 428.091 178.985 432.238 185.456 425.849C184.222 430.609 179.699 433.976 176.98 437.906C177.857 438.666 183.195 433.155 183.939 432.275C193.482 420.997 191.17 413.103 181.584 402.873C178.825 399.928 170.719 394.71 169.778 391.794C167.978 374.497 168.898 357.112 166.178 339.886C159.537 340.512 152.69 341.677 146.131 340.642C145.722 351.542 146.656 362.58 146.159 373.475C145.908 378.981 145.468 389.119 142.903 393.667C135.343 407.071 122.347 413.643 123.725 431.538C124.219 437.951 127.754 436.943 129.289 431.629C134.451 413.764 131.66 414.459 145.378 400.61C149.944 396 148.664 388.091 148.472 381.707C148.412 379.691 147.415 377.657 147.584 375.704C147.745 373.835 150.214 374.578 150.741 371.919C152.045 365.35 147.628 350.168 151.516 345.535C152.183 344.741 152.681 344.186 153.836 344.417C151.417 353.46 152.76 361.869 153.228 371.026C155.693 375.796 160.031 374.505 164.638 374.582C163.446 376.635 162.558 380.139 162.325 382.492ZM140.736 418.308C143.429 416.36 146.342 413.083 147.662 410.014C145.241 412.24 140.82 414.787 140.736 418.308ZM187.785 438.667C191.944 435.862 194.935 434.412 193.169 428.865C190.825 431.489 188.793 435.334 187.785 438.667ZM194.716 493.707C194.521 481.24 195.945 468.846 195.523 456.356C195.463 454.574 194.781 452.924 194.688 451.14C194.592 449.302 195.479 437.889 193.563 437.928C189.843 438.004 193.051 449.212 193.209 451.077C194.335 464.362 192.306 479.14 193.175 492.593L194.716 493.707ZM123.763 440.932C123.255 443.662 124.466 446.237 124.562 448.815C125.047 461.834 122.881 478.846 124.491 491.11C125.023 495.157 128.823 495.606 132.217 496.376C145.008 499.277 169.717 499.083 182.679 496.644C190.014 495.264 186.103 490.868 186.189 485.013C186.328 475.541 187.556 465.964 187.038 456.356C186.908 453.934 186.226 444.449 184.701 443.549C164.368 444.464 143.598 446.249 123.763 440.932ZM232.516 451.496C230.879 453.654 239.181 455.396 240.219 455.64C254.924 459.097 281.906 459.383 296.538 455.638C307.913 452.727 303.162 450.331 294.996 448.086C279.978 443.957 255.803 444.45 240.832 448.684C239.667 449.013 232.778 451.151 232.516 451.496ZM304.242 457.522C297.155 458.593 290.192 460.571 283.025 461.278C273.344 462.232 260.435 462.126 250.739 461.191C244.465 460.586 238.536 458.321 232.517 456.769C235.065 463.278 235.968 483.456 240.597 487.694C241.897 488.885 244.206 489.748 245.994 489.958C253.45 490.835 273.763 487.957 278.78 491.839C279.594 492.469 280.239 492.996 280.315 494.102L279.229 517.89C278.844 520.316 276.487 522.186 274.187 522.763C269.983 523.817 251.982 522.827 248.164 521.014C242.725 518.431 245.802 515.526 245.698 511.431C245.576 506.65 243.94 501.227 244.517 496.337L241.774 494.469C241.842 497.343 241.651 500.248 241.778 503.129C241.948 507.015 243.626 514.009 243.391 517.473C243.271 519.241 241.45 520.315 242.1 521.59C244.7 526.691 260.98 526.646 266.448 526.896C266.09 527.88 262.318 528.227 261.342 528.301C255.285 528.762 249.313 527.419 243.316 526.892C242.743 529.31 246.589 528.659 247.935 529.159L245.625 531.405C257.284 533.778 271.874 536.214 283.626 533.498C284.809 533.225 295.302 529.586 295.76 529.14C298.538 526.428 288.294 528.39 287.687 528.426C286.849 528.477 284.76 528.909 284.969 527.652C287.451 526.4 296.279 525.917 297.175 523.369C297.482 518.217 298.53 512.76 298.839 507.653C298.969 505.505 299.583 493.942 299.307 492.948C298.263 489.184 297.108 491.77 295.539 492.364C293.103 493.286 290.469 493.163 288.826 495.607C288.205 497.175 290.622 496.498 290.364 497.097C290.168 497.552 286.602 500.706 289.219 501.251C291.523 501.73 293.686 497.356 296.529 498.238C297.051 498.758 296.021 511.008 295.598 512.779C295.141 514.687 284.639 523.146 282.999 523.127C282.05 523.116 281.517 522.742 281.224 521.868C280.288 519.075 283.005 506.336 283.411 502.373C283.812 498.441 282.222 492.589 284.943 489.544C289.184 484.798 298.148 488.458 299.966 485.377C303.051 480.147 302.419 463.984 304.242 457.522ZM126.073 498.989V518.971C126.073 520.431 131.593 524.816 133.083 525.69C143.906 532.034 173.515 529.59 185.217 524.762C189.354 523.056 195.806 520.24 193.566 514.828C188.343 520.926 180.22 522.013 172.643 523.026C162.514 524.38 147.254 525.758 137.485 523.649C136.219 523.376 129.301 521.209 129.152 520.459C131.794 516.962 130.574 503.152 128.26 500.244C127.587 499.399 127.475 498.699 126.073 498.989ZM274.169 517.836C276.163 520.074 278.487 508.142 276.089 507.287L274.169 517.836ZM227.112 521.621C225.387 519.827 203.303 520.297 203.218 522.737C203.935 525.671 209.184 524.787 212.106 524.658C215.499 524.507 220.973 524.14 224.211 523.653C224.96 523.54 228.501 523.067 227.112 521.621Z" fill="black"/>
<path d="M924.385 489.94C932.365 492.766 938.816 496.592 947.358 498.77C967.815 503.985 987.817 504.479 1007.43 496.104C1009.59 495.181 1020.4 489.042 1021.16 489.189C1021.81 489.317 1022.21 490.399 1022.33 491.075C1023.15 495.5 1021.71 508.627 1024.31 511.766C1025.89 513.687 1039.56 520.5 1042.64 521.746C1050.77 525.035 1059.49 526.783 1068.24 527.635C1072.14 528.015 1088.43 527.78 1090.23 529.511C1091.73 530.949 1089.58 537.451 1089.06 539.717C1081.19 574.535 1067.75 623.418 1021.19 618.872C1007.95 617.581 1000.67 605.645 993.311 596.363C959.963 614.053 934.463 580.071 927.074 551.777C924.549 542.111 923.212 529.763 922.805 519.756C922.401 509.804 922.859 499.753 924.385 489.94ZM1016.93 495.977C1012.76 497.144 1009.41 499.974 1005.35 501.616C982.359 510.924 949.739 506.813 928.244 495.219C928.621 520.635 928.011 547.657 941.216 570.374C950.586 586.494 966.478 601.163 986.619 592.634C1020.98 578.083 1018.67 526.239 1016.93 495.977ZM1036.22 526.125C1036.92 525.251 1028.81 520.687 1027.77 520.43C1024.26 519.569 1023.89 529.987 1026.66 530.596C1028.42 530.985 1033.86 526.143 1036.22 526.125ZM1041.62 526.897C1040.3 526.81 1039.18 525.729 1037.77 526.462C1037.37 526.672 1031.88 533.207 1032.37 533.671C1034.04 533.834 1042.19 527.611 1041.62 526.897ZM1047.79 529.913C1047.34 529.387 1045.37 529.483 1044.46 529.968C1043.55 530.453 1035.89 536.473 1036.99 537.441C1039.57 538.721 1048.66 530.946 1047.79 529.913ZM1056.27 532.177C1056.04 531.829 1049.17 529.597 1049.72 533.766C1050.46 539.355 1057.66 534.255 1056.27 532.177ZM1079.41 535.186C1076.31 536.144 1070.49 531.445 1070.16 535.931C1073.91 535.996 1078.09 541.126 1079.41 535.186ZM1049.33 537.452C1048.01 537.277 1046.91 537.596 1045.69 538.031C1038.34 540.645 1046.72 543.571 1049.33 537.452ZM1023.11 547.996C1023.85 548.722 1030.8 542.017 1031.22 541.226C1031.92 539.899 1031.34 539.779 1030.42 538.95C1024.91 541.162 1023.65 541.848 1023.11 547.996ZM1034.68 544.238C1033.95 543.658 1021.26 551.167 1023.89 554.787C1025.07 554.087 1035.32 544.752 1034.68 544.238ZM1071.69 566.851C1074.77 558.619 1063.44 549.595 1055.89 548.753C1051.61 548.276 1047.38 549.232 1043.16 549.516C1045.68 554.117 1051.51 554.129 1055.75 556.429C1058.03 557.661 1070.01 568.044 1071.69 566.851ZM1045.47 554.791C1044.74 554.075 1037.05 559.724 1036.99 561.566C1037.41 561.943 1043.18 557.951 1043.87 557.367C1044.44 556.886 1046.25 555.556 1045.47 554.791ZM1051.63 576.648C1053.03 573.321 1055.95 570.819 1057.18 567.346C1057.97 565.143 1055.78 564.334 1054.54 566.304C1053.28 568.311 1049.86 574.313 1050.1 576.271L1051.63 576.648ZM1045.48 599.273C1050.76 595.146 1051.26 589.033 1048.47 583.155C1044.89 575.628 1027.02 563.734 1019.22 570.255C1018.58 570.784 1019.07 571.975 1018.53 572.524C1016.17 574.923 1012.08 576.722 1012.31 581.174C1013.11 581.911 1019.73 580.232 1021.02 579.51C1024.48 577.565 1022.75 573.838 1029.05 577.258C1031.52 578.602 1037.91 584.879 1039.64 587.258C1042.2 590.766 1044.17 595.171 1045.48 599.273ZM1008.45 593.993C1008.48 591.56 1008.67 587.873 1006.15 586.458C1005.17 588.784 1004.87 593.529 1008.45 593.993ZM1035.44 595.501C1035.57 592.801 1032.61 588.403 1030.4 591.707C1028.61 594.388 1033.12 595.273 1035.44 595.501ZM1011.53 597.771C1009.39 597.131 1006.86 602.243 1007.69 603.041C1011.19 603.382 1011.91 600.649 1011.53 597.771ZM1017.34 606.068C1014.61 606.712 1018.45 609.691 1020.45 609.816C1025.69 610.145 1020.93 605.223 1017.34 606.068Z" fill="black"/>
<path d="M1020.52 310.972C1010.84 320.275 994.454 331.092 982.461 337.477C978.056 339.821 975.799 342.381 970.663 340.257C955.52 333.994 932.35 314.909 922.98 301.671C910.035 283.383 906.423 259.253 930.789 248.507C950.087 239.996 967.469 250.393 977.216 266.734C981.932 260.933 985.92 255.261 993.007 252.025C1007.38 245.463 1026.7 247.874 1035.31 261.983C1046.33 280.044 1033.78 298.24 1020.52 310.972ZM960.639 293.139C963.004 290.931 976.221 281.825 976.712 279.79C977.337 277.198 969.622 265.052 967.557 262.617C947.549 239.034 910.192 257.062 921.927 286.113C930.125 306.408 954.25 323.997 973.488 333.694C993.522 322.984 1032.54 300.403 1031.64 274.661C1030.73 248.324 990.296 248.315 984.547 271.269C987.872 270.25 990.835 266.005 994.381 265.37C996.12 265.059 997.401 265.845 998.681 265.71C1001.68 265.395 1004.7 264.954 1007.68 264.494L1006.14 266.741C1008.55 266.451 1010.15 267.651 1011.9 269.032C1012.74 269.689 1018.79 276.044 1018.95 276.529C1019.88 279.362 1017.11 281.211 1015.4 282.971C1014.87 284.43 1016.95 283.932 1016.97 284.471C1017 285.688 1014.61 287.04 1015.4 287.857C1016.67 289.182 1021.17 281.45 1021.55 285.208C1019.8 286.944 1020.32 289.412 1019.42 291.416C1015.27 300.66 991.956 317.781 982.79 323.472C976.418 327.429 974.56 329.9 967.044 326.457C951.799 319.473 934.044 299.614 927.744 284.839C927.124 283.384 925.057 282.149 924.557 279.771C921.904 267.131 932.55 254.91 945.828 257.495C958.543 259.971 965.658 270.202 971.218 280.709C968.271 283.996 965.061 287.161 962.171 290.497C961.439 291.342 960.305 291.729 960.639 293.139ZM962.942 272.784C960.923 272.257 961.579 273.561 960.95 274.208C959.122 276.085 957.575 278.24 956.004 280.313C956.853 281.116 964.248 274.385 962.942 272.784ZM967.57 277.309C965.754 275.565 961.28 283.903 959.861 284.838C960.838 285.682 969.278 278.949 967.57 277.309Z" fill="black"/>
<path d="M123.763 621.134L135.722 618.888L144.584 618.872C144.368 617.592 143.075 617.53 142.1 617.161C133.051 613.735 119.726 616.865 110.294 617.403C109.052 617.474 105.014 617.969 104.481 616.626C110.736 615.463 117.047 614.372 123.378 613.606C126.921 613.178 131.423 614.38 134.542 611.716C116.262 596.977 128.568 576.813 146.696 569.293C162.294 562.823 215.385 549.155 231.226 549.795C241.055 550.192 259.747 560.745 269.547 564.956C275.097 567.341 295.153 572.835 296.401 578.718C298.789 589.975 276.804 589.93 271.864 596.636C271.857 599.828 287.954 599.576 280.992 608.59C276.609 614.265 256.207 616.413 248.551 618.346C243.526 619.614 238.42 620.976 233.449 622.433C222.204 625.726 203.47 634.66 192.804 634.773C179.485 634.914 166.187 623.739 154.178 621.942C145.144 620.591 133.239 622.873 123.763 621.134ZM271.073 575.133C272.103 573.677 269.01 571.118 267.94 570.298C263.041 566.541 237.685 554.709 231.78 553.622C224.402 552.264 204.152 557.422 195.933 559.366C179.315 563.298 144.638 570.452 135.454 584.694C130.948 591.681 131.302 592.958 138.046 597.75C145.053 602.728 167.386 609.514 176.58 612.107C178.725 612.712 180.894 613.507 183.15 613.594L137.217 590.232C136.051 588.106 139.936 585.18 141.49 583.808C152.598 574.001 180.621 567.263 195.462 564.184C209.416 561.289 223.57 559.043 237.913 559.319L183.927 575.156C183.79 576.61 185.46 575.739 186.241 575.533C189.185 574.756 192.273 572.911 195.487 573.257C191.963 575.673 187.731 576.637 183.91 578.528C183.367 578.797 179.677 580.3 180.462 581.19C186.893 579.746 192.925 576.232 199.308 574.725C200.084 574.542 201.832 573.735 201.655 575.136C195.82 578.03 189.816 580.825 184.157 584.048C183.789 584.257 181.702 585.174 182.77 585.708L208.603 575.907C203.972 581.246 194.723 581.865 190.092 587.203C199.118 584.442 207.72 578.86 217.044 576.987C217.832 576.829 220.298 575.932 220.167 577.399L203.452 584.06L197.809 587.203C206.748 585.544 215.249 581.401 224.029 578.924L217.623 582.833L199.351 590.219C200.933 590.333 202.47 590.263 204.022 589.894C210.09 588.455 217.666 585.645 224.032 583.82C226.228 583.19 228.072 581.137 230.968 581.94L206.299 592.122L205.518 593.235C208.124 595.092 221.773 586.464 225.568 586.464L210.334 595.323C208.467 595.865 208.938 596.474 210.535 596.277C215.798 595.629 230.338 587.946 236.742 585.689C241.3 584.082 270.049 576.579 271.073 575.133ZM290.358 579.667C290.714 578.063 289.522 577.955 288.567 577.278C284.804 574.61 279.781 573.531 275.715 571.376C274.204 578.082 285.53 578.293 290.358 579.667ZM265.68 580.432C252.577 583.3 239.699 585.955 227.594 591.825C226.346 592.43 223.882 593.541 223.262 594.744C233.998 591.794 244.787 588.652 255.282 584.963C258.587 583.801 263.172 582.599 265.68 580.432ZM288.819 580.432C277.901 581.584 266.405 585.265 255.834 588.518C238.923 593.721 222.572 600.367 205.843 606.056C190.623 601.851 174.058 588.805 158.803 585.751C158.103 585.611 155.212 585.124 155.389 586.447C159.749 588.385 163.524 591.363 167.707 593.636C176.257 598.283 189.519 605.678 198.304 608.967C205.834 611.786 208.735 609.83 215.944 607.582C235.934 601.348 258.348 592.777 278.214 585.514C281.701 584.239 286.422 583.134 288.819 580.432ZM188.555 626.411C196.177 630.555 202.834 624.604 209.941 622.072C220.399 618.347 233.437 613.639 244.057 610.936C247.484 610.064 275.667 605.762 275.692 604.176C275.712 602.888 273.34 603.195 272.46 603.244C264.193 603.699 254.316 606.947 245.416 606.233L195.854 622.637C187.805 616.507 177.793 613.732 167.727 612.855L178.77 618.261C179.803 619.004 195.21 624.064 193.948 624.905C192.473 625.003 189.094 624.605 188.555 626.411Z" fill="black"/>
<path d="M1126.19 426.106C1132.03 433.254 1130.97 441.052 1125.87 448.265C1122.33 453.265 1100.38 473.244 1095.11 475.495C1078.45 482.613 1093.06 452.302 1085.2 446.977C1083.96 446.967 1078.13 459.173 1072.7 460.374C1066.38 461.771 1058.93 456.911 1054.35 453.006C1048.9 460.888 1044.17 469.41 1036.61 475.616C1035.74 476.327 1035.35 477.445 1033.91 477.115L1051.55 451.695C1051.99 448.748 1045.72 448.594 1046.2 442.071C1046.48 438.258 1056.99 426.778 1051.45 424.836C1050.2 424.401 1034.86 429.333 1031.6 430.003C1028.18 430.706 1017.76 432.767 1014.93 432.594C1013.77 432.523 1013.1 431.949 1013.08 430.792C1013.02 427.828 1027.53 409.479 1030.42 406.233C1036.95 398.916 1046.87 389.564 1057 387.731C1060.05 387.18 1065.35 387.774 1067.8 386.216C1069.02 385.435 1071.77 380.958 1073.22 379.456C1084.81 367.466 1098.49 358.167 1113.85 351.307C1123.04 347.2 1145.09 338.939 1154.66 339.244C1161.97 339.477 1158.01 357.735 1157.1 362.678C1153.1 384.582 1140.59 408.624 1124.17 423.995C1123.79 425.336 1125.61 425.399 1126.19 426.106ZM1150.37 346.676V357.232L1151.95 350.094C1151.96 348.891 1152.34 345.616 1150.79 345.349C1149.88 345.191 1139.41 348.181 1137.44 348.739C1116.16 354.781 1091.1 366.905 1077.12 384.021C1073.12 388.92 1057.27 412.889 1057.81 417.913C1058.02 419.91 1065.27 426.686 1068.1 425.77C1069.5 425.317 1079.21 412.259 1081.33 410.003C1082.37 408.899 1087.28 403.97 1088.29 404C1089.7 404.043 1088.99 405.416 1088.87 406.045C1087.42 413.86 1080.81 423.581 1079.72 431.873C1078.9 438.134 1086.07 436.426 1090.18 435.239C1115.42 427.935 1139.72 402.455 1146.12 377.585C1147.81 371.005 1145.55 367.024 1141.76 361.507C1140.53 359.718 1134.16 353.86 1135.76 351.997C1136.35 351.32 1148.61 348.619 1150.37 346.676ZM1147.28 353.465C1146.33 352.242 1145.89 353.479 1145.74 354.579C1145.45 356.808 1145.95 359.459 1145.75 361.752C1147.75 361.415 1147.55 353.809 1147.28 353.465ZM1063.21 392.675C1054.54 393.839 1048.99 395.56 1042.78 401.724C1038 406.467 1034.84 411.893 1031.65 417.214C1030.24 419.576 1027.49 421.526 1026.97 424.34C1036.6 416.341 1042.02 403.966 1052.81 397.201C1053.57 398.5 1051.2 400.598 1050.41 401.642C1048.07 404.719 1039.54 413.931 1038.54 416.436C1037.1 420.049 1043.41 414.019 1043.95 413.425C1049.34 407.492 1052.92 399.5 1059.75 394.938C1060.86 395.486 1059.63 396.786 1059.21 397.432C1057.18 400.636 1054.28 403.861 1052.03 406.998C1051.6 407.608 1049.96 408.468 1051.26 409.256C1053.05 408.079 1064.28 393.643 1063.21 392.675ZM1047.79 414.546L1045.09 416.042L1040.08 421.317C1042.34 422.493 1048.19 414.894 1047.79 414.546ZM1111.04 437.159C1111.5 437.595 1122.94 429.988 1118.35 428.863C1116.62 428.441 1113.46 431.129 1112.94 432.622C1112.7 433.334 1113.29 434.436 1112.95 434.948C1112.7 435.31 1109.7 435.862 1111.04 437.159ZM1107.18 452.232C1110.37 452.219 1112.83 448.64 1115.26 446.943C1117.27 445.537 1118.68 446.404 1121.06 443.56C1123.48 440.658 1125.78 430.707 1119.74 433.223C1115.99 434.784 1100.7 448.369 1097.93 451.87C1097.32 452.653 1096.74 453.568 1096.38 454.494C1098.66 456.33 1117.7 436.394 1120.68 436.423C1121.62 436.432 1121.78 437.234 1121.07 438.29C1118.02 442.826 1110.34 447.31 1107.18 452.232ZM1058.58 434.147C1054.34 433.871 1052.52 437.946 1050.88 440.922C1051.6 441.587 1059.83 435.25 1058.58 434.147ZM1062.44 436.413C1060.83 435.161 1052.64 443.214 1053.96 444.696C1056.01 445.008 1062.98 436.826 1062.44 436.413ZM1067.07 440.179C1065.66 438.799 1058.91 448.062 1059.36 448.462C1060.74 448.748 1061.25 447.771 1062.07 446.973C1062.67 446.388 1067.57 440.668 1067.07 440.179ZM1071.71 448.469L1073.63 443.195L1065.53 452.232L1069.38 450.737C1069.5 450.834 1068.02 453.872 1069.77 453.733C1070.29 453.691 1076.03 446.439 1076.32 445.82C1076.47 445.495 1076.52 444.584 1075.95 444.703L1071.71 448.469ZM1104.87 453.755C1102.43 453.212 1092.7 463.78 1093.3 464.297C1094.74 464.626 1095.13 463.51 1096 462.798C1099.2 460.161 1102.07 456.796 1104.87 453.755Z" fill="black"/>
<path d="M260.408 122.612C264.124 123.015 268.455 123.837 271.847 125.372C274.108 126.395 279.303 131.019 280.723 131.017C281.504 131.015 285.15 128.551 286.854 127.971C300.658 123.267 309.611 132.066 312.828 144.507C323.033 141.904 342.228 142.647 344.188 155.723C346.125 168.641 329.127 172.645 319.276 173.24C314.276 173.542 307.988 171.918 303.905 172.542C301.343 172.933 298.05 175.346 295.027 175.925C288.784 177.119 287.407 177.469 281.507 179.296C275.638 181.112 267.609 182.682 261.447 182.282C256.955 181.991 250.689 179.061 246.791 179.234C244.254 179.347 241.623 181.502 239.086 182.314C227.904 185.89 212.133 188.503 201.138 183.187C197.485 181.42 196.666 178.857 193.527 176.998C178.728 179.8 163.15 181.473 148.435 177.403C125.059 170.937 129.645 148.156 146.196 136.746C157.323 129.076 171.692 127.159 184.328 132.43C186.718 127.726 187.635 123.779 190.995 119.465C209.693 95.4605 250.671 87.3064 260.408 122.612ZM251.801 132.528C250.477 124.923 257.665 124.85 254.259 116.922C249.287 105.349 234.254 101.652 222.608 103.621C208.427 106.017 184.041 123.916 191.631 140.068C186.648 141.341 185.852 137.564 182.567 135.741C174.878 131.475 161.55 132.905 153.854 136.693C144.595 141.249 132.669 155.511 139.625 165.657C148.505 178.61 180.842 175.299 193.932 170.594C200.466 168.246 205.328 163.064 211.681 160.431L205.968 166.526C203.639 171.2 197.533 174.214 203.718 178.402C211.172 183.448 230.692 180.027 238.885 176.839C246.121 174.023 253.551 167.912 259.906 163.453C260.868 163.151 261.452 163.641 261.046 164.568C260.216 166.46 252.12 172.255 251.853 173.729C250.979 178.551 268.512 178.019 271.453 177.762C275.641 177.395 282.495 176.163 284.961 172.505C283.361 172.831 276.698 168.568 278.029 167.218C286.182 173.729 290.601 164.706 296.933 162.703C297.323 162.58 298.192 162.499 298.072 163.066C294.836 167.273 289.047 168.62 285.735 172.488C288.583 172.345 291.604 172.821 294.425 172.32C297.397 171.793 299.469 169.222 302.367 168.774C307.536 167.975 313.146 169.773 318.548 169.505C327.122 169.081 346.858 163.778 338.515 152.19C334.684 146.869 324.654 146.168 318.516 146.859C312.208 147.569 312.261 151.45 307.728 154.395C305.512 152.888 307.861 151.087 308.125 148.767C309.521 136.499 295.979 125.712 284.572 133.281C282.431 134.701 280.2 138.975 278.417 139.331C274.684 140.077 277.636 135.186 275.759 132.104C274.9 130.693 269.172 127.983 267.391 127.468C262.835 126.15 260.081 126.083 256.169 128.885C254.198 130.297 253.883 132.431 251.801 132.528Z" fill="black"/>
<path d="M835.521 98.0684C897.917 91.4277 899.162 176.172 843.77 179.27C788.987 182.334 786.208 103.317 835.521 98.0684ZM843.906 104.169C789.638 103.812 799.549 184.918 850.069 171.858C889.09 161.771 884.259 104.434 843.906 104.169Z" fill="black"/>
<path d="M1182 504.27C1197.93 498.103 1216.73 511.345 1210.92 528.393C1207.71 537.81 1195.84 539.713 1186.98 538.98C1184.04 538.736 1180.39 537.048 1177.81 537.446C1173.26 538.15 1168.85 542.039 1161.56 542.039C1155.48 542.039 1145.16 536.816 1143.96 536.875C1140.02 537.069 1134.33 540.554 1128.52 540.406C1112.54 539.999 1097.21 522.719 1113.33 510.66C1119.88 505.763 1128.57 508.318 1129.56 507.718C1130.04 507.424 1133.59 499.904 1135.08 497.987C1142.23 488.792 1153.44 484.436 1165.05 487.277C1172.94 489.206 1181.76 495.672 1182 504.27ZM1178.92 510.296C1179.54 495.338 1165.41 488.225 1151.62 491.534C1141.73 493.907 1134.02 504.237 1134.17 514.07C1127.6 512.478 1125.5 509.277 1118.46 512.656C1109.16 517.12 1109.98 525.67 1117.61 531.393C1128.82 539.797 1147.28 532.473 1158.86 527.65C1157.46 531.867 1141.18 533.052 1153.28 536.49C1159.09 538.142 1168 537.647 1173.29 534.584C1176.91 532.484 1178.14 528.081 1182.38 526.881C1182.94 527.824 1181.02 528.547 1180.62 529.691C1179.21 533.71 1183.53 534.098 1187.02 534.421C1195 535.16 1204.65 534.107 1206.92 525.243C1210.11 512.78 1196.49 503.813 1184.92 507.496C1182.55 508.247 1181.17 509.809 1178.92 510.296Z" fill="black"/>
<path d="M331.088 563.307C339.71 562.576 362.33 563.976 365.441 573.76C371.953 594.24 336.992 595.591 324.128 593.034C313.767 590.975 298.95 584.758 308.106 572.51C312.918 566.075 323.367 563.963 331.088 563.307ZM328.769 567.073C325.705 567.377 312.563 570.229 311.999 573.342C311.628 575.391 323.443 579.908 325.643 580.243C333.036 581.368 347.366 580.473 354.38 577.783C359.727 575.732 363.126 573.584 356.618 570.321C348.901 566.452 337.285 566.226 328.769 567.073ZM361.319 578.166C350.264 582.087 334.104 585.847 322.588 582.475C319.871 581.68 317.323 579.582 314.82 578.751C313.358 578.265 313.156 577.7 311.975 579.293L318.126 583.821L315.822 584.939C322.64 587.975 329.77 587.109 337.059 587.179C341.612 587.223 345.896 588.649 350.78 586.311C352.189 585.637 351.983 584.267 352.084 584.194C352.483 583.906 353.354 585.424 354.121 585.574C355.923 585.928 362.431 581.038 361.319 578.166Z" fill="black"/>
<path d="M299.446 610.04C308.252 609.072 322.408 609.583 329.957 614.481C339.59 620.733 338.526 631.062 328.166 635.854C321.231 639.062 302.416 640.513 294.615 639.984C282.808 639.183 268.42 633.502 278.145 620.131C282.931 613.549 291.479 610.916 299.446 610.04ZM301.002 613.069C296.743 613.498 285.917 615.803 283.512 619.362C282.226 621.266 282.71 621.632 284.158 623.058C291.165 629.956 315.008 627.582 323.732 623.979C326.129 622.99 331.523 621.452 328.911 618.517C323.953 612.947 308.006 612.363 301.002 613.069ZM331.238 624.161C319.85 628.519 303.767 632.002 291.569 630.142C288.374 629.655 284.606 626.144 281.488 624.917C280.151 629.126 284.203 633.834 288.816 633.199L286.51 631.706C291.708 630.723 291.517 634.843 296.925 634.774C298.573 634.752 300.054 634.013 301.555 633.967C308.144 633.764 314.906 634.279 321.222 632.44L320.441 630.95C324.929 632.948 331.601 629.148 331.238 624.161Z" fill="black"/>
<path d="M692.212 649.802L684.857 650.58C676.459 649.861 667.841 648.599 659.427 648.294C638.312 647.53 617.537 651.564 596.565 652.434C617.632 648.378 639.354 644.864 660.97 646.032C671.435 646.598 681.745 649.253 692.212 649.802Z" fill="black"/>
<path d="M755.466 151.375C754.855 150.544 756.011 149.665 756.717 149.215C760.516 146.795 781.817 145.418 786.651 146.153C789.886 146.646 791.395 147.989 787.851 149.491C783.622 151.282 763.964 152.592 758.928 152.142C758.374 152.092 755.57 151.516 755.466 151.375Z" fill="black"/>
<path d="M895.074 151.39C896.596 149.423 913.503 152.518 916.675 153.26C919.292 153.871 922.514 154.635 924.911 155.764C927.561 157.012 931.307 159.193 926.338 159.722C922.525 160.127 900.968 155.832 897.382 154.024C896.625 153.642 894.15 152.584 895.074 151.39Z" fill="black"/>
<path d="M794.796 119.709C792.537 121.606 768.349 111.133 766.213 108.073C765.574 107.158 765.301 106.53 765.494 105.39C766.909 104.052 782.28 110.512 784.795 111.774C785.781 112.269 796.623 118.175 794.796 119.709Z" fill="black"/>
<path d="M922.834 111.423C923.163 112.808 922.368 112.889 921.557 113.56C918.695 115.93 898.962 122.135 895.401 121.909C894.513 121.852 892.774 120.533 892.771 120.09C892.752 117.317 918.683 109.676 922.834 111.423Z" fill="black"/>
<path d="M775.517 191.338C773.89 190.165 794.005 172.769 797.843 172.053C798.813 171.872 799.989 171.815 800.203 172.89C800.604 174.91 787.815 185.496 785.478 187.134C782.537 189.194 779.386 191.876 775.517 191.338Z" fill="black"/>
<path d="M903.555 195.109C901.953 195.296 900.639 195.059 899.133 194.538C896.381 193.586 882.512 183.825 880.76 181.585C879.296 179.714 878.967 177.547 881.987 178.073C888.449 179.199 900.154 189.523 903.555 195.109Z" fill="black"/>
<path d="M874.248 96.3343C872.384 94.5218 889.275 72.8881 891.604 72.9817C892.618 73.0225 892.587 74.3664 892.426 75.2593C891.725 79.1489 880.79 94.0468 877.127 95.7627C876.178 96.2072 875.319 96.4908 874.248 96.3343Z" fill="black"/>
<path d="M843.398 90.3035C842.413 89.4302 842.334 70.0946 842.617 67.3042C842.704 66.4481 843.731 60.9418 845.312 61.6584C846.558 62.2232 847.113 64.5009 847.266 65.7845C847.774 70.051 847.741 85.8766 845.607 89.0776C845.001 89.9879 844.652 90.5528 843.398 90.3035Z" fill="black"/>
<path d="M795.572 71.4629C797.079 71.1495 797.647 71.8005 798.695 72.5495C802.459 75.2405 812.436 88.4818 813.528 92.7549C813.731 93.5509 814.252 94.6336 812.91 94.8324C808.697 95.4565 796.353 75.9069 795.572 71.4629Z" fill="black"/>
<path d="M1114.89 602.299C1114.89 603.569 1112.33 603.733 1111.43 603.803C1099.42 604.743 1081.4 603.679 1068.99 603.045C1067.99 602.994 1065.73 603.657 1066.3 601.922C1067.65 597.766 1108.73 602.693 1114.89 602.299Z" fill="black"/>
<path d="M823.335 187.578C825 189.234 819.319 206.896 817.841 209.723C815.559 214.09 813.826 212.925 814.075 208.343C814.26 204.931 818.359 190.435 820.652 188.342C821.616 187.462 822.025 187.421 823.335 187.578Z" fill="black"/>
<path d="M850.342 189.087C852.645 187.387 856.821 198.721 857.29 200.003C857.99 201.914 862.22 212.614 859.192 213.21C856.821 213.676 854.854 207.693 854.179 206.061C853.14 203.545 848.295 190.598 850.342 189.087Z" fill="black"/>
<path d="M1125.69 596.266C1125.01 597.498 1121.24 597.734 1119.94 597.795C1110.15 598.256 1100.39 597.029 1090.61 596.954C1085.61 596.916 1080.04 598.54 1074.79 597.763C1074.65 595.881 1074.6 596.471 1075.95 596.277C1092.47 593.896 1109.1 595.35 1125.69 596.266Z" fill="black"/>
<path d="M117.587 531.403L69 536.683L78.2259 534.026C89.3741 532.929 102.252 530.079 113.343 529.847C114.859 529.815 117.043 529.606 117.587 531.403Z" fill="black"/>
<path d="M351.292 526.142C351.061 527.526 347.342 526.952 346.29 526.881C338.615 526.364 330.829 524.502 323.136 523.88L308.476 523.855L308.102 522.372C322.55 519.287 336.972 524.193 351.292 526.142Z" fill="black"/>
<path d="M1101.78 611.347C1101.96 612.663 1100.03 612.055 1099.09 612.093C1086.61 612.597 1074.39 611.347 1062.05 609.825C1061 609.695 1059.6 609.294 1060.91 608.327C1074.73 607.309 1088.08 610.473 1101.78 611.347Z" fill="black"/>
<path d="M1060.13 459.029C1059.13 463.001 1056.24 467.895 1053.82 471.327C1051.57 474.512 1048.77 478.37 1044.71 479.377C1048.47 473.736 1052.23 467.913 1056.41 462.557C1057.38 461.323 1058.36 458.775 1060.13 459.029Z" fill="black"/>
<path d="M887.743 582.686C887.273 582.688 886.293 584.237 885.421 582.686C884.939 581.829 885.717 581.559 886.368 581.342C891.756 579.549 900.658 580.186 906.249 581.203C907.519 581.434 907.572 580.71 907.411 582.686C900.865 582.706 894.298 582.66 887.743 582.686Z" fill="black"/>
<path d="M334.323 532.928C334.502 534.248 332.578 533.631 331.637 533.673C327.146 533.87 323.408 532.872 319.287 532.873C316.131 532.873 313.033 534.074 310.023 533.682C308.627 533.5 308.757 533.937 308.877 532.17C317.664 530.964 325.643 531.448 334.323 532.928Z" fill="black"/>
<path d="M227.115 499.743C227.174 500.233 226.093 501.251 225.958 501.251H204.747L204.752 500.505C205.708 500.794 206.984 499.743 207.447 499.743H227.115Z" fill="black"/>
<path d="M435.365 644.524L423.803 647.525C424.148 646.246 427.09 645.786 428.264 645.487C430.626 644.887 432.868 644.224 435.365 644.524Z" fill="black"/>
<path d="M590.604 160.629L586.55 168.721C594.079 167.911 612.868 172.335 616.976 178.564C622.983 187.674 618.764 202.505 610.827 209.427C597.61 220.954 576.258 219.906 561.631 211.556C553.374 206.843 544.943 198.586 557.627 192.859C557.942 196.255 554.327 194.648 557.242 198.504C560.275 202.516 563.55 203.488 568.035 201.156C568.272 201.342 566.09 203.627 566.56 205.175C568.592 211.873 580.443 197.971 583.457 197.382C584.771 198.727 574.428 206.414 573.438 207.561C576.212 209.339 585.584 201.863 586.546 202.664L580.376 210.189C588.305 208.87 593.081 202.489 598.505 197.382C598.824 199.348 595.908 203.419 594.602 204.877C592.891 206.787 590.038 207.709 588.86 210.189C590.808 210.576 592.279 207.907 593.873 207.938C594.937 207.959 595.822 209.317 597.004 209.456C601.157 209.944 609.873 201.006 611.623 197.387C617.556 185.115 611.298 177.577 599.226 174.049C589.082 171.084 580.679 172.38 570.353 173.245C570.335 168.917 580.113 169.36 581.039 168.62C581.627 168.15 582.112 162.681 581.97 161.525C581.084 154.313 566.47 160.103 568.102 154.846C568.92 152.213 578.966 152.641 581.525 152.898C584.59 153.204 587.264 154.638 590.08 155.091C592.212 155.434 595.013 154.705 596.854 155.255C601.263 156.569 591.06 160.09 590.604 160.629Z" fill="black"/>
<path d="M538.721 204.926C538.249 209.603 529.132 208.103 531.595 213.018C541.538 232.865 574.527 236.456 593.66 230.347C598.042 228.948 602.704 225.053 607.362 226.398C606.499 227.115 607.029 228.412 606.046 229.06C605.431 229.464 599.292 231.99 598.098 232.423C573.023 241.521 541.903 237.193 525.889 214.774C524.304 214.519 518.45 221.174 516.343 221.893C513.111 222.996 516.389 216.075 516.987 214.96C520.893 207.68 530.654 202.942 538.721 204.926Z" fill="black"/>
<path d="M480.102 215.463C478.898 217.183 474.687 215.265 473.215 214.291C468.149 210.936 466.903 206.092 469.139 200.606C470.833 196.451 477.733 193.839 470.819 189.49C463.439 184.848 458.85 191.34 458.499 198.134C455.825 197.482 455.383 195.792 455.362 193.233C455.294 185.063 464.486 181.382 471.801 184.006C476.054 185.531 487.04 195.868 487.684 200.187C488.559 206.066 482.41 199.633 481.636 199.28C475.846 196.636 471.816 204.405 474.524 209.247C475.661 211.278 481.674 213.218 480.102 215.463Z" fill="black"/>
<path d="M543.279 163.51C541.809 162.52 533.585 166.415 530.694 165.664C527.271 164.775 533.068 162.045 534.108 161.573C539.899 158.945 552.299 154.412 558.429 155.118C566.117 156.002 555.2 159.792 554.496 161.189C553.377 163.414 558.575 173.616 552.631 175.213C551.011 175.649 545.753 172.815 544.841 171.417C543.576 169.475 544.431 164.287 543.279 163.51Z" fill="black"/>
<path d="M520.199 153.639L518.661 153.259C519.739 144.657 530.333 122.789 540.658 123.409C542.915 123.545 545.767 125.829 544.551 128.013C543.968 129.061 537.356 132.924 535.63 134.408C529.483 139.693 523.832 146.421 520.199 153.639Z" fill="black"/>
<path d="M595.022 139.318C591.945 137.401 590.92 133.463 588.466 131.032C583.688 126.301 576.59 124.076 570.668 121.27C569.355 120.611 569.708 122.734 569.194 122.751C563.254 122.17 571.426 113.472 572.944 113.733C573.694 113.862 574.834 115.706 575.792 116.277C585.378 121.998 594.13 126.85 595.022 139.318Z" fill="black"/>
<path d="M617.029 169.477C621.097 168.638 626.41 181.592 621.64 184.544C620.937 184.547 616.106 172.714 615.987 171.953C615.834 170.969 616.062 169.676 617.029 169.477Z" fill="black"/>
<path d="M527.923 177.777C528.224 179.274 527.204 179.575 526.152 180.185C521.028 183.154 513.635 183.729 509.423 189.083C511.59 181.875 520.798 178.102 527.923 177.777Z" fill="black"/>
<path d="M509.414 238.088C508.66 238.695 503.289 235.461 502.829 234.311C502.206 232.755 504.359 230.312 501.702 228.301C506.862 228.774 505.308 231.308 506.036 233.593C506.323 234.491 509.636 237.91 509.414 238.088Z" fill="black"/>
<path d="M549.232 181.628C553.848 180.398 558.791 184.69 552.211 184.632C549.466 184.609 546.486 182.359 549.232 181.628Z" fill="black"/>
<path d="M503.235 171.736C501.73 171.749 502.523 168.627 502.676 167.792C503.02 165.908 503.845 162.284 505.55 161.188L503.235 171.736Z" fill="black"/>
<path d="M506.323 201.148C506.577 201.406 506.92 206.181 507.872 207.173C506.075 207.517 504.764 206.63 504.348 204.944C504.087 203.886 504.81 199.615 506.323 201.148Z" fill="black"/>
<path d="M732.316 444.699C729.182 443.05 728.404 438.94 726.492 436.451C724.051 433.274 719.998 431.189 718.44 427.364L728.838 434.157C730.248 437.55 732.361 440.923 732.316 444.699Z" fill="black"/>
<path d="M708.418 421.318L706.086 421.713C709.38 436.524 700.116 423.24 702.935 419.512C704.055 418.032 708.075 419.441 708.418 421.318Z" fill="black"/>
<path d="M718.436 435.647C716.536 436.087 716.391 434.07 715.542 432.847C713.229 429.515 711.359 425.872 709.956 422.086C711.981 420.09 719.055 433.732 718.436 435.647Z" fill="black"/>
<path d="M714.584 373.059C717.707 370.006 722.646 367.05 726.552 364.778C727.542 364.203 728.52 364.177 728.452 365.149C728.306 367.244 717.599 373.671 714.584 373.059Z" fill="black"/>
<path d="M742.347 447.711C739.918 449.871 739.08 443.575 738.637 442.671C737.444 440.236 735.967 438.004 734.638 435.658C739.915 436.906 739.241 440.627 740.381 443.986C740.695 444.912 743.049 447.087 742.347 447.711Z" fill="black"/>
<path d="M746.826 441.86C747.401 442.188 750.983 447.176 750.056 448.469C746.534 448.44 742.223 439.239 746.826 441.86Z" fill="black"/>
<path d="M739.254 540.464C739.601 540.79 741.569 546.7 741.616 547.654C741.726 549.864 740.688 551.711 740.744 553.657C740.833 556.788 742.383 561.233 742.345 564.209C742.313 566.807 740.752 569.77 740.753 572.507C740.753 575.865 742.468 579.279 742.408 583.073C742.319 588.704 738.905 592.463 738.109 597.775C736.186 594.78 737.694 591.754 737.72 589.086C737.783 582.798 738.484 576.216 738.527 570.276C738.592 561.168 736.577 550.387 737.721 541.579C737.858 540.529 738.127 539.407 739.254 540.464Z" fill="black"/>
<path d="M842.621 573.646C829.696 583.148 814.287 588.243 799.675 594.616C787.919 599.744 776.669 606.391 763.952 609.07L842.621 573.646Z" fill="black"/>
<path d="M851.106 555.549L845.459 559.446L785.545 587.957C790.089 584.715 795.854 581.891 800.954 579.277C817.39 570.855 834.329 563.286 851.106 555.549Z" fill="black"/>
<path d="M856.506 551.764L858.043 548.004C856.241 548.145 854.609 549.03 852.838 549.323C852.028 549.458 850.151 550.114 850.34 548.765C864.885 546.777 858.272 536.598 861.515 526.892C863.582 531.386 864.359 540.543 863.285 545.203C862.923 546.77 857.529 552.784 856.506 551.764Z" fill="black"/>
<path d="M840.303 528.404L807.66 543.608C799.787 546.261 792.317 550.49 784.005 551.763L833.621 530.531L840.303 528.404Z" fill="black"/>
<path d="M834.133 550.271L823.089 555.674L798.661 565.336L818.187 556.16L834.133 550.271Z" fill="black"/>
<path d="M635.91 554.78C639.154 548.639 644.808 544.693 649.419 539.717C651.268 537.721 673.97 511.969 675.239 513.316C674.993 515.001 673.237 516.869 672.142 518.198C662.283 530.157 650.584 541.165 639.786 552.168C639.156 552.809 636.723 555.539 635.91 554.78Z" fill="black"/>
<path d="M675.254 609.077L679.573 601.619C687.762 591.673 694.944 580.683 703.778 571.376C704.379 572.053 702.278 574.32 701.762 575.053C693.546 586.733 684.243 597.959 675.254 609.077Z" fill="black"/>
<path d="M714.584 579.678C709.33 588.087 703.496 597.09 696.08 603.799C698.996 597.59 703.676 591.135 708.108 585.781C708.935 584.781 713.433 578.635 714.584 579.678Z" fill="black"/>
<path d="M708.421 597.013C709.254 593.368 712.335 590.064 715.348 587.965C714.123 591.292 711.23 594.89 708.421 597.013Z" fill="black"/>
<path d="M544.895 423.579C539.952 422.823 537.499 415.967 537.962 411.525L544.895 423.579Z" fill="black"/>
<path d="M553.37 426.597L550.244 420.997L549.531 416.046C552.603 418.256 555.186 422.897 553.37 426.597Z" fill="black"/>
<path d="M557.244 416.801C557.463 416.529 563.364 419.821 563.391 420.193C561.831 422.871 555.765 418.635 557.244 416.801Z" fill="black"/>
<path d="M597.341 300.693C598.469 302.291 594.614 303.435 593.485 302.946L596.57 310.478C588.315 309.322 589.531 299.373 581.155 308.974C579.968 307.731 585.716 304.529 585.766 302.582C585.819 300.527 579.293 292.714 579.602 291.271C580.726 286.04 590.013 296.232 591.239 297.224C592.501 298.245 597.14 300.409 597.341 300.693Z" fill="black"/>
<path d="M429.191 436.404C425.111 434.44 422.694 430.704 419.943 427.364C421.459 426.145 430.464 435.009 429.191 436.404Z" fill="black"/>
<path d="M735.395 522.36C731.841 524.791 731.186 508.211 736.365 515.018C739.105 518.618 736.453 518.899 735.395 522.36Z" fill="black"/>
<path d="M443.078 544.235C443.366 547.22 436.788 547.176 435.373 545.358L443.078 544.235Z" fill="black"/>
<path d="M865.651 468.207C866.115 468.969 864.653 474.111 863.832 474.091C861.429 474.034 862.527 468.146 861.908 466.57C862.235 466.22 865.546 468.035 865.651 468.207Z" fill="black"/>
<path d="M740.818 629.434C740.469 625.751 739.079 622.046 738.436 618.543C738.205 617.284 737.159 616.998 738.891 615.867C743.697 618.265 745.608 626.078 740.818 629.434Z" fill="black"/>
<path d="M708.41 514.074L703.4 521.595C700.346 519.504 707.545 513.201 708.41 514.074Z" fill="black"/>
<path d="M709.955 613.609C705.669 619.801 711.498 619.37 715.347 615.864L713.035 620.781C715.519 620.802 713.913 623.579 712.536 624.038C704.896 626.584 702.124 615.556 709.955 613.609Z" fill="black"/>
<path d="M628.205 336.873C628.427 332.668 629.032 326.46 632.045 323.303C633.768 327.737 631.649 333.672 628.205 336.873Z" fill="black"/>
<path d="M864.216 575.905C863.18 578.313 863.723 580.751 863.45 583.079C863.031 586.66 860.18 581.526 860.49 579.476C860.675 578.253 862.468 574.464 864.216 575.905Z" fill="black"/>
<path d="M129.93 452.239C131.066 452.109 131.32 454.206 131.402 454.945C132.111 461.31 131.604 468.277 131.476 474.493C131.412 477.575 131.852 481.406 131.474 484.299C131.295 485.675 131.736 485.517 129.93 485.416V452.239Z" fill="black"/>
<path d="M149.984 462.796V480.516C149.984 481.7 148.377 484.896 149.205 486.925C147.485 486.477 147.737 484.893 147.63 483.571C147.094 476.975 148.655 470.487 148.439 463.913L149.984 462.796Z" fill="black"/>
<path d="M139.177 481.642C137.834 481.82 138.451 479.929 138.415 479.015C138.057 470.047 138.66 461.117 139.571 452.232C140.406 462.086 141.168 471.866 139.177 481.642Z" fill="black"/>
<path d="M288.815 480.901L278.395 483.142C274.332 483.824 269.19 482.481 265.426 482.686C258.532 483.062 248.902 486.462 243.316 482.774L288.815 480.901Z" fill="black"/>
<path d="M999.194 551.769C999.871 557.138 997.841 561.579 994.551 565.703C991.484 569.548 980.464 579.395 975.618 579.615C973.202 579.725 967.074 577.865 964.727 576.798C956.972 573.275 945.809 559.716 948.671 551.022C952.095 552.964 953.434 556.707 956.37 559.331C964.893 566.949 979.224 565.992 987.995 559.293C991.541 556.585 994.013 551.269 999.194 551.769Z" fill="black"/>
<path d="M948.092 525.535C953.832 524.443 964.727 533.013 963.719 537.807C963.165 540.445 958.641 536.006 957.593 535.514C950.394 532.134 942.034 537.903 939.762 536.359C935.805 533.669 944.383 526.24 948.092 525.535Z" fill="black"/>
<path d="M980.69 537.441C981.777 522.683 1001.29 521.667 1005.37 535.544C1004.85 538.14 997.315 534.7 995.663 534.492C988.448 533.58 986.825 536.207 980.69 537.441Z" fill="black"/>
<path d="M248.707 578.17L242.577 580.836L238.684 581.171C240.719 578.616 245.598 578.324 248.707 578.17Z" fill="black"/>
<path d="M1111.61 370.988C1132.26 367.775 1133.32 394.787 1116.27 400.425C1106.1 403.788 1098.21 400.812 1096.58 389.836C1095 379.156 1101 372.637 1111.61 370.988ZM1110.83 376.267C1097.28 378.513 1098.01 403.305 1114.35 397.039C1127.41 392.031 1126.99 373.591 1110.83 376.267Z" fill="black"/>
<path d="M1068.62 421.324C1068.27 419.822 1069.02 419.297 1069.74 418.273C1072.56 414.256 1077.55 409.964 1080.95 406.244C1080.95 407.766 1079.53 409.204 1078.62 410.373C1075.65 414.19 1072.09 417.925 1068.62 421.324Z" fill="black"/>
<path d="M173.123 152.898C170.819 156.746 166.296 158.683 163.45 161.907C161.833 163.739 162.037 167.048 158.473 166.459C156.935 164.964 163.391 160.085 164.234 158.903L173.123 152.898Z" fill="black"/>
<path d="M151.517 164.196C150.441 164.367 150.016 162.074 150.015 161.486C150.008 157.135 156.292 152.446 160.004 150.629C160.655 151.28 153.983 158.138 153.191 159.419C152.322 160.825 151.894 162.607 151.517 164.196Z" fill="black"/>
<path d="M219.409 174.757C218.3 173.675 227.252 166.023 228.65 165.709C229.669 166.812 220.026 175.358 219.409 174.757Z" fill="black"/>
<path d="M190.092 161.192C187.994 164.48 184.287 166.33 180.844 167.971C180.799 166.115 183.413 164.865 184.779 163.908C186.315 162.831 188.127 161.271 190.092 161.192Z" fill="black"/>
<path d="M176.205 167.224L169.673 168.762L167.728 166.851C168.253 164.387 174.373 168.199 176.205 167.224Z" fill="black"/>
<path d="M827.195 163.44C817.264 160.173 812.054 143.76 818.329 135.552C818.828 138.556 817.017 141.139 817.104 144.22C817.303 151.236 822.329 158.635 827.195 163.44Z" fill="black"/>
<path d="M852.648 157.422C849.921 162.625 842.724 165.877 836.904 166.597C835.724 166.742 835.065 167.489 834.141 166.082C837.037 165.745 839.44 165.29 842.137 164.104C845.991 162.409 848.737 158.86 852.648 157.422Z" fill="black"/>
<path d="M818.701 122.724C817.273 122.891 818.034 121.156 818.295 120.442C819.92 115.995 823.43 112.323 827.959 110.665L819.917 119.762L818.701 122.724Z" fill="black"/>
<path d="M849.571 167.217C848.409 166.11 854.046 163.409 854.18 162.304L861.126 157.415C862.433 158.782 850.127 167.746 849.571 167.217Z" fill="black"/>
<path d="M841.85 158.176C841.455 159.901 833.018 164.566 832.602 164.2C831.184 162.953 833.725 162.593 834.129 162.334C836.47 160.831 839.113 158.761 841.85 158.176Z" fill="black"/>
<path d="M1175.83 526.896C1170.6 531.42 1163.67 534.551 1156.55 533.667C1157.4 531.609 1161.1 532.447 1162.91 531.977C1167.53 530.774 1171.36 528.395 1175.83 526.896Z" fill="black"/>
<path d="M1138.8 526.896C1135.07 530.266 1129.24 532.013 1124.15 531.405L1138.8 526.896Z" fill="black"/>
<path d="M1156.54 524.634C1155.33 526.141 1152.46 527.551 1150.66 528.301C1148.92 529.027 1146.86 529.681 1144.98 529.897C1148.11 527.559 1152.71 525.353 1156.54 524.634Z" fill="black"/>
<path d="M1121.06 525.388C1119.95 529.216 1111.74 524.618 1113.36 523.122L1121.06 525.388Z" fill="black"/>
</svg>
