<svg width="1280" height="720" viewBox="0 0 1280 720" fill="none" xmlns="http://www.w3.org/2000/svg">
<path d="M204.453 684.2C204.565 682.469 204.797 681.303 202.833 680.614C199.473 679.435 189.423 677.121 185.861 676.749C168.999 674.986 137.47 677.485 120.881 681.638C112.544 683.725 89.3497 696.182 82.2533 693.161C79.3856 691.94 77.8972 688.786 81.7972 687.075C94.4232 681.535 105.154 678.482 118.624 676.547C119.878 676.367 126.117 674.59 123.415 672.836C118.894 669.899 104.718 669.825 99.5407 671.682C94.7051 673.417 94.6064 677.741 90.2987 678.518C84.9322 671.41 101.045 662.778 106.611 661.72C118.45 659.47 133.549 670.434 144.555 670.721C146.7 670.777 152.412 669.338 152.38 666.724C152.341 663.524 146.306 661.749 151.396 654.402C155.981 647.783 177.56 635.946 185.483 631.679C187.82 630.421 197.345 626.956 197.818 626.484C199.77 624.536 193.324 623.84 192.493 623.776C178.193 622.676 166.482 630.349 156.122 639.256C150.955 643.699 141.649 651.779 141.923 658.667C139.717 661.044 111.05 646.29 105.94 644.923C89.8315 640.615 72.7431 641.426 59.9448 652.959C58.3004 654.441 52.327 662.449 50.9787 661.493C47.0153 652.639 55.9137 645.394 62.9234 641.744C75.4205 635.236 90.632 634.037 103.986 638.36C109.189 640.044 113.692 643.903 119.18 643.518C116.053 635.162 117.09 626.263 122.93 619.359C123.705 617.204 131.814 614.7 131.535 612.778C131.217 610.586 119.489 602.869 116.792 600.033C96.5013 578.697 105.965 554.67 129.686 541.914C133.629 539.794 141.28 537.832 135.236 542.745C129.837 547.135 123.147 550.502 118.572 555.884C111.544 564.152 108.755 574.665 114.225 584.61C117.099 589.835 116.207 578.369 116.568 576.115C119.545 557.503 138.27 537.307 158.444 540.473C162.205 541.063 179.374 552.118 181.709 549.87C181.059 545.975 177.836 541.435 177.394 537.62C177.048 534.635 179.004 531.274 177.452 528.109C176.036 525.221 165.736 522.344 163.934 517.964C161.992 513.245 162.912 505.119 164.904 500.456C168.504 492.03 182.446 487.43 191.097 488.293C195.067 463.859 219.019 450.846 241.989 448.777C251.183 447.949 263.357 451.04 270.69 456.782C281.452 465.209 276.202 470.695 279.787 480.807C280.757 483.543 287.941 496.061 290.1 496.996C296.985 499.98 319.11 497.34 326.651 494.517C328.233 493.925 339.832 488.303 338.53 486.49C336.726 483.979 330.121 484.378 329.523 478.37C328.622 469.316 347.046 450.567 352.252 442.992C321.56 448.642 334.284 427.267 347.094 414.65C362.662 399.316 384.834 386.784 407.199 387.166C405.645 381.115 401.614 380.137 402.545 372.596C403.091 368.17 411.004 353.099 413.673 348.698C420.076 338.141 429.844 327.957 436.968 317.091C450.272 296.799 464.547 264.256 481.539 248.078C484.784 244.988 490.966 242.251 490.104 249.023L446.056 320.451C447.134 322.18 447.538 321.54 448.879 321.49C454.017 321.296 459.269 320.376 464.445 321.033C466.585 321.304 475.016 324.834 476.28 323.703C480.84 314.078 487.443 304.112 493.992 295.512C503.276 283.321 525.674 259.194 542.238 271.74C546.622 275.061 545.101 281.33 544.155 286.002C540.917 301.995 520.798 343.68 506.575 351.589C504.464 352.763 494.777 355.67 494.37 357.385C494.185 359.234 495.6 359.201 496.77 359.704C507.241 364.211 515.028 367.478 522.762 376.321C525.894 379.901 530.155 390.545 535.776 385.929L582.478 328.531L535.456 375.755C532.6 376.269 528.571 365.778 526.994 363.582C526.007 362.208 516.782 354.234 518.058 353.122C526.382 350.78 529.944 365.071 537.526 360.733C553.93 342.11 570.492 323.634 586.759 304.89C617.234 269.773 644.006 235.672 666.987 193.91C674.147 180.899 689.382 153.189 692.352 139.699C693.708 133.539 688.713 129.767 683.783 126.595C682.796 125.96 681.024 126.388 680.277 125.882C679.682 125.48 679.474 123.327 678.614 122.352C666.228 108.307 626.864 89.2899 608.344 96.5752C597.452 100.86 571.528 124.748 562.092 133.615C516.992 175.993 471.216 234.971 441.148 289.102C434.425 301.206 423.705 329.506 414.455 337.652C408.383 343 399.288 342.271 392.003 344.089C379.307 347.258 360.944 356.347 350.05 363.688C345.126 367.005 331.089 380.297 326.9 381.324C317.884 383.536 314.997 369.364 319.61 363.566C320.726 362.164 323.109 361.736 324.241 359.676C326.403 355.743 327.845 343.667 330.008 338.002C345.428 297.633 391.066 252.53 433.898 243.079C439.628 241.815 456.45 240.912 459.986 238.379C461.059 237.611 469.813 221.498 471.808 218.497C523.237 141.108 605.584 65.9275 691.101 27.85C704.69 21.7994 728.645 9.09185 730.313 32.8777C732.799 68.3436 703.446 148.244 688.765 182.546C666.944 233.534 636.787 278.375 602.537 321.628C601.513 325.021 605.672 328.804 607.054 332.837C619.488 369.141 583.876 425.97 562.011 454.236C557.2 460.454 546.344 476.424 536.995 471.835C534.193 470.459 534.908 461.736 535.119 458.603C536.367 440.054 541.243 438.885 534.451 418.57C532.898 413.924 531.865 407.026 526.119 407.003C514.526 406.957 509.503 426.778 494.763 428.709C469.729 431.99 486.431 408.28 483.77 399.205C483.256 397.453 476.281 392.877 474.508 392.314C461.297 388.122 452.89 420.571 442.76 410.785C439.703 407.831 439.714 392.93 440.312 388.539C440.716 385.575 443.286 384.386 443.085 383.096C442.923 382.056 440.363 378.727 438.922 378.585C434.434 378.141 433.288 385.442 429.913 387.615C427.945 388.883 425.961 388.711 424.324 389.603C421.691 391.038 420.232 394.581 416.685 396.165C410.554 398.904 402.912 397.005 396.323 397.592C377.617 399.258 354.15 416.957 343.73 432.109C352.416 433.135 360.407 426.259 369.096 424.326C376.102 422.767 382.377 422.55 389.199 425.02C390.687 427.036 380.863 432.205 379.275 433.543C376.233 436.106 374.084 439.905 371.666 442.028C365.214 447.692 347.7 457.719 349.4 467.999C350.89 477.008 361.615 468.853 365.44 466.081C386.346 450.934 402.108 428.249 421.893 411.77C422.622 411.633 422.462 412.637 422.373 413.19C421.592 418.012 400.837 443.276 396.324 448.674C377.125 471.639 354.912 497.675 334.738 519.618C332.449 522.107 322.866 532.139 320.495 532.834C319.272 533.192 318.625 532.633 319.103 531.444C319.782 529.752 324.371 523.159 325.764 521.283C335.827 507.727 350.919 495.067 361.703 481.27C363.052 479.545 365.207 477.298 365.507 475.145C364.501 474.084 345.549 492.846 343.739 494.55C336.659 501.214 328.508 506.98 323.058 515.523L316.72 526.253C308.788 524.729 314.267 511.768 312.989 509.2C312.078 507.369 295.898 501.084 292.806 504.238L271.739 519.598C264.797 510.377 276.655 507.178 277.392 501.07C278.046 495.657 274.915 487.774 270.791 484.113C266.168 480.009 258.541 479.923 256.566 474.204C262.338 473.788 267.068 474.126 272.231 476.808C280.964 463.973 257.457 456.551 247.598 456.19C232.309 455.629 200.052 464.47 199.043 483.333C198.82 487.512 204.912 490.427 199.287 495.994C195.665 499.579 194.841 496.437 190.748 495.93C181.547 494.791 169.471 502.471 172.434 512.314C173.246 515.012 184.428 520.906 187.177 521.335C191.689 522.038 195.141 514.637 201.111 513.912C214.304 512.31 220.913 526.479 206.859 530.945C204.726 530.501 205.596 523.236 203.044 524.342C201.966 524.81 197.466 529.891 196.676 531.232C194.06 535.673 191.897 548.601 196.333 551.838C200.187 554.65 202.411 550.255 203.983 550.185C205.275 550.127 206.972 552.747 209.199 551.346C209.94 550.879 215.128 539.505 217.4 536.741C219.203 534.546 222.342 532.485 224.632 530.761C242.541 523.31 225.066 534.647 221.675 541.056C215.887 551.995 218.535 563.642 229.062 570.236C237.473 575.504 229.219 564.388 228.563 561.284C227.635 556.894 228.302 552.624 230.134 548.557C240.729 525.045 295.596 525.567 305.349 549.88C307.336 554.832 306.151 557.864 307.039 562.423C307.934 567.015 309.515 565.24 311.736 562.867C319.92 554.123 330.347 539.258 338.008 529.294C354.85 507.391 375.25 475.027 394.398 456.211C395.411 455.216 396.033 453.989 397.724 454.338L294.912 595.272C292.248 594.973 292.54 593.476 292.947 591.445C293.995 586.221 301.965 580.058 301.114 574.971L294.457 573.518C298.232 560.883 302.634 551.463 288.791 543.71C276.234 536.677 255.109 534.993 243.746 545.12C237.911 550.32 232.127 565.773 238.5 571.917C240.025 573.387 242.732 572.794 244.233 574.012C250.051 578.735 233.847 578.849 231.68 579.425C219.732 582.6 209.115 599.814 211.133 611.786C211.629 614.728 216.893 621.231 219.653 622.203C220.343 622.446 226.324 623.659 226.717 623.659H240.929C241.312 623.659 242.592 621.229 242.336 624.114C236.49 634.41 223.574 630.493 213.574 631.348C194.279 632.996 185.29 644.547 187.398 663.878C188.033 669.698 194.899 671.379 200.172 670.985C203.611 670.728 217.091 664.596 217.712 665.277C217.925 665.511 217.41 668.047 218.131 669.118C219.406 671.013 224.461 668.801 223.393 671.416C222.158 674.437 206.58 679.442 209.192 683.241C209.56 683.776 219.955 687.179 221.448 687.57C230.156 689.847 241.703 690.398 250.177 686.813C253.6 685.365 256.027 682.2 256.574 678.531L257.514 685.142C260.222 685.64 261.562 683.57 263.169 681.81C273.239 670.782 262.464 671.273 256.171 663.306C250.667 656.337 248.881 648.86 256.552 642.578C255.901 653.769 269.195 666.977 279.771 668.122C289.639 669.19 298.253 665.962 307.759 665.704C312.152 671.227 299.055 674.576 300.559 677.608C301.434 679.371 307.402 680.773 309.509 681.944C314.05 684.468 314.636 688.333 321.251 686.826C327.971 685.296 321.72 681.265 322.887 676.637L331.356 682.834C337.279 685.725 343.677 688.014 348.048 681.421C349.438 679.325 349.386 674.182 351.767 674.743C354.498 675.387 354.393 685.608 360.774 688.462C365.15 690.418 380.735 690.571 385.664 689.654C390.85 688.688 407.782 678.562 409.536 673.746C412.182 666.479 401.854 664.71 403.409 657.714C411.588 655.124 418.438 664.228 424.792 665.221C439.811 667.567 455.409 661.069 450.795 643.524C457.379 647.781 463.988 648.593 459.309 657.708C463.335 656.006 468.592 662.996 470.346 663.312C472.713 663.738 477.509 655.388 479.682 653.946C482.83 656.132 483.28 660.763 485.402 663.354C488.806 667.509 501.171 670.566 506.69 670.96C508.753 674.347 499.894 679.237 501.952 681.358C504.979 684.475 525.655 668.779 527.034 669.062C532.028 670.089 521.792 680.486 522.795 681.357L535.109 681.358C535.843 677.344 531.407 675.476 535.537 672.802C539.63 670.152 541.392 677.406 545.813 679.659C550.977 682.291 566.623 682.703 569.284 685.556C572.577 689.087 564.639 690.62 562.145 690.859C551.143 691.91 537.114 689.155 525.125 689.842C521.522 690.048 518.05 691.925 514.763 691.811C510.954 691.678 507.275 688.806 504.098 688.209C496.424 686.766 487.891 692.011 479.668 692.699C465.85 693.855 451.865 691.1 438.005 691.777C414.337 692.933 387.724 703.376 364.547 698.884C362.103 698.411 360.299 696.83 357.488 696.473C349.951 695.516 335.456 699.47 329.168 697.318C326.81 696.511 327.939 693.052 327.616 692.707C326.843 691.879 320.5 694.441 318.625 694.612C315.483 694.9 295.929 695.055 295.355 693.133C293.886 688.213 301.066 689.789 301.072 687.511C301.075 686.481 298.779 686.159 297.826 686.05C273.979 683.325 249.487 704.032 221.532 695.999C216.666 694.6 211.45 689.926 207.548 689.136C200.962 687.803 193.912 694.117 190.241 684.2H204.453ZM713.959 37.8812C716.463 35.564 714.301 30.6201 708.434 31.9059C701.48 33.43 681.657 46.8079 675.029 51.5332C662.871 60.201 651.485 72.361 639.242 80.1268C635.536 82.4776 630.768 83.8944 627.283 86.1282C626.35 86.7261 625.586 86.0336 626.066 88.2454C640.457 88.0759 652.499 97.5122 665.847 101.489L664.898 94.8757C673.228 95.6449 665.997 89.3053 662.068 88.7278C665.906 86.656 667.09 85.4532 669.182 81.6368C671.203 80.6162 670.971 88.0419 674.385 85.8903C678.084 83.5585 670.627 83.7083 672.963 78.804C674.483 75.6101 684.883 67.1917 688.131 63.6687C695.889 55.2532 702.184 46.9435 710.979 39.1837C711.702 38.5462 713.227 38.5579 713.959 37.8812ZM691.433 119.47C689.416 121.603 695.274 125.926 697.907 121.671L704.688 87.3044C702.853 87.5942 703.192 89.3673 702.708 90.5205C700.278 96.3082 695.052 108.429 693.937 114.015C693.562 115.895 694.468 119.268 694.277 119.463C694.004 119.743 691.695 119.192 691.433 119.47ZM450.79 250.95C439.483 250.103 427.374 254.049 416.98 258.35C391.674 268.82 370.542 290.173 356.227 313.099C353.206 317.937 335.828 349.187 338.051 352.171C355.078 341.472 361.014 321.118 372.309 305.506C384.069 289.25 407.96 270.677 427.308 264.878C432.164 263.423 446.58 262.101 449.213 260.493C451.388 259.166 450.71 253.291 450.79 250.95ZM530.503 294.306C535.328 297.231 539.191 279.632 532.558 277.628C521.234 274.207 506.65 292.726 500.078 300.643C481.945 322.489 464.117 350.439 454.559 377.222C452.427 383.196 449.839 389.214 449.843 395.68C451.536 397.664 459.051 386.272 459.711 385.204C475.023 360.412 482.156 338.74 501.974 314.833C505.961 310.023 522.393 290.991 528.008 291.561C530.322 291.796 530.051 294.032 530.503 294.306ZM467.839 329.472C463.122 330.255 459.486 327.298 454.943 326.735C449.471 326.058 439.253 325.652 437.524 332.299L461.729 339.826C464.555 340.067 468.687 330.234 467.839 329.472ZM597.628 331.359C595.607 329.66 588.713 337.744 588.324 339.637C587.936 341.523 591.614 348.228 591.954 351.688C593.435 366.725 581.302 397.794 574.468 411.809C571.347 418.21 565.299 424.286 564.487 431.626L578.153 412.649C592.96 388.505 605.894 360.126 597.628 331.359ZM444.932 358.082C441.721 358.243 428.565 361.359 425.854 362.751C424.026 363.689 424.318 365.385 423.354 366.848C430.407 370.873 439.205 367.537 446.447 371.019C449.424 364.94 456.412 357.507 444.932 358.082ZM500.039 411.764C503.872 405.595 507.44 401.884 505.099 393.951C503.674 389.122 495.846 379.969 490.852 378.856C486.094 377.795 475.548 377.485 475.419 384.328C482.987 383.88 493.945 393.223 496.472 399.732C496.902 400.839 498.257 413.012 500.039 411.764ZM167.535 559.381C168.555 557.849 179.086 557.82 171.002 552.53C152.195 540.222 133.339 550.567 124.967 569.365C118.759 583.303 121.356 602.639 139.568 603.776C151.664 604.531 144.868 601.146 141.903 597.399C139.523 594.391 136.454 586.293 139.553 583.002C143.626 588.241 144.227 593.905 149.98 598.113C156.99 603.241 172.616 601.784 179.348 596.244C185.396 604.695 183.482 613.156 194.035 618.452C195.878 619.377 206.485 622.89 207.754 622.712C208.23 622.646 209.068 621.79 208.727 620.839C207.724 618.034 205.123 616.033 204.539 611.755C203.787 606.256 205.734 597.182 208.76 592.486C211.575 588.116 222.973 580.671 222.29 576.116C220.997 567.499 203.639 559.265 195.696 559.581C189.027 559.846 178.361 564.153 171.717 563.924C169.447 563.847 166.16 561.447 167.535 559.381ZM138.137 617.978C142.279 617.819 144.737 614.082 148.559 612.786C154.489 610.774 168.259 610.848 172.591 607.456C175.424 605.239 174.386 602.744 170.963 602.9C162.255 603.298 149.914 606.489 142.951 611.916C142.108 612.574 137.001 616.948 138.137 617.978ZM180.767 617.983H167.029C165.981 617.983 150.353 625.206 147.899 626.316C146.073 627.142 138.764 634.353 140.212 629.05C141.979 622.576 147.549 622.451 149.497 617.043C135.517 620.389 129.368 635.2 134.859 648.228C136.395 651.872 136.665 654.344 140.26 649.905C142.645 646.961 144.396 642.96 147.121 639.729C156.188 628.98 166.049 625.158 178.684 620.116C180.131 619.539 181.235 620.672 180.767 617.983ZM124.864 641.633C123.959 633.09 131.996 626.915 131.491 618.93C124.423 621.767 119.803 633.606 122.727 640.458C123.305 641.814 122.972 641.881 124.864 641.633ZM174.639 647.324C173.755 647.525 160.931 658.228 160.89 659.132C164.736 664.052 175.757 655.776 176.803 652.317C177.356 650.487 176.981 646.791 174.639 647.324ZM176.97 660.551C175.524 659.184 172.062 665.782 171.496 666.911C171 667.899 169.677 668.678 171.265 669.565C172.915 670.485 180.644 670.462 180.744 668.597C180.789 667.756 175.971 662.967 176.97 660.551ZM446.045 671.907C431.876 671.537 417.244 676.988 408.151 687.974C415.821 688.154 440.465 680.505 445.068 675.181C446.097 673.991 446.3 673.558 446.045 671.907ZM472.001 674.373C470.685 673.021 471.274 671.833 468.449 671.918C466.982 671.963 453.189 675.998 452.683 676.646C449.295 680.989 465.9 678.975 466.917 678.937C468.269 678.886 469.887 678.07 470.677 679.948C471.035 680.8 450.171 686.821 460.686 688.03C467.561 688.82 480.607 686.15 486.68 682.673C488.927 681.387 499.351 673.838 492.914 672.815C486.25 671.757 480.23 677.214 474.481 679.47C475.189 675.904 473.58 675.993 472.001 674.373ZM285.929 678.511C289.324 673.276 274.24 674.853 271.725 674.745C269.836 682.157 284.888 680.116 285.929 678.511ZM350.352 687.042C347.551 687.574 344.569 687.761 341.797 688.423C340.941 688.628 330.088 691.657 332.361 693.655C333.222 694.411 346.139 690.182 348.282 689.181C349.608 688.561 350.871 689.753 350.352 687.042Z" fill="black"/>
<path d="M466.887 420.284C470.552 424.4 440.795 475.009 437.026 482.69C435.036 486.748 423.926 510.418 426.158 512.978C428.374 512.786 430.83 510.711 432.258 509.146C439.016 501.739 445.611 486.158 452.29 477.119C460.383 466.167 462.859 461.829 468.957 476.393C470.147 479.236 474.614 495.353 475.48 495.91C475.732 496.072 478.14 496.044 478.247 495.956C479.927 494.578 486.143 458.862 488.72 453.812L485.845 435.42C490.908 437.2 495.616 442.798 496.284 448.164C497.629 458.965 487.356 493.787 480.944 502.891C470.662 517.491 465.313 489.694 462.042 484.244C461.381 483.141 460.709 482.073 459.772 483.643C457.708 487.102 455.591 500.518 453.665 505.925C451.942 510.761 446.853 524.269 440.838 524.269C436.62 524.269 432.168 514.552 429.09 519.225L417.63 562.167C426.714 559.394 431.34 555.442 441.543 556.74C458.184 558.858 488.506 570.971 492.042 589.562C494.717 603.627 487.808 613.283 481.105 624.591C484.73 625.267 488.403 627.832 490.57 630.761C492.6 633.504 494.049 640.437 495.302 641.208C496.479 641.931 501.49 641.02 501.847 640.594C502.606 639.69 501.375 635.611 501.53 633.918C503.357 613.936 535.099 614.073 549.832 615.106C563.407 616.058 581.543 622.66 588.32 635.327C594.345 646.588 591.422 655.345 586.273 666.221C594.331 664.543 613.539 660.621 620.332 664.852C623.897 667.071 625.855 669.98 621.036 672.155C617.33 673.827 617.099 669.707 614.675 668.608C607.353 665.292 596.038 672.255 588.635 672.865C584.775 673.184 581.769 671.81 578.215 671.815C573.819 671.821 569.961 674.072 565.428 671.891C573.375 665.243 582.507 653.528 580.16 642.52C575.088 618.721 513.128 614.368 508.968 636.869C508.018 642.005 511.816 642.221 511.425 643.979C504.694 650.491 497.849 644.178 490.049 643.579C488.862 642.522 487.904 641.314 486.961 640.04C482.49 634.009 485.689 631.459 476.727 629.443C475.273 629.115 458.776 628.476 462.16 625.556C465.865 625.709 469.626 625.732 472.635 623.244C474.123 622.015 481.785 610.943 482.834 608.832C486.775 600.896 487.862 586.925 482.045 579.679C481.412 578.89 478.323 575.897 478.284 578.72C478.277 579.19 481.667 585.161 481.992 587.299C483.541 597.465 479.381 613.074 466.897 613.249C469.744 606.524 476.69 602.945 476.39 594.857C475.6 573.557 452.59 562.627 433.481 566.178C428.227 567.154 421.962 572.347 416.71 574.028C414.319 574.793 411.669 574.149 409.319 575.094C407.472 575.836 401.495 588.091 400.979 590.502C398.565 601.781 416.111 599.894 419.4 606.279C422.784 612.85 419.898 626.777 414.305 632.168C411.218 619.899 416.172 611.477 402.187 605.492C393.592 601.814 386.689 601.947 377.608 602.226C372.935 602.369 375.961 597.591 377.828 596.694C380.965 595.187 386.908 597.845 388.732 594.337C389.188 593.459 389.607 591.339 389.122 590.629C388.488 589.701 383.582 590.513 384.475 588.199C392.405 585.854 387.298 585.812 388.846 580.336C389.516 577.967 393.001 573.866 394.398 570.67C415.265 522.907 430.263 470.601 460.046 427.16C460.73 426.163 465.601 418.839 466.887 420.284ZM438.474 512.978C440.78 515.492 449.844 497.935 447.934 495.009C445.25 496.032 437.661 512.091 438.474 512.978Z" fill="black"/>
<path d="M686.083 440.757C656.423 414.433 665.367 369.756 697.779 350.466C745.037 322.34 810.026 358.421 791.605 414.821C777.979 456.54 717.674 468.794 686.083 440.757ZM756.812 437.302C809.008 412.435 783.027 343.603 727.079 349.45C707.012 351.546 682.441 369.1 683.376 390.95C691.654 384.779 702.131 381.436 706.772 393.144C712.646 407.963 696.685 404.856 697.329 412.088C697.989 419.503 705.691 411.687 706.605 407.989C708.076 407.713 707.743 409.377 707.384 410.183C706.43 412.321 697.056 421.502 699.012 424.058C701.662 427.521 708.346 418.402 708.962 418.402C709.534 418.403 710.852 421.369 712.576 421.104C714.396 420.824 717.483 416.077 720.8 417.44C718.913 438.686 735.053 416.794 739.752 420.289C737.981 422.649 737.143 432.887 738.902 434.364C740.78 435.94 749.725 432.183 751.191 430.252C752.535 428.48 751.127 426.753 753.386 426.946C762.893 427.763 756.606 430.452 756.812 437.302ZM690.352 405.28C689.729 404.279 684.392 404.061 682.903 404.194C680.788 406.303 687.115 427.007 693.324 426.896C694.081 426.072 689.795 419.926 689.553 417.822C689.203 414.775 691.77 407.56 690.352 405.28Z" fill="black"/>
<path d="M342.599 80.8609C343.049 81.5838 343.957 87.0644 342.285 87.2909C310.331 81.5395 283.155 122.677 299.015 150.392C306.221 162.983 317.733 168.729 331.843 169.642C335.385 169.872 349.029 168.691 350.403 169.161C357.171 171.477 342.951 183.792 340.241 185.516C294.136 214.84 229.202 178.967 247.356 122.101C256.986 91.9358 294.932 69.3984 326.139 74.1212C327.73 74.362 342.129 80.1068 342.599 80.8609ZM333.299 177.176C325.331 176.326 318.991 176.205 311.543 172.884C273.825 156.068 277.361 107.565 310.863 88.0751C312.985 86.8405 327.838 81.2124 316.768 81.6066C301.169 82.1622 278.235 92.9713 267.959 104.833C237.146 140.403 264.099 191.131 311.031 186.622C314.88 186.253 328.762 181.938 331.748 179.874C332.869 179.099 333.634 178.768 333.299 177.176Z" fill="black"/>
<path d="M733.121 258.526C730.451 252.745 741.836 233.798 739.61 230.28C738.918 229.188 720.847 223.224 717.307 220.865C715.761 219.835 713.649 218.988 714.263 216.597C715.933 210.106 742.73 213.407 750.238 207.031C756.146 202.013 757.827 185.725 760.403 178.396C768.63 154.994 771.193 191.399 772.574 196.9C774.835 205.905 777.509 209.526 786.896 210.98C789.714 211.416 809.059 211.297 807.954 216.399C807.082 220.429 785.733 223.505 782.867 228.258C779.411 233.988 788.121 251.811 782.875 258.478C776.852 257.698 765.701 246.443 760.98 246.214C756.15 245.98 740.631 260.715 733.121 258.526ZM789.017 218.78C785.186 214.284 776.304 217.164 771.885 213.669C767.613 210.291 766.016 192.363 763.912 192.324C760.01 198 760.495 207.624 755.131 212.182C748.372 217.925 730.241 216.099 730.269 217.382C730.314 219.396 731.955 219.444 733.309 220.023C737.028 221.61 747.696 224.058 748.827 228.207C750.13 232.99 742.921 242.441 741.669 246.725C741.237 248.205 741.792 248.24 743.09 248.15C749.687 247.695 755.386 234.834 765.293 238.231C766.865 238.77 777.617 248.291 778.592 247.166C777.855 239.265 774.467 232.439 775.743 224.195C776.193 222.514 786.744 219.52 789.017 218.78Z" fill="black"/>
<path d="M599.32 127.294C614.982 125.657 632.024 130.438 639.491 145.314C658.127 182.443 616.568 221.563 580.686 203.081C544.062 184.216 560.213 131.384 599.32 127.294ZM600.247 134.841C552.608 140.096 561.222 207.043 606.015 199.25C646.34 192.235 646.487 129.741 600.247 134.841Z" fill="black"/>
<path d="M212.015 195.148C212.314 195.357 215.288 200.671 215.629 201.484C218.781 209.008 220.782 225.123 227.62 230.187C232.271 233.631 248.855 231.093 256.58 233.465C257.58 233.772 259.104 233.802 258.449 235.332C256.856 239.052 239.939 247.264 238.705 253.544C237.53 259.523 254.066 272.772 248.096 277.035C243.126 280.585 228.446 266.091 222.03 267.002C219.152 267.41 217.383 272.343 215.36 274.614C213.015 277.245 204.465 286.562 201.236 286.018C200.147 285.277 199.689 282.905 199.703 281.712C199.779 275.184 203.864 259.827 200.712 254.454C197.187 248.447 169.536 253.957 171.296 246.722C177.944 239.887 196.699 240.011 202.065 232.961C204.073 230.324 206.389 219.008 207.04 215.226C207.784 210.908 207.865 198.496 209.717 196.141C210.26 195.451 211.14 194.537 212.015 195.148ZM242.346 238.661C237.268 238.573 226.008 239.007 222.086 235.713C219.31 233.382 215.789 220.044 212.52 220.688C210.862 221.014 210.047 235.032 207.004 238.369C204.122 241.527 193.727 242.791 189.555 245.052C188.444 245.654 187.959 245.03 188.351 247.164C191.521 246.999 209.709 247.264 210.145 249.559C210.335 250.563 208.478 251.881 208.274 253.351C207.477 259.083 209.301 265.513 207.28 271.277C207.287 272.123 209.196 271.91 209.623 271.724C211.666 270.838 218.399 258.393 221.225 257.677C223.788 257.028 231.071 266.734 235.713 266.084L229.083 246.23C231.616 247.714 244.761 240.809 242.346 238.661Z" fill="black"/>
<path d="M460.152 44.8333C464.624 47.5232 449.044 60.3363 447.514 62.7506C440.254 74.2072 457.411 80.9253 458.924 86.2925C459.885 89.7036 456.53 89.2857 454.235 89.1055C449.573 88.7393 436.634 84.0298 433.714 84.8441L414.355 103.43L410.998 104.327C411.112 99.4441 410.84 94.5195 410.955 89.6294C411.158 80.9449 415.718 79.5029 404.549 77.1837C398.217 75.8686 389.113 76.8168 384.51 72.5378C383.728 67.8113 408.912 63.0873 411.445 57.0113C413.564 51.929 410.813 39.0616 411.944 32.9145C412.566 29.5306 415.367 29.9899 417.7 31.8967C420.157 33.9052 430.189 48.9606 431.297 49.1465C436.913 49.5006 456.33 42.534 460.152 44.8333ZM421.236 46.8345C420.674 46.5099 418.701 46.5067 418.577 46.6245C417.974 47.1998 419.509 57.5518 415.195 62.6471C412.762 65.5209 403.582 69.1483 403.418 69.8171C402.351 74.1656 416.437 70.6022 418.657 73.7204C421.751 78.0674 416.57 88.8515 417.631 90.1369C419.844 90.7478 419.227 89.5729 419.793 88.9318C425.548 82.4085 429.149 76.048 439.416 77.8348C437.032 73.8345 433.615 65.1062 436.857 61.0875C437.329 60.5033 447.699 53.6443 441.051 54.3994C435.81 54.9946 432.58 58.8233 426.408 55.4454C424.19 54.2312 422.542 47.5889 421.236 46.8345Z" fill="black"/>
<path d="M723.635 560.276C717.071 561.006 714.17 546.706 709.878 546.03C705.293 545.307 693.945 556.8 687.661 555.539C684.429 545.062 697.741 532.897 688.621 524.777C685.719 522.194 667.921 515.621 683.38 515.735C693.728 515.81 701.109 521.768 710.893 512.073C714.404 508.595 717.394 499.953 720.273 497.791C724.33 494.745 725.51 500.888 725.572 504.045C725.669 508.996 722.023 518.062 724.12 522.446C725.695 525.741 739.987 527.93 742.577 532.374C739.469 536.881 734.266 535.046 729.833 536.659C721.621 539.649 726.28 553.678 723.635 560.276ZM695.228 543.248C700.088 544.767 704.182 537.618 707.285 536.774C711.147 535.723 713.999 541.896 719.322 533.732C722.603 528.7 718.154 529.66 717.206 526.507C716.575 524.407 717.958 514.847 715.593 514.893C714.482 514.915 702.249 528.776 697.114 526.232C699.892 532.443 695.576 537.213 695.228 543.248Z" fill="black"/>
<path d="M655.427 467.582C656.73 468.881 649.988 479.405 648.826 481.319C626.991 517.281 588.331 558.01 552.079 579.59C544.637 584.019 535.38 589.525 526.581 589.595C532.838 582.106 542.407 578.451 550.18 572.964C577.643 553.576 606.703 527.167 627.93 501.132C635.158 492.267 644.225 475.793 651.627 468.981C652.918 467.792 653.485 467.242 655.427 467.582Z" fill="black"/>
<path d="M588.518 297.662C587.489 298.736 587.336 301.039 585.296 299.697C584.262 299.017 581.755 291.58 580.428 289.422C566.524 266.817 526.521 242.402 500.449 238.734C494.636 237.916 484.86 240.27 481.105 234.885C498.644 230.677 516.341 235.052 532.753 241.481C549.474 248.031 567.018 258.488 578.661 272.267C582.253 276.518 591.854 289.612 591.064 294.939C590.769 296.932 589.394 296.747 588.518 297.662Z" fill="black"/>
<path d="M603.884 512.617C583.44 534.126 545.004 564.523 517.355 575.192C512.692 576.991 505.899 580.362 501.966 575.889C513.594 570 524.734 565.508 535.974 558.782C563.033 542.59 594.242 517.486 614.666 493.565C625.127 481.314 632.42 468.275 640.29 454.34C645.051 453.763 640.748 461.842 639.491 464.432C631.858 480.155 615.993 499.878 603.884 512.617Z" fill="black"/>
<path d="M289.721 319.072C273.568 340.102 255.105 362.814 255.623 390.955C255.837 391.247 256.751 390.472 257.045 390.019C258.868 387.213 261.235 377.494 263.027 373.288C269.202 358.789 278.73 343.035 288.795 330.908C289.733 329.777 295.464 323.078 295.396 327.088C290.107 336.947 282.769 345.647 277.242 355.32C264.436 377.732 259.19 401.423 256.092 426.897C242.397 393.1 255.529 346.794 283.076 323.306C284.01 322.51 288.986 318.4 289.721 319.072Z" fill="black"/>
<path d="M361.731 588.662C360.818 577.899 367.066 567.782 371.471 558.185C380.965 537.505 392.093 517.535 402.304 497.213L408.141 488.393C408.223 490.992 407.497 493.495 406.705 495.93C398.933 519.814 386.237 551.461 374.719 573.725C373.366 576.34 365.615 592.428 361.731 588.662Z" fill="black"/>
<path d="M724.591 306.758C724.028 307.368 710.938 309.297 708.534 311.068C702.82 315.278 709.483 329.05 699.56 327.64C698.09 327.431 698.24 319.456 697.854 317.855C695.564 308.348 689.301 309.601 681.958 307.209C681.15 306.946 679.287 306.856 680.074 305.36C681.563 302.528 693.995 303.754 696.896 300.867C699.425 298.35 699.552 283.143 702.329 283.135C703.775 284.753 704.796 287.48 705.364 289.546C707.553 297.513 704.217 299.964 713.98 302.7C715.263 303.059 727.125 304.014 724.591 306.758Z" fill="black"/>
<path d="M543.238 335.695C541.244 338.072 539.331 340.175 537.524 342.778C536.822 343.789 534.728 349.792 534.14 345.075C533.621 340.919 534.577 339.419 538.893 339.869C539.862 337.575 535.816 337.201 536.058 336.568C536.441 335.566 540.109 332.866 541.207 331.303C548.101 321.494 550.95 307.066 556.725 296.66C557.752 294.809 563.1 287.046 564.502 286.405C566.846 285.333 571.553 286.506 572.087 289.268C574.47 301.597 551.022 326.414 543.238 335.695Z" fill="black"/>
<path d="M333.308 599.06C331.499 597.274 345.216 573.942 346.208 569.854L382.56 505.42C382.774 512.003 379.484 518.804 376.886 524.807C368.259 544.738 352.344 574.289 340.33 592.364C339.539 593.554 335.44 601.163 333.308 599.06Z" fill="black"/>
<path d="M434.67 153.518C436.028 155.012 436.118 165.4 438.435 168.216C441.745 172.238 455.865 170.499 452.678 175.265C452.279 175.861 442.146 177.451 439.389 180.453C436.524 183.573 437.951 187.11 437.409 190.773C437.067 193.084 435.995 201.562 432.798 198.927C431.834 198.132 431.242 185.486 429.011 182.355C425.272 177.105 416.653 179.529 413.441 177.255C412.611 176.668 412.628 175.56 412.872 174.803C413.42 173.103 427.607 171.239 429.702 169.371C431.28 167.964 431.513 158.219 432.309 155.368C432.567 154.444 433.355 152.073 434.67 153.518Z" fill="black"/>
<path d="M600.754 264.475C599.016 266.391 596.324 273.631 593.418 272.747C592.842 272.571 592.135 270.291 591.067 269.357C589.736 268.194 576.996 259.215 578.694 257.58C582.102 257.231 590.275 266.517 592.405 266.094C596.299 265.321 588.746 254.978 591.015 251.9C594.589 252.961 595.707 260.049 599.546 258.036C598.624 251.58 594.508 246.42 591.954 240.558C593.884 238.998 599.885 247.04 600.902 248.191C603.773 251.441 604.926 249.529 604.739 256.625C613.248 246.19 616.262 230.565 628.894 223.521C630.955 226.2 621.669 239.6 619.822 242.36C613.503 251.8 607.715 256.8 600.754 264.475Z" fill="black"/>
<path d="M189.289 413.663C187.913 418.957 178.027 418.183 174.633 422.196C172.164 425.116 172.358 432.623 171.286 436.357C168.148 439.222 167.478 426.395 167.288 425.696C165.197 417.981 153.018 419.992 151.405 416.955C150.507 415.262 152.774 415.526 153.49 415.299C158.561 413.692 165.294 413.23 167.235 407.242C168.429 403.559 167.161 398.289 170.823 395.689C172.736 399.085 172.751 407.527 175.503 409.927C177.623 411.775 186.144 413.134 189.289 413.663Z" fill="black"/>
<path d="M303.934 615.136C301.928 613.143 323.186 575.806 325.906 571.341C334.837 556.679 344.845 542.081 356.033 529.064C348.794 544.958 338.61 559.267 329.703 574.185C322.608 586.066 315.388 601.706 307.569 612.627C306.637 613.928 305.864 615.48 303.934 615.136Z" fill="black"/>
<path d="M555.22 61.5478C556.959 63.3387 565.733 64.1908 568.583 64.6124C569.651 64.7704 569.431 66.3547 569.229 66.9654C568.995 67.6727 558.588 70.634 555.943 73.5793C552.774 77.1081 553.138 82.1373 551.692 86.3528C548.186 83.4082 549.132 75.3506 546.212 72.4321C544.008 70.229 533.429 69.8956 535.114 66.0268C536.13 63.6956 544.514 64.9003 547.516 62.3281C550.136 60.0833 549.748 53.7338 551.225 50.4183C552.496 50.1395 552.295 51.4009 552.612 52.3109C553.367 54.48 554.105 60.3984 555.22 61.5478Z" fill="black"/>
<path d="M366.223 238.902C364.182 236.999 357.818 236.991 355.701 235.822C350.634 233.024 364.271 230.929 365.605 229.758C368.935 226.833 367.007 220.154 371.19 217.848C371.732 230.133 375.901 229.782 385.394 234.399C382.564 237.249 377.741 235.993 374.959 239.098C372.214 242.162 373.408 246.999 370.728 249.989C369.035 249.996 368.066 240.62 366.223 238.902Z" fill="black"/>
<path d="M199.991 364.179C203.17 367 208.149 361.044 212.023 360.684C213.613 362.423 204.431 368.94 204.416 371.562C204.405 373.499 210.551 377.991 210.142 380.054C209.384 383.877 202.553 378.39 200.223 378.627C197.554 378.899 194.62 384.978 190.246 383.382C190.1 378.363 195.73 374.503 195.892 369.572C195.996 366.423 192.225 362.55 193.16 359.393C194.785 353.907 199.158 363.44 199.991 364.179Z" fill="black"/>
<path d="M430.894 634.059C432.886 626.529 433.887 619.502 428.989 612.786C426.533 609.419 421.617 608.035 421.42 603.799C430.643 605.185 439.185 614.552 438.495 624.112C438.209 628.071 435.654 634.459 430.894 634.059Z" fill="black"/>
<path d="M666.677 166.637C666.292 166.879 664.069 166.863 663.963 166.759C661.843 164.685 675.262 142.917 674.907 137.889C674.749 135.649 671.334 132.375 674.854 129.891C682.559 135.603 674.905 150.493 671.422 157.662C670.814 158.913 667.107 166.366 666.677 166.637Z" fill="black"/>
<path d="M574.581 216.259C574.94 216.661 575.972 218.662 575.849 218.781C573.678 218.319 569.03 221.483 567.476 220.552C567.169 220.369 566.843 218.598 565.937 217.845C562.93 215.345 554.552 212.143 558.28 206.448C559.627 204.39 565.999 207.345 567.655 208.525C569.121 209.57 572.911 214.388 574.581 216.259Z" fill="black"/>
<path d="M599.059 684.199C604.046 685.583 594.409 690.821 591.48 690.821H577.268C574.847 690.821 576.01 684.199 579.163 684.199C583.569 684.199 595.891 683.32 599.059 684.199Z" fill="black"/>
<path d="M524.68 195.147C526.258 196.87 515.871 207.682 514.409 209.95C510.985 215.265 510.355 223.252 501.952 224.462C500.124 222.521 509.438 210.599 511.046 208.484C512.042 207.173 522.949 193.256 524.68 195.147Z" fill="black"/>
<path d="M605.205 248.108C603.556 248.334 604.316 245.958 604.27 244.815C604.18 242.551 603.82 237.239 604.422 235.498C604.895 234.132 609.841 229.865 609.527 234.89C609.246 239.386 606.886 244.016 605.205 248.108Z" fill="black"/>
<path d="M725.29 383.613C749.333 379.279 746.226 419.835 721.849 408.358C712.136 403.785 714.238 385.605 725.29 383.613ZM726.164 394.42C725.217 395.564 722.771 395.591 722.708 398.024C722.524 405.173 735.426 406.946 736.434 398.65C736.761 395.952 731.845 389.866 729.792 389.07C728.258 388.476 727.421 392.9 726.164 394.42Z" fill="black"/>
<path d="M761.56 385.28C761.289 379.346 749.648 369.223 749.209 364.882C749.1 363.801 749.146 362.725 750.124 362.049C757.117 357.213 777.363 382.373 761.56 385.28Z" fill="black"/>
<path d="M722.298 365.011C720.771 367.072 711.154 377.41 709.438 371.539C708.357 367.84 718.668 359.629 723.138 360.694C725.77 361.321 723.146 363.865 722.298 365.011Z" fill="black"/>
<path d="M763.44 412.721C762.295 414.381 761.799 422.726 759.188 422.168C753.619 417.747 755.605 409.348 763.44 412.721Z" fill="black"/>
<path d="M603.132 144.346C616.46 143.484 625.355 148.608 626.934 162.589C628.112 173.017 618.242 187.416 607.36 189.242C568.164 195.817 565.228 146.797 603.132 144.346Z" fill="black"/>
</svg>
