<svg width="444" height="250" viewBox="0 0 444 250" fill="none" xmlns="http://www.w3.org/2000/svg">
<path d="M45.0797 118.029C42.3033 121.431 40.5235 125.871 38.047 129.473C37.8365 129.779 37.7843 130.291 37.3294 129.695C39.466 125.021 42.743 120.935 45.0628 116.346C44.6474 103.122 44.5823 89.8349 44.4473 76.6613C44.4064 72.6683 44.0806 67.5621 47.3938 64.6651C50.8818 61.6153 55.7683 61.9064 59.8893 60.5218C61.7359 59.9015 63.5067 58.5266 65.4064 58.0384C71.5702 56.4544 77.8856 57.8655 83.9981 58.5753C97.2507 60.1143 110.465 61.6842 123.653 63.7297C127.489 64.3246 132.825 64.3268 136.01 66.7965C138.812 68.9695 139.222 72.8775 139.278 76.18C143.179 76.6974 147.993 77.1394 151.262 79.459C156.195 82.9607 155.319 90.303 155.994 95.5942C157.462 95.7764 158.115 93.4527 158.385 92.3279C158.834 90.4567 158.869 88.2626 158.794 86.3371C158.407 76.3916 156.669 62.9407 155.024 53.0419C154.264 48.4709 152.903 40.2076 149.18 37.2359C147.417 35.8277 142.512 34.4118 140.28 34.4501C139.407 34.4651 138.139 35.7947 136.599 35.8476C134.523 35.919 133.484 34.9281 131.845 34.4938C130.12 34.0369 125.372 33.8702 123.682 34.4234C123.485 34.4881 120.803 37.083 120.737 37.3015C120.409 38.396 120.837 40.1416 120.677 41.3319C122.489 40.0501 123.93 38.339 125.628 36.9331C125.873 36.7298 126.252 36.1406 126.559 36.6317L114.938 47.9987L114.48 47.8516C115.02 46.1526 119.893 43.0478 120.538 41.6356C120.629 41.4376 119.288 39.3592 119.741 38.6051L116.215 41.9704C114.706 43.6244 113.316 46.7287 110.887 47.0642C109.092 47.312 105.368 47.0169 103.476 46.7924C97.7679 46.1152 91.7244 45.4716 86.0842 44.3797C85.5168 44.2698 84.9669 44.5801 84.418 44.4756C81.7393 43.9653 79.7211 39.9957 79.4718 37.5397C78.8427 31.3408 79.9114 24.1692 79.4962 17.8647C79.5997 16.3937 81.2555 14.3375 82.7359 14.0643C84.2212 13.7902 88.9728 14.4643 90.6906 14.7394C97.2499 15.79 103.837 17.3157 110.387 18.5064C114.126 19.1862 117.873 19.6654 121.603 20.4183C120.649 21.5897 117.92 20.3539 116.45 20.1524C112.392 19.5964 107.789 19.2888 103.82 18.566C98.6596 17.6264 92.8797 15.5758 87.6462 14.99C85.8364 14.7874 82.5359 14.3786 82.2411 16.6096C81.7876 20.0426 82.5213 23.8055 82.5818 27.2211C82.6328 30.1044 82.2449 33.3157 82.321 36.0263C82.4146 39.3591 84.0819 39.8933 86.5694 41.2034C92.1621 44.1489 100.946 43.7503 107.814 44.3661C108.647 44.4408 109.903 45.0406 110.533 44.9091C111.501 44.7067 113.55 42.9849 113.858 41.9412C111.491 42.5155 110.467 45.1678 107.8 43.4701L99.9165 42.5445H105.183L104.877 23.1431C105.366 23.2067 105.803 24.8876 105.803 25.1135V41.6351C107.47 41.3558 108.881 40.3569 110.258 39.4631C110.609 39.2351 110.693 38.802 110.993 38.5997C112.39 37.6599 120.44 32.4652 120.826 31.6277C121.014 31.2187 121.21 27.6129 120.981 27.3869C120.097 27.2445 120.077 28.5347 119.568 29.1865C117.062 32.3994 112.153 32.0391 111.691 27.8424C111.056 22.0876 117.179 20.3583 120.209 24.9564C122.391 21.5833 127.169 24.1954 129.944 22.6644C130.533 22.3394 130.931 21.517 131.597 21.2504C132.796 20.77 134.636 20.9943 135.821 21.5084C136.93 21.9892 137.504 23.3315 138.182 23.4555C139.716 23.7361 141.263 22.7285 142.534 22.554C147.944 21.8111 160.266 26.6705 164.506 30.122C169.182 33.9286 173.064 48.0624 174.979 54.1299C181.021 73.275 190.403 103.25 177.625 121.159C174.075 126.135 170.041 128.107 163.738 128.034C163.724 129.356 164.453 130.66 164.044 131.971C163.587 131.995 163.503 130.892 163.464 130.574C163.23 128.644 164.176 127.378 161.26 127.731L161.877 134.094C160.941 134.243 161.383 133.865 161.252 133.358C160.825 131.698 161.103 129.354 160.592 127.928C160.406 127.411 158.911 126.546 158.873 128.102C158.814 130.541 159.035 132.906 158.778 135.308C158.092 135.031 157.96 133.646 157.891 132.996C157.758 131.748 158.327 127.075 157.072 126.821L156.352 127.323C156.353 132.66 156.184 138.017 156.29 143.354C156.419 149.891 157.521 157.856 156.935 164.271C156.514 168.871 152.411 170.756 148.328 171.614C147.245 171.841 143.632 171.762 143.132 172.592C142.638 173.412 143.513 179.288 143.216 181.162C142.422 186.18 137.176 187.418 132.772 187.766L133.065 190.783C131.64 191.006 132.327 187.932 132.136 187.751C129.765 187.262 131.628 189.551 131.204 191.087C129.838 189.92 131.34 187.694 128.729 187.753V192.148C128.729 192.336 126.308 194.043 125.86 194.191C125.15 194.425 122.954 194.399 122.83 194.927C122.807 202.416 123.782 210.059 122.689 217.46C122.163 217.107 122.255 216.638 122.207 216.113C121.998 213.831 121.716 211.562 121.6 209.276C121.04 209.39 121.022 209.872 120.971 210.325C120.722 212.545 120.688 214.921 120.671 217.157C120.173 217.108 120.089 215.855 120.058 215.487C119.729 211.665 120.101 207.452 120.068 203.68C120.034 199.681 120.183 195.694 119.712 191.724C117.456 191.138 115.08 191.456 112.761 191.403C111.448 191.373 109.483 190.653 108.172 191.377C107.419 191.792 108.684 194.01 108.128 194.724C106.573 193.207 108.229 190.726 105.182 191.389C104.981 193.988 105.613 196.526 105.493 199.124C105.474 199.531 105.752 200.386 105.032 200.183C104.511 197.71 104.859 194.258 104.207 191.89C104.05 191.318 102.395 191.595 102.395 191.694V200.94C102.395 201.151 102.969 202.181 102.088 202.302L101.152 196.545C99.5076 197.786 98.4005 199.024 98.9834 201.199C99.0672 201.512 99.7162 201.295 99.606 201.544C98.5282 203.972 99.2509 203.864 99.3097 206.081C99.4137 210.004 99.414 211.036 97.0706 214.222C96.646 214.799 96.0734 215.918 95.2694 215.943C96.9404 212.706 99.6485 211.024 98.3765 206.989C98.2414 206.561 98.5582 206.455 97.7537 206.55C97.1629 208.87 93.9762 211.574 93.2678 213.532C93.1213 213.938 92.6968 219.382 92.1743 218.674C92.1419 217.543 92.4912 215.998 91.2455 215.34C90.7619 215.895 90.4558 218.859 90.3067 218.977C90.2208 219.045 89.6384 218.937 89.3841 218.979C89.0007 214.861 88.6561 210.703 88.7602 206.548C87.3525 207.543 86.9093 209.555 86.0356 211.003C85.7529 211.471 85.2008 212.326 84.7388 212.609C84.6435 212.099 84.904 211.723 85.0842 211.284C85.8472 209.43 88.3208 206.033 88.7029 204.497C88.919 203.628 88.3852 202.856 88.4503 202.001C85.5826 204.995 83.7677 208.88 81.4812 212.306C81.0763 212.114 81.4555 211.478 81.5743 211.185C82.1022 209.881 85.2956 204.861 85.3239 204.292C85.3569 203.631 84.7738 202.54 85.0439 201.699L84.4193 201.843L78.5425 210.186C78.3979 208.744 81.9474 204.778 81.9474 203.971V199.576C78.9377 202.339 77.9423 206.975 75.1345 209.883C76.4111 206.857 77.8849 203.798 79.4195 200.891C80.4066 199.022 83.575 196.175 80.4021 194.726C80.1353 194.927 79.3163 200.204 78.8524 199.576L78.8462 198.06C78.3733 197.42 74.3176 205.442 73.5856 205.639C74.4953 200.84 79.4029 197.924 78.228 192.605C77.3866 192.424 77.6999 192.854 77.4625 193.206C76.6358 194.433 75.768 195.6 75.7476 197.149C75.1704 197.164 75.4009 196.063 74.6703 196.242C74.2399 196.347 72.1175 200.452 71.107 200.788C71.5451 198.934 73.9114 196.683 74.3688 195.04C74.7776 193.572 74.903 191.079 74.6683 189.573C72.1976 192.502 70.6986 196.128 68.1592 198.968L68.0092 198.519C69.5346 195.926 71.36 193.415 72.8136 190.79C73.1732 190.14 74.2515 188.304 74.385 187.766C74.5056 187.28 73.3638 186.374 72.7995 186.815C72.1756 187.302 70.6193 190.187 69.9912 191.06C69.2345 192.11 68.3831 193.131 67.5396 194.117C67.0945 193.899 67.5874 193.373 67.753 193.114C69.17 190.893 70.9679 188.821 71.7221 186.239C71.0268 186.244 70.3132 186.075 69.6878 186.519C69.1936 186.869 65.406 192.813 64.9107 192.3L68.6239 186.239C67.8468 186.344 66.4768 185.997 65.8326 186.384C65.623 186.51 63.635 189.758 63.1179 190.397C62.8244 190.76 62.7656 191.224 62.1209 191.086C61.7124 190.672 65.1489 186.763 64.5963 186.239C63.2262 186.855 59.0604 185.426 58.3014 185.663C57.5597 185.895 56.2844 189.625 55.6134 188.962C56.1403 187.434 58.0579 184.538 54.8898 185.315C54.4266 185.428 52.4762 190.275 51.5888 190.783C51.8733 188.595 53.3915 186.801 54.0639 184.725C50.8701 183.473 51.1087 187.564 49.1104 188.965C48.9979 187.93 51.426 184.618 51.2549 183.987C51.1962 183.77 49.8976 182.632 49.4451 182.929C49.2769 183.039 47.9355 185.92 47.6347 186.476C47.4288 186.857 47.8494 187.325 46.9397 187.144C47.0745 184.988 50.4167 182.568 47.2526 181.388L45.8615 184.425L44.4633 186.539C44.4297 184.556 46.5843 182.436 46.8852 180.55C46.9346 180.241 46.7006 178.739 46.6256 178.658C46.1072 178.1 45.9786 179.086 45.8762 179.272C45.1966 180.512 44.2604 182.465 43.3504 183.484C43.0428 183.828 42.8765 184.236 42.2915 184.112C43.136 182.431 44.5555 180.745 45.3979 179.121C46.5507 176.899 46.1643 175.922 45.696 173.505L39.1964 183.509C39.5111 182.217 40.3478 180.841 40.9991 179.668C41.6195 178.55 45.6993 172.582 45.6993 172.141V167.442C45.1352 167.333 45.0862 167.586 44.843 167.968C43.2994 170.391 42.2605 173.445 40.5791 175.932C40.473 176.089 40.3273 177.092 39.8131 176.533C39.6443 176.35 41.5973 172.548 41.865 172.027C42.8906 170.03 45.7565 166.262 45.7242 164.26C45.7201 164 45.4747 161.318 44.7746 161.986L37.6472 174.717C37.8902 173.58 38.5272 172.435 39.0309 171.375C41.1743 166.866 45.4768 161.515 45.6971 156.674C45.7126 156.335 45.8223 155.643 45.2388 155.925C44.6133 156.227 39.2125 166.019 38.2127 167.543C38.1122 167.696 37.567 168.564 37.3317 168.197C37.7559 165.151 45.6993 155.294 45.6993 153.345V148.95C45.1293 148.831 45.0937 149.119 44.8236 149.457C41.8418 153.187 40.4678 159.101 37.0276 162.591C39.1015 158.053 41.6106 153.698 44.1427 149.397C44.4043 148.953 45.3895 147.986 45.3895 147.889V142.584C44.6758 142.447 44.8932 142.648 44.6905 142.97C42.6247 146.251 40.9251 150.44 38.6666 153.725C38.4561 154.031 38.404 154.543 37.9491 153.947C39.4544 150.034 42.341 146.8 44.2029 143.09C45.2367 141.03 45.6321 140.022 45.3606 137.608C45.3276 137.315 45.2265 136.468 44.7738 136.523L40.1264 144.861L38.2617 147.28C39.8842 142.936 42.7892 139.155 45.1078 135.159C45.1913 134.506 45.4924 130.471 44.9248 130.455C42.3549 134.138 40.5657 138.778 37.7725 142.254C37.6708 142.381 37.1697 143.131 37.0219 142.733C39.5108 137.936 42.5057 133.322 45.2614 128.638C45.1368 127.378 45.1406 126.111 45.0812 124.843C45.0652 124.502 45.2799 124.012 44.7737 124.094C42.5955 128.066 40.3946 132.478 37.7153 136.135C37.6148 136.273 37.2206 137.09 37.0219 136.67C37.2485 135.798 37.7156 134.923 38.1505 134.136C39.0157 132.571 45.0797 123.391 45.0797 122.727V118.029ZM80.7081 16.7769V35.7237C80.7081 35.886 81.2396 37.0752 81.6344 37.0878C81.0909 35.2938 81.6283 33.7161 81.6502 32.0985C81.6842 29.5855 81.7086 26.9953 81.6533 24.5218C81.601 22.1869 81.6151 19.5263 81.3294 17.2252C81.2732 16.773 81.0798 16.2958 80.7081 16.7769ZM137.704 30.1108C137.832 29.9884 138.065 27.088 138.028 26.6317C137.769 23.4993 135.121 22.0187 132.139 21.9321C131.967 22.7402 132.351 22.4537 132.749 22.684C134.946 23.9541 135.413 24.5162 136.072 27.0234C136.257 27.7276 136.364 30.0065 136.477 30.1166C136.52 30.1591 137.661 30.1529 137.704 30.1108ZM117.884 24.6576C118.561 24.0556 116.242 23.471 115.856 23.4861C114.426 23.5423 113.141 25.5121 113.6 26.8858C113.641 27.0089 115.361 28.5922 115.537 28.6486C117.812 29.3819 120.123 27.0588 118.506 25.1109C117.742 24.7879 118.644 26.0694 118.367 26.4717C118.317 26.5447 117.169 27.6948 117.079 27.7026C114.525 27.9224 114.307 23.0627 117.884 24.6576ZM132.671 24.1391C132.434 23.9884 131.387 23.813 131.052 23.8128C129.902 23.8123 123.983 24.4447 123.16 24.818C122.216 25.2467 122.328 26.156 123.57 26.1566C125.329 26.1575 130.553 24.3114 131.832 25.1243C132.259 25.396 132.115 26.3118 133.685 25.8698C133.873 25.7163 132.784 24.211 132.671 24.1391ZM143.289 24.0545C142.393 23.2939 141.913 25.4758 141.735 26.018C141.594 26.4473 140.619 29.2131 141.586 29.1999C141.863 29.1961 143.498 24.2316 143.289 24.0545ZM145.151 24.0513L143.598 24.051C144.036 26.1743 142.871 28.0779 142.742 30.0617C142.706 30.6117 142.566 30.9403 143.137 31.3265C143.6 30.4076 145.545 24.4357 145.151 24.0513ZM174.887 66.494C175.282 66.8668 177.444 75.5407 177.778 76.8552C179.366 83.0954 181.09 89.2616 180.774 95.7441C180.621 98.9015 180.183 104.093 179.44 106.866C179.298 107.395 178.888 108.822 179.066 109.231C179.55 110.343 180.23 109.774 180.621 108.932C181.046 108.014 181.916 101.929 182.014 100.594C183.26 83.575 173.37 53.0111 166.361 37.0976C164.72 33.3716 164.402 32.074 160.735 29.8704C158.268 28.3875 153.571 26.1784 150.885 25.2608C149.443 24.768 147.98 24.5565 146.529 24.1213C145.643 24.2749 144.821 30.2605 144.841 31.3265C145.651 31.4744 145.385 31.1729 145.601 30.7232C146.012 29.8691 146.45 28.3851 146.634 27.4471C146.721 27 146.321 24.9408 147.163 24.9678C147.37 24.9744 147.575 25.7341 147.838 25.8902C148.384 26.2138 149.174 26.0629 149.775 26.3485C151.125 26.9904 154.166 28.5938 155.217 29.5105C160.983 34.5399 163.49 51.4756 165.379 58.9762C170.168 77.9902 176.124 91.1923 168.617 110.829C167.023 115 165.334 118.971 161.879 121.966C165.517 121.645 168.7 116.853 170.147 113.841C174.931 103.877 175.281 92.0021 173.245 81.2912L165.6 48.0013C166.41 48.5815 166.697 50.0893 166.99 51.0332C171.238 64.7038 173.927 80.7045 175.818 94.8345L174.893 104.385C175.246 104.352 175.579 104.558 175.847 104.206C176.187 103.759 176.948 100.111 177.022 99.3481C177.511 94.3447 176.803 87.2176 176.047 82.1867C175.16 76.2788 173.02 70.5809 172.106 64.6761L173.32 67.8795C174.213 72.0836 175.43 76.2234 176.289 80.4346C177.902 88.3427 178.578 93.6193 177.61 101.741C177.483 102.805 176.359 104.292 178.297 104.536C177.982 105.95 176.968 105.798 176.818 105.95C176.712 106.059 176.534 107.222 176.611 107.435C176.688 107.645 177.514 108.584 177.84 108.03C178.049 107.676 179.034 104.17 179.156 103.558C180.817 95.2814 179.667 87.8847 177.897 79.7703C176.938 75.3711 175.611 70.9445 174.276 66.6406C174.233 66.382 174.863 66.4715 174.887 66.494ZM132.446 26.1753C129.933 25.4845 130.119 29.0047 131.069 30.4057C132.082 31.9013 135.421 33.8098 137.093 32.5367C137.351 32.1743 133.979 31.2236 133.578 30.979C131.313 29.5976 132.722 26.4407 132.446 26.1753ZM147.631 26.4777C147.584 27.9899 146.931 29.3899 146.681 30.8615C146.597 31.3537 146.144 31.4675 146.853 31.9282C147.555 31.8815 148.868 27.7344 148.78 27.2182C148.725 26.8986 147.953 26.6286 147.631 26.4777ZM128.418 26.7814C128.022 26.8206 126.044 27.0121 125.957 27.0989C125.793 27.264 126.037 29.3078 125.944 29.8121C126.452 29.3502 127.856 29.6499 128.077 29.4764C128.234 29.3536 128.561 26.9253 128.418 26.7814ZM150.41 27.3949C150.344 27.31 149.385 26.928 149.216 27.577C148.866 28.9169 149.072 31.0803 148.56 32.5405C149.503 32.2471 150.644 27.6972 150.41 27.3949ZM150.722 34.0561C150.677 32.2928 151.655 30.6372 152.018 29.0985C152.085 28.8178 152.447 28.5228 151.807 28.2996C151.02 28.0253 151.191 28.2506 151.028 28.7399C150.574 30.1057 149.112 33.5161 150.722 34.0561ZM153.447 29.5831C153.257 29.3893 152.658 29.103 152.424 29.5018C152.304 29.7056 151.188 33.8038 151.167 34.0379C151.117 34.6053 151.821 34.8851 152.121 35.2675C152.352 33.7372 153.375 31.8321 153.664 30.4414C153.725 30.1479 153.659 29.7991 153.447 29.5831ZM129.967 31.9327C129.267 29.9645 126.885 30.6236 125.322 31.0286C126.131 32.6298 128.475 31.7076 129.967 31.9327ZM153.511 37.0875C153.681 35.3506 154.843 33.3882 155.006 31.6985C155.046 31.2822 155.044 30.9095 154.595 30.7245C153.429 30.2437 153.905 31.9395 153.75 32.6205C153.419 34.0796 151.85 36.2271 153.511 37.0875ZM122.841 31.9359C122.602 31.7048 121.606 32.5253 121.325 32.7226C119.071 34.3024 117.024 36.2558 114.767 37.8258C113.19 38.9231 111.086 39.8231 109.407 41.0689C109.029 41.3492 108.611 41.9063 108.904 42.2414C109.03 42.3854 111.703 40.2045 112.029 39.9965C115.381 37.8596 119.041 35.6499 122.198 32.9714C122.425 32.7789 123.156 32.2403 122.841 31.9359ZM156.298 32.2386C156.176 32.1625 155.636 32.2817 155.374 32.2352C155.829 34.5635 152.865 37.4012 154.6 39.2084C154.743 38.1747 157.044 32.7023 156.298 32.2386ZM155.989 41.6328C156.174 40.6617 159.094 34.396 157.077 34.3656C156.698 34.3599 155.489 39.5727 155.082 40.2949C155.371 41.6362 155.451 38.9346 156.301 39.5148C156.468 40.0786 155.067 41.3023 155.989 41.6328ZM119.72 38.2759C119.796 38.169 119.935 37.2663 119.438 37.3936C119.479 37.7716 119.333 37.8882 119.046 38.0889C117.738 39.0025 116.052 39.8209 115.407 41.329C115.845 41.7494 118.458 38.8232 118.726 38.5808C118.941 38.3865 119.638 38.3928 119.72 38.2759ZM158.469 38.9083C157.57 38.7365 157.977 39.1701 157.773 39.5744C156.907 41.2891 156.18 43.3427 156.306 45.2714L158.259 40.9734L158.469 38.9083ZM159.708 41.3307C159.236 40.7607 159.176 41.5106 159.061 41.7583C158.171 43.6742 157.401 46.8013 157.234 48.9091C158.11 49.0634 157.743 48.7063 157.93 48.2444C158.549 46.72 159.26 45.0191 159.768 43.6327C159.92 43.2192 159.852 41.5033 159.708 41.3307ZM158.467 53.7588C159.22 51.0455 161.345 48.0756 160.636 45.2732C159.413 46.7003 158.636 49.7417 158.3 51.6233C158.22 52.0762 157.806 53.6165 158.467 53.7588ZM161.568 50.1248C160.777 49.9882 161.01 50.2456 160.81 50.73C160.143 52.3434 159.797 54.469 159.403 56.1845L161.358 52.19L161.568 50.1248ZM159.706 61.9438C160.522 58.879 162.297 56.063 162.495 52.8531C162.019 53.1621 161.477 54.3909 161.315 54.9035C160.833 56.4305 160.297 57.911 159.815 59.4722C159.677 59.9214 159.069 61.7382 159.706 61.9438ZM163.426 56.7914C163.011 56.306 162.88 56.9291 162.737 57.1804C162.039 58.4051 161.873 59.9861 161.57 61.3376L162.191 60.4257C162.927 61.2647 163.492 59.0691 163.565 58.3549C163.59 58.1137 163.478 56.8516 163.426 56.7914ZM136.474 76.194V71.7984C136.474 71.1262 134.996 68.3886 134.393 67.9965C132.572 66.8125 127.214 66.4665 124.936 66.1126C112.612 64.1975 100.168 62.8627 87.7114 61.308C81.561 60.5404 70.0679 57.5594 64.6887 60.6708C62.7689 61.7812 62.2735 63.6628 62.1082 65.7245C61.6296 71.6921 62.1342 77.8985 61.7948 83.9095C61.7719 84.3162 61.5722 85.805 62.1159 85.893C62.9042 81.4656 65.5088 76.815 70.0993 75.3626C79.2673 72.4621 85.7815 70.4956 95.731 71.0435C104.147 71.5069 113.499 73.3441 121.838 74.6001C122.38 74.6818 122.917 74.7141 123.462 74.6752C121.244 71.2475 123.291 67.2596 127.628 67.3948C132.351 67.5421 133.277 71.4988 131.826 75.2825L136.474 76.194ZM164.356 60.4318C163.469 60.267 163.858 60.6676 163.656 61.0942C162.9 62.6852 161.622 66.0793 161.161 67.7612C160.805 69.0597 160.623 70.5995 160.643 71.9485L163.414 63.5996C164.094 62.5651 164.575 61.7297 164.356 60.4318ZM161.878 61.9479C160.177 61.6561 160.622 64.0257 160.466 64.7064C160.34 65.256 159.869 65.9132 159.71 66.4903C160.603 67.3681 161.763 62.3708 161.878 61.9479ZM60.8801 70.8889C61.0784 69.201 60.8801 66.9057 60.8801 65.1291C60.8801 64.8265 61.804 63.1382 61.4983 62.8572C57.5453 62.8495 58.3357 67.9824 58.0949 70.7373C60.2203 69.1028 58.5604 65.5728 60.5672 63.765C59.8935 66.4829 60.0708 69.1889 60.2636 71.9485C60.5926 72.0619 60.8658 71.0107 60.8801 70.8889ZM57.1622 63.1615C52.2261 62.8321 50.3391 66.1181 50.6548 70.5847C51.7126 70.2123 51.6275 68.6148 52.2107 67.5595C52.4312 67.1604 54.2324 64.8741 54.6838 65.2837C54.4653 66.1321 53.5378 66.9581 53.2786 67.695C52.1543 70.8913 53.3105 81.0609 53.3277 85.0859C53.3398 87.9068 53.1541 90.7942 53.1475 93.6377C53.1389 97.323 53.2644 100.915 53.1593 104.534C52.5777 124.569 53.9654 144.226 55.2907 164.271C56.5241 168.741 54.6901 175.882 57.6194 179.575C58.2055 180.314 59.3654 181.549 60.4138 181.388C60.0789 180.341 59.1434 179.619 58.7028 178.514C57.1596 174.643 56.4287 165.323 56.2202 160.937C55.8201 152.521 56.431 143.968 55.3004 135.613L54.6824 136.064C54.434 135.181 55.2579 135.496 55.328 134.874C55.8818 129.957 55.1004 122.233 55.0083 116.953C54.7544 102.391 53.7479 86.5402 54.3673 72.0871C54.5123 68.7032 54.7042 65.7951 57.1622 63.1615ZM165.285 64.0697C164.513 63.9093 164.738 64.239 164.482 64.6355C163.693 65.8575 163.489 67.4774 163.43 68.917C164.255 69.0843 163.963 68.7101 164.199 68.32C165.041 66.9276 165.527 65.7455 165.285 64.0697ZM164.151 72.9509C164.247 72.8094 164.687 72.7804 164.907 72.3472C165.536 71.1072 165.509 69.0628 165.904 67.7062C164.448 69.5169 164.25 72.1998 163.167 74.2765L163.736 74.6799C163.719 74.0333 163.771 73.507 164.151 72.9509ZM131.204 73.4643C132.275 67.7282 123.699 66.6052 124.721 72.692C124.912 73.8298 126.881 75.6739 127.143 74.5041C127.49 72.9577 125.995 72.591 125.934 72.3441C125.528 70.7079 125.995 70.1402 127.652 70.1855C129.63 70.2397 129.812 72.4734 131.204 73.4643ZM162.185 83.1642C163.652 79.0565 166.406 75.0789 166.833 70.7389C166.393 70.7466 166.223 71.6009 166.074 71.9614C164.77 75.1011 163.103 78.7976 162.024 81.9441C161.925 82.2326 161.576 83.2123 162.185 83.1642ZM130.2 74.6052C131.943 72.9803 127.136 71.5655 128.112 75.2849C128.197 75.3641 129.993 74.7989 130.2 74.6052ZM150.241 81.8195C150.013 81.5965 149.88 81.2796 149.601 81.0966C145.822 78.6164 137.489 78.8632 132.915 78.3124C121.509 76.9388 110.221 74.9433 98.7944 73.8059C87.2169 72.6535 82.8337 73.2639 72.2881 77.5043C70.3836 78.2701 69.0021 78.0142 67.386 79.9834C65.8117 81.9017 65.8889 83.5212 66.3004 85.8934C68.6497 83.8199 68.2875 80.1489 70.7911 78.3162C71.0492 78.6391 69.3969 81.2581 69.3061 81.8681C69.2151 82.4793 69.7065 83.3048 69.2461 84.0739C69.6752 84.5254 71.6318 81.9237 71.7989 81.5729C72.1491 80.8381 71.7502 79.47 72.9619 79.5307L72.9659 83.7727L73.7389 83.168C74.3017 83.5725 73.3361 83.9868 73.1385 84.3994C72.828 85.0477 72.6061 86.0841 72.3462 86.8041C73.0756 86.307 74.6523 84.0041 74.771 83.2412C74.9213 82.2752 74.329 80.4705 74.8247 79.2256C75.898 79.9688 75.7681 81.5106 75.4442 82.56C75.8541 81.9734 76.6363 82.308 76.6705 82.2507C77.0343 81.6401 76.4933 79.2065 77.15 78.9254C78.0275 78.5498 77.2275 80.2363 77.9167 80.1335L78.2262 78.6211C78.1528 79.3477 78.7508 79.9631 78.831 80.6078C79.4814 85.8374 79.0217 93.7619 79.1718 99.3724C79.6308 116.518 79.4665 134.479 80.7113 151.523C81.1354 157.33 81.2415 164.396 88.6338 165.295C92.1141 165.718 95.6813 165.302 99.1292 165.307C115.359 165.333 131.555 166.009 147.768 166.547C148.635 166.576 150.399 166.676 151.126 166.47C152.742 166.011 152.235 163.15 153.815 165.168L152.124 166.839C154.049 166.458 154.908 164.463 155.043 162.731C155.392 158.266 154.048 151.922 153.827 147.279C152.899 127.833 153.886 107.768 152.082 88.4202C152.021 87.7615 152.318 87.0802 152.199 86.1266C152.012 84.627 151.329 82.8867 150.241 81.8195ZM167.764 74.0735C167.086 73.8935 166.692 75.2944 166.517 75.7315C165.954 77.1418 165.24 78.9693 165.29 80.4367L166.435 78.3781L167.764 74.0735ZM58.0949 78.0129C58.7843 77.8239 60.1423 75.3711 59.1746 74.983C59.021 74.9214 57.8334 77.5467 58.0949 78.0129ZM168.383 77.7113C167.486 77.5405 167.89 77.9698 167.686 78.377C167.083 79.581 166.398 80.8564 166.529 82.257C167.495 81.061 168.466 79.2366 168.383 77.7113ZM57.785 81.9538C58.4638 81.4267 59.2017 80.3488 59.5497 79.5877C59.7937 79.0538 60.1462 78.7504 59.4844 78.3176L57.785 81.9538ZM58.3969 85.8937C58.4924 85.8021 59.4601 83.7751 59.5475 83.53C59.8035 82.8123 59.8894 81.8141 59.9476 81.0445C59.1001 81.865 57.7553 84.3374 57.7702 85.4344C57.7766 85.9078 58.0349 86.2407 58.3969 85.8937ZM169.003 81.046L167.53 82.7858L167.149 84.379C168.314 83.7894 168.86 82.2719 169.003 81.046ZM164.667 81.3505C164.172 80.8162 164.008 81.7222 163.91 81.9558C163.306 83.3877 162.675 85.2541 162.502 86.8028C163.007 86.4792 163.466 85.3212 163.669 84.7661C163.824 84.3404 164.789 81.4821 164.667 81.3505ZM76.6767 86.802C76.8342 85.3165 78.2513 84.4378 77.9166 82.8648C77.337 83.3039 76.6226 84.5415 76.4417 85.2061C76.3628 85.4955 76.0893 86.8235 76.6767 86.802ZM57.7851 90.1388C59.6386 88.7931 60.4357 85.9815 60.2574 83.7743C59.7168 84.0214 59.8791 85.0365 59.5678 85.672C58.8527 87.1316 57.1767 87.9759 57.7851 90.1388ZM72.3455 90.1368C73.3036 90.8439 74.8795 86.6861 74.5088 85.8949C73.8133 86.4208 71.3199 89.38 72.3455 90.1368ZM69.8678 89.8357C71.1677 89.306 70.7682 87.9388 70.791 86.8058C69.8881 87.4188 69.7954 88.8715 69.8678 89.8357ZM68.6244 87.4127C68.1556 86.8557 67.9588 87.793 67.866 88.0172C67.2103 89.6008 66.6557 91.8185 67.0741 93.4727L66.1496 93.1709C66.3606 95.8045 67.4509 94.5708 67.8079 92.7966C67.932 92.18 67.7045 91.7152 67.785 91.2854C67.9035 90.6519 68.753 87.5655 68.6244 87.4127ZM76.064 91.0483C77.0529 90.8303 77.4223 87.7579 76.9867 87.4111C75.5149 88.0462 76.1854 89.8124 76.064 91.0483ZM58.0935 93.7752C59.8833 93.4931 59.6558 91.1271 59.6378 89.8358C58.7057 90.7892 58.0024 92.4783 58.0935 93.7752ZM74.5102 89.8372C72.9783 90.3236 72.3882 92.0615 72.6546 93.472C73.2344 94.1438 75.0058 90.4612 74.5102 89.8372ZM70.4542 93.4461C70.7164 93.2815 71.2944 90.6652 71.1007 90.1404C70.012 90.4741 68.6953 94.5498 70.4542 93.4461ZM163.428 90.1419C163.003 89.8247 162.719 90.1095 162.46 90.5655C161.964 91.4354 161.513 92.4541 161.572 93.4735L163.428 90.1419ZM62.3492 95.5415C62.8968 94.704 61.8119 92.1401 62.1163 91.0498C61.6677 90.9788 61.6878 91.5834 61.5961 91.8974C60.8276 94.5279 61.4774 98.9007 61.4851 101.798C61.5357 120.774 62.0646 139.613 62.442 158.486C62.5258 162.68 62.356 166.889 62.4261 171.08C61.7845 170.927 61.8602 169.937 61.8283 169.424C61.5984 165.722 61.7588 161.946 61.5033 158.24C60.3599 157.849 61.3668 157.853 61.5176 156.697C62.0596 152.544 61.3116 147.791 61.1931 143.642C60.7342 127.577 59.9625 111.507 59.8339 95.4889C59.8314 95.1681 59.5968 93.8469 59.026 94.3841C58.9355 94.4692 58.1178 96.4946 58.1055 96.6705C58.0107 98.0234 58.6869 101.363 58.724 103.01C59.0686 118.302 58.8977 133.527 59.6281 148.811C60.0077 156.754 60.3162 166.459 61.8895 174.184C63.5455 182.316 71.6393 183.484 78.8421 182.282C78.9838 182.085 78.1921 179.121 78.304 178.542C78.3734 178.184 79.0371 177.808 79.2382 177.368C80.0121 175.676 78.5688 171.731 76.3739 171.383C76.2107 173.919 77.8959 175.874 76.6896 178.213C75.5917 180.342 74.298 180.768 71.8841 180.802C66.3547 180.88 65.4459 174.442 69.2272 171.212C69.6373 170.861 70.7767 170.834 70.4828 170.324C68.2902 168.719 66.4308 166.65 65.3067 164.172C63.8457 160.951 64.5319 159.611 64.2849 156.38C62.8456 137.55 63.656 118.544 62.4164 99.7005C62.334 98.4469 62.963 96.1397 61.8056 95.7471C61.7596 95.4685 62.2524 95.6896 62.3492 95.5415ZM76.3739 94.6861C77.7455 94.2993 77.7253 93.5152 77.6069 92.261C76.5712 92.7538 76.1913 93.5709 76.3739 94.6861ZM72.6561 97.1113C73.103 97.0355 73.2791 96.5898 73.4955 96.2683C73.6498 96.0388 75.4727 93.116 74.357 93.1765C73.2515 94.2738 72.3808 95.4916 72.6561 97.1113ZM71.4123 94.0815C70.8465 93.4873 69.2414 96.768 69.5565 97.1098C70.1712 97.7767 71.6264 94.3064 71.4123 94.0815ZM67.3828 98.0212C67.5117 97.8824 68.4309 94.5305 68.3125 94.383C68.0041 94.5919 67.1678 94.9286 67.0783 95.2124C66.9969 95.4703 66.4614 99.0138 67.3828 98.0212ZM50.9645 94.9908L50.0316 95.1945C49.4477 96.7311 48.5918 98.1504 47.8635 99.6258C47.6837 99.99 46.7458 100.232 47.2515 101.657L48.8595 99.7488C49.0943 99.0002 51.3726 95.3739 50.9645 94.9908ZM77.61 95.5956C76.195 95.4777 76.9594 95.7052 76.7966 96.2148C76.3105 97.7356 76.2712 98.8408 76.3724 100.444C76.4157 100.49 77.61 100.205 77.61 100.143V95.5956ZM74.8201 96.8097C74.1402 96.0732 72.198 100.191 72.3447 100.747C72.973 101.386 75.1864 97.5695 74.8201 96.8097ZM67.0765 100.443C67.6705 101.022 69.0422 98.5332 69.1895 98.1143C69.3607 97.6278 69.8195 97.6278 69.0901 97.1173L67.0765 100.443ZM67.692 105.294C68.6654 102.541 71.1469 100.365 71.4107 97.4145C70.0938 99.0773 67.2427 102.474 67.2308 104.541C67.2293 104.793 67.2846 105.389 67.692 105.294ZM47.2515 105.903C48.7204 103.919 51.0421 101.438 50.963 98.9303C50.1711 99.4634 49.9345 100.667 49.4198 101.429C49.2046 101.747 48.7326 101.839 48.4185 102.341C47.7891 103.346 47.1188 104.713 47.2515 105.903ZM67.6991 112.875C69.7869 110.51 71.0992 107.57 72.7074 104.895C73.5743 103.453 75.198 102.496 74.8186 100.446C74.4095 100.525 74.1848 100.96 73.9462 101.257C72.9476 102.499 72.1298 104.509 71.2429 105.887C69.8156 108.106 67.2461 110.143 67.6991 112.875ZM71.4121 101.66C70.7772 101.532 70.6935 101.962 70.4233 102.357C69.8059 103.258 69.2191 104.477 68.5744 105.411C68.3092 105.796 67.7662 105.872 67.5908 106.277C67.208 107.159 67.4375 108.301 67.3893 109.237C68.3355 108.247 72.3019 102.691 71.4121 101.66ZM76.4031 102.598C75.9604 102.837 77.2179 106.635 77.6068 101.963C77.1182 101.836 77.4195 102.345 77.2063 102.476C76.9295 102.646 76.5468 102.52 76.4031 102.598ZM51.2743 103.176C50.4998 103.166 50.019 104.183 49.607 104.724C48.2008 106.573 46.8268 108.641 47.2515 111.055L50.9363 105.722L51.2743 103.176ZM74.5118 104.39C73.0212 104.453 73.4756 106.209 73.1055 107.103C72.2452 109.181 68.8826 112.207 68.2339 114.49C67.9903 115.347 68.3882 115.967 68.3187 116.815L72.8539 110.495C73.4865 108.561 75.4456 107.118 75.1293 104.994L73.8926 105.294L74.5118 104.39ZM76.9904 108.328C77.4579 106.997 78.2216 105.88 77.9167 104.387C77.0159 104.746 75.9185 107.83 76.3724 108.328C76.5714 108.31 76.8222 108.369 76.9904 108.328C76.7539 109.001 76.5203 109.749 76.3722 110.448C76.8318 110.923 78.821 108.485 77.9162 107.722C77.78 107.607 77.2859 108.256 76.9904 108.328ZM159.598 120.037C162.542 117.875 165.382 114.854 164.941 110.939C164.762 109.341 163.448 107.107 161.708 106.831C158.307 106.292 157.461 107.586 156.944 110.627C156.891 110.937 156.74 111.442 157.228 111.357C158.271 109.316 161.607 106.06 162.717 109.78C163.6 112.741 163.016 115.113 160.84 117.315C160.157 118.005 157.463 119.46 157.281 120.049C157.146 120.486 157.3 121.368 157.696 121.357C157.813 121.354 159.316 120.244 159.598 120.037ZM50.8112 108.031C50.0718 109.878 47.0426 112.688 46.9533 114.571C46.9363 114.93 47.0691 115.614 47.4034 115.597C47.7048 115.583 50.5058 111.179 50.7182 110.662C50.8438 110.356 51.6893 107.976 50.8112 108.031ZM75.1284 108.631C72.8191 111.808 70.3592 114.98 68.663 118.519L68.7804 120.448C70.4296 117.801 72.0449 115.154 73.6313 112.468C74.3615 111.232 75.5933 110.602 75.1284 108.631ZM160.333 113.179C161.664 114.26 162.597 109.893 161.101 109.541C159.806 109.237 159.931 112.852 160.333 113.179ZM177.061 110.15C175.386 109.315 174.543 112.17 176.273 111.651C176.682 111.528 176.846 110.531 177.061 110.15ZM159.709 110.149C159.193 109.543 158.513 111.581 158.478 111.841C158.385 112.528 158.525 113.506 159.25 113.781C160.205 114.144 159.414 111.826 159.397 111.509C159.375 111.106 159.809 110.265 159.709 110.149ZM179.847 110.148C178.977 109.288 177.385 111.562 178.767 111.963C179.962 112.309 180.065 110.364 179.847 110.148ZM78.228 110.451L76.9891 111.818C78.4651 112.44 77.2784 112.709 77.0033 113.101C75.595 115.108 73.5906 117.725 72.3922 119.744C71.7942 120.752 71.1006 123.241 70.5076 123.902C70.2341 124.207 69.699 123.932 69.5487 124.293C69.4341 124.568 68.4048 127.494 69.5626 126.676C70.2741 126.173 70.1368 125.39 70.469 124.912C70.722 124.548 71.3642 124.437 71.7298 123.948C73.6266 121.41 75.1783 118.361 77.6069 116.21L77.5996 116.957C75.5752 120.09 73.2753 123.043 71.1576 126.113C70.8678 126.533 70.6063 127.499 70.4306 127.659C70.368 127.715 69.9901 127.528 69.8677 127.616C68.6921 128.463 68.9141 129.788 68.9383 131.064C70.2835 130.359 70.2422 128.854 70.7794 127.866C71.3638 126.792 73.4495 124.943 74.3356 123.768C75.5624 122.14 76.4914 120.049 78.0763 118.636C78.264 120.762 76.0224 122.568 75.0022 124.117C74.3586 125.094 73.8469 126.304 73.0925 127.401C72.1873 128.718 71.2287 128.827 71.7267 131.062L77.9454 122.752L78.2318 121.362L79.1563 121.666C79.654 117.776 78.0307 114.316 78.228 110.451ZM69.2404 123.787C69.352 123.68 70.2585 121.519 70.5953 121.017C71.5665 119.571 76.3008 113.488 76.3699 112.394C76.4418 111.254 75.7142 111.026 75.0112 112C74.0488 113.333 69.1427 120.671 68.7973 121.683C68.671 122.053 68.3499 124.648 69.2404 123.787ZM76.3677 167.442C76.5277 166.745 76.0059 166.775 75.6061 166.523C74.4536 165.797 73.2781 165.311 72.1974 164.401C69.852 162.428 69.8231 161.313 69.3424 158.404C67.4016 146.658 67.7828 134.017 67.0732 122.124L65.8403 111.664L66.1342 135.169C67.1159 142.727 66.4204 151.241 67.7819 158.718C68.6592 163.535 71.8855 165.848 76.3677 167.442ZM178.294 114.997C179.87 112.131 177.579 111.816 176.748 114.385L178.294 114.997ZM50.2515 115.816C50.9167 114.898 51.5141 113.949 50.9624 112.876C49.633 114.957 46.9087 116.741 47.2515 119.544C48.6622 118.977 48.7137 117.303 49.4122 116.344C49.6012 116.084 50.11 116.011 50.2515 115.816ZM159.334 117.354C159.415 117.308 160.047 116.212 160.022 116.066C158.83 114.834 157.748 116.113 157.853 117.421C158.305 117.374 158.953 117.566 159.334 117.354ZM173.96 116.211C173.344 115.608 171.428 117.776 172.572 118.027C173.664 118.267 174.202 116.448 173.96 116.211ZM177.368 116.211C175.046 116.137 176.231 117.337 176.135 117.419C176.094 117.454 175.535 117.378 175.231 117.59C173.504 118.791 175.127 119.92 174.889 120.15C174.136 120.029 173.895 119.673 173.179 120.125C172.05 120.836 172.78 121.589 172.712 121.649C172.671 121.686 172.098 121.656 171.662 121.987C170.56 122.823 169.685 124.56 171.805 123.345C174.428 121.841 176.255 118.916 177.368 116.211ZM51.5844 116.818C51.1201 116.281 50.8979 117.253 50.7794 117.384C49.2152 119.117 47.154 121.716 47.2515 124.092C48.0768 123.216 52.2091 117.54 51.5844 116.818ZM47.8641 128.03C48.8411 125.445 52.046 123.578 51.5827 120.454C50.8499 120.751 50.9217 121.658 50.4893 122.261C50.0869 122.821 49.3263 123.219 49.0314 123.867C48.8008 124.375 48.8791 125.148 48.7898 125.309C48.7359 125.406 47.2882 124.668 47.2653 126.386C47.2635 126.518 47.8708 126.498 47.885 126.686C47.908 126.99 47.1268 128.043 47.8641 128.03ZM78.5378 123.79C77.6963 123.609 78.0097 124.039 77.7725 124.391C76.6803 126.014 72.5573 131.334 72.1795 132.571C72.0243 133.079 71.9935 133.572 72.0365 134.095C74.2409 132.233 75.3763 128.761 77.4746 126.821C77.7675 126.55 78.2668 126.77 78.3941 126.548C78.7784 125.875 78.4316 124.577 78.5378 123.79ZM49.1104 130.759C49.502 131.034 49.7977 130.495 49.9859 130.256C51.1389 128.794 51.7073 127.191 51.5826 125.304C50.8396 125.932 49.056 128.074 48.8579 128.87C48.7563 129.278 48.9315 130.634 49.1104 130.759ZM78.5378 127.428C77.6962 127.247 78.0097 127.677 77.7725 128.029C76.5047 129.913 75.3055 131.333 75.7542 133.792C77.723 132.057 79.0186 130.132 78.5378 127.428ZM51.5856 131.067C51.0358 130.616 48.7255 134.063 48.5192 134.581C48.1586 135.486 48.0838 136.161 48.1795 137.125C48.8248 137.266 48.8835 136.793 49.1756 136.436C50.5106 134.803 51.3227 133.14 51.5856 131.067ZM70.7924 131.065C69.2425 130.882 68.097 134.625 69.0917 135.004C69.3002 135.083 71.3818 131.749 70.7924 131.065ZM78.8476 131.975C78.2803 131.314 76.4843 135.09 76.3433 135.373C76.153 135.755 75.322 135.88 75.7528 137.125C76.3983 137.266 76.4567 136.793 76.7489 136.436C77.2802 135.786 79.4319 132.656 78.8476 131.975ZM72.6471 138.337C73.0663 137.978 75.2665 133.998 74.5082 133.187C74.0672 132.836 72.285 136.109 72.1633 136.523C72.1079 136.711 71.8924 138.983 72.6471 138.337ZM68.9384 138.643C70.5487 137.509 71.4364 136.047 70.7909 134.097L69.081 136.511L68.9384 138.643ZM48.181 141.674C50.0337 140.089 51.7828 137.45 51.8924 135.005C50.4591 136.898 48.1749 139.224 48.181 141.674ZM76.9846 140.763C77.1179 140.671 78.6615 138.203 78.7079 138.05C78.9795 137.15 78.822 136.222 78.8461 135.31L76.4598 138.88C75.9505 139.399 76.1406 141.347 76.9846 140.763ZM58.7083 158.649L58.4144 145.451L57.4753 136.219C57.1224 143.375 58.1165 150.476 58.4018 157.592C58.4166 157.961 58.1682 158.72 58.7083 158.649ZM74.82 137.128C74.1646 136.99 74.1146 137.454 73.8375 137.831C73.4042 138.421 71.8242 140.759 72.3449 141.37C73.6885 141.488 75.3105 137.698 74.82 137.128ZM69.5572 141.369C70.6142 142.191 71.105 138.188 70.791 137.735L69.3786 140.157C69.2568 140.393 69.5082 141.331 69.5572 141.369ZM76.0625 144.704C76.9183 145.605 79.4925 140.047 79.1562 139.249C78.2088 139.705 75.5145 144.127 76.0625 144.704ZM51.8939 139.554C51.0918 139.372 51.3537 139.785 51.0965 140.126C49.4169 142.353 47.952 144.146 48.4907 147.131C50.469 145.068 52.4029 142.565 51.8939 139.554ZM74.8201 141.373C72.9403 142.174 72.3471 143.674 72.6546 145.614L74.6551 143.482L74.8201 141.373ZM70.1706 145.613C70.4676 144.317 71.8934 142.966 70.6377 141.676C69.7103 142.86 69.3907 143.227 69.6339 144.783C69.6753 145.048 69.7685 145.697 70.1706 145.613ZM64.9077 147.131C65.529 147 65.4394 146.57 65.4931 146.111C65.5914 145.271 65.6829 142.419 64.9077 141.977V147.131ZM76.6822 147.129C77.214 147.753 79.4476 143.941 78.8461 143.19C78.4124 143.269 78.2135 143.702 78.0051 144.03C77.7439 144.44 76.3888 146.785 76.6822 147.129ZM49.9092 149.735C50.4865 149.04 53.2797 145.045 51.7391 144.404C50.7675 146.578 48.2682 148.118 48.8005 150.769C49.109 150.506 49.6721 150.02 49.9092 149.735ZM72.9659 149.859C73.6745 149.594 76.131 145.296 74.6668 145.318C73.7247 145.332 72.4435 148.928 72.9659 149.859ZM71.1023 145.617C69.3494 145.779 69.9316 147.749 69.8678 148.95C70.974 148.236 71.2188 146.803 71.1023 145.617ZM78.0988 149.427C78.8213 148.415 79.2267 147.487 78.8453 146.224L77.3469 147.632C76.1366 148.978 76.5055 151.659 78.0988 149.427ZM65.2175 148.04V152.739C65.2175 152.789 65.5215 153.625 65.834 153.495L65.8518 150.603L65.2175 148.04ZM49.1104 155.922C51.1841 153.869 52.7245 151.398 52.2023 148.344C51.1637 149.864 49.3938 151.442 48.9917 153.269C48.8017 154.132 49.528 154.855 49.1104 155.922ZM73.5794 163.198C72.1347 159.597 71.8509 156.237 71.3956 152.452C71.3465 152.045 70.9307 151.744 70.8898 151.476C70.7939 150.847 71.6478 149.112 70.7981 148.649C70.6015 149.495 69.8639 149.981 69.8342 150.93C69.8094 151.723 70.3114 152.113 70.3314 152.434C70.4403 154.177 70.2284 156.324 70.5219 158.159C70.8221 160.036 71.4332 162.756 73.5794 163.198ZM75.4396 148.648C74.8005 148.514 74.7361 148.966 74.4415 149.336C73.9612 149.938 72.4725 152.252 72.9645 152.889C73.3973 153.449 73.6609 152.451 73.7687 152.322C74.6596 151.258 75.6855 150.144 75.4396 148.648ZM79.1575 149.558L77.3218 151.327C77.1296 151.783 76.1783 153.289 77.1499 153.495C77.3796 153.544 79.127 151.891 79.1619 151.764C79.3249 151.173 79.0546 150.222 79.1575 149.558ZM75.4397 151.983L73.5246 154.198L73.4277 155.613C74.165 154.504 75.4189 153.368 75.4397 151.983ZM80.705 161.985C79.5734 159.321 79.6826 157.024 79.43 154.293C79.3992 153.96 79.2873 152.622 78.8527 152.589C78.7229 153.865 77.8535 154.509 78.4406 155.861C78.5997 156.227 79.1526 156.199 79.1744 156.418C79.2171 156.846 78.839 157.412 78.8416 157.903C78.8505 159.55 79.2308 161.012 80.705 161.985ZM49.1075 159.557C49.6917 160.021 52.1829 156.084 52.3433 155.602C52.587 154.87 52.5496 154.244 52.5121 153.497C50.8978 155.177 49.1322 157.187 49.1075 159.557ZM66.1453 154.105C65.4103 153.164 65.4993 155.769 65.5126 156.089C65.612 158.472 66.2097 160.848 67.6412 162.797C67.9196 163.176 67.9601 163.643 68.6253 163.498C66.8553 160.737 65.9144 157.396 66.1453 154.105ZM73.2743 158.346C74.5547 158.474 76.3529 154.353 74.9765 154.412C74.6469 154.427 72.6453 157.597 73.2743 158.346ZM52.8233 157.743C52.3941 157.186 52.132 158.16 52.0229 158.312C51.6837 158.781 49.407 162.201 49.4257 162.443C49.4448 162.691 50.2918 162.952 50.5048 163.195C50.9597 162.277 53.4261 158.524 52.8233 157.743ZM76.679 162.59C75.8263 161.078 76.0867 159.294 75.288 157.743C72.845 159.772 74.6137 160.413 75.4876 162.541L76.679 162.59ZM51.4529 165.498C51.8509 164.78 52.3737 164.101 52.2023 163.198C51.2201 164.153 49.7221 165.69 50.19 167.137C50.4928 166.718 51.2397 165.883 51.4529 165.498ZM48.1746 172.291C47.9765 170.781 48.0089 169.107 47.832 167.628C47.7939 167.31 47.7088 166.207 47.2515 166.231C47.2636 167.872 47.3747 169.578 47.5864 171.205C47.6258 171.507 47.7167 172.341 48.1746 172.291ZM50.658 170.775C51.3817 171.592 53.1559 167.168 52.8219 166.532C51.8788 166.893 50.0849 170.128 50.658 170.775ZM136.473 167.748L114.165 167.29C114.159 167.542 115.257 167.725 115.56 167.747C121.657 168.185 128.642 168.238 134.77 168.351C135.075 168.356 136.452 168.217 136.473 167.748ZM103.918 169.594C103.759 169.388 102.909 169.158 102.745 169.755C102.487 170.69 102.736 173.8 103.034 174.797C103.113 175.063 103.631 175.028 103.641 175.197C103.698 176.154 101.932 178.4 104.562 178.054C104.508 177.356 104.71 176.498 104.503 175.838C104.365 175.398 103.718 175.125 103.663 174.828C103.615 174.565 104.207 173.99 104.28 173.362C104.32 173.02 104.034 169.745 103.918 169.594ZM106.732 178.961H102.24C102.058 178.961 101.076 179.91 101.924 180.149C106.633 179.756 111.751 179.59 116.488 179.874C118.335 179.985 121.214 180.184 122.979 180.495C126.281 181.077 127.405 183.469 127.192 178.494C127.095 176.215 126.747 173.675 126.558 171.381C126.156 170.895 125.994 171.416 125.94 171.832C125.65 174.055 126.08 176.729 126.249 178.96C125.466 179.107 125.701 178.817 125.471 178.372C124.607 176.698 125.129 173.935 124.7 171.991C124.411 171.861 123.772 172.259 123.772 172.444V179.265L114.478 178.655C114.455 178.46 114.89 178.052 114.942 178.052H120.364V176.233H115.097C115.116 175.772 116.522 175.617 116.818 175.616C117.927 175.614 121.021 176.729 120.327 174.611C119.887 173.273 116.481 174.108 115.409 173.658C117.022 172.273 120.855 175.273 120.366 171.686C119.208 171.6 117.802 171.913 116.721 171.462C116.279 171.277 116.253 171.383 116.338 170.778C117.302 170.427 119.726 171.473 120.223 170.789C120.39 170.558 120.441 169.948 120.366 169.869C119.941 169.421 113.368 169.599 112.157 169.561C111.318 169.534 108.672 168.756 108.107 169.543C107.913 169.88 107.947 170.241 107.962 170.608C107.996 171.405 108.949 177.866 109.176 178.179C109.494 178.615 111.1 178.235 111.688 178.357C112.063 179.541 109.292 178.714 108.912 178.496C107.2 177.511 108.168 170.441 107.527 169.546C107.175 169.055 105.49 169.226 105.055 169.53C104.472 169.937 105.411 173.135 105.5 173.978C105.618 175.089 105.093 176.485 105.806 177.821C106.054 178.285 106.906 178.185 106.732 178.961ZM140.191 169.264L132.611 169.344L130.281 170.014C132.087 170.771 134.358 169.879 136.314 170.165L140.191 169.264ZM54.0492 170.462C54.1006 170.405 54.1766 169.835 53.9115 169.869C52.4381 170.6 51.7006 172.578 51.2791 174.11C52.1195 173.397 53.0621 172.351 53.5723 171.383C53.8502 170.856 53.2954 171.312 54.0492 170.462ZM121.606 170.777C122.043 171.961 121.268 172.827 121.268 173.961C121.267 174.72 121.59 175.524 121.632 176.384C121.66 176.931 120.817 178.822 122.375 178.352C123.274 178.081 122.552 176.632 122.534 176.078C122.478 174.396 123.024 171.934 121.606 170.777ZM80.6742 171.721C80.5788 171.644 79.5679 171.556 79.4737 171.833C80.5711 173.615 80.2621 176.27 81.6345 177.749C81.9516 177.033 80.9171 171.916 80.6742 171.721ZM74.7265 173.294C72.3447 170.748 68.3715 172.045 68.9545 175.757C69.2404 177.577 70.4224 177.675 71.7818 178.389C72.0368 178.523 72.0572 178.958 72.2239 178.976C74.2578 179.196 76.5968 175.293 74.7265 173.294ZM88.2277 173.283C88.5756 172.949 90.1899 173.1 88.9193 171.995C87.5187 172.818 87.287 172.558 87.5271 174.414C88.1885 174.34 87.9493 173.55 88.2277 173.283ZM139.402 183.037C142.338 180.42 141.256 176.624 140.984 173.186C140.794 172.914 138.689 172.925 138.218 172.939C137.597 172.958 134.235 173.23 133.991 173.348C133.848 173.417 133.6 173.74 133.686 173.805C141.472 172.199 141.22 184.58 133.242 182.274C132.1 181.944 130.921 181.286 130.435 180.175C129.512 182.105 129.374 184.338 132.01 184.694C134.722 185.06 137.371 184.849 139.402 183.037ZM53.4486 173.81C53.0198 175.397 51.4089 175.565 53.2897 176.834C53.6926 176.483 54.0018 176.037 54.02 175.49C54.0272 175.275 53.8684 173.79 53.4486 173.81ZM99.3 177.142C100.69 176.603 100.302 174.647 99.4503 173.809L99.3 177.142ZM136.996 180.077C139.045 178.244 136.924 172.787 132.782 175.196C128.462 177.708 133.874 182.871 136.996 180.077ZM89.3804 175.02C89.0662 174.668 88.5354 175.291 88.6054 175.618C88.7985 176.166 87.1576 177.112 87.5257 177.444C87.8127 177.704 90.4014 176.165 89.3804 175.02ZM99.7252 179.07C99.1184 179.989 99.6836 180.554 100.542 180.029C100.765 179.893 102.326 177.698 102.082 177.446C101.343 177.735 100.151 178.424 99.7252 179.07ZM89.3001 177.846C87.553 176.9 87.0287 180.845 88.3371 181.066C88.9974 181.178 90.1966 179.408 90.274 178.767L89.3001 177.846ZM80.3946 179.265C79.4793 179.727 79.8808 182.957 81.1697 182.596C82.5338 182.215 80.248 180.016 80.3946 179.265ZM107.663 182.901L94.6497 182.904C94.609 183.599 94.5388 183.445 95.1076 183.511C96.9149 183.719 99.0134 183.747 100.844 183.815C100.812 184.281 99.4618 184.412 99.1306 184.426C97.9759 184.474 95.2824 183.609 95.9265 185.441C96.2292 186.303 98.1714 185.631 99.1356 185.622C99.553 185.618 100.428 185.397 100.228 186.082C100.09 186.552 96.8335 185.923 96.179 186.369C95.662 186.722 95.945 188.053 95.8877 188.663L107.655 187.74C107.086 186.054 107.818 184.624 107.663 182.901ZM122.53 183.509C121.241 184.753 120.034 183.69 118.629 183.539C115.083 183.159 111.539 182.79 107.97 182.901C108.012 183.797 108.067 187.832 108.785 188.033C109.097 188.121 110.465 187.693 111.228 187.731C112.738 187.806 122.101 189.384 122.534 188.967L122.531 186.238C121.17 186.622 118.654 186.635 117.576 185.634C119.946 185.562 123.287 187.274 122.53 183.509ZM92.0798 183.61C91.5784 183.436 91.1345 183.492 90.6237 183.51L91.859 184.414C91.1932 184.578 90.5414 184.798 89.8325 184.756C89.3513 184.727 89.1894 183.559 88.7643 184.115C88.6913 184.21 88.8927 184.826 88.7299 184.975C88.5271 185.16 87.6536 184.888 87.3459 185.305C87.0643 185.687 87.0799 189.453 87.5044 189.743C91.6268 190.794 98.049 187.534 89.3845 188.054C89.238 187.19 89.569 187.549 90.1003 187.408C91.4576 187.048 93.6761 187.634 93.4083 185.935C92.0792 186.305 90.6824 186.27 89.3157 186.329C89.0886 186.338 88.1231 186.708 88.1499 186.085C88.1848 185.272 92.8358 185.339 93.1008 185.02C93.7567 184.231 92.5144 184.139 92.2929 184.005C92.1755 183.934 92.1553 183.636 92.0798 183.61ZM125.902 190.14C126.267 188.386 127.302 183.913 124.303 184.717C123.115 185.036 122.491 191.444 125.902 190.14ZM76.3668 192.601C76.8348 191.266 78.0021 190.569 77.6069 188.965C76.481 189.575 76.147 190.34 76.0468 191.531C76.0204 191.845 75.8584 192.688 76.3668 192.601ZM98.9902 197.453C101.051 196.206 101.354 194.908 101.336 192.616C101.329 191.597 98.128 192.213 97.4212 192.435C95.8936 192.915 95.8277 194.455 95.8868 195.789C95.902 196.132 95.69 196.624 96.1948 196.542C96.4157 196.052 98.7939 192.437 98.9827 192.607C99.1061 192.718 98.6847 193.479 99.6041 192.904C99.1991 194.412 98.7951 195.864 98.9902 197.453ZM93.4105 197.302C93.187 199.031 93.5738 201.134 93.4105 202.91C95.8764 201.445 94.2456 197.718 94.6481 195.333C93.805 195.138 93.4803 196.761 93.4105 197.302ZM95.892 200.182C97.6811 198.955 98.8802 197.547 98.0541 195.333C96.3774 196.7 95.4817 197.909 95.892 200.182ZM84.4243 196.546C83.5801 195.606 82.6628 199.71 82.8831 200.579C82.9216 200.731 83.9456 201.009 83.4995 201.999C83.9047 201.793 84.6318 200.283 84.676 199.965C84.7923 199.13 84.1147 197.579 84.4243 196.546ZM85.9749 202.91C87.8703 201.653 86.1264 199.061 86.5914 197.152C86.2789 197.022 85.9749 197.858 85.9749 197.908V202.91ZM95.892 204.123C97.0276 203.048 98.9577 201.1 97.5929 199.582C96.1327 200.942 95.5754 202.099 95.892 204.123ZM93.1037 207.457C94.8552 206.394 95.1966 204.81 94.9564 202.91C93.0891 203.951 92.9046 205.507 93.1037 207.457ZM98.056 203.215C97.3845 203.062 97.3689 203.581 97.0619 203.906C96.5745 204.423 93.4688 208.122 93.3347 208.444C92.8168 209.689 93.2213 211.295 93.1038 212.609L97.891 205.627L98.056 203.215Z" fill="black"/>
<path d="M87.7587 16.2351C94.7147 15.1472 95.5911 25.1408 89.2312 25.2059C83.3019 25.2666 83.1074 16.9626 87.7587 16.2351ZM91.8579 21.9292C93.0245 19.251 90.2337 16.2709 87.5498 17.866C86.4291 18.5321 86.2533 20.6462 86.6435 21.7303C86.6772 21.8239 87.9672 23.1042 88.0541 23.1553C89.6169 24.0726 92.2279 22.5365 90.4671 21.0271C88.6944 23.1156 87.2703 20.8466 88.0154 18.8655C88.7595 18.6402 89.9317 18.3455 90.6278 18.7459C91.4979 19.2465 90.4658 21.3922 91.8579 21.9292Z" fill="black"/>
<path d="M86.3946 39.7086C81.8987 35.5413 86.9212 28.8777 92.3855 32.1793C94.1904 33.2698 94.8172 34.8493 94.6178 36.9002C94.2012 41.1843 89.4268 42.5192 86.3946 39.7086ZM92.6964 37.6055C94.5715 35.268 91.5379 32.2881 88.9151 32.5117C87.2206 32.6561 86.3842 34.7345 86.6593 36.2538C86.9699 37.9697 87.7058 37.4062 88.0025 37.6631C88.2748 37.8991 88.3636 38.4501 88.5163 38.5412C89.3833 39.0583 91.9937 38.4815 92.6964 37.6055Z" fill="black"/>
<path d="M34.2393 107.116L42.9079 89.5332C42.6751 90.8251 41.9622 92.1639 41.4164 93.3758C39.7824 97.004 37.8167 101.202 35.9491 104.699C35.5094 105.523 35.0495 106.58 34.2393 107.116Z" fill="black"/>
<path d="M33 100.142L41.049 84.3789C40.0767 87.5723 38.4199 90.7974 36.877 93.7837C35.7987 95.8706 34.6365 98.5645 33 100.142Z" fill="black"/>
<path d="M174.581 132.279L169.002 139.312C166.477 141.498 164.821 144.464 162.192 146.524L165.916 141.531L172.289 134.126L174.581 132.279Z" fill="black"/>
<path d="M109.211 37.6944C108.685 37.692 108.619 36.6877 108.59 36.332C108.266 32.4045 108.518 28.0285 108.283 24.0543C109.048 24.0009 108.819 23.9737 108.894 24.5092C108.953 24.9326 109.211 26.2008 109.211 26.3263V37.6944Z" fill="black"/>
<path d="M169.314 132.279C167.387 134.767 165.373 137.519 163.277 139.858C162.955 140.217 160.245 143.12 160.023 142.886C160.023 142.331 160.601 141.729 160.953 141.308C162.963 138.911 165.188 136.014 167.296 133.787C167.571 133.497 168.971 131.956 169.314 132.279Z" fill="black"/>
<path d="M36.7178 124.697C38.1204 121.188 40.0103 117.772 41.928 114.489C42.4666 113.567 43.0462 112.358 43.8374 111.662C43.2988 113.468 42.3984 115.159 41.5234 116.822C40.1141 119.501 38.4626 122.213 36.7178 124.697Z" fill="black"/>
<path d="M138.333 43.457C137.707 44.7677 136.199 45.2879 135.255 46.0508C133.162 47.7424 131.195 49.6346 129.102 51.319C128.806 51.5574 127.422 52.7846 127.182 52.547C126.847 52.216 127.631 51.7046 127.829 51.516C129.438 49.9817 131.286 48.6147 132.919 47.0991L138.333 43.457Z" fill="black"/>
<path d="M37.331 109.844C36.0108 111.223 37.7242 107.021 37.8092 106.822C38.8976 104.267 40.7149 100.348 42.1298 98.0143C42.3305 97.6833 42.4427 97.182 42.9078 97.1113L37.331 109.844Z" fill="black"/>
<path d="M131.517 42.8516L121.295 52.5478C121.163 51.98 121.62 51.8279 121.913 51.4877C123.849 49.2367 127.253 46.0576 129.556 44.112C130.075 43.6729 130.838 42.9299 131.517 42.8516Z" fill="black"/>
<path d="M124.903 43.9541C123.513 45.3481 120.736 48.1479 119.274 49.2087C118.861 49.5091 118.456 49.8919 117.886 49.8173L127.646 40.4242C127.876 40.3765 127.857 40.7413 127.797 40.8734C127.71 41.0643 125.315 43.5413 124.903 43.9541Z" fill="black"/>
<path d="M39.5028 79.5311C39.8791 79.9408 35.0276 88.3851 34.2393 89.2289C35.0464 86.1558 36.9419 82.7982 38.7368 80.132C38.8426 79.9747 38.9894 78.9723 39.5028 79.5311Z" fill="black"/>
<path d="M65.8402 45.5769L66.4016 43.5526L71.1009 33.7559C70.5693 36.237 69.4337 38.627 68.37 40.9314C67.6541 42.4822 66.9652 44.2968 65.8402 45.5769Z" fill="black"/>
<path d="M152.764 176.104C151.427 177.7 149.023 180.329 147.484 181.696C146.319 182.732 145.961 182.458 147.007 181.233C149.109 178.772 151.61 176.623 153.66 174.11C155.033 173.375 152.846 176.006 152.764 176.104Z" fill="black"/>
<path d="M72.0293 49.2117C71.3824 49.2455 71.8497 48.363 71.9645 48.086C73.0004 45.5871 75.1031 41.5345 76.5189 39.2038C76.7199 38.873 76.8315 38.3714 77.297 38.3008C76.0218 42.1333 73.8751 45.6309 72.0293 49.2117Z" fill="black"/>
<path d="M100.536 48.0041C100.853 48.2988 96.054 54.6033 95.5868 55.0456C95.2308 55.3827 94.8758 55.6514 94.34 55.5768C96.1588 53.6129 97.5734 50.6744 99.304 48.766C99.6419 48.3934 99.9403 47.9012 100.536 48.0041Z" fill="black"/>
<path d="M177.06 136.524C174.88 139.331 172.336 142.142 169.627 144.403C169.413 144.175 170.628 142.726 170.872 142.441C172.148 140.946 174.507 138.331 175.974 137.126C176.323 136.841 176.478 136.391 177.06 136.524Z" fill="black"/>
<path d="M155.681 178.053L151.957 183.046L148.868 186.235L153.214 180.334L155.681 178.053Z" fill="black"/>
<path d="M69.8677 45.5755C71.2786 42.3268 72.2654 38.6571 74.5088 35.875C73.1918 39.1191 72.0216 42.7674 69.8677 45.5755Z" fill="black"/>
<path d="M38.8865 113.481C40.0151 110.804 41.3 107.804 43.2177 105.6C42.3169 108.267 40.8451 111.432 38.8865 113.481Z" fill="black"/>
<path d="M165.906 131.067C165.616 131.805 159.418 138.402 159.094 138.036C159.056 137.557 159.507 136.959 159.82 136.629C161.113 135.269 163.45 132.801 164.823 131.671C165.17 131.384 165.324 130.934 165.906 131.067Z" fill="black"/>
<path d="M91.8645 54.6704L92.216 53.35L96.5055 47.3965C95.8852 50.0671 93.5954 52.5569 91.8645 54.6704Z" fill="black"/>
<path d="M102.395 40.1199C102.194 40.1428 101.775 39.718 101.775 39.6651V31.0254L102.082 31.027C101.891 31.5014 102.395 32.164 102.395 32.3896V40.1199Z" fill="black"/>
<path d="M114.787 202.607V194.119L115.094 194.121C114.975 194.497 115.407 194.998 115.407 195.18V202.153C115.407 202.205 114.989 202.63 114.787 202.607Z" fill="black"/>
<path d="M140.5 45.8806L137.418 49.3701L134.928 51.3357C134.618 50.9936 136.855 48.7562 137.202 48.4103C137.561 48.0531 140.192 45.5938 140.5 45.8806Z" fill="black"/>
<path d="M98.9831 40.1171C98.4446 40.1898 98.6913 39.4282 98.6772 39.0615C98.651 38.3767 98.404 30.7192 98.8321 30.7188C98.9725 33.8327 99.7827 37.0463 98.9831 40.1171Z" fill="black"/>
<path d="M103.943 49.5191C104.214 49.8225 102.242 52.1231 102.028 52.6443L98.9902 56.4884C99.7447 54.3656 101.598 51.7968 103.138 50.0864C103.26 49.951 103.469 48.9897 103.943 49.5191Z" fill="black"/>
<path d="M158.048 181.283C157.425 182.059 155.677 183.961 154.954 184.615C154.713 184.833 153.43 185.828 153.204 185.628C154.601 183.552 156.564 181.952 158.318 180.176C158.755 180.413 158.246 181.036 158.048 181.283Z" fill="black"/>
<path d="M75.7542 48.6069C76.4986 46.2132 77.9724 43.6819 79.4659 41.6348C78.739 44.0684 77.3651 46.6223 75.7542 48.6069Z" fill="black"/>
<path d="M87.8368 52.5487C88.5113 51.1812 89.3434 49.5941 90.1821 48.3289C90.5445 47.7821 90.9105 47.0627 91.5484 46.7891C90.8213 48.7922 89.5668 51.2691 87.8368 52.5487Z" fill="black"/>
<path d="M127.18 196.24L127.814 200.015L127.796 203.516C127.597 203.538 127.18 203.113 127.18 203.061V196.24Z" fill="black"/>
<path d="M107.97 50.7305C107.515 51.719 106.609 53.2206 105.938 54.0442C105.402 54.7027 104.658 55.4048 103.947 55.8823L105.365 53.4833L107.97 50.7305Z" fill="black"/>
<path d="M130.896 201.999C130.054 202.206 130.199 201.378 130.071 200.848C129.708 199.347 129.589 197.784 129.662 196.242L130.503 198.901L130.896 201.999Z" fill="black"/>
<path d="M63.9812 39.5124L64.8511 36.8805L66.7634 33.4512C66.2058 35.4981 65.5035 37.94 63.9812 39.5124Z" fill="black"/>
<path d="M116.646 217.159V210.793L117.263 213.676C117.104 214.713 117.79 216.524 116.646 217.159Z" fill="black"/>
<path d="M87.5223 45.8811C87.8096 46.2301 85.5506 50.1482 84.7386 50.4267C85.1754 49.1003 86.0335 47.6888 86.7529 46.4775C86.8578 46.3008 87.0509 45.3086 87.5223 45.8811Z" fill="black"/>
<path d="M84.4243 44.972L81.9505 48.9098C81.7364 48.266 83.7624 44.3141 84.4243 44.972Z" fill="black"/>
<path d="M100.535 214.432C100.828 214.732 98.8128 217.583 98.3676 217.156C98.5798 216.871 99.9991 213.885 100.535 214.432Z" fill="black"/>
<path d="M133.268 124.198C139.954 130.481 141.058 141.066 135.492 148.443C132.234 152.761 125.957 156.2 120.366 155.318C120.213 156.234 120.599 155.802 121.118 155.929C122.085 156.168 123.08 156.295 124.08 156.229L120.829 156.851C104.988 156.825 92.547 141.74 101.026 127.148C107.434 116.12 124.485 115.944 133.268 124.198ZM134.307 136.519C136.544 136.901 135.115 131.762 134.704 130.523C132.595 124.178 124.216 120.056 117.717 120.442C112.617 120.744 108.524 124.096 106.425 128.489C107.272 128.94 107.63 127.377 108.078 126.923C108.575 126.418 109.539 125.709 110.156 125.159C110.929 124.471 111.541 123.328 112.929 123.185C111.586 125.408 107.08 129.051 106.734 131.525C106.655 132.086 107.099 132.186 107.346 131.971C107.385 131.938 107.491 131.378 107.796 131.057C110.203 128.536 112.736 125.268 115.206 122.985C115.466 122.745 117.04 121.468 117.266 121.67L107.404 133.087C106.864 133.284 106.273 135.758 107.193 135.306C109.586 132.47 112.003 129.593 114.585 126.925C115.777 125.694 117.354 123.954 118.659 122.879C119.007 122.592 119.163 122.143 119.744 122.276C116.138 127.073 111.366 131.085 107.836 135.933C107.497 136.399 105.926 138.536 107.507 138.042C107.591 138.016 108.694 136.897 108.744 136.827C110.985 133.739 113.731 130.622 116.487 127.725C117.457 126.706 119.129 124.77 120.082 123.967C120.421 123.681 120.812 123.42 121.293 123.489C117.331 128.424 112.544 132.553 109.467 138.136C109.188 138.642 108.471 139.596 108.745 140.157L124.39 122.881C124.288 123.542 123.581 124.331 123.144 124.841C120.424 128.013 117.428 131.003 114.797 134.256C113.132 136.315 112.27 138.293 110.299 139.848C110.009 140.076 109.77 140.35 109.524 140.619L110.756 142.281C110.639 140.84 112.417 140.25 113.129 139.445C116.519 135.613 119.645 131.304 122.994 127.423C124.366 125.832 125.851 124.222 127.487 122.879C127.203 123.921 126.284 124.895 125.622 125.751C121.955 130.491 117.45 134.968 113.874 139.72C113.344 140.423 110.523 144.169 111.071 144.704C111.128 144.76 111.832 144.759 112.004 144.559L126.407 127.731C126.851 127.969 126.43 128.512 126.258 128.798C124.345 131.978 121.416 134.74 119.134 137.59C118.656 138.187 115.812 141.805 116.338 142.279L117.821 142.215C121.621 137.768 125.021 132.946 129.346 128.942L116.074 146.42C115.348 148.266 116.996 146.784 117.589 146.071C117.84 145.77 117.818 145.154 117.94 145.057C118.149 144.892 118.729 145.119 119.051 144.944C120.069 144.393 126.591 135.627 128.119 133.94L131.984 130.156C132.418 130.389 132.024 130.943 131.838 131.227C129.155 135.332 123.802 139.709 121.152 143.809C120.83 144.308 119.512 146.686 120.834 145.924L133.843 131.975C134.29 132.252 133.698 132.889 133.505 133.161C130.984 136.711 127.206 140.573 124.394 144.036C123.615 144.996 122.85 146.065 122.223 147.128C123.005 147.777 127.31 142.042 127.944 141.353C129.659 139.487 131.572 137.629 133.323 135.725C133.939 135.055 133.997 133.846 135.235 134.099C134.853 134.9 134.099 135.532 134.307 136.519ZM108.591 123.792C103.133 125.956 102.048 132.271 102.706 137.432L103.633 137.432C103.461 132.311 105.336 127.683 108.591 123.792ZM134.503 142.478C135.236 141.164 135.684 139.537 135.542 138.038L133.381 143.044C133.148 144.015 134.472 142.532 134.503 142.478ZM103.631 141.067L103.941 138.341L103.631 139.248C103.239 139.428 103.282 137.962 102.706 138.645C102.606 138.764 102.983 141.021 103.631 141.067ZM132.757 138.343C132.149 138.206 132.021 138.647 131.703 138.975C130.327 140.392 128.974 142.27 127.649 143.801C126.502 145.126 124.621 146.02 124.705 148.041L131.827 140.007L132.757 138.343ZM104.838 141.708C103.039 140.589 103.93 145.721 105.804 143.942C105.611 143.592 104.943 141.773 104.838 141.708ZM116 142.623C115.391 142.566 114.958 143.077 114.624 143.485C113.984 144.269 112.118 146.497 113.718 147.117C114.992 147.611 114.14 146.316 114.188 146.247C114.218 146.206 114.811 146.097 115.099 145.779C115.666 145.151 115.758 144.496 116.132 143.896C116.345 143.555 117.275 143.583 116.953 142.584C115.788 143.751 116.075 142.63 116 142.623ZM114.787 151.978C113.222 150.453 111.073 149.526 109.374 148.033C108.357 147.138 107.75 146.176 106.892 145.307C105.89 144.292 105.287 144.837 105.645 145.898C106.146 147.386 111.684 151.254 113.255 151.814C113.776 151.999 114.244 152.031 114.787 151.978ZM132.755 145.617C132.098 145.452 132.031 145.999 131.72 146.266C130.47 147.342 128.984 148.974 127.586 149.802C126.927 150.192 125.548 150.307 124.782 150.696L122.225 151.069C126.095 151.619 131.786 149.664 132.755 145.617ZM118.814 146.831C117.52 146.624 117.393 148.066 116.342 148.495C117.236 149.312 118.173 150.084 118.417 148.447C118.477 148.047 118.134 147.632 118.168 147.314C118.205 146.962 118.953 147.344 118.814 146.831Z" fill="black"/>
<path d="M126.685 85.7731C127.954 87.0244 128.89 88.7503 129.035 90.5971C129.846 100.919 115.804 101.448 115.087 91.8179C114.582 85.0342 121.372 80.5352 126.685 85.7731ZM121.53 87.1627C117.815 87.607 118.048 95.3352 122.324 95.2146C126.602 95.0939 126.02 86.6258 121.53 87.1627Z" fill="black"/>
<path d="M85.0453 74.6816C83.2751 76.7374 82.1588 78.4176 81.9361 81.1855C81.2253 90.0205 82.3236 100.172 82.5797 109.074C82.9863 123.203 82.9911 137.742 84.1185 151.828C84.2306 153.229 85.3847 159.351 84.6817 160.115C84.5809 160.224 83.7926 160.241 83.4995 160.47C82.1184 154.33 82.5249 148.067 82.2699 141.814C81.4726 122.265 80.6891 102.606 80.3717 83.0165C80.3588 82.2229 80.8026 81.4227 80.7427 80.5789C80.7012 79.9948 80.0786 80.2689 80.0543 79.6928C79.9513 77.2538 82.6132 74.7805 85.0453 74.6816Z" fill="black"/>
<path d="M142.051 99.5374C141.571 99.627 138.023 99.4956 138.023 99.2343V88.6241C137.108 88.6298 134.391 87.8344 133.816 88.6048L133.997 98.9327L130.568 98.7988L130.261 84.816C132.177 84.3361 134.178 84.8703 136.013 84.9831C136.936 85.0398 142.051 84.7634 142.051 86.0473V99.5374Z" fill="black"/>
<path d="M137.714 107.418V103.023C137.714 102.202 140.984 103.176 141.741 102.871V116.21L138.022 116.211L137.73 111.198C137.571 111.109 134.455 110.801 134.075 110.811C133.782 110.818 133.376 111.024 133.376 111.208V115.906C132.571 115.772 130.313 116.313 130.012 115.409L129.812 102.566C130.177 101.768 132.59 101.757 133.086 102.094C133.685 102.501 133.148 106.178 133.828 107.128C134.27 107.745 136.855 107.278 137.714 107.418Z" fill="black"/>
<path d="M93.1006 99.8391C93.6545 99.9389 96.01 99.6898 96.1833 99.8553C96.5182 100.175 96.5259 103.954 96.5116 104.689C99.5869 102.593 99.5091 98.8092 104.252 100.447L99.9665 106.302L105.186 114.539C100.634 115.793 99.9812 112.852 97.79 109.945C97.6042 109.698 96.9644 107.87 96.5431 109.436C96.4097 109.932 97.2251 113.995 96.8198 114.392L93.1006 114.087V99.8391Z" fill="black"/>
<path d="M92.6002 83.5841C95.1186 80.4099 100.881 80.6159 102.971 84.2887C103.65 85.4825 101.155 86.688 100.248 86.3538C99.289 86.0007 98.9743 84.8364 97.6221 84.9823C93.979 85.3753 93.7712 92.4276 96.8018 93.338C97.5592 93.5656 98.9278 93.581 99.6968 93.4089C101.061 93.1037 101.268 91.2625 102.682 92.4354C105.844 95.0571 101.604 97.4025 98.8292 97.4396C91.4122 97.5389 88.5497 88.6897 92.6002 83.5841Z" fill="black"/>
<path d="M129.349 115.6C126.421 115.649 125.11 116.249 124.661 112.914C123.402 113.158 121.534 112.549 120.496 112.596C119.172 112.657 119.437 114.657 118.928 115.023C117.955 115.723 116.249 114.772 115.097 114.995L120.655 101.512C121.614 101.824 124.027 101.343 124.552 101.956L129.349 115.6ZM123.151 109.235C123.286 109.111 122.627 106.019 121.916 105.902L120.985 109.235L123.151 109.235Z" fill="black"/>
<path d="M110.14 114.997L106.731 114.998C106.837 112.451 105.625 102.37 106.881 100.743C107.7 99.6816 115.743 100.3 116.514 103.76C117.584 108.569 114.739 110.586 110.14 110.45V114.997ZM112.862 104.751C112.75 104.564 110.6 103.295 110.287 104.082C110.683 105.389 109.814 106.465 110.478 107.694C112.077 108.045 113.706 106.173 112.862 104.751Z" fill="black"/>
<path d="M107.662 86.1988C107.445 85.864 104.887 86.0841 104.246 85.4486C103.6 84.8075 104.087 82.8842 103.942 81.9531C105.515 82.0225 114.71 82.0813 115.273 82.8437C115.477 83.1192 115.512 85.9232 115.363 86.1541C114.05 86.9066 112.786 86.0301 111.38 86.1988V97.4153C110.941 97.5205 107.662 97.3446 107.662 97.1121C107.662 95.6365 107.96 86.6599 107.662 86.1988Z" fill="black"/>
<path d="M149.18 84.3789C149.858 84.6176 150.034 85.0927 150.122 85.7272C150.542 88.7366 150.334 94.2067 150.429 97.5533C150.95 116.031 150.697 134.596 151.669 153.029C151.369 153.551 152.214 155.806 151.496 155.92C149.823 156.186 150.482 150.507 150.429 149.392C149.775 135.578 149.8 121.471 149.474 107.582C149.292 99.8383 149.195 92.1299 149.18 84.3789Z" fill="black"/>
<path d="M87.604 163.118C87.5195 163.017 86.5291 161.005 86.4417 160.77C84.1919 154.71 92.1946 150.352 95.7189 155.633C96.0351 156.107 96.3369 156.804 96.4337 157.358C97.0462 160.862 95.6996 163.589 92.0001 164.088C90.9189 164.234 88.3006 163.949 87.604 163.118ZM93.6216 161.28C96.9561 158.528 93.6934 153.296 89.7185 155.492C85.6673 157.731 90.0092 164.261 93.6216 161.28Z" fill="black"/>
<path d="M150.927 156.332C154.187 159.331 152.716 164.777 148.101 165.325C143.758 165.842 140.225 163.462 141.193 158.871C141.958 155.243 148.269 153.887 150.927 156.332ZM144.315 162.497C145.191 163.257 147.368 163.636 148.473 163.269C152.757 161.845 151.091 155.618 146.221 156.21C143.263 156.57 142.197 160.658 144.315 162.497Z" fill="black"/>
<path d="M87.8307 151.98C87.2331 151.814 87.1003 151.045 86.984 150.538C85.8863 145.753 86.5252 139.756 86.2975 134.84C86.0553 129.614 85.4596 124.325 85.3425 119.101C85.2621 115.515 85.4257 111.912 85.3584 108.329C85.8136 108.302 85.9045 109.416 85.9376 109.728C86.388 113.972 86.093 118.191 86.2719 122.436C86.552 129.084 87.1798 135.763 87.5208 142.434C87.6828 145.604 87.6454 148.812 87.8307 151.98Z" fill="black"/>
<path d="M141.119 163.504L138.18 164.133C128.417 163.2 118.51 163.667 108.731 163.512C105.372 163.459 101.774 163.034 98.3643 163.046C100.299 162.066 102.602 162.234 104.731 162.275C107.764 162.334 111.278 162.85 114.31 162.906C123.253 163.072 132.265 162.601 141.119 163.504Z" fill="black"/>
<path d="M141.741 81.6483C139.403 81.4917 137.092 81.0191 134.768 80.7438C129.898 80.1669 124.341 79.8839 119.589 78.9137C119.055 78.8046 118.668 79.247 118.817 78.3184C125.75 79.2462 132.778 79.6944 139.692 80.7764C140.326 80.8756 141.463 80.973 141.741 81.6483Z" fill="black"/>
<path d="M90.9288 130.155C90.3112 130.03 90.4034 129.532 90.3156 129.09C89.3962 124.469 89.5721 119.114 89.386 114.393C89.8839 114.441 89.9663 115.692 89.999 116.062C90.4133 120.742 90.4058 125.483 90.9288 130.155Z" fill="black"/>
<path d="M90.9284 150.766L90.0055 145.157L90.0056 135.006L90.619 138.19C90.2861 142.401 91.2618 146.632 90.9284 150.766Z" fill="black"/>
<path d="M111.998 77.4106C111.999 77.9416 110.642 77.7458 110.282 77.7232C107.521 77.5493 105.155 76.9587 102.519 76.5287C101.169 76.3086 99.0778 76.8808 98.0576 75.5918C101.228 76.3585 104.64 76.1181 107.778 76.5363C109.266 76.7345 110.51 77.4436 111.998 77.4106Z" fill="black"/>
<path d="M147.011 119.544L146.853 106.809C147.498 110.288 148.046 114.944 147.639 118.494C147.587 118.948 147.574 119.429 147.011 119.544Z" fill="black"/>
<path d="M85.0415 101.959C84.5031 102.032 84.7497 101.27 84.7357 100.904C84.5894 97.076 84.4673 93.3258 84.8905 89.5293C84.9183 90.5649 85.3063 91.711 85.3572 92.7144C85.3823 93.2091 85.0242 93.7296 85.0435 94.2321C85.1382 96.6961 85.8451 99.458 85.0415 101.959Z" fill="black"/>
<path d="M94.9564 142.886C92.6058 140.906 93.6787 136.565 93.4136 133.793C93.8695 133.768 93.9586 134.879 93.9933 135.192C94.2787 137.768 94.1162 140.388 94.9564 142.886Z" fill="black"/>
<path d="M94.3368 128.032C93.6468 127.751 93.5247 126.377 93.4498 125.72C93.2164 123.674 93.2254 121.318 93.1038 119.242L93.9906 122.766L94.3368 128.032Z" fill="black"/>
<path d="M142.674 152.284L142.364 146.221C143.568 147.105 143.458 149.873 143.302 151.234C143.25 151.687 143.237 152.169 142.674 152.284Z" fill="black"/>
<path d="M144.22 116.058C144.179 116.314 143.87 116.936 143.6 116.816V108.631L143.907 108.632C143.643 109.199 144.22 110.03 144.22 110.298C144.22 111.964 144.463 114.547 144.22 116.058Z" fill="black"/>
<path d="M96.5085 119.24C96.9646 119.291 97.0339 120.56 97.0897 120.945C97.3354 122.643 97.5614 124.526 97.2846 126.211C96.9449 125.88 96.5085 124.261 96.5085 123.939V119.24Z" fill="black"/>
<path d="M142.361 141.372C142.16 141.395 141.741 140.97 141.741 140.917V133.793L142.048 133.794C141.784 134.361 142.361 135.192 142.361 135.46V141.372Z" fill="black"/>
<path d="M146.388 86.0465C146.358 85.4642 145.758 84.3421 146.082 83.4713C146.533 83.4164 146.639 84.2663 146.67 84.5576C146.821 85.9763 146.971 87.941 147.023 89.3666C147.045 89.9793 147.335 91.3297 146.388 91.0485C146.326 89.3905 146.474 87.7055 146.388 86.0465Z" fill="black"/>
<path d="M103.013 159.558C102.126 159.723 102.515 159.322 102.313 158.896C101.519 157.226 100.62 155.012 100.539 153.195L101.924 155.929L103.013 159.558Z" fill="black"/>
<path d="M147.934 138.338C147.471 138.198 147.356 136.777 147.322 136.365C147.191 134.78 147.25 132.963 147.321 131.369L147.934 133.645L147.934 138.338Z" fill="black"/>
<path d="M97.4364 149.858L94.0336 146.588L93.1036 145.01C94.7028 146.382 96.5863 147.901 97.4364 149.858Z" fill="black"/>
<path d="M144.839 140.159C144.638 140.182 144.22 139.757 144.22 139.704V134.096L144.526 134.098C144.407 134.473 144.839 134.975 144.839 135.157V140.159Z" fill="black"/>
<path d="M106.419 160.468C105.95 160.235 105.525 159.124 105.344 158.644C104.86 157.358 104.503 155.764 104.257 154.406C104.955 155.214 105.483 156.862 105.807 157.888C106.075 158.735 106.512 159.54 106.419 160.468Z" fill="black"/>
<path d="M108.276 156.226C108.58 156.472 109.665 160.608 109.827 161.377L108.186 158.289C108.087 157.746 107.307 155.44 108.276 156.226Z" fill="black"/>
<path d="M113.235 162.289C111.889 161.033 111.51 158.57 111.383 156.832C111.951 156.927 111.903 157.455 112.041 157.852C112.527 159.251 112.87 160.847 113.235 162.289Z" fill="black"/>
<path d="M146.388 144.856L146.62 144.627C146.814 146.677 147.164 148.696 147.005 150.766C146.692 150.855 146.388 149.478 146.388 149.404V144.856Z" fill="black"/>
<path d="M143.6 123.94C143.577 123.551 142.581 122.075 143.908 122.274C143.608 123.82 144.199 125.577 144.219 126.971C144.223 127.287 144.046 128.849 143.6 128.942C143.53 127.285 143.696 125.597 143.6 123.94Z" fill="black"/>
<path d="M139.263 155.316C138.802 155.341 138.715 154.231 138.68 153.915C138.566 152.881 138.268 150.489 139.263 149.859V155.316Z" fill="black"/>
<path d="M85.0424 88.0176C83.5104 86.6626 85.1899 84.0606 84.7388 82.2594C85.1768 82.1923 85.3352 83.0936 85.3333 83.3411C85.3227 84.7483 84.7609 86.4843 85.0424 88.0176Z" fill="black"/>
<path d="M99.6037 159.256C98.3724 158.113 97.9582 155.973 97.441 154.406C98.7982 155.578 99.2104 157.616 99.6037 159.256Z" fill="black"/>
<path d="M146.698 122.879L147.346 126.364C147.279 126.901 147.404 128.172 146.698 128.336V122.879Z" fill="black"/>
<path d="M135.855 158.044L135.22 155.482L135.238 153.194C135.437 153.172 135.855 153.597 135.855 153.649V158.044Z" fill="black"/>
<path d="M115.094 157.438L116.023 161.681C115.613 161.723 115.477 160.992 115.354 160.675C115.079 159.97 114.702 158.854 114.538 158.133C114.392 157.489 114.35 157.34 115.094 157.438Z" fill="black"/>
<path d="M141.118 126.213C140.662 126.239 140.573 125.125 140.539 124.814C140.427 123.77 140.533 122.712 140.505 121.668C140.958 121.614 141.061 122.462 141.093 122.755C141.219 123.897 141.069 125.069 141.118 126.213Z" fill="black"/>
<path d="M95.8888 152.281C95.4891 152.668 92.9647 149.584 92.7909 149.255C93.2614 148.814 95.7502 151.789 95.8888 152.281Z" fill="black"/>
<path d="M132.444 159.257C131.28 158.589 132.019 156.717 131.83 155.619C132.994 156.287 132.255 158.159 132.444 159.257Z" fill="black"/>
<path d="M90.9305 78.3148C90.4494 78.8875 90.2674 77.8877 90.1626 77.7167C89.7146 76.9859 89.2782 76.1753 89.386 75.2852C89.9887 75.3979 91.0418 78.1823 90.9305 78.3148Z" fill="black"/>
<path d="M93.4073 77.7091C92.3387 77.1732 91.9434 75.7757 91.8645 74.6777C92.7333 75.299 93.3336 76.6931 93.4073 77.7091Z" fill="black"/>
<path d="M75.6548 62.0413C79.2982 65.0456 77.9929 72.6282 72.53 72.5216C64.7006 72.3689 65.5547 59.8688 73.3545 61.1078C73.8721 61.1901 75.2675 61.7219 75.6548 62.0413ZM74.6496 69.3605C77.083 67.6198 76.5613 63.617 73.6549 62.6331C69.1334 61.1024 66.5299 67.0305 70.6345 69.2193C70.9483 69.1499 71.4289 67.5705 71.4189 67.2737C71.4144 67.1409 69.8625 66.2438 70.4858 64.9781C71.5757 65.4509 72.5047 64.6809 73.3489 64.736C74.6859 64.8233 73.9132 65.4449 74.0617 65.9109C74.2665 66.5535 74.8622 67.0058 74.8188 67.7048C74.4347 67.3585 72.2492 67.6066 72.0769 67.7464C71.9455 67.8531 71.9571 68.6525 71.734 69.0228C71.5679 69.2986 71.0089 69.1378 71.1051 69.3707C71.6844 70.7734 73.8222 69.9524 74.6496 69.3605Z" fill="black"/>
<path d="M85.9748 63.1614C86.2967 63.4021 82.2561 69.3893 81.6405 69.8275C82.4833 68.1706 83.7657 64.8152 84.9486 63.5297C85.2368 63.2164 85.5643 62.8544 85.9748 63.1614Z" fill="black"/>
<path d="M85.978 68.9193C85.8714 68.4064 86.1274 68.0372 86.3372 67.6064C86.536 67.1983 88.9175 62.9631 89.3798 63.4628C88.5449 65.31 87.6726 67.6981 85.978 68.9193Z" fill="black"/>
<path d="M93.0992 64.0694C93.3162 64.3181 90.7472 68.5859 90.0056 68.918C90.2374 67.516 91.443 65.8306 92.2979 64.6376C92.4194 64.468 92.642 63.5455 93.0992 64.0694Z" fill="black"/>
<path d="M110.453 70.4349C110.88 68.8887 112.287 67.4297 113.545 66.4941C113.29 67.9922 111.635 69.4923 110.453 70.4349Z" fill="black"/>
<path d="M93.4136 68.9175C93.2971 68.2251 95.8287 64.5845 96.1957 64.9767C95.7094 66.4356 94.7394 68.0796 93.4136 68.9175Z" fill="black"/>
<path d="M108.901 66.4966C107.66 67.7289 107.016 69.4873 105.496 70.4344C105.281 69.5937 108.416 66.0325 108.901 66.4966Z" fill="black"/>
<path d="M117.264 67.4038C117.513 67.6539 115.021 71.0374 114.481 71.3431C114.35 70.7874 114.67 70.5039 114.899 70.0878C115.074 69.7691 116.829 66.9658 117.264 67.4038Z" fill="black"/>
<path d="M120.674 68.0127C119.828 69.455 119.09 71.0479 117.579 71.9505C117.814 70.9751 118.694 70.0396 119.322 69.2613C119.718 68.7706 119.952 67.8728 120.674 68.0127Z" fill="black"/>
<path d="M80.3942 65.8849C79.8369 65.9657 80.1298 65.2364 80.2191 64.9562C80.4935 64.0955 81.1093 63.0181 81.9443 62.5527L80.3942 65.8849Z" fill="black"/>
<path d="M172.719 61.9439L171.395 59.152C170.516 55.3849 168.633 51.7964 168.078 48.002L171.876 58.3783L172.719 61.9439Z" fill="black"/>
<path d="M163.735 41.0278L161.508 36.9963L160.643 34.0586L162.497 37.5442L163.735 41.0278Z" fill="black"/>
<path d="M166.213 43.1516C165.692 43.0666 165.658 42.5613 165.509 42.1765C164.84 40.4468 164.335 38.5486 163.741 36.7871C164.272 37.1218 164.669 38.2446 164.905 38.8271C165.445 40.1636 165.949 41.7345 166.213 43.1516Z" fill="black"/>
<path d="M74.2045 176.537C74.147 176.589 73.2645 176.47 72.8766 176.597C72.2882 176.788 72.1383 177.562 71.4195 177.444C70.4449 175.901 69.3962 173.641 72.1818 173.788C73.7314 173.87 74.8678 175.928 74.2045 176.537Z" fill="black"/>
<path d="M133.41 176.199C133.585 176.339 134.7 175.524 135.717 176.522C136.355 177.148 136.172 177.847 136.163 178.66C135.358 177.818 133.168 180.012 133.069 179.871C133.115 178.38 132.66 177.108 133.07 175.628C133.596 175.498 133.259 176.079 133.41 176.199Z" fill="black"/>
<path d="M90.585 37.349C89.2304 38.1804 88.6127 35.7882 88.7322 34.804C88.8234 34.0531 91.6043 32.9649 91.5822 35.1175C91.5794 35.3899 90.6904 37.2843 90.585 37.349Z" fill="black"/>
<path d="M91.8549 155.926C91.8984 155.958 91.8739 156.335 92.0506 156.493C92.365 156.773 92.9341 157.007 93.0526 157.334C93.4289 158.375 92.3718 159.903 94.0309 159.562L93.5671 160.463C92.0071 159.082 92.1458 159.841 90.6236 160.469C90.9888 159.217 89.601 159.021 89.4339 157.823C89.2567 156.552 90.3004 157.082 90.9339 156.67C91.2252 156.48 91.2297 155.464 91.8549 155.926Z" fill="black"/>
<path d="M149.117 158.409C149.257 158.562 149.592 160.958 149.485 161.075C148.893 161.253 148.586 160.4 148.123 160.48C147.555 160.579 147.23 162.13 146.549 161.984C145.962 161.857 144.711 159.705 145.283 158.933C145.591 158.516 148.575 157.81 149.117 158.409Z" fill="black"/>
</svg>
