<svg width="1280" height="720" viewBox="0 0 1280 720" fill="none" xmlns="http://www.w3.org/2000/svg">
<path d="M898.568 475.728C899.474 475.836 902.517 476.569 902.862 477.678C897.358 478.299 891.61 479.25 886.159 478.467L875.774 485.504C890.803 486.772 906.008 485.442 921.029 486.82C924.381 487.128 930.709 487.655 933.665 488.698C934.33 488.932 935.685 489.159 934.583 490.072C934.112 490.462 923.97 491.327 922.383 491.407C903.133 492.38 883.548 491.626 864.264 492.089L849.343 498.548C854.069 498.706 858.845 498.368 863.574 498.528C873.082 498.85 883.091 499.082 892.614 499.866C896.338 500.172 905.211 500.886 908.335 501.958C911.937 503.196 904.795 504.338 903.843 504.413C900.377 504.688 896.084 504.97 892.648 505.103C870.846 505.95 838.912 501.646 819.185 508.249C818.318 508.539 817.169 508.44 816.962 509.635C826.514 509.659 836.168 509.678 845.699 510.301C851.941 510.708 859.991 511.349 866.097 512.341C866.796 512.454 871.869 512.766 870.482 514.198C870.036 514.659 859.349 515.464 857.627 515.539C839.616 516.316 818.118 513.631 800.769 515.508C794.442 516.192 787.032 520.85 780.624 522.042L786.904 523.331C801.615 524.078 816.466 524.797 831.075 526.691C832.667 526.898 841.398 527.939 841.397 528.882C841.397 529.755 834.084 530.451 832.518 530.539C825.411 530.938 818.347 529.956 811.373 529.833C766.584 529.04 721.891 526.155 677.215 523.331C671.177 522.949 665.127 521.599 659.037 522.04C668.206 535.1 672.556 548.162 659.044 560.192C658.403 560.764 654.029 562.939 655.076 563.77C663.711 563.504 672.302 564.678 680.839 565.734C680.972 566.512 680.849 566.908 680.164 567.344C678.985 568.094 670.1 568.828 667.951 568.985C660.185 569.552 650.363 568.725 642.904 569.699C639.663 570.122 635.34 572.347 631.944 573.229C616.178 577.326 602.198 579.618 586.182 582.2C585.587 582.295 584.197 582.477 584.373 583.333C589.941 583.386 595.456 584.269 600.887 585.301C601.087 586.54 600.366 587.058 599.236 587.252C597.436 587.559 593.362 587.824 591.335 587.932C558.973 589.647 524.439 583.536 491.688 586.104L481.292 590.507C498.473 591.807 515.972 591.715 533.075 593.858C534.567 594.045 543.659 595.358 544.063 595.738C545.532 597.119 540.392 597.619 539.76 597.683C519.873 599.692 499.51 597.665 479.664 597.009C446.137 595.9 412.646 594.942 379.192 593.129C368.687 592.56 355.961 592.988 345.796 590.872C344.672 590.638 342.895 590.518 342.526 589.216L362.652 587.878C388.855 588.384 415.19 587.527 441.339 588.53C442.873 588.589 446.143 590.077 446.923 588.565C442.787 587.84 437.252 583.775 433.284 583.57C427.24 583.257 419.941 584.308 413.532 584.019C407.495 583.746 401.373 582.749 395.385 582.032L396.367 580.729C407.722 581.015 419.219 579.853 430.408 582.029C428.196 580.115 424.554 578.793 421.791 577.823C405.497 572.099 383.416 572.916 366.01 572.225C349.816 571.582 333.526 572.208 317.419 570.292C316.917 568.669 318.699 568.739 319.902 568.529C329.364 566.872 342.353 566.639 352.08 566.356C361.648 566.077 371.281 566.624 380.847 566.376C380.51 565.44 377.867 564.993 376.889 564.748C345.141 556.788 311.16 560.684 278.769 557.896C276.11 557.667 273.19 556.867 270.502 556.593C270.939 555.272 273.13 554.984 274.309 554.814C293.969 551.988 314.692 554.618 334.295 553.368C335.243 553.307 337.766 553.297 337.897 552.041C326.189 551.131 314.961 547.759 303.203 546.823C279.348 544.923 255.064 545.719 231.158 544.235L206.406 542.248C206.262 540.537 206.325 541.168 207.403 540.969C219.779 538.68 236.275 538.543 248.995 538.307C254.649 538.202 260.288 538.244 265.873 538.987C266.439 537.157 262.715 537.383 261.46 537.151C240.693 533.324 219.517 532.918 198.442 532.1L164.12 550.071L208.712 551.389C218.521 553.112 229.313 552.525 239.056 554.048C240.293 554.242 242.261 554.583 242.747 555.94L226.587 557.279C202.487 558.891 174.979 554.028 151.227 556.596C146.014 557.16 139.965 560.957 134.386 561.172L143.97 562.462C158.073 563.596 174.37 563.611 188.151 566.466C189.431 566.731 191.356 566.881 191.869 568.333C178.023 569.232 163.822 569.341 149.882 569.018C126.039 568.466 101.725 566.975 77.8786 565.737C73.566 565.513 44.5544 564.57 43.1971 563.112C41.6678 561.47 48.7247 560.599 49.4829 560.524C52.3928 560.235 56.4171 559.961 59.3563 559.834C68.465 559.44 77.6906 560.187 86.8024 559.854L78.8686 554.325C69.4529 546.2 63.1302 534.691 69.0464 522.44C72.9972 514.259 80.1088 510.647 86.8055 505.083L48.1232 504.451C41.4804 503.115 34.4931 504.515 28 502.145C28.7514 501.281 30.0345 500.848 31.1284 500.667C52.0535 497.205 74.0846 500.678 95.0173 499.818C95.5749 499.795 101.112 498.129 101.341 497.893C102.295 496.912 101.035 496.766 100.499 496.433C99.031 495.52 96.0734 494.915 94.3216 494.724C85.1768 493.726 75.234 494.061 65.9983 493.33C63.707 493.149 49.1655 491.921 48.4781 491.377C47.4114 490.531 49.1372 489.917 49.7701 489.748C55.9632 488.094 64.7859 488.994 71.3048 488.799C73.053 488.746 74.6481 488.126 76.5322 488.089C81.5184 487.988 86.5263 487.973 91.4311 488.765C82.104 478.503 75.4213 462.908 82.5513 449.68C89.7133 436.393 121.798 429.465 136.04 428.777C149.67 428.119 162.201 431.189 175.346 433.984C172.322 421.397 177.861 416.167 186.926 409.217C191.158 405.973 202.483 400.06 204.122 395.54C206.361 389.362 200.475 382.233 199.805 375.61C197.288 350.742 209.839 322.328 213.357 297.693C218.716 282.234 228.828 277.328 242.963 270.825C300.502 244.351 356.691 246.354 418.178 241.585C428.419 240.79 437.104 234.956 446.93 232.136C461.901 227.84 476.085 228.208 490.08 220.594C510.53 209.469 530.696 191.054 555.655 192.648C559.923 192.92 564.507 194.158 568.848 194.627C577.983 195.614 582.01 194.351 590.991 198.859C601.464 204.116 623.763 230.883 630.642 241.247C636.999 250.823 639.98 261.276 642.852 272.24C662.833 281.058 695.532 292.779 687.452 320.502C693.4 320.951 696.963 315.739 702.285 313.952C722.046 307.32 740.065 330.752 747.035 346.155C750.377 353.541 752.198 361.603 755.955 368.819C771.765 373.026 785.866 382.179 801.76 386.056C813.486 388.917 826.148 388.547 838.245 390.481C858.179 393.667 881.629 401.319 896.924 414.74C913.577 429.354 907.004 448.061 897.192 464.587L888.326 475.728C891.592 476.004 895.38 475.349 898.568 475.728ZM534.157 278.114C542.424 271.052 551.397 264.408 558.581 256.248C569.559 243.778 589.221 213.426 564.717 203.921C550.947 198.58 539.133 203.936 527.098 210.174C515.074 216.406 496.66 229.773 484.96 233.802C477.478 236.379 466.323 237.242 458.157 239.304C448.845 241.655 434.3 248.708 426.615 249.912C416.575 251.486 402.353 251.216 391.761 252.033C343.408 255.764 294.801 258.254 250.231 278.651C246.065 280.558 231.206 287.451 228.865 290.173C221.227 299.056 235.571 309.349 243.409 311.369C240.518 308.87 242.546 303.295 246.354 304.216C247.714 304.544 246.531 307.52 246.836 308.944C247.899 313.917 261.363 314.896 265.681 317.112C268.454 318.536 269.898 322.463 272.29 322.98C275.431 323.661 280.02 323.384 283.304 323.848C322.703 329.424 349.44 329.815 389.016 324.327C395.51 323.426 437.612 316.891 439.973 314.62C440.998 313.633 441.515 311.132 443.267 309.393C447.513 305.178 465.58 300.253 472.192 298.158C475.477 297.118 496.753 290.202 498.052 290.56C501.252 291.441 498.225 294.241 496.275 295.189C486.522 299.929 472.292 303.024 461.769 306.784C456.228 308.765 446.396 311.076 445.878 317.882C448.447 325.408 452.384 332.827 455.87 340.09C456.966 340.09 466.633 333.964 467.107 332.911C465.843 327.939 460.076 321.499 466.573 318.048C477.286 312.358 494.548 309.249 506.08 304.182C510.52 303.853 512.664 305.596 515.261 308.823C519.304 313.846 528.991 334.437 528.918 340.398C528.844 346.419 524.367 346.007 520.287 347.585C509.148 351.892 497.958 356.064 486.739 360.17C480.952 360.679 475.895 348.985 474.267 348.674L462.823 353.152C462.599 354.048 462.847 354.887 463.099 355.742C463.677 357.7 468.493 366.994 469.767 368.727C473.728 374.115 477.869 373.605 483.799 372.225C495.94 369.398 533.271 355.837 543.2 349.33C551.82 343.681 546.835 331.94 544.074 324.082C541.173 315.825 530.809 292.393 522.728 289.068C516.176 286.372 511.808 291.067 506.636 291.145C504.922 291.171 502.648 289.065 499.79 290.499C501.365 289.012 504.617 287.365 506.61 286.476C513.201 283.537 518.896 282.208 526.148 283.252C526.771 280.068 529.409 276.372 531.522 273.889C532.377 272.884 537.366 267.134 536.747 271.213C536.355 273.798 534.643 275.665 534.157 278.114ZM631.281 269.632C630.175 262.949 627.839 256.446 624.548 250.523C619.727 241.846 595.361 211.865 587.223 207.795C584.206 206.286 580.523 205.004 577.101 205.075C579.942 208.038 582.278 211.371 583.056 215.502C586.922 211.789 588.801 219.878 590.704 222.621C600.708 237.042 617.732 249.515 619.393 268.336L621.37 268.336C620.771 266.236 622.555 259.048 625.392 262.731C627.601 265.599 623.73 268.787 624.016 268.977L631.281 269.632ZM579.08 238.986C577.171 238.622 578.025 239.529 577.591 240.416C572.74 250.33 566.121 259.859 557.948 267.362C556.216 268.952 553.429 270.627 551.754 272.189C551.191 272.712 551.16 272.645 551.328 273.545C554.773 273.047 556.605 276.034 559.248 276.806C566.232 264.582 578.889 254.055 579.08 238.986ZM569.174 282.023L576.434 266.375C571.915 271.998 566.271 276.408 561.359 281.695C565.29 287.839 569.496 295.136 571.626 302.105C572.769 305.844 572.695 309.838 574.469 313.332C583.975 307.821 592.765 300.768 599.554 292.123C600.704 290.659 604.977 284.914 605.507 283.647C605.631 283.35 605.679 282.58 605.187 282.683C600.114 288.221 593.752 294.15 587.601 298.587C586.26 299.554 579.543 304.398 578.422 303.543C580.175 298.39 586.13 295.375 587.667 290.506C586.975 290.967 584.575 293.005 585.068 290.876C585.799 287.722 588.835 284.776 588.988 281.375C587.345 283.578 578.083 295.773 575.406 290.497C574.511 288.733 584.815 273.46 583.378 269.629C582.539 272.444 572.158 284.575 569.174 282.023ZM673.397 326.2C673.665 325.878 676.11 319.395 676.404 318.409C681.458 301.474 672.175 297.331 658.82 289.741C649.435 284.408 629.747 274.862 619.077 276.826C616.171 277.361 612.01 287.669 610.013 290.707C606.24 296.449 599.855 303.641 594.591 308.095C590.126 311.874 584.577 314.573 580.405 318.543L589.832 319.105C604.208 309.703 618.384 299.836 633.601 291.814C634.343 292.011 633.911 292.669 633.608 293.124C632.469 294.837 627.187 299.657 625.347 301.276C617.095 308.536 596.176 323.764 585.358 323.824C581.929 323.843 575.695 322.016 572.487 323.453C571.005 324.118 565.173 330.848 563.232 332.58C562.028 333.655 555.704 337.776 555.436 338.248C554.62 339.687 555.476 345.921 553.313 347.892L580.748 335.517C581.661 335.318 581.984 335.55 581.716 336.472C580.967 339.047 566.589 347.994 563.426 349.728C554.21 354.782 543.769 357.799 535.475 364.533C548.076 368.029 560.385 375.152 563.045 388.839C564.746 397.593 561.931 413.007 557.62 420.956C556.534 422.958 550.037 431.656 548.347 432.028C547.511 432.212 546.728 431.404 546.801 430.516C546.945 428.781 554.05 419.278 555.413 416.168C559.659 406.481 560.372 391.235 554.762 382.012C548.37 371.503 537.442 371.225 527.989 364.945L513.011 374.647C513.077 375.671 518.494 375.145 516.967 377.24C516.161 378.347 504.403 377.499 505.739 379.196C514.394 381.641 523.66 384.244 530.495 390.312C546.263 404.313 546.63 431.359 542.086 450.289L557.951 429.761C575.682 409.829 590.73 387.583 610.473 369.424C610.536 373.057 607.166 377.332 605.125 380.45C596.501 393.625 585.099 409.03 575.392 421.54C571.665 426.345 567.494 430.682 563.548 435.285C563.106 435.802 561.82 436.599 562.891 437.246C585.493 418.473 609.868 401.53 635.465 386.918C651.161 377.958 670.329 367.862 688.52 365.586C692.449 365.094 702.482 364.653 706 365.787C707.626 366.311 707.469 367.946 708.902 368.169C712.044 368.657 715.249 367.516 718.149 367.437C723.323 367.297 728.534 367.601 733.704 367.458C722.51 359.421 708.908 355.742 696.042 351.152C697.053 349.067 699.678 349.098 701.67 349.161C716.028 349.622 730.466 357.439 742.288 364.855C739.439 353.236 733.918 340.891 725.758 331.937C719.629 325.213 708.919 317.861 700.667 325.716C703.4 326.309 706.32 327.184 708.81 328.446C709.927 329.013 716.053 332.696 714.539 334.199C710.598 334.039 707.146 331.99 703.343 331.234C674.257 325.452 650.092 345.651 624.557 352.665C620.342 353.823 622.024 351.162 619.363 352.097L599.574 366.812L605.176 358.978C619.253 344.321 636.244 332.745 650.799 318.571C652.926 316.5 659.277 308.328 661.359 307.468C662.899 306.832 662.43 310.344 662.345 311.054C661.015 322.175 647.729 332.251 639.153 338.382C634.656 341.597 629.437 344.116 625.338 347.892C637.479 342.642 649.145 336.184 661.23 330.823C663.355 329.881 672.588 327.169 673.397 326.2ZM534.249 291.068C535.545 291.847 541.981 287.22 543.344 286.21C544.727 285.185 550.536 281.041 549.716 279.428C549.256 278.521 547.621 277.237 546.505 277.529C546.003 277.661 539.625 282.927 538.323 283.863C536.267 285.34 533.881 286.984 531.512 287.905C531.5 288.807 532.718 288.825 533.524 289.52C533.93 289.87 534.01 290.924 534.249 291.068ZM235.476 320.506C237.067 316.995 231.832 315.559 229.222 313.313C227.696 312 226.404 310.437 224.879 309.122L221.611 303.554L218.968 320.503L221.733 313.135C223.59 310.048 226.427 315.468 228.656 317.133C229.553 317.803 234.956 321.019 235.476 320.506ZM566.522 317.246C564.481 319.243 562.761 321.56 560.6 323.459C559.44 324.478 558.037 324.821 556.946 325.723C556.369 326.2 550.34 331.727 553.643 331.581C554.629 331.538 567.189 320.045 566.522 317.246ZM264.552 322.47C260.472 322.219 247.857 316.515 244.736 318.229C243.473 318.922 238.657 330.267 237.949 332.4C233.834 344.799 230.417 371.233 244.288 378.662C245.426 379.272 261.81 385.19 261.246 383.447C259.608 381.988 255.178 370.566 254.535 370.181C253.941 369.825 251.859 370.15 250.634 369.791C248.809 369.255 234.517 364.441 242.386 363.521C246.359 363.057 250.79 364.563 253.975 366.812C254.723 355.249 255.456 339.768 260.463 329.186C261.647 326.683 263.625 324.951 264.552 322.47ZM478.598 320.546L470.058 323.438C474.796 326.212 479.624 325.656 483.162 330.723C486.395 335.353 486.775 339.485 486.563 344.952C486.468 347.412 483.786 351.405 487.893 351.808C489.349 343.195 489.145 335.801 484.203 328.391C482.284 325.512 479.501 323.744 478.598 320.546ZM440.239 321.86L385.473 334.858L386.14 340.075C405.292 337.374 423.925 332.125 442.302 326.368C442.554 326.03 440.443 322.004 440.239 321.86ZM347.717 338.869C346.986 338.238 331.061 338.919 328.292 338.795C317.246 338.298 305.674 336.985 294.729 335.398C286.907 334.265 276.399 330.964 269.188 330.547C267.051 330.423 266.193 331.964 268.028 333.069C274.139 336.749 288.175 339.303 295.472 340.535C313.342 343.552 331.706 344.817 349.794 343.327C348.938 342.647 347.904 339.03 347.717 338.869ZM378.871 331.59L352.439 334.21C359.186 347.475 362.293 363.721 364.8 378.415C365.448 382.211 365.95 394.934 367.937 396.841C368.624 397.501 369.713 397.97 370.664 398.096C376.588 398.885 385.916 394.609 392.355 395.449C393.38 395.212 395.674 394.892 396.012 393.798C396.381 392.605 391.767 384.816 391.081 382.477C389.26 376.269 388.756 368.721 387.131 362.244C384.576 352.058 379.456 342.028 378.871 331.59ZM475.834 332.989C470.88 333.702 459.735 343.158 454.131 344.946C453.37 345.539 455.882 350.694 456.149 350.885C456.931 351.445 457.312 350.865 457.964 350.656C461.354 349.567 476.098 342.323 478.313 340.073C481.296 337.042 478.73 332.572 475.834 332.989ZM439.653 356.373L433.386 337.467C431.91 338.533 433.302 340.955 433.7 342.371C434.668 345.816 436.164 350.211 437.678 353.441C438.078 354.293 438.653 356.209 439.653 356.373ZM452.875 365.501C450.525 359.335 448.439 352.812 445.734 346.795C445.123 345.437 444.363 343.395 442.97 342.681C443.617 345.128 444.395 348.17 445.29 350.493C446.712 354.183 449.165 360.611 450.853 363.917C451.338 364.869 451.44 365.778 452.875 365.501ZM440.328 358.337C440.412 360.674 437.548 362.952 440 364.852C442.345 365.373 442.158 358.786 440.328 358.337ZM220.277 454.855C219.284 453.979 226.508 447.96 227.595 447.402C241.386 440.319 258.191 420.802 267.47 407.844C279.45 391.115 289.936 366.195 261.251 360.297C261.614 366.963 264.156 364.547 268.183 367.47C280.767 376.603 265.537 397.671 258.881 406.539C232.416 441.798 192.583 466.795 152.67 484.974C132.776 494.034 109.188 501.32 91.2221 513.675C81.3431 520.468 70.6912 529.42 80.5207 541.607C98.2519 563.591 125.511 555.951 148.236 546.469C197.053 526.101 252.947 488.733 279.204 442.252C282.524 436.376 284.258 431.547 286.472 425.294C286.635 424.834 287.924 423.223 286.356 423.872C282.462 430.374 279.683 437.538 275.657 443.968C265.048 460.912 246.514 479.36 230.528 491.384C228.896 492.612 227.516 494.621 225.896 495.943C225.51 491.358 223.037 487.46 221.792 483.043C219.91 476.367 218.533 465.156 219.947 458.447C220.183 457.327 221.535 456.098 222.262 455.181L220.277 454.855ZM253.32 400.082C244.703 396.235 236.404 395.57 229.207 388.983C221.812 382.215 219.121 376.323 216.248 367.207L212.36 360.946C211.721 368.37 210.791 375.745 213.552 382.912C216.198 389.783 230.803 407.239 237.116 411.177C241.556 413.947 243.3 415.173 245.391 409.214C238.273 406.131 231.337 400.338 227.551 393.559C236.341 393.932 241.529 401.927 249.061 405.317C250.172 405.473 252.35 401.184 253.32 400.082ZM513.005 368.123C509.085 369.585 504.942 370.674 501.12 372.393C500.554 372.648 499.307 372.464 499.796 373.65C500.165 374.543 502.155 376.174 503.294 375.876C504.529 375.551 511.267 369.291 513.005 368.123ZM706.609 368.775L702.397 368.848L692.079 371.371L695.541 371.211L706.609 368.775ZM403.981 385.719C414.511 385.21 424.054 385.129 434.381 382.798C441.052 381.292 448.671 378.935 455.023 376.432C457.597 375.417 467.322 372.526 461.263 370.201L403.981 385.719ZM798.457 394.211C783.109 392.8 770.142 383.111 755.852 378.54C699.543 360.529 631.224 391.397 588.681 426.178C582.276 431.414 575.859 436.896 569.833 442.46C584.034 436.193 598.367 429.576 613.293 425.034C671.123 407.436 732.459 398.407 792.84 395.505L798.457 394.211ZM487.893 377.906C483.089 378.706 478.631 379.686 473.663 379.23C471.398 379.022 467.643 377.135 466.585 377.357C465.106 377.666 461.294 380.878 459.272 381.279L444.288 387.023C457.391 387.405 469.977 383.361 482.457 380.031L487.893 377.906ZM501.112 461.373C505.493 459.717 524.592 464.38 526.88 463.007C527.462 462.658 532.397 455.187 532.956 454.005C542.22 434.393 540.402 399.007 517.152 389.786C514.792 388.85 499.676 383.896 498.164 383.847C494.798 383.738 480.927 388.43 476.127 389.436C452.46 394.394 436.029 394.115 412.244 392.241C408.663 391.959 404.933 391.21 401.335 390.95C402.144 392.008 401.744 394.121 402.289 394.892C403.018 395.925 408.184 394.857 403.537 398.008C397.468 402.125 384.034 402.165 376.622 403.4C368.522 404.749 360.493 407.81 352.109 407.251C351.071 406.575 352.631 406.459 353.098 406.281C357.312 404.675 361.834 403.888 366.31 403.328L361.388 398.74L359.272 394.166C336.82 397.839 314.507 392.811 292.968 387.036C294.294 388.921 294.579 395.332 296.713 396.051L339.879 402.36C334.568 403.851 329.093 403.073 323.666 403.308C322.103 403.376 320.654 403.986 319.095 404.014C311.673 404.149 304.233 404.03 296.937 402.685C297.259 404.44 296.001 409.788 298.02 410.413C316.991 412.043 336.399 415.649 355.442 415.757C359.4 415.78 363.355 414.27 367.635 415.733C367.378 417.048 366.234 416.795 365.318 417.027C352.504 420.275 322.421 421.001 309.341 418.805C304.996 418.076 301.046 416.488 296.936 415.077C296.805 425.456 292.512 435.113 288.345 444.42C293.843 445.085 298.869 447.297 304.506 447.709C356.04 451.473 426.749 427.348 473.595 406.502C483.721 401.996 496.724 393.699 507.04 390.598C507.809 390.367 508.549 390.179 509.366 390.285C512.517 390.649 504.928 395.432 504.363 395.782C469.786 417.207 425.782 429.558 388.129 444.759C368.086 452.85 348.534 464.968 326.006 464.634C325.785 464.474 326.394 463.837 326.664 463.66C332.623 459.733 348.294 458.116 355.246 454.043L370.936 447.038C349.323 450.78 327.625 455.115 305.526 454.212C305.37 455.15 306.639 455.067 307.339 455.34C310.093 456.416 321.504 458.74 322.01 461.123C322.595 463.876 309.67 467.854 307.183 467.911C305.834 464.966 310.492 464.261 311.469 462.039C301.8 460.372 293.994 454.028 284.795 451.034C283.629 451.251 277.725 460.585 278.43 461.373C284.979 463.662 290.938 467.31 297.744 469.384C307.568 472.376 328.423 473.294 325.844 488.292C323.447 502.235 300.471 498.266 290.987 495.618C280.531 492.699 269.946 487.696 260.25 482.892C259.201 482.886 250.808 491.881 249.682 493.333C249.176 493.986 248.404 494.159 248.695 495.288C251.772 495.896 254.691 497.14 257.783 497.738C278.044 501.66 297.038 509.587 318.323 506.95C333.044 505.127 345.066 498.055 357.714 491.045C359.121 489.777 358.104 489.852 357.006 490.345C352.626 492.308 342.663 497.062 338.239 497.259C337.63 497.286 337.93 496.491 337.905 495.958C357.712 485.657 376.754 473.438 398.172 466.411C414.438 461.074 431.489 458.596 447.931 452.913C472.299 444.49 494.702 432.616 515.983 418.339C516.879 419.158 515.759 420.793 515.343 421.621C511.302 429.655 498.371 439.312 490.745 444.3C477.901 452.701 462.743 459.072 447.592 462.039C448.048 463.201 451.509 462.773 452.573 462.711C456.325 462.493 460.701 461.6 464.445 461.386C470.32 461.051 485.937 461.857 490.505 460.367C493.48 459.397 501.293 454.365 504.231 452.394C516.438 444.205 523.973 434.386 531.841 422.252C533.252 427.357 530.564 432.492 528.075 436.796C524.941 442.215 518.839 448.871 513.977 452.882C509.971 456.187 505.239 458.289 501.112 461.373ZM243.403 394.856L241.434 391.915L232.837 385.732C233.276 387.23 242.921 395.365 243.403 394.856ZM356.402 387.03H331.953C331.903 387.453 332.829 388.334 332.944 388.334H356.402V387.03ZM199.137 441.155C197.912 439.023 186.06 429.057 192.332 427.534C194.755 426.945 209.443 441.155 212.683 441.154C215.261 441.154 223.423 431.906 226.216 430.401C226.252 429.355 210.462 419.587 209.807 417.21C208.53 412.578 217.821 410.568 218.831 406.126C219.615 402.671 216.507 399.552 214.663 396.816C211.811 409.107 188.136 414.501 185.046 424.969C182.036 435.164 189.761 440.663 199.137 441.155ZM871.802 411.169C853.793 402.885 832.635 398.153 812.64 398.743C800.08 399.113 787.488 401.659 774.996 402.676C734.345 405.984 688.593 407.119 651.531 425.602C639.42 431.641 632.021 439.887 621.997 448.625C619.811 453.266 622.236 453.318 626.305 453.58C637.035 454.271 635.034 452.596 642.738 448.228C650.165 444.017 659.28 439.645 667.627 437.907C661.18 445.203 650.889 448.038 643.183 453.887C642.905 455.413 643.876 454.739 644.84 454.839C651.026 455.477 657.085 456.535 663.21 457.514C666.882 453.319 672.739 449.159 677.594 446.108C679.891 444.666 695.401 436.095 696.698 437.252L694.662 440.128C691.544 442.891 670.43 455.819 669.615 457.802C669.109 459.033 670.379 458.751 671.061 458.952C675.276 460.194 680.119 460.623 684.376 462.078C693.908 450.919 706.8 441.359 721.15 437.255L689.464 462.391C688.642 462.88 688.615 463.147 689.423 463.671C690.934 464.65 697.965 467.585 699.523 467.135C710.872 459.889 723.698 451.017 736.128 445.837C736.733 445.585 737.811 444.418 738.327 445.398C735.489 448.537 732.025 450.953 728.626 453.433C723.032 457.514 708.592 465.099 704.931 469.185C704.062 470.154 704.025 471.61 703.892 471.727C702.737 472.744 689.206 467.154 686.647 466.412C670.781 461.812 646.947 458.85 630.32 458.092C620.413 457.64 608.5 457.717 598.569 458.119C597.767 458.151 596.112 457.626 596.267 458.764C611.658 458.587 627.582 459.557 642.758 462.12C648.561 463.101 663.28 466.645 667.603 470.208C669.433 471.716 670.397 475.095 672.302 476.657C672.997 477.227 683.205 480.83 681.5 482.246C676.67 482.285 669.158 480.061 665.67 476.681C664.022 475.085 664.579 473.715 663.371 472.428C662.126 471.103 658.261 470.061 656.398 469.851C656.323 468.807 660.249 468.899 659.033 467.256C657.169 464.737 614.318 463.156 608.46 463.309C596.74 463.617 583.859 464.228 572.252 466.05C571.168 466.22 568.273 466.29 567.853 467.243C594.995 465.391 623.69 468.238 649.929 475.261C661.219 478.283 677.723 483.37 687.892 488.662C712.256 501.341 742.072 524.385 771.05 515.523C783.671 511.663 796.762 505.592 809.352 501.152C839.679 490.457 879.526 483.099 893.07 450.084C899.576 434.226 898.622 426.576 883.643 417.413C882.235 416.552 878.486 414.261 877.12 414.074C876.416 413.978 875.117 415.092 873.473 415.152C871.782 415.213 870.316 414.475 868.826 414.429C862.977 414.248 857.145 414.536 851.326 413.766C851.121 412.2 851.303 412.723 852.242 412.394C856.288 410.974 861.92 410.968 866.217 411.134C867.751 411.193 871.019 412.681 871.802 411.169ZM223.256 411.171L218.312 416.053C222.506 419.05 226.314 422.434 229.864 426.15L236.128 419.966C231.773 417.116 226.836 415.07 223.256 411.171ZM633.266 431.385C621.261 435.812 605.351 440.238 595.595 448.654C594.876 449.274 590.224 453.543 590.98 454.202L618.069 452.895C617.154 451.008 614.536 449.417 615.748 447.047L633.266 431.385ZM147.601 462.035C148.37 461.254 165.376 469.872 168.247 469.749C179.073 463.747 190.323 458.434 200.446 451.271C200.567 448.518 156.79 439.787 152.476 439.281C140.03 437.821 128.619 439.039 116.544 442.143C109.419 443.975 92.073 448.949 90.4034 456.778C87.4808 470.483 95.145 479.911 105.376 487.726C106.957 488.934 112.768 493.423 114.166 493.35L119.84 490.737C113.545 487.933 107.211 482.53 102.682 477.341C98.2833 472.301 94.1697 467.939 97.254 460.932C102.452 449.122 119.713 457.554 127.788 461.692C136.729 466.274 145.113 472.036 154.573 475.735L162.792 472.144C159.072 469.408 152.255 468.043 148.962 464.924C148.339 464.334 146.77 462.878 147.601 462.035ZM596.263 441.82C589.941 443.803 583.573 445.687 577.525 448.429C572.174 450.854 565.626 454.413 561.242 458.112L588.993 454.198C585.473 449.498 593.485 445.129 596.263 441.82ZM318.737 485.506C319.81 484.344 314.539 481.428 313.7 481.026C308.035 478.311 300.851 476.93 294.92 474.127C288.873 471.269 282.549 466.926 277.356 462.727C272.29 466.953 268.769 473.299 263.906 478.011C269.021 481.355 274.761 483.817 280.855 484.613C281.837 484.741 283.043 484.14 284.516 484.337C289.813 485.046 295.921 488.129 301.295 488.7C307.74 489.385 312.702 486.842 318.737 485.506ZM495.825 469.206H516.97L504.117 467.871C501.773 468.127 499.076 467.614 496.805 467.9C495.835 468.023 494.753 468.407 495.825 469.206ZM481.946 469.213C446.027 468.646 409.391 475.688 376.246 489.119C353.984 498.139 333.947 514.042 308.829 513.562L320.359 514.883C383.166 514.441 445.933 504.41 508.703 511.606C518.531 512.733 547.941 516.89 554.853 522.796C555.397 523.261 556.775 523.863 555.617 524.65C506.375 510.67 454.233 513.919 403.654 516.171L332.617 522.04L338.895 523.335C380.766 527.488 436.578 520.573 475.991 536.719C496.732 545.216 492.531 563.216 475.8 573.031C474.294 573.914 466.211 577.927 465.054 578.117C461.212 578.748 456.071 574.153 455.627 570.453C455.446 568.937 456.444 567.706 455.877 566.408C453.592 561.171 434.721 556.026 429.086 554.319C401.128 545.848 370.489 539.365 341.872 532.788C307.674 524.927 271.234 521.365 240.929 502.572C240.151 502.308 239.524 502.451 238.801 502.784C238.374 502.98 232.223 508.053 231.559 508.706C231.013 509.244 230.613 509.283 230.857 510.287C255.54 520.005 280.155 527.796 306.159 533.471C343.662 541.655 376.483 548.032 412.559 562.152C426.762 567.711 443.414 578.081 456.984 582.219C482.37 589.959 500.035 562.346 519.825 553.873C527.033 550.787 535.042 549.414 542.435 546.841C569.191 537.53 592.584 521.542 622.846 526.776C632.195 528.392 654.457 537.439 641.511 548.758C640.927 549.268 636.419 552.485 636.096 552.565C635.251 552.773 634.214 552.081 633.236 552.319C625.46 554.211 618.088 557.868 610.276 559.669C592.666 563.728 573.008 562.281 554.937 562.443C547.315 562.511 543.63 560.73 537.088 560.491C533.756 560.369 529.966 561.54 526.221 560.519C526.451 561.773 527.603 561.594 528.502 561.849C537.546 564.412 548.329 563.158 557.27 565.418C558.021 565.608 559.418 565.376 559.256 566.375C545.973 569.132 531.918 567.459 518.653 565.108L512.35 567.695C512.29 568.651 514.722 568.844 515.396 568.914C556.416 573.15 584.821 576.738 625.48 564.893C637.523 561.384 662.408 554.173 656.705 537.705C651.991 524.093 632.477 506.551 619.834 499.747C564.054 469.732 465.975 470.123 405.962 487.143C395.014 490.248 384.572 494.939 373.582 497.896C377.025 493.768 383.362 491.311 388.328 489.304C416.566 477.891 447.398 473.409 477.572 470.43C478.473 470.341 481.608 470.079 481.946 469.213ZM711.898 512.245L683.515 496.895C662.166 487.397 638.569 483.959 615.429 481.604L636.734 488.936C660.911 499.37 685.782 507.819 711.898 512.245ZM293.623 514.215C277.74 509.744 262.58 502.632 246.053 500.518C251.472 504.569 259.346 506.716 265.878 508.661C274.229 511.148 282.992 513.259 291.621 514.563C292.316 514.668 293.777 515.439 293.623 514.215ZM684.81 517.472L650.447 511.605C652.458 512.787 655.064 517.813 656.718 518.126C661.989 519.123 672.5 517.923 678.557 518.094C680.216 518.14 685.221 520.17 684.81 517.472ZM240.766 525.295C235.24 521.05 227.228 519.76 220.644 517.476L209.049 525.295H240.766ZM421.158 535.071C420.902 533.756 419.757 534.009 418.841 533.777C411.518 531.915 397.618 531.403 389.798 531.137C382.653 530.894 375.44 531.367 368.296 531.171C368.503 532.372 369.657 532.263 370.521 532.556C374.758 533.99 388.388 537.276 392.575 537.532C396.894 537.796 404.636 535.442 409.601 535.084C413.403 534.809 417.346 535.275 421.158 535.071ZM592.959 553.345C586.945 552.774 579.87 553.555 574.007 555.208C572.896 555.521 572.16 554.719 572.479 556.596C578.149 556.23 585.351 556.351 590.747 554.742C591.632 554.478 592.757 554.494 592.959 553.345Z" fill="black"/>
<path d="M185.077 272.366C187.433 271.856 189.073 272.38 188.458 275.035C178.928 290.454 172.032 301.734 176.334 320.513C177.035 323.57 184.832 340.612 175.394 333.831C161.24 323.661 164.291 297.507 172.832 284.434C174.775 281.461 181.755 273.085 185.077 272.366Z" fill="black"/>
<path d="M156.02 349.691C154.294 351.398 151.301 349.106 149.758 348.049C133.317 336.786 127.103 310.657 138.216 293.965C139.047 292.717 142.578 287.993 143.53 290.936C144.194 292.988 141.732 304.281 141.622 307.763C141.279 318.661 143.749 327.486 149.236 336.824C150.672 339.267 156.128 345.715 156.577 347.226C156.813 348.023 156.602 349.116 156.02 349.691Z" fill="black"/>
<path d="M584.535 162.511C582.74 160.668 584.739 154.67 585.364 152.245C587.684 143.238 594.353 122.165 598.581 114.42C601.737 108.637 609.029 110.203 608.104 117.943C607.25 125.095 594.896 152.048 590.593 158.71C589.518 160.374 586.839 164.876 584.535 162.511Z" fill="black"/>
<path d="M650.678 142.033C651.977 140.812 657.234 136.037 658.404 135.641C666.143 133.022 666.386 139.295 662.613 144.356C658.198 150.28 634.315 173.001 628.202 176.91C621.825 180.988 623.251 174.449 625.725 170.558C630.902 162.418 643.48 148.796 650.678 142.033Z" fill="black"/>
<path d="M768.12 269.692C769.478 267.445 778.175 274.247 779.645 275.489C791.993 285.918 800.764 305.155 794.618 320.954C794.035 322.452 791.602 327.312 789.538 325.091C787.76 323.175 788.751 314.948 788.464 311.787C787.569 301.937 783.682 292.854 778.123 284.818C775.986 281.73 769.516 275.294 768.412 272.884C767.945 271.865 767.893 270.77 768.12 269.692Z" fill="black"/>
<path d="M756.859 323.097C755.782 322.368 756.291 313.747 756.086 311.786C755.154 302.877 750.813 293.504 745.487 286.377C743.399 283.583 736.964 277.718 736.005 275.47C734.774 272.584 738.024 272.27 740.295 273.216C755.136 279.398 771.144 305.672 761.228 320.607C760.482 321.732 758.188 323.997 756.859 323.097Z" fill="black"/>
<path d="M531.977 121.058C535.805 119.924 540.661 124.31 542.63 127.24C547.411 134.355 549.271 154.039 547.983 162.306C547.604 164.734 546.013 166.378 543.68 164.68C541.618 163.178 537.76 143.08 536.307 138.698C534.996 134.744 530.889 127.855 530.311 125.015C529.986 123.415 530.142 121.601 531.977 121.058Z" fill="black"/>
<path d="M691.917 188.92C695.853 192.817 687.962 197.106 685.251 198.66C678.276 202.659 664.83 208.801 657.23 211.438C655.3 212.108 651.946 213.951 650.759 211.587C649.837 209.749 651.448 207.657 652.764 206.379C656.751 202.508 679.513 189.498 684.767 188.403C686.502 188.042 690.661 187.677 691.917 188.92Z" fill="black"/>
<path d="M487.235 608.129C486.497 609.642 483.158 609.934 481.607 610.067C461.651 611.79 434.177 610.991 414.225 608.769C411.969 608.517 408.317 608.11 406.265 607.488C405.319 607.202 405.106 607.869 405.297 606.17C432.479 603.806 460.246 604.196 487.235 608.129Z" fill="black"/>
<path d="M699.827 233.934C701.651 235.933 700.467 238.452 698.174 239.459C695.12 240.799 681.426 240.735 678.64 239.039C676.533 237.756 677.873 235.128 679.575 234.144C682.837 232.26 697.434 231.312 699.827 233.934Z" fill="black"/>
<path d="M762.597 543.726C766.715 547.895 754.351 549.46 751.873 549.481C749.431 549.502 740.406 548.297 740.33 545.206C740.217 540.599 751.164 540.762 754.335 541.128C756.07 541.329 761.505 542.62 762.597 543.726Z" fill="black"/>
<path d="M704.496 554.184C707.847 553.826 717.06 554.093 719.218 556.88C722.988 561.75 707.983 561.996 705.632 561.806C696.027 561.029 693.5 555.359 704.496 554.184Z" fill="black"/>
<path d="M284.206 575.669C286.874 575.227 291.743 575.293 294.447 575.683C297.351 576.102 303.403 578.602 299.173 581.316C295.866 583.438 278.139 583.959 279.188 578.535C280.073 576.949 282.465 575.957 284.206 575.669Z" fill="black"/>
<path d="M873.787 524.635C868.908 526.022 861.308 527.029 856.607 524.94C855.763 524.565 855.047 525.037 855.268 523.653C855.874 519.86 868.867 521.339 871.63 522.535C872.222 522.791 874.076 524.269 873.787 524.635Z" fill="black"/>
<path d="M57.4016 515.513C55.3714 514.921 56.5944 512.904 58.7231 512.904H73.2602C75.7428 512.904 72.6857 515.513 70.6171 515.513C67.7883 515.513 59.3436 516.08 57.4016 515.513Z" fill="black"/>
<path d="M563.885 525.953L549.143 534.548C538.137 540.615 521.195 541.641 512.018 550.082C508.818 553.026 505.424 558.248 501.802 560.868C498.891 562.974 498.561 561.906 500.028 559.117C508.745 542.554 524.823 540.085 540.923 534.262C548.585 531.491 555.903 527.818 563.885 525.953Z" fill="black"/>
<path d="M627.98 518.765C622.609 518.851 617.102 517.101 611.785 516.822C600.734 516.24 589.239 518.839 578.426 520.725C578.086 519.037 578.794 519.587 579.713 519.094C588.941 514.142 608.1 512.233 618.203 514.4C621.204 515.044 625.929 516.471 627.98 518.765Z" fill="black"/>
<path d="M339.88 535.739C340.152 537.443 339.571 537.067 338.217 537.056C336.947 537.047 324.206 534.782 326.011 532.473C327.025 531.175 337.825 535.052 339.88 535.739Z" fill="black"/>
<path d="M417.507 556.177C418.32 556.068 421.14 557.611 421.144 558.23C418.365 561.48 413.907 556.66 417.507 556.177Z" fill="black"/>
<path d="M401.995 413.775C396.925 419.552 387.587 423.764 380.363 426.658C370.255 430.707 359.428 433.464 348.473 433.98L401.995 413.775Z" fill="black"/>
<path d="M531.311 450.088C528.3 452.552 526.139 449.467 528.55 446.395C531.572 442.544 534.868 447.175 531.311 450.088Z" fill="black"/>
<path d="M861.234 421.583C861.586 421.779 867.476 422.683 869.137 423.252C874.236 424.997 883.29 429.135 884.71 434.62C887.154 444.054 879.154 456.17 872.476 462.365C868.842 465.735 861.663 469.584 858.878 473.084C857.994 474.195 857.967 476.715 856.62 475.71C856.555 475.662 856.783 474.472 856.227 474.373C855.077 474.166 845.922 478.849 843.739 479.655C828.13 485.416 811.375 488.911 795.652 494.803C784.95 498.814 775.907 504.196 765.657 508.893C763.16 510.037 760.593 509.591 762.124 512.245C757.466 514.176 749.085 510.319 748.28 505.364C746.093 491.892 763.338 487.492 772.474 482.361C784.319 475.708 795.255 468.504 804.747 458.779C818.653 444.531 836.615 418.851 859.586 419.582C862.771 419.683 861.085 421.501 861.234 421.583ZM834.142 461.385L823.57 468.546C827.404 467.09 831.744 464.728 834.142 461.385ZM822.909 477.677C828.944 476.675 834.535 475.057 839.643 471.699C841.3 470.61 850.7 463.113 849.333 461.379L822.909 477.677Z" fill="black"/>
<path d="M846.033 415.729C846.302 417.115 845.376 417.247 844.424 417.721C840.823 419.516 835.526 420.548 831.469 422.544C813.671 431.3 805.334 447.632 791.201 460.409C784 466.919 775.115 473.371 766.083 477.025C777.086 468.416 787.971 459.917 797.479 449.648C801.881 444.893 805.589 439.339 810.015 434.629C819.174 424.882 832.05 415.791 846.033 415.729Z" fill="black"/>
<path d="M736.347 495.938C722.748 494.874 707.775 489.159 698.023 479.646C702.624 480.35 706.968 483.358 711.26 485.162C718.36 488.147 727.019 490.483 733.712 493.655C734.758 494.15 735.952 494.775 736.347 495.938Z" fill="black"/>
<path d="M796.485 500.512C797.059 498.328 798.863 496.248 800.945 495.465C802.804 494.765 817.54 491.89 819.288 491.989C820.004 492.029 822.251 492.101 822.235 493.012C822.179 496.1 799.79 498.489 796.485 500.512Z" fill="black"/>
<path d="M695.376 478.986C694.85 479.441 683.556 475.506 681.992 474.919C679.669 474.048 676.366 473.139 674.896 471.169C678.86 471.088 683.897 472.489 687.632 473.918C688.344 474.191 696.788 477.763 695.376 478.986Z" fill="black"/>
<path d="M729.079 469.863C727.674 471.396 718.735 479.711 717.188 478.332C718.817 473.576 724.416 470.997 729.079 469.863Z" fill="black"/>
<path d="M738 501.178C738.97 502.127 743.718 508.372 740.632 508.989C738.635 509.388 734.419 502.826 738 501.178Z" fill="black"/>
<path d="M833.483 486.807C832.478 485.603 843.241 482.849 844.047 482.25C844.306 485.411 834.612 488.161 833.483 486.807Z" fill="black"/>
<path d="M550.587 411.072C545.907 413.696 548.757 398.742 551.652 399.423C554.654 400.129 552.634 409.924 550.587 411.072Z" fill="black"/>
<path d="M528.202 377.891C526.011 378.859 524.023 378.09 522.917 375.949C525.045 375.812 527.292 375.604 528.202 377.891Z" fill="black"/>
<path d="M562.412 209.783C563.169 210.548 564.575 218.76 564.495 220.29C563.375 241.806 526.906 267.343 509.649 277.735C498.568 284.408 475.137 290.665 461.971 294.592C404.882 311.618 349.129 321.27 289.443 311.918C278.578 310.216 246.889 305.061 240.097 297.361C234.944 291.52 241.863 284.187 248.38 283.99C249.031 283.97 250.572 283.632 250.011 284.952C249.364 286.474 243.304 288.645 244.41 291.819C250.963 292.161 260.833 283.142 266.181 283.293C268.374 283.356 276.541 286.568 279.08 287.581C286.3 290.464 293.391 295.504 301.558 295.716C301.404 294.736 300.31 294.502 299.589 294.078C292.646 289.995 279.888 283.31 272.406 281.066C271.552 280.81 271.238 281.176 270.507 281.374C270.297 279.781 271.955 279.054 273.109 278.404C288.079 269.973 321.425 264.731 338.895 263.117C360.867 261.087 383.049 262.73 404.962 261.15C432.887 259.135 462.622 249.023 489.067 239.811C501.005 235.652 509.483 231.722 517.629 221.695C514.699 221.385 518.209 217.712 519.599 216.467C525.817 210.897 545.477 206.853 553.59 207.729C554.65 207.843 562.095 209.463 562.412 209.783ZM493.843 253.336C492.462 253.29 486.3 258.209 487.242 259.199C489.792 257.721 492.146 255.753 493.843 253.336ZM466.09 254.641L433.716 265.063C445.013 263.813 457.254 262.263 466.09 254.641ZM495.825 257.249C487.454 260.171 479.876 264.897 471.824 268.445C466.438 270.819 447.996 279.011 443.253 278.696C435.081 278.152 430.643 280.689 422.502 282.375C405.309 285.936 388.065 286.305 371.336 289.269C370.628 289.394 368.869 289.493 368.96 290.498C387.488 290.137 406.343 288.789 424.469 284.968C432.729 283.227 442.367 280.913 450.514 278.718C466.737 274.346 483.142 268.492 495.825 257.249ZM331.289 271.598C322.194 272.861 313.054 274.46 304.076 276.36C301.04 277.003 296.481 277.426 294.289 279.411C305.085 279.606 315.983 277.427 326.171 274.037L331.289 271.598ZM421.816 275.511C416.695 275.995 411.561 276.796 406.494 277.663C405.675 277.803 403.293 277.786 403.32 278.759L413.35 277.907L421.816 275.511ZM265.21 291.817C263.715 291.705 262.323 290.627 260.845 290.524C258.639 290.37 254.276 292.044 257.604 292.463C259.105 292.651 261.318 292.52 262.909 292.461C263.707 292.432 265.368 292.951 265.21 291.817Z" fill="black"/>
<path d="M526.217 304.852C523.989 304.813 522.841 302.736 520.942 301.913C513.714 298.781 508.257 304.108 501.116 302.576C502.895 298.797 507.216 299.553 510.525 298.819C513.749 298.105 515.53 296.63 519.292 297.008C523.27 297.408 526.929 300.706 526.217 304.852Z" fill="black"/>
<path d="M441.639 308.118C441.896 309.516 439.538 310.601 438.542 311.253C431.309 315.992 423.674 316.02 415.214 316.587L431.251 311.881C434.856 310.487 437.37 307.324 441.639 308.118Z" fill="black"/>
<path d="M535.299 324.905C531.101 329.268 526.15 321.89 530.65 319.175C534.707 316.727 537.894 322.208 535.299 324.905Z" fill="black"/>
<path d="M529.528 347.896C529.528 345.907 532.037 345.153 532.571 343.347C532.864 342.356 531.318 336.744 534.472 337.466C538.111 338.299 535.433 350.144 529.528 347.896Z" fill="black"/>
<path d="M327.658 326.376C325.097 325.963 326.157 323.768 326.997 323.768H338.231C339.369 323.768 339.37 326.376 338.231 326.376C335.175 326.376 330.408 326.82 327.658 326.376Z" fill="black"/>
<path d="M360.367 323.115C363.314 325.642 349.768 325.11 348.855 325.005C347.661 324.866 346.017 324.669 346.49 323.115H360.367Z" fill="black"/>
<path d="M759.472 393.559C761.651 396.4 750.14 395.459 749.56 394.853C749.43 394.717 749.643 393.431 749.56 392.903C751.288 392.994 758.696 392.547 759.472 393.559Z" fill="black"/>
<path d="M150.898 494.645C147.35 503.355 151.708 514.081 155.842 522.047C157.415 525.078 162.591 531.532 163.322 533.594C164.544 537.043 157.215 537.684 154.904 538.702C133.849 547.979 112.943 562.532 91.1153 544.846C89.6371 543.648 85.9641 538.935 85.4809 538.661C83.6271 537.61 81.5569 539.742 81.4844 535.378C81.4309 532.158 82.8213 533.145 83.7647 531.75C91.1715 520.794 94.1388 517.968 106.186 511.487C107.865 510.583 116.457 506.321 117.557 506.44C118.396 506.53 118.149 508.951 119.435 508.271L150.898 494.645ZM152.216 535.077L143.513 519.216L138.68 504.427C136.56 506.982 138.172 511.63 138.987 514.553C141.194 522.474 145.445 530.168 152.216 535.077Z" fill="black"/>
<path d="M207.724 466.6C208.169 467.038 204.118 472.924 203.71 474.096C202.239 478.32 207.131 492.863 209.341 497.287C210.081 498.767 212.361 500.5 212.216 502.039C212.074 503.552 208.36 506.824 207.394 508.333L206.397 503.776L205.745 507.687C204.62 507.734 203.494 507.759 202.407 507.391C196.879 505.518 190.831 484.828 191.865 478.991C189.132 479.398 188.44 481.331 188.62 483.78C189.331 493.48 194.563 504.914 198.246 513.882C195.449 521.569 191.154 513.407 188.948 509.589C183.993 501.014 181.147 490.675 181.945 480.751L207.724 466.6Z" fill="black"/>
<path d="M171.385 486.169C168.275 491.139 166.324 490.322 166.773 496.916C167.139 502.276 168.958 513.327 171.126 518.048C171.993 519.935 177.831 527.409 176.667 528.552C174.73 530.454 171.437 524.641 170.07 523.99C172.317 538.783 162.192 526.122 159.149 520.74C156.469 516.002 150.279 501.761 153.027 497.061C155.268 493.23 155.077 499.698 156.841 500.507C157.921 498.723 155.686 495.304 155.69 494.953C155.709 493.371 168.675 485.519 171.385 486.169Z" fill="black"/>
<path d="M187.062 521.202L177.332 525.939C177.493 524.911 180.615 522.824 180.615 522.358C180.615 521.96 176.864 517.294 176.089 515.758C172.427 508.498 169.087 498.075 171.01 490.032C171.687 487.2 174.356 482.291 177.672 482.239C180.253 482.198 178.494 485.371 178.624 487.108C179 492.157 182.564 502.474 184.297 507.657C185.553 511.416 190.319 518.052 187.062 521.202Z" fill="black"/>
<path d="M218.297 459.426C214.726 467.286 216.35 476.371 218.349 484.483C220.424 492.907 225.015 495.681 217.329 503.139C210.226 510.031 213.752 501.263 212.864 497.07C212.459 495.159 210.203 491.76 209.407 489.396C205.564 477.992 205.079 464.461 218.297 459.426Z" fill="black"/>
<path d="M150.235 445.736L140.838 447.209L131.74 449.649L135.042 452.896C132.674 452.267 126.07 451.578 125.134 449.312C131.809 443.934 142.214 443.344 150.235 445.736Z" fill="black"/>
<path d="M97.198 451.098C101.546 450.214 105.845 450.958 100.479 454.333C92.5037 459.348 90.8057 452.397 97.198 451.098Z" fill="black"/>
<path d="M382.83 388.334C382.271 388.882 378.449 387.458 378.203 386.56C377.472 379.762 376.734 372.72 375.369 366.025C374.029 359.449 371.137 352.899 369.771 346.768C369.518 345.63 369.59 344.478 369.624 343.332C371.666 344.487 372.732 347.331 373.697 349.414C379.122 361.122 381.724 375.565 382.83 388.334Z" fill="black"/>
<path d="M250.669 331.589C249.39 331.813 250.361 330.076 249.981 329.684C249.645 329.337 246.351 329.827 245.389 329.637C244.998 325.427 247.047 322.785 251.33 324.749C255.747 326.775 251.295 328.533 250.669 331.589Z" fill="black"/>
<path d="M620.386 248.128C622.243 248.207 621.036 252.432 619.07 252.022C616.917 251.573 618.667 248.055 620.386 248.128Z" fill="black"/>
<path d="M577.098 310.727C573.215 311.81 573.925 304.658 576.119 304.205C578.959 303.62 576.816 309.424 577.098 310.727Z" fill="black"/>
</svg>
