<svg width="1280" height="720" viewBox="0 0 1280 720" fill="none" xmlns="http://www.w3.org/2000/svg">
<path d="M297.206 602.542C298.088 602.427 300.291 601.514 301.043 600.829C298.204 599.661 295.164 601.094 292.347 601.203C274.429 601.89 255.846 600.968 237.827 601.146C231.772 601.206 225.378 602.358 218.978 601.883C217.038 601.739 208.504 600.685 212.355 598.082L258.774 594.99L302.648 594.877C305.188 593.409 306.05 590.547 308.014 588.506C309.69 586.764 312.442 585.233 313.634 583.751C315.399 581.555 315.708 578.461 318.138 575.85C328.689 564.517 353.292 564.658 367.364 559.775C378.835 555.795 393.747 545.564 393.967 532.424C394.093 524.846 390.106 525.797 385.168 521.842C380.227 517.885 374.043 511.143 375.105 504.426C375.574 501.463 380.617 497.327 378.566 495.476C377.268 494.306 370.224 493.151 367.885 492.259C354.474 487.142 322.328 468.176 312.527 458.221C311.978 457.663 311.547 456.32 311.43 456.253C309.558 455.18 306.126 460.102 304.493 461.245C285.53 474.528 251.429 458.417 263.192 435.15C263.895 433.759 265.912 432.927 265.137 431.517C263.605 428.731 241.962 417.474 237.561 414.72C209.112 396.919 171.169 364.726 174.671 327.907C175.439 319.833 183.648 304.893 190.49 300.31C208.655 288.143 232.642 291.606 252.42 297.409C252.836 297.273 256.438 290.589 256.672 289.902C258.061 285.832 257.01 281.354 260.996 277.721C267.82 271.502 276.377 275.406 284.026 275.513C289.59 275.591 285.054 270.567 287.781 266.687C280.008 266.554 271.61 260.731 268.409 253.847C262.139 240.36 278.493 227.855 291.616 229.066C294.101 229.296 298.286 231.336 300.357 230.092C301.135 229.625 302.07 226.791 302.834 225.679C303.615 224.543 305.435 223.592 305.791 222.419C306.655 219.573 305.692 213.644 306.247 209.87C307.729 199.808 319.105 187.131 330.037 187.281C333.499 187.328 336.686 188.548 340.454 187.972C341.59 187.798 354.847 183.317 355.503 182.875C356.781 182.015 354.095 179.391 353.602 177.916C350.595 168.932 360.061 158.948 369.158 158.579C380.005 158.139 393.481 173.557 380.601 181.473L374.366 184.586C376.207 185.517 380.058 186.337 381.545 187.3C383.549 188.599 385.028 193.547 387.25 195.568C389.358 197.486 391.1 197.225 392.783 198.356C394.257 199.346 394.556 201.908 396.698 201.698C396.231 199.323 398.5 199.15 399.419 197.856C401.489 194.944 402.233 190.512 405.425 186.639C416.276 173.473 435.532 169.213 451.866 173.992C453.759 174.545 458.021 177.166 458.834 176.776C460.536 175.96 468.102 162.675 467.795 160.466C467.504 158.376 461.292 149.072 459.539 147.322C458.065 145.852 453.599 143.621 452.92 142.179C449.922 135.809 459.975 137.845 463.565 140.642C466.45 142.891 473.013 154.431 475.809 153.737C480.241 152.637 477.325 142.31 477.707 138.429C478.062 134.83 480.861 127.486 483.628 125.076C486.857 122.262 494.926 120.82 494.526 126.793C494.298 130.209 487.778 131.386 486.408 136.693C485.835 138.913 485.668 146.004 487.119 147.662C488.198 148.894 499.893 147.283 503.125 147.717C514.602 149.256 522.808 164.279 529.385 171.925C536.981 180.756 547.606 180.867 557.312 186.293C574.888 196.118 579.708 216.979 579.668 235.587C579.663 238.071 577.033 245.797 577.842 246.885C579.089 248.561 582.962 246.848 584.72 246.99C591.705 247.555 601.644 259.483 605.831 264.624C607.782 258.762 615.406 256.757 621.177 257.115C635.515 258.003 642.094 275.925 630.948 285.133L620.145 290.614C626.524 289.77 633.129 290.552 639.454 291.88C640.583 292.117 645.908 294.947 643.876 291.994C647.785 291.686 651.247 293.68 654.295 295.81C709.221 334.19 659.293 386.466 620.082 411.296C612.914 415.835 603.445 420.081 596.87 424.81C595.828 425.56 590.408 430.516 590.133 431.212C589.667 432.393 595.592 434.587 596.006 436.367C600.873 443.544 598.4 453.261 592.363 458.897C580.808 469.684 557.187 466.404 545.184 457.603C532.974 468.764 520.705 477.565 505.404 484.324C502.905 485.429 489.454 489.744 488.983 490.471C488.791 490.768 487.78 495.544 487.103 497.177C482.882 507.357 478.422 520.654 467.913 525.729C467.076 534.099 468.721 540.477 473.921 547.076C481.929 557.239 487.284 559.846 499.509 563.734C509.534 566.923 516.907 567.304 526.736 569.211C530.126 569.869 532.959 571.58 536.349 571.762C537.708 566.474 533.601 561.063 533.499 556.367C533.453 554.279 534.284 552.402 534.291 550.246C534.309 544.273 532.171 520.081 534.328 516.764C536.117 514.012 547.288 512.258 550.777 511.674C562.888 509.646 575.726 508.946 588.019 508.826C587.546 506.398 584.962 505.291 583.802 503.046C580.224 496.117 585.663 486.096 591.148 481.452C605.108 469.635 625.335 473.529 636.915 486.582C642.664 493.061 643.143 501.664 654.354 500.623C654.662 489.577 653.714 478.47 652.173 467.53C651.753 464.546 651.492 460.859 650.666 458.062C648.467 450.624 648.589 450.836 648.1 442.791C647.829 438.342 646.183 423.977 647.733 420.599C648.714 418.462 652.62 417.631 654.781 417.243C662.238 415.907 671.148 416.535 678.793 415.793C665.409 402.463 682.319 388.614 696.944 392.539L693.479 386.681C692.518 381.046 699.133 377.133 703.461 374.64C710.03 370.857 718.74 367.734 726.476 369.429C731.147 370.453 737.406 380.449 739.66 384.559C741.735 388.345 744.23 396.929 746.183 399.374C747.614 401.166 750.608 401.48 752.154 399.768C753.151 398.666 757.234 387.03 758.971 383.875C761.373 379.512 767.707 368.735 772.749 367.964C778.009 367.159 794.89 371.634 800.139 373.877C813.29 379.497 801.39 387.756 795.4 393.22C802.491 392.585 812.005 395.231 813.924 402.782C814.732 405.962 812.898 410.049 817.391 410.388C819.367 410.537 821.466 409.641 823.645 409.611C829.548 409.53 837.386 409.75 843.218 410.338C848.695 410.891 855.164 411.922 856.082 418.256C857.759 429.813 854.855 445.358 854.059 457.192C853.628 463.597 853.895 470.691 853.346 477.015C852.483 486.972 850.169 496.818 849.859 506.78C861.587 507.431 875.515 507.098 886.895 509.829C896.46 512.125 895.49 516.423 895.277 524.932C894.825 542.958 889.942 563.113 890.331 580.339C890.372 582.141 891.064 583.799 891.091 585.751C891.201 593.615 891.385 601.616 890.356 609.38L901.096 610.152L912 612.794L820.54 621.703L873.599 629.897C869.776 629.818 865.916 630.036 862.088 629.897C840.902 629.126 819.672 625.946 798.534 625.123C784.194 624.565 770.328 627.675 756.302 629.912C756.461 630.965 759.287 631.001 760.252 631.161C767.559 632.374 775.036 632.984 782.365 634.122C800.72 636.973 818.999 640.488 837.292 643.593L836.09 644.823C815.173 642.513 794.349 638.832 773.401 636.748C752.608 634.68 731.07 633.024 710.567 638.116C709.597 638.357 708.39 638.098 708.119 639.474C729.27 641.758 750.114 646.095 771.135 649.228L772.357 650.418C758.435 650.592 744.083 649.718 730.12 648.367C689.495 644.437 649.078 638.932 608.694 633.252C596.181 631.493 583.154 627.836 570.206 629.22C565.823 629.689 566.282 633.138 563.584 636.054C577.571 637.517 591.835 638.107 605.738 640.252C608.386 640.661 621.557 642.907 622.596 644.265C624.524 646.784 615.05 644.296 614.231 644.244C593.83 642.956 573.222 643.426 552.804 642.943L540.546 647.682C553.969 648.03 567.421 648.936 580.502 651.978L587.321 655.206C573.73 655.583 560.037 654.736 546.448 655.185C504.182 656.582 463.332 666.456 420.765 664.818C403.757 664.164 386.582 661.426 369.829 659.311C349.361 656.727 329.09 653.641 308.73 650.418L312.214 649.734L309.425 647.689H321.295L311.084 643.611C303.936 644.921 297.012 643.991 289.878 643.578L304.549 641.886L305.234 640.857C288.758 636.147 271.321 635.656 254.267 634.696L255.616 643.286L268.225 644.946C261.443 644.374 255.255 647.517 248.836 648.87C216.523 655.679 179.383 658.519 147.136 649.69C135.697 646.558 136.795 642.939 138.354 631.961C122.924 631.529 107.296 632.803 91.9277 631.268C86.7772 630.753 79.698 629.735 74.8134 628.197C67.2681 625.821 66.2355 624.216 57.0043 623.755C42.0144 623.005 24.6039 623.347 9.50234 623.72C7.39049 623.772 1.28954 625.741 0.111875 623.395C-0.460304 622.256 1.31248 622.05 2.03538 621.891C20.2593 617.88 39.2257 617.539 57.7332 616.249C64.9039 615.75 61.9295 614.989 64.7255 610.782C70.2623 602.452 91.1276 601.887 99.7555 598.587C100.82 598.18 109.647 592.018 109.917 591.441C110.487 590.223 111.036 585.413 111.154 583.76C111.617 577.276 111.055 545.079 108.364 540.777C107.683 539.687 105.922 539.498 105.171 536.892C103.245 530.207 104.257 527.763 98.9131 521.819C91.4146 513.476 86.4883 509.547 82.4719 498.251C75.032 477.327 73.4791 428.192 78.3934 406.649C79.7215 400.828 82.6354 399.918 88.2346 398.505C98.9737 395.795 142.314 395.033 151.416 399.928C157.467 403.183 154.966 414.31 156.649 420.111C156.881 420.909 157.597 421.599 158.406 421.832C165.571 421.183 172.7 419.594 179.909 419.227C190.317 418.697 216.096 419.232 225.096 423.512C227.451 424.632 228.991 425.986 229.754 428.525C231.215 433.393 232.084 443.573 232.613 448.981C235.242 475.862 239.38 516.236 222.438 538.871C218.833 543.687 211.489 548.672 210.438 554.478C210.016 556.811 210.467 558.863 209.797 561.373C209.17 563.72 207.099 565.101 206.798 566.644C206.325 569.064 206.664 574.807 206.791 577.568C207.365 590.013 209.364 603.121 210.603 615.56C213.367 622.609 217.732 620.363 223.163 620.299C243.822 620.059 264.003 619.085 284.609 618.247C288.067 618.106 296.702 618.987 299.203 618.18C300.815 617.66 300.327 615.5 300.351 614.171L212.369 612.112C212.187 610.28 212.363 611.013 213.416 610.764C226.081 607.763 245.598 607.011 258.774 606.618C272.486 606.21 286.275 606.986 299.994 606.643L301.741 604.598C297.972 603.899 294.098 604.167 290.311 603.825C289.386 603.742 286.016 603.456 285.685 602.542C289.319 602.205 293.68 603.005 297.206 602.542ZM553.268 256.257C556.869 258.209 566.585 245.591 567.905 242.525C570.675 236.095 568.726 219.477 566.87 212.499C560.571 188.814 535.268 193.408 524.182 179.759C520.597 175.345 518.08 169.13 513.988 164.436C508.081 157.66 498.977 152.303 490.276 158.279C489.31 158.942 489.031 160.525 488.386 160.671C485.37 161.352 483.38 160.126 479.829 162.397C475.757 165.001 469.611 177.577 467.326 182.297C462.951 191.331 459.504 200.609 456.675 210.236C456.625 215.411 463.025 219.332 466.188 222.893C468.723 225.747 472.772 232.058 475.937 233.9C476.751 234.374 478.922 233.717 479.103 234.889C479.236 235.747 477.87 236.499 477.861 236.932C477.847 237.618 480.206 238.915 480.488 239.67C480.872 240.696 477.301 240.935 480.158 244.123C480.784 244.821 484.677 243.398 485.332 243.032C485.923 242.701 489.474 239.248 489.547 238.93C489.902 237.392 484.778 236.082 485.384 233.849C487.943 234.805 490.134 232.453 491.999 232.417C494.274 232.374 498.107 235.095 501.117 235.249C510.129 235.713 515.7 231.099 526.03 236.092C538.571 242.153 542.883 254.487 548.575 265.992L546.83 254.37C548.153 254.055 548.902 255.463 550.047 255.561C550.931 255.637 551.938 254.915 552.677 255.01C553.153 255.071 553.11 256.171 553.268 256.257ZM367.201 164.216C357.286 166.079 357.771 181.745 371.054 179.643C373.811 179.206 378.799 176.431 379.66 173.674C381.262 168.541 371.882 163.336 367.201 164.216ZM447.505 202.9C448.386 201.985 448.929 197.507 449.64 195.753C452.202 189.426 462.618 181.074 448.711 179.819C441.882 179.202 428.548 179.687 422.503 182.849C418.462 184.963 407.093 195.485 407.122 200.002C407.162 206.253 414.779 203.283 417.975 203.041C422.456 202.703 426.507 203.908 430.918 203.755L426.733 205.455C427.417 207.117 439.031 207.58 440.902 207.03C441.936 206.727 442.845 205.214 443.943 204.538C444.926 203.933 447.005 203.418 447.505 202.9ZM370.626 200.775C374.566 196.86 369.32 193.175 365.754 191.317C364.797 190.819 358.433 188.217 357.831 188.167C356.911 188.092 348.796 192.959 347.863 193.864C344.317 197.3 347.739 203.39 351.816 204.288C352.669 204.476 361.986 205.112 362.664 205.003C363.711 204.835 369.811 201.585 370.626 200.775ZM328.991 195.54C328.116 194.883 329.602 192.435 325.213 194.25C305.541 202.385 323.068 223.438 336.323 206.5C339.157 202.879 337.932 202.164 338.901 198.764C339.286 197.41 342.252 194.561 340.866 193.811C339.962 193.322 335.451 192.688 334.283 192.816C332.408 193.022 329.228 195.718 328.991 195.54ZM351.136 209.382C350.511 209.494 343.463 212.33 342.676 212.723C337.16 215.478 337.416 223.25 340.546 227.641C344.835 233.659 347.738 227.393 353.231 226.484C359.905 225.379 367.927 229.692 367.064 219.445C366.324 210.668 359.221 207.926 351.136 209.382ZM393.214 211.276C390.909 211.572 385.069 209.218 383.446 210.224C382.97 210.519 378.804 216.116 378.421 216.958C375.404 223.587 379.843 226.117 384.136 220.856C381.727 220.884 380.926 221.473 381.347 218.8C383.801 217.731 384.163 220.529 385.166 220.155C386.345 219.715 394.502 212.509 393.214 211.276ZM417.494 214.201C404.587 215.507 386.075 222.876 390.923 238.484C394.374 249.592 401.379 260.036 411.856 265.859C413.86 266.972 428.555 273.514 429.886 273.57C430.891 273.612 439.606 270.544 440.881 269.941C443.265 268.812 446.618 266.005 449.304 264.512C452.084 262.968 455.241 262.332 457.797 260.52C473.836 249.154 461.621 228.431 448.591 220.295C439.658 214.718 427.768 213.161 417.494 214.201ZM316.924 223.749C307.771 225.275 304.102 236.934 311.176 243.417C314.228 246.215 321 247.045 325.143 246.89C336.763 246.457 338.526 232.064 329.496 226.153C325.635 223.626 321.525 222.982 316.924 223.749ZM380.644 224.958C375.501 222.684 373.03 227.775 376.806 231.097L380.644 224.958ZM409.271 271.46C403.262 267.204 397.967 263.88 392.855 258.481C386.764 252.048 386.975 248.776 383.057 242.77C377.604 234.41 358.513 229.243 350.634 236.24C350.633 237.582 358.787 240.105 360.362 240.378C362.233 240.702 367.387 240.443 367.965 240.798C368.785 241.302 372.905 252.006 373.677 252.643C374.959 253.699 378.41 253.467 380.617 254.736C385.096 257.313 388.475 262.926 392.507 266.346C397.156 270.288 403.105 274.659 409.271 271.46ZM283.408 236.064C272.266 237.83 272.133 254.187 283.999 255.672C299.607 257.625 300.485 233.356 283.408 236.064ZM524.486 304.298C535.918 299.255 541.003 284.941 539.837 273.184C539.002 264.766 528.981 244.782 519.788 242.897C517.696 242.468 509.797 243.119 507.448 243.493C499.277 244.796 489.64 249.991 485.382 257.096C486.176 257.736 499.673 252.606 501.376 251.225C502.769 250.096 502.941 247.617 505.626 248.214C504.77 266.015 480.286 265.001 467.22 267.699C451.254 270.995 440.744 278.203 442.786 295.753C443.886 305.203 451.772 309.863 460.943 307.715C459.471 305.375 453.351 300.354 453.329 297.817C453.299 294.271 457.532 289.376 455.36 285.152C457.521 285.074 460.605 285.634 462.331 284.113C464.089 282.563 461.345 282.03 461.645 280.364C464.14 279.699 468.025 284.206 469.024 284.434C470.307 284.727 471.93 280.145 473.507 281.732C474.912 283.144 468.701 288.719 468.02 289.684C464.651 294.455 466.618 296.061 467.922 300.878C466.037 301.558 465.911 298.168 464.783 298.159C461.428 298.131 464.208 306.725 465.598 307.068C466.936 307.397 470.407 306.912 470.536 305.337C470.478 304.15 468.165 301.872 468.168 301.236C468.172 300.513 470.557 296.435 470.027 294.726C472.631 296.039 472.13 299.226 472.118 301.562C473.338 302.976 475.473 297.849 475.403 296.541C475.261 293.874 471.561 291.589 475.257 289.266C475.851 290.761 479.798 293.76 479.688 294.943C479.612 295.754 478.418 297.095 478.043 298.142C477.654 299.229 477.836 300.474 477.322 301.536C476.586 303.056 473.514 304.366 474.213 307.034C479.981 307.403 483.528 303.058 487.469 299.849C488.028 299.395 488.879 298.045 489.576 299.177C489.174 303.45 485.628 305.199 482.366 307.162L475.609 309.767C490.361 310.146 505.597 311.705 518.909 303.972C524.173 300.914 526.048 297.796 529.024 292.676C531.038 295.046 523.761 303.59 524.486 304.298ZM346.263 244.252C341.174 244.977 335.938 249.67 335.316 254.775C334.858 258.535 337.138 266.116 340.474 268.07C351.253 274.387 367.844 267.037 364.972 253.644C363.56 247.058 352.064 243.425 346.263 244.252ZM475.613 252.999C479.295 251.492 476.257 248.358 476.296 245.478C475.079 245.318 475.64 247.032 475.606 247.861C475.535 249.568 475.648 251.296 475.613 252.999ZM306.446 257.269C288.77 260.203 289.691 286.99 309.749 285.845C332.145 284.566 326.378 253.96 306.446 257.269ZM617.158 263.418C607.352 265.373 605.726 281.314 616.615 283.48C632.309 286.602 633.952 260.069 617.158 263.418ZM601.98 283.096C607.263 270.89 589.58 261.441 579.432 263.927C578.624 264.125 578.876 265.893 577.219 266.032C575.793 266.152 573.693 264.817 571.966 265.319L595.213 282.592C598.093 284.306 598.024 279.497 600.587 279.677L601.98 283.096ZM375.932 279.51C376.737 280.366 386.422 283.922 387.915 283.775C389.684 283.601 394.653 279.505 394.651 277.956C394.65 276.586 390.673 274.734 389.358 273.535C387.101 271.48 382.349 264.747 379.603 264.656C377.434 264.585 372.455 269.927 372.243 271.857C371.992 274.138 373.789 273.733 374.4 274.674C375.199 275.904 374.966 278.483 375.932 279.51ZM554.999 291.506C556.725 293.49 553.09 298.209 558.657 299.89C563.357 301.309 583.165 296.949 582.457 290.304C578.135 285.508 570.339 274.133 563.233 274.15C561.474 274.154 555.163 274.7 553.608 275.034C552.425 275.287 551.352 276.015 550.832 277.105C549.926 279.006 551.046 287.807 552.392 289.619C553.155 290.648 554.461 290.888 554.999 291.506ZM407.684 278.463C395.051 281.011 395.964 301.401 412.249 298.663C425.036 296.513 424.669 275.038 407.684 278.463ZM435.803 278.996L428.128 278.997L429.523 285.835C434.227 286.515 434.863 282.563 435.803 278.996ZM270.843 280.518C255.41 282.937 263.989 303.929 278.894 296.623C288.109 292.106 282.037 278.764 270.843 280.518ZM334.393 285.328C318.691 287.543 319.659 310.878 334.287 312.431C357.701 314.917 359.357 281.806 334.393 285.328ZM367.197 286.682C358.927 287.985 358.676 296.573 359.741 303.234C361.525 314.4 378.329 314.234 382.371 303.599C386.148 293.657 377.621 285.04 367.197 286.682ZM613.16 290.628C612.935 290.412 607.522 288.578 607.207 288.585C603.138 288.683 606.027 292.985 607.257 294.76C608.355 294.939 611.329 292.92 612.276 292.185C612.705 291.852 614.233 291.655 613.16 290.628ZM461.44 297.931C462.447 297.036 463.867 294.159 463.729 292.673C461.336 293.477 461.303 297.265 458.854 297.474C459.299 299.04 460.361 298.89 461.44 297.931ZM366.686 320.026C368.896 320.739 371.74 321.848 373.619 323.156C375.856 324.712 379.504 330.12 380.653 330.629C383.383 331.837 393.484 331.413 397.046 331.67C444.967 335.131 496.043 334.158 543.481 325.992C551.678 324.581 590.959 315.777 595.033 310.827C595.268 310.542 598.269 304.848 598.35 304.501C598.623 303.328 598.928 297.465 597.448 297.475C597.026 297.478 592.733 301.544 590.827 302.603C581.791 307.621 564.449 310.577 553.955 312.311C496.828 321.753 436.618 318.181 378.87 317.954L366.686 320.026ZM571.441 441.621C569.675 439.893 571.235 437.72 572.107 436.115C581.675 418.506 594.474 414.94 610.307 405.139C636.507 388.921 677.111 354.926 663.265 320.541C656.088 302.718 637.239 294.473 618.753 301.231C609.333 304.675 610.383 308.413 605.477 314.903C602.55 318.774 597.898 320.425 595.577 325.042C593.396 329.383 593.306 334.463 592.914 339.184C597.223 339.356 599.025 334.374 601.628 331.653C607.623 325.388 622.045 311.743 630.966 311.775C633.743 311.785 645.313 318.008 647.524 320.032C654.13 326.082 652.772 339.693 650.658 347.537C645.617 366.244 623.847 383.692 607.937 393.925C601.309 398.187 576.605 410.616 573.476 414.888C571.532 417.542 570.191 421.909 568.336 424.901C565.098 430.122 557.338 438.465 557.248 444.192C557.074 455.157 570.364 457.265 578.925 454.428C584.078 452.721 590.56 446.6 586.944 441.135C581.689 433.196 575.184 445.284 571.441 441.621ZM260.541 328.243C261.683 323.315 257.954 322.041 255.781 318.89C249.657 310.013 249.112 306.134 237.504 302.594C217.641 296.536 196.023 298.567 188.432 320.183C178.171 349.406 212.645 383.564 234.493 399.256C248.517 409.329 274.981 421.403 285.681 432.563C287.254 434.204 291.75 439.35 289.946 441.502C285.769 446.486 282.426 437.719 280.082 436.669C275.896 434.795 271.605 439.207 271.698 443.472C272.098 461.882 312.283 457.166 300.924 437.466C299.474 434.951 288.206 418.668 286.682 417.217C283.303 413.999 271.832 409.69 267.061 407.025C242.986 393.581 201.053 363.642 201.147 333.373C201.178 323.372 211.391 313.39 221.685 313.929C234.916 314.622 250.663 328.82 260.212 337.131C266.009 333.277 254.856 329.663 255.627 324.5C256.473 318.832 259.374 327.476 260.541 328.243ZM534.961 304.297C538.441 305.376 539.956 303.536 538.439 300.199C538.19 300.009 534.241 303.373 534.961 304.297ZM275.263 307.672C274.741 307.115 276.304 304.617 273.311 303.085C271.057 301.931 262.975 301.342 261.631 303.65C256.59 312.304 269.686 316.994 275.738 319.176C277.88 319.948 287.909 323.322 289.207 322.466C290.795 321.418 288.609 317.978 288.602 316.272C288.591 313.374 292.653 308.734 287.414 307.738C285.012 307.282 276.33 308.81 275.263 307.672ZM298.498 305.908C297.582 306.897 296.558 308.962 296.318 310.275C292.456 331.411 323.742 327.901 317.435 309.794C314.718 301.995 303.711 300.28 298.498 305.908ZM632.535 323.582C629.426 324.178 621.78 330.113 619.113 332.366C613.299 337.275 605.647 347.657 598.52 349.813C596.647 350.38 594.046 349.622 592.845 351.094C591.917 352.231 589.852 371.035 589.093 374.781C587.723 381.546 583.297 392.063 582.743 397.993C582.678 398.69 582.449 400.011 583.479 400.05C584.875 400.104 604.665 387.717 607.378 385.853C623.967 374.459 644.684 356.719 643.089 334.827C642.702 329.511 639.23 322.298 632.535 323.582ZM341.309 327.789C335.938 322.534 322.737 322.384 319.051 329.807C312.983 342.029 324.253 353.709 336.859 348.621C345.002 345.335 347.681 334.025 341.309 327.789ZM277.302 402.115C275.263 394.935 271.894 388.255 269.824 381.061C267.131 371.705 265.624 362.072 264.087 352.479C260.505 350.085 257.118 350.022 253.059 347.55C245.132 342.723 228.466 324.809 219.688 324.933C214.65 325.004 211.313 330.416 211.016 334.844C209.468 357.924 247.248 386.424 265.665 396.764C267.204 397.628 276.478 402.899 277.302 402.115ZM374.361 382.966H362.491C363.418 384.64 366.8 384.035 367.379 386.379L340.505 380.221L340.153 381.585C344.588 383.7 348.824 386.288 353.438 388.073C355.619 388.917 365.516 391.414 365.981 391.868C368.41 394.249 358.667 392.365 359.005 393.902C364.958 396.676 370.572 400.199 377.149 401.444C377.338 402.563 376.235 402.114 375.496 402.044C367.648 401.3 347.962 393.552 340.158 390.138C335.724 388.199 325.74 380.931 322.875 380.376C319.338 379.691 317.786 381.871 314.653 382.946C311.445 380.637 316.92 379.138 315.394 376.79C314.92 376.058 309.17 373.727 308.727 374.08C314.701 397.66 326.864 420.845 343.28 439.067C346.175 442.281 355.653 449.965 356.897 453.091C357.903 455.618 351.918 451.97 351.374 451.658C330.625 439.744 311.858 413.126 303.317 391.344C296.314 373.482 293.725 354.644 291.274 335.771C292.562 334.598 304.162 338.923 306.628 337.481C305.725 336.313 304.665 335.801 303.335 335.235C294.256 331.377 281.91 329.68 272.423 326.19C272.248 327.957 271.627 329.429 271.699 331.283C271.964 338.162 274.749 351.869 276.13 359.15C283.423 397.581 306.536 439.703 341.773 459.695C378.127 480.321 403.006 487.435 445.964 486.288C510.701 484.561 561.369 438.342 576.796 378.466C580.058 365.802 579.957 360.357 580.351 347.742C580.454 344.441 583.722 328.76 582.829 327.517C582.128 326.542 580.526 326.809 579.465 327.019C575.443 327.817 569.338 331.241 564.814 332.526C552.395 336.055 535.091 337.843 522.033 339.181C477.339 343.762 436.059 342.135 391.497 340.527C388.266 340.411 385.003 340.694 381.77 340.514C380.324 344.67 379.386 349.147 376.761 352.825C376.335 353.421 372.38 357.965 372.077 358.154C370.88 358.9 367.85 358.323 366.684 360.054L371.564 361.754C370.213 361.947 364.883 362.195 364.606 363.518C363.645 368.102 377.42 366.454 379.249 369.962L362.31 370.818L354.115 376.471C359.649 378.718 365.725 379.567 371.406 381.415C372.267 381.695 374.353 381.921 374.361 382.966ZM360.205 328.402C347.169 331.052 354.607 355.845 368.028 347.007C377.632 340.683 373.127 325.775 360.205 328.402ZM311.519 347.389C309.983 343.198 304.772 342.283 301.053 340.556C299.56 342.107 310.249 348.362 311.519 347.389ZM343.158 354.447C338.368 359.746 344.216 368.573 351.675 362.451C358.743 356.649 348.704 348.312 343.158 354.447ZM332.467 365.174C329.003 361.921 323.47 361.687 319.201 359.715C322.491 362.992 328.026 364.204 332.467 365.174ZM310.116 369.285C310.259 368.133 309.961 367.084 309.644 365.992C309.333 364.921 308.456 362.225 307.337 361.764C307.123 364.656 307.113 367.803 310.116 369.285ZM324.785 369.294L315.709 365.872C317.411 368.389 322.313 372.99 324.785 369.294ZM776.353 374.857C772.423 375.903 763.566 391.695 762.047 395.781C760.245 400.628 757.904 406.003 762.233 410.314C770.738 399.59 784.292 393.195 794.331 384.314C795.968 382.866 799.353 380.579 795.802 379.493C792.101 379.35 778.878 374.185 776.353 374.857ZM738.728 405.435C739.757 403.804 735.557 395.165 734.554 392.981C732.785 389.128 727.795 379.057 724.439 376.9C719.674 373.836 711.2 377.956 706.71 380.559C701.628 383.506 699.843 384.006 704.993 388.422C708.928 391.796 721.517 400.691 726.024 403.39C726.789 403.848 733.853 406.875 734.357 406.903C735.128 406.948 738.522 405.763 738.728 405.435ZM690.482 400.915C684.529 401.901 681.924 407.855 686.444 412.067C690.364 415.721 707.554 418.583 713.365 419.212C716.744 419.577 727.282 421.368 728.084 417.878C728.185 416.758 726.661 415.712 725.819 415.215C721.145 412.455 713.533 410.84 708.105 407.948C705.812 406.725 698.654 401.123 697.854 400.889C696.272 400.426 692.233 400.625 690.482 400.915ZM108.188 403.688C104.914 403.786 89.6262 404.091 88.0576 405.17C87.0148 405.887 87.0147 408.612 88.0576 409.329C88.7896 409.832 97.9357 410.903 99.6107 411.005C109.73 411.624 134.735 412.173 143.81 409.856C149.116 408.502 149.236 404.815 143.609 404.156C139.572 403.683 134.523 404.379 130.298 404.199C122.629 403.874 116.045 403.456 108.188 403.688ZM765.377 421.961C775.437 420.225 786.758 418.64 796.28 414.952C808.296 410.299 806.916 403.331 793.833 405.033C787.709 405.83 774.029 411.69 767.489 414.122C762.275 416.061 765.703 417.365 765.377 421.961ZM751.065 407.921C749.371 407.877 740.186 410.578 738.154 411.363C735.418 412.421 732.591 414.12 730.475 416.142C733.525 420.779 738.87 416.968 743.464 416.569C750.845 415.929 749.888 418.542 754.654 421.172C755.744 421.773 760.793 423.856 760.189 421.246C757.193 418.202 755.724 408.041 751.065 407.921ZM93.6341 413.78L85.3282 412.4C82.9831 428.543 83.6961 445.081 85.2939 461.285C87.1502 480.111 92.1467 518.911 117.068 520.445C142.818 522.029 147.499 491.97 148.16 472.945C148.26 470.082 148.668 459.942 148.024 457.975C147.762 457.173 147.29 456.865 146.432 456.853C144.89 456.831 138.979 459.002 136.421 459.393C124.746 461.176 112.279 459.719 100.442 461.083C98.2345 461.727 98.5653 464.849 97.8846 466.786C97.4435 468.041 97.0192 470.669 95.771 471.203C92.4905 452.249 94.0286 432.938 93.6341 413.78ZM97.8584 416.826V442.819C97.8584 443.22 99.4464 444.43 100.252 444.472C103.102 444.621 108.197 443.228 111.441 443.129C119.14 442.894 129.082 442.594 136.638 443.135C139.813 443.362 144.053 444.994 146.54 445.099C147.125 445.124 148.132 444.619 148.132 444.187V413.406C148.132 413.155 147.119 412.265 146.558 412.513C139.876 413.605 132.893 414.765 126.13 415.109C121.082 415.366 102.093 414.173 99.2655 415.468C98.9439 415.615 97.9236 416.598 97.8584 416.826ZM845.494 419.4C844.621 418.597 843.014 418.605 841.862 418.508C835.492 417.974 817.734 417.647 811.845 418.572C808.158 419.152 801.847 424.958 796.793 424.013C796.616 425.845 796.785 425.113 797.842 425.363C802.761 426.531 809.47 427.044 814.51 426.656C817.8 426.403 834.645 422.374 835.893 424.014C836.488 424.796 835.347 425.56 834.753 425.966C830.467 428.889 813.504 429.202 811.822 432.915L810.267 457.098L811.461 459.281L845.017 452.438C845.714 451.609 846.161 450.692 846.331 449.621C847.267 443.739 848.275 427.854 846.894 422.465C846.718 421.778 845.929 419.8 845.494 419.4ZM698.345 426.067C697.976 425.712 689.507 423.975 688.228 423.958C685.913 423.928 684.003 424.7 681.964 424.721C677.702 424.762 658.694 423.961 656.446 425.031C654.417 425.998 654.943 431.167 655.025 433.272C655.117 435.652 656.525 449.194 657.22 450.273C657.902 451.33 659.102 451.864 660.342 452.003C669.983 451.876 681.071 455.295 690.402 455.412C695.958 455.482 692.664 448.369 692.716 444.163C692.812 436.438 697.184 432.932 686.814 431.541C679.611 430.576 670.693 431.168 663.824 430.122C662.424 429.909 660.402 429.165 660.643 427.432C663.535 427.508 666.462 427.305 669.36 427.435C676.235 427.746 692.397 431.629 697.46 427.625C697.879 427.293 699.42 427.101 698.345 426.067ZM796.095 428.801C786.056 424.735 777.916 429.185 768.432 430.082C765.439 430.365 760.272 430.493 757.343 430.167C753.056 429.688 748.113 425.967 744.058 426.043C740.67 426.108 737.962 429.86 734.933 430.157C732.825 430.365 728.65 427.76 725.214 427.441C717.06 426.683 700.026 425.833 699.009 436.631C698.128 445.996 700.325 464.539 701.918 474.204C703.052 481.079 704.538 479.468 707.71 484.263C712.4 491.351 713.524 499.907 712.345 508.114C714.38 507.545 719.87 510.38 720.981 510.142C723.913 509.514 721.51 503.237 721.393 501.639C720.438 488.623 718.885 475.482 717.89 462.662C717.465 457.199 717.249 441.56 718.744 436.811C719.316 434.994 727.21 431.14 728.83 430.999C729.897 430.905 732.884 432.673 735 432.902C743.239 433.795 766.167 435.846 773.426 434.972C775.617 434.708 777.568 433.408 779.868 433.077C784.043 432.476 789.484 432.831 793.466 431.349C794.702 430.888 796.354 430.52 796.095 428.801ZM169.636 426.949C167.353 427.144 163.338 427.414 161.458 428.513C157.004 431.119 159.898 433.917 163.624 435.167C173.216 438.383 204.964 437.795 215.02 435.156C226.038 432.264 221.872 427.55 212.708 426.755C201.223 425.76 181.192 425.963 169.636 426.949ZM779.34 438.715V464.025C779.34 464.763 782.043 466.272 783.078 465.707C787.487 463.498 799.766 463.733 803.074 461.283C805.555 459.446 804.237 454.011 804.448 451C804.695 447.467 806.994 435.042 802.599 433.718C800.636 433.127 785.185 435.65 782.668 436.504C781.711 436.829 779.594 437.84 779.34 438.715ZM723.581 435.735C723.115 436.47 724.654 450.834 724.964 452.994C725.881 459.37 725.58 459.362 732.218 460.254C742.948 461.694 756.327 463.007 767.127 463.675C768.417 463.755 771.339 464.042 772.052 463.042L773.474 439.369L772.359 438.044L728.729 434.906C727.695 434.827 723.997 435.08 723.581 435.735ZM157.217 437.006C155.101 454.822 157.376 472.928 159.298 490.707C161.488 510.963 166.259 547.462 195.781 543.537C232.124 538.705 224.786 475.561 223.513 451.056C223.324 447.429 224.276 440.39 223.44 437.447C222.895 435.529 220.248 437.677 218.666 438.044C205.228 441.158 186.783 442.742 173.097 440.935C167.949 440.256 162.184 438.545 157.217 437.006ZM146.007 452.016C146.271 451.624 146.054 450.491 145.718 449.972C144.604 448.25 128.525 446.709 125.468 446.553C120.807 446.315 101.767 446.088 98.8717 448.595C96.4666 450.678 98.5486 453.257 100.95 454.155C107.82 456.725 132.965 455.67 140.609 453.919C141.413 453.735 145.849 452.251 146.007 452.016ZM694.856 475.999C694.806 473.289 695.124 463.211 692.74 461.991L662.337 458.268L660.311 459.544L663.435 489.676C665.06 490.097 664.604 489.297 665.033 488.807C666.574 487.05 667.567 485.147 669.387 483.539C676.07 477.631 686.068 475.46 694.856 475.999ZM843.483 461.725C838.94 462.234 812.38 465.649 810.719 467.585C808.439 470.242 809.479 480.632 809.393 484.574C809.301 488.78 809.403 492.652 809.408 496.858C809.413 500.733 807.042 516.762 810.037 518.802C811.029 519.478 819.912 517.125 819.685 514.494C819.523 501.663 820.725 488.428 819.108 475.688C818.689 472.384 816.068 471.042 820.984 467.844C821.676 467.723 822.301 468.262 822.675 468.771C824.14 470.76 823.135 494.221 823.3 498.939C823.463 503.615 824.661 508.711 824.025 513.621C825.324 514.871 839.171 510.035 840.428 507.453C841.487 501.637 846.612 463.662 843.483 461.725ZM772.357 515.328V472.233C772.357 470.722 766.961 470.096 765.636 469.925C759.849 469.182 753.443 469.065 747.576 468.465C741.467 467.84 735.297 466.98 729.252 465.908C727.232 465.941 726.923 467.932 726.904 469.487C726.816 476.998 729.896 486.492 730.454 494.131C730.698 497.468 729.587 509.189 731.494 510.897C734.814 513.871 763.957 513.171 770.007 516.33C770.823 516.554 772.132 516.05 772.357 515.328ZM800.831 468.592C795.401 468.889 787.916 472.421 781.938 472.043L779.488 474.43L778.626 520.131C778.753 521.805 780.27 525.35 781.931 525.827C783.103 526.163 798.294 522.994 800.445 522.323C801.43 522.015 802.58 521.804 802.965 520.687L803.811 471.517C803.723 469.597 802.852 468.482 800.831 468.592ZM605.664 501.815C603.63 499.725 605.264 496.354 607.937 495.853C612.722 494.955 617.504 497.333 621.482 499.649C624.063 501.151 634.398 509.984 635.256 510.138C636.362 510.337 638.74 507.481 638.747 506.438C638.75 505.829 634.284 496.671 633.526 495.375C626.842 483.956 613.768 477.066 600.812 483.394C591.584 487.901 585.278 499.483 596.606 505.55C602.695 508.811 610.864 510.052 617.347 507.453C618.221 506.369 606.312 502.481 605.664 501.815ZM659.944 512.93C661.162 514.129 674.534 502.512 676.932 501.191C680.099 499.445 688.325 496.088 689.818 501.108C692.258 509.311 678.835 511.771 678.807 513.275C686.035 521.177 696.562 518.339 702.006 510.022C707.177 502.12 704.91 484.14 693.821 482.82C683.206 481.555 675.623 485.868 669.699 494.105C668.268 496.094 658.927 511.928 659.944 512.93ZM474.904 494.468C467.537 495.491 460.307 499.685 452.912 500.626C449.999 500.996 455.152 498.276 454.658 497.891C438.417 496.525 422.009 497.718 405.785 496.523L411.101 497.804L429.518 499.944L423.241 501.298C424.926 501.3 426.617 501.179 428.295 501.481C429.489 501.695 432.534 502.119 433.01 503.35C426.836 503.461 420.696 504.471 414.483 504.067C409.273 503.729 404.152 501.848 398.803 502.669L400.193 500.966C396.776 496.663 387.823 497.726 391.219 504.286C395.648 512.843 404.485 515.285 413.317 516.838C425.012 518.894 454.31 522.059 463.407 514.321C464.809 513.128 471.235 504.12 471.784 502.628C472.345 501.1 471.275 500.135 471.521 499.043C471.856 497.555 475.153 496.517 474.904 494.468ZM655.755 506.781C646.987 504.441 642.869 506.983 641.785 515.666L652.93 516.324L655.755 506.781ZM152.318 509.516C150.002 509.42 149.975 512.468 148.962 514.089C146.747 517.631 139.365 524.499 138.715 525.939C137.611 528.382 137.934 534.926 136.624 538.256C135.807 540.335 133.423 541.328 132.918 543.517C131.05 551.607 133.863 580.758 135.721 589.734C137.984 600.673 159.779 596.587 168.364 606.321C171.074 609.394 170.801 612.803 175.712 612.862C180.683 612.921 181.234 612.241 181.637 607.66C182.525 597.567 183.631 574.867 181.348 565.556C180.802 563.329 178.978 562.419 178.463 560.858C177.922 559.22 178.224 557.28 177.699 555.45C174.684 544.932 170 546.189 163.833 538.935C157.207 531.14 153.246 519.496 152.318 509.516ZM881.283 517.044C877.305 516.956 873.009 515.855 869.093 515.641C855.29 514.887 839.409 515.485 826.82 521.483C826.038 521.856 825.259 522.098 824.739 522.852C825.412 523.824 826.479 523.918 827.505 524.233C831.137 525.351 844.678 528.19 848.091 527.996C853.22 527.704 872.816 521.322 878.157 519.106C879.289 518.636 880.88 518.415 881.283 517.044ZM715.795 517.73C711.925 516.476 705.891 514.377 704.632 519.77L709.688 519.6L715.795 517.73ZM587.324 559.106V530.376C587.324 529.873 585.628 528.82 584.865 528.682C577.29 527.312 566.941 527.867 559.053 527.291C557.257 527.16 547.182 526.416 546.829 525.923C546.082 524.88 548.718 522.822 549.952 523.142L586.975 526.476C594.909 524.812 602.812 522.677 611.061 523.201C611.225 524.184 609.833 524.155 609.113 524.353C605.173 525.439 593.048 526.474 592.34 531.202C594.772 559.124 595.659 587.1 595.72 615.18C596 616.703 597.381 617.722 598.705 618.412C601.978 620.118 622.351 624.103 624.026 621.739C624.913 600.67 623.539 579.55 622.927 558.429C622.889 557.128 622.246 555.802 622.207 554.346C622.096 550.206 621.466 535.447 622.367 532.557C623.677 528.358 640.372 525.583 644.427 524.071C645.313 523.74 646.479 523.669 646.674 522.517C643.689 522.366 639.694 522.261 636.851 521.531C634.28 520.871 633.44 518.755 631.648 518.419C625.422 517.253 616.789 519.354 610.366 519.097C610.599 519.498 615.096 524.06 612.125 523.184C609.478 522.403 605.484 519.586 602.68 518.753C592.13 515.616 573.114 517.333 561.842 518.409C556.997 518.871 541.496 519.211 541.176 524.897L543.427 554.566L585.75 560C586.321 560.219 587.217 559.482 587.324 559.106ZM676.698 521.135C675.857 519.223 670.443 516.88 669.02 518.415C667.147 520.437 675.885 520.708 676.698 521.135ZM777.242 525.253L732.24 519.748C727.48 519.629 721.973 520.301 717.909 522.852C717.919 524.03 733.023 526.164 735.332 526.974C738.5 528.086 740.394 530.356 743.442 531.398C753.782 529.641 764.314 528.545 774.579 526.394C775.387 526.224 777.356 526.303 777.242 525.253ZM854.918 562.695C855.585 563.445 857.458 563.566 858.483 563.506C865.569 563.094 874.128 559.742 881.458 559.277C882.962 558.731 883.81 557.136 884.038 555.649C885.276 547.547 885.259 537.302 885.479 529.015C885.534 526.94 887.549 522.759 884.768 521.451C883.215 520.721 857.967 529.255 854.388 530.707C854.419 535.393 852.884 560.408 854.918 562.695ZM129.895 524.644C123.856 525.718 117.339 524.542 111.479 525.947C110.818 526.105 110.028 525.518 110.444 526.934C112.46 533.792 119.627 534.972 125.767 533.092C131.124 531.453 132.497 529.882 129.895 524.644ZM735.185 623.585C736.811 621.993 735.913 605.149 736.02 601.488C736.575 582.537 738.501 558.566 736.777 539.924C736.061 532.181 733.083 530.969 726.15 529.13C719.977 527.492 709.228 525.555 702.911 525.218C693.082 524.692 682.785 528.243 672.245 527.215C669.176 526.916 665.234 525.12 662.404 525.215C659.951 525.297 655.468 527.357 652.699 528.07C651.029 528.5 642.874 529.703 642.482 530.038C641.627 530.77 642.524 531.25 643.348 531.582C644.773 532.155 648.122 532.446 649.905 532.683C662.286 534.328 675.655 534.349 688.216 535.51C697.289 536.348 706.607 537.23 715.498 538.881L718.686 623.311C719.433 625.421 733.982 624.764 735.185 623.585ZM833.107 529.354C832.454 528.796 816.953 526.039 816.091 526.122C814.84 526.243 809.222 529.163 806.721 529.839C800.017 531.651 792.286 531.569 785.945 533.434C784.931 533.732 784.727 533.048 784.923 534.819C788.159 534.723 791.338 536.463 794.426 536.803C802.286 537.668 820.435 533.564 828.951 531.782C829.559 531.655 834.676 530.698 833.107 529.354ZM403.684 528.663C405.924 545.924 392.333 559.473 377.626 566.409C373.275 568.461 367.096 569.554 363.235 572.147C361.833 573.088 358.298 576.074 360.406 577.567C361.604 578.415 376.914 580.842 379.697 581.24C416.097 586.439 462.204 586.652 498.245 579.232C503.405 578.17 501.588 575.217 497.991 573.43C494.976 571.933 490.706 571.466 487.304 570.219C473.309 565.085 461.074 551.587 458.329 537.041C457.822 534.35 458.995 526.973 454.981 526.595C451.791 526.294 447.901 531.485 444.24 531.778C443.314 531.852 442.289 530.643 440.391 530.673C439.113 530.694 437.711 531.399 436.184 531.431C432.764 531.502 428.121 530.938 424.961 531.398C423.919 531.55 423.852 530.992 423.921 532.434C424.133 536.811 426.163 535.1 428.174 536.536C429.101 537.199 426.959 539.797 431.242 540.332C438.451 541.233 441.304 536.132 446.971 533.455L451.912 558.382C452.991 561.838 456.735 562.863 456.811 563.305C457.294 566.14 452.588 569.987 450.32 565.407C448.4 561.53 446.293 552.397 445.193 547.858C444.688 545.772 445.526 542.538 442.999 541.804C437.542 540.22 413.989 548.338 428.823 552.615C427.72 554.48 425.414 555.917 423.242 556.035C423.069 557.17 425.027 556.784 425.335 557.767C425.84 559.38 421.962 561.209 425.868 562.688L433.706 564.228C431.432 564.78 429.488 566.105 427.072 566.297C422.981 566.622 419.644 563.887 416.966 567.998C421.026 572.761 426.033 570.638 431.234 570.36C432.045 570.317 435.107 569.884 435.103 571.068C426.298 574.176 417.736 573.991 408.575 573.136C409.625 575.227 412.228 575.993 414.316 576.739L429.519 579.278C422.323 579.716 415.703 580.694 408.552 578.965C406.218 578.401 403.224 576.491 401.613 576.165C399.312 575.701 397.381 577.497 394.336 575.108C389.86 571.596 396.884 567.48 398.782 565.245C406.926 555.653 410.154 549.843 412.242 537.392C412.765 534.274 414.398 535.531 411.344 531.764C409.041 528.925 407.573 528.164 403.684 528.663ZM743.031 535.165V561.842C743.031 562.066 743.816 562.676 744.191 562.791C746.059 563.364 762.295 559.48 765.807 558.845C768.395 558.377 772.994 559.502 773.739 555.672C774.254 553.029 773.548 549.002 773.725 546.081C773.926 542.749 776.407 531.525 772.011 530.72C768.313 530.043 754.295 532.172 749.869 532.971C748.431 533.231 743.423 533.961 743.031 535.165ZM849.164 606.305V532.428C849.164 532.005 848.132 531.482 847.491 531.439C845.66 531.315 836.31 533.247 833.777 533.771C832.253 534.087 826.644 535.08 826.064 535.959L825.565 567.173C826.842 571.364 832.592 565.898 835.578 568.996C841.004 574.624 826.993 574.115 825.146 575.251C821.66 577.396 824.558 583.775 824.717 587.16C824.938 591.895 824.397 596.867 824.696 601.545C824.771 602.717 825.496 609.1 825.726 609.427C826.811 610.971 836.723 608.97 839.045 608.704C841.387 608.437 848.238 609.482 849.164 606.305ZM677.329 571.693C676.406 567.71 679.229 541.159 677.426 539.924C676.612 539.367 668.407 538.468 666.567 538.249C659.448 537.404 651.388 536.71 644.225 536.196C642.035 536.039 629.698 534.915 628.827 536.146C627.878 537.487 629.712 550.245 629.91 552.957C630.11 555.701 629.011 563.862 631.326 565.25L677.329 571.693ZM797.494 541.663V574.839C797.494 576.918 801.975 574.421 803.075 574.15C807.283 573.112 814.101 572.311 817.753 570.745C818.726 570.327 820.536 568.904 820.536 567.998V538.585C820.536 538.339 819.762 537.786 819.378 537.664C817.764 537.153 798.111 540.751 797.494 541.663ZM682.983 540.979V572.103C682.983 572.589 685.134 574.196 686.021 573.784C689.702 572.092 709.532 569.856 710.983 568.068C712.638 566.027 711.279 549.097 711.05 545.426C710.957 543.925 712.4 539.956 710.24 538.56C707.323 536.672 687.715 541.423 682.983 540.979ZM791.91 574.5L792.494 542.799C791.906 541.198 784.077 539.075 783.532 539.609L782.266 571.283C783.09 573.928 789.452 574.671 791.91 574.5ZM125.788 540.295H116.013C117.013 547.199 118.235 554.203 118.798 561.165C119.377 568.313 120.783 587.189 118.594 593.1C116.713 598.18 109.354 598.903 107.634 604.595H118.456C118.759 604.595 121.829 607.51 123.491 607.871C125.458 608.297 131.728 607.597 132.768 608.709C133.926 609.947 128.337 611.942 127.493 612.077C122.921 612.806 120.164 611.208 116.288 610.823C113.564 610.552 104.179 611.695 103.447 608.347C103.122 606.857 107.081 606.466 105.536 605.282C104.475 604.47 81.8425 609.17 79.2096 610.608C74.7947 613.019 76.7305 616.578 80.1667 618.848C89.6042 625.082 131.455 624.438 143.587 623.058C147.912 622.566 162.931 619.725 163.392 614.391C163.43 613.957 160.235 609.846 159.692 609.344C155.812 605.765 143.071 606.527 138.101 603.819C136.473 602.932 128.348 595.881 127.5 594.367C126.022 591.728 125.294 587.472 125.063 584.442C124.194 573.095 124.639 557.635 125.061 546.081C125.132 544.13 126.044 542.284 125.788 540.295ZM184.439 548.507C184.14 551.493 186.689 555.86 189.822 556.564C192.359 557.134 203.214 556.197 203.904 553.501C202.265 545.417 190.52 548.654 184.439 548.507ZM587.234 566.379C583.5 564.496 579.598 565.316 575.809 564.915C567.27 564.011 558.513 562.734 549.962 562.192C548.715 562.113 545.757 561.826 545.03 562.821C544.547 563.57 544.719 564.347 544.782 565.16C545.02 568.231 545.679 576.081 546.443 578.635C546.999 580.493 549.511 583.483 549.779 585.968C551.809 586.837 554.001 587.279 555.856 588.565C564.356 594.458 559.656 609.297 562.666 611.481C564.245 612.625 570.62 613.19 573.014 613.483C576.772 613.945 583.523 614.851 587.007 614.889C587.783 614.897 588.628 614.893 589.118 614.213L587.234 566.379ZM198.938 563.714C197.729 562.531 188.794 561.835 188.029 564.729C189.011 572.577 190.389 580.58 190.753 588.491C191.056 595.08 191.733 615.487 190.068 620.711C188.884 624.426 184.447 626.13 190.106 628.8C194.819 631.025 196.23 629.081 200.15 629.163C202.351 629.209 213.913 631.963 211.341 627.152C210.708 625.967 208.251 625.404 207.132 624.432C199.055 617.42 201.944 612.727 201.191 603.575C200.369 593.585 198.865 584.297 199.074 574.127C199.126 571.597 201.02 565.753 198.938 563.714ZM772.357 615.197V567.314C772.357 565.908 769.082 565.533 767.855 565.59C764.249 565.755 749.063 568.224 745.656 569.202C744.888 569.422 743.789 569.693 743.372 570.385C743.079 570.872 742.387 579.985 742.304 581.651C741.822 591.394 741.34 607.175 742.293 616.605C742.516 618.821 742.661 620.305 745.439 620.358C748.836 620.423 756.336 618.355 760.254 617.704C762.696 617.299 771.747 617.168 772.357 615.197ZM881.117 605.116C882.516 603.746 882.071 589.492 882.014 586.435C881.978 584.485 881.331 582.852 881.254 581.023C881.145 578.458 881.799 567.391 880.978 566.248C880.278 565.272 878.612 565.584 877.541 565.67C875.102 565.864 856.226 569.251 855.426 570.029C854.745 570.692 854.809 571.23 854.711 572.064C853.881 579.103 854.058 595.699 854.717 602.917C854.918 605.128 855.067 607.38 857.855 607.37C861.427 607.357 866.721 606.241 870.467 605.97C872.951 605.79 879.604 606.598 881.117 605.116ZM357.603 574.486C356.375 572.221 355.059 571.544 352.445 571.792C349.338 572.088 339.235 574.543 335.956 575.521C328.951 577.611 317.667 585.501 326.535 592.279C333.369 597.502 372.38 604.69 382.477 605.878C416.693 609.904 497.793 611.026 528.444 597.189C533.635 594.846 541.271 590.662 537.656 583.818C534.712 578.245 527.962 580.406 522.823 579.885C519.207 579.518 511.261 575.993 508.931 576.665C506.076 577.49 507.521 579.472 509.562 580.564C511.405 581.55 517.492 581.77 513.964 584.372C506.678 589.747 458.598 592.033 447.356 592.31C423.041 592.91 396.099 591.822 372.137 587.963C366.973 587.131 350.548 584.888 347.782 581.025C345.475 577.804 355.61 576.359 357.603 574.486ZM677.397 629.562V579.627C677.397 579.208 675.641 577.934 674.901 577.968C661.638 577.195 646.618 572.423 633.653 571.797C631.092 571.674 631.452 572.853 631.279 574.805C630.298 585.871 632.115 601.106 632.738 612.433C632.953 616.326 631.93 620.683 633.568 624.274C634.802 625.446 660.021 628.693 663.87 629.133C667.073 629.498 673.05 630.527 675.822 630.456C676.482 630.439 677.239 630.118 677.397 629.562ZM682.983 580.995V630.246C682.983 631.969 688.835 632.073 690.258 631.897C692.366 631.637 711.331 626.421 712.149 625.643C712.904 624.925 712.945 623.104 713.036 622.067C713.923 611.878 712.741 600.751 712.28 590.6C712.103 586.701 714.173 575.178 709.273 575.216C705.42 575.245 690.081 577.655 686.297 578.77C685.354 579.048 683.219 580.184 682.983 580.995ZM796.796 583.047V613.487C799.632 614.366 802.578 614.3 805.518 614.164C807.825 614.056 817.992 613.033 818.795 611.439L819.849 577.585C819.8 576.547 805.789 579.285 804.452 579.603C802.445 580.082 797.393 580.929 796.796 583.047ZM782.828 578.597L782.126 608.368C782.703 611.352 790.577 611.832 791.21 608.357C790.403 603.657 792.55 582.791 790.575 580.249C789.264 578.561 784.877 578.487 782.828 578.597ZM332.118 637.428C335.329 637.953 341.101 637.428 344.686 637.428C345.102 637.428 346.113 638.532 347.13 638.106C347.757 637.62 336.473 632.703 335.474 632.089C331.818 629.841 326.409 625.157 326.23 620.617C326.131 618.105 327.072 608.928 327.744 606.466C327.911 605.855 328.156 604.994 328.604 604.573C329.663 603.578 332.528 604.428 331.763 602.894C330.883 601.13 326.239 600.644 324.527 599.719C322.821 598.797 321.712 596.382 319.54 595.871C319.037 595.91 316.85 598.243 316.5 598.872C314.662 602.176 313.799 617.819 314.622 621.735C315.952 628.063 325.86 636.405 332.118 637.428ZM398.799 629.22H386.929C386.62 631.075 387.268 630.403 388.452 630.774C391.333 631.679 395.564 632.516 398.626 633.152C400.644 633.571 403.573 632.58 404.385 634.686L399.499 635.384C399.288 636.787 404.505 637.381 402.982 638.796C402.863 638.907 401.478 638.055 400.569 638.082C399.41 638.116 398.351 638.779 397.127 638.734C393.501 638.6 389.274 637.243 385.536 637.422L390.42 636.738C390.341 635.931 389.481 635.55 388.819 635.235C386.924 634.334 369.828 629.506 367.643 629.31C364.789 629.054 361.721 628.826 362.114 632.715C362.572 637.255 374.576 641.265 378.719 642.393C381.964 643.277 385.343 643.879 388.681 644.263C427.747 648.758 465.524 648.954 504.363 642.685C512.195 641.421 540.547 637.009 545.38 632.933C547.548 631.105 550.069 625.921 553 623.991C549.505 620.511 550.214 602.562 548.106 601.295C547.051 600.661 535.971 602.445 534.433 603.056C533.676 603.357 526.825 609.851 526.583 610.418C526.285 612.038 527.333 611.283 528.339 611.409C530.755 611.712 532.651 611.959 534.954 612.811C533.196 614.838 531.913 616.81 532.162 619.64L537.047 619.65L533.563 622.041L536.349 622.383C538.032 623.868 528.628 626.719 527.431 626.978C525.925 627.304 518.033 628.401 517.497 627.856C517.241 627.595 517.759 624.684 517.503 624.428C516.965 623.89 504.29 625.977 502.142 625.109C502.726 623.962 504.394 623.787 505.648 622.738C506.222 622.257 508.312 620.443 507.722 619.651L501.445 618.283C503.823 617.778 507.199 617.11 509.339 616.094C510.136 615.716 511.054 615.172 509.831 614.502C508.532 613.79 494.037 614.045 491.287 614.143C477.612 614.631 463.839 616.402 450.149 616.935C430.036 617.719 404.583 615.542 385.431 617.959C384.441 618.084 382.986 618.521 382.742 619.635L387.636 621.017L386.924 623.059C389.882 623.247 393.474 624.438 396.348 624.48C399.55 624.526 404.014 622.327 405.78 625.107L397.403 627.175L398.799 629.22ZM184.437 630.584C184.311 628.651 182.72 627.738 183.04 625.512C183.489 622.378 188.826 620.46 187.226 616.227C182.14 620.006 170.107 631.568 184.437 630.584ZM568.821 627.168C571.079 627.797 580.287 627.168 583.484 627.168C583.624 627.168 586.206 626.53 585.924 625.807C581.66 626.371 573.068 623.243 569.54 623.716C567.137 624.039 567.358 626.76 568.821 627.168ZM298.602 625.116H239.95C239.548 625.116 238.726 623.887 238.205 625.792L246.276 628.495C264.818 629.158 283.256 629.444 301.741 628.532C301.931 626.621 300.352 625.372 298.602 625.116ZM166.839 630.11C162.875 630.298 148.037 632.472 146.361 636.074C145.447 638.04 147.14 639.036 148.599 640.048C162.756 649.864 219.297 649.025 235.398 642.545C242.796 639.568 244.352 635.102 235.442 632.952C233.392 632.457 218.986 630.1 218.148 630.41C217.088 630.802 216.176 632.223 214.963 632.786C209.038 635.536 194.519 634.531 187.553 634.664C185.675 634.7 183.959 635.495 181.996 635.439C176.172 635.274 176.74 629.64 166.839 630.11Z" fill="black"/>
<path d="M285.529 173.497C284.866 174.342 282.841 174.178 282.142 173.185C279.309 169.163 281.795 160.537 276.269 155.854C267.666 148.563 262.772 155.543 254.441 156.412C251.625 156.706 250.838 155.941 252.514 153.808C256.25 149.05 268.963 143.638 270.18 138.275C271.555 132.214 266.199 130.617 265.481 126.065C265.195 124.255 265.103 113.88 265.544 112.536C266.45 109.782 270.132 112.633 271.33 114.178C273.579 117.078 273.43 119.427 276.975 122.329C284.945 128.852 291.155 127.416 298.268 120.651C301.133 117.926 305.322 108.672 309.676 110.112C313.419 111.35 306.792 119.554 305.809 121.883C302.476 129.779 304.504 137.377 311.185 142.853C312.855 144.222 322.284 149.363 321.989 150.724C321.518 152.902 315.605 151.102 313.992 151.049C305.582 150.772 292.914 151.066 288.898 160.039C287.594 162.952 286.831 171.838 285.529 173.497ZM298.883 127.899C297.683 126.023 295.317 129.151 294.298 129.763C285.389 135.116 279.525 130.284 272.425 125.083C273.113 129.549 276.748 133.718 275.88 138.385C275.202 142.027 269.865 144.159 268.93 147.653C271.706 147.957 275.244 146.924 277.694 148.302C282.35 150.923 281.338 159.007 283.251 159.962L289.642 152.559C294.861 150.227 300.133 146.856 305.93 146.285C304.806 142.899 300.204 140.587 298.882 137.07C297.97 134.645 299.825 129.372 298.883 127.899Z" fill="black"/>
<path d="M651.555 169.549C652.7 174.512 653.644 180.291 655.732 184.956C656.432 186.521 660.256 192.915 661.367 193.8C667.511 198.693 678.957 195.196 685.776 193.494C684.957 197.701 680.022 198.353 677.063 201.026C675.455 204.233 664.204 211.017 663.577 213.124C663.031 214.958 663.201 223.661 663.439 225.972C663.836 229.832 666.186 233.254 665.523 237.262C659.102 236.447 659.059 228.849 655.065 225.283C652.542 223.031 650.429 223.171 648.121 221.825C646.442 220.846 644.121 217.223 642.679 216.845C641.518 216.54 631.129 219.134 629.069 219.676C626.347 220.392 620.456 223.584 618.477 222.17C614.153 219.08 622.383 216.49 624.663 214.675C627.911 212.09 630.118 208.298 634.094 206.141C628.578 200.659 622.65 195.226 618.218 188.932C617.443 183.406 629.04 188.629 631.87 189.179C639.519 190.667 640.812 191.195 644.219 183.899C644.995 182.237 648.508 167.431 651.555 169.549ZM671.811 198.959H660.988C660.404 198.959 652.397 192.533 651.805 191.883C650.858 190.842 649.126 186.809 648.405 186.644C645.624 186.007 642.285 197.12 639.194 198.13C638.6 198.324 636.38 198.434 636.204 198.271C634.829 197.002 637.995 196.143 637.59 195.211C635.457 192.358 632.016 191.54 628.523 191.438C627.97 195.633 638.138 203.516 638.333 205.493C638.721 209.441 629.027 211.385 629.919 216.057C632.467 215.849 636.947 216.593 639.178 215.383C640.753 214.529 640.287 209.154 643.404 209.984C646.027 210.682 653.596 221.81 658.189 222.223C658.838 216.097 658.346 209.841 663.493 205.517C664.297 204.841 673.075 200.036 671.811 198.959Z" fill="black"/>
<path d="M601.839 119.069C606.955 118.675 613.715 122.258 615.773 126.968C621.901 140.993 601.979 152.953 591.146 143.57C581.954 135.608 591.868 119.837 601.839 119.069ZM600.414 123.875C592.78 125.056 587.457 135.778 594.65 140.822C600.443 144.885 607.933 142.374 611.206 136.509C615.289 129.193 607.832 122.727 600.414 123.875Z" fill="black"/>
<path d="M158.436 224.445C174.176 222.357 185.96 238.207 169.816 246.537C158.736 252.254 143.598 246.954 146.205 232.977C147.115 228.101 153.895 225.048 158.436 224.445ZM157.019 227.85C143.532 230.267 151.481 249.856 166.454 243.244C179.398 237.529 168.933 225.715 157.019 227.85Z" fill="black"/>
<path d="M95.7637 648.378C95.4999 649.622 94.3914 649.649 93.3455 649.764C80.2852 651.202 64.0602 648.818 50.7561 648.343C44.8979 648.134 35.7021 649.29 30.4826 648.367C29.4426 648.183 28.7531 647.848 28.7259 646.668C28.703 645.679 46.902 643.683 48.6396 643.59C58.5054 643.061 70.8694 643.353 80.5443 645.154C85.6209 646.099 90.4135 648.588 95.7637 648.378Z" fill="black"/>
<path d="M741.633 265.32C743.122 267.262 736.574 268 735.725 268.071C721.034 269.301 702.789 268.367 687.55 268.759C682.548 268.888 677.509 268.61 672.513 268.727C672.189 266.873 672.863 267.549 674.033 267.177C682.794 264.392 699.632 263.561 709.138 263.23C713.876 263.065 739.554 262.61 741.633 265.32Z" fill="black"/>
<path d="M319.898 528.663C315.365 528.807 310.255 526.114 306.966 523.207C304.547 521.069 303.882 518.855 302.113 517.018C298.51 513.276 284.96 501.877 283.881 497.896C283.587 496.813 284.18 496.144 284.294 495.152C285.566 494.197 293.433 502.566 294.752 503.707C300.293 508.501 306.488 512.796 311.887 517.703C313.621 519.279 322.013 526.535 319.898 528.663Z" fill="black"/>
<path d="M79.7025 565.596C74.0924 567.014 68.4673 563.364 62.586 562.878C60.0602 562.67 39.0846 565.647 46.9297 558.461C51.4318 554.337 69.2065 556.562 74.3664 559.547C75.4161 560.154 80.2078 564.935 79.7025 565.596Z" fill="black"/>
<path d="M257.057 221.524C255.879 221.697 254.822 221.332 253.709 221.048C249.64 220.014 226.671 212.756 224.926 210.945C222.432 208.359 224.358 206.188 227.445 205.811C233.93 205.016 251.671 217.198 257.057 221.524Z" fill="black"/>
<path d="M437.195 118.239C435.416 119.496 432.722 112.791 432.299 111.76C429.482 104.906 428.675 97.4275 427.43 90.2013C428.724 89.0799 432.189 92.9559 432.819 94.1493C434.682 97.6781 438.243 111.332 437.905 115.168C437.811 116.242 437.373 117.2 437.195 118.239Z" fill="black"/>
<path d="M673.907 284.454C673.416 283.972 673.548 282.99 674.9 283.134C677.56 283.417 679.441 284.594 682.643 284.51C693.66 284.224 705.718 281.46 716.817 281.016C719.652 280.903 728.041 282.253 722.427 284.457C719.839 285.473 705.519 285.745 701.515 285.86C697.209 285.982 675.965 286.469 673.907 284.454Z" fill="black"/>
<path d="M298.949 536.885C299.743 537.668 298.983 538.263 297.888 538.271C295.227 538.291 288.308 535.107 286.035 533.453C283.317 531.476 270.294 517.12 270.341 514.639C270.38 512.528 273.916 515.512 274.148 515.686C282.393 521.843 287.547 529.759 296.209 535.812C297.07 536.413 298.845 536.782 298.949 536.885Z" fill="black"/>
<path d="M282.193 574.489C273.398 573.77 263.656 573.954 255.07 571.997C251.312 571.14 247.183 570.17 247.285 565.607C254.364 567.408 261.859 567.57 268.933 569.36C272.337 570.221 276.489 571.799 279.834 573.046C280.717 573.375 281.976 573.194 282.193 574.489Z" fill="black"/>
<path d="M384.133 113.453C391.901 113.408 400.639 118.43 406.03 123.812C406.754 124.535 407.529 124.659 407.174 126.099C405.845 130.392 393.793 121.693 391.847 120.607C388.429 118.7 383.114 118.873 384.133 113.453Z" fill="black"/>
<path d="M190.533 188.797C192.646 188.228 193.902 189.921 195.626 190.395C198.019 191.053 200.628 191.254 202.835 192.225C204.746 193.066 210.25 197.477 208.579 199.681C206.094 202.961 189.12 195.241 188.733 190.975C188.648 190.038 189.694 189.023 190.533 188.797Z" fill="black"/>
<path d="M555.668 137.655C567.208 137.376 567.161 151.156 558.19 152.968C545.118 155.608 543.185 137.956 555.668 137.655ZM555.679 139.626C547.914 139.807 552.008 156.31 560.463 149.044C564.906 145.226 560.068 139.523 555.679 139.626Z" fill="black"/>
<path d="M701.836 302.94C708.875 301.545 717.367 300.891 724.561 301.532C730.873 302.095 729.644 304.16 724.335 305.48C718.397 306.957 706.46 307.182 701.836 302.94Z" fill="black"/>
<path d="M244.486 178.428C243.842 179.382 237.603 179.181 236.089 178.799C234.687 178.446 229.004 175.229 229.403 173.619C230.182 170.477 234.264 170.755 236.681 171.385C238.518 171.863 245.693 176.642 244.486 178.428Z" fill="black"/>
<path d="M25.7676 577.394C28.263 576.99 37.3804 578.278 36.3672 581.61C35.5473 584.307 24.8349 583.93 23.0877 581.74C21.0654 579.206 23.209 577.808 25.7676 577.394Z" fill="black"/>
<path d="M231.915 245.482C232.025 246.552 230.075 246.411 229.241 246.607C226.691 247.207 221.422 248.233 218.994 248.218C216.935 248.205 211.713 246.905 214.901 244.875C219.138 242.178 227.342 244.195 231.915 245.482Z" fill="black"/>
<path d="M306.632 647.688C306.685 648.132 305.706 649.056 305.585 649.056H293.365C293.313 648.611 294.291 647.688 294.413 647.688H306.632Z" fill="black"/>
<path d="M397.403 454.79L402.055 456.048L438.596 461.623C421.307 462.711 404.083 459.44 386.93 460.953C392.744 465.94 403.482 466.779 411.108 467.699C426.98 469.613 449.456 471.379 464.873 467.874C473.256 465.968 484.815 461.271 490.967 455.48L473.515 458.887L476.304 456.849L471.152 456.758L459.55 454.112C462.421 453.939 465.404 454.337 468.267 454.099C476.094 453.446 499.423 448.286 504.94 443.511C505.678 442.872 506.309 442.113 507.023 441.448C501.483 441.78 495.645 443.955 489.829 444.44C488.976 444.511 486.104 445.171 486.083 443.852C491.87 443.386 498.125 440.866 503.511 438.69C504.346 438.352 506.306 437.984 506.325 437.012C497.194 438.26 487.986 437.713 478.831 436.924L473.515 435.643C477.701 436.061 481.839 434.384 485.836 433.827C486.677 433.71 487.768 434.295 488.992 434.105C499.591 432.455 512.51 430.315 520.991 424.015C510.511 426.863 499.523 428.555 488.516 428.112C487.668 428.078 485.92 428.629 486.083 427.435C494.237 427.493 501.51 422.485 508.745 419.877C515.442 417.463 524.123 417.143 529.37 411.702C523.011 412.961 517.265 416.091 510.794 417.096C504.004 418.15 495.434 418.113 488.516 417.851C487.67 417.819 485.919 418.366 486.084 417.175C491.669 416.011 497.123 414.24 502.501 412.392C509.12 410.118 532.489 402.357 536.015 398.026C536.577 397.335 537.346 397.128 537.047 395.966C531.44 396.059 526.199 398.258 520.633 398.69C516.978 398.973 513.154 398.476 509.479 398.707C507.056 398.86 504.144 399.768 501.698 399.982C500.913 400.05 499.194 400.618 499.35 399.39C507.515 397.413 514.987 393.521 522.699 390.452C525.46 389.354 528.689 389.242 531.73 387.671C535.137 385.911 538.453 382.484 541.934 380.563C542.288 378.967 540.484 379.477 539.473 379.519C532.97 379.788 525.586 381.487 518.9 381.59C519.669 380.421 522.258 379.539 523.599 379.021C527.634 377.462 531.897 376.713 536.016 375.454C537.267 375.071 540.009 374.603 540.539 373.396L508.424 378.855C510.327 374.72 524.001 373.268 525.876 371.326C528.219 368.9 518.682 370.868 518.902 369.293C526.071 367.491 533.675 367.244 540.537 364.488C540.704 363.298 538.949 363.844 538.105 363.812C532.771 363.612 527.976 364.547 522.705 364.522L509.823 363.136C521.512 361.492 533.517 360.753 544.726 356.963C544.903 355.791 543.072 356.238 542.302 356.296C533.247 356.982 523.793 359.25 514.712 357.648L524.597 355.374L537.746 350.823C528.205 350.761 518.573 352.998 509.122 352.176C510.021 350.722 511.583 349.939 509.339 348.892L498.651 346.718C511.116 345.712 523.573 343.564 536.01 341.93C544.401 340.827 552.778 341.209 560.781 338.151C562.784 337.385 566.973 334.289 568.831 334.42C569.944 334.499 569.634 335.398 569.283 336.206C565.874 344.057 566.857 352.225 565.585 360.642C558.721 406.047 526.792 451.201 483.264 469.474C460.727 478.935 417.429 479.553 394.076 472.756C385.826 470.354 375.392 466.296 369.474 460.269C375.655 461.072 380.472 456.603 386.232 455.466C386.888 452.779 381.814 455.035 381.344 452.737H413.113C413.232 452.737 414.212 453.659 414.161 454.099C412.482 453.381 409.857 454.79 408.924 454.79H397.403ZM541.237 385.021C538.448 385.458 535.866 387.118 534.956 389.799C536.675 390.798 542.255 385.949 541.237 385.021Z" fill="black"/>
<path d="M381.338 415.129C381.405 415.205 381.592 416.567 381.008 416.471C376.188 415.113 371.24 414.251 366.386 413.01C358.212 410.921 336.259 405.456 331.458 399.345C330.363 397.952 324.01 385.842 324.79 385.021L381.338 415.129Z" fill="black"/>
<path d="M389.019 429.489C389.182 430.77 387.635 429.967 386.902 429.855C379.694 428.745 372.298 427.319 365.154 425.846C351.375 423.005 340.861 421.609 336.66 406.227L389.019 429.489Z" fill="black"/>
<path d="M393.208 441.116C393.368 442.339 391.639 441.78 390.858 441.71C386.81 441.35 382.316 440.88 378.29 440.336C366.189 438.702 354.279 437.05 349.927 424.01L393.208 441.116Z" fill="black"/>
<path d="M488.004 347.562C490.793 350.399 487.6 364.865 486.86 369.023C485.811 374.917 485.98 376.81 483.411 382.744C482.98 383.738 482.215 386.028 481.199 386.382L485.362 353.938C485.154 350.676 481.064 350.083 481.195 349.793C482.53 348.271 486.183 345.711 488.004 347.562Z" fill="black"/>
<path d="M423.234 348.77C423.398 349.964 421.65 349.413 420.801 349.447C413.993 349.722 407.398 348.466 400.895 349.455C402.44 352.467 407.578 350.42 409.27 352.861C398.115 351.676 403.361 357.636 401.25 361.081C400.64 362.076 397.878 363.064 397.025 361.788C396.018 360.281 397.039 349.575 396.003 346.709L423.234 348.77Z" fill="black"/>
<path d="M387.629 446.587C388.677 447.563 387.546 447.822 386.594 447.949C381.587 448.616 372.621 446.694 369.474 442.482C371.784 443.029 386.953 445.958 387.629 446.587Z" fill="black"/>
<path d="M400.887 394.594C397.93 393.606 396.587 385.275 399.848 384.98C404.055 384.599 400.728 388.405 401.878 389.855C402.507 390.648 405.697 390.451 405.768 391.516C405.9 393.507 402.132 391.179 401.932 391.197C400.985 391.283 400.75 393.664 400.887 394.594Z" fill="black"/>
<path d="M403.685 371.327C397.414 372.329 401.641 375.401 401.576 376.47C401.387 379.589 393.996 376.052 397.369 371.618C399.051 369.408 401.708 368.655 403.685 371.327Z" fill="black"/>
<path d="M415.552 402.812C415.471 403.926 412.028 404 411.351 403.865C410.098 403.615 407.732 402.049 407.178 400.758C410.26 400.249 412.644 402.373 415.552 402.812Z" fill="black"/>
<path d="M509.825 198.949C509.649 197.792 511.492 198.239 512.296 198.245C514.529 198.262 517.427 199.644 518.236 196.57C518.268 193.669 509.933 192.305 508.423 190.072C511.107 190.239 513.821 190.829 516.424 191.462C518.477 191.96 523.345 194.487 518.827 189.791C515.961 186.813 513.795 186.772 510.205 188.689L509.124 186.65C513.468 185.342 521.114 184.31 523.426 189.394C523.773 190.156 523.849 195.439 523.647 196.37C522.066 203.663 514.847 200.95 509.825 198.949Z" fill="black"/>
<path d="M555.896 237.266C557.237 238.742 547.205 246.608 545.773 247.523C544.876 248.096 544.248 248.28 544.036 247.173C543.624 245.021 554.378 239.464 555.896 237.266Z" fill="black"/>
<path d="M547.524 233.852C548.227 234.461 540.558 241.807 539.146 242.407C538.088 242.857 537.044 242.243 537.065 241.711C537.09 241.061 546.388 232.866 547.524 233.852Z" fill="black"/>
<path d="M551.717 250.258C550.547 249.213 559.995 242.349 560.784 241.369C561.449 244.067 553.316 251.685 551.717 250.258Z" fill="black"/>
<path d="M468.62 196.226L466.881 206.48C464.923 204.161 465.598 200.017 466.867 197.553C467.385 196.548 466.855 195.894 468.62 196.226Z" fill="black"/>
<path d="M474.209 219.474C470.38 219.973 467.923 216.02 467.929 212.644C469.044 211.465 473.642 218.655 474.209 219.474Z" fill="black"/>
<path d="M479.097 218.106C476.328 218.274 474.192 216.105 472.813 214.015C475.582 213.846 477.718 216.016 479.097 218.106Z" fill="black"/>
<path d="M169.777 466.076C170.694 468.945 173.985 466.646 175.067 466.469C185.775 464.721 196.87 466.377 207.683 465.59C211.782 464.437 209.876 457.328 210.278 454.102C210.843 454.189 212.219 453.968 212.365 454.103C213.306 454.972 212.559 463.875 213.389 465.078C214.15 466.182 219.334 466.441 220.915 470.014C222.778 474.226 219.138 475.006 218.861 477.792C218.484 481.587 219.77 487.584 219.357 492.075C219.074 495.153 217.39 499.294 217.248 502.667C215.656 502.067 216.215 499.027 214.465 498.178C213.548 497.733 210.206 499.486 212.155 497.212C212.915 496.325 213.401 497.231 212.372 494.469C213.139 494.323 215.667 494.666 215.865 494.468C216.567 493.763 216.279 478.397 215.21 477.662C203.543 477.944 191.681 480.497 179.873 480.127C172.603 479.899 171.329 476.7 171.844 486.627C172.349 496.343 175.037 516.381 181.755 523.43C183.526 525.288 185.712 525.51 186.858 526.64C188.305 528.067 188.437 531.467 191.419 532.431C190.771 533.249 188.913 532.616 188.11 532.252C187.416 531.937 180.731 526.766 179.871 525.96C167.828 514.686 166.649 478.571 166.253 462.689C166.19 460.181 165.563 443.827 166.289 443.158C167.5 442.042 169.777 443.771 169.777 445.555C169.777 449.504 168.97 463.553 169.777 466.076ZM171.276 472.483C171.358 472.629 173.88 473.833 174.349 473.91C181.756 475.119 205.97 475.519 212.529 473.073C217.345 471.277 214.83 469.867 211.135 469.339C198.743 467.565 185.323 468.488 172.925 469.845C171.546 469.953 170.576 471.248 171.276 472.483Z" fill="black"/>
<path d="M192.024 496.423C191.613 497.061 188.895 497.342 187.933 496.886C186.085 496.01 186.418 492.328 182.905 491.49C180.763 490.979 178.82 493.176 176.763 492.072C178.267 490.227 180.653 488.664 183.221 489.104C183.789 489.202 190.813 492.071 191.116 492.367C192.024 493.252 192.686 495.398 192.024 496.423Z" fill="black"/>
<path d="M190.552 521.316C192.066 522.77 193.269 528.248 197.684 526.277C200.103 525.198 200.17 522.2 200.508 521.826C202.576 519.537 201.661 525.099 199.483 527.329C193.57 533.384 190.784 523.54 186.541 521.134C186.555 519.611 190.044 520.828 190.552 521.316Z" fill="black"/>
<path d="M200.499 505.413C200.692 505.559 199.324 508.055 201.895 509.503C200.086 510.109 198.824 510.238 197.026 509.483C196.426 507.802 198.874 504.186 200.499 505.413Z" fill="black"/>
<path d="M206.779 494.466C208.024 495.499 205.879 495.941 205.422 496.177C203.166 497.34 202.295 497.784 200.503 495.487C201.652 495.589 206.536 494.265 206.779 494.466Z" fill="black"/>
<path d="M615.952 586.809C618.481 588.538 617.109 593.181 617.356 596.036C617.914 602.497 619.716 609.1 618.04 615.539C616.598 616.165 615.952 613.591 615.952 613.144V586.809Z" fill="black"/>
<path d="M606.173 566.967C604.446 566.687 600.418 567.535 599.153 566.671C597.953 565.85 598.074 562.143 599.939 562.447C602.041 562.79 606.16 564.428 606.173 566.967Z" fill="black"/>
<path d="M609.768 567.558C609.39 567.02 609.787 565.694 609.665 564.922C613.062 564.346 616.544 565.508 613.516 569.002C612.828 568.217 610.061 567.977 609.768 567.558Z" fill="black"/>
<path d="M522.384 286.519C522.391 288.264 521.709 290.021 520.879 291.535C520.401 292.408 515.058 299.949 514.013 298.824C514.766 294.696 518.344 291.687 520.652 287.866C521.183 286.987 520.523 286.14 522.384 286.519Z" fill="black"/>
<path d="M507.718 292.671C507.893 302 498.548 296.673 503.19 291.307C503.76 292.869 503.584 294.443 505.282 295.395L507.718 292.671Z" fill="black"/>
<path d="M112.516 501.316C114.088 503.121 109.985 502.761 108.512 502.152C102.062 499.488 96.7738 482.509 97.1671 475.994C102.449 478.635 101.201 482.644 102.357 486.978C102.972 489.284 104.393 490.649 105.099 492.396C105.399 493.137 104.751 494.267 105.34 495.629C106.787 498.971 111.495 500.145 112.516 501.316Z" fill="black"/>
<path d="M141.766 463.766C143.543 465.185 142.783 480.719 142.384 483.7C142.188 485.167 140.712 487.001 140.712 487.979C140.712 488.705 141.711 489.346 141.528 490.408C141.293 491.767 136.59 497.565 135.567 496.512C135.789 494.234 137.642 493.059 138.568 490.909C142.274 482.303 141.288 472.426 139.058 463.685C139.814 463.801 141.333 463.42 141.766 463.766Z" fill="black"/>
<path d="M113.22 500.627C116.389 500.724 119.452 500.839 122.29 499.252C122.231 504.407 115.741 504.05 113.22 500.627Z" fill="black"/>
<path d="M111.825 465.041C113.217 461.587 119.471 465.599 118.805 468.116C117.861 471.683 114.081 464.077 111.825 465.041Z" fill="black"/>
<path d="M129.974 488.31C130.9 489.203 128.257 494.428 126.835 495.133C125.31 494.066 125.944 493.885 126.34 492.62C126.708 491.446 128.223 486.621 129.974 488.31Z" fill="black"/>
<path d="M110.175 474.683C110.93 474.561 112.508 476.1 112.509 476.336C112.511 476.578 109.516 479.582 108.692 479.411C106.283 478.311 108.825 474.899 110.175 474.683Z" fill="black"/>
<path d="M132.069 482.839C133.219 483.967 128.982 488.187 127.198 485.229C127.767 484.161 131.312 482.097 132.069 482.839Z" fill="black"/>
<path d="M112.519 495.158C114.591 497.294 106.954 496.765 106.936 493.786C107.919 493.543 112.126 494.753 112.519 495.158Z" fill="black"/>
<path d="M417.645 260.522C415.369 260.471 407.741 254.877 406.474 255.74L407.184 257.097C403.744 257.802 402.429 253.959 400.894 251.636L405.778 251.975C402.409 249.488 401.695 245.684 400.199 242.057C406.068 243.537 406.136 251.874 412.343 254.436L417.645 260.522Z" fill="black"/>
<path d="M452.564 256.426C449.27 263.501 440.441 264.143 433.424 263.199C431.041 262.879 421.697 259.127 428.5 259.124C434.316 259.122 440.452 261.369 446.273 259.489C447.523 259.086 452.132 256.057 452.564 256.426Z" fill="black"/>
<path d="M405.08 241.366C404.102 242.218 399.04 239.237 399.505 237.266C400.053 237.559 406.483 240.144 405.08 241.366Z" fill="black"/>
<path d="M143.242 607.34C144.203 608.276 143.168 608.621 142.187 608.721C139.415 609.005 136.122 607.835 134.865 605.285C136.159 605.163 142.786 606.896 143.242 607.34Z" fill="black"/>
<path d="M715.797 463.678C709.656 464.633 712.822 456.575 715.271 461.122C715.708 461.934 715.91 462.76 715.797 463.678Z" fill="black"/>
<path d="M136.262 437.688C135.408 438.796 134.994 437.68 134.864 436.674C134.603 434.657 134.163 429.254 136.262 428.111V437.688Z" fill="black"/>
<path d="M338.053 298.821L342.937 298.832C342.229 303.538 339.481 304.452 334.928 303.594C329.366 302.546 335.109 295.012 337.716 294.715C342.443 294.177 337.794 298.637 338.053 298.821Z" fill="black"/>
<path d="M310.481 266.701C312.225 267.866 311.166 269.987 311.663 271.668C312.767 275.403 314.664 271.623 315.371 271.47C318.348 270.829 317.25 277.593 313.12 278.18C311.591 278.397 302.225 275.935 301.784 274.459C301.084 272.116 308.3 267.501 310.481 266.701Z" fill="black"/>
<path d="M350.618 260.518L354.098 261.547C353.378 264.325 345.981 262.712 345.733 261.53L350.272 252.326C354.088 255.873 352.052 256.677 350.618 260.518Z" fill="black"/>
<path d="M331.768 339.869C331.969 340.07 333.67 339.673 333.863 339.873C336.041 342.138 329.606 343.466 328.578 339.215C328.312 338.114 328.91 333.477 330.09 333.086C335.721 331.22 331.333 339.434 331.768 339.869Z" fill="black"/>
<path d="M372.961 300.883C373.552 301.468 372.487 306.343 369.832 305.664C366.934 304.923 371.452 299.391 372.961 300.883Z" fill="black"/>
<path d="M350.624 220.846C350.91 220.104 349.748 215.352 351.658 216.067C354.257 217.041 354.078 221.753 350.624 220.846Z" fill="black"/>
<path d="M308.723 319.353L305.924 318.997C306.336 316.928 307.374 314.816 309.418 313.877L308.723 319.353Z" fill="black"/>
</svg>
