<svg width="450" height="253" viewBox="0 0 450 253" fill="none" xmlns="http://www.w3.org/2000/svg">
<path d="M159.301 124.36C163.971 128.577 171.309 134.174 169.513 141.391C168.545 145.282 164.622 148.72 160.514 149.265C158.761 149.497 152.735 148.808 151.969 149.784C151.858 149.925 151.919 152.269 151.616 153.318C151.213 154.707 148.743 159.285 148.736 159.839C148.727 160.557 152.115 162.53 152.277 166.214C152.64 174.474 143.315 184.221 135.644 186.712C134.544 187.07 125.462 188.384 124.358 188.388C123.167 188.392 120.847 186.896 120.066 187.23C119.168 187.613 114.862 192.166 113.214 193.263C106.63 197.647 91.3072 204.134 83.575 205.036C82.7848 205.128 82.0074 204.505 81.2172 204.672C80.6618 204.79 77.4323 207.574 76.2849 208.211C70.4807 211.437 61.1649 215.881 54.7222 213.15C54.1988 210.905 66.2004 207.726 68.2933 206.795C72.8106 204.786 77.3707 201.38 81.727 199.318C84.6419 197.939 92.15 197.396 96.0645 196.146C98.9869 195.212 114.834 187.864 115.497 185.659C115.899 184.32 113.983 182.514 113.669 180.749C112.668 175.115 115.291 172.233 118.543 168.209C114.272 164.586 114.912 158.085 118.086 153.969C119.422 152.236 125.285 148.502 125.461 147.609C125.5 147.41 125.147 146.439 124.78 146.348C123.137 145.942 113.549 146.223 111.337 146.423C109.16 146.621 106.325 147.685 103.996 147.845C103.882 148.928 104.934 149.222 105.364 150.176C107.468 154.851 108.515 162.018 108.326 167.081C108.222 169.874 105.432 179.495 102.73 180.617C101.279 181.219 103.167 177.685 103.351 176.815C104.576 171.007 106.458 160.442 102.434 155.475C100.979 153.679 98.7158 154.724 98.4715 156.941C98.236 159.079 98.9585 160.216 98.3115 163.108C95.2822 176.648 83.5428 187.572 70.8171 192.616C65.1487 194.862 60.0534 195.5 54.2181 193.336C52.9442 191.745 64.4877 189.794 65.187 189.584C73.5853 187.055 84.1889 179.776 88.8221 172.463C90.2656 170.184 93.1923 164.655 93.887 162.216C94.1437 161.316 93.2408 161.285 92.9416 161.543C92.8741 161.601 92.8134 162.367 92.4426 162.751C89.1678 166.14 80.8001 172.145 76.0457 172.751C74.2025 172.986 72.1753 172.679 70.3064 172.788C71.9411 170.235 75.8382 170.501 78.3058 169.568C80.8777 168.596 90.1117 161.588 91.4497 159.363C91.9169 158.587 92.0603 158.037 91.9211 157.135C86.0277 157.144 79.5684 160.301 73.56 159.594C71.7012 159.376 68.7095 158.367 68.8009 156.159C72.8549 157.751 81.763 157.247 85.3666 154.911C86.4806 154.189 87.9756 151.452 89.0798 150.453C96.2538 143.959 106.452 144.676 113.788 137.554C114.819 136.552 115.733 135.626 116.801 134.617C116.995 134.433 119.894 130.617 119.974 130.366C120.403 129.035 120.772 122.123 120.602 120.665C120.516 119.934 120.502 119.158 119.585 118.973C118.589 126.821 114.755 132.092 105.782 130.688C104.036 130.414 103.404 129.003 101.873 128.576C100.916 128.31 100.052 128.781 99.1201 128.406C96.819 127.481 95.7527 123.348 94.2027 123.376L70.928 136.947C69.9161 137.898 63.4149 138.002 65.011 136.082C65.6129 135.358 71.1692 132.959 72.4794 132.096C73.325 131.539 78.7642 127.336 78.866 126.945C79.5059 124.485 74.3536 117.935 74.8339 117.507C79.0401 117.643 79.9375 122.238 82.1056 124.833C84.8145 122.898 91.3809 121.55 91.2265 117.503C91.1774 116.217 89.2087 108.969 88.1155 108.735C83.6766 109.579 80.2981 110.415 76.0902 112.125C62.1076 117.804 60.4648 126.864 53.7302 138.804C47.3873 150.049 39.4157 167.263 30.4097 176.046C28.7604 177.655 22.8045 182.85 20.979 183.745C19.602 184.419 17.6978 185.152 17.0967 183.206C16.2062 180.323 21.7163 176.891 23.3697 175.067C29.1561 168.683 33.9347 161.474 38.2264 154.052C45.1076 142.152 52.1526 126.084 61.2669 115.803C67.7902 108.445 78.0168 106.09 87.4052 104.288C86.4392 100.53 84.9809 96.8485 84.1077 93.066C83.3844 89.933 82.0779 84.5505 81.8808 81.5375C81.6016 77.2692 81.7025 76.6129 85.5447 74.8422C102.56 67.0008 136.37 65.2074 153.761 72.2562C156.51 73.3705 160.639 75.9747 160.775 79.1329L156.82 99.5924C157.05 100.464 160.78 100.244 161.939 100.508C165.533 101.326 169.308 103.029 170.96 106.404C173.125 110.825 173.253 113.772 170.641 118.021C168.352 121.746 163.677 123.987 159.301 124.36ZM152.671 76.4893C152.592 76.3565 150.321 75.1992 149.893 75.0388C136.371 69.9716 103.406 70.9147 90.579 77.2966C88.5384 78.3118 86.6408 79.3431 89.793 80.1945C103.563 83.9138 140.006 85.8812 151.44 78.03C151.959 77.6731 153.664 78.1569 152.671 76.4893ZM118.072 140.99H130.39C131.192 140.99 134.755 140.557 135.802 140.385C138.038 140.016 141.999 137.706 143.072 135.717C144.823 132.476 147.091 123.377 147.993 119.467C150.262 109.628 151.254 99.3545 153.393 89.4945C154.084 86.3108 155.701 82.6519 156.028 79.3371C148.014 83.7183 138.559 85.6934 129.405 86.2116C117.78 86.8698 107.737 86.0278 96.4788 83.9632C93.2946 83.3793 90.0804 82.8683 86.9011 82.2797L96.7053 117.013C99.3055 113.684 97.924 112.968 97.3784 109.96C96.4292 104.727 95.4826 99.3763 94.5875 94.1212C94.1955 91.8196 93.7365 89.5291 93.9402 87.1725C97.4316 86.4069 98.2587 96.8593 99.2323 96.9671C104.706 96.5234 99.1728 92.0878 100.477 88.6403C103.62 89.6135 105.195 91.7339 104.499 94.9962C117.451 92.089 131.125 90.1889 143.708 95.4863C144.741 94.7006 144.065 85.7593 147.734 85.7047C147.688 87.0798 147.828 88.4783 147.732 89.8565C147.122 98.5265 145.17 116.68 141.14 124.051C139.673 126.733 135.568 129.663 132.399 129.649C129.575 129.636 125.445 126.583 124.933 131.788C124.628 134.9 126.387 133.666 127.94 133.815C130.176 134.031 132.709 134.249 134.905 134.647C137.632 135.142 132.863 136.424 131.857 136.547C129.582 136.825 121.33 136.565 120.09 137.815L118.072 140.99ZM141.704 96.96C141.249 96.5429 130.81 95.0777 129.378 95.0049C124.172 94.7401 114.906 95.2932 109.894 96.5813C109.432 96.7 105.501 98.2318 105.3 98.3714C104.056 99.232 106.525 101.858 107.226 102.374C107.746 102.756 113.463 103.267 114.783 103.336C120.9 103.659 134.482 103.435 139.459 99.9072C139.576 99.3892 142.246 97.4579 141.704 96.96ZM152.765 121.42C159.687 121.642 173.435 113.961 165.071 106.753C163.755 105.619 157.029 102.218 156.012 103.784C154.907 109.675 153.047 115.389 152.765 121.42ZM132.65 107.722C130.234 107.868 129.028 107.698 130.14 110.163C128.073 109.748 128.912 110.964 128.522 111.495C127.999 112.209 126.381 111.326 126.304 113.899C126.278 114.774 126.718 115.636 126.624 116.526C128.592 115.012 130.959 111.626 132.163 109.445C132.489 108.855 132.846 108.516 132.65 107.722ZM113.393 126.164C114.7 124.776 116.977 115.046 116.477 113.446C115.957 111.783 109.959 110.919 108.507 111.372C106.537 111.987 105.143 115.35 102.951 116.244C101.234 119.004 103.694 123.262 105.38 125.697C107.399 128.613 111.068 128.634 113.393 126.164ZM131.644 116.529L125.147 121.219C124.057 122.668 125.506 124.655 125.113 126.311C126.783 126.671 125.815 125.015 126.374 123.872C126.474 123.667 128.937 120.434 129.096 120.258C129.535 119.773 130.333 120.079 130.533 119.872C130.656 119.744 131.25 117.122 131.644 116.529ZM99.9686 119.954C99.5108 119.394 96.9282 121.688 97.4612 122.624L100.974 123.863C100.649 122.435 99.5224 121.636 99.9686 119.954ZM156.467 128.574C155.571 127.855 152.523 123.914 151.512 125.338C150.543 126.702 150.135 132.23 149.505 134.149C149.251 134.922 147.633 138.132 147.163 138.72C146.623 139.396 143.755 140.842 144.723 141.959C144.943 142.214 150.31 144.026 151.149 144.274C155.169 145.462 161.014 146.097 163.826 142.213C167.949 136.518 160.202 131.571 156.467 128.574ZM133.515 145.013C130.669 145.64 131.853 148.357 130.648 149.559C129.861 150.345 127.579 150.201 126.136 151.039C125.377 151.479 120.564 156.76 120.213 157.507C119.059 159.967 118.918 162.791 121.117 164.691C127.591 170.287 138.694 165.142 143.197 159.324C144.643 157.456 146.988 151.577 145.753 149.525C144.147 146.859 141.697 146.862 139.188 146.129C137.016 145.493 136.511 144.352 133.515 145.013ZM147.231 162.031L137.299 169.241C135.204 171.428 126.148 170.836 125.085 171.542C123.893 172.334 125.485 175.987 126.186 176.883C126.691 177.528 129.5 179.431 130.284 179.746C139.855 183.582 150.388 170.989 147.231 162.031ZM124.276 179.476C123.718 178.93 122.28 176.498 121.881 175.691C121.353 174.625 121.97 172.64 120.085 172.795C119.61 175.027 117.556 182.625 121.309 182.829C122.577 182.898 128.699 182.792 129.644 182.34C129.876 182.229 130.278 181.71 130.138 181.604C128.318 181.632 125.555 180.728 124.276 179.476Z" fill="black"/>
<path d="M253.826 85.696C270.258 82.5695 269.745 107.207 256.057 107.27C254.839 107.276 255.754 106.132 254.836 106.253C255.161 109.119 257.222 111.805 256.101 114.833C254.139 120.134 241.404 124.785 236.222 123.622C232.829 122.86 228.872 118.791 227.917 115.561C227.489 114.116 227.673 112.401 227.191 110.879C227.026 110.355 227.015 109.352 226.179 110.166C225.857 110.48 224.41 117.037 223.598 118.669C223.033 119.804 219.23 125.252 218.404 125.846C217.994 126.14 213.803 127.318 213.395 127.296C213.114 127.282 213.143 126.493 212.718 126.346C211.029 125.761 209.264 126.075 208.076 124.102L214.879 119.969C217.647 116.387 220.622 113.98 221.573 109.35C221.743 108.518 221.715 108.688 220.924 108.719C218.873 108.8 216.74 109.809 214.376 109.684C209.695 109.436 205.857 106.262 205.537 101.622C205.246 97.3917 206.515 94.642 210.103 92.3262C212.295 90.911 215.944 89.3745 218.629 89.6128C216.14 83.1878 216.382 74.7597 225.044 73.5989C229.964 72.9395 231.683 74.3425 233.965 78.3523C241.115 65.1023 263.668 69.2226 253.826 85.696ZM235.727 93.5268C236.114 93.9277 238.618 92.549 239.172 92.2353C242.259 90.4879 249.495 85.6178 250.896 82.6053C254.315 75.2497 249.083 71.8921 242.411 75.325C239.164 76.9959 237.278 82.2236 236.452 85.6748C236.196 86.7476 235.351 93.1359 235.727 93.5268ZM225.019 76.9987C221.576 77.7703 220.611 82.2968 221.384 85.2272C221.711 86.4698 223.931 89.6721 224.921 90.5876C225.646 91.2583 230.214 94.2103 230.913 94.0072C232.856 93.443 235.548 74.6394 225.019 76.9987ZM240.254 96.9449C240.711 97.4796 246.002 99.6797 247.133 100.286C248.169 100.842 253.192 104.132 253.569 104.133C253.812 104.134 257.574 102.522 258.026 102.265C265.293 98.1435 263.142 87.3253 254.099 89.6389L240.558 95.9422C240.057 95.8921 240.183 96.8622 240.254 96.9449ZM218.823 104.988C220.605 104.111 230.646 99.0743 230.196 97.2087C225.394 94.2431 217.205 91.7618 212.127 95.2744C206.029 99.4924 210.794 107.358 218.279 105.752C218.674 105.667 218.683 105.056 218.823 104.988ZM250.134 115.868C251.134 114.844 251.89 112.285 251.862 110.885C251.752 105.394 241.05 101.329 236.861 99.0084C234.356 98.088 234.211 102.151 234.33 103.896C234.773 110.39 239.905 120.093 247.784 117.249C248.373 117.036 249.723 116.289 250.134 115.868ZM231.701 101.85C230.307 101.394 230.183 104.818 230.168 105.504C230.099 108.723 232.303 115.103 234.705 117.273C236.183 118.607 239.272 120.507 240.246 117.999C234.773 115.917 230.481 107.46 231.701 101.85Z" fill="black"/>
<path d="M208.901 79.1702C206.011 82.271 201.605 85.3098 199.021 88.8819C197.721 90.6792 196.462 95.1202 194.219 95.4902C191.042 96.0143 190.265 92.9479 188.483 91.3089C178.937 82.5269 164.479 76.3712 160.679 63.0773C155.512 45.0007 180.8 34.5494 190.725 50.465C193.801 46.581 197.646 41.7118 202.412 39.8294C208.095 37.5845 214.504 37.1486 220.11 39.983C221.821 40.8479 223.586 42.4709 224.315 44.2085C229.707 57.0654 217.17 70.2992 208.901 79.1702ZM193.496 87.659C198.603 81.7064 204.805 76.5392 209.838 70.5405C215.021 64.3623 228.358 46.4914 214.014 42.9822C206.767 41.2091 199.045 47.4851 195.292 52.9611C194.439 54.2051 193.472 57.3293 192.139 57.7174C191.549 57.8894 189.434 57.9989 189.033 57.7463C188.727 57.554 186.946 52.9483 185.702 51.4482C184.001 49.3956 182.257 48.0424 179.509 47.6487C178.657 47.5267 175.596 47.5873 175.013 48.1454C174.685 48.4594 172.022 53.0875 171.61 53.8904C170.596 55.8669 167.921 61.6696 167.481 63.5795C167.119 65.1484 167.24 66.1448 168.602 67.1009C170.227 67.1005 173.299 57.5612 174.645 56.3541C177.003 54.2385 176.563 58.0839 176.174 59.7992C175.611 62.2775 171.222 69.1919 172.113 71.0111C172.174 71.1345 173.573 72.8403 173.851 73.1596C174.342 73.7236 174.317 73.6181 174.901 73.2396C176.189 72.4046 178.247 65.4326 179.485 63.5106C179.793 63.0314 180.801 61.7575 181.42 62.2203C183.165 63.5251 177.071 75.2905 177.976 76.8071C178.049 76.9292 180.169 78.0473 180.411 77.8731C180.611 76.2748 181.931 75.2323 182.532 73.8149C182.759 73.2785 184.456 66.3994 185.44 67.1108C188.519 72.4965 178.554 80.1283 185.946 82.7639C186.091 80.5907 187.492 77.7323 188.669 75.8513C188.958 75.3894 188.844 74.6216 189.712 74.9424C192.457 75.9568 188.276 81.2825 188.413 83.5009C188.466 84.3529 189.202 85.923 190.216 85.7001C191.118 85.5017 192.991 78.0753 194.042 76.9199C194.375 77.1058 195.364 77.3745 195.425 77.4636C196.169 78.5455 193.16 85.7437 193.496 87.659ZM169.354 49.4984C167.831 47.9398 161.792 58.9351 165.085 60.7467C166.655 58.3916 166.666 55.4559 167.601 52.9252C168.048 51.7172 169.391 50.8766 169.354 49.4984Z" fill="black"/>
<path d="M132.148 163.503C132.878 164.25 131.975 164.362 131.431 164.54C131.027 164.672 127.608 165.497 127.401 165.481C126.645 165.421 125.815 164.305 125.618 164.473C125.432 164.632 126.029 165.643 125.117 165.449L124.107 163.009C125.619 163.523 131.478 162.817 132.148 163.503Z" fill="black"/>
</svg>
