<svg width="450" height="225" viewBox="0 0 450 225" fill="none" xmlns="http://www.w3.org/2000/svg">
<path d="M110.631 87.9934C109.337 89.2187 108.259 90.7519 106.938 91.9578C107.021 90.148 107.082 86.6841 107.851 85.0833C108.978 82.7371 115.63 79.3156 118.192 79.239C123.023 79.0944 130.35 79.348 134.261 82.4492C134.417 82.5732 135.264 82.7095 134.796 83.1793C134.672 83.3037 132.237 81.845 131.62 81.6726C128.995 80.9384 126.814 81.2382 124.231 81.8594C123.89 81.9415 123.099 81.8845 123.143 82.3271C129.232 81.8039 133.996 83.9265 139.062 86.8642C139.128 87.3917 138.491 87.0737 138.197 87.0186C136.348 86.6726 134.552 85.9415 132.665 85.7299L129.398 86.2912C130.516 86.1163 132.454 87.3711 133.248 87.4274C133.383 87.437 133.376 86.8355 133.508 86.8593C135.313 87.1834 138.071 88.2658 139.614 89.2861C140.943 90.165 142.172 91.5672 143.327 92.6671C142.258 92.7648 141.295 91.6153 140.308 91.1434C138.802 90.4235 137.118 90.0975 135.661 89.2581L132.811 89.1226C136.226 90.624 141.054 92.2699 143.761 94.7978C144.052 95.07 144.915 95.0535 144.321 95.642C142.195 95.272 140.128 94.1933 138.002 93.7191C137.717 93.6555 137.281 93.4762 137.36 93.9364C138.143 94.1095 138.833 94.9011 139.342 95.5037C140.774 97.1995 142.561 100.517 144.028 101.881C144.933 102.722 145.873 102.738 146.838 103.33C149.47 104.946 151.693 109.016 151.86 112.065C153.56 111.843 155.326 111.578 157.05 111.848C159.559 112.241 169.381 115.516 171.286 116.926C173.484 118.552 175.152 121.386 174.099 124.16C173.939 124.581 172.943 125.645 172.944 125.8C172.947 126.161 176.761 130.506 177.398 131.51C181.068 137.282 183.386 145.209 185.831 151.712C188.41 158.572 187.626 163.372 188.888 169.906C189.43 172.714 191.342 174.442 191.093 177.615C191.012 178.644 188.043 187.002 187.551 187.397C185.515 189.029 186.537 188.247 185.548 190.499C185.027 191.685 184.344 192.781 183.703 193.898L199.996 193.561C201.233 193.194 200.583 190.78 201.474 189.942C202.223 189.939 201.498 193.288 203.187 193.61C205.479 194.046 208.998 193.31 211.437 193.606L226.92 194.753C226.986 195.247 226.274 195.019 225.929 195.033C224.466 195.093 222.83 195.09 221.365 195.045C208.88 194.66 196.344 194.642 183.849 195.036L181.856 195.601L209.007 195.313C204.362 195.788 199.618 195.666 194.937 195.885C192.951 195.978 190.678 196.358 188.691 196.461C185.307 196.635 181.515 196.31 178.145 196.718C177.494 196.797 177.178 197.178 176.596 197.302C177.247 198.459 178.831 197.598 179.853 197.57C189.261 197.311 198.559 196.366 208.025 196.72L213.272 197.296C205.907 197.577 198.279 196.932 190.943 197.288C189.924 197.338 189.038 197.818 188.108 197.862C183.93 198.061 179.666 197.967 175.53 198.362L173.469 199.844C177.591 199.829 181.722 199.869 185.847 199.859C191.228 199.846 197.579 199.241 202.906 199.837C203.331 199.884 203.783 199.896 203.89 200.411C196.892 200.664 189.671 200.085 182.696 200.402C178.184 200.607 173.799 201.811 169.342 202.109C166.007 202.333 162.454 201.949 159.097 202.101C153.705 202.344 148.294 203.011 142.914 203.257C141.759 203.309 135.354 202.965 135.082 203.245C134.938 203.394 135.095 204.944 135.51 204.944H144.466L142.33 205.507L135.549 205.832C134.893 206.045 135.093 206.946 135.083 207.493H142.76C142.832 207.907 142.226 207.86 141.915 207.923C141.171 208.074 140.211 208.22 139.454 208.306C138.018 208.471 135.763 208.311 134.428 208.618C134.247 208.66 132.676 210.421 131.587 210.949C117.271 217.893 93.853 222.325 78.7904 215.842C77.9602 215.485 76.1128 214.168 75.7423 214.064C74.7014 213.772 72.5936 213.98 71.3939 213.72C72.0218 212.653 73.775 213.339 74.8057 213.153C74.804 212.895 74.5509 212.718 74.3188 212.652C73.1676 212.324 70.1864 212.983 68.6997 212.873C65.083 212.604 55.2324 210.294 52.6175 207.928C52.2945 207.636 51.5645 206.36 51.3488 206.36H46.7995C46.5482 206.36 45.7687 205.833 45.2371 206.074L45.2357 205.794H51.0645C51.3962 205.794 51.6817 203.983 51.0243 203.852C48.9441 203.957 46.9029 204.18 44.8063 204.095C44.4607 204.081 43.749 204.308 43.8155 203.814L51.494 203.107C52.2699 202.744 52.736 200.453 53.2726 199.923C53.8181 199.385 55.3494 199.548 55.1872 198.148H47.7947C47.7311 197.649 48.4374 197.879 48.787 197.865C51.0483 197.771 53.3084 197.742 55.5662 197.593L56.6088 195.602L17.6574 196.735C23.1069 196.47 28.5481 195.603 33.9931 195.305C36.4158 195.172 38.9805 195.088 41.3856 195.021C46.5001 194.88 51.6391 195.15 56.7561 195.034L57.176 194.468C54.6725 194.374 52.1348 194.585 49.6311 194.478C35.6226 193.88 23.0124 193.75 8.97223 194.172C7.97297 194.202 6.81702 194.94 6 194.041L30.1681 192.486L30.7468 185.842L30.8953 146.876L7.42195 146.047L54.1925 144.345L54.8639 143.881C55.5767 129.915 55.0019 115.863 55.1887 101.867L9.1276 101.866L12.682 101.304C19.6546 100.926 26.574 100.169 33.5769 100.452L33.2904 99.3224L32.7283 99.8852C32.1648 93.8457 32.5079 87.6952 32.4527 81.6103C32.4036 76.1909 32.3296 70.9262 32.4527 65.4928C32.4773 64.4077 32.6278 60.3471 32.3002 59.6747C32.1349 59.3355 31.7965 59.1803 31.4393 59.1163C28.6517 58.6167 25.2209 58.9335 22.3487 58.542L13.6768 57.4135C17.5164 57.4678 21.361 57.5691 25.2024 57.6821C25.8753 57.7019 26.4969 57.9731 27.1692 57.9887C36.8311 58.2128 46.4232 57.2518 56.0401 56.8415L55.6137 34.4707C56.239 37.442 56.6741 40.6216 56.8903 43.6795C57.1579 47.4644 56.8925 51.5788 57.1646 55.2992C57.203 55.8233 57.2574 56.3341 57.5015 56.8056C63.4863 57.2338 69.5175 57.1912 75.5284 57.399C80.8979 57.5845 85.4843 57.7005 90.8567 57.6803C101.341 57.6409 111.806 58.1218 122.288 57.9742C122.119 57.5358 121.858 57.1146 121.786 56.6363C121.088 51.9681 121.414 46.1091 122.006 41.4091C122.071 40.8934 121.897 40.9477 122.573 40.9866V55.2868C122.573 55.4313 123.679 57.3797 123.59 57.9931L181.369 56.9319L181.725 56.6568C182.399 50.2948 181.636 43.9242 181.855 37.5856C182.065 37.5799 182.222 38.3806 182.256 38.6044C182.672 41.3484 183.029 45.1416 183.146 47.9127C183.196 49.0928 183.242 55.7661 182.848 56.2796L182.284 55.993L182.28 57.1262L214.409 58.2631L163.498 58.6669C163.207 58.869 163.255 59.217 163.218 59.5207C162.742 63.4532 163.479 67.7807 163.528 71.6992C163.628 79.7863 162.813 89.3383 163.521 97.1918C163.647 98.5948 163.938 100.11 165.295 100.805C173.893 101.368 182.602 101.207 191.25 101.291C196.269 101.339 201.265 101.357 206.294 101.289C207.998 101.266 217.337 101.059 218.111 101.44C218.243 101.504 218.471 101.808 218.391 101.866L199.088 102.748L199.627 144.202C199.546 144.58 198.442 143.378 198.771 144.91C206.697 144.914 214.606 145.32 222.511 145.763L224.929 146.324L186.832 145.758L190.388 145.198C192.844 145.205 195.441 145.097 197.784 144.635C198.733 143.702 198.52 133.45 198.502 131.447C198.494 130.639 198.198 129.943 198.192 129.207C198.123 120.287 198.486 111.317 197.921 102.434C182.729 102.572 167.574 102.258 152.429 101.3L155.131 100.739C156.393 100.512 160.977 101.148 161.675 100.46C162.057 100.084 162.345 96.6533 162.39 95.7924C162.984 84.6159 161.852 72.6084 162.08 61.2202C162.107 59.8934 163.014 58.8695 161.084 58.5588C155.394 57.643 147.41 59.2202 141.469 58.5317C128.044 59.6029 114.566 58.8506 101.118 58.5317C96.0309 58.411 90.9685 58.7514 85.8932 58.8252C85.6952 60.125 86.1547 61.3681 86.1926 62.636C86.2436 64.3463 85.9022 65.9173 85.8828 67.4516C85.8473 70.2658 86.2068 73.857 85.905 76.5352C85.8572 76.9592 85.8458 77.4089 85.3287 77.5159C84.9969 71.3925 85.1233 65.2234 84.9175 59.0917C84.5462 58.5625 77.6635 58.8903 76.3579 58.8382C72.4058 58.6805 68.382 58.0926 64.4396 57.9653C54.2693 57.6369 44.1923 58.8939 34.0447 59.1494C33.5525 59.31 33.3272 62.1484 33.2822 62.9208C32.6689 73.4511 33.9235 84.3803 33.5666 94.9428C33.78 96.8633 34.0425 98.5614 34.9707 100.277C45.3676 100.749 55.9157 101.429 66.4147 100.739L68.5492 101.3C64.4597 101.129 60.4151 101.898 56.3245 101.869V142.221C56.3245 142.302 56.6983 143.653 56.7586 143.771C57.2351 144.705 58.6504 144.197 59.5293 144.41L62.294 145.192L31.8724 146.61V190.927C31.8724 191.013 32.484 192.4 32.5743 192.493C33.1097 193.047 37.6669 192.704 38.8501 192.756C44.0127 192.981 53.4252 194.228 58.1664 193.328C58.8157 193.205 60.7968 191.471 61.8144 191.014C64.234 189.928 66.0351 190.383 67.9946 189.807C69.3188 189.418 71.1186 187.225 72.8134 187.101C72.4507 186.512 71.486 186.524 70.8389 186.099C66.7638 183.426 72.0059 178.734 72.4208 176.066C72.9508 172.659 72.371 173.196 74.0135 169.749C75.7257 166.157 73.8248 161.423 77.5373 157.685C78.0411 157.177 78.7858 157.067 79.0692 156.524C71.0601 155.382 65.1857 150.027 66.6279 141.439C67.1531 138.311 72.0612 135.314 74.0784 133.002C74.9269 132.029 75.5096 130.369 76.2816 129.249C78.2885 126.337 80.5512 124.957 84.1914 124.945C81.7153 121.553 80.5333 117.397 80.7738 113.197C80.4322 113.252 79.9815 114.146 79.8734 114.42C79.3088 115.854 79.2824 117.193 79.3554 118.718C79.3718 119.061 79.7105 119.904 79.6384 119.99C79.2014 120.512 79.0289 119.621 78.9395 119.428C77.2706 115.83 75.8657 112.288 77.1593 108.319C77.7893 106.386 79.2879 104.86 80.4923 103.288C79.798 102.746 75.7805 106.528 75.2503 107.267C74.845 107.833 73.7152 111.015 73.3826 109.092C72.6858 105.063 75.4329 99.9728 78.4985 97.4762C79.7041 96.4943 81.0687 96.0473 82.1982 95.0756C78.654 95.6025 74.5394 96.5462 72.1033 99.319C71.7762 98.2245 73.1559 96.7898 73.9498 96.0609C77.5344 92.77 83.6025 92.0142 88.1675 90.822L83.1779 90.2949L81.3454 90.8223C83.537 88.8454 88.1697 91.0249 90.4438 88.5625L88.7379 87.9963L93.0012 88.2753C92.9656 86.7785 90.5135 87.0233 89.4477 87.1433C87.5482 87.357 85.8525 88.8482 83.9057 88.7027C86.7078 85.6031 91.198 84.0974 95.2748 85.1613C94.6778 83.2273 94.6295 81.9088 95.8476 80.2077C96.1567 79.7762 97.4101 78.4009 97.8349 78.7888C96.844 80.0769 95.1616 82.6555 96.6962 84.0289C96.7127 82.7912 96.4811 81.3501 97.4112 80.3491C97.8168 80.9353 97.8338 81.7318 98.2748 82.318C99.3429 83.7379 99.1726 82.4151 99.6958 81.7773C101.524 79.5487 104.761 77.2991 107.376 76.109C108.186 76.1228 107.914 76.109 107.445 76.4623C107.014 76.7862 105.822 77.6894 105.644 78.0942C105.491 78.4446 105.823 78.8894 105.793 78.9187C105.411 79.2897 104.274 79.2442 103.464 80.7134C103.155 81.2733 102.386 83.9404 102.671 84.3107C103.071 84.8295 103.309 83.905 103.41 83.7813C104.425 82.5387 105.247 81.0978 106.515 80.0715C110.392 76.9355 116.106 76.1101 120.865 77.0898C119.601 77.7167 118.039 77.6008 116.599 77.938C113.581 78.6449 109.325 80.7755 107.358 83.1761C104.605 86.5362 104.67 90.419 104.942 94.5063C103.598 93.4717 103.561 91.4986 102.73 90.0569C101.874 88.57 99.4308 86.8341 100.537 84.8756L101.245 86.293C101.421 84.9245 100.515 83.6251 101.248 82.3327C98.3006 83.4814 100.327 86.9227 100.678 89.1243L98.122 88.7L102.954 92.5214C101.083 91.5747 99.2422 91.253 97.2738 90.6774C96.6242 90.4875 95.9938 89.8871 95.3553 89.7564C94.1862 89.517 92.7841 89.7912 91.5812 89.6953C92.1008 90.6827 93.5789 90.1276 94.5366 90.2886C96.881 90.6826 99.7912 92.044 101.533 93.654C96.3144 92.165 89.8053 93.9822 85.8947 97.6185C90.5699 95.4671 95.4599 95.1404 100.466 96.2762C100.872 96.3684 101.984 96.5948 102.1 97.0521C101.018 97.0599 99.8219 96.6089 98.7635 96.5847C98.4332 96.5772 98.1898 96.7733 98.1206 96.7718C98.2239 96.1521 98.1689 96.266 97.7017 96.2028C96.2243 96.0028 94.7707 96.6995 93.2885 96.4915C93.222 96.9856 93.9337 96.7576 94.2794 96.7717C95.5554 96.8238 96.846 96.7443 98.1206 96.7718L91.8631 98.0437C90.454 98.5458 88.8001 99.2096 87.8851 100.45L90.876 99.8919L91.0141 100.451C89.3582 100.544 87.6433 101.496 86.3695 102.484C85.7222 102.985 83.9174 104.768 83.6222 105.412C83.5659 105.535 83.5503 105.877 83.7608 105.832C84.3967 105.318 87.6391 102.321 88.1691 102.721L87.7447 103.57C89.7157 102.884 91.7526 102.372 93.8586 102.86C87.0168 104.071 82.442 111.042 83.9878 117.785C84.1308 118.409 84.4733 119.627 85.0389 119.99C84.7485 117.335 84.4441 114.842 85.39 112.269C86.3552 109.642 90.2293 105.41 93.0027 104.703C91.741 106.122 90.3322 107.431 89.8725 109.37L91.8643 107.817C90.2403 112.043 89.9647 116.08 90.4467 120.557L91.7865 112.976C92.1216 111.969 92.5737 110.884 93.5687 110.364C92.9743 112.923 92.8033 115.801 93.0063 118.431C93.0357 118.812 93.1446 120.145 93.5685 120.274C93.7828 118.008 93.641 112.941 94.6482 111.012C95.7664 108.87 95.804 112.18 95.9288 112.972C95.9815 113.307 96.0001 114.346 96.4118 114.327C96.3627 111.334 95.3498 108.812 96.4179 105.835L96.8412 107.535L97.549 105.835L97.4085 108.664C98.7013 107.152 99.4348 105.144 100.961 103.851C100.848 104.73 100.017 105.297 99.6859 106.118C98.7644 108.4 99.3002 112.902 100.257 115.174C101.783 118.8 104.573 119.887 107.502 122.117L105.799 122.398C107.732 124.058 106.759 127.724 110.345 127.357C110.429 127.777 110.019 127.641 109.726 127.723C108.825 127.975 107.398 128.012 106.665 128.361C106.226 128.569 104.138 131.213 104.139 131.463C104.14 131.594 105.435 132.878 105.713 132.96C106.328 133.14 107.508 133.056 108.185 132.988C111.617 132.642 113.086 130.021 116.79 129.924C118.941 129.867 119.854 130.774 121.426 131.185C123.539 131.737 127.613 129.053 130.425 128.806C133.279 128.555 135.902 129.801 138.779 129.051C138.375 128.238 138.533 127.355 138.369 126.489C138.246 125.837 137.358 123.415 137.366 123.246C137.383 122.856 137.685 122.855 138.069 123.106C139.135 123.803 139.317 125.274 140.593 125.076C142.468 124.786 145.828 121.525 146.796 119.905C151.494 112.046 145.225 100.599 137.263 105.881C135.076 107.332 132.083 112.435 132.242 115.029C132.286 115.746 133.041 117.812 132.521 118.292C131.952 118.816 131.616 116.751 131.437 116.401C130.451 114.474 129.178 112.644 127.547 111.215L128.403 113.761C126.769 112.905 125.368 110.802 123.427 111.071L124.703 112.349C123.994 112.37 122.637 111.544 122.134 111.5C122.005 111.488 122.022 111.944 121.943 111.988C121.302 112.348 118.864 111.069 118.024 110.933C119.014 111.406 118.842 112.255 118.913 112.313C119.096 112.46 122.993 113.02 120.88 113.62C117.783 114.499 111.741 110.35 109.49 108.244L107.504 106.119C107.79 106.898 107.868 107.521 108.354 108.243C108.893 109.042 113.86 112.983 114.817 113.416C116.29 114.083 118.424 114.627 120.015 114.897C120.305 115.837 118.469 115.485 117.949 115.393C114.834 114.842 112.214 112.646 110.203 110.365C108.448 112.05 112.036 112.997 113.285 113.809C114.232 114.425 114.821 115.569 116.025 115.895L120.865 116.024C118.009 117.122 115.505 116.866 112.709 115.799L108.072 113.199C109.321 115.148 111.491 116.001 113.19 117.441C111.45 117.753 110.383 117.06 108.92 116.457C108.673 116.355 108.285 116.524 108.065 116.42C107.229 116.027 106.931 114.486 106.085 114.046C106.475 115.659 106.994 117.363 108.355 118.436C108.4 118.646 108.06 118.628 107.934 118.574C107.62 118.438 105.187 115.4 104.827 114.87L103.526 112.631C104.263 117.28 109.23 121.481 113.914 121.701C114.849 121.745 119.008 120.633 120.199 120.318C120.729 120.179 124.51 118.329 124.155 119.719C123.764 121.254 121.244 122.832 119.794 123.313C113.893 125.273 112.924 123.376 108.449 120.608C107.609 120.089 106.447 119.905 105.531 119.266C101.976 116.784 101.064 112.068 101.555 107.98C101.601 107.601 102.266 104.818 102.39 104.702C102.836 104.28 103.47 105.747 103.535 105.962C103.775 106.758 103.705 107.979 103.94 108.411C104.071 108.654 104.522 108.401 104.598 108.468C105.069 108.883 105.799 110.396 106.569 110.595C106.979 110.701 108.039 110.329 108.639 110.646C108.438 109.514 107.47 108.811 107.285 107.604C107.084 106.29 107.716 105.38 107.222 104.135C108.116 104.357 109.467 106.806 109.924 106.964C110.499 107.163 110.293 106.347 110.483 106.397C111.146 106.571 113.685 108.348 114.606 108.813C115.407 109.217 116.243 109.791 117.169 109.795L112.472 106.407C110.451 104.409 108.473 102.295 106.935 99.8895C107.642 99.2956 111.754 104.356 112.765 104.699C113.227 104.416 112.67 104.074 112.481 103.849C111.852 103.1 110.997 102.47 110.348 101.726C110.303 101.512 110.622 101.544 110.768 101.59C111.77 101.903 114.642 104.542 116.127 105.315C117.5 106.029 119.365 106.87 120.865 106.826C118.485 105.643 115.853 102.953 120.58 104.984L120.298 103.854C123.574 103.228 125.108 105.231 127.404 106.966C126.621 104.24 122.317 103.786 120.863 102.297C120.299 101.72 120.703 101.77 121.177 101.985C121.714 102.228 122.512 102.995 123.14 102.578C121.473 101.302 119.792 100.398 118.594 98.6111C119.712 98.4783 121.141 99.5209 122.154 100.162C125.172 102.07 128.024 104.311 130.393 106.965C130.739 106.774 130.339 106.134 130.25 105.833C130.797 105.813 131.407 108.058 131.951 107.531C133.353 106.176 130.288 102.628 128.831 102.152C128.973 103.517 129.853 104.504 130.25 105.833C126.835 102.152 124.755 100.517 120.191 98.4363C119.342 98.0495 118.333 97.1242 117.464 96.9044C115.631 96.4406 113.388 96.5773 111.486 95.6359L114.455 95.3428C115.452 94.5688 117.396 94.8324 118.481 95.3253C119.077 95.5962 120.411 97.1266 121.227 97.6871C122.823 98.7823 124.795 99.9521 126.553 100.733C125.503 99.2593 123.685 98.7833 122.29 97.7616L125.7 98.7512L123.71 97.0576C124.2 96.9761 125.472 97.834 125.698 97.0585L121.437 95.642L130.965 97.6173C131.251 96.2876 128.738 96.4716 128.261 95.6418L133.092 96.3483C129.672 93.4546 125.217 92.5751 121.009 91.3915H116.886V91.1083H122.573L122.571 90.8283C121.83 90.9043 120.429 90.2588 119.872 90.2588H115.749L123.555 89.3989C125.717 89.2389 127.797 89.8803 129.847 90.2369C130.131 90.2863 130.895 90.4605 130.817 89.9788C129.025 89.6765 127.387 88.7409 125.556 88.5621C123.277 88.3396 117.981 88.6106 115.609 88.8456C113.226 89.0818 110.465 90.4674 108.644 91.9577C108.536 91.4523 108.904 91.2638 109.205 90.9622C111.903 88.2599 114.99 87.1801 118.022 85.0187C115.7 84.4746 112.425 87.7185 110.631 87.9934C111.892 86.7988 113.369 85.6226 114.807 84.6487C115.616 84.1015 116.558 83.8504 117.17 83.1821C113.651 83.3416 111.924 85.1468 110.064 87.8532C110.049 88.0914 110.448 88.0215 110.631 87.9934ZM124.277 85.1646C122.526 85.2109 120.27 85.6204 118.587 86.1478C118.161 86.2812 117.576 86.3328 117.455 86.858L124.277 85.1646ZM96.6989 87.9906C95.9116 86.86 94.2298 86.8066 93.0042 86.8622C92.8657 87.7138 93.2127 87.3175 93.6933 87.4349C94.6711 87.6737 95.706 87.8288 96.6989 87.9906ZM135.65 97.0535C136.112 96.6104 134.073 95.3166 133.833 95.0435C133.583 94.7593 133.532 94.2311 133.107 93.7841C132.534 93.1812 131.673 92.3927 130.818 92.2438C131.295 93.1409 132.614 93.5056 133.113 94.3585C133.346 94.7568 133.045 95.0251 133.493 95.6453C133.724 95.9654 135.315 97.3755 135.65 97.0535ZM131.952 102.435C133.213 100.218 131.088 100.204 129.399 99.6037L131.952 102.435ZM127.974 105.549C128.57 104.944 124.81 102.636 123.996 103.004L127.974 105.549ZM125.416 108.096C124.548 106.797 122.601 106.387 121.151 106.119L122.007 106.822L125.416 108.096ZM113.472 110.081C113.959 109.586 110.522 107 109.778 107.252C110.66 108.561 112.257 109.14 113.472 110.081ZM78.4992 114.895C78.6748 112.627 80.0762 110.76 80.7739 108.665C79.204 109.716 77.8715 112.283 77.9225 114.181C77.938 114.758 77.7386 115.009 78.4992 114.895ZM159.534 115.464C156.992 115.773 155.195 114.36 152.898 116.355C151.041 117.966 151.556 120.044 150.437 121.971C152.583 121.188 154.32 119.624 156.413 118.723C158.274 117.923 160.68 117.254 162.661 116.874C162.728 116.464 162.16 116.482 161.867 116.399C160.942 116.137 159.932 115.997 158.968 116.025L159.534 115.464ZM95.2779 124.809C95.1179 125.74 95.6598 130.257 97.1157 129.903C97.2723 129.865 98.455 128.006 99.3395 127.577C101.304 126.626 106.261 127.82 106.101 124.104C106.015 122.088 104.219 121.94 103.096 121.125C101.484 119.957 100.593 118.146 98.6908 117.445C98.7502 120.753 100.113 124.055 99.538 127.354C98.8963 127.471 99.0863 127.321 98.9065 126.994C98.1096 125.541 98.1078 123.373 97.1241 121.976L97.835 127.636C97.0556 127.792 97.3479 127.436 97.1458 127.064C96.7545 126.343 96.5454 125.795 95.9268 125.169C95.77 125.011 95.9441 124.607 95.2779 124.809ZM171.725 122.784C172.605 121.418 169.653 118.835 168.298 118.486C166.092 117.917 162.053 118.292 159.767 118.666C154.628 119.505 150.819 122.762 146.835 125.891L143.329 127.918C145.941 127.415 149.024 126.895 151.519 126.025C155.57 124.613 158.273 122.41 162.882 121.485C164.886 121.082 168.014 120.324 169.634 121.687C170.071 122.055 171.009 123.895 171.725 122.784ZM89.8739 119.991C89.0576 118.934 89.6278 121.804 89.6763 122.031C89.8343 122.768 90.0578 124.09 90.7254 124.521L89.8739 119.991ZM87.6004 123.671L85.7524 120.281C85.1477 120.717 85.3691 120.79 85.5486 121.325C85.6811 121.719 87.0323 124.197 87.6004 123.671ZM169.483 130.469C169.69 129.666 169.954 129.39 169.504 128.616C169.337 128.329 166.085 125.648 165.779 125.525C164.782 125.127 162.591 125.402 161.606 125.878C160.522 126.402 159.369 128.063 158.248 128.48C156.534 129.118 154.007 128.568 152.144 129.056L158.129 129.746L159.251 130.467C158.593 130.456 157.144 129.691 156.694 130.466L158.953 131.191L162.945 131.882C159.665 133.808 155.997 132.544 152.428 133.588C153.68 135.524 156.603 140.569 153.011 141.67C150.927 142.31 149.477 140.601 149.301 144.061C154.945 143.299 159.347 140.24 163.094 136.137C164.053 135.086 164.983 133.346 165.926 132.445C166.201 132.182 166.774 132.185 167.068 131.883C167.829 131.102 167.382 128.998 169.483 130.469ZM83.0499 126.791C81.3653 126.49 80.248 127.888 79.3551 129.051L83.0499 126.791ZM146.741 151.141H139.348L142.905 151.705L147.164 151.71L150.437 152.274H144.182L147.44 152.852L153.563 152.56C153.574 152.983 152.553 152.973 152.198 153.036C146.3 154.079 142.159 152.142 136.654 151.974C136.021 151.955 135.039 151.82 134.8 152.554C137.497 153.132 140.402 155.309 143.027 155.83C149.295 157.075 157.5 154.84 162.86 151.479C164.641 150.363 166.97 147.274 168.181 145.452C169.851 142.941 170.976 140.15 172.474 137.55L171.578 143.455L170.196 147.458C173.635 144.052 175.327 137.621 174.588 132.893C174.417 131.793 170.29 127.379 169.773 127.922C169.653 128.632 170.508 128.993 170.491 129.643C170.333 135.911 162.045 143.217 156.601 145.529C151.198 147.824 145.643 146.763 140.788 149.319L135.651 150.293C135.183 150.647 135.682 150.809 136.073 150.859C139.162 151.25 143.026 150.156 146.319 150.574C146.737 150.627 147.202 150.794 146.741 151.141ZM94.4223 131.323C93.4135 131.318 92.9635 130.361 92.2451 129.95C88.1139 127.583 84.9065 129.275 81.0581 131.177C83.2837 131.563 85.4428 130.783 87.7197 131.059C89.5687 131.282 92.6833 132.626 94.2791 132.74C94.4577 132.753 94.748 132.817 94.7074 132.595L93.5715 131.605L94.4223 131.323ZM156.407 131.039C153.668 130.107 150.767 129.767 147.879 129.905C147.721 130.721 148.114 130.357 148.502 130.543C149.111 130.834 150.598 131.846 150.879 131.892C151.229 131.948 154.808 131.679 155.423 131.613C155.848 131.566 156.3 131.553 156.407 131.039ZM138.209 131.889C135.08 131.083 131.357 129.838 128.242 131.443C127.574 131.787 127.2 132.405 126.623 132.663C123.894 133.879 120.643 133.635 118.475 136.441C116.16 139.437 116.552 144.966 120.035 147.014C120.761 147.441 127.965 150.777 128.422 150.843C129.569 151.011 133.558 150.191 133.338 148.787C133.081 147.14 126.268 143.112 127.125 142.08C128.572 143.305 130.669 143.857 132.168 144.842C134.109 146.118 133.743 147.213 136.651 147.454C140.938 147.809 140.645 145.598 139.201 142.368C137.985 139.648 134.492 139.578 132.457 137.836C132.242 137.653 131.421 136.73 131.817 136.413C134.936 137.622 138.021 138.401 140.194 141.095C141.834 143.128 142.822 147.031 146.432 145.029C148.668 143.789 147.101 139.544 145.742 138.118C143.196 135.447 138.743 133.061 135.085 132.448L138.209 131.889ZM139.065 132.164C139.182 132.286 141.597 133.105 142.196 133.438C143.077 133.927 145.197 135.145 145.877 135.719C147.672 137.235 148.111 140.193 151.162 140.111C154.233 140.028 151.018 135.006 150.013 133.864C148.955 132.663 146.275 130.749 144.642 130.778C143.58 130.797 140.726 131.384 139.496 131.612C139.137 131.679 138.603 131.685 139.065 132.164ZM104.376 133.298C102.32 131.071 98.6946 132.994 96.1332 131.319C95.559 131.88 99.0683 133.44 99.4671 133.516C101.175 133.839 102.687 133.142 104.376 133.298ZM120.013 132.456C119.695 132.111 116.54 132.078 115.906 132.183C112.72 132.715 111.238 137.835 111.19 140.538C111.123 144.302 113.631 150.04 117.887 150.574C119.348 150.757 116.799 148.875 116.645 148.692C114 145.541 113.894 139.256 116.253 135.927C117.353 134.373 118.323 134.144 119.654 133.099C119.823 132.967 120.423 132.901 120.013 132.456ZM93.0027 134.714C92.6532 134.016 91.2911 134.028 90.5451 133.908C86.1915 133.212 79.5361 133.398 75.7938 135.843C73.2454 137.507 69.595 140.602 69.7117 143.874C69.9409 150.299 75.8361 153.65 81.6269 154.256L80.2097 153.403L81.0589 152.844L73.2387 150.295C71.0244 146.067 71.6906 140.346 76.1357 137.882C77.2987 137.238 81.4488 135.703 82.7447 135.403C85.8297 134.688 89.8007 135.123 93.0027 134.714ZM114.612 152.271C113.028 150.45 110.926 149.062 110.199 146.615C109.344 143.733 109.785 139.258 110.201 136.257C110.279 135.696 111.035 135.217 110.215 134.758C108.266 135.137 106.26 135.295 104.304 135.636C103.443 135.787 102.536 136.722 102.245 135.568C101.229 137.006 99.2601 136.258 97.6972 136.419C93.349 136.867 86.2894 137.831 82.5655 140.038C80.6528 141.172 82.4591 140.964 82.4771 141.371C82.4981 141.846 81.0286 141.489 81.3445 142.361C84.5004 142.833 87.6658 143.052 90.867 142.926L93.0013 142.366L87.1769 142.36L83.0527 141.799C84.8886 141.719 86.7571 141.901 88.5928 141.794C90.186 141.7 92.1189 141.278 93.7018 141.218C96.7492 141.104 99.7374 141.621 102.78 141.531C102.889 140.659 105.125 136.81 106.082 137.552L105.799 138.68L107.503 138.118C104.286 143.845 106.505 153.705 114.612 152.271ZM87.3162 136.699H83.1935C82.1338 136.699 78.4829 138.037 77.637 138.809C76.7036 139.66 76.8899 141.566 77.82 141.775C78.3479 141.893 86.4723 137.671 87.3162 136.699ZM167.781 153.687C170.896 153.999 175.362 152.57 177.287 149.99C178.882 147.853 178.842 141.968 177.02 139.816C176.514 144.49 176.128 149.655 171.737 152.392C171.354 152.631 170.504 153.299 170.057 152.983C170.676 152.288 171.445 151.709 172.038 150.992C172.285 150.694 173.094 149.847 172.758 149.443L167.781 153.687ZM100.395 141.796H93.9979C93.8988 141.796 93.5775 142.169 93.2877 142.083C93.6222 143.105 94.2937 142.363 94.5665 142.363H100.395V141.796ZM103.81 144.346C103.588 145.797 103.177 147.214 104.518 148.304L104.674 147.309L103.81 144.346ZM103.523 148.307C103.008 147.875 102.917 145.57 102.817 145.463C102.407 145.028 96.5156 145.13 95.4222 145.197C88.881 145.601 83.8282 147.087 76.9865 146.215C75.9755 146.087 71.9814 144.412 74.2336 147.323C76.9978 150.895 87.5717 149.657 91.7115 149.43C92.9322 149.364 94.1974 149.542 95.4149 149.437C98.0038 149.216 100.882 148.473 103.523 148.307ZM171.479 155.67C172.813 155.559 173.957 156.025 175.308 155.953C178.639 155.776 182.357 152.802 179.442 149.726C178.388 153.554 175.019 153.975 171.897 155.101C171.534 155.232 171.373 154.904 171.479 155.67ZM107.786 152.844C106.596 152.849 106.175 151.406 105.102 151.407C104.624 151.408 104.126 151.722 103.652 151.722C98.4724 151.717 94.3563 152.929 89.4459 153.121C87.0171 153.215 84.6043 152.975 82.1954 152.982C82.1924 153.077 83.6459 153.744 83.9042 153.832C88.845 155.509 101 154.256 106.421 153.319C106.773 153.258 107.798 153.265 107.786 152.844ZM143.332 163.882C142.647 162.138 142.139 159.995 140.738 158.677C139.807 157.801 132.684 154.427 131.345 154.156C126.216 153.119 117.143 153.995 113.481 158.085C110.957 160.904 109.11 164.333 108.644 168.132L110.914 166.856C110.483 167.796 108.585 168.297 108.142 168.766C107.693 169.243 106.97 171.684 106.366 172.376C108.234 171.717 109.744 170.717 111.71 170.197C116.994 168.798 124.261 169.271 128.544 172.943C126.423 172.238 124.259 170.871 122.019 170.524C118.154 169.926 111.568 170.699 108.381 173.112C108.056 173.358 106.045 175.157 106.369 175.494C111.745 173.376 118.151 173.612 123.429 175.919C121.731 175.883 120.119 175.103 118.413 174.964C114.951 174.681 106.732 175.675 104.537 178.628C101.771 182.349 105.94 184.834 108.214 187.382C108.867 186.88 108.518 186.968 108.245 186.509C107.386 185.067 106.195 183.984 106.376 182.018C111.907 180.464 117.801 180.465 123.132 182.725C127.512 184.583 133.259 187.732 134.802 192.484C136.537 191.63 138.207 187.329 136.651 185.97C135.882 185.299 135.164 186.094 134.645 185.72C134.198 185.398 133.411 183.096 132.928 182.313C130.052 177.651 126.381 175.547 122.006 172.519C123.944 172.56 126.448 174.15 128.069 175.259C131.786 177.801 133.82 181.062 136.662 184.257C137.11 184.76 137.147 185.463 137.639 185.687C138.385 176.018 134.979 169.009 129.104 161.769C128.914 161.535 126.108 159.126 127.547 159.077C127.801 159.068 131.254 161.604 131.685 162.03C135.391 165.699 138.985 172.585 139.636 177.758C140.092 177.712 140.17 176.54 140.198 176.199C140.63 170.99 139.318 166.517 137.076 161.902C140.376 165.446 142.686 170.921 142.479 175.776C142.876 175.82 142.954 175.101 143.052 174.795C143.572 173.168 143.703 171.534 143.616 169.832L144.463 171.245L145.031 165.302C145.127 167.017 146.159 168.682 146.383 170.329C146.967 174.622 144.633 179.961 144.185 184.272C147.23 181.947 149.085 178.228 149.018 174.361C150.21 175.535 149.856 178.452 149.516 180.099C149.167 181.792 148.223 183.264 147.596 184.839C148.727 184.052 149.6 182.921 150.399 181.817C150.719 181.375 150.616 180.449 151.285 181.011C150.303 185.404 145.53 189.334 141.338 190.499C141.876 189.701 142.006 188.913 141.906 187.953C141.599 188.006 140.972 187.846 140.801 187.986C140.621 188.133 139.862 191.856 139.634 192.483C144.257 191.643 148.94 189.258 151.718 185.406C151.778 186.808 150.098 188.88 149.164 189.942C149.025 190.1 147.01 191.414 148.015 191.348C149.763 190.295 151.149 188.823 152.573 187.391L154.983 183.708C154.57 188.443 150.821 191.667 146.65 193.385C145.046 194.046 143.561 194.222 142.007 194.708C141.629 194.827 141.142 194.808 141.054 195.313C144.033 195.281 147.052 194.872 149.866 193.897L148.163 193.337C149 193.056 149.957 192.761 150.737 192.359C151.345 192.046 151.966 191.124 152.426 191.492L151.007 192.911C151.769 193.075 153.09 192.006 153.824 191.469C154.897 190.685 155.902 189.75 156.836 188.805C157.298 189.088 156.741 189.431 156.552 189.655C154.645 191.921 152.061 193.697 149.401 194.993L145.605 196.446C152.03 197.572 158.628 195.991 162.807 190.787C163.172 190.961 162.836 191.567 162.724 191.838C161.751 194.194 158.866 196.593 156.41 197.302C156.345 197.829 156.989 197.525 157.275 197.456C159.022 197.038 160.679 196.154 162.379 195.602L161.618 196.4L158.399 198.428C164.294 198.438 173.273 198.629 175.308 191.627C176.128 188.805 175.616 186.966 173.608 184.84C173.428 187.232 173.3 190.086 171.196 191.635C170.991 191.361 172.271 186.801 170.911 186.255C170.783 189.103 168.925 192.232 166.075 193.048C170.614 188.719 170.093 181.658 166.078 177.193C166.173 178.128 165.924 179.263 166.081 180.16C166.152 180.564 166.707 181.073 166.644 181.151C166.609 181.194 166.01 181.13 165.836 181.622C165.147 183.567 165.688 186.221 163.234 187.67C165.595 182.371 165.309 174.965 161.247 170.533C160.629 169.858 159.937 169.08 158.967 168.978C159.797 167.529 162.91 170.28 163.804 171.101C168.024 174.977 170.341 179.265 175.656 182.517C178.03 183.97 183.586 187.064 185.467 183.622C187.007 180.802 187.544 176.284 186.543 173.231L185.562 175.505C180.041 180.783 172.096 176.96 167.781 172.099C168.005 171.899 171.567 174.659 172.193 174.924C172.987 175.26 171.949 174.075 172.751 174.365C175.491 175.356 177.876 176.45 180.978 176.036L183.702 174.931C180.065 174.164 175.82 173.327 172.335 171.95C168.302 170.355 165.608 167.93 162.132 165.687C158.963 163.644 155.551 162.669 151.86 161.904L153.425 163.315C158.684 168.926 163.955 177.205 161.093 185.116C160.565 186.577 159.411 188.551 157.829 189.084C159.607 186.69 160.92 184.094 160.682 181.004C160.528 179.002 159.903 179.449 159.444 178.537C159.099 177.849 158.991 176.567 158.614 175.703C156.742 171.41 148.463 161.476 144.097 159.862C143.742 159.731 143.45 159.559 143.044 159.639C143.335 160.313 143.528 161.03 143.609 161.763C143.656 162.181 143.842 163.708 143.332 163.882ZM176.169 162.185C177.521 162.395 179.799 162.185 181.286 162.185C181.831 162.185 184.346 160.721 184.442 160.073C184.519 159.55 183.391 154.164 182.991 153.974C181.408 157.156 180.322 160.035 176.592 161.194C176.612 161.756 182.717 160.944 183.419 160.489C183.302 160.883 181.414 161.902 181.286 161.902H176.453C176.298 161.902 175.833 161.474 175.459 161.621C175.219 161.735 175.933 162.148 176.169 162.185ZM176.025 157.091C174.66 157.186 173.324 156.962 171.993 156.715C170.507 156.439 166.896 155.108 165.921 155.141C165.755 155.146 163.881 155.878 163.801 155.959C163.294 156.48 163.977 156.426 164.222 156.523C167.552 157.843 171.331 158.893 174.882 157.789C175.179 157.697 176.032 157.469 176.025 157.091ZM104.942 163.601C103.753 162.21 101.95 158.606 99.9626 158.227C97.2645 157.712 91.6836 158.294 88.584 158.232C86.4554 158.19 84.194 157.353 82.0861 158.253C77.6273 160.156 78.5939 164.443 77.8665 168.207C77.5102 170.05 76.1842 172.045 75.7792 173.501C75.5352 174.379 76.3684 176.559 75.0902 177.757C80.0705 176.726 85.173 177.271 89.9491 178.96C91.6401 179.558 92.9898 180.514 94.5633 181.161C96.4829 181.95 98.6157 182.27 100.392 183.423C99.7469 181.005 99.4809 179.251 97.9545 177.217C96.2984 175.01 94.6943 174.277 92.9134 172.681C92.6145 172.413 92.6752 171.917 92.3062 171.521C91.8706 171.053 90.8896 170.806 90.4451 170.254C90.9192 169.906 91.6789 170.648 92.0716 170.9C95.223 172.917 97.5724 175.803 99.9688 178.604C100.503 178.132 100.752 177.555 100.632 176.841C100.361 175.234 96.2411 170.164 94.8424 168.99C92.8042 167.278 90.5122 166.579 88.4536 165.019C94.647 164.698 98.9478 169.719 102.098 174.361C100.33 169.752 99.2061 164.844 95.8461 161.055C96.0581 160.859 97.5652 162.127 97.8071 162.356C99.7899 164.228 102.072 167.383 103.479 169.736C103.837 170.333 103.664 171.401 104.369 170.826C104.022 167.073 103.239 163.216 100.395 160.489L102.673 161.757L105.51 165.015C105.078 163.245 105.479 161.589 104.662 159.921C105.072 159.501 106.191 161.167 106.415 161.429C106.627 161.677 106.972 162.348 106.929 161.484C106.189 159.292 104.029 158.39 101.818 158.505C101.387 158.882 105.735 162.334 104.942 163.601ZM184.555 162.185C179.953 163.127 175.183 162.863 170.565 162.102C165.967 161.345 161.216 159.809 156.516 159.389C154.78 159.234 153.294 159.777 151.576 159.639C152.293 160.582 154.004 160.095 155.094 160.237C162.993 161.266 167.288 163.097 174.228 166.666C177.165 168.177 178.565 170.666 182.29 169.698C183.429 169.401 185.095 167.758 185.122 166.538C185.133 166.01 184.743 165.74 184.714 165.429C184.616 164.366 184.547 163.26 184.555 162.185ZM175.173 170.677C172.082 167.25 167.249 165.396 162.947 163.887C166.706 166.484 170.637 169.683 175.173 170.677ZM185.628 171.47C185.74 171.262 185.831 170.517 185.553 170.398L184.817 171.081L180.577 172.943C181.639 173.32 185.15 172.355 185.628 171.47ZM79.2129 180.308C80.6552 180.068 83.2883 180.308 84.8994 180.308C85.0619 180.308 86.1234 181.059 86.1768 180.312C84.3157 179.778 75.5047 177.543 74.5011 179.084C74.3087 179.38 72.5855 183.326 72.6043 183.569C72.6411 184.043 74.0882 184.606 74.5186 184.839C74.1172 182.809 77.58 180.58 79.2129 180.308ZM140.771 187.103C143.013 186.214 144.354 183.093 143.61 180.875C142.892 181.705 142.301 183.066 141.857 184.081C141.663 184.523 140.575 186.886 140.771 187.103ZM97.9304 190.883C98.4988 190.514 99.6939 190.522 98.9887 189.502C97.9776 188.04 93.0988 184.518 91.3715 184.057C88.0234 183.161 81.847 183.212 79.6408 186.398C81.5668 186.823 83.5163 185.952 85.4681 185.953C89.5566 185.956 93.8745 188.059 96.698 190.928L96.1309 191.071C97.0739 192.532 97.4841 191.172 97.9304 190.883ZM110.416 187.317C110.597 187.524 113.639 188.056 114.401 188.305C118.913 189.777 121.924 193.067 125.029 196.428C125.357 196.485 126.804 195.046 126.968 194.731C127.1 194.478 126.932 194.101 127.032 193.901C127.519 192.925 128.793 191.525 127.84 190.497C126.545 189.101 121.298 185.924 119.442 185.267C117.812 184.69 110.619 183.673 110.1 185.605C110.011 185.936 110.221 187.097 110.416 187.317ZM181.703 187.967C181.591 187.811 178.544 187.017 178.018 186.822L178.588 189.652L179.72 188.52L178.871 191.634C179.293 192.103 182.17 188.624 181.703 187.967ZM82.1979 188.234C82.2719 188.303 83.7271 188.491 84.1822 188.669C86.4178 189.543 88.4865 190.667 90.4198 192.084C90.8505 192.399 91.7668 193.541 92.0481 193.589C92.1993 193.615 94.7018 192.213 94.7033 192.06C94.0205 191.427 93.4299 190.678 92.6937 190.102C89.324 187.468 86.7917 187.182 82.6195 187.67C82.22 187.716 81.7832 187.846 82.1979 188.234ZM90.7264 193.906C88.9486 192.792 87.5096 191.343 85.5741 190.397C80.0327 187.688 73.7469 189.035 69.4006 193.192C73.749 193.249 77.1778 191.529 81.6277 192.911C84.3343 193.752 86.3921 196.119 89.5133 195.098C89.85 194.987 91.0531 194.375 90.7264 193.906ZM178.87 195.597C179.588 196.191 184.77 190.943 182.707 189.371C182.066 191.821 180.128 193.493 178.87 195.597ZM100.964 192.765C105.049 193.282 109.141 193.976 112.875 195.772C114.339 196.475 120.185 200.644 121.455 199.729C121.655 199.585 122.015 197.552 121.947 197.223C121.493 195.028 115.964 190.718 113.751 190.085C111.96 189.573 105.763 189.316 104.009 189.712C102.92 189.959 101.363 191.739 100.964 192.765ZM79.4972 193.334C78.2472 193.187 76.5519 193.334 75.2323 193.334C75.0004 193.334 74.1307 193.753 74.8097 194.038L82.3374 197.869C82.6427 197.818 82.2959 197.242 82.6518 196.989C83.2303 196.577 84.8883 196.642 85.3241 195.887C83.6283 194.881 81.5121 193.572 79.4972 193.334ZM129.393 193.618C129.009 193.23 128.859 193.647 128.817 194.045C128.708 195.098 129.581 196.082 129.109 197.297L128.687 196.45C126.774 198.016 125.322 199.715 122.86 197.865C122.461 199.7 122.689 202.146 120.085 201.049C119.571 200.832 119.171 200.101 118.892 200C118.562 199.88 118.054 200.197 117.636 200.118C115.3 199.681 112.56 197.195 110.353 196.018C109.732 195.688 105.485 193.67 105.23 193.902C105.098 194.491 105.541 194.546 105.877 194.812C107.514 196.11 109.631 197.172 111.203 198.569C112.667 199.87 116.409 204.148 113.257 205.436C109.978 206.775 106.614 203.705 103.239 205.225C104.003 204.292 105.377 204.098 104.213 202.697C102.368 200.474 97.0381 199.688 94.2793 199.566C93.6173 199.537 89.5987 199.425 89.5966 200.272L91.5811 201.26C90.4296 201.414 88.638 200.606 87.5937 200.824C86.6436 201.022 80.2131 205.761 80.2135 206.218C81.4677 207.136 83.2383 207.626 84.7473 207.927C94.5869 209.892 106.364 209.977 116.094 207.412C119.895 206.41 123.342 204.561 127.121 203.53C127.641 204.001 125.122 205.245 124.856 205.377C113.668 210.954 93.1683 212.302 81.3575 208.472C80.3201 208.135 79.2535 206.993 78.5367 207.954C77.141 209.826 77.6821 210.84 79.6245 211.897C91.1881 218.191 116.885 214.272 128.352 208.293C131.235 206.79 131.6 205.401 131.398 202.243C131.321 201.05 131.024 198.609 130.793 197.465C130.706 197.029 129.537 193.764 129.393 193.618ZM71.3304 194.544C69.4858 194.556 66.5306 194.623 64.7157 194.756C62.3466 194.928 60.7521 195.721 59.3289 197.6C58.8814 198.191 57.0836 201.421 57.2954 201.829C57.5514 202.323 58.5983 202.575 59.0276 202.955C59.6845 202.009 59.4535 200.847 60.0938 199.778C61.3318 197.71 64.7671 197.425 66.9895 197.301C69.4573 197.164 72.8426 197.232 75.0747 198.305C76.1757 198.834 77.8297 200.928 78.9784 200.486C80.3062 199.975 81.2419 199.261 80.0582 198.154C78.2119 196.429 73.854 194.527 71.3304 194.544ZM91.0125 198.428C95.3202 197.387 100.128 198.207 104.004 200.359C105.576 201.233 109.585 204.911 111.292 204.342C113.664 203.55 109.008 198.788 108.076 198.003C102.893 193.641 95.8256 193.422 91.0125 198.428ZM137.642 198.428C137.118 198.141 136.201 196.699 135.945 196.57C135.866 196.531 134.291 196.954 134.232 197.019C134.132 197.128 134.408 198.297 134.558 198.39C134.982 198.652 136.965 198.29 137.642 198.428ZM64.5014 198.504C62.8832 198.721 60.014 199.862 60.3539 201.898C60.4102 202.235 60.8954 203.164 61.1735 203.371C61.7101 203.77 71.0826 205.148 72.3915 205.224C73.0295 205.261 74.9362 205.398 75.2451 204.957C75.5244 202.45 77.328 201.73 74.6154 199.895C72.2914 198.323 67.2388 198.138 64.5014 198.504ZM87.3162 198.434C84.7842 198.712 80.2597 201.367 78.7897 203.388C77.6603 204.941 79.0355 205.494 79.5952 204.911C79.6263 204.878 79.3354 204.537 79.7582 204.099C81.7755 202.012 85.4138 200.677 87.3162 198.434ZM134.799 199.281H139.632L138.344 198.7L134.799 199.281ZM144.892 200.13C142.249 199.833 138.572 200.13 135.794 200.13C135.623 200.13 135.153 200.525 134.801 200.416L134.799 200.697H146.172L146.171 200.416C145.69 200.575 145.193 200.164 144.892 200.13ZM153.563 201.548C147.524 200.896 141.547 201.69 135.505 201.829L135.085 202.394L153.143 202.113L153.563 201.548ZM75.9403 205.794C74.4058 206.977 72.8627 205.916 71.247 205.798C67.0492 205.492 62.6767 205.482 58.6107 204.225C57.9238 204.012 56.2082 203.031 55.8467 202.996C54.9021 202.906 54.3936 204.987 55.7688 205.922C58.5278 207.799 68.4726 209.553 71.8211 209.192C73.6409 208.997 75.6776 207.726 75.9403 205.794Z" fill="black"/>
<path d="M314.636 56.2782C319.383 56.873 322.354 59.3915 324.504 63.441C325.215 64.7802 325.51 66.8057 326.565 67.9012C327.522 68.8942 330.79 69.5954 332.382 70.8868C333.52 71.8105 333.789 72.7309 334.599 73.7598C334.78 73.9896 334.592 74.2817 335.249 74.1167C335.237 72.2821 335.551 69.8869 336.843 68.4841C337.314 67.9726 338.116 67.6761 338.56 67.2208C339.497 66.2613 343.31 59.1808 343.226 58.1439C343.213 57.9817 341.161 56.7729 340.652 56.1365C338.932 53.9845 338.301 48.5748 339.014 46.0101C339.892 42.8541 343.193 42.9166 344.633 40.2887C344.567 40.0202 340.604 37.587 339.994 37.2531C339.024 36.7215 334.659 35.4026 334.994 34.1016C335.286 32.971 340.222 32.1035 341.438 31.7168C344.507 30.7412 347.6 29.7555 350.557 28.482C350.623 27.3301 350.654 26.1463 350.601 24.9905C350.447 21.6236 349.548 17.769 349.447 14.5134C349.348 11.3142 351.817 13.8706 353.028 14.9274C357.045 18.4313 360.355 22.8085 363.974 26.6952L378.881 25.402C381.415 25.3044 382.89 25.5083 380.888 27.9635C379.659 29.4696 371.25 37.0924 371.12 37.7708C372.687 41.9264 375.321 45.9503 376.9 50.0532C377.194 50.819 378.191 52.8504 376.866 53.1066C375.822 53.3085 368.126 48.7705 366.243 48.9172C365.936 51.0297 368.3 50.705 367.944 53.0043C367.642 54.9584 367.946 53.6952 368.217 55.3024C368.578 57.4432 368.122 59.2065 366.159 60.3022C365.253 60.8083 363.037 61.1003 362.617 61.446C362.421 61.6068 362.303 62.2928 361.985 62.6569C360.58 64.2681 358.013 64.0135 357.74 64.2354C357.36 64.5434 356.202 72.5239 355.419 73.7071C355.378 75.1257 357.42 76.1968 356.958 78.2996C356.594 79.9567 354.974 80.5639 354.17 81.7761C354.016 82.0081 353.175 83.7788 353.186 83.895C353.206 84.1012 353.835 84.2445 354.027 84.5156C354.905 85.7581 352.699 86.3743 352.181 87.1571C351.535 88.1309 350.737 91.5053 350.085 92.9992C349.011 95.4612 347.332 97.8858 346.286 100.259C345.345 102.396 345.128 104.485 344.429 106.622C343.889 108.277 341.975 112.337 341.846 113.689C341.757 114.622 343.242 118.844 343.46 120.452C344.061 124.868 343.861 130.094 343.128 134.493C342.936 135.646 341.944 140.249 341.364 140.947C340.752 141.683 339.263 140.751 338.376 140.948C338.556 138.381 339.379 135.931 339.752 133.396C341.047 124.61 340.354 113.896 334.389 106.833C333.887 106.24 329.514 101.959 328.995 102.438C332.314 106.571 336.042 115.962 326.935 114.822C320.414 114.006 314.415 108.254 308.899 105.601C305.884 104.151 304.347 105.991 301.985 107.676C309.354 108.997 316.217 112.458 322.171 116.875C316.816 115.324 311.854 112.69 306.472 111.133C305.435 110.833 302.357 109.882 301.529 109.812C301.164 109.78 300.276 109.819 300.284 110.223C300.289 110.483 301.999 110.916 302.463 111.161C308.042 114.1 311.076 120.937 308.473 126.88L306.535 129.334C310.948 130.144 315.396 128.843 319.341 126.943C321.836 125.741 324.196 123.996 326.72 122.827C323.766 126.444 319.496 128.926 315.254 130.802C314.106 131.31 311.432 132.559 310.347 132.711C308.006 133.039 305.221 132.88 302.838 133.02C302.66 133.678 302.996 133.494 303.198 133.667C309.102 138.727 315.919 135.697 322.162 132.867C326.861 130.737 331.626 127.739 334.825 123.675C334.944 124.387 334.24 125.529 333.877 126.128C328.831 134.458 314.318 140.871 304.822 138.262C302.768 137.698 301.526 136.52 300.136 135.006C298.778 136.389 299.865 137.864 300.976 138.978C304.109 142.118 308.91 142.051 312.998 141.292C313.579 141.184 313.475 141.682 313.357 141.794C313.19 141.952 309.442 142.757 308.873 142.853C304.335 143.617 301.291 142.999 297.861 139.898C293.653 142.371 291.162 146.033 296.481 149.118C302.158 152.409 312.267 151.136 317.997 148.258C320.229 147.138 323.116 143.909 325.713 144.609C326.1 144.714 325.551 145.715 326.289 145.474C326.929 145.265 328.268 144.343 329.087 144.012C333.745 142.129 343.194 140.628 348.109 141.591C354.582 142.859 359.34 147.741 362.78 153.032C363.432 154.036 363.864 156.033 365.087 156.397C365.927 156.647 366.708 156.157 366.95 157.088C369.156 156.031 369.226 154.184 370.267 152.461C373.569 146.995 379.752 142.813 386.212 145.836C392.75 148.895 392.722 160.397 390.09 165.973C389.397 167.442 388.11 168.438 387.445 169.568C386.264 171.572 386.525 172.801 384.136 174.485C383.326 175.057 381.539 175.519 381.049 176.241C380.611 176.887 381.231 178.772 380.894 180.035C380.499 181.512 375.648 187.586 374.353 188.812C369.796 193.123 360.75 192.1 357.373 186.735C355.879 184.362 356.153 182.359 355.66 179.945C355.314 178.251 354.678 179.368 353.859 179.445C351.208 179.695 348.361 178.99 346.141 177.532C344.881 176.705 344.06 175.38 342.909 174.521C342.071 173.894 341.007 173.591 340.081 172.807C338.476 171.45 337.498 168.704 335.111 168.696C331.066 168.683 326.59 169.395 323.306 171.952C319.905 174.6 316.975 178.544 312.863 180.241C311.69 180.725 310.305 180.922 309.179 181.386C305.598 182.863 303.86 184.369 299.532 184.805C295.024 185.259 291.923 184.577 288.231 182.043C287.692 182.148 286.289 184.698 285.776 185.263C283.69 187.566 280.23 190.631 277.254 191.501C263.541 195.509 257.395 183.934 265.882 173.945C266.809 172.853 269.792 170.46 270.209 169.476C271.568 166.266 270.199 162.716 273.072 159.441C274.86 157.401 281.23 155.082 283.906 155.414C285.119 155.565 286.483 156.553 287.467 156.684C288.863 156.871 289.499 156.287 291.274 157.135C294.488 158.669 293.619 163.121 297.25 162.661C299.596 162.364 296.864 158.546 296.867 156.946C296.87 155.773 297.592 154.072 298.287 153.127C293.861 151.826 287.258 147.841 290.202 142.381C291.44 140.084 296.661 137.043 297.027 135.577C297.206 134.859 296.092 134.968 295.651 135.059C293.156 135.572 291.82 138.685 289.899 140.097C287.897 141.57 285.315 142.389 282.816 142.056C281.81 141.922 279.154 140.54 278.427 140.991C277.334 141.67 277.476 146.569 277.031 147.67C276.09 150.001 272.084 149.959 270.426 148.166C269.815 147.505 268.115 143.632 266.749 145.643C265.78 147.07 266.052 149.94 263.146 150.285C258.989 150.779 258.34 145.558 259.616 142.646C256.133 144.567 249.825 144.055 251.5 138.666C252.015 137.01 258.118 133.089 260.186 133.3C260.531 132.97 258.162 130.969 257.892 130.35C256.058 126.148 263.4 123.144 266.852 123.691C269.406 124.096 270.888 127.014 272.493 127.711C274.392 128.536 274.729 125.238 275.828 124.101C276.8 123.095 278.353 122.782 279.38 121.974C280.316 121.238 280.62 120.15 281.372 119.428C282.524 118.324 284.647 117.582 285.962 116.212C287.01 115.119 287.724 113.192 288.759 112.343C290.494 110.919 293.325 111.214 294.977 110.041C295.828 109.437 296.417 108.146 297.18 107.421C297.818 106.816 300.986 104.938 301.114 104.522C301.281 103.978 300.669 103.42 300.266 103.155C297.894 101.602 294.532 103.346 291.893 103.308C287.132 103.239 282.458 100.695 280.264 96.4572C278.436 92.9237 279.256 88.7771 277.528 85.164L276.966 87.8549L276.96 90.8253C274.182 87.5596 274.75 82.7971 275.825 78.9341C275.002 78.7739 275.371 79.172 275.184 79.5547C274.61 80.7274 273.409 84.7779 273.117 85.1541C272.538 85.8987 272.029 84.9312 271.908 84.3926C271.248 81.4454 273.228 78.6091 274.403 76.1018C273.26 76.1921 269.648 75.6892 270.155 73.9986C270.308 73.4898 270.651 73.6568 270.988 73.6695C271.973 73.7065 272.41 73.9176 273.565 73.7055C274.146 73.5989 277.284 72.1615 277.529 71.8474C277.576 71.7882 277.513 71.4602 277.529 71.2866C274.899 72.2177 272.213 69.0653 272.701 66.4725C273.881 67.344 274.695 69.0184 276.328 69.2512C276.911 69.3342 280.101 68.6958 280.375 68.4517C281.059 67.8426 279.274 67.8973 279.071 67.6147C278.327 66.5847 279.966 65.6992 280.373 65.1962C281.583 63.7014 282.262 61.6149 283.492 60.3741C285.16 58.6929 289.841 56.655 292.206 56.5908C293.262 56.5622 294.54 57.2321 295.724 56.6977C297.203 56.0296 299.11 51.9198 300.693 50.8872L301.134 49.4823C302.384 50.0417 301.947 50.9995 301.702 52.0303C304.167 50.6991 307.091 48.4889 310.07 48.9335C310.814 49.0445 311.535 49.6177 312.404 49.6651C313.529 49.7265 315.037 49.3911 316.354 49.47C316.953 49.5059 319.604 49.8072 319.606 50.19C319.611 50.9883 317.7 50.8425 317.232 50.9337C316.74 51.0295 315.542 51.044 315.349 51.4613C318.775 52.2667 323.074 51.9341 325.299 55.1427C322.076 54.5788 319.74 53.6529 316.416 54.3715C316.137 54.4318 315.564 54.471 315.631 54.8623H320.607C321.526 54.8623 327.547 59.8548 326.434 61.6571L319.292 57.0221C316.239 55.5393 311.954 54.5607 308.813 56.1418C308.01 57.0402 309.424 56.2782 309.518 56.2782C311.077 56.2782 313.171 56.0946 314.636 56.2782ZM376.477 28.2468C371.602 28.3063 366.761 29.1602 361.894 29.0348C358.684 25.8503 356.239 21.9202 352.881 18.8993C352.277 20.9591 354.119 29.4634 353.189 30.6768C352.708 31.3041 342.851 33.6355 341.052 34.4467C340.717 34.598 340.539 34.3117 340.651 35.0386L351.739 38.1586L350.037 38.4346C351.494 38.8688 353.835 40.5852 353.728 42.2396C353.714 42.4573 352.304 45.8382 352.084 46.2843C351.496 47.4814 350.461 47.2559 351.013 49.2242C351.284 50.1893 352.862 50.2879 353.605 49.7791L360.002 42.5594C362.146 40.8339 366.081 44.3927 368.041 45.5664C369.522 46.453 371.165 47.4679 372.78 48.0647C373.21 47.6299 367.482 38.4289 367.707 36.9445C367.948 35.36 375.504 30.2964 376.477 28.2468ZM344.917 46.6531C346.537 46.6209 348.318 46.9112 349.739 45.9304C352.133 44.2783 350.982 39.7566 347.302 41.2515C346.389 41.6223 346.417 42.5472 345.845 42.9787C344.764 43.7933 343.112 43.7486 341.922 45.2246C339.367 48.3932 342.067 55.1551 345.386 57.086C346.603 57.7943 348.322 57.8442 349.66 58.2225C350.139 58.3579 350.455 58.0109 350.318 58.8253C345.037 57.856 344.054 62.8062 342.221 66.4776C341.474 67.9751 340.236 68.566 341.257 70.5428C342.135 72.242 348.29 75.5312 350.145 75.1813C351.068 75.007 352.582 71.2415 352.888 70.3048C353.34 68.9217 354.293 65.0647 354.17 63.7678C354.029 62.2937 350.123 60.8317 351.459 58.5451C351.985 58.1596 353.559 60.5579 354.216 60.7507C357.18 61.6201 357.505 60.1314 357.075 57.6205C356.826 56.1648 354.203 52.8499 352.599 53.5917C352.408 53.6798 351.612 54.4871 351.444 54.7093C351.152 55.0954 351.366 55.7436 350.892 55.7098C350.706 54.8844 349.105 51.0484 348.617 50.7528C347.928 50.3353 346.076 50.7682 345.203 50.6118C345.137 50.2012 345.704 50.2205 345.998 50.1365C346.414 50.0175 348.273 49.9689 348.039 49.348C347.545 48.0346 345.739 47.6438 344.917 46.6531ZM362.547 50.0469C362.722 48.8605 365.794 48.0864 363.945 46.8121C362.125 45.5569 357.647 46.4872 357.424 48.5009C357.202 50.5073 359.928 49.7061 359.701 50.7524C359.473 51.801 357.773 51.4579 357.438 51.603C355.595 52.4003 356.854 55.0744 358.004 54.7552C358.667 54.5716 360.006 53.01 360.456 52.924C360.829 52.8528 361.368 53.4424 362.083 53.4317C365.244 53.3848 366.797 49.8649 362.547 50.0469ZM306.249 52.0334C303.166 52.6247 300.858 55.8374 298.57 57.8343C297.555 59.3845 296.283 60.8377 295.016 62.2239C294.773 62.3196 294.955 61.6843 294.731 61.6443C293.324 61.3929 290.411 66.1315 289.982 67.4042C288.668 71.3098 289.645 76.936 294.591 76.9527C292.016 79.4684 287.608 75.9165 287.468 72.8344C287.443 72.2899 287.721 71.7979 287.693 71.2208C287.646 70.2065 287.005 69.4311 286.899 68.6089C286.568 66.0508 288.9 64.6747 290.04 62.6478C286.049 61.7715 283.878 65.9848 281.229 68.0312L282.932 67.6066C282.652 68.404 282.807 69.5366 282.64 70.2337C282.593 70.4328 280.726 71.8668 280.367 72.2692C278.598 74.2521 277.562 76.5661 277.25 79.2152C277.804 79.0798 279.872 74.1374 280.658 74.9692C279.628 77.5049 280.024 80.4138 281.656 82.612L280.944 79.2179L282.947 81.3263C283.502 81.5535 284.418 82.2348 284.923 81.9068L283.788 79.7831C284.009 79.5596 286.649 81.8655 287.482 81.4778L285.212 79.92C284.488 78.923 283.61 77.9674 283.504 76.6683C283.752 76.3993 286.399 78.9027 286.819 79.1692C287.542 79.6294 288.632 80.1301 289.473 80.3452C289.079 79.8224 285.656 76.2536 286.064 75.8173C288.443 77.7764 290.593 78.865 293.584 79.51C295.38 79.8973 292.904 80.9747 292.881 81.6079C292.83 83.0752 296.351 83.6927 294.027 84.7362C295.434 85.8773 297.371 90.1149 294.042 87.8332C292.006 86.4386 291.647 84.7506 288.475 84.8615C279.802 85.1648 279.488 97.0459 288.463 99.9017C291.204 100.774 296.982 100.538 298.594 97.7727C299.222 96.6938 298.164 96.3628 298.428 95.3576C301.825 98.0715 305.168 101.063 309.59 101.798C321.062 103.703 328.814 99.1046 333.027 88.4696C334.863 83.8356 334.328 75.1422 329.83 72.0122C327.801 70.6004 324.376 71.2035 324.163 71.0017C324.059 70.9038 324.466 69.8794 324.328 69.3061C324.056 68.1746 320.37 62.2252 319.434 61.6944C314.62 58.965 310.301 57.3529 304.749 59.4573C303.296 60.0082 298.307 63.6138 300.722 59.1272C302.105 56.557 304.361 54.2393 306.249 52.0334ZM317.053 52.3138H312.362C310.731 52.3138 305.336 55.01 304.831 56.7086C304.648 57.3265 305.412 57.1689 305.836 57.1429C307.502 57.0407 306.96 56.4176 307.813 55.7127C309.503 54.3163 311.972 53.8672 313.987 53.0833L317.053 52.3138ZM363.114 57.9772H358.849C358.777 58.8993 358.796 59.7331 359.849 59.9574C360.413 60.0775 360.68 60.049 360.555 59.3966L359.134 58.5464C360.61 59.1099 362.508 59.5735 363.954 58.6724C365.406 57.7678 365.918 56.6074 364.398 55.4244C363.038 54.3649 358.821 54.9832 358.848 57.1261C359.285 57.5757 362.713 56.9443 363.114 57.9772ZM293.737 59.1128C291.017 58.9637 289.026 58.8026 287.483 61.3726C288.936 61.0223 290.42 60.7046 291.823 60.1758C292.361 59.9728 293.427 59.5908 293.737 59.1128ZM353.726 77.8075C349.93 77.1062 345.237 76.0423 342.099 73.6688C341.378 73.1239 339.275 70.4975 339.058 70.4515C337.849 70.1954 338.05 73.0258 338.126 73.6627C338.752 78.9254 345.122 81.1611 349.749 80.9128C350.567 80.2003 345.147 78.4841 345.202 77.519C346.735 77.4754 350.13 80.3365 351.017 80.3665C352.362 80.412 353.839 79.1873 353.726 77.8075ZM337.235 76.6684C336.927 76.6138 336.699 76.6742 336.526 76.946C336.132 77.5649 336.769 82.226 336.667 83.5998C336.583 84.7411 336.221 86.282 335.964 87.4301C335.702 88.5991 334.598 91.2156 334.685 92.0737C334.835 93.5508 337.306 96.74 337.662 98.4756L340.081 104.983C340.32 98.9257 337.348 93.3171 336.675 87.4274C338.99 89.9999 339.984 94.2534 340.798 97.6184C341.207 99.3126 341.325 101.262 341.776 102.874C341.884 103.262 341.812 103.753 342.355 103.851C342.847 98.1037 344.108 92.7648 341.791 87.1457C342.379 87.0177 342.437 87.4484 342.706 87.7885C343.952 89.3633 344.344 92.5145 344.634 94.5068C345.301 94.6472 345.091 94.4193 345.271 94.1415C345.686 93.4999 348.6 87.682 348.328 87.4287C345.6 88.1053 340.83 84.5051 340.208 82.0525C339.992 81.1994 340.41 80.4996 340.235 80.0712C339.884 79.2081 337.379 77.9122 337.235 76.6684ZM351.741 81.4835C348.404 81.875 345.049 81.8426 341.791 80.9154C342.707 85.3097 349.659 84.967 351.741 81.4835ZM333.54 96.49C332.888 96.3264 333.074 96.6157 332.893 96.846C332.539 97.2967 331.742 98.6023 331.876 99.12C332.086 99.9322 336.062 102.993 336.669 104.134L333.54 96.49ZM328.143 104.986C328.755 106.274 327.527 110.364 326.011 110.374C324.656 110.383 325.901 109.461 326.088 109.028C326.927 107.097 326.49 105.369 325.577 103.568C322.427 105.465 319.172 106.11 315.492 105.831C314.492 105.755 313.484 105.068 312.501 105.409C316.502 107.694 323.495 113.428 328.248 113.102C332.329 112.822 330.407 107.402 328.793 105.342C328.611 105.108 328.798 104.822 328.143 104.986ZM304.545 125.939C307.389 122.958 306.685 117.709 304.376 114.636C303.055 112.878 301.575 111.782 299.283 111.783C298.248 111.783 294.481 112.855 293.371 113.255C291.314 113.997 290.179 116.557 288.62 118.007C290.639 117.895 292.445 118.039 294.367 118.661C294.665 118.757 295.226 118.732 295.159 119.14C293.006 119.014 283.832 119.751 282.936 121.554C282.597 122.236 284.917 121.954 285.316 122.009C290.252 122.695 296.732 126.355 295.163 132.169C296.581 131.169 297.791 129.714 298.006 127.923C298.942 127.928 297.48 130.877 298.426 130.467C299.647 129.938 300.72 127.857 300.281 126.507L300.703 128.203C303.177 125.292 304.274 123.075 302.421 119.415C300.361 115.345 297.244 114.377 292.885 114.043C293.523 113.117 295.897 113.411 296.935 113.552C301.837 114.221 306.618 121.127 304.545 125.939ZM287.77 138.115C299.045 130.639 287.181 118.251 277.532 125.653C282.042 125.366 289.242 128.103 289.211 133.445C289.202 134.96 288.103 136.655 287.77 138.115ZM279.238 137.833C283.575 137.648 286.072 132.197 282.512 129.049C279.897 126.736 277.971 127.722 275.45 129.387C274.129 130.26 274.017 131.554 272.15 130.024C270.897 128.996 269.037 126.405 267.283 125.81C265.332 125.147 262.478 126.151 260.899 127.356C257.097 130.256 263.519 131.122 265.749 130.254C265.896 130.284 266.423 131.675 267.311 132.017C268.017 132.288 269.595 131.599 269.284 132.306C268.537 134.003 263.197 134.092 261.322 134.573C258.889 135.196 255.552 136.899 254.064 138.952C253.224 140.111 253.301 141.903 254.902 141.8C255.184 141.782 259.948 140.205 260.271 140.039C261.275 139.524 261.341 138.239 261.328 137.266C263.295 138.332 263.853 138.935 265.454 136.989C265.699 136.691 266.858 134.204 267.294 134.719C267.501 137.954 264.156 139.198 262.629 141.538C261.737 142.905 259.711 147.141 262.167 147.911C264.54 148.656 264.82 145.534 265.447 144.062C265.687 143.498 266.127 143.058 266.384 142.446C267.05 140.86 267.087 138.792 268.577 137.55C268.559 138.797 267.073 141.669 268.22 142.856C269.74 144.43 270.288 139.735 270.835 138.667C271.214 137.926 272.014 136.921 272.695 136.416C273.221 138.822 271.452 141.083 271.381 143.302C271.338 144.627 271.666 147.106 273.401 147.147C275.631 147.199 275.083 145.387 275.383 144.046C276.113 140.792 277.41 139.311 276.6 135.787C276.356 134.726 275.806 133.783 275.543 132.737C276.071 132.163 278.417 135.721 278.103 136.415L278.532 135.575L278.95 133.02C279.358 134.595 279.23 136.219 279.238 137.833ZM307.67 154.823H303.121C302.706 156.94 301.861 158.569 302.333 160.846C302.809 163.148 307.169 166.735 309.664 166.574C308.129 165.681 306.682 164.398 305.536 163.037C305.347 162.812 304.79 162.469 305.252 162.187C306.68 163.361 308.407 164.873 310.165 165.506C312.609 166.386 317.692 166.836 320.32 166.713C323.907 166.546 327.584 165.187 331.269 165.58C328.097 161.742 329.792 155.905 332.697 152.422C332.91 152.167 335.285 149.904 334.679 151.279C334.474 151.745 333.324 153.026 332.927 153.783C331.204 157.066 329.583 162.158 333.257 164.734C332.72 163.379 332.175 161.647 333.826 163.601C332.692 157.894 334.546 152.029 340.365 150.009C339.926 151.106 338.996 151.478 338.26 152.581C337.108 154.305 335.556 159.41 336.32 161.263C336.425 161.518 336.652 161.871 336.953 161.902C338.544 157.896 339.966 152.648 344.348 150.861C339.27 156.94 336.715 162.383 341.671 169.524C342.295 170.422 343.369 170.802 343.353 172.099C343.849 168.82 340.129 166.544 340.939 163.035L342.924 166.148L343.499 162.47L343.921 163.317C344.962 161.419 346.91 160.623 348.465 159.347C350.54 157.645 351.001 156.262 354.006 155.521C354.937 155.292 359.692 155.098 359.697 154.398C356.848 150.239 352.746 144.756 347.302 144.094C333 142.352 320.299 152.021 309.797 160.199L309.378 160.063L311.366 157.94L307.811 159.918L307.803 159.345L317.336 152.56C313.197 154.09 308.849 155.285 304.964 157.367C304.12 157.42 304.747 157.044 305.011 156.847C305.873 156.202 307.003 155.709 307.67 154.823ZM325.582 145.764C324.256 145.84 322.547 146.2 321.887 147.457C322.513 147.438 323.123 147.096 323.694 146.853C324.229 146.627 325.256 146.222 325.582 145.764ZM388.659 157.047C389.115 156.505 388.764 153.457 388.498 152.619C387.353 149.005 385.021 147.361 381.166 147.44C375.296 147.56 376.372 153.315 374.971 157.145C374.629 158.081 373.811 159.058 373.427 160.139C372.721 162.13 372.592 165.134 371.706 166.919C371.268 167.802 369.976 168.684 369.304 169.624C368.36 170.946 367.882 172.544 367.039 173.882C365.273 176.686 361.335 180.764 361.436 184.105C361.487 185.804 362.617 187.719 364.536 187.668C362.523 185.503 364.579 182.898 365.894 180.954C369.614 175.456 374.067 170.061 375.989 163.539C377.161 159.563 376.896 155.391 379.744 151.988C380.786 150.742 382.721 149.094 384.437 149.583C382.599 150.244 377.394 156.913 379.316 158.368C380.471 159.243 388.004 157.826 388.659 157.047ZM374.201 155.954C374.064 154.061 374.712 152.303 375.337 150.575C374.653 151.197 373.603 152.441 373.416 153.329C373.248 154.128 373.022 156.028 374.201 155.954ZM362.544 158.219C363.075 157.776 361.071 156.676 360.632 156.586C359.068 156.268 354.633 156.551 353.19 157.257C351.805 157.935 350.706 159.597 349.273 160.435C348.604 160.827 346.781 161.354 346.6 161.525C346.122 161.975 344.819 165.088 344.701 165.792C343.949 170.258 347.006 175.005 350.748 177.192C350.959 177.237 350.939 176.901 350.885 176.773C349.653 173.842 348.092 173.464 348.688 169.48C348.86 168.334 351.397 163.886 352.194 162.778C354.268 159.9 359.109 158.489 362.544 158.219ZM282.364 157.374C278.432 158.347 275.423 160.165 274.32 164.225C273.882 165.834 273.914 167.801 273.477 169.332C272.578 172.478 268.134 174.622 266.59 178.614C265.019 182.676 266.05 188.78 271.136 189.371C271.428 189.405 272.206 189.564 272.128 189.09C265.558 187.908 266.57 178.608 270.572 175.217C271.266 174.63 274.665 172.207 275.339 172.185C276.545 172.146 278.301 172.921 279.334 173.558C280.02 173.982 283.632 177.628 284.07 177.192C283.737 175.69 283.006 174.071 281.803 173.081C280.316 171.859 278.237 171.789 276.963 170.4C279.169 170.108 280.731 171.937 282.646 172.662C283.367 169.11 283.342 165.758 287.125 164.235C288.767 163.574 290.849 163.072 292.602 162.751C292.658 158.93 287.528 159.364 284.785 159.64C279.583 160.163 279.86 163.783 278.237 167.56C277.741 168.714 276.912 169.659 276.612 170.895C272.854 172.446 275.106 170.271 275.761 168.493C277.021 165.077 276.595 162.527 279.509 159.483L282.364 157.374ZM371.927 157.37C371.532 157.349 371.384 157.287 371.064 157.564C369.883 158.583 368.758 161.391 368.547 162.924C368.452 163.617 368.58 166.713 368.227 166.999C367.525 167.566 367.003 166.264 367.092 165.584C364.88 167.194 364.194 169.835 362.977 172.101C361.297 175.231 359.039 177.788 359.705 181.723L361.742 177.951C364.254 174.547 366.509 170.97 368.919 167.542C370.982 164.607 371.764 160.932 371.927 157.37ZM377.687 163.674C376.741 164.576 377.033 165.805 378.391 166.096C379.368 166.305 382.032 165.791 383.454 165.856C385.601 165.955 385.852 167.221 387.046 164.923C388.191 162.721 388.515 159.806 388.701 157.371C387.078 158.663 384.105 159.38 382.017 159.632C379.494 159.936 378.379 158.82 378.183 162.467C379.971 162.473 381.584 162.005 383.413 162.216C383.755 162.255 387.754 163.158 386.995 163.884C385.411 163.093 378.754 162.659 377.687 163.674ZM362.859 167.895C362.908 167.815 363.44 167.711 363.684 167.435C365.603 165.26 367.348 162.252 368.228 159.489C368.274 159.345 368.306 159.027 368.091 159.072C366.728 160.05 365.531 160.607 364.418 161.926C363.498 163.017 357.92 170.983 357.649 171.892C357.355 172.882 357.169 177.345 358.14 177.758C358.97 174.839 362.359 171.841 362.995 168.993C363.088 168.578 362.766 168.049 362.859 167.895ZM361.975 161.62C355.985 162.047 352.515 168.321 354.303 173.795C355.274 172.56 355.704 171.072 356.623 169.738C357.328 168.715 362.843 162.577 361.975 161.62ZM293.596 181.158C294.916 181.408 296.881 180.976 298.288 181.158L294.45 179.458C289.979 175.855 290.352 171.925 293.878 167.846C294.654 166.949 296.462 166.394 295.312 165.289C293.87 163.903 288.598 166.006 287.34 167.282C286.443 168.192 285.776 170.719 285.781 171.954C285.793 175.432 290.192 180.514 293.596 181.158ZM315.347 173.232C310.612 173.954 305.799 173.452 302.27 169.971L299.143 165.585C299.129 168.289 301.983 172.098 304.35 173.28C307.086 174.645 312.955 175.617 315.347 173.232ZM384.581 166.999C382.024 167.15 379.211 166.999 376.62 166.999C376.538 166.999 375.731 168.124 375.676 168.335C375.248 169.984 379.44 169.228 380.317 169.237C381.121 169.246 381.923 169.611 382.594 169.574C383.884 169.503 384.428 167.727 385.573 167.137C385.669 166.203 384.783 166.987 384.581 166.999ZM309.943 176.912C305.963 177.306 301.917 175.555 299.945 172.002L298.007 167.284C297.339 169.25 297.229 171.192 297.716 173.227L297.147 171.815C296.369 172.292 297.213 173.843 297.537 174.402C298.516 176.095 301.638 177.827 303.552 178.041C303.809 178.07 304.512 178.182 304.119 177.758C303.196 177.015 301.72 176.889 301.131 175.78C302.244 176.093 303.064 176.771 304.245 177.065C305.573 177.394 308.191 177.646 309.524 177.477C309.939 177.425 310.404 177.261 309.943 176.912ZM296.296 168.417C295.96 168.077 293.612 170.598 293.393 171.045C291.46 174.995 295.131 179.175 299.139 179.173C298.621 178.451 297.399 177.92 296.861 177.26C295.068 175.061 295.602 170.978 296.296 168.417ZM381.222 171.731C381.839 171.043 381.371 170.642 380.537 170.459C379.812 170.301 375.885 170.262 375.253 170.452C374.684 170.622 373.095 173.558 373.351 173.794C374.959 173.673 380.276 172.785 381.222 171.731ZM281.226 176.625C281.919 176.004 277.484 172.301 275.039 173.439C274.15 173.852 273.76 174.679 274.817 175.225C276.871 176.285 278.926 176.549 281.226 176.625ZM354.584 177.474L351.744 174.362C351.996 175.736 353.143 177.273 354.584 177.474ZM378.141 177.718C378.207 177.663 378.497 176.419 378.446 176.238C378.181 175.305 373.579 175.355 372.624 175.479C371.486 175.627 370.514 176.99 370.223 178.041C371.271 178.346 377.712 178.07 378.141 177.718ZM272.984 179.745C273.839 179.473 276.671 180.785 276.941 179.846C277.461 178.038 274.795 175.55 272.902 176.115C271.357 176.577 269.53 182.323 269.546 183.849C269.583 187.47 274.182 188.143 276.979 187.545C278.285 187.266 281.945 184.801 280.787 183.447C279.124 181.503 276.596 181.489 274.465 180.673C274.049 180.513 273.115 180.206 272.984 179.745ZM283.217 182.29C283.91 177.84 280.747 177.594 277.249 177.195L278.509 180.609L283.217 182.29ZM377.613 178.61C376.71 178.743 375.825 179.097 374.909 179.171C372.665 179.351 369.22 178.258 368.253 180.693C368.495 182.126 373.347 182.419 374.585 183.117C375.082 182.499 378.098 179.143 377.613 178.61ZM367.147 182.06C365.175 184.092 362.967 188.553 367.792 188.224C369.09 188.136 373.63 185.346 373.915 184.123C374.126 183.218 370.38 182.969 369.591 182.778C368.77 182.58 368.07 181.746 367.147 182.06Z" fill="black"/>
<path d="M384.153 204.381C384.07 204.883 382.675 204.696 382.294 204.673C381.622 204.631 380.998 204.39 380.328 204.366C369.207 203.982 352.691 202.978 342.168 204.576C341.404 204.692 340.737 203.723 340.934 205.226C355.248 206.116 369.729 204.571 383.977 206.678L386.143 207.207L359.419 206.929C359.449 207.327 360.704 207.429 361.018 207.457C363.589 207.69 365.993 207.687 368.612 208.105C368.762 208.129 370.461 208.231 370.079 208.627C366.736 208.539 363.171 208.583 359.849 208.338C352.413 207.789 346.456 207.108 338.809 207.498C335.727 207.654 332.142 207.993 329.116 208.321C322.985 208.985 317.003 210.205 310.974 211.208C309.933 211.382 304.549 212.637 304.14 212.541C303.77 212.454 303.235 211.316 303.406 211.176C303.8 211.173 304.23 211.236 304.61 211.1C307.12 210.206 309.692 209.226 312.314 208.578C313.491 208.286 315.058 208.286 316.017 208.019C316.57 207.865 316.523 207.497 316.063 207.219L294.386 212.25L293.739 211.744C296.777 210.915 299.65 209.251 302.605 208.253C303.537 207.938 304.828 207.767 305.835 207.502C306.607 207.298 306.672 207.234 305.819 207.201C301.612 207.481 298.16 208.887 294.382 210.541L281.114 212.252L280.659 211.744C283.911 211.423 286.726 209.89 289.756 209.049L293.168 207.496C291.971 207.704 290.798 207.062 289.639 207.219C288.943 207.314 288.449 207.873 287.847 207.997C284.79 208.624 279.081 209.475 275.97 209.76C272.621 210.067 268.848 209.528 265.449 209.76L283.217 205.797L254.214 206.785L271.168 203.279C282.709 201.772 294.363 201.57 305.963 202.114C306.261 203.267 304.673 202.206 304.544 202.959C306.152 202.827 307.941 203.04 309.514 202.984C326.088 202.396 342.627 199.708 359.264 202.407C367.577 202.577 375.879 203.599 384.153 204.381ZM303.404 204.098C300.346 204.255 296.896 203.709 293.875 204.094C293.461 204.147 292.989 204.314 293.455 204.66C296.288 204.748 298.973 204.985 301.807 204.627C302.153 204.584 303.36 204.504 303.404 204.098ZM329.564 205.227H340.368L340.369 204.379C337.457 204.606 334.294 204.443 331.415 204.665C331.033 204.694 329.688 204.801 329.564 205.227Z" fill="black"/>
<path d="M273.834 40.7019C273.478 41.0478 265.874 38.7369 264.652 39.0523C263.476 39.9537 260.804 45.1236 259.221 44.655C258.344 44.3952 258.523 38.9267 258.445 37.909C258.377 37.8042 256.646 37.3718 256.318 37.3357C255.141 37.2061 250.74 37.8339 251.406 35.789C251.707 34.8662 257.929 33.7282 258.62 32.2039C259.487 30.2903 257.771 26.2912 258.697 24.0626C258.829 23.7473 258.65 23.6145 259.15 23.749C260.38 24.0796 262.606 28.0167 263.73 29.1027C266.048 31.3413 269.858 27.136 272.57 27.9466C273.556 29.3971 269.14 32.1749 268.714 33.4775C268.716 33.9056 269.957 35.3846 270.311 35.8601C271.224 37.0882 272.802 38.5389 273.565 39.6981C273.794 40.0457 273.915 40.2623 273.834 40.7019ZM260.188 27.9606V32.9161C260.188 34.071 255.821 35.3098 254.786 35.6097C254.84 36.0472 255.196 36.0545 255.524 36.1449C256.79 36.4942 258.565 36.5424 259.901 36.7417L260.19 41.5529C261.585 40.7596 262.698 37.8925 264.154 37.4299C265.747 36.9238 267.903 38.1985 269.57 38.1519C267.505 34.9964 265.729 33.4998 269.286 30.512C267.434 30.6617 266.062 32.0949 264.095 31.5719C262.529 31.1557 261.539 28.7605 260.188 27.9606Z" fill="black"/>
<path d="M255.068 190.789L243.722 194.917C242.355 196.521 236.075 199.242 235.773 201.183C235.628 202.109 236.573 202.259 237.324 202.37C242.911 203.196 249.305 200.764 254.913 200.4C260.13 200.061 265.939 200.663 271.099 201.297C271.442 201.339 272.653 201.421 272.696 201.827C269.728 201.397 266.899 202.024 264.037 202.124C261.534 202.212 258.813 201.913 256.353 202.117C251.114 202.552 238.734 206.632 234.395 203.872C230.265 201.245 236.839 197.324 238.956 196.117C243.804 193.354 249.54 191.52 255.068 190.789Z" fill="black"/>
<path d="M359.416 210.044C359.483 210.538 358.771 210.31 358.425 210.325C355.502 210.445 352.51 210.399 349.622 210.028L346.909 210.322L353.56 210.919L360.269 212.304C358.421 212.298 356.566 212.317 354.715 212.319C344.841 212.331 334.828 211.308 324.858 211.727C323.897 211.767 318.789 212.556 318.476 212.305C318.389 211.712 318.439 211.845 318.833 211.672C321.372 210.563 325.249 209.97 328.038 209.515C332.441 208.796 336.842 208.408 341.36 208.628L359.416 210.044Z" fill="black"/>
<path d="M272.696 159.356L270.494 160.415C267.76 161.379 264.942 162.134 262.27 163.269C256.072 165.902 240.195 174.402 238.167 180.888C237.025 184.539 239.562 185.922 242.779 186.46C246.128 187.021 248.87 186.409 252.086 186.538C252.431 186.552 253.144 186.325 253.077 186.818C249.601 187.684 246.021 188.205 242.419 187.951C237.897 187.633 234.572 185.603 236.157 180.587C238.265 173.913 254.924 164.635 261.329 162.049C264.851 160.627 268.89 159.41 272.696 159.356Z" fill="black"/>
<path d="M373.875 86.6259C374.367 86.9291 375.897 92.433 376.968 93.111C377.911 93.7083 381.899 92.3311 383.246 92.3018C383.589 92.2943 384.037 92.2589 384.153 92.671C384.498 93.8966 380.37 95.884 379.586 96.6474C379.901 97.8968 383.773 102.227 383.585 103.136C383.542 103.344 383.133 103.561 382.873 103.584C381.702 103.689 377.993 100.51 376.358 100.734C375.017 100.918 370.736 106.368 369.939 105.549C369.604 104.093 370.52 100.411 369.784 99.33C369.163 98.4184 364.776 98.0745 363.691 97.1881C363.392 96.9439 363.245 96.4363 363.398 96.2096C363.717 95.7393 369.818 95.1832 370.783 94.3575C371.455 93.7818 371.69 90.2677 372.011 89.0681C372.242 88.2075 372.633 85.8618 373.875 86.6259ZM371.359 98.6127C371.656 99.5782 371.142 101.855 371.359 103.002C372.555 102.264 374.304 99.6602 375.542 99.3797C377.396 98.9598 378.864 100.385 380.455 101.02C380.951 100.499 377.813 97.8102 378.219 96.4058C378.427 95.6882 381.212 94.3632 381.882 93.7988C380.126 93.4471 377.879 94.7803 376.198 94.0752C375.06 93.5979 374.168 90.7261 373.493 89.6942C372.565 90.1144 372.918 94.1232 372.216 94.9358C371.461 95.8106 367.2 96.1687 366.809 96.4906C366.276 96.9282 366.979 96.9766 367.21 97.082C367.996 97.4407 371.145 97.917 371.359 98.6127Z" fill="black"/>
<path d="M412.869 108.667C413.933 109.667 408.141 112.029 408.022 112.546C407.904 113.523 409.659 118.904 408.459 119.142C407.727 119.287 404.752 115.618 403.614 115.452C402.237 115.251 398.374 118.15 397.667 118.01C395.788 117.637 399.648 113.209 399.483 112.517C399.009 111.535 393.423 110 394.673 108.668L400.934 108.245C401.78 107.738 402.604 101.8 402.923 101.587C403.33 101.315 403.791 101.751 404.02 102.047C405.078 103.409 405.499 107.102 406.617 107.955C407.608 108.711 411.422 108.406 412.869 108.667ZM409.459 109.517C405.37 110.112 404.899 108.692 403.769 105.268C403.238 104.861 402.677 108.216 402.565 108.454C401.792 110.09 399.293 109.368 397.801 109.517C398.416 110.505 400.807 110.878 401.078 112.031C401.288 112.923 399.864 114.623 399.507 115.459C399.68 115.615 402.488 113.692 403.614 113.769C404.702 113.844 406.241 115.721 407.182 116.311C407.047 115.03 406.301 113.221 406.675 111.979C406.974 110.986 409.021 110.524 409.459 109.517Z" fill="black"/>
<path d="M290.326 17.6249C290.057 16.7399 286.024 16.5563 285.115 16.0199C282.638 14.5589 288.481 13.5331 289.267 13.1719C292.189 11.829 290.096 7.26345 291.326 7.00719C292.316 6.80088 294.368 11.1027 295.69 11.3903C296.144 11.489 301.697 10.1197 301.702 10.8314C301.821 11.9898 298.104 13.8424 298.009 14.2487C298.427 15.6127 300.173 16.602 300.637 17.8588C300.773 18.2268 300.694 19.3239 300.548 19.4526C300.083 19.8612 296.166 17.7098 294.798 18.0962C293.951 18.3355 291.912 22.1033 291.033 22.2963C290.756 22.3572 290.326 21.9755 290.326 21.8725C290.326 20.9307 290.522 18.2665 290.326 17.6249ZM297.15 12.9554C296.414 12.8966 295.588 13.1258 294.881 12.8058C294.369 12.5744 292.355 9.75807 292.034 10.1222C291.949 10.9839 292.285 12.8186 291.675 13.4483L287.769 15.215C290.897 15.4841 292.047 15.7422 291.889 19.1811C293.638 16.3221 294.996 16.18 298 17.4832C297.484 15.7274 295.328 14.7423 297.15 12.9554Z" fill="black"/>
<path d="M408.89 36.7431C408.635 38.4389 407.086 37.5567 406.219 37.6146C398.698 38.1169 391.048 37.9346 383.586 36.736C383.685 36.1934 384.179 36.2682 384.568 36.1604C389.598 34.7693 402.199 35.5478 407.548 36.229C407.967 36.2824 408.398 36.7642 408.89 36.7431Z" fill="black"/>
<path d="M375.625 60.8102C375.864 60.5696 377.803 62.1353 378.153 62.3957C384.28 66.9487 390.078 72.3509 395.676 77.5084C396.256 78.042 400.207 81.8119 397.225 81.0704C395.532 80.6496 387.995 72.8642 386.148 71.1406C382.878 68.089 379.061 65.2383 376.192 61.8004C375.926 61.4817 375.503 61.3422 375.625 60.8102Z" fill="black"/>
<path d="M278.951 110.65C279.018 111.058 278.458 111.033 278.16 111.129C276.689 111.604 275.099 111.82 273.611 112.265C265.967 114.556 258.518 117.633 251.852 122.027L241.99 129.9C250.628 118.737 265.017 112.16 278.951 110.65Z" fill="black"/>
<path d="M145.887 112.344L144.184 110.365C144.153 110.935 144.967 112.317 144.185 112.628C144.362 111.906 142.674 109.648 142.059 109.798C141.759 109.871 140.486 112.376 139.755 112.629C139.489 113.225 142.098 115.333 142.2 115.882C142.559 117.822 140.697 118.794 140.482 120.558C139.132 119.867 140.819 117.615 140.076 116.576C139.978 116.44 136.843 115.146 137.354 116.309C136.787 116.387 137.407 115.59 136.649 115.742C136.347 115.802 136.757 116.573 135.938 116.31C136.598 114.093 137.638 109.847 139.915 108.805C143.551 107.141 144.761 109.148 145.887 112.344Z" fill="black"/>
<path d="M269 164.737L262.556 168.083C258.492 170.423 249.532 176.688 247.164 180.505C246.361 181.799 245.759 182.669 246.817 184.138C247.337 184.859 248.362 185.015 248.813 185.686C238.978 183.485 251.92 173.639 255.433 171.184C259.33 168.462 264.236 165.312 269 164.737Z" fill="black"/>
<path d="M352.594 191.072C352.477 191.636 352.009 191.552 351.595 191.632C346.79 192.564 341.68 192.49 336.816 193.054C329.845 193.861 322.945 195.253 315.917 195.597L319.553 194.55C330.482 192.735 341.48 191.123 352.594 191.072Z" fill="black"/>
<path d="M339.377 7.29024C339.742 7.21372 340.151 7.7399 340.366 7.99825C341.81 9.7362 345.309 19.8503 345.465 22.1978C345.591 24.0995 344.673 23.5371 344.012 22.2067C342.527 19.2179 340.769 14.6072 339.788 11.4056C339.571 10.6991 338.38 7.49904 339.377 7.29024Z" fill="black"/>
<path d="M329.562 31.9283L326.867 32.2037C321.402 31.5085 316.277 29.4483 310.917 28.2666L310.23 27.54C310.303 27.2399 311.246 26.9508 311.58 26.8947C313.311 26.6043 318.192 28.1602 320.113 28.7355C323.29 29.6866 326.354 31.0699 329.562 31.9283Z" fill="black"/>
<path d="M335.249 27.3914C334.433 27.2508 333.599 26.6398 332.885 26.2089C329.054 23.8966 324.26 20.6662 320.778 17.8785C320.133 17.3618 316.491 14.6599 317.338 13.8033C317.997 13.137 321.208 15.7522 321.856 16.2382C325.603 19.0454 330.186 22.6287 333.678 25.7028C334.238 26.1963 334.844 26.7623 335.249 27.3914Z" fill="black"/>
<path d="M275.255 108.102L266.951 109.88C261.89 111.52 256.383 113.032 251.751 115.697C249.203 117.163 246.989 119.345 244.265 120.556C244.826 119.747 245.785 119.07 246.569 118.464C251.567 114.596 256.289 112.005 262.401 110.162C266.553 108.911 270.889 107.932 275.255 108.102Z" fill="black"/>
<path d="M148.345 99.1383C149.918 100.701 150.377 103.282 151.147 105.267C151.474 106.111 152.404 106.7 152.141 107.814L148.743 103.131C147.915 101.792 145.325 101.781 144.478 101.149C144.33 101.038 142.534 98.2186 142.479 98.0407C142.343 97.5964 142.519 97.5918 142.901 97.6174C144.7 97.7383 147.082 97.8845 148.345 99.1383Z" fill="black"/>
<path d="M177.447 118.858C177.389 119.972 177.41 120.945 177.872 121.977C178.334 123.007 179.608 123.631 179.881 124.507C180.167 125.425 179.824 126.343 180.222 127.282C180.811 128.675 182.968 128.753 181.496 130.967C181.221 131.38 180.556 131.678 180.556 131.762C180.554 132.246 181.359 132.905 181.143 133.583C180.382 133.742 180.654 133.384 180.438 133.025C179.255 131.059 179.343 130.186 178.644 128.287C178.222 127.14 176.741 125.766 176.602 124.928C176.455 124.046 176.892 123.404 176.863 122.702C176.82 121.708 175.22 118.776 177.447 118.858ZM178.584 125.938C178.646 125.107 178.568 123.7 177.45 123.675C177.367 124.632 177.336 125.887 178.584 125.938Z" fill="black"/>
<path d="M383.301 42.9717C384.484 42.9839 385.697 43.2542 386.834 43.5562C389.358 44.2268 391.813 45.0064 394.34 45.7086C395.877 46.1361 399.712 47.0891 400.749 48.1034C401.857 49.1869 400.886 49.5898 399.68 49.4653C396.866 49.1748 393.314 46.8933 390.749 45.8862C388.374 44.9532 385.277 44.6519 383.301 42.9717Z" fill="black"/>
<path d="M377.044 77.5142C376.804 77.6935 376.355 77.3351 376.191 77.0937C372.928 73.8007 371.401 69.155 369.372 65.0566C371.6 67.3385 373.943 70.4069 375.57 73.1813C375.991 73.8988 377.839 76.9208 377.044 77.5142Z" fill="black"/>
<path d="M382.736 58.8267C384.342 59.2969 393.545 64.4128 393.252 65.7598C393.179 66.092 392.632 66.2115 392.282 66.1891C390.746 66.0909 384.909 61.3738 383.582 60.1044C383.217 59.755 382.659 59.4032 382.736 58.8267Z" fill="black"/>
<path d="M372.211 10.9723C372.293 11.0335 372.432 11.8373 372.374 12.1045C372.15 13.1498 367.03 21.456 365.959 20.3137C366.619 18.1433 367.938 15.4345 369.304 13.595C369.633 13.1507 371.772 10.6448 372.211 10.9723Z" fill="black"/>
<path d="M346.337 188.807C346.404 189.3 345.691 189.073 345.347 189.087C334.888 189.491 324.514 191.339 314.21 193.048C314.309 192.504 314.804 192.582 315.191 192.471C319.46 191.251 325.009 190.543 329.458 189.972C335.034 189.257 340.725 188.681 346.337 188.807Z" fill="black"/>
<path d="M335.249 39.5736L316.2 41.8333C316.864 41.0024 318.556 40.7835 319.602 40.5523C324.587 39.4507 330.172 39.0865 335.249 39.5736Z" fill="black"/>
<path d="M396.663 13.8034L396.213 14.9106C392.729 17.9423 388.245 19.8995 384.441 22.5802C384.124 22.2619 385.463 21.1245 385.726 20.8898C387.243 19.5371 389.727 17.8724 391.456 16.6855C392.14 16.2162 396.104 13.266 396.663 13.8034Z" fill="black"/>
<path d="M318.188 146.047L315.743 146.864C310.77 147.312 305.481 148.959 300.498 147.949C299.21 147.687 298.161 147.027 296.867 146.891C296.818 146.387 297.825 146.591 298.14 146.615C300.084 146.763 302.46 147.467 304.387 147.471C306.41 147.475 310.233 147.102 312.356 146.889C314.298 146.695 316.194 145.814 318.188 146.047Z" fill="black"/>
<path d="M398.369 60.8076C397.686 60.8378 397.043 60.8555 396.371 60.676C395.805 60.5248 389.781 57.3476 390.695 56.563C391.66 56.4533 392.522 56.8168 393.4 57.1225C394.082 57.3602 399.419 59.8 398.369 60.8076Z" fill="black"/>
<path d="M399.223 25.415C398.048 26.4489 395.926 26.917 394.4 27.2627C391.54 27.9105 388.205 28.354 385.293 28.5243C385.451 28.1 386.549 27.95 387 27.821C390.914 26.7004 395.158 25.448 399.223 25.415Z" fill="black"/>
<path d="M393.536 203.815L390.822 204.109C386.845 203.689 382.837 203.688 378.896 202.953C378.433 202.866 378.404 203.14 378.469 202.397L393.536 203.815Z" fill="black"/>
<path d="M340.649 25.4123C339.597 24.5594 338.586 23.5734 337.662 22.5846C336.221 21.0424 334.257 18.9528 332.981 17.3354C332.74 17.0291 331.598 15.4803 331.84 15.2183C332.852 15.5972 333.498 16.4809 334.258 17.1963L340.649 25.4123Z" fill="black"/>
<path d="M126.554 121.977C123.365 125.011 118.539 125.687 114.329 126.22L126.554 121.977Z" fill="black"/>
<path d="M365.676 72.9854C366.795 73.9299 368.15 75.7912 368.764 77.1275C368.966 77.5672 369.822 79.3219 368.937 79.4991C367.566 79.7734 365.438 74.2727 365.676 72.9854Z" fill="black"/>
<path d="M102.1 99.3164C101.995 99.4259 100.012 100.345 99.4481 100.785C96.7933 102.856 96.774 105.572 94.4268 107.816C95.2403 103.449 97.7075 100.212 101.963 98.7582C102.205 98.7198 102.121 99.2938 102.1 99.3164Z" fill="black"/>
<path d="M330.985 42.6829C328.217 42.757 325.524 43.4944 322.741 43.2506C322.662 42.685 322.686 42.7847 323.092 42.612C323.988 42.2315 328.888 41.9851 330 42.1089C330.426 42.1563 330.877 42.1683 330.985 42.6829Z" fill="black"/>
<path d="M313.926 192.771L312.972 193.375L300.279 195.88L303.686 194.888L313.926 192.771Z" fill="black"/>
<path d="M389.272 55.9921C387.617 55.6872 385.473 55.1104 384.438 53.7324C386.245 53.7865 388.145 54.5343 389.272 55.9921Z" fill="black"/>
<path d="M407.469 51.4611C405.996 51.607 404.145 51.485 403.774 49.7665C405.179 49.6511 406.674 50.279 407.469 51.4611Z" fill="black"/>
<path d="M380.456 17.2013C381.078 17.8514 377.938 20.351 377.616 20.0302C377.378 19.1442 380.052 16.7795 380.456 17.2013Z" fill="black"/>
<path d="M280.233 210.042C280.473 210.079 281.056 210.361 280.943 210.608H275.257V210.042C276.794 210.21 278.759 209.811 280.233 210.042Z" fill="black"/>
<path d="M120.58 93.0945L119.714 93.2494L115.75 92.2443C117.403 92.2254 119.026 92.6116 120.58 93.0945Z" fill="black"/>
<path d="M162.947 194.464C163.611 193.509 164.504 192.678 165.174 191.729C166.117 190.392 166.722 188.872 167.778 187.671C167.76 190.606 165.829 193.6 162.947 194.464Z" fill="black"/>
<path d="M92.1499 172.094C88.7784 170.441 85.6109 169.758 81.9164 170.967L85.2691 171.728L86.1789 172.377C83.3376 171.732 80.7612 171.729 77.9317 172.377L78.2199 171.815L77.082 171.673C81.2336 169.005 88.2107 168.955 92.1499 172.094Z" fill="black"/>
<path d="M174.034 135.566L173.184 135.286L173.749 136.416C172.438 135.821 173.002 133.497 172.848 132.387C172.74 131.605 172.103 131.199 172.049 130.47C173.876 131.492 174.23 133.65 174.034 135.566Z" fill="black"/>
<path d="M164.084 147.18C162.993 148.643 160.697 149.563 158.968 150.006L164.084 147.18Z" fill="black"/>
<path d="M157.259 150.012C157.31 150.425 156.515 150.52 156.24 150.549C155.076 150.674 153.878 150.519 152.713 150.572C152.739 150.158 153.98 150.147 154.326 150.119C155.173 150.05 156.322 150.241 157.259 150.012Z" fill="black"/>
<path d="M329.137 77.2329C329.443 77.2972 330.289 77.8688 330.13 78.3641C329.519 78.4422 328.038 78.13 327.696 78.6298C327.493 78.9269 326.89 84.5125 326.581 85.7309C323.785 96.7286 316.778 99.0624 308.236 91.2527C307.31 90.4059 305.762 88.0083 304.748 87.6357C304.174 87.4251 301.141 88.2594 301.417 87.0081C301.53 86.4958 306.865 82.6713 307.953 83.1811L307.387 84.8771C310.772 85.4049 314.108 84.8305 317.399 83.9486C319.217 83.4613 326.307 81.427 325.547 78.8476C325.323 78.0886 324.099 78.3239 324.445 77.2329C325.821 77.4276 327.866 76.966 329.137 77.2329ZM323.306 83.7471C318.035 85.3658 312.645 86.4022 307.103 86.4347C311.041 89.4571 317.487 88.6401 321.413 85.9645C321.747 85.7372 323.653 84.0821 323.306 83.7471ZM321.602 91.9609C319.369 91.2615 317.574 89.3506 315.148 90.7684L312.222 92.5206C315.684 94.6644 318.992 96.2635 321.602 91.9609Z" fill="black"/>
<path d="M303.405 66.7543C300.855 66.4978 299.106 65.5189 296.771 67.3696C294.911 68.8438 296.009 71.3947 295.404 72.3761C294.866 73.2496 293.747 72.3127 293.731 71.1525C293.687 67.9771 295.482 64.0407 299.028 63.6588C300.798 63.4682 303.681 64.6081 303.405 66.7543Z" fill="black"/>
<path d="M323.292 71.2693C321.933 72.0975 320.625 71.6943 319.216 71.8835C316.301 72.2751 314.228 74.8555 311.653 76.1C311.113 75.5116 314.748 73.4418 315.079 72.8597C315.766 71.6516 314.801 70.5845 316.339 69.3014C319.129 66.9756 324.124 70.0674 323.292 71.2693Z" fill="black"/>
<path d="M294.59 90.5386C293.306 91.2728 291.695 89.7945 290.767 91.1231C289.298 93.2281 291.236 95.9767 293.738 94.7923C292.884 96.4903 289.73 96.2381 288.774 94.7782C287.33 92.5728 290.208 90.1879 285.364 90.8396C284.733 90.9245 284.404 91.4224 283.788 91.3901C284.081 89.966 286.299 88.9276 287.632 88.834C288.674 88.7608 292.421 89.455 293.524 89.7641C293.944 89.8817 294.466 90.0679 294.59 90.5386Z" fill="black"/>
<path d="M302.186 72.7645C303.73 72.4147 306.506 73.5819 307.352 74.86C309.14 77.5597 302.391 76.8085 301.13 76.8149C299.928 76.2232 300.704 73.1002 302.186 72.7645Z" fill="black"/>
<path d="M320.466 72.9868C321.461 72.8374 322.527 74.2149 322.809 75.0467C323.787 77.9326 318.866 79.6117 316.623 79.7757C315.898 79.8287 313.59 80.0326 314.627 78.9226C316.178 77.2616 318.705 78.9922 320.185 77.0956C321.316 75.6453 320.323 74.5871 320.466 72.9868Z" fill="black"/>
<path d="M320.179 64.772C318.842 64.1926 317.879 63.4852 316.339 63.3616C313.803 63.1583 313.884 64.2077 312.348 64.4796C310.621 64.785 312.373 62.8514 313.157 62.4515C315.372 61.3228 319.554 62.0887 320.179 64.772Z" fill="black"/>
<path d="M304.826 79.2133C303.72 78.9614 297.687 81.4839 297.436 81.1965C297.321 81.0654 297.401 80.5784 297.623 80.3339C298.375 79.503 304.589 76.5107 304.826 79.2133Z" fill="black"/>
<path d="M322.739 157.374L317.622 163.032C321.004 163.95 324.552 163.664 327.975 164.193C328.268 164.239 329.037 164.306 328.993 164.731C322.782 163.926 315.789 164.527 310.23 161.193C311.096 161.121 311.97 161.754 312.855 161.976C313.405 162.113 316.607 162.688 316.788 162.605C316.997 162.509 319.228 159.78 319.892 159.208C320.661 158.545 321.758 157.548 322.739 157.374Z" fill="black"/>
<path d="M323.876 155.392C322.533 156.808 320.542 157.725 318.759 158.501C320.172 157.215 322.059 156.024 323.876 155.392Z" fill="black"/>
<path d="M298.287 126.219L291.463 121.128C294.461 121.268 297.138 123.484 298.287 126.219Z" fill="black"/>
</svg>
