<svg width="1280" height="720" viewBox="0 0 1280 720" fill="none" xmlns="http://www.w3.org/2000/svg">
<path d="M683.106 505.8C682.341 505.023 683.5 501.691 684.819 500.914C687.73 499.199 691.12 501.453 695.392 498.185C701.71 493.352 696.021 490.326 697.256 486.223C697.879 484.15 703.108 483.252 704.36 479.292C705.349 476.162 703.097 473.715 703.582 471.019C704.604 465.329 717.618 463.509 705.586 452.858C698.866 446.909 687.149 440.889 677.902 442.205C670.218 443.298 668.224 452.809 676.477 455.248C683.548 457.338 692.98 458.661 698.313 464.52C699.74 466.088 701.999 469.542 698.353 468.997C695.902 468.631 689.293 464.237 686.099 463.064C681.36 461.324 674.069 458.978 669.518 461.62C665.055 464.211 665.001 469.178 669.103 472.199C672.718 474.862 681.415 475.868 686.541 478.543C687.979 479.293 695.682 484.405 695.733 485.387C695.901 488.61 687.358 483.325 686.815 483.117C683.857 481.985 673.952 478.33 671.439 478.147C666.942 477.819 663.331 480.89 665.646 485.299C667.422 488.683 671.395 488.814 674.455 490.452C675.575 491.051 681.649 495.468 682.049 496.114C683.809 498.954 681.073 498.877 679.918 500.222C678.39 501.999 676.372 504.828 677.829 507.199C678.156 507.731 687.423 511.601 689.196 512.6C697.553 517.309 703.224 521.285 702.068 531.751C701.004 541.384 690.098 542.693 688.769 549.782C688.467 551.387 688.818 553.095 688.414 554.968C687.326 560.019 682.664 561.579 679.616 564.982C676.748 568.184 676.144 572.153 673.65 575.018C671.583 577.392 668.801 578.091 666.604 579.838C661.596 583.822 658.059 591.882 658.543 598.166C658.753 600.9 661.599 608.13 658.542 609.96C654.421 612.427 650.59 601.986 648.695 599.56C642.337 591.418 632.263 593.406 623.106 590.868C616.092 588.924 609.058 583.689 601.966 583.962C588.765 584.471 574.133 590.888 562.792 597.257C559.408 599.157 531.576 618.037 530.019 616.508C530.502 613.554 533.789 610.853 536.004 608.918C540.099 605.342 546.579 600.674 551.145 597.543C552.997 596.273 563.644 590.597 563.71 589.871C563.839 588.444 561.685 589.394 561.228 589.476C551.941 591.14 534.992 593.882 527.439 598.403C515.648 605.462 521.829 610.234 522.284 621.708C520.805 627.527 527.795 642.84 517.04 640.713C511.43 639.603 515.48 622.982 509.153 621.43C508.445 621.257 498.468 626.756 495.968 627.593C492.916 628.615 489.753 629.766 486.476 629.651C489.992 626.477 495.149 624.985 499.057 622.333C499.981 621.707 507.265 616.212 506.135 615.13C491.197 619.167 475.211 621.351 459.792 619.271C462.092 616.943 467.401 616.278 470.686 615.83C480.518 614.489 496.368 613.903 504.687 607.815C511.02 603.181 504.162 598.716 498.883 598.77C493.406 598.827 481.058 603.862 474.671 605.225C469.685 606.289 464.95 607.261 459.791 606.817C459.968 605.787 461.078 605.482 461.898 605.094C470.221 601.16 481.167 600.184 488.581 594.377C475.779 591.427 462.625 599.47 450.131 601.109C449.045 601.252 440.966 601.793 442.938 599.222C443.792 598.11 460.054 593.512 463.09 591.739C464.056 591.174 464.976 590.898 464.703 589.529C463.749 589.561 462.81 589.503 461.898 589.181C457.819 587.744 451.992 584.029 448.215 583.945C441.248 583.79 436.811 590.852 427.834 590.764C413.326 590.622 406.591 580.22 396.922 572.935C390.465 568.069 388.745 570.962 382.228 570.865C370.497 570.69 382.775 565.253 387.456 565.299C385.291 559.152 379.691 561.766 375.198 561.876C372.123 561.951 359.377 562.45 357.969 560.449C359.232 555.143 365.499 557.77 368.774 557.627C373.531 557.419 383.055 556.685 374.84 551.792C366.39 546.76 351.522 548.349 341.536 545.858C338.602 545.126 333.593 543.608 331.982 541.097C333.762 538.73 350.22 544.365 354.658 543.017C355.181 542.858 356.548 541.689 356.547 541.435C356.546 541.068 352.018 536.832 351.276 536.262C343.572 530.343 333.695 529.448 325.179 525.302C323.819 524.641 315.764 519.972 320.442 518.978C323.106 518.411 334.978 527.274 337.612 525.548C339.899 524.049 337.241 523.75 336.562 523.117C324.043 511.446 308.004 504.149 298.615 489.198C296.329 488.087 298.723 495.142 298.946 495.795C301.326 502.75 305.364 509.763 307.927 516.699C308.815 519.104 311.78 525.834 310.281 527.655C307.757 530.722 302.955 526.917 301.099 524.811C289.786 511.97 276.735 465.369 273.89 447.829C272.953 442.049 273.166 435.78 272.202 430.117C270.214 418.44 264.858 423.369 260.738 417.195C258.966 414.54 259.431 411.325 258.174 409.342C257.435 408.177 255.001 407.12 253.727 405.421C252.321 403.546 251.917 400.999 250.81 399.299C248.711 396.076 243.528 394.203 244.343 389.405C247.181 382.291 247.621 373.779 250.187 366.737C251.981 361.815 258.284 356.783 258.274 351.862C258.273 350.818 258.718 349.825 257.201 350.117C256.04 351.079 250.488 357.471 249.115 356.332C254.202 348.038 259.298 341.429 258.236 331.091C257.962 328.425 256.957 324.853 254.742 323.13C253.655 327.808 252.495 332.272 250.635 336.732C250.311 337.511 246.366 346.734 244.902 345.261C253.441 327.898 253.553 294.358 228.045 292.678C229.069 296.193 228.003 302.422 228.72 305.366C228.821 305.779 231.637 306.71 232.857 308.354C236.698 313.534 237.069 319.974 235.568 326.038C230.262 347.471 199.948 357.085 186.645 372.608C186.683 373.108 194.395 377.277 195.704 376.769C205.824 367.689 219.252 364.973 229.821 357.049L239.276 347.347C233.96 365.717 212.671 366.567 200.709 378.92C200.48 380.23 210.07 386.23 211.822 387.895C214.921 390.84 219.141 396.541 220.855 400.445C221.118 401.045 223.669 407.266 221.385 406.154C209.058 386.284 184.339 378.204 162.736 371.909C122.558 360.202 63.4033 357.099 48.475 311.507C42.3171 292.701 51.1016 289.164 66.7544 282.176C69.4417 280.976 75.3187 279.814 77.2888 278.197C77.5761 277.962 80.5757 271.939 80.5575 271.571C80.5193 270.796 78.8724 270.581 78.1507 270.503C71.195 269.76 58.3066 271.706 51.7964 274.357C43.7017 277.653 31.7998 286.607 32.1264 296.139C34.8756 293.71 35.4313 289.82 38.0967 287.152C40.3623 284.884 45.6269 281.938 48.9698 281.951C47.0304 283.964 44.294 285.229 42.2822 287.125C38.4079 290.775 31.9463 302.612 30.1558 307.698C27.9937 313.838 29.1779 316.136 31.9989 321.514C35.5632 328.309 42.3514 334.89 42.646 342.5C36.5792 336.879 29.9314 328.248 26.4833 320.722C25.8334 319.304 24.9172 313.024 23.6216 316.48C18.2467 330.814 22.4812 346.938 33.8566 357.049C42.2801 364.536 76.8488 379.85 88.1265 381.765C102.433 384.195 118.519 382.282 132.863 381.912C139.661 381.737 146.945 381.626 153.605 382.641C153.494 383.749 150.581 383.942 149.737 384.009C128.407 385.697 99.0803 389.8 78.8069 384.029C68.1363 380.991 58.1204 375.65 47.5724 372.257C46.8566 372.949 52.3429 380.543 53.2077 381.574C54.7173 383.375 62.0657 389.345 62.3098 389.908C62.9009 391.272 61.6726 390.936 60.8271 390.677C55.9559 389.185 51.9473 385.744 47.5759 383.325C46.3181 392.196 53.6126 397.92 60.2715 402.292C64.2415 404.899 71.1425 408.944 75.3931 410.919C86.5382 416.097 101.372 415.955 113.577 416.542C114.764 417.427 113.492 417.798 112.533 417.917C101.584 419.272 87.8949 418.734 77.2164 416.042C70.8939 414.447 65.1115 411.202 58.805 409.626C68.3 423.625 88.3719 424.346 103.749 426.924C102.632 428.879 99.1172 428.887 97.1082 429.023C82.6274 430.007 59.4941 425.581 51.6368 412.184C49.7651 408.993 48.8412 404.542 47.1504 401.382C45.3123 397.946 42.3874 395.486 40.9138 391.612C36.4829 379.964 43.3138 376.007 32.4891 365.316C16.1979 349.225 10.4072 338.971 16.1759 315.373C21.4041 293.987 29.5311 277.06 51.4092 268.44C59.2054 265.368 67.1775 266.481 75.2196 265.607C87.6838 264.251 92.1056 252.226 100.999 245.339C111.774 236.996 122.526 237.136 134.802 233.67C139.58 232.321 147.301 228.163 151.936 228.386C155.281 228.547 151.51 230.947 152.211 231.788C158.806 230.329 167.874 228.665 174.319 231.103C175.404 231.513 176.346 231.692 176.077 233.169L173.276 233.856C174.342 233.919 195.081 237.724 192.935 239.393C192.298 239.265 186.445 239.891 188.021 241.465C190.698 241.87 209.216 254.043 206.973 256.698C206.234 256.537 199.618 253.275 200.666 255.651C201.021 256.457 203.34 258.09 204.156 259.135C209.854 266.444 209.931 271.037 213.377 278.419C218.184 288.715 236.063 285.049 245.232 292.7C252.575 298.828 253.028 305.379 256.721 313.21C259.133 318.324 263.929 323.816 264.949 329.32C266.042 335.225 264.382 340.323 264.536 345.595C264.559 346.395 264.213 347.908 265.608 347.338C265.953 347.197 270.671 342.968 271.161 342.426C275.024 338.159 275.998 333.005 279.654 328.653C286.598 320.388 293.826 319.727 302.959 315.634C313.166 311.059 317.498 305.931 330.028 307.404C334.46 307.924 340.275 311.171 343.641 311.342C344.476 311.385 345.936 311.116 346.001 310.334C346.08 309.378 343.054 303.972 341.802 303.415C339.775 302.513 330.644 302.924 326.907 302.176C317.264 300.247 300.769 291.619 295.579 283.224C292.681 278.537 291.913 272.536 289.406 267.825C287.925 265.042 285.431 264.609 283.87 261.549C280.854 255.634 283.317 248.379 279.668 242.874C276.877 245.903 275.014 241.511 274.565 238.888C273.512 232.739 274.735 223.737 276.694 217.792C277.217 216.206 280.383 211.554 279.667 210.335C279.009 209.216 278.415 210.085 277.566 210.338C271.753 212.065 265.614 220.624 261.401 224.865C260.238 213.214 269.557 205.01 279.399 200.391C281.164 199.562 291.221 196.395 291.236 195.461C291.252 194.462 288.868 194.448 288.121 194.393C280.369 193.812 272.85 196.186 265.267 197.184C270.495 190.854 279.559 187.687 287.739 187.501C288.803 186.5 282.792 179.997 282 178.282C278.793 171.343 281.844 165.357 284.938 159.135C287.409 160.518 286.037 164.465 286.394 167.033C286.823 170.123 288.502 173.065 290.623 175.321C291.202 175.937 296.147 179.891 296.521 179.875C298.431 179.796 296.344 175.017 296.245 173.938C294.883 159.118 303.409 148.725 313.001 138.703C319.534 131.877 326.841 126.768 333.746 120.391C335.262 119.778 334.861 121.927 334.728 122.743C332.605 135.756 322.291 145.158 320.756 158.107C320.401 161.106 321.411 164.335 320.213 167.26C318.867 170.546 315.684 171.395 315.093 167.125C314.014 159.338 318.07 150.795 319.333 143.219C316.782 145.29 314.247 148.588 312.448 151.305C309.4 155.909 305.058 165.131 303.786 170.448C302.777 174.664 303.927 187.355 302.568 189.179C302.136 189.759 293.58 190.19 292.661 192.012L295.691 195.589C302.743 197.424 290.476 202.738 291.956 207.567C295.732 206.722 296.77 202.266 298.992 199.63C302.873 195.023 307.769 190.496 311.97 186.123C312.938 186.606 312.009 187.942 311.661 188.587C310.384 190.947 301.166 200.753 302.543 202.663C303.647 202.738 304.912 203.912 305.777 203.998C308.18 204.239 314.701 189.721 319.336 189.583C319.065 193.798 312.633 197.39 318.403 200.556C322.764 202.948 324.112 194.522 326.714 192.361C328.431 194.794 330.514 196.904 332.651 198.969C333.502 199.792 334.808 199.727 335.29 200.152C335.963 200.745 336.416 202.678 337.958 204.104C339.859 205.864 342.653 207.289 345.32 206.874C343.689 197.329 331.564 197.336 331.988 186.812C333.837 188.304 335.28 190.276 336.917 192.016C337.594 192.735 337.548 194.811 339.007 193.383L340.047 190.277C341.408 191.974 352.286 201.241 353.75 199.952C346.071 189.114 334.312 173.399 343.919 160.518V174.011C343.919 175.257 346.4 183.503 348.835 181.968V171.935C348.835 171.462 348.068 170.163 348.104 168.521C348.237 162.603 353.377 153.07 360.068 152.911C353.373 167.696 352.923 182.046 360.272 196.647C362.119 200.316 367.634 207.103 368.478 210.017C368.81 211.164 368.379 211.062 367.434 211.053C362.156 211.002 357.554 207.385 352.35 206.882C351.162 207.974 362.274 219.825 362.16 221.76C362.095 222.872 358.957 222.946 357.964 222.8C359.642 224.844 359.036 227.295 359.902 229.533C360.648 231.461 362.868 233.885 363.573 235.607C364.45 237.751 359.665 235.238 358.666 235.947C359.384 237.254 362.357 241.289 362.18 242.499C361.768 245.316 355.081 239.76 353.751 240.098C354.709 242.633 359.921 244.628 360.767 246.675C361.708 248.952 356.929 246.714 356.56 247.017L360.071 252.54C348.013 254.284 338.638 243.614 327.338 242.245C304.421 239.468 292.983 256.82 301.648 277.244C307.907 291.996 341.836 304.201 352.341 290.253C354.238 287.733 355.627 280.204 360.042 284.063C362.929 286.587 360.267 289.299 361.062 291.999C361.987 295.143 367.779 299.961 369.195 303.409C366.747 304.394 364.06 300.569 361.466 301.338C363.582 307.892 363.958 316.837 366.968 322.903C373.878 336.834 410.219 343.263 424.341 348.713C442.829 355.847 434.958 370.843 442.791 383.814C445.565 388.406 456.568 393.426 460.135 388.854C463.083 385.075 460.824 377.802 465.756 372.25C473.343 363.709 473.349 375.525 476.165 378.959C476.894 379.848 481.448 383.031 482.745 383.887C483.589 384.445 487.892 387.452 488.579 386.781C487.939 381.643 482.292 379.485 479.455 376.057C476.138 372.048 474.844 366.632 469.148 364.071L456.283 356.342C456.928 361.551 455.538 366.224 454.883 371.223C454.343 375.342 455.308 380.843 451.714 384.003C443.878 374.381 448.643 360.75 447.186 349.73C446.821 346.972 445.003 346.154 442.617 345.237C435.42 342.47 424.843 342.139 416.571 339.07C407.24 335.608 387.856 322.539 380.796 315.505C379.442 314.156 378.537 312.32 377.627 310.677C379.149 309.51 392.553 319.501 394.963 320.921C414.131 332.22 433.953 336.751 456.156 331.653C466.867 329.194 485.965 320.736 491.509 311.131C495.8 303.697 492.712 302.357 492.106 295.09C491.852 292.053 492.872 280.422 491.217 279.013C489.63 277.662 470.46 279.591 466.432 279.56C445.346 279.398 425.421 275.405 408.597 262.51C406.047 260.555 405.019 257.435 401.494 258.387C399.017 259.056 393.079 264.835 394.784 258.727C396.653 252.033 408.209 249.623 414.273 249.935C424.409 250.456 418.505 257.038 411.333 256.009C411.123 257.611 412.214 258.93 413.151 260.099C421.417 270.421 462.261 275.388 475.598 276.066C479.383 276.259 487.574 276.668 490.629 274.976C494.088 273.059 495.742 263.726 497.585 259.687C499.213 256.12 503.666 250.667 504.42 247.712C504.579 247.086 504.831 235.841 504.69 234.944C503.655 228.355 496.961 224.182 491.167 221.976C482.817 218.797 474.035 220.608 465.377 219.018C461.19 218.249 456.376 214.207 457.258 209.629C458.723 202.024 462.453 211.681 464.501 212.27C465.877 212.666 474.78 212.67 476.152 212.274C479.119 211.418 477.596 202.706 480.142 204.808C482.017 206.355 483.278 215.117 488.58 213.793C484.814 202.6 488.238 189.782 481.299 179.804C478.695 176.059 474.001 172.568 469.253 172.259C465.428 172.011 460.424 174.954 458.828 169.361C456.389 160.813 472.815 166.107 473.835 165.354C470.209 158.929 462.566 153.55 456.049 150.02C442.695 142.787 428.449 141.496 413.442 141.136C411.887 140.015 422.422 137.498 423.248 137.313C443.337 132.807 467.97 134.327 486.949 142.407C492.699 144.855 498.407 147.891 502.624 152.564L466.817 142.53C466.43 144.371 467.29 143.721 468.199 144.248C473.61 147.383 479.37 149.244 484.6 153.025C486.503 154.4 494.82 162.618 495.956 162.617C496.982 162.617 507.92 150.975 510.823 148.872C536.512 130.256 574.286 124.957 603.081 139.382C606.709 141.2 612.525 146.144 616.229 146.554C619.486 146.914 623.977 144.91 627.284 144.609C646.431 142.868 667.093 151.066 681.369 163.268C684.312 165.783 692.469 175.938 694.366 176.794C695.695 177.394 701.695 176.117 704.464 176.495C713.229 177.689 716.023 187.308 713.964 194.728C713.224 197.399 711.143 199.393 711.15 202.256C718.609 206.354 725.669 210.177 723.522 220.065C722.567 224.467 718.984 224.063 721.104 229.298C725.12 239.214 743.379 255.846 751.235 263.954C770.437 283.774 815.478 327.156 786.265 355.23C785.733 355.742 781.203 359.614 780.723 359.103C782.306 354.33 784.401 349.596 785.323 344.615C793.035 302.988 744.087 270.254 722.138 241.419C720.304 239.01 716.539 231.696 715.043 230.42C713.096 228.759 711.877 230.029 711.982 232.14C712.086 234.231 719 244.65 720.736 246.953C743.773 277.532 784.225 302.69 775.626 346.823C774.007 355.133 769.385 360.421 766.541 367.624C761.911 379.349 760.211 388.467 749.454 397.149C740.383 404.47 724.825 410.227 713.309 406.842L725.261 401.681C771.964 374.121 747.81 316.294 723.019 282.071L718.924 278.153C722.223 286.396 727.268 293.725 731.228 301.658C741.503 322.249 750.337 342.459 744.576 366.048C740.626 382.224 718.922 400.622 701.716 400.615C696.276 400.613 689.542 396.634 684.524 401.66C689.226 404.7 689.771 413.584 692.553 416.571C694.644 418.817 702.343 420.468 705.83 422.172C714.382 426.352 718.684 431.074 717.438 441.025C717.101 443.72 715.347 446.218 715.339 448.711C715.33 451.827 718.238 455.291 718.751 458.566C719.907 465.955 714.661 469.422 713.079 475.479C712.247 478.664 712.728 481.47 711.23 484.728C710.187 486.995 707.864 488.732 706.841 490.783C704.589 495.296 705.544 500.601 700.208 503.622C699.457 504.047 694.485 505.8 693.991 505.8C692.432 505.8 683.486 506.184 683.106 505.8ZM687.316 181.27C687.805 180.628 684.47 176.788 683.828 176.068C673.09 164.033 650.323 154.651 634.293 153.605C627.214 153.144 617.195 155.427 611.139 154.277C609.055 153.881 604.247 148.501 601.576 147.093C569.307 130.082 519.373 139.625 497.727 169.182C496.036 171.491 490.199 181.074 491.732 183.359C493.939 185.307 496.138 179.005 497.425 177.188C517.08 149.421 551.22 141.555 582.866 154.457C583.719 154.805 588.024 156.227 586.208 157.415C583.624 159.104 576.172 159.733 572.702 160.715C559.634 164.41 545.677 172.769 542.663 186.812C546.985 183.317 549.333 177.977 553.558 174.374C562.196 167.008 586.324 155.687 597.227 161.066C602.056 163.448 597.113 168.973 596.994 173.426C596.754 182.33 602.578 196.109 607.396 203.633C616.447 217.766 631.642 232.097 647.633 238.026C649.145 236.854 647.667 236.894 647.075 236.473C638.647 230.473 631.565 226.568 624.458 218.651C614.256 207.286 603.086 190.714 603.759 175.052L610.199 188.417C614.125 195.788 629.787 217.745 637.121 220.709C637.537 220.878 638.304 220.838 638.158 220.376C626.21 207.319 614.898 191.622 612.888 173.665C615.956 175.897 616.965 180.741 618.822 184.072C622.814 191.231 627.756 198.338 633.601 204.107C634.139 201.383 631.946 200.229 632.681 196.999C633.108 195.123 636.714 191.793 636.486 190.928C636.021 189.165 630.571 183.591 629.153 181.504C627.821 179.546 621.784 169.995 623.419 168.132C624.727 167.917 625.447 169.033 626.242 169.841C629.27 172.92 638.164 185.714 641.578 186.451C643.182 186.798 647.16 186.181 646.489 183.809C646.25 182.966 634.122 171.299 635.353 170.212C637.418 170.063 639.068 171.848 640.601 172.989C642.927 174.722 650.138 182.87 651.262 183.246C651.798 183.425 652.36 183.364 652.906 183.349C651.475 166.876 666.784 165.529 677.496 174.695C679.289 176.229 682.597 181.116 683.839 181.649C684.703 182.02 687.088 181.57 687.316 181.27ZM478.751 158.449L488.934 173.652C490.22 172.491 494.05 168.326 493.199 166.747C492.542 165.529 480.002 157.485 478.751 158.449ZM537.74 164.676C525.024 168.803 510.127 180.755 505.417 193.366C505.111 194.186 503.858 198.365 504.035 198.57C505.088 199.794 505.576 197.622 505.844 197.265C509.568 192.295 512.454 187.045 516.654 182.296C522.974 175.149 530.421 170.61 537.74 164.676ZM633.247 260.85H645.536C646.932 260.85 648.73 259.752 647.999 258.085C644.742 258.104 640.853 257.464 638.865 254.629C642.124 254.739 647.669 257.813 650.101 254.629C645.886 256.067 633.48 248.834 635.692 244.256C637.286 240.959 640.619 245.466 642.584 246.46C645.562 247.966 652.692 249.981 655.016 247.019C629.959 240.067 605.228 220.695 594.02 197.438C593.039 195.401 592.144 190.708 590.799 189.542C586.98 186.231 579.501 188.181 575.294 189.563C572.236 190.568 567.234 194.689 565.486 190.943C562.953 185.516 573.614 179.194 578.179 178.571C583.243 177.88 585.782 179.647 590.406 180.581C589.381 178.077 592.834 167.476 591.149 166.363C587.388 163.88 568.85 171.142 564.513 173.404C554.274 178.745 546.65 187.042 543.159 198.032C542.689 199.511 540.918 208.972 540.198 208.94C534.06 198.484 532.281 185.378 540.669 175.512C543.166 172.575 546.987 171.448 548.267 168.129C538.893 172.295 529.229 178.198 522.31 185.792C521.13 187.086 516.442 192.896 515.979 194.089C515.406 195.563 516.763 195.023 517.548 194.947C520.963 194.618 527.031 193.752 528.953 197.891C532.368 205.244 521.493 200.557 520.01 200.769C513.241 201.737 507.395 209.854 506.92 216.311C506.548 221.366 510.462 231.266 513.253 235.503C518.429 243.363 532.191 230.51 535.698 234.835C538.842 238.71 532.122 241.983 529.3 243.192C525.843 244.674 511.692 247.488 510.708 248.399C509.747 249.289 506.32 257.435 505.601 259.282C496.808 281.886 497.591 302.289 513.885 321.375C539.422 351.289 575.367 344.225 607.038 328.785C619.227 322.842 627.935 315.248 636.751 305.135C633.369 319.354 617.334 329.829 604.926 336.391C597.734 340.194 579.954 345.933 575.381 350.872C572.718 353.748 567.762 367.622 572.576 368.703C573.605 368.934 583.55 364.662 585.898 364.003C596.192 361.114 608.877 359.819 619.546 360.497C622.123 360.661 631.851 362.961 633.072 361.711C635.428 359.297 631.715 351.261 631.788 347.693C631.928 340.917 637.155 324.921 639.929 318.293C641.267 315.097 648.403 303.446 648.539 301.908C648.796 298.995 641.228 292.043 647.603 287.787C651.625 285.102 652.464 293.244 655.47 295.347C665.756 302.541 681.982 291.825 687.456 282.78C693.189 273.308 694.831 255.278 682.347 250.181C662.976 242.273 658.202 270.173 637.615 263.815C637.017 263.63 631.768 262.01 633.247 260.85ZM517.372 168.133C515.362 166.245 506.956 176.4 505.849 177.877C502.29 182.626 498.617 188.354 498.421 194.423C502.304 189.672 504.708 183.887 508.364 178.971C510.696 175.836 513.587 173.394 515.972 170.552C516.626 169.773 517.675 169.435 517.372 168.133ZM678.897 195.804C679.759 189.42 680.189 184.56 676.924 178.718C669.979 166.291 652.359 171.322 660.761 185.65C661.965 187.703 670.142 196.578 668.355 198.571C661.538 195.827 651.835 186.891 644.222 191.056C633.903 196.703 644.032 208.617 653.259 209.648C655.263 209.872 667.402 209.955 668.052 208.998C668.617 208.168 668.225 206.083 668.689 204.781C669.644 202.099 673.78 197.881 676.6 197.308C682.706 196.067 688.309 204.586 690.313 204.632C696.383 204.771 703.983 201.809 707.681 196.841C710.889 192.533 710.803 186.342 705.822 183.457C698.532 179.234 690.846 184.815 685.897 189.908C683.631 192.24 682.703 196.195 678.897 195.804ZM332.683 204.802C332.81 207.649 329.976 212.58 335.891 213.087C343.2 213.713 338.209 202.716 332.683 204.802C332.602 202.988 328.789 198.362 327.288 197.96C325.282 197.424 321.929 202.442 323.5 204.493C326.889 208.917 329.523 205.996 332.683 204.802ZM315.114 199.963C313.492 198.845 310.379 205.004 309.598 205.969C310.754 207.901 313.705 211.275 315.83 209.3C320.618 204.848 316.771 204.433 315.114 199.963ZM674.891 204.31C670.92 209.164 678.261 214.834 683.091 211.357C689.391 206.823 679.045 199.232 674.891 204.31ZM301.775 204.112C292.288 209.256 301.754 216.568 303.082 209.132C303.459 207.023 302.071 205.972 301.775 204.112ZM690.832 213.113C695.78 220.264 705.013 229.028 713.964 222.406C725.407 213.941 707.066 201.63 698.569 205.162C694.721 206.761 695.15 213.29 690.832 213.113ZM320.224 208.451C315.189 213.485 324.884 218.946 325.682 213.408C326.032 210.976 322.185 206.49 320.224 208.451ZM308.46 211.266C304.167 211.241 304.137 219.512 308.466 219.162C309.026 219.116 312.338 215.764 312.34 214.837C312.343 213.615 309.63 211.272 308.46 211.266ZM341.211 212.52C340.698 213.321 340.991 216.156 341.791 216.934C342.343 217.471 348.895 220.302 348.821 218.295C348.802 217.764 343.061 209.63 341.211 212.52ZM686.61 214.49C682.369 216.879 679.631 218.065 674.899 216.002C672.988 215.17 670.135 212.043 668.612 211.886C667.111 211.732 657.959 215.03 656.194 215.996C652.479 218.032 647.452 222.929 648.45 227.473C650.747 237.927 665.36 238.192 670.613 229.512C672.468 226.447 672.998 219.995 677.485 220.028C676.404 229.928 680.775 247.935 694.214 244.462C701.914 242.471 701.435 234.801 698.16 229.065C695.024 223.573 687.777 220.669 686.61 214.49ZM333.294 220.627C333.446 220.531 334.67 217.705 334.464 217.244C334.069 216.362 330.865 213.466 329.616 213.84C328.728 214.107 326.562 217.571 327.149 218.558C327.464 219.088 332.241 221.291 333.294 220.627ZM296.813 220.667C298.288 216.793 292.742 213.105 291.365 217.745C290.377 221.074 294.372 221.458 296.813 220.667ZM317.018 218.024C313.442 218.917 315.372 224.233 318.914 223.386C321.816 222.691 319.927 217.297 317.018 218.024ZM340.396 224.862C343.577 218.224 334.934 218.849 337.241 223.487C337.798 224.607 339.192 225.075 340.396 224.862ZM291.246 222.104L287.741 223.839C289.479 227.852 292.578 225.705 291.246 222.104ZM144.616 236.478C144.219 236.236 144.105 234.734 143.462 234.655C142.63 234.553 134.417 238.299 132.387 238.902C124.237 241.323 110.04 243.147 104.451 250.125C103.046 251.88 102.53 254.196 101.247 255.963C99.4724 258.404 96.2797 260.557 94.2602 262.918C87.8586 270.401 85.5939 278.871 84.7955 288.525L89.0117 276.767C89.7674 276.64 90.3535 276.796 90.7859 277.44C91.737 278.857 88.0066 295.393 88.2852 298.517L89.6954 300.289L92.0112 289.071L94.6126 283.688C95.2013 289.731 92.972 295.68 94.2651 301.671C96.1595 298.538 95.4242 294.344 96.6886 290.912C97.4779 288.771 99.9516 285.997 101.635 284.377L100.947 298.212L103.745 295.451C104.765 298.306 102.192 301.808 102.357 304.057C102.438 305.158 103.399 306.053 103.567 307.049C104.348 311.676 105.342 316.344 105.15 321.046C100.533 319.123 95.561 315.086 90.6298 319.198C81.216 327.048 93.5784 341.635 104.133 341.833C106.68 341.881 111.203 339.39 112.859 340.061C113.808 340.445 120.759 348.98 123.078 350.786C129.526 355.809 138.839 358.502 146.946 359.098C150.22 359.338 165.091 360.224 167.295 359.785C168.824 359.481 169.251 358.151 170.25 357.858C171.704 357.433 173.437 357.933 174.946 357.643C189.791 354.791 209.68 342.269 211.836 326.18C213.48 313.913 205.097 287.981 200.691 275.696C200.457 275.043 197.887 271.913 200.295 272.623C201.54 272.99 206.141 277.553 206.98 276.758C205.71 272.246 201.855 269.723 199.259 266.036C201.552 264.384 203.817 268.872 204.183 269.14C207.479 271.555 203.382 264.732 202.75 263.98C201 261.895 191.088 254.879 188.735 254.213C186.716 253.642 185.769 254.652 184.205 254.585C182.519 254.513 176.508 251.719 175.379 252.554L177.482 256.003C168.531 254.376 160.255 249.208 154.317 242.504C154.026 240.998 154.995 241.45 156.049 241.484C160.764 241.638 184.369 252.541 185.91 251.158L185.213 247.707C186.951 247.231 189.422 249.211 190.126 247.023C188.348 245.894 183.937 243.502 182.727 242.192C181.801 241.189 181.721 239.612 180.987 239.063C179.1 237.652 170.37 237.682 167.315 236.62C165.596 236.022 165.276 234.813 163.133 234.518C158.749 233.916 146.924 237.884 144.616 236.478ZM672.571 242.177C672.132 241.75 666.628 240.647 665.557 239.4C663.864 241.557 670.112 243.502 671.509 243.575C672.807 243.643 673.18 242.77 672.571 242.177ZM762.468 337.656C763.956 337.269 763.903 335.751 763.933 334.547C764.521 311.024 742.437 283.05 727.71 265.684C725.252 262.786 722.652 259.752 719.631 257.39C720.212 260.848 722.657 264.381 724.419 267.543C737.338 290.723 753.947 312.341 762.468 337.656ZM712.605 384.013C729.157 376.614 732.088 354.732 730.851 338.703C729.465 320.756 712.855 285.025 703.294 268.982C702.84 268.221 702.334 267.268 701.372 267.078C702.588 292.234 718.043 313.747 721.02 338.702C722.343 349.79 722.222 365.033 717.537 375.387C716.906 376.783 711.926 383.353 712.605 384.013ZM76.3612 298.561C75.9468 295.134 76.3612 290.419 76.3612 286.798C76.3612 286.373 75.432 285.908 74.7719 285.889C72.8625 285.831 66.9016 287.766 64.8757 288.628C58.9585 291.147 53.1236 296.486 53.2627 303.334C53.3359 306.937 60.7759 325.45 64.0752 325.183C66.1441 320.95 67.2229 313.993 72.1439 312.058C72.2945 318.273 67.4874 324.294 69.7171 330.707C70.1089 331.834 73.9979 337.59 74.8623 334.449C75.7112 331.364 74.2488 326.164 77.4145 323.139C80.9198 327.855 79.9998 337.954 84.4222 341.823C87.5823 344.587 98.0184 348.224 102.324 349.093C104.438 349.519 109.389 351.194 108.671 347.698C108.495 346.839 97.7373 344.912 95.5487 344.006C89.098 341.336 80.5967 332.143 81.3082 324.937C81.5043 322.952 83.274 320.572 83.1818 318.737C82.9975 315.068 77.0479 304.241 76.3612 298.561ZM217.521 312.746C224.149 309.153 226.804 296.455 219.409 292.546C216.649 291.088 211.636 291.075 212.556 295.047C212.739 295.834 217.117 295.941 218.063 298.711C219.488 302.881 215.975 301.196 215.448 302.789C214.873 304.526 218.337 310.262 217.521 312.746ZM692.22 296.142C692.021 295.984 690.709 296.23 690.132 296.136C690.778 310.365 692.057 323.587 687.344 337.334C682.673 350.956 671.751 360.485 662.359 370.887C661.525 372.688 663.896 376.891 666.64 375.058C690.349 359.215 697.113 341.013 695.075 313.063C694.928 311.049 692.898 296.68 692.22 296.142ZM650.088 359.107C650.496 358.774 652.325 350.452 652.871 349.035C658.632 334.097 671.658 333.288 672.598 313.815C672.697 311.768 673.108 308.733 671.516 307.214C669.686 310.779 669.583 314.699 668.191 318.462C664.445 328.587 654.373 332.95 649.971 342.026C646.901 348.358 647.304 352.305 647.997 359.11C648.572 359.017 649.901 359.259 650.088 359.107ZM220.323 336.957C221.56 338.15 227.311 329.886 227.925 328.887C232.985 320.655 233.334 316.656 228.741 307.904L219.639 319.338C218.29 324.009 219.571 328.981 217.514 333.498C219.325 335.295 222.1 324.568 223.827 324.509C223.678 328.855 222.46 333.207 220.323 336.957ZM668.366 344.575C676.727 338.406 682.55 326.117 681.736 315.821C681.642 314.63 681.822 313.543 680.645 312.75C678.632 318.197 677.858 324.052 675.905 329.522C673.992 334.879 670.775 339.485 668.366 344.575ZM320.54 313.586L306.036 323.51C298.281 323.867 288.285 322.811 284.777 331.622C281.591 339.624 293.256 332.048 295.979 331.597C304.614 330.168 302.258 336.527 306.333 341.823C312.372 349.673 328.645 354.741 338.003 350.856C341.307 349.485 340.776 346.341 345.574 350.212C351.719 355.169 364.977 378.596 371.016 386.725C387.573 409.015 420.007 447.098 449.579 449.088C471.678 450.575 500.982 446.278 523.338 443.518C532.183 442.425 541.957 441.521 550.632 439.966C557.791 438.683 566.253 438.53 563.525 429.531C560.704 420.221 543.877 394.175 534.735 390.784C532.13 389.818 527.056 390.099 524.137 390.334C502.54 392.073 466.458 405.418 446.243 397.712C436.667 394.061 419.464 379.814 411.003 372.927C390.77 356.459 366.169 327.734 342.699 318.446C337.704 316.469 325.488 312.469 320.54 313.586ZM509.65 363.943C505.036 352.385 505.353 339.823 508.611 327.899C506.718 325.28 500.837 315.937 497.333 318.238C494.695 319.97 490.776 326.034 487.548 328.679C483.2 332.241 478.537 334.061 473.307 336.098C469.017 337.768 458.741 339.219 457.829 344.353C457.342 347.096 467.801 354.426 470.444 355.183C479.794 357.861 488.396 353.912 500.297 358.982C503.719 360.439 506.256 362.793 509.65 363.943ZM513.864 336.618C513.206 339.007 513.864 347.882 513.864 351.149C513.864 354.209 517.756 364.774 519.352 367.884C520.352 369.835 527.598 381.048 530.016 379.166C528.448 375.511 525.617 372.506 523.9 368.938C520.39 361.648 519.073 352.262 518.717 344.228C518.626 342.173 519.814 340.378 519.198 338.331C518.49 335.98 514.671 333.687 513.864 336.618ZM677.49 390.253C680.722 395.367 690.364 389.515 694.283 387.072C711.792 376.159 716.786 354.711 712.594 335.581C708.499 339.792 710.269 346.604 709.781 351.831C708.074 370.129 694.244 383.912 677.49 390.253ZM271.83 366.956C273.418 365.198 279.855 360.511 282.178 358.817C285.772 356.196 297.908 349.648 299.747 347.022C300.95 345.305 298.101 341.253 296.555 340.387C294.693 339.344 292.404 339.553 290.361 339.9C282.952 341.16 265.148 355.358 261.178 361.651C256.154 369.616 256.102 379.32 252.618 387.883C252.627 390.197 253.983 391.108 256.297 390.816C266.28 389.559 266.522 372.834 271.83 366.956ZM390.271 343.887C390.022 345.1 390.904 345.597 391.661 346.316C398.337 352.658 408.441 360.171 415.92 366.006C421.958 370.717 420.196 369.223 422.754 364.476C424.03 362.109 428.08 357.643 425.755 355.62L390.271 343.887ZM532.546 346.007C528.848 347.09 532.297 358.447 533.204 361.154C534.176 364.053 539.931 377.251 543.57 376.333C548.432 375.106 541.863 368.961 540.673 366.942C536.355 359.61 537.722 354.485 535.289 348.029C534.818 346.78 534.16 345.534 532.546 346.007ZM327.062 360.483C327.645 359.721 326.61 358.941 325.846 358.578C322.89 357.172 316.592 356.253 312.835 354.791C310.534 353.895 305.421 350.426 303.693 350.895C298.01 356.203 279.764 364.934 279.266 373.302C279.044 377.042 282.98 379.629 286.504 379.049C292.321 378.093 299.144 369.744 305.031 366.804C309.053 364.795 326.371 361.387 327.062 360.483ZM556.697 369.482C556.937 369.25 556.586 367.311 556.384 366.685C555.129 365.113 553.023 353.587 552.137 353.585C550.403 353.581 551.168 359.974 551.399 361.216C551.661 362.618 554.53 371.588 556.697 369.482ZM160.631 363.957C165.431 367.809 173.16 367.814 178.721 370.756L180.489 370.772C181.305 370.552 190.951 360.273 192.234 358.762C192.895 357.985 193.938 357.638 193.63 356.339C183.597 361.844 171.877 362.875 160.631 363.957ZM332.685 365.324C333.14 365.792 344.16 368.239 345.471 368.348C350.801 368.787 341.613 360.866 339.9 360.599C338.326 360.354 335.095 362.775 333.6 363.792C333.131 364.112 331.601 364.209 332.685 365.324ZM436.613 380.553C437.45 379.752 431.274 365.393 429.945 365.347C422.029 373.095 428.787 377.822 436.613 380.553ZM693.637 366.722L691.18 368.1L686.622 372.943C689.915 372.451 692.916 369.986 693.637 366.722ZM643.773 395.78C638.917 389.888 637.63 382.996 631.859 377.426C611.525 357.798 570.268 373.295 547.388 382.797C545.239 383.69 542.678 384.644 541.286 386.517C541.005 388.146 548.553 393.533 550.047 395.071C562.397 407.792 580.399 434.68 582.672 452.185C582.89 453.863 582.564 455.668 582.688 457.36C584.014 458.71 597.583 447.455 599.754 446.158C604.161 443.523 616.955 437.37 621.7 437.273C624.106 437.224 626.935 438.09 626.117 440.957C625.229 444.073 615.088 446.946 611.927 448.465C608.381 450.17 605.235 452.381 601.647 453.913C600.186 455.868 607.136 456.564 608.327 456.662C619.762 457.607 629.46 452.777 639.921 452.462C643.735 452.347 646.81 453.612 642.167 456.12C636.571 459.143 619.853 460.348 613.202 460.158C608.76 460.031 600.421 457.767 596.523 458.891C594.02 459.612 591.973 465.472 590.635 466.409C587.216 468.806 577.911 469.878 573.978 468.364C564.329 464.649 562.987 452.974 547.83 451.906C542.352 451.52 529.468 453.249 523.347 453.907C516.303 454.664 509.289 455.928 502.228 456.623C495.184 459.334 496.701 478.342 498.028 484.383C501.129 498.493 512.892 509.962 524.88 517.434C533.407 522.749 549.127 524.073 559.339 525.005C560.372 525.099 561.17 525.745 560.908 524.146C547.259 517.819 533.926 513.785 521.735 504.608C520.634 503.779 520.014 503.435 521.905 503.744C527.028 504.581 538.229 511.452 544.072 513.746C554.434 517.814 581.684 526.033 592.139 525.902C592.853 525.893 595.349 525.603 595.32 524.491C576.22 518.961 553.056 513.829 537.812 500.54C537.181 499.99 534.1 497.629 534.938 496.804C556.712 509.194 580.463 517.815 604.675 524.528C611.953 514.689 618.358 503.939 630.587 499.373C637.928 496.632 648.069 496.348 653.953 490.566C658.207 486.386 655.143 485.437 655.88 480.713C656.347 477.724 659.328 474.827 659.592 472.675C659.853 470.535 657.967 468.304 658.842 464.241C659.766 459.947 664.757 456.702 665.217 454.669C665.579 453.067 663.201 448.384 664.466 444.186C666.147 438.607 674.643 436.095 675.739 433.843C676.521 432.236 675.834 429.962 676.246 428.115C676.748 425.867 678.709 423.268 678.671 421.156C678.578 416.028 671.361 398.843 668.48 393.931C662.947 384.499 648.652 373.209 638.132 369.862C636.993 369.5 628.985 367.135 629.047 369.14C629.063 369.653 635.377 375.159 636.415 376.397C640.906 381.748 644.559 388.55 643.773 395.78ZM324.259 476.049C343.342 476.411 362.393 478.943 381.523 478.847C394.292 478.782 410.973 478.517 423.613 477.418C424.611 477.331 429.613 476.601 429.58 475.7C423.246 467.899 415.15 461.754 408.939 453.843C401.011 443.746 392.381 431.887 385.059 421.324C375.75 407.896 358.648 374.109 341.849 371.18C333.811 369.778 314.33 372.372 307.191 376.544C269.948 398.31 280.162 463.752 308.436 489.211C317.255 497.152 326.069 500.066 335.124 507.2C346.708 516.329 357.052 528.569 368.979 536.808C372.947 539.549 384.272 546.965 388.85 544.883C394.031 542.525 399.677 526.815 404.996 522.734L425.376 505.464C425.069 504.065 421.255 504.346 420.084 504.388C415.241 504.562 409.713 506.171 405.371 506.497C394.523 507.31 368.223 506.555 358.669 501.991C357.85 501.6 356.737 501.309 356.56 500.271C370.164 502.262 383.896 502.724 397.67 502.368C405.406 502.169 415.235 501.799 422.912 500.946C432.948 499.831 443.623 495.865 453.829 496.801C456.076 497.007 458.441 497.585 456.276 499.915C454.572 501.747 444.472 503.412 441.339 504.572C426.877 509.925 406.616 528.49 398.829 541.567C388.529 558.865 395.638 556.952 407.763 565.713C414.567 570.629 421.351 580.334 430.293 580.187C421.368 571.934 430.17 558.056 435.345 549.869C444.485 535.41 463.634 512.884 482.635 514.081C484.504 514.198 489.944 517.074 487.512 512.046C486.305 509.55 474.167 502.884 471.041 501.288C468.034 499.752 464.262 499.073 461.95 497.79C458.689 495.982 453.548 487.204 449.272 483.988C441.437 478.093 425.526 481.924 415.929 482.302C395.6 483.103 346.75 486.142 329.327 480.391C327.201 479.689 323.684 478.817 324.259 476.049ZM263.866 393.7C269.11 394.142 278.991 392.16 281.075 386.743C281.989 384.365 274.949 378.183 273.414 378.529C271.931 378.863 271.219 383.75 270.049 384.923L263.866 393.7ZM276.987 395.864C276.342 395.923 274.72 397.013 273.455 397.275C271.358 397.709 268.345 398.436 266.309 398.536C264.24 398.637 257.686 397.033 258.249 399.573C258.836 402.221 267.298 406.513 270.466 406.143C272.536 405.901 277.52 402.658 278.534 400.855C279.528 399.089 278.83 395.695 276.987 395.864ZM266.188 413.562C268.408 416.061 272.505 416.735 274.722 413.749C279.715 407.023 265.667 410.439 265.266 411.01C264.984 411.412 265.752 413.07 266.188 413.562ZM688.52 424.99C685.525 425.662 683.371 428.988 683.943 431.931C685.029 437.515 691.144 437.11 695.212 438.862C699.47 440.695 704.369 447.082 708.714 442.117C716.329 433.415 697.637 422.944 688.52 424.99ZM421.855 447.681C419.961 446.084 420.403 450.678 420.779 451.864C421.623 454.527 429.241 459.138 432.399 458.743C433.778 457.57 423.767 450.615 422.872 449.772C422.146 449.09 421.945 447.757 421.855 447.681ZM458.382 464.279C458.573 463.33 458.143 462.61 457.207 462.331C453.625 461.262 447.549 461.667 443.642 460.827C443.248 462.626 444.358 462.293 445.597 462.668C447.327 463.192 457.614 464.935 458.382 464.279ZM484.366 462.21C481.641 462.204 478.628 461.664 476.659 463.937C479.428 466.476 483.631 466.299 484.366 462.21ZM463.303 469.133C462.702 468.4 446.602 466.752 444.341 467.057C445.947 470.94 461.288 473.528 462.989 471.24C463.333 470.778 463.508 469.384 463.303 469.133ZM475.055 472.016C469.507 473.148 471.355 481.985 478.08 479.898C483.935 478.081 480.929 470.817 475.055 472.016ZM463.307 475.356L456.283 474.666C456.442 477.564 464.906 478.965 463.307 475.356ZM652.91 572.226H663.795C665.474 572.226 669.171 568.511 669.071 566.406C668.868 562.176 663.228 562.69 662.744 559.087C669.09 558.416 684.104 556.886 679.431 547.128C677.339 542.759 674.468 544.609 671.345 543.337C665.612 541.001 669.165 538.777 673.742 538.372C680.323 537.791 684.984 538.832 690.579 533.228C694.224 529.576 693.145 527.108 690.025 523.547C685.46 518.335 672.707 514.255 665.87 514.763C659.6 515.229 665.033 517.954 668.325 518.634C672.757 519.55 679.62 518.38 682.403 522.399C675.084 524.146 667.949 523.749 660.628 522.067C658.641 521.61 648.054 519.019 651.492 515.819C652.802 514.6 661.581 513.605 664.785 511.619C668.25 509.471 672.979 503.537 672.56 499.289C672.398 497.64 670.523 494.207 668.694 494.027C665.421 493.703 652.773 501.32 648.176 502.865C639.387 505.819 633.313 505.046 626.245 512.393C621.428 517.4 617.452 526.842 611.744 529.935C594.663 539.189 552.315 532.811 532.585 529.908C518.224 527.796 487.009 519.514 474.383 523.292C463.53 526.54 449.914 542.867 444.045 552.214C442.605 554.507 437.517 562.573 438.369 564.572C441.328 571.51 463.981 579.265 471.467 580.441C495.01 584.139 520.681 582.969 544.208 579.637C557.012 577.823 569.86 573.86 582.433 572.325C591.271 571.246 600.193 571.578 609.057 570.81C612.889 570.839 613.064 575.596 615.022 577.382C617.755 579.876 631.709 583.445 635.79 583.905C639.361 584.308 649.726 584.959 652.479 583.22C658.211 579.597 651.834 573.226 652.91 572.226ZM494.896 508.564C494.922 506.09 492.719 503.606 490.697 502.34L491.469 505.381L494.896 508.564Z" fill="black"/>
<path d="M981.012 408.37C979.702 410.592 985.031 416.334 985.608 419.816C987.935 433.84 971.313 434.071 967.522 444.904C974.602 442.401 999.569 428.293 1004.39 438.697C1007.56 445.542 995.515 442.274 993.252 442.388C982.688 442.919 990.22 451.239 997.37 451.197C1001.52 451.172 1004.39 447.172 1009.11 447.812C1013.53 448.41 1018.12 453.3 1014.9 457.351C1012.14 460.839 1009.31 457.159 1006.45 456.713C1004.03 456.335 1001.24 456.954 998.78 456.66C991.96 455.845 982.204 453.963 981.905 445.59C979.171 445.37 966.132 452.381 966.149 454.25C966.151 454.496 969.132 457.946 969.371 458.017C970.455 458.334 975.415 454.872 977.478 454.377C985.978 452.338 994.565 458.02 994.856 466.813C994.947 469.563 992.485 473.291 992.892 474.877C993.256 476.292 999.284 479.295 1000.8 480.959C1009.07 490.013 1002.49 503.518 990.086 502.432C988.995 515.522 982.656 518.355 970.327 514.802C971.496 517.76 973.886 520.862 974.873 523.809C975.432 525.482 975.871 530.288 976.063 530.596C976.303 530.982 982.886 533.541 984.328 534.559C990.36 538.818 992.757 545.679 985.111 549.774C976.106 554.596 966.816 544.98 963.17 537.415C959.585 529.979 961.586 526.472 970.324 527.246C969.123 517.728 960.687 511.644 959.136 501.95L947.855 500.271C953.09 505.501 961.779 508.65 959.643 517.765C958.283 523.567 951.772 522.473 947.15 522.403C948.797 542.044 931.448 550.71 913.964 544.383C910.535 543.141 907.742 540.752 904.319 539.708C902.245 541.996 909.497 562.367 910.999 565.987C912.377 569.308 918.043 578.112 917.676 580.833C916.792 587.399 909.52 580.261 907.689 577.551C901.229 567.992 898.132 554.008 894.972 543.023C894.767 542.313 894.803 540.93 893.791 541.094C892.259 543.78 893.736 546.005 893.778 548.362C893.924 556.642 892.94 568.378 895.992 575.93C898.099 581.142 903.133 585.519 902.205 591.597C898.501 591.783 896.576 586.398 895.353 583.479C891.82 575.051 891.023 565.866 889.221 557.007C887.99 558.295 887.831 560.581 887.55 562.28C886.939 565.981 886.28 571.625 886.064 575.347C885.72 581.248 887.26 594.912 885.916 599.419C885.148 601.996 879.735 602.04 878.68 599.908C877.925 598.382 878.197 588.818 878.303 586.383C878.516 581.51 879.225 575.494 879.822 570.58C881.47 557.022 884.719 543.554 888.151 530.35L886.767 530.016C882.265 542.308 876.287 554.321 870.172 565.915C866.351 573.158 860.253 585.588 855.74 591.828C852.909 595.743 847.13 595.497 847.444 590.613C847.5 589.742 849.762 584.191 850.329 583.037C853.525 576.543 873.055 549.873 872.014 544.908C871.975 544.722 870.989 543.542 870.603 544.191L846.016 574.994C845.745 575.172 844.653 574.135 844.641 573.961C844.602 573.432 847.995 567.276 848.68 566.189C854.833 556.423 863.76 547.621 870.202 537.575C871.343 535.795 878.949 523.179 878.325 522.406C872.353 525.871 868.576 532.676 863.946 537.639C857.582 544.461 844.021 559.509 834.962 561.026C831.368 561.628 829.075 560.401 831.588 556.956C833.95 553.718 843.162 547.541 846.741 544.212C851.539 539.748 857.711 533.631 861.838 528.642C863.04 527.188 869.645 518.786 868.497 517.565C860.258 520.413 854.225 523.221 845.285 521.409C839.641 520.265 829.952 515.952 827.632 510.433C823.25 500.006 830.859 488.479 840.385 483.977C847.687 480.526 854.125 483.588 860.971 482.119C863.015 481.68 863.909 480.725 863.476 478.627C863.093 476.771 854.476 469.169 852.702 469.175C851.031 469.181 849.06 471.159 847.454 471.569C839.923 473.49 835.564 468.553 831.797 469.232C830.122 469.535 826.398 473.113 823.945 474.006C817.386 476.393 809.993 475.361 807.252 468.242C804.994 462.378 809.508 459.142 810.917 453.909C789.721 452.57 795.847 427.978 813.73 427.607C812.441 420.353 811.95 415.022 819.298 411.304C821.023 410.43 822.945 410.381 824.519 409.529C828.218 407.529 833.314 400.935 838.329 398.918C840.966 397.858 843.981 399.422 846.438 397.889C847.498 396.423 844.933 392.288 844.669 390.549C842.9 378.866 853.307 369.788 864.76 374.902C869.273 376.917 870.847 381.09 874.57 383.945C882.878 378.589 891.501 372.615 899.758 381.934C903.144 385.755 903.66 389.662 902.867 394.698C902.554 396.687 900.554 398.088 901.152 399.928C903.641 397.313 905.982 395.013 909.311 393.436C911.521 392.389 918.714 390.942 919.425 389.562C922.095 384.383 910.568 371.929 923.601 370.843C937.84 369.656 947.813 375.401 954.651 387.403C963.427 385.734 969.858 383.074 978.745 386.448C986.503 389.393 992.126 395.84 986.476 403.734C985.393 405.246 981.193 408.063 981.012 408.37ZM880.636 404.266C881.868 403.045 888.509 400.744 890.739 399.354C906.512 389.522 890.391 373.484 879.05 386.454C876.9 388.913 872.568 400.246 870.342 399.891C867.917 399.504 868.477 389.547 867.304 386.234C862.774 373.446 847.155 374.549 849.711 389.042C850.602 394.095 854.979 397.315 858.728 400.22C860.235 401.387 862.814 401.359 862.178 404.08C853.637 403.736 834.832 401.504 830.921 411.742C829.603 415.194 834.676 418.928 837.934 419.323C847.27 420.454 850.566 415.469 857.773 413.923C859.775 413.493 863.142 413.338 861.128 415.846C858.373 419.277 854.852 421.226 852.928 425.758C847.421 438.725 860.452 444.558 869.843 436.889C875.537 432.239 876.334 424.835 876.229 417.926C877.37 416.784 884.469 423.978 886.26 424.987C897.703 431.439 915.837 421.148 905.397 410.975C902.315 407.972 896.277 406.331 892.025 406.303C890.775 406.295 875.183 409.668 880.636 404.266ZM948.555 395.784C949.914 382.106 935.006 376.069 923.274 377.097C921.795 378.574 926.676 387.26 927.888 388.814C929.513 390.9 939.569 397.55 938.019 399.237C930.978 396.602 912.172 392.603 908.344 401.513C907.109 404.387 912.628 410.95 915.349 411.548C917.32 411.982 921.417 411.875 923.46 411.53C924.791 411.305 937.203 404.91 937.304 408.576C937.362 410.656 925.618 416.413 926.815 424.444C927.38 428.242 932.015 430.741 935.563 431.07C945.779 432.018 952.301 425.169 950.668 415.157C952.329 413.481 958.67 422.211 960.163 423.439C973.966 434.794 987.772 420.678 973.625 411.559C969.016 408.587 963.381 408.55 959.284 406.322C958.659 405.981 957.378 405.779 958.388 404.782C960.431 402.767 979.19 406.533 982.605 399.233C986.222 391.501 970.68 389.822 965.738 390.22C958.311 390.817 955.294 395.674 948.555 395.784ZM835.399 435.816C835.678 435.381 836.107 426.001 835.877 425.539C835.209 424.199 828.691 421.713 826.72 419.995C825.049 418.54 824.322 415.598 821.964 415.939C817.022 416.654 818.866 422.718 820.446 425.484C822.763 429.54 828.377 431.78 827.769 436.603C822.809 436.944 818.767 432.866 813.86 432.611C807.781 432.294 802.595 436.83 804.046 443.035C805.726 450.218 818.612 448.777 823.912 446.987C826.678 446.053 825.297 443.98 825.99 441.424C827.711 435.084 834.596 437.068 835.399 435.816ZM919.768 419.302C913.718 417.976 913.358 424.125 910.302 427.626C908.034 430.225 905.616 430.882 902.925 432.799L910.381 440.014C911.499 440.207 916.955 433.989 918.395 432.823C919.172 432.194 921.013 431.846 921.122 431.7C921.5 431.196 918.43 421.453 919.768 419.302ZM844.617 426.92C843.063 425.82 837.709 435.009 837.713 435.573C837.715 436.015 839.535 437.205 840.006 438.044C843.633 444.505 839.641 450.543 832.331 450.505C830.178 450.493 828.229 449.503 826.195 449.875C822.738 450.508 816.556 456.48 814.829 459.485C809.248 469.197 820.84 474.173 828.077 464.239C829.069 462.877 831.946 456.502 832.699 455.984C834.617 454.663 835.725 461.512 836.577 462.871C842.889 472.947 858.18 461.118 847.085 451.824C845.721 450.682 843.505 450.957 843.926 449.063C848.542 448.292 855.825 449.694 858.669 445.607C853.801 446.584 846.375 440.476 845.488 436.1C844.883 433.118 845.903 429.89 844.617 426.92ZM942.943 455.283C944.75 455.519 946.131 454.867 947.648 454.045C950.034 452.753 958.791 446.993 960.521 445.279C962.081 443.732 967.694 435.664 966.506 433.83C966.027 433.089 956.995 429.055 956.04 429.138C954.151 430.998 946.804 435.419 945.701 436.902C943.945 439.262 946.631 443.294 946.403 446.537C946.152 450.106 943.859 452.1 942.943 455.283ZM884.649 431.075C880.846 429.223 879.819 431.954 879.038 435.217C879.937 436.051 885.488 432.136 884.649 431.075ZM921.173 462.895C920.784 462.501 921.208 460.518 921.867 459.78C923.722 457.706 932.873 455.098 936.161 452.413C946.305 444.129 936.048 434.494 925.746 435.174C922.539 435.386 913.046 441.523 911.87 444.394C910.392 448.002 912.373 452.476 910.288 455.976C906.765 451.119 906.416 444.07 901.539 439.686C891.14 430.337 874.939 438.914 885.689 452.536C887.53 454.87 898.943 463.033 901.173 462.822C901.576 462.784 902.551 460.853 903.362 460.227C909.939 455.153 921.626 458.92 918.746 467.781C917.325 472.152 910.607 472.48 906.814 471.855C902.004 471.062 901.27 465.197 900.313 464.962C896.743 464.089 888.194 463.856 884.612 464.588C875.324 466.488 864.987 478.28 875.177 485.728C883.097 491.516 893.842 485.366 900.119 479.868C901.314 478.82 904.496 473.483 906.419 475.354C906.954 475.875 904.971 485.382 904.974 487.461C905.008 510.013 935.107 501.935 926.368 483.725C924.15 479.102 918.996 476.768 918.364 471.898C924.68 471.908 928.226 478.196 934.642 479.724C942.925 481.697 954.268 478.017 950.695 468.053C948.272 461.297 939.738 460.391 933.47 460.834C931.556 460.969 921.609 463.335 921.173 462.895ZM836.029 440.934C833.156 437.737 828.03 442.837 831.568 445.664C834.712 448.175 838.008 443.137 836.029 440.934ZM874.818 442.829C871.05 442.978 868.189 446.26 865.705 448.714C870.297 451.914 874.866 456.13 874.115 462.207C869.297 463.241 863.744 453.847 859.916 454.734C859.469 454.838 857.304 456.074 857.222 456.455C856.664 459.068 864.331 469.561 867.06 470.239C871.66 467.796 873.892 461.831 879.7 461.478C878.809 455.167 874.452 449.671 874.818 442.829ZM966.9 467.656C965.374 466.789 961.61 451.448 953.769 458.044C955.541 465.274 963.816 475.227 955.212 480.873L946.551 486.653C948.542 491.324 951.049 495.005 956.595 495.452C958.416 495.598 964.662 494.533 965.305 495.535C964.094 502.822 976.024 517.342 982.573 509.218C987.325 503.323 976.945 494.617 973.51 490.542C972.899 489.817 972.597 488.09 972.325 487.919C970.207 486.58 964.964 490.045 960.82 484.376C955.217 476.711 965.857 471.684 971.979 476.148C976.472 479.426 973.681 485.146 974.137 485.773C974.542 486.329 976.228 486.487 977.006 487.112C981.578 490.785 988.068 498.592 994.893 495.751C996.81 494.954 999.221 491.455 998.845 489.18C997.776 482.706 991.175 480.293 985.339 479.591C983.457 479.364 976.317 480.168 975.949 478.457C975.228 475.103 989.621 474.521 988.006 465.951C986.5 457.965 978.652 457.894 973.204 462.619C971.897 463.753 969.101 468.906 966.9 467.656ZM908.002 467.57C910.882 470.439 916.002 465.619 912.459 462.835C909.079 460.18 905.176 464.754 908.002 467.57ZM969.454 479.679C966.174 476.535 961.033 481.865 966.312 483.836C969.411 484.992 971.391 481.535 969.454 479.679ZM939.938 488.689C936.258 484.963 932.471 487.159 932.442 492.412C932.416 497.195 942.425 496.091 942.125 493.124C942.096 492.832 940.196 488.95 939.938 488.689ZM848.841 495.424C855.484 495.118 862.231 496.866 868.886 496.146C873.925 495.601 867.939 492.013 865.625 490.989C855.87 486.669 839.617 487.544 834.512 498.257C830.59 506.486 832.753 511.43 841.128 514.434C851.606 518.192 859.965 516.522 868.835 509.934C869.981 509.083 874.181 503.761 875.52 505.111C872.872 518.796 890.191 524.081 899.426 515.859C901.157 514.318 904.552 508.157 905.682 515.178C906.824 522.275 904.835 527.347 910.616 533.843C925.764 550.866 954.758 528.962 935.595 510.614C928.282 503.612 922.246 506.79 913.445 507.19C918.796 511.198 926.439 512.555 930.998 517.912L925.386 517.566C926.208 519.086 933.691 533.575 929.246 533.463C928.452 533.444 922.775 522.045 921.153 520.001C917.401 515.274 911.969 512.532 907.833 508.212L911.338 507.176C905.072 499.669 901.569 507.384 895.759 508.784C889.958 510.182 883.483 508.245 881.62 502.214C880.802 499.568 881.51 496.558 878.728 494.686C875.783 492.705 876.44 495.195 874.874 496.498C871.464 499.337 863.4 499.243 858.518 500.461C852.557 501.948 846.977 504.71 841.12 506.491C840.844 504.755 841.03 505.042 841.975 504.201C843.598 502.755 853.014 498.473 853.037 497.842C853.104 496.087 847.907 497.908 848.841 495.424ZM896.587 490.58C895.165 489.049 887.769 499.912 892.038 501.645C894.73 502.287 896.256 492.467 896.587 490.58ZM937.322 503.039C941.678 506.306 944.206 512.006 948.623 515.075C953.466 518.44 956.631 516.424 953.074 511.379C949.833 506.784 943.16 502.73 937.322 503.039ZM972.234 535.681C966.202 537.452 976.213 548.692 981.808 545.844C986.774 543.316 982.869 539.856 979.693 537.742C977.597 536.347 974.859 534.91 972.234 535.681Z" fill="black"/>
<path d="M297.388 591.089C297.848 591.637 298.543 595.453 298.268 595.75C294.557 594.69 290.631 593.751 287.383 591.605C285.207 590.913 289.937 598.649 290.261 599.149C292.151 602.076 299.742 609.926 300.369 612.027C301.136 614.597 295.222 611.547 294.404 610.981C293.079 610.063 279.877 597.617 279.401 596.702C277.693 593.42 278.997 587.624 278.533 583.718C277.959 578.876 272.441 561.709 265.282 564.966C257.48 568.516 257.591 588.449 245.948 588.73C239.294 588.891 248.802 580.312 249.525 577.806C250.615 574.028 243.684 576.485 241.741 576.442C233.582 576.259 225.423 575.593 217.168 576.384C205.817 577.471 193.905 585.036 182.18 579.709C177.882 577.756 173.916 573.647 169.704 571.243C166.31 569.306 161.306 565.464 160.379 571.648C159.495 577.542 172.035 587.087 171.216 596.827C170.788 601.915 163.521 606.661 163.444 612.356L166.944 610.975C165.988 616.205 162.481 620.954 158.528 624.472C160.121 625.128 163.187 622.753 164.049 625.262C164.862 627.632 161.854 634.468 161.337 637.266C168.019 636.296 166.193 638.704 168.332 641.791C171.927 646.977 197.743 659.063 204.731 660.589C215.412 662.922 236.099 660.201 247.166 657.837C251.175 656.98 254.043 654.581 258.244 655.267C257.165 656.686 255.46 658.779 253.966 659.694C241.523 667.312 214.559 665.635 198.771 673.12C196.911 674.001 187.915 681.262 192.594 682.242C193.994 682.536 196.934 677.479 199.251 678.097C200.037 678.904 196.21 683.776 198.506 685.408C200.973 687.164 203.113 682.654 205.572 682.941C203.891 688.157 207.653 688.922 212.254 688.474C216.721 688.04 220.411 685.162 224.505 683.945C230.82 682.069 236.768 681.163 243.468 679.104C250.399 676.973 253.46 678.476 259.266 678.073C260.679 677.975 261.854 676.602 263.524 676.642C265.749 676.697 265.68 678.771 268.311 677.314C272.932 674.756 270.638 670.93 270.859 666.645C271.09 662.193 270.887 657.83 271.028 653.53C271.177 648.994 273.714 644.551 276.518 641.09C278.538 638.596 285.778 632.96 286.674 631.03C288.182 627.783 284.086 625.447 290.547 624.805C289.958 621.639 287.028 619.289 287.757 615.839C291.243 616.437 292.095 611.92 295.431 614.816C299.824 618.629 293.427 619.64 293.373 620.311C294.418 621.742 295.519 624.916 297.377 625.403C298.281 625.639 310.181 622.243 313.38 622.055C318.469 621.756 323.398 623.217 328.126 622.741C334.04 622.146 334.562 619.718 341.793 621.719C343.124 622.087 356.677 628.36 354.449 630.346L339.363 625.498C337.752 627.444 344.642 629.817 343.213 631.038C337.207 631.621 331.118 628.728 325.299 628.286C319.417 627.84 306.227 630.048 300.819 632.513C294.488 635.397 287.389 642.755 282.124 647.306C284.375 648.836 295.575 640.14 296.159 640.729C297.297 641.878 295.216 642.213 294.848 642.529C289.764 646.888 283.442 649.118 281.425 656.643C281.953 657.222 290.527 648.446 292.654 649.039C291.099 653.191 283.725 656.392 284.351 660.957C284.572 662.566 285.901 664.318 286.291 666.028C286.837 668.422 286.715 670.768 287.184 672.759C288.193 677.042 297.417 679.929 300.375 683.292C300.667 684.798 299.67 684.339 298.609 684.345C294.803 684.368 286.897 679.686 284.795 676.496C282.692 673.304 282.972 667.979 278.61 667.722C281.082 675.367 281.149 679.522 288.351 684.067C291.896 686.303 304.597 691.491 308.521 691.928C314.37 692.578 322.17 692.529 328.09 692.593C346.855 692.798 365.729 694.845 380.765 681.532C385.052 677.735 387.656 671.505 391.324 667.026C392.711 670.328 388.458 673.928 387.466 676.375C386.172 679.568 390.963 674.902 391.552 674.17C397.337 666.983 398.64 658.936 400.104 650.126C400.017 649.272 397.836 649.568 397.404 648.911C396.931 648.192 395.267 637.49 394.709 635.315C393.909 632.199 391.587 622.062 390.582 620.006C388.816 616.392 374.563 605.615 370.546 603.075C354.267 592.781 334.718 590.05 315.449 590.88C309.835 591.121 303.829 593.228 298.276 592.288C296.204 590.188 307.078 587.195 307.955 586.956C326.713 581.841 348.487 584.531 365.94 593.083C376.307 598.163 398.519 614.796 402.542 625.521C404.122 629.734 407.828 646.472 407.883 650.767C407.949 655.954 405.619 661.63 403.614 666.327C404.685 666.668 409.074 665.404 408.505 667.343C407.399 671.113 403.01 673.267 400.31 675.88C399.611 676.557 398.319 676.554 398.698 678.091C405.261 675.632 411.226 671.12 417.968 669.066C419.044 668.738 422.167 667.638 422.568 669.456C423.4 673.228 403.572 680.477 400.321 682.118L395.889 685.007C401.442 683.901 407.023 682.654 412.4 680.874C419.175 678.631 430.909 671.945 436.948 671.156C438.814 670.912 441.011 671.348 442.933 671.178C444.8 672.945 436.841 677.541 435.683 678.213C414.474 690.526 398.803 689.29 375.916 692.669C373.078 693.088 369.839 695.542 366.683 696.027C338.698 700.334 316.919 703.632 290.075 692.052C282.983 688.993 280.042 685.3 271.263 684.987C267.76 684.862 264.811 685.8 261.383 685.742C258.214 685.689 253.966 684.258 250.874 684.267C246.102 684.281 241.192 687.51 237.445 687.76C234.604 687.949 231.272 686.528 227.732 687.127C225.413 687.52 221.073 690.73 218.211 691.583C208.895 694.358 200.911 692.662 192.231 688.821C188.841 687.321 187.033 683.809 185.921 683.275C184.336 682.516 181.698 683.141 179.57 682.614C177.38 682.071 168.055 677.019 166.58 675.347C162.785 671.047 163.552 667.358 166.969 663.235C168.15 661.809 169.565 661.384 170.459 660.11C168.953 660.134 167.42 659.995 165.908 660.115C164.704 660.21 156.326 662.52 156.432 660.449C156.558 657.968 169.412 656.787 171.158 655.599C172.687 654.559 171.098 652.89 169.953 652.596C166.859 651.803 153.749 657.761 149.059 658.05C148.408 658.09 146.663 658.362 147.632 657.332C151.466 654.733 155.762 652.042 160.628 652.485C160.755 651.289 158.217 651.731 157.449 651.776C153.22 652.025 147.787 654.115 143.636 655.464C141.418 656.185 137.579 657 136.063 657.659C133.155 658.923 131.348 663.636 129.014 661.157C121.976 653.681 139.608 646.423 145.143 645.189C148.669 644.403 152.856 644.717 156.414 643.49C156.484 641.47 154.169 641.396 154.302 639.065C154.436 636.718 157.381 634.435 157.824 632.095C157.475 630.403 149.045 631.757 147.991 628.284C150.469 627.466 154.394 623.084 155.612 620.907C157.762 617.067 157.218 611.204 159.208 606.459C160.145 604.226 165.567 597.047 165.573 596.078C165.585 594.443 162.612 593.847 161.299 592.673C158.125 589.834 151.254 573.292 151.474 569.139C152.348 552.63 178.446 569.933 184.53 572.55C197.694 578.214 201.627 572.882 213.83 571.019C225.082 569.3 235.017 570.325 246.027 571.459C255.585 572.443 254.641 565.107 261.101 560.856C270.162 554.894 278.645 566.192 281.758 573.622C283.083 576.786 283.912 582.485 285.949 584.715C288.213 587.194 295.82 589.22 297.388 591.089ZM199.957 665.644C195.298 665.119 190.347 661.071 185.644 661.518C183.207 661.749 174.124 665.349 172.383 666.993C171.031 668.268 169.319 672.613 172.224 671.194C173.697 670.475 174.699 669.309 176.78 669.795C174.867 677.05 175.477 675.21 181.696 673.938C182.185 683.407 186.784 675.059 189.793 672.577C192.605 670.258 196.355 669.435 198.791 667.604C199.584 667.009 200.228 666.882 199.957 665.644Z" fill="black"/>
<path d="M949.962 249.779C950.056 249.212 949.806 247.901 949.962 247.715C950.473 247.104 963.983 244.87 965.763 244.87C992.214 244.873 1025.76 264.143 1019.16 294.087C1012.08 326.193 968.655 331.526 942.461 320.483C939.847 319.381 932.152 314.422 930.535 314.285C929.299 314.179 923.538 317.573 921.536 318.296C872.192 336.124 839.897 282.038 883.016 251.972C896.533 242.546 928.438 234.77 941.544 247.348C946.499 252.103 936.246 247.856 933.818 247.35C909.025 242.181 872.348 255.57 869.277 283.411C866.447 309.07 894.45 321.932 916.249 314.121C916.295 312.616 913.152 313.833 912.746 313.434C910.881 311.606 919.416 308.182 920.877 307.945C924.522 307.356 924.097 309.356 924.317 309.29C925.492 308.942 930.805 305.813 927.848 304.435C923.133 300.915 916.131 297.344 914.018 291.769C910.755 283.158 912.206 273.798 916.817 265.902C918.893 262.347 924.363 258.735 914.668 261.017C901.463 264.125 883.917 276.438 886.124 291.581C887.051 297.942 894.543 300.971 900.444 301.036C903.543 301.07 915.48 297.758 916.249 301.351C914.684 304.735 908.871 305.535 905.358 305.816C874.589 308.277 868.219 280.302 889.941 262.254C898.504 255.14 921.268 246.622 931.507 252.39C936.999 255.484 928.036 260.242 925.365 263.253C911.68 278.685 919.485 295.041 935.269 304.735C940.3 307.824 946.675 309.35 950.664 313.431C946.416 314.24 943.33 312.075 939.429 311.369C941.312 313.594 945.122 314.855 947.884 315.831C961.939 320.798 980.885 321.873 994.201 314.472C993.146 313.738 985.152 316.993 987.51 313.417C988.125 312.483 997.04 308.798 999.058 307.496C1017.66 295.497 1017.62 274.528 1000.47 261.254C995.163 257.151 978.551 249.779 972.083 249.779H949.962ZM911.338 256.705C903.01 257.928 893.963 261.81 889.569 269.146L911.338 256.705Z" fill="black"/>
<path d="M196.271 446.471C199.774 446.053 202.862 445.508 204.013 449.561C209.447 473.454 222.545 499.388 227.026 523.061C228.649 531.637 223.13 531.003 216.24 532.568C169.075 543.279 120.866 550.16 73.7054 561.008C67.6712 562.166 66.3823 554.285 64.9398 549.92C57.7775 528.251 49.3606 503.466 43.7117 481.575C42.0923 475.3 41.148 474.274 48.1136 472.776C97.0621 462.251 147.23 456.646 196.271 446.471ZM197.847 451.831C196.519 450.83 177.791 454.285 174.546 454.813C140.161 460.411 105.516 466.327 71.2837 472.772C68.2798 473.338 56.2115 475.356 54.5894 476.39C54.3046 476.571 53.6713 477.211 53.8898 477.422C68.2309 481.639 83.6833 485.792 97.4182 491.625C99.6074 492.554 110.15 497.23 110.052 499.23C109.957 501.173 104.99 499.359 103.919 499.059C90.4976 495.294 76.2579 488.711 62.6805 484.336C61.0102 483.798 50.9711 480.316 50.3814 480.893L71.0936 551.469L72.4601 551.432C80.9834 541.088 88.7053 529.412 97.4478 519.311C99.5992 516.825 102.204 513.903 104.807 512.031C104.756 514.786 102.32 518.179 100.806 520.544C94.1237 530.983 84.9018 540.561 78.1773 550.835C77.7159 551.541 75.2677 555.251 75.6625 555.616L219.617 527.246C220.821 526.132 213.242 522.074 212.365 521.598C200.82 515.322 187.748 511.111 177.489 502.682C179.861 502.149 182.91 503.891 185.188 504.783C196.959 509.394 208.33 516.028 220.316 520.33L220.002 515.456L201.353 455.981L166.253 492.649C166.447 490.795 165.921 488.557 166.264 486.785C166.571 485.203 173.504 477.258 175.133 475.431C181.326 468.484 188.61 462.369 195.074 455.649L197.847 451.831Z" fill="black"/>
<path d="M206.973 130.073C212.141 104.437 255.303 105.888 260.033 131.423C265.165 159.133 241.155 182.307 228.412 204.038C207.837 190.775 172.527 185.767 159.812 163.054C146.216 138.766 171.163 110.811 195.995 123.252C200.101 125.309 202.789 129.163 206.973 130.073ZM227.865 119.859C224.242 120.42 217.811 123.558 215.791 126.644C212.774 131.255 213.471 141.953 209.591 143.406C205.673 144.874 201.698 136.863 199.289 134.536C182.828 118.642 155.641 138.763 169.172 160.059C178.825 175.251 198.79 181.722 214.692 187.862C217.049 188.772 222.318 192.05 224.319 192.233C225.516 192.343 226.924 190.342 227.636 189.519C234.081 182.067 245.579 163.861 248.437 154.66C253.782 137.45 251.32 116.224 227.865 119.859Z" fill="black"/>
<path d="M795.475 255.313C789.836 243.461 780.749 234.102 774.278 222.566C768.267 211.851 763.517 201.238 764.579 188.552C766.455 166.135 794.329 153.987 810.198 171.95C811.358 173.262 815.719 180.46 816.879 180.458C828.101 170.829 841.023 163.736 855.638 171.462C867.446 177.703 873.249 192.305 870.429 204.973C864.093 233.443 814.221 237.963 795.475 255.313ZM788.975 171.772C782.171 172.694 775.758 178.013 773.881 184.571C768.019 205.044 788.604 227.461 798.667 243.548C811.198 235.706 825.796 231.978 838.775 224.987C847.784 220.135 856.607 214.376 859.879 204.265C866.788 182.915 845.238 169.163 827.418 181.967C823.976 184.439 817.083 194.268 814.068 194.146C810.609 194.005 809.676 185.106 808.233 182.19C804.559 174.772 797.442 170.625 788.975 171.772Z" fill="black"/>
<path d="M668.93 104.34C667.058 105.414 659.968 100.531 657.601 99.5009C643 93.1446 622.088 87.2205 611.492 75.0469C600.625 62.5624 592.927 46.7318 608.332 33.9065C620.964 23.3895 638.353 27.4624 650.455 36.5866C657.969 24.5064 669.725 14.4176 685.254 17.5902C695.106 19.6031 702.685 31.886 703.392 41.2484C703.685 45.1372 701.72 52.9613 700.463 56.8751C694.535 75.3409 679.225 88.4266 668.93 104.34ZM674.526 24.3993C667.084 25.3218 661.027 30.0377 658.686 37.1614C657.717 40.1108 657.673 49.1218 655.224 49.7146C652.165 50.4552 647.168 42.5728 644.422 40.5243C628.668 28.7716 601.741 36.8588 609.562 58.9582C613.869 71.1286 630.406 79.8884 641.685 84.7381C647.28 87.144 658.916 92.3387 664.289 93.6266C665.184 93.8411 666.011 94.4312 666.945 93.7763C675.65 81.4214 688.711 70.0022 693.135 55.1896C697.62 40.1699 694.161 21.9655 674.526 24.3993Z" fill="black"/>
<path d="M719.475 589.02C730.898 587.998 739.812 595.546 746.093 603.976C751.069 602.67 755.385 599.517 760.385 598.205C795.122 589.09 811.611 632.937 782.082 649.337C771.534 655.196 758.739 657.27 747.541 661.664C743.007 663.443 734.204 669.198 729.965 668.276C728.817 668.026 727.025 666.666 726.005 665.925C719.676 661.322 697.85 633.431 695.427 626.168C689.706 609.018 700.861 590.685 719.475 589.02ZM718.751 595.937C710.44 597.06 704.582 605.835 703.668 613.59C701.266 633.962 720.16 646.548 731.281 660.748C746.308 650.316 785.427 648.617 787.734 626.536C789.428 610.324 776.9 598.166 760.684 604.727C753.811 607.508 750.991 613.435 746.559 615.731C740.591 618.822 740.647 610.354 738.968 606.792C735.415 599.252 727.127 594.807 718.751 595.937Z" fill="black"/>
<path d="M989.284 130.074C989.287 131.771 989.389 133.478 989.203 135.178C988.024 145.927 984.862 164.12 982.056 174.495C980.929 178.659 979.74 181.245 976.174 183.923C961.918 194.628 947.031 177.596 963.304 170.549C968.079 168.481 972.902 168.81 977.985 168.752C979.023 163.262 981.266 157.894 980.864 152.211C973.655 152.61 966.653 154.503 959.435 154.975C956.01 155.199 947.957 154.262 945.494 155.077C942.898 155.935 941.515 175.764 936.567 180.186C930.89 185.26 913.661 186.602 912.783 177.381C911.924 168.354 925.133 166.209 931.992 166.801C933.602 166.94 935.333 168.522 936.259 167.472C940.561 157.42 941.125 146.429 943.594 135.906C959.368 135.913 974.307 135.362 989.284 130.074ZM982.968 141.15C974.993 141.627 966.616 144.183 958.733 144.595C956.085 144.734 948.664 143.681 947.469 144.559C946.759 145.081 946.263 145.737 946.454 146.671C950.199 148.418 953.173 147.351 956.606 147.337C965.304 147.302 976.551 147.763 982.968 141.15Z" fill="black"/>
<path d="M904.755 122.222C900.154 128.993 882.903 131.153 881.18 122.082C879.044 110.841 892.211 108.694 900.73 109.237C902.784 102.644 900.275 95.9455 900.808 89.2433C891.549 89.5972 882.3 89.1429 873.382 87.4602C872.043 88.4266 872.911 99.4741 872.705 102.039C871.813 113.173 869.541 127.414 855 127.111C836.554 126.727 840.794 106.984 856.839 106.623L866.041 107.935C869.059 98.4762 866.889 88.1384 868.543 78.5629C869.363 73.8106 870.554 76.3349 872.854 77.0023C875.986 77.9116 879.881 78.9018 883.089 79.3709C887.334 79.9918 903.375 79.6584 905.085 81.9153C906.723 84.0772 907.446 108.993 907.157 113.151C906.944 116.211 906.502 119.652 904.755 122.222Z" fill="black"/>
<path d="M419.762 99.6333C410.425 106.46 398.75 110.96 389.612 118.009C388.685 118.725 385.014 121.836 386.061 123.152C403.326 115.199 424.136 110.856 443.281 112.088C446.61 112.302 452.485 112.581 454.875 114.842C438.147 115.334 422.775 115.6 406.585 120.202C399.918 122.097 384.611 127.93 380.05 132.806C377.848 135.16 376.675 138.687 373.381 140.765C366.473 145.122 364.407 140.972 367.923 134.695C372.424 126.659 382.072 119.948 388.86 113.808C386.003 113.539 381.957 116.041 379.263 117.499C369.111 122.99 362.709 128.862 354.794 136.982C351.6 140.259 345.324 149.331 341.45 150.822C340.215 151.298 340.5 150.497 340.403 149.801C339.743 145.105 342.525 141.415 343.169 137.283C343.975 132.109 337.689 140.71 337.027 141.617C334.755 144.731 333.104 148.07 330.549 151.147C329.647 152.234 328.567 154.474 327.067 154.285C327.661 148.338 327.832 146.205 330.989 141.204C337.22 131.336 345.957 123.117 354.807 115.544C355.652 116.319 354.418 118.081 354.071 118.971C352.234 123.681 349.571 128.092 347.731 132.792C347.396 133.649 347.1 134.789 348.474 134.217C349.28 133.882 354.233 127.272 355.579 125.992C372.145 110.226 397.236 102.013 419.762 99.6333Z" fill="black"/>
<path d="M114.157 68.6501C124.2 68.2763 132.682 75.5029 135.484 84.617C139.284 96.9722 133.005 106.187 126.091 115.759C124.5 117.961 114.312 131.518 113.28 132.196C112.146 132.941 111.205 133.065 109.902 132.7C97.2253 128.058 82.1265 127.457 70.5059 120.272C43.2714 103.434 68.163 67.1566 94.224 83.6886C97.8138 75.2532 104.431 69.0121 114.157 68.6501ZM70.2904 111.835C78.9914 120.882 97.1358 122.079 108.86 125.126C118.071 116.189 135.778 99.0486 130.08 85.0983C125.244 73.2569 106.588 71.0319 102.01 83.7277C101.05 86.3886 101.235 92.4413 98.3355 93.2884C94.6534 94.364 90.6887 89.1979 87.5521 87.5614C71.0805 78.9668 57.8653 98.9162 70.2904 111.835Z" fill="black"/>
<path d="M295.271 25.0518C302.889 23.5303 310.872 25.8323 313.877 33.3931C319.08 46.489 305.513 60.5793 298.391 70.3352C296.964 72.2907 292.927 80.1443 291.039 80.1208C278.637 75.0371 249.876 64.2481 247.772 49.3992C245.833 35.7163 257.67 23.0823 271.626 27.2811C275.135 28.3368 280.767 33.9291 283.196 33.8749C285.035 33.8339 290.448 26.0149 295.271 25.0518ZM258.481 36.1998C255.214 39.414 254.442 44.8926 255.779 49.1258C258.947 59.1571 279.775 66.8991 288.825 71.2652L290.177 70.5562C295.376 61.3008 314.028 46.0103 306.312 34.6187C303.018 29.7545 296.772 29.9471 292.309 33.2047C289.245 35.4413 285.558 43.8276 283.773 44.1608C281.128 44.6547 274.107 34.3351 269.685 33.3465C266.042 32.5319 261.149 33.5749 258.481 36.1998Z" fill="black"/>
<path d="M740.51 82.4943C749.89 81.0175 754.958 84.4738 760.698 91.1562C767.934 86.5153 774.698 82.7111 783.681 85.2908C788.623 86.7103 793.726 91.5708 794.598 96.677C798.422 119.084 769.212 126.081 754.052 134.59C752.435 135.194 750.859 135.064 749.294 134.391C744.68 132.408 730.667 113.958 728.725 108.994C724.629 98.5202 727.789 84.4972 740.51 82.4943ZM743.851 88.2428C738.372 88.2391 734.115 92.6372 733.915 97.9967C733.583 106.906 747.248 120.657 752.605 127.642C763.086 124.372 788.444 114.244 788.44 101.356C788.438 95.5712 783.356 90.7145 777.559 90.5751C769.017 90.3698 762.007 100.374 759.284 100.304C757.079 100.247 754.007 93.3946 751.56 91.3381C749.32 89.4551 746.857 88.2448 743.851 88.2428Z" fill="black"/>
<path d="M783.358 522.589C791.483 521.501 800.002 526.7 801.473 534.825C804.449 551.27 790.362 561.863 779.998 571.861C778.006 573.783 776.618 577.266 772.821 576.941C768.288 576.553 758.833 568.612 753.562 567.501C742.593 562.472 729.516 547.107 739.614 535.529C747.154 526.884 759.156 529.028 767.643 534.814C772.114 529.532 775.742 523.61 783.358 522.589ZM783.96 559.512C789.551 553.338 796.221 546.301 795.476 537.288C794.53 525.838 779.786 525.085 774.511 534.625C773.316 536.787 772.571 542.456 770.395 543.075C767.535 543.889 762.568 537.455 759.432 536.115C749.34 531.802 739.243 539.12 743.371 549.866C746.872 558.979 759.642 563.047 767.847 567.265C770.036 568.39 771.736 571.053 774.078 569.503C776.349 568 781.836 561.858 783.96 559.512Z" fill="black"/>
<path d="M92.9742 171.136C97.2117 174.834 98.5153 180.901 97.9341 186.276C97.3476 191.699 91.1433 206.445 88.1228 211.201C85.9008 214.701 83.7431 215.518 79.5991 215.111C74.0995 214.572 59.5021 211.452 54.3996 209.489C29.6403 199.96 40.9893 169.436 66.0696 179.826C68.3024 177.513 69.0121 174.209 71.4209 171.91C77.2157 166.381 86.8168 165.763 92.9742 171.136ZM82.5186 208.115C86.0292 199.307 94.5216 189.309 90.5597 179.395C87.4791 171.687 76.4954 171.512 73.3998 179.396C72.4463 181.824 72.5893 188.221 69.5865 188.769C68.2398 189.014 64.4906 185.975 62.7987 185.298C54.3674 181.923 45.1661 185.293 48.459 195.278C51.9121 205.749 71.8056 204.957 80.5029 208.6L82.5186 208.115Z" fill="black"/>
<path d="M959.793 277.11C959.369 280.624 954.305 293.71 950.278 294.097C949.134 294.207 947.466 293.347 947.261 292.236C947.101 291.369 952.313 282.646 953.09 280.192C954.81 274.757 955.296 269.27 953.698 263.742C952.881 260.92 948.694 256.305 949.31 254.361C952.145 250.585 955.489 257.518 957.474 257.974C958.521 258.214 966.094 257.249 968.601 257.361C984.371 258.064 1012.59 268.87 1004.77 288.91C999.39 302.709 978.042 305.828 965.026 305.168C961.914 305.01 946.361 303.09 945.791 299.863C944.949 295.093 959.761 299.399 962.263 299.588C972.514 300.359 989.46 297.975 995.978 289.238C1006.94 274.541 982.513 264.575 970.667 263.628C969.041 263.498 959.793 263.138 959.793 264.655C959.793 268.483 960.231 273.488 959.793 277.11Z" fill="black"/>
<path d="M657.584 670.939C652.937 675.95 631.654 686.205 624.855 687.465C619.837 688.395 617.963 686.965 614.629 683.638C608.483 677.505 598.639 664.956 598.138 656.279C597.211 640.225 616.617 631.821 627.658 643.122C628.773 644.263 630.734 648.027 631.602 648.281C632.655 648.589 638.985 645.253 641.382 644.939C658.166 642.738 669.25 658.36 657.584 670.939ZM652.697 652.705C651.938 652.032 647.743 650.256 646.632 650.032C637.79 648.251 631.701 657.958 628.831 657.258C626.365 656.655 625.869 651.861 624.568 649.626C619.239 640.469 605.622 642.878 604.533 653.607C603.222 666.517 616.577 673.63 623.109 682.982C631.237 678.471 655.716 671.532 655.781 660.456C655.793 658.43 654.189 654.027 652.697 652.705Z" fill="black"/>
<path d="M503.323 135.607C492.684 133.259 482.186 129.959 471.29 128.774C452.038 126.68 425.861 128.254 407.123 133.187C404.237 133.946 388.071 140.021 386.756 139.06C390.569 132.299 399.992 128.286 407.131 125.583C435.169 114.97 471.084 115.842 497.481 130.645C498.22 131.059 504.397 134.552 503.323 135.607Z" fill="black"/>
<path d="M437.164 19.5237C443.127 18.8692 448.124 23.1857 449.087 28.8633C450.683 38.2786 443.263 46.4744 437 52.6061C435.639 53.9394 427.886 60.8284 426.724 60.5684C419.155 55.3526 402.127 48.9518 400.262 38.9194C396.991 21.3135 412.872 19.1642 424.277 28.3438C427.124 24.3634 432.042 20.0859 437.164 19.5237ZM437.073 46.1041C441.205 41.6541 446.198 35.045 443.689 28.6482C442.288 25.0771 439.181 24.3476 435.597 24.9356C429.276 25.9726 427.073 35.9965 424.326 35.9957C422.623 35.9953 416.271 26.0054 409.906 27.9688C402.457 30.2663 404.749 37.9199 408.543 42.5236C410.622 45.0464 423.805 54.5936 426.437 54.5985C427.939 54.6013 435.651 47.635 437.073 46.1041Z" fill="black"/>
<path d="M510.6 90.3873C508.078 87.7185 505.09 83.6229 504.733 79.9076C503.396 65.9885 517.655 65.7974 524.842 74.6689C527.378 73.3708 528.938 71.0232 531.646 69.7485C544.943 63.4892 550.658 77.6876 542.267 87.1334C540.689 88.9093 526.287 99.3239 524.35 99.9824C523.739 100.19 523.645 100.23 522.984 100.055C521.406 99.6357 512.104 91.979 510.6 90.3873ZM512.978 73.4523C500.971 75.8383 519.191 93.5101 524.042 95.2465C528.979 92.5562 543.916 82.2151 540.472 75.8737C535.646 66.9863 526.899 80.9576 524.748 80.9709C522.633 80.9839 519.283 72.1992 512.978 73.4523Z" fill="black"/>
<path d="M345.927 270.442C345.194 271.602 338.888 270.298 336.848 273.608C334.842 276.863 338.95 278.856 338.297 282.297C332.107 282.533 326.292 276.02 328.311 270.029C330.044 264.884 337.677 264.528 329.17 260.506C324.179 258.147 319.616 257.094 314.63 260.015C310.051 262.696 310.991 265.907 308.455 269.831C303.889 263.245 307.867 255.224 315.113 252.878C322.039 250.636 329.204 252.904 335.021 256.816C338.036 258.844 348.423 266.495 345.927 270.442Z" fill="black"/>
<path d="M939.258 260.997C942.728 260.132 944.248 263.091 945.08 266.006C946.722 271.754 945.82 279.67 941.9 284.39C941.007 285.466 937.394 287.919 937.322 288.206C936.814 290.225 944.521 292.114 941.473 296.414C938.912 300.027 931.256 291.803 929.612 289.551C923.65 281.383 924.871 271.465 932.774 265.019C933.787 264.192 938.28 261.241 939.258 260.997ZM940.83 268.459C934.015 267.874 928.052 282.519 934.874 285.062C936.27 285.583 936.788 281.711 937.885 281.123C940.474 277.178 941.301 273.153 940.83 268.459Z" fill="black"/>
<path d="M384.653 182.656C387.004 169.1 398.662 156.759 413.065 155.65C418.069 155.264 426.51 155.911 425.385 162.901C424.713 167.071 416.289 164.296 412.466 164.747C400.519 166.156 395.175 174.747 387.109 181.277C386.317 181.918 385.976 182.957 384.653 182.656Z" fill="black"/>
<path d="M814.223 377.932C819.61 376.364 823.966 381.647 824.284 386.454C824.417 388.469 823.57 390.217 823.708 391.815C823.853 393.493 827.49 398.239 824.506 399.178C822.843 399.702 820.673 398.084 818.936 397.912C814.549 397.477 811.206 398.366 806.719 396.801C801.56 395.002 794.407 388.843 800.723 384.006C804.634 381.011 807.931 383.734 809.816 383.241C810.762 382.994 811.667 378.676 814.223 377.932ZM816.305 382.734C814.29 382.905 812.673 386.195 811.125 386.644C809.234 387.192 805.931 386.21 804.578 387.112C800.789 389.637 811.433 394.914 816.524 392.655C820.582 390.854 820.04 382.417 816.305 382.734Z" fill="black"/>
<path d="M394.485 210.341C402.709 212.412 410.533 216.338 419.349 215.121C420.595 214.949 425.944 212.948 426.611 212.247C427.576 211.233 427.93 205.481 429.243 205.508C432.614 209.701 439.467 210.96 433.799 216.902C424.741 226.399 399.346 223.439 394.485 210.341Z" fill="black"/>
<path d="M598.13 588.836C599.63 590.397 592.022 596.735 590.739 597.807C581.468 605.562 567.887 614.28 557.624 621.226C552.529 624.675 547.347 628.051 541.961 631.042C541.082 630.001 544.708 626.576 545.457 625.844C553.741 617.76 567.801 607.538 577.437 600.615C583.843 596.013 590.277 590.854 598.13 588.836Z" fill="black"/>
<path d="M217.266 641.177C214.226 644.226 210.096 646.19 216.766 650.116C222.939 653.75 223.975 650.685 228.394 647.644C231.044 645.82 231.296 649.351 230.492 651.096C228.954 654.433 223.415 655.621 220.03 655.199C217.343 654.863 213.9 652.645 211.493 652.537C209.064 652.428 207.003 654.144 204.009 653.741C201.08 653.348 195.836 650.171 198.916 646.958C201.726 649.449 208.127 651.933 209.495 646.973C210.527 643.232 197.716 639.252 203.983 636.047C205.525 635.259 215.345 635.532 217.018 636.027C218.022 636.325 218.846 637.567 219.567 638.307C218.554 639.054 218.051 640.391 217.266 641.177Z" fill="black"/>
<path d="M369.192 657.338C369.569 657.621 369.668 663.219 371.3 661.489C371.759 661.001 374.599 649.943 374.761 648.631C375.513 642.538 373.766 637.981 371.613 632.469C371.228 631.482 371.134 630.451 372.352 631.047C374.782 632.235 381.459 646.645 381.093 649.995C380.761 653.046 369.69 672.55 367.369 673.864C365.271 675.051 360.015 674.94 360.032 672.22C360.038 671.227 363.706 667.683 364.558 666.255C364.99 665.531 368.409 656.749 369.192 657.338Z" fill="black"/>
<path d="M478.056 251.851C476.398 246.329 478.993 237.019 472.43 234.215C467.685 232.187 462.642 234.976 457.687 233.521C468.069 223.32 486.489 224.338 484.29 242.437C483.881 245.798 481.666 250.974 478.056 251.851Z" fill="black"/>
<path d="M184.504 397.863C184.67 399.068 182.909 398.515 182.057 398.547C176.736 398.75 171.535 397.631 166.612 397.867C158.557 398.254 149.229 402.032 141.128 403.202C130.793 404.694 120.242 404.057 110.074 401.999C109.907 400.794 111.668 401.348 112.52 401.315C119.838 401.034 126.845 401.445 134.215 400.543C141.427 399.66 149.538 397.052 156.781 396.483C165.494 395.798 176.011 396.18 184.504 397.863Z" fill="black"/>
<path d="M250.318 622.146C253.135 621.684 253.117 625.006 252.257 626.877C249.166 633.605 233.999 632.731 229.089 628.291C227.067 626.463 226.98 622.931 229.822 622.69C232.105 622.497 235.428 627.105 242.385 626.135C245.89 625.646 248.216 622.49 250.318 622.146Z" fill="black"/>
<path d="M202.599 628.112C201.354 629.321 190.69 630.633 188.527 630.192C185.534 629.581 178.609 624.211 179.661 621.122C180.999 617.189 185.394 622.164 187.279 623.122C192.908 625.981 196.628 624.873 201.01 620.674C203.195 622 204.506 626.261 202.599 628.112Z" fill="black"/>
<path d="M361.471 663.567C362.742 664.965 355.332 675.604 354.011 676.621C350.466 679.352 338.789 681.207 334.091 681.547C334.111 680.563 336.082 680.19 336.921 679.849C340.043 678.58 345.003 677.477 347.677 675.916C349.077 675.099 359.873 661.807 361.471 663.567Z" fill="black"/>
<path d="M945.624 286.991C945.243 287.241 943.744 287.453 943.654 286.811C945.88 278.996 949.725 274.765 948.497 266.1C948.135 263.551 946.37 260.984 945.863 258.303C945.501 256.39 947.531 257.403 948.462 258.522C952.326 263.161 951.939 272.665 950.295 278.131C949.86 279.579 946.564 286.373 945.624 286.991Z" fill="black"/>
<path d="M241.387 364.646C241.921 365.133 240.022 367.439 239.565 368.033C236.513 372 223.474 379.181 218.446 381.822C217.252 382.449 215.93 382.768 214.712 383.324C212.837 381.512 225.456 375.173 226.45 374.485C228.37 373.158 240.014 363.394 241.387 364.646Z" fill="black"/>
<path d="M247.201 643.296C246.759 642.999 246.734 641.823 245.87 641.525C244.785 641.152 242.727 642.057 242.8 640.737C249.024 637.578 255.825 635.921 261.039 641.767C261.047 643.5 248.806 644.371 247.201 643.296Z" fill="black"/>
<path d="M420.464 689.857C421.101 688.289 423.209 687.844 424.666 687.423C429.564 686.007 441.155 683.674 446.083 683.602C447.673 683.579 447.948 683.619 446.275 684.487C443.791 685.775 433.65 689.857 431.349 689.857H420.464Z" fill="black"/>
<path d="M996.847 422.236C1000.2 425.551 996.105 432.016 990.019 427.235C982.63 421.431 993.396 418.821 996.847 422.236Z" fill="black"/>
<path d="M248.409 606.128C243.827 604.296 235.679 603.54 232.999 599.637C235.602 593.318 250.399 604.315 248.409 606.128Z" fill="black"/>
<path d="M190.65 597.269C193.299 596.756 194.123 597.689 195.731 599.558C194.343 600.649 183.487 606.267 182.767 606.134C182.237 606.036 181.727 605.137 181.783 604.506C181.983 602.246 188.44 597.697 190.65 597.269Z" fill="black"/>
<path d="M189.419 639.354C188.488 640.784 184.428 641.451 182.785 641.44C178.98 641.413 171.641 638.897 178.148 636.89C182.771 635.464 185.444 637.875 189.419 639.354Z" fill="black"/>
<path d="M176.783 414.455C173.635 414.342 170.277 416.413 167.231 416.463C165.695 416.488 157.971 415.201 161.52 413.607C165.081 412.009 173.935 411.169 176.783 414.455Z" fill="black"/>
<path d="M204.171 409.612C200.003 409.878 195.846 409.44 191.851 408.265C190.909 407.988 189.671 408.208 189.425 406.859C194.387 405.677 200.712 405.038 204.171 409.612Z" fill="black"/>
<path d="M237.876 378.485C238.328 379.934 235.772 380.961 234.839 381.362C224.422 385.844 231.583 377.589 237.876 378.485Z" fill="black"/>
<path d="M586.898 274.003C584.5 274.234 581.496 272.131 582.083 269.647C583.48 263.734 602.893 268.706 602.408 277.81C602.061 284.33 597.972 279.089 595.324 278.437C592.173 277.66 588.928 281.895 586.428 283.568C570.329 294.344 551.85 300.873 532.098 296.509C528.18 295.643 510.964 289.625 515.213 283.983C518.246 279.957 521.06 285.452 523.909 287.28C538.009 296.329 561.489 291.222 575.431 283.803C576.968 282.985 588.434 275.675 586.898 274.003Z" fill="black"/>
<path d="M685.912 267.766C683.652 267.524 682.782 265.229 680.791 264.169C676.162 261.704 670.983 262.775 667.619 266.693C664.064 270.835 667.188 270.096 669.428 271.905C673.848 275.474 672.706 285.374 666.459 285.654C662.545 285.83 668.427 280.143 664.547 277.406C661.86 275.511 650.63 279.882 655.405 271.954C657.532 268.423 666.103 260.275 669.831 258.494C678.227 254.482 686.149 258.355 685.912 267.766Z" fill="black"/>
<path d="M608.664 224.872C610.416 226.358 599.97 230.53 599.542 231.445C601.384 232.274 603.521 232.244 605.489 232.509C606.197 232.605 607.881 232.027 607.257 233.508C605.79 236.99 598.865 238.829 595.323 238.018C596.529 244.723 587.612 240.395 584.778 237.682C577.887 231.086 585.248 231.058 589.934 228.205C592.099 226.887 599.895 219.363 600.592 219.347C602.99 219.291 600.577 224.311 600.519 224.82C600.208 227.524 606.613 224.109 608.664 224.872Z" fill="black"/>
<path d="M541.033 268.67C541.47 269.158 542.234 270.817 541.955 271.221C534.352 274.675 519.878 266.598 524.488 257.823C525.703 255.509 532.31 250.387 534.91 251.485C538.379 252.95 532.481 256.862 531.779 258.815C529.682 264.645 538.799 266.173 541.033 268.67Z" fill="black"/>
<path d="M576.903 233.333C577.434 233.856 578.801 238.338 578.472 238.703C574.65 240.817 560.605 237.239 560.245 232.842C560.051 230.478 563.326 228.893 565.457 228.96C566.074 228.979 576.469 232.906 576.903 233.333Z" fill="black"/>
<path d="M414.841 471.211C414.378 472.472 410.689 471.976 409.59 471.883C391.662 470.363 354.625 463.595 338.838 455.796C336.463 454.622 334.237 453.427 334.797 450.444C360.583 460.406 388.105 464.446 414.841 471.211Z" fill="black"/>
<path d="M334.79 391.621C324.813 389.929 314.852 391.968 304.938 393.076L302.479 391.289C302.458 389.577 323.795 388.661 326.037 388.836C328.581 389.034 333.242 389.518 334.79 391.621Z" fill="black"/>
<path d="M328.467 401.325C329.656 402.496 328.249 402.489 327.42 402.686C325.093 403.238 315.118 403.891 313.719 402.695C312.85 401.951 313.763 401.471 314.593 401.136C317.125 400.113 326.687 399.571 328.467 401.325Z" fill="black"/>
<path d="M614.289 451.82L626.56 444.201C633.824 437.008 642.198 426.929 644.318 416.722C644.919 413.828 644.341 410.408 645.532 407.546C650.443 412.355 648.777 420.163 646.725 426.013C641.875 439.837 630.268 452.612 614.289 451.82Z" fill="black"/>
<path d="M598.134 464.981C602.584 465.207 606.697 467.974 610.789 469.458C614.625 470.85 637.473 477.519 637.448 480.543C637.445 480.919 635.986 482.104 635.153 482.116C632.499 482.155 611.589 473.374 607.934 471.579C604.791 470.035 600.5 467.434 598.134 464.981Z" fill="black"/>
<path d="M147.995 339.728C146.985 338.677 151.546 330.816 153.412 330.181C157.352 328.842 155.6 333.77 156.866 334.223C162.389 336.197 175.469 333.981 180.987 331.764C183.416 330.789 190.84 326.399 191.427 324.024C191.678 323.006 190.425 320.748 190.832 320.361C192.176 319.08 202.214 323.793 198.565 326.263C197.331 327.098 195.793 325.444 194.347 326.192C193.531 326.614 191.166 330.396 189.374 331.726C182.853 336.567 171.208 339.663 163.1 339.027C160.092 338.791 157.026 337.282 153.946 337.606C151.566 337.856 150.491 340.041 147.995 339.728Z" fill="black"/>
<path d="M131.134 265.012C132.134 266.018 131.054 266.268 130.09 266.393C125.305 267.011 119.701 264.246 114.988 263.621C114.119 265.401 118.376 269.751 117.791 270.53C113.385 272.298 110.397 269.169 106.925 267.074C105.558 267.377 104.498 272.84 103.776 274.194L99.5384 278.15C99.7982 276.082 96.4333 263.643 99.1841 263.632C101.065 263.624 100.451 268.647 102.336 269.152C103.038 267.388 103.879 264.485 104.865 262.989C106.8 260.053 110.428 259.894 109.37 254.619C110.167 253.807 119.748 260.476 121.757 261.443C123.442 262.253 130.452 264.327 131.134 265.012Z" fill="black"/>
<path d="M142.191 301.836C146.743 301.053 149.204 303.221 151.386 306.979C157.843 318.101 142.301 325.462 136.172 315.742C132.851 310.475 136.171 302.871 142.191 301.836ZM149.218 311.202C151.365 308.95 148.614 304.479 145.808 304.764C138.058 305.548 146.542 314.01 149.218 311.202Z" fill="black"/>
<path d="M187.845 292.138C193.162 291.271 196.941 297.098 197.554 301.645C197.965 304.696 195.036 309.352 191.849 309.94C177.397 312.609 177.347 293.852 187.845 292.138ZM193.629 301.675C197.688 293.255 184.751 294.091 188.67 299.307C189.181 299.988 193.125 302.03 193.629 301.675Z" fill="black"/>
<path d="M149.396 258.781C150.494 259.84 149.144 259.966 148.42 260.234C146.802 260.832 140.488 261.479 138.507 261.531C129.589 261.767 120.37 259.627 120.607 249.09C125.499 250.976 129.118 254.367 134.276 256.027C137.094 256.934 148.847 258.251 149.396 258.781Z" fill="black"/>
<path d="M164.845 255.321C162.808 258.987 153.663 258.665 150.076 257.757C144.979 256.467 137.638 249.749 137.461 244.247C137.88 243.778 144.992 248.651 146.11 249.21C151.729 252.017 158.587 254.667 164.845 255.321Z" fill="black"/>
<path d="M104.358 334.103C102.64 335.198 97.4924 333.727 97.4387 331.096C97.4114 329.759 99.3074 328.269 98.8306 326.588C91.8583 327.82 90.5954 322.183 98.4186 323.19C100.969 323.518 105.384 326.526 105.667 329.091C105.74 329.758 104.596 333.951 104.358 334.103Z" fill="black"/>
<path d="M143.072 287.151C144.486 289.075 137.409 289.988 136.27 290.471C133.605 291.602 130.94 294.825 129.04 295.806C125.359 297.706 128.715 291.524 129.734 290.259C131.854 287.625 134.407 286.488 137.797 286.402C138.77 286.378 142.728 286.683 143.072 287.151Z" fill="black"/>
<path d="M194.339 280.91C191.822 281.217 189.351 279.549 186.97 279.539C185.393 279.532 178.97 282.072 178.903 279.187C178.818 275.495 193.663 274.461 194.339 280.91Z" fill="black"/>
<path d="M183.802 341.811C184.4 347.121 171.465 349.125 169.767 345.604C169.177 344.382 170.602 344.555 171.291 344.369C175.312 343.284 179.802 343.184 183.802 341.811Z" fill="black"/>
<path d="M168.359 320.353C168.019 317.238 176.605 314.539 177.479 317.25C178.529 320.506 170.375 320.127 168.359 320.353Z" fill="black"/>
<path d="M601.404 154.52C601.797 154.959 602.129 155.779 602.348 156.359C601.592 156.93 587.008 149.93 584.931 148.933C583.983 148.478 582.996 149.376 583.39 147.374C588.175 147.134 598.293 151.04 601.404 154.52Z" fill="black"/>
<path d="M867.606 401.477C881.615 398.624 882.374 417.303 867.607 414.302C860.229 412.802 860.224 402.98 867.606 401.477ZM868.994 405.578C865.895 406.51 866.181 410.666 869.579 411.021C875.046 411.592 874.365 403.963 868.994 405.578Z" fill="black"/>
<path d="M944.862 397.332C955.667 395.596 961.136 408.481 949.621 409.64C938.139 410.795 934.292 399.03 944.862 397.332ZM944.801 401.422C940.655 402.779 946.986 409.413 950.359 404.769C951.009 401.438 947.43 400.562 944.801 401.422Z" fill="black"/>
<path d="M147.804 484.517C161.695 482.196 162.082 497.457 157.459 506.479C155.919 509.483 148.983 518.549 145.538 518.661C142.442 518.762 128.002 511.503 125.185 509.242C115.966 501.846 115.714 487.105 130.007 488.58C132.142 488.8 137.67 491.363 138.441 491.178C139.158 491.005 142.317 485.434 147.804 484.517ZM155.531 490.067C153.137 487.891 148.553 489.601 146.239 491.272C144.596 492.459 142.729 495.639 141.864 496.172C139.97 497.34 131.328 493.096 132.63 497.741C133.112 499.462 142.956 504.674 144.413 503.659C146.964 496.985 146.269 487.864 156.414 492.649C156.732 492.333 155.944 490.443 155.531 490.067Z" fill="black"/>
</svg>
