<svg width="444" height="250" viewBox="0 0 444 250" fill="none" xmlns="http://www.w3.org/2000/svg">
<path d="M160.115 134.32C160.262 133.022 161.236 131.543 161.145 130.402C161.118 130.067 160.206 128.333 160.041 128.218C159.881 128.107 156.584 128.127 156.13 128.17C154.411 128.334 152.879 129.316 151.104 129.189C151.096 127.151 153.618 127.472 155.159 126.867C156.168 126.471 157.001 125.64 158.034 125.261C157.905 124.974 153.22 123.703 152.167 122.841C151.398 122.211 150.099 120.489 149.205 119.608C148.009 118.429 145.641 117.538 145.906 115.514L150.896 117.955C152.491 119.847 154.733 121.475 157.342 121.323C156.078 116.603 155.379 111.007 156.384 106.191C156.826 104.067 157.758 101.834 159.765 100.81C159.193 103.498 158.183 106.425 158.022 109.175C157.943 110.537 158.247 117.261 158.639 118.167C158.851 118.656 158.727 118.68 159.42 118.593C160.846 112.437 161.746 106.552 164.966 100.979C166.094 99.028 167.668 97.3789 169.128 95.6849C166.888 95.8321 166.182 94.1989 164.531 93.2044C163.064 92.3201 161.102 91.2554 159.518 90.6288C157.336 89.7662 154.075 89.5812 152.489 87.8198C155.568 88.5006 158.951 89.4705 161.843 90.7282C164.331 91.8098 168.408 95.1062 170.672 95.008C171.445 94.9746 174.307 93.9441 174.675 94.3152C174.748 94.3889 174.839 95.0629 174.409 95.3283C167.614 99.5159 164.55 104.896 162.976 112.693C162.733 113.896 162.949 115.837 162.531 116.959C162.371 117.385 161.757 117.378 161.546 117.765C158.729 122.922 162.143 121.298 164.102 125.081C165.765 122.716 166.846 119.872 168.639 117.595C169.666 116.289 171.19 115.241 172.239 113.966C174.034 111.783 175.394 109.273 177.445 107.307C176.883 111.967 172.638 115.415 170.016 118.954C168.897 120.465 164.511 127.603 164.281 129.049C164.051 130.496 164.768 131.986 166.452 131.536C166.955 131.401 170.036 128.442 171.089 127.877C175.437 125.547 184.764 125.656 189.589 126.619C190.967 126.894 196.654 128.878 197.04 128.832C198.622 128.642 196.021 125.929 195.22 125.51C194.119 124.934 188.973 123.509 187.671 123.382C182.419 122.869 176.945 123.215 172.252 125.772C171.893 124.273 173.202 123.014 174.35 122.203C176.663 120.569 182.436 118.995 185.25 119.276C187.336 119.484 189.097 121.161 191.314 120.981C189.331 115.444 187.438 109.61 184.789 104.34C182.994 100.767 180.885 98.4546 178.83 95.4242C177.87 94.0087 178.061 92.6056 176.383 91.4319C173.901 89.6968 168.2 90.4109 165.135 89.9055C163.3 89.2628 163.676 87.9334 163.039 86.8135C162.303 85.5206 153.832 82.197 152.17 82.1644C151.259 82.1466 150.495 83.016 150.387 83.8626C149.882 87.8429 150.982 92.4995 151.117 96.5219C151.18 98.4086 151.362 105.353 150.577 106.615C149.662 108.085 145.451 106.05 144.276 105.322C143.564 104.881 141.864 102.904 141.402 103.206C140.869 104.457 139.953 105.868 139.114 106.937C136.408 110.383 132.67 115.234 128.236 116.381C126.997 116.701 125.583 116.335 124.431 117.073C123.55 117.636 122.144 121.557 122.901 122.387L137.583 128.504C136.764 128.418 135.878 128.278 135.084 128.066C132.544 127.39 123.235 124.9 121.947 123.218C121.428 122.541 122.123 120.804 121.977 120.666C121.921 120.613 120.527 120.324 120.45 120.338C120.151 120.393 119.345 122.584 119.285 122.953C119.11 124.027 119.799 127.27 120.14 128.445C120.87 130.95 124.727 136.218 121.115 137.738C121.593 136.134 117.261 133.28 116.787 133.639C116.716 133.692 116.464 134.668 116.596 134.991C117.122 136.276 119.496 135.997 119.555 137.396C118.467 136.784 116.271 138.309 115.915 138.298C115.629 138.29 115.409 137.682 114.698 137.864C114.019 138.038 111.535 139.721 110.431 140.193C108.628 140.963 103.697 142.869 101.966 143.129C98.9525 143.583 100.326 142.261 100.105 141.911C99.8722 141.542 96.2747 140.04 95.732 139.168C95.0131 138.809 92.23 139.799 92.8681 140.475C94.9543 139.395 96.9377 142.12 98.4052 143.382C97.8736 144.435 96.8902 144.01 96.2382 144.255C95.9171 144.376 95.9845 144.914 95.7661 144.94C95.3295 144.993 94.4103 144.44 94.254 144.58C93.5985 145.166 95.427 145.267 95.3061 146.444C95.1982 147.496 94.125 147.75 93.2097 147.658C92.8865 148.623 93.9946 148.249 94.1891 148.881C94.2217 148.987 93.9956 151.013 93.903 151.075C93.3793 151.427 90.1151 148.874 90.5451 150.914C90.6944 151.623 92.4155 152 92.7243 153.47C92.89 154.259 92.0611 154.725 92.1679 155.52C92.0633 155.624 90.1552 153.688 89.7465 154.153C89.6529 154.259 89.908 155.053 89.6721 155.453C89.5555 155.651 88.7253 155.765 88.7104 156.032C88.7056 156.119 89.4324 156.87 89.5963 157.549C89.891 158.768 89.735 160.098 90.2651 161.334C90.8396 162.672 92.5386 163.31 92.1698 165.093C89.7266 165.277 89.872 161.468 87.6632 162.021C88.3176 162.918 87.4863 162.606 87.3832 162.743C87.0395 163.199 87.9136 163.73 88.0968 164.162C88.3061 164.655 88.2648 165.503 88.4337 165.706C88.5483 165.844 90.9924 166.982 91.5605 167.483C92.0994 167.958 92.4145 168.739 92.8716 169.291C93.2192 169.711 94.5596 169.752 92.8661 170.394L94.9416 171.768L93.9057 172.956L95.2897 173.64C93.3557 173.842 91.9454 174.827 89.9125 175.006C88.3276 175.145 86.6579 174.889 85.0687 175.015C80.2848 175.393 75.4964 176.208 70.681 176.039C70.1172 176.461 70.6875 176.658 71.193 176.722C72.4653 176.882 74.0133 176.644 75.3554 176.725C81.4071 177.086 87.5742 176.901 93.6645 176.922C94.85 176.926 96.0725 175.836 96.6774 177.401C88.3865 179.729 79.6064 178.928 71.0274 179.116L72.0663 187.662L69.2927 187.66C71.1655 186.089 69.5636 183.888 69.9721 181.693C69.6859 181.314 69.0123 179.196 68.4305 179.459C68.1025 179.608 67.7534 180.256 67.7199 180.64C67.6514 181.425 67.7614 185.791 67.8964 186.475C68.0904 187.46 68.8748 186.999 68.9442 187.66C68.4905 187.58 67.0541 187.808 66.8833 187.645C66.646 187.418 66.1933 182.036 66.1713 181.164L64.7883 181.165C64.9738 183.594 65.1464 185.923 64.7843 188.345C62.8186 188.031 63.3355 185.675 63.0309 184.436C62.8487 183.695 61.9776 179.994 61.8446 179.794C61.4349 179.177 60.9884 179.457 60.677 179.957C61.4528 183.198 61.1105 186.662 62.5708 189.736L104.997 190.745L99.0186 193.22C96.643 194.439 92.7229 196.686 89.9092 196.589C89.2506 196.566 89.4565 195.865 88.7438 195.674C87.8229 195.428 86.8662 195.532 85.9318 195.527C85.2433 200.055 86.2029 204.541 86.9818 209.017C87.0151 210.023 85.7882 209.875 85.5878 210.569C89.304 211.861 95.8364 209.958 99.22 210.973C99.6747 211.109 99.8896 211.477 99.7972 211.938C97.6062 212.591 95.2986 212.061 93.0764 212.324C92.7693 212.36 90.8133 212.619 91.4792 213.304C91.7987 213.633 97.8268 213.815 98.9115 214.012C99.4808 214.116 99.9715 214.587 100.606 214.734C102.787 215.24 105.24 214.934 106.038 217.409C102.966 217.591 99.877 217.88 96.8135 218.053C93.5041 218.24 88.6193 218.679 85.4151 218.434C84.4191 218.358 83.0961 217.673 82.3057 217.76C81.7542 217.821 81.3495 218.413 80.5632 218.471C80.2026 218.497 76.2714 217.583 76.0838 217.452C75.7877 217.245 75.8005 215.813 75.1856 215.364C76.532 215.177 78.1244 215.168 79.4295 214.93C80.0227 214.823 81.5313 214.613 81.7694 213.997C80.8198 213.537 79.7506 213.803 78.8455 213.631C77.4871 213.373 77.0223 213.152 75.3403 212.985C73.4156 212.794 74.6242 211.489 75.4261 211.308C76.2808 211.115 79.0894 212.329 78.6549 210.232C77.1415 210.42 75.7023 209.541 74.5481 208.637C73.3011 206.159 74.0257 198.18 72.7918 196.428C72.6427 196.216 68.2322 195.117 67.7268 195.152C65.719 195.291 65.1289 196.867 65.6289 198.645C65.8163 199.312 66.8953 199.42 66.8206 200.841C66.7491 202.201 65.2487 202.513 65.1323 203.731C66.7958 203.993 69.1111 205.636 69.934 207.034C70.7304 208.387 70.5291 209.742 71.0076 211.104C71.7199 213.131 73.0234 215.151 73.6309 217.065C73.9574 218.094 73.591 219.268 74.3221 220.171C77.2269 220.31 80.041 219.6 82.9796 219.811C84.7308 219.937 86.533 220.707 88.3584 220.493C87.5502 221.714 85.2259 221.038 83.7153 221.209C80.692 221.553 78.6304 222.041 75.3576 221.86C74.5046 221.812 73.5778 221.191 72.9809 221.254C72.4812 221.307 71.089 222.376 69.936 222.663C67.0839 223.371 59.7367 224.439 57.0587 223.838C55.1555 223.41 54.9446 220.914 51.7736 223.214C49.175 225.099 48.4436 226.246 44.7526 227.229C36.9465 229.307 20.0761 229.084 12.4441 226.471C11.2695 226.069 8.6372 223.585 9.13648 222.535C9.33567 222.116 10.9094 220.863 10.9583 220.746C11.2138 220.133 10.9488 219.402 11.2148 218.767C13.3608 213.641 18.0756 210.771 23.4641 209.649C26.9587 208.921 30.3906 209.91 33.5951 208.7C34.0191 208.54 39.0856 205.534 39.1494 205.216C39.2155 204.886 38.79 204.24 39.1334 203.738C37.1132 204.373 29.8355 205.134 28.5726 203.723C27.4863 202.509 25.3125 188.676 24.9633 186.083C24.3328 181.401 24.2126 176.794 23.8955 172.091C23.3892 164.581 16.6416 161.594 20.1452 153.032C22.3187 147.721 25.2685 146.804 30.3942 145.019C34.4046 143.623 39.1776 142.07 43.4296 142.564C45.0047 142.747 46.5196 143.629 48.0012 143.867C50.4599 144.262 53.3569 144.26 55.8882 144.626C59.687 145.174 63.4781 147.355 66.5559 143.76C67.387 138.19 68.8311 132.638 68.5957 126.972C68.4754 124.076 68.1262 118.402 67.5252 115.718C67.4091 115.2 65.8856 111.218 65.6863 111.064C65.2288 110.711 64.7001 110.637 64.1647 110.484C53.0098 107.305 27.366 106.221 20.0767 97.2113C18.7119 95.5243 18.5502 93.0368 18.2697 92.6652C18.1138 92.4586 14.5991 91.4401 13.5978 90.4371C11.5348 88.3708 11.3881 82.8441 12.1916 80.2182C13.6464 75.464 18.373 73.3156 21.8062 70.2115C24.0431 68.189 26.1078 65.6179 28.3827 63.7049C38.7725 54.9679 50.2139 47.3331 59.8282 37.7877C63.4028 34.2387 65.8768 28.0599 69.2916 24.1382C70.5499 22.693 72.4163 21.4166 73.807 19.9493C75.4473 18.2189 75.6882 16.2653 78.5606 15.7479C83.3873 14.8785 86.1101 16.805 90.5887 16.3289C91.1414 16.2701 94.2148 15.7402 94.6757 15.5782C95.8346 15.1707 96.1266 14.3774 96.9406 14.0474C99.7966 12.8896 106.711 15.3612 108.824 17.5348C110.116 18.8634 110.812 21.0395 110.893 22.8495C111.345 23.3943 111.524 22.8114 111.585 22.341C111.714 21.3417 111.649 19.6428 111.547 18.6097C111.432 17.4428 109.835 13.6131 112.422 15.6952L114.526 20.1094C114.819 19.9895 116.453 17.7317 116.593 17.3594C116.92 16.4889 116.742 14.9835 117.316 14.3117C117.616 13.9603 118.312 13.7656 118.515 13.9558C118.749 14.1751 118.968 18.267 118.847 18.9002C118.632 20.0289 117.144 20.9067 117.134 22.1639C118.148 21.4896 123.224 16.3264 123.892 16.3594C125.916 16.4594 121.899 20.5871 122.334 21.1382L126.833 18.7446C126.272 19.9805 127.885 20.5023 127.905 20.6489C127.948 20.9832 126.894 22.3549 126.748 22.4003C125.792 22.6986 124.521 22.4295 123.35 22.6565C122.789 22.7652 121.238 23.3129 120.945 23.8702C123.377 23.677 126.214 24.265 128.474 25.1649C128.859 25.318 133.127 28.5316 133.315 28.7667C133.535 29.0428 134.209 30.5285 133.248 30.3756C130.633 29.9593 127.697 26.6362 124.759 26.7785C129.159 29.5676 135.352 34.0607 137.254 39.0724C138.598 42.6142 136.494 40.7562 134.465 40.2885C133.675 43.198 139.943 43.8036 140.341 42.4739C140.55 41.7724 136.926 35.0176 137.24 33.4481C137.708 32.8334 141.566 42.0492 142.08 42.5209L141.051 43.1916C141.878 44.4066 143.058 45.3523 143.833 46.6027C144.538 47.7409 146.843 52.4588 147.127 53.6117C147.487 55.0766 147.205 56.5897 147.292 58.0666L148.675 57.7288C147.968 61.8805 149.011 63.9708 145.196 66.7745C143.913 67.7178 142.985 66.8786 143.128 69.351C141.328 69.4394 140.427 66.9914 139.333 69.5272C139.365 69.9984 141.487 70.5862 142.014 70.6409C143.092 70.7529 143.947 70.3438 144.619 70.4386C146.78 70.7437 148.856 76.0383 149.796 77.8212C151.717 78.4124 153.52 78.5899 155.444 79.2602C156.758 79.7184 162.706 82.1736 163.462 82.8064C164.271 83.4839 165.17 85.1974 165.995 85.949C167.944 87.724 170.156 87.4442 172.589 88.3355C174.214 88.9307 180.907 91.8725 181.977 92.752C183.594 94.0809 189.801 104.819 191.148 107.3C193.024 110.754 195.075 114.274 195.478 118.247C196.55 117.733 194.442 115.208 196.161 115.516L199.978 122.184C199.465 122.438 198.757 122.05 198.082 122.01C197.966 122.003 196.248 121.904 196.517 122.519C198.306 124.171 200.494 125.44 201.864 127.504C202.688 128.745 202.776 131.034 203.607 131.626C204.216 132.058 204.722 131.532 205.176 131.742C205.82 132.041 206.103 133.425 206.727 133.993C207.177 134.403 207.935 134.467 208.214 134.746C208.837 135.371 210.092 141.279 210.022 142.316C209.919 143.854 206.516 149.068 205.332 150.056C204.497 150.753 203.277 149.39 203.128 151.977C202.976 154.626 204.807 155.661 205.436 157.833C206.27 160.714 206.834 163.892 203.767 165.582C202.691 166.175 199.601 166.207 199.318 167.023C199.078 167.711 199.623 168.863 199.649 169.697C199.718 171.973 199.528 174.272 199.637 176.547C199.72 178.264 200.947 181.99 199.955 183.364C199.536 183.945 198.279 184.241 197.865 183.696C197.597 183.344 197.957 177.804 197.55 176.723C196.949 176.722 197.169 178.219 197.191 178.618C197.28 180.244 197.927 181.6 197.203 183.217L195.54 181.956C195.442 176.938 194.663 171.975 194.436 166.968C194.405 166.285 194.142 166.237 193.571 166.466C193.083 166.662 193.068 168.803 193.039 169.353C192.94 171.199 192.854 174.085 193.044 175.869C193.275 178.024 194.935 181.184 194.059 183.293C193.959 183.534 193.463 183.553 193.406 183.802C193.076 185.24 194.057 189.2 192.709 189.896C191.875 190.327 191.565 189.336 191.403 188.772C189.617 182.565 190.789 175.756 189.898 169.74C189.823 169.233 189.141 167.425 188.884 167.041C188.457 166.401 187.228 167.966 186.97 168.503C185.878 170.776 185.851 173.86 184.333 176.845C182.624 180.208 179.732 185.748 177.752 188.818C177.222 189.641 175.68 189.947 176.233 190.739C177.776 188.904 178.075 189.991 179.434 189.978C180.639 189.967 182.1 189.664 183.011 188.876C183.433 188.511 184.609 186.243 185.419 186.981C185.701 187.237 184.715 188.266 184.553 188.687C184.002 190.116 182.871 195.569 181.869 196.125C181.41 196.381 179.447 196.314 179.224 196.595C179.042 196.824 179.36 197.763 178.863 198.464C178.367 199.164 176.47 199.433 175.886 200.313L174.332 195.188C174.384 195.618 174.332 195.842 174.09 196.205C173.44 197.181 170.153 201.79 169.977 202.346C168.983 205.484 171.943 208.814 166.708 210.406C165.1 210.894 163.708 210.576 162.181 210.717C161.801 210.752 161.542 210.433 161.162 211.086C162.027 211.225 163.642 213.616 163.825 213.658C166.469 214.256 170.245 214.131 172.962 214.827C174.621 215.253 179.665 218.363 180.379 219.821C180.629 220.33 180.513 220.999 180.766 221.491C181.265 222.463 182.3 223.136 182.673 224.053C183.934 227.154 181.547 228.034 179.143 229.171C167.489 234.687 153.7 233.413 142.019 228.936C140.659 228.415 139.744 228.008 138.268 227.508C137.274 227.172 136.024 225.5 136.195 227.67C133.112 226.725 129.834 226.139 127.008 224.593C126.527 226.332 125.414 223.89 124.862 223.543C124.436 223.276 123.642 223.417 123.338 223.007C122.369 221.7 123.482 219.779 123.545 218.622C123.663 216.449 122.394 215.709 123.647 213.069C125.329 209.521 126.167 208.387 129.689 206.786C130.124 206.588 129.723 205.708 130.994 206.47C131.071 205.377 129.967 205.825 129.682 204.516C129.529 203.812 128.911 198.791 129.09 198.29C129.976 195.792 132.106 196.547 133.532 195.833C134.197 195.5 134.975 194.594 135.688 194.171C137.537 193.074 139.62 192.189 141.041 190.559C141.346 189.773 139.446 190.046 139.726 188.613C140.683 187.18 140.853 185.347 141.484 183.817C141.808 183.034 142.762 182.24 142.974 181.525C143.203 180.75 142.99 179.957 143.188 179.331C143.318 178.921 144.52 178.557 144.516 177.75C142.861 178.604 142.002 178.068 140.533 178.062C138.109 178.052 136.737 179.1 136.891 175.697C138.917 176.155 138.757 175.789 139.66 174.153C139.142 173.588 137.301 174.143 137.584 172.965C138.921 172.425 140.257 171.634 141.489 170.901C141.725 170.761 141.767 170.349 141.982 170.221C143.189 169.501 146.261 169.029 146.594 167.149C146.234 166.833 144.106 167.431 143.633 167.354C143.193 167.283 142.927 166.562 142.618 166.546C142.489 166.539 140.903 167.565 140.205 167.503C139.995 167.484 140.021 166.804 139.815 166.788C139.517 166.764 134.471 168.064 134.032 168.26C132.182 169.088 131.335 170.863 128.744 171.248C125.725 171.696 124.885 171.367 122.851 169.216C119.901 171.987 114.92 177.924 110.404 177.398C110.056 177.358 104.395 175.203 103.868 174.928C101.614 173.753 98.7388 168.206 97.5431 165.781C96.7636 164.199 95.2907 161.175 94.7884 159.607C93.9845 157.099 94.0368 156.784 95.8471 154.872C97.0322 153.62 99.0061 152.099 100.783 152.05C100.927 150.294 101.334 148.083 103.611 149.021C103.108 148.33 103.299 147.281 104.136 146.976C104.974 146.67 104.511 148.702 105.69 148.341L105.693 147.312C107.577 148.134 106.231 147.01 106.528 146.61C106.83 146.202 107.821 146.334 108.116 145.774C105.326 145.618 102.897 147.292 99.9522 147.643C99.4032 147.709 99.3886 147.708 99.4545 147.148C99.962 145.982 104.999 144.467 106.385 144.066C111.885 142.478 126.595 140.68 129.971 137.241C130.684 136.515 131.037 135.538 131.726 134.869C135.831 130.875 141.225 129.362 146.731 131.623C148.535 132.363 153.63 136.286 154.761 136.365C156.402 136.478 157.717 135.031 159.072 134.474C159.452 134.317 159.911 134.404 160.115 134.32C160.066 134.758 159.991 135.7 160.287 136.029C161.179 134.752 162.926 135.683 164.048 135.293L165.66 133.64C164.52 133.713 163.574 133.263 162.418 133.319C161.375 133.369 160.969 133.972 160.115 134.32ZM105.341 21.822C104.685 17.8124 99.7439 16.9184 96.3334 16.3527L98.0944 18.204L104.136 21.8243C104.493 20.5741 104.457 21.4125 105.341 21.822ZM103.586 26.5808C101.872 20.3555 93.1451 19.0534 87.4916 18.5945C85.133 18.403 80.5458 18.9927 78.848 18.7505C78.3741 18.6829 77.9486 18.1445 77.7783 18.1438C77.1775 18.1413 75.8129 20.3571 76.2588 21.1027C76.5555 21.5236 81.0733 21.211 81.9424 21.1353C85.7542 20.8029 88.5443 19.0488 91.8329 21.6433C93.9345 23.3014 96.9769 29.6955 100.068 28.4283C100.408 28.2889 100.459 27.8172 100.602 27.7518C101.07 27.5377 103.404 26.8258 103.586 26.5808ZM81.0787 26.6092H86.4518C87.49 26.6092 88.592 31.7543 91.0318 32.3511C92.7955 32.7825 92.8638 31.6033 93.0366 34.1303C95.342 31.0918 95.5288 29.9076 93.1967 26.8747C92.9061 26.4967 90.1228 23.7053 89.875 23.5731C87.3066 22.2029 85.1206 23.2581 82.6335 23.5267C80.2931 23.7794 77.9417 23.8531 75.6868 23.9173C75.3346 23.9273 73.213 25.1638 73.1427 25.2905C72.9107 25.709 73.4906 26.3003 73.3941 26.5609C73.3819 26.5939 72.9245 26.606 72.7631 26.8505C71.5045 28.7568 69.3318 29.9122 67.7285 31.7343C62.1709 38.0507 57.5503 45.3848 51.1024 51.2379C46.0487 55.8252 39.4387 58.3232 34.3027 62.3637C32.3625 63.8901 23.4139 72.2582 22.9255 74.0504C22.6534 75.0487 22.4918 77.6662 23.0329 78.5682C23.7935 79.8357 29.7824 81.3432 31.3362 81.3495C34.0498 81.3605 42.6828 78.7236 44.9993 77.3601C48.149 75.5061 50.3976 72.6427 52.6438 69.8553C55.7085 66.0522 58.3243 61.8312 61.6411 58.1974C61.2854 57.8898 61.0001 56.81 60.9398 56.7514C60.4295 56.2553 58.5327 57.6577 58.1998 56.3615C58.9775 56.503 63.3742 54.971 63.5993 54.6741C64.5734 53.3894 62.0695 52.4322 62.4189 51.6209C62.4401 51.5716 63.1618 50.8841 63.215 50.8942C63.7776 51.0015 64.6766 51.8277 65.6929 51.8987C68.1187 52.0684 70.9123 49.874 71.0257 47.471L69.641 47.2984C72.4929 43.5903 76.5801 40.8653 80.7304 38.7464C79.3809 38.3401 77.1152 39.4553 75.8643 40.1014C71.891 42.1537 70.045 45.0371 68.0153 48.7844C67.7686 49.2401 68.1933 49.7106 67.2145 49.5175C66.5015 45.4836 69.6428 42.4536 71.0224 38.9194C70.7924 38.5925 68.3909 40.3815 68.0861 40.6369C66.7308 41.7726 65.5947 43.2191 64.2614 44.3872C63.5072 44.531 63.7378 44.0436 63.7344 43.5283C63.7084 39.6224 70.1574 34.9246 73.799 34.4705C73.7733 33.6406 70.5647 33.8178 71.3734 32.769C71.4962 32.6097 74.6371 31.5125 75.1831 31.3921L74.1457 30.374C77.2635 30.1148 79.0173 32.6796 81.1089 33.9312C81.6761 34.2706 86.7051 36.542 86.9784 36.3804C87.0883 36.3153 88.1504 34.6991 88.2217 34.4782C89.0737 31.8388 82.3067 28.5231 81.0787 26.6092ZM107.424 30.3706H114.877C115.204 30.3706 119.425 33.5937 120.42 33.7953C120.614 33.8346 120.992 33.8798 120.942 33.6206C119.224 31.5742 119.929 30.1291 116.796 29.1647C115.244 28.6868 110.327 29.0381 108.644 29.3512C108.094 29.4535 107.594 29.8374 107.424 30.3706ZM121.287 38.5775C118.929 36.8002 117.197 34.1777 114.603 32.6933C114.263 32.4988 110.78 30.7674 111.241 31.9038C111.548 32.658 112.731 33.8608 113.048 34.9102C113.365 35.9599 113.892 38.2007 112.279 38.2336C112.398 35.9249 110.628 32.3065 108.213 31.8183C105.195 31.2083 101.239 32.5612 101.876 36.1819C100.743 36.2998 99.4267 33.8961 98.3971 34.63C97.6174 35.1857 98.6638 38.1869 98.0612 39.2609C96.6412 38.0247 94.0407 36.1731 93.0367 38.5762L92.6933 37.8944C88.7244 41.0529 87.4954 45.5391 88.6803 50.3819C87.318 50.9904 85.8143 51.8127 85.3121 49.6179C84.645 46.7025 85.5823 43.4248 86.275 40.6288C83.6777 42.7818 81.8439 46.2936 82.1237 49.6852C82.3171 52.0282 84.2321 53.9217 83.8484 56.358C82.2678 55.8256 81.5449 54.3104 80.3888 53.2806C80.5871 54.1105 80.1002 55.0724 80.1508 55.8006C80.3036 57.9963 84.3196 64.3393 85.5363 66.8355C86.8368 69.5034 87.9805 72.3964 89.0559 75.164C90.281 74.4785 89.2171 72.6355 91.1314 73.4587C88.7711 75.9786 89.9478 78.7411 91.7073 81.2265C91.9449 81.562 94.9016 84.5111 95.2897 84.0536C95.0854 82.1731 95.8328 80.2723 97.7145 79.61C98.2041 81.3106 96.2398 81.2939 96.0271 81.8717C95.5662 83.1237 96.3524 83.9894 96.5779 84.9631C96.655 85.2963 96.235 85.8347 96.3617 86.0552C96.4854 86.2705 100.617 88.3763 100.837 88.1595L101.009 87.1344C101.946 87.6671 103.189 88.8056 104.136 89.1852C104.391 89.2874 104.214 88.5504 104.518 88.481C105.363 88.2876 110.072 90.3652 111.411 90.5564C112.372 90.6935 111.798 89.5079 111.929 89.0143C112.64 88.238 112.568 89.3827 112.851 89.5413C113.626 89.9765 114.424 89.6358 114.88 90.8923C115.966 91.1101 114.641 89.7142 115.584 89.5282C116.75 89.2981 117.901 91.083 117.132 88.5024C118.136 88.1999 117.752 89.3169 118.384 89.5032C119.09 89.7116 120.145 89.0349 120.944 89.1809C121.042 89.1097 119.836 87.9571 120.252 87.4763C120.869 86.7644 120.799 88.2799 121.464 88.1713C122.272 88.0395 124.435 85.6546 122.677 88.497C124.708 88.7526 123.628 87.2264 123.713 87.1385C123.767 87.0824 124.704 87.0465 125.229 86.7439C130.924 83.4595 135.592 73.8036 135.817 67.4354C135.839 66.8156 135.275 65.6411 135.53 65.2778C135.907 64.7387 139.732 65.4418 141.74 63.3653C144.718 60.2865 144.429 55.4578 143.145 51.7265C141.947 48.2437 140.343 45.4001 136.103 46.1819C132.814 46.7883 131.908 48.6944 130.695 51.4436C130.162 52.6516 130.38 54.5076 128.784 53.9271C128.104 53.6799 126.919 45.9341 123.372 46.7799L125.447 46.7836C126.358 45.4322 122.224 44.3735 121.992 44.0173C121.861 43.817 122.38 43.1475 122.316 43.0472C122.259 42.9563 120.903 42.4574 120.424 41.995C120.111 41.6926 118.852 40.2125 120.08 40.2782C121.208 40.3386 122.187 41.1419 123.369 40.9689C123.517 40.079 122.758 40.2673 122.247 39.5206C121.955 39.0936 121.744 38.4097 121.633 37.8958L121.287 38.5775ZM70.3382 62.8548C68.5149 59.9627 71.0291 57.0214 70.329 53.9645L67.8061 54.9749C64.6718 59.5421 60.5204 63.4734 57.3628 68.0134C56.647 69.0426 55.6212 70.1077 55.7765 71.4033C58.179 70.0035 61.6472 73.0433 63.6055 73.1215C64.4945 73.157 64.6644 72.3324 65.8341 72.553C66.499 72.6785 70.2374 74.975 70.873 75.4915C71.3204 75.8551 71.3318 76.4983 71.3788 76.5328C71.4539 76.5879 72.3981 75.7081 72.9411 75.5153C74.37 75.0079 76.1224 75.2439 77.614 74.8202C76.9406 71.925 75.531 69.5845 76.9305 66.6194C76.9744 66.5877 77.4461 66.979 77.558 66.9073C77.6779 66.8304 79.2472 64.7958 79.2873 64.6604C79.564 63.7254 78.73 61.6194 77.9622 62.1728C77.7977 62.2914 77.2667 65.3707 77.2621 65.9323C76.7778 66.5296 75.5707 62.4302 75.5486 61.953C75.471 60.2796 76.2367 59.4673 74.6657 57.7224C74.6438 60.599 74.3063 62.4653 72.7546 64.9058C71.9143 65.4827 71.9984 61.1621 72.0623 60.805L70.3382 62.8548ZM86.6217 79.9519C86.7174 78.0056 85.3222 76.4597 84.6335 74.5648C83.595 71.7077 83.5099 67.3722 80.0432 66.6165C77.1392 72.5624 82.6537 76.4307 86.6217 79.9519ZM59.9348 86.1051C59.156 85.1482 61.3775 77.7691 61.0933 76.6006C60.6827 74.9125 59.5018 75.2861 58.5753 74.6233C57.3538 73.7495 56.6376 71.7123 55.5083 73.7056C54.7846 74.9829 54.7058 76.5283 55.2859 77.8742C55.9096 79.3213 57.9064 79.417 56.7884 81.2985C55.312 81.9441 55.3881 78.7823 54.0618 79.6264C53.8795 79.7424 52.9689 82.6051 52.3065 83.5422C51.1337 85.2015 43.2333 93.6248 41.7364 94.658C40.7759 95.321 39.627 95.7337 38.4405 95.6777C39.1483 94.9413 39.0828 93.9192 39.5242 93.1595C40.182 92.0272 41.6168 91.816 41.4068 90.2302C41.3731 89.9757 41.7785 89.5323 41.0463 89.8716C39.5341 90.5724 39.5031 90.1599 38.7724 90.4024C37.8266 90.7162 35.8902 92.6829 34.1196 93.2997C32.8399 93.7455 28.3171 94.1586 28.0835 94.3544C28.0263 94.4024 27.744 95.6204 27.78 95.807C28.1797 97.8799 35.4466 100.892 37.4821 100.403C38.0912 100.256 42.1478 98.3432 42.9617 97.9183C45.42 96.635 51.3402 93.0497 53.1873 91.2499C54.9304 89.5514 56.395 86.9378 58.026 85.0874C59.1451 85.8602 59.1252 87.0216 58.5469 88.1555C58.7377 88.3062 60.3677 87.3048 59.9285 88.3233C59.7625 88.7082 59.1775 90.0532 59.0655 90.2327C58.9526 90.4134 57.0498 90.255 56.8402 91.4569C56.8002 91.6867 59.0433 94.9156 59.4037 95.3484C59.7251 95.7342 62.3368 98.4346 62.7044 98.073C61.749 95.5445 59.2002 93.6518 58.8948 90.8958C59.6454 90.1565 61.5938 92.9966 61.9522 93.5184C64.9095 97.8253 67.0882 101.148 70.4785 105.292C70.6293 105.476 70.7972 106.501 71.3723 105.936C71.4371 105.872 70.8716 105.105 70.7994 104.693C70.1116 100.761 68.8498 97.7804 67.9268 94.1219C66.9414 90.216 66.4155 83.8608 64.8091 80.4421C64.5091 79.8035 63.7087 78.9262 63.0563 78.5843C62.5332 80.4873 63.9715 81.3867 64.0913 83.0277C61.4297 82.7615 62.4265 83.1043 61.6213 84.5181C61.4888 84.7509 60.3073 86.5628 59.9348 86.1051ZM149.021 104.57C149.473 100.321 148.604 96.2079 148.332 92.0882C148.082 88.3003 148.398 80.122 146.4 77.2383C144.762 74.8732 139.988 70.0434 139.318 75.5044C139.915 75.1246 143.342 75.9353 143.127 76.359C143.032 76.5471 142.605 76.7169 142.548 77.0998C141.292 85.5696 140.014 91.022 132.903 96.7068C131.71 97.6605 129.639 98.4395 128.563 99.6069C126.47 101.88 124.911 106.03 122.821 108.646C122.212 109.409 119.208 112.005 119.219 112.609C119.239 113.716 120.688 112.124 121.121 112.089C121.725 112.041 122.296 112.498 123.107 112.379C124.561 112.166 130.627 108.806 131.494 107.627C132.095 106.811 134.661 101.566 132.598 101.868C131.972 101.96 129.011 104.833 128.048 105.254C127.789 105.308 127.818 104.909 127.881 104.749C128.128 104.127 132.823 99.8904 133.596 99.4417C135.017 98.6166 136.808 98.2556 138.45 98.4168C141.591 98.7251 145.099 102.963 147.785 104.254C148.206 104.456 148.492 104.687 149.021 104.57ZM20.0678 75.1681C19.4812 74.6349 16.8389 77.982 16.5324 78.687C15.6157 80.7961 14.8509 86.8151 16.4984 88.5214C17.739 89.8063 22.5739 91.1253 24.405 91.229C26.0071 91.3197 30.0979 91.1076 31.6587 90.8722C32.4545 90.7522 33.3443 90.2381 33.9324 89.6956C32.168 89.3165 30.237 89.0848 28.5099 88.5508C28.0482 88.408 27.455 88.4306 27.3478 87.82C36.2859 87.8539 48.334 87.6509 51.608 77.7239C51.4131 77.26 50.9571 77.6849 50.6785 77.8329C42.5646 82.1433 34.2081 85.8183 24.8472 82.9313C20.9904 81.7418 18.2167 79.283 20.0678 75.1681ZM74.4889 103.204L73.4483 90.3851C72.9768 85.505 70.8237 78.0586 65.4948 76.3395C63.757 75.7789 63.2866 77.4679 63.7435 77.8992C63.8428 77.993 65.5521 77.6587 65.8246 78.4148C65.9113 78.6553 64.8095 78.7676 64.7927 79.0968C64.782 79.3054 66.7995 81.1489 67.3809 82.3505C69.9268 87.6117 70.4462 93.5697 72.3182 99.0226C72.7761 100.356 73.3303 102.458 74.4889 103.204ZM82.8186 106.263C85.3203 100.441 85.406 93.877 84.1134 87.7296C83.8913 86.6732 83.0924 85.4578 82.8396 84.1989C82.6715 83.3615 82.9867 82.3882 82.742 81.5597C82.4175 80.4608 79.6193 78.5183 78.3959 78.3249C77.4714 78.1787 73.5585 78.4706 73.4852 79.4335C73.4715 79.6126 74.7726 82.0174 74.998 82.7016C77.3075 89.7096 77.54 96.1387 77.6018 103.356C77.6198 105.451 78.9193 106.211 79.001 106.528C80.1288 110.902 81.4839 113.9 83.6712 117.915C84.3863 119.227 86.6372 122.204 86.9671 123.214C87.0237 123.387 87.0613 123.772 86.8002 123.719C81.961 120.009 79.8287 113.124 77.6084 107.651C76.9604 107.585 77.3039 108.414 77.3182 108.809C77.368 110.183 77.2836 111.489 77.3578 112.86C80.1932 121.036 84.7645 128.457 90.4383 135.001C87.7577 135.278 85.2523 131.815 83.7068 129.847C80.1835 125.361 76.5756 119.23 74.5243 113.927C74.3327 113.432 74.8534 112.934 73.8009 113.122C73.9226 117.633 74.9005 123.202 76.3991 127.481C77.1927 129.747 82.2269 138.121 82.138 139.277C82.002 141.049 80.4387 139.481 79.8868 138.745C79.1365 137.743 78.313 135.453 77.4289 134.661C76.0684 133.442 74.632 137.081 73.9423 138.052C73.4429 138.755 72.2236 139.528 71.9736 140.227C71.6387 141.165 72.7226 142.034 71.3736 142.354L72.6611 143.136C76.6784 143.194 80.725 142.741 84.7042 142.513C85.5716 142.463 87.6362 142.861 88.0046 142.71C88.9892 142.304 90.0881 139.249 91.157 138.278C94.6986 135.06 98.2644 131.89 101.691 128.494C103.392 126.807 105.631 125.809 106.229 123.057C106.777 120.537 105.895 120.489 105.441 118.666C105.018 116.966 105.441 115.353 103.857 114.397C101.154 112.767 99.3969 112.544 97.1896 109.709C96.0155 108.201 95.1258 104.678 94.0878 103.852C92.5968 102.667 90.3974 105.814 89.107 106.507C86.6939 107.803 85.1677 107.263 82.8186 106.263ZM107.426 93.6284C107.235 93.8124 107.741 96.9165 107.864 97.4698C108.547 100.526 111.129 107.34 112.904 109.938C114.838 112.767 117.074 111.166 118.853 109.178C122.376 105.241 124.793 99.6043 128.23 95.859C129.596 94.3709 131.6 93.4178 133.04 92.055C135.674 89.5625 139.921 84.3646 136.716 80.9845C135.19 83.9291 132.67 85.8007 130.305 87.9896C129.467 88.766 128.674 90.397 127.333 90.8775C126.641 91.1257 127.041 90.0483 126.35 90.2319C125.005 90.5895 122.7 92.8208 120.946 92.95L122.329 93.2911C122.29 94.0511 120.247 93.6672 121.108 94.6641L124.062 96.3632C122.592 96.7673 120.846 95.4404 119.699 95.3397C118.915 95.2709 118.268 95.7076 117.397 95.6202C115.768 95.4568 112.455 92.4512 110.879 93.4475C110.3 93.813 110.638 94.1222 110.816 94.5561C111.184 95.4548 114.593 100.588 114.009 101.15C110.264 101.287 110.925 99.1045 110.029 97.0522C109.833 96.6035 108.601 93.9766 108.495 93.8322C108.279 93.536 107.517 93.5408 107.426 93.6284ZM90.4355 85.0749C90.5468 84.894 87.6357 81.945 87.3163 82.1691C85.1671 84.5704 86.5249 86.1604 86.974 88.8409C87.5846 89.3962 89.3769 85.7829 89.749 85.3278C90.0196 84.9969 90.4164 85.1057 90.4355 85.0749ZM102.496 93.358C102.011 92.5147 96.5793 90.313 95.329 89.6602C94.1003 89.0188 92.854 87.1452 91.1301 87.9821C90.0099 88.526 89.1276 92.913 87.7551 93.8941L86.6288 103.886C87.3888 103.481 87.3098 102.338 88.0291 101.682C88.6297 101.135 91.0068 99.3784 91.7774 98.8827C97.0933 95.4631 99.2929 99.3021 103.443 102.173L103.263 103.205L101.88 102.863L101.876 104.57C101.017 105.023 98.8497 102.929 98.4117 103.207C98.5829 105.118 101.633 108.607 103.3 109.495C103.831 109.777 104.537 109.756 105.117 110.096C106.233 110.749 112.113 115.53 111.094 111.413C110.642 109.589 107.299 105.264 106.205 103.21C105.411 101.719 103.269 97.6501 102.841 96.2705C102.535 95.2853 102.715 93.74 102.496 93.358ZM67.9059 108.33C65.8698 101.555 57.329 99.0887 51.7111 95.7219L50.9249 95.8409L48.4952 98.4149C50.2414 97.8719 50.3732 98.9032 51.0091 99.197C53.7708 100.473 57.5551 101.525 60.0191 103.199C60.1604 103.295 61.6397 104.644 61.3175 104.912L47.9368 99.0987C46.4969 98.9694 44.7642 100.816 43.2964 101.157L60.278 105.77C61.4206 105.855 63.12 107.089 64.0719 107.159C64.602 107.197 64.8745 106.633 64.9611 106.637C65.1393 106.645 66.5911 108.902 67.9059 108.33ZM118.515 116.196C118.717 115.986 118.489 115.301 118.169 115.002C116.995 113.904 112.525 113.805 110.891 114.149C111.213 114.935 112.245 115.128 112.971 115.343C113.715 115.563 118.322 116.397 118.515 116.196ZM116.435 118.254L112.279 117.567C111.958 118.457 113.686 118.483 114.226 118.549C114.675 118.604 116.343 118.905 116.435 118.254ZM69.6356 128.164C69.8673 127.392 69.3117 126.522 69.3153 125.89C69.3202 125.048 70.0887 123.446 69.2965 123.039C69.0372 124.261 68.8609 125.357 68.9443 126.629C68.9697 127.017 69.0561 128.165 69.6356 128.164ZM113.622 124.103C110.217 123.796 108.12 124.628 107.426 128.164C109.382 127.776 111.376 127.567 113.315 128.167C113.358 126.799 114.278 125.423 113.622 124.103ZM205.87 139.45C205.889 134.145 199.497 132.458 195.307 130.895C188.735 128.443 181.391 126.226 174.904 130.272C174.091 130.779 173.653 131.776 172.598 131.931C172.504 132.491 173.053 132.268 173.418 132.231C179.935 131.571 186.423 131.188 191.986 135.196C194.17 136.769 198.44 143.864 198.607 146.445C198.682 147.604 198.554 148.601 198.248 149.706C198.42 149.871 202.28 147.941 202.562 147.638C204.84 145.197 203.955 140.781 204.491 137.742L205.87 139.45ZM108.834 137.032C109.541 137.447 111.479 134.535 111.078 133.647C110.84 133.121 108.01 131.828 107.27 131.568C104.715 130.671 103.662 132.391 106.179 133.668L108.834 137.032ZM160.459 152.784C160.616 150.496 161.9 149 161.481 146.477C161.38 145.873 159.868 143.555 159.422 143.04C157.192 140.467 152.835 138.482 149.879 136.724C145.991 134.411 144.866 132.592 139.52 133.324C136.266 133.77 131.735 138.702 129.957 141.331C128.761 143.101 127.711 145.454 129.636 147.117C133.696 150.623 137.375 146.123 139.805 143.181C140.85 141.915 141.801 139.054 143.676 139.124C145.414 139.189 143.9 139.921 143.846 140.046C142.615 142.885 145.456 142.608 147.287 141.845C147.678 142.256 145.956 144.573 145.559 144.995C145.117 145.463 143.866 145.934 143.81 146.131C143.532 147.108 144.493 146.838 144.713 147.619C145.501 150.407 144.005 151.918 142.778 154.15L142.265 153.47C140.489 155.419 139.378 158.207 136.195 157.916C136.016 158.078 137.333 162.14 137.611 162.507C138.031 163.062 138.888 162.915 139.176 163.742C140.188 163.844 141.604 162.072 142.45 161.519C146.33 158.985 151.286 155.624 154.231 151.94C154.599 151.48 155.376 148.74 155.615 150.562C156.145 154.605 150.139 157.817 147.801 160.292C147.483 160.629 147.164 160.783 147.292 161.332C152.806 160.557 158.062 159.688 158.709 153.246C158.773 152.613 158.28 151.815 158.535 151.414C159.619 149.717 159.805 152.465 160.459 152.784ZM194.574 149.842C194.8 149.614 195.322 149.503 195.365 149.223C195.391 149.059 195.15 146.917 195.091 146.494C194.136 139.652 188.979 134.411 181.766 134.649C173.791 134.912 166.684 139.007 158.729 139.111C159.201 140.118 160.368 140.294 161.165 140.979C161.82 141.542 163.142 143.43 163.282 143.519C163.396 143.592 164.647 143.224 164.261 142.366C164.106 142.021 163.499 141.956 163.344 141.744C163.059 141.352 163 140.87 162.702 140.479C162.648 140.408 160.726 139.462 162.378 139.434C164.876 139.393 168.739 144.909 169.106 147.163C169.229 147.919 169.197 149.08 169.099 149.851C168.969 150.866 167.491 153.4 168.662 153.759C171.82 153.689 175.203 153.95 178.33 153.827C183.294 153.63 189.421 153.091 193.855 150.662C194.238 150.452 194.319 150.099 194.574 149.842ZM102.221 139.791C102.322 139.684 101.015 137.451 100.837 137.228C100.601 136.931 99.4653 135.691 99.1048 136.034C99.4133 136.442 101.719 140.329 102.221 139.791ZM127.182 141.161C124.176 141.813 121.1 142.442 118.171 143.382C117.689 143.537 116.517 143.676 116.439 144.233C119.081 144.036 121.877 143.464 124.409 142.697C125.146 142.474 127.356 142.149 127.182 141.161ZM111.929 144.238L108.962 145.252C108.468 146.026 110.9 148.795 109.853 145.264C110.747 144.79 111.328 147.315 111.929 146.628C112.234 146.281 111.349 145.673 111.347 145.432C111.343 145.097 112.149 144.849 111.929 144.238ZM83.8519 148.685L68.2543 144.58C68.2942 146.22 70.227 146.859 71.5641 147.296C74.9924 148.417 79.1627 148.839 82.6545 150.076C83.299 150.06 83.4628 149.211 83.8519 148.685ZM86.2785 145.95L76.2257 144.924C77.2958 146.515 83.8875 147.748 85.2331 147.135C85.5674 146.983 86.1224 146.324 86.2785 145.95ZM67.5574 151.414C65.5203 151.594 64.3407 149.722 62.7132 149.188C58.0771 147.666 42.3438 145.647 37.6569 146.37C35.7559 146.663 33.5422 148.371 32.5751 148.537C31.3606 148.745 30.3161 148.203 29.6712 148.381C29.5049 148.427 27.3821 150.462 27.1602 150.72C25.4885 152.659 23.5097 157.266 24.276 159.748C24.9613 161.969 25.7684 156.224 25.9652 155.522C27.1782 155.933 26.0693 156.593 25.9595 157.406C25.8715 158.057 26.4089 158.144 26.649 157.913C27.0506 157.527 27.6891 154.496 28.6215 154.193C28.9871 154.075 31.0719 154.409 31.1633 154.498C31.3057 154.638 30.1714 157.435 31.6808 158.249L32.3769 152.788L33.5873 152.105C32.0914 154.283 33.2389 153.433 33.5106 153.567C33.5903 153.607 33.5764 154.079 33.8245 154.143C35.9491 154.683 35.188 153.179 35.7574 151.676C36.0403 150.93 36.4787 150.551 36.7907 149.938C37.1401 149.252 35.9969 148.813 38.0921 149.027L37.4016 149.535C39.7494 150.607 37.1018 152.499 37.1582 154.396C37.166 154.661 37.6823 156.139 37.7527 156.203C38.4942 156.885 38.2913 155.344 38.7833 155.523C39.6176 158.79 41.689 161.643 43.2899 164.588L42.7683 164.81C42.0944 165.722 43.2485 165.256 43.5487 165.506C43.6425 165.584 44.2163 167.057 44.6912 167.65C45.6324 168.824 46.9965 169.438 47.9751 170.564C48.2987 170.122 47.7976 168.992 47.5885 168.552C46.8275 166.953 40.2569 156.973 40.8706 156.205L47.4633 161.153C48.6667 164.348 51.1366 166.834 53.175 169.539C53.3809 168.287 54.0909 169.788 54.037 168.69C53.4323 168.008 52.4499 167.562 52.6551 166.465L55.0862 169.021C55.4057 169.177 56.5262 169.532 56.4634 168.86C55.4284 168.64 54.9163 167.259 54.2171 166.459C51.8019 163.696 48.9447 161.345 47.0397 158.152L43.297 150.734C45.4873 150.699 46.1434 152.935 47.2127 153.705C51.5376 156.82 55.3487 159.724 59.3469 163.376C59.8079 163.797 59.8702 164.846 61.2062 165.379C63.5339 166.307 60.2035 163.188 60.1244 163.026C59.7114 162.176 59.8875 160.921 59.4671 160.079C59.0981 159.34 55.1104 156.256 54.1726 155.18C53.7195 154.66 54.0282 154.229 53.9884 154.198C53.6591 153.943 51.6762 153.688 51.3264 153.421C51.2712 153.379 51.4666 152.468 50.9201 152.105L52.6533 152.45L52.3046 153.125C54.2096 152.368 53.5082 153.312 53.6973 153.463C54.4029 154.026 54.3718 152.789 54.58 152.767C54.9723 152.726 55.8559 153.347 56.4664 153.124L55.4282 151.929C55.3779 151.666 55.7467 151.723 55.9483 151.756C58.4936 152.173 64.8854 158.215 67.8082 159.581C68.8874 160.085 70.3559 159.869 71.3691 160.992L70.6826 159.282C72.5994 161.014 72.4602 159.579 72.5841 159.625C73.017 159.788 73.0748 160.919 73.8225 161.479C74.4144 161.923 75.4181 161.959 75.7783 162.17C78.1887 163.58 81.2095 164.969 83.0741 166.107C83.6651 166.468 84.256 166.861 84.8885 167.147C85.4427 166.474 83.2211 164.946 82.4673 165.092L83.5027 164.415C82.0916 163.828 79.9156 162.967 78.6832 162.159C77.6299 161.469 75.6799 159.814 74.65 158.943C74.2081 158.569 74.1516 157.43 73.4679 157.942C73.3189 158.053 73.7877 158.895 72.7617 158.257L73.1055 159.279C70.6592 159.629 70.3279 157.752 68.7715 156.548C68.0576 155.995 66.0178 155.21 65.4774 154.655C65.1362 154.305 65.2812 153.716 64.8835 153.459C63.8756 152.808 62.187 154.092 61.3213 152.954C62.5549 151.986 64.6587 153.026 65.6031 152.798C66.3709 152.613 64.9031 152.059 66.865 152.615C71.671 153.978 72.2249 154.356 76.319 156.641C76.9127 156.973 78.9574 157.921 79.5151 157.918C79.5065 157.168 79.8467 154.958 80.2018 154.486C80.7994 153.691 82.3671 154.803 82.1155 153.469C81.5977 153.688 81.3219 153.803 80.7333 153.682C76.0724 152.728 70.5604 150.348 65.9963 149.707C65.7887 149.678 65.4296 149.61 65.4811 149.877L67.5574 151.414ZM162.543 154.493C162.995 154.887 165.504 153.314 165.82 152.77C166.237 152.055 167.534 146.821 166.52 146.63C166.369 146.601 163.724 147.588 163.638 147.714C163.087 148.525 163.09 153.246 162.543 154.493ZM134.81 149.369C129.44 150.842 124.109 152.612 118.97 154.771C116.54 155.792 114.964 157.327 112.053 157.872C108.32 158.571 102.826 156.662 98.9298 156.617C98.4302 156.612 97.5061 156.846 97.0271 157.057C97.5889 158.643 99.0096 158.034 100.232 158.342C103.695 159.214 107.393 160.318 110.889 160.652C111.251 161.599 110.023 162.061 109.916 162.576C109.842 162.928 111.762 169.198 112.019 169.452C112.171 169.603 113.603 169.942 113.662 169.881C113.747 168.609 112.686 167.725 112.406 166.581C112.056 165.151 112.701 162.735 111.901 161.145C112.4 160.767 112.965 159.431 113.047 159.359C113.242 159.186 114.114 159.237 114.603 159.018C121.852 155.768 129.602 153.623 136.431 150.453C136.826 150.269 137.836 149.811 137.928 149.369L133.946 150.737L134.81 149.369ZM113.028 154.093C114.001 154.68 118.582 153.671 118.132 151.999C118.043 151.668 116.881 150.535 116.533 150.442C115.92 150.279 112.484 151.537 112.301 151.786C112.097 152.062 112.871 153.998 113.028 154.093ZM104.996 155.175C105.137 155.371 109.452 155.873 109.835 155.705C111.965 154.772 110.8 151.164 109.407 151.151C107.277 151.132 105.06 153.009 104.996 155.175ZM201.715 162.016C202.58 157.484 202.574 156.223 197.722 155.868C196.31 155.765 188.462 156.602 188.179 157.797C188.112 158.083 188.149 159.855 188.222 159.939C191.185 160.304 194.299 159.488 197.206 160.312L196.514 161.33C197.913 161.916 197.468 160.191 197.725 160.31C198.155 160.508 197.839 161.67 198.94 161.848C198.972 162.209 198.121 161.838 198.248 162.187C198.697 163.411 202.379 162.132 203.446 162.358C203.675 161.723 203.004 161.454 202.574 161.329C202.424 161.285 202.511 162.468 201.715 162.016ZM179.298 162.585C174.798 158.201 170.106 156.668 163.644 158.492C160.132 159.483 154.15 165.753 151.806 168.695C150.794 169.966 150.102 171.184 149.369 172.614C149.961 172.64 150.53 172.687 151.096 172.44C151.59 172.224 154.859 168.918 155.792 168.182C157.128 167.127 159.745 164.928 160.922 164.181C162.242 163.344 164.192 162.988 165.429 162.296C166.027 161.962 165.805 161.322 166.348 161.339C167.999 163.311 166.082 162.403 165.491 163.736C165.244 164.293 165.444 164.985 165.234 165.359C165.032 165.719 162.534 166.857 162.197 167.661C163.493 168.057 164.103 166.564 163.753 168.512C165.483 167.948 165.491 165.498 167.395 166.467L163.402 171.946C163.887 172.953 161.387 177.517 163.722 174.978C166.326 172.147 167.419 169.081 168.467 165.461C169.446 165.87 170.055 165.053 170.688 164.418C171.614 164.412 170.677 167.609 170.615 168.101C170.554 168.585 170.791 169.066 170.703 169.554C170.462 170.9 169.855 172.318 169.475 173.64C171.045 174.13 171.565 172.345 172.423 171.935C172.585 171.858 173.71 174.39 174.842 171.232C175.689 168.872 173.148 169.399 172.939 169.197C172.67 168.935 173.247 167.903 173.256 167.634C173.26 167.52 171.671 166.966 173.278 165.938C174.032 165.455 174.279 166.561 174.922 166.749C176.306 167.153 177.652 165.686 178.827 165.099C180.335 166.764 178.038 166.855 178.5 168.613C178.566 168.863 179.04 168.876 179.148 169.128C179.412 169.742 180.541 172.42 180.542 172.789C180.544 173.52 179.621 174.582 179.341 175.341C179.222 175.663 178.883 176.454 179.524 176.377C180.283 174.263 181.508 173.347 180.57 170.91C181.777 170.657 181.224 172.149 181.951 172.274C181.996 170.01 183.358 167.996 182.278 165.702C182.22 165.579 180.902 163.587 180.811 163.487C180.482 163.123 179.715 162.991 179.298 162.585ZM132.728 160.648C132.373 160.602 130.967 160.882 130.989 161.17C131.025 161.622 132.528 164.604 133.072 165.094C133.905 163.454 132.678 162.303 132.728 160.648ZM100.713 161.476C100.56 161.351 99.8573 160.925 99.8014 160.992C100.104 161.732 100.395 163.994 101.18 163.22L101.354 162.357L102.223 163.384L102.057 161.328C101.347 160.468 101.543 161.748 101.01 162.017C100.751 162.147 100.923 161.647 100.713 161.476ZM129.876 161.757C129.327 161.192 126.901 161.625 126.245 161.942C124.006 163.024 124.879 165.29 125.288 167.149C125.364 167.494 125.124 168.033 125.179 168.116C125.863 169.156 127.966 169.429 129.176 168.939C129.617 168.76 131.18 167.311 131.295 166.899C131.392 166.549 130.071 161.959 129.876 161.757ZM144.516 164.069H149.543C149.635 164.069 150.671 163.013 150.756 162.705C148.925 162.627 147.026 162.73 145.272 163.293C144.688 163.48 144.361 163.139 144.516 164.069ZM34.9739 180.479C32.8667 175.275 31.242 169.301 27.765 164.854L26.6545 164.073C27.6832 168.986 29.1684 173.637 31.851 177.923C32.6611 178.465 31.348 176.489 32.3701 177.065C32.9343 177.383 34.2281 181.221 34.9739 180.479ZM119.197 168.161C119.256 168.082 119.331 167.452 119.04 167.491C116.962 168.274 116.997 169.703 115.744 171.247C117.497 171.066 117.902 169.456 118.654 168.292C118.761 168.128 119.174 168.193 119.197 168.161ZM46.346 173.343C46.1531 173.223 45.6415 173.627 45.3631 173.474C44.7977 173.163 43.6934 170.67 42.772 170.226C42.3854 170.763 43.2032 171.787 43.4963 172.247C44.5719 173.935 46.0449 174.923 47.001 176.139C47.8085 177.166 51.6902 183.266 52.4818 183.209C53.7562 182.079 51.6158 179.161 50.8535 177.983C48.9917 175.108 48.9269 175.972 46.9086 174.343C46.5721 174.071 46.4911 173.433 46.346 173.343ZM178.423 176.324C178.447 176.255 178.234 174.881 177.799 175.014C177.547 176.089 176.921 177.008 176.494 178.021C176.199 178.72 175.997 179.391 175.729 180.045C174.657 182.659 174.488 184.383 172.703 186.896C171.389 188.747 169.543 189.479 169.825 192.108C171.453 190.75 172.917 188.29 173.917 186.403C174.516 185.271 177.105 179.991 177.294 179.123C177.417 178.556 177.067 178.13 177.277 177.427C177.52 176.611 178.397 176.398 178.423 176.324ZM153.182 177.75C152.582 177.301 150.413 179.599 149.915 180.157C147.898 182.422 147.593 184.019 146.408 186.272C146.027 186.998 144.794 187.348 144.866 188.347C145.47 187.423 146.533 188.084 146.594 188.009C146.703 187.877 146.486 187.106 146.597 186.975C146.683 186.873 147.277 187.34 147.819 187.014C148.832 186.404 151.11 182.594 152.152 181.346C152.696 180.695 154.178 179.816 153.704 179.116L152.492 180.14L153.182 177.75ZM31.5047 193.817C31.0278 192.561 32.1185 191.506 32.1327 190.231C32.1425 189.357 31.3087 185.091 30.9558 184.275L29.084 181.167L30.4831 191.272L29.7777 194.158C30.7878 193.476 30.1386 192.678 31.5047 193.817ZM43.9899 191.764C44.0386 189.148 43.4017 187.233 42.0384 184.969C41.2064 183.588 40.7124 182.266 38.7888 182.536C38.516 182.781 41.4728 188.167 41.7861 188.977C42.1642 189.954 42.733 193.394 43.0282 193.737C43.5538 194.348 45.1245 193.686 45.0235 194.668C43.933 195.576 42.306 195.08 40.8497 195.34C37.5642 195.926 34.4742 197.704 31.1615 197.582C31.3009 199.538 31.8603 201.373 34.283 200.997C34.3425 200.953 33.8358 200.299 34.0687 199.964C34.3442 199.567 42.4531 197.739 43.5045 197.616C47.2153 197.185 53.5158 197.453 57.2434 198.01C58.643 198.219 62.6789 200.159 62.9001 197.411C62.9964 196.216 61.8773 196.007 61.4021 195.277C60.5322 193.94 60.8463 192.655 59.0647 191.768C59.2638 192.495 56.3277 194.778 56.8148 195.184L59.5855 195.532C58.5144 197.211 55.6234 195.806 54.29 195.941C53.4945 196.022 52.7984 196.789 52.4125 196.834C52.2993 196.847 50.3534 196.42 50.2478 196.377C50.1299 196.33 48.1834 195.128 48.0991 195.034C47.6339 194.516 48.2005 193.856 48.1513 193.82C48.0628 193.754 47.4822 193.937 47.2019 193.748C46.3115 193.148 46.7006 189.911 43.9899 191.764ZM57.5029 189.373C57.5576 188.5 57.0825 187.7 56.6174 187.001C56.1991 186.373 54.8462 184.79 54.0416 184.587C53.9755 185.374 57.0763 189.898 57.5029 189.373ZM51.2634 188.691L49.5282 187.839C49.4495 189.484 50.6492 189.224 51.0764 189.718C51.3252 190.006 51.2658 190.638 51.6127 190.933C51.8155 191.105 53.5858 190.921 54.0382 191.081C53.8447 189.658 52.8061 188.571 51.7819 187.666L51.2634 188.691ZM151.708 196.475L155.259 189.373C153.64 190.05 153.304 192.06 152.144 192.997C151.493 193.524 150.607 193.196 150.064 193.991L151.447 193.987C150.592 194.885 149.359 195.005 149.723 196.543C150.329 196.572 151.228 196.962 151.708 196.475ZM163.116 193.702C163.586 193.167 164.221 192.158 164.272 191.425C163.93 191.045 161.349 194.225 161.159 194.679C161.094 194.834 161.069 195.238 161.327 195.184C161.698 194.521 162.729 194.144 163.116 193.702ZM167.74 194.161C165.058 193.869 164.342 195.952 162.897 197.753C165.536 200.074 167.093 196.267 167.74 194.161ZM167.299 198.865C167.435 198.557 167.709 196.634 167.052 196.556C167.021 197.651 166.168 199.541 165.013 199.797C163.95 200.032 162.944 198.946 162.018 198.909C161.26 198.879 161.577 199.82 160.64 199.988C159.341 200.222 157.705 199.321 156.302 199.634C156.606 200.488 157.643 200.227 158.369 200.508C158.896 200.712 158.985 201.424 160.114 201.168C158.654 202.986 158.27 201.798 156.466 201.996C155.708 202.079 155.268 202.639 154.762 202.671C154.254 202.704 145.728 200.787 144.864 200.485C143.147 199.883 142.37 198.448 140.358 199.286L141.048 198.778C139.294 197.03 138.363 198.353 137.672 200.15C137.724 200.772 139.409 201.361 139.995 201.526C147.06 203.513 154.045 203.734 160.9 205.183C162.041 205.424 162.892 206.454 163.405 206.477C163.497 206.481 163.766 205.702 164.411 205.421C164.991 205.168 165.948 205.149 166.013 205.1C166.11 205.028 165.707 203.175 166.005 202.709C165.927 202.596 163.861 204.317 164.016 202.529C164.093 201.649 165.632 201.826 165.937 201.617C166.228 201.418 166.382 199.891 166.599 199.367C166.765 198.967 167.259 198.959 167.299 198.865ZM76.8599 198.664C76.8274 198.616 76.1048 198.401 75.8825 198.263L76.5766 201.68C77.1777 201.762 76.9049 200.896 76.9168 200.486C76.9303 200.023 77.0494 198.94 76.8599 198.664ZM62.295 201.742C61.9797 201.542 60.4926 201.622 59.9354 201.342C59.6715 203.456 60.7387 204.223 62.6948 203.374C62.8331 203.177 62.4941 201.869 62.295 201.742ZM58.8895 210.573C59.8893 209.303 54.3929 205.475 53.3126 204.965C50.8118 203.783 47.7388 203.669 45.025 203.736C45.0681 204.012 44.9586 204.691 45.0249 204.758C45.1494 204.884 47.8033 205.374 48.485 205.623C50.3341 206.299 53.3813 207.232 54.9764 208.111C56.2545 208.814 57.2247 210.282 58.8895 210.573ZM49.8779 210.921C47.9272 210.405 42.0897 206.468 40.4176 206.865C40.1613 206.926 39.5721 207.453 39.4838 207.672C39.2342 208.289 39.8807 208.21 40.1725 208.336C42.9566 209.534 45.7763 210.669 48.3986 212.24C49.0244 212.518 50.2064 211.39 49.8779 210.921ZM146.942 208.525C145.571 208.198 144.159 208.436 142.784 208.691C144.368 209.952 145.433 210.355 146.942 208.525ZM63.7705 211.232C64.0518 211.42 65.3361 211.316 65.6624 210.923C66.2205 210.169 64.6205 208.709 63.8358 208.573C61.5513 208.177 60.9919 210.701 63.7447 209.549C63.6447 209.908 63.4844 211.04 63.7705 211.232ZM141.322 208.618C139.787 207.672 140.6 210.147 140.299 211.03C139.926 212.121 136.382 212.717 135.361 212.624C134.151 212.512 133.455 211.186 132.55 210.92C131.42 210.588 133.095 213.721 133.572 214.017C134.945 214.868 138.551 214.398 140.121 215.678C140.677 216.131 140.297 217.304 141.046 217.41L141.22 216.122L141.747 216.212C141.989 214.185 140.592 212.366 141.054 210.576L141.397 211.602L142.093 210.915L143.134 211.424C143.008 209.546 142.597 209.967 141.779 209.337C141.49 209.115 141.401 208.666 141.322 208.618ZM154.221 209.543C153.729 208.313 151.396 209.069 150.509 209.475C149.83 209.785 145.527 212.53 146.251 213.307C146.766 213.86 152.9 209.407 154.221 209.543ZM45.9373 213.439C43.2273 211.519 38.9619 210.537 35.6691 210.919L41.1072 212.901C41.9248 213.047 46.7425 216.694 47.1051 214.842C47.1557 214.583 46.1545 213.593 45.9373 213.439ZM157.687 211.259C155.781 211.12 153.234 211.984 151.551 212.897C150.31 213.569 147.024 217.029 146.706 217.08C144.769 217.386 144.361 215.211 143.679 215.376C141.51 215.903 141.594 219.732 141.398 221.514C142.48 221.685 141.94 221.217 142.074 220.654C142.364 219.429 142.649 218.565 143.134 217.414C144.047 217.415 143.312 220.196 144.337 219.802C145.109 219.506 144.406 218.544 144.518 218.44C144.602 218.36 145.29 218.724 145.805 218.532C146.437 218.297 147.702 216.893 148.515 216.398C151.141 214.798 153.816 213.916 156.412 212.554C156.93 212.282 157.899 212.005 157.687 211.259ZM37.9691 216.172C31.1514 211.039 21.2952 209.589 15.2133 216.555C14.8771 216.94 14.3805 217.117 14.5233 217.752C16.0773 217.878 17.1749 215.41 18.2346 215.091C21.4351 214.127 28.3596 213.771 31.5205 214.835C33.8276 215.611 36.3977 218.089 38.4702 218.921C39.1328 219.187 39.8759 219.117 40.517 219.463C40.2795 217.942 39.1235 217.041 37.9691 216.172ZM158.034 215.364C156.877 215.405 155.728 215.182 154.588 215.55C153.829 215.795 148.94 218.981 148.307 219.613C147.737 220.183 147.743 220.918 147.545 221.105C147.239 221.395 146.326 220.765 146.599 221.851L148.674 222.543C148.415 221.395 149.502 220.544 150.337 219.809C152.21 218.16 154.193 217.649 156.307 216.562C156.803 216.307 157.845 215.874 158.034 215.364ZM32.1982 216.732C30.7548 216.513 29.571 215.451 28.041 215.706C28.5702 216.838 29.8969 217.008 30.9778 217.083C31.3474 217.108 32.2936 217.3 32.1982 216.732ZM51.6134 220.486C52.9551 220.141 54.1492 219.459 55.6035 219.436C59.818 219.368 64.115 220.78 68.4969 218.508C69.7258 217.871 70.855 216.327 68.8201 216.401C67.1879 216.46 65.0147 217.844 62.8346 218.052C59.4601 218.372 53.4204 217.227 51.6134 220.486ZM174.675 220.486C175.608 219.389 171.797 217.988 171.049 217.74C167.98 216.723 165.36 216.87 162.195 217.415C163.563 219.007 162.584 218.523 161.504 219.636C162.9 219.452 164.399 220.47 165.492 220.515C166.289 220.547 167.081 220.136 167.915 220.119C170.135 220.075 172.253 221.52 174.675 220.486ZM160.806 218.089C161.625 217.058 159.2 217.832 158.649 218.102C158.31 218.269 158.268 218.767 158.016 218.917C157.434 219.263 156.518 219.017 156.302 219.802C157.12 219.97 160.469 218.515 160.806 218.089ZM138.275 221.511C139.363 220.081 135.58 220.809 135.368 220.797C133.478 220.691 128.543 218.841 127.539 219.296C124.577 220.64 129.447 222.715 130.807 222.897C131.86 223.038 137.851 222.069 138.275 221.511ZM41.9053 223.57L23.7127 222.194C22.0877 221.968 13.898 220.19 13.1365 221.177C12.3128 222.245 17.6585 222.809 18.1655 222.879C25.216 223.846 32.4764 224.754 39.6672 224.264C40.1963 224.228 41.7267 224.189 41.9053 223.57ZM178.488 223.57C175.803 223.253 173.247 224.198 170.648 224.553C166.32 225.144 161.09 226.05 156.837 226.316C154.344 226.472 148.558 225.122 145.833 224.491C144.622 224.21 140.286 221.864 142.073 224.78C143.142 226.524 148.191 227.491 150.241 227.665C155.919 228.145 171.857 226.728 177.108 224.77C177.659 224.564 178.28 224.139 178.488 223.57Z" fill="black"/>
<path d="M106.313 220.249C108.988 219.971 114.523 220.693 116.445 222.705C119.168 225.553 114.353 229.124 111.673 229.656C110.838 229.822 106.759 230.1 105.873 230.062C102.818 229.934 95.9401 227.928 98.1115 223.782C99.1226 221.851 104.199 220.468 106.313 220.249ZM114.685 222.9C114.522 222.726 110.565 221.989 109.974 221.907C107.01 221.494 102.779 221.707 101.533 224.933L113.794 224.816C114.835 225.079 114.986 223.222 114.685 222.9ZM113.316 226.306L101.188 225.62C100.998 226.394 101.303 226.177 101.618 226.405C103.954 228.099 107.257 227.654 109.994 227.641L113.316 226.306Z" fill="black"/>
<path d="M112.41 184.37C113.292 183.159 115.078 181.744 116.641 181.538C119.631 181.145 125.439 183.314 126.092 186.548C126.155 186.86 125.098 190.678 124.913 191.065C124.308 192.336 120.339 194.198 118.956 194.421C112.927 195.389 108.519 189.712 112.41 184.37ZM118.077 182.951C115.423 183.176 112.624 186.43 113.472 189.049C114.932 193.556 123.711 187.476 122.013 184.748C121.363 183.703 119.301 182.848 118.077 182.951ZM116.091 191.77C116.66 193.487 121.519 190.299 120.94 189.715C119.441 190.659 117.858 191.426 116.091 191.77Z" fill="black"/>
<path d="M132.177 229.243C132.396 229.49 132.797 229.502 132.997 229.959C135.028 234.613 125.537 235.853 122.564 235.746C120.125 235.658 112.939 233.713 115.564 230.4C118.591 226.58 128.882 225.513 132.177 229.243ZM129.69 231.873C129.915 231.647 130.934 231.682 130.987 231.266C131.015 231.044 130.159 229.573 129.81 229.355C128.744 228.69 123.565 228.548 122.186 228.726C117.766 229.295 116.962 232.638 122.161 233.138C123.021 233.221 129.004 233.126 129.404 232.828C129.707 232.602 129.511 232.053 129.69 231.873Z" fill="black"/>
<path d="M106.645 196.302C109.034 195.997 114.124 197.63 114.032 200.47C113.848 206.144 102.409 209.797 98.9573 205.079C96.0276 201.075 102.92 196.777 106.645 196.302ZM101.961 204.686C102.163 204.779 105.81 204.368 106.403 204.266C112.032 203.295 113.512 197.468 107.259 197.912C104.802 198.086 100.568 200.224 100.505 202.928C100.474 204.226 101.057 203.724 101.59 204.116C101.86 204.314 101.93 204.671 101.961 204.686Z" fill="black"/>
<path d="M85.8701 224.671C87.5285 224.606 95.6251 225.57 94.778 227.991C93.538 231.535 86.2362 232.452 83.0228 232.078C81.0069 231.843 75.3291 230.023 77.6105 227.494C78.8737 226.094 83.9541 224.746 85.8701 224.671ZM92.1698 227.671C88.5424 227.45 86.4845 225.832 82.8452 227.532C79.4727 229.108 83.4394 230.383 85.3746 230.366C86.8382 230.354 90.4592 229.219 91.7287 228.44C92.0897 228.219 92.3354 228.456 92.1698 227.671Z" fill="black"/>
<path d="M110.654 208.629C111.838 207.218 114.698 205.673 116.599 205.772C122.576 206.084 121.154 213.008 116.096 214.164C114.429 214.545 110.788 214.402 109.914 212.709C109.392 211.697 109.962 209.455 110.654 208.629ZM116.786 210.578C119.1 210.312 119.269 208.925 117.261 207.884C115.234 206.834 114.241 208.239 112.828 209.424C112.551 209.656 111.448 209.593 111.559 210.712C111.571 210.826 113.208 211.903 113.508 211.952C114.682 212.142 115.309 211.106 115.564 212.286L117.476 211.085L116.786 210.578Z" fill="black"/>
<path d="M126.223 174.407C127.398 173.229 130.418 174.239 131.482 175.388C135.024 179.21 130.804 187.889 126.322 183.897C124.707 182.459 124.548 180.4 124.848 178.348C124.936 177.747 125.93 174.702 126.223 174.407ZM129.519 176.134C127.993 174.341 126.888 178.746 126.824 179.959C126.702 182.306 127.003 182.544 129.092 183.552C130.376 181.883 130.865 177.714 129.519 176.134Z" fill="black"/>
<path d="M102.476 179.534C104.109 179.206 108.55 179.53 109.097 181.415C110.179 185.149 99.3899 190.129 97.2803 185.172C96.4576 183.239 100.665 179.899 102.476 179.534ZM99.5569 182.634C98.779 183.595 98.8227 185.03 100.128 185.46C102.703 186.307 105.482 183.766 107.071 182.022C105.207 180.116 101.103 180.722 99.5569 182.634Z" fill="black"/>
<path d="M59.8844 26.6527C59.992 26.7795 59.9806 27.927 59.9346 27.9752C59.3359 28.6025 52.1219 27.4677 50.7412 27.2981C49.0844 27.0945 47.7797 27.6822 46.1631 26.6933C45.9104 26.5387 45.5615 26.767 45.7176 26.0993C45.7398 26.0043 47.0829 24.9273 47.2694 24.8924C48.3281 24.694 51.6235 24.7932 52.8402 24.8857C53.7951 24.9584 59.5304 26.2352 59.8844 26.6527Z" fill="black"/>
<path d="M47.6267 33.4494C47.4532 33.4506 47.0945 33.8164 46.3397 33.7397C45.6192 33.6665 44.7987 33.159 44.3401 32.5942C44.3744 31.8748 48.556 30.6506 49.357 30.6884C49.8833 30.7132 54.8983 32.1471 55.2107 32.3988C55.609 32.7198 55.3932 33.0435 55.4263 33.4494C52.8308 33.4624 50.2259 33.4316 47.6267 33.4494Z" fill="black"/>
<path d="M64.7842 22.8438C63.6808 24.335 57.8607 21.6132 56.4587 21.0403C55.959 20.8361 55.0145 21.2193 54.733 20.1152C57.0449 20.2469 59.4437 20.3474 61.6733 20.9594C62.1743 21.0969 65.2895 22.161 64.7842 22.8438Z" fill="black"/>
<path d="M93.2096 185.957C93.2405 186.459 91.9645 186.56 91.6097 186.596C90.3519 186.723 89.0864 186.531 87.8418 186.641C83.3851 187.035 79.0163 187.664 74.4939 187.318L78.8309 186.301L93.2096 185.957Z" fill="black"/>
<path d="M140.009 124.4C135.762 123.321 129.878 123.418 125.945 121.693C125.424 121.465 124.969 121.354 125.107 120.643C128.784 121.405 132.563 121.905 136.199 122.863C137.38 123.174 139.281 123.469 140.009 124.4Z" fill="black"/>
<path d="M131.95 188.75C132.893 188.566 134.117 188.85 134.803 189.544C133.853 191.163 131.011 191.821 130.68 189.58C130.762 189.208 131.569 188.824 131.95 188.75Z" fill="black"/>
<path d="M138.621 182.531C137.718 183.448 136.539 180.584 136.892 179.799C138.079 179.578 139.142 182.003 138.621 182.531Z" fill="black"/>
<path d="M180.219 104.573C180.425 106.033 179.796 107.287 178.491 107.991C178.538 107.117 178.983 106.033 179.374 105.258C179.618 104.774 179.292 104.398 180.219 104.573Z" fill="black"/>
<path d="M101.408 66.1525C99.995 67.6458 97.4454 68.8937 99.9061 71.6401C102.979 75.0705 109.552 70.2921 112.968 69.6952C112.771 74.2658 104.362 76.2519 100.84 74.9916C100.574 74.8963 98.2718 73.8001 98.156 73.7074C97.5853 73.2511 96.8841 70.5295 97.0231 69.6926C92.994 71.2893 85.819 66.5903 90.6122 62.8556C92.1373 61.6673 94.3055 60.5486 96.2468 60.7094L98.9248 57.7285C100.741 59.3684 103.371 64.0784 101.408 66.1525ZM100.489 64.9086C100.172 64.6577 98.6028 65.2308 97.97 65.1763C95.5564 64.9687 93.0843 62.4748 91.1376 65.0807C89.1614 67.7261 93.5746 68.6484 95.79 68.303C97.1596 68.0895 98.7821 66.5128 100.039 65.6699C100.26 65.5213 101.104 65.3944 100.489 64.9086Z" fill="black"/>
<path d="M119.496 51.2861L121.288 53.2789C117.77 52.4158 119.558 53.7037 119.135 55.7671C118.427 59.2202 115.318 59.437 114.305 56.0815C112.082 55.5504 110.418 55.3748 108.131 56.0309C108.13 58.8556 109.175 60.1136 111.628 61.2717C114.637 62.6919 114.081 61.6258 116.656 60.8397C117.202 60.6731 117 61.8892 118.517 61.1485L113.822 63.5459C113.092 63.7863 109.953 62.4511 109.596 62.0823C109.356 61.834 109.417 61.0835 109.117 60.6788C107.395 58.3599 107.224 57.5825 106.066 55.4082C105.693 54.7087 105.905 53.6837 104.654 53.6182C105.05 52.813 106.667 53.6255 107.542 53.5975C108.806 53.5569 109.911 52.7227 110.748 52.6012C111.586 52.4795 113.12 52.9814 114.098 52.8487C115.084 52.7149 119.095 51.0528 119.496 51.2861Z" fill="black"/>
<path d="M120.163 47.7302C119.614 48.1657 118.472 47.9861 117.825 47.8105L118.17 48.8314C117.193 48.7797 116.187 48.9148 115.21 48.8477C112.716 48.6762 105.678 47.5538 103.438 46.7774C103.33 46.7398 101.603 45.5998 101.522 45.5196C99.865 43.8884 100.508 42.8992 102.466 42.0428C104.421 41.1879 108.272 44.0494 110.392 44.7098C111.788 45.1446 120.522 46.0527 120.589 46.9526C120.593 46.9967 120.198 47.7025 120.163 47.7302Z" fill="black"/>
<path d="M125.447 81.3203C122.724 78.5982 118.587 78.5908 114.92 78.9688C110.403 79.4344 108.816 81.6287 105.171 83.3943C104.74 83.6031 104.35 83.3567 104.33 83.393C104.149 83.7165 104.62 84.4956 103.961 84.3961C103.866 83.48 104.091 82.3199 104.643 81.5755C105.872 79.9169 113.416 77.144 115.613 76.9171C119.095 76.5574 126.025 76.2917 125.447 81.3203Z" fill="black"/>
<path d="M93.6571 55.0831C92.8665 55.7152 91.6434 59.3254 90.0623 59.9463L85.587 61.4849C84.9165 59.0554 87.2576 58.6148 88.5826 57.2627C89.3697 56.4595 91.829 53.8214 92.0169 52.9468C92.1421 52.3643 91.7616 51.9161 91.9909 51.2524C92.0995 50.938 94.2257 47.8569 94.4339 47.8133C95.2507 47.6423 96.0563 50.0728 95.9904 50.7075C95.9021 51.5565 94.5489 52.0417 94.4063 53.2446C94.3275 53.9089 94.9453 54.3705 94.9372 54.4789C94.9077 54.8704 93.8922 54.8952 93.6571 55.0831Z" fill="black"/>
<path d="M138.967 51.9124C138.82 52.0823 136.859 50.6979 136.857 52.7757C136.856 53.257 138.473 54.1718 138.967 54.8231C140.247 56.5128 140.592 58.3022 138.796 59.7715C137.764 59.3507 137.796 57.2038 137.248 56.8386C136.925 56.6228 136.245 57.0064 135.745 56.9648C133.748 56.7986 133.827 52.0549 134.665 50.5737C134.931 50.1033 136.595 48.5381 137.068 48.5769C137.709 48.6294 139.567 50.9822 138.967 51.9124Z" fill="black"/>
<path d="M131.245 70.2806C126.467 73.2813 127.282 61.7102 127.88 59.7793C129.125 60.4896 128.413 62.4723 128.574 63.7077C129.02 67.1476 130.271 68.8419 132.214 64.9091C133.785 64.5496 132.079 67.3034 131.848 68.0011C131.647 68.6054 132.056 69.7711 131.245 70.2806Z" fill="black"/>
<path d="M124.041 53.6418C124.551 54.151 123.594 57.9467 123.273 58.8266C122.752 60.2568 121.924 60.9714 121.37 62.0782C120.466 63.8835 121.264 65.3792 118.172 65.5881C118.636 64.1848 120.03 63.4764 120.592 61.9927C120.955 61.0337 119.496 62.2741 119.908 61.3221C121.095 58.5831 123.304 56.8961 121.986 53.2812C122.373 53.4605 123.968 53.5685 124.041 53.6418Z" fill="black"/>
<path d="M127.326 72.6428C127.39 72.7513 127.829 72.7293 127.884 73.0112C127.97 73.4546 127.69 74.5804 127.705 75.163C126.429 73.7845 124.902 72.6378 123.341 71.6034C122.857 71.2826 118.547 69.432 119.214 68.668C120.539 69.3295 121.289 68.5336 122.749 69.0965C124.751 69.8683 126.264 70.8459 127.326 72.6428Z" fill="black"/>
<path d="M118.864 82.6875C118.069 85.5831 113.501 83.1083 111.239 83.7098C111.25 83.3348 113.036 82.6875 113.144 82.6875H118.864Z" fill="black"/>
<path d="M93.5582 74.8267C93.0422 75.5623 92.7053 76.382 92.2813 77.1663C92.0348 77.6222 92.4585 78.0921 91.48 77.8988C91.8078 76.402 91.3989 74.4053 93.5582 74.8267Z" fill="black"/>
<path d="M30.1208 79.6116H29.4275V72.6019C29.4275 72.4392 29.8539 71.5503 30.1208 71.747V79.6116Z" fill="black"/>
<path d="M90.9278 112.296C93.8156 116.295 97.3571 119.906 101.184 123.033C100.603 123.128 100.166 122.9 99.6761 122.644C95.9269 120.684 89.5122 113.88 88.865 109.711C88.8093 109.352 88.3957 108.599 89.0473 108.678C89.3866 110.016 90.129 111.19 90.9278 112.296Z" fill="black"/>
<path d="M79.823 82.5649C79.9484 82.746 80.2948 82.7646 80.5856 83.3339C81.7965 85.704 82.4822 89.7016 81.7678 92.2617C81.0995 92.1237 81.1561 91.5779 81.0756 91.0688C80.559 87.8017 80.1308 84.4982 78.6586 81.4833C78.7041 80.1269 79.7152 82.4093 79.823 82.5649Z" fill="black"/>
<path d="M132.383 145.6C132.654 143.973 135.965 144.052 135.831 142.345C135.731 141.085 133.002 140.132 133.078 139.963C134.931 138.471 136.666 140.344 137.079 142.189C137.681 144.874 134.595 145.889 132.383 145.6Z" fill="black"/>
<path d="M172.597 151.415C172.198 150.985 175.872 144.29 177.098 143.895C176.415 145.382 175.459 146.744 174.718 148.212C174.609 148.428 173.507 152.398 172.597 151.415Z" fill="black"/>
<path d="M54.0398 150.387C51.9293 150.517 50.1906 149.002 48.0627 148.935L46.0686 147.659C48.2495 147.445 51.0083 148.595 52.9994 149.536C53.4041 149.728 53.952 149.878 54.0398 150.387Z" fill="black"/>
<path d="M105.346 201.338C105.24 200.666 106.169 201.151 106.391 200.998C106.509 200.917 105.299 198.569 107.77 200.49L105.346 201.338Z" fill="black"/>
</svg>
