<svg width="1280" height="720" viewBox="0 0 1280 720" fill="none" xmlns="http://www.w3.org/2000/svg">
<path d="M513.77 189.31C589.902 271.879 609.337 386.994 554.323 486.329C478.795 622.706 287.713 657.215 153.538 584.134C-14.1227 492.814 -38.6023 270.184 117.187 154.476C234.316 67.4804 415.239 82.4494 513.77 189.31ZM260.673 111.685C255.597 111.723 248.97 114.591 244.511 117.014C242.483 118.116 236.929 120.897 237.162 123.693C244.274 120.871 251.118 117.6 258.179 114.603C260.063 113.804 261.265 114.852 260.673 111.685ZM302.768 111.685C301.671 110.789 288.409 114.574 286.134 115.356C275.045 119.168 262.705 127.189 252.048 132.804C250.429 133.657 248.859 132.411 249.544 135.715C254.925 134.426 259.411 133.779 264.656 131.756C273.281 128.431 292.137 119.94 299.732 115.336C301.359 114.35 303.342 114.361 302.768 111.685ZM313.917 115.296L307.693 115.854L276.78 130.304C278.178 132.18 280.21 132.227 282.342 132.231C290.338 132.244 307.55 120.472 313.917 115.296ZM336.197 115.291L325.389 116.205L300.304 130.899C307.646 131.38 317.539 127.933 323.956 124.396C326.372 123.064 328.221 119.789 329.178 119.33C331.803 118.069 337.095 119.215 336.197 115.291ZM354.769 117.696C352.969 117.834 351.083 116.739 349.374 116.878C347.341 117.044 327.179 125.921 324.62 127.478C322.9 128.525 320.951 129.824 321.352 132.107C331.662 133.72 343.657 127.308 351.896 121.505C353.428 120.425 355.34 120.254 354.769 117.696ZM233.44 118.903C229.07 118.636 222.393 119.711 218.667 121.977C215.992 123.602 215.45 126.427 213.5 127.779C206.08 132.923 196.476 136.177 191.345 144.122L233.44 118.903ZM370.863 122.507C368.811 120.02 354.951 125.117 352.002 126.416C348.281 128.055 344.81 130.892 341.161 132.708C342.633 134.703 344.297 134.584 346.551 134.46C349.852 134.277 361.766 130.045 364.937 128.402C365.73 127.992 371.891 123.753 370.863 122.507ZM235.916 124.913C225.326 128.331 217.193 136.012 208.33 141.99C204.75 144.404 199.12 143.608 198.786 150.144C211.163 141.851 225.043 135.106 235.916 124.913ZM202.488 126.115C195.842 125.421 189.278 130.369 183.991 133.989C171.718 142.393 160.891 154.093 150.488 164.557C153.125 164.887 157.118 162.248 158.798 160.615C163.193 156.342 170.993 149.024 176.526 144.772C184.598 138.569 195.011 133.246 202.488 126.115ZM249.535 126.115C245.131 127.907 239.063 130.73 235.064 133.089C234.053 133.686 230.71 135.524 232.209 136.915C233.172 137.81 240.115 131.71 242.535 131.927L249.535 126.115ZM386.964 128.489C383.068 122.403 366.795 130.612 361.879 133.601C360.335 134.54 359.265 134.73 359.733 136.915C371.208 140.437 377.274 132.449 386.964 128.489ZM400.585 132.125C396.636 131.722 393.256 131.134 389.443 132.698C387.884 133.337 379.162 138.447 379.541 139.911C381.542 147.638 402.717 133.731 400.585 132.125ZM398.115 142.92C400.179 145.655 413.8 142.555 412.959 138.743C411.916 134.015 395.81 139.866 398.115 142.92ZM424.108 142.944C418.319 143.042 410.482 144.092 406.775 148.93C412.346 148.307 420.53 147.593 424.108 142.944ZM429.494 187.829C431.356 185.985 434.846 184.592 436.468 181.998C391.446 153.463 333.192 143.865 279.818 146.489C207.563 150.04 142.604 187.346 102.926 245.21C70.4519 292.568 61.7631 345.954 74.0941 401.619C81.226 433.815 98.7071 460.557 118.32 486.716C120.134 487.194 120.375 486.253 121.419 485.548C123.546 484.113 136.34 474.053 136.602 472.742C137.991 465.805 125.993 466.684 127.314 456.201C128.139 449.66 138.337 445.832 139.942 442.231C141.878 437.888 138.764 433.208 146.011 430.107C159.546 424.315 177.882 420.98 191.316 415.173C210.526 406.868 231.772 378.528 246.996 363.433C306.881 304.052 369.753 247.001 429.494 187.829ZM156.678 147.752C151.542 146.886 143.019 151.383 145.549 157.356L156.678 147.752ZM432.125 148.301C430.579 148.396 420.415 151.872 420.419 153.149C423.091 158.254 439.825 154.519 438.959 150.763C438.625 149.313 433.689 148.206 432.125 148.301ZM445.146 157.338C443.354 152.219 437.08 158.708 434.037 160.362C437.203 164.248 438.962 165.411 443.927 163.354C444.692 162.344 439.928 156.679 445.146 157.338ZM135.624 160.969C131.187 160.095 128.591 163.526 125.475 165.841C123.449 167.346 113.738 175.483 115.827 177.786L133.038 165.057L135.624 160.969ZM132.579 176.051C134.142 174.45 138.823 171.621 137.494 169.383C126.818 174.873 120.503 184.276 112.598 192.093C106.127 198.492 98.8445 204.376 92.8981 211.433C91.8946 212.624 87.484 217.711 87.9512 218.662C89.1311 221.065 90.6572 218.268 91.677 217.459C102.267 209.054 121.932 186.956 132.579 176.051ZM452.367 215.997C452.726 215.79 453.246 213.59 454.4 212.66C458.713 209.188 485.044 185.79 485.824 182.997C486.418 180.871 485.751 180.263 484.157 179.018L448.877 215.663C449.049 216.808 451.638 216.417 452.367 215.997ZM455.87 200.215C456.914 199.295 457.414 197.522 458.699 196.383C461.578 193.831 468.878 189.392 470.56 186.224C471.552 184.357 470.098 182.593 469.299 182.624C467.725 182.685 450.478 202.384 447.639 204.844C449.803 205.79 454.369 201.537 455.87 200.215ZM89.8325 204.237C91.0996 205.559 105.943 188.585 107.161 186.81C108.426 184.966 107.551 183.76 106.535 183.826C105.185 183.915 87.8756 202.195 89.8325 204.237ZM448.859 194.596C448.988 194.447 449.314 192.068 448.26 192.225C443.791 196.548 436.316 199.683 431.958 203.447C428.874 206.109 418.543 216.94 415.919 220.292C414.876 221.625 413.887 222.837 414.21 224.666C422.138 223.822 424.709 216.095 429.623 211.398C435.471 205.807 440.242 202.197 445.898 195.887C446.875 194.797 448.731 194.743 448.859 194.596ZM483.535 201.844C478.236 197.686 465.147 210.295 466.238 214.363C467.253 218.148 475.025 212.545 477.27 210.773C479.017 209.394 485.306 204.26 483.535 201.844ZM112.1 209.052C109.692 206.954 99.6353 221.597 98.4872 223.458L103.28 221.512L112.1 209.052ZM84.8617 211.456C83.5403 210.109 75.8552 217.027 77.4459 219.858C79.1135 221.645 86.3143 212.936 84.8617 211.456ZM438.959 213.86L426.591 223.458L433.431 221.095C433.688 219.828 440.344 215.088 438.959 213.86ZM443.912 222.274C441.294 219.746 437.169 227.753 436.32 228.704C434.105 231.188 429.97 232.525 430.305 236.687C431.112 237.524 439.044 231.038 439.765 230.256C440.831 229.098 445.311 223.625 443.912 222.274ZM515.716 237.895C514.998 232.361 510.411 226.733 505.836 223.471L512.026 234.882L515.716 237.895ZM399.353 240.293C400.149 241.143 415.775 230.603 407.388 227.082C406.648 226.771 397.824 238.661 399.353 240.293ZM55.1659 276.361L77.6845 239.937C78.0786 238.372 82.9141 232.591 79.2782 231.891C76.3565 231.329 66.284 249.189 64.5971 252.473C60.8976 259.676 57.3865 268.573 55.1659 276.361ZM417.151 238.339C417.978 237.358 421.683 235.373 421.602 233.681C421.546 232.521 419.165 231.643 417.512 232.069C415.034 232.709 405.848 244.848 403.483 247.383C398.375 252.856 389.063 256.843 389.454 265.543C390.788 267.267 415.229 240.618 417.151 238.339ZM490.824 232.029L486.568 233.028C436.058 283.522 381.313 330.651 331.194 381.474C282.762 430.586 235.916 484.011 185.181 530.671C182.915 532.755 179.428 531.905 182.634 535.45C184.235 537.22 195.747 543.559 198.718 545.078C328.697 611.497 515.446 530.175 534.146 383.797C541.101 329.352 523.297 275.883 490.824 232.029ZM45.2611 271.553L48.6504 268.244L65.0462 235.492C55.7125 245.027 48.8346 258.901 45.2611 271.553ZM453.823 237.907C447.529 238.543 440.133 245.076 438.978 251.118L453.823 237.907ZM297.059 340.558C315.403 322.191 334.544 304.507 353.554 286.596C365.407 275.427 381.69 261.305 391.95 249.346C393.253 247.826 398.716 242.632 395.633 240.889C394.334 240.154 391.593 242.342 390.614 243.239C380.93 252.11 372.265 262.477 362.815 271.546C348.375 285.406 333.93 298 320.116 311.83C302.071 329.896 285.375 349.248 267.685 367.314C247.335 388.097 224.207 406.683 206.224 429.625C207.204 430.636 209.669 433.644 211.132 432.623C211.836 432.131 216.987 422.263 218.579 420.338C240.54 393.785 271.876 365.773 297.059 340.558ZM427.817 240.306C425.528 238.267 413.529 250.794 411.726 252.919C410.575 254.274 408.72 254.859 409.258 257.122C410.828 258.563 423.707 246.455 425.348 244.508C426.492 243.152 428.357 242.573 427.817 240.306ZM544.204 266.733C541.575 263.96 534.269 243.999 532.449 243.925C532.283 243.918 529.454 244.98 529.349 245.105C528.577 246.027 538.395 265.938 539.45 266.539C540.634 267.213 542.733 266.577 544.204 266.733ZM544.213 318.429C551.072 317.909 545.298 313.483 544.552 310.282C543.387 305.283 543.37 300.279 541.788 294.936C537.746 281.286 529.446 263.56 520.693 252.32C520.429 254.356 520.905 256.122 521.628 258.012C525.505 268.133 535.633 282.523 538.696 291.927C539.767 295.216 543.003 317.375 544.213 318.429ZM414.637 271.974C418.187 268.552 424.595 264.716 427.826 261.339C428.736 260.388 431.41 257.164 429.686 255.932C423.149 262.789 414.998 268.219 408.141 274.682C405.638 277.042 398.635 283.509 396.977 285.755C395.831 287.307 394.089 288.703 394.406 290.786C402.866 286.498 408.126 278.25 414.637 271.974ZM388.197 264.347C386.582 262.823 385.059 265.152 384.268 265.698C381.233 267.795 366.2 282.884 364.887 285.577C360.498 294.577 368.322 290.418 370.712 286.471C372.148 284.102 371.896 280.213 372.114 279.955C372.232 279.816 374.209 281.278 375.772 280.621C377.583 279.859 390.375 266.402 388.197 264.347ZM384.489 283.562C389.36 283.516 393.441 278.672 396.845 275.76C394.477 272.818 395.016 274.609 393.17 275.77C389.982 277.775 386.442 280.317 384.489 283.562ZM552.866 295.588C553.454 295.046 549.35 287.07 549.433 285.109L541.741 275.166C542.871 279.983 545.311 289.868 548.062 293.653C549.186 295.199 551.666 296.693 552.866 295.588ZM382.013 288.394C377.305 288.317 370.803 294.63 370.883 299.201L382.013 288.394ZM339.918 311.209C342.684 313.31 357.034 297.986 358.54 295.021C359.253 293.617 360.147 292.338 357.845 291.986C353.421 291.308 342.607 307.553 339.918 311.209ZM48.9567 296.803C45.9801 293.603 39.2169 311.307 44.6358 313.62L48.9567 296.803ZM31.623 350.884C31.193 335.125 32.8314 319.475 35.3309 304.015C33.2814 304.523 32.3865 309.191 31.9696 310.952C29.7688 320.25 28.5345 333.479 27.9155 343.102C27.724 346.08 26.9746 351.115 31.623 350.884ZM328.357 327.653C330.439 325.572 338.156 317.431 336.191 314.828C332.817 316.689 329.07 319.985 326.508 322.85C316.374 334.18 305.883 345.651 294.909 356.476C292.718 358.638 276.364 370.179 279.263 373.729C292.498 367.52 299.867 356.506 309.398 346.502C315.507 340.09 322.738 333.271 328.357 327.653ZM56.3849 316.036C53.6862 315.63 53.3663 317.056 52.7452 319.101C49.5089 329.756 50.3798 346.281 50.2514 357.551C50.2149 360.753 48.8153 363.673 48.8626 367.106C48.8919 369.227 51.992 385.085 52.6954 385.746C52.7898 385.834 55.3046 386.188 55.1307 385.173C49.8058 362.475 53.7577 338.807 56.3849 316.036ZM44.0039 322.046C40.9359 321.2 40.7665 324.237 40.4225 326.341C39.1486 334.135 39.0546 342.977 39.0646 350.884C41.4133 351.254 42.4079 349.936 42.7718 347.883C44.1538 340.085 42.7906 330.111 44.0039 322.046ZM549.139 324.449C548.416 323.769 546.527 323.594 546.941 325.971C547.878 331.355 549.047 337.929 550.361 343.162C550.873 345.201 549.145 346.662 552.867 346.073C551.222 342.469 551.055 326.251 549.139 324.449ZM561.547 347.28C563.613 347.587 564.924 346.667 564.998 344.562C565.04 343.33 561.145 321.838 557.831 325.652L561.547 347.28ZM357.251 331.668C355.719 330.311 341.067 343.942 339.918 346.069C343.792 347.408 358.248 332.553 357.251 331.668ZM328.774 348.497C327.906 347.762 318.74 353.243 317.362 354.493C313.631 357.879 313.36 362.476 318.875 359.919C319.569 359.598 329.353 348.988 328.774 348.497ZM555.335 362.904C554.811 358.932 557.597 351.029 551.64 350.896C551.613 355.837 550.271 360.315 555.335 362.904ZM41.5279 354.502C40.0199 352.536 39.2851 354.522 39.0552 356.278C37.9536 364.688 39.6065 376.567 42.1472 384.542C44.4772 382.998 43.8204 381.678 43.7274 379.524C43.3692 371.233 41.2837 362.851 41.5279 354.502ZM565.246 367.713C564.589 363.681 567.29 356.847 562.789 354.496C563.099 358.154 562.306 362.382 562.774 365.937C563.004 367.691 563.717 369.663 565.246 367.713ZM31.6295 378.537V361.107C31.6295 360.446 29.7424 357.3 29.1603 356.286L27.8756 357.521L31.6295 378.537ZM561.538 373.128C560.778 378.509 561.538 386.572 561.538 392.361C561.538 392.5 563.338 394.765 564.016 393.576C566.926 385.819 566.123 377.214 565.246 368.926C562.741 367.843 561.71 371.912 561.538 373.128ZM267.674 388.935C270.776 385.819 277.729 379.65 273.685 376.138C259.32 388.955 246.534 403.516 233.419 417.63C231.337 419.871 228.076 422.558 226.011 424.769C224.786 426.079 223.048 426.81 223.542 429.018C224.406 429.881 231.94 423.56 233.006 422.594C243.777 412.836 257.145 399.512 267.674 388.935ZM289.149 379.745C286.92 377.637 277.102 387.043 279.257 389.35C280.259 390.423 291.595 382.059 289.149 379.745ZM551.64 383.351C552.871 385.269 547.316 399.099 551.014 398.948C553.597 398.843 558.199 382.63 551.64 383.351ZM295.345 389.368C293.734 388.11 286.833 394.636 285.365 395.932C279.821 400.831 274.62 407.57 269.402 412.814C267.786 414.437 257.98 421.446 259.453 423.013C273.791 414.351 285.58 402.493 295.345 389.368ZM46.3161 390.733C45.4782 390.228 43.9059 390.677 42.7789 390.564C45.922 402.344 47.9796 415.196 51.7937 426.877C52.6147 429.391 53.8274 433.753 56.3792 435.034C57.6627 429.598 48.3899 391.985 46.3161 390.733ZM270.577 396.574C268.923 394.741 257.753 408.413 255.104 408.636C252.767 411.811 249.271 413.741 249.548 418.205C255.685 413.302 263.63 406.96 268.526 401.025C269.296 400.092 272.261 398.441 270.577 396.574ZM556.598 419.407C560.135 417.237 561.658 411.77 562.804 408.016C563.238 406.595 566.321 399.258 563.398 398.999C559.027 398.612 560.618 405.535 560.009 407.704C558.912 411.609 556.681 415.254 556.598 419.407ZM552.866 404.99C549.313 404.216 544.909 411.58 546.687 413.391C549.847 416.607 553.399 407.028 552.866 404.99ZM549.145 418.206C539.234 420.795 543.903 433.304 548.217 423.905C549.065 422.058 549.353 420.207 549.145 418.206ZM206.19 466.288C207.803 460.12 201.638 456.144 199.506 451.753C196.733 446.04 194.581 433.087 190.132 429.6C184.291 425.024 192.707 440.244 188.236 441.033C182.627 443.255 182.941 428.136 176.494 430.232C174.597 434.719 182.022 437.889 182.252 439.179C182.72 441.807 184.694 449.493 184.681 450.072C184.663 450.84 182.998 451.852 183.006 453.387C183.018 455.99 184.82 458.523 183.726 461.893C180.883 470.647 177.767 454.75 177.412 453.973C177.188 453.482 173.093 447.306 172.746 447.066C169.217 444.626 163.279 457.073 172.515 462.601C173.935 463.451 177.395 463.093 177.795 464.645C179.671 471.931 172.037 470.97 171.538 472.918C176.295 480.919 179.909 490.521 191.339 489.121L184.153 482.335L182.68 478.315L187.638 478.304L183.918 468.125C196.06 464.205 190.19 463.11 191.541 457.509C193.908 447.7 201.38 466.128 206.19 466.288ZM60.0934 466.288C61.0902 461.381 57.09 458.322 55.4825 454.549C52.076 446.554 50.3488 436.527 44.0231 430.226C45.247 437.876 48.9852 449.2 52.4343 456.307C53.9443 459.418 57.1214 464.448 60.0934 466.288ZM86.0936 468.692C85.823 461.796 80.5314 456.83 77.6163 451.091C74.2988 444.559 72.3675 435.928 66.3085 431.429C67.0606 437.199 70.8982 441.867 73.1385 447.024C74.0299 449.075 73.4587 451.791 74.4025 454.211C75.8706 457.976 82.6341 466.076 86.0936 468.692ZM498.404 516.771C501.398 516.18 504.681 515.793 507.163 513.868C511.918 510.179 527.443 488.43 531.59 482.29C538.748 471.692 547.752 456.608 552.545 444.934C554.301 440.658 557.117 435.724 555.333 431.43L540.155 459.467C541.24 467.18 537.154 465.802 533.723 469.934C523.426 482.335 515.705 498.349 502.289 509.191L498.404 516.771ZM208.672 438.647C207.061 438.383 199.923 438.375 200.036 440.444C200.244 444.248 209.251 446.692 208.672 438.647ZM542.961 438.647C535.929 437.383 538.679 440.643 536.696 443.71C533.894 448.044 527.936 452.338 529.354 459.073C530.798 458.959 532.034 459.724 533.154 458.333C534.109 457.146 543.813 439.361 542.961 438.647ZM98.4811 499.94C98.839 497.965 97.5095 496.713 96.5245 495.24C89.9154 485.356 80.6389 475.386 73.9258 465.492C69.9496 459.632 69.0373 450.762 61.3564 448.257C60.6304 449.151 62.8321 454.89 63.5718 456.312C67.5164 463.893 75.658 477.186 80.6405 484.216C82.3386 486.612 95.2312 503.006 98.4811 499.94ZM157.356 448.281C152.733 449.33 155.109 456.655 159.758 455.461C163.4 454.526 160.05 447.669 157.356 448.281ZM148.005 466.283C146.554 463.182 153.279 455.091 147.417 454.57C139.801 453.894 145.36 469.537 148.005 466.283ZM530.58 462.688C525.59 460.181 519.956 468.446 518.718 472.309C518.097 474.243 519.498 476.558 518.365 477.786C517.062 479.197 514.349 479.338 512.702 480.78C509.042 483.985 494.141 502.704 489.723 508.099C485.887 512.784 486.569 515.467 492.261 511.42C499.416 506.334 519.453 481.295 524.941 473.43C525.711 472.326 531.061 463.082 530.58 462.688ZM161.906 472.047C162.361 472.788 166.943 475.739 167.751 472.818C169.626 466.038 161.928 463.372 161.624 465.695C161.899 467.571 160.964 470.517 161.906 472.047ZM199.292 472.984C198.117 471.833 197.805 469.605 195.697 469.9C190.896 473.285 199.31 481.171 201.846 480.712C206.104 479.941 200.397 474.067 199.292 472.984ZM83.6236 502.344C84.7254 501.295 67.8276 480.261 66.8094 477.21L61.3503 473.507C59.4875 475.381 76.6687 497.333 79.2771 499.965C80.1043 500.799 82.4776 503.436 83.6236 502.344ZM105.916 491.52C104.681 489.683 90.6809 472.705 88.5827 474.715C93.0743 480.127 98.225 491.75 105.916 491.52ZM142.34 518.481C142.896 517.976 151.442 512.054 146.161 511.996C145.2 511.985 129.626 522.014 131.922 523.981C134.661 526.328 140.58 520.081 142.34 518.481ZM486.008 515.579C482.809 512.53 462.713 534.711 458.8 536.609C460.899 539.408 463.019 538.772 465.653 537.273C466.765 536.64 483.494 521.088 484.298 519.958C485.279 518.581 486.374 517.452 486.008 515.579ZM487.791 531.747C492.407 528.732 501.339 522.257 494.061 517.998C485.462 525.758 478.485 534.958 468.702 541.416C470.573 543.089 472.298 546.263 475.222 545.484C475.821 545.324 484.628 538.364 484.787 537.781C485.246 536.095 481.608 534.142 482.299 533.616C486.404 534.8 486.467 532.612 487.791 531.747ZM141.816 532.42C139.356 528.9 132.31 533.729 130.618 536.549C123.212 548.895 144.877 536.802 141.816 532.42ZM445.159 546.812C448.524 550.31 460.01 543.644 459.99 541.417C459.934 535.252 445.793 542.98 445.159 546.812ZM187.628 556.429C188.62 555.255 172.123 544.569 169.059 545.637C170.959 549.042 183.963 560.768 187.628 556.429ZM456.299 552.817C464.81 560.647 476.209 542.327 463.66 546.142C461.964 546.658 455.755 552.06 456.299 552.817ZM442.305 556.066C443.84 554.819 446.668 550.279 443.206 549.288C439.004 548.087 437.535 552.49 434.021 552.859C432.581 554.827 438.262 559.349 442.305 556.066ZM174.798 558.104C173.006 556.866 161.514 548.351 160.399 553.456L174.879 564.618L182.672 564.263C180.249 562.424 177.188 559.754 174.798 558.104ZM427.817 552.844C426.393 551.599 415.052 556.976 417.925 560.044C418.538 560.699 429.907 554.67 427.817 552.844ZM153.759 558.097C152.7 557.551 146.883 554.99 146.783 557.63C154.323 560.102 159.499 568.926 167.821 568.452L153.759 558.097ZM435.244 557.663C434.884 557.161 429.289 556.001 428.179 557.318L408.022 572.656C410.889 579.876 432.1 564.446 434.094 561.932C434.957 560.844 435.949 558.643 435.244 557.663ZM457.54 556.449C456.543 555.472 445.565 556.834 446.42 560.596C448.023 567.645 460.432 559.284 457.54 556.449ZM221.059 573.261C219.39 568.472 197.837 558.986 195.065 561.258C195.585 566.696 201.813 567.568 205.626 569.626C212.133 573.137 211.494 575.684 221.059 573.261ZM412.963 561.263L400.61 565.459C405.379 571.947 413.202 568.767 412.963 561.263ZM431.544 574.468C432.301 575.351 446.327 566.307 446.37 565.459C446.446 563.99 442.4 562.31 441.958 566.069C437.253 564.258 429.199 568.829 431.544 574.468ZM204.962 575.693C204.788 575.487 201.038 575.002 199.696 574.192C196.953 572.536 193.613 569.154 190.407 568.661C186.33 568.033 181.149 569.701 185.75 573.296C186.331 573.75 196.572 578.962 197.205 579.087C199.348 579.512 207.415 578.613 204.962 575.693ZM400.582 572.087C393.258 568.673 388.94 566.285 382.038 572.671C383.22 575.027 386.966 573.874 387.962 574.712C388.62 575.266 388.196 577.919 389.34 578.747C394.044 582.15 401.921 573.745 400.582 572.087ZM252.009 576.896C249.92 574.879 234.964 574.001 230.971 572.082C232.863 574.677 238.519 578.685 241.542 579.233C242.968 579.491 255.392 580.16 252.009 576.896ZM430.292 573.278C428.937 573.011 417.906 577.249 420.4 579.276C421.923 580.514 430.912 576.658 430.292 573.278ZM378.296 578.064C377.301 571.047 368.797 575.693 364.683 576.896C366.835 585.841 372.758 579.66 378.296 578.064ZM239.632 586.483C241.035 581.257 225.733 575.169 223.195 575.845C219.372 576.862 219.367 579.047 221.881 581.491C227.195 586.657 232.303 587.116 239.632 586.483ZM411.725 581.672C409.374 572.542 395.981 576.61 396.941 582.138C398.062 588.588 408.266 581.903 411.725 581.672ZM254.491 586.478C254.829 586.915 263.377 590.368 264.939 590.151C266.973 589.87 273.678 584.361 276.749 583.49C273.391 574.899 250.901 581.841 254.491 586.478ZM389.439 582.903L381.394 579.282C380.084 580.29 372.393 582.713 373.353 584.68C376.405 590.937 386.518 588.212 389.439 582.903ZM226.007 587.716C225.723 587.427 219.803 585.754 218.283 584.978C215.941 583.783 214.045 581.123 211.483 580.658C208.71 580.155 201.698 581.793 206.543 584.375C207.92 585.108 222.96 590.085 224.139 590.139C226.179 590.231 227.241 588.973 226.007 587.716ZM337.441 586.495C338.846 585.03 340.38 585.632 339.906 583.508C337.888 579.722 324.153 581.311 322.588 582.906C320.717 584.813 323.599 585.137 324.168 585.634C330.579 591.249 330.675 587.849 337.441 586.495C335.805 588.201 335.269 589.698 332.494 590.697C338.757 597.342 342.509 592.38 349.816 592.499C347.959 585.848 343.553 585.272 337.441 586.495ZM301.53 581.693C298.061 581.912 294.41 581.383 290.956 581.633C280.092 582.418 288.851 588.96 298.827 584.403C300.551 583.615 302.208 585.144 301.53 581.693ZM315.146 585.309C310.061 581.598 303.837 583.989 298.702 586.748C293.15 589.731 299.685 591.344 303.19 592.244L315.146 585.309ZM364.679 586.483C361.639 580.124 355.187 584.025 349.829 584.103C353.701 589.015 359.449 587.142 364.679 586.483ZM280.055 585.652C276.236 585.863 272.425 589.82 269.369 591.903C270.934 593.529 273.505 596.128 275.971 595.875C276.483 595.823 284.986 592.161 285.404 591.869C289.714 588.851 283.837 585.443 280.055 585.652ZM259.438 592.521C256.074 592.681 249.635 586.471 247.702 586.47C245.376 586.468 240.61 591.642 237.164 591.318L248.936 596.201C251.874 596.388 257.516 595.131 259.438 592.521ZM374.575 590.124C374.352 589.872 369.086 586.712 368.756 586.624C367.16 586.199 361.577 590.021 359.387 591.33C358.554 591.829 358.499 593.397 358.241 593.507C357.141 593.977 355.602 592.616 354.356 592.832C352.174 593.211 349.061 596.779 346.114 596.707C347.908 599.103 350.048 598.54 352.575 598.249C356.872 597.755 369.022 594.51 372.83 592.615C373.836 592.115 376.51 592.316 374.575 590.124ZM317.3 589.062C312.534 589.702 310.718 593.855 316.335 595.586C325.478 598.403 322.867 588.315 317.3 589.062ZM300.296 593.716C296.936 593.959 293.965 591.268 290.634 592.082C289.458 592.37 279.292 598.463 279.275 599.117C279.212 601.489 288.685 601.272 290.76 600.67C292.155 600.265 292.985 598.624 294.223 598.026C296.603 596.877 300.778 597.587 300.296 593.716ZM322.592 598.538C318.772 603.555 337.471 601.372 337.416 599.117C334.768 595.326 324.763 595.686 322.592 598.538ZM315.149 602.116C315.382 596.911 307.261 596.232 303.536 597.501C301.699 598.127 301.326 603.079 295.347 600.926C295.163 603.769 294.953 603.031 297.175 603.322C303.331 604.126 309.084 601.862 315.149 602.116Z" fill="black"/>
<path d="M1165.21 159.065C1267.6 236.614 1297.83 388.477 1228.66 496.728C1127.07 655.7 875.066 662.135 753.494 523.058C652.77 407.831 677.324 245.05 798.15 154.476C902.09 76.5594 1062.71 81.4356 1165.21 159.065ZM982.488 109.285C970.859 111.661 960.515 107.038 949.205 111.212C947.915 111.689 938.313 116.033 937.963 116.536C937.204 117.63 938.396 121.034 939.808 121.299C940.485 121.426 949.898 116.097 952.124 115.249C954.883 114.197 960.543 112.408 963.377 111.737C966.697 110.952 964.754 115.041 963.568 116.149C961.26 118.304 945.011 124.418 940.534 126.835L930.499 133.302C945.561 135.112 955.108 120.235 968.888 117.678L967.64 114.089L972.732 114.645L982.488 109.285ZM939.153 111.683C932.419 114.444 924.804 113.778 918.125 115.897C907.969 119.118 899.073 126.564 890.769 131.409C884.139 135.277 874.415 137.886 869.826 144.121C880.945 145.258 886.966 138.341 895.423 133.524C903.215 129.086 909.593 125.85 916.852 123.197C921.808 121.386 929.375 118.813 933.819 116.709C936.011 115.671 939.593 114.756 939.153 111.683ZM992.392 115.296C989.41 116.474 983.544 115.227 981.325 115.903C977.301 117.129 970.637 122.618 966.829 124.718C962.622 127.038 956.431 127.267 954.017 132.1C964.221 131.913 975.367 126.293 984.034 121.249C984.898 120.746 985.066 119.445 985.887 118.92C987.899 117.632 991.768 117.495 992.392 115.296ZM1018.4 115.295C1015.41 115.315 1012.42 114.936 1009.44 115.604C1007.35 116.073 984.075 126.704 981.599 128.2C980.313 128.977 979.43 128.144 980.024 130.904C983.743 130.785 987.552 131.432 991.219 130.366C994.757 129.337 1010.57 120.711 1014.71 118.317C1016.06 117.538 1018.11 117.092 1018.4 115.295ZM1035.73 116.492C1034.61 115.434 1028.51 117.107 1026.57 117.807C1024.57 118.527 1006.39 127.595 1005.59 128.443C1004.35 129.761 1004.74 130.481 1004.77 132.107C1007.2 134.509 1025.55 125.813 1029.14 123.907C1030.74 123.06 1038.33 118.963 1035.73 116.492ZM936.683 121.306C931.744 119.549 931.2 124.329 929.558 124.879C919.609 128.211 908.88 131.536 900.167 138.13C898.612 139.307 896.693 140.751 897.077 142.93C901.411 138.939 907.382 138.293 912.754 135.926C921.375 132.126 929.947 127.781 936.683 121.306ZM1054.3 121.3C1046.45 119.367 1043.49 123.076 1037.83 125.135C1031.95 127.272 1024.97 128.324 1020.88 133.302C1023.97 132.654 1027.24 134.242 1030.03 134.127C1033.79 133.974 1048.92 126.985 1052.27 124.725C1053.73 123.735 1054.74 123.34 1054.3 121.3ZM887.153 124.912C882.193 125.373 872.414 126.161 871.07 132.106L876.89 131.156L887.153 124.912ZM1066.68 126.114C1062.98 123.128 1040.75 133.749 1040.71 135.117C1040.66 137.003 1046.53 137.561 1048.17 136.376L1066.68 126.114ZM1080.26 129.78C1078.04 126.44 1057.28 134.061 1058.02 137.504C1064.86 143.314 1072.72 133.373 1080.3 133.288C1080.15 132.264 1080.62 130.326 1080.26 129.78ZM1093.92 139.312C1095.29 137.848 1090.37 133.751 1088.36 133.741C1087.32 133.735 1070.93 140.863 1072.88 142.923C1081.49 146.227 1086.24 141.444 1093.92 139.312ZM858.676 140.532C855.903 140.87 852.808 142.543 850.402 143.901C848.754 144.83 835.86 154.393 837.642 156.148C838.963 157.449 850.048 147.731 852.388 147.042L858.676 140.532ZM1105.07 144.112C1103.25 137.74 1091.84 142.363 1088.03 144.968C1086.84 145.789 1085.87 145.053 1086.5 147.736C1093.82 146.874 1098.42 148.712 1105.07 144.112ZM1124.35 187.921C1031.35 121.924 887.759 130.238 809.761 215.038C750.918 279.012 733.865 368.425 774.816 446.139C775.625 447.675 781.322 456.951 781.884 457.315C783.41 458.304 784.005 457.904 785.055 456.711C899.416 368.64 1017.28 285.398 1133.45 199.938L1135.97 196.405C1132.09 193.618 1128.21 190.664 1124.35 187.921ZM1113.35 153.369C1115.84 151.638 1117.7 147.134 1113.08 146.483C1111.35 146.238 1097.01 150.759 1096.4 151.362C1094.25 153.485 1098.62 154.191 1099.69 154.437C1102.88 155.173 1110.74 155.184 1113.35 153.369ZM869.826 147.751C867.69 147.59 865.672 147.698 863.6 148.306C861.397 148.953 845.362 158.65 847.552 160.962L869.826 147.751ZM1129.82 153.757C1125.9 150.778 1109.49 156.51 1112.52 160.917C1115.54 164.209 1132.31 156.274 1129.82 153.757ZM823.19 160.147C824.097 158.896 828.533 158.372 825.879 154.957C819.723 161.22 809.592 163.578 807.921 172.971C809.247 174.039 819.636 165.997 820.979 164.601C822.496 163.026 822.29 161.389 823.19 160.147ZM1140.98 165.754C1135.33 154.621 1129.67 161.484 1121.17 164.583L1130.63 169.04L1140.98 165.754ZM827.73 170.591C821.227 170.181 816.302 174.894 811.556 178.345C808.741 180.392 805.838 182.338 803.023 184.452C801.784 185.382 796.761 192.019 798.029 193.418L827.73 170.591ZM804.2 171.787C801.979 169.628 776.623 190.992 776.969 197.012C782.616 196.224 785.308 190.755 789.114 187.504C794.475 182.924 802.834 179.176 804.2 171.787ZM1154.58 172.983C1149.34 174.926 1143.51 171.597 1139.74 177.775C1145.15 181.694 1152.9 179.31 1154.58 172.983ZM1168.21 193.43C1166.4 191.905 1156.56 200.245 1158.31 201.826C1161.15 203.317 1168.72 193.862 1168.21 193.43ZM794.295 195.828C792.241 193.718 776.927 209.411 775.097 211.435C769.353 217.785 761.353 227.217 759.647 235.49C768.454 229.005 774.138 219.494 781.284 211.432C783.334 209.12 796.734 198.332 794.295 195.828ZM1183.06 200.636C1179.31 197.651 1166.9 212.469 1168.22 213.853C1172.25 210.304 1176.51 207.084 1180.75 203.759C1181.32 203.303 1185.26 202.387 1183.06 200.636ZM1155.82 201.838C1154.06 199.948 1152.46 204.709 1151.79 205.111C1145.55 208.875 1142.19 210.939 1135.89 215.531C1128.21 221.13 1120.59 226.896 1112.6 232.054C1112.33 232.414 1113.55 236.542 1113.75 236.69C1115.52 238.045 1137.63 218.525 1140.38 216.284C1144.02 213.318 1148.7 211.078 1152.34 207.744C1153.41 206.762 1157.53 203.67 1155.82 201.838ZM764.58 205.444C761.371 204.72 762.42 206.375 761.394 207.714C755.568 215.321 748.104 224.374 743.806 232.753C743.181 233.97 741.384 236.222 744.177 236.686C747.69 237.269 751.106 227.305 752.902 224.746C755.336 221.28 767.567 209.301 764.58 205.444ZM1148.41 222.261C1151.35 225.114 1162.9 211.641 1156.45 211.478C1153.89 211.414 1146.28 220.206 1148.41 222.261ZM1121.17 241.494C1128.22 240.747 1136.94 234.7 1136.01 227.082L1123.6 237.252L1121.17 241.494ZM767.04 247.502L778.194 228.278C774.081 231.807 766.17 240.917 764.637 245.769C763.952 247.94 766.294 248.142 767.04 247.502ZM1212.77 254.723C1213.57 253.769 1204.47 236.66 1202.89 234.878C1201.12 232.889 1196.2 230.202 1194.21 231.891C1192.03 233.751 1207.17 255.125 1212.77 254.723ZM743.539 237.906C739.497 234.898 733.312 249.581 732.614 251.947C732.07 253.794 730.023 253.862 733.016 255.902C734.4 254.33 744.385 238.536 743.539 237.906ZM1108.78 237.9C1106.28 235.934 1095.44 246.799 1093.14 248.503C1082.12 256.695 1068.92 265.065 1058.35 273.682C1053.61 277.548 1056.5 279.993 1060.49 278.165C1062.6 277.201 1075.03 267.255 1077.85 264.966C1084.16 259.86 1084.12 259.969 1090.6 255.726C1093.01 254.153 1108.88 242.513 1109.48 241.508C1109.77 241.013 1108.93 238.016 1108.78 237.9ZM1117.44 243.911C1114.22 242.629 1107.51 251.138 1108.79 252.313C1111.22 253.306 1119.45 245.857 1117.44 243.911ZM1156.55 494.63C1210.57 437.803 1229.6 368.383 1205.97 293.192C1203.73 286.074 1186.79 244.967 1181.06 243.998C1168.93 249.76 1159.27 259.023 1148.65 266.677C1055.49 333.818 962.02 401.839 870.441 471.092C856.569 481.583 834.461 497.24 822.752 508.929C821.801 509.878 820.119 510.828 820.401 512.398C820.58 513.396 830.328 521.521 832.061 522.788C931.238 595.286 1072.21 583.339 1156.55 494.63ZM752.199 245.113C749.097 244.469 750.016 245.809 748.993 247.359C747.842 249.103 742.363 258.27 743.546 259.526C748.097 260.254 753.594 246.867 752.199 245.113ZM1129.83 249.927C1126.33 249.757 1123.26 251.653 1120.55 253.525C1118 255.28 1104.31 265.655 1103 267.131C1101.91 268.363 1101.12 269.851 1101.36 271.552C1103.85 270.492 1132.55 252.031 1129.83 249.927ZM1093.41 261.433C1092.64 262.09 1081.38 270.268 1087.11 270.321C1088.49 270.334 1105.37 259.243 1102.58 254.723C1098.75 256.047 1096.28 258.956 1093.41 261.433ZM1214.87 262.305C1214.06 261.34 1211.77 260.864 1210.92 259.538C1210.62 264.585 1215.69 270.393 1217.97 275.528C1219.26 278.436 1219.49 281.812 1220.87 284.789C1221.72 286.627 1220.73 287.74 1223.92 287.173C1222.37 280.764 1219.01 267.236 1214.87 262.305ZM757.158 261.948C754.47 261.437 754.28 263.114 753.369 264.868C751.336 268.783 749.35 275.529 748.498 279.96C751.728 280.544 750.676 279.364 751.537 277.57C753.896 272.656 754.65 266.838 757.158 261.948ZM724.98 273.956C728.966 273.632 731.91 263.029 728.063 263.162C726.042 263.232 724.397 272.12 724.98 273.956ZM732.407 285.975L739.543 271.88L741.051 264.34C734.964 269.947 732.477 278.118 732.407 285.975ZM1092.68 273.962C1091.72 272.979 1080.39 282.497 1077.53 282.426C1076.09 284.808 1058.67 293.74 1061.74 296.79C1062.67 297.71 1065.59 295.397 1066.56 294.872C1072.9 291.441 1083.56 284.314 1089.25 279.898C1090.33 279.055 1094.29 275.612 1092.68 273.962ZM1241.27 323.24C1243.42 322.803 1243.74 320.843 1243.83 319.038C1244.08 313.872 1237.4 291.279 1235.27 285.182C1234.72 283.612 1234.59 280.725 1231.99 281.175C1228.94 281.703 1231.36 284.193 1231.59 285.125C1234.79 297.833 1238.44 310.458 1241.27 323.24ZM721.247 282.377C717.744 281.764 719.213 283.184 718.463 285.013C717.327 287.782 710.403 309.103 711.355 310.012C714.028 310.243 714.727 310.399 716.028 307.95C718.946 302.463 720.778 288.767 721.247 282.377ZM1046.08 288.808C1047.21 287.859 1051.19 288.076 1050.58 285.394C1050.15 283.486 1046.03 282.899 1044.41 284.18C1038.46 289.203 1032.16 294.094 1025.72 298.493C990.9 322.256 948.414 349.867 917.537 377.367C914.78 379.823 909.108 380.194 909.452 385.743C910.054 386.356 921.641 378.821 922.989 377.862C943.831 363.046 963.721 346.665 984.58 331.879C1005.49 317.058 1026.19 305.389 1046.08 288.808ZM731.152 293.195C725.323 293.832 726.251 302.334 726.213 306.406C729.434 306.984 728.393 305.823 729.251 304.014C730.904 300.527 731.517 297.039 731.152 293.195ZM747.249 293.197C743.745 292.154 742.087 295.663 740.838 298.375C737.224 306.222 733.039 318.951 740.45 325.64C740.163 314.162 743.991 304.021 747.249 293.197ZM1046.86 302.812C1044.77 301.3 1034.07 314.313 1035.74 316.023C1041.39 314.776 1050.77 309.259 1046.86 302.812ZM1228.86 304.008C1226.2 304.717 1226.31 307.196 1226.35 309.345C1226.42 312.174 1230.09 331.551 1231.97 331.632C1234.25 331.729 1233.34 327.987 1233.26 326.824C1232.69 319.138 1229.76 311.634 1228.86 304.008ZM720.022 336.458C723.891 340.89 727.167 319.217 727.126 317.545C727.078 315.518 725.663 314.818 724.33 313.636C721.652 313.294 722.001 319.773 721.638 321.813C721.247 324.007 719.393 335.737 720.022 336.458ZM1019.63 317.237C1018.79 316.419 1005.3 327.316 1002.64 327.776C990.848 337.429 976.155 345.966 965.141 356.279C964.29 357.075 961.556 359.409 962.69 360.499C963.722 361.492 972.797 355.349 974.295 354.293C979.433 350.671 984.332 344.198 988.794 340.833C997.649 334.155 1008.25 328.675 1017.06 321.345C1017.98 320.579 1020.87 318.453 1019.63 317.237ZM1030.78 320.849L1023.79 322.484L1004.78 340.058C1007.31 340.676 1008.12 339.335 1009.77 338.301C1016.72 333.949 1025.29 326.811 1030.78 320.849ZM737.325 328.049C737.185 327.935 733.798 327.937 733.655 328.049C733.046 328.529 731.293 341.121 731.176 343.089C730.5 354.49 733.079 375.662 735.193 387.241C735.483 388.831 738.51 400.194 739.206 400.186L739.511 395.072C734.698 377.739 734.482 359.918 736.239 342C736.511 339.231 739.955 330.185 737.325 328.049ZM1235 335.299C1234.45 334.953 1232.42 335.427 1231.36 335.256L1233.21 368.896C1240.2 363.132 1235.93 351.584 1235.16 344.08C1234.97 342.225 1236.69 336.364 1235 335.299ZM1248.64 356.878C1251.48 354.607 1247.71 346.691 1247.64 344.318C1247.55 341.571 1250.95 337.063 1246.22 335.263L1244.98 356.899C1246 356.75 1248.26 357.176 1248.64 356.878ZM722.492 340.07C718.737 339.497 720.514 340.973 719.987 342.995C718.356 349.255 718.727 355.315 718.784 361.701C720.854 362.745 722.492 359.649 722.492 358.702V340.07ZM967.206 372.106C964.27 374.698 958.936 377.726 956.469 380.32C954.776 382.1 956.523 383.361 957.113 383.322C958.781 383.209 979.715 365.513 983.111 362.908C988.596 358.7 998.608 355.52 999.815 347.283C998.43 345.689 972.093 366.713 969.474 368.955C968.439 369.842 968.073 371.34 967.206 372.106ZM960.201 361.714C957.709 360.524 950.407 365.754 950.328 367.117C950.232 368.754 953.126 368.934 954.946 368.098C955.611 367.792 960.847 363.355 960.201 361.714ZM732.39 409.784C733.38 408.675 729.573 399.311 729.054 396.807C727.519 389.4 727.271 376.927 724.93 370.76C722.88 365.361 719.004 364.293 719.351 371.305C719.914 382.689 722.249 397.208 728.45 407.011C729.048 407.957 731.041 411.295 732.39 409.784ZM1237.55 402.572C1241.12 406.523 1245.57 388.545 1245.84 387.194C1247.12 380.846 1249.27 373.216 1244.35 367.724L1237.55 402.572ZM945.344 372.532C943.574 370.933 933.501 378.879 931.85 380.455C930.543 381.702 928.704 382.18 929.261 384.541C930.273 385.507 947.798 374.75 945.344 372.532ZM1227.65 397.769C1231.01 395.275 1232.42 388.561 1233.26 384.596C1233.79 382.073 1235.68 376.852 1233.21 374.954C1228.82 381.272 1229.01 390.375 1227.65 397.769ZM710.102 383.348C703.845 382.882 709.32 396.903 710.48 400.428C710.893 401.683 710.796 404.059 712.571 403.771C713.971 397.16 710.56 390.08 710.102 383.348ZM908.201 386.957C904.899 384.006 878.273 408.835 874.779 412.182C886.408 407.008 895.353 398.199 905.377 390.814C906.741 390.434 909.322 387.958 908.201 386.957ZM925.541 389.367C916.132 389.445 909.555 398.624 902.001 403.158L895.833 409.784L914.314 399.481L925.541 389.367ZM930.487 398.978C927.303 398.764 924.441 400.424 921.908 402.056C919.643 403.515 912.482 408.711 910.649 410.357C909.302 411.567 907.799 412.556 908.213 414.592L916.788 411.509L930.487 398.978ZM1218.96 432.62C1224.76 422.527 1229.27 411.806 1230.1 400.174C1226.79 401.959 1224.96 407.659 1223.53 411.208C1222.07 414.817 1218.79 423.966 1218.03 427.514C1217.77 428.726 1216.64 432.84 1218.96 432.62ZM741.078 425.414C749.992 424.787 743.429 411.286 739.84 407.389C735.604 414.367 739.24 418.464 741.078 425.414ZM727.426 413.4C724.406 412.936 724.67 413.813 725.047 416.309C725.904 421.984 729.497 428.063 730.534 433.826C739.97 425.602 729.831 421.708 727.426 413.4ZM871.064 415.813C865.905 416.323 860.861 420.118 857.47 423.614C859.667 426.382 859.281 424.887 861.283 423.743C864.582 421.856 868.347 418.492 871.064 415.813ZM883.445 418.217C877.892 418.91 872.044 424.872 868.588 429.011C874.064 428.394 879.723 422.065 883.445 418.217ZM903.255 419.419C900.993 417.71 887.776 428.114 885.088 430.017C884.274 430.593 880.598 432.353 882.213 433.825C883.74 435.217 902.987 423.861 903.255 419.419ZM1236.3 425.424C1233.01 424.817 1234.14 426.096 1233.27 427.827C1232.4 429.567 1228.07 438.955 1228.88 439.836C1235.18 439.152 1235.25 430.064 1236.3 425.424ZM852.479 430.198C855.179 426.696 849.183 428.619 846.91 430.216C844.472 431.929 842.544 434.768 841.35 437.426C843.417 439.065 848.979 432.364 850.19 431.048C850.857 430.322 852.349 430.367 852.479 430.198ZM763.86 462.188C760.563 457.736 755.767 450.317 753.183 445.504C750.318 440.167 749.384 432.923 744.79 429.023C743.407 435.175 759.212 468.95 762.859 469.792C764.368 470.141 767.2 468.089 768.279 466.892C768.276 465.947 764.503 463.056 763.86 462.188ZM1216.49 436.241C1215.18 434.789 1211.23 439.482 1210.81 440.961C1208.87 447.861 1218.5 441.759 1216.49 436.241ZM816.594 451.856C819.089 453.792 834.457 440.438 832.671 438.64C827.778 441.627 823.594 445.437 818.929 448.761C817.529 449.758 815.856 448.748 816.594 451.856ZM837.629 448.262C836.267 446.684 830.108 454.019 828.992 454.868C830.662 456.58 832.599 458.13 835.087 457.297C836.636 456.778 852.602 446.027 854.174 444.48C855.787 442.892 856.793 442.693 856.194 439.842C855.382 438.851 836.738 453.919 835.772 455.463C832.772 452.58 839.923 450.921 837.629 448.262ZM1230.11 441.051C1228.84 439.9 1226.53 441.251 1225.47 443.149C1220.05 452.924 1216.27 463.052 1210.09 472.689C1204.93 480.734 1195.54 490.088 1191.24 497.655C1187.14 504.846 1191.29 503.605 1180.53 507.704L1162.03 528.786C1163.58 530.422 1170.98 527.457 1172.58 526.423C1177.96 522.933 1188.3 510.392 1192.85 505.235C1195.62 502.095 1206.15 491.303 1206.42 488.323C1206.6 486.379 1203.68 485.1 1204.12 484.34C1204.19 484.23 1205.47 484.61 1206.56 483.429C1210.64 479.014 1233.13 443.798 1230.11 441.051ZM757.153 475.898C758.636 474.726 752.907 471.012 751.93 469.56C747.437 462.882 744.639 452.81 740.065 446.22C739.44 445.319 737.547 441.962 736.117 443.454C734.149 445.507 747.062 464.5 748.975 467.618C750.066 469.396 750.558 473.826 752.097 475.124C753.229 476.079 756.505 476.409 757.153 475.898ZM1212.77 449.464C1212.25 448.971 1206.22 451.525 1205.67 452.172C1203.52 454.737 1199.86 464.647 1197.74 467.91C1194.79 472.456 1178.33 490.697 1181.84 495.131C1183.57 497.33 1184.61 493.412 1185.05 492.884C1189.13 487.993 1193.18 483.028 1196.72 477.742L1212.77 449.464ZM852.486 455.475C851.786 454.818 840.475 460.923 842.594 462.675C845.82 464.817 854.118 457.004 852.486 455.475ZM746.009 480.706C747.449 479.302 736.218 461.211 734.182 459.145C732.411 457.349 731.71 456.151 728.682 456.683C732.694 463.032 735.987 473.439 741.236 478.741C742.326 479.842 744.545 482.134 746.009 480.706ZM793.864 473.075C795.136 469.239 802.085 466.815 801.117 462.687L776.324 481.89C774.798 482.555 773.82 485.972 774.499 486.717C775.882 488.235 791.264 473.761 793.864 473.075ZM822.778 462.693C819.128 460.085 806.7 473.38 803.554 475.871C796.793 481.224 789.974 486.724 782.702 491.425C779.971 493.025 783.904 498.273 785.687 495.669C786.279 494.804 786.109 492.447 787.143 491.771C788.048 491.179 790.373 491.694 791.703 490.861C793.437 489.774 802.449 483.19 802.68 482.35C802.897 481.564 801.71 480.072 801.935 479.679C803.032 477.768 822.133 468.725 822.778 462.693ZM838.473 468.329C840.301 466.287 840.855 463.643 837.656 462.681C836.645 469.48 825.085 469.663 825.267 477.106C825.754 477.722 837.588 469.319 838.473 468.329ZM1179.35 497.548C1173.22 494.573 1161.37 508.276 1171.26 507.193C1174.31 506.859 1180.83 498.841 1179.35 497.548ZM1166.18 513.587C1167.13 512.511 1169.9 512.395 1169.44 510.193C1169.2 509.059 1166.44 506.733 1164.5 507.679C1163.83 508.005 1154.86 516.967 1153.98 517.983C1152.54 519.639 1151.58 520.169 1152.12 522.778C1159.23 524.292 1162.38 517.938 1166.18 513.587ZM1196.68 513.174L1189.19 519.755L1183.07 527.587C1184.84 529.315 1196.87 515.969 1196.68 513.174ZM1152.11 528.777C1152.79 527.803 1147.91 524.335 1144.73 525.746C1140.75 527.511 1132.29 537.637 1126.97 539.579C1125.51 545.591 1119.14 545.775 1113.87 547.558C1108.77 550.66 1096.75 555.319 1109.65 556.782L1152.11 528.777ZM822.32 535.268C818.122 533.283 814.465 530.456 810.521 528.074C809.467 527.438 807.838 525.06 806.689 526.986C813.11 532.555 827.685 549.161 835.841 550.418C837.51 550.675 841.425 550.177 841.325 548.628C841.25 547.459 824.027 538.161 822.32 535.268ZM1161.75 534.547C1162.44 533.022 1161.38 530.003 1160.17 528.802C1153.26 533.305 1146.89 539.8 1139.92 544.023C1138.09 545.131 1134.99 545.469 1134.81 545.663C1134.39 546.12 1135.78 551.459 1136.03 551.633C1137.47 552.598 1161.11 535.941 1161.75 534.547ZM798.437 534.324C797.613 533.798 798.681 531.915 796.791 532.407C796.502 534.162 796.808 535.278 797.937 536.681C800.574 539.957 817.572 553.172 821.653 555.731C824.66 557.617 830.06 562.169 832.659 558.245C822.062 549.102 810.158 541.815 798.437 534.324ZM1173.16 536.013C1171.85 534.768 1159.37 542.872 1162.03 545.618C1162.97 546.596 1175.07 537.837 1173.16 536.013ZM1158.3 546.832C1157.14 545.648 1153.22 549.978 1151.86 550.502L1143.46 558.846C1145.58 557.842 1147.99 557.376 1150.06 556.251C1151.19 555.638 1160.56 549.15 1158.3 546.832ZM856.198 556.457C853.045 556.523 850.791 553.239 848.083 552.833C839.472 551.542 843.103 558.964 848.384 559.8C848.856 559.875 855.976 557.919 856.198 556.457ZM1131.05 557.615C1130.46 547.58 1115.63 557.824 1112.05 561.153C1111.2 561.947 1110.57 562.822 1111.27 563.632C1111.48 563.88 1116.49 567.185 1116.83 567.189C1117.69 567.199 1127.95 557.581 1131.05 557.615ZM1086.5 563.633C1086.67 563.861 1091.46 565.854 1091.85 565.836C1093.26 565.774 1102.55 560.123 1102.57 559.449C1102.74 552.729 1083.76 559.966 1086.5 563.633ZM835.456 563.415C835.954 564.168 847.78 571.102 849.605 571.881C850.879 572.426 853.202 574.121 853.724 571.451C854.164 569.202 839.115 562.491 836.993 560.065C834.548 559.278 834.587 562.099 835.456 563.415ZM853.738 563.642C860.356 564.641 863.282 571.097 870.815 568.904C881.331 565.843 867.081 561.725 862.9 560.021L853.738 563.642ZM1095.17 570.844C1095.43 571.128 1101.56 574.499 1101.95 574.5C1103.21 574.504 1111.63 569.806 1111.2 567.946C1111.05 567.314 1107.68 564.057 1106.94 563.996C1106.4 563.951 1098.66 567.756 1097.02 568.471C1096.05 568.894 1093.05 568.484 1095.17 570.844ZM1085.18 570.795C1084.63 560.763 1077.6 566.73 1071.64 568.478C1075.26 574.612 1079.63 573.402 1085.18 570.795ZM892.106 575.669C894.607 573.469 883.12 568.743 881.357 568.719C880.93 568.713 873.843 571.791 873.544 572.087C871.508 574.11 874.176 574.105 875.275 574.589C882.806 577.907 884.113 577.601 892.106 575.669ZM1072.87 574.492C1065.83 569.887 1063.6 570.034 1056.79 575.068C1061.26 581.49 1068.44 580.355 1072.87 574.492ZM1093.61 574.729C1091.4 572.627 1086.32 574.875 1084.02 576.271C1087.44 581.923 1098.78 579.64 1093.61 574.729ZM879.719 585.292C881.866 583.198 869.615 577.253 868.167 576.685C864.659 575.308 861.38 573.941 857.451 574.486C857.796 576.092 861.339 577.568 862.817 578.274C868.264 580.875 874.502 582.117 879.719 585.292ZM889.637 579.291C887.267 581.769 902.908 588.473 904.21 588.711C906.032 589.044 912.424 585.916 914.373 584.691C914.359 583.865 900.778 576.071 899.94 575.926C897.54 575.51 893.015 580.097 889.637 579.291ZM926.776 579.296C925.116 578.844 911.682 573.329 911.946 577.479C912.017 578.594 925.192 585.979 926.776 579.296ZM1055.55 584.106C1062.19 584.284 1056.17 577.699 1053.44 577.07C1051.64 576.653 1047.67 578.107 1045.69 578.754C1044.58 579.115 1042.15 578.975 1043.77 580.491C1048.68 583.357 1059.89 590.595 1065.03 590.871C1074.07 591.357 1070.33 586.376 1063.93 584.851C1060.85 584.118 1056.76 586.597 1055.55 584.106ZM1085.25 584.077C1088.19 580.19 1073.06 575.682 1070.45 581.173C1069.15 588.592 1084.08 585.627 1085.25 584.077ZM918.317 592.804C919.179 592.441 921.784 594.327 923.392 593.556C925.887 590.873 945.304 584.671 945.325 583.489C945.363 581.456 930.881 579.849 927.332 582.876C922.085 587.351 924.987 584.669 919.433 587.153C915.417 588.95 907.881 593.11 916.402 594.818C918.703 595.279 917.918 592.973 918.317 592.804ZM1034.5 584.079C1031.71 579.039 1026.7 580.846 1022.12 581.694L1032.04 589.503C1035.02 591.293 1037.66 589.021 1040.68 588.91L1038.21 592.491C1040.87 592.145 1042.88 594.49 1045.11 594.864C1050.23 595.725 1055 593.283 1048.79 590.048C1043.33 587.203 1038.59 582.899 1032.02 585.281L1034.5 584.079ZM965.159 585.305C951.854 580.001 945.609 591.384 933.904 592.811L925.547 597.3C930.316 597.48 934.551 599.44 939.478 598.216C941.917 597.61 945.377 594.132 947.902 593.179C953.239 591.164 961.628 591.823 965.159 585.305ZM1025.27 590.651C1017.97 583.224 1012 584.009 1002.31 585.304L1022.99 597.062L1035.73 597.301L1025.27 590.651ZM1003.54 592.487C997.406 584.189 986.932 584.902 977.547 585.304C978.079 588.641 984.862 588.087 985.991 589.181C986.495 589.669 985.934 591.497 986.499 592.143C986.788 592.474 994.097 595.854 994.544 595.945C999.086 596.876 999.594 593.166 1003.54 592.487ZM949.065 600.907C957.98 603.646 968.303 599.84 975.951 595.169C982.588 591.116 974.819 588.731 970.07 589.358C963.35 593.131 954.421 595.761 949.065 600.907ZM998.589 603.311C989.251 594.521 979.812 593.996 970.118 602.728C979.674 604.735 989.118 601.596 998.589 603.311ZM1015.91 600.909C1017.79 598.5 1010.83 596.2 1008.98 596.157C1005.74 596.082 996.902 600.01 1002.93 600.885C1005.21 601.216 1014.78 602.371 1015.91 600.909Z" fill="black"/>
<path d="M183.91 193.424C175.984 211.914 193.621 226.321 198.126 242.731C202.808 259.789 199.47 265.565 189.878 279.143C179.114 294.378 154.134 314.11 152.034 331.376C151.021 339.703 155.143 353.04 160.95 359.362C164.163 362.86 171.597 366.524 174.586 370.165C182.273 379.531 181.176 403.65 165.351 403.78C164.759 393.607 172.977 392.877 169.707 380.907C167.625 373.285 158.07 371.544 152.649 367.686C141.042 359.427 133.777 345.14 134.398 331.087C135.961 295.699 181.998 286.267 183.969 257.779C185.21 239.855 175.94 241.018 169.252 228.692C160.809 213.133 167.766 199.277 183.91 193.424Z" fill="black"/>
<path d="M217.821 311.671C208.156 322.625 190.115 331.53 191.321 347.858C192.184 359.541 210.18 367.644 211.229 375.479C212.511 385.059 205.521 394.914 196.298 397.759C211.365 374.292 191.191 372.383 182.861 358.526C174.733 345.007 180.992 329.46 188.228 317.211C195.109 305.563 207.463 297.599 210.843 283.873C215.462 265.118 207.906 248.549 200.018 231.891C202.347 231.371 202.952 233.167 204.347 234.287C233.002 257.304 244.521 281.407 217.821 311.671Z" fill="black"/>
<path d="M148.005 251.124C149.112 252.25 137.323 267.378 135.638 269.426C126.496 280.534 115.207 290.603 105.885 301.309C104.261 303.173 84.8275 329.332 83.6421 328.05L98.6973 304.814C114.097 288.061 128.263 270.288 143.794 253.636C145.042 252.298 145.628 250.622 148.005 251.124Z" fill="black"/>
<path d="M149.249 231.897C151.569 234.094 112.296 276.033 108.429 280.603C100.321 290.182 92.6767 300.181 84.8801 310.019C87.6544 303.068 92.4682 295.969 96.8727 289.89C109.547 272.397 128.527 251.117 143.886 235.64C144.632 234.888 148.075 230.785 149.249 231.897Z" fill="black"/>
<path d="M128.922 295.091C115.578 311.562 102.812 326.284 90.3919 343.671C90.0121 344.203 89.3422 348.42 87.3496 346.074C83.3281 341.338 140.208 276.223 147.398 269.154C149.341 270.221 146.983 271.869 146.296 272.892C141.306 280.319 134.611 288.068 128.922 295.091Z" fill="black"/>
<path d="M368.393 164.581L296.584 222.257C313.571 202.071 336.037 187.1 357.552 171.794C360.402 169.767 363.335 164.428 368.393 164.581Z" fill="black"/>
<path d="M385.727 165.783C383.419 171.713 376.578 173.864 371.523 177.825C353.947 191.597 337.078 206.208 318.717 219.115L312.68 222.257L331.012 205.467C346.052 195.613 359.631 183.752 374.01 172.977L385.727 165.783Z" fill="black"/>
<path d="M352.298 160.975L282.977 219.864C282.436 217.609 284.269 217.003 285.438 215.654C298.866 200.158 326.354 177.868 343.328 165.81C345.471 164.288 349.717 161.89 352.298 160.975Z" fill="black"/>
<path d="M326.702 166.183C308.784 180.782 291.634 196.217 274.31 211.45C273.496 210.575 279.507 203.555 280.536 202.43C285.2 197.33 293.591 190.324 299.043 185.588C311.391 174.862 325.262 165.236 338.067 154.959C339.134 157.913 333.294 162.129 331.173 163.924C329.926 164.98 328.009 165.118 326.702 166.183Z" fill="black"/>
<path d="M145.529 219.871L94.7851 279.968C94.5049 278.003 95.1984 276.379 96.1779 274.721C105.071 259.666 120.759 244.916 131.979 231.356L145.529 219.871Z" fill="black"/>
<path d="M253.244 160.969L204.976 209.045C208.268 201.888 215.41 194.977 221.024 189.172C228.718 181.218 237.61 174.192 244.995 166.178L253.244 160.969Z" fill="black"/>
<path d="M261.132 166.194C247.852 182.192 232.533 197.204 217.357 211.449L219.843 206.061L263.78 160.969C266.357 164.311 262.192 164.918 261.132 166.194Z" fill="black"/>
<path d="M286.679 153.763L243.346 194.609C245.96 188.652 251.874 185.071 255.814 180.859C262.558 173.648 271.471 162.384 279.225 156.731C281.547 155.038 283.448 153.309 286.679 153.763Z" fill="black"/>
<path d="M124.481 317.239L89.8325 362.911C96.4374 349.422 108.178 331.58 118.9 320.823C120.436 319.283 121.958 316.93 124.481 317.239Z" fill="black"/>
<path d="M302.774 153.762C299.452 160.052 292.854 162.972 287.837 167.529C281.202 173.557 274.787 180.802 267.677 186.987C266.378 188.117 257.933 195.484 256.965 194.609C266.918 183.767 277.226 172.921 288.514 163.315C290.579 161.557 300.94 152.296 302.774 153.762Z" fill="black"/>
<path d="M400.584 187.42L346.108 229.469C344.498 227.985 378.049 203.66 379.643 201.335L400.584 187.42Z" fill="black"/>
<path d="M312.673 160.969L265.632 201.821C264.109 200.281 288.498 179.403 290.157 176.666L312.673 160.969Z" fill="black"/>
<path d="M234.678 164.581L203.109 194.623C193.188 201.979 204.452 188.415 207.391 185.557C212.221 180.86 219.65 176.152 225.009 171.752C227.971 169.32 230.203 164.438 234.678 164.581Z" fill="black"/>
<path d="M404.292 171.793C403.237 173.115 400.831 175.643 399.625 176.589C389.391 184.614 377.857 188.414 368.052 194.583C359.072 200.233 348.328 211.971 339.272 218.636C336.682 220.543 333.357 223.187 330.013 223.458L363.49 195.268C368.397 192.893 374.17 190.104 378.708 187.204C386.826 182.016 395.173 174.147 404.292 171.793Z" fill="black"/>
<path d="M140.132 409.949C152.071 406.619 150.198 420.826 143.066 417.629C141.227 416.805 136.264 411.027 140.132 409.949Z" fill="black"/>
<path d="M105.397 382.842C103.953 384.625 101.245 389.08 100.939 389.347C100.207 389.987 97.6889 389.652 98.5025 387.574C98.949 386.434 113.729 368.015 114.57 368.921C112.786 373.927 108.737 378.719 105.397 382.842Z" fill="black"/>
<path d="M105.909 361.715L93.5469 380.941C95.0222 374.906 98.2607 369.461 101.99 364.508C103.104 363.028 103.262 361.154 105.909 361.715Z" fill="black"/>
<path d="M213.63 169.389L208.127 176.092L200.018 182.593C199.32 179.176 212.155 168.089 213.63 169.389Z" fill="black"/>
<path d="M512.827 322.449C526.785 337.09 527.029 378.496 507.524 389.203C490.457 398.572 469.716 405.353 451.747 413.185C398.193 436.527 338.204 465.712 283.198 483.944C279.358 485.217 258.227 489.029 258.227 490.93C273.06 504.712 253.813 494.272 246.409 495.057C241.971 495.528 235.905 499.335 242.138 501.748C242.158 508.115 224.319 503.54 227.816 497.493L250.241 478.392C255.221 467.053 254.973 474.101 261.17 473.518C263.987 473.253 266.293 471.228 268.102 469.288C264.033 469.414 263.837 460.316 266.249 460.301C267.829 463.108 273.251 463.688 274.769 464.989C276.657 466.607 273.262 470.385 282.275 468.617C283.199 468.436 296.926 462.543 297.743 462.01C299.033 461.17 299.32 459.088 300.249 458.504C300.68 458.234 307.56 458.536 310.452 457.502C313.616 456.37 315.358 453.687 317.769 452.598C319.992 451.594 331.945 447.596 332.483 447.036C334.542 444.896 331.686 445.025 330.729 444.545C325.897 442.122 321.38 441.189 316.502 437.934C314.823 436.814 306.872 431.255 308.971 429.03L335.009 444.038L338.001 444.723L359.721 434.427C360.593 432.591 340.356 428.578 341.161 423.02C352.132 423.557 360.444 434.635 372.103 430.218C374.844 427.297 355.598 420.364 354.775 417.015C363.87 418.102 371.737 422.751 378.882 427.8L389.432 423.029C383.144 419.166 374.808 417.235 369.632 412.207C377.773 410.856 384.389 419.08 391.613 420.35C395.363 421.009 404.268 419.854 399.007 416.698C397.621 415.866 377.541 409.173 380.782 406.19L403.007 412.844L406.804 418.204C423.217 408.974 397.153 407.905 394.399 404.963C394.288 404.844 393.933 402.426 395.028 402.562C398.191 403.588 402.374 404.723 405.527 403.189C401.78 395.718 398.863 387.895 393.185 381.508C391.871 380.029 389.34 380.397 389.447 378.549L395.116 379.685C397.109 383.581 403.536 388.351 405.554 391.46C407.274 394.11 411.86 406.618 412.988 407.379C418.661 411.207 415.529 393.775 414.848 391.735C413.311 387.132 405.255 376.634 401.196 373.736C384.379 361.728 374.735 372.238 358.836 378.273C351.292 381.136 342.782 384.07 334.966 385.738C335.842 383.992 337.751 382.158 339.286 380.923C364.455 360.678 406.578 345.601 437.532 333.27C452.811 327.183 484.903 312.583 500.174 314.906C503.62 315.431 510.468 319.975 512.827 322.449ZM500.442 328.473C499.469 327.523 496.84 325.791 495.511 325.883C484.984 329.891 473.75 331.663 463.08 335.235C445.756 341.034 423.624 350.104 406.936 357.657C404.156 358.916 401.143 360.147 398.432 361.451C393.756 363.699 403.14 367.321 405.55 369.509C413.254 376.503 421.543 386.234 422.884 396.574C438.102 395.503 426.277 376.281 424.115 367.725C426.166 365.576 433.937 379.658 434.522 381.046C436.154 384.922 435.233 394.985 442.751 390.026C445.531 388.193 441.007 372.932 439.501 370.204C439.182 369.624 432.837 362.251 432.179 361.685C431.195 360.838 420.521 356.302 422.877 354.502C438.907 355.623 444.72 372.701 450.728 384.525C451.829 382.449 456.044 381.116 456.907 379.735C460.709 373.651 451.175 352.426 442.69 350.874C442.354 348.717 445.343 349.849 446.481 350.196C458.954 353.994 464.535 377.263 466.37 378.367C466.981 378.734 469.76 378.809 470.457 378.601C474.15 377.498 470.968 361.027 469.664 357.748C466.857 350.689 457.336 347.791 455.067 340.077C456.396 338.816 469.76 350.249 471.164 351.827C475.942 357.197 477.715 363.707 480.429 370.111C494.56 361.634 480.438 349.865 476.12 340.072C477.796 341.268 480.498 340.042 481.665 341.208C483.033 342.574 489.587 353.238 490.596 355.447C492.001 358.525 493.499 360.705 492.214 364.11C493.596 362.389 498.276 359.346 498.447 357.534C499.007 351.631 489.904 336.831 486.014 331.668C491.482 327.719 503.057 349.329 504.269 353C505.188 355.785 503.3 360.78 508.293 360.5C509.823 350.627 508.052 335.9 500.442 328.473ZM466.198 389.362C464.627 387.809 447.752 392.961 450.115 398.966C453.15 397.194 463.03 394.885 464.941 393.539C466.245 392.62 466.843 389.999 466.198 389.362ZM434.01 406.167C434.813 405.166 433.113 402.373 431.052 402.676C430.649 402.736 425.315 406.085 424.079 406.804C422.507 407.718 420.947 406.572 421.639 409.785C423.496 410.018 433.613 406.662 434.01 406.167Z" fill="black"/>
<path d="M218.933 518.318C231.624 510.42 253.267 528.065 230.973 533.016C218.286 535.833 210.873 523.333 218.933 518.318Z" fill="black"/>
<path d="M443.628 468.4C439.121 473.351 416.006 470.731 419.358 459.922C422.558 449.605 451.354 459.913 443.628 468.4Z" fill="black"/>
<path d="M308.846 498.861C309.741 500.071 308.359 504.797 307.115 505.965C302.506 510.293 284.839 509.066 285.844 500.51C286.597 494.103 306.633 495.868 308.846 498.861Z" fill="black"/>
<path d="M253.56 511.053C257.607 507.173 273.256 506.31 270.352 515.912C267.449 525.512 245.59 518.694 253.56 511.053Z" fill="black"/>
<path d="M477.165 433.994C478.69 436.567 474.542 440.482 471.75 441.009C454.02 444.353 458.512 426.721 471.51 430.485C471.832 430.578 476.998 433.711 477.165 433.994Z" fill="black"/>
<path d="M489.728 249.928L481.734 260.784L455.067 284.77C456.494 281.258 460.46 276.743 463.073 273.924C466.884 269.812 472.909 265.428 476.924 261.533C477.903 260.584 487.289 247.683 489.728 249.928Z" fill="black"/>
<path d="M305.25 456.672C302.987 458.479 296.396 453.065 294.399 452.14C293.173 451.571 291.085 452.212 289.492 451.509C289.193 451.377 285.31 447.213 285.447 446.472C285.917 443.937 287.733 445.474 288.694 445.666C291.256 446.177 306.42 452.521 306.469 453.659C306.476 453.821 305.378 456.569 305.25 456.672Z" fill="black"/>
<path d="M491.711 266.284C488.196 271.008 481.926 275.414 477.987 280.02L467.449 288.377C466.914 286.117 468.76 285.526 469.918 284.174C476.228 276.803 486.502 269.813 492.829 261.943C494.647 262.982 492.481 265.248 491.711 266.284Z" fill="black"/>
<path d="M500.871 272.767C501.85 273.651 487.515 288.62 485.484 290.281C483.607 291.816 481.12 294.325 478.586 294.38C477.589 293.514 494.98 276.422 496.534 275.156C497.925 274.024 498.547 272.24 500.871 272.767Z" fill="black"/>
<path d="M290.387 462.675C283.496 463.938 276.971 458.873 274.298 453.077C275.992 451.752 293.337 460.252 290.387 462.675Z" fill="black"/>
<path d="M346.102 437.432C344.05 439.117 328.938 432.214 327.537 429.036C332.88 428.515 338.566 431.207 343.05 433.796C344.059 434.378 347.942 435.92 346.102 437.432Z" fill="black"/>
<path d="M297.822 437.45C301.502 435.329 313.207 443.76 312.673 446.435C312.065 449.482 309.025 446.951 307.847 446.338C303.975 444.322 300.261 441.001 297.822 437.45Z" fill="black"/>
<path d="M507.055 289.59L499.153 298.71L493.455 302.807C492.093 301.338 505.612 288.264 507.055 289.59Z" fill="black"/>
<path d="M503.347 400.187L498.44 406.839C497.044 407.01 492.286 413.569 490.972 412.189C489.989 411.157 497.911 403.897 499.191 402.771C500.455 401.659 500.708 399.533 503.347 400.187Z" fill="black"/>
<path d="M1073.74 344.028C1077.57 348.847 1077.14 360.508 1075.74 366.297C1047.47 420.027 1031.5 482.957 1004.8 536.628C997.751 550.789 994.191 556.544 976.979 557.701C937.205 560.374 887.463 543.908 854.384 522.722C851.753 521.037 840.326 512.494 839.484 510.74C836.051 503.586 848.819 499.417 854.502 498.904C878.191 496.77 926.035 513.968 947.677 524.734C950.946 526.36 978.724 543.307 980.011 542.013C978.434 523.565 951.629 512.865 935.714 507.499C913.831 500.122 887.992 495.005 864.878 495.132C864.59 487.367 873.873 484.307 878.801 480.67C888.367 473.609 898.716 465.684 909.063 459.306C912.063 457.457 920.533 452.084 923.295 451.472C928.753 450.262 956.428 458.484 965.795 459.062C972.745 459.49 979.349 459.777 985.627 456.71C1011.71 443.97 1017.56 408.887 1035.11 388.179C1037.83 390.062 1036.68 390.38 1035.99 392.595C1024.2 430.274 996.362 469.266 982.752 506.809C981.868 509.245 978.761 518.985 984.316 516.743L1051.25 377.392C1052.23 371.196 1033.47 367.827 1038.74 360.442C1042.61 355.025 1054.02 366.964 1056.13 366.525C1061.09 365.492 1057.9 348.08 1059.88 344.887C1062.77 340.222 1069.99 339.307 1073.74 344.028ZM937.014 464.767C940.183 467.2 972.395 475.598 977.82 476.272C984.45 477.095 978.25 470.431 974.122 469.008C962.985 465.168 947.653 465.449 936.082 461.463C934.799 461.518 936.876 464.66 937.014 464.767ZM916.868 468.685C926.062 468.989 934.325 473.979 942.502 476.867C950.171 479.576 963.812 485.218 971.031 486.47C977.373 487.571 980.485 484.245 973.817 481.324C965.234 477.565 951.213 475.487 941.629 472.907C935.761 471.328 926.001 466.967 920.015 466.229C917.497 465.918 916.348 465.798 916.868 468.685ZM968.869 495.132L966.704 491.837L909.452 473.507C908.782 476.938 910.397 475.443 912.154 476.227C925.386 482.134 944.041 490.394 957.519 494.801C961.723 496.175 964.667 495.266 968.869 495.132ZM930.499 491.539C929.925 494.217 931.91 494.202 933.535 495.19C942.276 500.502 955.044 504.497 963.335 509.533C965.234 510.687 967.744 510.965 967.611 508.962C967.496 507.208 960.743 506.42 959.014 505.313C957.029 504.041 956.726 501.684 954.374 500.201C953.103 499.399 938.282 492.577 936.733 492.086C934.673 491.433 932.624 491.397 930.499 491.539ZM932.966 525.207C932.367 524.632 919.217 521.21 916.874 520.394C918.789 523.567 927.62 526.659 931.326 527.409C933.714 527.893 933.63 525.845 932.966 525.207ZM993.623 534.809C993.78 534.641 993.793 531.802 994.607 530.379C996.494 527.079 999.489 524.837 998.576 520.388C996.816 521.029 995.038 524.711 994.209 526.348C993.626 527.497 989.018 539.753 993.623 534.809ZM925.54 539.603C921.878 536.191 915.182 533.723 910.432 532.045C900.955 528.696 889.511 525.81 879.731 524C892.589 532.988 910.691 534.252 925.54 539.603Z" fill="black"/>
<path d="M1143.07 378.162C1142.67 378.525 1135.71 382.765 1135.07 383.024C1109.99 393.193 1085.71 366.311 1103.83 346.689C1125.44 323.29 1167.12 356.473 1143.07 378.162ZM1135.75 367.47C1136.7 365.891 1136.12 358.959 1135.46 356.836C1132.82 348.312 1118.66 347.334 1112.45 353.85C1101.11 365.741 1117.04 375.812 1128.96 372.285C1129.36 372.166 1135.54 367.822 1135.75 367.47Z" fill="black"/>
<path d="M1181.37 334.857C1169.87 350.113 1135.95 341.598 1137.34 320.412C1139.4 289.105 1202.75 306.516 1181.37 334.857ZM1150.02 330.085C1158.12 338.968 1174.17 330.243 1171.43 320.813C1170.9 318.977 1165.42 313.169 1163.61 312.645C1153.1 309.607 1141.49 320.721 1150.02 330.085Z" fill="black"/>
<path d="M1102.2 411.808C1093.48 418.09 1078.49 412.279 1077.75 401.958C1076.7 387.244 1091.11 385.007 1101.4 392.313C1108.31 397.219 1109.32 406.672 1102.2 411.808ZM1088.48 395.454C1085.18 396.221 1084.32 402.97 1088.62 404.718C1104.62 411.208 1094.12 394.147 1088.48 395.454Z" fill="black"/>
<path d="M1192.97 390.57C1178.64 411.944 1155.28 424.843 1135.76 441.055C1119.33 454.701 1103.95 469.953 1087.08 483.085C1085.24 484.516 1082.75 486.708 1080.3 486.712L1192.97 390.57Z" fill="black"/>
<path d="M1158.82 439.145C1149.76 446.586 1140.24 453.545 1131.05 460.859C1128.62 462.792 1102.62 485.891 1101.36 484.319C1100.92 483.767 1100.89 480.491 1102.89 480.349C1132.69 454.82 1165.46 432.406 1193.6 404.988C1194.88 407.273 1190.75 411.191 1189.29 412.827C1180.19 423.044 1169.27 430.561 1158.82 439.145Z" fill="black"/>
<path d="M1172.49 445.184C1156.18 461.534 1133.86 474.547 1115.94 489.204C1111.26 493.036 1107.03 498.364 1101.97 502.358C1100.58 503.462 1099.98 505.276 1097.64 504.749C1097.11 502.489 1098.96 501.899 1100.11 500.546C1109.86 489.137 1124.43 478.809 1136.08 469.388C1149.6 458.449 1164.38 448.924 1177.5 437.447C1179.23 439.991 1174.38 443.285 1172.49 445.184Z" fill="black"/>
<path d="M1186.78 379.752C1190.41 383.416 1131.68 430.019 1127.1 433.904C1120.4 439.595 1114.26 446.154 1107.56 451.858C1107.01 449.485 1108.12 448.629 1109.34 446.996C1121.71 430.446 1149.4 414.672 1164.52 399.597L1186.78 379.752Z" fill="black"/>
<path d="M1019.27 396.229C1009.84 407.425 992.908 391.083 1006.55 385.654C1014.5 382.489 1026.04 388.196 1019.27 396.229Z" fill="black"/>
<path d="M1155.1 473.999C1143.2 484.415 1128.95 495.886 1116.13 505.284C1110.1 509.706 1103.23 514.902 1096.4 517.966C1103.44 508.796 1114.04 503.424 1122.99 496.32C1134.82 486.936 1145.67 476.396 1158.93 468.701C1161.02 471.038 1156.49 472.781 1155.1 473.999Z" fill="black"/>
<path d="M992.118 434.084C998.115 444.33 976.577 449.346 974.009 440.174C971.65 431.748 988.923 428.625 992.118 434.084Z" fill="black"/>
<path d="M1143.44 495.145C1144.06 497.731 1141.96 497.815 1140.62 499.002C1132.13 506.479 1117.5 516.512 1107.59 522.235C1105.95 523.183 1105.07 524.602 1102.59 523.976L1143.44 495.145Z" fill="black"/>
<path d="M1079.07 495.151C1074.14 500.37 1069.18 506.204 1063.59 510.768C1062.2 511.904 1061.58 513.683 1059.26 513.158C1058.37 512.407 1073.51 497.566 1075.18 496.498C1076.04 495.953 1076.08 494.165 1079.07 495.151Z" fill="black"/>
<path d="M1091.45 497.554C1086.97 502.914 1082.7 508.693 1077.21 513.172C1075.82 514.307 1075.2 516.087 1072.88 515.562C1073.62 512.983 1089.31 495.647 1091.45 497.554Z" fill="black"/>
<path d="M1178.11 264.354C1176.88 266.567 1160.76 282.423 1159.55 281.17L1162.62 276.311L1178.11 264.354Z" fill="black"/>
<path d="M1010.97 417.021C1013.35 419.525 1003.48 423.269 1001.06 420.597C999.646 414.561 1008.97 414.923 1010.97 417.021Z" fill="black"/>
<path d="M1129.84 418.205C1132.07 410.799 1141.54 406.554 1147.15 401.377C1147.56 403.647 1145.53 404.827 1144.1 406.216C1140.01 410.175 1134.03 413.997 1129.84 418.205Z" fill="black"/>
<path d="M972.589 300.402C964.019 310.483 947.155 303.134 935.436 306.417C935.608 307.402 935.173 309.678 935.445 309.999C936.378 311.101 955.146 311.679 952.207 317.261L881.571 368.91C877.348 370.636 881.926 361.123 882.389 360.082C888.613 346.097 899.625 331.449 906.763 317.614L906.971 314.836C903.794 314.857 899.949 312.418 897.045 314.191C896.086 314.777 887.189 330.591 885.697 333.242C876.199 350.121 868.439 368.06 858.709 384.837L814.706 414.588L811.66 414.001L896.25 282.779C901.067 279.982 903.87 275.521 908.792 272.722C929.071 261.19 952.765 271.754 973.236 260.761L1006.33 209.88C1002.11 197.825 1009.04 183.988 1016.62 174.265C1030.57 156.384 1053.64 162.978 1070.32 173.662C1090.32 186.471 1094.18 201.588 1082.05 222.18C1076.51 231.605 1066.74 230.916 1063.28 234.58C1062.07 235.86 1062.08 238.925 1060.51 240.919C1057.86 244.29 1050.71 251.022 1046.88 250.524C1048.34 246.239 1053.14 239.808 1054.27 236.054C1055.04 233.507 1052.49 234.119 1050.74 234.443C1050.24 238.216 1046.99 240.125 1045.39 243.06C1043.52 246.479 1042.26 252.447 1040.22 255.487C1038.01 258.776 1031.44 261.877 1028.92 265.536C1026.79 255.789 1042.03 239.129 1041.93 231.232C1041.88 228.152 1026.67 222.435 1024.74 223.619C1023.09 224.634 1009.99 252.695 1007.02 257.495C1005.01 260.728 1002.35 265.996 998.599 266.769C998.088 273.486 1011.55 270.093 1012.2 273.374C1012.69 275.822 1008.93 277.557 1006.7 277.621C1004.64 277.68 986.205 273.339 986.233 272.153C987.78 268.809 996.645 269.665 997.36 269.143C997.582 268.981 996.631 266.024 997.24 263.753C1000.27 252.463 1011.48 238.663 1015.33 227.105C1015.74 225.89 1016.73 223.004 1015.31 222.274C1007.98 231.297 1003.72 242.12 997.377 251.744C990.931 261.522 986.008 270.163 974.087 273.608C954.469 279.278 937.49 273.907 920.17 284.97C917.329 286.784 898.374 302.359 900.791 305.21C908.244 300.234 918.415 306.734 924.958 305.856C926.505 305.649 934.847 300.402 936.064 300.402H972.589ZM1036.96 174.192C1035.14 172.108 1034.25 175.775 1033.76 176.444C1031.52 179.548 1019.78 198.449 1022.12 200.625C1025.65 203.903 1025.96 196.754 1026.78 194.957C1028.02 192.234 1038.06 175.449 1036.96 174.192ZM1066.36 184.102C1064.05 181.795 1045.94 173.327 1043.31 175.554C1042.77 176.014 1038.37 186.078 1037.18 188.213C1035.18 191.79 1029.18 196.482 1031.93 199.84C1033.53 201.79 1046.12 203.799 1049.38 204.812C1052.04 205.639 1054.21 209.155 1057.88 207.694C1059.17 201.467 1071.97 189.7 1066.36 184.102ZM1062.98 218.655C1065.71 218.936 1066.26 218.938 1067.68 216.626C1070.21 212.522 1073.12 201.966 1074.1 197.024C1071.2 199.118 1061.5 217.166 1062.98 218.655ZM1051.82 219.882C1051.09 219.157 1039.27 214.751 1037.25 214.178C1033.02 212.975 1026.64 212.286 1022.12 211.461C1025.99 219.103 1042.01 224.777 1050.01 222.305C1051.32 221.901 1053.88 221.909 1051.82 219.882ZM935.439 318.439C925.895 316.734 918.806 323.746 915.636 331.644C916.255 332.152 925.393 327.592 926.138 326.83C927.98 324.945 927.789 321.042 928.027 320.829C928.507 320.397 935.865 324.536 935.439 318.439Z" fill="black"/>
<path d="M968.875 158.57C958.716 166.073 949.053 174.164 939.086 181.926C880.166 227.815 834.321 280.326 780.086 330.505C776.448 333.871 772.181 336.933 768.314 340.07C767.461 339.134 771.135 334.875 772.031 333.813C785.613 317.706 804.63 302.82 819.869 287.961C861.296 247.569 905.204 198.711 953.261 166.244C957.667 163.268 963.576 159.363 968.875 158.57Z" fill="black"/>
<path d="M951.535 158.566C953.732 160.279 949.878 161.226 949.215 161.675C924.613 178.342 902.028 193.568 879.855 213.374C853.242 237.148 829.291 263.757 804.239 289.015C793.407 299.936 781.774 310.096 770.79 320.838C770.912 318.211 773.431 315.561 775.095 313.61C785.068 301.919 797.146 291.59 807.884 280.586C845.511 242.027 898.35 184.937 946.412 160.191C947.627 159.565 950.228 157.547 951.535 158.566Z" fill="black"/>
<path d="M923.059 164.581C918.546 169.688 911.96 172.496 906.73 176.663C899.212 182.651 891.283 189.646 884.052 195.801C845.252 228.827 810.284 265.6 774.504 301.604C774.496 299.167 776.776 296.902 778.234 295.023C806.611 258.447 867.182 202.316 905.143 174.215C910.452 170.284 916.088 164.231 923.059 164.581Z" fill="black"/>
<path d="M900.778 169.389C897.196 172.869 892.397 175.196 888.378 178.374C870.756 192.309 849.806 211.999 833.118 227.497C815.655 243.715 799.438 261.335 781.933 277.563C784.059 272.636 788.629 267.54 792.255 263.555C815.554 237.947 857.388 198.334 885.336 177.824C889.966 174.427 894.936 170.542 900.778 169.389Z" fill="black"/>
<path d="M989.919 159.747C988.469 159.828 986.967 160.349 985.766 161.131C954.654 181.371 931.513 204.095 903.507 227.062C902.019 228.283 891.837 236.39 890.874 235.48C891.3 234.111 892.023 232.892 893.054 231.858C911.272 213.583 939.575 189.366 960.824 174.184C963.976 171.932 984.366 158.334 986.162 157.862C988.37 157.283 989.176 157.547 989.919 159.747Z" fill="black"/>
<path d="M845.064 281.181C829.821 304.528 807.96 321.603 787.484 340.114C781.721 345.323 776.89 352.691 769.552 356.899C768.678 355.997 776.998 346.716 778.174 345.448C791.41 331.176 807.699 318.634 821.575 304.648C827.909 298.264 834.204 289.27 840.687 283.54C842.056 282.33 842.854 280.718 845.064 281.181Z" fill="black"/>
<path d="M832.166 316.73C819.32 331.036 803.544 343.032 790.158 356.484L770.784 372.521C769.946 371.575 777.469 363.333 778.639 362.131C789.551 350.906 802.528 341.535 813.961 330.849C822.87 322.523 830.677 312.994 839.279 304.417C839.756 303.942 843.347 301.348 842.578 304.595C838.887 308.446 835.715 312.777 832.166 316.73Z" fill="black"/>
<path d="M873.54 180.207L806.689 237.888C804.197 235.309 820.187 223.084 822.239 221.13C836.269 207.77 851.294 194.665 867.474 183.32C869.279 182.055 871.208 180.06 873.54 180.207Z" fill="black"/>
<path d="M999.818 281.185L989.824 287.783C983.848 289.636 971.48 282.459 967.639 277.579C977.913 276.43 990.414 276.389 999.818 281.185Z" fill="black"/>
<path d="M822.778 340.084C814.649 353.227 801.772 362.594 791.229 373.782L775.737 385.744L822.778 340.084Z" fill="black"/>
<path d="M998.583 164.582L941.637 205.429C952.38 193.909 966.163 185.601 979.071 176.604C980.189 175.825 980.628 174.155 982.031 173.189C986.728 169.956 993.029 165.241 998.583 164.582Z" fill="black"/>
<path d="M959.451 205.931C957.858 207.325 948.329 217.856 946.595 216.252L956.219 205.43L971.338 194.621C973.271 196.708 961.172 204.427 959.451 205.931Z" fill="black"/>
<path d="M929.249 284.782C929.63 285.198 929.724 288.595 927.741 288.75L915.636 295.583C916.175 293.409 928.141 283.573 929.249 284.782Z" fill="black"/>
</svg>
