<svg width="333" height="250" viewBox="0 0 333 250" fill="none" xmlns="http://www.w3.org/2000/svg">
<path d="M101.07 239.426C101.432 239.406 102.179 238.918 102.78 239.171C102.75 239.533 101.591 239.625 101.3 239.651C98.6184 239.892 95.5024 239.67 92.9425 239.969C90.9042 240.207 88.3476 241.924 85.9989 242.442C81.5563 243.42 76.2882 243.278 72.4334 240.668C69.4238 238.631 69.1598 236.476 68.5812 233.107L60.4174 233.764L64.2628 233.027C65.4579 232.813 67.5554 233.027 68.6579 232.746C68.8706 232.692 68.9668 232.188 69.0995 231.969C62.9549 232.401 56.8178 232.797 50.6802 233.25L51.7314 232.483L47.7829 233.121C47.2201 233.739 47.6602 233.456 48.0758 233.409C48.7384 233.335 49.4281 233.165 50.0869 233.053C50.5953 232.967 50.4018 233.065 50.4169 233.509C50.2504 233.627 47.4161 233.623 47.0491 233.821C46.9147 233.894 45.6168 235.652 45.0222 236.082C40.6076 239.268 33.0219 238.513 28.9645 235.06C28.4487 234.621 26.9037 232.681 26.752 232.613C26.208 232.367 24.5238 233.483 24.8913 231.967C25.0788 231.777 26.4965 232.405 26.2072 231.453L18.5789 231.964L19.6288 231.455C16.3686 231.363 13.1324 231.928 9.89536 232.221C9.83335 231.857 10.3615 231.848 10.626 231.784C12.3113 231.377 14.2849 231.245 16.0239 231.142L16.4728 230.683L15.9482 230.426C17.3021 229.861 18.7032 230.134 19.9811 230.07C20.3283 230.053 21.6244 230.007 21.7339 229.654C20.1117 229.626 18.4814 229.679 16.8565 229.662C14.6401 229.64 12.4062 229.371 10.2502 229.222C8.31676 229.089 6.33461 229.583 4.36963 229.393L4.75827 228.879L19.8921 227.848C19.9829 227.186 19.4797 227.123 18.9855 227.066C15.2599 226.635 11.0302 227.568 7.26408 227.334L15.0279 226.567L18.5775 226.562C18.2251 225.801 17.5076 225.263 17.0449 224.59C16.5369 223.852 15.128 220.896 14.7768 220.634C13.3722 219.585 10.3002 220.608 8.78899 217.742C7.47242 215.244 9.0138 214.411 9.11613 212.536C9.22118 210.612 7.85707 209.432 8.64972 207.212C9.36964 205.196 11.6119 205.179 12.0211 204.53C12.6351 203.557 12.1472 202.301 13.5692 200.963C13.94 200.614 14.9751 200.17 15.0869 200.002C15.325 199.644 15.4334 198.139 15.7514 197.436C17.046 194.576 20.8115 193.755 23.4196 195.421C24.8057 192.887 26.3573 190.88 29.628 191.065L20.6838 188.88C17.4763 187.692 11.1703 185.996 12.3858 181.541C13.362 177.963 21.8218 175.153 24.8881 173.379C25.3615 171.058 25.1282 168.647 25.1136 166.286C23.215 165.157 21.3342 164.396 19.8995 162.637C14.8271 156.42 19.304 149.895 25.177 146.459C31.2423 142.91 38.3603 141.867 45.2593 140.936C46.1615 138.182 45.6339 132.411 48.7646 130.933C50.3425 130.187 54.7757 130.062 56.3021 130.91C59.4142 132.641 57.5468 139.878 58.9869 140.89C59.9114 141.539 63.5779 141.509 64.9836 141.716C71.8684 142.73 78.1592 144.29 82.9462 149.596C87.4095 148.19 95.5906 148.634 94.8868 154.928C94.3826 159.437 86.6261 162.55 87.0162 167.891C88.6318 167.912 91.4548 169.801 92.6906 169.905C93.4216 169.967 96.8764 168.3 97.9871 167.989C100.051 167.412 103.423 166.85 105.547 166.869C107.222 166.885 109.55 167.669 111.073 167.66C114.657 167.638 124.963 157.003 128.301 154.408C131.572 151.866 133.423 150.327 137.905 150.687C138.193 150.71 141.762 151.294 140.934 151.967C132.509 152.47 126.597 159.911 120.536 164.824C119.605 165.579 115.124 168.509 114.887 169.078C114.703 169.521 115.078 169.425 115.225 169.513C117.038 170.606 118.52 171.498 119.878 173.196C120.195 173.592 121.935 175.917 120.8 176.149C119.4 175.684 118.692 174.156 117.52 173.187C114.496 170.686 109.181 169.4 105.271 169.444C104.045 169.459 95.9248 170.645 95.9439 171.904C101.453 176.353 102.317 183.558 97.5229 188.881C97.5228 189.678 101.687 189.791 102.398 189.791C115.154 189.775 131.517 185.52 140.944 176.799C141.711 176.09 144.677 172.204 145.044 172.061C145.199 172.001 145.664 171.925 145.674 172.162C144.914 177.485 139.515 181.951 135.123 184.742C124.561 191.456 111.848 192.676 99.4808 192.364C97.3237 192.309 94.675 191.2 92.902 193.113C91.1851 194.967 92.8929 195.782 94.758 195.952C103.179 196.718 116.085 195.244 124.751 194.41C132.288 193.684 140.553 192.909 147.652 190.302C149.878 189.485 155.067 187.731 154.864 185.058C153.127 176.249 152.059 167.265 149.162 158.717C147.599 154.106 145.93 148.657 140.017 148.885C135.371 149.063 132.362 150.356 128.099 151.381C120.525 153.202 114.372 152.867 106.876 151.181C104.963 150.751 103.987 150.69 102.155 150.394C98.113 149.74 93.9278 147.607 90.2362 145.84C82.7968 142.277 76.5542 137.313 74.9198 128.898C74.6747 127.636 74.787 124.897 74.3122 124.108C73.7919 123.244 71.5608 123.429 70.2784 121.878C66.3815 117.163 73.8572 109.204 79.0622 109.233C79.693 108.733 78.8738 104.688 78.8381 103.736C78.4154 92.4622 85.5157 81.8132 94.5408 75.3621C101.927 70.0823 109.307 68.3304 118.45 68.3573C119.278 68.3597 120.022 68.6916 120.8 68.6439C122.641 68.5311 134.81 58.423 137.432 56.5846C140.816 54.2118 144.426 52.1096 147.86 49.8013C152.985 46.3556 157.961 42.6958 163.3 39.5548C163.652 39.0585 162.142 38.3012 161.879 37.9923C158.576 34.1016 158.224 27.9378 163.815 26.0426C164.361 25.8576 164.994 25.9812 165.604 25.733C166.478 25.3773 167.654 23.6402 168.845 22.9851C171.09 21.7498 175.488 21.2554 176.654 24.0639C176.875 24.5963 176.975 25.8958 177.231 26.0718C177.454 26.2245 178.891 26.2884 179.469 26.457C185.262 28.1468 184.747 32.8487 179.618 34.9345C179.432 35.1919 180.517 36.3885 180.682 36.8465C182.758 42.605 173.902 44.6963 169.883 42.6467C169.931 46.2997 170.635 49.9388 170.931 53.5809C171.371 59.0072 171.823 64.8915 171.996 70.288C172.203 76.71 171.465 83.8072 171.99 90.1011C172.273 93.4967 174.133 96.0656 174.763 99.2222C175.729 104.055 174.658 108.587 173.039 113.125C184.605 112.641 186.947 123.14 180.4 130.999C174.817 137.701 168.245 138.831 160.016 139.625C156.888 139.926 155.216 142.524 152.864 144.208C150.972 145.563 148.819 146.591 146.724 147.6C151.681 154.006 153.861 162.157 155.588 169.927C156.431 173.718 157.201 177.778 157.508 181.626C161.926 183.522 163.887 185.769 162.441 190.611C162.233 191.307 161.37 192.31 161.504 192.933C161.625 193.493 163.792 196.053 164.303 196.905C169.89 206.205 168.712 215.917 160.411 223.096L157.514 225.276C158.707 225.466 160.213 225.179 161.336 225.25C161.853 225.283 161.606 225.808 162.108 225.822C165.337 225.913 169.306 225.127 172.619 225.559C173.096 225.621 173.911 225.782 174.091 226.305C172.516 225.964 170.965 226.449 169.355 226.31C169.278 226.57 170.474 226.822 170.538 226.822H175.932L174.618 227.464C175.251 228.422 176.514 226.99 176.985 228.105C173.031 228.01 169.096 228.527 165.145 228.625L168.18 229.142C168.91 229.278 169.584 228.938 170.28 228.882C170.569 228.859 171.261 228.694 171.195 229.134C166.744 229.788 162.327 230.767 157.875 231.42C155.146 231.821 153.313 231.773 150.746 232.469C150.171 232.625 149.22 232.504 148.568 232.741C148.618 233.068 150.083 233.22 150.286 233.211C151.289 233.169 152.504 232.276 152.698 232.232C153.932 231.953 156.395 232.168 157.775 231.969L155.274 232.479C153.244 231.916 152.738 233.265 151.303 233.479C147.142 234.1 142.869 234.248 138.702 234.799C138.424 234.689 138.412 234.423 138.736 234.286C139.818 233.828 142.716 234.017 144.219 233.755C144.685 233.674 145.006 234.039 144.88 233.253C141.091 233.573 137.366 233.86 133.569 234.027L136.198 234.536C133.915 234.701 131.658 235.191 129.359 235.05L131.199 234.793L130.603 234.338L121.064 236.592C120.817 236.53 120.805 236.174 121.089 236.083C121.953 235.807 123.415 235.794 124.356 235.307C124.427 234.897 123.991 235.035 123.707 235.056C121.175 235.235 117.582 235.69 115.084 236.147C113.414 236.453 111.835 237.129 110.151 237.371L113.568 237.628C113.615 238.004 112.879 238.089 112.625 238.116C109.143 238.483 105.144 238.267 101.599 238.657L96.2025 239.426C97.8155 239.362 99.4576 239.513 101.07 239.426ZM163.04 35.7028C163.129 37.3552 166.574 37.3735 167.119 36.2174C167.375 35.675 166.995 34.0846 168.147 34.4363C168.463 34.5327 169.237 36.3832 170.012 36.987C170.931 37.7022 172.448 38.009 173.292 38.6686C174.344 39.4911 174.346 41.113 176 40.7936C177.98 40.4111 178.51 38.4346 177.564 36.8075C176.967 35.7808 175.376 35.459 175.704 34.3384C176.053 33.1477 183.628 31.3832 179.539 28.961C178.67 28.4468 177.669 28.1528 176.658 28.2972C175.93 28.4011 174.568 29.3904 174.094 29.159C172.925 28.5887 174.105 27.1484 174.101 26.3092C174.089 23.1396 169.113 24.3002 168.414 27.194C168.184 28.1453 168.709 29.9305 167.169 29.487C166.741 29.3635 166.38 28.6511 165.863 28.4324C163.811 27.5631 161.764 30.246 162.453 32.2891C163.089 34.174 168.938 36.3452 163.04 35.7028ZM172.772 41.3604C173.195 40.6075 171.046 39.1739 170.936 39.3027C170.966 40.3543 171.981 40.8895 172.772 41.3604ZM166.449 41.6236C165.689 41.0993 157.433 45.8979 156.461 47.0167C159.015 47.369 161.542 48.0424 163.84 49.1943C165.112 49.8319 166.215 50.809 167.511 51.391C167.605 50.2093 166.885 41.924 166.449 41.6236ZM168.563 62.452C168.858 62.156 168.179 54.8613 167.902 54.2252C167.854 54.1161 166.541 52.5965 166.34 52.4093C163.696 49.9367 157.131 47.3448 153.569 48.6946C152.571 49.0728 149.851 51.2769 148.857 52.0621C148.375 52.4423 146.623 53.7202 146.464 54.0967C146.238 54.6293 146.835 54.4535 147.118 54.4762C153.367 54.978 159.131 56.2857 164.436 59.6727C165.544 60.3799 166.659 61.5873 167.631 62.2087C167.953 62.4151 168.155 62.5248 168.563 62.452ZM168.831 76.8573C169.605 77.3866 169.085 73.8764 169.079 73.6528C169.013 71.3515 169.243 66.8898 168.208 64.9887C165.166 59.4045 150.912 55.1708 144.753 55.7676C140.217 56.2073 135.959 61.692 131.991 63.7426C131.92 64.1519 132.358 64.0161 132.641 63.9947C138.578 63.5459 141.685 62.9753 147.779 64.1228C155.673 65.609 164.786 69.8381 168.831 76.8573ZM125.411 69.1383C137.872 71.9636 151.519 75.4279 161.964 82.925C164.662 84.8622 166.043 86.595 168.306 88.8145C169.062 89.5552 169.245 88.4079 169.33 87.7663C170.005 82.6577 169.758 79.8428 166.331 75.8258C159.304 67.5878 145.725 63.7163 135.047 65.0566C131.64 65.4842 127.618 66.3956 125.411 69.1383ZM115.411 71.1989H110.806C106.715 71.1989 100.74 74.3682 97.4354 76.6484C87.1201 83.7651 81.158 94.1521 82.2903 106.792C82.4638 108.729 84.5012 114.374 84.3695 115.301C84.2495 116.145 83.0933 116.358 82.544 116.881C76.1212 122.995 76.851 131.703 83.3051 137.439C83.9178 137.983 89.7613 142.316 90.1493 141.935C89.5526 139.823 89.3352 137.951 90.1009 135.843C90.3653 135.116 91.4497 133.674 91.4475 133.062C91.4447 132.273 90.437 130.347 90.4234 128.955C90.3564 122.094 95.7689 118.117 102.507 120.211C104.824 120.932 106.937 122.859 109.257 123.13C116.426 123.968 123.67 119.205 129.229 125.985C134.608 132.547 129.016 140.805 121.719 142.83C120.523 143.162 118.002 143.242 117.149 143.763C116.498 144.161 115.536 146.033 114.883 146.693C114.169 147.414 112.975 147.989 112.255 148.754C116.101 149.688 120.533 149.453 124.457 148.85C138.544 146.688 146.738 138.595 151.203 125.608C155.122 114.207 155.386 98.9397 154.088 87.0224C153.88 85.1098 153.393 83.151 153.173 81.229C148.582 78.8689 143.712 77.0422 138.769 75.5033C136.64 74.8404 128.568 72.3139 126.924 72.5401C123.111 73.0648 116.939 76.2251 114.487 79.1699C113.569 80.273 113.21 82.2267 111.729 82.0015C111.658 79.6293 114.261 77.4386 116.074 76.0912C118.456 74.3211 121.49 72.782 124.356 71.9673L121.3 71.2301C120.421 71.4438 118.905 70.7685 118.215 70.9228C117.911 70.9907 117.947 71.7638 117.506 72.0892C116.925 72.5172 114.45 73.0678 113.47 73.5458C111.935 74.2955 110.657 75.3927 109.487 76.597C109.076 77.0201 107.374 79.7641 106.729 79.1716C106.004 78.5048 110.801 73.2675 111.906 73.0452L115.411 71.1989ZM163.98 88.2842C161.254 85.7722 158.06 83.7229 154.62 82.2609C155.025 85.3325 155.87 88.2998 156.195 91.3936C157.748 106.195 155.772 129.138 144.882 140.521L137.778 146.307C140.465 146.239 143.289 145.657 145.813 144.775C149.806 143.381 155.867 139.876 155.688 135.118C155.65 134.113 154.402 131.802 155.58 131.418C156.625 131.078 157.353 132.995 158.322 133.557C161.603 135.461 166.156 132.936 167.785 129.985C169.82 126.298 165.748 125.051 162.64 125.197C160.897 125.278 160.309 126.883 159.175 126.981C156.85 127.182 161.061 123.347 161.457 123.027C164.085 120.904 172.668 116.784 175.763 118.823C176.657 119.412 176.905 120.555 175.619 120.532C174.747 120.516 173.657 120.061 172.648 120.052C170.323 120.031 165.629 120.937 164.403 123.079C164.248 123.35 163.931 123.581 164.347 123.81C164.884 124.105 167.143 123.877 168.359 124.26C171.921 125.385 171.54 128.795 169.611 131.255C167.196 134.334 163.754 135.839 159.783 135.474C159.319 135.431 157.847 134.915 157.779 134.991C157.743 135.03 157.6 135.935 157.645 136.034C157.834 136.45 158.618 136.599 159.038 136.716C163.257 137.893 169.443 135.829 173.014 133.553C177.311 130.815 183.401 123.312 179.731 118.288C176.769 114.234 169.528 115.787 165.615 117.575C164.524 118.073 161.935 120.018 161.042 120.072C160.718 120.091 160.206 119.986 160.144 119.681C159.918 118.582 164.263 116.105 165.226 115.651C165.975 115.297 169.386 114.246 169.554 114.092C170.557 113.174 171.874 106.811 171.982 105.278C172.453 98.627 168.766 92.6944 163.98 88.2842ZM76.3765 119.983C76.9776 119.436 77.4778 118.276 78.0519 117.634C78.5238 117.106 80.8128 115.11 80.8811 114.768C81.0076 114.135 80.0051 111.357 79.1719 111.119C76.567 110.373 72.3541 114.885 71.8479 117.227C71.1106 120.64 73.8064 122.32 76.3765 119.983ZM117.78 141.677C124.214 141.06 130.824 134.59 127.621 128.071C124.225 121.158 114.784 125.947 108.779 124.884C104.339 124.098 101.04 119.657 96.5467 122.338C93.8035 123.974 92.3998 127.958 93.5743 130.875C96.0325 129.32 100.024 126.867 102.941 126.531C105.698 126.212 109.067 126.897 111.204 128.687C112.63 129.882 112.249 129.704 113.938 130.644C116.646 132.154 116.776 133.106 118.018 135.658C118.495 136.637 118.485 135.714 118.761 135.511C121.001 133.861 123.114 131.209 118.707 130.878C118.181 129.265 120.959 129.325 121.909 130.184C124.374 132.413 121.278 136.869 118.307 136.278C118.242 138.087 118.583 139.978 117.78 141.677ZM104.045 127.853C102.128 128.001 99.5775 129.153 98.7846 130.955C96.3496 136.491 108.417 139.401 111.162 134.824C113.527 130.883 107.57 127.582 104.045 127.853ZM96.9906 130.62C90.5567 133.454 89.5154 141.323 95.024 145.789C101.209 150.804 113.095 149.316 115.987 141.342C117.056 138.395 116.667 133.489 113.308 132.163C113.338 132.99 112.731 134.091 112.79 134.852C112.825 135.308 113.231 135.683 113.292 136.163C114.163 143.014 106.327 146.604 100.416 144.377C96.8765 143.043 94.3653 139.67 96.0068 135.957C96.25 135.407 97.0246 134.699 97.1206 134.25C97.2784 133.512 96.2855 131.758 96.9906 130.62ZM55.4165 139.879V133.834C55.4165 133.725 54.8128 132.931 54.6455 132.789C53.3394 131.683 48.575 132.706 48.575 134.348V140.136C50.0396 139.334 50.5921 137.895 51.3926 136.598C52.2336 135.236 53.3265 137.847 53.8433 138.458C54.2675 138.961 54.8596 139.519 55.4165 139.879ZM111.2 137.563C109.499 137.722 107.8 138.559 106.06 138.597C104.929 138.621 103.866 138.109 102.782 138.463C103.906 139.883 108.083 141.455 109.747 141.176C110.746 141.008 111.44 138.507 111.2 137.563ZM106.99 142.962C106.921 142.53 106.466 142.509 106.145 142.377C104.608 141.747 102.929 141.342 101.46 140.527L97.2565 137.822C97.4926 142.338 102.952 144.561 106.99 142.962ZM52.4879 138.629C51.5536 138.099 49.895 141.521 48.9747 141.941C48.6699 142.6 49.1365 147.851 49.4282 148.691C49.9751 150.266 52.8949 149.999 54.1607 149.583C55.4018 149.176 55.5675 148.428 55.6746 147.207C55.7596 146.239 55.5296 143.089 55.2927 142.186C55.0192 141.145 53.6649 140.139 52.9017 139.368C52.6951 139.159 52.5333 138.655 52.4879 138.629ZM58.0479 143.609C57.8251 144.312 58.0479 147.687 58.0479 148.753C58.0479 148.79 58.4634 149.219 58.5814 149.273C59.3445 149.624 62.6296 148.388 63.7828 148.186C65.7018 147.85 67.1391 147.677 69.0495 148.287C69.5982 148.462 71.0889 149.219 70.4151 149.909C70.2552 150.073 66.6892 149.367 65.8167 149.397C60.0125 149.592 51.5602 154.776 46.1179 151.413C45.8339 151.237 45.0191 150.565 44.9709 150.304C44.7664 149.194 46.8128 149.833 46.9975 149.655C47.1606 149.497 46.8036 145.751 46.7029 145.181C46.4527 143.766 46.414 143.163 44.7712 143.216C37.9645 143.436 20.9493 147.659 20.9308 156.213C20.9245 159.108 23.3036 163.062 26.6186 162.013C29.5386 161.09 27.8969 156.582 31.5991 156.839C34.6625 157.053 33.879 159.938 34.1069 161.867C34.3007 163.508 35.5228 167.593 37.4937 167.797C38.9856 167.951 40.6277 164.112 41.8659 163.03C43.2633 161.809 44.0117 162.101 45.4314 161.628C46.3431 161.324 46.3431 160.346 47.8007 160.825C49.3491 161.335 50.0829 166.653 53.0511 167.783C57.9955 169.666 59.1009 162.419 61.2048 159.813C61.7462 159.143 62.2215 159.001 63.0622 159.282C63.8645 159.549 64.8092 162.595 65.4678 163.621C69.6662 170.167 69.7324 158.782 73.3783 159.468C74.7619 159.728 75.0015 162.674 77.9398 162.748C82.8634 162.873 82.8478 156.138 81.4331 152.902C78.3476 145.843 67.054 143.642 60.019 143.226C59.5188 143.196 58.2162 143.077 58.0479 143.609ZM85.1937 159.644C85.3814 159.937 87.2297 160.519 87.7911 160.351C89.2696 159.909 92.3248 155.757 92.2784 154.153C92.1718 150.47 85.0197 150.302 84.2207 151.957C84.1203 152.165 85.0494 154.818 85.123 155.468C85.2158 156.288 84.9888 159.325 85.1937 159.644ZM82.5213 168.173C82.9826 168.257 83.1992 167.959 83.4185 167.638C84.3771 166.234 84.7137 163.582 85.9084 162.124C84.9919 161.184 84.7215 161.475 83.9637 162.256C82.3088 163.962 81.8482 165.907 82.5213 168.173ZM78.5098 166.693C77.4342 165.639 75.8524 167.448 74.7501 167.424C74.1186 167.411 73.7777 166.835 73.1985 166.878C72.6854 166.916 71.7495 167.855 71.0036 168.106C69.4171 168.64 67.0479 168.625 65.4989 167.964C64.099 167.366 63.1859 165.52 61.4727 166.765C61.0514 167.071 60.9169 167.603 60.5467 167.916C57.0316 170.884 54.1937 171.242 49.8904 169.332C47.9719 168.48 46.3504 166.082 44.2526 166.383C42.2942 166.665 40.5162 171.818 37.1234 171.785C34.3981 171.76 33.2463 166.777 31.0086 166.417C29.9945 166.254 29.2771 166.827 29.1195 167.804C28.9407 168.913 28.9067 174.197 29.1089 175.242C29.2331 175.884 29.9593 176.409 30.5373 176.675C33.817 178.186 45.2359 177.84 49.2437 177.702C56.5134 177.451 72.3307 176.419 77.7677 171.374C78.732 170.479 79.4061 167.572 78.5098 166.693ZM72.2592 189.528C72.6176 191.783 76.0462 193.209 78.1684 193.391C83.5535 193.854 91.7965 191.369 95.6493 187.568C100.296 182.984 99.904 177.276 94.6002 173.47C89.8149 170.036 84.9633 168.303 79.885 172.415C75.5838 175.898 77.0463 180.161 83.0401 178.072C85.8577 177.089 89.1034 174.229 86.4288 180.098C83.9062 185.634 77.9574 188.185 72.2592 189.528ZM75.6766 174.349C73.8822 174.659 72.333 175.64 70.6182 176.218C60.8803 179.498 46.0731 179.704 35.815 178.718C34.212 178.564 30.5503 177.589 29.2995 177.746C29.1325 177.767 28.6901 177.895 28.622 177.996C28.5191 178.15 28.0461 181.451 28.0894 181.63C28.307 182.526 31.1258 183.029 31.9946 183.225C42.3909 185.568 60.9469 184.98 71.2613 182.248C72.1429 182.015 75.7784 180.909 76.2228 180.408C76.8023 179.755 75.9049 179.506 75.624 178.901C74.8392 177.211 75.1759 176.041 75.6766 174.349ZM84.3599 179.493C82.7085 180.35 80.8197 180.569 79.1045 181.17C63.4741 186.641 48.1242 187.344 31.6402 185.114C30.2254 184.923 25.0596 184.604 24.9971 182.968C24.9567 181.91 28.0705 177.23 24.7259 177.006C22.069 176.827 13.8668 180.668 17.118 184.134C20.4321 187.666 36.7894 189.063 41.8677 189.264C51.1853 189.632 75.092 189.161 82.1168 183.085C83.1414 182.199 84.447 180.929 84.3599 179.493ZM159.017 184.971C157.365 183.625 157.657 186.021 157.225 187.056C156.624 188.496 154.127 189.436 152.691 190.083C143.963 194.011 135.017 195.073 125.523 195.943C115.484 196.862 102.252 198.337 92.3905 197.494C87.1601 197.048 81.2442 194.641 76.7582 198.397L78.0493 200.584C80.2109 198.391 84.0522 197.7 86.4412 199.966C86.8801 200.383 87.2566 201.425 87.6942 201.571C89.7504 202.255 91.6368 200.642 93.9498 203.173C94.4014 203.667 95.078 205.363 95.1892 205.431C95.6109 205.688 96.5562 205.285 97.081 205.308C97.6506 205.333 98.3106 205.686 98.8657 205.589C99.7483 205.435 102.099 203.917 103.238 203.475C108.986 201.247 121.978 198.721 128.161 198.514C130.113 198.449 132.819 199.049 134.476 198.771C135.187 198.651 135.697 198.088 136.448 197.869C142.317 196.164 152.875 196.08 157.862 192.308C159.917 190.754 161.21 186.759 159.017 184.971ZM76.4683 195.184C76.3099 195.053 73.4041 194.521 72.5065 194.039C71.3879 193.437 69.7805 191.455 68.6799 191.327C60.2853 192.738 51.6828 193.224 43.1833 192.608C39.3618 192.331 35.566 191.537 31.7356 191.327L34.948 193.382C35.8244 194.377 36.6143 195.621 36.9308 196.919C37.279 198.348 36.9906 200.629 37.3142 201.689C37.3957 201.956 39.5871 204.106 39.7977 204.145C40.1294 204.207 44.4804 201.761 45.3233 201.393C50.256 199.24 58.8697 197.027 64.2414 196.979C65.6465 196.966 66.9539 197.378 68.4535 197.251C69.6529 197.149 70.7519 196.519 71.8724 196.464C73.9817 196.36 73.9166 197.152 76.1286 195.76C76.318 195.64 76.9048 195.546 76.4683 195.184ZM42.7895 217.304C42.5646 217.158 41.845 212.976 41.6008 212.161C40.909 209.851 39.8759 207.724 38.3049 205.865C37.4437 204.846 35.9556 203.934 35.4724 202.718C34.2573 199.659 35.8189 195.883 32.138 193.888C25.1088 190.078 23.0618 200.973 28.4351 203.167C28.9553 203.379 31.1195 203.575 30.944 204.311C30.8692 204.624 29.0299 205.18 28.4341 205.718C27.7043 206.378 27.1562 208.172 26.8655 208.301C25.5678 208.874 26.5383 206.043 26.4703 205.473C26.0485 205.072 22.6014 206.659 22.2459 207.129C21.8611 207.637 21.8735 208.589 21.3249 209.315C20.9048 209.871 19.9211 210.279 19.7581 210.613C19.4672 211.209 19.7588 211.945 19.334 212.771C19.0109 213.399 17.5301 214.276 17.5063 214.394C17.4043 214.904 17.9029 216.141 17.7647 217.153C17.6445 218.034 16.7502 218.972 16.7917 219.447C16.9196 220.914 20.7358 225.17 22.0204 226.157C23.4858 227.283 25.6875 227.91 26.8711 228.875C29.5648 231.071 29.9821 233.789 34.109 235.175C41.5634 237.68 46.1653 232.39 45.9551 225.396C45.9318 224.624 45.1383 221.834 47.0137 223.333C48.3538 224.404 48.2296 227.361 48.4459 228.882C50.8192 228.888 51.7155 223.573 52.1311 223.479C53.51 223.167 52.212 227.782 51.7327 228.363C57.5574 228.144 63.8023 226.487 68.4558 222.957C67.9982 221.117 66.881 219.141 66.8019 217.105C66.7198 214.989 68.0418 212.375 68.0231 210.996C68.0163 210.496 66.897 209.017 66.6048 208.297C65.4925 205.554 65.0801 203.504 65.9408 200.586C57.5583 200.297 48.5872 201.595 41.794 206.625C42.8926 208.832 43.9842 211.607 44.1111 214.08C44.1467 214.774 44.0298 218.106 42.7895 217.304ZM147.779 226.049C157.849 223.551 166.058 215.11 164.023 204.381C163.612 202.211 161.09 195.731 158.84 195.035C157.745 194.697 153.894 196.212 152.513 196.597C151.034 197.01 149.307 197.104 148.041 197.885C150.655 198.809 154.684 199.7 156.309 202.147C157.027 203.228 156.369 203.387 155.401 202.777C152.894 201.197 152.082 200.185 148.884 199.374C145.096 198.414 141.853 198.466 138.042 199.301L143.398 201.393C153.008 206.054 156.03 214.959 149.575 223.82L147.779 226.049ZM19.5574 196.776C18.8786 196.923 17.7683 197.996 17.5067 198.635C16.4441 201.233 19.3941 205.801 22.5392 204.841C23.3787 204.585 24.2066 203.554 23.9893 202.648C23.8438 202.041 22.1682 197.881 21.8556 197.509C21.2534 196.792 20.4913 196.574 19.5574 196.776ZM73.0575 209.859C73.1302 209.751 74.8377 209.253 75.4155 208.688C78.5754 205.599 75.9403 196.384 70.3444 199.1C67.4673 200.496 67.2281 204.682 68.4427 207.272C68.9216 208.293 71.1151 210.413 71.1708 210.805C71.215 211.116 69.9986 213.823 69.8914 214.863C69.5071 218.595 70.7542 221.86 73.7045 224.249C74.4187 224.828 76.0232 225.232 76.2059 226.192C76.5107 227.793 73.7303 226.422 73.5751 226.563C71.9148 231.642 69.4342 236.861 75.9448 239.551C85.1949 243.372 92.682 236.729 96.8285 229.363C97.2849 228.552 97.826 226.042 98.8374 226.712C98.8529 230.712 96.2706 233.972 94.0974 237.108C101.61 235.166 109.555 235.396 116.718 232.086C120.629 230.278 122.995 227.589 125.809 224.509C126.38 224.402 126.211 224.758 126.198 225.145C126.145 226.718 124.984 228.249 124.359 229.648C133.841 231.306 147.685 228.516 150.657 218.19C154.553 204.656 137.627 200.086 127.124 200.845C126.363 200.9 120.928 201.886 120.674 202.13C120.272 202.516 120.836 202.585 121.006 202.717C124.102 205.099 126.022 204.655 128.516 208.738C129.628 210.558 131.311 214.321 129.489 216.013C128.609 214.625 128.831 213.071 128.093 211.467C124.173 202.958 108.901 202.122 102.17 207.318C100.553 208.566 101.563 208.84 101.464 210.617C106.357 210.46 107.929 215.041 105.147 218.646L99.7415 223.234C97.5417 222.24 94.3915 222.085 93.8976 219.172C93.7901 218.538 93.9517 216.794 93.8005 216.566C93.7204 216.446 91.7702 216.08 91.0687 215.506C90.2922 214.871 89.9232 213.324 89.3623 213.059C88.6804 212.737 87.3775 213.028 86.4483 212.821C84.8377 212.462 84.3812 210.877 83.6457 210.664C82.8645 210.438 81.7274 210.939 80.617 210.809C79.1968 210.642 78.1039 209.445 77.6045 209.371C77.1461 209.304 76.2515 210.333 75.7466 210.555C74.8523 210.947 72.2276 211.093 73.0575 209.859ZM81.9256 200.644C78.6912 201.187 77.5577 208.974 81.0669 209.045C84.7062 209.119 88.3546 199.563 81.9256 200.644ZM15.3372 202.157C15.0881 202.223 14.3923 202.926 14.2569 203.177C12.634 206.193 16.6317 210.721 19.4614 208.522C21.6338 206.835 18.6889 205.834 17.6538 204.703C17.0751 204.071 16.1507 201.941 15.3372 202.157ZM89.2842 203.469C87.1625 203.948 83.6247 210.322 87.1839 211.082C89.231 211.519 92.5101 208.585 92.9322 206.775C93.4519 204.547 91.4717 202.976 89.2842 203.469ZM11.9309 206.797C10.6641 207.039 10.2478 208.782 10.5437 209.852C11.1345 211.989 15.8547 214.114 17.4126 212.18C18.9219 210.306 16.0971 210.222 14.8085 209.285C13.6553 208.446 13.1786 206.559 11.9309 206.797ZM96.9226 207.326C94.8046 207.529 91.2791 210.787 91.78 213.003C92.5375 216.354 98.4455 213.329 99.216 211.12C99.8012 209.442 98.9865 207.129 96.9226 207.326ZM103.76 213.518C101.388 211.201 93.6087 216.616 96.4596 219.754C98.8809 222.419 106.593 216.287 103.76 213.518ZM11.396 213.743C10.1053 214.115 10.2709 216.527 11.1939 217.448C13.6582 219.909 17.8443 216.954 15.44 214.84C14.9341 214.396 11.9975 213.569 11.396 213.743ZM169.353 227.082L164.093 226.824L166.843 227.347L169.353 227.082ZM67.2576 229.137H63.179C62.8648 229.137 61.4519 229.517 61.2068 229.781C61.65 230.275 62.6525 229.651 62.9159 229.651H66.8629C66.9087 229.651 67.2775 229.304 67.2576 229.137ZM160.669 229.397C159.692 229.461 158.619 229.286 157.658 229.407C157.286 229.454 156.984 229.813 156.579 229.896C156.09 229.996 155.015 229.64 154.883 230.163C156.013 230.213 156.944 230.288 157.921 229.664L160.669 229.397ZM64.8893 231.197L58.1744 231.708L57.7861 232.222C59.5418 231.965 61.4003 232.131 63.149 231.937C63.6609 231.88 64.67 231.749 64.8893 231.197Z" fill="black"/>
<path d="M18.6135 86.412C18.835 86.274 19.6763 86.3378 19.9698 86.4297C21.1122 86.7878 24.1357 92.7565 25.152 93.9669C27.02 94.262 28.9317 94.0054 30.8106 94.0944C31.4796 94.126 34.857 94.4072 35.0276 94.6042C35.1545 94.7507 35.3221 95.3063 35.3115 95.5131C35.2709 96.3094 29.6595 101.303 28.892 102.486C29.0233 104.206 32.0672 109.362 31.6907 110.627C31.4353 111.486 30.5859 111.339 29.8812 111.213C27.7942 110.842 23.1551 108.241 21.5969 108.263C20.5126 108.279 15.8162 111.823 14.2497 112.367C13.751 112.54 12.7334 112.871 12.3783 112.37C11.8392 111.61 13.5668 105.259 13.4465 103.854C13.2254 103.472 7.60514 100.316 6.61114 99.4874C5.53358 98.5886 4.51113 97.3982 6.41233 96.7332C8.2937 96.0752 13.9693 95.579 15.1446 94.7229C16.4961 93.7383 18.2254 86.6537 18.6135 86.412ZM23.6425 95.5695C23.3228 95.268 22.4282 93.0285 22.0434 92.3756C21.4079 91.2975 20.5377 90.3563 20.026 89.2056C19.0412 89.6801 17.7493 95.2706 16.6138 96.1592C15.2375 97.2364 10.1293 97.3078 8.31716 98.2106L15.102 102.632C15.4836 105.137 14.5012 107.537 14.6331 110.04C16.1642 109.482 20.2644 106.238 21.5977 106.208C22.485 106.188 28.8545 109.321 29.1003 109.011C28.7886 106.552 27.1279 104.462 26.7735 101.99L32.2605 96.1521C30.699 95.6083 24.4325 96.3144 23.6425 95.5695Z" fill="black"/>
<path d="M51.5113 67.8127L59.4876 68.1194C60.3754 68.2839 60.5384 68.9543 60.3696 69.7249C60.0693 71.0963 55.8152 74.0418 54.932 75.4937C55.2266 78.235 57.1419 80.7481 56.9565 83.5071C56.1751 84.7141 49.5787 81.2664 48.18 81.0761C47.4579 81.1442 42.9701 84.6651 41.7431 85.233C37.9826 86.9731 41.0825 78.5304 40.6321 77.0432C40.2263 75.7033 33.6985 72.9196 33.5901 71.5906C33.574 71.3927 33.7051 71.0338 33.8228 70.8601C34.3797 70.0385 41.094 69.2928 42.4623 68.8255C43.159 67.9195 46.1873 60.748 46.6418 60.6389C47.0142 60.5495 47.6254 60.6139 47.9213 60.9068L51.5113 67.8127ZM49.9561 69.3325C49.4295 68.8359 47.7585 64.2722 47.1277 64.2586C45.8343 65.4793 45.1199 69.3957 43.8349 70.2949C42.7404 71.0609 37.5805 71.3992 37.2599 71.7156C36.8586 72.1117 37.4647 72.1923 37.5945 72.3024C38.3126 72.9114 42.356 75.3886 42.4795 75.7427C42.824 78.0345 41.9726 80.234 41.9979 82.5155C42.2986 82.8563 47.1151 78.9947 47.9421 78.9151C49.1403 78.7998 54.216 81.5524 54.6269 81.2281C54.3883 80.0232 52.3789 75.8946 52.5715 74.9906C52.8751 73.5657 56.5511 71.4469 57.2583 69.9151C55.9001 69.5195 50.6375 69.975 49.9561 69.3325Z" fill="black"/>
<path d="M53.5207 103.666C55.9367 109.372 64.3262 116.899 60.5307 123.4C58.8079 126.351 54.4263 127.051 51.358 128.051C48.5178 126.762 45.9696 126.564 43.8322 124.066C37.8855 117.115 49.213 110.877 51.7783 105.328C52.3032 104.192 51.8932 103.191 53.5207 103.666ZM53.5747 124.961C57.2458 124.749 59.2431 122.225 58.8377 118.657C58.6775 117.247 57.3138 114.971 56.6062 113.637C56.3091 113.076 52.8561 106.736 52.5253 106.955C50.5918 111.314 44.3435 115.006 44.8914 120.203C45.1817 122.957 47.7611 124.852 50.4152 125.216C49.8406 123.026 50.1745 121.069 51.0858 119.044C51.1797 118.835 51.1557 118.317 51.5983 118.531C52.7506 119.088 54.0183 123.651 53.5747 124.961Z" fill="black"/>
<path d="M139.618 235.311C139.727 236.029 139.492 235.79 138.966 235.824C135.08 236.077 131.164 236.106 127.254 236.079L130.544 235.57C133.555 235.42 136.664 235.872 139.618 235.311Z" fill="black"/>
<path d="M115.673 238.141C115.797 238.873 115.519 238.571 115.065 238.69C112.01 239.49 108.276 239.057 105.151 239.682C105.042 238.969 105.274 239.199 105.802 239.168C109.106 238.972 112.427 238.849 115.673 238.141Z" fill="black"/>
<path d="M63.5736 234.796H53.5745V234.538H62.1264C62.4295 234.538 63.2272 233.797 63.5736 234.796Z" fill="black"/>
<path d="M179.222 225.279C179.743 225.31 180.378 225.538 180.93 225.539C180.98 225.977 180.025 225.818 179.737 225.805C179.065 225.775 178.475 225.562 177.903 225.538C176.853 225.496 175.796 225.579 174.746 225.536C174.422 225.523 173.769 225.732 173.827 225.279C175.613 225.357 177.437 225.171 179.222 225.279Z" fill="black"/>
<path d="M2 227.593L4.48719 227.066L6.9995 227.081C7.01873 227.247 6.64966 227.593 6.60487 227.593H2Z" fill="black"/>
<path d="M124.714 108.074C128.105 104.585 132.834 106.889 130.096 111.663C129.479 112.738 127.785 114.614 126.535 114.868C121.724 115.844 122.412 110.443 124.714 108.074Z" fill="black"/>
<path d="M101.936 104.692C107.557 104.256 104.205 112.625 99.9931 113.122C95.0284 113.708 97.4229 105.042 101.936 104.692Z" fill="black"/>
<path d="M119.802 118.091C120.014 118.322 120.23 118.736 120.036 119.045C119.284 120.25 116.824 118.041 115.949 117.618C112.592 115.997 108.732 115.34 105.233 116.94C104.893 117.095 102.917 118.783 102.78 117.881C104.893 113.902 111.193 114.246 114.958 115.5C115.973 115.838 119.154 117.383 119.802 118.091Z" fill="black"/>
<path d="M138.04 93.0615C136.414 93.0153 136.473 90.8263 135.276 89.7206C133.571 88.1466 130.661 88.5134 128.746 89.5069C128.056 89.8649 127.273 90.7838 126.819 90.9667C125.106 91.656 127.437 89.094 127.776 88.8155C132.007 85.3347 138.382 87.2701 138.04 93.0615Z" fill="black"/>
<path d="M95.4144 93.577C94.6066 92.7544 98.0865 90.106 98.749 89.7657C100.402 88.9167 102.885 88.4738 104.732 88.7128C105.462 88.8073 108.935 89.9352 107.526 90.8873C106.88 91.324 105.582 90.3744 104.731 90.2568C102.751 89.9833 100.672 90.294 98.9176 91.2166C98.2325 91.5769 95.7891 93.9586 95.4144 93.577Z" fill="black"/>
<path d="M144.092 122.128C143.607 122.756 140.829 120.869 140.06 120.542C139.224 120.187 134.634 118.982 134.625 118.658C134.618 118.357 135.432 118.039 135.794 117.999C138.125 117.74 143.502 119.561 144.092 122.128Z" fill="black"/>
<path d="M131.461 75.5723C131.555 76.0327 131.232 76.2125 130.921 76.4558C129.386 77.6563 126.327 78.3632 124.232 79.9493C123.772 80.2979 120.229 83.9086 121.708 80.8256C122.811 78.5247 128.9 75.9487 131.461 75.5723Z" fill="black"/>
<path d="M93.3068 115.445C93.9301 116.291 91.3086 116.249 90.9252 116.329C89.4261 116.639 87.9318 117.079 86.5388 117.711C86.2422 117.882 85.7281 117.599 85.6779 117.367C85.3565 115.887 92.5585 114.43 93.3068 115.445Z" fill="black"/>
<path d="M76.47 217.82L78.2603 221.854C79.3292 223.818 81.3969 225.932 83.5783 226.687C84.5393 227.02 86.6837 227.001 87.001 227.2C88.3701 228.055 85.4544 228.141 85.0213 228.104C79.8845 227.663 77.1606 222.254 76.47 217.82Z" fill="black"/>
<path d="M23.0481 215.504C23.0813 215.54 23.0811 216.147 23.2578 216.451C25.5946 220.48 28.9198 223.54 34.0644 222.541C35.1017 222.34 36.2836 221.535 37.1292 221.418C37.6512 221.345 37.6421 221.677 37.4913 222.032C37.1165 222.915 34.3653 223.677 33.4392 223.736C30.032 223.956 26.5207 221.925 24.521 219.341C24.0153 218.687 22.7492 216.58 22.5479 215.864C22.4032 215.349 22.9671 215.416 23.0481 215.504Z" fill="black"/>
<path d="M25.6836 153.769C25.2123 153.306 27.3014 151.486 27.6984 151.239C29.9194 149.858 33.032 149.634 35.4914 150.483C36.0978 150.692 38.3211 151.737 38.3234 152.35C38.3289 153.833 35.3944 151.861 34.5751 151.637C32.6847 151.12 30.8575 151.314 29.0354 152.032C28.3648 152.296 25.992 154.071 25.6836 153.769Z" fill="black"/>
<path d="M40.4174 172.801C40.0279 172.44 40.4436 172.335 40.8075 172.289C42.3173 172.101 43.904 172.299 45.137 173.207C46.0964 173.913 46.124 174.9 45.155 174.479C44.4503 174.173 43.8188 173.606 42.9312 173.305C42.4292 173.135 40.5105 172.888 40.4174 172.801Z" fill="black"/>
<path d="M44.6279 175.121C43.5912 176.541 41.361 175.713 39.8904 175.631C39.8127 174.957 39.9047 175.223 40.2844 175.108C41.4986 174.739 43.2897 175.351 44.6279 175.121Z" fill="black"/>
</svg>
