<svg width="444" height="250" viewBox="0 0 444 250" fill="none" xmlns="http://www.w3.org/2000/svg">
<path d="M139.607 22.2081C140.379 22.675 140.342 26.3863 140.179 27.3205C140.014 28.2618 138.619 31.2243 138.071 32.1155C137.173 33.5741 135.386 34.5846 135.701 36.5004C137.243 35.2381 139.11 36.6907 140.397 37.7014C145.695 41.8629 149.057 47.5446 148.941 54.3189C148.901 56.6929 148.077 61.8306 147.061 63.953C146.779 64.5437 145.746 64.8029 146.022 65.7646C151.277 65.2202 158.559 66.8561 159.608 72.8549C160.682 79.0058 158.807 82.6847 157.021 88.0842C156.73 88.9646 156.739 90.4107 156.314 91.5127C156.184 91.8479 155.419 91.6453 155.792 92.724C156.328 94.276 157.398 93.5071 158.239 93.6085C160.151 93.8393 161.726 95.4994 163.357 96.3414C166.198 97.8077 169.242 98.9176 171.977 100.588C173.485 100.142 174.623 100.088 176.03 99.3169C180.74 96.7373 186.036 88.86 191.448 88.4801C194.09 88.2947 197.367 91.3633 198.309 93.6145C198.688 94.5217 198.417 95.7909 199.304 96.5197C200.195 97.2514 200.868 96.3478 201.673 96.5005C201.99 96.5607 201.991 97.4126 202.696 97.6661C204.022 98.1427 203.607 97.191 203.999 96.7402C204.634 96.01 207.6 92.4739 208.073 92.2878C209.715 91.6414 212.261 92.8441 213.219 94.2101C213.903 95.1866 214.706 97.4213 215.094 98.6045C221.078 116.873 221.002 131.918 217.992 150.746C213.994 175.758 202.34 202.9 180.547 217.833C167.366 226.863 155.55 231.558 139.497 233.296C130.763 234.242 121.538 235.813 112.781 235.981C83.2031 236.551 56.546 224.051 36.8781 202.538C22.6031 186.923 10.7635 161.157 12.1435 139.976C12.3012 137.556 12.8613 133.84 14.858 132.185C16.0777 131.174 16.3062 132.593 16.602 132.652C17.0791 132.748 17.8594 132.513 18.1732 132.695C18.4666 132.865 18.4307 134.569 18.8016 135.212C18.966 135.497 21.2437 137.14 21.5652 137.272C22.9099 137.823 25.5904 137.837 27.1221 138.547C29.3403 138.163 31.2378 132.785 32.778 131.008C34.3594 129.184 38.387 128.146 40.6744 128.928C42.1987 129.449 46.7572 132.07 47.9402 133.127C48.5753 133.694 48.8807 135.014 49.1582 135.215C49.33 135.34 49.9913 134.998 50.4626 135.093C51.3328 135.269 52.5335 135.894 53.5664 135.947C53.7936 134.248 56.5402 130.94 54.9267 129.538C50.625 127.325 46.3418 125.06 42.0916 122.754C41.5404 122.455 40.9031 121.645 40.3537 121.458C38.9608 120.983 36.9079 122.75 37.3367 120.411C36.838 119.912 34.9145 121.511 34.4518 121.906C32.5898 123.497 29.8859 127.441 27.4541 127.862C26.7522 127.983 23.264 128.207 22.7805 128.014C22.6138 127.948 20.8401 126.796 20.7861 126.69C20.2676 125.676 21.1992 123.528 19.1179 122.659C17.6919 122.063 15.293 123.128 13.2776 122.43C12.9696 122.324 9.80333 120.385 9.69417 120.206C9.10198 119.237 9.36411 116.618 9.77493 115.548C10.4194 113.868 14.0124 111.282 13.6364 110.145C13.3865 109.389 11.899 109.763 11.1584 109.584C10.061 109.318 6.26158 105.982 6.07583 105.027C5.96801 104.473 5.97891 102.926 6.08478 102.362C6.16918 101.913 7.40307 100.311 7.672 100.197C11.9255 98.3974 15.6458 98.7606 20.1351 98.1127C20.8348 98.6862 25.6636 99.2249 24.6191 100.562C23.1653 102.423 19.6517 101.271 17.7568 101.274C16.983 101.275 13.8753 101.516 13.2752 101.671C13.0378 101.732 9.98171 103.581 9.81032 103.781C9.12013 104.586 9.57024 105.104 10.3477 105.605C12.6288 107.075 14.0964 106.16 16.5397 106.381C17.4036 106.459 18.1782 106.842 19.0032 106.944C20.1126 107.08 24.9982 106.833 24.4662 109.064C24.0575 110.778 23.28 110.317 22.0933 110.644C21.0888 110.92 19.8991 111.054 19.1345 111.316C18.2187 111.631 13.0326 115.869 13.1007 116.624C13.1881 117.593 14.631 118.901 15.6323 118.897C16.4936 118.894 17.949 117.783 18.7482 117.506C19.272 117.325 19.9053 117.45 20.5552 117.193C22.0571 116.599 26.0299 114.029 27.328 114.882C27.7746 115.175 27.6718 115.536 27.4756 115.935C27.2172 116.461 24.6375 118.256 23.9938 119.153C22.6688 120.999 22.5547 121.646 24.0013 123.46C26.6652 126.8 28.4439 121.799 29.8408 120.506C30.6009 119.803 35.9547 115.941 36.6892 115.786C37.1055 115.699 37.6346 115.99 38.0938 115.956C39.5267 115.851 39.4369 114.776 40.2152 114.135C41.6745 112.935 43.7414 112.415 44.3706 110.147C45.1454 110.026 45.4477 108.273 45.9853 108.471C47.1409 108.897 46.7491 110.731 46.4631 111.622C46.2998 112.131 43.6565 116.161 43.3261 116.449C42.8849 116.833 41.4222 116.806 42.2612 118.262C42.5162 118.704 50.2977 122.042 51.5739 122.684C53.6704 123.739 55.6283 125.157 57.7713 126.144C62.552 128.346 67.8994 129.891 72.9498 131.377L73.7655 131.016C71.1593 126.485 70.6225 121.292 69.1954 116.368C68.7689 115.013 71.6458 115.381 72.2499 115.785C72.4514 115.919 73.5284 118.405 73.6803 118.856C75.9595 125.623 75.0966 127.588 80.6003 133.251C81.1653 133.833 82.384 134.046 82.2776 135.174C82.2625 135.334 80.8592 137.923 80.7247 138.015C80.3714 138.258 79.5381 137.352 79.1105 137.454C78.6407 137.566 77.4443 139.777 77.1083 140.273C73.9713 144.904 70.0921 150.314 69.6309 156.148C69.6019 156.514 69.5312 159.156 69.5618 159.313C69.7297 160.177 71.1277 161.392 71.0384 162.519C71.7893 162.592 72.013 161.827 72.5761 161.496C74.4728 160.38 74.5699 159.884 76.1331 158.653C78.9049 156.47 82.8432 153.235 85.6814 151.393C86.3177 150.981 87.0891 150.951 87.4237 150.718C88.1197 150.234 87.7963 148.167 89.4063 148.154C89.8471 148.151 91.7857 150.815 92.3179 151.289C94.2953 153.049 98.1766 154.024 100.747 155.241C104.017 156.79 107.238 158.558 110.499 160.128C110.752 159.195 109.834 158.426 109.892 157.614C109.952 156.787 113.079 149.054 113.629 148.274C113.941 147.832 115.277 146.833 115.801 146.083C116.285 145.39 116.306 143.461 117.592 145.271C119.235 147.582 116.066 150.264 115.495 152.657C115.443 152.872 115.215 155.191 115.209 155.498C115.135 159.43 117.864 155.173 118.542 154.452C119.598 153.33 121.031 151.845 122.241 150.923C123.652 149.848 125.998 148.163 127.793 148.796C128.6 149.716 125.069 152.472 124.482 153.199C123.403 154.535 120.552 158.609 124.05 158.838C124.662 158.878 127.564 158.649 128.095 158.474C129.827 157.899 133.129 152.509 134.51 152.798C137.146 153.349 134.209 156.581 133.277 157.599C132.277 158.693 131.275 159.614 129.936 160.279C129.935 160.618 134.595 162.644 135.39 161.765L150.426 148.475C152.368 146.468 154.467 144.488 156.238 142.409C159.326 138.783 156.205 132.822 154.976 129.072C153.801 125.487 152.757 121.685 151.397 118.259C148.918 112.019 142.754 106.084 135.849 105.185C134.03 104.948 130.262 104.635 128.549 104.87C127.361 105.033 125.527 106.344 124.571 107.079C122.34 108.795 119.391 111.412 118.081 113.924C117.991 114.097 117.601 114.132 117.566 114.214C117.311 114.821 117.609 115.626 117.414 116.315C117.097 117.43 116.453 118.42 116.301 119.699C116.159 120.898 116.82 125.294 116.283 125.653C115.877 125.924 114.156 125.923 113.54 126.683C112.807 124.086 111.782 121.495 112.003 118.755C112.998 116.176 113.708 114.067 114.014 111.411C114.381 108.23 116.542 107.858 118.673 106.205C120.873 104.498 123.068 102.763 125.223 101.002C125.557 100.729 126.089 100.714 126.427 100.394C127.886 99.0111 126.485 95.467 128.11 94.5851C130.153 93.4769 129.707 95.7903 130.228 96.3796C131.279 97.569 135.125 98.3959 136.695 97.9526C136.854 97.908 138.908 96.7028 139.533 96.4046C146.217 93.2181 152.219 87.084 154.134 79.5701C155.3 74.9947 153.064 69.9231 147.736 69.9665C143.92 69.9976 137.977 72.9094 134.397 74.4894C133.844 74.7337 133.551 75.4152 133.057 75.5596C131.302 76.0728 131.141 75.294 131.455 73.6844C131.874 71.5333 136.364 70.3253 137.965 69.0407C141.394 66.2901 144.982 56.0051 144.477 51.9027C144.139 49.1627 141.402 44.0116 139.652 41.8028C138.909 40.8662 136.944 39.6074 136.294 38.7528C135.252 37.3842 135.726 36.5988 133.312 36.0755C131.844 35.7572 129.908 37.0381 129.635 34.8288C129.563 34.2488 130.692 30.6917 130.878 30.5643C131.25 30.3112 132.569 30.83 133.446 30.2523C135.041 29.2014 135.81 25.4652 137.032 23.7763C137.472 23.1697 138.789 21.7137 139.607 22.2081ZM208.859 98.0151C208.431 97.5886 204.98 99.932 204.48 100.426C204.131 100.773 204.032 101.418 203.55 101.901C202.958 102.494 201.369 103.312 200.517 103.4C198.712 103.586 195.732 102.205 194.601 100.845C194.006 100.128 192.32 96.7541 192.062 95.8768C191.851 95.1588 191.974 93.8938 191.721 93.5245C191.654 93.4262 189.743 92.341 189.625 92.3611C188.963 92.4733 186.027 95.8457 185.247 96.5052C181.944 99.2995 178.074 102.054 174.692 104.583C174.398 104.803 174.336 105.325 174.044 105.501C173.196 106.011 171.528 105.704 170.49 105.812C169.771 105.887 168.896 106.371 168.29 106.371C167.501 106.372 166.72 105.274 166.198 106.07C165.537 107.079 165.997 112.184 165.422 113.693C165.211 114.621 165.918 115.333 166.04 116.099C166.183 116.99 165.828 118.098 166.212 118.916C166.935 120.452 167.362 118.922 167.713 118.619C169.261 117.285 171.603 114.657 173.749 115.387L182.148 123.844C183.201 126.961 184.098 125.16 185.304 123.37C186.309 121.879 187.426 120.301 188.386 118.639C188.868 117.804 188.8 117.511 189.428 116.605C189.612 116.341 189.612 115.896 189.804 115.706C190.318 115.196 193.002 115.252 193.817 115.353C194.326 115.416 194.72 115.804 195.116 115.867C196.184 116.036 197.303 115.771 198.323 116.296C199.434 116.869 201.926 123.338 203.254 118.93C204.22 115.724 204.368 116.1 205.839 113.409C207.61 110.167 208.921 106.985 209.162 103.239C209.274 101.486 209.141 99.7402 208.859 98.0151ZM160.251 102.755C160.353 102.588 160.519 100.013 160.398 99.5738C160.212 98.8963 157.89 95.6545 157.404 95.6334C156.172 95.5801 157.487 98.5164 157.538 98.7803C157.752 99.8882 157.661 103.136 159.477 102.999C159.651 102.986 160.205 102.83 160.251 102.755ZM182.343 207.207C204.683 186.023 212.831 154.304 213.097 124.755C213.128 121.331 213.566 115.955 213.125 112.785C213.012 111.976 212.569 111.441 212.047 110.858C211.128 113.715 209.998 116.426 208.559 119.071C207.407 121.19 206.269 123.415 205.085 125.507C204.29 126.912 203.885 127.69 202.103 127.206C201.889 127.148 198.406 125.183 198.239 125.038C197.862 124.714 197.688 122.509 196.929 121.697C196.414 121.146 194.755 120.513 193.995 120.856C192.238 121.649 189.687 128.454 188.226 130.342C187.914 130.746 187.284 130.892 186.872 131.483C182.707 137.459 178.61 143.483 174.571 149.542C172.434 151.373 170.812 149.033 169.168 148.259C166.882 147.183 164.082 146.599 161.88 145.259C160.883 144.953 160.066 145.595 159.314 146.114C158.907 146.395 157.483 147.845 157.053 148.288C151.729 153.778 147.017 161.628 140.664 166.06C138.891 167.296 137.292 167.084 135.274 166.668C130.612 165.708 129.221 163.732 125.689 162.061C124.75 161.617 123.78 161.35 122.775 161.109C120.397 163.55 119.433 168.434 114.915 167.58C113.32 167.279 111.169 165.193 109.871 164.482C108.469 163.713 106.287 163.197 104.714 162.387C102.036 161.009 99.5162 159.185 96.7453 157.983C95.4414 157.417 90.5079 155.521 89.3954 155.622C87.1029 156.736 84.8069 157.781 82.6487 159.143C81.3307 159.975 79.4723 161.296 78.1694 162.221C76.1216 163.674 73.5156 166.582 71.02 167.427C68.9657 168.123 68.9492 166.701 67.552 165.497C65.6539 163.862 64.0711 163.659 62.0845 162.514C60.3816 161.532 58.6366 159.734 56.991 158.564C51.3107 154.525 48.5245 152.453 44.006 147.071C43.5019 146.471 43.5483 145.31 42.3447 144.902C41.2602 148.165 39.4029 151.328 38.1195 154.478C37.7419 155.405 38.0203 156.527 37.1704 157.427C35.1604 159.554 31.9756 158.917 30.0429 157.003C25.9124 152.912 22.7936 146.255 19.974 141.226C19.4158 140.23 19.4182 138.954 17.9116 138.33C17.9011 144.682 19.5372 150.962 21.1752 157.066C27.5702 180.894 42.3826 200.129 62.7431 214.423C82.5477 228.327 112.593 232.017 135.442 223.932C136.286 223.634 140.412 221.571 140.857 221.946C140.286 223.555 138.554 224.54 137.17 225.333C135.342 226.38 132.171 227.879 130.209 228.639C129.233 229.017 125.252 229.739 124.772 230.311C124.738 230.351 124.659 230.939 124.922 230.904C128.863 230.796 133.208 229.619 136.867 228.021C142.351 225.625 147.749 221.987 153.474 219.868L154.215 219.855L154.069 220.754C151.429 222.237 149.033 224.684 146.304 225.961C145.441 226.366 144.498 225.686 144.504 227.318C153.788 224.935 163.071 220.957 171.139 215.746C174.655 213.475 179.335 210.059 182.343 207.207ZM171.822 144.6C171.313 142.162 172.514 140.145 172.108 137.603C171.622 134.558 164.97 127.64 162.723 125.036C161.835 124.008 156.749 117.463 155.886 117.433C155.696 117.426 155.248 118.046 155.561 118.337C156.487 119.644 156.59 121.372 157.122 122.781C157.693 124.295 158.021 125.102 158.565 126.732C159.086 128.297 160.558 129.728 161.118 131.094C161.587 132.236 162.062 134.839 162.338 136.165C162.511 137 162.261 137.782 162.58 138.617C163.155 140.12 165.835 140.941 167.242 141.493L171.822 144.6ZM58.5906 131.463C58.2146 131.803 57.8804 140.346 57.9677 141.479C58.0899 143.066 58.5502 143.203 59.1842 141.753C60.0804 139.704 60.506 137.987 60.8247 135.841C60.9855 134.758 61.9293 134.307 60.8849 132.934C60.6383 132.61 58.8585 131.22 58.5906 131.463ZM44.6237 136.834C43.8028 134.628 42.1438 134.493 40.4606 133.616C39.5627 133.148 39.2211 132.068 37.945 132.361C38.3267 133.51 39.7063 134.294 40.7697 134.813C41.1307 134.989 41.5671 134.695 42.0477 135.014C42.9275 135.598 42.9917 137.238 44.6237 136.834ZM71.6409 135.644C70.1665 135.427 70.3897 136.661 70.4297 137.732C71.3331 138.02 71.8066 135.801 71.6409 135.644Z" fill="black"/>
<path d="M35.8197 100.256C35.998 99.6472 37.4193 99.3899 37.6653 99.0131C38.8099 97.26 37.3774 97.5402 36.6111 97.0911C36.0242 96.7471 35.5666 95.7685 34.9786 95.3458C31.2848 92.6906 25.8697 88.9656 21.3072 88.8261C20.9523 88.8152 20.4314 88.7857 20.3384 89.212C20.1857 89.9115 26.232 95.0384 26.6376 96.4471C26.7855 96.9607 26.7148 97.4971 26.7138 98.0176C26.0321 97.891 24.5388 98.2382 24.042 97.9529C23.8279 97.8299 22.1813 95.6717 21.7097 95.3246C19.6966 93.843 20.1188 94.5893 18.2114 92.4927C16.8054 90.9472 15.0732 90.361 15.9496 87.8756C16.0194 87.6778 17.4924 85.7028 17.6146 85.6333L21.6692 84.2783C23.277 85.2695 25.7788 85.4569 27.2973 86.2428C30.4796 87.8898 31.6877 90.1135 35.6015 90.914C36.0352 91.0027 36.4758 91.458 36.864 91.4658C37.0597 91.4697 38.753 88.9523 39.3113 88.4611C42.881 85.3206 45.4439 85.1509 48.0724 89.3982C49.9693 92.4632 49.8527 96.4084 51.6573 99.0233C51.7201 99.1143 53.1051 100.565 53.2078 100.608C53.6507 100.796 54.1733 100.653 54.6204 100.87C56.1368 101.605 62.6422 105.17 63.923 103.413C64.3948 102.767 63.0051 100.903 62.5359 100.256C60.9548 98.0756 57.6187 95.3248 56.7509 92.8058C55.1529 88.167 54.7765 80.9476 56.6766 76.2778C57.1113 75.2097 61.6096 70.0629 62.6841 69.3464C64.7688 67.9563 66.485 69.3136 64.8915 65.688C64.4534 64.6911 63.8535 63.6762 63.4787 62.8328C54.8445 43.4028 74.1855 27.6388 91.6087 23.4419C94.3792 22.7745 104.087 22.1957 106.632 22.8369C107.264 22.9962 107.837 23.7726 108.408 24.0757C109.811 24.8197 111.141 25.1163 112.187 26.6292C112.631 27.2702 113.548 29.9769 112.937 30.389C112.285 30.8287 109.086 28.6712 108.019 28.3404C96.1346 24.6544 80.0787 32.823 72.5754 41.8181C71.0302 43.6706 67.9905 47.5966 67.7121 49.8054C67.322 52.9 67.8052 58.2454 68.4372 61.3034C68.7529 62.8313 70.0745 64.7885 70.4013 66.5376C70.9601 69.529 70.236 69.2206 68.6079 70.9916C68.2559 71.3745 67.7342 72.5581 67.6568 72.6124C67.4633 72.7481 66.4318 72.0536 65.5689 72.4772C65.3364 72.5913 62.4918 76.2867 62.3887 76.5214C56.9424 88.9193 65.615 100.532 76.3449 106.679C80.3602 108.98 90.9881 112.119 95.4683 111.748C97.3989 111.589 99.4392 111.01 101.39 110.855C102.491 113.231 99.5185 114.619 97.6523 115.416C97.3137 115.561 95.9158 115.991 95.4057 116.162C92.9128 116.995 92.5763 116.265 90.325 116.22C87.8531 116.171 85.4516 116.492 83.0409 116.544C82.3873 116.559 81.6699 115.952 81.0427 116.374C80.8295 116.518 80.8148 117.02 80.7113 117.096C80.2885 117.403 78.9488 116.188 78.6307 115.784C82.6362 114.713 76.5573 111.541 74.9466 110.742C72.9618 109.758 71.4555 109.496 69.3886 109.043C66.0737 108.316 62.7596 107.6 59.3628 106.96C55.4408 106.22 51.4604 102.55 47.9442 100.872C47.3141 100.571 46.4223 100.763 45.8383 100.255C45.1121 99.6224 46.1411 99.3617 46.1437 98.7648C46.1454 98.3851 45.6076 98.0135 45.5451 97.5556C45.4393 96.7806 45.6566 95.9389 45.5176 95.196C45.2878 93.9673 44.6203 91.9682 44.1477 90.871C40.9517 89.8165 41.6172 92.1329 41.2684 93.9696C41.1482 94.6024 40.7494 95.0316 40.6676 95.7676C40.5107 97.1783 41.0076 100.002 40.6267 101.103C40.4509 101.611 39.3439 101.959 38.8829 102.374C38.0327 103.138 37.1332 104.589 35.8197 104.885C36.0478 103.646 35.5079 101.321 35.8197 100.256Z" fill="black"/>
<path d="M107.034 104.757C106.808 105.072 105.46 106.332 105.092 106.573C99.9295 109.952 95.3221 106.655 92.161 102.469C90.0671 99.6958 87.4869 94.3721 84.4884 92.6961C82.956 91.8396 80.2492 91.3584 79.0636 90.2681C78.5791 89.8225 76.5885 87.2854 76.5458 86.7605C76.5205 86.4504 77.8996 84.1445 78.5811 84.6079C78.7024 84.6904 79.8008 86.2578 80.4713 86.793C86.7676 91.8197 102.4 89.8352 108.039 84.3965C108.63 83.826 109.075 82.794 109.585 82.3337C111.656 80.4639 116.087 82.0728 117.206 84.4101C118.555 87.2249 112.877 85.4103 112.167 86.367C111.915 87.7919 110.908 89.4638 110.571 90.7695C109.462 95.0711 109.805 100.88 107.034 104.757ZM96.3384 102.093C96.913 102.642 99.4853 104.658 100.105 104.824C103.015 105.606 105.669 99.8567 106.402 97.7173C108.103 92.7503 106.255 94.7142 103.395 95.3839C101.445 95.8405 99.3732 96.0814 97.4572 96.9815C97.0419 97.1766 96.8651 97.7737 96.3181 97.9513C95.4443 98.235 94.4495 97.8026 93.8642 99.0584C93.8604 99.2528 96.0104 101.779 96.3384 102.093Z" fill="black"/>
<path d="M128.798 119.446C128.822 119.504 129.242 119.603 129.417 119.887C131.825 123.79 134.415 127.085 136.137 131.477C136.372 132.076 136.203 132.88 136.446 133.264C136.986 134.116 137.475 132.872 138.034 132.715C138.65 132.542 139.376 132.749 140.03 132.588C141.087 132.328 143.144 130.761 142.83 133.296C142.711 134.261 140.794 135.79 139.937 136.08C138.558 136.547 136.382 136.787 134.966 137.161C134.734 137.222 133.334 137.675 133.269 137.737C132.791 138.194 133.522 138.295 133.658 138.415C134.905 139.517 137.53 140.97 138.193 142.296C138.982 143.875 139.321 146.356 138.28 147.889C137.967 148.35 137.969 148.119 137.666 147.892C136.82 147.258 137.108 146.1 136.476 145.179C135.555 143.835 131.88 140.845 130.353 140.154C124.914 137.693 112.633 138.47 110.587 145.133C110.002 147.04 111.049 148.323 110.975 148.483C110.318 149.896 107.772 148.589 107.327 147.274C106.421 144.592 108.036 142.039 109.737 140.118C116.151 132.876 124.487 137.594 132.342 133.986C132.527 133.901 133.074 133.402 133.137 133.253C133.269 132.944 130.935 129.503 130.625 128.837C129.991 127.475 128.219 123.281 127.876 121.985C127.708 121.347 127.682 118.532 127.846 117.915C128.357 115.992 128.747 119.322 128.798 119.446Z" fill="black"/>
<path d="M202.484 219.258C202.616 219.768 202.276 219.855 202.034 220.156C200.299 222.319 192.104 223.256 189.006 224.064C181.703 225.968 173.917 229.096 166.441 230.234C165.901 230.316 164.081 230.529 163.933 229.853C163.861 229.528 165.893 227.867 166.16 227.725C166.97 227.296 168.298 227.135 169.154 226.697C169.729 226.404 170.815 225.103 171.25 224.813C174.959 222.341 184.301 217.123 188.657 217.782C192.568 218.373 196.118 218.221 199.889 218.676C200.68 218.771 201.488 219.552 202.484 219.258Z" fill="black"/>
<path d="M89.1921 67.2026C88.9306 67.4257 87.8622 67.089 87.7328 67.8521C89.1556 67.7623 89.3379 68.815 90.0096 69.3482C91.0716 70.1914 93.5027 71.2975 92.4489 72.9593C92.406 73.0269 90.9978 73.485 90.917 73.48C90.6849 73.4655 90.207 72.4749 89.8701 72.1731C88.8401 71.2504 87.0755 70.5046 85.7432 70.2601C83.5405 69.8559 79.7452 72.298 80.2108 74.7983C80.9081 78.5434 84.2989 77.9556 84.9983 81.2922C83.7962 81.1577 82.1857 81.5671 81.0665 81.1314C79.8418 80.6545 77.6385 77.6155 77.429 76.3481C77.2962 75.5449 77.1647 71.7538 77.4223 71.0739C77.5603 70.7098 78.1699 70.6798 78.4066 70.1843C79.1119 68.7079 79.4963 66.1459 80.4336 64.4092C80.769 63.7876 83.6141 60.6948 83.9375 60.6968C84.016 60.6972 84.5463 60.1455 84.9915 59.9991C87.5464 59.1584 88.2554 59.8022 89.4042 60.6968C90.1317 61.2632 89.9759 64.4479 89.8131 65.5407C89.7975 65.6453 89.2601 67.1445 89.1921 67.2026Z" fill="black"/>
<path d="M114.258 24.1426C112.752 22.6315 110.631 20.7842 108.684 19.924C107.429 19.3696 107.474 19.5092 106.223 18.7736C104.688 17.8717 101.378 16.472 100.465 15.1578C99.925 14.3806 101.102 13.356 101.855 13.2147C107.843 12.0931 113.37 15.5264 117.032 19.7736C119.596 22.747 120.302 26.2429 121.684 29.8376C121.428 31.26 119.198 31.5351 118.219 30.8494C117.73 30.5067 116.432 26.8346 115.911 25.953C115.326 24.963 114.937 24.8237 114.258 24.1426Z" fill="black"/>
<path d="M108.327 63.1251C109.818 65.1264 108.457 70.4202 108.212 71.1276C107.572 72.9702 104.182 75.5757 102.085 74.7881C101.621 74.614 99.7882 74.0742 99.0195 72.1318C98.4572 70.7112 99.0751 67.8391 99.8627 66.4994C100.385 65.6107 102.835 61.9915 105.265 61.945C107.038 61.9111 107.789 62.4033 108.327 63.1251Z" fill="black"/>
<path d="M130.446 18.6763C132.072 19.8571 131.539 24.8455 130.899 26.5544C130.612 27.3206 128.499 31.1786 128.017 31.6322C127.195 32.4057 123.689 33.3802 123.681 32.0094C123.679 31.6518 123.829 29.7144 123.896 29.5206C124.078 28.9893 124.987 29.0582 125.396 28.6076C125.978 27.9669 127.024 23.6402 127.173 22.5911C127.315 21.5974 126.946 19.9624 127.345 19.1766C127.773 18.3323 129.698 18.1326 130.446 18.6763Z" fill="black"/>
<path d="M113.409 45.2866C116.268 47.8215 118.014 50.7901 117.482 54.7161C116.009 54.9819 116.43 53.6404 115.929 52.8124C115.463 52.0435 112.415 47.7987 111.914 47.3553C110.621 46.2109 108.453 45.4677 106.722 45.777C105.262 46.038 103.485 48.2555 102.004 46.7878C101.788 45.7247 106.161 43.2428 107.028 43.0895C109.925 42.5769 111.426 43.5285 113.409 45.2866Z" fill="black"/>
<path d="M140.358 81.3968C138.736 82.9314 141.764 83.4868 142.372 85.0315C142.988 86.5977 142.994 88.7358 140.931 88.9997C138.071 89.3657 141.77 85.4718 137.09 86.0989C135.634 86.294 133.494 88.1788 134.215 85.0749C137.186 82.6827 138.679 77.8773 142.976 77.5337C144.554 77.4076 143.44 79.181 142.84 79.808C142.279 80.3939 140.969 80.819 140.358 81.3968Z" fill="black"/>
<path d="M87.7341 43.0699C87.7833 43.1164 87.7796 44.1694 87.731 44.4126C87.4076 46.0297 85.69 44.7081 84.8302 44.5796C82.5628 44.2407 79.2256 46.5006 78.0679 48.3468C77.459 49.3179 77.4287 50.9188 77.0388 51.3615C75.5075 53.1 75.8059 47.6271 75.962 46.8724C76.1515 45.9557 77.5392 44.3341 78.3355 43.832C79.7727 42.9259 83.1789 41.8577 84.8437 42.1797C85.5015 42.3069 86.0148 42.373 86.4557 42.5052C86.9069 42.6405 87.671 43.0101 87.7341 43.0699Z" fill="black"/>
<path d="M54.7574 185.702C61.5235 194.376 70.3118 201.738 79.2141 208.078L86.8198 213.581C86.002 213.841 85.2204 213.678 84.4247 213.401C74.1728 209.827 58.201 194.706 52.0822 185.791C50.0495 182.83 47.7196 178.931 47.3574 175.362C48.8741 175.155 48.6148 176.345 49.0595 177.118C50.6871 179.95 52.7488 183.126 54.7574 185.702Z" fill="black"/>
<path d="M54.7686 199.424C58.9759 204.155 63.8143 208.149 68.9074 211.946C69.1535 212.766 67.4796 211.848 67.2765 211.757C57.6558 207.428 50.4653 199.448 44.8153 190.849C40.8481 184.812 37.0812 177.696 35.8213 170.584L36.9974 171.066C41.5201 181.198 47.3482 191.08 54.7686 199.424Z" fill="black"/>
</svg>
