<svg width="1280" height="720" viewBox="0 0 1280 720" fill="none" xmlns="http://www.w3.org/2000/svg">
<path d="M442.755 351.478L475.71 409.395C465.792 405.379 460.013 396.295 451.761 390.09L465.223 417.574C463.209 419.335 458.426 415.046 457.029 413.814C440.265 399.023 430.695 376.705 414.297 361.874C419.967 393.631 407.886 432.887 377.348 447.792C324.688 473.493 262.85 460.008 230.509 411.072C228.314 407.751 220.084 390.45 218.4 390.041C213.092 388.75 185.34 397.803 182.658 401.956C180.021 406.039 194.391 425.174 197.892 428.544C205.296 435.671 226.897 444.057 237.128 447.581C251.654 452.585 267.121 456.679 282.397 458.418L268.183 459.873C240.248 457.098 213.751 448.049 187.992 437.627C198.877 447.548 213.851 454.315 227.414 460.177C234.164 463.094 243.231 464.769 249.75 467.436C250.276 467.652 255.417 471.833 253.916 473.253C235.101 465.864 244.323 477.436 255.011 480.348C258.847 481.393 277.077 482.564 279.353 479.111C281.364 476.061 278.552 473.586 274.908 474.734C274.65 473.111 274.936 471.913 276.384 471.001C279.595 468.977 317.403 470.614 325.176 470.345C335.547 469.987 347.73 467.89 358.161 467.287C367.952 466.721 374.807 470.113 386.151 465.427C391.485 463.223 400.766 450.868 406.491 454.256C407.103 454.618 407.525 457.228 409.138 458.245C417.99 463.828 452.302 457.053 432.139 445.905C415.782 436.861 396.47 454.888 379.821 453.933L395.28 443.286C404.275 440.021 414.235 435.871 424.008 436.005C455.823 436.443 459.665 468.004 422.541 465.799C413.08 465.237 404.932 459.392 396.309 464.362L414.27 471.037L418.777 474.724C392.278 471.401 369.714 484.322 345.399 490.385C340.058 491.717 316.285 494.379 314.487 496.969C320.645 525.443 345.688 573.507 319.112 597.992C307.452 608.733 285.219 607.996 272.369 599.777C236.919 577.104 263.432 524.781 274.915 495.544C267.202 493.736 257.999 493.195 250.596 490.666C238.819 486.644 228.474 478.327 213.988 477.815C203.445 477.442 198.469 485.352 189.498 488.097C188.741 487.324 191.961 480.792 192.966 479.658C195.015 477.347 200.327 476.235 201.472 473.269C195.609 471.198 170.743 485.871 168.518 483.642C168.95 470.747 179.938 468.432 189.478 463.58C190.775 461.016 179.703 457.57 177.895 457.269C159.494 454.211 150.782 459.655 137.054 470.283C135.823 466.76 143.045 455.52 142.998 454.681C142.814 451.427 134.376 453.244 132.551 451.728L155.019 445.019C155.42 444.487 147.522 434.93 146.84 434.491C144.128 432.743 126.199 437.292 121.284 437.594C108.442 438.383 96.8867 436.394 84.5975 433.14L104.978 428.858C108.298 428.565 111.625 428.904 114.93 428.326C117.454 427.885 124.038 426.911 125.043 424.262C102.97 426.738 81.7505 423.075 63.1443 410.598C57.6348 406.903 48.9125 401.853 50.116 394.551C64.3125 394.764 78.6171 397.196 92.8843 396.083C108.186 394.889 122.499 388.263 137.029 384.131L125.051 376.739C173.211 376.145 217.912 354.564 263.273 340.687C283.15 334.606 303.591 328.546 323.704 323.349C350.698 316.375 378.777 308.628 406.781 308.426L403.8 311.364C412.703 313.387 422.215 312.933 431.137 314.726C435.431 315.588 451.957 320.32 455.178 322.088C457.125 323.156 458.237 323.728 457.733 326.224L435.262 326.247C445.023 337.476 467.801 341.978 480.978 335.176C485.826 338.685 476.744 345.556 473.792 347.336C472.599 348.055 464.995 351.478 464.485 351.478H442.755ZM349.454 348.866C329.637 351.965 327.032 374.145 345.347 381.921C362.706 389.292 384.448 380.15 381.218 359.731C379.266 347.384 359.055 347.364 349.454 348.866ZM273.059 375.61C267.257 369.151 254.629 377.589 250.959 383.406C256.914 395.11 281.054 384.512 273.059 375.61ZM384.309 415.321C383.514 412.477 368.603 405.717 367.832 406.433C364.811 409.237 381.532 417.093 384.309 415.321ZM279.406 409.41C272.122 412.872 261.887 412.956 256.929 419.777C264.946 418.077 274.045 416.227 279.406 409.41ZM289.897 418.306C289.719 418.148 290.579 415.686 288.927 415.266C282.672 413.675 261.861 426.993 267.43 431.664C269.326 433.255 285.784 418.44 289.897 418.306C288.999 422.791 270.805 431.082 273.427 434.642C277.024 432.143 276.421 436.234 281.037 438.17C289.451 441.701 308.526 444.671 317.615 444.726C328.503 444.792 343.422 439.528 354.337 437.597C352.253 431.855 338.849 433.376 334.402 436.132C332.961 437.025 334.138 439.638 331.875 439.088L328.876 428.709C330.41 436.546 326.914 433.538 324.46 435.472C322.707 436.852 323.622 439.473 321.39 439.088L313.119 427.222L310.895 430.174C311.021 427.884 309.19 426.42 307.309 425.615C304.3 424.327 291.589 419.811 289.897 418.306ZM379.813 424.272C377.201 423.711 364.164 414.525 363.344 415.337C361.593 417.07 370.415 423.031 370.898 424.907C374.129 426.356 378.246 428.9 379.813 424.272ZM369.233 434.493C372.186 431.417 356.603 418.908 351.342 422.778C355.787 425.606 363.542 440.424 369.233 434.493ZM330.359 476.239C325.76 475.61 321.416 479.003 317.556 479.814C313.93 480.577 296.084 481.696 295.926 484.384C305.415 500.2 291.904 518.351 298.874 534.141C284.859 525.804 278.38 553.246 292.361 554.573C293.29 554.661 302.806 552.12 303.153 551.685C304.169 550.413 302.044 547.027 304.864 547.519C306.807 554.086 307.846 565.285 304.063 571.226C302.565 573.58 298.545 573.763 298.871 577.197C296.231 577.952 298.192 573.692 296.648 574.245C295.11 574.795 296.014 582.099 288.407 580.172L292.894 575.739L286.913 578.682C272.642 578.594 272.22 554.619 274.088 544.465C276.996 528.661 290.812 516.059 289.882 499.986C287.472 500.578 286.584 503.406 285.596 505.376C278.99 518.56 267.898 544.365 267.346 558.611C266.494 580.642 281.091 598.843 303.987 588.945C320.235 581.921 319.385 557.749 315.822 543.35C312.394 529.496 291.773 495.868 307.324 485.326C313.819 480.922 325.505 483.489 330.359 476.239Z" fill="black"/>
<path d="M1139.62 384.169C1139.92 386.381 1146.09 386.617 1148.06 386.914C1173.46 390.747 1197.78 393.4 1223.52 390.099C1229.37 395.368 1191.63 417.286 1187.53 419.022C1173.78 424.855 1157.55 428.032 1142.61 427.233L1154.21 431.304L1180.06 436.112C1171.04 437.962 1163.11 439.526 1153.76 439.163C1147.69 438.927 1129.86 434.055 1126.84 435.986C1125.38 436.926 1115.69 446.62 1117.13 448.001L1138.1 452.483C1138.59 455.795 1130.3 451.927 1132.12 456.157C1133.68 459.755 1140.13 464.558 1139.6 471.756L1125.65 462.585C1116.61 459.037 1106.58 454.088 1097.71 460.696C1090.31 466.206 1098.4 466.12 1102.73 470.45C1104.12 471.845 1110.98 480.758 1109.62 482.165C1102.79 479.36 1094.27 475.447 1087.13 473.899C1085.13 473.467 1070.8 471.603 1069.95 471.766C1069.35 471.88 1067.46 473.452 1068.4 474.749C1070.98 478.314 1085.75 480.694 1084.14 489.591C1074.95 487.053 1063.16 479.651 1054.19 485.886C1062.08 487.261 1071.09 491.744 1073.66 499.979C1063.71 498.485 1056.54 490.886 1045.92 490.952C1039.85 490.989 1037.94 494.261 1033.63 495.21C1026.78 496.719 1010.84 493.389 1012.51 503.334C1014.52 515.368 1026.28 534.118 1029.47 548.978C1035.44 576.716 1022.79 609.899 989.121 605.293C960.088 601.322 955.917 572.555 958.459 548.434C959.568 537.91 976.668 495.126 972.62 489.491C971.602 488.074 942.7 486.139 938.018 483.646C930.806 483.433 926.248 490.274 919.318 489.583L923.802 479.213C914.514 476.214 904.766 477.953 895.34 479.18L907.313 474.724C907.464 472.555 901.883 472.086 900.404 471.957C886.593 470.746 872.302 477.126 857.875 474.725L886.732 465.475L889.331 461.383C884.217 461.155 878.358 459.119 873.239 460.34C867.971 461.596 864.223 465.02 856.932 465.642C828.068 468.106 823.637 444.211 851.498 437.998C866.516 434.649 884.11 441.001 898.308 445.803L925.296 459.876C917.192 458.469 908.973 457.102 901.004 455.012C888.067 451.618 861.357 437.474 850.246 447.139C847.867 449.209 845.491 455.111 848.256 457.084C849.364 457.874 866.881 459.678 868.928 459.471C873.571 459.003 873.861 454.469 875.863 453.209C881.517 449.648 887.4 456.312 892.035 457.961C920.884 468.22 1003.97 483.083 1029.32 465.965C1030.78 464.98 1029.61 462.372 1031.11 461.25C1031.62 460.875 1042.29 457.03 1042.94 457.028C1047.53 457.018 1056.1 464.8 1063.85 464.279C1070.32 463.844 1088.56 453.436 1078.17 447.252C1071.62 443.352 1051 449.01 1042.99 449.544C1041.38 449.652 1035.93 450.583 1036.21 448.028C1043.81 445.755 1050.69 441.252 1058.6 439.757C1065.33 438.484 1076.77 439.496 1082.63 436.84C1086.16 435.237 1103.64 408.806 1102.06 406.559C1092.75 401.89 1082.5 399.163 1072.2 397.531C1071.87 401.542 1070.09 405.68 1068.23 409.205C1061.2 422.499 1051.25 434.117 1038.19 441.812C1023.29 450.592 983.538 462.403 966.535 461.345C945.901 460.061 914.853 451.21 901.372 435.342C880.697 411.005 872.201 375.719 883.33 345.54C856.665 358.113 843.622 389.239 824.169 409.417C819.859 413.887 815.978 417.664 809.928 419.793C806.082 414.606 828.042 381.252 832.391 375.255C829.763 372.863 820.64 386.146 818.944 387.903C816.401 390.535 799.616 408.257 796.433 404.934C796.365 402.824 796.229 400.666 796.747 398.579C797.844 394.155 813.279 371.962 817.054 366.725C820.45 362.014 824.746 357.873 827.895 352.979C811.167 354.138 786.005 350.094 782.953 330.688C794.004 336.688 808.148 339.734 820.791 337.758C829.469 336.401 836.326 330.424 844.376 327.696L843.613 324.728C835.055 326.78 826.213 328.134 817.406 327.703C823.706 321.279 835.684 318.687 844.365 316.565C850.903 314.967 862.534 314.677 867.44 312.937C869.444 312.226 867.393 308.657 869.18 308.308C874.981 307.172 886.532 309.214 892.848 310.132C964.196 320.501 1047.37 349.615 1117.76 369.41C1122.23 370.666 1126.63 374.072 1131.72 374.875C1139.43 376.091 1148.85 372.626 1153.66 373.909C1154.48 374.128 1156.76 375.769 1155.36 376.728C1151.22 380.947 1145.29 382.848 1139.62 384.169ZM985.719 382.217C994.993 392.144 1022.19 394.998 1032.53 384.221C1053.78 362.068 998.583 348.222 990.535 357.459C989.94 358.141 984.994 367.959 984.514 369.323C982.903 373.911 982.041 378.279 985.719 382.217ZM929.793 396.047C922.123 396.14 913.78 400.436 907.283 404.218C905.341 405.348 903.509 403.955 904.332 407.904L916.619 404.502L929.793 396.047ZM938.784 403.464C935.862 404.411 920.289 408.45 919.336 409.469C919.123 409.697 921.281 412.355 920.218 413.882C919.225 415.309 915.851 414.449 916.321 416.807C920.153 418.999 941.835 406.282 938.784 403.464ZM1026.82 406.643C1024.27 407.142 1019.79 410.138 1019.72 413.089C1020.12 414.795 1032.21 420.093 1033.84 419.7C1039.09 418.439 1036.03 404.841 1026.82 406.643ZM920.81 424.233C928.684 421.495 936.364 414.99 943.258 410.14C940.504 405.829 937.565 411.966 934.826 413.67C932.971 414.824 930.337 414.699 928.785 415.835C926.9 417.215 922.88 422.237 920.81 424.233ZM944.8 418.305L946.272 412.369C938.357 414.001 940.27 420.729 935.808 424.249L932.8 421.291C936.461 427.093 931.535 425.253 928.332 429.446C936.564 438.824 945.705 422.725 953.768 419.033C955.783 415.046 945.858 417.203 944.8 418.305ZM973.247 433.161C972.43 433.846 965.075 420.76 956.135 421.29C949.171 421.704 943.37 432.865 937.301 434.67C933.926 439.216 953.477 443.326 956.111 443.639C958.786 443.958 960.762 442.285 962.129 442.222C962.833 442.19 962.536 444.809 963.762 445.076C966.456 445.663 990.488 443.774 994.583 443.134C1005.27 441.463 1016.76 438.357 1002.47 430.194C1001.45 435.253 994.182 430.782 989.748 431.68C987.999 439.579 991.863 436.069 992.009 436.28C995.115 440.765 985.945 442.655 988.232 431.673C981.169 433.48 973.493 445.705 974.744 430.195C972.019 429.607 973.798 432.698 973.247 433.161ZM1085.66 446.509C1089.61 448.451 1102.17 434.708 1100.63 433.159C1094.84 436.525 1089.5 441.007 1085.66 446.509ZM1054.18 474.757C1047.27 474.819 1039.06 468.745 1032.61 468.907C1025.04 469.097 1011.11 474.993 1003.24 476.96C1012.17 485.931 1027.49 484.285 1038.87 481.096L1054.18 474.757ZM985.249 492.561V514.095C985.249 529.55 968.268 544.235 971.891 570.398C975.239 594.576 1011.13 598.531 1017.19 575.452C1024.89 546.161 1001.94 520.93 995.014 494.023C992.875 491.493 988.288 492.774 985.249 492.561Z" fill="black"/>
<path d="M844.366 211.88L824.181 174.723C823.525 170.598 821.205 165.729 820.717 161.805C820.534 160.329 819.499 157.15 822.63 158.431C825.213 159.488 836.733 174.904 839.908 178.518C840.983 179.741 841.261 182.04 841.412 182.168C847.842 187.603 840.459 171.714 840.187 170.735C837.96 162.725 849.517 173.385 852.37 175.005C942.994 226.464 1039.1 241.92 1138.13 269.037C1159.84 274.984 1186.16 281.53 1206.56 290.321C1217.45 295.008 1236.63 302.631 1237 315.836C1224.6 311.646 1211.26 309.546 1198.36 307.358C1107.36 291.915 1016.95 283.803 926.788 263.132C916.756 260.832 901.392 253.536 892.766 252.273C890.992 252.013 889.847 254.429 887.739 254.286C876.898 253.551 860.266 246.324 851.38 239.843C847.645 237.119 843.527 230.445 839.892 231.922L851.866 243.817C845.569 245.964 836.416 238.175 831.686 234.113C810.946 216.3 791.096 178.333 797.167 151C818.466 166.479 825.74 194.195 844.366 211.88ZM877.349 238.598C867.893 229.518 862.075 217.078 851.888 208.911C850.468 210.549 862.574 225.981 864.59 228.238C866.083 229.908 875.593 240.147 877.349 238.598ZM902.301 227.251C900.614 225.475 882.834 207.928 881.86 208.911C882.885 212.014 886.953 216.124 889.266 218.591C894.147 223.797 903.501 234.017 908.798 237.894C910.905 239.435 913.177 239.811 910.324 236.382C908.056 233.658 904.697 229.773 902.301 227.251ZM1010.73 266.814C993.387 253.602 973.321 240.088 952.288 234.171L972.216 247.816C985.368 253.096 997.124 263.409 1010.73 266.814ZM937.293 248.993L922.323 235.643C920.334 237.787 933.809 249.584 937.293 248.993ZM1094.64 277.241L1048.2 260.903L1082.7 276.442C1085.4 276.67 1093.1 280.976 1094.64 277.241Z" fill="black"/>
<path d="M396.305 250.477L403.783 243.802C394.978 243.6 386.029 251.366 377.157 254.542C351.845 263.603 313.935 270.96 286.954 276.535C206.023 293.26 122.346 301.328 41.1363 317.313C40.6923 314.992 41.3763 313.879 42.5589 312.055C60.5873 284.238 198.162 259.301 234.757 250.055C301.304 233.241 381.857 210.032 440.797 175.041C444.525 172.828 462.91 158.4 464.493 158.453C469.293 158.615 465.341 180.221 464.536 183.715C458.234 211.062 426.842 250.682 396.305 250.477ZM354.336 231.201L335.894 240.384L325.871 247.507C335.755 245.087 346.468 237.79 354.336 231.201ZM222.452 265.358C210.857 266.595 199.392 270.226 188.341 273.857C183.968 275.295 177.061 276.362 174.505 280.179L209.301 270.866L222.452 265.358Z" fill="black"/>
<path d="M441.26 290.608C451.67 299.249 466.492 302.45 474.225 314.336C465.413 314.689 456.936 306.763 448.756 307.661C448.199 308.918 461.837 313.451 455.522 314.329C425.348 297.908 390.336 298.641 356.99 302.872C281.501 312.45 187.681 342.559 118.741 374.184C116.252 375.326 97.8662 386.954 96.583 380.413C95.4739 374.759 124.669 358.013 131.034 357.399C131.415 354.702 127.889 356.16 126.454 356.571C121.942 357.862 118.066 360.233 113.142 361.222C111.612 361.53 108.21 363.141 108.577 360.407C180.857 335.194 254.493 312.5 330.048 298.449C356.504 293.53 383.482 291.145 409.803 285.409C423.814 282.356 443.999 273.968 457.157 272.814C476.058 271.157 449.245 292.504 441.26 290.608Z" fill="black"/>
<path d="M1186.05 378.202C1124.7 354.717 1061.73 335.4 997.551 320.724C955.92 311.204 902.533 298.4 860.129 302.483C839.184 304.5 817.558 318.908 796.432 318.07C809.11 308.364 822.607 297.313 838.385 293.544C835.993 289.965 812.602 278.592 820.361 273.476C826.293 269.564 872.043 285.61 882.105 288.105C966.762 309.092 1054.59 319.01 1137.42 348.448C1153.33 354.102 1179.23 362.116 1186.05 378.202Z" fill="black"/>
<path d="M427.769 247.508C447.662 227.809 461.737 207.227 472.991 181.699C476.762 173.145 478.884 163.695 482.531 155.448C483.339 153.622 482.465 151.824 485.447 152.488C509.792 192.347 467.635 240.318 427.769 247.508Z" fill="black"/>
<path d="M510.211 153.975L517.031 167.235C524.269 191.999 506.773 229.765 484.546 242.158C481.911 243.627 471.076 249.049 473.963 242.096C476.568 235.821 484.48 227.133 488.336 220.666C500.851 199.675 508.047 178.456 510.211 153.975Z" fill="black"/>
<path d="M808.413 244.538C781.56 243.676 751.63 203.532 752.843 178.433C752.966 175.887 752.808 173.473 755.221 171.791L808.413 244.538Z" fill="black"/>
<path d="M824.898 244.538C820.775 248.291 796.518 220.582 793.682 216.827C780.702 199.636 764.298 173.757 776.201 152.485C789.234 184.727 801.809 217.773 824.898 244.538Z" fill="black"/>
<path d="M1003.23 541.553C995.012 542.363 988.586 537.806 988.19 548.29C987.734 560.376 1000.66 565.904 1008.48 556.443C1014.81 560.375 1010.15 565.287 1010.71 571.27C1005.55 565.812 1003.29 570.552 1009.22 573.49C985.005 593.171 975.944 564.156 979.608 542.661C981.396 532.171 991.519 521.931 989.76 510.389L996.842 523.397L1003.23 541.553Z" fill="black"/>
</svg>
