<svg width="444" height="250" viewBox="0 0 444 250" fill="none" xmlns="http://www.w3.org/2000/svg">
<path d="M27.959 207.548L29.9707 206.781C29.6948 206.1 27.8274 205.101 27.654 204.786C27.5186 204.541 27.8366 204.059 27.7288 203.773C27.4701 203.086 26.8217 202.383 26.5095 201.587C20.8124 187.067 41.7326 170.381 46.5477 158.184C47.9169 154.715 47.5754 152.165 48.3982 148.92C48.7817 147.408 50.2083 145.4 50.4079 144.134C50.8175 141.535 50.2275 137.981 50.432 135.212C50.6417 132.373 52.1589 124.547 53.4025 122.127C58.6017 112.011 83.4565 106.853 93.9714 105.749C101.978 104.909 109.76 104.076 117.745 102.884C132.716 100.65 151.398 96.8311 166.482 98.3458C168.44 98.5424 169.977 99.8765 171.756 99.9112C174.693 99.9685 178.588 98.8173 181.658 98.6378C191.49 98.0629 213.307 98.3129 222.018 102.293C225.319 103.802 227.938 106.485 228.309 110.222C228.85 115.671 228.102 123.769 227.292 129.256C226.65 133.601 224.032 140.082 223.958 143.831C223.896 146.988 225.432 146.564 226.898 148.646C228.505 150.93 228.167 156.682 227.999 159.575C227.797 163.051 227.079 168.096 226.367 171.524C225.259 176.864 223.722 179.321 219.109 182.192C218.469 182.59 215.877 183.632 215.684 183.872C215.19 184.482 213.831 191.501 212.972 193.358L210.027 197.985H226.607C226.946 197.985 228.262 198.66 228.002 199.219H209.253C208.994 199.219 208.193 200.063 207.827 200.268C207.354 200.532 206.671 200.44 206.265 200.896C205.848 201.365 206.354 201.959 206.311 201.994C206.093 202.168 203.135 202.26 202.741 203.229C202.435 203.398 203.019 203.846 203.055 203.846H221.804C222.074 204.673 220.586 204.725 220.097 204.769C215.676 205.17 210.401 205.19 205.856 205.401C203.143 205.527 198.699 204.49 197.012 206.62C200.376 206.716 203.714 207.061 207.096 206.944C213.891 206.708 222.535 204.644 229.098 205.377C229.562 205.429 230.054 205.442 230.171 206.003C227.671 206.421 225.083 206.111 222.583 206.319C217.359 206.754 211.872 208.672 206.467 208.168L201.97 208.782H225.523L225.004 209.654C218.125 209.983 211.181 210.244 204.281 210.029C202.238 209.965 200.126 209.792 198.11 209.72C196.936 209.679 195.538 209.11 194.222 209.402C196.278 211.319 197.817 212.415 198.225 215.441C199.515 225.028 188.722 227.131 181.374 227.613C171.427 228.264 159.225 227.813 149.118 227.613C147.34 227.577 145.422 226.498 144.019 228.373C143.979 228.463 144.748 228.834 144.793 228.834H153.47L155.793 229.448C153.491 229.298 151.092 229.975 148.834 230.081C145.707 230.228 141.967 229.002 139.679 231.302H145.258C145.327 231.845 144.557 231.595 144.176 231.61C142.65 231.674 141.032 231.493 139.529 231.615C130.349 232.366 122.009 234.008 112.655 232.136C110.659 231.736 108.28 230.633 106.331 230.41C103.501 230.085 100.107 230.26 97.2209 230.067C97.2642 229.719 97.044 229.378 97.4041 229.115C98.7114 228.162 103.103 229.921 104.05 229.306C104.991 228.694 102.327 226.675 102.026 226.675H77.6985V226.058H102.491V221.739H97.2225L97.2227 222.354C97.3714 222.48 99.7546 222.147 99.7017 222.973H55.6954C55.6754 222.52 56.8102 222.504 57.1803 222.446C60.8364 221.872 64.697 221.879 68.3998 221.737C68.6643 220.862 66.5775 220.834 66.0886 220.801C58.6143 220.299 50.0688 222.709 42.5213 222.969C38.9345 223.093 35.4143 222.536 31.8344 222.663L32.2997 222.057C40.3567 221.071 48.486 220.536 56.6235 220.195C57.0132 219.881 56.6133 219.649 56.2417 219.498C55.11 219.036 50.8085 218.709 49.3571 218.639C39.623 218.168 29.7708 219.438 19.9063 218.649C18.6257 218.547 16.3605 218.328 15.7179 217.114C18.9858 217.005 22.2047 217.885 25.467 218.049C33.4822 218.453 41.8669 217.757 49.9201 217.995C50.6636 217.643 50.4097 217.261 49.6543 217.109L34.9334 216.8C34.9826 216.304 36.2638 216.221 36.6401 216.189C38.4418 216.038 40.3876 216.294 42.2114 216.183C42.836 216.145 46.405 215.823 46.3921 215.415C46.3398 213.761 36.1994 213.777 34.7737 213.718C34.3925 213.702 33.6228 213.953 33.6922 213.409H40.2002C40.4422 212.599 39.3864 212.532 38.809 212.483C36.1229 212.253 33.1602 212.663 30.4414 212.481C26.5892 212.223 24.654 211.748 20.534 211.88C19.8098 211.903 15.2277 212.232 16.1795 210.938C17.1002 209.687 32.6999 211.099 35.2402 210.94C34.136 207.913 30.2094 209.51 27.806 208.779L31.3262 208.432L31.6812 208.165C31.6563 206.834 30.2415 208.165 29.8184 208.165H23.0005C22.9465 208.165 22.5122 207.748 22.5357 207.548H27.959ZM217.463 117.78C217.523 117.696 218.931 117.376 219.425 117.105C224.041 114.578 227.923 110.082 222.578 105.747C215.55 100.047 190.938 101.57 181.684 101.748C178.18 101.816 173.836 102.236 170.502 102.057C167.966 101.921 165.339 100.974 162.78 100.798C150.662 99.9627 134.069 102.594 121.937 104.589C109.28 106.67 95.4153 109.401 83.2109 113.238C76.5811 115.323 62.8476 119.265 61.9268 127.219C61.6673 129.46 61.9659 133.204 64.371 134.126C63.5725 126.384 68.3885 123.027 74.604 120.095C81.3603 116.909 88.6607 115.097 95.8472 113.167L96.9107 113.455C95.6179 113.739 94.1328 114.102 92.8957 114.55C92.5426 114.678 91.6478 114.875 91.6457 115.306C100.174 115.045 108.654 113.087 116.604 110.078C117.11 109.886 117.63 109.741 117.984 109.292C114.932 109.079 111.903 110.44 108.837 110.676C108.494 110.703 107.398 110.927 107.451 110.376C112.91 109.624 118.287 107.924 123.75 107.011C128.105 106.282 133.587 105.551 137.971 105.437C138.775 105.415 139.857 104.606 140.299 105.743L135.963 106.668C137.917 107.023 139.308 107.917 141.229 106.983C139.516 108.782 143.646 108.791 144.785 109.482C145.286 109.786 145.011 110.278 145.241 110.536C145.85 111.22 146.885 111.775 147.43 112.685C148.872 112.818 157.699 113.148 158.136 112.55C158.357 112.248 158.271 111.939 158.272 111.609L156.106 111.302C158.208 111.447 158.842 109.234 160.646 108.262C163.622 106.659 168.726 107.034 172.061 106.668C173.33 106.529 178.575 105.961 179.352 105.597C179.494 105.531 179.743 105.195 179.657 105.132C175.97 105.142 172.329 104.972 168.652 104.821C168.276 104.805 167.5 105.054 167.572 104.515C178.946 104.548 190.425 103.721 201.828 104.191C205.454 104.34 212.859 104.915 216.235 105.89C219.91 106.952 221.318 110.403 218.594 113.348C215.393 116.807 200.13 121.796 195.078 123.41C169.047 131.731 141.677 134.688 114.804 139.443C105.512 141.088 93.9707 141.819 87.9826 149.763C83.4423 155.786 77.9871 164.429 74.3499 171.052C73.7141 172.21 70.9964 177.445 71.2369 178.324C71.383 178.857 72.6333 180.482 73.3773 179.955C73.6702 179.748 75.9584 174.493 76.5193 173.52C80.3995 166.791 85.745 160.747 89.5914 153.832C89.9728 153.147 90.8671 150.584 91.3352 150.305C91.633 150.127 92.1143 150.459 92.5563 150.319C93.1927 150.116 93.6258 149.166 94.4332 149.246C94.1118 150.091 92.4579 150.626 93.0373 151.71C94.8973 149.747 97.7085 148.598 100.254 147.788C104.635 146.393 109.251 146.088 113.728 145.159C114.605 144.977 118.851 144.064 119.229 143.848C119.365 143.77 119.562 143.565 119.535 143.385C118.908 142.934 113.539 144.328 112.34 144.425C111.889 144.461 111.644 144.645 111.478 144.002C140.373 138.992 169.92 135.555 197.87 126.499C198.679 126.237 202.507 124.515 202.892 124.881C203.172 125.146 202.195 126.014 203.912 125.728C205.673 125.434 207.256 123.784 209.099 123.636L208.789 122.407C210.167 122.818 217.276 119.66 217.756 118.975C217.913 118.75 217.325 117.973 217.463 117.78ZM182.136 106.98H188.179C188.325 106.98 188.862 107.982 189.365 107.862L191.741 106.366L185.703 106.366L182.136 106.98ZM178.727 106.675C174.162 106.637 168.985 106.972 164.568 108.171C164.037 108.315 163.706 107.951 163.854 108.83C164.46 108.534 167.581 108.207 167.564 108.985C167.559 109.212 165.771 110.559 165.55 110.985C164.706 112.616 168.279 111.582 168.49 109.898C168.532 109.562 168.228 109.112 168.349 108.813C169.035 107.116 177.43 108.881 178.727 106.675ZM208.479 110.063C214.112 107.451 209.772 107.488 206.304 107.438C205.635 107.88 206.169 108.385 206.71 108.609C207.641 108.995 208.64 107.116 208.479 110.063ZM206 115.62C206.039 115.659 206.829 115.652 207.035 115.571C208.106 115.15 207.794 113.889 207.464 113.08C205.048 107.165 196.945 105.646 192.684 110.528C194.127 112.505 194.443 111.14 195.863 110.618C199.798 109.171 204.388 109.484 205.854 114.067C206.008 114.546 205.945 115.564 206 115.62ZM128.368 110.373C130.556 110.133 133.512 110.373 135.805 110.373C138.019 110.373 143.165 113.758 145.566 114.382C145.929 114.032 143.424 111.749 143.061 111.48C137.78 107.577 124.751 106.256 120.304 111.909C116.072 117.29 119.519 124.108 124.21 127.777C127.915 130.675 137.924 134.546 142.391 132.661C144.219 131.89 140.107 131.686 139.609 131.575C138.311 131.286 136.999 130.885 135.723 130.508C134.137 130.038 131.689 129.505 130.692 128.269C135.424 130.015 140.474 131.102 145.566 131.04C145.616 130.995 145.363 129.925 145.253 129.736C144.947 129.206 140.996 128.689 139.987 128.422C139.156 128.203 133.783 126.732 133.797 126.261C135.955 124.166 135.366 126.303 135.84 126.436C136.49 126.618 139.431 126.74 138.751 125.488C140.625 126.262 140.06 125.399 140.611 125.019C141.36 124.503 140.664 125.569 141.926 124.027C142.34 123.521 143.451 124.068 143.09 122.714C142.022 122.787 141.308 122.764 140.45 122.095C139.37 121.253 140.167 120.963 139.847 120.262C139.719 119.982 139.061 119.592 139.065 119.473C139.071 119.279 139.716 119.147 139.888 118.913C140.119 118.6 139.99 117.968 140.491 117.795C141.277 117.523 143.67 118.909 144.491 117.476C145.432 115.833 142.251 116.135 141.23 116.545C141.03 115.758 141.378 114.235 140.95 113.601C140.665 113.178 137.522 111.657 136.888 111.456C133.721 110.452 130.207 110.994 126.975 110.987C126.886 110.672 128.236 110.388 128.368 110.373ZM174.698 108.526C173.157 107.975 167.088 111.815 168.192 113.151C169.113 114.266 170.268 111.119 170.996 110.544C172.009 109.743 174.047 109.835 174.698 108.526ZM92.2639 108.834C91.0019 109.392 88.8335 108.836 87.8182 109.187C87.3173 109.36 87.2893 110.158 86.7939 110.327C85.9111 110.627 82.9389 110.518 81.6461 110.755C74.6925 112.034 57.5468 116.98 57.308 125.644C57.2261 128.617 59.5688 134.535 61.8874 136.447C62.2917 136.781 62.5956 136.706 62.5188 136.13C62.4077 135.296 60.8314 133.043 60.4845 131.674C60.3324 131.073 59.8221 127.92 60.0356 127.647C61.9312 128.463 60.7517 126.269 61.2563 124.699C63.7811 116.844 83.2108 112.764 90.0875 110.212C90.7839 109.954 91.8761 109.503 92.2639 108.834ZM196.008 119.555C196.749 118.815 196.285 117.315 196.01 116.459C194.068 110.408 182.764 107.164 177.386 109.81C173.678 111.635 170.899 114.404 171.618 118.84C171.746 119.634 174.556 122.81 175.311 123.491C176.935 124.956 177.72 125.285 179.584 124.046C179.918 123.824 179.986 123.392 180.023 123.375C180.407 123.202 180.978 123.957 181.364 123.33C181.603 122.895 179.983 122.62 180.59 121.788C180.693 121.646 182.591 123.264 183.834 123.022C184.849 122.826 183.375 121.779 183.685 121.481C184.746 121.877 184.852 120.373 185.417 120.252C185.94 120.141 186.297 121.192 186.94 121.185C187.382 121.181 188.222 120.045 189.757 120.275C190.379 120.369 190.789 121.753 191.432 121.169C191.799 120.835 190.082 119.233 190.505 118.703C191.157 117.885 192.364 119.675 192.671 119.318C193.197 116.154 190.657 114.731 188.347 113.291L182.446 110.685C187.648 111.244 191.978 113.476 193.528 118.63C193.641 119.007 193.556 119.888 193.603 119.937C193.748 120.091 195.662 119.9 196.008 119.555ZM162.921 110.684C162.755 110.527 158.738 112.065 158.617 112.259C158.545 112.375 158.55 113.105 158.583 113.145C158.71 113.299 161.755 113.808 162.469 114.063C163.273 114.351 167.223 116.583 167.569 116.233C167.963 115.835 167.412 115.464 167.185 115.218C165.632 113.536 161.862 113.045 162.921 110.684ZM201.973 116.852C206.16 115.116 201.162 110.552 198.4 110.663C197.778 110.688 195.595 111.18 195.461 111.769C195.33 112.343 198.823 115.193 199.801 114.694C200.106 115.698 199.002 115.158 198.871 115.31C198.035 116.277 201.122 117.413 201.505 115.624L201.973 116.852ZM170.044 125.8C170.177 125.92 170.011 126.707 170.806 126.728C173.043 126.789 172.078 123.213 170.994 122.236C170.325 121.633 169.588 121.66 169.135 121.31C168.668 120.948 168.554 120.111 168.052 119.612C164.811 116.391 160.979 114.39 156.263 114.699C150.795 115.057 145.757 119.857 146.638 125.506C146.86 126.935 148.226 130.73 149.759 131.034C151.111 131.302 151.746 131.221 151.459 129.81C151.937 129.717 151.796 130.374 152.062 130.592C152.693 131.109 152.953 129.979 153.504 129.878C153.882 129.809 154.497 130.176 155.017 130.142C156.241 130.062 158.381 129.823 157.656 128.267C158.862 130.039 161.318 128.371 159.29 127.409C158.681 127.12 156.016 126.942 157.187 125.805C158.65 126.362 161.982 127.9 163.381 127.968C164.008 127.999 164.035 127.598 163.851 127.186C163.644 126.72 162.651 126.985 162.924 126.108C164.74 125.717 165.002 126.99 166.324 127.648C166.767 126.073 167.925 125.529 168.965 127.026C169.409 127.031 169.328 125.156 170.044 125.8ZM117.053 115.309C115.067 116.436 114.974 119.28 115.194 121.327C115.302 122.33 116.746 127.053 117.826 127.048C119.596 127.041 118.374 125.451 118.296 124.998C118.216 124.54 118.516 124.035 118.438 123.594C117.943 120.769 116.447 118.414 117.053 115.309ZM112.949 118.623C113.115 118.465 113.904 116.525 113.882 116.377C113.66 114.842 107.167 116.408 105.998 116.795C101.934 118.141 98.7476 120.654 97.859 125.005C98.0162 125.66 99.8601 125.603 100.42 125.431C101.197 125.191 100.959 124.356 101.558 124.257C101.14 126.373 103.789 125.803 105.35 126.191C106.526 126.483 113.182 128.91 113.647 128.571L113.029 127.342L114.115 127.03C113.165 126.362 112.027 125.884 110.859 125.795C111.067 124.708 112.481 125.701 112.716 125.488L112.103 124.41C113.973 123.474 112.576 123.439 111.788 122.408C112.086 122.347 112.938 122.495 113.03 122.406C113.12 122.32 113.088 120.196 112.892 119.918C112.382 119.193 108.249 120.345 107.139 119.934C108.074 118.672 112.028 119.495 112.949 118.623ZM101.871 116.546C98.4804 116.862 91.1591 119.305 89.9417 122.715C89.7126 123.356 88.7144 126.839 89.7955 126.59C90.1413 126.511 92.2639 125.568 92.2583 125.336C92.2563 125.253 91.5821 124.93 91.684 124.177C92.0825 121.234 95.5045 120.739 97.6262 119.567C98.9965 118.81 100.783 117.619 101.871 116.546ZM87.9253 213.101C88.5623 213.192 89.2043 213.557 89.8868 213.415C90.1444 213.361 89.9771 212.752 90.5453 212.76C91.2654 212.771 91.8893 213.322 92.7191 213.419C94.6876 213.649 97.061 213.232 99.0803 213.408C99.1514 212.2 97.7481 212.604 96.9785 212.258C96.4719 212.03 96.3618 211.413 95.9066 211.14C95.0204 210.609 93.8889 210.223 93.0295 209.717C92.6143 209.472 92.1198 209.477 92.2656 208.784C93.0834 208.749 93.3345 209.635 94.2193 209.624C95.2766 209.611 97.7769 208.801 99.0041 208.55C100.888 208.165 102.505 208.526 104.197 206.933C104.688 207.27 103.993 207.809 103.717 207.998C101.773 209.337 95.9656 209.42 95.6706 209.709C95.6304 209.748 95.5547 210.444 95.855 210.66C96.3787 211.038 97.5922 210.771 98.1511 211.097C98.5483 211.328 98.5885 212.207 99.2971 212.424C99.7658 212.568 101.725 212.781 102.323 212.805C104.519 212.895 106.972 212.796 109.142 212.778C110.296 212.768 117.597 212.646 117.986 212.171C118.507 211.537 117.501 211.329 117.368 210.945C119.723 211.647 119.868 210.039 121.076 209.544C121.798 209.248 123.064 209.19 123.874 209.094L121.707 210.94C123.367 210.772 124.75 210.448 124.495 208.475L122.946 208.168C125.563 208.216 126.764 205.445 129.045 203.904C138.114 197.775 156.793 193.586 166.311 200.318C167.873 201.422 169.344 204.175 171.438 204.187C172.525 204.194 173.501 203.498 174.697 204.159L173.46 204.773C173.872 206.937 176.056 204.866 177.052 204.774C178.623 204.63 180.588 205.701 182.356 204.22L184.304 202.305C182.726 202.27 181.058 202.864 179.511 202.932C179.065 202.952 178.261 203.181 178.42 202.463C179.032 201.451 180.104 202.443 180.705 202.284C181.238 202.143 181.371 200.935 181.204 200.768C181.049 200.614 180.176 201.059 180.278 200.456C182.96 200.834 184.785 199.974 187.094 198.913C187.074 200.588 181.923 200.499 183.557 201.713C184.938 202.738 185.973 201.166 186.942 200.455C187.427 201.547 185.299 202.799 184.411 203.5C184.191 203.674 182.653 204.044 183.376 204.77C184.081 205.478 187.693 203.176 188.495 202.925C189.557 202.594 188.076 203.979 189.106 203.847C191.652 203.519 194.809 200.908 197.169 199.839C197.925 200.665 194.464 201.133 196.241 201.692C197.918 200.664 199.625 200.085 201.324 199.039C206.263 195.997 209.107 191.409 209.719 185.647C205.065 184.872 204.203 189.941 202.228 192.842C201.907 193.314 201.408 193.9 201.031 194.362C200.821 194.618 200.458 194.585 200.441 194.612C200.224 194.966 201 195.533 201.055 195.998C201.155 196.86 198.876 198.912 198.561 198.599C198.814 198.256 200.128 196.194 199.028 196.141C198.316 196.107 196.177 199.279 194.842 198.907C196.16 197.07 202.162 192.115 202.273 190.104C202.302 189.575 201.901 189.011 201.944 188.62C201.962 188.456 204.773 186.859 201.198 187.191C199.263 187.371 196.647 187.601 195.142 188.874C194.079 189.773 193.33 191.942 191.745 191.662C192.675 190.488 194.393 189.561 194.842 188.113H189.419C188.975 188.113 184.52 185.592 184.017 185.161C181.683 183.163 181.851 177.567 182.169 174.726C182.811 168.969 188.732 161.719 193.901 159.257C197.823 157.39 209.186 157.104 211.222 153.98C211.614 153.378 211.575 152.311 212.415 152.066C214.712 151.4 215.151 154.152 213.741 153.414C213.435 153.253 213.172 152.518 212.667 152.635L210.959 155.412C213.904 155.032 216.616 153.831 217.839 151.003C218.021 150.58 218.62 148.754 218.651 148.394C218.714 147.644 218.173 147.247 218.186 146.93C218.197 146.671 218.829 146.182 218.949 145.628C219.369 143.688 218.907 140.895 219.175 139.64C219.348 138.83 220.751 138.282 221.356 137.229C221.952 136.19 223.64 131.292 223.657 130.228C223.668 129.516 223.098 129.227 223.064 128.738C222.999 127.78 224.717 125.231 223.971 123.64C223.557 123.176 220.682 126.528 220.408 127.031C220.306 126.663 219.507 125.353 219.635 125.186C219.675 125.133 220.453 125.009 220.859 124.706C223.06 123.061 224.249 120.443 224.592 117.779L218.805 122.351C208.756 127.008 196.785 129.453 185.866 131.825C159.586 137.531 132.581 141.02 106.903 149.162C102.457 150.571 96.3843 153 93.7528 157.049C89.4266 163.707 86.8524 172.226 83.7387 179.472C81.5201 184.636 78.9184 189.586 75.8351 194.281L75.838 192.743C75.2765 192.255 73.1726 194.379 73.0436 195.077C72.8486 196.133 73.9583 195.971 73.9738 196.288C73.984 196.495 71.5646 199.041 71.1938 199.376C63.1625 206.63 50.7552 212.078 40.904 204.842C38.8582 203.34 39.1308 202.293 37.9699 200.359C36.9207 198.612 35.0569 197.093 35.2404 194.9C34.504 194.678 34.41 195.45 34.3444 196.004C34.2675 196.654 34.804 199.633 34.0018 199.068C33.6668 198.832 33.7083 198.506 33.677 198.154C33.2582 193.454 36.2493 187.022 38.5975 182.97C44.2096 173.285 55.3894 165.467 54.7688 153.254C57.1386 153.66 56.5777 156.061 56.6238 157.882C58.7236 158.321 59.395 156.97 58.9422 155.12L53.8389 147.702C53.4709 148.842 53.9775 149.972 54.143 151.094L52.598 150.17C52.6543 154.437 49.5556 164.801 45.8891 167.092C45.3111 167.453 44.5677 167.506 43.9324 167.92C40.0622 170.445 33.0235 185.301 31.6925 189.979C30.4422 194.372 30.3128 200.103 34.0006 203.385L32.7647 203.23C32.7524 204.721 34.2584 206.518 35.5752 207.062C42.9789 210.12 51.1946 213.931 59.277 211.268C64.4691 209.557 69.2496 205.948 73.9601 203.684C75.9309 202.736 77.0308 197.922 79.8663 197.987C79.5516 199.364 77.7992 199.705 78.6274 201.376C75.7605 200.881 77.0438 202.315 76.2996 203.534C75.907 204.177 73.2822 204.701 72.662 206.084C71.9342 207.706 73.2406 207.853 73.2792 208.315C73.293 208.48 72.7745 209.238 72.7209 209.862C72.6089 211.165 73.8262 212.963 71.812 212.791C71.9761 211.546 72.2608 210.405 71.4684 209.277C70.5887 208.024 67.2256 210.364 67.1339 211.709C66.9431 214.507 69.2052 213.354 70.6641 213.711C70.9177 213.773 70.9273 214.37 71.6444 214.65C72.1545 214.848 76.7908 215.813 76.4576 214.493C76.368 214.139 74.8145 213.705 74.3604 213.489C73.6587 213.154 73.7433 213.032 74.44 213.099C76.9257 213.34 79.2928 215.568 81.2895 215.85C82.9999 216.093 93.5192 216.427 94.7591 216.05C95.1754 215.923 95.5444 215.379 95.8826 215.32C96.2976 215.247 96.8409 215.802 97.3933 215.862C98.9408 216.029 105.245 214.961 106.601 214.262C106.945 214.084 107.361 213.812 107.449 213.412C104.64 212.928 101.855 214.105 99.234 214.332C96.3634 214.581 93.16 214.199 90.2369 214.322C86.2489 214.491 85.3275 215.6 81.0305 213.949C80.6206 213.792 79.6299 213.567 79.5597 213.104C80.6536 213.215 81.9669 213.692 83.0653 213.35C83.7689 213.132 83.8527 212.213 84.1911 212.017C84.4599 211.861 85.8421 212.384 86.3768 212.178L86.3789 210.941C88.3442 211.443 87.2744 211.32 87.3929 212.288C87.4318 212.606 87.8356 212.859 87.9253 213.101C87.5936 213.053 83.4414 212.322 84.5178 213.715C84.6179 213.844 87.4237 214.399 87.7421 214.321C88.3681 214.17 88.0871 213.536 87.9253 213.101ZM83.2768 121.633V126.261C83.2768 126.444 83.9736 126.89 84.2021 126.723C84.7789 126.301 84.9399 123.215 84.8279 122.406C86.4784 122.474 87.1982 127.317 88.3287 124.503C90.2428 119.739 86.4858 119.646 83.2768 121.633ZM96.6026 121.174C93.6513 120.678 92.9428 123.096 92.5755 125.488C93.4519 125.709 93.3231 124.79 93.5088 124.257C94.1848 124.085 94.5317 124.595 95.0498 124.872C95.1636 123.507 95.9642 122.337 96.6026 121.174ZM78.3183 125.489C77.3643 125.135 77.754 123.028 76.9275 123.006C75.4534 122.967 72.9748 124.025 72.7391 125.637L73.9766 125.49C73.9863 126.416 74.3102 127.727 74.8357 128.493C75.1991 129.023 76.0094 129.382 76.0816 129.686C76.144 129.949 75.7767 130.382 75.9776 130.73C76.2701 131.236 78.7934 132.514 79.5564 132.275L78.3199 130.886C81.2906 129.829 78.5949 128.802 77.6998 127.802C77.328 127.387 75.5372 124.94 77.234 125.484C77.5229 125.576 78.8064 127.905 79.5579 127.337C79.7221 127.213 78.1474 126.052 78.3183 125.489C78.6313 126.373 80.5864 126.611 81.4153 126.107L81.8838 128.264C81.9756 128.303 82.3471 127.54 82.3471 127.495V121.479C80.3416 121.854 77.3933 122.876 78.3183 125.489ZM143.087 127.037C142.913 126.858 138.321 125.551 138.751 127.339C140.062 127.318 141.29 127.83 142.629 127.649C143.055 127.592 143.531 127.491 143.087 127.037ZM98.772 132.893H93.5036C93.4803 132.693 93.9145 132.276 93.9685 132.276H100.476C100.858 132.276 104.914 133.378 105.279 133.665C105.426 133.781 105.696 134.038 105.59 134.124L104.646 134.284C104.413 137.012 106.652 136.335 108.397 136.731C109.325 136.941 111.636 138 112.384 137.495C112.712 137.274 112.187 135.975 112.871 135.677C113.804 136.526 116.348 138.032 116.129 135.976C116.686 136.653 119.188 136.772 119.535 136.283C120.446 135.003 114.985 131.424 113.963 130.883C107.357 127.384 94.0822 125.111 87.6349 129.673C85.0747 131.485 82.7228 134.729 86.6725 136.452C89.2296 137.568 88.35 136.551 89.0952 135.138C89.7024 133.986 91.2392 132.911 92.5739 132.896C91.5814 133.792 89.3181 137.137 91.7976 137.24C94.6591 137.358 93.4225 134.736 95.3614 134.129C95.1755 135.469 95.3518 138.732 97.0425 136.878L98.772 132.893ZM132.861 133.514C130.536 132.551 128.025 132.044 125.829 130.794C124.633 130.113 117.972 123.992 118.967 128.964C119.192 130.087 122.252 131.983 123.106 131.965C123.841 131.949 124.016 130.911 124.802 131.044C125.048 131.29 123.719 132.628 124.192 133.191C124.635 133.718 128.861 133.833 129.762 133.513L129.453 134.433C129.615 134.56 132.746 134.261 132.861 133.514ZM69.9477 177.006C72.4322 162.21 67.148 147.481 58.9903 135.32C58.2286 134.185 57.391 132.739 56.3183 131.968C56.6711 137.528 60.1347 142.233 62.2085 147.233C64.7503 153.361 68.5251 165.747 68.7276 172.217C68.7827 173.977 67.5562 176.422 69.9477 177.006ZM91.9533 141.844L67.1646 131.967C67.0424 133.162 66.3414 134.655 67.2999 135.686C68.2879 136.75 74.029 138.509 75.7396 139.316C79.5984 141.137 84.051 143.333 87.1932 146.136C87.6864 146.221 89.1287 144.419 89.6292 143.998C89.9903 143.695 92.4824 142.546 91.9533 141.844ZM103.632 135.269C103.974 134.852 104.282 134.012 103.737 133.65C103.273 133.343 102.817 133.801 102.379 133.732C101.755 133.634 101.19 132.505 99.9092 132.933C99.121 133.196 98.3135 136.459 98.464 136.591C98.5017 136.624 98.9601 136.516 99.2757 136.705C99.4093 136.785 99.4107 137.201 99.5769 137.225C100.78 137.401 101.347 135.327 101.557 135.672C101.667 135.852 101.308 136.399 102.028 136.298C102.278 136.262 103.476 135.46 103.632 135.269ZM54.1421 136.287C52.6529 137.552 53.2562 140.521 53.5221 142.306C54.04 145.785 54.7848 141.142 54.792 139.834C54.7986 138.62 54.3613 137.457 54.1421 136.287ZM73.6697 140.294C72.6072 138.877 70.3923 138.216 68.7114 137.832C69.3914 139.113 71.1379 139.165 72.1188 140.144L70.2624 140.141C73.0225 142.702 75.5826 144.502 79.5579 144.613C77.5675 142.865 74.9855 141.34 72.432 140.602L73.6697 140.294ZM58.4828 145.231C58.8227 144.841 57.8858 142.224 57.6114 141.629C57.4711 141.324 56.1227 138.886 55.6971 139.373C55.4895 140.111 55.9766 141.023 55.9141 141.646C55.773 143.053 55.5769 143.668 55.5441 145.395C55.5396 145.632 55.0555 145.942 55.112 146.267C55.1523 146.499 55.9342 147.173 56.1773 147.684C56.8012 148.994 56.9778 150.338 57.8661 151.556C58.2047 152.02 61.5368 155.18 61.8919 154.794C61.3872 152.102 61.4485 148.186 58.9524 146.464C57.8032 145.671 55.8093 145.588 56.4686 143.383C57.2145 143.894 57.4171 145.254 58.4828 145.231ZM63.1331 139.683C63.7738 140.303 64.8485 144.167 65.7627 143.997C66.4423 143.544 66.0539 143.423 65.9505 142.898C65.6893 141.572 64.6984 139.656 63.1331 139.683ZM73.3156 145.187C72.7667 145.577 70.6043 142.554 70.1015 142.151C69.3628 142.002 69.6009 142.753 69.7106 143.158C70.1848 144.908 71.9694 146.649 72.6605 148.243C73.0482 149.137 73.2856 151.359 73.6333 151.837C73.8822 152.18 74.5512 151.929 74.9105 152.164C75.3555 152.454 75.3307 153.864 75.998 154.177C76.6563 154.485 76.606 153.019 76.9327 152.645C77.2479 152.284 77.8888 152.312 78.1725 152.029C78.6396 151.563 78.8438 150.904 79.3944 150.469C80.6585 149.469 82.866 149.56 83.5837 147.852C83.7122 147.441 77.9226 146.491 77.3963 146.305C76.2379 145.895 75.3484 144.893 74.0523 144.669C73.0613 144.497 73.4732 145.074 73.3156 145.187ZM70.5659 147.085C69.7497 146.991 69.9365 147.13 70.0195 147.783C70.2309 149.446 71.3143 151.94 71.8082 153.731C71.9446 154.226 71.4751 154.644 72.4285 154.486C72.6402 151.826 71.4225 149.488 70.5659 147.085ZM222.11 147.392C221.941 147.242 221.01 147.407 220.948 147.841C220.934 147.947 221.144 149.772 221.19 149.96C221.272 150.299 222.233 149.898 221.567 151.323C219.141 156.516 208.494 157.454 203.509 158.642C192.809 161.19 187.327 163.71 186.468 175.619C186.433 176.104 186.423 176.147 186.936 176.08L188.023 175.158C186.676 186.758 203.637 184.399 210.506 181.957C215.052 180.34 222.534 176.688 222.422 171.148L220.408 172.687C219.73 171.694 220.904 171.757 221.33 171.142C221.809 170.452 222.218 169.412 222.512 168.612C223.938 164.731 225.177 159.849 225.211 155.723C224.301 155.774 224.377 156.61 223.429 157.186C222.076 158.01 216.993 159.874 215.366 160.264C213.538 160.702 210.506 161.145 208.63 161.271C208.127 161.305 206.524 161.537 206.31 160.969C210.922 161.056 223.589 158.56 223.992 152.786C224.119 150.965 223.115 149.948 222.357 148.528C222.155 148.149 222.154 147.43 222.11 147.392ZM84.5149 149.553C84.0712 149.148 83.7179 149.784 83.5483 149.902C82.5909 150.568 81.8082 151.538 80.9439 152.32L78.3214 156.338C80.1481 155.728 80.7548 153.867 81.8704 152.625C82.1587 152.304 85.2307 150.208 84.5149 149.553ZM61.272 158.496C61.3129 158.028 61.2059 157.528 60.9299 157.143C59.6063 155.301 58.8924 158.454 61.272 158.496ZM76.1477 157.883C74.8385 156.685 73.2977 161.835 73.9813 162.815C74.8808 162.99 74.4742 162.549 74.6784 162.137C74.9597 161.571 76.3245 158.045 76.1477 157.883ZM90.0931 158.808C89.2951 158.579 89.3569 159.534 89.1022 159.688C88.9041 159.809 88.483 159.386 88.0676 159.695C87.8629 159.848 85.078 163.522 84.9823 163.758C84.8173 164.165 85.1509 164.581 84.9868 164.967C84.5836 165.915 82.0843 167.379 82.6587 169.294C83.2425 169.428 83.3926 168.964 83.7422 168.679C87.6232 165.507 85.9873 164.28 87.6635 161.476C88.0679 160.8 90.2712 160.402 90.0931 158.808ZM61.0969 160.472C60.0584 161.74 61.8239 163.674 62.3583 164.97C63.9706 164.07 63.1975 159.972 62.0439 159.426C61.3691 159.107 61.7659 160.442 61.0969 160.472ZM56.007 166.517C57.548 166.561 59.3994 162.482 58.0163 161.894C57.235 161.716 57.4237 161.969 57.1484 162.269C56.2519 163.246 55.9489 165.212 56.007 166.517ZM64.6826 175.928C64.9778 174.902 64.6826 170.603 64.6826 169.141C64.6826 168.846 63.105 166.886 64.6795 166.21L65.3038 176.083C65.654 176.051 66.0443 176.132 66.3855 176.084C66.7492 176.033 66.3197 169.861 66.2284 169.145C65.9291 166.798 64.9332 164.566 64.9909 162.201C63.7755 162.016 64.6228 164.212 64.3229 165.081C64.0607 165.84 62.5226 165.935 62.2737 166.281C62.1877 166.401 61.5812 168.999 61.5936 169.146C61.6595 169.925 63.175 169.06 63.4419 169.297C63.546 169.39 62.9053 171.171 62.8569 171.642C62.7671 172.516 63.1738 175.965 63.7573 176.39C63.9844 176.555 64.6144 176.165 64.6826 175.928ZM80.7959 170.222C80.1985 170.092 80.0565 170.526 79.7429 170.868C78.9401 171.742 77.642 173.855 77.0179 174.942C76.4721 175.892 73.6501 181.323 74.2912 181.942C74.3571 182.005 75.0067 182.046 75.2407 181.75C75.7675 181.084 76.4136 179.512 77.007 178.633C77.517 177.877 78.263 177.369 78.6936 176.61C79.0642 175.956 81.026 170.483 80.7959 170.222ZM50.0085 171.8C48.0873 171.957 47.3293 175.591 50.7367 172.531C50.8321 172.146 50.4256 171.766 50.0085 171.8ZM79.5596 177.006C80.0875 177.631 81.3007 174.361 81.4112 174.067C82.0937 172.246 80.5371 173.385 80.0203 174.537C79.669 175.32 79.4849 176.143 79.5596 177.006ZM183.999 179.783C185.542 180.936 184.571 174.649 184.612 174.231C183.485 174.745 183.497 179.407 183.999 179.783ZM47.8716 177.547C48.2046 177.237 49.2752 175.328 48.4035 175.157C47.6813 175.016 44.245 176.944 44.5391 178.082C44.7527 178.908 47.5585 177.839 47.8716 177.547ZM52.5948 176.701C52.3244 176.428 50.7644 177.27 50.4204 177.475C50.0279 177.71 49.6354 177.414 49.8087 178.24C50.4697 178.599 53.4987 177.612 52.5948 176.701ZM68.7129 190.268C71.8797 191.622 72.6445 187.975 72.6213 185.544C72.5681 179.959 67.8097 176.556 62.5449 179.044C57.5939 181.384 59.5125 191.654 65.7825 190.903C68.828 190.539 64.6877 188.694 64.0822 188.248C62.8281 187.324 61.1468 184.958 62.5064 183.794C63.1795 185.892 63.2956 183.623 63.7343 183.312C65.5244 182.043 66.2347 186.59 67.78 186.569C68.1633 186.154 66.3697 183.325 67.0054 182.562C68.0822 184.17 70.2355 186.426 69.5803 188.513C69.4042 189.075 68.4287 189.396 68.7129 190.268ZM49.4957 178.86C46.3356 179.512 41.5787 180.962 41.1316 184.718C41.5057 185.122 48.163 180.208 48.9106 179.654C49.2558 179.398 49.6826 179.66 49.4957 178.86ZM183.841 180.407C183.246 180.367 183.553 181.316 183.581 181.579C183.666 182.356 184.307 185.211 185.385 185.027C186.151 184.896 185.539 184.247 185.484 184.014C185.341 183.411 184.346 180.441 183.841 180.407ZM55.384 183.796C54.969 183.396 48.8981 187.862 47.3295 186.878L47.9469 185.798L47.3286 185.643L47.9447 184.411C47.3924 184.548 45.7397 185.403 45.344 185.302C44.8972 185.187 44.7959 184.258 44.4022 184.19C43.3311 184.005 40.6602 185.515 39.9963 186.522C39.6351 187.07 38.3961 189.899 39.4236 189.957C39.5268 189.963 41.184 188.593 41.127 189.805C39.8499 190.5 38.4496 190.833 37.5809 192.138C37.03 192.966 35.6224 197.228 37.5765 195.836C38.2805 195.334 38.9441 193.088 38.9617 195.828C39.1685 196.029 41.5811 195.135 41.8691 194.923C42.0809 194.768 42.1576 193.562 43.1919 193.397C44.2357 193.23 43.5465 194.539 43.6075 194.59C43.7083 194.674 45.8991 194.655 46.2388 194.587C46.9152 194.452 47.0855 193.866 47.5538 193.729C47.8604 193.64 48.2825 193.91 48.5819 193.8C49.1025 193.608 50.7423 190.883 50.4254 190.583C49.418 190.431 48.4754 190.847 47.4925 190.902C47.1531 190.921 46.3184 191.101 46.3998 190.584C50.1065 190.503 54.31 187.402 55.384 183.796ZM60.3421 192.426C60.401 192.091 60.3361 191.845 60.0401 191.656C58.219 190.494 52.4054 194.433 50.7628 195.56C51.2574 196.752 50.2607 198.38 51.8918 198.857C53.5687 199.347 58.3341 195.414 59.4141 193.977L56.6267 195.056L60.3421 192.426ZM62.5131 194.286C62.1107 193.92 59.2921 197.082 58.7683 197.496C57.9119 198.174 53.1684 200.975 52.3883 201.013C51.8311 201.04 50.4083 199.77 49.0596 200.741C47.2455 202.047 52.688 202.795 53.9211 202.542C56.8718 201.939 57.5837 199.552 59.0998 197.826C60.0828 196.707 62.0186 196.159 62.5131 194.286ZM64.9941 201.685C65.2118 201.905 66.7143 200.68 66.9985 200.444C67.6141 199.935 71.0694 196.764 70.5676 196.134C68.8878 197.226 66.9037 199.059 65.6118 200.606C65.322 200.954 64.8605 201.106 64.9941 201.685ZM29.0392 196.443C27.8245 195.235 28.9423 199.426 29.0319 199.693C29.1841 200.148 30.9402 204.223 31.5198 203.538C31.3277 202.49 30.6448 201.635 30.2768 200.614C30.0308 199.931 29.1937 196.597 29.0392 196.443ZM167.571 205.701C167.504 205.638 166.743 205.784 166.474 205.407C165.829 204.501 166.64 203.245 164.625 201.688C156.764 195.615 133.861 201.333 127.794 208.816C123.967 213.537 126.58 217.076 131.863 218.26C140.196 220.126 156.414 216.912 162.624 210.799C163.659 209.781 164.837 207.569 166.001 206.757C166.508 206.404 168.172 206.262 167.571 205.701ZM43.0401 201.326C42.9129 201.173 42.9957 199.806 42.5242 199.842C42.2635 199.861 42.1537 200.637 42.0165 200.733C41.7506 200.921 40.1054 199.714 39.8727 201.236C39.6847 202.465 41.7281 204.544 42.7726 205.142C44.7471 206.271 51.928 208.045 53.9083 207.155C56.9854 205.771 50.6155 204.732 49.7225 204.393C48.1323 203.791 46.6451 202.682 45.0596 201.941C44.5847 201.719 43.1075 201.406 43.0401 201.326ZM71.7769 207.825C71.998 207.568 71.8313 205.731 71.3476 205.705C68.4738 207.184 66.0144 209.387 63.0332 210.688C60.5421 211.775 58.2835 212.068 55.755 212.699C55.3932 212.789 54.2989 212.981 54.4588 213.559C55.0412 214.768 60.1335 213.647 61.267 213.249C64.0993 212.252 66.3673 210.012 68.802 208.718C69.4179 208.391 71.6759 207.943 71.7769 207.825ZM167.568 207.549C167.032 207.412 166.949 207.77 166.639 208.009C165.292 209.041 164.218 210.657 162.753 211.853C158.856 215.037 154.421 216.512 149.606 217.742C149.357 218.094 150.729 221.026 151.476 220.986C153.602 220.872 160.227 218.262 161.972 216.937C162.297 216.69 162.431 216.147 162.768 215.879C165.429 213.761 168.791 211.475 167.568 207.549ZM181.671 208.474C178.564 208.188 174.656 208.474 171.444 208.474C171.38 208.474 170.882 208.993 170.98 209.087C175.233 210.004 179.296 209.44 183.379 211.404C183.369 212.041 171.543 209.487 170.977 209.844C170.652 210.049 170.541 210.783 170.669 210.938C170.814 211.115 172.751 210.959 172.837 211.555C172.092 211.408 169.443 211.499 169.74 212.635C169.844 213.034 170.752 212.901 170.668 213.406C168.457 212.981 168.997 214.415 168.201 215.425C167.588 216.201 164.888 218.349 163.938 219.182C163.729 219.366 163.343 219.165 163.543 219.886C166.199 220.144 168.747 220.977 171.429 221.137C177.667 221.508 187.789 221.177 192.82 217.104C195.849 214.652 195.19 213.238 191.954 211.503C189.712 210.3 184.2 208.706 181.671 208.474ZM66.2291 212.175C65.3565 212.112 65.3718 213.071 64.6017 213.483C63.9625 213.825 62.1642 213.906 61.9573 214.092C61.7724 214.257 61.9033 215.121 61.4084 215.237C60.5027 215.45 57.9514 213.473 56.9412 215.106C56.9428 215.346 60.0632 216.888 60.5798 217.031C62.3467 217.52 67.2132 218.167 69.181 218.34C69.8734 218.401 70.8611 218.454 71.499 218.192C70.8483 217.651 69.8873 217.117 69.0809 216.882C68.3194 216.659 67.2298 216.872 67.1642 216.802C66.6483 216.255 68.0061 215.875 68.2799 215.884C69.0783 215.912 72.4661 217.903 73.9149 218.256C74.9118 218.498 79.2513 219.203 79.8118 218.574C79.9767 218.39 79.7169 217.775 80.0362 217.707C81.0987 217.481 85.2134 218.569 86.8257 218.669C92.7386 219.034 96.711 217.772 102.038 217.417C102.848 217.363 103.972 217.81 104.036 217.732C104.084 217.673 103.973 217.062 104.347 216.652C104.857 216.095 106.435 215.952 106.52 215.874C106.715 215.695 106.705 215.215 106.083 215.282C103.408 215.573 100.637 216.899 98.0084 217.122C91.7959 217.651 75.0288 216.773 69.3234 214.805C68.2581 214.438 66.0724 213.494 66.2291 212.175ZM123.874 217.111H117.056C116.986 216.57 117.758 216.816 118.137 216.802C119.962 216.735 121.751 216.642 123.565 216.493C123.682 216.38 123.41 214.812 123.209 214.687C122.093 213.992 112.344 215.492 110.535 216.018C108.467 216.619 105.3 218.036 106.814 220.676C107.538 221.938 112.107 223.306 113.649 223.742C119.376 225.363 125.519 225.807 131.482 225.455C131.882 225.432 136.374 225.089 135.339 224.208C133.238 224.138 131.357 223.276 129.258 223.013C128.458 222.912 127.457 223.12 126.833 222.995C126.479 222.924 126.879 222.222 126.464 222.036C125.418 221.569 123.575 222.145 122.636 221.274C123.559 220.465 124.668 221.251 125.732 221.12C126.231 220.739 125.728 220.561 125.274 220.504C124.714 220.433 122.021 220.768 122.021 220.042C122.021 219.053 126.137 220.359 124.475 218.516C124.041 218.035 123.342 218.336 123.874 217.111ZM57.2436 216.499C57.0745 216.323 52.7587 214.769 52.5984 214.953C51.8957 215.761 53.8438 216.346 54.2902 216.506C54.5512 216.6 58.3648 217.669 57.2436 216.499ZM193.911 220.812C193.896 220.28 194.22 217.81 193.142 218.038C191.902 218.3 192.241 221.217 193.911 220.812ZM149.842 221.68C150.647 221.119 148.933 218.769 148.353 218.505C147.378 218.06 145.245 218.22 145.415 219.612C145.448 219.885 146.124 221.935 146.231 222.003C146.574 222.221 149.498 221.92 149.842 221.68ZM132.005 221.973C132.412 222.377 133.906 222.582 134.28 222.065C135.33 220.614 132.481 218.416 131.622 219.27C131.46 219.43 131.635 221.606 132.005 221.973ZM143.98 222.317C144.831 219.485 140.631 217.598 140.941 220.931C141.133 222.999 142.26 222.982 143.98 222.317ZM138.982 219.962C138.585 219.62 135.498 219.419 135.339 219.578C135.345 220.378 135.193 221.768 135.798 222.364C136.237 222.796 138.644 222.832 139.078 222.53C139.601 222.165 139.413 220.333 138.982 219.962ZM191.692 219.634C190.378 218.831 189.28 219.902 189.641 221.514C190.064 223.403 192.089 222.471 192.327 221.524C192.408 221.197 191.831 219.718 191.692 219.634ZM187.406 223.282C189.383 224.098 189.333 220.464 188.486 220.199C186.984 219.729 187.436 222.454 187.406 223.282ZM162.597 221.138C162.423 220.943 161.017 220.775 160.582 221.093C158.603 222.537 160.971 224.872 162.012 224.077C162.286 223.868 162.731 221.287 162.597 221.138ZM186.1 220.883C184.876 220.192 183.466 221.48 182.532 221.67C181.209 221.94 178.776 221.187 178.23 222.965C177.606 224.993 180.375 225.189 181.748 224.591C182.165 224.41 182.735 223.646 182.908 223.644C183.304 223.639 184.139 225.184 186.15 224.036C187.196 223.44 186.8 221.278 186.1 220.883ZM166.906 224.47C167.097 224.351 167.308 223.146 167.289 222.817C167.182 220.964 165.26 221.406 163.894 221.469C163.542 221.685 163.723 223.867 163.906 224.152C164.129 224.499 166.559 224.686 166.906 224.47ZM106.172 223.611C106.279 223.729 106.175 224.621 106.376 225.118C106.685 225.886 107.649 226.68 108.224 227.285C108.504 227.293 109.44 223.893 109.182 223.571C108.916 223.239 108.147 223.339 107.781 223.105C107.274 222.781 106.599 221.672 106.092 221.756C103.988 223.677 106.057 223.485 106.172 223.611ZM172.175 222.091C171.972 221.768 169.678 221.471 169.253 222.027C168.375 223.655 170.681 226.323 171.939 224.696C172.266 224.273 172.406 222.462 172.175 222.091ZM173.849 222.122C172.138 223.565 175.611 226.968 177.028 223.89C177.98 221.823 175.046 221.113 173.849 222.122ZM111.216 224.257C110.411 224.751 110.145 227.576 111.373 228.476C114.126 230.493 113.264 228.157 113.457 226.977C113.538 226.478 114.238 225.42 114.227 225.28C114.189 224.807 111.818 223.887 111.216 224.257ZM140.904 224.84C140.39 224.335 128.462 227.204 126.548 226.405C124.887 228.593 126.264 230.877 129.161 229.931C129.758 229.736 130.189 228.981 130.574 228.908C131.238 228.78 133.164 229.277 134.492 229.069C135.418 228.923 141.047 227.093 141.176 226.493C141.194 226.412 140.964 224.899 140.904 224.84ZM119.181 226.102C118.744 225.406 115.816 225.219 115.673 227.557C115.562 229.365 118.28 229.925 118.885 229.418C119.102 229.236 119.399 226.45 119.181 226.102ZM122.554 225.799C120.873 226.092 120.108 229.059 121.778 229.839C125.225 231.447 126.673 225.081 122.554 225.799Z" fill="black"/>
<path d="M97.5324 224.203C95.9105 224.228 94.3611 224.741 92.7436 224.838C84.1473 225.351 74.9306 224.926 66.3993 224.837C60.8403 224.78 55.3438 224.663 49.8041 224.361C53.7864 223.178 57.9624 223.729 62.0612 223.602C72.3286 223.285 82.7832 222.921 93.042 223.586C94.4185 223.675 96.6672 223.094 97.5324 224.203Z" fill="black"/>
<path d="M218.24 212.484C218.442 212.514 219.447 213.012 219.015 213.407C218.501 213.877 207.747 213.796 206.157 213.715C204.449 213.629 201.656 213.413 200.043 213.012C199.726 212.933 199.11 212.925 199.181 212.484H218.24Z" fill="black"/>
<path d="M234.665 201.378C234.955 201.425 236.668 202.235 236.673 202.457C236.702 203.672 231.09 202.343 230.337 202.292C228.341 202.156 226.214 202.365 224.124 202.305C221.583 202.231 219.071 202.071 216.537 201.991C216.411 201.665 217.558 201.378 217.62 201.378C222.265 201.378 230.505 200.695 234.665 201.378Z" fill="black"/>
<path d="M93.8134 231.608C89.837 232.03 85.8841 231.972 81.9068 231.616C81.1942 230.622 82.303 230.447 83.1184 230.376C85.2309 230.193 91.0912 230.125 92.8797 230.843C93.2538 230.994 93.7322 231.157 93.8134 231.608Z" fill="black"/>
<path d="M217.757 221.453C218.426 222.533 216 222.889 215.137 222.97C214.208 223.058 208.256 222.726 207.858 222.353C207.359 221.886 207.906 221.809 208.326 221.747C209.643 221.554 217.292 220.701 217.757 221.453Z" fill="black"/>
<path d="M246.904 206.003C246.243 206.89 239.005 206.224 237.606 206.16C237.596 205.743 243.225 204.745 243.961 204.744C244.421 204.744 247.585 205.088 246.904 206.003Z" fill="black"/>
<path d="M16.9559 207.551C16.8945 208.145 15.7116 208.15 15.2665 208.179C12.7565 208.34 10.0389 208.084 7.49258 208.152C6.52687 208.178 3.543 209.077 3.01483 208.006C2.85163 207.352 4.0824 207.222 4.41618 207.223C5.1543 207.224 5.82505 207.548 6.563 207.561C10.0239 207.622 13.498 207.486 16.9559 207.551Z" fill="black"/>
<path d="M67.7816 228.217C68.0457 228.668 67.3378 229.142 67.0068 229.142H57.2449C57.248 228.817 58.2032 228.217 58.3295 228.217H67.7816Z" fill="black"/>
<path d="M32.7624 213.719L29.8151 214.332L20.058 214.643C19.986 213.824 20.0238 214.133 20.5271 214.041C20.8803 213.977 21.9919 213.719 22.0708 213.719H32.7624Z" fill="black"/>
<path d="M206.618 225.437C204.271 225.676 202.756 225.977 200.429 225.271C200.106 225.173 199.205 225.261 199.494 224.673C199.941 223.762 205.988 224.029 206.618 225.437Z" fill="black"/>
<path d="M229.551 213.406C227.26 213.857 225.029 213.512 222.73 213.255C222.716 212.639 228.921 211.819 229.551 213.406Z" fill="black"/>
<path d="M14.1683 205.08C14.9816 203.875 17.1176 204.675 18.3488 204.466L21.2961 205.08H14.1683Z" fill="black"/>
<path d="M161.372 231.611C160.926 232.9 158.444 232.743 157.419 232.309C156.971 232.119 156.956 232.229 157.034 231.611H161.372Z" fill="black"/>
<path d="M91.0229 173.616C90.6888 175.188 90.4948 177.283 89.8006 178.72C89.2948 179.767 88.36 180.165 87.862 181.109C86.929 182.878 86.8551 185.681 86.2318 187.507C85.9644 188.291 84.6802 189.424 84.5978 189.85C84.5385 190.156 84.8607 190.592 84.7547 190.964C84.3951 192.224 82.9314 193.147 84.2064 194.589C83.1644 194.715 83.3142 193.04 82.2188 193.375C81.6305 193.555 79.7571 198.824 77.3887 197.982C84.7709 192.222 85.7818 181.795 90.2535 174.223C90.4895 173.824 90.1987 173.446 91.0229 173.616Z" fill="black"/>
<path d="M122.323 204.773C122.316 205.275 122.447 205.85 122.167 206.312C122.025 206.548 118.272 209.39 117.794 209.671C117.246 209.992 116.501 209.923 116.111 210.168C115.66 210.452 116.241 211.13 116.131 211.247C115.677 211.728 113.279 211.549 112.653 211.621C112.227 211.669 110.699 212.296 110.55 212.175C109.974 211.704 110.957 211.512 111.166 211.416C113.481 210.351 115.818 209.444 117.962 207.987L122.323 204.773Z" fill="black"/>
<path d="M203.519 132.279C201.889 134.718 199.02 136.035 196.083 135.668C195.954 134.972 196.115 135.176 196.477 134.979C197.492 134.428 199.008 134.382 200.103 133.966C201.331 133.498 202.266 132.564 203.519 132.279Z" fill="black"/>
<path d="M176.868 139.992C176.715 140.379 176.264 140.833 175.923 141.054C175.292 141.463 170.038 143.273 170.056 141.994C170.066 141.294 175.925 140.041 176.868 139.992Z" fill="black"/>
<path d="M215.914 127.343C215.458 129.684 212.632 130.579 210.649 131.35C209.956 130.705 215.613 127.033 215.914 127.343Z" fill="black"/>
<path d="M145.567 146.161C145.178 147.755 139.673 148.231 139.685 147.238C139.697 146.265 144.765 145.963 145.567 146.161Z" fill="black"/>
<path d="M165.09 141.842C165.247 142.481 163.785 143.266 163.41 143.407C162.46 143.764 161.156 143.896 160.134 143.998C159.161 143.166 164.43 141.291 165.09 141.842Z" fill="black"/>
<path d="M150.837 146.158C151.348 144.034 153.514 144.174 155.171 143.691C155.503 145.253 151.486 146.696 150.837 146.158Z" fill="black"/>
<path d="M179.655 199.217C180.625 200.635 177.268 200.91 177.472 202.456C177.486 202.556 178.593 202.665 178.105 203.226C177.833 203.54 176.02 203.488 176.545 202.452C176.966 201.622 177.776 200.957 178.416 200.297C177.31 199.989 177.018 199.857 177.181 198.602C177.844 199.562 179.579 199.107 179.655 199.217Z" fill="black"/>
<path d="M186.784 137.523C185.527 139.012 183.838 140.172 181.828 140.295C182.409 138.205 184.958 137.801 186.784 137.523Z" fill="black"/>
<path d="M95.3598 168.368C94.7737 168.432 95.1865 167.556 94.767 167.266C94.4012 167.012 93.7186 167.327 93.506 166.983L96.5995 161.584C95.8358 163.989 94.8123 165.696 95.3598 168.368Z" fill="black"/>
<path d="M126.664 150.164C125.179 150.696 123.634 151.19 122.016 151.093C121.936 149.98 123.675 150.306 124.496 149.705C125.491 148.978 125.146 147.394 126.664 150.164Z" fill="black"/>
<path d="M191.746 200.452L192.983 200.147C193.204 200.32 189.8 202.816 189.574 202.609C189.691 202.131 190.339 201.94 190.463 201.463C190.803 200.157 189.214 200.176 191.74 199.219L191.746 200.452Z" fill="black"/>
<path d="M91.9524 183.18C92.1286 185.009 91.1925 186.875 89.1665 186.878C89.0692 186.054 89.9664 186.023 90.3609 185.448C90.8352 184.758 91.0098 183.113 91.9524 183.18Z" fill="black"/>
<path d="M114.575 205.391C115.391 206.19 110.989 207.926 110.547 208.029C109.952 208.168 109.729 208.27 109.31 207.701C110.274 207.946 114.303 205.124 114.575 205.391Z" fill="black"/>
<path d="M98.4604 165.287C98.2302 167.067 99.353 170.026 96.9141 170.528C96.6526 170.252 98.0114 168.804 98.0723 168.169C98.1548 167.306 96.5542 165.462 98.4604 165.287Z" fill="black"/>
<path d="M91.3358 206.008C91.8328 206.408 91.2895 206.575 90.87 206.629C89.6774 206.782 88.0395 206.115 86.9804 205.546C86.784 205.441 85.8182 205.237 86.3779 204.773C86.6554 204.544 90.526 206.245 91.3358 206.008Z" fill="black"/>
<path d="M94.7416 173.921C93.5819 174.177 94.2961 172.265 94.121 171.606L95.05 168.68L94.7416 173.921Z" fill="black"/>
<path d="M100.32 157.573C100.007 158.563 101.072 158.265 100.94 159.11L98.7736 159.731C98.4426 159.401 99.4618 157.315 100.32 157.573Z" fill="black"/>
<path d="M104.043 158.499C104.199 157.152 105.289 155.885 106.055 154.803C106.73 155.196 106.301 155.838 106.024 156.309C105.649 156.948 104.647 158 104.043 158.499Z" fill="black"/>
<path d="M200.037 190.511C199.767 190.704 198.685 190.741 198.253 190.889C197.944 190.585 199.793 188.769 199.96 188.733C201.027 188.499 200.432 190.228 200.037 190.511Z" fill="black"/>
<path d="M194.532 135.982C193.886 137.011 192.33 137.724 191.125 137.828C190.931 137.173 192.038 136.739 192.465 136.545C193.11 136.25 193.804 135.956 194.532 135.982Z" fill="black"/>
<path d="M82.6586 201.685C82.4874 201.515 83.9547 198.987 84.5133 198.91C84.6834 200.265 84.1928 201.59 82.6586 201.685Z" fill="black"/>
<path d="M93.2088 177.33C93.5211 177.119 94.2103 177.386 94.4236 177.775C94.1531 178.221 93.7949 179.617 93.0433 179.474C92.2142 179.317 93.1158 177.392 93.2088 177.33Z" fill="black"/>
<path d="M208.166 131.043C208.543 131.393 205.561 134.026 205.07 132.737C205.007 132.571 207.925 130.819 208.166 131.043Z" fill="black"/>
<path d="M103.73 160.969C102.992 161.921 102.016 163.014 100.972 163.621C100.472 163.911 100.57 164.301 100.018 163.588L103.73 160.969Z" fill="black"/>
<path d="M183.374 197.061C183.964 197.544 180.941 198.835 180.587 198.907C181.407 197.819 181.748 196.701 183.374 197.061Z" fill="black"/>
<path d="M105.898 211.254C104.87 212.824 103.584 211.693 102.183 211.556L105.898 211.254Z" fill="black"/>
<path d="M97.2209 173.924C97.5742 174.267 95.7563 175.92 95.3662 176.082C95.134 174.843 96.0331 174.031 97.2209 173.924Z" fill="black"/>
<path d="M163.85 104.207C163.923 104.745 163.148 104.497 162.77 104.512C160.191 104.618 157.588 104.431 155.007 104.5C154.273 104.519 153.596 104.813 152.863 104.834C152.195 104.852 145.874 105.014 145.874 104.667C151.843 104.124 157.848 104.167 163.85 104.207Z" fill="black"/>
<path d="M154.863 111.302C154.781 111.797 153.301 111.852 152.935 111.833C152.091 111.788 150.675 111.464 149.841 111.206C149.517 111.106 148.904 111.127 148.978 110.686C150.978 110.709 152.839 111.569 154.863 111.302Z" fill="black"/>
<path d="M197.321 164.055C196.822 164.833 195.019 165.744 194.673 166.532C194.428 167.091 194.839 167.547 194.711 168.075C194.512 168.892 192.99 170.501 192.744 171.678C192.395 173.341 192.966 176.607 194.691 177.314C195.887 177.804 194.423 175.362 194.372 175.165C193.755 172.792 194.21 170.644 195.513 168.576C196.667 166.745 198.095 165.583 200.291 165.311C202.634 165.021 205.081 165.374 206.618 167.291C209.425 170.794 208.31 175.602 204.665 177.994C201.554 180.036 197.833 181.431 194.524 179.022C189.374 175.272 191.178 165.67 197.321 164.055ZM200.338 166.593C195.757 167.438 193.326 177.369 199.951 177.646C207.552 177.963 208.778 165.037 200.338 166.593Z" fill="black"/>
<path d="M219.013 173.615C219.31 173.904 218.62 174.486 218.377 174.676C215.941 176.585 211.237 178.327 208.17 178.548L219.013 173.615Z" fill="black"/>
<path d="M222.424 166.365C222.312 166.691 221.401 166.831 221.046 167.153C220.669 167.494 220.447 168.783 219.939 168.52C221.123 165.887 221.371 163.641 221.897 160.904C221.963 160.558 221.957 159.679 222.424 159.733C222.097 161.331 222.865 165.075 222.424 166.365Z" fill="black"/>
<path d="M161.989 206.005C161.274 205.22 160.803 204.784 159.815 204.316C153.331 201.249 137.755 202.85 133.009 208.775C132.187 209.801 131.95 211.235 130.695 211.866C131.51 207.432 137.711 204.228 141.727 203.262C146.43 202.129 156.775 201.422 160.856 204.205C161.506 204.649 162.126 205.104 161.989 206.005Z" fill="black"/>
<path d="M147.272 214.643C147.411 214.645 147.815 214.091 148.047 214.949C147.465 214.685 146.623 215.26 146.342 215.26H136.115C135.858 215.26 134.02 216.144 134.414 215.11C134.442 215.036 134.843 214.643 134.876 214.643C139.005 214.643 143.143 214.585 147.272 214.643Z" fill="black"/>
<path d="M142.468 210.941L137.673 211.571L136.892 211.253C137.276 211.371 137.789 210.941 137.975 210.941H142.468Z" fill="black"/>
<path d="M135.028 120.244C134.102 119.945 134.619 118.541 135.025 118.007C135.236 117.729 138.001 115.789 138.127 115.927C137.711 117.754 134.705 118.036 135.028 120.244Z" fill="black"/>
<path d="M166.33 121.168C165.617 121.759 161.816 119.611 161.373 118.705C162.623 119.132 164.435 119.654 165.576 120.225C166.022 120.449 166.455 120.513 166.33 121.168Z" fill="black"/>
<path d="M168.497 124.565L166.333 121.79C166.771 121.356 168.926 123.774 168.497 124.565Z" fill="black"/>
<path d="M175.007 217.423C175.033 217.877 173.897 217.965 173.577 217.999C171.446 218.224 169.303 217.782 167.258 217.265C169.84 216.692 172.404 217.639 175.007 217.423Z" fill="black"/>
<path d="M187.713 215.881C187.565 216.281 186.314 216.614 185.918 216.712C184.785 216.991 183.623 217.194 182.448 217.108L184.551 216.276L187.713 215.881Z" fill="black"/>
<path d="M111.167 135.983C111.335 136.151 111.383 136.643 110.77 136.536C109.23 136.266 107.029 135.206 105.9 134.131C106.628 134.424 110.97 135.786 111.167 135.983Z" fill="black"/>
<path d="M116.745 217.114L110.55 219.886C109.959 219.334 113.383 217.8 113.744 217.67C114.71 217.323 115.7 217.045 116.745 217.114Z" fill="black"/>
<path d="M79.5579 218.034L75.1545 217.639L72.4316 216.807C74.3749 217.161 76.5917 216.939 78.4716 217.422C78.9004 217.532 79.4377 217.412 79.5579 218.034Z" fill="black"/>
<path d="M198.558 174.539C197.362 174.209 198.022 171.903 199.021 172.073C200.069 172.252 198.235 174.033 198.558 174.539Z" fill="black"/>
</svg>
