<svg width="250" height="188" viewBox="0 0 250 188" fill="none" xmlns="http://www.w3.org/2000/svg">
<path d="M91.7872 19.7604C91.9596 18.6499 92.9848 17.2264 93.961 16.6546C94.4422 16.6163 94.1707 16.722 94.0983 16.9805C93.9522 17.5023 93.2972 18.61 93.2972 19.0069V22.1149C95.511 19.7998 98.5274 18.435 101.79 18.7254C101.888 19.2872 101.641 19.0228 101.348 19.1212C98.6744 20.02 95.9532 20.8129 94.4298 23.4315C96.1855 22.7657 97.8867 22.0444 99.8009 21.918C101.604 21.799 104.371 21.952 105.566 23.4316C103.168 22.5146 100.58 22.798 98.1635 23.4863L96.5061 24.1868H99.4319C99.6873 24.1868 101.679 24.7912 102.078 24.9367C103.508 25.4583 105.91 26.863 105.851 28.5182C104.267 26.6172 101.769 25.8168 99.3375 25.6956C101.054 27.001 102.915 28.2041 104.133 30.0436C105.391 31.9422 106.002 34.431 105.516 36.6643C105.477 36.8468 105.449 37.229 105.191 37.1828C105.336 34.3494 104.179 31.286 101.982 29.461C102.076 30.0392 102.58 30.4284 102.829 30.9684C103.34 32.0782 103.508 33.4032 103.023 34.5576C102.867 34.928 102.534 34.9604 102.535 35.0258C102.54 35.2792 102.987 36.0704 103.063 36.5739C103.344 38.4439 102.779 40.8685 101.575 42.3357C101.341 42.6199 100.592 42.9507 100.666 43.2884C101.334 43.8887 102.241 44.7591 103.2 44.7291C103.727 44.7126 104.448 44.2052 104.881 44.3552C105.327 44.5096 105.099 45.143 105.21 45.2619C105.307 45.366 107.644 45.9327 107.97 45.9927C113.152 46.9479 118.401 48.0601 123.615 48.84C124.63 48.9918 127.236 48.8102 127.855 49.6944C128.114 50.0636 127.928 50.5956 128.213 50.844C128.844 51.3924 131.952 51.5634 132.839 51.4964C135.001 51.333 137.111 49.9882 139.21 49.3779C142.088 48.5417 145.688 48.1885 148.674 48.509C149.861 48.6364 151.242 48.9594 151.053 50.4462C150.797 52.4586 146.808 52.0324 145.321 52.2739C144.935 52.3368 144.243 52.3953 144.073 52.8158C145.317 52.7514 146.416 52.8266 147.618 53.1417C148.38 53.3415 150.924 54.7545 151.208 53.2622C151.255 53.0133 150.475 51.6835 151.148 51.8787C152.184 52.1792 152.541 53.6132 151.818 54.4241C151.369 54.9264 150.194 55.0297 150.136 55.101C149.955 55.3238 150.325 56.3766 149.221 56.918C147.536 57.7448 144.894 55.5203 143.091 55.0221C142.494 54.8571 141.85 54.8129 141.242 54.7032C142.334 55.5054 145.071 56.9831 144.562 58.663C144.032 60.4125 141.172 59.6461 139.921 59.3158C135.113 58.0469 132.957 56.1135 127.55 56.5782C126.996 56.6258 125.901 56.7961 125.554 57.2399C125.307 57.5562 125.656 57.9714 125.194 58.3676C123.662 59.6833 120.765 58.071 119.061 57.9051C117.763 57.7786 116.291 57.9233 115.004 58.0937C116.592 60.1669 117.321 62.7617 118.558 64.9992C119.163 66.0928 120.875 68.0155 120.874 69.1109C120.873 70.1858 119.965 70.6635 119.9 71.562C119.832 72.4916 120.465 73.7768 120.477 74.7627C120.538 79.506 116.123 85.9502 113.214 89.5508C112.522 90.4072 109.284 93.6616 109.171 94.3749C109.077 94.9768 110.585 94.9075 110.866 95.3257C111.313 95.9892 110.613 96.3688 110.74 96.8954C110.978 97.8854 112.717 99.8905 113.209 101.229C113.678 102.505 114.275 104.79 112.174 104.241C111.839 105.623 113.279 106.253 113.722 107.309C114.188 108.42 114.065 109.342 113.306 110.266C116.579 110.542 119.925 110.516 123.223 110.464C123.669 110.457 124.082 110.27 124.529 110.26C126.101 110.224 135.45 110.398 136.058 109.522C136.556 108.803 135.707 109.007 135.254 108.804C131.678 107.199 135.526 103.664 137.463 102.636C138.109 102.293 138.986 101.865 139.731 101.885C138.258 102.64 134.067 105.42 135.294 107.445C135.413 107.641 136.336 108.064 136.588 107.992C136.817 107.926 137.526 106.151 138.026 105.646C139.674 103.981 143.025 102.684 145.298 102.166C145.565 102.358 145.021 102.501 144.925 102.547C144.499 102.753 144.037 102.92 143.603 103.111C143.301 103.375 143.786 103.308 143.937 103.259C146.896 102.31 149.618 101.005 152.845 100.841C152.997 100.833 153.536 100.786 153.225 101.037L149.359 101.978C154.641 101.193 159.961 100.816 165.316 101.03C170.68 101.245 176.854 102.008 181.763 104.208C184.696 105.522 188.116 107.424 189 110.736C188.635 111.16 188.703 110.726 188.601 110.562C187.664 109.048 186.45 107.839 184.906 106.911C184.304 106.549 183.233 105.919 182.581 106.029C183.131 106.418 183.639 106.846 184.095 107.343C184.331 107.601 185.325 108.766 185.221 108.949C185.196 108.992 184.857 108.738 184.744 108.932C184.506 109.342 184.935 110.118 184.376 110.078C183.17 107.753 180.821 106.535 178.477 105.603C174.375 103.971 169.609 103.283 165.215 103.112L169.407 103.918C172.306 104.548 180.198 106.781 181.794 109.262C182.464 110.302 182.707 111.77 181.26 110.456C181.655 111.244 181.488 112.251 181.109 113.038C180.644 114.007 179.323 113.955 178.519 114.597C178.076 114.951 177.723 115.636 177.196 116.102C174.405 118.573 169.629 120.451 166.048 121.367C165.46 121.432 166.077 120.997 166.18 120.933C167.639 120.019 169.459 119.435 171.004 118.588C172.902 117.548 174.858 116.253 176.35 114.693L175.596 114.598L175.971 113.658C173.391 116.469 169.814 117.859 166.199 118.879C160.175 120.577 153.739 121.2 147.589 119.851C146.962 119.713 143.333 118.537 143.13 118.745C142.472 119.422 144.971 120.556 145.397 120.72C148.176 121.788 152.911 122.473 155.878 122.331C157.418 122.257 158.938 121.858 160.448 121.616C160.649 121.583 161.105 121.417 161.06 121.756C155.066 123.947 148.338 123.408 142.564 120.816C141.938 124.028 139.831 127.059 137.938 129.668C137.799 128.948 138.121 128.11 138.316 127.409C138.683 126.097 139.169 124.555 139.731 123.358L138.411 123.737C138.826 123.344 140.291 119.816 140.274 119.588C140.258 119.382 139.392 119.069 139.167 118.932C139.233 120.048 138.206 120.782 137.842 121.756L137.842 120.816C136.85 121.492 136.511 122.855 135.919 123.887C135.647 124.361 135.21 124.765 134.977 125.207C134.114 126.842 133.686 128.694 132.652 130.233C132.425 129.117 132.888 127.89 133.179 126.803C134.065 123.487 135.299 120.301 138.03 118.08L136.902 116.861C136.595 118.756 135.007 120.11 134.225 121.82L132.372 125.712C132.324 124.294 132.768 122.733 133.227 121.389C133.524 120.522 134.188 118.827 134.597 118.046C134.927 117.415 136.133 116.374 136.257 115.932C136.325 115.687 136.253 115.352 136.051 115.357C135.733 115.365 132.713 119.853 132.338 120.501C131.762 121.496 131.831 122.05 131.049 122.62C129.575 123.694 127.64 133.723 126.611 136.071C126.395 136.563 125.484 138.243 125.576 136.925C125.712 134.988 126.488 132.757 126.705 130.8L122.838 137.961L122.363 137.847C122.371 135.186 123.115 132.573 123.874 130.046C122.492 131.866 121.41 134.061 120.446 136.135C117.68 142.087 115.604 148.342 114.058 154.72C113.756 154.776 113.651 154.657 113.538 154.395C113.059 153.287 113.515 151.508 113.109 150.302C113.209 146.923 113.189 143.646 114.874 140.736C116.002 138.786 117.585 136.167 118.437 134.13C118.555 133.848 118.533 133.462 118.593 133.157C118.315 133.216 117.742 133.624 117.554 133.814C115.84 135.547 116.256 137.875 114.629 139.464C114.84 138.056 114.534 136.662 114.629 135.228C114.761 133.259 115.534 131.241 115.737 129.363C115.76 129.156 115.907 128.683 115.573 128.729C113.958 132.334 112.265 135.975 111.033 139.739C110.681 140.816 110.132 142.486 109.957 143.563C109.924 143.763 109.736 144.391 110.094 144.36C111.161 142.212 112.424 140.106 113.778 138.146C113.793 139.182 113.032 140.33 112.688 141.39C111.526 144.978 110.84 149.42 110.152 153.175C109.822 154.971 109.804 157.013 109.058 158.676C108.958 157.102 108.867 155.454 108.966 153.875C109.115 151.497 109.819 149.168 110.095 146.811L106.982 151.892C106.555 151.608 106.82 151.538 106.875 151.227C106.996 150.548 107.325 150.017 107.482 149.381C107.966 147.414 108.358 145.401 108.774 143.419C108.155 143.828 107.194 148.266 106.135 147.562C105.368 147.053 106.963 142.664 107.262 141.815C109.273 136.112 112.212 130.713 115.465 125.702C117.244 122.96 117.729 118.074 118.634 114.926C118.886 114.046 120.547 114.299 121.286 114.453C121.674 114.534 122.052 114.967 122.428 114.933C123.199 114.864 125.334 113.991 126.329 113.752C128.411 113.251 130.509 112.886 132.558 112.245C132.998 112.107 133.804 111.967 134.068 111.588L112.639 111.769C112.218 111.734 111.882 112.117 111.504 112.145C110.54 112.218 108.601 111.022 108.145 111.062C107.418 111.124 107.425 111.998 107.069 112.238C104.408 114.024 97.488 114.286 94.4279 113.566C93.4644 113.339 92.0595 112.618 91.3238 112.52C89.8448 112.321 87.8117 112.586 86.3132 112.718C88.5843 114.502 91.4374 115.51 93.765 117.241C95.859 118.798 97.6907 120.987 99.2421 123.058L107.978 117.651C108.988 117.686 109.748 117.399 110.384 118.365L110.659 118.366C111.876 115.583 112.558 117.615 113.4 117.612C113.866 117.611 116.44 115.371 115.903 117.852C115.015 121.949 111.872 129.882 109.608 133.42C109.496 133.596 108.571 134.718 108.49 134.753C108.053 134.823 108.23 134.609 108.255 134.332C108.617 130.412 110.67 125.588 110.856 122.043C110.861 121.947 110.851 121.852 110.85 121.758C109.554 123.066 109.236 125.088 108.301 126.66C108.157 126.902 108.336 127.135 107.833 127.031C107.662 125.06 110.193 120.519 109.059 118.931C108.79 118.555 107.978 119.611 107.881 119.829C107.037 121.723 106.639 126.074 106.04 128.352C105.891 128.916 105.074 131.669 104.809 131.929C104.316 132.41 104.417 130.921 104.437 130.708C104.763 127.277 105.922 123.706 106.132 120.252C106.044 120.153 103.991 121.215 103.739 121.347C102.588 121.95 100.62 123.367 99.5279 123.717C99.3311 123.78 99.1504 123.646 98.96 123.641V137.768C98.4649 137.808 98.6466 137.794 98.5886 137.485C98.0439 134.571 97.7469 131.583 97.4515 128.631C97.2733 126.852 97.4281 123.254 96.7894 121.758C96.6666 121.47 95.2595 119.581 94.997 119.875C95.0038 121.719 95.0556 123.59 95.1867 125.429C95.3471 127.677 95.8459 129.95 95.751 132.214C95.7414 132.442 95.8938 132.914 95.5644 132.87C94.5657 128.479 93.6563 124.07 93.1102 119.591C93.0544 119.133 93.2104 118.494 93.1115 118.124C93.0832 118.018 91.4805 116.912 91.3117 116.863C90.9027 116.743 91.025 117.129 91.0335 117.328C91.1997 121.238 92.6776 127.76 93.6502 131.671C94.8619 136.545 96.7666 141.207 98.1513 146.016C99.5117 150.74 100.222 155.63 101.506 160.374L101.793 160.464C101.471 159.478 101.669 158.464 101.601 157.454C101.282 152.758 100.462 148.033 100.273 143.333C100.233 142.333 100.107 139.239 100.322 138.468C100.364 138.315 100.486 138.147 100.657 138.145C101.581 144.594 102.542 151.049 103.114 157.546C103.481 157.469 103.446 157.168 103.491 156.888C103.873 154.536 104.015 152.159 104.527 149.822C104.76 148.757 104.982 147.187 105.753 146.433L104.055 166.587C103.571 166.665 103.761 166.543 103.661 166.322C103.16 165.219 102.782 164.057 102.923 162.82L102.358 162.822L103.299 170.263C103.409 173.749 103.318 176.993 102.927 180.435C102.884 180.812 103.077 183.834 102.273 182.777C100.673 175.958 99.3338 169.072 97.7356 162.253C95.9456 154.615 94.0962 146.39 91.8811 138.899C89.1691 129.727 84.5423 120.986 82.0132 111.712C82.3707 110.488 82.9548 111.305 83.7588 111.403L90.9124 111.184C91.2433 111.071 91.3017 110.339 91.593 109.98C93.7916 107.268 96.7545 107.284 99.8542 106.357C100.416 106.189 101.154 106.493 101.519 105.745C101.658 105.461 100.528 104.01 100.556 103.496C100.327 102.117 100.12 99.8721 99.3147 98.7063C99.1031 98.3998 98.7137 98.305 98.4785 98.0339C97.0277 96.3612 97.9512 94.3415 98.683 92.5681C99.883 89.66 101.745 86.8789 103.49 84.2759L90.2784 87.5727C90.1406 88.1904 91.3356 88.5629 91.5952 89.0771C91.597 89.4016 88.7181 90.7066 88.2125 90.8834C88.1708 92.771 89.9871 98.3907 88.6799 99.7268C88.3785 100.035 87.6967 100.266 87.2572 100.287C91.1965 105.45 88.0861 107.771 82.4467 107.251C81.1686 107.133 77.8891 106.425 78.7628 104.619C74.5236 105.971 68.4255 102.584 66.1515 99.025C64.7197 96.784 65.0883 94.6687 67.9625 94.3103C71.1627 93.9112 75.1484 95.7797 77.5352 97.8367C77.9894 98.228 78.1435 99.0507 79.0446 98.9765C79.6785 98.9242 79.4204 98.2728 79.6179 97.8417C79.7704 97.5086 80.4256 97.3619 80.1896 96.8955C79.6493 95.8277 77.0385 96.107 76.4506 94.7752C75.8836 93.491 77.0101 93.084 77.6256 92.2747C78.0154 91.7622 79.0966 89.5792 79.0995 89.043C79.101 88.781 78.8072 88.5825 78.7639 88.3096C78.6345 87.4941 79.3113 85.8892 79.7444 85.1593C83.1851 80.6926 89.0602 79.0362 93.4822 75.7036C92.4276 74.4949 91.265 74.4362 91.426 72.5265C91.5084 71.5484 92.4233 70.315 92.3215 69.5381L89.2217 63.9482C88.9591 63.6435 88.7245 63.2624 88.2911 63.1814C86.2612 62.8024 83.6155 63.4726 81.6387 64.0695C79.7277 64.6465 77.9078 65.7545 76.1114 66.2767C74.9754 66.607 74.4474 66.725 73.2925 66.2821C72.7036 66.0563 72.0393 65.328 71.8366 65.2786C71.6454 65.232 70.2499 65.4898 69.92 65.5607C65.9018 66.4237 65.3371 67.8779 62.2883 70.0003C60.9242 70.9499 58.2772 72.7846 56.6044 71.8216C54.6415 70.6917 57.6612 67.5513 58.7544 66.7583C56.9041 66.9183 53.8126 70.6869 52.247 70.526C51.5868 70.4582 51.2958 69.4803 51.1762 69.4112C51.0462 69.3359 49.535 69.9594 48.7567 69.2931C48.0891 68.7216 48.5535 67.6863 48.3436 67.3497C48.3194 67.3109 47.7443 67.1337 47.519 66.9495C46.4542 66.079 46.8194 64.9542 47.741 64.1481C49.5473 62.5684 56.1992 61.1035 58.6626 60.9196C61.72 60.6914 64.689 61.5934 67.6781 60.4982C69.3538 59.8842 68.6989 59.8244 69.3133 58.7866C69.598 58.3056 77.6075 55.3031 78.8914 54.7354C80.3767 54.0787 82.013 53.2757 83.3876 52.4446C83.8683 52.6914 83.3174 53.2015 83.0989 53.4718C81.115 55.926 74.7661 57.324 71.896 58.868C70.3867 59.68 70.7898 60.0578 71.3684 61.4208C71.7666 62.3587 72.6774 64.0048 73.5329 64.535C75.2779 65.6164 75.3697 64.2429 77.0629 64.1173L76.4987 63.8377C76.8785 63.0127 83.4113 62.0235 84.6132 61.6686C84.2924 61.17 83.2805 61.6535 82.8191 61.6688C81.1613 61.7239 79.7244 61.606 78.198 60.9149C78.2574 60.3956 79.1136 60.9172 79.2348 60.9172H82.538C82.6335 60.353 82.388 60.6196 82.0953 60.5202C81.1271 60.1915 80.1553 59.9041 79.2726 59.3725C79.0773 59.2549 77.9106 58.5765 78.1984 58.2802C79.1011 58.6968 80.0676 59.0544 81.0283 59.3158C81.6261 59.4785 83.2805 59.9754 83.7649 59.9754H86.5019C85.4873 57.4853 85.8114 54.836 86.0455 52.2404C82.97 51.6814 80.0304 51.8057 78.7539 48.4002C78.2665 47.0996 78.532 46.1949 78.3657 44.9257C70.9654 45.2886 71.9833 36.4839 78.7637 36.6183C78.2983 34.3229 79.0721 31.2837 80.5538 29.4587C81.1892 28.6762 82.5329 27.2518 83.4928 28.2259C85.0519 29.8081 82.8541 32.1732 81.9901 30.8538C81.7762 30.5272 81.8971 29.7145 81.4024 30.117C80.5601 30.8022 79.7972 33.9277 79.7096 35.0199C79.597 36.4237 79.4588 36.8184 81.0271 36.8072C80.9006 35.9322 81.1044 33.9705 81.9671 33.5046C82.9642 32.966 82.9487 35.0467 82.9223 35.5895C82.7391 39.3485 81.3257 37.6308 78.8601 37.7519C76.9702 37.8447 74.2579 38.8325 74.4631 41.1901C74.7333 44.2945 79.7151 43.5159 81.6941 42.6517C82.6326 42.2418 83.2993 41.4815 84.2368 41.1412C83.515 43.2257 81.5511 44.2248 79.5161 44.7204C79.9485 46.3258 79.3446 47.9706 80.6518 49.3317C82.0095 50.7452 83.7528 50.2159 85.4408 50.3919C86.972 50.5516 92.1284 51.8936 93.3612 52.6597C93.705 52.8733 93.9508 53.2044 94.2401 53.4779C91.7336 53.7377 89.2545 52.9529 86.8795 52.2526V57.6209C86.8795 58.0805 87.42 59.5217 87.7298 59.9745C87.9489 58.9115 88.8275 56.4203 90.0679 56.2955C90.8231 56.2195 93.7148 58.6033 94.9951 58.2792C95.2147 58.0784 93.7012 56.5026 93.4883 56.3C92.4674 55.3285 91.2148 54.6822 90.0921 53.8537C90.3665 53.4336 90.484 53.66 90.8097 53.6956C92.9166 53.9261 94.2297 55.9414 95.7492 57.15C95.8449 55.7731 96.0375 54.3044 96.3728 52.9672C96.8226 51.1735 98.6091 47.6612 98.1999 45.9774C98.1629 45.8248 97.8366 45.9158 97.8073 45.5739C97.7537 44.9499 98.1576 44.4665 98.1191 44.1339C98.0485 43.525 97.2649 43.2179 97.4693 42.5827C97.7477 41.7173 99.4574 42.2723 99.9287 42.1725C102.141 41.7037 103.552 32.9675 98.3849 35.3854C97.6748 35.7176 95.6665 37.6952 94.9962 37.182C94.9294 37.1308 95.2661 36.7327 95.1835 36.6178L94.8065 36.7126C94.5934 36.1533 95.0276 35.2094 95.0042 34.8405C94.9971 34.7277 94.6117 34.7341 94.607 34.6369C94.5955 34.3945 95.83 32.6426 95.0904 32.6668C94.6793 32.6803 93.1419 35.2772 93.1062 35.8648C92.4309 35.5405 92.8579 34.0922 93.0075 33.41C93.2785 32.174 93.8895 30.61 94.7109 29.6473L96.3162 28.1433C95.8386 28.2382 95.209 28.5351 94.819 28.8134C94.495 29.0446 92.2027 31.6139 91.9769 31.3437C91.9772 30.2449 91.5724 29.6346 92.1272 28.5757C92.5529 27.7632 94.5056 26.4432 94.6169 26.1621C94.7315 25.8728 94.2278 25.7143 94.0299 25.6281C92.9133 25.1417 90.8722 24.9566 89.6262 24.9321C88.6757 24.9134 87.8124 25.0338 86.8804 25.1305L90.0957 26.1572C90.4048 26.36 92.3882 27.5121 91.9749 27.9532C86.5126 25.6219 79.8134 26.6206 75.7386 31.0579L74.8009 32.2855C74.8581 29.6541 77.27 27.9626 79.2714 26.6721L81.782 25.5073C79.0544 25.3544 76.4053 26.1419 73.9167 27.1679C73.4117 27.376 71.5663 28.6377 72.3789 27.3284C73.4019 25.6801 78.7478 23.6218 80.5561 23.6218H83.4818L81.6879 23.0574C80.6417 23.1256 79.7115 22.8449 78.6606 22.8606C77.7025 22.8749 76.4182 23.2433 75.4629 23.252C75.1616 23.2548 74.9714 23.0815 75.1771 22.8712C75.2348 22.8123 76.5227 22.2597 76.6879 22.2105C79.5566 21.3566 82.7219 22.2794 85.5572 22.678L83.7536 21.9379C83.4909 21.6962 78.645 21.2738 79.1406 20.7984C82.6488 19.7255 86.1315 21.4061 89.3323 22.679C88.4455 20.4067 86.7216 19.2038 84.4934 18.3654C84.2176 18.2616 83.946 18.5426 84.0491 17.9719C87.6202 17.5272 89.7203 20.0832 91.7872 22.4916C91.879 21.6421 91.6606 20.5752 91.7872 19.7604ZM111.607 61.5765C111.717 60.6014 111.527 59.4643 111.607 58.4685C111.064 58.3688 111.303 58.6154 111.179 58.8811C110.425 60.4924 110.115 61.7634 108.932 63.2392C108.761 63.4515 108.362 64.1344 108.022 63.838C108.749 62.9363 110.356 59.1739 110.103 58.2247C110.057 58.0523 109.71 58.0539 109.574 57.7734C108.268 55.0896 110.151 52.0117 112.419 50.5202C112.665 50.3583 113.381 49.9257 113.682 50.0856C111.672 51.9392 109.4 54.3517 110.004 57.3402L113.869 53.2863L116.23 51.8742C116.544 52.064 116.168 52.2911 116.043 52.4419C115.599 52.9799 114.989 53.2584 114.528 53.755C114.343 53.9538 112.419 56.2946 112.551 56.3947C114.208 56.181 115.864 55.8722 117.55 56.0228C118.393 56.0982 121.842 57.1863 122.068 57.1314C122.468 57.0343 122.368 55.8107 122.495 55.3008C122.867 53.8071 124.771 51.2119 126.14 50.4642C125.963 50.0662 123.215 50.0573 122.651 49.9905C117.692 49.403 112.691 48.2422 107.785 47.3073C106.276 47.0197 104.809 46.5126 103.302 46.224C103.046 48.3254 103.022 50.3941 103.35 52.4869C103.473 53.2754 104.508 56.4758 104.219 56.936C103.563 57.9825 100.27 55.7847 99.7046 56.11C99.1597 56.4233 98.8515 58.927 98.2072 59.4099C98.0831 58.9972 98.0201 58.6322 98.0069 58.1951C97.9854 57.4821 98.0879 55.6553 98.209 54.9879C98.2864 54.561 98.8856 54.0491 99.2879 53.9765C100.291 53.7955 101.713 55.4384 102.549 55.7399C102.785 55.8249 102.788 55.6712 102.918 55.5521C102.543 53.7202 102.042 51.7686 101.982 49.8962C101.957 49.1266 102.272 46.9314 102.139 46.538C102.029 46.2122 99.8582 45.2925 99.5281 44.7182C100.011 48.0737 97.9672 50.8789 97.3489 53.9413C96.7759 56.779 96.6364 60.0471 98.4262 62.4859C98.611 62.7378 100.123 64.1128 99.9028 64.3067C98.6992 64.2389 97.5962 63.4311 96.8787 62.5232C96.2532 61.7318 95.9247 60.1471 95.4458 59.8092C94.9559 59.4635 93.3093 59.2143 92.5453 58.9363C92.107 58.7768 90.5298 57.8248 90.2746 57.9851C89.9075 58.5989 89.0245 59.7189 89.1324 60.4348C91.337 61.2698 93.4094 62.5093 94.6176 64.5912C94.6476 64.7307 94.4196 64.7201 94.3378 64.683C93.9351 64.5002 92.7755 63.3501 92.1022 62.9574C91.894 62.8359 90.2705 61.8511 90.4687 62.5145C90.6779 63.2147 92.0655 65.7705 92.5103 66.5057C93.8305 68.6876 95.7001 69.9683 97.4483 71.7506C97.5296 72.1431 97.2549 72.0615 96.9764 72.0343C96.046 71.9434 95.0859 71.061 94.335 70.5271C94.0519 71.1772 92.7588 72.2116 93.282 72.8888L98.4883 76.5475C99.3205 75.69 98.7487 74.6503 98.7565 73.6284C98.7638 72.6754 99.3382 71.1313 99.0672 70.324C98.7582 69.4036 95.4215 68.2021 94.997 66.8496C95.8239 66.7563 96.6852 67.5653 97.5115 67.9193C99.6768 68.8471 102.053 69.2233 104.056 70.4304C103.316 70.6697 101.67 70 101.029 70.4223C100.596 70.7076 100.544 72.6939 100.757 73.1571C100.879 73.425 102.419 75.3174 102.74 75.6982C103.046 76.0608 104.015 77.233 104.369 77.2648C105.767 76.5253 107.481 76.4179 108.908 75.8357C109.795 75.4737 110.806 74.6575 111.791 74.1921C113.542 73.3647 116.681 72.3685 117.936 70.9067C118.258 70.5318 119.163 68.8525 119.065 68.4313C118.955 67.9572 117.862 66.6036 117.549 66.0065C116.482 63.973 115.68 61.0568 114.157 59.408C113.774 58.9933 113.331 58.3857 112.74 58.4694C112.891 61.1857 112.149 64.2792 109.91 66.0029C110.487 64.5518 111.427 63.1721 111.607 61.5765ZM125.01 55.4538C126.859 55.364 128.725 55.1472 130.585 55.2585C134.29 55.4804 137.24 57.4452 140.716 58.3335C142.975 58.9106 144.727 58.6437 142.173 56.6916C140.615 55.5007 137.06 55.0933 139.933 52.9243C142.456 51.0197 145.596 51.3396 148.464 50.8888C151.22 50.4553 149.528 49.5767 147.751 49.43C140.902 48.8646 136.022 53.1926 130.222 52.6064C129.641 52.5477 127.583 51.8759 127.394 51.9128C126.802 52.0282 124.78 55.2486 125.01 55.4538ZM148.791 55.8305C149.185 55.4904 147.102 54.3678 146.852 54.2827C146.194 54.059 145.339 53.9943 144.64 53.9489C144.529 54.5019 144.821 54.2459 145.057 54.371C146.265 55.0115 147.352 56.0428 148.791 55.8305ZM69.7 60.9173C68.1907 61.6044 66.7579 62.1098 65.0755 62.2334C61.4635 62.4987 58.8672 61.9403 54.9729 62.7003C53.9353 62.9027 47.7933 64.3928 48.0052 65.698C48.1196 65.8899 48.2884 66.0865 48.5075 66.1531C49.588 66.4818 52.9067 65.0641 54.1835 64.7379C55.5017 64.4011 61.0999 63.278 61.5571 65.0098C62.0392 66.836 56.8715 68.6912 57.0563 70.8994C58.4709 71.1008 59.7533 70.2925 60.8931 69.5498C61.3633 69.2434 64.7997 66.7217 64.7913 66.4737C64.7855 66.3014 63.7509 66.0437 64.0406 65.4388C66.4218 65.5473 68.7483 64.794 70.7546 63.5588L69.7 60.9173ZM55.3559 65.6282C53.8831 65.8248 52.0959 66.2993 50.7866 66.999C50.2242 67.2995 49.4142 67.7142 49.5063 68.4507C51.0825 68.5736 52.1701 67.3147 53.4121 66.6052L55.3559 65.6282ZM103.489 81.4476C103.494 80.971 102.864 80.6922 102.526 80.4332C102.115 80.1192 101.543 79.6821 101.036 79.5668C101.616 80.3384 102.574 81.0951 103.489 81.4476ZM100.846 81.8289C100.665 81.5944 97.9715 80.3858 97.5109 79.9764L95.3744 81.3552C95.8883 81.4758 96.1488 81.029 96.7855 81.0584C97.386 81.0861 98.5556 81.7886 99.4868 81.9587C99.8136 82.0184 101.253 82.3548 100.846 81.8289ZM111.04 80.3203C109.999 80.4361 108.904 80.9507 108.212 81.7317L108.962 82.3891C109.243 81.4115 110.465 81.1108 111.04 80.3203ZM107.831 82.0146C107.555 81.7415 105.014 83.6257 106.765 83.4709C107.342 83.4199 107.691 82.5296 107.831 82.0146ZM88.1993 85.4077C87.9767 85.1451 85.6852 84.0973 85.1807 84.2759C85.8694 85.232 87.0162 85.5723 88.1042 85.7833C88.2696 85.8046 88.2195 85.4316 88.1993 85.4077ZM86.878 87.2902C86.0842 86.8606 85.1671 86.7046 84.3586 86.3186C83.0041 85.672 82.7167 84.5161 81.2287 85.8863C80.1101 86.9163 81.1978 88.0046 82.1087 87.4205C82.2564 87.3257 82.2058 86.9528 82.632 86.8974C83.3169 86.8084 85.0034 87.393 85.8445 87.4729C86.0589 87.4932 86.8801 87.6289 86.878 87.2902ZM105.377 85.4051C105.072 85.098 103.864 87.0004 103.716 87.2303C102.756 88.7198 101.651 90.9306 100.948 92.5681C100.596 93.3889 99.4827 95.8044 99.8103 96.5128C100.516 98.0381 101.753 96.3947 102.732 95.8551C104.03 95.1396 105.753 95.0053 106.509 93.785C105.439 93.5243 102.244 95.8735 101.437 95.364C100.735 94.9209 101.784 91.9734 102.136 91.3048C102.166 90.4908 105.614 85.6443 105.377 85.4051ZM80.4434 93.1457C80.1685 92.6848 79.1402 93.4357 78.9554 93.7862C79.4082 94.4261 80.9381 93.9753 80.4434 93.1457ZM77.2518 100.66C77.3863 100.528 76.6363 99.6147 76.4927 99.4421C74.4196 96.9519 70.8809 94.9793 67.6266 96.143C68.197 96.7583 69.3072 96.8192 70.1263 97.1305C72.6296 98.0819 74.8311 99.5414 77.2518 100.66ZM108.019 96.8965C107.488 96.8976 106.89 96.3719 106.425 96.3549C105.596 96.3246 102.924 97.1412 102.356 97.7927C102.12 98.0638 101.872 98.7357 102.17 98.9649C102.317 99.0778 104.873 97.2433 105.465 97.2638C105.841 97.1979 106.29 96.962 106.652 96.9391C107.041 96.9145 107.873 97.3416 108.019 96.8965ZM86.2477 102.234C85.762 101.784 83.3609 100.252 82.7239 100.005C82.5028 99.9193 80.6311 99.2867 80.6542 99.8137C80.6709 100.193 86.2048 103.609 86.9777 104.049C87.2379 104.107 87.3311 104.039 87.2541 103.773C87.1805 103.52 86.4572 102.428 86.2477 102.234ZM109.566 100.635C109.487 100.586 109.474 100.278 109.346 100.194C109.037 99.9884 107.416 99.9627 107.078 100.38C108.186 100.574 109.414 100.559 110.381 101.222C111.112 100.362 109.648 100.686 109.566 100.635ZM81.9704 102.359C81.0146 102.136 80.4126 101.21 79.33 101.416C79.5477 102.429 80.4311 102.546 81.3087 102.549C81.5265 102.55 82.0192 102.676 81.9704 102.359ZM78.3853 103.297C77.7127 102.168 76.4449 101.724 75.1765 101.793C76.0512 102.5 77.242 103.621 78.3853 103.297ZM152.944 102.359C148.387 102.673 143.759 103.993 140.101 106.775L139.166 107.817C141.642 107.554 142.98 105.271 145.21 104.527L152.944 102.359ZM179.37 104.242C176.406 103.391 173.412 102.557 170.311 102.359L178.755 104.385L179.37 104.242ZM170.876 104.807C165.348 103.756 159.681 103.295 154.078 104.054C154.25 104.365 155.157 104.415 155.486 104.436C158.615 104.639 161.969 104.287 165.127 104.421C166.804 104.492 168.597 104.793 170.272 104.94C170.481 104.958 170.913 105.164 170.876 104.807ZM86.5022 105.372C86.4714 105.343 85.9399 105.304 85.6738 105.163C85.2657 104.947 83.6748 103.883 83.4204 103.898C83.1885 103.911 80.4648 105.316 80.6509 105.556C82.0349 106.093 83.4129 106.259 84.9052 106.132C85.1203 106.113 86.9646 105.816 86.5022 105.372ZM104.811 103.865C103.893 104.003 102.616 103.358 102.924 104.615C104.259 104.847 103.725 104.232 103.879 104.074C104.037 103.911 104.817 104.286 104.811 103.865ZM154.455 104.805H151.529C149.327 104.805 147.114 105.994 145.075 106.652L143.415 107.634C144.14 107.737 145.144 106.409 145.309 107.268C148.183 106.234 151.153 105.624 154.171 105.178C154.502 105.129 154.486 105.276 154.455 104.805ZM111.04 107.253C110.985 106.396 109.385 105.656 108.703 105.793C108.533 105.827 107.499 106.51 107.943 106.687C108.241 106.805 110.922 107.358 111.04 107.253ZM174.839 107.821C169.996 105.65 164.093 105.668 158.986 106.879C159.116 107.215 160.105 107.091 160.409 107.073C162.879 106.926 165.256 106.541 167.76 106.691C170.016 106.826 172.094 107.432 174.266 107.923C174.458 107.967 174.881 108.175 174.839 107.821ZM150.867 107.068C148.215 107.664 144.713 108.115 142.752 110.078L150.867 107.068ZM102.925 107.817C104.221 108.446 105.254 109.112 106.739 109.196C107.039 109.213 107.171 109.483 107.45 109.043C107.422 108.649 104.158 107.663 103.59 107.623C103.39 107.609 102.873 107.505 102.925 107.817ZM102.735 109.512C102.706 109.226 102.454 109.222 102.253 109.148C101.394 108.83 98.407 108.154 97.5537 108.189C96.3606 108.238 93.7029 109.211 93.2981 110.455C94.4632 109.994 95.2562 110.574 96.2215 110.646C97.113 110.712 98.7469 110.745 99.6041 110.628C100.688 110.48 101.593 109.541 102.735 109.512ZM173.708 110.078C171.916 108.64 169.15 108.292 166.914 108.198L173.708 110.078ZM179.373 113.093C182.681 110.768 179.712 108.93 177.106 108.198C178.699 109.72 180.538 110.53 179.373 113.093ZM109.719 108.574C110.018 108.932 111.601 109.824 111.784 109.218C112.179 107.911 110.399 108.756 109.719 108.574ZM155.964 108.386C154.048 108.386 151.707 108.659 150.302 110.078C151.972 109.515 153.767 109.245 155.439 108.705C155.636 108.641 156.009 108.657 155.964 108.386ZM167.101 109.516C163.083 108.813 159.281 109.082 155.359 110.134C153.107 110.738 149.371 112.087 147.487 113.392C147.162 113.618 146.516 113.965 146.529 114.412C151.367 111.59 157.05 110.025 162.658 109.695C163.904 109.622 165.19 109.754 166.443 109.703C166.672 109.693 167.145 109.845 167.101 109.516ZM177.109 112.151C178.912 111.099 176.296 110.059 175.219 109.893L176.534 111.12L177.109 112.151ZM103.868 110.458C102.631 110.3 101.353 110.676 100.47 111.585C101.548 111.204 103.017 111.298 103.868 110.458ZM139.353 110.834C138.588 110.688 138.107 111.245 138.033 111.962C138.869 112.367 139.444 111.689 139.353 110.834ZM146.904 110.835C146.043 110.965 145.143 111.386 144.393 111.812C144.155 111.947 142.226 113.128 142.564 113.469L146.904 110.835ZM168.046 116.482C170.643 115.991 173.234 114.577 175.026 112.622C175.022 112.18 171.344 111.044 170.688 111.212C171.186 112.401 171.893 112.023 172.874 112.52C173.354 113.219 171 114.76 170.56 115.132L168.046 116.482ZM165.591 111.965C163.222 111.829 160.936 112.087 158.642 112.657L155.966 113.468C157.687 113.427 159.448 112.809 161.158 112.718C162.785 112.632 164.421 113.373 165.591 111.965ZM90.2752 128.35C89.3612 124.769 88.6456 121.083 87.6203 117.534C87.0068 115.41 86.7345 113.75 84.4275 112.905L90.2752 128.35ZM91.974 130.421L90.2786 118.083C90.2145 117.617 90.3762 117.053 90.242 116.613C90.1336 116.257 88.2079 114.977 88.0127 115.166L91.974 130.421ZM122.743 116.674L121.23 116.187C120.788 116.467 120.092 119.374 119.914 120.063C121.11 119.183 121.881 117.854 122.743 116.674ZM125.95 122.698C126.454 121.196 127.756 120.007 127.838 118.367C126.98 119.388 126.268 120.869 125.854 122.131C125.793 122.316 125.595 122.737 125.95 122.698ZM109.532 130.799C111.952 127.74 112.502 123.35 113.681 119.686C113.398 119.73 113.33 120.042 113.207 120.247C112.681 121.129 111.925 122.681 111.508 123.637C110.467 126.019 109.991 128.248 109.532 130.799ZM118.215 124.96C119.492 123.58 120.161 121.771 120.854 120.063C119.674 121.436 118.752 123.232 118.215 124.96ZM119.91 129.479C120.134 128.585 120.842 127.917 121.192 127.084C121.943 125.295 122.113 123.173 122.93 121.381C121.942 122.613 121.259 124.358 120.715 125.855C120.396 126.733 119.939 127.976 119.767 128.866C119.729 129.061 119.573 129.525 119.91 129.479ZM124.629 132.305C125.909 129.427 127.41 126.644 128.404 123.642C127.529 124.873 126.097 126.47 125.54 127.844C125.05 129.052 125.106 130.514 124.527 131.732L124.629 132.305ZM117.645 128.349L118.589 125.526L117.542 127.776L117.645 128.349ZM94.9941 143.418C94.6719 139.482 93.3021 135.714 92.2606 131.928L90.2789 128.54L94.9941 143.418ZM114.814 146.809L116.324 141.16C116.03 141.311 115.795 141.981 115.668 142.292C115.262 143.29 114.749 144.91 114.629 145.965C114.607 146.158 114.484 146.846 114.814 146.809ZM101.789 172.426C101.715 168.288 100.785 164.064 100.002 159.991C99.4119 156.92 98.6504 153.875 98.0778 150.798L96.3193 144.55C97.0572 152.587 99.3354 160.38 100.717 168.319L101.789 172.426Z" fill="black"/>
<path d="M20.0574 60.9203C18.9678 60.6994 14.6911 58.9284 14.3021 58.09C14.0556 57.5588 14.1496 57.3165 14.6883 57.1592C16.7309 56.5627 19.4663 56.6956 21.5751 56.1204C22.1683 54.2107 22.6301 52.2391 23.3708 50.3779C23.5605 49.9013 24.1159 48.0431 24.875 48.8594C25.4837 49.5139 26.9082 55.3404 27.2201 55.5602L33.3536 55.844C34.1662 55.9776 34.5305 56.4534 33.9457 57.1647C33.4217 57.8021 29.1715 60.5184 29.1451 60.8185L31.7297 67.278C31.8627 67.6233 31.6137 68.1685 31.2633 68.2336C30.6802 68.3419 25.5834 64.4867 24.6806 63.9759C23.6029 65.029 22.4877 66.0393 21.2506 66.9099C20.6395 67.34 18.5376 69.1029 18.2024 67.9381C17.9347 67.0079 20.3442 61.2373 20.0574 60.9203ZM31.7607 56.9626L26.4731 56.6824L24.4954 51.3117L22.4373 57.1691L16.6619 58.185C17.3958 58.5694 18.1671 58.9946 18.9296 59.3127C19.5916 59.5889 21.3466 59.8292 21.5392 60.4863C21.7767 61.2963 19.8153 65.6882 20.0605 66.0029L24.6834 62.4869C25.262 62.7529 29.4424 65.874 29.6843 65.6253C29.5308 64.5904 27.5794 60.8388 27.8177 60.1028C27.8883 59.8848 31.0017 57.8376 31.5219 57.3936C31.6579 57.2775 31.8785 57.3999 31.7607 56.9626Z" fill="black"/>
<path d="M110.286 25.5036C110.242 25.2381 110.621 25.2294 110.81 25.1833C114.737 24.2284 118.556 23.7429 122.115 21.5817C126.943 18.6502 124.067 17.1376 120.18 16.1026C116.051 15.0028 111.43 14.8224 107.163 14.7612C104.622 14.9143 102.096 15.2403 99.5654 15.4688C99.357 15.4876 98.9229 15.6916 98.9614 15.3364C100.12 14.9584 101.301 14.6474 102.507 14.4469C107.775 13.5714 119.821 13.7816 124.278 16.9111C128.137 19.6214 122.418 22.5549 120.095 23.5216C117.067 24.7816 113.576 25.52 110.286 25.5036Z" fill="black"/>
<path d="M82.5381 48.8606C84.4003 46.9973 85.5475 43.8321 88.2062 42.9345C91.3834 41.8619 94.1658 43.469 93.4429 47.0298C92.8903 49.7512 89.3905 47.9185 87.7059 47.7552C85.687 47.5595 84.396 48.2913 82.5381 48.8606ZM86.8795 44.905C87.9042 44.7727 88.9509 44.6176 89.9921 44.7201C90.4954 44.7697 91.7854 45.2868 91.8836 45.2778C92.2913 45.2404 92.1747 44.56 91.9857 44.2373C91.013 42.5763 87.8762 43.6751 86.8795 44.905ZM91.9745 47.1708C91.9195 47.1057 90.6151 46.2701 90.53 46.2632C90.1959 46.2358 88.6061 46.8944 88.0132 46.7926L91.1434 47.723C91.4362 47.7459 92.2804 47.5328 91.9745 47.1708Z" fill="black"/>
<path d="M67.9093 30.7794C67.1312 30.7007 65.8525 30.3057 65.1053 29.9986C57.8442 27.0142 68.807 21.2285 71.7851 19.9549C75.9259 18.1841 80.4634 17.1348 84.9919 17.4077C84.6838 18.0464 83.6952 17.7063 83.0325 17.805C77.7055 18.5983 72.4752 20.1757 67.9053 23.0526C66.5278 23.9198 62.1498 26.6686 64.1613 28.4925C65.7092 29.8962 69.7304 30.4912 71.7779 30.4046C71.8538 30.6041 71.1561 30.7794 71.1182 30.7794C70.1089 30.7794 68.8795 30.8775 67.9093 30.7794Z" fill="black"/>
<path d="M86.4847 33.2455C86.9073 33.5318 86.7161 36.5204 86.3694 37.1392C86.2199 37.406 85.8006 37.3321 85.9364 37.652C86.3199 38.5549 87.5274 38.3386 88.2071 37.8504C90.112 36.4821 89.8137 31.7747 88.4728 30.0365C87.8173 29.1868 86.6759 29.1324 86.3123 28.1445C89.7496 28.6579 90.7777 31.7058 90.4632 34.8276C90.2456 36.9884 88.5938 39.9725 85.9836 38.9248C83.6562 37.9907 84.9626 32.2142 86.4847 33.2455Z" fill="black"/>
<path d="M167.289 97.6501C167.334 97.9775 166.859 97.8275 166.631 97.8359C159.036 98.116 151.506 99.5587 144.262 101.79C144.817 101.19 145.849 100.776 146.617 100.469C148.914 99.5507 151.606 98.9138 154.042 98.4604C158.339 97.6608 162.95 97.1305 167.289 97.6501Z" fill="black"/>
<path d="M163.514 123.078C162.704 123.844 161.361 124.339 160.308 124.679C155.461 126.246 149.223 126.529 144.64 124.111C146.12 124.253 147.585 124.839 149.078 124.957C153.825 125.333 159.052 124.698 163.514 123.078Z" fill="black"/>
<path d="M186.354 102.92C184.156 101.831 182.046 101.256 179.622 100.881C176.522 100.402 172.772 100.118 169.649 100.079C168.79 100.068 167.997 100.365 167.005 100.285C166.785 100.267 166.159 100.228 166.158 99.9101C170.885 99.3448 176.002 99.3401 180.658 100.412C182.568 100.852 184.89 101.603 186.354 102.92Z" fill="black"/>
<path d="M185.742 110.691C186.017 110.965 185.967 111.435 185.902 111.781C185.53 113.761 181.232 116.709 179.183 116.859L181.536 115.16L183.333 113.375C183.157 113.097 182.236 113.556 182.396 113.005C182.684 112.009 184.61 109.562 185.742 110.691Z" fill="black"/>
<path d="M66.2098 110.08C62.4037 109.653 57.5743 106.523 56.8682 102.545C57.4782 103.132 57.727 103.934 58.2798 104.62C59.7368 106.427 62.7581 108.1 64.9361 108.902L69.3243 110.08C68.3262 110 67.1872 110.189 66.2098 110.08Z" fill="black"/>
<path d="M109.153 31.3416C109.135 31.3199 109.135 30.8045 109.153 30.7828C109.243 30.6712 111.565 30.409 111.991 30.3151C115.297 29.5855 118.744 28.4837 121.043 25.8823C119.968 28.5387 116.525 30.1791 113.874 30.8757C113.136 31.0696 109.545 31.823 109.153 31.3416Z" fill="black"/>
<path d="M70.078 106.315C70.1208 106.652 69.6547 106.496 69.4436 106.477C65.3407 106.106 59.9429 103.492 61.0214 98.5908C61.3865 98.7618 61.1625 99.5459 61.2503 99.9599C61.9029 103.039 67.1307 105.983 70.078 106.315Z" fill="black"/>
<path d="M175.404 121.004L172.482 122.136C172.176 121.952 172.525 121.715 172.673 121.573C173.042 121.216 177.186 119.035 177.625 118.963C178.648 118.794 178.821 119.557 178.207 120.316C177.729 120.906 175.313 122.551 175.404 121.004Z" fill="black"/>
<path d="M119.725 105.936C120.482 104.103 120.583 102.024 119.696 100.218L118.215 97.6479C121.066 99.2155 122.685 103.732 119.725 105.936Z" fill="black"/>
<path d="M123.5 106.312C123.71 105.603 124.267 105.066 124.397 104.29C124.64 102.84 124.481 101.128 123.91 99.7804C123.58 99.0033 123.011 98.4206 122.745 97.6479C125.867 99.7128 126.447 103.823 123.5 106.312Z" fill="black"/>
<path d="M70.8344 33.9817C70.652 34.4164 69.8313 34.5043 69.4163 34.5443C67.4451 34.7344 63.0976 34.552 62.7197 32.0981C63.2776 32.5708 63.8711 32.9174 64.5564 33.183C65.165 33.4189 67.1648 33.9817 67.7199 33.9817H70.8344Z" fill="black"/>
<path d="M24.9651 70.3347C25.1671 70.5245 25.199 73.8449 25.1522 74.3825C25.0959 75.0304 25.0003 76.229 24.4021 76.5513C24.1462 75.7556 24.0843 70.5946 24.4033 70.3356C24.4251 70.3179 24.9446 70.3155 24.9651 70.3347Z" fill="black"/>
<path d="M157.285 121.195C157.329 121.468 156.953 121.455 156.757 121.511C154.615 122.122 150.139 121.784 148.081 120.867C147.852 120.765 147.522 120.773 147.471 120.441C150.704 121.168 153.976 121.29 157.285 121.195Z" fill="black"/>
<path d="M99.7134 36.0547C99.6587 36.7433 98.7263 37.0157 98.6102 37.6997C98.5704 37.934 99.1174 41.8458 97.8552 39.8867C96.7711 38.204 97.7513 36.2455 99.7134 36.0547Z" fill="black"/>
<path d="M35.636 65.4371C35.9192 65.3815 38.9756 67.6056 39.3146 67.9782C39.7875 68.4979 39.7403 69.0114 38.9254 68.7455C38.5296 68.6164 35.4528 66.3492 35.3775 66.0651C35.3108 65.8133 35.4241 65.4786 35.636 65.4371Z" fill="black"/>
<path d="M24.0204 40.3867C24.3039 40.5909 24.2794 44.5353 24.1171 45.1008C24.0472 45.3444 24.0706 45.5508 23.7417 45.4701C23.1486 45.1611 23.2329 43.1698 23.2692 42.5538C23.2886 42.2242 23.4509 39.9766 24.0204 40.3867Z" fill="black"/>
<path d="M42.5199 56.5862C42.5566 57.1888 41.6993 57.3581 41.2415 57.4747C40.8182 57.5826 37.8043 58.1775 37.8057 57.6212C39.0186 56.3539 40.9322 56.6052 42.5199 56.5862Z" fill="black"/>
<path d="M14.3954 66.3807C14.8372 66.7835 11.2897 69.9861 10.4324 69.5799C10.1054 69.3352 13.1978 66.7408 13.542 66.5633C13.845 66.407 14.0339 66.3154 14.3954 66.3807Z" fill="black"/>
<path d="M12.1318 47.1678C12.3989 46.8734 15.7152 49.3394 15.5282 50.0833C15.4646 50.3361 15.2038 50.3627 14.9489 50.2919C14.7809 50.2452 12.4017 48.1734 12.3068 48.0274C12.1763 47.8267 12.0204 47.2906 12.1318 47.1678Z" fill="black"/>
<path d="M184.844 116.862C185.575 117.643 182.255 119.647 181.448 119.308C181.153 119.047 182.992 117.579 183.244 117.43C183.484 117.288 184.693 116.701 184.844 116.862Z" fill="black"/>
<path d="M7.03507 58.0901C6.91317 57.9277 7.13113 57.6287 7.35017 57.5595C7.92704 57.3775 11.5485 57.5264 11.3748 58.3719C11.3165 58.6559 10.7898 58.6749 10.5354 58.6642C10.0803 58.6451 7.16065 58.2574 7.03507 58.0901Z" fill="black"/>
<path d="M35.7246 46.7912C36.1412 47.1952 33.5217 49.817 33.1762 49.7994C32.995 49.7902 32.8545 49.4312 32.9246 49.1783C33.0562 48.7036 35.293 46.3727 35.7246 46.7912Z" fill="black"/>
<path d="M185.6 115.541C185.401 115.348 187.101 112.719 187.392 112.72C187.488 112.72 187.828 113.118 187.827 113.339C187.823 114.096 186.449 115.568 185.6 115.541Z" fill="black"/>
<path d="M93.1074 14.7707C93.1384 15.0598 92.6058 15.0382 92.3878 15.0847C91.1452 15.3499 89.8435 15.5733 88.5791 15.7086C88.6189 15.4354 89.2325 15.2767 89.4725 15.1901C90.7021 14.7459 91.8065 14.702 93.1074 14.7707Z" fill="black"/>
<path d="M109.342 72.7829C108.999 72.5198 109.599 72.3636 109.696 72.2959C110.439 71.7745 111.275 71.394 111.986 70.8085C113.08 69.907 113.814 68.6802 114.813 67.6982C114.386 69.5374 112.729 71.6872 110.98 72.4422C110.655 72.5826 109.578 72.9642 109.342 72.7829Z" fill="black"/>
</svg>
