<svg width="333" height="250" viewBox="0 0 333 250" fill="none" xmlns="http://www.w3.org/2000/svg">
<path d="M94.5201 26.5872C94.7555 27.3535 95.5605 27.7325 95.9616 28.5813C96.8043 30.3644 96.4383 32.3437 95.1741 33.8188C93.5972 35.6585 93.2704 34.4915 93.4011 37.6169C93.5745 41.7616 94.0891 46.6186 94.52 50.7856C95.7258 62.4451 97.456 71.1867 106.087 79.7207C112.158 85.7233 120.506 88.6962 126.619 94.7387C138.422 106.405 136.709 119.014 136.5 134.236C136.275 150.646 135.783 167.011 135.955 183.384C136.048 192.155 135.974 200.922 136.777 209.644C136.911 210.177 137.489 210.257 137.957 210.326C138.814 210.453 143.843 210.738 144.159 211.12C144.454 211.476 143.899 211.811 143.566 211.919C142.087 212.402 140.421 212.11 138.934 212.604C139.004 212.908 139.404 213.019 139.669 213.076C142.448 213.671 146.324 213.589 149.268 213.922C152.492 214.286 155.757 214.718 158.901 215.475L136.694 216.127C136.639 216.569 136.687 216.423 136.952 216.517C137.382 216.67 138.195 216.782 138.677 216.844C140.665 217.1 142.76 217.05 144.725 217.51C147.698 218.206 145.466 218.682 143.856 218.885C140.411 219.317 136.753 218.941 133.282 219.132L132.962 219.462C134.011 219.638 135.071 219.846 136.09 220.156C142.988 222.253 134.126 223.427 131.757 223.551C129.254 223.682 126.236 223.213 123.933 223.364C123.666 223.382 120.473 224.596 120.273 224.751C120.186 224.819 120.024 224.966 120.086 225.025C129.031 227.052 117.46 229.461 114.945 230.398C112.74 231.22 110.518 232.143 114.298 233.097C119.228 234.341 129.942 234.551 134.826 233.278C135.338 233.145 136.852 232.724 136.89 232.167C136.908 231.91 136.427 231.169 136.97 231.336C139.06 231.979 138.239 233.43 136.559 234.073C131.556 235.99 116.549 235.9 111.509 234.014C108.537 232.901 109.134 231.334 111.563 230.004C111.842 229.85 116.327 228.086 115.98 227.811C115.505 227.817 115.061 227.649 114.588 227.616C110.566 227.338 107.025 228.365 103.171 228.897C92.1772 230.415 81.4558 230.143 70.3923 230.446L70.0724 230.775C73.3255 231.095 76.5949 231.212 79.8678 231.335C80.226 231.348 80.5843 231.514 80.9817 231.526C87.2389 231.725 93.5059 231.357 99.7433 231.334C99.8366 231.878 99.611 231.633 99.3092 231.726C94.6665 233.159 83.6118 233.366 78.5557 233.195C73.5599 233.026 63.0257 232.437 58.504 231.053C58.0799 230.923 57.258 230.834 57.1968 230.316C57.3473 229.682 61.3926 229.415 62.1422 229.294C62.42 229.249 62.7182 229.284 62.7943 228.924C61.3028 228.938 59.6951 228.402 58.2309 228.359C53.6585 228.224 44.7639 228.839 40.6692 227.079C40.4385 226.979 39.8166 226.683 40.2122 226.417C41.417 225.859 42.9854 225.96 44.1761 225.534C45.9405 224.904 43.7396 224.36 42.9294 224.28C39.4884 225.068 35.7481 224.938 32.3377 225.824C31.6881 225.993 30.1982 226.296 30.2183 227.069C30.6509 227.793 34.681 228.378 35.6684 228.525C39.1904 229.048 46.1464 228.929 49.0381 230.075C51.1714 230.92 47.7879 232.2 47.5065 233.254C47.6309 233.989 50.3405 234.604 51.0358 234.766C59.7332 236.793 69.8902 235.946 78.752 235.415C82.3238 235.201 85.9132 235.023 89.4795 234.673L85.9372 235.694C74.4827 238.075 62.6038 239.008 50.9471 237.45C48.8878 237.175 46.3061 236.712 44.5028 235.695C43.3563 235.048 42.4841 234.45 42.8736 232.955C43.0747 232.183 44.0262 232.073 44.1319 231.334C40.0615 230.782 35.8766 230.665 31.9207 229.467C29.6793 228.788 25.7412 226.934 29.993 225.348C33.3884 224.082 37.3157 224.347 40.68 223.54C40.8908 223.49 41.2986 223.481 40.9601 223.175C40.8392 223.066 39.3116 222.636 39.008 222.609C36.6645 222.403 33.9039 222.932 31.5439 222.995C28.9346 223.065 20.7094 223.013 18.6873 221.847C16.5947 220.64 19.0177 219.83 20.244 219.554C22.9194 218.952 25.6593 219.226 28.3623 218.906C28.9952 218.831 31.6145 218.504 31.8055 217.863C31.4643 216.137 29.3732 216.867 28.1861 216.876C23.1927 216.915 17.8219 217.028 12.8765 216.68C12.2126 216.633 7.01117 216.155 7 215.662C7.37539 215.322 8.10472 215.29 8.6055 215.221C13.5641 214.533 19.153 214.384 23.9847 213.257C24.231 213.199 26.3829 212.713 25.7327 212.224C24.4592 211.266 18.0084 211.827 16.0398 211.681C14.8951 211.597 12.2875 211.282 12.8158 209.578C13.2027 208.33 18.1702 207.604 19.4159 207.771L29.8258 208.343C30.0232 208.298 30.0946 207.854 30.1171 207.673C30.343 205.846 30.0316 202.444 29.9577 200.446C28.9443 173.045 27.4364 145.746 27.1584 118.287C27.0708 109.625 28.2364 103.12 33.8741 96.2297C38.2175 90.9213 43.6283 88.2921 48.9655 84.3359C58.0006 77.6386 61.2429 69.0344 62.7676 58.1784C63.8004 50.8252 64.1567 43.2144 64.0712 35.7935C60.7932 33.9187 59.5256 30.128 62.4175 27.2328C61.3797 26.5399 60.4149 26.9001 60.1988 25.3614C59.8879 23.1477 59.9598 17.1114 60.1729 14.7983C60.2707 13.7368 61.3329 12.7629 62.1733 12.1498C67.9399 7.94336 88.3332 8.05611 94.3172 11.8549C95.5013 12.6066 96.1885 13.3886 96.3645 14.8276C96.7429 17.9218 96.135 21.6476 96.3746 24.8114C96.2457 25.6182 95.2681 26.3633 94.5201 26.5872ZM65.407 13.9725H90.2269L86.9301 13.2615C81.4458 12.4951 75.8795 12.479 70.3753 13.0681L65.407 13.9725ZM63.7274 24.5438V16.2908C63.7274 16.2601 63.5441 15.7485 63.3561 15.8281C63.1997 18.2985 62.9508 21.2506 63.1578 23.719C63.193 24.1384 63.1332 24.5836 63.7274 24.5438ZM65.5936 16.1053V24.2656C65.5936 24.2928 65.7919 24.7075 65.8754 24.7304L66.2452 24.2676L66.1525 15.8281C65.9525 15.7667 65.6382 15.9507 65.5936 16.1053ZM91.3466 24.2656V16.2908C91.3466 15.6765 90.7008 15.5181 90.5992 16.6598C90.4437 18.4083 90.773 20.1803 90.7937 21.8459C90.7988 22.2573 90.2223 24.4122 90.8828 24.5428C91.0503 24.576 91.3121 24.3851 91.3466 24.2656ZM93.2127 16.1053V24.0802C93.2127 24.6226 93.8947 24.2232 93.9704 23.3494C94.1859 20.8588 93.7362 18.3151 93.7716 15.8281C93.5716 15.7667 93.2573 15.9507 93.2127 16.1053ZM68.5794 16.6617C68.4221 19.2102 68.5794 22.0512 68.5794 24.6366C68.5794 24.9111 69.1393 24.9111 69.1393 24.6366V16.2908C69.1393 15.9575 68.6137 16.0501 68.4861 16.3835C68.4313 16.5266 68.5815 16.628 68.5794 16.6617ZM85.5615 25.0075V16.2908C85.5615 15.8795 84.9275 16.0695 84.82 16.6667C84.5787 18.0079 84.6739 22.7754 84.8038 24.2767C84.8494 24.8031 85.3834 25.759 85.5615 25.0075ZM88.3607 24.7293V16.2908C88.3607 16.0162 87.8009 16.0162 87.8009 16.2908V24.4511C87.8009 24.572 88.2011 24.8069 88.3607 24.7293ZM72.3118 25.0075V16.4763C72.3118 16.1565 71.5653 16.1569 71.5653 16.4763V24.822C71.5653 25.3132 72.1762 25.4629 72.3118 25.0075ZM75.8575 25.1929V16.6617C75.8575 16.5973 75.6119 16.3876 75.6686 16.1985C75.5975 16.1448 75.111 16.6256 75.111 16.6617V25.0075C75.111 25.4987 75.7219 25.6484 75.8575 25.1929ZM78.4701 16.4763V25.1929C78.4701 25.5127 79.2165 25.5123 79.2165 25.1929V16.4763C79.2165 16.2354 78.5908 16.0615 78.4701 16.4763ZM82.5756 16.1981C81.4405 16.1543 82.0158 16.6895 82.0158 17.0326V25.1929C82.0158 25.4675 82.5756 25.4675 82.5756 25.1929V16.1981ZM66.6643 28.4825C65.5841 28.6617 64.7861 29.2548 64.6566 30.3811C64.3319 33.2041 66.7191 33.0502 68.8614 33.2585C73.7432 33.7331 85.7713 34.0068 90.265 32.8347C92.866 32.1564 93.7206 29.6217 91.0477 28.6428C88.9507 27.8747 83.8097 28.7477 81.3715 28.8183C79.0157 28.8865 76.4329 28.8851 74.0769 28.8171C71.6637 28.7474 69.0884 28.0805 66.6643 28.4825ZM33.4975 204.257L33.1117 210.289C33.2715 217.68 46.0099 221.648 51.8919 223.158C66.5739 226.927 85.5748 227.665 100.553 225.553C108.505 224.432 126.738 220.586 131.364 213.703C133.855 209.996 132.501 202.49 132.394 198.05C131.871 176.292 132.538 155.03 132.954 133.309C133.201 120.451 134.389 109.009 125.406 98.5407C118.406 90.3828 107.571 87.2677 100.683 78.9711C90.9328 67.2273 91.2556 50.9663 90.2267 36.5063L89.9195 36.0607C82.4406 36.8063 74.9438 36.6524 67.4588 36.2269C67.3234 43.9711 67.1473 51.9744 65.9126 59.6348C64.8185 66.4225 62.7518 73.5643 58.7617 79.2346C52.0874 88.7194 40.0779 91.378 34.2798 101.826C29.4764 110.481 30.8297 118.568 31.0774 127.931C31.6891 151.056 32.1352 174.188 33.3014 197.309C33.4264 199.788 34.1025 202.253 34.25 204.711C34.2678 205.009 34.3896 205.982 34.0574 206.109C34.0755 205.802 34.0093 205.517 33.9217 205.224C33.8444 204.965 33.7627 204.301 33.4975 204.257ZM29.3901 220.764C26.6789 220.336 23.8457 220.186 21.1172 220.579C20.9064 220.609 20.9495 220.92 20.9894 221.04C21.1909 221.647 26.2083 221.577 27.0641 221.51C27.7395 221.458 28.9794 221.327 29.3901 220.764ZM130.35 221.134C130.298 221.09 129.172 220.949 128.996 220.977C128.783 221.012 127.876 221.442 127.738 221.687C128.511 221.662 129.347 221.8 130.09 221.524C130.276 221.455 130.669 221.398 130.35 221.134Z" fill="black"/>
<path d="M138.522 224.154C140.62 224.023 143.825 223.998 145.468 225.487C147.203 227.059 145.416 228.161 143.883 228.74C140.77 229.914 136.536 229.88 133.301 229.233C132.265 229.026 128.115 228.026 129.522 226.336C130.654 224.975 136.666 224.27 138.522 224.154ZM137.403 225.453C136.376 225.533 132.592 226.068 132.024 226.785C131.857 226.996 131.76 226.937 132.03 227.157C133.547 228.393 139.986 228.098 141.878 227.489C142.483 227.294 143.629 226.968 143.052 226.219C142.246 225.173 138.656 225.355 137.403 225.453Z" fill="black"/>
<path d="M106.231 41.0984C115.455 39.7718 114.813 51.5523 106.557 50.8769C100.218 50.3583 100.254 41.9581 106.231 41.0984ZM106.414 42.3928C106.075 42.4502 105.642 42.6322 105.352 42.8207C101.059 45.6082 105.817 51.2651 109.723 48.0926C112.85 45.5532 110.269 41.7406 106.414 42.3928Z" fill="black"/>
<path d="M109.777 27.1883C112.526 26.7892 115.722 28.066 115.987 31.1193C116.324 35.0023 112.232 37.1786 108.84 35.8116C104.274 33.9714 104.952 27.8887 109.777 27.1883ZM110.145 28.2975C106.19 28.9678 107.119 34.844 111.167 34.5201C115.774 34.1515 115.188 27.4429 110.145 28.2975Z" fill="black"/>
<path d="M113.505 16.058C116.083 15.6218 119.106 16.8559 118.978 19.8182C118.821 23.4399 113.81 24.5562 111.41 22.1316C109.384 20.0849 110.732 16.5272 113.505 16.058ZM114.448 16.7934C110.856 17.1085 111.197 22.1598 114.947 21.9508C119 21.7248 117.654 16.5121 114.448 16.7934Z" fill="black"/>
<path d="M16.1406 222.059C15.0553 221.71 12.0786 222.925 14.4485 223.464C17.0571 224.057 20.5811 223.223 23.329 223.541C24.1701 223.638 24.8341 224.085 23.8431 224.615C22.0427 225.578 16.2384 225.207 14.2338 224.605C13.3214 224.33 11.6835 223.693 12.3119 222.431C12.696 221.659 15.5322 221.129 16.1406 222.059Z" fill="black"/>
<path d="M88.1754 240.419C88.1413 240.149 88.6639 240.087 88.8436 240.068C90.0729 239.936 95.0514 240.085 95.8247 239.306C96.2232 238.905 94.79 238.774 94.6104 238.753C92.3534 238.497 90.0694 238.581 87.8008 238.565C89.4817 236.88 93.4882 237.376 95.6763 237.88C98.3182 238.489 98.4362 239.489 95.8171 240.321C93.5283 241.048 90.4148 241.351 88.1754 240.419Z" fill="black"/>
<path d="M84.0677 239.867C84.1175 240.11 83.7248 240.162 83.5568 240.189C81.3519 240.545 78.3999 240.72 76.1452 240.8C73.3167 240.9 70.4602 240.787 67.6474 240.605C67.6004 240.329 67.9965 240.375 68.2038 240.328C68.6871 240.218 69.3025 240.11 69.7948 240.052C71.4224 239.862 73.5553 239.726 75.1967 239.672C78.1637 239.573 81.1075 239.888 84.0677 239.867Z" fill="black"/>
<path d="M145.229 220.063C146.245 219.884 149.33 220.041 150.124 220.674C150.822 221.231 149.583 221.787 149.092 221.862C148.263 221.989 144.452 221.949 144.171 221.016C144 220.452 144.796 220.14 145.229 220.063Z" fill="black"/>
<path d="M106.031 14.9579C107.645 16.6784 104.21 19.943 102.641 17.6783C101.082 15.4289 104.483 13.3092 106.031 14.9579ZM103.982 15.115C102.607 15.5229 103.665 17.9741 105.159 17.2208C106.182 16.705 105.401 14.6938 103.982 15.115Z" fill="black"/>
<path d="M127.363 230.964C127.944 231.75 124.493 232.263 124.099 232.273C123.41 232.291 122.395 232.11 121.817 231.745C120.926 231.184 121.442 230.918 122.141 230.689C123.692 230.183 125.794 230.602 127.363 230.964Z" fill="black"/>
<path d="M104.739 54.6248C106.969 54.3013 107.128 57.4608 105.235 57.7337C102.782 58.0874 102.666 54.9253 104.739 54.6248ZM104.716 55.5392C104.056 55.7581 104.497 56.9718 105.213 56.7939C105.989 56.6009 105.938 55.1341 104.716 55.5392Z" fill="black"/>
<path d="M110.889 55.1971C111.966 56.2654 111.146 58.1798 109.369 57.92C106.61 57.5164 108.977 53.3 110.889 55.1971ZM110.335 55.7484C109.551 54.9601 108.662 56.2947 109.309 56.9536C109.956 57.6112 111.124 56.5429 110.335 55.7484Z" fill="black"/>
<path d="M158.902 221.321C159.452 221.825 157.522 221.699 157.317 221.688C156.161 221.624 154.129 221.522 153.064 221.278C150.975 220.799 154.286 220.303 155.261 220.394C155.643 220.429 158.764 221.194 158.902 221.321Z" fill="black"/>
<path d="M13.9008 213.344C13.8437 213.671 13.5258 213.666 13.276 213.741C11.2173 214.36 9.24686 213.997 7.18262 213.712C7.24745 213.357 7.57088 213.404 7.82669 213.333C9.92064 212.755 11.8051 213.018 13.9008 213.344Z" fill="black"/>
<path d="M103.477 230.035L105.116 229.346C106.476 229.03 107.941 228.557 109.359 228.737C109.618 228.77 109.896 228.834 109.634 229.105C109.535 229.208 107.072 230.035 106.929 230.035H103.477Z" fill="black"/>
<path d="M104.747 38.5877C104.881 38.4052 104.597 37.9733 105.06 38.0844C106.267 40.1699 101.469 40.4072 102.826 38.0835C103.083 38.0322 104.109 39.4549 104.747 38.5877Z" fill="black"/>
<path d="M104.782 60.7101C104.588 61.839 103.225 61.6489 102.358 61.6354C102.261 61.1531 102.466 61.3125 102.722 61.1718C103.349 60.8276 104.057 60.6331 104.782 60.7101Z" fill="black"/>
<path d="M113.74 51.4375C113.254 52.3906 112.65 52.9102 111.501 52.732C111.966 52.0056 112.869 51.464 113.74 51.4375Z" fill="black"/>
<path d="M72.4982 98.265C72.8997 95.2951 76.7407 92.6401 79.4117 91.7825C82.5859 90.7634 79.4162 92.5771 78.6543 93.2554C76.5029 95.1707 75.0648 97.4567 74.9259 100.398C75.8072 99.6281 76.3062 98.5064 77.0681 97.6137C78.2464 96.233 80.1631 94.38 82.0147 94.3694C80.4879 95.8954 79.3036 97.6706 78.4717 99.6559C81.1936 97.476 84.5552 95.1644 87.9389 94.1368C90.6221 93.322 92.3599 93.6863 94.8488 94.7842C95.0755 94.8842 95.4009 94.8772 95.4519 95.2031C91.1976 95.4443 86.5995 96.0993 83.5086 99.2832C85.142 98.6833 86.6359 98.2128 88.3561 97.8897C92.5677 97.0984 98.0614 96.3816 101.983 98.2659L91.1607 100.214C91.112 100.483 91.5129 100.453 91.7142 100.494C94.7934 101.118 96.5435 101.284 99.3744 102.898C100.443 103.507 103.52 105.698 103.847 106.8C103.924 107.06 103.83 107.129 103.573 107.072L93.7318 103.127L90.7875 102.625L94.7722 103.948C98.236 105.658 103.976 109.018 103.639 113.45C103.624 113.644 103.551 114.476 103.292 114.491C102.656 113.112 101.709 111.553 100.492 110.598C101.636 113.47 102.222 116.642 101.421 119.684L99.2162 115.11L97.8797 113.195C98.2513 115.14 98.4238 117 97.9777 118.95C97.5765 120.704 96.2709 122.497 96.5831 124.405C96.7492 125.42 99.1557 126.986 99.692 128.732C101.121 133.385 94.5825 133.702 95.4538 138.417C97.3033 137.48 102.401 135.834 103.02 133.791C103.374 132.624 103.131 131.436 103.301 130.361C103.484 129.203 105.962 127.449 107.056 127.045C107.516 126.875 107.966 127.007 108.432 126.744C108.898 126.481 109.289 125.619 109.724 125.246C111.672 123.577 112.749 124.045 114.145 121.109C115.443 118.379 115.047 117.14 115.503 114.483C116.37 109.437 124.973 111.796 124.667 115.429C124.557 116.742 123.411 117.894 123.257 119.222C123.09 120.662 123.413 124.064 123.971 125.375C124.379 126.333 125.279 127.329 125.453 128.354C125.639 129.456 125.465 130.712 125.323 131.809C125.417 132.09 126.912 132.375 127.426 132.698C129.104 133.751 129.322 136.162 128.265 137.737C127.992 138.145 127.092 138.815 127.017 139.104C126.867 139.688 127.812 141.197 127.22 142.82C126.878 143.758 125.475 144.8 125.349 145.225C125.041 146.261 125.551 147.02 124.72 148.31C124.175 149.156 122.615 149.829 122.542 149.946C122.453 150.09 122.418 151.376 122.275 151.814C121.799 153.272 120.193 154.34 118.689 154.38C116.737 154.431 113.861 152.409 112.383 152.733C111.633 152.898 109.177 154.85 108.082 155.328C107.237 155.697 105.979 155.861 105.274 156.246C104.673 156.574 103.983 157.602 103.379 158.072C101.547 159.494 99.306 159.703 97.0412 159.557C96.3701 159.513 95.67 159.18 94.9936 159.183C94.1076 159.188 92.9819 159.617 92.094 159.747L94.5254 160.203L96.9447 161.598C96.3931 161.639 95.5294 161.95 95.0061 161.797C94.8236 161.744 94.9002 161.34 94.7097 161.139C94.0207 160.415 91.9142 161.475 91.1607 161.877C91.3421 162.307 93.5096 163.114 94.0305 163.077C94.5136 163.043 95.0814 162.67 95.597 162.579C97.3874 162.264 98.976 162.233 100.676 161.412C100.728 161.172 100.329 161.114 100.166 161.09C99.484 160.988 98.8574 161.04 98.1454 160.862C97.8328 160.784 97.6005 161.049 97.6923 160.488C98.3807 160.435 99.1454 160.57 99.8213 160.471C100.357 160.393 100.681 160.048 101.008 159.982C103.307 159.518 105.801 159.842 108.141 159.747C108.057 159.994 107.274 160.164 107.031 160.218C105.193 160.619 103.292 160.455 101.424 160.489C101.481 160.712 101.722 160.929 101.934 161C102.416 161.161 104.725 161.575 105.256 161.601C106.66 161.67 108.547 160.251 110.477 160.12C111.924 160.021 114.026 160.729 114.932 160.621C115.332 160.573 116.068 159.859 116.532 159.645C119.387 158.323 121.783 159.054 124.558 157.792C129.263 155.652 123.438 154.87 121.392 154.275C122.697 153.275 125.742 153.876 126.978 154.843L127.735 155.85C127.912 152.887 127.939 149.773 128.489 146.857C128.546 146.555 128.366 146.536 128.855 146.579C129.113 152.027 129.124 157.533 129.052 163C128.916 173.343 128.564 183.596 128.848 193.971C129.089 202.755 131.727 207.996 122.823 213.005C108.524 221.049 86.5731 220.291 70.5464 219.642C62.0656 219.298 54.692 218.338 46.8057 215.045C39.6494 212.058 36.7386 209.969 36.287 201.76C35.8091 193.073 36.0137 184.296 35.7426 175.595C35.4375 165.803 34.8382 155.925 34.6075 146.122C34.5421 143.341 34.6727 140.55 34.6143 137.769L35.1641 138.707C36.2869 143.26 36.0197 148.031 36.11 152.697L36.8016 149.956C37.0243 148.13 39.6683 145.961 39.637 144.281C39.5555 139.904 34.6725 138.336 34.0718 133.858C33.7106 131.166 35.9751 129.578 38.4163 130.652L40.7734 132.11C39.5184 130.017 37.8069 127.497 39.3828 125.073C40.3728 123.55 41.5907 123.264 43.2064 124.037C43.9119 124.375 44.3573 125.011 45.0647 125.249C45.0506 123.572 45.7755 120.745 47.6648 120.322C48.2745 120.185 48.8985 120.381 49.4609 120.066C49.8079 119.872 51.6626 117.378 51.7812 116.993C51.8547 116.755 51.7402 116.628 51.5069 116.72C50.7728 117.012 49.7409 117.892 48.7948 118.292C48.0077 118.624 46.835 119.044 46 119.038C46.4559 118.272 47.2756 117.759 47.8675 117.185C50.4744 114.655 53.0098 112.064 55.1428 109.116C52.5114 109.736 50.2433 111.311 47.7202 112.216C47.5304 112.284 47.0135 112.661 47.1199 112.177C48.9149 109.835 50.6255 107.547 53.5243 106.486L57.3814 105.036L53.1757 105.228L49.7322 104.666L61.9575 102.255C63.7753 102.105 65.5378 102.537 67.2729 102.992C66.3004 102.157 64.7999 101.429 63.5893 100.999C60.6874 99.9679 58.0411 100.513 55.0419 100.591L53.4645 100.214C55.0841 99.9427 56.6718 99.0846 58.2692 98.7755C61.8454 98.0835 65.2208 99.4545 68.3926 100.952C67.0724 99.1103 64.9369 97.4886 62.6085 97.2431C62.6058 96.9736 63.1778 96.885 63.3943 96.8214C67.1077 95.7302 70.4605 98.5131 72.4982 101.325C72.5904 100.36 72.3716 99.2011 72.4982 98.265ZM96.0118 118.944V115.698C96.0118 114.921 94.8866 112.452 94.432 111.705C92.8827 109.157 91.2544 109.092 88.9353 107.709C87.6573 106.947 86.4737 105.76 85.1955 105.12C85.0216 105.033 84.2846 104.586 84.2564 105.032C87.2378 106.732 87.6445 110.543 85.2805 113.008C85.3351 112.109 85.6413 111.504 85.5404 110.526C85.4942 110.077 84.7017 108.021 84.4381 107.818C83.8801 107.388 84.2494 108.257 84.2626 108.461C84.3092 109.177 84.1757 109.876 83.9148 110.538C83.8441 110.717 83.5482 111.303 83.324 111.339C83.2592 107.45 81.1052 104.775 76.9779 105.221C76.8736 105.757 77.1335 105.517 77.3873 105.639C80.0211 106.903 80.6894 108.323 79.5873 111.153L79.1642 109.259C78.5998 107.373 76.762 106.292 74.8318 106.317C74.3231 106.324 71.9316 106.757 71.662 107.078C71.5255 107.24 70.3249 110.729 70.2802 111.083C70.1298 112.276 70.5078 113.321 70.4435 114.493L69.6215 113.735L68.7678 112.268C68.6434 115.403 68.0975 117.717 66.3054 120.301C65.3071 121.74 63.5566 123.11 63.4464 124.878L65.2183 123.395C64.7066 124.905 63.564 126.333 63.912 128.032C61.6632 125.986 59.7554 121.549 55.9731 123.015C53.0224 124.159 53.538 127.604 54.6726 129.89C55.0919 130.735 57.4935 134.123 58.2713 134.3C59.0138 134.469 60.355 132.835 61.1266 132.402C64.5969 130.455 67.715 132.677 67.0417 136.611C66.9056 137.406 65.9259 138.375 65.9913 138.838C66.0326 139.13 67.7402 140.698 68.1177 141.009C73.4594 145.409 78.8771 147.306 85.3785 144.078C91.9043 140.837 95.4266 136.899 95.0864 129.229C95.0445 128.285 94.6866 127 94.6985 126.093C94.7139 124.912 95.5817 121.857 95.3739 120.985C95.1051 119.857 92.2505 117.785 91.2188 117.123C90.6256 116.743 89.8911 116.166 89.2421 115.935C88.3057 115.602 87.1868 115.964 87.2523 114.415C87.3683 111.673 90.034 113.212 91.2944 114.081C93.2041 115.398 94.6154 117.127 96.0118 118.944ZM62.9826 118.017C64.4614 116.519 65.4025 114.394 65.2183 112.268L62.9826 118.017ZM117.514 116.123C117.721 116.272 118.945 116.339 119.348 116.432C120.477 116.692 121.309 117.465 122.323 116.069C124.072 113.662 118.108 112.183 117.37 114.483C117.253 114.849 117.217 115.911 117.514 116.123ZM64.2889 120.057C66.2839 118.5 67.4429 116.333 67.0844 113.752L64.2889 120.057ZM115.98 147.69C117.243 146.538 115.783 146.256 116.02 144.862C116.185 143.896 117.277 143.267 117.439 142.736C117.636 142.091 117.145 141.481 117.373 140.638C117.46 140.316 117.998 139.354 118.22 139.067C118.521 138.679 119.636 137.962 119.679 137.745C119.723 137.529 119.372 136.891 119.338 136.471C119.236 135.182 119.361 134.126 120.366 133.226C121.785 131.954 123.414 132.547 123.585 129.748C123.684 128.129 122.495 127.236 121.855 125.994C120.568 123.495 121.203 120.894 121.18 118.227C120.03 118.026 119.107 116.893 117.893 117.415C116.918 117.835 116.705 120.457 116.256 121.537C114.854 124.907 113.266 124.562 111.223 126.55C109.473 128.251 111.298 128.306 112.019 130.02C113.968 134.658 110.432 135.489 109.039 138.66C108.551 139.769 107.936 141.645 107.635 142.828C106.867 145.84 106.296 148.884 109.926 150.09C110.811 150.384 113.503 150.943 114.419 151.018C116.205 151.163 115.463 150.175 115.622 148.912C115.674 148.493 115.95 148.101 115.98 147.69C114.137 149.371 112.289 149.596 110.292 148.057C110.06 147.878 108.575 146.432 108.517 146.297C108.418 146.068 108.555 145.954 108.791 146.024C109.502 146.236 110.313 146.942 111.128 146.947C110.335 146.188 109.305 145.686 108.702 144.725C111.042 145.833 113.402 146.83 115.965 147.338C116.007 147.452 115.988 147.572 115.98 147.69ZM48.44 133.952C48.6628 134.104 50.498 133.382 50.992 133.272C51.3538 133.192 52.2267 133.341 52.296 132.955C51.9975 130.77 50.8636 123.152 48.749 122.237C48.0567 121.938 47.8501 122.138 47.3943 122.649C45.7685 124.473 47.4443 127.576 47.8137 129.659C48.0599 131.047 47.9475 132.589 48.44 133.952ZM41.9875 125.331C41.1852 125.325 40.738 126.182 40.63 126.872C40.3795 128.472 42.1515 131.346 42.7259 133.046C42.915 133.605 43.2559 136.038 43.819 135.985C43.9573 135.972 46.1816 134.833 46.2885 134.718C46.9357 134.022 46.1622 131.582 45.8629 130.67C45.4125 129.298 43.6572 125.344 41.9875 125.331ZM96.5716 131.926C98.5274 130.967 98.1603 129.047 96.8507 127.661C96.8634 127.938 96.5716 128.48 96.5716 128.681V131.926ZM106.645 133.597C106.669 133.617 106.692 133.91 106.831 134.054C107.731 134.99 108.607 135.736 109.915 134.894C113.033 132.886 108.784 125.527 106.33 130.033C104.876 132.704 104.93 135.804 104.985 138.696C105.02 140.594 103.438 140.678 102.269 141.761C100.219 143.659 99.3194 147.801 100.065 150.432C101.268 154.674 104.655 152.327 107.581 151.583L105.262 149.533C104.382 148.237 104.621 147.237 104.87 145.829C105.192 144.002 105.801 141.842 106.329 140.046C106.549 139.297 107.511 137.241 107.552 136.806C107.584 136.464 106.038 135.435 106.275 133.689C106.253 133.528 106.623 133.578 106.645 133.597ZM41.8942 138.416C42.0379 137.705 42.6317 137.593 42.3744 136.744C42.1876 136.127 39.5983 133.15 38.9962 132.673C38.2078 132.048 36.9259 131.394 36.2128 132.493C35.3887 133.763 36.7825 135.829 37.6066 136.835C38.1931 137.552 40.6776 139.53 40.8576 139.91C41.2058 140.646 41.4371 142.129 41.8028 143.051C42.6528 145.195 43.6749 147.027 46.1759 147.422C47.4908 147.63 48.6348 147.287 49.9168 147.411C48.0426 148.707 46.4907 149.187 44.2681 148.39C43.5268 148.125 41.8345 146.815 41.3389 147.034C41.0453 147.164 39.7266 148.916 39.5034 149.303C34.2187 158.461 49.5303 164.598 54.7365 156.652C56.494 153.97 57.3915 151.459 56.4481 148.246C55.9668 148.195 56.1507 148.245 56.0702 148.517C55.8412 149.291 55.8041 150.195 55.5683 150.988C53.9614 156.392 50.6788 159.451 44.6837 158.363C39.7513 157.468 38.5308 151.116 42.4512 148.247C42.2143 149.186 41.5325 150.009 41.3781 150.981C40.762 154.858 43.405 157.711 47.3468 157.282C52.5709 156.713 53.8946 151.075 54.953 146.852C53.041 146.778 51.7274 146.465 50.7015 144.779C47.9944 140.329 53.184 136.561 57.3809 137.678L54.6724 138.413C48.5655 140.148 51.7707 148.802 57.1975 144.076C58.4838 142.955 59.4273 140.991 60.7395 139.806C61.956 138.708 65.0333 137.748 65.471 136.346C65.8272 135.205 65.1655 133.326 63.7982 133.233C61.2358 133.058 58.9983 136.836 58.0309 136.936C56.5397 137.09 54.8735 134.743 53.6556 134.424C51.6111 133.89 49.091 134.637 47.2383 135.476C45.4022 136.308 43.7266 137.573 41.8942 138.416ZM121.268 134.4C120.382 135.31 120.565 136.882 121.765 137.397C123.699 138.227 128.028 137.817 126.816 134.787C126.082 132.95 122.414 133.223 121.268 134.4ZM102.729 136.564C102.634 136.458 100.45 137.675 100.179 137.829C93.6513 141.542 92.3874 150.457 97.5099 155.938C99.3546 157.912 100.478 156.69 102.356 155.482C100.563 155.125 99.3183 154.682 98.3994 153.014C96.7379 149.998 98.056 143.493 100.3 140.917C100.731 140.422 102.509 139.162 102.606 138.93C102.889 138.258 102.659 137.285 102.729 136.564ZM121.156 139.018C119.155 139.355 117.751 141.837 120.457 142.777C121.974 143.303 125.092 144.174 125.746 142.097C126.593 139.412 123.181 138.678 121.156 139.018ZM76.2296 154.551C75.9138 154.585 75.6364 154.541 75.3456 154.412C74.199 153.903 72.3843 150.017 71.5305 148.745C70.5 147.21 66.058 141.264 64.8504 140.362C64.5164 140.112 64.308 139.876 63.8349 139.904C63.3981 139.929 61.6548 140.775 61.7022 141.258C61.7348 141.59 62.4397 142.916 62.5632 143.562C63.0627 146.174 61.9833 148.787 61.8621 151.399C64.4526 150.469 65.0948 146.587 68.2578 147.918C70.8202 148.996 72.6783 151.786 72.4058 154.552C71.384 153.118 70.6998 151.09 68.7659 150.66C69.1259 151.528 69.7798 152.213 70.163 153.071C70.453 153.72 71.0437 156.355 71.2346 156.55C71.4549 156.776 73.3324 157.153 73.6984 157.136C76.7601 156.994 79.2463 152.559 78.6477 149.739C76.2046 149.582 74.479 147.666 72.4832 146.5C71.9737 146.202 71.1288 145.66 70.633 145.742C73.3212 148.066 75.5255 151.015 76.2296 154.551ZM97.3162 157.705C97.5267 157.464 96.1503 156.298 95.9342 156.021C93.5543 152.968 92.0932 148.395 93.3961 144.627L95.3598 140.088C94.45 140.551 93.716 141.364 92.9023 141.911C91.2251 143.038 89.3089 143.477 89.3137 146.093C89.3144 146.443 89.4989 147.697 89.8515 147.875C89.8706 147.322 89.9992 146.769 90.1744 146.247C90.2873 145.911 90.8489 144.246 91.3456 144.722C91.4741 145.945 91.1446 147.133 91.1508 148.348C91.158 149.736 91.2956 152.469 91.7099 153.728C92.5262 156.207 94.9291 157.193 97.3162 157.705ZM36.1081 154.182V158.911C36.1081 160.039 37.3057 161.271 38.2226 161.817C41.5818 163.815 47.2674 163.908 51.0834 164.614C52.4772 164.872 55.3333 166.651 56.4456 166.141C56.7265 166.012 56.9966 165.493 57.2943 165.313L57.5655 165.31C58.3037 167.112 60.5024 167.655 62.2358 166.887C63.7188 166.23 63.2552 165.174 63.7223 164.657C64.1486 164.184 66.0659 164.332 65.5945 165.308C64.3009 165.073 64.5673 165.898 64.0705 166.67C63.1194 168.149 60.8721 168.763 59.1976 168.42C58.2726 168.23 57.2257 166.903 56.879 166.822C56.5711 166.75 55.4668 167.034 54.7244 166.929C53.8011 166.799 52.8103 166.255 51.9723 165.866C51.6512 166.195 53.7632 167.487 54.0199 167.631C55.7346 168.594 57.6241 169.01 59.4733 169.632C59.6697 169.698 60.0377 169.673 59.994 169.944C57.174 169.974 54.324 169.239 51.8452 167.937C50.7621 167.369 49.9224 166.43 48.6132 166.237C48.4107 166.448 49.885 167.811 50.1021 168.001C52.5897 170.172 55.513 171.065 58.6875 171.802C58.7197 172.132 58.0576 171.999 57.8517 171.984C56.9092 171.912 51.1161 170.827 50.8517 171.06C50.8265 171.617 51.4228 171.824 51.783 172.078C51.517 172.622 49.534 172.766 50.3018 173.366L67.6452 176.81C67.6888 177.133 67.2213 176.984 66.9949 176.993C64.1579 177.11 60.8867 176.375 58.0898 175.826C56.1851 175.453 54.3215 174.636 52.3437 174.77C52.387 175.048 52.6963 175.115 52.8995 175.235C56.7293 177.507 61.1882 178.781 65.5925 179.406C65.511 179.729 64.6403 179.788 64.3887 179.782C63.2232 179.754 61.1896 179.367 59.9909 179.13C57.3516 178.608 54.9386 177.478 52.3438 176.81C51.7446 177.3 56.2655 179.435 56.5691 179.563C58.2439 180.271 60.0167 180.621 61.6735 181.353C57.6312 181.392 53.9039 179.694 50.2928 178.106C49.8732 178.513 52.6228 180.274 52.9002 180.428C54.8389 181.503 57.2574 182.356 59.4341 182.745C59.44 183.007 58.5709 183.077 58.4083 183.076C56.4086 183.053 54.4629 182.637 52.5303 182.188C52.8903 183.448 56.2688 184.05 56.6354 184.414C56.9032 184.681 56.6183 184.75 56.3592 184.783C55.4037 184.903 54.4056 184.699 53.4634 184.599C54.3894 186.417 56.8606 184.795 58.4925 184.495C62.4354 183.771 66.5 184.642 70.0713 186.36C66.3641 185.821 62.7251 185.132 59.0218 186.134C58.3046 186.328 57.2759 186.579 56.8225 187.192C59.97 186.406 62.6234 186.315 65.8145 186.881C71.9459 187.969 76.8989 189.864 83.3601 188.623C88.0741 187.717 92.4667 185.373 96.9443 183.762C97.2217 183.552 97.1075 183.587 96.9492 183.388C96.615 182.967 94.2504 181.975 93.6868 181.99C92.3526 182.025 88.5193 183.798 86.7609 184.213C86.1848 184.349 85.48 184.547 84.9037 184.594C84.6999 184.611 84.2084 184.731 84.2564 184.414L98.4378 179.035L95.8256 181.071C99.1608 182.819 103.246 183.944 106.466 185.799C107.49 186.389 108.634 187.56 109.505 187.972C110.391 188.392 111.552 188.382 112.533 188.672C115.057 189.418 117.7 191.988 117.852 194.698C117.884 195.265 117.546 196.956 117.69 197.18C117.759 197.289 119.808 198.307 120.006 198.319C121.088 198.39 125.311 194.861 124.378 198.32C125.75 198.59 128.644 197.268 126.997 195.809C125.602 194.573 123.956 196.438 122.512 195.259C123.628 193.828 125.205 193.608 125.481 191.536C125.558 190.962 125.749 189.29 124.93 189.499C123.986 189.739 122.76 190.777 121.578 190.716C122.298 189.845 123.496 189.508 124.38 188.772C124.803 188.42 126.549 186.635 125.072 186.855C124.485 186.942 122.72 188.005 121.804 188.253C121.234 188.408 120.689 188.559 120.086 188.49L123.842 186.383C124.664 185.772 125.685 185.237 125.858 184.122C125.969 183.412 126.033 179.778 125.858 179.137C125.748 178.733 125.599 178.436 125.124 178.551C124.552 178.69 122.453 180.386 121.634 180.851C119.319 182.163 116.409 183.348 113.741 183.483L118.036 181.541C120.071 180.512 124.731 177.753 125.452 175.558C125.536 175.304 125.633 174.837 125.221 174.956C124.675 175.114 122.288 177.285 121.377 177.813C120.771 178.164 120.054 178.61 119.339 178.661C121.135 176.627 124.272 175.138 124.562 172.171C124.111 172.313 122.27 174.672 121.951 174.395C122.121 174.044 124.027 172.19 123.817 171.987C122.343 171.885 121.028 171.582 119.892 170.602C119.604 170.354 119.412 169.797 119.151 169.657C118.649 169.388 115.906 171.097 115.047 171.057C115.898 169.922 117.471 169.547 118.219 168.278C116.133 168.578 114.175 169.424 112.062 169.573L117.103 167.26L118.219 166.424C117.525 166.826 116.448 166.177 115.907 166.282C115.775 166.307 114.635 167.426 114.171 167.684C112.948 168.366 111.672 168.402 110.286 168.278C109.695 168.225 109.206 167.866 108.611 167.893C107.758 167.931 106.418 168.787 105.241 168.836C104.171 168.88 102.706 168.279 101.78 168.541C101.233 168.695 100.809 169.884 100.407 170.327C98.2746 172.672 95.065 173.438 92.1528 172.019C91.126 171.519 90.4208 170.155 90.2891 170.123C89.7828 170.001 88.8094 170.175 88.1285 170.084C87.3009 169.973 86.0027 169.286 85.4389 169.257C84.8805 169.228 83.6597 169.882 82.8536 169.944C82.0132 170.008 81.3352 169.777 80.5236 169.761C80.5798 171.917 81.9765 173.676 82.4522 175.725C82.6845 176.726 82.6331 177.928 82.8874 178.816C83.1362 179.685 84.2735 180.34 84.2745 180.981C84.2755 181.605 82.8853 182.64 82.4208 183.238C82.1417 183.597 79.9436 186.822 80.1503 187.007C83.1031 186.994 85.7672 185.9 88.5375 185.235C88.7254 185.19 89.1484 184.992 89.1056 185.337C84.0384 187.664 78.3126 188.962 72.8726 187.192C72.9312 186.711 74.4161 187.336 74.1756 186.733C73.5894 185.262 69.3111 181.964 69.1627 180.938C69.0876 180.418 69.8116 180.019 70.118 179.543C70.3793 179.136 70.5401 178.727 70.7175 178.284C71.7668 175.658 72.4079 172.611 73.431 169.947C72.3763 170.283 71.0052 170.085 70.085 169.469C69.7469 169.243 69.2996 168.559 69.008 168.49C68.179 168.293 66.8964 169.778 64.7954 169.162C64.4869 169.072 63.7239 168.747 63.542 168.464C64.2845 168.117 64.8951 168.507 65.6798 168.466C67.3539 168.379 68.5455 167.237 69.8837 166.422C69.6033 168.721 71.347 169.048 73.2542 168.75C75.3431 168.423 76.5112 166.876 78.8092 167.476C79.5348 167.665 80.2549 168.311 81.0876 168.55C83.4633 169.232 84.8559 168.127 87.0542 167.537L86.4942 168.459C87.664 168.941 89.4918 169.424 90.5892 168.544C91.0939 168.14 91.3976 167.097 92.091 166.793C91.6137 168.702 90.9389 170.234 93.2943 171.07C96.1975 172.101 98.7028 170.546 100.485 168.364C100.73 168.065 101.099 167.172 101.166 167.153C101.89 166.952 103.166 167.469 103.946 167.532C104.698 167.592 107.274 167.505 107.68 166.803C107.782 166.626 107.493 166.136 107.584 165.866C109.141 167.07 111.76 167.756 113.539 166.685C115.193 165.69 113.516 164.624 113.742 164.382C115.021 165.1 118.641 165.864 119.783 164.951C120.33 164.514 118.893 164.341 118.779 163.827C121.448 163.487 128.609 164.028 127.913 159.662C127.857 159.312 127.577 159.034 127.555 158.717C127.523 158.241 127.907 157.536 127.735 156.964L127.066 158.071L127.175 158.818C126.66 158.579 125.554 158.607 125.009 158.78C124.315 159 123.752 159.617 122.966 159.733C121.456 159.956 120.177 159.407 118.629 159.875C117.802 160.125 115.971 160.977 116.351 161.97C113.961 161.425 110.162 160.415 107.968 161.891C107.421 162.258 106.397 163.748 105.999 163.748C105.39 163.749 105.594 163.156 105.156 162.806C103.687 161.629 100.08 162.159 98.7439 163.44C98.3284 163.838 99.2609 163.949 99.7283 164.306C100.137 164.617 100.571 165.069 100.864 165.493C99.2205 165.171 97.6265 164.199 95.9097 164.19C95.1144 164.186 94.0814 164.658 93.3227 164.566C92.8307 164.506 92.4425 164.048 91.9605 163.864C89.3915 162.881 88.4355 164.565 86.1213 165.122L86.3073 164.569C85.7016 164.605 85.1858 164.65 84.8183 164.104C85.5276 163.72 85.5321 163.469 85.6946 162.753C86.3584 159.827 85.4347 156.505 86.8699 153.627C87.1944 153.582 87.0458 154.048 87.0542 154.272C87.1697 157.338 87.1002 160.427 86.6829 163.455C88.479 162.814 89.1855 163.097 89.2908 160.948C89.4222 158.265 89.3589 153.037 89.1054 150.381C88.9786 149.054 88.4151 147.672 88.3605 146.296C88.3334 145.612 88.5636 145.009 88.4548 144.353C86.9713 145.82 82.4348 146.969 81.2662 148.337C80.7624 148.926 80.8383 150.541 80.6539 151.437C80.1657 153.81 79.0063 155.045 77.1645 156.501C80.9691 156.527 81.9787 152.316 83.9905 149.931C86.0111 147.536 86.3996 149.573 88.3591 150.753C88.4947 151.112 88.1042 150.971 87.9875 151.158C86.8069 153.048 85.209 155.029 83.5107 156.502C82.8006 157.118 81.6271 157.659 81.0831 158.355C80.8772 158.619 79.2572 162.071 79.2444 162.287C79.2312 162.51 79.3187 162.623 79.5246 162.685C80.1251 162.865 81.2022 162.702 82.0561 162.951C83.2025 163.285 84.6538 164.342 84.4406 165.679C83.7469 165.703 83.4195 164.984 82.9374 164.671C80.9366 163.374 76.6492 163.649 74.4051 164.33C73.3513 164.649 71.8896 165.619 70.8861 165.669C70.5472 165.685 67.5176 165.166 67.8332 164.755C68.0238 164.811 68.2346 164.567 68.2993 164.567H71.0986C71.6614 164.567 73.8255 163.544 73.7268 162.891C73.5067 161.436 67.994 157.868 66.7045 156.508C65.607 155.351 64.7112 153.682 63.7275 152.407C63.3635 152.182 61.9876 153.153 61.8906 153.569C61.7772 154.056 62.3089 155.771 62.0276 156.48L61.3036 158.817C60.7156 157.501 61.7162 155.36 61.2772 154.113C61.1436 153.733 60.0844 153.883 60.002 152.582C59.8973 150.929 60.8406 148.298 60.9356 146.493C61.0042 145.19 60.8962 144.065 60.3659 142.869C59.148 143.932 58.511 145.541 56.9972 146.335C58.405 150.775 59.0189 156.626 55.0455 159.927C51.4531 162.911 48.9415 162.833 44.5352 161.849C40.8906 161.035 38.264 159.57 36.7634 156.034L36.1081 154.182ZM119.463 144.051C117.718 144.133 117.054 145.47 118.303 146.772C118.668 147.152 120.456 148.12 120.97 148.203C122.736 148.486 123.775 147.28 123.439 145.561C123.198 144.329 120.484 144.003 119.463 144.051ZM117.145 148.663C116.804 149.008 117.044 150.918 117.144 151.448C117.589 153.81 121.654 151.959 120.277 149.817C119.856 149.163 117.761 148.041 117.145 148.663ZM73.927 160.146C73.7465 160.203 73.5739 160.368 73.6193 160.576C75.5921 162.862 76.1846 159.434 73.927 160.146ZM122.468 165.714C120.615 165.921 119.743 168.463 121.752 168.939C125.767 169.89 125.381 165.389 122.468 165.714ZM41.2801 167.762C39.497 168.162 40.9211 170.774 42.9016 170.122C44.9226 169.456 43.51 167.261 41.2801 167.762ZM77.7215 169.019C77.0899 168.563 76.8678 170.777 77.1649 171.059C77.8528 171.714 78.1238 169.31 77.7215 169.019ZM45.2537 172.539C45.8781 172.751 46.3164 172.885 46.7416 172.264C46.3079 171.608 45.1276 171.506 45.2537 172.539ZM79.7762 174.58C78.6989 173.452 76.4851 172.476 74.9251 172.359L76.8503 173.688C77.8313 173.989 78.6955 174.695 79.7762 174.58ZM40.7716 208.522C38.7899 203.206 39.3596 197.481 39.1017 191.915C38.8794 187.119 38.5532 182.297 38.3237 177.481L37.79 174.584C37.4057 175.292 37.7859 175.852 37.7961 176.522C37.9246 185.004 37.5516 194.725 38.5357 203.049C38.7707 205.037 39.2826 207.074 40.7716 208.522ZM80.3342 177.735C80.6117 177.449 79.559 176.837 79.3821 176.736C78.0624 175.979 76.0068 175.239 74.551 174.77C75.9656 176.357 78.3488 177.068 80.3342 177.735ZM80.8948 180.705L73.4313 177.922C74.8582 179.442 77.6463 180.583 79.7024 180.868C79.9345 180.901 80.8505 181.052 80.8948 180.705ZM44.4551 179.262C41.4587 179.873 44.6292 183.018 47.1691 182.514C48.9843 182.154 48.3039 180.444 47.1097 179.691C46.3591 179.218 45.3205 179.086 44.4551 179.262ZM79.2172 183.115C76.7825 182.908 74.561 181.909 72.3116 181.075C73.4338 182.344 75.979 183.277 77.653 183.462C77.8528 183.484 79.826 183.613 79.2172 183.115ZM106.649 188.675C106.57 188.387 106.266 188.234 106.032 188.085C104.676 187.22 101.859 185.747 100.37 185.181C98.5067 184.473 97.3754 184.924 95.5894 185.568C92.0067 186.862 88.7892 189.088 85.0033 189.885C81.633 190.594 79.4484 190.244 76.1339 189.977C75.9292 189.961 75.4378 189.842 75.4852 190.159C80.0624 191.219 83.9416 191.52 88.5036 190.21C92.3101 189.118 96.9766 186.2 100.943 187.022C101.172 187.069 102.071 187.382 101.796 187.748C101.67 187.916 98.354 188.826 97.7811 189.045C96.8682 189.393 92.2421 191.157 92.4657 192.289C92.6373 192.546 92.8172 192.581 93.1121 192.583C93.9856 192.587 96.6256 191.035 97.6943 190.628C100.563 189.534 103.606 189.031 106.649 188.675ZM47.8152 187.794C45.5605 188.199 46.4088 190.605 48.5338 190.886C52.4638 191.405 50.8447 187.251 47.8152 187.794ZM68.3926 189.232C68.1477 188.853 67.3693 188.676 66.9391 188.545C64.2805 187.741 60.0797 187.289 57.9422 189.417C61.3947 188.367 64.8746 188.743 68.3926 189.232ZM99.9308 192.756C103.17 192.079 108.738 190.063 111.676 192.12C112.208 192.493 114.168 194.745 114.397 194.796C115.386 195.016 114.52 193.072 114.269 192.696C111.339 188.31 103.464 189.994 99.9308 192.756ZM81.4533 206.109C84.2971 200.579 79.3677 195.103 74.2773 193.308C70.1992 191.869 64.8819 189.711 60.6873 191.312C59.7786 191.659 58.801 192.496 60.4658 192.393C62.4619 192.27 64.5465 191.388 66.5274 192.293C67.5675 192.769 67.4635 193.228 66.5881 193.839C65.012 194.939 62.0426 195.662 60.7375 197.112C60.5518 197.318 60.2968 197.428 60.3691 197.764C62.4249 197.505 64.2549 196.341 66.2995 195.778C67.6606 195.403 69.0468 195.17 70.4444 194.985L65.8413 197.177L64.2873 198.32C67.8095 197.641 71.3165 196.784 74.9244 197.395C75.3034 197.692 74.0477 198.094 73.9043 198.143C72.3848 198.663 70.4871 198.761 69.0091 199.398C67.835 199.904 68.0378 200.413 69.2287 200.551C73.002 200.985 77.3365 199.794 80.2307 203.341L81.4533 206.109ZM47.8649 196.465C45.9275 195.2 44.7615 193.904 43.4183 192.076C43.2509 191.849 43.2279 191.554 42.8263 191.647C43.5604 193.861 45.4359 196.156 47.8649 196.465ZM54.3315 193.341C53.3269 193.674 54.6727 195.292 55.6232 194.44C55.9879 193.586 55.1272 193.076 54.3315 193.341ZM107.582 193.687C104.747 193.889 101.598 194.44 98.9996 195.634C98.4121 195.904 96.702 196.772 98.1569 196.853C98.613 196.879 106.092 194.551 106.886 194.198C107.146 194.083 107.505 194.013 107.582 193.687ZM45.812 198.32C44.1997 196.987 42.7359 195.793 41.5218 194.056C41.8419 196.046 43.7832 198.029 45.812 198.32ZM87.2991 197.265C85.2138 199.59 91.0228 200.707 91.5003 198.37C91.9207 196.313 88.2687 196.184 87.2991 197.265ZM122.317 198.883C121.456 198.841 120.89 199.703 120.011 199.618C119.203 199.54 118.204 198.413 117.107 198.219C114.754 197.804 113.258 200.047 112.808 202.03C113.622 202.049 114.43 201.963 115.242 202.115C116.918 202.43 118.058 204.34 119.904 203.997C120.996 203.793 122.804 202.081 123.119 201.049C123.384 200.182 122.328 199.662 122.317 198.883ZM126.384 199.664C126.091 199.413 125.004 199.478 124.551 199.354C123.941 199.188 123.558 198.642 122.885 198.694C123.039 199.006 123.49 199.052 123.824 199.335C125.616 200.861 123.966 202.941 122.499 203.966C121.903 204.382 119.977 204.886 119.897 205C119.873 205.033 120.158 205.444 120.063 205.793C119.703 207.121 114.071 206.6 113.748 206.1C113.452 205.643 114.123 205.376 114.485 205.277C115.333 205.044 116.245 205.062 117.101 204.903C115.946 203.149 113.91 202.832 111.989 203.536C110.307 204.153 109.234 205.995 107.396 206.298L108.842 206.806C111.89 206.52 114.38 208.677 109.735 208.899C108.069 208.979 107.07 208.1 105.47 208.927C104.228 209.57 104.404 209.93 105.675 210.324C106.975 210.726 113.067 211.498 113.557 211.949C114.178 212.52 113.215 212.987 112.725 213.169C109.172 214.488 105.949 211.745 102.447 211.492C100.893 211.38 98.7843 211.582 97.3206 212.141C95.4779 212.844 93.8375 214.914 91.7622 215.163C90.1601 215.355 87.3841 213.858 85.4698 214.458L79.2173 216.495C82.4009 216.421 85.5765 216.087 88.7328 216.684L86.4953 217.236C92.6451 217.62 98.7259 217.57 104.785 216.406C108.114 215.766 114.611 214.473 117.346 212.754C118.275 212.171 118.996 211.279 119.987 210.743C120.591 210.416 125.333 209.067 124.564 207.967C124.174 207.411 120.859 208.944 120.086 208.43C121.092 207.429 122.593 205.941 124.106 205.918C124.614 205.911 124.992 206.176 125.542 206.077C126.68 205.872 127.127 204.71 126.802 203.699C126.542 203.461 124.244 204.958 123.632 204.626C123.716 203.211 125.99 202.793 126.475 201.613C126.656 201.172 126.741 199.971 126.384 199.664ZM50.4329 200.596C49.9552 200.658 48.9774 200.916 48.8278 201.42C48.1382 203.744 54.9719 205.64 55.1409 203.037C55.256 201.265 51.8274 200.414 50.4329 200.596ZM100.863 202.03C100.456 200.68 98.4662 200.46 97.2475 200.571C96.9501 200.598 95.3641 200.981 95.2659 201.106C94.6487 201.892 98.2434 201.643 98.5281 201.663C98.9117 201.689 100.743 202.138 100.863 202.03ZM45.6255 202.218C44.8144 202.135 44.0746 202.17 43.7146 203.006C42.7163 205.323 47.8248 207.537 48.9884 206.021C49.1327 205.833 49.2758 205.843 48.9841 205.648C47.8472 204.887 44.1131 204.477 45.6255 202.218ZM62.0478 203.702C63.6064 205.654 65.7669 207.14 68.1657 207.913C70.1338 208.547 72.911 209.153 74.7338 208.058C73.9567 207.105 72.7154 207.522 71.6824 207.385C69.4802 207.094 67.5901 206.61 65.5881 205.652C64.379 205.074 63.314 204.177 62.0478 203.702ZM91.7201 205.366C91.8669 205.56 94.1933 206.255 94.6136 206.294C95.6273 206.389 96.8945 206.369 97.6877 205.647C96.711 204.458 94.9414 204.302 93.4945 204.444C93.2227 204.47 91.3156 204.833 91.7201 205.366ZM100.865 206.669C100.425 207.266 103.002 208.082 103.404 208.13C104.075 208.21 107.024 208.288 107.208 207.498C107.43 206.547 104.545 206.902 103.945 206.851C102.912 206.763 101.975 206.144 100.865 206.669ZM80.3646 208.547C79.9828 209.218 80.9281 209.292 81.3558 209.267C82.1199 209.222 85.5044 208.684 86.1624 208.47C87.0853 208.17 87.1395 207.62 86.2533 207.185C85.0839 206.611 83.6099 206.931 82.4465 207.374C82.1615 207.482 80.4326 208.427 80.3646 208.547ZM98.2507 208.89C97.4106 207.782 95.9255 208.117 94.8 207.964C94.1751 207.879 89.6731 206.956 89.6706 207.873C92.2655 208.976 95.5261 210.218 98.2507 208.89ZM61.8612 207.596C62.8779 209.547 67.4293 212.006 69.4806 211.364C69.7087 211.293 69.9247 211.237 70.0685 211.025C69.1126 210.181 67.7369 210.251 66.5673 209.872C64.8704 209.322 63.4488 208.356 61.8612 207.596ZM60.8614 209.886C59.6656 208.53 53.9129 207.331 52.7678 208.57C51.3297 210.126 56.4509 211.579 57.4786 211.672C58.6728 211.779 62.6741 211.942 60.8614 209.886ZM43.2014 208.522C43.5158 211.569 48.3478 212.524 50.4742 211.025C49.8441 210.062 49.5049 210.572 48.7127 210.57C46.3344 210.565 45.0989 209.817 43.2014 208.522ZM89.2937 211.863C88.7839 212.596 94.7927 212.946 93.1323 210.918C92.0947 209.651 88.4716 209.955 87.0556 210.564L89.7415 211.137L90.0363 211.396L89.2937 211.863ZM81.2306 210.245C80.4523 210.318 74.7401 211.385 74.7413 211.953C76.514 213.45 83.0824 213.374 84.2297 211.367C85.0672 209.901 81.9786 210.175 81.2306 210.245ZM61.8609 213.528C62.5765 213.459 66.3344 214.701 66.5255 213.805C66.7593 212.708 63.5575 212.739 62.932 212.831C62.796 212.85 61.455 213.206 61.8609 213.528ZM76.789 214.088C74.6091 213.275 72.9971 212.224 70.6325 213.346C70.5718 213.633 70.7198 213.734 70.9091 213.903C71.6447 214.56 74.5226 214.712 75.5292 214.594C75.81 214.561 76.6815 214.404 76.789 214.088ZM62.2335 214.645C61.9937 214.39 56.9248 213.328 56.1599 213.335C55.0347 213.421 55.8069 214.048 56.4474 214.366C57.8537 215.062 60.4645 215.477 61.9623 215.018C62.1685 214.955 62.5303 214.96 62.2335 214.645ZM73.4301 216.87C72.1382 216.688 70.9402 216.097 69.6026 216.111C68.8304 216.12 67.2565 216.313 66.7131 216.866C68.4997 217.106 70.2065 217.365 72.0295 217.236L73.4301 216.87Z" fill="black"/>
<path d="M130.538 206.854L130.925 208.983C130.782 217.168 114.081 220.861 107.808 222.006C93.4209 224.631 78.7618 225.388 64.2174 223.706C56.992 222.871 41.6286 219.878 36.9461 214.087C33.7114 210.087 35.766 206.247 34.9907 201.66L35.6797 203.291C36.6145 207.697 35.1359 209.635 39.1917 212.968C46.7911 219.215 62.5572 222.254 72.2206 222.614C87.5411 223.186 113.855 222.601 126.414 213.049C128.553 211.423 130.045 209.568 130.538 206.854Z" fill="black"/>
<path d="M86.1122 37.9096C86.144 37.9584 86.1374 38.4275 86.1193 38.4492C86.0213 38.5667 83.5426 39.2561 83.1776 39.3306C80.972 39.781 78.4819 39.7796 76.2296 39.9368L75.865 50.4239C75.2122 61.2551 73.9346 68.794 68.4248 78.2674C67.9532 79.0782 66.2085 82.1433 65.6849 82.5929C65.0847 83.1083 64.0561 82.2662 63.3545 82.2206C68.3638 75.3464 70.9366 66.2475 71.7506 57.8336C72.1634 53.5666 71.9859 49.4667 71.9307 45.231C71.9179 44.2477 71.8143 38.2582 72.0295 37.8955C72.4275 37.2244 74.2124 37.5426 74.8234 37.5349C77.825 37.4967 81.8353 37.236 84.7224 37.5255C84.9283 37.5462 86.073 37.8494 86.1122 37.9096Z" fill="black"/>
<path d="M62.4216 89.0854C62.7124 89.3362 62.342 89.4119 62.1829 89.4992C61.689 89.7701 60.8917 89.8458 60.3197 90.0562C48.5896 94.3712 37.8596 103.245 36.2962 116.256C35.9897 118.806 36.3137 122.139 35.3954 124.448L34.2443 126.546L33.6744 120.157C33.3202 109.541 35.9645 102.375 44.2309 95.5805C47.1271 93.2001 55.273 88.0376 58.9472 88.3601C59.3012 88.3912 62.2875 88.9698 62.4216 89.0854Z" fill="black"/>
<path d="M104.414 158.068C103.652 156.96 107.317 155.923 107.898 155.7C108.328 155.535 108.714 155.116 109.066 155.006C111.173 154.345 118.62 154.968 121.089 155.316C121.83 155.42 124.379 155.848 123.458 157.069C122.748 158.011 119.573 157.881 118.36 158.122C116.353 158.52 115.416 159.574 113.139 158.951C112.721 158.837 112.395 158.527 111.956 158.457C110.855 158.283 104.838 158.683 104.414 158.068Z" fill="black"/>
<path d="M70.4448 37.7129C70.6897 40.8016 70.7258 43.9736 70.64 47.0856C70.3731 56.7655 68.9141 71.956 63.0566 79.9797C62.6736 80.5044 61.5479 81.7682 60.8382 81.6666C60.4982 81.6179 60.6224 81.4182 60.7342 81.1988C61.4992 79.6976 62.6302 78.2135 63.425 76.6366C69.4752 64.6331 69.3433 51.1708 69.6921 38.0242L70.4448 37.7129Z" fill="black"/>
<path d="M129.974 121.539L128.656 115.711C126.548 107.63 122.249 99.9152 115.216 95.1288C114.822 94.8604 110.565 92.515 110.755 92.24C112.277 91.2139 113.131 92.1019 114.471 92.902C124.79 99.0611 130.462 109.492 129.974 121.539Z" fill="black"/>
<path d="M74.3632 86.4906C74.3262 86.8475 73.6136 86.8506 73.3461 86.8678C69.1274 87.1383 62.3992 87.1474 58.2452 86.651C57.7401 86.5906 57.0829 86.453 56.6367 86.2113L59.519 83.2266C64.4985 84.163 69.4815 85.1387 74.3632 86.4906Z" fill="black"/>
<path d="M92.2779 70.7241C90.391 68.3735 89.5568 64.9592 88.9797 62.0416C87.4284 54.199 87.1665 45.8627 87.6162 37.8984C87.8737 38.0066 87.9256 38.8439 87.9645 39.1262C88.5048 43.0497 88.4066 47.2028 88.7359 51.1561C89.2901 57.8079 90.3372 64.3435 92.2779 70.7241Z" fill="black"/>
<path d="M85.6996 83.0095C87.1804 82.759 88.7839 83.0477 89.6361 84.3865C92.0672 88.2054 86.2543 91.7351 83.5984 88.1614C82.3985 86.5468 83.5736 83.369 85.6996 83.0095ZM84.8723 87.7293C86.665 89.3791 90.0583 86.7708 88.0905 84.6245C86.1082 82.4623 82.8675 85.8842 84.8723 87.7293Z" fill="black"/>
<path d="M76.0416 66.6421C75.6736 66.6796 75.934 66.2817 75.9501 66.0881C76.2046 63.029 76.552 59.9798 76.4094 56.8991C77.0684 52.2223 76.6965 47.1061 77.5927 42.4954C77.6329 42.2889 77.6299 41.7591 77.9082 41.7925C78.1284 44.6387 78.2017 47.5569 78.1044 50.4232C78.091 50.8183 77.9274 51.1725 77.912 51.5303C77.6941 56.5943 77.5746 61.7873 76.0416 66.6421Z" fill="black"/>
<path d="M108.702 89.8243C104.461 89.3146 100.586 85.5547 98.0683 82.3112C97.5783 81.6798 94.5367 77.2863 94.8941 76.8438C96.694 77.9529 97.6949 80.0899 99.0884 81.6684C101.918 84.873 105.342 87.2359 108.702 89.8243Z" fill="black"/>
<path d="M84.4013 68.5407C87.141 68.2422 89.2336 71.1546 87.6989 73.4962C86.4795 75.3567 83.3607 75.6239 81.9366 73.8618C80.2499 71.7749 81.9028 68.813 84.4013 68.5407ZM84.5782 69.4656C81.9383 69.6932 81.4067 73.9872 84.7155 73.8844C87.907 73.7853 87.5776 69.2071 84.5782 69.4656Z" fill="black"/>
<path d="M37.7859 121.354C37.4609 121.398 37.6102 120.933 37.6014 120.708C37.3749 114.879 38.8582 109.003 42.6382 104.479L37.7859 121.354Z" fill="black"/>
<path d="M111.065 101.944C111.724 102.6 111.8 103.691 111.691 104.575C111.36 107.272 106.337 107.23 105.939 104.335C105.592 101.808 109.394 100.284 111.065 101.944ZM107.635 104.982C109.082 106.423 111.85 104.053 109.998 102.356C108.357 100.852 106.283 103.637 107.635 104.982Z" fill="black"/>
<path d="M108.293 112.31C112.761 112.076 111.567 119.445 106.892 117.497C104.051 116.313 105.179 112.473 108.293 112.31ZM108.099 113.042C106.238 113.278 105.747 116.219 107.687 116.523C110.822 117.015 110.495 112.738 108.099 113.042Z" fill="black"/>
<path d="M70.3983 89.3122C74.8384 88.6167 74.8224 95.0751 70.4054 94.6046C67.145 94.2574 67.1327 89.8237 70.3983 89.3122ZM70.7762 90.044C68.5704 90.324 68.7323 93.8986 71.2717 93.5282C73.4584 93.2093 72.8921 89.7755 70.7762 90.044Z" fill="black"/>
<path d="M102.869 121.212C106.151 120.686 106.079 125.247 103.557 125.609C100.144 126.099 99.5645 121.742 102.869 121.212ZM102.864 121.946C101.613 122.315 101.631 124.866 103.526 124.475C105.301 124.109 104.757 121.387 102.864 121.946Z" fill="black"/>
<path d="M74.5011 73.3641C78.2922 72.6642 78.0842 77.353 75.1574 77.5395C72.2549 77.7245 71.8448 73.8545 74.5011 73.3641ZM76.1741 74.3C75.0791 72.9519 72.9744 74.8119 74.0914 76.0952C75.1764 77.3417 77.2971 75.6826 76.1741 74.3Z" fill="black"/>
<path d="M91.292 76.8844C94.0443 76.2537 94.7009 79.7519 92.2895 80.2928C89.7378 80.8651 89.0362 77.4013 91.292 76.8844ZM91.471 77.6157C90.2105 78.0549 91.6839 80.5015 92.8529 78.8026C93.3859 78.028 92.2466 77.3454 91.471 77.6157Z" fill="black"/>
<path d="M94.1449 74.4312C93.5907 74.5653 92.159 74.3283 92.552 73.5107C93.0386 72.4982 94.3037 74.2985 94.1449 74.4312Z" fill="black"/>
<path d="M116.167 153.997C116.07 154.379 115.892 154.294 115.61 154.289C115.053 154.278 114.232 154.218 113.669 154.159C113.479 154.139 112.792 154.084 112.809 153.812C113.882 153.427 115.044 154.034 116.167 153.997Z" fill="black"/>
<path d="M114.739 172.977C117.107 170.427 122.516 172.492 120.683 176.009C118.581 180.041 111.5 176.464 114.739 172.977ZM119.093 173.712C117.958 172.478 114.953 173.653 115.746 175.46C116.678 177.586 120.744 175.509 119.093 173.712Z" fill="black"/>
<path d="M108.475 175.181C112.999 174.691 113.439 180.546 109.339 181.056C104.44 181.667 104.285 175.635 108.475 175.181ZM108.468 176.475C105.739 176.994 107.126 181.176 110.002 179.305C111.658 178.227 110.377 176.112 108.468 176.475Z" fill="black"/>
<path d="M97.6903 175.326L93.872 177C90.703 177.849 87.3671 178.62 84.0693 178.104L97.6903 175.326Z" fill="black"/>
<path d="M86.1857 173.59C83.8896 171.188 89.9979 169.938 89.2534 173.151C88.9611 174.412 87.0265 174.469 86.1857 173.59ZM87.0606 171.991C86.5717 172.701 87.9661 173.351 88.1728 172.632C88.3711 171.942 87.2475 171.72 87.0606 171.991Z" fill="black"/>
<path d="M125.124 180.889C124.846 182.292 123.437 183.201 122.264 183.886C120.385 184.982 117.977 185.877 115.794 185.892L120.771 183.701L125.124 180.889Z" fill="black"/>
<path d="M62.7929 163.085L58.7826 163.837C57.5974 163.198 55.8854 163.477 54.7711 162.989C54.471 162.857 54.1422 162.75 54.2109 162.342L60.272 162.529L62.7929 163.085Z" fill="black"/>
<path d="M85.0949 180.887C85.0319 180.871 84.809 180.635 84.8151 180.518C88.6156 180.399 92.1857 178.764 95.8253 177.922C95.889 177.969 95.7269 178.131 95.6393 178.199C94.9426 178.739 89.1049 180.887 88.2674 180.887C87.5043 180.887 85.6787 181.035 85.0949 180.887Z" fill="black"/>
<path d="M66.8352 172.478C66.1596 173.183 64.8497 173.413 64.1999 172.537C63.1832 171.167 65.5735 169.889 66.9672 170.343C67.5893 170.546 67.2837 172.011 66.8352 172.478ZM65.0344 171.985C65.2173 172.166 66.4561 171.878 66.3388 171.34C66.1782 170.603 64.5634 171.521 65.0344 171.985Z" fill="black"/>
<path d="M100.992 173.897C102.209 175.238 100.336 176.542 98.7197 174.951C98.3142 174.552 97.5045 173.427 98.3436 173.284C99.1233 173.15 100.435 173.282 100.992 173.897Z" fill="black"/>
<path d="M97.3173 172.914C97.4205 173.408 97.1895 173.233 96.9497 173.374C95.6127 174.161 93.0549 174.869 91.5007 175.199C89.6036 175.602 87.6909 175.788 85.749 175.693C85.796 175.4 86.5393 175.408 86.8083 175.358C88.9443 174.96 91.3851 174.86 93.4366 174.341C94.866 173.98 95.851 172.958 97.3173 172.914Z" fill="black"/>
<path d="M107.021 169.762C107.159 170.336 106.761 170.425 106.317 170.633C105.227 171.143 103.719 171.412 102.533 171.163C102.095 171.07 100.425 170.491 100.96 169.944C102.973 170.547 105.041 170.443 107.021 169.762Z" fill="black"/>
<path d="M60.9273 173.47C61.2301 173.701 60.9239 173.805 60.652 173.84C59.2748 174.016 54.9945 173.306 53.5672 172.903C53.2551 172.815 52.393 172.64 52.5315 172.172L60.9273 173.47Z" fill="black"/>
<path d="M113.926 170.687C114.031 170.792 113.895 171.341 113.754 171.535C113.376 172.057 110.665 172.927 110.382 172.262C111.017 172.244 113.49 170.251 113.926 170.687Z" fill="black"/>
<path d="M106.275 171.43C106.817 172.042 104.543 173.777 103.85 173.468C103.995 173.117 106.032 171.156 106.275 171.43Z" fill="black"/>
<path d="M74.4212 140.521C74.3559 140.54 74.4672 140.847 73.9122 140.846C72.4816 140.845 71.4166 140.093 72.5833 138.78C73.7135 137.507 77.6951 135.691 79.3937 135.347C81.594 134.902 88.103 135.015 87.4241 138.505C87.3319 138.979 83.7744 141.478 83.3743 141.541C82.7793 141.636 82.352 140.988 81.8393 140.725C80.4946 140.036 75.9153 140.097 74.4212 140.521ZM82.7634 138.604C82.6773 138.688 82.7239 139.407 83.0631 139.517C83.4094 139.629 84.0737 139.278 84.065 139.066C84.0548 138.819 82.9223 138.448 82.7634 138.604Z" fill="black"/>
<path d="M87.0563 123.209C86.9349 123.885 87.4033 124.327 87.9248 124.662C88.5342 125.054 91.3013 126.011 91.9459 125.951C92.2982 125.918 93.6902 125.359 93.7716 125.435C93.8726 126.045 92.7657 126.593 92.6547 126.737C92.1117 127.439 93.5347 126.609 93.5846 127.101C92.0702 127.554 92.125 128.628 91.5666 129.641C90.0026 132.477 87.0785 133.584 83.943 132.514C82.8357 132.136 82.0158 131.308 80.8975 130.996C80.8469 130.754 81.2416 130.702 81.4081 130.675C83.5522 130.327 84.6973 131.734 86.5381 131.508C87.8461 131.347 90.6543 129.501 90.7864 128.104C90.9286 126.601 88.7847 126.687 87.7894 126.466C87.2851 126.354 87.0518 125.976 86.4042 125.97C85.5406 125.962 85.1885 126.526 84.4428 126.732C84.3187 125.997 86.287 125.068 86.3186 124.94C86.4426 124.439 86.0334 122.772 86.1415 121.838C86.2627 120.79 86.6287 119.244 87.9891 119.58C88.6982 119.755 92.4422 121.874 93.1979 122.389C93.7496 122.765 94.9934 123.499 94.434 124.331C93.8726 125.165 92.3494 122.894 91.6126 122.832C90.954 122.777 90.6374 123.654 90.1104 123.926C89.0398 124.48 87.9434 123.806 87.0563 123.209Z" fill="black"/>
<path d="M69.3262 119.498C71.5745 117.415 73.7632 114.837 76.4788 113.348C77.591 112.738 80.0696 111.494 80.798 113.198C81.529 114.907 80.1984 114.656 79.3981 114.951C76.8947 115.873 74.1598 118.531 71.8003 119.084C71.0592 119.258 70.1125 119.155 69.3262 119.498Z" fill="black"/>
<path d="M80.8514 119.359C81.3548 119.86 80.9341 121.209 80.6888 121.798C80.0704 123.282 78.5085 123.984 76.9273 123.721C76.1811 123.597 75.19 122.746 74.9146 122.738C74.46 122.726 73.3706 123.142 72.9327 123.364C71.3613 124.158 71.5086 125.04 69.7026 123.303L79.2501 119.257C79.6591 119.085 80.5348 119.045 80.8514 119.359Z" fill="black"/>
<path d="M70.2593 125.622L72.3119 126.546C71.8165 125.976 71.0581 125.665 70.8191 124.88C71.7658 124.646 72.2247 125.322 73.0184 125.567C75.6738 126.386 78.3211 125.104 80.5212 123.766C79.4501 128.27 72.9263 129.316 70.2593 125.622Z" fill="black"/>
<path d="M60.0607 129.58C59.632 130.083 59.165 130.663 59.2477 131.371C57.0287 131.013 57.3407 128.943 58.8754 127.848L57.3818 127.66L57.7549 126.178C56.9576 126.055 56.3656 126.356 55.705 126.733C55.526 125.51 56.7956 124.958 57.8501 125.056C59.3114 125.192 61.7787 127.542 60.8277 128.952C60.5991 129.292 60.2388 129.371 60.0607 129.58Z" fill="black"/>
<path d="M72.3115 109.113V111.71C71.5219 111.114 71.3496 110.185 71.8915 109.351C72.0118 109.166 71.8753 109.024 72.3115 109.113Z" fill="black"/>
<path d="M119.898 131.741C120.192 131.96 119.903 132.08 119.623 132.113C118.102 132.288 116.736 132.06 115.233 131.925C115.506 134.183 114.22 136.153 113.646 138.23C113.314 139.431 113.201 140.738 112.907 141.946C112.843 142.208 112.694 142.962 112.436 143.053C112.757 138.755 115.145 134.613 114.114 130.259C114.224 130.172 115.479 130.967 115.796 131.089C117.075 131.579 118.53 131.719 119.898 131.741Z" fill="black"/>
<path d="M121.204 129.517C121.145 129.799 120.392 130.031 120.167 130.061C118.736 130.246 117.303 129.941 115.983 129.42C115.677 129.299 115.009 129.062 114.861 128.775L121.204 129.517Z" fill="black"/>
<path d="M118.03 125.62C117.704 125.621 117.824 124.808 117.839 124.594C117.875 124.052 118.05 123.529 118.087 122.986L119.15 119.131C118.747 121.301 118.983 123.596 118.03 125.62Z" fill="black"/>
<path d="M120.458 128.215C119.071 127.916 118.389 126.8 118.594 125.436L119.185 126.607L120.458 128.215Z" fill="black"/>
<path d="M114.819 208.572C115.468 208.499 118.497 208.24 117.941 209.448C117.359 210.715 112.151 210.956 111.132 209.727C111.123 209.411 114.358 208.624 114.819 208.572Z" fill="black"/>
<path d="M95.6378 215.014L93.4732 215.733C92.9063 215.737 92.1575 215.944 91.7207 215.474L95.6378 215.014Z" fill="black"/>
<path d="M121.764 115.789C121.374 116.323 119.6 115.624 119.049 115.598C118.768 115.585 117.458 116.012 117.661 115.515C117.891 114.955 119.075 114.827 119.613 114.86C119.938 114.88 122.134 115.283 121.764 115.789Z" fill="black"/>
</svg>
