<svg width="444" height="250" viewBox="0 0 444 250" fill="none" xmlns="http://www.w3.org/2000/svg">
<path d="M27.3971 136.016C27.6895 135.979 30.5369 135.254 29.7216 134.583C29.1619 134.903 26.4419 134.342 27.2179 133.508C27.7692 132.916 33.9981 132.23 34.7304 130.451C35.1702 129.383 31.6125 130.403 31.5154 129.205C33.9297 128.184 36.6227 127.72 38.9177 126.4C39.3826 126.132 42.8453 123.662 42.2474 123.105C38.5267 124.218 33.2755 127.542 29.2647 126.608C27.9088 126.293 27.3326 125.27 28.6717 124.379C30.6417 123.069 35.9329 123.542 37.5937 120.408C37.6473 119.475 36.4607 120.282 35.527 120.006C35.0887 119.877 34.662 119.734 34.3829 119.336C36.8923 117.908 38.4936 116.623 37.9527 113.42C36.1683 113.979 35.5542 116.5 33.3039 116.286L33.6586 114.496C32.7004 113.574 26.0359 122.161 24.1236 122.344C21.5025 122.594 25.4238 119.014 25.7271 118.559C26.0275 118.109 27.1483 115.941 26.8567 115.57C24.1642 116.83 18.3365 120.434 15.4023 118.984C15.2363 118.902 14.9483 118.512 15.0503 118.443C16.5937 119.435 25.0157 114.163 25.0639 113.597C25.1413 112.687 21.4597 113.733 20.9494 113.771C20.0806 113.836 17.8207 113.942 17.1916 113.603C16.7606 113.371 16.7978 113.138 17.1909 112.873C18.4065 112.055 22.8715 111.651 24.6974 111.071C27.0443 110.324 29.2741 109.066 31.1532 107.496C31.2319 106.532 30.971 107.172 30.5223 107.22C28.5925 107.426 19.1757 109.677 18.3066 108.363C18.1764 108.166 18.2195 107.447 18.3128 107.186C18.7641 105.924 21.0628 106.948 21.9908 106.925C25.6553 106.836 31.1111 104.329 34.373 102.652L30.6015 101.956C28.9007 101.087 26.5385 100.764 25.4289 99.0734C30.1832 99.5844 34.2029 99.5532 38.5574 97.3424C38.8637 97.1868 41.7308 95.6476 41.1733 95.1256C37.6965 96.2723 32.6958 96.2754 30.0812 93.3342C35.9272 94.6854 42.0447 94.0045 44.7525 87.9519C42.2007 87.3307 40.7437 89.0647 38.4515 89.345C34.8089 89.7904 30.8674 89.1567 28.7094 85.9173C26.9027 83.2052 27.0876 79.1767 29.3652 76.7536C31.5755 74.4019 33.293 75.3395 35.9517 75.0021C39.5359 74.5472 37.0497 72.5554 37.7546 70.3555C38.0206 69.5253 42.0713 65.8941 41.5316 65.3536C39.283 66.2012 37.5238 67.9835 35.4558 69.1246C32.7251 70.6313 29.1629 72.2114 25.9968 71.7718C25.6228 71.7199 24.4083 71.5538 24.7166 70.9171L33.3028 68.5765C33.5783 67.2626 31.4957 68.1618 30.6487 67.5361C28.702 66.0981 34.01 65.9822 34.6686 65.8247C37.0606 65.2523 40.1303 63.5975 42.2474 62.3011C39.9788 61.8186 35.8403 62.4432 35.0938 59.614C40.5624 61.0823 46.7829 58.4509 50.842 54.7738C51.1544 54.4907 54.9608 50.1982 53.5247 50.6474C51.0992 52.2902 48.7811 54.4927 46.1461 55.8064C45.8566 55.9508 43.2589 57.2999 43.3298 56.2048C43.3599 55.7399 50.0166 51.5385 50.4804 50.29C48.6384 50.2323 47.1742 51.0634 45.2866 51.0287C44.6347 51.0167 42.3424 50.839 43.1359 49.9198C44.3088 48.561 50.2746 48.7684 52.8238 45.9991C53.4387 45.3311 54.778 43.3923 53.075 43.7299C52.1443 43.9144 46.8575 47.2978 46.8863 44.7271C46.8978 43.6951 51.6061 40.886 52.6384 39.7153C54.1221 38.0326 55.04 35.5569 52.0822 38.0818C50.7594 39.211 49.8817 41.7084 47.9711 41.1355C49.1984 36.2921 56.8022 32.9968 53.2652 27.2286C52.4365 25.8771 51.9306 27.3458 50.9561 27.9855C41.6968 34.0635 44.1077 29.1423 45.4724 21.5901C43.2844 21.433 37.4155 21.0416 37.33 18.1195C37.226 14.5634 46.5353 15.6118 47.5296 13.0727C48.3052 11.0922 48.348 2.11675 52.5004 5.93579C53.6254 6.97043 55.4887 11.5141 56.4453 11.8473C57.9206 12.3613 60.7842 11.0006 62.4725 10.8321C65.5096 10.5289 69.8901 10.3116 67.2397 14.5341C66.0481 16.4325 63.3377 17.3178 62.2676 19.2631C62.2824 20.4829 68.0609 22.3881 66.4085 25.1824C65.5324 26.664 58.9594 25.6542 57.2826 25.1784C56.8586 25.6598 58.4438 30.1209 58.3532 30.7315C58.2204 31.6256 56.477 30.4288 56.9257 31.4492C57.5553 32.881 61.0637 32.7652 62.3724 33.1658C64.35 33.7713 66.2334 35.0466 68.3751 35.2244C68.615 36.9571 66.7011 37.1168 65.3227 37.0403C63.1013 36.9171 61.6109 35.0347 59.4293 34.864C58.3583 35.9398 64.1023 38.6393 64.7927 39.1735L64.5733 39.8813C63.1501 40.499 62.4307 39.7864 61.2414 39.3189C60.6747 39.0962 60.3875 38.9493 60.5046 39.6993C61.1455 40.7618 62.6596 40.5975 63.3791 41.4831C63.9406 42.1743 63.988 43.454 64.4905 44.3148C66.9543 48.5356 73.4491 44.9628 74.0988 45.6251C74.3786 48.2343 71.6694 48.3797 69.9092 49.1343C69.3542 49.3723 68.9849 50.0606 68.4796 50.2104C66.5753 50.7747 63.8918 49.698 61.9346 49.5706C60.5139 50.9991 67.5141 53.1351 68.0148 53.6958L63.3658 53.3336C68.6065 56.3411 74.4692 58.6827 80.5423 56.7465C79.2323 58.9005 76.4795 58.3756 74.461 59.2584C74.8143 59.9535 76.4505 60.2665 77.1405 60.332C79.6907 60.574 82.3093 60.2066 84.8369 59.9749L80.1845 62.8373C84.4213 62.4338 88.7553 60.9384 91.9909 58.1778C92.3809 60.7475 89.3546 61.4727 88.7754 63.5564C89.5526 64.2358 94.6097 63.0896 95.3235 63.2607C97.1896 63.7078 95.3365 65.3518 94.3208 65.3518H84.479C84.3061 66.4071 84.7309 65.9316 85.3136 66.1127C86.0141 66.3304 88.6548 66.6599 88.7753 66.7889C89.6801 67.758 87.1111 68.5962 86.147 68.5582C84.2044 68.4816 82.0374 67.2959 80.1846 66.7901C81.1342 68.2613 83.0236 69.2485 83.4037 71.0891C83.0561 71.3929 75.2651 68.5892 74.4586 69.3009C74.3484 69.398 74.8127 69.8901 74.79 70.2105C74.7008 71.4702 73.41 70.7112 75.3656 72.515C79.7992 76.6044 87.0819 80.1573 93.2157 79.3099C94.5923 79.1198 97.1017 77.3804 97.8925 77.5467C98.9065 77.76 97.6098 79.7739 97.4448 80.326C97.2728 80.9021 97.5134 81.7898 97.3021 82.1517C97.1635 82.389 95.0122 83.0058 94.5198 83.1275C94.1211 83.226 91.0641 83.1384 91.994 84.0007C92.1451 84.1409 95.4975 84.7228 96.0543 84.6938C98.9697 84.5421 101.744 82.9169 104.52 82.2143C104.177 84.0004 101.224 84.4925 100.397 85.4311C100.027 85.8504 100.074 86.2774 100.738 86.1358C102.76 85.7045 107.844 81.8667 108.279 81.8592C110.306 81.8241 106.021 86.2473 106.312 86.5134C107.924 86.5344 111.586 84.7749 112.343 86.7504C112.712 87.7119 112.116 87.6341 111.401 87.8364C110.044 88.2199 103.061 88.7417 102.73 89.0283C102.117 89.5578 102.977 89.6718 103.198 89.8263C105.026 91.1043 107.268 91.8824 109.531 91.8993C106.275 95.5642 100.643 92.9318 96.6467 92.0718C95.7008 92.64 97.4525 94.0627 97.9002 94.406C99.1751 95.3836 101.011 95.6226 102.015 96.914C99.6277 97.3458 94.4485 95.827 93.2734 93.6629C92.651 92.5167 92.9063 91.1688 91.0938 90.4651C89.6283 89.8961 91.4213 91.8031 91.4617 91.8956C92.0192 93.173 88.179 91.7871 87.7013 92.2562C87.624 92.8037 87.7025 93.0959 88.0353 93.5326C89.1567 95.0043 92.6837 96.5872 94.1121 97.844C94.5204 98.2033 94.997 98.3929 94.8558 99.0679C93.0042 99.8419 86.3964 93.9228 85.9124 94.4085C87.04 98.2444 91.4994 99.1416 94.4979 101.044C93.3029 101.452 91.9118 101.27 90.7464 100.858C90.4296 100.818 90.5328 101.54 90.5645 101.575C90.7778 101.808 94.8922 103.086 95.5546 103.214C96.2865 103.354 98.7493 103.733 99.3311 103.733H106.31C105.82 105.526 103.694 106.637 102.108 107.234C99.6943 108.142 97.7895 108.16 95.2173 108.039C95.0475 109.637 98.7357 109.19 98.0673 110.716C97.4989 112.014 93.8264 111.385 92.7121 111.802C94.2037 112.879 96.3616 112.119 98.1732 112.426C99.501 112.651 101.331 113.829 102.637 114.05C103.675 114.225 106.727 113.764 107.008 114.711C107.471 116.268 104.058 118.163 103.07 118.959L97.0067 121.306L112.034 120.594C112.855 121.308 108.95 122.468 108.695 122.804L104.164 125.971C105.29 125.936 106.431 126.036 107.559 125.969C109.474 125.855 112.861 124.795 114.363 124.869C114.901 124.896 115.484 124.987 115.614 125.609C110.118 126.799 104.9 129.057 99.4556 130.402C93.0557 131.982 85.577 132.079 80.5496 136.913L81.1425 137.387C97.3406 139.587 113.321 143.036 129.444 145.65C153.808 149.599 178.322 152.59 202.654 156.567C204.302 156.836 210.618 158.486 211.627 158.198C212.277 158.013 212.481 157.014 213.314 157.181C213.621 158.528 212.61 159.731 212.597 160.939C212.567 163.88 214.08 168.491 214.385 171.712C214.502 172.945 214.313 174.235 214.391 175.472C216.42 175.311 217.91 173.649 219.748 172.773C224.903 170.316 230.526 169.594 235.498 167.396C236.521 166.943 239.041 165.094 239.619 165.096C240.373 165.098 241.09 165.907 241.847 166.067C243.968 166.516 246.171 165.538 248.211 166.863C250.368 168.264 251.651 173.113 253.317 175.376C256.251 179.362 264.117 179.342 268.618 180.866C268.914 180.934 269.479 180.479 269.493 180.319C269.568 179.525 267.663 176.315 268.607 174.751C269.18 173.802 273.847 172.747 274.97 172.165C277.046 171.089 275.086 170.438 274.358 169.352C272.022 165.862 271.05 161.552 268.73 158.135C267.665 156.566 266.342 154.949 264.314 154.998C262.185 155.05 259.03 155.492 256.779 155.726C256.416 155.763 255.548 155.901 255.553 156.283C255.557 156.55 258.847 158.773 259.631 159.721C260.204 160.414 261.412 162.232 261.699 163.038C261.84 163.437 262.031 163.971 261.453 163.986C260.508 164.011 254.802 157.792 252.429 157.254C250.223 156.754 238.643 156.889 236.039 157.177C230.361 157.805 229.067 163.533 224.056 165.429C223.66 165.037 225.844 163.055 226.195 162.734C228.333 160.776 230.916 159.211 232.999 157.183C229.61 157.423 225.883 157.85 222.486 157.494C219.444 157.175 216.092 155.486 213.038 154.768C206.179 153.155 198.104 153.201 191.479 151.267C190.737 151.05 189.64 150.801 189.338 150.009L191.84 149.293L183.257 148.207L186.345 147.159C186.852 146.678 190.098 148.615 190.047 147.315C189.973 145.465 183.787 146.408 183.256 145.697C181.788 143.735 189.396 145.003 188.451 143.183C187.745 141.823 183.597 142.926 182.177 141.935L188.273 140.508C188.349 139.077 191.795 136.073 189.515 135.659C186.908 135.185 183.019 135.969 180.211 135.658C178.901 135.513 177.995 134.745 176.966 134.601C175.09 134.337 171.556 135.976 170.73 133.507C170.958 133.318 175.855 133.246 176.648 133.161C177.184 133.103 177.754 133.08 177.886 132.429H168.939L176.198 130.916L176.638 130.637C176.99 130.439 176.317 129.918 176.275 129.918H169.476C169.28 129.918 165.85 128.982 165.717 128.838C165.693 128.812 165.682 128.125 165.718 128.125H172.339C172.572 128.125 173.025 127.355 172.876 127.049H165.181C165.047 127.049 163.448 127.632 163.356 127.75C162.994 128.209 164.31 129.498 162.582 130.185C160.473 131.023 150.672 131.573 150.038 132.136C148.649 136.257 150.204 141.452 144.697 142.385C143.096 142.656 138.392 142.27 136.555 142.109C132.021 141.712 127.363 140.492 122.774 140.317L125.457 139.574L134.581 140.677C134.719 139.97 134.253 139.822 133.759 139.532C133.241 139.228 127.906 138.168 127.246 138.168H121.341C121.247 137.697 122.003 137.591 122.323 137.542C126.271 136.932 130.327 138.702 134.076 137.827C134.445 137.324 132.414 127.061 131.715 125.616C131.252 125.786 130.863 127.238 130.752 127.693C130.429 129.011 130.547 131.997 129.321 132.357C128.325 132.649 122.453 132.564 121.192 132.399C120.554 132.315 117.823 131.432 117.556 130.997C117.457 130.837 117.813 128.053 117.755 127.231C117.489 123.464 114.987 113.871 116.518 110.916C117.753 108.534 128.348 108.812 130.661 109.636C134.834 111.122 132.319 118.129 131.719 121.306C133.112 120.981 134.062 120.012 135.464 119.503C139.143 118.169 147.653 117.777 150.817 120.282C153.367 122.3 150.281 126.76 150.342 129.056C150.387 130.739 153.427 128.868 154.603 128.642C155.543 128.462 160.895 128.253 161.087 127.546C161.537 116.802 159.452 106.162 161.067 95.4811L142.965 96.9065L143.173 116.289C137.209 116.534 138.166 115.945 136.65 111.525C135.266 107.491 135.559 107.865 135.313 103.539C135.003 98.0841 133.7 89.7369 136.931 85.1033C138.574 82.7481 141.117 82.1491 142.205 78.9108C143.1 76.2486 143.627 67.3887 143.505 64.4823C143.443 62.9868 141.927 62.1185 142.097 60.54C142.194 59.6342 143.009 59.1546 143.157 58.3428C143.46 56.682 142.359 54.5035 144.859 53.9503C146.374 53.615 153.179 53.6283 154.17 54.6821C155.183 55.759 154.116 57.2259 154.316 58.2746C154.435 58.8954 155.113 59.3428 155.26 59.8808C155.798 61.8596 154.297 62.6906 153.989 64.177C153.597 66.0665 154.566 75.8346 155.154 77.913C156.638 83.1655 162.479 83.5734 163.174 89.6026C163.517 92.5732 163.511 97.1669 163.588 100.308C163.759 107.324 163.253 114.308 163.211 121.311C164.425 121.362 167.83 121.388 168.425 120.23C169.022 119.069 166.828 113.584 166.83 111.845C166.831 109.12 167.956 106.951 170.35 105.684C173.873 103.82 175.859 104.89 179.337 104.29C181.421 103.931 182.582 102.471 184.306 102.097C185.753 101.783 188.322 102.298 189.075 100.779C189.447 100.03 189.388 98.8657 189.788 97.9063C191.904 92.8308 199.599 92.8619 202.178 97.4997C202.475 98.0344 202.635 99.7318 203.112 99.7712C203.209 99.7793 204.323 99.1628 204.944 99.0943C208.444 98.7081 211.423 103.624 213.086 103.315C213.731 103.196 215.93 99.6532 216.471 98.824C218.079 96.3561 220.3 90.8132 223.036 89.9795C225.157 89.3333 229.752 90.0424 230.308 92.564C231.114 96.2226 222.227 102.645 219.765 104.988C222.284 107.259 225.041 105.407 227.988 106.425C229.362 106.901 232.186 108.853 232.281 110.395C232.36 111.688 229.524 114.367 231.806 115.153C232.813 115.5 236.446 115.18 237.845 115.194C238.963 115.205 239.864 115.914 240.981 115.23C241.381 113.734 245.639 111.116 245.845 110.297C246.08 109.364 245.085 109.167 244.881 108.504C243.747 104.817 246.466 101.324 250.305 101.603C251.359 101.68 255.327 102.828 255.51 103.963C255.585 104.433 254.54 105.125 254.831 105.881C257.209 106.546 260.08 107.121 260.532 110.032C261.387 115.541 256.178 115.458 252.326 116.29C252.203 116.907 252.479 117.02 252.939 117.286C254.007 117.902 261.703 117.933 263.217 117.699C265.071 117.412 265.947 115.424 268.091 115.727C271.945 116.271 271.384 118.948 271.294 122.028C275.657 122.171 274.253 118.209 276.9 116.347C278.152 115.467 280.594 114.596 282.125 114.921C284.979 115.526 283.19 118.528 283.999 119.872C284.423 120.576 286.536 121.055 287.126 122.477C287.499 123.377 287.214 125.017 287.604 125.296C294.526 126.706 302.078 126.827 308.957 128.217C311.676 128.767 314.196 130.145 316.872 130.608C317.6 130.367 319.778 122.622 320.146 121.312C323.234 110.324 324.82 98.918 328.05 87.9597L328.05 86.8556C326.928 86.2916 324.861 85.6474 324.149 86.9695L316.441 121.544C316.117 122.743 313.391 129.998 313.555 125.485C313.921 115.425 319.363 101.124 321.649 90.8944C321.911 89.7244 322.895 86.2532 322.31 85.4173C321.977 84.941 319.423 84.5892 318.785 84.7831C317.625 85.1357 316.201 89.8188 315.773 91.1026C312.135 102.021 310.326 113.582 306.902 124.538C306.735 124.951 305.76 125.007 305.651 124.894C304.944 124.167 307.915 113.985 308.111 112.119C308.178 111.481 308.544 108.604 307.97 108.4C307.33 108.172 306.965 109.767 306.88 110.169C306.346 112.711 306.802 116.602 303.502 117.36C304.094 114.847 306.49 111.116 306.009 108.576C305.788 107.409 303.441 107.372 302.845 107.74C301.462 108.594 300.665 120.214 298.669 122.025C297.817 119.637 302.194 108.661 301.206 107.296C301.07 107.108 296.869 106.245 296.687 106.389L293.843 115.21C293.554 113.646 295.557 106.74 294.567 106.05C294.102 105.725 291.638 105.354 291.145 105.873C290.613 106.434 289.834 110.524 289.435 111.697C289.306 112.075 289.357 112.783 288.832 112.699C288.268 111.181 290.022 106.443 289.385 105.51C289.087 105.074 285.793 104.173 285.293 104.493C284.796 104.81 284.563 110.992 283.106 111.624C282.689 109.592 284.381 106.128 283.769 104.318C283.546 103.659 281.228 103.395 280.691 103.632C278.943 104.4 279.911 110.395 278.096 111.624C277.368 107.358 282.319 102.049 274.751 103.001C274.319 103.103 272.976 110.432 272.528 111.62C271.964 113.119 271.572 112.226 271.231 111.151C270.366 108.426 272.128 105.304 272.01 102.479C272.014 102.17 271.249 102.24 271.115 102.299C269.846 102.86 269.634 110.249 268.793 111.742C268.518 112.231 268.149 111.924 267.716 111.984C268.403 107.055 269.1 102.092 269.95 97.1859C270.841 92.0428 272.618 86.0265 273.053 80.9101C273.318 77.7989 269.152 78.3107 268.499 79.5902L263.744 104.238L262.349 106.244C262.022 104.298 262.485 102.359 262.808 100.43C263.764 94.7241 265.389 84.8609 267.099 79.6218C267.67 77.8736 268.784 76.7563 270.736 76.8137C271.436 76.8343 272.124 77.2422 272.899 77.2173C273.685 77.192 274.219 76.6175 274.907 76.6442C275.499 76.6671 277.636 77.4307 277.918 77.9022C279.061 79.815 276.207 80.7546 280.822 81.4477C287.536 82.456 294.4 82.7081 301.125 83.6967C303.323 84.0198 314.73 86.5728 315.676 85.9832C316.312 85.5871 316.686 83.2552 318.362 82.9363C320.676 82.4962 328.324 83.8032 329.587 86.016C330.066 86.8556 330.032 87.5223 329.954 88.4437C329.642 92.1725 327.66 98.2446 326.862 102.217C325.483 109.085 324.646 116.09 322.276 122.729C321.221 125.684 318.444 129.751 318.157 132.591C317.456 139.521 323.474 154.939 325.228 162.486C325.589 164.039 327.02 170.942 326.703 171.992C326.328 173.233 321.278 174.692 320.023 175.53C319.634 176.153 320.153 184.65 319.964 186.42C319.787 188.083 319.038 188.826 317.366 187.952C314.512 186.462 316.449 178.817 313.989 178.05C309.494 176.647 312.074 185.466 312.56 187.737C313.232 190.878 317.503 203.461 316.31 205.531C314.861 208.045 303.739 206.271 300.999 206.677C300.916 205.926 302.245 206.511 302.431 206.32C302.469 206.282 302.463 205.292 302.429 205.251C302.304 205.1 298.866 204.169 298.671 204.169H287.576C287.445 204.169 286.998 204.534 286.74 204.588C285.944 208.28 290.276 213.039 285.5 215.001C281.277 216.736 277.85 215.46 273.634 215.274C270.875 215.153 267.744 215.568 265.058 215.252C264.416 215.177 263.516 215.067 263.779 214.215C264.582 214.338 267.149 214.269 265.697 213.186C260.741 213.588 254.822 212.073 249.98 212.759C249.121 212.88 248.609 213.536 247.886 213.503C246.518 213.44 244.817 211.488 243.38 211.345C242.49 212.339 244.743 223.41 244.777 225.558C244.785 226.047 244.705 226.679 244.357 227.037C243.869 227.54 237.898 229.929 237.073 229.985C235.876 230.065 232.049 229.765 230.679 229.631C229.074 229.475 227.482 228.867 225.844 228.918C225.773 228.135 226.485 227.7 226.559 226.917C226.67 225.731 225.924 223.604 225.846 222.279C225.439 215.289 227.8 205.173 225.754 198.697C225.505 197.91 225.078 197.294 224.387 196.84C199.717 190.723 174.668 186.09 149.703 181.283C149.416 181.15 148.898 181.621 148.898 181.751V190.359C148.898 190.957 145.677 192.537 145.677 190.359V183.365H144.961V191.077C144.961 192.979 139.96 191.28 139.562 190.661C138.527 189.053 140.093 180.909 138.275 180.201L117.404 177.27C118.239 178.5 120.081 179.311 121.456 179.842C122.749 180.341 128.222 181.339 128.5 181.573C129.167 182.137 128.283 182.187 127.995 182.321C125.453 183.506 123.865 182.36 121.343 181.932C120.921 182.346 123.847 185.555 121.519 185.532C120.855 185.525 117.366 181.503 116.302 180.703C115.601 180.176 111.451 177.531 110.964 177.986C111.494 179.669 113.305 180.502 114.252 182.04C114.456 182.371 116.125 185.677 114.726 185.154C113.51 184.513 107.019 178.323 106.486 178.352C106.092 178.373 105.929 179.138 105.957 179.571C106.053 181.045 108.486 183.097 108.449 183.547C108.411 184.008 106.862 184.067 106.76 184.597C106.727 184.765 107.037 185.548 107.043 186.034C107.081 189.367 106.43 200.173 107.477 202.461C108.166 203.966 108.965 203.343 110.246 203.097C109.569 204.544 107.231 203.411 107.744 205.244C108.13 205.381 108.525 204.887 108.636 204.887H113.825C113.989 205.916 113.61 205.483 112.996 205.653C111.559 206.05 110.33 205.776 109.072 206.041C106.805 206.521 107.448 209.095 109.887 208.476C111.25 209.561 105.043 210.52 104.654 210.58C98.3162 211.55 91.9194 211.161 85.5545 211.698L89.4206 210.361L90.2033 209.552L50.8401 209.546C50.9188 208.784 52.1789 209.517 52.6242 208.648C52.8743 208.159 51.8859 207.756 51.733 207.756H39.565C38.9692 207.756 38.7161 209.191 39.9229 209.191H45.2911C45.352 209.191 45.8539 209.674 45.8279 209.905C44.2038 209.917 40.3389 209.851 39.0457 210.823C38.446 211.273 37.8625 213.186 37.2383 214.033C36.0352 215.665 34.1746 216.414 32.9523 217.642C32.5889 218.007 32.666 218.68 32.523 218.809C31.9213 219.35 20.0171 219.88 19.003 219.212C18.9661 219.188 19.3754 218.533 19.0226 218.327C18.2529 217.88 16.4805 218.274 15.7677 217.26L17.1966 216.72C16.2767 215.298 14.0761 215.696 12.5469 215.644L15.7679 215.288L15.7687 214.214L12.9051 213.85L15.0358 213.122C15.2987 212.808 14.5219 210.481 14.2749 210.329C13.814 210.045 9.8587 210.343 8.79099 210.264C7.7946 210.189 6.30933 209.977 5.3085 209.807C4.92581 209.742 3.88706 209.716 3.95594 209.191H13.0819C13.2228 209.191 14.333 208.409 14.3276 208.294C12.2923 207.23 13.8467 207.575 14.6429 206.451C15.316 205.502 15.6661 203.951 16.4762 203.009C17.4251 201.905 19.9871 201.012 20.5091 199.777C20.9353 198.767 20.897 196.739 21.1747 195.422C21.3239 194.714 22.2008 193.493 22.0989 192.851C21.9941 192.19 15.7836 190.599 14.5986 190.095C13.2304 189.513 9.27836 187.252 8.59025 186.073C7.75738 184.647 8.05159 184.074 9.58009 184.722C12.1119 185.796 15.3446 188.547 18.1367 189.777C18.8416 190.087 20.7455 190.829 21.3899 190.821C22.3477 190.81 22.2457 189.752 23.0183 189.351C24.3112 188.679 27.1005 188.673 28.724 188.282C29.3436 188.132 33.5719 186.16 31.5452 188.598C30.8013 189.493 25.7135 189.958 24.7917 190.612C23.2772 191.686 26.6423 196.572 27.61 197.499C29.2206 199.043 32.3447 199.579 34.3237 200.813C37.44 202.757 37.5141 205.421 42.0824 205.262C43.1011 205.227 44.0715 204.763 45.1122 204.883C43.4202 203.165 40.4455 204.012 38.3126 203.807C38.9019 202.233 44.3893 203.828 44.3892 202.555C44.3892 201.868 38.9639 201.776 37.9563 201.655C38.1242 201.117 39.7958 200.986 40.2857 200.945C41.526 200.842 42.7983 201.01 44.0385 200.937L41.1773 199.151C41.724 199.029 44.735 199.945 44.7601 199.322C44.3059 197.572 43.0922 187.301 41.6765 186.975C40.5556 186.716 32.8625 193.848 30.441 193.048C29.2459 190.464 37.6976 183.772 36.5195 182.289C34.1962 182.84 28.6941 186.924 26.4965 185.702C25.7956 185.312 26.4463 185.13 26.74 184.858C28.6114 183.131 33.5039 180.39 34.3717 178.158C34.5428 177.717 34.2843 177.458 33.8449 177.63C32.9965 177.96 28.8057 182.094 27.9358 181.211C27.8194 179.483 29.4471 178.566 30.4373 177.444L27.9358 177.624L28.2882 174.397C27.899 173.882 25.5371 177.324 25.255 177.631C23.8849 179.118 19.9986 183.234 18.0652 183.359C17.6336 183.387 16.8688 183.224 16.8484 182.829C16.797 181.832 21.609 177.239 20.7727 175.115C18.089 177.026 16.662 181.215 12.9048 181.211C12.5315 179.425 13.8953 178.412 14.3326 176.91C10.7747 178.55 7.19483 179.367 3.24028 179.057C3.45208 178.476 4.20052 178.134 4.71386 177.847C5.10313 177.63 10.5778 175.521 9.68031 174.758C8.47714 174.855 2.63714 173.671 2.21422 172.919C0.863723 170.516 6.31341 171.564 6.99436 171.557C8.54933 171.54 16.8682 169.364 17.9129 168.478C18.4077 168.058 18.152 167.757 17.6829 167.633C17.3643 167.549 11.5863 167.305 12.9047 166.149C16.3966 166.3 20.5639 165.506 22.9165 162.739C22.9369 161.831 16.8275 162.536 16.8419 160.409C18.4163 160.927 21.2306 160.761 22.7013 160.006C24.0549 159.31 25.0092 157.085 26.3264 156.106C27.1722 155.478 28.6024 155.189 28.9986 154.839C29.4113 154.474 29.3206 153.774 29.7286 153.418C30.4321 152.804 33.2573 152.741 33.5936 152.451C33.8382 152.24 34.1855 149.49 34.016 149.29C32.7944 149.222 32.0052 151.442 30.9766 151.452C29.6124 151.465 29.8801 149.472 29.3888 149.078C28.6681 148.5 23.7585 151.479 22.5604 151.973C21.709 152.324 17.2904 154.067 16.8395 153.591C15.8539 151.566 20.6449 151.032 21.0781 150.31C21.3134 149.918 20.9829 148.746 21.3266 147.865C21.9917 146.161 25.0751 144.249 26.3321 142.839C26.5818 142.559 27.2492 142.094 26.6837 141.758C23.7509 143.949 21.5238 146.866 18.6044 149.084C17.4072 149.993 10.4763 154.31 9.50308 154.31H4.31382L18.9851 146.237C15.794 146.293 12.6123 147.143 9.32594 146.775C9.1981 146.147 9.48463 146.053 9.94001 145.78C11.6759 144.742 14.4686 145.008 16.0395 144.36C16.4501 144.19 16.8931 143.984 16.4805 143.554C16.2234 143.286 10.6721 142.198 9.32631 141.575C6.81284 140.411 6.43513 138.782 9.77762 139.329C12.3998 139.759 14.4662 141.067 17.391 140.709C18.2144 140.608 17.8641 139.769 18.7959 139.594C21.078 139.168 24.945 140.214 26.8602 138.172C25.0323 138.033 21.1728 138.479 21.1342 136.016C23.1184 135.836 25.4662 136.262 27.3971 136.016ZM51.5472 7.24489C51.4223 7.14016 51.0195 7.13133 50.8191 7.4465C49.8513 8.96896 50.1694 13.8163 48.5263 15.1479C47.1311 16.2786 39.5671 17.0541 39.3878 17.829C38.9385 19.7719 46.6218 19.4443 47.1035 20.1325C47.4116 20.5728 47.3149 22.5244 47.2276 23.1749C47.1003 24.1243 44.2538 30.7854 47.6337 28.242C49.1491 27.1016 52.8732 22.2331 54.3154 22.0097C55.9578 21.7553 62.9161 25.2338 64.0784 24.0993C64.0222 21.376 59.6454 21.1341 60.1411 18.2008C60.4482 16.3837 65.9696 14.5935 65.5111 12.8083C65.3788 12.2934 64.8623 12.3409 64.4284 12.4046C62.2069 12.7304 57.617 14.5444 55.7428 13.9825C55.0482 13.7742 54.299 12.5061 53.9015 11.884C53.4034 11.1045 51.9324 7.56775 51.5472 7.24489ZM60.8573 43.4689C61.0204 43.2748 59.2335 39.8105 59.2503 39.1684C58.5688 39.6359 58.8285 39.9134 58.9346 40.5277C59.0018 40.917 60.1856 44.2684 60.8573 43.4689ZM65.1508 47.7823L61.9361 45.6233C61.4118 47.1448 66.5361 49.4181 65.1508 47.7823ZM58.1748 47.0653C57.7847 47.0652 57.4952 48.2307 57.6213 48.6553L57.817 52.0727C59.0329 51.5129 59.0075 47.0653 58.1748 47.0653ZM150.508 54.9495C148.883 54.7609 146.98 55.0857 145.319 54.9495V56.0256H152.118L152.121 55.3103C151.514 55.525 150.894 54.9943 150.508 54.9495ZM56.9203 55.3099C55.7951 55.1589 54.0726 58.8699 54.419 59.2521C55.9403 59.0432 56.7545 56.6318 56.9203 55.3099ZM67.6568 63.1978C68.0723 62.8312 65.6746 60.6387 65.3419 60.3205C64.0264 59.0624 61.8295 56.8679 60.5038 55.8436C60.1456 55.5667 60.0488 55.1501 59.4317 55.309C56.7644 61.2622 63.2926 62.4616 67.6568 63.1978ZM152.119 57.1052C151.772 56.7563 148.038 56.6742 147.284 56.7412C146.885 56.7767 145.347 56.9384 145.679 57.6354C146.179 58.6842 148.777 58.648 149.803 58.5453C150.215 58.5041 152.831 57.8211 152.119 57.1052ZM73.0256 62.8464C72.8629 62.6798 69.3485 61.0626 68.7324 61.051C69.2782 62.1117 71.3881 63.4042 72.4977 63.557C73.1822 63.6512 73.2626 63.0893 73.0256 62.8464ZM150.15 61.7648C148.253 61.9316 146.165 61.6434 144.245 61.7648C144.165 62.3955 145.055 62.1064 145.494 62.1234C146.669 62.169 147.898 62.0171 149.057 62.1433C149.759 62.2198 152.725 63.7783 153.189 62.2995C153.888 60.0697 150.62 61.7235 150.15 61.7648ZM54.0578 62.4845C53.3773 61.7557 51.3618 66.9532 51.5557 67.1434C52.9021 68.4631 54.1828 63.1087 54.0578 62.4845ZM55.8433 62.4835C55.2352 61.8974 55.2376 62.5898 55.1383 63.0173C54.2152 66.9906 53.5354 71.0577 52.6294 75.0347C53.5816 75.2325 53.2453 74.7927 53.5178 74.3286C55.3719 71.171 56.4893 68.1888 56.2228 64.4382C56.1953 64.0509 56.0038 62.6383 55.8433 62.4835ZM50.1191 64.2765C49.0495 63.4939 45.3393 69.5728 43.8406 67.5099C43.4624 66.9893 44.4063 66.144 43.8614 65.7123C40.9275 69.0771 38.7646 70.8873 41.3438 75.4062C41.8764 76.3392 44.396 79.1768 45.424 78.5766C45.5508 78.5025 47.02 76.5203 47.2009 76.2337C47.6298 75.5543 48.2298 74.3485 48.5044 73.5943C48.9601 72.343 50.8215 64.7904 50.1191 64.2765ZM149.615 94.4048C151.829 94.1409 159.882 94.4532 161.036 92.7647C162.161 91.1201 160.904 87.6572 159.781 86.1887C158.585 84.6246 157.015 83.987 155.694 82.7523C152.084 79.3793 152.87 72.1705 152.489 67.6707C152.271 65.0928 151.049 62.774 148.623 65.2138L149.923 82.3419C149.265 83.6592 148.796 81.4713 147.47 81.8515L146.752 84.7199C147.018 84.9761 151.008 84.2701 151.759 85.258C148.899 86.5402 145.5 86.8686 142.455 86.1525C143.105 84.6333 144.722 84.2286 145.46 82.5319C147.468 77.9152 145.847 69.6994 146.391 64.6328L144.962 64.6329C145.222 66.1825 144.67 67.6467 144.588 69.1034C144.389 72.6643 145.167 76.4962 143.904 79.8964C142.228 84.4127 137.235 84.9516 136.717 90.9862C136.224 96.7257 137.443 102.778 137.107 108.556C138.532 110.334 137.937 113.741 140.665 113.057L139.593 111.267C140.143 111.299 141.602 111.397 141.728 110.701C142.051 108.929 138.949 109.176 138.52 108.75C137.4 107.636 140.682 108.511 141.046 108.245C142.538 107.152 140.473 105.425 139.231 105.347C142.632 105.068 141.525 103.517 138.879 103.37C139.027 102.585 140.422 103.295 141.047 102.859C141.56 102.502 141.54 99.2443 141.215 98.6784C141.029 98.354 139.682 98.6547 139.237 98.3478C139.214 97.5199 140.98 98.3545 141.026 97.812C141.132 96.5777 139.591 96.1173 139.31 94.8689C139.147 94.1447 139.093 90.1454 139.391 89.7214C140.008 88.8425 146.544 90.4028 147.986 90.4783C149.331 90.5488 150.94 90.5196 152.294 90.4574C153.512 90.4015 157.548 89.5273 158.325 89.7819C159.351 90.1182 158.827 92.1458 158.321 92.2694C157.208 92.5415 155.671 91.8458 154.446 91.8645C153.483 91.8793 148.468 92.4802 147.818 92.7864C147.654 92.8632 147.367 93.2543 147.466 93.327L151.759 93.3342C151.52 94.329 149.238 92.8904 149.615 94.4048ZM58.7097 65.3536C57.7139 65.1787 58.1093 65.5666 57.903 66.1378C57.7977 66.4295 57.0225 68.6379 57.817 68.573C58.5252 68.5151 58.9097 66.0176 58.7097 65.3536ZM64.7978 76.1144C60.1792 76.0142 56.436 80.3641 58.6954 84.9172C61.6147 90.7999 72.2248 88.6028 71.612 81.673C71.2801 77.9201 67.0163 77.4115 66.4026 76.1164C66.0375 75.3461 66.1727 73.6114 65.7756 72.4404C65.4295 71.4199 64.5546 70.7604 64.4333 69.6589C63.7945 69.5761 64.0857 70.465 64.1246 70.8639C64.2939 72.6008 65.0123 74.3169 64.7978 76.1144ZM71.7233 75.9898C71.3116 75.5042 67.8825 71.2574 67.3009 71.812C67.4654 73.481 70.659 76.9151 72.1277 77.1952C73.691 77.4934 71.7947 76.074 71.7233 75.9898ZM58.7097 75.7559C56.0613 76.1491 55.8947 78.4891 54.5634 80.3846C53.639 81.7008 52.5845 82.9737 51.446 84.0983L47.6192 89.7417C48.2655 90.3667 55.2839 84.8724 55.8681 83.8445C56.4801 82.7679 56.082 81.5803 56.3746 80.4064C56.612 79.4542 59.1641 76.2451 58.7097 75.7559ZM41.4241 78.0184C38.4233 75.5813 31.2579 75.0518 29.7337 79.5308C27.3152 86.638 37.8058 89.2438 41.6908 85.0588C43.5292 83.0784 43.5471 79.7425 41.4241 78.0184ZM45.8316 83.6456C47.2042 82.5084 48.8923 81.0526 49.6888 79.4416C49.9917 78.8289 50.3676 78.8577 49.5855 78.2721C48.6191 80.2769 45.6964 81.3094 45.8316 83.6456ZM274.515 81.4916C275.09 81.5576 276.201 81.2635 276.49 80.7838C277.757 78.681 273.631 77.8034 274.515 81.4916ZM96.2871 80.0603C93.5844 80.8068 90.6909 80.4576 88.0596 81.3122L93.2026 81.4488C94.0086 81.0355 96.4485 81.4292 96.2871 80.0603ZM89.1298 87.9481L88.3934 86.7168L78.3987 80.776C77.2408 82.2575 84.1147 86.3945 85.3075 86.9403C86.4961 87.4841 87.7915 88.0772 89.1298 87.9481ZM85.5508 90.1004L81.2624 85.6142C80.0911 84.9513 77.1249 81.8751 75.8728 82.7314C74.7447 83.503 77.5763 88.1285 77.6774 89.3831C76.9452 90.1527 73.7845 86.0475 73.1995 85.802C72.6213 85.5594 72.3947 86.4862 72.3761 86.7915C72.291 88.1871 75.0579 89.8879 76.0725 90.8208C76.4268 90.5132 76.0422 89.9146 76.7795 90.1049C78.7972 91.7228 80.4453 95.8513 83.4031 95.3057C82.8492 93.7949 80.6368 91.9436 80.0995 90.7254C79.7418 89.9144 79.8296 88.939 79.4964 88.1016C79.1198 87.1553 78.0069 86.5692 78.039 85.441C78.5592 84.9166 84.0107 90.5232 85.5508 90.1004ZM313.483 87.9901C312.972 87.2607 301.992 86.3515 300.153 86.1056C293.342 85.1953 285.789 83.665 278.984 83.2932C274.865 83.0681 275.028 83.622 273.9 87.1554C273.186 89.3912 271.082 98.1224 271.698 99.9217L308.628 105.899C309.53 105.673 313.512 90.1471 313.483 87.9901ZM51.1894 99.4258C51.3974 99.248 53.5081 95.2457 53.7634 94.6482C54.2288 93.5591 54.8259 92.4047 54.7714 91.1784C52.2646 93.0516 51.0411 96.2384 50.4758 99.245C50.4353 99.5596 51.1453 99.4635 51.1894 99.4258ZM226.04 97.1276C227.296 95.7531 230.5 92.7021 227.539 91.4512C222.224 89.2065 220.601 95.6574 218.405 98.9697C217.587 100.205 211.656 107.426 212.602 108.394C212.876 108.675 214.312 108.167 214.741 107.851C215.862 107.023 218.013 104.095 219.395 102.831C221.51 100.896 224.102 99.2482 226.04 97.1276ZM58.7098 91.5388C57.6258 90.4773 56.6629 94.2361 56.5408 94.9272C56.5001 95.1579 56.0014 96.2609 56.7434 96.1931C57.1316 96.1576 59.2584 92.0762 58.7098 91.5388ZM78.3924 100.153C78.3512 100.105 77.6462 100.016 77.3049 99.6391C76.2015 98.4211 70.7617 91.0055 69.0902 92.2581C70.527 95.4344 73.0633 98.4083 76.1738 100.041C76.6153 100.272 79.5124 101.459 78.3924 100.153ZM50.4803 92.9754C49.7202 92.2838 46.9402 96.535 46.6206 97.1769C46.4499 97.5199 45.9256 98.415 46.7226 98.3452C47.1188 98.3104 50.1277 93.772 50.4803 92.9754ZM142.821 94.0338C142.901 94.1332 145.337 94.6791 145.312 93.8686C145.296 93.3866 143.384 92.7639 142.815 92.9737C142.857 93.2697 142.73 93.9216 142.821 94.0338ZM63.0027 93.3306C61.8109 93.5429 61.0181 98.3734 62.1115 98.3451C63.7411 97.011 63.1342 95.1228 63.0027 93.3306ZM71.9497 105.885C71.4429 103.919 70.1405 102.245 69.3791 100.394C68.929 99.3003 67.394 93.0335 66.0534 93.3323C64.2713 93.7295 65.5841 101.431 67.4815 102.296C67.9479 99.6456 68.7921 102.587 69.6587 103.701C70.2711 104.489 71.1241 105.323 71.9497 105.885ZM199.596 96.6794C197.485 94.564 193.553 95.6753 192.561 98.3511C194.855 97.4261 195.363 98.8763 193.812 100.498C192.501 98.6991 191.309 98.5852 191.138 101.092C191.01 102.976 192.896 104.046 194.467 103.041C195.139 102.611 195.843 99.6048 196.142 98.7119C197.735 99.371 196.412 102.508 198.318 102.117C201.094 101.547 201.467 98.5545 199.596 96.6794ZM44.3946 97.9955L40.2284 101.349L38.6722 104.09C40.3186 104.394 45.0622 98.7268 44.3946 97.9955ZM204.746 104.835C204.969 104.473 207.096 104.383 207.681 104.537C208.502 104.753 209.588 106.146 209.969 106.214C210.378 106.287 211.442 105.255 211.497 104.938C211.621 104.229 207.658 101.334 206.8 101.095C204.365 100.42 204.142 102.886 202.325 103.299C200.563 103.699 198.866 102.973 197.473 103.093C196.12 103.21 194.082 104.822 192.654 105.083C190.759 105.429 186.514 104.561 187.18 108.209C187.653 110.798 190.874 108.475 192.065 108.405C192.811 108.362 193.651 108.849 194.125 108.72C194.386 108.649 197.051 105.548 198.643 106.247C198.237 107.696 195.573 107.765 195.766 109.281C195.789 109.461 196.304 109.503 196.477 109.745C197.926 111.784 198.175 114.103 201.146 113.416C201.23 112.562 200.266 112.178 200.138 111.37C199.618 108.091 206.038 107.324 206.726 109.817C207.064 111.045 205.048 113.059 205.444 113.416C208.979 113.477 212.794 113.338 216.26 112.602C217.632 112.311 222.832 111.151 219.89 109.518C217.605 108.249 210.125 110.392 209.192 109.123C208.114 107.657 209.699 107.104 206.246 105.966C205.628 105.762 203.92 106.175 204.746 104.835ZM63.0044 101.224L53.9226 106.576L53.7031 107.677C53.9131 107.894 57.3942 106.927 57.8945 106.68C59.2736 105.999 59.4803 104.45 60.8572 104.094C61.0839 104.349 59.1673 108.254 59.9624 109.112C61.9333 106.997 62.5903 103.989 63.0044 101.224ZM90.5603 106.609C90.3937 106.414 86.6554 104.347 86.0939 104.087C85.3838 103.758 81.674 102.271 81.2598 102.659C82.1492 105.712 87.4078 107.727 90.3832 107.321C90.6936 107.364 90.5969 106.652 90.5603 106.609ZM185.302 103.081C183.381 103.494 182.287 106.304 184.222 106.89C187.256 107.81 188.877 102.313 185.302 103.081ZM251.609 114.132C252.495 114.322 253.189 113.476 253.955 113.425C255.524 113.321 256.992 115.3 258.213 111.968C259.596 108.192 255.286 109.516 253.945 108.028C252.428 106.345 254.085 103.415 250.672 103.041C248.354 102.787 246.62 103.734 246.306 106.161C246.075 107.942 247.292 108.1 247.773 109.23C248.499 110.932 241.744 114.779 242.664 115.568C243.884 115.376 245.131 116.224 246.342 115.863C247.051 115.651 247.429 114.622 248.046 114.33C248.586 114.074 249.296 114.196 249.796 113.932C251.259 113.161 254.2 110.643 251.609 114.132ZM81.84 106.74C80.4037 105.486 76.596 102.106 78.0598 106.402C79.2601 109.925 83.5617 111.671 86.9819 111.982L81.84 106.74ZM176.097 106.245C173.208 105.822 168.163 107.261 169.008 111.007C169.204 111.879 170.195 112.709 170.484 113.842C171.161 116.49 170.763 118.248 172.222 121.067C176.824 129.958 189.132 133.285 198.46 132.784C208.131 132.264 213.063 122.718 220.999 118.787C223.479 117.559 225.959 117.364 228.426 116.545C232.579 115.165 228.456 114.192 228.327 112.864C228.197 111.518 229.592 111.642 229.968 110.913C231.056 108.801 226.634 107.915 225.299 107.325C224.535 108.782 226.583 108.799 227.275 109.66C227.471 110.516 224.587 112.045 223.884 112.352C214.601 116.407 184.696 116.536 175.486 112.416C174.588 112.014 171.582 110.289 172.878 109.116C173.532 108.524 173.62 109.836 173.806 109.858C175.674 110.082 176.069 107.695 176.097 106.245ZM41.2991 108.521C40.9557 108.842 40.0988 110.098 39.9209 110.548C36.6678 118.778 49.3697 122.404 53.2834 116.048C57.1149 109.825 46.735 103.432 41.2991 108.521ZM187.905 113.416C188.637 112.774 185.357 110.382 185.247 110.199C184.914 109.652 185.759 109.331 184.087 108.097C181.49 106.179 177.781 105.299 178.246 109.829C181.244 108.6 181.019 112.265 181.69 112.735C182.337 113.189 187.56 113.719 187.905 113.416ZM65.1515 106.963C63.493 106.987 64.1979 109.119 64.0817 110.188C65.1041 110.358 64.6764 109.971 64.8438 109.359C65.0571 108.578 65.2173 107.779 65.1515 106.963ZM89.4871 121.306C89.6261 120.675 89.3067 120.594 88.8986 120.287C87.1153 118.948 82.6578 117.61 80.3021 116.349C76.9377 114.547 73.9518 111.9 70.771 110.119C70.1282 109.759 67.9187 108.376 67.4689 109.101C66.9576 109.926 67.8704 114.993 69.0866 115.57L69.0938 112.342C70.8739 113.61 70.7036 116.578 71.6823 118.532C72.1928 119.551 74.5666 122.742 74.4304 120.099C74.4148 119.796 73.5314 117.264 74.6322 117.726C75.8059 118.218 77.2235 122.549 79.109 121.849C77.3985 120.096 77.2502 116.34 74.4755 115.721C73.7135 115.551 73.8729 117.151 72.4502 114.892C72.2553 114.582 71.5593 114.095 72.1355 113.773C77.335 115.653 79.0459 120.552 84.2314 122.813C85.6096 123.414 87.2689 123.84 88.7736 123.817C88.8673 123.028 85.5284 121.922 86.2703 121.311C87.445 121.339 88.3387 121.844 89.4871 121.306ZM205.06 109.498C204.585 108.819 201.234 109.371 202.392 111.274C203.368 112.878 205.85 110.625 205.06 109.498ZM197.211 113.414C196.1 110.816 195.005 108.825 191.743 109.554C190.45 109.842 190.239 110.431 190.571 111.632C191.495 114.965 194.634 113.632 197.211 113.414ZM124.144 110.278C123.04 110.308 118.462 110.799 118.458 112.159C118.452 114.464 127.557 114.729 129.305 114.405C131.33 114.03 131.979 112.03 130.197 111.174C129.141 110.667 125.419 110.243 124.144 110.278ZM100.583 118.435C99.2948 117.136 97.0064 117.22 95.2105 116.472C94.3895 116.13 93.9528 115.443 93.0059 115.094C90.0822 114.017 86.4158 114.489 83.4057 113.78C83.6685 114.508 84.4349 114.832 85.0588 115.168C89.3481 117.48 95.7461 119.524 100.583 118.435ZM130.291 122.026C129.847 120.733 131.325 116.44 130.31 115.727C129.203 114.948 120.161 116.297 118.124 114.494C117.69 114.839 118.377 119.764 118.52 120.729C118.751 122.279 119.602 127.297 120.266 128.305C121.637 130.388 123.996 129.73 125.734 130.276C126.276 130.446 126.15 132.134 127.985 131.016C129.642 130.007 129.049 127.053 130 125.505C130.835 124.146 132.279 124.343 131.359 121.668L130.291 122.026ZM58.7152 124.896C58.113 124.231 61.9065 121.545 62.2873 121.127C63.3273 119.985 64.7221 117.915 64.6184 116.289C62.3688 118.197 60.6659 120.729 58.48 122.675C55.6382 125.204 52.1514 126.797 49.2231 129.198C47.7432 129.26 49.8075 127.834 49.4032 127.407C44.9079 129.697 39.4146 131.697 35.3386 134.65C34.7909 135.046 32.6929 136.283 33.3057 137.092C35.1858 136.561 37.1037 136.129 38.9138 135.363C40.3821 134.742 46.6112 130.639 47.0826 130.644C47.6445 130.65 47.5406 131.05 47.2553 131.525C46.8748 132.158 46.3194 132.69 45.9768 133.478C45.7523 133.994 45.1001 133.9 46.0068 134.574C48.4541 131.991 52.5152 127.512 56.3836 127.759C56.7815 127.784 57.5799 127.574 57.2771 128.299C57.0614 128.815 55.3113 130.128 54.7837 130.824C52.9944 133.181 51.452 135.805 51.9138 138.884C55.2565 137.605 55.602 133.451 57.8213 130.997C58.6842 130.841 58.2505 131.396 58.3408 131.898C58.4688 132.611 58.6965 136.393 59.2485 136.368C60.3086 136.319 60.2752 128.269 61.7536 128.132C62.5539 128.057 61.5559 130.946 62.0952 131.372L63.0027 133.146C63.3934 131.216 63.134 128.962 63.6091 127.115C64.275 124.526 68.0121 122.047 67.655 118.798L65.8711 119.873L66.05 117.724C63.8639 120.373 61.8898 123.32 58.7152 124.896ZM281.315 121.666C280.958 121.358 285.193 115.496 280.148 116.366C276.627 116.974 277.311 119.051 276.259 121.085C274.237 124.993 261.487 125.834 257.332 126.866C253.431 127.834 247.058 130.517 246.616 135.163C246.243 139.088 249.145 137.13 249.46 137.452C249.757 137.755 249.224 139.395 249.18 139.893C249.006 141.879 250.86 140.644 251.809 140.655C252.647 140.665 253.148 141.565 254.112 141.039L253.043 143.188L255.185 142.47L255.189 143.55C257.538 143.375 259.066 141.581 259.129 139.247C260.248 139.733 259.558 141.626 260.018 142.471C261.444 140.209 261.466 138.452 260.56 136.016C261.9 136.383 261.277 139.013 262.702 138.884L261.991 135.299C263.464 136.716 262.766 139.554 265.397 137.102C267.751 134.907 265.963 131.555 266.286 128.842C267.2 129.392 267.86 132.019 268.005 133.063C268.152 134.12 267.597 134.786 267.891 135.656C268.696 134.922 268.304 133.84 268.698 132.877C269.322 131.35 271.577 128.967 273.175 128.397C273.955 128.119 275.24 128.222 275.613 127.971C276.468 127.394 274.78 125.856 277.891 126.355C280.188 126.723 281.42 128.75 283.832 126.165C286.051 123.787 284.263 121.266 281.315 121.666ZM244.81 131.712C244.742 131.668 244.45 130.558 244.094 130.28C245.22 130.397 245.788 131.315 247.058 130.934C248.085 130.627 250.873 127.454 252.793 126.621C255.771 125.328 261.623 125.212 263.908 123.413C264.806 122.705 265.295 120.365 264.799 119.567C264.116 118.467 257.209 119.574 255.746 119.527C252.876 119.435 248.995 117.811 246.025 117.401C232.973 115.598 221.161 117.722 213.524 129.229C212.919 130.14 211.089 133.177 210.816 134.05C210.601 134.738 210.934 134.692 211.355 134.231C212.056 133.464 212.269 132.36 213.139 131.713L212.6 133.143C214.091 133.175 214.173 130.973 215.28 130.239C215.798 129.895 216.251 130.223 216.725 129.944C218.188 129.083 219.788 126.008 221.905 125.617L219.045 128.308C219.211 129.975 221.164 126.841 221.903 127.585L218.328 130.817C220.098 131.518 218.714 131.544 218.156 132.061C217.343 132.815 216.406 133.679 216.539 134.938C217.214 135.095 217.387 134.554 217.791 134.224C219.085 133.167 220.277 131.887 221.582 130.85C221.926 130.577 222.902 129.63 223.334 130.095L220.476 132.972C220.282 133.725 220.894 133.322 221.188 133.683C220.089 134.134 220.337 135.482 220.036 135.934C219.813 136.271 217.583 136.696 217.079 137.815C216.835 138.357 216.76 141.882 216.931 142.079C217.002 142.162 218.521 142.436 219.038 142.658C220.802 143.413 222.418 144.827 224.409 144.623C224.456 143.396 222.286 143.321 221.42 142.78C221.151 142.612 218.601 140.476 218.483 140.324C218.421 140.245 219.133 138.522 219.23 138.519C219.753 138.499 228.163 141.901 228.96 142.396C230.301 143.228 230.315 144.607 231.295 145.078C235.017 146.865 232.858 140.374 231.566 138.708C229.603 136.177 226.572 136.738 224.206 134.947L225.481 132.79C224.219 135.819 228.144 135.072 230.276 136.056C232.651 137.151 233.83 139.651 234.865 141.872C235.1 142.377 235.23 143.995 236.215 143.19C236.315 143.109 236.357 141.298 236.755 141.04C237.911 141.403 235.742 144.275 237.107 143.902C237.676 143.746 239.371 141.41 239.374 141.222C239.377 140.974 237.851 139.375 238.01 139.248L239.326 139.723L240.871 142.471C241.752 137.66 238.27 136.787 234.433 136.012C234.928 135.208 236.55 135.876 237.417 135.601C237.615 135.538 238.01 135.249 238.01 135.119V129.201C240.124 129.858 239.002 133.528 239.712 135.207C240.014 135.921 243.085 139.098 243.736 138.524C242.849 137.52 244.136 136.737 244.065 136.243C244.034 136.028 241.81 133.787 242.307 132.43C243.632 133.12 243.643 131.778 244.81 131.712L243.765 133.275C245.021 135.938 246.17 132.023 245.883 131.713C245.776 131.598 244.97 131.815 244.81 131.712ZM269.859 119.158C266.757 119.314 266.195 121.571 269.499 122.028L269.859 119.158ZM134.941 121.673C134.105 122.792 139.228 123.411 139.777 123.456C141.056 123.56 148.556 123.615 148.894 122.561C149.405 120.971 144.675 120.308 143.703 120.239C140.752 120.032 137.639 120.563 134.941 121.673ZM168.827 122.858C167.867 122.049 164.161 121.565 163.62 122.437C163.293 122.965 163.112 126.399 164.714 126.255C165.902 126.149 169.291 125.984 170.002 125.424C170.696 124.877 169.298 123.255 168.827 122.858ZM138.877 131.353H145.319C144.241 133.157 141.427 132.859 139.591 133.148C138.307 134.118 142.351 133.803 142.639 133.859C143.806 134.088 144.252 136.916 143.442 137.724C142.628 138.535 138.849 138.279 137.959 137.474C137.373 136.943 136.597 132.629 136.778 131.97C136.92 131.454 137.73 131.203 137.812 130.449C137.873 129.891 136.975 127.095 136.83 126.049C136.766 125.579 137.081 125.038 137.016 124.753C136.862 124.08 134.096 123.237 133.868 123.463L136.908 138.886C138.414 139.895 140.287 139.419 141.901 139.622C143.112 139.774 144.421 141.106 145.934 139.857C147.377 138.664 147.188 133.648 147.516 131.583C147.679 130.556 149.184 124.825 148.898 124.539L138.163 124.898C137.746 126.079 139.761 125.768 139.95 125.975C140.277 126.333 139.296 127.072 139.297 127.228C139.304 127.876 141.237 128.02 140.628 128.815C140.583 128.874 139.929 128.788 139.928 129.038C139.926 129.345 140.471 130.11 140.311 130.273C140.203 130.385 138.581 130.2 138.877 131.353ZM98.4363 123.824L94.1436 123.998C95.2923 124.946 97.5208 125.276 98.4363 123.824ZM72.6733 138.167C75.1795 137.215 73.9709 126.689 72.8479 126.697C70.8817 130 71.3319 134.654 72.6733 138.167ZM323.541 169.373C322.341 163.52 320.869 157.743 319.711 151.874C318.679 146.648 318.192 141.169 316.935 136.004C316.638 134.784 316.504 133.198 315.499 132.421C314.869 131.933 310.885 130.382 309.934 130.107C304.86 128.637 298.633 128.713 293.346 128.081C291.58 127.87 287.788 126.554 286.329 127.235C285.918 127.427 285.558 128.132 285.019 128.432C281.661 130.298 274.403 127.56 272.727 131.537C272.445 132.206 273.148 132.063 273.51 132.17C280.361 134.207 290.008 135.294 286.683 145.341C293.488 144.049 298.589 138.948 304.466 135.727C306.089 134.838 308.465 133.225 310.3 133.683C302.869 137.158 296.607 142.615 288.93 145.623C284.316 147.43 284.538 147.225 280.358 149.945C276.553 152.421 272.66 154.053 268.072 154.311C268.006 154.723 268.09 155.006 268.259 155.377C268.96 156.907 271.643 159.527 272.785 161.603C273.863 163.564 274.476 165.773 275.658 167.69C276.211 168.586 278.711 171.327 278.774 171.766C278.986 173.258 271.176 175.314 270.397 176.905C269.734 178.259 270.672 180.491 271.277 181.779C271.622 182.053 275.122 180.491 275.828 180.198C283.331 177.092 290.37 172.765 297.893 169.672C304.538 166.94 312.531 164.079 319.497 167.154C320.11 167.425 323.32 169.611 323.541 169.373ZM76.9616 130.634C77.1737 129.209 76.8426 127.627 75.1761 127.409C74.8776 127.741 76.3296 131.402 76.9616 130.634ZM69.0866 128.483C67.7993 128.669 67.6736 132.44 68.5534 132.422C69.3878 132.405 69.034 129.15 69.0866 128.483ZM211.167 130.279C208.291 131.399 206.809 131.91 207.592 135.297L208.821 134.56L211.167 130.279ZM203.655 137.808C203.26 137.462 205.238 135.726 205.514 135.191C205.939 134.367 206.201 133.364 206.155 132.429C203.858 133.101 202.318 137.807 203.463 139.614C204.071 140.574 205.644 138.874 205.442 137.995C205.242 137.121 203.859 137.987 203.655 137.808ZM205.801 143.549C204.291 143.301 202.647 143.377 201.406 143.111C199.232 142.643 200.46 141.388 200.4 140.179C200.345 139.073 199.938 138.333 200.107 136.944C200.248 135.784 200.991 134.966 201.146 133.866C195.87 134.327 185.761 138.516 192.792 144.571C200.306 151.042 229.179 152.988 239.277 152.89C248.725 152.798 272.032 151.355 280.017 147.092C282.756 145.629 286.805 142.063 284.479 138.761C283.772 137.757 278.508 135.138 277.119 134.661C274.869 133.887 269.772 132.777 270.587 136.545C271.219 139.468 281.964 139.587 278.457 144.095C276.601 146.481 274.294 144.829 272.19 144.622C270.819 144.488 269.251 144.813 267.915 144.603C266.544 144.387 265.067 142.907 263.604 142.888C262.54 142.874 259.358 144.13 258.224 144.619C253.214 146.781 251.633 147.873 245.719 148.227C237.191 148.737 228.037 149.606 219.625 148.524C216.553 148.13 213.483 147.384 210.454 146.773L211.525 145.705C210.212 145.546 206.723 146.182 205.975 144.976C205.665 144.475 205.878 143.984 205.801 143.549C206.992 143.744 208.067 144.497 209.378 144.264L207.592 143.545L209.02 142.475C208.409 142.532 207.688 142.343 207.11 142.475C206.808 142.544 207.1 143.547 205.443 142.835C205.307 142.924 205.764 143.342 205.801 143.549ZM70.5198 135.659C69.7564 135.522 69.6637 136.003 69.4513 136.557C68.8493 138.129 68.7836 140.775 68.7359 142.473C71.107 140.967 70.4692 138.086 70.5198 135.659ZM207.057 136.376C206.237 136.565 205.778 139.262 206.695 139.237C207.508 139.215 208.675 136.002 207.057 136.376ZM76.9593 138.169C76.5091 137.823 76.1674 138.485 75.9744 138.791C75.2838 139.886 71.6428 149.395 71.3997 150.706C71.1915 151.829 71.1404 153.241 71.1124 154.396C71.1 154.912 70.6584 155.267 71.4182 155.743C72.9832 151.911 75.0354 148.124 76.3499 144.189C76.5915 143.466 77.526 140.621 77.5235 140.141C77.5223 139.914 77.0405 138.232 76.9593 138.169ZM80.5902 138.573C79.8401 139.041 78.2233 148.291 77.781 149.928C76.1252 156.057 73.6997 161.961 71.851 168.017C71.4406 169.362 70.1111 173.143 70.1442 174.237C70.1775 175.337 72.8032 177.658 73.7376 178.527C74.5822 179.313 80.8723 184.491 81.384 184.4L88.6173 178.01L89.3096 176.381L86.3096 161.981C85.2005 155.188 85.6784 147.27 83.9653 140.656C83.6188 139.318 81.6867 137.889 80.5902 138.573ZM46.184 138.887L41.562 141.963L39.0283 144.263C42.0787 144.222 45.1152 141.662 46.184 138.887ZM267.973 138.968C267.231 139.124 264.291 140.696 264.492 141.567C264.576 141.929 266.338 142.784 266.812 142.793C267.98 142.817 271.702 140.829 271.291 139.435C270.616 138.599 268.925 138.768 267.973 138.968ZM228.346 142.836C227.124 142.941 221.141 139.703 220.834 139.963C220.199 140.501 221.326 140.751 221.509 140.887C223.29 142.21 225.074 143.215 227.355 143.324C227.856 143.348 228.157 143.595 228.346 142.836ZM48.6891 140.322C48.1483 139.727 45.973 143.077 45.8281 143.545C46.2389 143.949 49.3091 141.005 48.6891 140.322ZM99.1487 161.125L92.5261 150.011C90.1227 147.072 90.4439 139.953 85.5514 140.678C85.0362 141.193 87.0165 148.95 87.2374 150.29C88.0177 155.021 88.1686 160.204 89.2364 164.786C89.526 166.03 89.6703 168.034 90.8301 168.57C114.631 174.09 138.94 177.069 162.921 181.684C170.907 183.221 178.793 185.273 186.758 186.847C202.415 189.941 218.661 191.028 233.548 196.992C234.319 197.096 233.958 196.885 234.107 196.492C235.474 192.886 235.989 187.902 236.932 184.084C236.349 184.372 235.852 185.515 235.555 186.105C234.386 188.422 233.54 190.94 232.283 193.225L231.997 192.588L238.008 177.986C237.307 177.864 236.989 178.455 236.589 178.892C233.481 182.297 231.608 187.341 228.166 190.537C227.897 190.593 227.936 190.189 227.994 190.007C229.079 186.627 235.877 179.726 237.966 175.25C238.629 173.83 240.215 171.059 238.547 170.099C233.106 174.749 229.03 180.765 223.698 185.517C224.04 184.499 225.138 183.305 225.851 182.477C229.695 178.019 233.736 173.72 237.294 169.02C236.382 168.954 234.268 169.172 233.569 169.691C233.073 170.058 233.499 171.02 233.359 171.171C233.149 171.398 228.029 171.151 227.319 172.288C226.443 173.69 230.216 173.839 230.135 175.471C228.249 175.369 225.289 172.396 223.702 173.869C222.554 174.934 224.748 175.2 225.464 175.673C226.25 176.191 227.016 176.718 227.629 177.448C225.919 177.548 224.095 175.169 222.276 176.004C219.568 177.247 223.396 178.121 224.052 179.415C222.993 179.482 221.639 177.971 220.707 178.058C219.845 178.139 217.347 180.902 216.895 180.492C219.518 177.659 216.905 176.764 214.27 178.402C213.719 178.745 210.896 181.627 210.453 181.209C211.318 179.885 213.058 178.915 212.977 177.111C211.632 172.316 212.371 166.026 211.087 161.386C210.87 160.599 210.395 159.906 209.582 159.667C186.145 154.931 162.374 152.145 138.749 148.519C123.661 146.204 107.154 142.356 92.1682 141.042C91.6351 140.996 91.095 141.038 90.5647 141.04L90.6317 141.863L99.1487 161.125ZM274.056 141.11C271.474 141.685 271.932 144.144 275.044 143.928C278.426 143.694 276.925 140.472 274.056 141.11ZM210.812 142.109C210.902 142.199 212.748 142.831 213.117 143.189C213.327 143.143 214.026 142.013 214.023 141.932C213.988 141.123 209.787 141.083 210.812 142.109ZM250.795 142.567C249.049 140.65 244.574 142.361 243.385 144.446C244.429 145.426 246.353 145.834 247.76 145.626C249.094 145.428 252.393 144.322 250.795 142.567ZM64.4376 154.665L60.3239 143.551C58.9605 145.832 60.4753 150.048 61.7776 152.134C62.0095 152.505 64.0027 155.088 64.4376 154.665ZM46.5438 153.948C47.2157 154.105 47.3951 153.572 47.7973 153.235C50.4465 151.012 52.2554 147.784 52.2662 144.266C48.7402 146.588 47.861 150.217 46.5438 153.948ZM55.1276 144.268C54.5839 143.764 54.5119 144.424 54.3259 144.723C53.3631 146.275 53.1028 149.003 52.4408 150.715C50.7538 155.077 48.2735 156.889 45.1122 160.045C47.8797 159.666 50.3858 157.089 51.921 154.857C53.0831 153.168 56.8588 145.871 55.1276 144.268ZM66.5825 144.626C64.5075 144.801 65.846 148.428 66.4205 149.649C66.6706 150.18 66.3629 150.538 67.2991 150.362L66.5825 144.626ZM225.128 146.062L220.475 145.346C220.464 145.85 221.581 146.058 221.976 146.168C222.825 146.403 223.801 146.549 224.676 146.697C225.368 146.814 225.105 146.683 225.128 146.062ZM44.3963 148.215C44.0025 147.856 39.5795 151.57 39.0283 152.154C40.2688 152.737 44.7813 148.567 44.3963 148.215ZM42.9631 152.518C42.7279 152.288 39.0357 154.061 39.7457 154.667C41.4322 154.886 42.6854 154.27 42.9631 152.518ZM255.902 152.877L223.333 153.772C223.305 154.809 236.521 154.711 237.846 154.683C242.712 154.58 247.647 154.036 252.507 153.596C252.848 153.565 257.181 153.843 255.902 152.877ZM58.7097 155.029C57.9748 154.875 57.8789 155.394 57.5686 155.854C56.6972 157.147 56.1784 158.881 55.2151 160.311C53.367 163.054 47.4555 168.246 54.9535 163.277C57.249 160.901 58.7128 158.45 58.7097 155.029ZM37.832 169.251C42.7514 164.531 39.2238 156.322 32.4188 156.085C21.3319 155.698 22.4092 171.807 33.1364 171.18C34.7412 171.086 36.6702 170.366 37.832 169.251ZM65.8729 170.093C68.2346 167.653 69.5243 164.193 69.0865 160.768L67.2927 164.166C66.7709 166.135 65.6529 167.993 65.8729 170.093ZM57.9995 165.43C59.1878 164.773 59.9464 163.585 59.7817 162.201C58.7129 162.786 58.0184 164.228 57.9995 165.43ZM45.7289 166.934C40.7372 168.043 44.8206 175.468 48.8296 172.56C51.7521 170.441 48.9293 166.223 45.7289 166.934ZM64.7955 166.868C61.8047 168.104 61.1771 172.216 60.8609 175.113C61.6016 175.274 61.6741 174.729 62.0127 174.298C63.5263 172.371 63.8599 169.134 64.7955 166.868ZM314.6 170.449C315.34 167.414 310.741 166.855 309.744 168.279C309.173 169.093 310.05 174.675 310.313 175.999C310.381 176.344 310.485 176.816 310.863 176.893C311.611 177.044 322.659 173.113 322.826 172.42C321.776 170.914 318.186 168.54 316.472 168.355C314.816 168.177 315.5 169.859 314.6 170.449ZM243.025 186.232C241.846 181.761 243.472 176.924 243.015 172.43C242.925 171.552 242.776 169.62 241.59 169.736C240.656 176.961 239.828 184.297 237.908 191.333C237.416 193.137 236.191 197.709 235.237 199.059C234.613 199.941 234.057 199.773 233.364 200.403L245.698 210.272C246.18 210.27 249.121 208.101 249.682 207.609C250.747 206.674 254.133 203.108 254.094 201.88C251.274 192.914 250.893 183.445 249.422 174.257C248.873 170.826 244.605 167.162 244.08 172.769C243.734 176.461 244.172 180.33 243.693 184.218C243.64 184.649 243.535 186.178 243.025 186.232ZM59.7838 170.812C58.9171 169.892 57.3923 174.004 57.3132 174.606C57.0833 176.356 57.9634 182.78 58.7111 178.522C59.1646 175.939 58.89 173.308 59.7838 170.812ZM314.213 204.14L306.902 171.176C306.148 171.669 306.424 172.006 306.46 172.679C306.614 175.59 307.762 178.293 307.793 181.211L306.467 177.703L305.289 171.887C304.796 171.79 304.433 172.012 304.281 172.485C303.971 173.449 304.95 179.933 305.19 181.501C306.05 187.123 307.428 193.391 308.972 198.866C309.305 200.047 310.327 204.78 311.469 204.813C311.739 204.821 314.131 204.256 314.213 204.14ZM55.1311 174.399C53.4342 173.939 53.7897 176.476 53.7049 177.625C54.509 177.521 55.3588 174.614 55.1311 174.399ZM286.324 184.799C290.66 184.199 294.685 181.864 298.97 180.795C300.277 180.324 299.227 174.453 298.675 174.409C297.379 175.318 286.324 178.927 286.324 179.598V184.799ZM219.512 175.241C219.057 175.614 217.188 177.35 218.511 177.624C218.66 177.654 220.794 175.797 220.832 175.649C221.034 174.857 220.195 174.681 219.512 175.241ZM318.175 176.908C315.608 176.613 317.235 180.801 317.454 182.473C317.611 183.667 316.917 185.584 318.175 186.234V176.908ZM68.3736 180.141C68.2111 179.98 65.3711 179.232 65.1552 179.421C64.7475 181.162 69.4626 181.226 68.3736 180.141ZM99.866 180.138C98.9296 180.057 99.2729 180.091 99.1638 180.677C98.0649 186.576 97.2565 192.968 97.0085 198.972C96.9282 200.916 96.5268 208.434 98.075 209.374C99.1976 210.056 105.074 209.376 105.526 207.867L105.251 191.42C104.659 189.316 105.31 186.32 103.45 184.8C102.669 187.633 103.443 190.821 103.09 193.594C103.007 194.244 103.212 194.178 102.375 194.124C102.543 192.581 101.978 191.171 101.987 189.636C102.001 187.494 103.298 184.009 101.662 182.289C101.389 183.912 101.053 185.87 100.945 187.493C100.639 192.086 101.008 197.359 100.586 201.84C100.52 202.532 100.207 204.174 99.5137 204.526L99.866 180.138ZM260.914 184.079L262.338 182.468C262.359 181.56 254.154 180.825 253.014 182.442C251.821 184.134 253.767 189.759 254.649 191.607L269.144 183.542C267.957 183.089 265.515 182.222 264.329 182.303C262.986 182.395 262.315 184.096 260.914 184.079ZM282.387 187.49C282.178 185.989 282.387 183.728 282.387 182.109C282.387 181.678 281.48 181.285 281.311 182.465C281.774 191.459 280.148 201.157 280.962 210.082C281.024 210.771 281.26 212.882 281.899 213.103C282.568 213.333 285.244 212.762 285.275 211.896L284.174 181.573C283.093 181.396 283.603 181.843 283.452 182.444C282.953 184.43 283.111 186.357 283.099 188.385C282.739 188.516 282.408 187.637 282.387 187.49ZM286.324 193.05C288.049 192.783 299.727 189.025 300.107 188.394C300.529 187.692 299.975 183.145 299.362 183.021L286.324 187.49V193.05ZM48.335 187.309C49.3165 188.324 51.0505 184.76 49.5804 184.443C48.4249 184.193 47.9959 186.958 48.335 187.309ZM54.0611 185.16C53.9489 186.337 54.8126 187.343 55.6704 188.027C56.0502 188.33 58.3882 189.758 58.3466 188.566C58.3367 188.282 54.7801 184.439 54.0611 185.16ZM69.0883 185.877C67.769 185.836 66.3591 185.792 65.1553 186.412C65.6231 187.616 70.1538 186.733 69.0883 185.877ZM272.006 186.592C271.739 186.317 266.008 189.469 265.738 189.813C265.528 190.08 265.522 190.21 265.568 190.537L267.356 190.542C268.148 191.116 263.025 191.62 262.625 191.719C262.265 191.809 261.547 191.821 261.632 192.328C263.516 192.557 270.949 193.233 272.158 192.373C272.832 191.893 272.104 187.608 272.006 186.592ZM82.6895 192.336C72.7544 192.477 62.211 193.788 52.4754 191.229C50.4427 190.695 48.5806 189.726 46.6552 189.166C46.4266 189.1 45.4097 188.421 45.4773 189.283C45.5053 189.641 47.5454 190.784 48.021 191.031C55.3344 194.821 73.3037 197.339 80.7892 193.835C81.5072 193.499 82.3675 193.131 82.6895 192.336ZM91.6367 189.463C90.5553 189.293 91.0617 189.726 90.9112 190.334C89.8894 194.461 89.5383 198.708 88.8082 202.893L89.846 203.458C90.057 203.888 88.3096 203.89 89.1333 204.526C89.3836 204.72 91.6367 204.551 91.6367 203.99V189.463ZM304.928 192.333C304.009 192.203 304.182 192.442 304.248 193.194C304.462 195.639 305.421 200.77 306.18 203.099C306.525 204.155 307.152 205.869 308.51 205.603C308.695 200.929 305.877 196.814 304.928 192.333ZM300.609 192.717C300.24 192.455 298.626 193.024 298.058 193.154C296.612 193.485 287.409 196.133 286.844 196.62C283.64 199.383 292.187 197.988 292.964 198.052C294.144 198.149 294.782 198.687 295.796 198.8C296.654 198.896 300.507 198.943 301.126 198.739C302.713 198.215 300.805 193.899 300.609 192.717ZM272.01 194.127C270.614 194.372 268.238 193.457 267.356 194.84L272.01 195.2L272.01 194.127ZM256.62 204.169C257.001 204.561 266.064 204.169 267.535 204.169C267.984 204.169 270.48 202.919 270.217 204.526C268.572 204.23 266.901 204.804 265.384 204.883C262.144 205.052 255.946 203.661 254.472 206.677C257.634 206.677 260.804 206.681 263.97 206.697C264.701 206.701 265.361 206.344 266.065 206.357C266.674 206.368 269.097 206.622 269.609 206.753C270.498 206.982 270.742 208.115 270.04 208.115H253.22C252.936 208.115 251.691 209.012 251.967 209.55H268.609C268.991 209.55 269.808 210.101 269.503 210.626H250.715C250.569 210.626 249.469 211.324 249.462 211.699L270.76 211.348C271.693 211.342 272.366 207.858 272.366 207.218V199.148C267.337 197.815 261.67 200.464 256.794 198.433C256.289 198.122 257.463 197.713 257.514 197.713H271.472C272.163 197.713 272.607 196.917 272.368 196.279C267.999 196.315 262.905 197.136 258.575 196.65C258.04 196.59 257.471 196.575 257.336 195.924C258.314 195.444 260.023 195.95 260.556 194.847C258.924 194.935 256.662 194.029 255.18 195.024C254.498 195.482 255.788 199.61 256.424 200.24C258.492 202.29 268.019 199.577 270.933 201.481C267.586 202.355 263.846 202.082 260.363 202.034C259.349 202.02 257.511 201.153 256.795 202.373C256.596 202.714 256.507 204.054 256.62 204.169ZM83.0455 195.562C82.7782 195.28 76.5271 196.561 75.3497 196.633C67.4748 197.117 59.6922 196.11 51.912 195.205C55.2324 197.874 60.6135 198.602 64.7938 198.792C64.8781 199.303 64.163 199.307 63.801 199.4C60.405 200.27 57.4005 198.958 54.1802 198.813C53.5292 198.784 53.0586 198.72 52.6295 199.329C55.6371 200.993 59.1228 201.805 62.5177 202.327C63.9011 202.54 68.411 202.568 69.096 202.908C69.2619 202.99 69.5497 203.378 69.448 203.448C64.0858 204.1 58.655 203.293 53.3452 202.378C53.1987 203.101 53.6906 203.214 54.165 203.525C57.9698 206.023 70.7158 206.336 75.3475 205.957C76.3703 205.874 82.2235 204.628 82.6888 204.164C83.9094 202.947 80.1855 203.801 80.0019 203.807C78.283 203.862 76.019 203.974 74.3667 203.72C74.0507 203.671 73.2891 203.564 73.3866 203.097C75.6237 202.772 78.169 202.372 80.2826 201.577C80.6149 201.453 83.7547 200.146 83.0457 199.508C80.1517 199.856 76.8292 200.597 73.9152 200.224C73.4229 200.161 72.7906 199.954 73.3834 199.508C75.6996 199.286 78.364 198.776 80.5356 197.885C81.1357 197.639 83.9159 196.482 83.0455 195.562ZM22.9339 199.148C23.4766 199.022 25.3146 198.757 25.4276 198.245C25.4872 197.975 22.584 193.048 22.5952 197.578C22.5967 198.162 22.8208 198.604 22.9339 199.148ZM274.517 210.267C275.212 210.121 275.146 209.548 275.232 209.014C275.742 205.846 275.676 202.446 275.851 199.223C275.873 198.816 276.02 197.707 275.408 197.72C274.343 197.743 273.769 208.995 274.517 210.267ZM292.765 200.22C292.403 199.112 287.614 198.963 287.399 199.149C287.984 201.383 291.121 200.11 292.765 200.22ZM24.9932 200.684C19.5328 201.388 14.9153 205.879 17.4935 211.585C21.9251 221.392 40.4976 216.078 35.7616 205.471C33.8294 201.143 29.3632 200.12 24.9932 200.684ZM287.039 202.735C287.545 203.255 299.597 202.735 301.534 202.735C301.752 202.735 302.222 201.995 302.069 201.66C299.359 202.14 288.998 200.338 287.25 201.627C286.944 201.853 286.947 202.639 287.039 202.735ZM277.373 210.626C276.966 208.563 278.406 206.383 277.199 204.53C276.396 205.859 276.157 209.552 277.373 210.626ZM91.2773 205.247C90.5697 205.073 88.0795 205.258 88.0651 206.142C88.0526 206.908 92.0024 207.242 91.2773 205.247ZM48.1542 205.963C46.2258 205.649 42.7798 205.963 40.6387 205.963C40.5639 205.963 39.9877 206.569 40.1022 206.677C40.5676 206.512 41.1566 207.039 41.3544 207.039H49.0489C49.2931 206.471 48.6797 206.048 48.1542 205.963ZM83.7633 208.474H90.742C90.7833 208.474 91.4575 207.952 91.1038 207.756C90.6564 207.124 84.4997 207.025 83.7633 208.474ZM240.515 212.061V217.441C240.004 217.523 239.993 216.809 239.903 216.444C239.75 215.826 239.448 211.542 238.686 213.635C238.41 214.395 238.715 215.929 237.654 215.646C237.604 214.794 237.921 212.583 236.58 212.78C236.087 217.058 236.841 221.342 236.576 225.69C234.397 225.181 235.577 221.934 234.784 220.314L234.069 224.613C233.708 224.767 233.357 223.777 233.357 223.719V217.979C233.357 217.834 232.661 216.731 232.287 216.724L231.571 219.593C231.754 219.201 231.423 215.06 230.498 216.006C230.3 216.209 229.906 219.972 229.775 220.67L228.709 219.595C228.765 220.71 227.498 225.089 228.399 225.642C228.739 225.851 229.93 225.6 230.591 225.774C232.006 226.145 234.341 227.408 235.676 227.431C237.549 227.463 240.32 225.627 242.253 225.283C241.786 221.385 242.189 216.692 241.239 212.934C241.086 212.331 241.601 211.89 240.515 212.061Z" fill="black"/>
<path d="M249.999 234.298C249.72 234.25 248.397 233.607 248.396 233.402C249.586 231.389 256.227 233.344 256.818 232.51C256.964 232.305 256.51 228.777 256.778 227.463C258.523 218.902 272.206 221.798 278.016 223.793C280.234 224.555 282.669 225.746 283.08 228.403C283.951 234.042 280.802 239.55 274.7 239.318C267.62 239.049 259.966 235.423 252.683 236.088C252.776 235.538 253.367 235.395 253.823 235.262C254.856 234.96 256.881 235.436 256.62 234.298C254.606 234.056 251.91 234.629 249.999 234.298ZM263.683 223.266C259.467 223.979 256.447 229.479 260.008 232.875C262.085 234.857 268.314 234.377 271.12 235.722C271.471 235.451 271.522 235.431 271.511 234.992C271.447 232.248 270.559 230.01 272.763 227.701C273.244 227.197 275.932 225.597 275.938 225.152C275.946 224.567 271.024 224.306 270.136 224.158C267.891 223.785 266.112 222.856 263.683 223.266ZM280.513 227.21C277.975 224.676 272.022 230.256 274.329 235.021C275.952 238.373 280.562 235.654 280.964 232.334C281.08 231.374 281.104 227.8 280.513 227.21Z" fill="black"/>
<path d="M159.274 99.0703L158.238 101.412C153.988 101.693 155.627 103.497 158.918 103.018C158.865 103.365 158.466 103.726 158.173 103.882C157.023 104.493 147.85 105.203 147.469 104.805C147.646 103.739 146.5 100.98 147.442 100.298C148.101 99.822 149.855 100.557 150.847 100.517C153.555 100.409 156.604 99.5756 159.274 99.0703Z" fill="black"/>
<path d="M243.735 237.893C244.266 238.601 241.906 239.54 241.47 239.743C238.329 241.205 235.274 241.516 231.91 240.594C228.538 239.671 231.448 236.142 233.917 235.759C235.017 235.589 236.978 235.658 238.103 235.822C238.751 235.916 243.554 237.653 243.735 237.893ZM240.514 238.601C241.268 237.598 237.309 236.864 236.755 236.817C230.442 236.278 231.269 240.593 237.387 239.595C237.753 239.536 240.415 238.733 240.514 238.601Z" fill="black"/>
<path d="M154.266 127.407C153.97 127.127 154.999 124.937 154.959 124.332C154.91 123.564 153.315 122.69 153.906 121.309C155.959 121.523 157.845 121.08 159.808 120.586C160.174 122.595 160.512 124.066 158.562 125.077C160.294 124.946 160.301 127.407 159.455 127.407H154.266Z" fill="black"/>
<path d="M258.407 170.092C255.366 168.676 253.212 165.893 249.756 164.957C245.284 163.745 240.614 165.168 236.29 163.03C234.531 162.16 234.957 161.323 236.666 161.555C238.681 161.827 240.86 163.333 243.244 163.592C245.75 163.865 248.342 163.283 250.828 163.883C252.048 164.177 259.804 168.676 258.407 170.092Z" fill="black"/>
<path d="M70.162 212.783C69.3666 214.125 67.555 213.137 66.4203 213.122C59.2834 213.025 50.0747 213.859 43.2311 212.692C42.6631 212.595 41.711 212.36 41.5334 211.707L70.162 212.783Z" fill="black"/>
<path d="M185.759 75.0358V82.0305C185.759 83.8367 188.374 86.7463 187.188 89.0244C185.963 90.1739 184.427 83.265 184.365 82.71C184.179 81.0261 184.027 76.7303 184.935 75.4843C185.178 75.1515 184.945 74.8538 185.759 75.0358Z" fill="black"/>
<path d="M176.558 89.9871C175.266 88.8663 172.49 83.8145 172.06 82.1193C171.707 80.7275 172.779 81.0379 173.607 81.6557C174.792 82.5388 177.901 88.2292 177.873 89.5933C177.853 90.5388 177.162 90.5116 176.558 89.9871Z" fill="black"/>
<path d="M197.21 76.474C197.779 77.0865 195.038 85.0582 194.527 85.0738C193.423 85.1076 194.302 80.1101 194.529 79.3434C194.891 78.1221 195.635 76.2884 197.21 76.474Z" fill="black"/>
<path d="M156.95 113.059C157.822 113.177 158.731 114.135 158.202 114.135H150.15C149.62 114.135 149.62 113.059 150.15 113.059C152.19 113.059 155.049 112.803 156.95 113.059Z" fill="black"/>
<path d="M173.49 141.477C174.377 141.274 177.694 140.972 177.167 142.65C176.928 143.411 173.419 143.342 172.754 143.134C171.479 142.735 172.469 141.711 173.49 141.477Z" fill="black"/>
<path d="M157.845 118.083H151.403C151.23 116.99 151.681 117.513 152.275 117.358C153.943 116.924 157.528 115.623 157.845 118.083Z" fill="black"/>
<path d="M166.432 136.73C165.957 137.366 160.763 137.301 161.067 135.843C161.576 135.048 161.888 135.433 162.493 135.464C163.011 135.49 167.312 135.554 166.432 136.73Z" fill="black"/>
<path d="M224.768 203.453C225.083 203.596 224.097 204.171 223.874 204.171H215.463V203.453H224.768Z" fill="black"/>
<path d="M289.187 228.557C289.326 227.834 289.946 227.973 290.441 227.845C291.345 227.612 295.598 226.961 295.621 228.381C295.641 229.589 290.02 228.141 289.187 228.557Z" fill="black"/>
<path d="M223.693 197.717C222.867 199.086 221.011 198.109 219.932 198.074C218.445 198.025 216.949 198.105 215.465 198.068C215.468 197.463 216.656 197.385 217.072 197.352C219.274 197.175 221.522 197.394 223.693 197.717Z" fill="black"/>
<path d="M261.63 214.215C262.617 215.178 258.66 215.337 258.218 215.308C255.389 215.121 257.117 213.925 258.961 213.837C259.369 213.817 261.528 214.115 261.63 214.215Z" fill="black"/>
<path d="M151.659 143.264C153.885 142.747 154.96 144.23 152.499 144.824C151.977 144.951 149.701 145.272 150.146 144.265C150.559 143.816 151.049 143.405 151.659 143.264Z" fill="black"/>
<path d="M11.4696 213.499L8.09029 214.224C6.59985 213.693 4.28468 214.115 3.24023 212.781C5.9671 213.19 8.6979 213.652 11.4696 213.499Z" fill="black"/>
<path d="M68.374 220.664C66.9824 220.971 64.0412 221.515 64.4357 219.594C65.7796 219.614 67.6137 219.234 68.374 220.664Z" fill="black"/>
<path d="M272.363 170.45C270.951 169.308 270.151 166.498 269.865 164.711C271.188 166.229 271.832 168.546 272.363 170.45Z" fill="black"/>
<path d="M254.828 243.985C254.729 244.082 252.562 243.721 252.144 243.621C251.719 243.518 251.02 243.533 251.611 242.916C252.123 242.38 255.48 242.082 254.828 243.985Z" fill="black"/>
<path d="M217.969 200.94L223.142 200.206C223.892 200.325 225.026 199.759 224.768 200.94H217.969Z" fill="black"/>
<path d="M261.63 170.087C261.242 170.477 257.814 167.271 258.413 166.504C259.948 167.231 260.938 168.572 261.63 170.087Z" fill="black"/>
<path d="M156.771 108.396H151.403L154.805 107.654C155.514 107.668 156.517 107.519 156.771 108.396Z" fill="black"/>
<path d="M157.487 110.191C156.582 111.344 154.182 111.121 152.836 111.262C152.77 110.367 152.749 110.647 153.372 110.555C154.708 110.358 156.137 110.251 157.487 110.191Z" fill="black"/>
<path d="M42.6071 217.801L36.7085 218.531L36.1653 217.801H42.6071Z" fill="black"/>
<path d="M293.836 235.024C293.918 235.679 293.072 235.335 292.685 235.283C291.79 235.162 290.592 234.891 289.698 234.671C289.094 234.522 288.656 235.025 288.831 233.945L293.836 235.024Z" fill="black"/>
<path d="M208.66 164.354C208.826 164.535 210.12 168.425 210.282 169.01C210.593 170.131 210.81 171.435 210.807 172.603C210.232 172.311 209.826 171.049 209.57 170.44C208.986 169.046 207.929 166.321 207.935 164.898C207.938 164.325 208.279 163.938 208.66 164.354Z" fill="black"/>
<path d="M137.443 155.75L132.8 158.444L124.204 162.558C125.853 161.242 128.044 160.147 129.922 159.146C132.268 157.897 134.916 156.438 137.443 155.75Z" fill="black"/>
<path d="M194.703 171.886L192.755 167.566L191.489 162.922C192.102 163.317 192.561 164.647 192.833 165.336C193.624 167.342 194.423 169.766 194.703 171.886Z" fill="black"/>
<path d="M199.355 171.885L197.383 166.875C197.377 166.066 196.557 164.976 197.392 164.355C198.413 166.726 199.298 169.261 199.355 171.885Z" fill="black"/>
<path d="M114.541 155.031C112.038 157.011 108.604 158.301 105.596 159.329L110.837 156.516L114.541 155.031Z" fill="black"/>
<path d="M108.457 147.5C106.658 148.971 104.229 150.033 102.015 150.721C103.698 149.269 106.291 148.015 108.457 147.5Z" fill="black"/>
<path d="M115.972 159.336C114.627 160.678 112.391 161.532 110.604 162.199C111.95 160.856 114.186 160.002 115.972 159.336Z" fill="black"/>
<path d="M169.295 158.975C169.893 159.431 169.256 159.624 168.768 159.691C167.631 159.846 166.447 159.655 165.363 159.327C165.277 158.703 166.176 158.99 166.608 158.973C167.501 158.938 168.405 158.995 169.295 158.975Z" fill="black"/>
<path d="M313.16 136.374C314.482 137.654 313.81 148.159 313.363 150.383L310.663 158.253C310.606 154.895 311.851 151.703 312.087 148.386C312.328 145.014 311.803 141.323 312.089 137.984C312.11 137.746 312.41 135.649 313.16 136.374Z" fill="black"/>
<path d="M302.779 161.481L302.075 161.309L302.979 158.628L308.509 145.344C307.599 151.007 305.214 156.333 302.779 161.481Z" fill="black"/>
<path d="M293.033 136.105C295.048 138.041 288.577 140.483 288.165 137.549C287.947 135.995 291.967 135.082 293.033 136.105Z" fill="black"/>
<path d="M286.327 162.2L286.763 159.95L289.183 155.027C289.078 157.492 288.298 160.634 286.327 162.2Z" fill="black"/>
<path d="M297.414 159.686C296.524 159.423 297.496 157.671 297.517 157.098L299.561 152.875C299.557 155.324 297.573 157.266 297.414 159.686Z" fill="black"/>
<path d="M175.668 116.729C175.84 116.84 176.021 117.705 176.453 117.922C177.002 118.198 177.214 116.751 177.821 117.966C178.023 118.371 178.437 119.996 178.233 120.224C178.124 120.346 176.777 119.938 177.173 120.765C177.405 121.249 178.329 121.603 178.744 122.062C179.648 123.06 181.976 126.464 182.907 126.879C183.74 127.251 184.216 126.73 184.821 126.791C185.43 126.853 186.043 127.541 186.739 127.681C187.245 127.784 190.262 128.234 190.405 128.116C190.596 127.958 189.942 126.728 191.125 127.049C191.391 128.276 190.114 128.661 189.697 129.554C192.003 130.637 193.791 130.043 196.007 129.947C199.258 129.807 196.458 131.43 193.826 131.358C186.39 131.154 176.439 124.679 174.703 117.139C174.534 116.405 175.288 116.481 175.668 116.729Z" fill="black"/>
<path d="M204.367 124.898C205.519 126.011 201.241 127.794 200.945 128.104C200.449 128.625 200.469 129.464 200.401 129.525C199.38 130.436 194.667 126.675 194.175 125.606C193.441 124.012 194.983 121.967 194.708 120.233L192.92 119.7C195.507 117.854 200.956 120.298 199.448 123.73C198.767 125.28 195.478 125.611 197.03 127.05C199.821 129.639 200.625 126.226 202.732 125.229C203.12 125.045 204.115 124.654 204.367 124.898ZM195.424 124.894C197.535 124.9 199.607 121.64 197.026 120.596C196.384 120.335 196.471 120.994 196.332 121.308C196.091 121.857 195.115 124.583 195.424 124.894Z" fill="black"/>
<path d="M191.841 117.368C191.925 117.994 191.03 117.705 190.594 117.723C186.471 117.893 182.195 117.491 178.185 116.525C177.756 116.421 176.759 116.495 176.814 115.934L191.841 117.368Z" fill="black"/>
<path d="M189.336 122.025C188.164 122.403 188.843 120.374 187.733 120.594C186.522 120.834 188.059 122.986 187.012 123.455C183.586 120.712 189.322 117.638 189.336 122.025Z" fill="black"/>
<path d="M183.61 120.231C183.199 120.607 180.816 119.432 181.109 118.441C182.256 118.23 183.523 118.995 183.61 120.231Z" fill="black"/>
<path d="M266.638 146.781C266.489 147.39 264.78 147.526 264.313 147.523C263.881 147.52 262.717 147.45 262.711 146.956C262.698 145.885 266.032 147.059 266.638 146.781Z" fill="black"/>
<path d="M85.1913 176.548C83.6841 174.849 83.3701 171.114 83.0932 168.79C82.6353 164.947 82.6069 161.037 82.3354 157.18L85.1489 172.828L85.1913 176.548Z" fill="black"/>
<path d="M26.8585 202.735C27.1634 203.774 26.0498 203.354 25.8299 204.029C25.0055 206.563 28.9974 211.252 31.6362 210.648C32.4819 210.454 31.8765 206.728 32.939 207.757C34.1802 208.958 32.981 212.905 31.5309 214.051C27.776 217.016 22.4935 215.296 20.1207 211.461C19.0801 209.78 19.1673 205.708 20.7648 204.695C22.5485 203.563 21.1957 205.948 22.382 205.959C23.7829 204.829 24.8282 202.684 26.8585 202.735ZM26.1411 213.136C26.5588 212.672 23.7976 210.207 23.2851 209.908C22.8891 210.914 25.9042 213.398 26.1411 213.136Z" fill="black"/>
<path d="M37.5931 164.712C37.4891 169.515 32.4388 170.496 28.8201 168.308C25.5563 166.335 25.0449 161.609 28.2883 159.332C27.8154 161.57 27.465 163.237 29.3801 164.877C32.1917 167.285 35.2427 168.161 37.5931 164.712Z" fill="black"/>
<path d="M127.784 120.233C128.161 122.628 126.873 122.401 125.279 123.284C125.624 123.766 127.217 123.249 127.426 123.46C127.646 123.682 127.425 126.556 126.899 127.059C126.244 127.686 122.106 128.081 121.332 127.236C120.758 126.609 119.948 120.746 120.678 120.284C121.383 119.839 126.435 120.779 127.784 120.233Z" fill="black"/>
<path d="M45.8263 108.756C46.0391 109.854 44.9845 109.333 44.1988 109.809C39.9848 112.364 46.0585 117.719 50.6118 114.446C51.1824 114.036 51.278 113.29 51.9084 113.059C52.4865 118.534 42.8258 119.683 41.6877 114.519C40.9795 111.305 42.1796 108.426 45.8263 108.756Z" fill="black"/>
<path d="M69.8044 82.212C69.6004 87.397 60.1204 87.6767 59.7642 82.7432C59.6158 80.6887 60.6829 79.6569 62.4721 78.9844C63.0345 79.6525 61.8257 80.0617 61.6439 80.6696C60.7485 83.6629 64.4918 84.3422 66.6762 83.9334C67.9366 83.6976 68.6259 82.425 69.8044 82.212Z" fill="black"/>
<path d="M32.5815 79.7008C32.6608 79.7699 32.8827 81.1106 33.2953 81.6814C34.6748 83.5899 38.2543 83.6508 39.9452 82.2193C40.4715 81.7738 40.4099 80.5254 41.537 81.3206C41.5589 87.8193 29.7548 87.2488 31.6937 80.3998C31.8009 80.021 32.0276 79.2183 32.5815 79.7008Z" fill="black"/>
<path d="M222.623 94.4061C221.837 93.6639 224.393 91.7745 224.765 93.1562C225.138 94.5434 222.902 94.6698 222.623 94.4061Z" fill="black"/>
<path d="M262.703 227.847C262.778 227.926 262.033 229.409 262.349 229.996L264.132 227.844L263.775 232.146L262.7 230.714L261.274 232.146C261.171 230.863 261.286 229.731 261.824 228.559C261.946 228.293 262.12 227.227 262.703 227.847Z" fill="black"/>
<path d="M266.997 228.205C266.408 229.548 266.993 230.672 266.7 232.015C266.557 232.674 266.907 233.028 265.926 232.864C265.865 231.538 265.88 230.321 266.234 229.033C266.402 228.421 265.974 228.033 266.997 228.205Z" fill="black"/>
<path d="M268.075 233.584C268.16 232.817 267.726 232.092 267.791 231.334C267.82 230.985 268.273 229.356 268.784 229.281C268.567 230.58 269.419 232.793 268.075 233.584Z" fill="black"/>
<path d="M260.195 231.071C258.671 230.279 259.834 227.814 260.911 227.125L260.195 231.071Z" fill="black"/>
</svg>
