<svg width="444" height="250" viewBox="0 0 444 250" fill="none" xmlns="http://www.w3.org/2000/svg">
<path d="M277.326 178.368C276.393 170.071 266.119 152.715 260.715 145.965C260.319 145.471 260.265 144.191 259.245 145.472C263.153 152.447 266.1 158.784 268.091 166.538C271.751 180.79 271.749 204.759 278.747 216.188C280.95 219.786 284.61 222.238 286.367 226.115C281.626 226.605 278.836 223.154 276.415 219.736C267.768 207.525 271.208 197.015 269.577 183.414C269.463 182.468 269.055 181.489 268.284 182.483C269.502 192.962 262.334 202.276 266.223 212.638C266.756 214.058 270.222 219.089 270.203 219.482C270.038 222.82 264.182 217.708 263.276 216.155C260.49 211.373 261.855 202.745 261.231 201.754C259.572 199.117 252.292 196.111 249.215 196.97C239.484 199.684 232.855 216.745 230.347 225.349C229.865 227.001 228.636 234.697 228.218 234.97C225.524 236.734 224.824 231.459 224.989 229.593C225.743 221.107 231.671 207.078 237.289 200.523C238.927 198.611 246.947 192.526 247.181 191.794C247.688 190.208 246.608 188.129 247.601 186.275L217.283 204.029C218.005 208.794 221.497 212.952 222.256 217.731C222.408 218.683 222.634 223.391 222.414 223.59C222.196 223.788 220.119 223.241 219.154 223.878C218.617 224.233 217.366 228.222 215.578 228.624C214.097 228.957 208.112 218.998 206.904 217.582C202.041 211.882 206.261 221.533 207.679 223.78C208.277 224.726 214.141 230.943 212.395 231.181C211.375 231.181 210.299 231.302 209.303 231.043C207.918 230.684 194.457 221.773 193.017 220.425C187.517 215.279 183.432 205.185 185.498 197.858C185.802 196.78 185.028 196.096 186.874 196.396C186.228 205.391 189.757 215.205 196.89 221.06C197.616 221.656 197.94 222.594 199.153 222.317C193.91 216.709 191.688 209.928 191.345 202.406L192.684 197.663C195.263 206.552 195.951 216.356 203.355 222.953C203.85 221.559 201.646 219.543 200.756 217.908C199.168 214.991 197.126 210.916 196.245 207.778C195.717 205.9 194.897 197.73 194.522 197.13C194.365 196.878 190.305 195.347 189.14 194.495C186.849 192.819 185.536 190.429 183.967 188.174C180.441 198.392 178.424 207.107 184.186 217.053C186.353 220.795 189.752 222.25 191.394 226.118C190.165 225.434 188.939 226.157 187.721 225.664C186.631 225.221 178.786 219.556 177.69 218.534C170.958 212.259 168.689 202.308 172.338 193.862C172.532 193.412 174.354 189.667 175.246 190.705C171.873 199.876 172.605 209.954 180.411 216.631C177.793 209.905 177.006 203.583 178.93 196.518C179.852 193.134 182.491 189.538 182.409 185.957C182.367 184.093 179.549 174.294 178.147 173.631C176.82 173.003 177.288 174.638 177.212 175.221C175.643 187.401 163.976 192.133 152.884 193.789C148.905 194.383 142.25 193.703 138.844 195.856C136.396 197.404 136.793 197.557 138.598 199.069C143.036 202.784 162.215 210.823 162.987 215.71C163.875 221.335 157.946 216.064 155.664 215.249C153.235 214.383 144.414 212.992 142.398 214.196C140.525 215.313 143.288 225.048 142.983 227.723C142.858 228.819 142.818 229.908 141.339 229.911C139.356 229.442 137.835 217.809 137.774 215.684C137.748 214.81 138.294 213.948 138.354 213.078C138.446 211.765 137.008 209.22 140.013 209.073C140.989 209.025 145.954 210.615 147.882 210.853C148.355 210.912 150.676 211.398 149.736 210.304C144.579 207.798 140.189 204.168 135.586 200.849C134.492 201.07 130.115 208.62 129.471 210.081C128.447 212.404 127.875 216.533 127.128 217.907C126.186 219.642 125.566 216.491 125.182 216.634L123.242 218.518C119.591 215.521 121.523 212.156 122.268 208.411C120.033 210.174 116.39 206.677 116.531 204.918C116.604 204.001 130.902 196.732 131.963 194.502C125.927 196.216 120.68 200.298 114.52 201.446C114.917 199.115 126.426 193.576 126.145 192.918C123.965 187.802 114.694 197.908 111.92 196.099C111.319 195.707 110.797 195.048 111.709 194.509C114.334 192.958 118.376 192.125 120.334 189.443C116.074 189.317 112.367 191.992 108.062 191.327L113.872 188.179C105.854 185.814 99.1466 180.507 93.852 174.258C95.8329 181.539 100.868 187.747 103.668 194.683C103.916 195.295 104.707 196.62 103.863 197.022C95.7356 188.236 92.7377 175.546 88.0234 164.772C84.3644 167.691 81.9124 171.403 76.7382 171.781C73.077 172.049 72.3196 170.727 68.6537 173.637C68.4459 174.544 68.7446 174.66 69.321 175.181C70.6634 176.395 75.1099 177.989 77.2615 179.424C89.6749 187.707 113.967 208.599 122.807 220.219C124.589 222.561 135.318 238.974 128.982 240C125.916 238.788 125.543 234.315 124.118 231.585C117.381 218.686 103.078 206.087 91.5574 197.052C78.8668 187.1 65.8818 179.111 50.7323 173.098C47.9245 172.665 41.1957 179.726 42.907 182.387C43.4125 183.173 57.6463 188.179 60.387 189.619C65.4073 192.256 70.8442 196.17 75.1193 199.863C77.168 201.632 88.8545 212.396 86.7356 214.731C82.7024 213.218 79.8553 209.431 76.3463 206.883C66.4458 199.695 50.5209 192.601 38.0431 193.943C26.6259 195.17 21.372 202.634 12.7921 207.802C10.249 209.334 9.07407 207.54 10.8534 205.271C11.5246 204.416 14.2665 202.356 15.3675 201.47C18.0453 199.314 30.4209 192.549 30.9884 191.783C31.642 190.9 32.4679 187.127 33.3028 185.508C35.8772 180.514 43.0179 168.005 49.008 167.315C51.4611 167.032 53.3954 168.537 55.7349 168.243C49.5653 160.735 41.6456 154.951 36.46 146.635C29.9086 136.129 29.7599 123.326 32.4652 111.639L31.1702 111.954L35.6943 100.897L32.8357 104.097C27.6493 111.011 28.0183 119.297 27.2992 127.457C24.0385 128.074 23.3517 122.531 23.4084 120.217C23.6525 110.253 28.4377 103.554 35.2638 96.9873C35.8481 96.4251 36.6688 96.431 36.3404 95.2015C32.2061 95.9176 28.656 96.4893 24.7287 98.0579C20.9593 99.5634 16.126 103.758 13.2943 104.575C10.2564 105.452 12.6245 102.474 13.4009 101.515C18.7492 94.906 31.1858 90.8357 39.5737 91.4032C39.8898 89.6382 39.1858 90.3443 38.1575 89.9805C36.8122 89.5045 34.8572 89.0128 33.437 88.8864C31.148 88.6825 26.9916 90.17 26.6585 87.9367C27.3616 84.608 40.0456 85.5529 42.8029 86.3447C42.474 83.1267 42.992 80.5495 43.7829 77.499C44.1942 75.9124 47.8775 67.4092 48.7052 66.8262C49.409 66.3304 50.5844 66.345 50.5866 67.697C50.5909 70.2697 48.4154 74.0417 48.0552 77.2533C47.9597 78.1042 47.3938 81.1954 48.6134 81.2824C48.8214 80.4469 49.3266 79.2135 49.8976 78.6008C59.3153 68.4948 68.8947 60.9873 81.7815 55.2471C89.4068 51.8504 105.549 45.7117 113.56 45.2354C114.656 45.1702 115.136 45.8704 114.517 46.4929C114.203 46.8091 107.738 49.3699 106.333 50.1889C100.181 53.7758 100.243 55.2776 96.1341 59.8107C93.9421 62.2291 90.8259 63.7988 89.3276 67.0613C89.1905 67.49 89.9404 67.5189 90.2838 67.3683C91.357 66.8974 97.146 60.8782 99.4565 59.2684C103.875 56.1899 110.238 52.9764 115.152 50.6C121.236 47.6578 128.234 43.4002 135.19 44.2859C127.828 48.8405 119.427 51.6224 111.992 56.3615C106.763 59.6949 100.152 64.1325 97.7284 69.903C104.287 63.7727 111.682 58.6308 119.674 54.3947C128.831 49.5412 140.801 43.8227 151.343 45.8778C152.649 47.6153 139.24 49.175 137.93 50.1304L128.736 54.0856C135.666 54.1937 142.096 51.9403 149.113 52.1708C158 52.4627 178.872 56.7421 175.257 69.4584C175.198 69.6686 172.358 72.3922 172.03 70.2184C171.363 65.7875 171.638 63.7548 167.455 60.7731C164.509 58.6731 155.154 55.9894 151.668 55.9894H140.685C140.378 55.9894 138.698 56.7667 139.07 57.2543H149.73C150.644 57.2543 155.274 58.4698 156.482 58.8656C162.061 60.6931 173.846 69.5562 164.269 73.6949C164.869 69.8044 162.569 68.2692 159.098 67.3797C160.682 69.2099 164.073 73.5357 161.417 75.654C158.646 77.864 156.199 72.4969 153.075 71.0554C149.55 69.4292 144.72 68.993 141.012 67.3759C140.647 69.1592 141.528 68.3897 142.395 68.8389C147.967 71.7263 151.673 75.2076 150.049 81.9161C153.547 80.2227 159.944 88.5408 155.655 88.1559C153.629 87.9741 148.34 83.6588 145.573 86.0383C140.936 90.0258 143.265 106.54 149.393 108.232C149.902 108.372 159.297 106.53 159.764 106.289C160.795 105.754 160.09 105.461 159.856 104.907C158.259 101.128 153.465 97.462 154.895 92.6746C157.883 95.2105 159.296 101.063 162.04 103.447C163.112 104.378 165.774 102.712 164.8 106.151C164.414 107.513 162.095 107.975 162.328 109.748H172.341C173.327 109.748 178.49 112.593 179.476 113.515C186.089 119.695 183.202 131.506 175.909 135.994C176.33 136.299 177.257 137.544 177.51 137.547C178.058 137.553 184.831 131.299 185.582 130.299C190.912 123.2 184.082 117.865 181.143 111.883C172.71 94.717 182.383 80.2155 200.846 77.5694C208.294 76.5019 215.621 76.1752 222.401 79.7154C224.255 80.6831 227.376 81.8639 225.967 84.4464C221.025 80.5269 214.545 78.4566 208.201 79.7031C209.924 81.6127 223.755 83.6877 224.333 84.4765C221.984 91.8641 220.642 96.6116 224.025 104.056C226.66 109.855 233.612 114.228 238.556 117.966C237.981 114.762 234.946 112.364 233.474 109.353C230.066 102.383 228.847 92.5593 235.325 86.9795C231.46 95.935 233.707 103.896 238.69 111.836C241.149 115.753 245.227 120.558 249.545 122.39C242.386 115.467 236.023 103.725 237.256 93.6065C237.417 92.2901 237.741 90.6539 239.202 90.1417C237.801 107.376 249.794 122.138 264.401 130.305L258.59 130.625C261.703 141.087 271.274 148.048 277.596 156.6C285.605 167.432 288.06 178.318 287.008 191.642C286.664 196.002 285.365 204.997 280.559 206.509C284.976 194.385 286.037 181.372 281.695 169.031C277.844 158.087 268.279 148.909 261.554 139.417C258.078 134.511 256.762 128.609 249.551 126.824L267.614 151.193C275.891 162.867 283.278 176.234 278.425 190.835C278.203 191.505 278.266 192.742 277.326 192.598C276.957 188.046 277.827 182.831 277.326 178.368ZM91.2612 55.3631C88.8401 56.0525 86.1197 57.3837 83.9595 58.6441C79.3543 61.3311 72.6859 66.7224 68.9465 70.5102C67.9926 71.4765 66.3622 73.5963 66.0717 74.9626C71.2116 70.9161 75.8991 65.4938 81.2467 61.6805C84.3733 59.451 88.4983 58.0887 91.2612 55.3631ZM132.606 59.7772C134.839 56.8941 126.062 59.0811 125.506 59.1581C125.732 60.0581 129.016 60.4253 129.713 60.4254C130.229 60.4254 132.517 59.893 132.606 59.7772ZM84.8007 64.8499L80.5925 67.997L75.7625 74.3302C76.9032 73.8031 85.2715 65.312 84.8007 64.8499ZM142.718 75.1864C139.739 72.4296 131.57 68.6737 127.812 71.1406C126.077 72.2799 128.934 72.4114 129.955 73.4427C131.159 74.6591 131.524 76.4843 131.313 78.1229C120.894 74.5321 111.745 71.7782 100.954 76.2354C102.723 78.7372 107.299 76.9968 109.997 77.499C111.17 78.3363 104.542 79.3082 103.851 79.382C99.568 79.8399 90.0644 79.281 86.7466 81.6109C85.9854 82.1455 84.2368 84.5871 83.6235 85.5105C80.8479 89.6898 78.2685 95.2069 75.7565 99.6221L83.1526 91.3742C83.6015 90.8594 85.0302 90.4985 85.4417 90.7761C86.6007 91.5578 83.2048 101.048 82.9285 103.176C82.8407 103.853 82.3758 105.476 83.5007 105.316C85.5663 100.985 88.3331 94.1196 91.3594 90.4971C92.2022 89.4883 92.777 89.9431 93.8391 89.5096C93.0408 102.07 85.9415 115.164 91.438 127.6C92.3799 129.731 98.0102 136.158 97.7211 137.248C97.3291 138.727 90.7281 137.279 89.3264 137.579L92.5608 142.312C89.7242 144.957 83.8382 139.948 81.5642 137.898C77.0194 133.801 77.2584 129.26 69.6119 129.985C53.8084 131.484 54.3016 147.957 62.5046 157.821C67.5093 163.839 74.7627 169.784 82.2296 163.835C83.4744 162.843 87.035 157.418 88.6173 158.486C88.9844 158.733 90.5352 162.967 91.1411 163.94C103.401 183.616 130.249 192.319 152.883 188.729C178.834 184.613 170.906 162.794 174.087 144.344C174.222 143.565 175.403 142.222 175.248 142.016C174.725 141.321 170.917 140.436 172.015 136.939C167.12 138.789 148.428 142.653 145.497 137.764C144.344 135.841 144.527 129.391 146.731 132.289C147.889 133.811 147.262 134.764 149.891 135.52C159.458 138.269 180.911 132.856 178.327 120.327C177.268 115.19 169.014 114.192 164.506 113.624C157.303 112.716 148.094 114.613 143.312 107.809C140.384 103.644 137.633 89.8531 137.987 84.8494C138.323 80.1072 141.643 79.974 145.527 79.3837C145.896 78.8875 143.215 75.6469 142.718 75.1864ZM89.2335 74.2494C89.9613 73.0208 88.0223 69.708 85.735 72.3991C84.3792 73.9943 85.1896 76.243 86.4164 76.2176C86.5894 76.2141 89.1467 74.396 89.2335 74.2494ZM100.306 73.6916C98.0282 70.282 94.0461 74.7192 92.5537 76.8538C97.6754 77.7261 95.588 74.5398 95.7755 74.3395C95.9302 74.1743 99.5587 73.7265 100.306 73.6916ZM82.2133 81.2906L77.4146 85.7565L67.007 101.499L56.3747 128.082C57.5599 128.294 58.3536 127.295 58.8729 126.423C60.9016 123.019 61.9757 116.468 64.0139 112.483C67 106.644 71.7843 99.0161 75.2359 93.1108C77.488 89.258 81.4042 85.6486 82.2133 81.2906ZM206.258 81.9228C198.059 80.1665 189.417 83.3715 184.309 89.8406C182.578 92.0332 179.35 98.688 181.719 100.891C182.839 101.932 183.061 100.052 183.313 99.6425C189.332 89.8948 193.02 85.9868 204.69 83.2023C205.786 82.9409 206.568 83.824 206.258 81.9228ZM61.5431 99.622C62.7793 99.8655 63.2905 99.3647 64.1646 98.7162C65.2435 97.9156 72.5365 86.3826 72.905 85.1242C73.7746 82.1542 70.9537 83.7412 69.5924 85.0568C65.8307 88.6924 63.7577 94.9823 61.5431 99.622ZM202.383 86.3531C188.691 89.2381 179.7 107.026 188.496 118.599C190.852 115.454 186.366 110.831 186.284 109.485C185.778 101.209 196.238 91.0279 202.383 86.3531ZM227.256 146.43C229.082 146.942 236.3 146.43 238.885 146.43C239.007 146.43 240.039 147.453 239.853 147.687C235.778 149.295 226.454 149.806 223.331 146.477C222.913 146.032 220.694 142.07 220.579 141.54C219.831 138.065 223.424 134.865 223.053 133.49C222.62 131.885 218.774 133.489 219.847 130.954C220.6 129.174 224.103 129.57 225.656 129.051C226.962 128.616 228.857 127.057 229.946 126.965C230.926 126.883 235.304 129.253 236.3 129.987C239.226 132.146 241.364 136.816 244.562 138.343C245.889 138.976 252.683 140.485 252.76 138.528C252.796 137.613 247.476 128.594 246.269 127.818C240.981 126.674 232.413 119.283 227.317 119.881C226.067 120.027 222.811 122.639 222.411 120.804C221.834 118.155 227.235 116.585 226.911 115.166C219.585 108.764 215.875 99.6868 218.874 90.1577C219.237 89.0035 221.766 86.2069 219.499 86.331C212.929 86.6908 199.12 97.764 197.224 103.751C196.643 105.584 199.938 103.95 201.25 104.157C205.971 104.901 210.074 111.559 209.486 116.069C208.766 116.889 203.188 109.827 202.064 109.111C194.325 104.179 192.055 111.769 192.052 117.969C199.195 114.414 204.046 123.536 206.502 128.8C208.211 132.461 209.77 135.132 207.466 139.073C203.871 145.221 187.08 143.897 198.501 153.711C198.78 155.029 197.837 154.756 196.884 154.666C190.813 154.095 187.163 146.21 193.11 142.727C196.182 140.928 206.868 139.116 205.514 133.592C205.3 132.718 199.859 127.745 199.476 125.571C197.477 129.087 197.441 134.483 192.049 133.461C193.48 136.817 200.151 134.711 200.44 135.048C201.799 136.631 198.981 137.501 197.531 137.59C193.641 137.827 190.373 135.906 187.847 133.159C176.634 143.668 177.794 157.996 182.506 171.264C185.305 179.142 189.508 191.514 198.984 193.08C212.191 195.264 238.576 188.926 248.851 180.219C250.196 179.079 253.91 173.85 254.45 173.68C257.171 172.825 256.394 176.306 256.785 177.605C257.249 179.148 261.358 180.701 262.716 180.444C265.268 179.962 265.236 174.643 265.089 172.719C258.572 171.324 255.945 164.141 255.95 158.132C255.955 153.361 259.782 146.502 254.773 142.263C252.561 140.39 249.213 142.716 246.315 142.009C247.123 145.299 253.14 144.244 253.425 144.535C255.465 146.622 248.308 147.826 246.801 147.586C245.659 147.404 239.085 143.445 237.721 142.51C235.661 141.098 234.41 139.495 232.433 138.209C231.262 139.306 230.964 140.817 229.865 142.026C228.983 142.996 224.263 145.59 227.256 146.43ZM47.3219 121.13L62.8287 87.6121C57.4493 91.4076 54.3847 96.5464 51.7399 102.365C50.4091 105.292 45.9743 116.39 45.9989 118.935C46.0082 119.893 46.2136 120.898 47.3219 121.13ZM38.9188 109.11C41.779 103.492 46.5185 98.2882 47.9693 92.0391C43.6856 97.0897 39.0443 102.581 37.6394 109.109L38.9188 109.11ZM81.5672 123.658C80.5356 118.189 82.0562 112.548 83.5025 107.218C80.4577 110.758 79.9691 117.639 80.2794 122.092C80.3673 123.352 79.761 123.918 81.5672 123.658ZM237.91 135.678C239.015 134.584 232.555 129.787 230.813 130.622C230.427 132.339 231.343 131.7 232.095 132.184C233.986 133.402 235.92 134.626 237.91 135.678ZM229.514 135.681C227.401 135.032 225.26 140.961 225.644 141.367C227.804 141.73 230.453 136.718 229.514 135.681ZM264.398 169.198C263.84 167.517 264.183 157.892 261.507 158.45C259.192 161.409 261.156 167.521 264.398 169.198ZM55.0776 190.077C50.2983 187.9 44.7329 186.993 40.5448 183.756C39.4247 184.711 38.7932 186.094 38.9303 187.536C43.835 187.214 48.4939 189.548 53.1117 190.422C53.7764 190.547 55.2308 191.25 55.0776 190.077ZM201.084 207.142C201.225 204.131 201.521 198.306 197.218 198.297C196.961 199.338 198.22 198.546 198.496 199.363C198.772 200.181 198.547 201.427 198.954 202.594C199.411 203.905 199.878 206.448 201.084 207.142ZM210.143 201.461L205.617 200.191L208.852 210.302L210.143 201.461ZM215.298 222.323L212.727 212.207C212.727 215.319 213.005 219.988 215.298 222.323Z" fill="black"/>
<path d="M319.312 159.715L317.827 166.794L316.742 168.562C316.636 153.082 318.083 137.424 313.498 122.401C312.416 122.235 312.829 123.901 312.838 124.623C312.888 128.54 313.296 131.89 312.852 135.987C312.728 137.127 310.432 150.122 308.99 148.959C307.958 145.324 309.913 141.509 310.267 137.884C311.09 129.458 311.452 121.178 309.3 112.915C303.115 89.1619 278.552 71.4729 254.071 69.5842C257.893 71.1184 261.958 71.8297 265.857 73.2253C272.946 75.7625 279.226 79.3705 284.114 85.0772C284.544 85.5786 285.809 86.3447 284.759 86.9764C272.829 76.3549 256.91 69.5451 240.503 72.4364C239.701 74.718 244.255 73.3813 242.754 75.6041C230.312 70.4666 219.08 67.7939 205.481 70.0897C193.951 72.0362 179.671 80.4887 174.778 91.2615C173.555 93.9541 173.312 97.1539 171.686 99.6226C170.119 99.9235 170.772 98.3956 170.728 97.4213C170.173 85.1988 185.482 74.2743 195.934 70.2305C207.828 65.6286 219.27 65.0383 231.594 68.1874C232.965 68.5375 236.664 70.328 236.953 70.326C237.431 70.3227 242.841 66.6734 245.502 66.2616C276.594 61.451 306.634 85.8133 315.756 113.552C321.57 131.231 318.17 148.578 323.522 164.767C327.795 177.69 346.096 190.83 336.008 205.458C334.992 206.931 331.392 210.286 330.339 206.74C330.066 205.818 332.4 202.621 332.918 201.168C338.262 186.17 319.208 174.749 319.312 159.715Z" fill="black"/>
<path d="M215.817 19.4928C243.502 16.7324 301.046 28.2018 323.771 44.3579C335.478 52.6807 336.154 60.4362 320.223 62.8823C296.016 66.5994 238.828 52.1171 217.455 39.6541C207.205 33.6772 195.544 21.5141 215.817 19.4928ZM328.879 55.8662C330.379 53.3616 326.524 49.9236 324.792 48.4188C305.839 31.9596 238.107 17.5109 213.755 22.5335C202.318 24.8921 210.982 32.1404 216.585 35.446C237.088 47.542 294.051 61.1164 317.621 59.07C319.75 58.8851 327.928 57.4535 328.879 55.8662Z" fill="black"/>
<path d="M160.215 45.0542C159.685 45.6605 158.577 45.815 157.791 45.6042C156.997 45.3911 149.815 40.9037 148.56 40.0573C142.057 35.669 129.668 26.1999 133.648 17.4752C137.555 8.91067 150.526 12.1789 154.249 19.3045C158.426 12.604 165.014 7.64368 173.485 9.33257C176.983 10.03 179.868 13.511 179.791 17.0644C179.615 25.156 166.354 36.9529 161.016 43.0337C160.518 43.6008 160.568 44.6496 160.215 45.0542ZM153.362 24.9147C153.114 24.7502 152.109 21.2248 150.628 19.6921C147.171 16.1122 138.31 13.615 136.765 19.9386C135.008 27.1261 151.285 38.2701 157.168 41.1528C161.844 34.95 168.708 30.008 172.682 23.4356C175.009 19.5877 178.045 12.9265 171.049 12.3207C165.128 11.8081 160.66 16.3397 157.682 20.7664C156.727 22.1874 155.946 26.627 153.362 24.9147Z" fill="black"/>
<path d="M291.542 212.834C290.285 211.648 296.353 206.733 297.247 205.459C307.866 190.31 301.731 163.028 294.881 147.269C292.564 141.938 288.791 137.052 287.669 131.251C289.861 134.166 291.843 137.737 293.588 140.945C301.917 156.258 309.434 175.133 306.237 192.757C304.841 200.454 300.513 211.828 291.542 212.834Z" fill="black"/>
<path d="M178.948 37.7951C185.599 36.4556 186.014 41.257 188.525 41.4756C190.816 41.675 195.262 36.5451 199.181 40.4673C202.476 43.7648 198.861 49.034 196.554 51.8644C195.142 53.597 185.261 63.313 183.872 63.4442C181.046 63.7111 174.808 53.2823 173.922 50.646C172.245 45.6492 172.508 39.092 178.948 37.7951ZM186.353 45.74C184.851 44.8788 183.619 37.3664 178.441 42.3552C173.885 46.7459 179.802 55.5952 183.38 59.1281C188.604 54.7749 193.989 50.2706 197.122 44.1536L196.598 42.3638C193.246 40.1819 189.6 47.6013 186.353 45.74Z" fill="black"/>
<path d="M297.353 164.764L293.209 160.291C287.866 153.179 283.891 145.299 279.584 137.578C279.947 142.243 280.978 147.05 282.038 151.619C282.112 151.938 284.664 160.429 282.813 157.186C279.229 150.909 278.597 140.188 276.495 133.012C273.078 121.341 266.169 106.953 258.857 97.1532C256.411 93.875 252.788 90.697 250.485 87.6406C248.579 85.1109 249.183 84.2289 251.808 86.3459C268.181 99.5489 276.335 128.126 286.255 146.226C289.715 152.539 294.371 158.186 297.353 164.764Z" fill="black"/>
<path d="M310.912 203.344C309.79 203.506 310.25 201.878 310.34 201.205C311.996 188.817 313.666 182.737 311.376 169.7C309.46 158.791 303.646 148.89 299.298 138.84C300.692 139.856 301.77 141.975 302.633 143.474C312.707 160.978 319.604 184.057 310.912 203.344Z" fill="black"/>
<path d="M229.515 77.4889C229.003 77.9341 218.288 74.5851 216.199 74.3907C214.895 74.2693 209.478 75.3819 209.503 74.0138C209.521 72.9926 216.844 72.386 218.126 72.4827C219.838 72.612 226.559 74.6302 228.034 75.4658C228.609 75.7912 230.276 76.8261 229.515 77.4889Z" fill="black"/>
<path d="M128.084 138.211C129.01 139.001 124.756 142.732 124.506 143.256C123.732 144.878 128.324 147.754 129.583 148.443C138.339 153.235 149.523 153.576 159.091 151.166C162.185 150.387 164.959 148.316 167.187 147.704C169.519 147.064 167.178 150.84 166.527 151.489C158.41 159.572 132.408 156.149 123.616 149.228C122.595 148.425 121.493 146.125 120.666 146.435C119.509 147.484 115.511 154.844 113.231 152.751C111.014 150.716 122.789 135.43 128.084 138.211Z" fill="black"/>
<path d="M140.35 114.814C142.694 116.522 136.701 122.24 135.152 123.305C131.877 125.558 115.201 130.179 113.914 125.791C112.387 120.587 129.164 120.459 130.402 118.634C130.388 116.441 125.783 105.042 126.798 104.059C129.06 101.87 130.777 110.651 131.397 111.884C132.228 113.538 134.038 116.218 136.108 116.088C137.19 116.02 139.51 114.201 140.35 114.814Z" fill="black"/>
<path d="M130.668 93.9326C123.924 92.1562 120.979 94.214 116.834 99.048C115.13 101.036 111.252 108.517 110.37 109.16C108.022 110.873 106.132 108.991 106.26 106.441C106.512 101.414 113.515 91.3377 118.051 88.8545C123.653 85.7882 129.818 87.0835 130.668 93.9326Z" fill="black"/>
<path d="M78.9831 147.059C77.1307 147.501 76.4553 145.857 75.1179 145.166C74.0384 148.207 73.7521 150.339 75.7374 153.115C76.1601 153.706 79.24 154.454 77.2878 155.958C72.8843 159.351 64.5299 144.889 72.523 142.322C70.8921 140.837 68.2841 140.305 66.2207 141.158C64.4196 141.902 62.0688 151.413 61.5129 144.244C60.5601 131.956 79.7281 137.224 78.9831 147.059Z" fill="black"/>
<path d="M219.185 167.296C219.268 167.169 217.809 165.285 219.151 164.43C222.008 162.613 227.924 167.039 227.614 170.15C227.357 172.715 225.618 170.855 223.984 170.493C221.353 169.911 217.373 170.215 215.117 171.698C214.423 172.154 214.241 173.295 213.346 173.906C208.007 177.55 201.736 180.603 195.136 178.506C187.63 176.121 189.179 169.836 188.022 163.966C187.676 162.211 184.38 158.07 187.524 157.49C190.752 161.968 195.997 160.8 200.575 162.43C203.856 163.597 207.191 166.936 210.745 167.653C212.213 167.95 218.586 168.216 219.185 167.296ZM206.905 169.192C203.534 165.034 197.657 164.533 192.699 163.506C192.393 164.872 193.383 164.943 194.193 165.515C197.981 168.193 202.15 169.791 206.905 169.192ZM212.72 171.728H200.122C199.134 171.728 194.227 169.321 193.011 168.57C191.164 179.832 207.332 176.438 212.72 171.728Z" fill="black"/>
<path d="M227.425 26.4296C237.025 25.0654 255.733 28.4006 265.579 30.4906C275.619 32.6218 309.831 42.0151 315.783 49.0159C317.607 51.1618 318.585 53.8289 314.977 54.5841C304.093 56.8623 285.232 52.956 274.089 50.6202C263.175 48.3326 230.521 40.4727 223.379 33.2219C219.41 29.192 223.226 27.0264 227.425 26.4296ZM314.149 50.9378C298.883 42.6342 281.035 36.9212 263.904 33.3955C254.042 31.3659 236.924 28.352 227.225 29.3954C223.493 29.7968 225.701 31.3865 227.776 32.7127C240.947 41.1319 288.479 51.0994 304.792 52.1867C305.653 52.2441 315.336 52.6058 314.149 50.9378Z" fill="black"/>
</svg>
