<svg width="450" height="192" viewBox="0 0 450 192" fill="none" xmlns="http://www.w3.org/2000/svg">
<path d="M320.778 121.488C324.982 121.005 328.11 119.85 332.506 120.011C332.864 120.024 333.61 119.79 333.539 120.302L319.61 122.98L319.758 124.146C323.958 123.685 328.059 122.338 332.244 121.819C333.491 121.665 335.423 121.384 336.586 121.562C336.847 121.602 337.479 121.69 337.398 122.074C331.104 123.015 324.852 124.322 318.699 125.915C318.831 126.181 318.997 126.479 318.862 126.785C318.76 127.015 315.85 130.132 315.441 130.489C312.06 133.434 306.632 134.478 302.22 134.184C300.143 134.045 298.98 133.274 297.216 132.698C293.476 134.233 289.833 135.921 285.986 137.202C281.196 138.796 274.913 140.929 270.092 142.055C269.392 142.218 264.976 143.436 265.282 141.996C265.744 141.396 266.396 141.111 267.066 140.817C272.313 138.517 279.683 136.747 285.319 134.769C287.405 134.037 289.452 133.108 291.536 132.394C292.391 132.1 294.16 131.952 294.667 131.67C295.156 131.399 294.262 130.168 293.942 130.327L267.281 139.26C265.309 139.732 261.677 143.267 259.836 142.688C259.015 142.43 259.691 141.583 259.643 141.551C258.677 140.926 256.17 144.063 255.287 144.745C247.404 150.829 232.648 150.224 223.437 147.594C220.95 146.884 220.996 146.291 219.702 144.211C216.605 145.396 213.192 147.198 209.782 146.714L213.784 144.201L199.447 147.088C199.137 147.16 197.679 146.921 197.612 146.857C197.086 146.358 197.807 146.358 198.034 146.243C200.638 144.925 203.769 144.458 206.503 143.455C207.082 143.242 208.031 143.033 208.297 142.437C206.932 142.78 205.508 142.879 204.132 143.162C200.151 143.98 192.633 146.81 189.152 146.859C188.6 146.867 188.079 146.538 187.522 146.562C187.396 146.439 188.211 145.698 188.439 145.559C190.08 144.557 193.735 143.609 195.756 142.797C196.368 142.551 196.504 142.382 195.719 142.465C189.725 143.369 183.982 145.682 178.035 146.723C176.597 146.975 174.755 147.672 173.579 146.418C173.58 145.403 183.959 142.674 185.518 142.063C185.833 141.939 186.403 141.977 186.333 141.552C183.685 142.22 180.932 142.274 178.261 142.818C175.627 143.354 169.453 145.726 167.21 145.38C166.861 145.326 166.501 145.191 166.45 144.799L175.945 141.258C167.433 141.19 158.759 145.084 150.279 144.496C148.234 144.355 140.835 143.181 139.576 141.859C138.882 141.129 138.494 139.815 137.783 138.92C135.551 136.108 131.216 134.892 128.764 131.954C124.913 127.34 124.062 117.869 126.325 112.429C126.86 111.143 128.281 110.465 128.413 110.079C128.641 109.413 128.365 108.312 128.492 107.503C130.282 96.1491 148.727 90.9727 158.21 88.0682C159.82 87.5748 162.778 87.2265 164.071 86.519C164.338 86.3732 164.483 86.2952 164.213 86.0865C158.617 81.7677 168.211 80.1756 171.385 79.9234C172.708 79.8183 175.297 80.3433 176.031 80.1257C176.392 80.0186 179.013 77.457 179.664 76.9416C198.03 62.406 214.94 60.8845 237.824 60.1137C261.352 59.3212 284.227 61.7529 302.383 77.9629C304.399 79.763 308.195 84.3852 310.28 85.4548C311.688 86.1774 315.057 86.4914 316.999 87.3313C321.552 89.3006 323.143 93.6321 324.196 98.1747C325.21 102.552 326.257 112.728 323.579 116.451C322.273 118.267 319.976 118.227 320.778 121.488ZM320.186 115.585C321.202 115.902 322.004 114.079 322.197 113.307C323.477 108.191 321.92 95.0849 318.48 90.8746C316.313 88.2213 312.44 88.2703 309.562 87.3491C306.44 86.3499 301.071 79.57 298.228 77.0777C280.514 61.5501 255.193 60.9654 232.779 61.884C208.179 62.8921 190.521 66.4065 173.718 85.4874C173.372 85.8802 172.235 87.7244 172.093 87.5528C172.195 86.7688 171.727 86.9174 171.095 86.9923C168.009 87.3575 163.592 88.6247 160.515 89.4749C152.297 91.7455 144.192 94.8055 137.076 99.5026C140.981 103.907 143.307 108.302 142.708 114.407C140.898 114.313 139.025 114.534 137.22 114.402C135.803 114.298 129.468 112.803 128.958 112.967C127.609 113.402 127.763 119.189 127.854 120.467C128.716 132.558 136.739 133.327 146.75 134.727C163.761 137.106 181.308 137.496 198.342 137.726C207.642 137.851 216.653 138.238 225.874 136.748C228.62 136.304 233.517 135.92 233.523 132.405C233.212 132.113 226.213 133.456 225.063 133.581C220.944 134.029 215.455 134.687 211.414 134.763C211.122 134.768 209.803 134.633 209.782 134.176C218.158 133.52 226.477 132.167 234.645 130.272L235.896 119.127L229.438 120.967C229.038 123.984 228.265 126.872 227.288 129.746C226.76 129.797 226.974 128.751 226.999 128.425C227.157 126.373 228.109 123.752 228.18 121.924C228.199 121.435 228.403 121.137 227.76 121.209C224.702 121.55 221.786 122.825 218.686 122.965C219.161 123.609 220.111 123.65 220.775 124.277C223.009 126.387 220.611 129.979 218.39 131.078C214.677 132.916 201.625 133.621 197.219 133.47C192.212 133.299 195.906 128.479 197.302 126.04L196.425 124.438C209.928 122.763 223.425 120.804 236.592 117.38C238.68 109.941 245.001 99.8892 254.166 102.883C255.126 103.197 257.155 104.65 257.711 104.65C258.795 104.65 262.558 102.289 263.972 102.023C263.935 99.9127 262.859 98.1444 261.422 96.7055C262.16 96.6316 262.701 96.9606 263.203 97.44C264.035 98.2342 265.03 101.416 265.665 101.381C271.989 98.914 278.414 96.6774 285.092 95.3023C286.1 94.8999 285.711 93.7612 285.762 92.8683C286.483 93.1713 285.994 94.9282 287.028 94.882C293.109 93.1462 299.262 91.309 305.642 91.0996L288.133 95.8203C287.565 96.3664 287.942 96.228 288.45 96.2932C289.261 96.3971 290.005 96.5408 290.803 96.7044L289.916 97.5916L290.801 98.3212C289.987 99.1823 289.07 99.5944 289.313 100.973C289.658 102.934 291.222 100.006 292.286 100.244C292.325 100.656 292.287 101.043 292.155 101.438C292.04 101.779 290.964 102.731 291.848 102.897C293.202 103.152 294.029 98.2597 294.959 99.0657C294.25 99.8553 295.004 100.986 294.893 101.538C294.856 101.724 293.657 103.392 293.577 103.577C292.44 106.209 295.891 102.932 296.145 103.195L295.259 106.144C298.531 104.047 297.142 98.5597 300.595 96.4075C299.221 102.333 297.632 108.255 297.629 114.407L299.579 114.13C299.989 109.116 303.143 97.4784 309.137 96.7601C311.73 96.4494 315.244 99.2006 316.781 101.12C317.853 102.459 320.186 106.75 320.186 108.357V115.585ZM174.463 81.6581C173.342 81.682 172.21 81.5893 171.088 81.6932C170.329 81.7634 164.89 82.8947 164.671 83.1388C164.609 83.2079 164.688 84.9032 164.72 84.9901C165.347 86.6829 170.134 85.1071 171.594 85.5033C172.304 83.9833 173.383 82.9008 174.463 81.6581ZM283.976 97.2954C282.869 97.6148 280.576 97.8946 279.709 98.5054C279.077 98.9503 279.181 99.5642 278.721 99.9636C276.354 102.019 270.978 103.179 268.404 105.562C267.004 106.858 267.864 107.36 269.229 106.381L283.976 97.2954ZM286.053 99.0647C283.009 100.623 279.779 101.813 276.88 103.661C276.413 103.959 272.289 106.622 272.998 107.323L286.066 100.388C286.583 100.021 286.083 99.5499 286.053 99.0647ZM318.699 113.814C319.328 108.282 316.012 97.2863 308.54 100.615C303.407 102.901 302.395 113.54 302.679 118.385C302.868 121.614 304.382 130.583 309.029 130.036C309.848 129.939 312.794 128.521 313.507 127.976C318.084 124.48 317.349 114.218 316.009 109.264C315.247 106.446 313.426 101.424 309.643 103.482C305.448 105.764 304.758 117.029 305.478 121.208C305.931 123.833 307.13 127.865 310.094 128.419C306.321 131.129 304.129 124.352 303.642 121.558C302.651 115.882 303.453 99.0253 312.551 100.902C315.422 101.494 317.421 106.85 317.963 109.386L318.699 113.814ZM140.627 113.519C140.542 109.482 140.322 106.982 137.908 103.686C135.612 100.551 135.088 100.251 132.79 103.809C131.743 105.43 130.227 108.528 131.196 110.36C132.205 112.269 138.529 113.183 140.627 113.519ZM286.944 102.31C286.684 102.05 285.986 102.585 285.72 102.712C282.852 104.082 278.62 106.56 275.868 108.261C273.61 109.657 271.14 111.516 269.139 113.222C271.937 111.992 274.259 109.845 276.953 108.455C279.682 107.047 282.286 106.378 284.959 104.611C285.386 104.329 287.616 102.981 286.944 102.31ZM264.388 103.785C264.218 103.603 260.293 105.223 259.696 105.474C259.456 105.574 258.816 105.415 259.05 105.992C259.225 106.423 260.009 107.062 260.537 106.917C261.078 106.769 265.116 104.563 264.388 103.785ZM279.526 111.747L287.219 106.858C287.969 106.582 288.082 105.34 287.088 105.838C284.53 107.118 281.686 109.838 279.526 111.747ZM260.825 134.466C263.61 127.556 261.512 111.107 254.4 107.371C249.672 104.887 244.28 107.692 242.43 112.34C249.457 102.932 257.184 108.018 259.914 117.527C261.528 123.147 261.759 127.855 260.661 133.567C260.603 133.871 260.274 134.536 260.825 134.466ZM263.5 107.032C262.886 107.041 260.412 107.27 260.831 108.354C261.27 109.487 263.266 107.575 263.5 107.032ZM264.981 107.325C264.642 107.023 261.846 109.876 261.819 110.12C261.773 110.534 262.526 111.81 262.694 112.403C263.216 114.237 263.647 116.094 264.097 117.944C264.727 117.646 264.853 116.61 265.425 116.147C265.811 115.836 266.355 116.647 266.476 114.851C266.556 113.671 265.377 115.126 264.986 115.29L265.872 112.931L263.799 114.405C263.406 113.929 265.219 112.23 265.575 111.893L264.39 111.747C265.793 110.485 265.272 108.965 264.981 107.325ZM249.172 109.752C242.58 111.109 241.102 123.654 241.87 128.974C242.586 133.932 246.729 147.209 253.708 141.11C260.433 135.233 260.541 121.068 256.204 113.839C254.679 111.297 252.406 109.086 249.172 109.752ZM264.687 124.289C264.392 125.205 264.902 127.463 264.687 128.568C275.351 125.925 286.185 123.685 296.671 120.385C297.264 120.198 299.206 119.68 299.532 119.454C299.815 119.258 300 115.871 299.219 115.615C293.462 116.651 287.794 118.626 282.088 120.05C276.923 121.338 270.565 122.121 265.63 123.751C265.35 123.844 264.771 124.028 264.687 124.289ZM265.789 118.889C265.754 118.826 264.903 118.117 264.69 117.948L264.391 121.19C264.879 121.204 265.605 121.126 265.896 120.689C265.997 120.538 265.834 118.967 265.789 118.889ZM241.238 134.763C239.625 130.537 239.937 126.307 239.756 121.926C239.742 121.567 239.981 120.829 239.463 120.898C239.175 125.04 238.88 129.908 240.565 133.812C240.722 134.175 240.724 134.683 241.238 134.763ZM299.414 127.387C299.759 127.19 301.159 126.65 301.167 126.355C301.17 126.251 300.381 125.233 300.892 124.437L299.414 127.387ZM217.793 125.619C217.401 125.253 210.293 128.685 209.449 129.279C209.098 129.526 208.721 129.287 208.892 130.041C210.583 129.413 215.725 129.35 216.918 128.419C217.36 128.073 216.904 127.587 217.056 127.109C217.201 126.652 217.944 126.271 217.793 125.619ZM292.882 127.095L290.787 127.223L288.134 128.565C289.625 128.368 291.737 128.086 292.882 127.095ZM204.14 127.979C203.785 127.659 199.602 129.426 200.285 130.041C200.64 130.361 204.823 128.594 204.14 127.979ZM237.677 130.634C237.249 130.112 236.179 132.163 236.191 132.55L237.379 132.403C237.83 133.086 235.64 133.544 235.901 134.468C238.023 133.559 237.987 132.712 237.677 130.634ZM279.525 131.816C275.16 133.059 270.361 133.203 266.764 136.236C268.712 136.155 270.532 134.847 272.321 134.239C274.275 133.574 276.32 133.192 278.265 132.477C278.643 132.338 279.517 132.278 279.525 131.816ZM261.719 139.487C260.319 139.306 259.28 139.81 259.049 141.253C260.2 141.232 261.366 140.608 261.719 139.487ZM247.77 145.085C248.158 144.575 243.886 141.342 243.321 140.96C243.198 142.235 247.015 143.736 246.285 144.792C246.16 144.973 242.8 145.76 242.056 146.052C241.742 146.176 241.172 146.138 241.242 146.562C243.474 146.366 245.675 145.863 247.77 145.085Z" fill="black"/>
<path d="M398.538 67.788V61.4445C398.538 60.9157 399.73 59.9849 399.982 60.8948C400.206 61.7085 399.915 62.8952 400.027 63.8001C400.192 65.1347 400.771 69.8305 401.074 70.7258C401.594 72.264 405.875 77.7969 407.087 79.7948C407.75 80.8865 408.447 82.2399 408.93 83.4245C409.601 83.5479 409.402 83.3889 409.589 83.0496C411.266 80.0182 410.919 74.0354 414.265 71.6236C414.312 73.4524 413.325 75.1234 412.868 76.8707C411.932 80.4514 411.255 83.9445 411.107 87.6602L415.459 102.013C422.143 96.7366 429.498 93.202 436.382 100.534C441.395 105.873 440.849 110.181 443.686 115.697C444.423 117.131 446.039 117.768 445.999 119.393C442.898 120.567 439.063 120.242 436.027 118.885C434.932 118.396 434.132 117.396 432.967 117.357C432.917 119.745 432.574 122.177 431.536 124.344C427.298 133.197 425.148 121.476 422.701 118.267C421.94 117.269 419.712 115.032 418.722 114.256C418.424 114.021 418.341 113.685 417.83 113.818L425.575 146.831L444.54 147.158C445.42 147.796 438.907 148.599 438.453 148.628C434.659 148.87 430.81 148.346 427.031 148.929C426.961 149.347 427.557 149.356 427.855 149.43C431.023 150.214 434.482 149.997 437.714 150.404C437.662 150.804 437.311 150.92 436.96 150.979C435.644 151.2 433.646 150.946 432.212 150.978C420.526 151.237 408.067 152.61 396.315 151.578C389.932 151.018 384.249 149.183 378.357 146.863C382.798 152.029 377.511 153.638 372.877 153.953C369.378 154.191 365.833 153.527 362.72 151.931C358.589 149.813 357.175 147.842 362.625 146.121C364.648 145.483 369.334 144.534 371.393 144.494C372.308 144.477 375.046 145.131 375.388 144.959C375.669 144.817 377.831 141.901 378.498 141.248C384.121 135.739 390.734 134.558 398.174 137.044C400.247 137.736 403.439 139.985 404.985 140.301C406.231 140.556 407.064 140.114 408.102 140.154C410.232 140.236 412.582 141.255 413.804 143.044C414.717 144.381 414.657 146.078 415.749 147.155C413.614 138.226 412.266 129.15 411.467 119.993C409.045 118.668 407.825 119.943 406.263 121.642C405.127 122.878 400.431 130.07 399.013 129.726C398.788 129.671 397.671 128.046 397.496 127.686C396.727 126.109 395.194 121.249 395.013 119.532C394.13 111.123 400.741 104.06 409.223 104.372C407.609 94.0333 403.799 84.4208 397.469 76.0797C393.619 71.0069 384.564 60.3697 377.599 61.2824C376.637 61.4084 375.54 62.4453 375.805 63.3699C375.847 63.5167 377.162 65.8753 377.298 66.0375C378.189 67.1036 381.45 68.804 382.812 69.9974C389.331 75.7103 389.458 80.1798 391.553 87.8615C392.538 91.4715 394.011 93.1015 396.757 95.5194C394.064 96.4782 389.372 89.5822 388.519 94.2636C387.883 97.7587 391.11 100.016 391.71 103.192C389.863 103.103 387.717 102.262 386.71 100.642C386.276 99.9448 386.187 98.8152 385.611 98.1959C383.273 95.687 383.505 102.445 382.969 103.206C382.518 103.846 380.043 103.285 379.839 103.487C379.648 103.677 380.382 106.311 378.949 106.894C376.843 105.63 377.698 103.39 374.648 105.555C374.294 105.806 371.465 108.601 371.371 108.811C371.043 109.551 373.524 120.081 373.621 122.209C373.731 124.589 373.333 128.116 371.502 129.867C369.715 131.575 365.938 132.006 365.59 129.016C365.258 126.164 368.018 121.148 368.938 118.171C369.383 116.732 371.21 110.112 370.593 109.14C369.283 108.621 368.224 107.665 367.046 106.914C366.526 106.581 365.779 106.477 365.196 106.098C362.678 104.459 359.368 100.285 355.947 100.53C354.295 100.648 355.807 104.163 356.184 105.026C356.605 105.991 357.94 107.618 358.171 108.363C358.293 108.756 358.132 108.911 357.736 108.795C356.553 108.448 354.791 105.916 354.352 104.781C353.852 103.49 353.815 100.51 353.273 99.9526C352.042 98.6853 343.655 100.19 345.251 95.2108C345.819 93.4383 348.388 93.6061 348.909 93.0971C349.156 92.8555 349.189 91.3961 349.442 90.8231C349.972 89.6224 351.84 88.4905 352.363 87.237C353.131 85.3979 352.824 82.2014 353.205 80.1072C353.98 75.8433 356.894 70.8599 360.844 68.9645C360.925 68.4607 360.133 68.6472 359.834 68.6972C359.137 68.8133 358.256 69.1512 357.586 69.4157C354.911 70.4733 352.818 72.631 350.163 73.3924C349.538 72.7587 352.417 68.7534 352.977 68.0793C354.934 65.7259 357.954 63.2202 360.845 62.1775C360.93 61.7669 360.903 61.8015 360.656 61.5674C359.982 60.927 358.398 60.5846 358.473 59.2332C358.805 58.9135 362.677 60.9928 363.5 61.1661C369.882 62.5105 369.909 55.9016 375.859 55.126C385.499 53.8696 392.086 62.2909 398.538 67.788ZM416.936 119.716C414.038 106.441 411.736 91.9033 404.714 80.0891C400.045 72.2345 387.319 56.4932 377.311 56.8573C372.399 57.036 370.013 60.0534 370.342 64.838C368.772 64.7802 367.556 63.499 365.907 63.2023C362.672 62.6203 359.459 64.5435 357.286 66.7567C360.077 67.009 368.916 64.7263 370.916 66.1858C371.247 66.4271 371.358 66.9401 371.68 67.1963C373.844 68.9152 375.338 69.9439 376.729 72.5037C379.633 77.8452 378.21 84.3264 383.102 88.7362C381.807 84.3001 381.792 79.5662 380.643 75.1041C379.894 72.1963 379.247 70.6723 376.586 69.1054C374.838 68.0761 369.622 67.0119 373.892 65.5795C370.602 59.1677 377.556 58.391 382.276 59.6132C388.068 61.1126 398.56 74.1668 401.925 79.3209C409.411 90.7862 410.889 104.189 413.957 117.223C414.544 118.45 415.729 119.212 416.936 119.716ZM367.079 68.086C366.372 67.5382 363.43 70.5924 362.93 71.1874C359.571 75.1833 358.202 80.3514 357.881 85.4894L360.979 81.3445C361.04 76.1504 364.282 72.1524 367.079 68.086ZM375.406 96.3903C378.003 96.0635 383.381 93.9352 382.8 90.6722C382.579 89.4336 379.357 85.8328 378.6 84.2163C377.696 82.286 377.333 79.7621 376.581 77.6668C375.391 74.3503 373.98 71.1649 371.382 68.6853C368.953 70.4733 366.867 72.8071 366.518 75.933C365.659 83.6126 373.277 89.6149 375.406 96.3903ZM356.991 87.5546C356.569 87.2534 356.334 81.2846 356.431 80.3639C356.739 77.4267 358.31 74.8899 359.359 72.2138C356.269 75.2135 355.38 79.4814 354.903 83.5831C354.825 84.2535 355.154 85.0345 355.031 85.5034C354.619 87.0801 351.315 90.1079 350.337 91.7133C348.974 93.9517 352.447 92.9809 354.097 93.2329C357.839 93.8044 359.042 97.5884 362.157 92.8428C363.475 90.8361 364.68 88.2222 363.587 85.8639C363.093 84.7977 361.907 84.8014 361.6 84.3228C361.459 84.1027 361.805 82.8814 360.994 82.5462C360.584 82.5406 358.29 86.4751 357.829 87.0644C357.648 87.2954 357.367 87.8235 356.991 87.5546ZM384.883 83.4239C385.069 81.4439 384.647 79.5722 383.918 77.7463C383.793 77.4335 383.833 76.8668 383.405 76.9358C383.508 78.4255 383.737 79.969 384.083 81.4207C384.204 81.9291 384.43 83.1684 384.883 83.4239ZM365.592 84.309C365.357 82.9322 364.538 81.1843 363.52 80.18C363.588 80.9652 364.011 81.7473 364.349 82.4512C364.613 83.002 365.069 83.9952 365.592 84.309ZM366.184 84.6067C366.04 84.4668 365.46 84.4629 365.622 85.0163C366.231 87.0863 366.75 88.2498 368.114 89.9201C368.761 90.7125 370.616 91.9411 370.566 92.9628C370.475 94.7954 367.625 98.5564 366.335 99.9466L368.567 93.8729C368.691 93.478 368.129 92.6413 367.816 92.5734C366.549 92.2979 366.167 99.1553 363.686 98.177C361.825 98.3717 366.538 100.563 366.764 100.704C367.432 101.12 368.509 102.681 369.48 102.471C370.829 102.179 373.651 97.1582 373.013 96.4089C372.312 95.5869 371.822 98.9044 371.237 98.7678C370.846 97.3802 371.949 95.2223 371.693 94.0389C371.287 92.1574 367.911 87.8564 366.728 85.986C366.491 85.6111 366.237 84.6584 366.184 84.6067ZM385.602 87.7404C385.431 87.2453 385.331 86.2222 384.889 86.0823C385.545 89.3691 384.84 92.2757 384.592 95.5209C385.389 95.0425 386.504 92.2728 386.611 91.4702C386.633 91.299 386.145 88.4266 386.062 88.061C386.012 87.8398 385.628 87.8169 385.602 87.7404ZM362.332 98.4714C363.022 99.2525 364.795 95.1029 364.919 94.7034C365.163 93.9174 365.357 93.1112 365.295 92.2783L362.563 97.081L362.332 98.4714ZM349.271 94.6402L346.898 95.5261C347.426 96.4581 349.351 97.0533 350.327 97.0146C350.981 96.9886 351.312 96.4689 351.74 96.4708C352.529 96.4743 353.886 97.5578 354.91 97.2896C353.177 94.5496 351.526 94.8544 348.678 95.5194L349.271 94.6402ZM357.877 96.7071C357.648 96.4748 354.901 95.5079 354.317 95.5253C354.916 96.5717 356.216 97.3141 357.427 97.3045C357.892 97.3008 358.213 97.048 357.877 96.7071ZM441.571 117.059C439.866 111.043 437.097 100.454 430.235 98.384C425.756 97.0327 422.782 99.1532 419.017 101.132C419.073 101.512 419.265 101.583 419.623 101.586C421.147 101.6 422.403 101.256 424.077 101.556C427.702 102.206 433.345 106.094 435.63 108.954C437.446 111.228 438.33 114.672 440.534 116.47C440.869 116.744 441.011 117.188 441.571 117.059ZM376.281 102.897C376.666 103.236 379.213 101.917 379.55 101.577C379.98 101.141 379.884 99.7211 380.135 99.0632C379.961 98.85 375.824 102.496 376.281 102.897ZM430.291 115.291C430.58 114.988 430.649 111.926 430.601 111.296C430.401 108.646 429.473 107.204 427.466 105.563C423.784 102.552 420.738 103.084 416.347 104.08L422.119 111.469C423.953 113.045 425.722 114.276 428.072 114.992C428.571 111.996 427.385 109.081 426.432 106.296L427.024 106.151C428.309 107.899 429.39 109.368 429.669 111.634C429.8 112.694 429.571 113.847 429.701 114.853C429.753 115.26 429.874 115.729 430.291 115.291ZM409.519 106.147C399.507 105.918 394.844 116.075 399.432 124.435L400.463 116.762C401.681 111.824 405.69 109.005 409.519 106.147ZM409.815 109.096C409.348 108.559 407.148 111.612 406.86 111.909C406.49 112.293 405.88 112.483 405.501 112.919C402.881 115.932 401.514 119.217 401.509 123.257C402.332 122.132 404.603 120.392 404.948 119.129C405.179 118.283 404.493 116.875 404.768 115.882L403.587 117.649L404.478 114.701C405.534 115.091 405.11 118.154 405.367 118.536C406.025 118.178 406.576 117.646 407.242 117.294C408.221 116.776 408.675 117.462 408.261 115.507C408.18 115.124 406.683 112.374 407.588 112.347C408.448 112.322 409.678 114.543 409.967 115.288C410.039 115.471 410.534 118.264 410.972 116.583C411.387 114.993 409.517 111.01 409.815 109.096ZM432.372 110.57V115.29C432.372 115.35 433.178 115.258 433.561 115.427C434.783 115.966 435.998 117.137 437.417 117.353C436.939 116.532 436.081 116.016 435.507 115.272C435.012 114.631 433.983 111.707 433.853 114.11L433.406 113.82L432.372 110.57ZM371.53 125.175C371.793 122.961 371.53 119.84 371.53 117.503C371.53 117.436 371.016 116.962 370.94 117.061C370.869 119.134 366.922 127.413 367.738 128.801C367.769 128.853 368.687 129.384 368.789 129.403C370.303 129.684 371.399 126.285 371.53 125.175ZM427.62 117.651C426.843 117.705 425.438 120.051 426.585 120.005C426.881 119.993 427.787 118.115 427.62 117.651ZM421.091 141.843C421.119 141.128 421.123 140.42 421.019 139.707C420.126 133.63 417.762 127.211 416.96 121.023C416.318 119.881 413.232 117.484 413.399 120.115C413.582 123.004 414.906 128.217 415.542 131.284C416.319 135.027 417.594 142.312 418.995 145.554C419.524 146.777 419.955 146.092 419.914 144.957L417.832 132.993C418.393 133.086 418.317 133.615 418.458 133.991C419.213 136.003 419.449 138.2 420.198 140.227C420.363 140.673 420.61 141.703 421.091 141.843ZM427.033 122.077C428.05 121.422 428.613 119.922 429.105 118.831C428.206 119.881 426.618 120.605 427.033 122.077ZM384.591 145.677C386.906 146.241 389.714 145.571 392.013 144.946C395.358 144.037 398.834 142.339 402.094 141.107C397.736 137.506 388.368 136.13 383.777 139.693C383.532 139.883 383.234 139.688 383.402 140.368C386.326 140.922 388.879 141.192 391.857 141.256C392.354 141.267 392.847 141.552 393.347 141.552C394.212 141.552 394.823 140.851 395.569 141.106L391.113 143.757L384.591 145.677ZM390.821 143.022C389.889 141.92 387.644 142.559 386.226 142.43C382.851 142.123 382.895 140.46 379.701 143.034L376.874 145.677C378.502 145.844 380.305 144.046 381.798 143.912C382.464 143.853 383.041 144.244 383.565 144.218C386.025 144.093 388.458 143.66 390.821 143.022ZM413.677 147.447C413.9 147.156 412.379 144.282 411.865 143.791C407.188 139.322 399.294 145.337 394.385 146.569C394.322 147.118 395.01 146.813 395.335 146.777C396.696 146.624 398.023 146.104 399.427 146.273C399.305 146.861 395.741 147.767 397.497 148.041C397.82 148.092 398.203 148.004 398.54 148.043L398.239 148.628C399.159 149.249 404.834 146.971 406.409 146.864C409.089 146.682 405.841 148.32 405.365 148.923C407.469 148.586 409.664 147.444 411.753 147.159C412.703 147.029 411.684 147.839 411.896 148.04C412.202 147.761 413.62 147.521 413.677 147.447ZM362.036 148.625C365.886 150.391 371.037 152.983 375.305 151.35C377.656 150.45 377.227 148.155 375.376 147.021C372.908 145.51 364.998 146.724 362.453 148.014C362.143 148.171 361.894 147.863 362.036 148.625Z" fill="black"/>
<path d="M98.4849 131.813C98.6306 132.209 100.047 132.327 100.451 132.367C103.662 132.687 106.925 132.732 110.112 133.384C110.766 133.518 111.842 133.452 112.137 134.17C110.281 134.276 108.529 134.502 106.65 134.465C97.7705 134.29 88.5177 132.727 79.6358 132.111C76.7365 131.91 71.6151 131.34 68.9636 131.51C66.5584 131.665 67.1943 132.748 66.2699 134.16C63.4653 138.443 51.6517 138.923 46.98 138.611C45.2024 138.492 40.4671 137.04 39.5869 137.125C39.1185 137.17 36.5434 138.958 35.5621 139.333C31.0679 141.052 22.0431 141.612 17.9557 138.846C16.6913 137.99 15.7602 136.057 14.6631 135.628C13.5317 135.185 12.3891 135.459 11.2134 135.222C8.30821 134.634 4.47364 132.965 5.05999 129.38C5.63652 125.856 11.3211 125.49 12.1161 124.418C12.1812 124.331 11.4792 123.205 11.5812 122.303C11.9553 118.996 17.362 117.527 20.1325 117.058C19.8214 116.277 18.2058 115.932 17.9039 115.293C17.2287 113.864 18.2711 113.327 15.6824 112.486C15.8564 112.186 17.0812 112.165 17.1663 112.043C17.3179 111.824 16.5693 110.681 17.3196 110.569C17.706 110.511 18.7125 111.327 19.4092 111.436C22.089 111.858 26.2169 111.498 29.182 111.753C36.4252 112.374 43.7041 114.236 50.9974 114.701C50.8572 113.734 51.5176 111.971 50.2578 111.749L12.7117 108.797C12.3173 107.782 13.8751 107.444 14.6676 107.348C19.727 106.737 27.768 107.745 33.0417 108.211C38.9197 108.73 44.7997 109.835 50.7034 109.981C50.6749 109.187 51.0156 108.03 49.9604 107.914L32.7493 107.321C29.5374 107.26 26.4028 106.41 23.2453 106.148C21.2448 105.981 19.0034 106.577 17.1663 105.703L19.5391 104.377C17.7727 104.129 15.4486 103.804 14.2124 102.423C14.0523 101.497 17.5632 100.465 18.3154 100.059C26.1475 95.8294 30.709 85.7332 32.2887 77.3485C38.0079 78.4122 43.853 78.4872 49.6602 78.7076C65.7705 79.319 82.2216 79.3237 98.3335 78.4066C102.315 78.1799 107.297 77.1721 111.107 77.2199C115.609 77.2765 113.215 84.2399 112.435 86.6691C114.076 86.1133 115.928 84.0615 117.501 86.2047C118.057 86.9626 117.33 89.3941 117.847 90.8793C118.057 91.482 118.759 91.7598 119.086 92.3003C119.991 93.7949 118.899 96.3663 118.217 97.8784C117.676 99.0776 116.094 101.948 115.353 102.997C114.295 104.495 112.564 105.219 111.544 106.731C112.474 106.352 113.63 105.356 114.371 104.677C116.123 103.07 117.493 101.089 119.089 99.337C123.695 97.9456 119.751 102.89 119.266 104.529C119.016 105.375 120.572 104.782 120.745 104.962C120.832 105.053 121.033 107.204 121.022 107.45C120.987 108.227 120.332 108.997 120.101 109.782C119.799 110.804 120.037 111.795 119.259 112.632C120.574 112.357 120.168 113.551 120.471 114.475C120.564 114.757 121.104 114.613 121.055 115.115C120.971 115.965 119.974 117.18 119.557 117.943C120.73 117.67 121.733 116.883 123 116.792C125.187 116.636 121.757 118.756 121.599 118.968C121.207 119.492 121.714 119.947 121.5 120.302C121.309 120.619 120.392 120.871 120.152 121.34L121.633 121.785C122.729 123.381 115.554 125.858 114.215 125.323C113.916 126.265 115.556 125.951 116.112 125.88C117.558 125.696 119.873 124.379 120.875 124.445C121.815 124.506 123.03 125.581 122.393 126.517C121.914 127.22 112.903 128.214 111.451 128.623C110.547 129.104 110.981 131.813 109.614 131.813H98.4849ZM19.5389 102.01C24.1522 102.85 28.7181 104.026 33.3823 104.627C54.7347 107.376 78.0282 104.878 99.4609 103.721C100.576 103.477 103.311 99.6814 104.069 98.5657C106.098 95.5763 112.627 83.2244 112.09 80.1029C112.028 79.746 111.572 79.0056 111.248 78.8516C110.008 78.263 101.325 79.7094 99.224 79.882C81.5204 81.336 63.4963 81.6543 45.808 80.1768C41.655 79.8299 37.5075 79.157 33.3685 78.6827C32.7601 81.4749 32.4718 84.08 31.4176 86.8252C28.6602 94.0065 25.7076 96.7803 19.9147 101.339C19.6776 101.525 19.3682 101.328 19.5389 102.01ZM76.2258 109.389H106.35C109.702 104.682 115.087 100.157 117.029 94.6314C118.161 91.4097 116.86 92.1405 116.364 90.2881C116.232 89.7958 116.59 87.5617 115.85 87.8492C114.751 95.2929 109.906 101.425 104.345 106.216C94.9811 106.879 85.57 106.735 76.224 107.618L76.2258 109.389ZM113.917 88.7379C110.355 88.5136 109.417 93.887 107.924 96.4969C106.311 99.3159 103.868 101.966 102.046 104.666C102.52 104.568 103.143 104.933 103.541 104.796C104.321 104.528 108.555 99.7274 109.292 98.7424C111.427 95.8888 113.36 92.2778 113.917 88.7379ZM118.368 106.146C117.553 105.428 113.468 108.715 112.439 109.247C111.593 109.685 110.65 110.1 109.754 110.423C109.407 110.548 108.629 110.539 108.588 110.58C108.31 110.857 108.866 112.696 108.875 113.225C109.475 113.755 113.77 110.925 114.486 110.397C114.953 110.052 119.058 106.753 118.368 106.146ZM73.7031 107.619H52.1859L54.3036 119.382C58.4445 119.716 63.62 120.089 65.3384 124.491L65.5274 129.021C67.5904 129.493 69.5454 128.774 71.6391 128.852C72.8611 128.897 74.2806 129.375 75.4856 129.456C76.1041 129.498 75.8679 129.451 75.9307 129.019C76.3119 126.391 75.2637 122.08 75.0416 119.271C74.9111 117.62 74.8996 108.001 73.7031 107.619ZM77.5613 114.11H106.795C106.817 111.964 107.051 111.424 104.829 111.198C98.6151 110.564 91.5249 111.259 85.2901 111.467C84.0684 111.508 77.2992 111.121 77.1051 111.946C77.0012 112.387 77.0199 113.944 77.5613 114.11ZM51.5339 116.822C40.772 115.738 30.1328 113.3 19.2425 113.818C19.4839 114.437 20.0639 114.717 20.6573 114.916C22.8224 115.643 26.8849 115.779 29.3945 116.262C34.2612 117.199 39.3555 118.189 44.0151 119.581C46.4218 118.675 53.3524 121.242 51.5339 116.822ZM106.724 115.364C106.22 114.784 100.957 114.957 99.8082 114.983C94.1253 115.111 88.299 115.317 82.619 115.598C81.3385 115.661 78.9334 115.327 77.909 115.574C77.3027 115.72 77.006 117.432 78.7344 117.665C83.4229 118.295 90.6382 117.557 95.6777 117.639C96.3794 117.65 97.0287 117.944 97.7307 117.958C100.848 118.019 103.979 117.887 107.093 117.947C107.238 117.802 106.971 115.649 106.724 115.364ZM113.918 115.588C113.294 115.724 109.628 116.613 109.505 116.804C109.304 117.114 109.549 118.08 109.468 118.534L113.918 115.588ZM116.292 118.834C114.703 119.6 113.057 120.439 111.537 121.332C111.212 121.523 110.723 121.632 110.653 122.074C112.621 121.493 114.851 120.235 116.292 118.834ZM25.4086 119.205C22.8647 119.165 18.834 119.521 16.4137 120.297C12.407 121.582 13.1547 123.979 17.0536 124.4C20.4219 124.763 30.4088 124.383 33.3541 122.976C33.9099 122.71 34.5736 122.34 34.6591 121.669C34.3692 120.022 26.8951 119.228 25.4086 119.205ZM41.2025 120.015L35.5658 119.129L37.7908 121.777L41.2025 120.015ZM78.4966 119.761C77.6762 120.026 77.8204 121.481 78.7491 121.486L106.649 122.381C107.672 122.372 107.684 120.31 106.902 120.053C97.4618 119.433 87.9638 119.783 78.4966 119.761ZM38.6259 123.638C37.7849 124.576 38.6074 125.054 39.4231 125.471C43.3853 127.497 56.2321 127.187 60.3142 125.289C61.3041 124.828 62.4328 123.937 61.2031 122.994C58.4148 120.858 48.457 120.992 44.9509 121.523C43.643 121.72 39.4179 122.755 38.6259 123.638ZM78.6016 124.14C87.3502 124.71 96.0828 125.303 104.863 125.62C105.353 125.638 107.941 126.389 107.975 125.471C107.987 125.141 106.953 123.903 106.364 124.128C100.133 124.238 93.8611 123.66 87.6663 123.538C85.1948 123.489 81.3546 123.257 79.04 123.551C78.6073 123.606 78.1201 123.775 78.6016 124.14ZM34.599 126.428C34.9568 126.047 35.6186 123.929 34.8272 123.855C34.6915 123.842 32.841 124.739 32.3037 124.882C27.0329 126.288 21.6847 126.189 16.2715 126.355C19.1448 127.841 32.7611 128.384 34.599 126.428ZM38.2398 127.092C38.0506 129.117 39.0411 128.416 39.9158 128.788C45.5247 131.177 50.5675 131.728 56.5887 130.437C59.2811 129.859 63.9839 128.966 63.1641 125.323C62.7051 125.304 62.8296 125.875 62.3931 126.174C58.6199 128.76 45.3314 129.142 40.8938 128.139C39.9806 127.933 39.0786 127.49 38.2398 127.092ZM107.955 128.003L78.5867 126.402L78.5987 128.274C83.1062 128.193 87.613 128.91 92.107 129.155C96.1513 129.375 100.234 129.346 104.285 129.441C105.258 129.463 106.972 130.261 107.713 129.333C107.95 129.037 108.144 128.284 107.955 128.003ZM13.3056 130.041C12.3144 128.297 14.4668 125.894 11.7485 126.271C10.8605 126.394 7.559 127.881 7.37466 128.723C7.11358 129.915 12.3855 130.022 13.3056 130.041ZM15.3843 128.865C16.1915 130.25 18.0107 130.741 19.4755 131.139C22.3838 131.929 33.0045 133.281 35.1365 131.241C35.8347 130.573 35.5262 129.079 34.7976 128.914C34.4123 128.828 31.2396 129.658 30.3687 129.744C25.3535 130.242 20.2586 130.189 15.3843 128.865ZM39.427 132.403C39.4266 134.401 41.3147 135.085 42.9832 135.503C47.1773 136.556 60.4969 136.786 63.6117 133.583C64.3168 132.857 64.8924 130.9 63.6728 130.972C62.7862 131.024 59.3751 132.546 57.8353 132.856C52.0309 134.023 45.1356 133.996 39.427 132.403ZM14.4923 132.11L9.44988 131.816C9.37487 132.253 10.0068 132.184 10.3345 132.257C11.3003 132.471 14.5909 133.57 14.4923 132.11ZM18.3535 134.47C19.4259 140.351 33.0622 139.129 35.8459 136.37C36.4141 135.807 36.9456 134.435 35.9872 134.203C35.695 134.132 31.2264 135.287 30.0873 135.366C26.1431 135.637 22.2256 135.063 18.3535 134.47Z" fill="black"/>
<path d="M340.44 139.849C341.766 138.542 348.668 138.438 350.602 138.604C352.445 138.762 354.86 139.799 356.543 139.801C358.315 139.802 360.538 138.29 361.609 138.31C363.367 138.343 361.75 141.165 361.265 141.819C358.092 146.103 350.362 149.521 345.322 146.803C343.8 145.983 338.683 141.579 340.44 139.849ZM353.127 141.258C350.119 140.321 345.411 139.712 342.522 141.191C342.319 141.295 341.948 141.218 342.151 141.693C342.774 143.149 346.655 145.644 348.303 145.904C352.856 146.622 356.212 144.472 359.052 141.376C359.417 140.978 360.417 141.02 359.81 140.372C356.547 141.547 353.233 143.359 349.727 143.625C349.343 143.655 347.871 143.843 347.79 143.324C349.094 142.921 350.446 142.561 351.72 142.066C352.114 141.913 353.059 141.702 353.127 141.258Z" fill="black"/>
<path d="M383.696 105.259C384.115 109.097 386.333 112.467 384.903 116.34C383.367 120.502 378.243 119.034 378.673 115.173C379.001 112.228 381.653 107.461 383.696 105.259ZM382.425 116.38C384.004 114.95 383.846 110.688 383.102 108.8C381.672 109.625 379.994 116.445 381.767 116.695C381.999 116.629 382.244 116.544 382.425 116.38Z" fill="black"/>
<path d="M343.929 122.965C343.846 123.462 343.35 123.493 342.974 123.635C340.798 124.457 337.208 125.191 334.792 125.828C330.712 126.904 326.45 128.098 322.265 128.566C322.121 127.796 322.412 128.047 322.855 127.842C323.676 127.461 324.865 127.14 325.761 126.881C330.105 125.627 336.862 123.639 341.185 123.037C342.101 122.91 343.012 122.958 343.929 122.965Z" fill="black"/>
<path d="M334.134 73.3973C334.021 73.9376 333.552 73.9423 333.107 73.9949C330.864 74.2604 328.598 74.2925 326.356 74.6596C323.35 75.152 319.743 76.5259 316.997 76.8744C316.518 76.9352 316.175 76.7153 315.736 76.6355L319 75.3125C323.819 74.0692 329.144 72.5827 334.134 73.3973Z" fill="black"/>
<path d="M336.804 78.7083L332.657 79.7436C329.736 79.8365 326.335 81.1442 323.554 81.3345C322.951 81.3758 322.393 81.4879 321.968 80.916C322.612 80.6731 323.307 80.4299 323.982 80.2654C326.531 79.6433 332.582 78.173 334.935 78.215C335.609 78.227 336.152 78.627 336.804 78.7083Z" fill="black"/>
<path d="M340.665 83.4283C339.592 84.3312 337.903 84.9417 336.587 85.4199C334.806 86.0665 332.328 86.8672 330.503 87.3381C329.516 87.5928 328.128 88.308 327.311 87.407C330.993 86.4116 335.22 84.3414 338.869 83.5585C339.47 83.4295 340.052 83.3737 340.665 83.4283Z" fill="black"/>
<path d="M265.873 66.3157L261.472 71.2307C258.361 75.1605 257.211 80.4335 254.121 84.2796C253.596 84.9331 252.531 84.7885 253.564 86.0754C253.944 86.5485 254.53 86.4946 254.595 86.963L241.69 87.8561L242.278 86.9645C240.696 87.0222 239.099 86.8954 237.518 86.9538C230.926 87.1973 224.237 87.8396 217.646 87.8785C207.223 87.94 196.613 86.7994 186.174 87.2488C177.534 87.6208 152.903 93.3853 147.297 99.9383L145.975 102.012C145.574 100.598 145.675 100.054 146.553 98.9035C150.775 93.3732 166.327 88.9812 173.133 88.151C174.189 88.0221 175.577 88.3933 176.534 87.9924C177.339 87.6557 179.631 83.6161 180.544 82.5368C188.156 73.5391 199.468 67.5756 211.153 66.054C223.163 64.4901 248.683 63.1427 259.551 67.7309C260.053 67.9429 261.347 68.9147 261.574 68.8983C261.959 68.8704 264.496 65.6156 265.873 66.3157ZM223.433 69.2632H218.981L220.465 67.4958C215.27 67.3926 209.733 67.4769 204.674 68.7597C199.084 70.1775 192.71 74.179 188.408 77.9629C187.325 78.9155 182.253 83.8264 181.886 84.758C181.617 85.4417 183.106 85.2236 183.53 85.2098C192.612 84.9122 201.767 85.3785 210.808 84.8885C212.901 84.775 214.955 85.2851 216.903 84.307C216.351 83.5041 216.136 83.6811 216.899 82.979C222.794 77.5555 232.1 73.9986 239.458 71.0297C239.532 70.5269 238.77 70.7395 238.42 70.7348C229.594 70.6146 218.982 79.138 211.827 83.5413C211.457 83.7689 211.175 84.1156 210.671 84.0126C211.401 81.2944 213.187 80.0926 215.28 78.4177C218.662 75.7114 222.715 73.0497 226.696 71.3248C226.765 70.7752 226.099 71.1065 225.792 71.1634C224.565 71.3907 220.421 72.6145 219.57 72.07C219.333 71.9185 219.146 71.5152 219.279 71.3326C219.474 71.065 223.078 70.0529 223.433 69.2632ZM257.858 70.1488L255.781 70.4452L256.083 71.3251L254.894 71.9156L256.18 71.5761L257.858 70.1488ZM246.581 71.9216C239.239 73.1851 232.275 76.8349 225.717 80.2374L218.091 84.8976L221.061 84.6033L220.76 84.0178C225.819 82.8344 230.133 79.0785 234.902 76.976L246.581 71.9216ZM251.628 73.1017C243.87 75.3054 236.564 79.1566 229.963 83.7175C231.972 84.0234 233.45 82.4165 235.103 81.6024C240.081 79.1509 246.052 76.6215 250.744 73.8427C251.068 73.6511 251.559 73.5453 251.628 73.1017ZM252.222 77.8224C250.147 78.7514 247.947 79.7812 246.286 81.3572C248.335 80.4544 250.548 79.3226 252.222 77.8224Z" fill="black"/>
<path d="M301.489 86.6698L283.976 87.8486L283.829 89.0344L282.345 86.6769C280.814 89.4574 278.602 91.3595 275.524 92.2817C272.496 93.1885 268.018 93.2823 264.631 93.8451C256.406 95.2118 248.505 97.5661 240.646 100.24C245.341 96.9669 251.412 95.5434 256.966 94.1905C260.497 93.3302 264.105 92.7551 267.652 91.9786C267.492 91.3973 266.557 91.5343 266.149 90.969C265.925 90.6587 265.869 90.2869 265.87 89.9168C264.218 91.355 264.177 89.9023 262.907 89.3219L263.799 88.5889L262.907 88.1496L264.984 87.8503C264.906 86.2394 264.129 84.7788 264.387 83.1306C261.92 83.9623 262.997 88.5954 261.868 90.213C261.382 90.9098 260.485 89.4876 260.543 88.6323C260.671 86.759 261.915 81.5795 262.458 79.5873C265.646 67.8938 272.99 65.3278 283.881 70.0972C289.289 72.4656 298.651 79.7406 301.144 85.0955C301.395 85.6357 301.593 86.0397 301.489 86.6698ZM280.703 70.4584C280.635 70.3565 278.601 69.5647 278.34 69.999C281.223 74.4394 282.629 78.9363 285.719 83.3244C286.19 83.9931 286.002 85.0011 287.383 85.1979C287.958 84.786 287.856 84.6029 287.702 84.0067C287.381 82.7579 284.833 78.4807 284.028 77.0315C283.239 75.6092 280.98 72.753 280.554 71.6027C280.336 71.0128 280.735 70.5064 280.703 70.4584ZM288.726 75.7489C287.731 74.3359 286.297 73.1947 284.573 72.8054C284.385 72.9887 286.144 75.7966 286.399 76.1614C286.728 76.6325 287.494 76.613 287.244 77.5246C287.586 77.6087 288.012 77.3646 288.132 77.0805C288.175 76.978 286.402 76.6359 288.726 75.7489ZM291.397 76.9379C290.718 76.3633 287.554 77.7524 287.545 78.2623L289.022 78.9968C289.28 78.6782 287.806 78.6767 288.723 78.2596C289.529 77.893 290.91 77.9537 291.397 76.9379ZM293.176 78.4109L288.429 79.5915C288.368 79.6506 288.68 80.7339 288.729 80.771C288.887 80.8922 292.021 79.5484 292.448 79.3065C292.852 79.0772 293.312 79.0637 293.176 78.4109ZM295.254 80.4766C293.753 80.2949 292.066 80.7817 291.101 81.9474L292.286 82.242L290.805 82.8324C291.547 83.2976 295.936 81.05 295.254 80.4766ZM269.957 81.142C263.772 82.0237 265.358 88.0351 271.099 88.7047C273.743 89.013 280.45 88.3647 280.443 84.7532C280.436 80.8901 272.68 80.754 269.957 81.142Z" fill="black"/>
<path d="M164.639 105.288C165.24 105.638 163.427 111.161 163.265 112.273C163.138 113.145 162.713 117.95 163.632 118.238C164.225 118.326 164.344 118.237 164.603 117.734C165.006 116.951 165.359 114.72 165.775 113.588C166.339 112.054 168.772 105.637 170.218 105.306C176.542 106.174 183.104 106.179 189.412 107.067C190.873 107.273 193.594 107.642 194.887 108.115C195.325 108.276 195.824 108.306 195.835 108.932C195.845 109.493 194.32 112.028 193.876 112.61C190.811 116.629 185.204 119.793 180.21 120.562C172.674 121.721 153.295 122.321 147.59 116.778C144.963 114.226 145.54 111.414 145.662 108.112C146.026 106.583 162.272 105.158 164.639 105.288ZM160.513 107.327C159.755 107.29 159.022 106.83 158.679 107.733C157.65 110.443 157.428 114.843 158.143 117.649L159.23 111.212L160.513 107.327ZM169.116 116.764L173.148 107.631C173.327 106.89 171.49 106.646 170.949 107.52C170.643 108.016 169.007 113.034 168.901 113.745C168.801 114.414 168.804 115.062 168.823 115.736C168.833 116.089 168.604 116.836 169.116 116.764ZM155.763 107.621C155.306 107.715 154.213 107.371 153.969 107.808C152.996 109.552 153.47 114.425 153.69 116.469C154.111 116.43 154.207 115.155 154.245 114.812C154.536 112.195 154.685 110.13 155.763 107.621ZM178.321 107.918C177.419 107.724 176.338 107.184 175.675 108.088C175.226 108.7 172.669 116.983 172.979 117.354C173.443 117.909 173.619 116.932 173.715 116.772C175.432 113.929 177.058 110.991 178.321 107.918ZM151.015 108.212C146.558 108.142 147.662 112.87 149.979 114.994L151.015 108.212ZM178.027 116.766C179.082 115.989 179.778 114.558 180.449 113.423C181.091 112.335 182.442 110.071 182.826 108.993C183.168 108.033 181.776 107.984 181.333 108.258C180.943 108.499 178.192 115.673 178.027 116.766ZM188.114 108.803C187.68 108.886 186.6 108.331 186.348 108.512C186.143 108.661 184.884 112.595 184.556 113.225L188.114 108.803Z" fill="black"/>
<path d="M192.269 124.734C191.226 127.601 190.492 130.702 188.863 133.294C187.895 134.204 185.201 134.399 183.824 134.481C175.635 134.97 165.288 134.357 157.143 133.247C155.237 132.987 149.39 132.177 148.214 130.911C147.528 130.172 146.241 123.58 146.564 123.256C150.588 123.212 154.58 124.124 158.587 124.435C162.193 124.714 165.967 124.932 169.554 125.039C177.107 125.264 184.739 125.018 192.269 124.734ZM153.391 125.325L149.534 125.03C149.714 125.372 151.288 126.368 151.461 126.385C151.88 126.426 153.247 125.863 153.391 125.325ZM157.843 125.915L156.35 126.051L153.393 127.68C154.797 127.281 156.783 126.903 157.843 125.915Z" fill="black"/>
<path d="M198.876 114.921C197.306 113.281 200.073 109.706 201.313 108.496C207.107 102.842 222.106 97.9664 230.107 98.7712C236.932 99.4578 235.834 106.112 231.588 109.678C225.906 114.449 210.678 116.614 203.403 116.17C202.488 116.114 199.447 115.518 198.876 114.921ZM231.186 104.708C231.239 104.643 231.658 105.09 231.986 104.489C233.077 102.493 232.031 101.222 230.032 100.911C223.693 99.9263 208.541 105.405 203.544 109.534C197.428 114.587 205.305 114.016 209.051 113.827C214.948 113.531 225.96 111.841 229.955 107.17C230.645 106.363 230.982 104.954 231.186 104.708Z" fill="black"/>
<path d="M197.909 106.141C192.246 105.308 186.543 104.358 180.841 103.787C170.837 102.784 162.1 102.613 152.097 103.826C149.682 104.119 146.724 105.251 144.488 104.523C146.79 102.607 149.842 102.001 152.735 101.509C164.339 99.537 178.473 100.769 189.957 103.28C192.496 103.836 195.901 104.525 197.909 106.141Z" fill="black"/>
<path d="M144.487 130.335C143.823 130.813 137.276 129.188 136.115 128.777C130.953 126.95 130.339 123.957 129.946 118.832C131.993 119.362 133.938 120.34 135.944 120.981C137.221 121.389 141.281 122.101 141.975 122.656C144.135 124.385 142.304 128.593 144.487 130.335ZM137.661 124.736L132.914 121.783C132.211 122.54 135.588 126.867 137.067 126.204C134.931 124.298 136.877 125.848 137.661 124.736Z" fill="black"/>
<path d="M236.787 88.7393L192.568 102.6L203.772 97.9574C214.528 94.1521 225.546 90.8294 236.787 88.7393Z" fill="black"/>
<path d="M250.144 89.6245C248.858 90.8271 246.914 91.5915 245.298 92.328C240.92 94.3234 236.27 96.0358 231.743 97.5848C233.911 95.7475 237.174 94.2769 239.853 93.1109C243.113 91.6925 246.662 90.2885 250.144 89.6245Z" fill="black"/>
<path d="M319.589 102.012L318.255 98.7692L317.221 93.457C319.2 95.6323 319.697 99.1592 319.589 102.012Z" fill="black"/>
<path d="M248.067 122.37C248.716 120.17 247.889 114.126 249.981 112.913C252.128 111.669 252.905 114.778 252.818 116.313C252.702 118.358 250.555 122.77 248.067 122.37Z" fill="black"/>
<path d="M250.427 138.587C247.387 138.356 245.101 132.987 246.747 130.649C248.758 127.792 251.536 134.678 251.325 136.359C251.229 137.13 250.517 137.785 250.427 138.587Z" fill="black"/>
<path d="M257.564 121.784C257.522 122.788 256.242 123.388 256.001 123.909C254.853 126.392 257.381 129.062 256.826 131.515C255.467 130.883 254.415 130.843 253.409 129.6C250 125.383 253.948 123.216 257.564 121.784Z" fill="black"/>
<path d="M243.693 120.094C244.713 119.119 245.86 120.777 246.209 121.71C246.728 123.097 247.9 128.611 245.181 127.462C243.114 126.59 242.192 121.528 243.693 120.094Z" fill="black"/>
<path d="M310.395 127.682C310.28 124.179 310.104 120.712 310.108 117.196C310.112 114.697 310.411 114.129 310.652 111.861C310.77 110.754 310.203 105.473 312.279 105.901C313.88 106.23 313.642 110.906 313.082 112.211C312.786 112.9 312.098 113.316 311.936 114.022C311.572 115.607 311.485 118.795 311.582 120.451C311.742 123.171 313.182 125.616 310.395 127.682Z" fill="black"/>
<path d="M307.012 112.356C308.648 112.069 308.864 118.047 306.973 117.89C305.838 117.795 305.361 112.646 307.012 112.356Z" fill="black"/>
<path d="M314.15 116.205C315.96 115.715 315.756 120.348 313.525 120.018C311.413 119.704 313.33 116.426 314.15 116.205Z" fill="black"/>
<path d="M137.658 111.75C134.986 110.006 136.426 106.833 134.99 104.377C135.484 103.9 136.781 106.097 136.916 106.443C137.581 108.156 137.206 110.006 137.658 111.75Z" fill="black"/>
<path d="M48.9224 85.4891L51.5891 85.7856C51.7616 84.0814 51.8405 81.88 53.9662 81.658C51.9278 83.8055 53.9484 85.0268 54.2097 86.5933C54.5119 88.4054 53.1129 87.4617 52.3288 88.1409C52.1518 88.2943 49.8772 91.9012 49.8968 92.1338C49.9612 92.8958 52.2729 93.9849 50.9603 96.5179C49.5878 99.1666 45.7968 98.7157 44.4773 99.8086C43.7507 100.41 42.5638 103.694 41.7941 104.668C40.6943 105.428 41.9889 99.9401 42.3915 99.6558C38.4029 98.2346 40.0435 101.456 37.9327 102.449C35.1368 103.764 38.5205 99.4345 38.2376 99.0673C36.2865 98.5819 33.5504 97.7589 34.0831 95.2287C35.1275 95.5206 35.9472 96.5639 37.0392 96.8578C37.5196 96.9871 38.7151 97.1733 39.0798 96.9475C39.28 96.8236 41.2358 92.9765 41.1818 92.7482C41.0732 92.2884 37.9139 91.2738 38.0276 89.2238C38.1072 87.7892 39.8136 86.7783 41.0415 86.3614C43.2744 85.6033 46.1392 86.3985 46.9875 84.0117C47.3973 82.8586 46.9646 80.9652 48.6258 81.8017C49.9398 82.4634 48.7526 85.3322 48.9224 85.4891ZM44.7659 87.559C43.4386 87.393 38.7013 88.7128 41.422 90.1407C43.4736 91.2174 43.7443 88.9156 44.7659 87.559ZM50.1066 87.5576C47.2328 86.9184 46.2554 88.8037 45.3593 91.0949L47.7306 91.2535L50.1066 87.5576ZM41.5012 97.2913C44.3014 98.0937 44.9039 95.999 45.5344 93.74C43.8115 91.5964 41.2622 97.0726 41.5012 97.2913ZM45.0628 97.2897C45.9239 97.3241 49.2058 95.8312 49.2064 95.0798C49.2065 94.9808 48.3506 94.1563 48.115 94.0897C46.6842 93.6853 45.7662 96.3175 45.0628 97.2897Z" fill="black"/>
<path d="M76.0777 90.2115C76.2683 90.2657 76.5755 90.6806 76.5214 90.9447C76.2397 92.3215 71.0021 91.8655 69.8482 91.9848C67.5036 92.2271 64.046 92.3135 62.5753 94.196C64.2091 94.6011 74.4537 93.1778 75.0378 93.7535C76.0823 94.7831 72.5876 95.3663 72.1385 95.4418C70.7012 95.6834 62.3055 95.9784 61.981 96.411C64.507 100.735 70.8382 98.0128 74.7308 97.2939C74.7075 97.6019 75.1785 98.2679 75.0362 98.4612C74.9662 98.5563 73.1939 99.2766 72.867 99.4116C69.7366 100.703 63.6458 101.887 60.9448 99.3546C59.6763 98.1653 60.0386 96.6458 59.8702 96.4397C59.7759 96.3243 58.4912 96.2104 58.4196 96.1091C57.5904 94.936 60.4777 94.8158 60.7601 93.5513C60.8978 92.9346 60.2328 93.1583 60.0449 92.8824C58.8103 91.0701 63.8142 90.9962 64.0576 90.7987C64.1188 90.749 63.6499 90.0036 63.8085 89.2478C64.3117 86.8508 68.7877 84.833 71.0352 84.6083C73.1986 84.3921 79.2825 84.5081 77.8457 87.86C74.5054 85.4717 67.6835 85.5686 66.1349 89.9137C66.4272 89.8271 66.7656 90.2115 66.8773 90.2115C68.7683 90.2115 74.7667 89.8381 76.0777 90.2115Z" fill="black"/>
<path d="M99.9689 95.8174C100.135 96.5028 99.8373 96.3033 99.5941 96.4936C96.7072 98.7529 93.6991 96.635 92.5302 97.1514C91.4872 97.6122 90.6748 102.74 87.5141 99.2104C88.3812 98.3403 89.2808 97.6686 89.5816 96.4108C88.4999 96.0895 86.8662 96.5458 86.9441 95.0765C87.0748 92.6094 90.4189 93.6439 91.0185 92.6729C91.2941 92.2265 91.8164 88.8191 91.6769 88.3264C91.5882 88.0128 90.2447 87.9161 89.879 87.8491C89.0886 86.9977 94.5933 84.106 95.2254 83.8731C97.8735 82.8976 103.638 81.9088 104.129 85.9255C104.697 90.5695 100.115 93.8873 96.213 95.1953C95.7504 95.3504 95.3676 94.9349 95.5171 95.8174H99.9689ZM93.1414 93.1632C96.2371 93.9169 101.964 89.9789 101.778 86.8175C101.598 83.757 93.8266 85.45 93.4458 87.4148C93.1489 88.9467 93.5046 91.4706 93.1414 93.1632Z" fill="black"/>
<path d="M217.2 105.557C217.371 105.712 213.952 108.51 216.232 109.32C217.182 109.658 221.31 109.329 220.623 110.578C219.898 111.895 215.918 111.599 214.718 110.825C211.619 108.826 216.702 105.104 217.2 105.557Z" fill="black"/>
<path d="M206.22 108.506C206.779 107.862 208.737 111.563 208.898 111.895C209.499 113.132 207.76 112.194 207.253 111.754C206.162 110.808 206.113 109.899 206.22 108.506Z" fill="black"/>
<path d="M223.436 109.685L223.798 108.13L225.21 104.966C226.003 106.72 224.931 108.684 223.436 109.685Z" fill="black"/>
</svg>
