<svg preserveAspectRatio="none" width="100%" height="100%" overflow="visible" style="display: block;" viewBox="0 0 267 474" fill="none" xmlns="http://www.w3.org/2000/svg">
<g id="res">
<path id="Vector" d="M30.2738 113.198C30.5964 110.811 32.3173 108.672 33.1911 106.559C34.5504 103.274 35.4653 99.3211 37.0988 96.2869C38.576 93.5431 40.9214 90.7715 42.9111 88.3847C41.106 89.2585 39.2031 90.1056 37.4644 91.1034C36.3113 91.7652 33.3831 93.4081 32.5832 94.2367C31.811 95.0366 31.7252 96.1776 31.1389 97.1081C30.2026 98.5939 28.8292 99.8688 28.4205 101.635C27.8893 101.711 28.1257 100.931 28.1159 100.562C27.9255 93.3827 34.9796 85.8198 40.9678 82.5844L46.6077 79.7538C43.3674 79.171 39.5667 78.841 36.2731 79.1221C33.7201 79.34 31.335 80.7745 28.7342 80.5221C32.927 77.2998 38.965 74.6113 44.3144 74.4992C47.0566 74.4417 51.0049 75.731 53.8584 76.0455C55.5868 76.236 57.465 75.8766 59.2459 76.3571C59.3898 75.6684 58.8927 75.6753 58.4896 75.4212C56.8302 74.3753 54.5499 74.0477 52.6815 72.9067C48.4782 70.3397 45.5584 66.6508 39.83 66.6469L37.6732 65.5724L42.1074 64.9827C43.5151 65.5004 44.996 65.1096 46.4224 65.2941C51.723 65.9795 54.7899 70.1959 59.5546 71.7324C59.4475 70.8528 59.0559 69.9586 58.9787 69.0771C58.7862 66.8825 59.7326 60.7188 60.3119 58.4641C60.9036 56.1613 62.8166 53.0874 64.484 51.3882C64.9983 53.678 63.0574 55.8783 62.7117 58.0899C62.3793 60.2165 62.8213 67.2076 63.2881 69.3888C63.5245 70.4936 64.0677 72.4305 65.1008 72.9676C65.0511 71.594 65.4102 70.1906 65.8077 68.8934C67.3524 63.8533 69.9665 61.1852 72.7515 57.0331C75.2857 53.2548 77.9771 48.6565 82.9811 48C81.3638 49.5849 78.8982 51.1899 78.8181 53.544C79.7638 53.086 80.9819 52.0381 82.0549 52.1572C79.3852 54.8139 76.7305 57.1019 75.0229 60.538C73.9735 62.6498 72.7912 65.735 72.6539 68.0336L83.31 57.1118C85.6649 55.2917 96.583 49.23 99.1632 49.23H104.249L98.4932 51.3344C93.9708 53.6952 89.8366 56.8955 86.3718 60.6334C88.2019 60.0742 89.6331 58.6087 91.2975 57.7019C96.6169 54.8037 105.622 51.8163 111.662 52.7594C114.314 53.1735 116.651 54.631 119.042 55.7078C119.105 56.3114 118.445 55.8901 118.122 55.8595C115.214 55.5844 112.304 54.8883 109.419 55.479C109.128 55.5386 106.608 55.997 107.33 56.6269L110.105 57.2453H105.02C103.882 57.2453 100.255 59.0816 99.3175 60.0169C106.373 57.9701 113.555 58.606 120.436 60.9399C123.58 62.0062 130.632 64.4932 132.432 67.1301C132.79 67.6539 134.395 70.6517 132.919 70.5005C130.974 65.6033 123.836 65.6629 119.351 65.1097L129.693 72.3366C132.435 75.4241 135.283 79.7817 134.919 84.0643C131.671 79.8608 127.768 75.4727 123.151 72.7139C122.421 72.278 121.141 71.4903 120.279 71.5789C125.254 76.4786 130.927 82.0647 127.448 89.5562C127.247 89.9901 127.633 90.3975 126.752 90.2299C126.638 89.4665 126.997 88.7578 126.972 88.0057C126.938 86.9576 125.441 82.9151 124.727 81.9272C124.398 81.4719 123.864 80.9382 123.362 80.6748C123.924 81.7975 124.107 83.077 124.592 84.2196C125.656 86.7294 126.547 87.2911 126.27 90.5865C126.185 91.5981 125.517 92.7803 125.517 93.7766C125.517 94.6047 126.992 99.7616 127.548 99.8046C129.31 99.0793 130.671 98.6884 132.518 99.4154C137.594 101.413 140.313 107.032 139.998 112.269C139.941 113.216 139.343 114.665 139.526 115.519C139.814 116.858 141.823 119.591 142.4 121.283C143.374 124.137 143.906 130.203 143.697 133.232C143.391 137.682 137.329 149.969 134.269 153.396C133.553 154.198 132.044 154.838 131.697 156.014C131.828 156.765 138 159.232 139.179 159.957C142.069 161.735 144.528 164.635 147.423 166.52C148.435 169.368 145.027 168.251 143.396 168.687C150.678 174.007 154.701 182.496 159.119 190.112L161.562 184.478C162.845 183.132 165.616 184.333 167.32 184.528C184.438 186.479 200.525 185.76 217.521 183.946C220.837 183.593 224.388 182.843 227.699 182.719C228.486 182.689 231.265 182.425 231.524 183.22L218.372 212.161C218.425 212.817 221.292 213.84 221.973 214.334C224.177 215.934 225.849 219.744 224.836 222.399C224.402 223.536 222.163 225.99 222.043 226.406C221.739 227.465 222.765 229.493 222.884 230.685C223.049 232.34 222.534 234.135 221.635 235.536C221.103 236.366 219.111 237.839 218.954 238.43C218.818 238.945 219.282 240.772 219.23 241.762C219.053 245.097 216.32 247.496 213.413 248.736C213.98 255.951 207.666 258.952 201.341 258.706C200.407 259.153 199.776 262.308 199.487 263.318C205.804 265.423 212.06 265.892 218.294 268.572C227.531 272.543 232.57 275.343 235.037 285.737C237.423 295.79 231.895 314.075 230.294 324.661C229.022 333.072 227.477 341.723 225.908 350.175C225.644 351.597 225.126 353.337 224.514 354.637C223.937 355.863 222.069 357.818 221.995 358.618C221.817 360.534 222.522 363.63 222.299 365.986C222.175 367.286 221.59 368.693 221.414 370.034C221.245 371.328 221.63 373.015 221.242 374.178C220.649 375.958 218.661 375.724 217.596 376.08C215.291 376.849 213.446 377.665 210.966 378.081C210.222 378.206 207.953 377.941 207.815 378.638C208.572 381.875 210.476 380.696 212.897 380.943C216.26 381.287 217.697 383.561 220.455 384.483C227.46 386.823 235.812 388.499 242.644 390.96C245.776 392.088 245.265 392.895 246.961 394.966C248.2 396.48 250.266 397.928 251.574 399.6C254.858 403.798 255.047 408.142 251.275 412.074L254.974 411.771C255.087 411.855 254.806 412.11 254.662 412.227C253.463 413.199 247.844 416.317 246.425 416.628C237.549 418.576 226.835 419.054 217.922 416.919C216.326 416.536 214.153 415.369 212.874 415.186C210.748 414.881 207.794 414.792 205.487 414.559C201.155 414.12 197.013 414.577 192.711 415.161L193.018 417.627C194.129 417.799 195.169 417.38 196.246 417.306C196.645 417.278 197.545 417.093 197.336 417.777L193.05 418.274L192.713 421.325C193.72 421.49 194.758 420.763 195.668 420.735C196.476 420.71 197.378 421.076 198.422 421.034C202.399 420.873 207.145 419.976 211.027 420.432C211.579 420.497 212.354 420.591 212.128 421.324C207.637 421.747 203.234 422.139 198.725 422.248C198.172 422.262 197.559 421.923 196.887 421.93C195.555 421.943 193.756 422.55 192.295 422.347C191.35 422.557 191.66 423.739 191.176 424.26C190.824 424.639 189.943 424.465 189.939 425.021L192.401 425.329C191.689 425.441 190.705 425.628 190.064 425.92C189.705 426.084 189.501 425.771 189.63 426.564C191.534 426.747 193.419 426.804 195.334 426.874C195.707 426.888 196.481 426.643 196.408 427.179C195.41 427.037 194.345 427.748 193.453 427.773C191.47 427.829 188.19 427.082 186.408 427.193C185.604 427.243 182.027 429.004 180.576 429.38C171.562 431.717 160.401 431.414 151.406 429.188C147.306 428.174 140.993 425.171 137.351 424.749C133.707 424.328 129.367 424.679 125.674 424.405C122.374 424.16 119.24 423.504 115.963 423.172C115.891 422.634 116.663 422.882 117.037 422.867C120.968 422.706 124.996 423.256 128.905 423.483C129.058 422.531 128.661 422.991 128.136 422.878C126.487 422.521 124.723 422.455 123.05 422.249C122.71 420.885 124.934 422.328 124.897 421.176C124.412 420.708 123.16 420.44 122.539 420.423C118.912 420.324 114.273 421.519 110.551 421.643C108.722 421.322 106.23 421.729 104.467 421.261C104.22 421.195 103.943 420.986 103.941 420.712C107.08 421.132 110.28 420.036 113.494 420.399C113.552 419.628 113.568 419.871 113.033 419.791C111.993 419.636 110.161 419.868 109.489 418.862C111.769 418.948 113.35 418.146 115.345 417.314L114.885 416.708C113.143 417.696 110.837 417.04 108.874 417.624L109.572 417.012L109.639 416.388C108.258 416.992 106.625 417.348 105.257 417.863C103.615 418.48 102.116 419.747 100.069 419.799C98.8182 419.831 98.9831 419.302 98.3804 419.018C97.0509 418.391 94.4326 420.076 92.8448 419.781L92.9942 418.854C91.6619 418.949 89.8511 419.682 88.639 419.766C87.6664 419.833 86.9032 419.444 85.9272 419.466C84.5295 419.497 82.7411 420.252 81.2815 420.245C81.0185 420.243 80.4233 420.196 80.5169 419.787L83.748 419.166C84.2549 418.756 83.3741 418.825 83.1275 418.846C80.3347 419.089 77.2891 419.996 74.5041 420.03C74.2382 420.033 73.0672 419.933 73.1197 419.479L81.1318 417.931C79.5459 415.816 75.5072 417.947 73.1193 417.623L76.8105 415.93C73.9689 413.261 69.6605 416.48 66.3386 416.704C66.8016 417.55 68.3918 416.618 69.109 416.704C69.1818 417.15 68.5658 417.131 68.2473 417.221C66.3625 417.756 63.9895 417.84 62.023 417.931L67.0939 415.763C68.6488 415.056 71.1081 415.254 72.193 413.929C69.5053 413.967 67.1238 413.458 64.4891 414.233C64.3284 413.315 64.7324 413.745 65.2094 413.584C65.967 413.327 66.9188 413.329 67.2613 412.388C64.5691 412.125 62.2174 412.366 59.5572 412.69L60.1705 411.77C59.0954 410.932 52.0847 413.592 50.9255 411.463C51.7338 411.304 53.0502 411.339 53.3903 410.539C52.9827 409.998 46.0068 410.866 44.7589 410.534L44.7614 409.617L46.6085 408.997C45.341 409.269 44.0453 409.203 42.7658 409.316C42.3869 409.349 42.0382 409.804 41.8325 409.804C41.6254 409.804 41.2735 409.345 40.8985 409.316C38.6927 409.149 36.4482 409.19 34.2831 408.682C34.2094 408.146 34.9842 408.391 35.3564 408.377C44.7754 408.026 48.8972 408.118 58.0747 405.509C63.3073 404.021 68.5954 402.696 73.8579 401.321L74.35 401.9L59.8654 406.216C60.731 406.188 61.613 406.28 62.4801 406.215C66.6126 405.907 71.3275 404.522 75.4224 404.358C75.7612 404.344 76.2812 404.187 76.1978 404.674C75.194 405.193 73.4778 404.973 72.8096 405.908L76.51 405.604C76.7855 403.998 76.2332 402.334 76.1874 400.837C76.0829 397.424 76.7866 382.632 75.6067 380.763C75.0127 379.822 66.1049 377.048 64.4153 376.542C60.3044 375.312 56.0978 374.455 51.9836 373.238L51.5257 373.363C51.0455 373.716 51.1973 377.711 51.2207 378.64C51.3913 385.424 52.9084 392.511 53.5644 399.289C53.5264 399.971 52.151 401.204 53.4159 401.168C56.8178 400.515 60.1117 399.324 63.4857 398.59C65.3528 398.183 68.0982 397.56 69.9135 397.312C70.3671 397.25 72.0079 397.007 72.1908 397.584C70.2769 398.265 68.2279 398.184 66.267 398.597C61.1521 399.674 56.283 401.238 51.4498 402.891C48.0947 404.038 45.5822 404.462 42.2261 405.072C39.9126 405.492 37.5413 406.496 35.326 406.807C35.0049 406.852 34.506 407.024 34.5913 406.531C36.2838 406.146 38.0715 405.427 39.7482 405.06C40.5534 404.884 42.2379 405.419 41.9849 404.371C40.805 404.519 39.6473 404.242 38.4954 404.175C34.7552 403.956 30.3587 403.138 26.3303 402.584C22.6273 402.074 18.8898 403.989 15.1705 404.058C15.4772 403.46 16.6496 403.376 17.2605 403.232C18.585 402.919 21.9574 402.584 22.8794 402.061C23.027 401.977 23.2755 401.665 23.1844 401.598L21.0284 401.29C24.6539 401.444 28.2283 401.121 31.8134 400.667L31.2 400.057C32.958 400.323 34.6788 400.171 36.4369 399.901C34.2844 397.746 34.9713 394.098 34.9108 391.255C34.7589 384.112 35.3454 376.868 34.8941 369.691C34.4164 362.096 32.5406 351.118 33.3386 343.776C33.4139 343.084 33.9482 342.657 33.9622 342.252C33.9782 341.789 33.4455 341.272 33.3725 340.694C33.2202 339.485 33.6594 338.208 33.5738 337.358C32.403 325.719 32.5639 313.098 31.8278 301.237C31.0745 289.099 27.9565 277.105 26.0026 265.137C24.6775 257.02 23.9177 248.692 22.4772 240.609C20.74 230.862 18.1898 221.232 16.4931 211.45C14.7511 201.406 13.5396 191.273 11.8635 181.245C11.5169 179.171 10.3602 174.956 11.4711 173.312C12.2568 172.15 16.2368 170.754 17.7098 170.304C20.7634 169.37 24.1651 168.216 26.8933 170.529C29.0839 172.386 27.7789 173.661 28.7652 175.133C30.3342 177.475 34.7029 174.977 36.6188 174.727C38.7924 174.443 40.9643 174.706 43.2252 173.935C44.2049 173.602 48.9748 170.611 49.6716 169.901C50.9205 168.628 51.6509 166.052 52.9759 164.883C54.9384 163.15 59.1774 162.867 60.4861 161.296C61.6138 159.942 61.0079 157.699 61.7458 156.39C62.2439 155.506 64.7666 154.101 65.4105 152.965C64.3916 152.587 63.2401 152.96 62.1918 152.796C57.5795 152.076 52.6472 150.158 48.7871 147.398C44.1082 144.052 42.6558 137.214 43.2232 131.699C43.3525 130.443 44.2118 129.055 44.1359 128.035C44.0457 126.823 42.7571 124.821 42.432 123.234C42.0796 121.515 41.8732 120.127 41.4546 118.355C41.369 117.992 41.0427 114.432 40.4491 114.895C38.8786 118.728 38.9897 122.34 39.8259 126.299L37.6165 122.502C34.3606 116.341 36.3266 111.212 38.9028 105.339C38.5791 104.995 37.6093 106.169 37.3726 106.426C34.2113 109.846 31.541 114.525 31.0495 119.215C30.8086 119.728 30.2738 119.207 30.2738 119.056C30.2738 117.3 30.0528 114.833 30.2738 113.198ZM99.0076 62.4892C96.6738 63.2207 94.1292 64.3105 92.2281 65.8741L93.6833 65.6369L99.0076 62.4892ZM99.625 66.4963L97.7103 66.5571L94.3872 68.032C96.0285 67.7423 98.4235 67.7329 99.625 66.4963ZM119.044 76.664C116.822 73.6154 112.355 72.5983 109.646 70.1903C108.867 69.4979 108.706 68.7159 107.715 68.1145C106.493 67.3733 104.595 67.3974 103.227 67.7334C102.981 67.7939 103.029 68.3131 102.812 68.3545C102.071 68.4958 100.581 67.7103 99.6271 68.0383L119.044 76.664ZM111.337 78.8234C111.014 79.1526 104.721 75.1113 103.405 74.8907C101.654 74.597 98.046 74.556 96.0937 74.4963C93.2716 74.4101 90.427 74.5848 87.6062 74.5107C87.5389 75.309 87.5578 75.0248 88.0681 75.1166C90.2197 75.5037 92.3054 75.9852 94.321 76.8859L98.0829 77.5888C95.7591 77.6436 93.443 78.0776 91.1334 78.2198C89.08 78.3462 86.8087 78.4354 84.6894 78.5296C80.4644 78.7174 79.8388 77.497 75.5269 79.2307C73.2157 80.16 71.1008 81.6869 68.8027 82.5282C68.1103 83.1578 70.5041 83.4545 70.7912 83.4371C71.5546 83.3907 75.0832 81.5296 76.1888 81.1242C76.4786 81.0179 77.1924 80.7185 77.1224 81.2873C72.1678 83.1754 69.479 87.8302 65.3839 90.6657C63.6153 91.8904 58.3213 93.9151 57.6331 95.5614C57.4455 96.0101 57.5025 97.306 57.0928 97.9383L60.0195 94.5489L59.2503 96.5541C59.8571 97.0906 60.5695 95.3361 61.1066 94.7109C61.8858 93.8038 63.0211 92.4448 62.7901 94.5453L66.9516 91.1578C64.8179 95.6417 62.6981 100.019 62.0244 105.029C63.9748 103.099 64.4775 99.701 65.8785 97.314C66.1133 96.9139 65.8239 96.5372 66.6438 96.7073C66.8697 96.9805 64.4469 102.409 64.2133 103.368C63.8109 105.02 63.1662 108.471 63.0115 110.133C62.9862 110.404 63.1756 112.831 63.8678 112.12C64.203 111.134 63.9085 109.355 64.7924 108.73C64.4416 111.347 64.4171 113.663 64.8029 116.28C64.8821 116.817 64.6412 116.799 65.4104 116.742C65.1433 111.325 65.9086 104.501 69.7242 100.405C68.8187 103.099 68.6032 106.024 68.4796 108.868C68.4447 109.671 68.4621 110.546 68.4942 111.352C68.5092 111.725 68.262 112.498 68.7991 112.426C69.3807 110.245 69.9721 107.692 70.6772 105.575C70.7589 105.329 71.2026 105.343 71.26 105.121C71.4196 104.505 70.8292 103.6 71.8832 103.797C71.5367 106.083 72.0558 108.389 71.8811 110.728C71.5534 115.116 69.6733 118.001 70.4219 122.677C70.713 124.495 71.7003 126.116 71.2653 128.148C70.4874 127.562 70.2255 126.512 69.3495 125.907C68.5819 125.378 67.7631 125.416 67.1458 125.029C63.491 122.732 62.3162 121.075 57.3237 121.756C54.0161 122.206 47.4624 127.405 46.9359 130.788C46.3755 134.388 47.204 139.137 48.8364 142.416C49.6994 144.15 55.1932 147.163 57.0723 147.743C59.5139 148.498 65.8136 149.369 68.3067 149.097C68.8949 149.033 70.2957 148.499 70.7638 148.146C70.9563 148.001 72.9083 145.866 72.9712 145.715C73.2555 145.03 72.3769 143.348 72.4906 142.496L72.8057 139.559C73.2585 140.689 73.3798 142.428 74.0839 143.396C74.4964 143.963 74.8093 143.487 74.9828 143.742C75.4734 144.463 77.1136 148.532 77.4937 148.771C77.6137 148.846 80.0916 148.474 78.0427 150.225L78.3426 151.441L79.2809 151.578C78.5139 148.184 80.1661 150.94 80.9255 151.477C81.5167 151.896 82.6223 152.038 83.138 152.813C83.3675 152.895 83.1199 151.793 83.9022 152.196C83.8267 153.222 84.6623 153.706 85.2944 154.353L85.5981 153.729L86.3733 154.663L87.6026 154.355C87.8567 155.635 86.3401 155.735 86.1338 155.964C86.0515 156.055 85.6825 157.973 85.7543 158.051L88.5415 158.541C89.0219 157.566 89.3635 156.518 89.9206 155.579C90.1553 155.184 89.8637 154.801 90.6854 154.972L89.5948 158.677C92.3288 160.486 91.717 157.604 93.4579 156.512L92.5366 159.591L94.5082 160.187L96.8484 157.128C97.0173 158.243 95.258 159.604 95.7513 160.522C96.0058 160.995 99.136 162.366 99.794 162.385C102.216 162.457 101.089 160.365 101.365 159.05C101.621 157.831 102.886 155.879 103.627 154.816C103.619 154.398 99.0513 153.21 98.183 152.868C94.2991 151.336 88.6774 148.863 85.0223 146.917C84.2493 146.506 82.7301 145.701 82.5295 144.834C82.4417 144.455 82.7951 143.998 82.5317 143.576C81.4209 141.799 76.5057 141.83 78.9118 137.49C80.3377 134.917 82.6521 137.109 84.3858 137.381C85.3398 137.531 86.3308 137.227 87.3129 137.536C88.1077 137.786 88.5089 138.662 89.1799 139.06C93.9303 141.874 99.4686 143.885 104.554 146.032C104.521 145.49 104.504 145.102 104.869 144.646C105.638 143.683 112.353 139.385 113.738 138.719C117.102 137.101 123.162 135.396 126.83 135.93C128.328 136.149 130.069 137.152 131.687 137.239C132.584 138.894 129.813 138.684 128.739 138.643C124.633 138.486 122.375 137.886 118.193 139.167C113.855 140.496 109.053 143.359 105.796 146.493L110.241 148.499C113.118 146.741 116.307 144.978 119.503 143.868C122.188 142.936 124.37 142.172 126.592 144.493C128.987 146.995 127.982 149.931 127.06 152.811C127.957 153.658 132.35 149.941 133.072 149.116C135.024 146.883 138.807 138.842 139.606 135.922C141.422 129.283 139.679 120.279 134.916 115.204C134.155 122.877 128.675 128.117 121.218 129.553C118.044 130.164 112.682 130.412 109.781 128.937C106.623 127.332 103.667 124.676 107.487 121.684C108.287 122.294 107.484 122.897 107.763 123.841C108.283 125.597 111.957 126.105 113.355 125.08L115.962 123.221L115.052 124.62L112.881 126.297C114.146 126.492 116.057 126.91 117.286 126.546C118.816 126.092 121.09 121.645 121.664 120.132C122.875 120.179 119.445 125.898 119.044 126.297C119.408 126.572 122.078 125.613 122.434 125.221C122.85 124.763 122.712 124.111 122.989 123.618C123.532 122.651 124.243 121.752 124.748 120.753C125.01 122.019 124.102 123.857 123.361 124.915C123.381 125.208 123.87 125.092 124.073 125.011C125.974 124.252 127.663 118.415 127.986 116.437C128.539 116.368 128.283 117.128 128.252 117.473C128.072 119.482 127.263 121.396 126.442 123.214C126.869 123.561 128.314 122.172 128.599 121.83C130.825 119.173 132.004 113.874 130.919 110.567C130.596 109.583 129.62 108.344 128.685 107.872C127.14 107.093 121.334 106.493 119.494 106.557C116.284 106.67 113.22 107.629 110.107 108.11C109.176 107.209 113.162 105.417 113.811 105.19C117.747 103.807 121.748 104.096 125.825 104.409C123.484 101.059 123.496 96.7782 122.268 93.0184C120.381 87.2402 116.242 81.9215 112.263 77.4508L110.722 77.2867L111.337 78.8234ZM52.466 81.2879C52.2996 80.6156 52.0315 80.863 51.6165 80.8723C49.4127 80.9213 45.1716 82.775 43.2108 83.915C42.8071 84.1497 42.4351 83.8634 42.606 84.6821L52.466 81.2879ZM58.3227 84.9937C53.041 85.2621 51.1839 89.6776 47.9653 92.9742C47.0905 93.8702 45.7208 94.5884 45.0689 95.7774L52.3121 91.7726C53.8475 90.438 54.7265 88.0382 56.1637 86.6847C56.8555 86.0331 57.9052 85.9192 58.3227 84.9937ZM136.303 112.427C137.933 108.694 133.919 101.343 129.701 101.958C128.419 102.145 126.97 103.837 127.715 104.989C127.798 105.117 130.019 105.67 130.606 105.95C131.718 106.483 133.482 107.872 134.103 108.927C134.77 110.062 134.673 112.221 136.303 112.427ZM43.2163 115.509C43.2005 112.388 43.2218 109.152 44.4493 106.262C41.7994 107.947 42.3573 111.011 42.6408 113.777C42.6767 114.127 42.7811 115.471 43.2163 115.509ZM82.3507 140.469L82.8512 138.933C82.3807 138.512 81.3591 138.049 80.805 138.455L80.5778 139.809L82.3507 140.469ZM86.6799 139.251C85.1348 138.356 83.1837 141.867 84.3714 142.328C85.0601 142.595 84.9852 142.314 85.2159 141.939C85.7351 141.096 85.9823 140.022 86.6799 139.251ZM108.256 149.733L88.3181 140.837L87.0265 142.223C86.866 142.824 87.1102 142.554 87.3834 142.708C87.9429 143.024 88.6495 143.344 89.2431 143.621C93.5503 145.631 98.0465 147.351 102.4 149.266C104.123 150.024 107.278 153.004 108.256 149.733ZM99.009 150.96C98.3312 150.192 96.9427 149.646 95.9925 149.202C92.7225 147.671 89.3207 146.364 86.0653 144.798C85.5498 145.237 87.6085 146.207 87.7962 146.303C91.3595 148.119 95.3166 149.421 99.009 150.96ZM122.126 148.493L124.568 146.449C123.366 143.653 121.486 145.723 119.604 146.436C115.633 147.941 112.802 149.074 109.629 152.181C105.369 156.352 105.025 162.159 103.089 167.541C103.666 173.17 104.615 178.759 105.633 184.264C106.717 190.126 107.035 195.957 111.647 200.285C110.263 200.229 109.121 198.91 108.265 197.968C107.879 197.544 107.26 195.865 106.719 196.281C106.623 196.784 106.508 197.363 106.228 197.797C102.617 203.406 97.6683 209.381 93.3114 214.473C91.421 216.682 89.3028 218.692 87.3595 220.851C86.9514 225.289 87.7552 229.343 89.4979 233.384C90.7907 236.382 95.102 244.006 98.6003 244.304C99.1423 244.35 100.437 243.383 100.856 242.982C104.537 239.449 111.132 228.594 113.452 223.827C114.925 220.801 115.966 217.542 117.354 214.474C117.905 213.258 121.794 206.523 121.193 205.844C121.045 205.677 120.082 206.202 120.279 205.378C126.75 202.124 129.513 195.684 126.574 188.898L123.663 189.348C122.557 188.723 125.887 188.226 125.514 187.498C125.186 186.858 122.897 186.839 123.053 185.492C124.544 185.211 126.067 185.927 127.486 185.78C128.999 185.624 130.295 184.397 131.68 183.95C132.049 185.432 129.143 186.458 128.942 187.245C129.533 191.013 131.135 190.472 132.865 187.752C133.638 186.536 134.828 182.55 134.638 181.171C133.794 175.045 125.148 177.817 121.077 177.78C120.122 177.665 118.864 176.659 119.046 175.627C121.743 176.428 124 175.35 126.599 175.012C129.004 174.699 132.355 176.024 131.61 172.459C131.047 169.762 127.785 168.746 125.355 168.828C123.013 168.906 117.255 171.065 115.678 170.209C115.201 169.95 114.849 169.352 114.427 168.997C114.412 168.336 117.22 168.563 117.886 168.456C120.879 167.972 123.806 166.273 127.012 166.642C127.785 164.154 126.251 160.54 123.243 160.549C119.364 160.56 115.263 163.324 111.728 163.836C110.966 163.946 110.044 164.166 109.495 163.448C109.5 163.018 113.176 162.124 113.796 161.59C114.761 160.758 115.694 158.147 117.183 156.962C118.095 156.236 119.556 155.78 120.559 155.098C122.945 153.476 125.386 150.992 125.207 147.881L122.126 148.493ZM82.36 154.969L82.5443 153.417L79.5923 151.581C79.1387 152.085 81.5447 155.51 82.36 154.969ZM103.321 190.114L102.572 184.855C101.099 184.343 99.9112 184.7 98.3089 184.187C93.9513 182.791 93.3262 180.139 90.8446 177.163C86.6669 172.153 79.9355 168.546 76.8749 162.157L72.1962 153.121C72.1693 158.158 74.8478 162.686 76.5052 167.302C74.6666 165.126 73.1754 162.043 72.4979 159.288C72.0435 159.374 71.6925 160.71 71.6441 161.06C71.4697 162.319 72.5173 165.302 72.9764 166.672C74.2091 170.351 76.2671 175.455 77.9969 178.915C78.9684 180.858 80.3199 182.352 81.1364 184.256L81.7684 184.076C82.7188 180.813 86.7055 177.558 90.2058 178.113C90.8634 178.217 92.2598 178.91 91.4196 179.659C89.6679 180.696 87.4115 180.974 86.1038 182.624C86.0108 182.893 86.0309 183.151 86.1069 183.421C86.1755 183.664 88.853 186.843 89.2955 187.344C91.8125 190.196 94.7424 192.715 97.4679 195.352C94.7319 194.277 92.6722 192.006 90.3586 190.289C89.351 189.541 88.0507 188.868 87.0139 188.085C86.3158 187.558 85.1912 185.714 84.3732 186.728C84.1578 187.241 83.8777 187.837 83.9161 188.401C83.9778 189.307 86.7946 193.915 87.4745 195.023C89.1325 197.726 92.9833 203.918 95.0059 205.987C95.2978 206.286 95.4123 206.569 95.921 206.451C98.5358 201.773 105.77 197.331 103.346 191.172C99.5715 191.268 96.3192 189.076 93.3641 186.975C92.8787 186.63 91.8094 186.171 91.9219 185.491C95.9839 186.465 99.2056 189.546 103.321 190.114ZM85.449 154.664L83.7509 154.052L83.0363 156.454L84.3681 157.431L85.449 154.664ZM68.4057 156.754C68.681 156.242 68.4375 155.892 68.0319 155.593C67.5929 155.964 67.3522 156.423 67.2839 156.997C67.2474 157.303 67.2369 159.042 67.252 159.424C67.3226 161.21 67.9236 163.288 67.875 165.144C66.2818 164.267 66.9808 159.11 66.498 158.361C65.9987 157.585 65.1584 159.185 65.0877 159.733C64.5479 163.917 65.3041 169.333 65.4261 173.637C65.4974 176.155 65.1213 178.931 65.4172 181.632C65.5754 183.076 65.8245 186.409 67.1885 186.95C68.4498 187.451 75.2036 188.514 75.4492 188.86C75.7269 189.25 75.6046 190.029 75.5118 190.502C75.1158 192.52 72.8501 196.074 72.0062 198.126L72.036 199.034C75.3583 202.652 78.3986 207.067 81.895 210.468C82.9204 211.466 85.4186 213.719 86.5227 214.469C86.8771 214.71 87.6269 215.101 88.0266 215.021C88.3472 214.958 92.262 210.763 92.5632 210.313C92.7976 209.963 92.8306 209.971 92.7236 209.535C92.5662 208.895 90.1803 204.821 89.647 203.948C87.5709 200.55 84.7811 197.305 82.7338 193.907C78.7289 187.26 75.1866 179.73 72.3419 172.548C70.6203 168.201 67.6696 162.029 67.8426 157.27C67.8631 156.707 68.3572 156.844 68.4057 156.754ZM138.709 165.081C138.791 165.032 139.726 163.579 139.697 163.455L124.432 155.663L123.051 156.517C122.785 156.903 126.311 158.096 126.853 158.412C127.412 158.738 127.758 159.326 128.385 159.655C128.992 159.973 138.888 163.984 138.154 164.524C135.186 164.567 132.56 162.267 129.98 161.449C129.823 161.399 129.477 161.364 129.525 161.597C129.834 161.906 130.1 162.259 130.476 162.496C131.342 163.04 135.101 164.404 136.241 164.745C136.828 164.92 138.223 165.369 138.709 165.081ZM88.8345 167.918C87.9465 166.782 86.3385 166.104 85.4332 165.312C84.3599 164.372 82.2821 161.125 81.5899 160.83C81.2105 160.669 81.0111 160.9 81.1353 161.285C83.5317 164.005 85.2125 168.186 87.7914 170.66C89.2625 172.072 90.9399 172.686 92.3564 174.418C94.3961 176.911 94.6796 180.529 98.0076 181.405C99.0868 181.689 100.507 181.515 101.624 182.099L101.973 181.457C101.656 180.019 101.188 178.352 100.942 176.929C100.316 173.309 99.0401 168.871 100.24 165.453C99.1097 165.746 98.068 165.993 96.93 165.511L96.2345 165.92C95.9941 166.883 98.7685 169.035 97.9318 170.383C96.2201 169.436 94.8299 165.398 93.3614 164.775C92.9841 164.615 92.6226 164.509 92.5348 164.997C92.4407 165.52 97.6331 172.731 97.4649 174.392L87.4023 163.034L86.3733 162.679C86.333 164.758 88.4126 165.987 88.8345 167.918ZM84.1175 161.544L82.9832 161.288C83.9611 162.598 84.6146 164.256 86.0604 165.144L84.1175 161.544ZM65.5662 222.484C63.4371 222.588 61.2319 222.484 59.0933 222.484C58.8775 222.484 55.9639 221.583 55.5481 221.406C54.9456 221.149 54.045 220.6 53.6994 220.021C57.2572 221.785 60.8786 221.041 64.6328 221.577L73.5851 221.244L73.7331 220.639C70.8676 219.03 67.558 219.579 64.3699 219.056C59.2775 218.22 54.7608 216.242 50.9268 212.772L57.1804 216.074C61.6602 217.394 66.1555 218.399 70.8406 218.753C71.3023 218.788 71.6972 219.005 71.574 218.326L54.3184 201.671C54.5061 200.266 56.2342 202.946 56.8075 203.19L70.3422 212.309C69.5873 210.25 68.5115 208.354 67.3898 206.479C63.2551 199.568 55.1902 190.182 46.7588 188.931C45.8241 188.793 43.123 189.991 42.9127 189.804C43.0222 188.552 45.1915 187.558 46.2274 187.405C46.6837 187.337 49.2828 187.361 49.7698 187.413C52.3506 187.689 56.2998 190.98 58.4681 192.589C60.5235 194.115 62.4173 194.823 64.1708 196.751C66.4563 199.264 68.2974 202.574 70.8088 204.934C71.0559 205.166 71.4323 204.858 71.5925 205.092C72.3559 206.205 74.2935 210.595 74.808 212.007C75.2994 213.357 75.5628 215.647 76.0679 216.605C76.1325 216.727 77.6259 218.571 77.7366 218.642C78.59 219.193 80.9626 216.422 82.0638 216.157C82.0522 215.763 81.403 214.986 81.1228 214.632C77.6923 210.297 73.0544 206.426 70.1636 201.855C69.5249 200.845 68.0576 200.291 68.5478 198.661C68.6629 198.279 69.1822 198.003 69.3487 197.597C69.8778 196.307 70.9329 193.546 71.1455 192.276C71.2303 191.769 71.2515 191.398 70.9857 190.933C68.9325 189.837 67.1634 191.536 64.9484 190.116C62.8451 188.767 63.8269 187.303 63.5378 185.361C63.0391 182.011 62.433 179.945 62.3162 176.408C62.2036 173.003 62.7138 169.097 61.8039 165.809C61.6876 165.389 61.8796 165.014 61.2543 165.142C59.7987 167.309 56.3616 167.557 54.3337 169.323C50.8091 172.393 45.3142 181.314 42.9025 185.636C40.1827 190.509 39.3059 195.782 38.9081 201.37C38.765 203.379 39.166 203.374 39.5062 204.517C39.9848 206.124 39.6416 208.351 39.8546 209.973C40.2052 212.642 41.6861 215.89 41.6802 218.786C42.9014 219.116 41.5954 217.158 42.5995 216.937C42.599 217.765 43.0538 218.479 43.1945 219.272C44.582 227.094 45.2441 232.215 48.3095 239.743C50.4469 244.992 57.1373 259.366 62.164 261.671C62.9577 262.034 63.4587 261.665 64.0485 261.898C64.6761 262.146 64.652 262.687 65.2238 262.926C66.44 263.435 73.5963 265.061 74.8236 265.038L81.4391 262.556C81.6663 261.604 80.2277 262.009 79.3648 261.707C77.1224 260.921 74.9484 256.202 74.6618 253.929C76.8982 256.277 77.9584 261.905 82.3633 259.938C80.2573 258.699 78.9977 256.646 77.8887 254.552C74.5625 248.271 73.3767 239.863 73.7214 232.798C73.8502 230.16 74.4288 227.524 74.9641 224.95C70.7606 227.517 69.9733 233.507 70.024 238.066C70.0662 241.855 71.167 246.618 70.8412 250.333C70.7866 250.956 70.4755 252.762 69.7721 251.572L68.806 246.223C68.1219 248.446 68.7733 250.933 68.4817 253.143C68.4203 253.608 67.9093 253.965 67.8895 254.389C67.8518 255.195 68.853 255.585 68.8011 256.393C66.1792 256.45 65.8755 253.023 65.7241 250.996C65.3596 246.115 66.5984 240.853 67.2583 236.048C63.6842 240.53 60.6784 246.539 61.4034 252.386C59.9374 251.981 59.3839 249.564 59.2531 248.22C58.2199 237.599 64.108 234.765 69.4281 227.805C69.8786 227.216 70.1488 225.935 70.6519 225.262C70.1 225.248 69.5435 225.226 68.9909 225.293C67.0623 225.528 58.7292 231.039 56.8083 232.53C56.038 233.127 54.4512 235.3 54.1573 235.429C53.7696 235.6 53.6206 235.391 53.7134 234.986C54.0251 233.626 56.8174 229.77 57.856 228.645C60.0594 226.258 63.2185 223.703 66.3364 222.788L66.1762 222.169C65.8926 222.2 65.6594 222.479 65.5662 222.484ZM147.706 198.436C148.179 196.278 148.463 194.012 148.633 191.808C149.395 181.881 148.067 174.467 139.178 168.898C137.976 168.146 133.094 166.639 131.692 166.511C129.535 166.315 132.141 167.846 132.62 168.367C135.136 171.105 134.19 172.864 135.231 175.312C135.448 175.823 137.294 177.268 137.839 177.944C141.263 182.189 138.848 182.059 136.613 185.941C138.62 187.343 141.813 189.519 142.065 192.158C142.144 192.984 141.6 194.294 141.55 195.206C141.142 202.669 140.949 210.227 140.607 217.693C140.338 223.596 141.026 228.821 142.473 234.505L147.404 222.024L144.313 225.405C143.523 225.728 142.426 225.787 142.089 224.87L142.165 209.538L143.01 211.925C143.621 215.552 143.73 219.131 143.396 222.793C144.465 223.048 144.413 222.15 145.077 221.547C145.46 221.199 146.785 219.981 147.106 219.855C147.612 219.658 148.158 220.116 148.307 220.014C148.446 219.919 149.662 217.173 149.722 216.944C150.818 212.726 147.761 206.203 146.627 202.141C144.697 195.23 144.234 187.884 141.546 181.176C142.243 180.971 142.495 182.202 142.674 182.664C144.371 187.068 145.337 191.701 146.703 196.207C146.893 196.834 147.133 198.107 147.706 198.436ZM30.7776 208.504C31.0414 208.015 31.4796 207.232 31.4536 206.693C30.044 201.425 29.5654 195.97 28.6963 190.613C28.5186 189.518 28.0411 188.389 27.885 187.417C27.1829 183.048 27.3083 176.903 25.3589 172.988C24.1693 170.599 20.9152 171.156 18.8655 172.074C18.2896 172.557 18.8283 175.842 18.9533 176.623C19.6333 180.869 20.7909 185.395 21.6037 189.692C27.2875 219.736 32.9493 249.915 37.4469 280.203C38.1624 285.022 38.5573 289.891 39.25 294.738C39.3507 295.443 39.4352 296.797 40.1338 297.088C40.0092 295.984 41.0064 295.644 41.4978 294.904C42.0386 294.089 42.3627 293.108 42.7825 292.489C43.2546 291.793 44.9962 290.308 45.0427 289.56C45.0834 288.905 44.5684 287.292 44.4559 286.449C43.9439 282.608 42.7721 278.934 42.2963 275.044C39.9361 255.748 36.5438 236.5 33.1263 217.319C32.7097 214.981 32.5298 212.503 32.1216 210.154C31.5865 210.046 31.4877 210.296 31.2551 210.692C30.8654 211.357 31.6678 216.756 31.8546 217.974C32.1671 220.014 32.7275 221.992 33.0447 224.024C32.5644 223.965 32.3863 222.894 32.2724 222.488C31.5521 219.926 30.7692 216.247 30.3567 213.615C30.1868 212.531 29.7702 210.335 29.9597 209.371C30.0952 208.681 30.6543 208.732 30.7776 208.504ZM41.0618 177.17C37.1146 177.892 33.0545 177.522 29.1748 178.686C29.1266 184.484 30.5998 190.249 31.5097 195.972L34.1343 193.822C35.3318 192.122 36.5731 190.154 37.0491 188.103C37.2697 187.153 35.6893 188.467 36.1328 187.498C36.3919 186.932 37.674 186.523 37.36 185.49L36.1322 185.955L40.442 179.474C40.5105 178.043 39.0057 180.524 38.907 179.175L41.0618 177.17ZM152.021 211.384L157.509 195.255L152.399 185.887L150.179 182.717C150.624 184.498 150.342 186.321 150.489 188.105C150.771 191.544 151.01 193.757 150.789 197.356C150.608 200.293 149.463 203.283 150.796 206.144C151.505 206.341 151.555 205.684 151.815 205.177C153.583 201.726 153.856 197.734 154.504 193.975C154.599 193.423 154.169 193.055 155.105 193.199C154.771 197.417 153.79 201.463 152.388 205.429C151.459 208.059 150.723 207.455 151.624 210.713C151.711 211.03 151.566 211.475 152.021 211.384ZM197.628 224.937C196.536 216.139 208.688 214.812 214.748 212.617C215.258 211.238 216.464 210.04 217.122 208.826C217.909 207.373 218.29 205.799 218.949 204.488C222.172 198.08 225.543 191.743 228.768 185.335C228.351 184.672 228.234 185.079 227.921 185.089C224.458 185.204 221.201 186.249 217.796 186.687C203.927 188.474 186.771 188.879 172.817 187.97C171.421 187.88 163.983 186.46 163.478 186.775C161.801 192.406 160.176 198.066 158.337 203.672C151.427 224.743 141.44 246.617 131.226 266.266C130.415 267.825 128.804 269.769 128.149 271.204C127.96 271.618 127.938 271.982 127.983 272.424C132.257 272.048 136.497 271.733 140.771 271.497C156.733 270.618 172.049 269.819 187.851 267.102C189.978 266.736 192.139 266.284 194.242 265.787L197.945 257.164C194.7 255.256 190.801 252.384 189.625 248.688L178.841 254.85C181.849 252.321 185.722 250.761 189.017 248.539L189.319 246.531L174.693 254.867L173.602 255.009C176.16 253.257 179.062 252.068 181.709 250.477C183.185 249.59 188.637 246.296 189.463 245.285C189.695 245 190.428 243.841 190.093 243.449C188.381 244.411 186.457 245.549 184.692 246.371C184.282 246.561 182.427 247.541 182.234 246.842L190.242 242.364C190.343 241.229 189.037 242.579 188.705 242.061C188.904 241.739 189.551 241.732 189.634 241.379C189.949 240.04 189.797 238.437 190.33 236.904C190.702 235.832 191.768 234.716 191.955 233.897C192.227 232.704 191.726 230.874 191.756 229.727C191.83 226.884 194.957 224.872 197.628 224.937ZM139.076 229.574C138.358 226.412 137.673 222.813 137.834 219.542C137.932 217.553 138.592 215.359 138.729 213.35C139.192 206.54 138.702 199.565 139.692 192.765C139.271 190.927 137.716 189.741 136.159 188.88C135.02 191.205 133.513 192.56 131.434 194.029C131.384 195.447 130.452 198.017 130.444 199.204C130.431 201.172 132.121 204.656 132.516 207.006C133.779 214.514 134.803 219.467 137.526 226.658C137.881 227.595 138.252 229.024 139.076 229.574ZM18.2493 196.586C18.5283 194.913 18.6558 192.022 17.3312 190.731L17.3657 192.698L18.2493 196.586ZM32.1247 199.053C32.7033 199.729 35.5968 195.395 34.8941 194.43L31.9417 196.577L32.1247 199.053ZM20.0982 203.06L20.2705 201.825L19.1806 197.206C19.1568 198.5 19.1386 199.8 19.3372 201.077C19.4077 201.53 19.6356 202.883 20.0982 203.06ZM32.7429 202.754C33.9742 201.898 34.032 200.076 33.9695 198.746C32.1535 199.746 32.2557 200.929 32.7429 202.754ZM18.2509 200.595C17.7805 200.031 17.7754 200.482 17.7003 200.979C17.5952 201.676 18.5434 205.343 18.7988 206.375C18.9 206.784 19.0363 207.932 19.4825 207.993L18.2509 200.595ZM127.054 204.913C124.591 205.654 124.966 210.067 124.508 212.381C123.844 215.743 122.948 219.1 122.431 222.482C121.902 222.559 122.105 221.752 122.131 221.412C122.407 217.85 123.564 214.072 123.515 210.462L116.004 226.721C115.851 227.811 117.698 228.588 118.119 229.571C117.046 229.622 116.217 228.708 115.5 228.039C113.149 230.35 117.901 231.925 119.044 233.579L113.807 230.501C112.83 232.323 114.48 232.62 114.726 234.198L113.034 232.355L111.975 234.008L115.651 237.44L115.195 237.895L112.266 235.432L114.591 241.273C117.681 243.948 121.219 246.418 125.206 247.459C125.262 248.02 124.184 247.771 123.856 247.729C121.213 247.388 118.172 246.16 115.965 244.68C115.42 245.445 118.688 252.699 119.032 254.095C119.79 255.029 123.307 255.755 124.48 255.758C125.798 255.761 133.55 252.279 134.441 251.293C134.718 250.986 137.84 244.595 137.841 244.201C137.843 243.06 135.83 243.911 134.916 243.888C129.312 243.749 122.144 241.404 118.43 237.125C118.674 236.662 119.23 237.17 119.517 237.271C121.049 237.811 122.551 238.768 123.983 239.278C126.525 240.185 133.504 241.586 134.327 237.915C134.67 236.387 134.099 236.308 133.702 235.149C133.22 233.742 132.367 232.176 131.88 230.455C130.721 226.35 130.63 221.977 129.521 217.86C128.941 217.982 128.962 218.469 128.9 218.931C128.448 222.256 128.455 225.697 127.885 229.018C127.82 229.399 127.831 230.51 127.369 230.498C127.584 223.684 128.41 216.854 127.994 209.987C127.957 209.371 127.342 205.127 127.054 204.913ZM24.4143 224.024C24.2153 219.038 22.697 214.133 21.792 209.23L21.3383 208.305L21.7216 211.77L24.4143 224.024ZM220.665 217.337C217.229 213.646 208.08 217.156 204.215 219.038C202.014 220.11 199.393 221.414 200.511 224.391C200.695 224.881 201.359 225.979 201.86 226.127C202.365 226.276 204.749 226.459 205.49 226.504C209.894 226.774 221.105 226.867 221.933 221.015C222.08 219.977 221.348 218.07 220.665 217.337ZM21.0237 217.243C20.4868 217.26 20.3798 217.036 20.4789 217.631C21.1499 221.66 22.129 225.593 22.7578 229.613L23.7978 232.964L21.0237 217.243ZM104.791 252.934C102.937 254.559 98.6369 252.415 97.0057 251.154C89.5154 245.362 83.0334 230.724 84.6065 221.489C84.7508 220.642 85.0191 219.69 85.4386 218.935L84.6894 218.479C81.8459 220.107 79.2044 220.981 77.6854 224.124C73.9673 231.816 76.7798 250.08 82.3722 256.541C83.1088 257.392 84.5653 258.82 85.7537 258.708C84.1525 256.903 83.0099 254.934 82.278 252.628C81.1911 249.204 80.4634 244.852 80.2102 241.291L83.2852 250.079C84.9968 253.508 86.6822 257.636 90.8383 258.555L87.1414 252.696L84.5254 242.522L86.6704 247.002C88.9322 250.318 92.3127 257.755 97.2628 257.219C97.3988 257.204 99.1967 256.545 98.7014 256.09C94.9127 255.046 92.0343 251.174 90.3788 247.766C91.5448 247.702 91.7749 249.138 92.2382 249.688C94.5149 252.394 96.7626 254.263 99.8451 256.055C101.263 255.352 103.704 255.237 104.959 254.485C105.714 254.032 107.174 251.562 107.313 250.673C107.749 247.876 107.264 243.528 107.019 240.675C106.621 240.684 106.211 241.875 106.17 242.132C105.792 244.509 106.269 246.328 105.092 248.759C104.902 249.151 104.256 250.393 103.633 250.226C104.181 249.271 104.454 248.075 104.552 246.988C104.588 246.584 104.814 245.075 104.252 244.99C104.133 247.265 103.465 249.195 102.086 250.996C101.995 251.678 102.203 251.363 102.543 251.47C103.263 251.698 104.146 251.655 104.873 251.919C105.298 252.119 104.96 252.785 104.791 252.934ZM47.5317 286.299C47.7117 284.613 47.6313 282.948 47.8897 281.26C48.3634 278.165 49.2417 276.205 49.073 272.891C48.7733 267.002 46.535 260.037 45.8296 253.938C45.5399 251.434 45.6935 248.291 45.3501 245.786C45.1346 244.214 43.492 241.367 42.8998 239.605C40.9107 233.685 39.6707 227.605 38.537 221.464C38.3408 220.704 36.6143 220.756 36.2585 221.236C36.8434 226.456 37.7684 231.806 38.6856 237.038C40.9264 249.821 42.7871 262.503 44.7979 275.317C45.1952 277.849 45.9764 283.538 46.841 285.619C47.0312 286.077 46.6546 286.455 47.5317 286.299ZM198.488 227.184C194.429 227.091 191.78 231.683 196.557 234.205C201.489 236.81 211.927 238.447 216.97 235.803C219.609 234.421 220.55 229.947 218.027 228.193C214.055 228.962 210.184 229.494 206.106 229.279C204.752 229.207 202.475 228.983 201.207 228.63C200.223 228.357 198.856 227.192 198.488 227.184ZM193.832 235.78C192.863 235.965 192.239 238.683 192.404 239.581C192.628 240.8 194.074 241.159 194.845 241.775C199.136 245.205 202.72 247.248 208.545 246.799C210.121 246.677 214.188 245.96 215.031 244.653C215.745 243.546 217.248 240.099 215.306 239.497C207.695 240.464 200.605 239.334 193.832 235.78ZM119.967 262.559L116.519 256.916C115.913 252.094 112.993 248.083 112.489 243.375L110.109 238.206C110.63 241.202 110.349 244.261 110.417 247.297C110.455 249.024 111.163 252.263 110.572 253.931C110.009 255.519 105.174 258.942 105.18 259.324C106.611 261.141 119.078 263.332 119.967 262.559ZM197.026 247.146C197.546 247.305 197.08 247.915 196.965 248.159C196.508 249.126 195.768 250.043 194.562 249.919C194.372 249.746 196.341 246.937 197.026 247.146C196.342 246.826 193.27 244.644 192.904 244.703C190.636 247.054 192.355 247.527 193.629 249.157C195.605 251.685 197.316 253.881 200.65 254.773C202.731 255.33 203.084 254.742 204.617 254.641C205.457 254.585 206.067 255.082 207.216 254.715C208.68 254.248 209.564 252.02 210.537 250.955C210.305 248.787 207.477 249.804 205.828 249.596C203.314 249.279 199.371 248.244 197.026 247.146ZM133.221 253.314C131.074 254.026 128.387 256.256 126.215 256.628C124.732 256.883 122.686 256.53 121.179 256.263C120.783 256.193 119.455 255.245 119.68 256.217C120.379 259.243 123.523 261.706 126.442 262.249C124.135 260.377 127.006 259.259 127.376 260.872C127.63 261.977 126.507 261.285 126.752 262.251C130.076 262.025 129.244 261.44 130.295 259.17C130.622 258.462 133.452 253.546 133.221 253.314ZM108.256 263.18C105.255 263.637 100.424 256.316 100.857 263.179C100.348 262.918 99.8263 262.769 99.6257 263.482C102.347 263.565 104.736 264.275 107.469 263.778C107.838 263.711 108.199 263.608 108.256 263.18ZM95.9203 263.179C96.1981 262.982 96.3977 261.481 95.4693 261.631C94.5253 262.527 92.4423 262.77 91.632 263.352C88.6603 265.486 84.4952 273.644 81.7554 276.903C77.5642 281.888 73.9444 283.068 69.2653 286.607C67.6062 287.861 65.5715 292.268 64.2034 288.962L70.3436 276.744C66.5026 278.174 64.2239 281.755 62.6341 285.371C62.0682 285.445 62.3844 284.734 62.4635 284.43C62.7218 283.437 63.4119 282.662 63.5596 281.674C63.4332 281.521 60.9766 284.151 60.1741 283.68C61.6924 281.516 64.4297 280.254 65.8632 277.963C66.2663 277.319 66.2257 276.624 66.5185 276.152C67.674 274.291 69.0142 272.527 70.0354 270.579C69.5114 270.479 69.1388 270.721 68.6991 270.935C64.9275 272.766 64.6176 275.478 62.7499 278.857C61.8087 280.56 60.3553 282.282 59.86 284.14C59.2979 284.163 59.2177 284.295 59.2467 283.683C59.3723 281.028 61.9717 277.945 62.9446 275.51C60.6018 275.97 59.5579 277.312 58.0176 278.899C58.2611 276.955 59.1814 275.156 60.1701 273.502C57.5189 273.467 56.9123 276.82 55.2436 278.283C55.7312 276.988 55.0754 275.925 55.0075 274.969C54.9279 273.85 55.6088 272.04 54.3191 271.193C54.382 271.854 53.8535 272.317 53.7206 272.909C53.1106 275.627 52.0029 282.162 52.3749 284.69C52.9191 288.387 57.3073 295.962 59.8546 298.793C61.0919 300.168 63.0116 300.964 64.1737 302.483L63.4113 303.174C61.6716 301.684 59.96 302.589 58.1717 301.092C57.6257 301.409 58.9184 302.874 57.8783 302.622C55.6729 302.087 54.0878 299.543 52.6161 298.016L51.238 301.257C50.8449 301.861 49.6788 302.099 49.1553 301.639C48.3831 300.959 49.6075 295.494 49.6893 294.156C49.7799 292.676 49.6338 291.169 49.6892 289.689C48.3916 290.568 48.7133 292.331 47.7936 293.802C47.0286 295.025 44.2597 297.404 43.9868 298.596C43.6924 299.882 47.0179 303.039 48.0037 303.863C50.7641 306.173 59.065 310.725 62.551 310.557C63.178 310.527 65.9548 309.592 66.6603 309.28C67.8946 308.735 73.247 305.499 74.0199 304.618C74.6543 303.895 74.5806 303.169 75.0151 302.531C81.3466 293.23 88.1359 282.635 92.5408 272.276C93.7326 269.473 95.0066 266.46 95.617 263.487L91.4507 267.486L89.2983 269.033C88.8527 268.514 89.8068 267.606 90.215 267.175C91.5297 265.786 93.4771 264.604 94.7023 263.01C95.0399 262.763 95.7785 263.279 95.9203 263.179ZM86.9881 263.797C86.7542 263.557 84.3626 265.719 84.0917 265.983C83.1581 266.893 81.6606 268.498 80.8228 269.496C80.5323 269.842 80.0751 269.997 80.2101 270.576C83.1742 269.204 85.9045 266.924 86.9881 263.797ZM57.7064 267.182C58.5456 267.32 59.117 266.682 59.5313 266.062L58.4769 264.725L57.7064 267.182ZM53.6961 271.809C54.2338 269.775 53.9071 267.679 53.5467 265.645C52.9219 266.493 52.9292 268.419 52.9475 269.496C52.9528 269.807 52.965 272.588 53.6961 271.809ZM125.671 265.952C123.321 265.463 119.421 266.313 116.886 265.952V266.568H122.897C123 266.568 124.816 266.974 124.905 267.026C125.421 267.324 125.601 269.218 126.748 269.033C126.76 267.933 127.094 266.247 125.671 265.952ZM62.9467 267.188L61.2456 266.646C60.5399 266.695 58.5569 271.746 58.3242 272.732C58.904 272.866 59.0549 272.405 59.4021 272.118C60.1147 271.528 63.5445 267.866 62.9467 267.188ZM81.7482 267.188C78.0436 266.776 77.2798 269.809 75.2755 272.114L78.6462 270.094L81.7482 267.188ZM124.9 271.189C123.598 268.514 122.448 267.798 119.501 267.498C114.795 267.019 105.138 267.499 100.855 269.494C100.441 269.687 100.347 270.007 101.014 269.965C103.048 269.835 106.049 268.757 108.105 269.031C108.663 269.106 108.61 268.927 108.564 269.649C107.934 269.624 107.317 269.62 106.7 269.79C104.123 270.502 98.7384 272.08 96.4734 273.126C95.9412 273.372 95.2497 273.906 95.312 274.582C97.0276 274.117 98.4266 272.955 100.16 272.498C105.516 271.086 114.277 269.764 119.809 270.273C121.616 270.439 123.09 271.428 124.9 271.189ZM60.1738 276.123C60.7544 276.257 60.9038 275.794 61.2515 275.509C63.3346 273.798 64.8746 271.606 66.0373 269.191C66.2063 268.84 66.4652 268.52 65.8671 268.416C65.3868 268.333 63.2024 270.065 62.8125 270.596C62.3799 271.186 59.8651 275.785 60.1738 276.123ZM70.3421 268.729C68.424 268.28 67.939 268.282 67.2631 270.266C67.7469 270.317 68.1425 270.053 68.5566 269.867C69.0343 269.653 70.0683 269.163 70.3421 268.729ZM74.9671 268.729L72.0151 269.01L68.1876 276.123C68.7137 276.608 71.2558 273.988 71.5795 273.507C72.1238 272.699 72.077 272.019 72.4912 271.336C72.9911 270.512 74.5107 269.714 74.9671 268.729ZM224.967 276.85C221.728 274.199 211.779 270.523 207.576 269.735C206.726 269.576 201.502 268.788 201.18 268.825C200.88 268.86 200.621 269.467 200.203 269.592C199.521 269.796 198.646 269.559 197.874 269.728C195.927 270.152 194.053 270.833 192.097 271.196C192.05 271.772 193.095 271.494 193.441 271.46C194.849 271.324 196.432 270.89 197.849 270.63C198.375 270.533 198.776 270.074 199.273 270.046C200.638 269.968 202.75 270.561 204.275 270.267L204.732 270.883C203.108 271.34 199.9 270.827 198.58 271.359C198.057 271.569 192.608 276.143 191.782 276.891C191.35 277.282 190.827 277.767 190.554 278.28C194.692 276.974 198.746 274.972 202.952 273.882C203.268 273.8 203.915 273.409 204.114 273.811C202.861 274.613 201.344 274.928 199.998 275.552C193.843 278.405 179.718 285.183 175.455 289.834C175.147 290.169 174.71 290.35 174.835 290.921C175.07 291.149 179.123 288.885 179.766 288.61C185.552 286.138 192.067 283.262 197.964 281.224C200.022 280.513 202.284 279.812 204.409 279.345C204.725 279.276 205.412 278.931 205.346 279.512C193.795 283.728 183.371 290.219 172.37 295.552L172.516 296.157C178.863 294.723 185.126 292.941 191.123 290.413C196.181 288.28 201.378 285.144 206.499 283.29C208.096 282.712 211.344 281.384 211.82 283.83C209.366 283.935 207.122 286.072 204.938 287.274C200.49 289.721 195.733 292.238 191.069 294.367C187.775 295.871 184.351 297.105 181.001 298.48C180.841 299.285 182.265 298.943 182.656 298.9C187.231 298.392 194.16 297.004 198.562 295.695C200.575 295.097 204.187 293.193 205.96 292.892C206.593 292.784 206.926 292.92 207.505 293.084C207.867 293.821 206.884 293.634 206.883 293.875C206.882 294.165 207.299 294.526 207.067 294.929C206.922 295.182 205.378 295.966 204.875 296.46C204.348 296.979 202.522 299.643 202.242 300.3C201.82 301.289 202.008 302.259 201.472 303.23C200.061 305.781 196.417 308.515 194.569 310.815C194.443 310.971 192.932 313.006 194.094 312.499C194.708 312.231 196.758 310.305 197.493 309.731C200.657 307.26 204.653 303.508 207.19 300.317C208.457 298.725 209.263 296.68 210.746 295.242C211.493 294.517 213.536 292.939 214.594 293.233C212.937 296.139 210.941 298.766 208.897 301.407C208.708 301.651 208.067 302.001 208.583 302.327C211.38 300.259 214.166 294.728 217.083 293.256C217.532 293.029 218.127 293.136 218.589 292.913C219.341 292.551 220.319 290.622 221.363 292.032C221.626 292.971 218.988 295.44 218.346 296.369C212.907 304.245 210.694 314.199 204.116 321.596L197.649 328.995C197.65 329.128 198.343 329.591 198.564 329.648C199.061 329.776 202.238 327.971 202.978 327.549C208.534 324.371 211.474 320.112 214.85 314.76C217.153 311.107 218.653 305.838 222.445 303.859L224.456 300.172C223.824 307.839 220.981 314.95 217.485 321.712C216.943 322.76 215.534 324.525 215.215 325.301C215.158 325.442 215.135 325.805 215.365 325.757C216.696 324.137 218.75 322.428 219.962 320.798C221.054 319.33 221.498 317.031 222.463 315.9C222.881 315.409 222.867 315.702 223.227 316.054C222.075 318.537 221.407 321.204 220.456 323.758C219.075 327.464 217.607 331.552 215.527 334.859C213.154 338.63 209.407 343.756 206.288 346.89C205.275 347.908 202.259 349.947 201.63 350.863C201.374 351.236 201.268 351.497 201.343 351.96C203.834 351.586 206.427 352.619 208.812 351.572C210.277 350.93 212.19 347.75 213.497 347.01C214.169 346.629 214.794 346.85 215.145 346.653C216.543 345.869 222.882 332.834 223.626 330.629C225.53 324.99 227.169 317.83 228.389 311.963C230.568 301.485 234.405 284.575 224.967 276.85ZM83.2894 270.271C81.4721 269.983 80.4771 271.612 78.9742 271.806L79.5891 271.037C79.6378 270.807 79.2727 270.829 79.1333 270.887C77.0602 271.757 74.7487 274.425 72.4862 275.339L68.8593 280.96L65.7233 287.223C68.627 283.833 72.7848 282.316 76.0531 279.523C79.0644 276.95 81.3096 273.671 83.2894 270.271ZM196.41 271.812C192.952 272.372 188.829 272.77 186.549 275.667L187.468 275.817L187.47 276.428C184.084 277.506 181.559 280.824 179.457 283.521L187.144 279.959L196.41 271.812ZM150.086 367.597C150.473 367.148 150.96 365.101 151.068 364.415C152.308 356.529 149.445 347.61 148.93 339.489C148.424 331.528 148.513 323.394 148.313 315.443C148.02 303.764 150.136 292.409 141.703 283.212C138.749 279.991 137.186 279.339 133.074 277.969C126.612 275.815 120.207 275.311 113.635 274.291C107.876 273.397 102.601 275.336 97.2456 276.367C96.5333 276.504 95.5412 276.259 95.0072 276.591C94.4887 276.914 92.7466 279.411 93.1542 279.822C94.9685 279.235 96.5911 278.177 98.3713 277.49C98.8101 277.321 99.2701 277.28 99.0066 277.816C98.6529 278.536 93.2666 280.548 92.2454 281.537C91.8242 281.945 91.0829 283.407 92.0777 283.221C92.5517 283.132 94.1875 281.824 94.9377 281.455C101.769 278.094 106.769 278.086 113.922 277.013C115.229 276.817 116.48 276.213 117.811 276.128C117.062 277.249 115.202 277.103 114.113 277.512C112.169 278.243 108.54 279.717 106.805 280.685C106.658 280.767 105.83 281.161 106.255 281.368C107.334 281.162 108.264 280.633 109.371 280.476C109.693 280.43 110.777 280.185 110.72 280.745C109.16 281.362 107.439 281.603 105.885 282.231C102.118 283.751 97.566 285.829 95.2959 289.212C95.1057 289.495 94.7327 290.079 95.1543 290.304C97.6678 288.986 100.467 286.072 103.189 285.39C103.464 285.321 104.339 285.161 104.247 285.678C101.388 286.897 99.1774 289.153 96.6425 290.867C95.4365 291.683 93.6244 291.815 93.1532 293.386L94.3837 293.232C93.6432 294.625 91.6309 295.833 91.7642 297.395C93.5597 296.124 94.4986 293.705 96.3085 292.766L100.239 290.614L98.0872 294.47L96.2897 296.372L94.8465 299.244C96.688 297.335 98.3521 295.094 100.405 293.398C101.998 292.082 104.482 290.374 106.212 289.19C107.657 288.2 109.443 287.037 111.03 286.301C109.688 288.343 107.064 289.664 105.485 291.387C103.714 293.319 101.129 297.277 99.4998 299.582C98.7649 300.622 97.9794 301.834 97.2787 302.91C97.1076 303.173 96.5202 303.595 97.0041 303.869C103.494 297.58 110.23 290.891 118.428 286.918C118.329 287.286 117.935 287.589 117.65 287.832C114.898 290.181 113.611 290.652 111.462 293.666C109.228 296.798 106.334 299.487 103.947 302.489C103.475 303.083 101.356 305.779 101.169 306.186C101.095 306.349 101.111 306.71 101.319 306.643C103.116 305.373 105.267 304.643 107.118 303.503C110.185 301.615 112.66 298.966 115.504 296.782L116.42 297.394L118.426 295.856C118.961 296.416 116.396 297.977 116.251 298.225C115.916 298.797 116.017 299.711 115.722 300.394C114.487 303.254 110.141 306.473 109.113 309.197C108.563 310.655 108.984 313.029 108.566 314.658C108.867 315.012 109.888 313.804 110.096 313.572C114.034 309.168 117.567 303.34 121.032 298.613L123.666 297.24L118.58 308.801C121.792 305.531 123.391 300.753 126.136 297.245C126.385 296.927 126.882 296.772 127.181 296.44C127.899 295.641 128.654 293.603 129.951 294.028L130.401 294.514C130.469 295.432 130.838 297.106 129.525 297.09L129.219 296.165C128.859 301.626 123.926 306.815 123.073 312.067C123.022 312.382 122.869 312.894 123.355 312.808C124.923 309.797 126.532 306.744 127.886 303.619C128.344 302.562 128.92 299.85 129.502 299.129C129.786 298.776 130.084 298.963 130.448 298.94C128.875 303.809 126.786 308.964 124.652 313.641C124.147 314.747 122.948 315.915 123.204 317.125C124.934 315.109 126.354 312.821 127.727 310.551C128.316 309.579 128.602 307.583 129.831 307.879C130.107 308.135 127.89 314.202 127.598 315.04C126.786 317.368 126.065 319.912 124.847 322.159C121.882 327.63 116.98 332.779 115.486 339.008C115.063 340.77 116.589 339.488 117.186 338.851C119.296 336.603 125.102 329.861 126.392 327.404C128.208 323.942 129.511 318.229 130.976 314.428C131.121 314.053 131.938 313.866 131.685 312.812L132.251 313.22L128.602 323.141L129.21 323.289L136.473 309.125L137.382 308.48L138.104 309.006C138.264 313.251 135.715 317.187 134.773 321.298C134.697 322.196 135.137 321.553 135.335 321.242C136.42 319.537 137.21 316.654 137.54 314.661L138.428 315.17L133.849 334.241L134.456 334.547C135.149 334.005 135.302 333.126 135.733 332.431C135.925 332.121 136.375 331.482 136.296 332.376L131.136 350.338L129.683 359.977L129.219 360.285L128.911 359.363C128.63 360.334 128.128 360.74 129.525 360.595L129.217 362.133C129.927 362.311 129.724 362 129.922 361.746C136.074 353.849 136.648 340.729 139.846 331.612C139.976 331.243 140.19 330.771 140.617 330.691L140.925 331.922C141.252 328.187 142.815 324.677 143.343 320.929C143.865 317.225 143.27 312.322 144.718 309.047C144.866 308.713 145.142 307.891 145.549 307.879C145.478 309.216 145.212 310.368 145.23 311.744C145.27 314.711 145.99 318.418 145.875 321.295C145.744 324.547 144.606 328.73 144.323 332.082C143.887 337.236 144.03 343.789 144.306 349.046C144.491 352.571 145.64 355.866 145.873 359.194C146.092 362.332 146.191 366.38 144.937 369.224C146.053 370.313 148.019 364.454 148.021 363.677C149.855 364.413 146.881 368.093 147.403 368.608C148.102 368.635 149.658 368.095 150.086 367.597ZM162.196 274.278C161.454 274.022 157.179 276.357 157.884 277.05C159.474 276.416 161.278 275.86 162.196 274.278ZM175.448 274.276C175.27 274.129 171.56 275.597 171.443 276.43C172.59 276.218 173.845 275.631 174.841 275.042C175.011 274.941 176.027 274.754 175.448 274.276ZM185.93 274.895C182.557 275.672 179.959 277.35 177.916 280.129C180.88 278.95 184.018 277.542 185.93 274.895ZM156.648 276.436C155.885 276.527 155.051 277.033 154.399 277.428C153.909 277.725 153.078 277.872 153.26 278.59C154.57 278.385 155.943 277.578 156.648 276.436ZM169.592 276.435C167.925 277.014 165.672 277.45 165.282 279.516C165.684 279.333 170.41 277.203 169.592 276.435ZM178.533 277.669L173.384 279.917L170.522 284.14C173.904 282.923 176.568 280.663 178.533 277.669ZM163.428 279.209C160.625 280.088 158.7 282.314 157.265 284.754L160.561 283.119L163.428 279.209ZM180.69 280.135C176.805 281.06 174.662 283.935 172.368 286.912C176.372 285.995 178.281 283.123 180.69 280.135ZM170.827 281.677C170.22 281.11 165.624 286.377 165.895 286.603C168.236 285.965 169.708 283.692 170.827 281.677ZM159.114 287.22C159.665 287.679 163.486 284.636 164.047 283.988C164.347 283.641 164.789 283.48 164.659 282.907C162.431 284.08 160.355 284.864 159.114 287.22ZM172.984 284.143C169.85 284.975 167.76 287.545 165.895 289.994C169.057 289.179 171.372 286.887 172.984 284.143ZM153.566 290.303C156.105 289.738 157.866 288.102 158.803 285.682C156.44 286.719 154.674 287.868 153.566 290.303ZM87.2965 296.468C88.1459 297.183 93.2876 290.834 93.8853 289.959C94.0899 289.66 94.9331 288.731 94.6909 288.456C91.5953 290.75 88.7986 292.765 87.2965 296.468ZM160.347 293.077L162.49 292.294L165.276 288.764C165.045 288.531 160.772 292.645 160.347 293.077ZM174.834 289.384L168.978 293.077C171.262 292.515 173.502 291.373 174.834 289.384ZM35.5106 295.237L35.4813 292.342L34.5922 289.691C34.6271 290.998 34.7245 292.528 34.9385 293.81C34.999 294.172 35.0322 295.245 35.5106 295.237ZM89.7621 296.474C89.4127 296.159 87.4215 298.28 87.1381 298.625C86.724 299.129 86.0994 299.802 86.065 300.477C86.5747 301.003 89.6098 297.034 89.7621 296.474ZM34.5874 302.327L34.5515 300.054L33.6675 297.089C34.1111 298.642 33.7734 300.322 33.9719 301.872C34.0265 302.297 34.201 302.836 34.5874 302.327ZM203.191 297.399L194.233 301.539C193.736 301.686 193.398 302.278 193 302.464C192.792 302.562 189.344 303.163 190.247 303.868C191.528 303.611 194.678 304.436 195.766 304.002C196.341 303.773 198.593 302.063 199.188 301.562C200.632 300.345 201.908 298.782 203.191 297.399ZM182.538 299.864C181.347 299.906 179.532 299.988 178.841 301.092C179.807 301.024 180.951 300.859 181.867 300.563C182.384 300.396 182.68 300.699 182.538 299.864ZM174.216 300.172C172.114 300.063 169.998 300.245 167.986 300.874C167.601 300.994 166.571 301.251 166.513 301.709C167.706 302.146 173.078 301.981 173.754 301.403C173.932 301.252 174.375 300.318 174.216 300.172ZM165.895 301.099L158.191 300.482L160.578 301.327L165.746 301.705L165.895 301.099ZM177.915 301.092C177.246 299.782 175.632 301.015 174.524 300.789C174.003 301.18 174.565 301.347 174.982 301.404C175.969 301.539 176.972 301.359 177.915 301.092ZM42.6026 306.024L42.3662 305.188L40.4485 302.638L40.4458 306.338L42.6026 306.024ZM155.414 304.485C155.222 302.778 153.424 303.691 152.331 303.562L152.64 309.728L176.064 306.949C175.956 306.472 174.748 306.11 174.354 306.045C171.153 305.519 168.002 305.624 164.813 305.661C164.146 305.669 163.453 305.176 162.905 305.177C162.386 305.177 161.738 306.016 160.965 305.717L161.886 305.107C160.809 304.489 159.951 305.08 158.993 305.076C158.452 305.074 157.884 304.755 157.128 304.784C155.814 304.836 154.362 305.644 152.951 305.41C152.678 304.32 155.08 304.835 155.414 304.485ZM180.603 315.5C180.789 315.216 180.972 311.965 180.934 311.493C180.718 308.83 178.325 308.744 176.376 309.883L177.61 310.036C177.869 311.403 177.145 311.988 176.221 312.804C175.405 312.279 175.982 311.673 176.066 310.963L172.986 312.192L173.601 310.347C173.347 310.058 168.021 310.528 167.257 310.937L152.948 312.5L153.099 316.823C153.499 317.342 153.435 316.967 153.722 316.826C154.093 316.645 155.423 315.638 155.722 315.894C156.474 316.54 153.412 317.363 153.315 317.494L152.95 319.589L155.726 318.825C155.557 319.495 155.047 320.268 154.621 320.801C154.221 321.302 153.122 321.797 153.261 322.208C153.479 322.854 153.94 322.503 154.325 322.363C155.396 321.975 156.367 321.125 157.43 320.831C158.13 320.637 157.989 320.756 157.553 321.189C157.076 321.664 156.53 322.059 156.033 322.523C157.916 322.75 159.772 321.387 161.428 320.519L161.122 322.063C164.786 320.983 168.854 320.928 172.433 319.812C172.882 319.672 174.044 319.398 174.216 318.979L165.587 320.206C165.495 320.139 165.744 319.828 165.892 319.743C168.07 318.499 174.503 318.652 177.368 317.657C178.043 317.423 180.282 315.991 180.603 315.5ZM114.725 326.064C115.187 324.207 115.906 322.383 117.069 320.854C117.346 320.491 117.933 320.335 118.258 319.885C120.49 316.786 122.334 313.178 123.048 309.421L112.741 323.615L111.956 327.606C112.741 327.745 112.512 327.486 112.71 326.991C113.17 325.844 113.098 324.424 114.267 323.606L114.725 326.064ZM48.4569 312.508L43.836 310.039C44.6002 310.836 47.0635 312.827 48.0158 313.103C48.5752 313.266 48.6238 312.699 48.4569 312.508ZM50.9221 312.502C51.6295 311.605 48.7635 310.366 48.1527 310.346C47.5889 310.875 50.6048 312.402 50.9221 312.502ZM79.8973 312.192C78.4494 312.678 75.3814 310.574 74.5293 310.644C74.1701 310.674 71.2777 312.046 71.2746 312.348C71.9761 313.073 73.0931 313.035 73.9825 313.347C74.4801 313.522 74.806 313.187 74.6574 314.042C73.0287 314.197 71.6982 313.38 70.077 313.3C69.7728 313.285 68.747 313.227 68.8044 313.732L79.3485 316.598C80.6164 316.942 81.9963 317.958 83.3674 317.687C83.9048 317.581 84.4536 317.063 85.0677 316.901C87.8304 316.175 90.903 315.592 93.7676 315.583C93.9281 314.664 93.523 315.096 93.0465 314.935C90.1288 313.946 86.7979 313.907 84.2105 312.968C82.6321 312.395 81.0302 310.566 78.9757 310.962L79.8973 312.192ZM195.793 312.505C195.468 312.205 191.749 315.17 192.098 316.201C193.787 315.501 194.657 313.81 195.793 312.505ZM41.988 313.428C41.4243 313.938 44.6398 315.895 45.0455 316.073C45.4908 316.269 45.4084 316.827 45.9874 316.047C45.5642 315.412 42.6078 312.869 41.988 313.428ZM56.4709 318.674C54.8925 317.868 53.4292 316.647 52.0132 315.576C51.143 314.917 50.7588 313.754 49.3856 314.045C49.2558 314.639 49.6888 314.781 50.0301 315.093C50.886 315.875 55.509 319.35 56.3159 319.288L56.4709 318.674ZM66.9531 322.672C63.588 319.913 59.9734 316.8 55.857 315.28C56.1138 315.815 56.6583 316.268 57.1157 316.638C58.575 317.817 63.8245 321.623 65.3063 322.318C65.8681 322.582 66.3047 322.771 66.9531 322.672ZM65.412 316.815C64.5527 315.5 62.5797 315.143 61.0983 315.28C61.2395 315.763 62.331 316.057 62.7812 316.213C63.6034 316.497 64.5423 316.746 65.412 316.815ZM44.1422 317.742C44.4884 317.4 42.6973 315.495 41.9875 315.895L42.2893 317.283L44.1422 317.742ZM190.553 316.204C189.923 315.706 187.285 318.338 187.783 318.976C188.82 318.17 190.099 317.532 190.553 316.204ZM95.8934 318.334C96.9887 316.779 91.1467 317.852 90.6427 317.932C85.6454 318.73 83.9288 319.02 83.5857 324.667C83.4427 327.02 83.8025 328.802 84.5257 330.999L85.1332 330.851C84.5379 329.952 84.5642 327.664 86.0653 328.379C85.2915 334.119 93.0291 331.661 96.2332 330.687C95.7296 329.666 93.843 331.358 93.4617 330.078C95.5864 329.79 97.5154 328.897 99.3159 327.76L95.6206 328.531C95.4633 327.71 95.796 327.995 96.2368 327.778C97.2976 327.255 98.8361 326.874 99.3134 325.599C99.6725 324.639 97.8069 325.588 97.4681 325.447L99.3153 323.136L98.0873 323.292L99.0074 320.519L97.1614 320.824C97.1066 319.794 98.459 320.187 98.0856 318.977L95.312 318.974C95.0117 318.137 95.8146 318.446 95.8934 318.334ZM180.072 317.436C179.859 317.255 177.347 318.545 177.918 318.974C178.787 319.003 179.691 319.152 180.24 318.365L180.072 317.436ZM201.033 318.362C200.463 317.793 197.382 321.788 197.646 322.675C198.401 322.557 201.251 318.579 201.033 318.362ZM36.4384 319.284V326.375C36.9041 326.387 36.8909 325.279 36.958 324.893C37.2509 323.206 37.2737 321.445 37.0514 319.743C36.9964 319.322 36.8343 318.758 36.4384 319.284ZM81.1304 320.519C80.6602 320.524 80.2617 320.821 79.7814 320.802C79.1429 320.776 76.9251 319.824 77.1258 321.129L80.6646 323.289C81.5689 322.83 80.652 321.333 81.1304 320.519ZM78.3572 323.596L74.9688 321.444C74.5623 321.835 77.3005 324.696 78.3572 323.596ZM74.6565 323.606C73.2226 323.147 72.3329 321.495 70.6535 321.752L73.1243 324.056L74.5036 324.218L74.6565 323.606ZM196.102 322.37C194.576 322.025 191.325 327.062 191.789 327.608C193.958 326.556 195.181 324.516 196.102 322.37ZM128.595 346.102L132.452 337.473L135.685 322.984C133.591 325.021 133.628 328.471 132.752 330.991C131.032 335.938 129.077 339.649 128.374 345.111C128.331 345.447 128.03 346.172 128.595 346.102ZM74.3139 331.65L49.6939 323.909L49.3713 335.173C49.5441 340.797 50.3969 346.534 50.6299 352.103C50.7946 356.039 50.4547 360.02 50.6478 363.955C52.1997 364.62 53.8104 364.658 55.3165 364.988C56.8975 365.334 61.3288 366.678 62.5398 366.693C62.9899 366.699 63.2929 366.192 63.7303 366.157C67.4372 365.86 71.2383 366.153 74.9508 365.203L74.3139 331.65ZM207.817 338.397C212.397 334.708 215.94 329.621 218.291 324.217C214.136 328.354 210.173 332.947 207.817 338.397ZM176.371 330.69C176.396 328.394 179.379 325.181 175.761 324.526C175.301 325.5 176.055 326.214 176.084 327.157C176.117 328.244 175.058 329.963 176.371 330.69ZM42.5999 332.232L42.9081 325.142C42.3434 325.26 42.3382 325.747 42.2832 326.209C42.0982 327.765 41.9085 329.887 42.1843 331.384C42.2393 331.683 41.8976 332.095 42.5999 332.232ZM80.4212 327.389C80.2087 327.215 79.7372 327.23 79.4445 326.997C78.6959 326.401 77.0746 324.497 76.2017 325.608C76.0142 326.503 78.9931 327.607 79.6597 327.944C79.9268 328.079 79.9746 328.517 80.053 328.538C81.1235 328.832 80.9882 327.853 80.4212 327.389ZM167.115 325.463C164.385 325.121 161.81 326.107 159.185 326.6C157.666 326.885 155.095 326.909 153.772 327.351C152.629 327.733 153.597 332.077 153.584 333.322C153.537 337.833 152.95 345.309 153.888 349.638C154.039 350.336 154.725 351.036 154.971 351.944C155.291 353.13 155.142 356.372 155.926 356.846L169.134 358.445L169.877 357.933C169.771 356.829 169.419 355.627 169.338 354.536C168.965 349.55 168.492 343.711 168.379 339.186C168.3 336 168.547 331.729 167.979 328.76C167.77 327.664 167.021 326.655 167.115 325.463ZM191.168 326.068C190.599 325.489 187.917 329.787 187.78 330.379C188.415 330.992 191.441 326.345 191.168 326.068ZM110.104 332.847C109.871 330.762 110.428 328.939 111.027 326.991C108.982 328.529 109.163 330.102 109.496 332.385C109.575 332.923 109.336 332.903 110.104 332.847ZM172.984 328.687C172.675 329.836 173.21 332.155 172.984 333.465C173.449 333.416 173.669 332.318 173.766 331.935C173.902 331.399 174.591 327.008 174.063 326.988C174.028 327.548 173.076 328.348 172.984 328.687ZM37.9795 341.326C38.5671 337.122 37.5425 331.644 37.9795 327.299C37.5219 327.273 37.4347 328.402 37.3997 328.723C36.9199 333.127 36.8838 337.703 37.3662 342.095C37.6762 342.208 37.9618 341.453 37.9795 341.326ZM80.5153 330.379C80.2189 329.757 79.4125 329.42 78.8207 329.149C78.4498 328.98 77.3364 328.251 77.1261 328.997C77.0753 329.177 79.8493 330.799 80.5153 330.379ZM201.96 331.614L204.292 329.788L204.729 328.533C203.351 329.03 202.151 330.098 201.96 331.614ZM179.457 339.939V329.149C179.257 329.126 178.841 329.558 178.841 329.612V339.168C178.841 339.312 179.222 339.645 179.153 339.937L179.457 339.939ZM126.753 334.081C128.11 333.114 129.346 331.821 129.521 330.074C128.363 331.042 127.349 332.678 126.753 334.081ZM177.914 330.384L176.701 332.713C176.021 335.631 176.531 338.771 176.418 341.65C176.411 341.815 176.93 341.745 176.988 341.993C177.438 343.947 177.218 346.555 177.301 348.572C180.289 348.515 179.21 347.415 179.151 345.639C179.068 343.183 179.422 340.366 177.626 338.511L177.914 330.384ZM196.41 334.387C196.691 334.645 200.835 332.297 200.414 330.999C198.736 331.682 196.971 332.538 196.41 334.387ZM201.033 339.628C201.611 339.762 201.767 339.306 202.113 339.015C204.001 337.425 207.15 334.275 208.74 332.387C209.031 332.041 209.487 331.885 209.353 331.307C206.439 333.939 203.634 336.685 201.033 339.628ZM194.45 335.513C194.965 334.937 195.275 334.26 195.174 333.465C193.153 333.907 192.966 334.734 192.403 336.545C192.771 336.83 194.163 335.835 194.45 335.513ZM47.2248 334.083C46.3462 333.938 46.7115 334.267 46.5682 334.796C46.2723 335.888 46.3967 336.816 46.2184 337.852C45.5504 341.734 44.3863 345.492 44.4493 349.494L43.8981 347.183C44.2375 343.403 44.3655 339.603 45.3758 335.933C43.7579 336.226 43.265 336.99 42.7556 338.396L41.6814 336.856L41.6656 360.452C41.7782 369.332 42.9732 378.176 43.5245 386.955C43.7668 390.812 43.4039 395.636 43.8302 399.289C44.1064 401.656 44.8102 400.687 46.1696 400.664C46.6542 400.656 47.1518 400.872 47.5825 400.815C48.7777 400.654 50.8603 399.389 50.953 398.054L49.3871 387.565L48.7645 374.16C48.2263 374.088 48.4753 374.858 48.4594 375.234C48.4268 376.003 48.4841 376.781 48.4578 377.548C47.6861 377.734 47.8662 377.268 47.557 376.762L46.6272 376.933L45.5265 372.62C44.3356 372.638 45.8592 375.12 44.454 374.773C45.0382 371.225 42.5834 368.759 43.6716 365.207C44.3903 362.861 45.8293 362.193 48.1506 362.753C47.1258 356.389 47.7731 350.026 47.2234 343.64L46.5939 348.099C46.5837 349.965 47.0843 352.897 46.658 354.63C46.5228 355.18 46.855 355.495 45.9951 355.351C46.1755 351.669 45.7439 347.761 45.9975 344.105C46.2225 340.86 47.2999 337.412 47.2248 334.083ZM105.449 334.734L94.5895 335.981L94.1196 336.436C94.3342 341.028 94.0718 346.028 94.3908 350.57C94.4564 351.504 94.8765 352.469 94.9592 353.39C95.202 356.094 95.5556 358.795 95.6172 361.52L109.14 359.011L105.449 334.734ZM124.595 339.014C126.038 337.957 127.352 336.396 127.98 334.698L126.757 335.784L124.595 339.014ZM203.499 341.477C204.641 342.427 208.307 336.215 208.12 335.007C205.54 336.655 204.805 338.941 203.499 341.477ZM198.259 335.318C198.148 335.218 195.694 336.542 195.579 336.638C195.307 336.865 195.148 337.422 195.178 337.779C195.639 338.245 198.284 336.059 198.259 335.318ZM172.058 335.933C171.682 335.428 171.5 335.938 171.443 336.388C171.144 338.731 171.279 343.497 171.42 345.972C171.464 346.756 171.865 347.13 171.905 347.493C171.94 347.805 171.792 350.729 172.214 350.732C173.094 345.82 172.408 340.873 172.058 335.933ZM90.8992 337.357C89.7579 338.219 90.248 337.249 89.4575 336.858L88.5341 339.192L87.4499 338.711L86.3692 342.715L85.7576 342.403C85.6792 344.733 85.0817 347.011 85.0042 349.342C84.8913 352.738 85.0701 359.288 85.4294 362.614C85.5046 363.31 86.0324 363.716 86.051 364.138C86.0647 364.449 85.5027 366.104 85.4644 366.909C85.0828 374.923 86.812 383.822 87.2919 391.886C87.577 396.677 87.3304 401.58 87.6076 406.371C87.7668 409.122 88.4761 411.87 88.5909 414.634C88.9455 415.942 92.927 415.105 93.7447 414.673C95.0079 414.004 95.2909 412.004 96.7492 411.328C95.1898 394.921 94.1221 378.457 93.1306 361.985C92.8192 356.811 92.6062 351.497 92.2249 346.262C91.9946 343.101 91.7066 339.958 91.6098 336.855C90.8267 336.605 91.0789 337.222 90.8992 337.357ZM175.448 336.855C174.69 336.76 174.96 336.862 174.803 337.287C173.934 339.642 173.04 346.165 173.046 348.725C173.048 349.422 173.481 350.247 173.294 351.036L175.006 350.121L175.324 349.657C175.088 347.735 175.873 345.715 175.949 343.739C175.98 342.936 175.67 337.12 175.448 336.855ZM210.589 360.282C212.788 360.375 215.229 358.55 216.9 357.196C222.987 352.266 221.76 347.67 223.304 340.787C223.6 339.466 224.385 338.244 224.456 336.858L221.017 344.666C217.05 350.087 213.733 354.904 207.486 357.954L201.046 359.68L201.03 360.902C198.885 359.669 196.479 360.61 194.402 360.598C193.143 360.591 190.894 359.154 189.632 360.136C189.531 360.783 191.215 360.783 191.675 360.859C197.512 361.823 200.412 361.834 206.206 360.372C208.817 359.714 211.339 358.522 213.822 357.508C214.359 357.879 213.719 358.165 213.465 358.384C212.586 359.141 211.255 359.33 210.589 360.282ZM192.406 342.713C193.702 341.907 195.501 341.368 195.79 339.631C195.04 339.494 191.975 342.287 192.406 342.713ZM200.664 344.49C201.316 344.067 203.126 340.935 202.88 339.939C201.939 340.821 200.147 342.935 199.809 344.112C199.63 344.736 200.339 344.702 200.664 344.49ZM124.595 351.654C127.829 348.806 127.358 344.109 128.596 340.249L125.351 345.785L124.595 351.654ZM81.1298 350.422C81.3032 349.686 82.0005 341.786 81.2859 341.785C80.3222 344.542 80.1587 347.093 80.5177 349.96C80.5704 350.381 80.7215 350.928 81.1298 350.422ZM36.745 347.953C36.891 347.761 36.5352 343.822 36.4462 343.168C36.3833 342.705 36.4042 342.219 35.8251 342.097C36.2509 343.849 35.9052 345.755 36.1297 347.497C36.1844 347.922 36.3572 348.462 36.745 347.953ZM199.183 342.715L197.382 344.457L196.411 347.028C198.335 346.588 198.57 344.254 199.183 342.715ZM187.778 343.948C187.076 343.268 185.127 346.532 185.315 346.72C186.562 346.424 187.887 345.349 187.778 343.948ZM192.403 349.493C192.949 350.015 196.28 346.596 195.79 345.488C194.104 346.505 193.322 347.819 192.403 349.493ZM38.9026 354.735L38.9009 348.112L38.2912 345.798C37.5031 348.626 38.3595 351.432 38.2862 354.281L38.9026 354.735ZM211.513 350.417C211.843 350.714 214.962 347.905 214.592 347.029C213.305 347.894 212.413 349.19 211.513 350.417ZM77.7412 347.646V352.27L78.3722 349.665C78.1861 349.015 78.8713 347.394 77.7412 347.646ZM117.196 359.976C117.819 360.109 118.02 359.838 118.442 359.529C119.965 358.411 122.632 355.386 123.379 353.677C124.068 352.103 124.275 349.665 124.281 347.954C123.171 348.951 116.642 359.452 117.196 359.976ZM188.091 352.27C189.935 351.554 191.554 350.029 191.783 347.954C189.889 348.951 188.455 350.004 188.091 352.27ZM140.619 348.264C139.742 348.119 140.104 348.446 139.96 348.975C139.454 350.844 139.157 353.263 140.158 355.039C141.584 352.949 140.357 350.548 140.619 348.264ZM78.9779 356.585C79.6029 356.459 79.489 355.943 79.5873 355.504C79.9411 353.924 80.0909 351.982 79.5867 350.423L78.6664 353.971L78.9779 356.585ZM193.326 350.73C193.125 350.51 191.477 352.129 191.35 352.296C191.151 352.557 190.355 353.909 190.555 354.118C192.205 353.755 193.137 352.329 193.326 350.73ZM187.161 351.039C184.792 351.777 183.734 352.791 183.465 355.351C185.758 355.57 186.363 352.743 187.161 351.039ZM181.303 357.818C181.529 357.663 182.656 353.244 182.845 352.578C182.476 353.134 181.153 353.133 181.043 353.24C180.882 353.395 179.96 356.821 180.109 357.307C180.259 357.8 181.023 358.01 181.303 357.818ZM203.806 352.58L198.877 353.348C199.508 354.081 201.173 353.621 202.063 353.454C202.606 353.352 204.066 353.429 203.806 352.58ZM186.855 355.042C188.366 355.282 189.501 354.444 189.318 352.887C188.357 353.534 187.264 353.849 186.855 355.042ZM139.386 353.505C138.611 353.39 138.902 353.543 138.74 353.935C137.543 356.823 137.962 360.318 137.541 363.368C138.016 363.172 138.477 362.673 138.702 362.22C139.041 361.537 140.102 357.662 140.302 356.727C140.461 355.982 139.993 356.416 139.698 356.588L139.386 353.505ZM37.3631 354.736V361.519L38.001 357.978L37.3631 354.736ZM80.8219 355.971C80.0526 355.914 80.2937 355.896 80.2145 356.433C79.9931 357.934 79.4831 360.266 80.3627 361.517L80.8219 355.971ZM183.405 357.59C182.709 357.165 182.301 357.733 182.366 358.446L185.312 359.359C185.509 358.463 184.424 358.624 183.787 358.25C183.564 358.12 183.499 357.647 183.405 357.59ZM173.288 369.841C174.37 366.918 176.12 363.447 176.609 360.366C176.775 359.321 176.868 358.493 175.911 357.821C175.102 358.775 175.801 359.931 175.759 360.748C175.632 363.181 173.3 366.749 172.724 369.433L173.288 369.841ZM135.383 365.218C136.993 364.112 136.665 361.412 136.919 359.671L133.535 365.994L133.684 366.45L135.536 363.986L135.383 365.218ZM179.4 360.652L178.378 359.983C177.239 361.174 177.665 362.337 178.228 363.676C178.975 363.424 179.709 361.159 179.4 360.652ZM39.2095 375.391C39.9847 371.224 38.9426 367.101 39.2093 362.909L38.5991 360.287C38.0162 365.076 37.6669 369.521 38.5995 374.309C38.6868 374.757 38.5947 375.265 39.2095 375.391ZM177.613 371.694L177.319 373.352C177.507 373.995 182.663 374.569 183.711 374.68C192.242 375.579 205.892 375.039 214.304 373.096C218.203 372.195 216.715 371.4 217.141 368.226C217.41 366.226 219.431 363.494 218.862 361.722C218.712 361.256 218.337 361.088 217.876 361.249C216.203 363.562 214.374 364.169 211.629 364.563C208.132 365.065 202.286 365.099 198.707 364.924C192.541 364.623 186.593 362.589 180.565 361.496C180.283 362.317 179.347 364.463 180.079 365.058C181.1 365.888 185.892 367.439 187.404 367.906C189.091 368.426 191.024 368.62 192.656 369.142C193.175 369.308 193.469 369.008 193.325 369.841C192.416 369.354 191.612 369.892 190.788 369.791C189.438 369.625 186.967 369.135 185.551 368.834C184.491 368.608 181.336 367.369 180.824 367.384C179.953 367.41 179.359 369.219 180.063 369.7C180.324 369.877 185.472 371.189 186.156 371.312C187.863 371.617 189.848 371.476 191.583 371.741L194.867 372.614L184.561 373.243L177.613 371.694ZM82.0548 361.52C81.1218 361.368 81.5648 361.753 81.4347 362.267C81.0729 363.697 81.1328 365.349 80.9961 366.775C80.8302 368.505 80.1478 370.376 80.5185 372.307C80.9769 372.327 81.0529 371.219 81.0963 370.886C81.5003 367.789 81.6597 364.619 82.0548 361.52ZM166.512 361.519H157.265C157.11 362.398 157.479 362.024 157.947 362.214C159.405 362.808 163.599 362.296 165.406 362.107C165.705 362.076 166.566 361.971 166.512 361.519ZM79.589 362.445C78.708 362.298 79.0774 362.632 78.9323 363.157C78.3485 365.272 78.9178 366.857 79.2859 368.915L79.9104 365.666L79.589 362.445ZM142.16 362.753C141.178 362.579 141.705 363.085 141.554 363.518C140.739 365.84 139.939 367.471 138.155 369.223C140.935 368.573 142.224 365.361 142.16 362.753ZM161.118 363.985C162.653 364.199 165.01 363.985 166.666 363.985C167.182 363.985 168.512 363.344 169.388 363.691L169.902 362.755C166.706 362.687 163.491 362.76 160.349 363.372C160.236 363.682 160.992 363.967 161.118 363.985ZM177.606 364.295C176.938 364.099 176.77 364.79 176.577 365.254C175.991 366.671 175.711 368.518 175.188 370.033C175.04 370.462 174.652 370.425 174.553 370.698C174.397 371.129 174.048 372.713 174.702 372.906C176.613 373.47 175.733 371.431 175.868 370.67C176.088 369.428 176.957 367.967 177.285 366.899C177.546 366.051 177.675 365.184 177.606 364.295ZM73.1175 372.312C65.121 369.842 56.9123 368.135 48.9841 365.464C47.5235 364.972 46.1503 363.455 45.701 366.629C45.3667 368.989 47.3078 369.457 49.3093 369.765C49.639 369.816 50.379 370.095 50.3069 369.537L46.9198 368.304C47.5779 368.31 48.2468 368.241 48.9063 368.321C56.0326 369.186 62.0431 371.949 68.8689 373.629C69.876 373.877 71.2248 374.328 72.1916 374.005L62.9477 370.77L72.2594 372.738L73.1175 372.312ZM109.49 378.476C109.671 379.766 109.918 380.663 111.119 381.314C116.275 384.109 121.92 383.046 127.508 382.777C137.115 382.316 143.877 382.341 153.184 379.48C153.984 379.234 156.005 378.702 156.484 378.158C157.674 376.803 156.337 375.962 156.101 374.861C155.599 372.521 156.888 370.033 156.584 367.918C156.504 367.36 155.952 365.861 155.418 365.528C155.494 367.666 153.429 369.88 151.683 370.887C149.251 372.29 139.59 374.047 136.427 374.434C133.417 374.802 130.068 374.487 127.058 375.086C127.599 376.436 129.085 375.027 129.831 375.855C128.516 376.477 125.542 376.349 124.192 375.946C123.803 375.83 123.573 375.306 123.125 375.163C122.68 375.02 120.496 374.627 120.275 374.777L120.428 375.395C116.692 374.309 112.388 372.916 109.335 370.465C108.804 370.822 108.934 370.945 108.952 371.449C108.971 372.003 109.178 374.098 109.34 374.461C109.529 374.888 112.982 377.707 113.534 377.985L123.979 379.553C121.874 379.71 118.077 380.763 116.151 380.624C115.607 380.584 112.846 380.033 112.251 379.873C111.682 379.72 109.789 378.177 109.49 378.476ZM75.2739 367.374C75.2797 365.91 73.8866 366.928 72.9302 367.035C71.5401 367.192 70.0375 367.15 68.6465 367.374C68.1886 367.448 67.6955 367.391 67.5704 367.989C68.6042 368.149 70.3455 369.151 71.3294 368.61C71.6909 368.41 71.6335 367.961 72.337 367.68C73.1913 367.338 74.3597 367.372 75.2739 367.374ZM168.359 367.994L160.7 368.962C160.205 374.047 163.92 380.345 157.641 382.704C153.78 384.154 149.24 385.12 145.244 386.185C144.991 386.513 148.279 389.837 148.873 390.107C150.124 390.674 152.449 389.995 154.196 390.329C156.465 390.762 158.435 392.932 160.567 393.826L170.52 393.581C170.734 392.166 170.238 390.813 170.196 389.433C170.082 385.713 171.145 380.09 170.512 376.785C170.246 375.399 168.603 375.678 167.87 374.803C166.545 373.22 168.445 369.859 168.359 367.994ZM75.2767 368.608C74.3528 368.599 73.2884 368.479 72.5028 369.07L75.2737 370.149L75.2767 368.608ZM103.939 369.535L96.5303 370.908L96.2366 372.615C96.5141 372.899 102.745 370.361 103.937 370.76L103.939 369.535ZM63.2521 372.929L58.3244 371.385C57.5338 372.093 61.8452 373.155 62.2113 373.2C62.5428 373.241 63.329 373.468 63.2521 372.929ZM82.3608 377.547C82.5486 376.594 82.7387 375.288 82.6804 374.333C82.6562 373.938 82.509 372.451 82.0595 372.31C82.153 373.54 81.7112 374.618 81.7253 375.858C81.7301 376.272 81.7929 377.5 82.3608 377.547ZM79.8958 386.181C79.6618 382.545 80.93 378.602 80.053 375.08C79.423 375.08 79.1857 384.352 79.2711 385.113C79.3229 385.575 79.3352 386.064 79.8958 386.181ZM173.909 391.73V377.703L173.405 377.283L172.363 377.4C174.095 381.722 172.726 386.835 173.292 391.273C173.35 391.726 173.531 392.231 173.909 391.73ZM37.9761 382.788L38.3095 380.166L37.6744 377.551C37.5347 378.935 37.5925 380.325 37.673 381.715C37.6949 382.092 37.4314 382.858 37.9761 382.788ZM175.446 377.55L174.527 377.548L174.837 380.938C175.345 380.712 175.519 379.217 175.561 378.728C175.584 378.471 175.569 377.628 175.446 377.55ZM176.988 381.557L177.277 378.667L176.068 378.168C176.605 379.208 175.905 380.944 176.988 381.557ZM104.246 378.782C102.849 379.315 96.9974 379.654 96.5926 380.836L97.7779 396.969C100.728 395.966 103.82 395.254 106.92 394.866C107.68 394.771 109.199 394.222 109.489 395.118L97.7873 397.292L98.0866 399.747C103.47 398.108 109.02 396.161 114.73 396.356C115.042 396.045 114.478 388.216 114.081 387.599C113.369 386.49 108.483 386.317 106.563 384.946C104.037 383.144 104.748 381.494 104.246 378.782ZM81.4367 398.82L82.0692 391.28C81.7327 387.371 82.9095 383.376 81.2859 379.704C80.8032 384.181 80.0945 389.239 80.1935 393.75C80.207 394.362 80.2359 395.589 80.3272 396.136C80.4099 396.632 80.9439 398.51 81.4367 398.82ZM38.9026 389.571L39.2094 383.407C38.5878 383.526 38.7077 384.061 38.5977 384.487C38.2798 385.72 38.1282 387.864 38.2871 389.115C38.3443 389.566 38.5282 390.075 38.9026 389.571ZM214.904 386.178C213.326 384.242 210.578 384.758 208.531 385.511C206.876 386.12 200.011 390.666 199.315 392.045C199.033 392.604 199.823 392.941 199.803 393.698C199.783 394.412 199.039 395.224 199.186 396.041C199.816 396.017 200.373 396.496 201.021 396.213C201.594 395.963 203.779 393.347 204.586 392.663C206.202 391.297 212.017 386.951 213.666 386.33C214.063 386.18 214.488 386.173 214.904 386.178ZM174.835 390.804C175.901 392.024 176.755 386.427 175.603 385.874L174.835 390.804ZM194.252 386.492C192.893 386.877 191.436 387.736 190.266 388.514C189.81 388.818 186.075 391.537 186.55 392.038L187.94 391.117L188.548 391.729L194.252 386.492ZM224.149 388.957C223.001 389.303 222.116 388.498 221.206 388.357C216.851 387.68 209.509 392.871 206.897 396.208C205.053 398.564 203.7 401.088 208.078 400.932C208.373 400.027 208.894 399.229 209.506 398.509C211.595 396.051 216.174 392.943 219.109 391.466C220.53 390.75 222.332 390.294 223.711 389.601C224.04 389.435 224.293 389.76 224.149 388.957ZM40.4454 396.971V391.576C40.4454 391.03 39.9818 389.946 40.1339 389.265L39.8289 389.264V395.584C39.8289 395.813 40.33 396.487 40.1402 396.969L40.4454 396.971ZM234.012 392.042C233.082 392.071 231.823 391.173 231.07 391.125C227.583 390.899 220.829 392.844 218.006 394.987C216.123 396.418 215.538 398.731 213.672 400.209C214.457 400.688 215.171 398.997 215.679 398.823C216.631 398.805 215.655 399.76 216.599 399.125C216.983 398.867 217.388 398.907 217.363 399.283C217.345 399.559 213.758 402.518 214.289 403.752C215.073 403.892 214.943 403.741 215.305 403.373C216.192 402.472 217.039 400.884 218.018 399.932C220.897 397.132 225.254 395.004 229.007 393.658L234.012 392.042ZM134.146 394.508C130.048 395.459 126.532 398.461 123.365 401.133L124.142 401.895L128.626 398.076L134.146 394.508ZM154.798 395.433C153.956 395.311 153.25 394.71 152.412 394.575C149.362 394.084 140.731 397.685 138.058 399.494C135.528 401.206 132.887 403.704 131.682 406.525C132.583 407.212 133.68 404.035 134.761 404.061C135.241 404.638 133.103 406.024 133.683 406.526L134.761 405.911L134.608 407.451C137.081 405.28 139.19 402.721 142.003 400.975C145.827 398.602 149.806 397.386 153.998 396.016C154.339 395.905 154.744 395.92 154.798 395.433ZM243.878 396.351C243.957 395.928 243.773 395.61 243.359 395.485C241.513 394.927 237.465 395.013 235.637 395.665C234.052 396.23 233.173 398.085 231.241 397.584L232.163 396.974C226.339 397.186 223.393 401.674 220.453 406.061C223.215 407.747 227.189 407.59 230.315 407.141L230.016 405.614L234.312 404.358C235.229 403.277 231.318 400.882 230.733 400.102L226.307 401.443C225.783 401.015 225.963 400.932 226.299 400.507C227.325 399.207 230.883 399.59 232.466 399.591C232.66 399.68 235.215 402.249 235.389 402.532C235.901 403.365 235.718 404.162 236.021 404.674C236.587 405.632 238.904 405.188 239.868 404.982C239.876 404.346 238.839 404.907 238.465 404.388C237.645 403.251 238.931 403.521 239.57 403.306C240.466 403.005 241.362 402.479 242.255 402.283C242.676 402.191 243.402 401.925 243.258 402.67L241.72 404.058C242.492 404.1 243.43 403.989 243.837 403.237C244.381 401.567 241.959 399.719 241.103 398.515C243.434 398.013 244.141 400.138 245.312 401.616C246.782 401.307 249.216 401.04 247.748 399.109C247.45 398.716 245.855 397.522 245.424 397.403C244.58 397.169 242.968 398.676 241.721 397.894C241.257 397.416 243.342 396.153 243.878 396.351ZM177.602 395.74L176.989 395.894C176.729 397.833 178.43 398.952 179.219 400.466C179.372 400.759 179.16 401.219 179.19 401.249C179.686 401.761 183.406 401.948 184.601 402.462C186.107 403.111 187.772 405.582 188.616 405.845C189.475 406.113 191.123 406.052 192.095 406.216L189.322 403.289C189.278 403.047 189.594 403.116 189.786 403.132C190.085 403.156 193.206 404.499 193.721 404.747C194.392 405.07 194.636 405.734 195.535 406.015C196.63 406.358 197.759 406.196 198.874 406.216C198.442 405.628 197.496 405.54 196.797 405.061C193.81 403.017 194.569 403.668 191.173 402.671C187.21 401.508 180.815 399.409 177.908 396.502C177.725 396.319 177.643 395.997 177.602 395.74ZM114.382 400.322C114.189 399.618 114.991 396.752 114.272 396.675L98.0873 400.365L98.0858 402.829C100.751 402.191 103.358 400.977 106.035 400.144C107.053 399.827 112.333 398.103 112.878 398.514C113.041 399.281 112.707 399.059 112.304 399.314C111.616 399.749 110.73 400.088 109.962 400.372C106.342 401.712 102.157 403.057 98.3952 403.756L98.394 405.295L114.382 400.322ZM82.978 410.534L82.9781 396.971C82.3953 397.332 82.4295 398.921 82.3661 399.594C82.1451 401.936 82.1144 404.324 82.0539 406.678C82.0145 408.217 81.1677 409.248 82.978 410.534ZM84.5223 404.678V398.975C84.5223 398.79 84.0926 398.28 84.2107 397.898L83.9059 397.896V403.599C83.9059 403.784 84.3355 404.294 84.2174 404.676L84.5223 404.678ZM162.812 399.134C156.911 398.034 151.266 400.526 146.27 403.392C142.851 405.353 139.795 407.236 138.463 411.149C140.01 410.685 142.119 413.321 143.192 412.971C143.442 412.889 145.498 409.378 146.187 408.625C149.372 405.147 157.772 400.764 162.352 399.739C162.829 399.633 162.89 399.948 162.812 399.134ZM114.052 403.072C114.207 402.845 114.099 402.238 114.298 401.928L113.951 401.285C111.995 402.064 109.932 402.569 107.961 403.304C107.339 403.536 106.142 403.835 105.792 404.366C106.787 404.035 113.815 403.417 114.052 403.072ZM168.361 402.517C168.191 401.831 167.918 402.098 167.512 402.103C163.845 402.141 158.378 403.635 155.102 405.443C152.473 406.893 150.679 408.901 148.947 411.312C148.784 412.098 149.441 411.598 149.66 411.407C150.31 410.837 150.776 410.053 151.564 409.612L151.102 411.459L152.33 410.844C152.733 411.354 149.135 415.001 150.008 416.081C151.063 417.388 152.144 413.929 152.822 413.028C155.263 409.786 162.066 406.249 165.901 404.838C166.846 404.49 167.63 404.239 168.668 404.367L165.897 404.06C165.916 402.853 167.416 402.594 168.361 402.517ZM213.672 408.379C213.516 409.048 214.046 409.062 214.375 409.368C219.74 414.344 229.312 414.147 236.293 413.277C239.948 412.822 249.62 410.521 251.035 406.749C251.358 405.886 251.815 402.812 250.354 402.829C250.224 403.887 249.17 405 248.297 405.553C247.319 406.172 241.992 408.16 240.74 408.477C234.148 410.144 225.52 410.695 218.843 409.524C217.041 409.209 215.462 408.395 213.672 408.379ZM204.421 406.84C202.877 406.693 202.25 404.888 201.257 404.3C200.123 403.629 198.605 403.735 197.335 403.756C198.83 405.297 201.21 406.754 203.373 407.119C203.683 407.171 204.506 407.366 204.421 406.84ZM209.355 408.683C207.749 406.745 205.91 404.666 203.193 404.68C202.638 405.197 205.637 407.079 205.983 407.28C206.944 407.838 208.266 408.43 209.355 408.683ZM84.829 412.694L84.4856 407.952L83.9098 405.605C83.6834 406.522 83.5895 412.392 83.908 412.695L84.829 412.694ZM185.313 412.074C185.312 410.497 185.937 410.022 184.779 408.449C183.015 406.05 179.931 405.645 177.16 405.89L176.822 406.857C173.894 406.887 172.204 405.908 169.292 406.996C167.776 407.563 166.561 408.166 164.896 408.766C162.025 409.8 162.213 410.016 160.013 411.588C158.372 412.761 155.499 413.856 155.518 416.182C155.521 416.575 155.741 417.532 156.031 417.782C157.103 418.703 161.756 418.356 163.238 418.205C163.552 418.173 164.687 418.082 164.661 417.629C162.415 417.941 159.064 418.298 157.597 416.196C158.653 414.089 158.644 415.654 159.5 416.157C161.353 417.244 163.589 416.137 165.588 416.082L165.279 414.854L166.316 414.838L166.819 417.319L168.511 417.314L170.825 416.704C170.118 416.465 167.837 417.303 168.051 416.086C169.039 415.907 169.99 415.758 170.972 415.629C171.182 415.602 171.438 415.245 171.651 415.219C172.179 415.153 172.398 415.939 172.982 415.775C173.265 414.666 173.195 413.733 172.676 412.696C174.796 412.456 174.772 414.296 175.316 415.794L177.91 414.697C177.36 413.674 176.668 415.29 176.219 414.545C175.535 413.407 178.368 413.421 178.688 412.699L179.764 413.616C179.946 412.267 179.698 411.407 179.151 410.229C180.195 409.981 181.843 412.564 182.059 412.6C182.876 412.739 184.266 411.377 185.313 412.074ZM69.1108 406.222C62.5099 407.092 55.8644 407.991 49.3842 409.471L48.7692 410.225C50.8883 409.489 53.0952 410.301 55.037 410.205C57.6315 410.076 65.3405 407.806 68.074 406.878C68.4781 406.741 69.0142 406.788 69.1108 406.222ZM76.5085 406.221C73.9553 406.317 71.5778 407.321 69.1214 407.925C67.7893 408.253 66.3246 408.302 64.9665 408.702C64.5102 408.836 63.3923 409.098 63.2559 409.607L76.5106 407.143L76.5085 406.221ZM212.344 407.853C212.002 407.485 209.341 406.29 209.049 406.529C208.494 406.983 209.478 407.21 209.631 407.323C210.681 408.101 212.226 409.521 213.361 409.458C212.779 409.11 212.696 408.231 212.344 407.853ZM65.1053 411.149L67.3421 411.078L76.8104 408.223C76.3817 407.6 76.1715 407.783 75.5698 407.897C73.2237 408.341 70.6639 409.426 68.2529 409.831L65.1053 411.149ZM132.914 416.698C129.865 413.315 125.301 412.707 121.4 410.799C119.668 409.953 118.076 408.973 116.581 407.761L116.745 409.598C118.696 411.397 119.17 414.955 122.435 414.54L121.971 412.695C123.508 414.076 124.292 416.124 126.75 415.773L126.286 413.928C127.911 416.549 129.973 416.773 132.914 416.698ZM108.566 410.84C109.463 410.712 111.302 410.537 112.041 410.16C113.016 409.663 112.565 408.4 111.79 408.987L108.566 410.84ZM76.8145 408.995C76.7113 408.877 74.2124 409.675 73.7951 409.84C73.3242 410.027 72.9628 409.663 73.1194 410.534L76.6034 409.915L76.8145 408.995ZM106.713 409.305L99.2149 411.147C98.4419 412.31 99.5346 412.229 100.493 411.865L106.713 409.305ZM62.6396 409.92C62.2752 409.542 58.0832 410.537 57.3996 410.996C58.902 411.883 61.0098 410.83 62.6394 410.842L62.6396 409.92ZM194.54 411.485L191.478 411.155L191.974 412.405L194.562 412.384L194.54 411.485ZM110.104 412.072L109.957 411.465C107.387 412.462 104.63 412.821 102.026 413.707C101.691 413.821 97.653 415.076 98.3945 415.775L110.104 412.072ZM198.258 413.313L192.404 413.003L192.72 414.543C193.516 414.441 194.255 414.062 195.055 413.958C196.016 413.832 197.699 414.26 198.258 413.313ZM138.155 415.779C139.082 416.525 139.569 418.575 140.139 419.186C140.933 420.04 143.543 420.665 144.606 421.192C154.088 425.891 161.503 426.797 172.176 425.295C175.698 424.8 185.26 422.891 187.596 420.371C188.875 418.99 189.198 415.825 188.242 414.241L187.007 416.392C186.732 416.502 187.161 415.529 186.15 415.836C184.968 416.196 182.753 417.803 181.3 418.39C172.747 421.844 164.972 422.276 155.876 421.962C153.36 421.875 149.989 420.45 147.404 420.092L149.249 422.406C149.305 422.531 148.516 422.782 148.473 422.774C148.186 422.719 144.881 419.567 144.622 418.865L144.005 419.018L144.166 420.09C142.526 418.013 140.941 416.231 138.155 415.779ZM138.771 418.547C137.31 416.133 135.349 414.222 132.298 414.546C133.955 416.573 136.131 418.165 138.771 418.547ZM108.871 414.853C108.517 414.55 105.405 415.585 105.174 416.39C105.507 416.4 109.821 415.667 108.871 414.853ZM105.172 415.471C102.926 415.287 100.865 416.411 98.7076 416.862L94.0792 419.164C97.3725 418.625 100.841 417.487 103.929 416.227C104.297 416.077 105.164 415.909 105.172 415.471Z" fill="var(--fill-0, black)"/>
<path id="Vector_2" d="M74.6587 399.132L46.3018 406.833C46.7823 405.906 48.1743 405.918 49.0742 405.908C49.3035 405.509 47.8464 405.655 48.7685 405.142C49.5369 404.714 51.5082 404.18 52.4615 403.903C59.6005 401.822 67.2779 399.941 74.6587 399.132Z" fill="var(--fill-0, black)"/>
<path id="Vector_3" d="M209.047 417.009L199.969 418.873L197.644 418.857C197.15 418.458 198.58 417.754 198.798 417.707C199.626 417.53 203.237 417.009 203.962 417.009H209.047Z" fill="var(--fill-0, black)"/>
<path id="Vector_4" d="M61.0966 396.974C61.0216 397.538 60.6426 397.384 60.3327 397.463C58.396 397.959 56.0141 398.21 54.0088 398.509L56.7189 397.344L61.0966 396.974Z" fill="var(--fill-0, black)"/>
<path id="Vector_5" d="M166.819 253.623C166.745 254.092 165.772 254.301 165.357 254.469C162.021 255.826 158.353 257.075 154.801 257.625L166.819 253.623Z" fill="var(--fill-0, black)"/>
<path id="Vector_6" d="M67.5664 135.24C66.2009 134.801 64.2993 132.767 63.1042 134.321C62.0524 135.69 61.4074 138.878 62.6262 140.253C63.548 141.293 67.9631 140.908 66.3649 142.82C65.1192 144.31 60.3533 142.756 59.671 140.806L57.0913 142.021C56.9625 140.786 58.1593 139.994 59.2489 140.172C58.0313 136.787 59.8599 135.434 60.7895 132.469C58.6272 131.865 57.5147 130.997 55.1527 131.916C52.1456 133.086 53.5664 137.338 52.7968 137.881L51.5968 137.953C49.7745 134.848 51.8162 128.928 55.6956 128.451C58.2284 128.14 60.9246 128.802 63.1576 129.942C65.0326 130.9 67.8906 132.874 67.5664 135.24Z" fill="var(--fill-0, black)"/>
<path id="Vector_7" d="M95.617 100.714C93.1901 101.494 90.7723 103.902 89.32 105.974C88.6545 106.923 88.5543 108.711 87.2979 108.421C87.1653 105.943 88.9757 102.897 90.5817 101.059C91.5739 99.9232 96.3158 96.6515 97.6372 96.7221C99.1899 96.8049 98.7221 98.4845 98.8901 98.8732C99.529 100.351 100.554 101.638 101.079 103.421C101.583 105.13 102.926 109.912 99.7091 108.8C96.9192 107.835 95.9154 103.281 95.617 100.714Z" fill="var(--fill-0, black)"/>
<path id="Vector_8" d="M82.3613 105.026C81.8845 105.004 81.7441 103.637 81.7492 103.333C81.8088 99.7706 84.1614 93.7914 86.2377 90.8675L92.9939 84.0674C97.3275 88.931 95.6986 87.7544 92.0739 90.5391C87.3775 94.1472 84.0915 99.4057 82.3613 105.026Z" fill="var(--fill-0, black)"/>
<path id="Vector_9" d="M108.258 97.0119C108.328 94.6641 113.795 89.3129 115.962 90.3807C117.106 90.9443 116.528 92.1238 116.724 92.7006C117.364 94.5861 118.388 96.3701 118.657 98.4797C119.388 104.224 116.165 103.418 114.495 99.2515C113.771 97.446 113.802 95.5813 113.036 93.9384C112.048 94.0482 108.821 97.5447 108.258 97.0119Z" fill="var(--fill-0, black)"/>
<path id="Vector_10" d="M117.191 87.7651C114.931 85.5017 111.731 83.0917 108.409 82.8268C106.858 82.7031 105.837 83.4906 104.406 82.5216L104.493 83.2559L103.634 83.7559C103.365 82.5528 103.808 78.2989 105.559 78.5612C106.045 78.6339 108.51 79.439 109.113 79.6636C112.659 80.9866 116.573 83.7487 117.191 87.7651Z" fill="var(--fill-0, black)"/>
<path id="Vector_11" d="M102.707 111.813L100.838 114.104C96.7733 117.084 93.9706 116.257 90.0723 113.505C92.3572 113.598 94.2857 114.23 96.6633 113.935C98.9141 113.656 100.561 112.154 102.707 111.813Z" fill="var(--fill-0, black)"/>
<path id="Vector_12" d="M73.1139 122.599C72.5804 122.679 72.7933 121.878 72.8403 121.556C73.1626 119.345 74.2633 116.965 74.5825 114.662C74.6429 114.226 74.3965 113.771 74.437 113.285C74.4623 112.981 74.5309 111.772 74.9633 111.813C75.9809 115.631 73.7518 118.944 73.1139 122.599Z" fill="var(--fill-0, black)"/>
<path id="Vector_13" d="M94.6943 84.3771C95.4719 84.0388 97.5488 86.2463 97.4668 86.6815C97.3745 87.1719 97.0943 87.1006 96.6978 86.8415C95.9722 86.3673 95.0677 85.1889 94.6943 84.3771Z" fill="var(--fill-0, black)"/>
<path id="Vector_14" d="M78.9775 128.766C79.1804 127.462 79.5411 126.02 80.8209 125.375C80.61 126.651 80.4357 128.367 78.9775 128.766Z" fill="var(--fill-0, black)"/>
<path id="Vector_15" d="M60.4802 256.392C57.7827 256.047 55.8181 253.123 55.3192 250.613C54.5381 246.682 54.4216 244.956 55.9299 241.208C57.0326 238.468 58.9802 235.608 61.0936 233.582C60.229 237.174 55.8883 241.762 55.8549 245.445C55.8484 246.163 56.6879 250.328 56.9266 251.163C57.4388 252.955 59.409 254.88 60.4802 256.392Z" fill="var(--fill-0, black)"/>
<path id="Vector_16" d="M59.8642 170.696L52.642 179.037L49.0794 185.182C48.8844 184.154 49.3732 183.499 49.7831 182.652C51.8013 178.48 55.5694 174.589 58.7847 171.309L59.8642 170.696Z" fill="var(--fill-0, black)"/>
<path id="Vector_17" d="M111.644 203.685L111.489 204.299C109.349 204.545 106.438 201.086 106.1 199.056C107.387 198.791 107.341 200.065 107.947 200.751C108.939 201.875 110.239 203.106 111.644 203.685Z" fill="var(--fill-0, black)"/>
<path id="Vector_18" d="M97.5767 239.947C97.9799 240.378 98.8206 240.584 99.0093 241.286C96.472 241.844 95.0314 238.75 94.6973 236.665C95.9786 237.411 96.6026 238.907 97.5767 239.947Z" fill="var(--fill-0, black)"/>
<path id="Vector_19" d="M101.475 237.587C99.7309 237.809 98.4967 235.737 98.3955 234.199L101.475 237.587Z" fill="var(--fill-0, black)"/>
<path id="Vector_20" d="M102.037 230.566L104.247 233.58C103.123 234.118 100.981 230.635 101.167 230.502L102.037 230.566Z" fill="var(--fill-0, black)"/>
<path id="Vector_21" d="M78.3562 290.924C77.3578 293.627 72.2206 298.935 69.501 299.487C68.4475 299.7 65.3209 299.107 64.266 298.696C63.7193 298.484 59.0909 295.366 58.9408 295.081C58.868 294.943 58.8798 294.555 59.0914 294.624C63.5969 297.43 68.3541 298.379 73.4124 296.303L78.3562 290.924Z" fill="var(--fill-0, black)"/>
<path id="Vector_22" d="M86.0635 348.417C86.1115 347.894 86.6704 347.036 86.3697 346.26L86.992 346.262C86.7206 348.29 86.5445 350.396 86.4548 352.435C86.3995 353.693 86.6074 355.235 86.4996 356.411C86.4689 356.746 86.5542 357.58 86.0635 357.511C86.26 354.571 85.7971 351.317 86.0635 348.417Z" fill="var(--fill-0, black)"/>
<path id="Vector_23" d="M168.974 354.735L168.085 351.775L168.056 348.572L168.62 350.932L168.974 354.735Z" fill="var(--fill-0, black)"/>
<path id="Vector_24" d="M153.257 374.161C152.592 375.049 151.116 376.213 150.142 376.745C147.673 378.096 138.554 379.828 135.53 380.011C133.907 380.11 132.347 379.963 130.757 379.704C130.883 379.105 131.375 379.163 131.834 379.089C134.227 378.702 136.691 378.765 139.095 378.335C143.903 377.477 148.527 375.331 153.257 374.161Z" fill="var(--fill-0, black)"/>
<path id="Vector_25" d="M213.977 370.768C214.127 371.625 213.799 371.287 213.303 371.463C210.037 372.618 207.375 372.982 203.949 372.629C203.418 372.575 202.938 372.689 202.576 372.153C206.418 371.999 210.256 371.849 213.977 370.768Z" fill="var(--fill-0, black)"/>
<path id="Vector_26" d="M159.73 392.963C159.848 392.337 160.384 392.459 160.811 392.348C161.726 392.11 164.682 391.508 164.662 392.963H159.73Z" fill="var(--fill-0, black)"/>
<path id="Vector_27" d="M158.188 313.43L153.876 315.275C153.089 314.526 157.551 312.914 158.188 313.43Z" fill="var(--fill-0, black)"/>
<path id="Vector_28" d="M199.452 233.848C199.223 234.011 198.327 234.05 198.602 233.466L200.262 229.268C201.487 229.705 199.691 233.678 199.452 233.848Z" fill="var(--fill-0, black)"/>
<path id="Vector_29" d="M206.23 220.373C207.115 220.919 207.318 224.866 206.578 225.874L205.768 225.42L205.344 220.484C205.33 220.212 206.065 220.271 206.23 220.373Z" fill="var(--fill-0, black)"/>
<path id="Vector_30" d="M195.795 242.212L197.795 237.899C199.207 238.496 196.465 242.899 195.795 242.212Z" fill="var(--fill-0, black)"/>
<path id="Vector_31" d="M160.345 305.721C160.597 306.826 159.138 306.185 158.499 306.339L159.112 306.949L153.564 307.876L154.07 306.379L160.345 305.721Z" fill="var(--fill-0, black)"/>
</g>
</svg>
