<svg preserveAspectRatio="none" width="100%" height="100%" overflow="visible" style="display: block;" viewBox="0 0 35.0001 35" fill="none" xmlns="http://www.w3.org/2000/svg">
<g id="btn_music_hover">
<circle id="Ellipse 2" cx="17.5" cy="17.5" r="17" transform="rotate(-90 17.5 17.5)" fill="var(--fill-0, black)" stroke="var(--stroke-0, black)"/>
<g id="Layer_1" clip-path="url(#clip0_63_6777)">
<path id="Vector" d="M18.786 11.1865L11.1073 11.2865L10.746 11.4491L13.0751 19.4299C13.9014 19.4192 14.7349 19.4603 15.5621 19.4392C18.2745 19.37 21.5582 19.0975 24.2402 19.3252C26.2746 19.498 27.8619 21.157 27.9919 23.1908C28.1415 25.5323 26.2028 26.5986 24.1439 25.661C22.2501 24.7987 21.2758 22.4654 21.9605 20.4929C21.821 20.3608 20.0303 20.5937 19.6897 20.6025C17.8707 20.6492 15.9843 20.5059 14.1774 20.5937C12.8777 20.6568 11.8222 20.8134 10.4818 20.8051C9.74454 20.8006 8.65957 21.1302 8.29949 20.3421L6.00057 11.4205C5.97697 10.4314 6.68858 10.2883 7.50982 10.23C10.8717 9.99118 14.6888 10.1728 18.1022 10.1328C19.371 10.1179 20.7477 9.77275 21.9896 10.2584C23.0693 10.6806 24.1873 11.8968 24.3697 13.0621C25.0237 17.2405 19.8689 16.9786 18.7802 13.571C18.4934 12.6732 18.5656 12.0801 18.786 11.1865ZM7.35581 14.9937C7.31173 15.0421 7.68552 16.076 7.7518 16.2412C7.81606 16.4013 7.68987 16.5273 7.98976 16.4732C8.05806 16.2937 7.60125 14.7243 7.35581 14.9937ZM7.35589 11.5037L9.41687 19.4371L9.89505 19.5398C9.80774 19.4547 9.70236 18.4793 10.0002 18.8001C10.0401 18.8431 10.0816 19.7173 10.4759 19.6458C10.817 19.5839 10.389 18.8532 10.5827 18.6952C11.2528 18.9961 10.6601 19.0503 10.7421 19.3796C10.7851 19.5522 11.1198 19.5599 11.2708 19.54C10.8791 18.7096 9.45217 12.4747 9.13954 12.2596C9.04946 12.1976 8.75888 12.1918 8.84147 12.3957L10.298 17.3947L10.1081 17.6372L8.29953 11.5099C7.66256 11.3737 8.26111 11.9723 8.0422 12.3503C7.60414 12.2564 7.87836 11.4866 7.35589 11.5037ZM8.6259 11.5038C8.50792 11.6156 8.80734 12.1208 9.04815 12.0315C9.12401 11.8009 8.85695 11.2848 8.6259 11.5038ZM9.10163 20.3866C9.46314 20.4878 10.2191 20.3128 10.6363 20.3866L9.2221 19.949L8.78412 19.2222C8.73329 19.4954 8.82959 20.3104 9.10163 20.3866ZM9.26095 11.398L11.4485 19.2049L11.7999 19.5401C11.8221 19.357 11.79 19.1858 11.7518 19.0074C11.324 17.0052 10.5861 15.0301 9.96041 13.0988C9.92943 13.0031 9.63281 10.98 9.26095 11.398ZM11.1665 14.9932C11.4581 15.8092 11.4577 16.8451 12.0111 17.5312C11.7204 16.7354 11.7346 15.6267 11.1665 14.9932ZM21.5123 14.65C22.2148 13.9446 20.3971 11.5586 19.7361 12.2947C19.0823 13.0227 20.7612 15.4043 21.5123 14.65ZM22.8326 22.6355C22.949 23.2447 23.7736 24.4918 24.4511 24.5191C25.5139 24.5618 24.9386 23.0275 24.5465 22.5091C23.9477 21.7174 22.5512 21.1627 22.8326 22.6355ZM25.6646 24.9335C25.7754 24.831 25.4657 24.4506 25.3487 24.777C25.2687 25.0002 25.6257 24.9695 25.6646 24.9335ZM25.5604 23.665C25.5321 23.8622 25.5596 24.0314 25.7699 24.088C25.7983 23.8908 25.7707 23.7215 25.5604 23.665Z" fill="var(--fill-0, white)"/>
</g>
</g>
<defs>
<clipPath id="clip0_63_6777">
<rect width="16" height="22" fill="white" transform="translate(6 26) rotate(-90)"/>
</clipPath>
</defs>
</svg>
