<svg preserveAspectRatio="none" width="100%" height="100%" overflow="visible" style="display: block;" viewBox="0 0 35.0001 35" fill="none" xmlns="http://www.w3.org/2000/svg">
<g id="btn_voice">
<circle id="Ellipse 1" cx="17.5" cy="17.5" r="17" transform="rotate(-90 17.5 17.5)" stroke="var(--stroke-0, black)"/>
<g id="Layer_1" clip-path="url(#clip0_63_6751)">
<path id="Vector" d="M16.308 4.02857C16.3527 4.0647 16.6994 4.86961 16.8376 5.07208C18.3782 7.32905 20.7791 8.60882 22.2514 11.0437C24.4912 14.7477 24.59 19.9465 22.4864 23.7402C21.1328 26.1814 18.7846 27.6394 17.536 30.0943C17.3674 30.4258 17.2431 31.3544 16.9129 30.8559C16.7052 30.5423 16.4778 29.6675 16.2279 29.2037C14.5457 26.0805 9.84572 23.691 11.6376 19.4841C11.8 19.1029 12.6733 17.9166 12.6667 17.6806C12.6616 17.5004 11.7751 16.3315 11.6076 16.0124C9.27807 11.5719 14.2979 8.84468 15.7367 5.2315C15.8054 5.05892 16.0201 3.79557 16.308 4.02857ZM16.1117 6.50132C15.7115 7.00443 15.4423 7.6113 15.0715 8.141C13.6444 10.1798 10.9945 12.2155 12.0932 15.0915C12.4128 15.9282 13.536 16.8853 13.5599 17.6847C13.5806 18.377 12.9559 19.0429 12.6845 19.6535C12.2623 20.6034 12.0634 21.7194 12.4956 22.707C13.1486 24.1995 14.1917 25.0833 15.1797 26.2833C15.6868 26.8992 16.103 27.5766 16.5759 28.2154C16.6252 28.282 16.6573 28.5073 16.8008 28.3448C16.8261 28.3162 16.7078 28.0056 16.7028 27.8818C16.6035 25.4323 15.8694 22.0554 16.3552 19.7898C16.5312 18.9689 16.9636 18.3873 16.9036 17.4705C16.8504 16.659 16.2787 15.748 16.0849 14.9281C15.6735 13.1877 16.053 11.4887 16.1167 9.75126C16.1564 8.67192 16.0799 7.58063 16.1117 6.50132ZM16.9004 6.60441C16.9096 6.80267 16.9952 6.95411 17.0043 7.16436C17.0949 9.25503 16.6124 12.1646 17.1021 14.0685C17.4156 15.2874 18.2145 16.2245 18.2385 17.5956C18.2656 19.1387 17.2613 20.5234 17.196 22.1124C17.1379 23.525 17.5019 25.206 17.587 26.6465C17.599 26.8505 17.5441 28.342 17.6372 28.3466C18.2817 27.2363 19.1743 26.3169 20.046 25.4076C20.1114 25.142 19.7926 25.3494 19.7293 25.3855C19.5271 25.5008 19.2022 25.8653 19.0169 25.8751C18.967 25.8778 18.8688 25.6144 18.9097 25.5602C19.0658 25.3535 20.0587 25.1848 20.3915 24.9458C20.6315 24.7736 20.8857 24.3628 21.0687 24.1097C23.0542 21.3645 23.5432 17.8216 22.6743 14.5161C22.5119 13.8984 22.0252 12.1618 21.3734 12.0664L21.3245 12.3755C21.2216 12.3102 20.4586 11.9766 20.5393 11.8608C20.5553 11.8379 20.8228 11.9396 20.7198 11.6188C20.5089 10.9624 19.5444 11.0344 19.3587 10.8273C19.0499 10.4829 19.9208 10.7477 19.9484 10.7249C19.7729 10.1969 19.3798 10.0427 18.867 10.1071L19.1608 9.74842C18.9792 9.31507 18.3295 9.17422 18.1308 8.9722C17.9125 8.75015 17.7002 8.18186 18.2488 8.62963C18.47 8.81018 18.6891 9.00354 18.9162 9.17993C19.06 8.66447 19.1785 9.38888 19.3126 9.58879C19.5 9.86816 19.9195 10.09 20.243 9.95359L18.3243 8.04776L18.1772 8.3567C17.7584 8.21828 18.0379 7.8535 17.8759 7.5973L16.9004 6.60441ZM19.9489 10.2112C20.0645 10.6503 20.4947 11.0336 20.9315 10.9314C21.0725 10.8087 20.2513 9.94805 19.9489 10.2112ZM21.6194 12.0653C21.53 11.4791 21.2002 11.1672 20.637 11.139C20.87 11.642 21.0535 11.9782 21.6194 12.0653Z" fill="var(--fill-0, black)"/>
</g>
<circle id="Ellipse 3" cx="10.0001" cy="7" r="1" transform="rotate(-90 10.0001 7)" fill="var(--fill-0, black)"/>
</g>
<defs>
<clipPath id="clip0_63_6751">
<rect width="27" height="13" fill="white" transform="translate(11.0001 31) rotate(-90)"/>
</clipPath>
</defs>
</svg>
