<svg preserveAspectRatio="none" width="100%" height="100%" overflow="visible" style="display: block;" viewBox="0 0 35.0001 35" fill="none" xmlns="http://www.w3.org/2000/svg">
<g id="btn_video_hover">
<circle id="Ellipse 1" cx="17.5" cy="17.5" r="17" transform="rotate(-90 17.5 17.5)" fill="var(--fill-0, black)" stroke="var(--stroke-0, black)"/>
<g id="Group 9">
<path id="Vector" d="M26.7886 25.6372C26.519 25.8627 25.5162 25.5596 25.0812 25.5707C24.3561 25.5892 23.4775 25.9005 22.7307 25.9519C21.7469 26.0196 20.7851 25.7994 19.8137 25.8552C18.6037 25.9246 17.4026 26.3931 16.2281 26.5002C15.6746 26.5507 15.0943 26.4668 14.5489 26.5132C13.1853 26.6292 11.6662 27.1973 10.3265 26.8792C9.49485 26.6818 9.88696 26.0041 9.89815 25.4352C9.96982 21.791 9.63616 18.6488 9.42328 15.092C9.32303 13.417 9.40156 11.6996 9.22414 10.027C9.18248 9.63419 8.90306 8.8552 8.99236 8.55513C9.22569 7.77112 10.2074 8.2562 10.7874 8.25689C11.7783 8.25808 12.8876 7.85232 13.886 7.80183C14.6333 7.76404 15.3232 7.92463 16.0516 7.89852C17.3232 7.85295 18.5662 7.34253 19.8142 7.2433C20.9244 7.15503 22.1007 7.26038 23.1922 7.24466C23.9266 7.23408 24.6666 6.92399 25.5419 7.05936C26.3044 7.1773 26.0256 7.75006 26.0624 8.22521C26.2477 10.6161 26.1443 12.831 26.2536 15.184C26.4029 18.3987 26.9077 21.5007 26.906 24.7769C26.9059 25.0841 27.1222 25.3583 26.7886 25.6372ZM11.9631 26.5113C12.586 26.6503 13.0297 26.2181 12.1943 26.4166C12.0928 26.4407 11.9365 26.3486 11.9631 26.5113ZM10.9517 25.7371C11.0864 25.8715 12.3411 25.7872 12.4387 25.7192C12.569 25.6286 12.5711 24.6545 12.4857 24.5322C12.3487 24.3363 11.1536 24.4954 10.9649 24.627C10.8589 24.701 10.808 25.5939 10.9517 25.7371ZM13.6555 25.6659C14.4694 25.3367 15.2383 25.6318 16.0411 25.5605C17.3038 25.4482 18.6618 24.9046 20.0017 24.8212C21.1717 24.7484 22.2146 25.1228 23.3282 24.8105L23.3373 22.1421L22.9175 17.4857C22.2658 17.1707 22.6587 17.8867 22.6789 18.1944C22.7871 19.8432 22.9228 21.5376 22.9659 23.18C22.9862 23.9539 22.3821 23.981 21.7857 24.0669C20.07 24.3139 17.9858 24.4337 16.2392 24.5372C15.7903 24.5638 14.841 24.6696 14.4635 24.6245C14.207 24.5938 13.9276 24.4845 13.8197 24.2324L13.561 18.2854L13.3733 18.1466L13.6555 25.6659ZM20.8003 25.4773C21.034 25.4723 21.2716 25.4883 21.506 25.4782C21.6203 25.4734 21.8554 25.5494 21.8335 25.3852C21.5999 25.3902 21.3623 25.3742 21.1278 25.3843C21.0135 25.3892 20.7784 25.3131 20.8003 25.4773ZM25.9575 24.6189C26.0005 23.551 26.1787 23.2857 24.9835 23.4106C24.3013 23.4819 24.2861 23.7437 24.3681 24.4021C24.4389 24.97 25.5104 24.7218 25.9575 24.6189ZM14.0525 18.2617C13.773 18.5323 14.1013 20.8597 14.1288 21.3853C14.1525 21.8383 14.0263 23.9203 14.3065 24.1213C16.8557 24.0798 19.4145 23.7272 21.9697 23.5929C22.6588 23.4885 22.5163 22.7816 22.496 22.2313C22.4532 21.0721 22.4311 19.4948 22.304 18.3812C22.204 17.505 21.788 17.5528 21.0356 17.5833C19.3483 17.6515 17.5544 17.8985 15.8632 18.0511C15.4785 18.0857 14.3186 18.0041 14.0525 18.2617ZM12.5136 22.7388C12.5722 22.6452 12.556 21.6529 12.4386 21.5712C12.2711 21.4545 11.0152 21.5067 10.8779 21.7146C10.79 21.8477 10.7904 22.7133 10.9225 22.8052C11.0623 22.9024 12.4314 22.8702 12.5136 22.7388ZM24.2915 21.7988C24.3964 21.9662 25.6586 21.8592 25.7889 21.7714C25.9723 21.6479 25.8819 20.6673 25.6916 20.5351C25.637 20.4972 24.4209 20.5932 24.3664 20.6312C24.249 20.7132 24.2328 21.7051 24.2915 21.7988ZM12.1787 19.9132C12.5964 19.7904 12.4292 18.6908 12.2506 18.5626C12.1497 18.4901 10.8282 18.6369 10.7815 18.7041C10.696 18.8272 10.6981 19.8003 10.8285 19.8911C10.9318 19.963 12.0149 19.9614 12.1787 19.9132ZM25.5819 17.6895C25.4831 17.5293 24.337 17.7138 24.0859 17.7197L24.1313 18.9041C24.2521 19.0769 25.4549 18.9499 25.599 18.8559C25.799 18.7253 25.5096 17.9553 25.5819 17.6895ZM13.2784 17.3945L22.7746 16.5484C22.7705 13.7582 22.7475 10.9514 22.3944 8.18588C21.478 8.27098 20.5454 8.10943 19.6262 8.18332C18.646 8.2621 17.5951 8.66528 16.6148 8.74432C15.8023 8.80983 15.0147 8.63869 14.2663 8.6437C14.068 8.64502 13.1155 8.79097 12.9998 8.88915C12.6893 9.15261 12.9891 10.8587 13.0006 11.327C13.0221 12.2031 12.9484 13.093 12.9929 13.9668C13.051 15.1071 13.2721 16.2491 13.2784 17.3945ZM10.7833 16.9804C10.9172 17.0007 12.0615 16.905 12.1096 16.836C12.2189 16.6792 12.1919 15.7437 12.0166 15.5976C11.9099 15.5087 10.6574 15.6042 10.5935 15.6961C10.4891 15.846 10.4689 16.9327 10.7833 16.9804ZM23.9157 15.9709C24.4107 16.0017 24.9169 16.018 25.3962 15.8801C25.4142 15.6635 25.4464 14.7733 25.2991 14.6811C25.1986 14.6181 23.8684 14.6839 23.8181 14.7705C23.8057 15.1692 23.7497 15.5961 23.9157 15.9709ZM10.378 12.5189C10.2218 12.6154 10.3511 13.8033 10.4519 13.8758C10.5128 13.9195 11.8857 13.8486 11.9492 13.8088C12.1345 13.6923 12.0269 12.5618 11.8751 12.4529C11.7757 12.3816 10.4421 12.4793 10.378 12.5189ZM23.7138 11.6594C23.7588 11.9266 23.6136 12.8035 23.8023 12.9349C23.9411 13.0315 25.218 12.9987 25.2994 12.8686C25.3571 12.7763 25.3424 11.6911 25.2244 11.6053C25.0947 11.5109 23.9913 11.765 23.7138 11.6594ZM11.7518 9.3298C11.6613 9.23283 10.3467 9.28998 10.2146 9.39467C10.0135 9.55397 10.1185 10.485 10.2177 10.6316C10.3367 10.8073 11.6341 10.6831 11.7802 10.5845C11.9392 10.4773 11.9076 9.49678 11.7518 9.3298ZM23.6202 9.87386L24.9834 9.87386C25.379 9.87386 25.2704 8.65091 25.0317 8.51016C24.8581 8.40778 23.6465 8.53462 23.5671 8.64522C23.4001 8.87771 23.7197 9.56464 23.6202 9.87386ZM20.9883 7.80485L21.4575 7.80485L21.4575 7.71276L20.9883 7.71276L20.9883 7.80485Z" fill="var(--fill-0, white)"/>
<path id="Vector_2" d="M21.7399 23.3151C21.6999 23.2842 22.2365 22.6715 22.021 22.3764L21.6465 22.6116C21.8686 22.4573 21.9025 21.8913 22.2095 21.9065C22.286 22.1295 22.2199 23.6857 21.7399 23.3151Z" fill="var(--fill-0, white)"/>
<path id="Vector_3" d="M14.689 18.6152C14.9203 18.2935 15.4727 18.3396 15.8167 18.3351C15.8398 18.4635 15.6488 18.4777 15.558 18.4972C15.2792 18.5572 14.9693 18.5454 14.689 18.6152Z" fill="var(--fill-0, white)"/>
<path id="Vector_4" d="M21.9285 21.7177L22.1151 21.0602C22.0629 21.259 22.2773 21.7957 21.9285 21.7177Z" fill="var(--fill-0, white)"/>
<path id="Vector_5" d="M14.2202 18.992C14.1853 18.8393 14.2264 18.4712 14.4529 18.5225C14.7324 18.5857 14.4072 18.9124 14.2202 18.992Z" fill="var(--fill-0, white)"/>
<path id="Vector_6" d="M21.5516 23.0345C21.6285 23.1115 21.3628 23.4082 21.3171 23.4082C21.0706 23.4081 21.3006 22.9714 21.5516 23.0345Z" fill="var(--fill-0, white)"/>
<path id="Vector_7" d="M14.9903 16.3321C13.7771 16.4026 13.3876 16.4061 13.2802 15.0892C13.1749 13.7978 13.1342 12.2696 13.0868 10.9584C13.0532 10.0259 12.9979 9.51699 14.0792 9.40487C16.0873 9.19667 18.4562 8.9975 20.4669 8.92961C21.0566 8.9097 21.8034 8.77418 22.0966 9.37595C22.2172 10.4673 22.1653 11.5578 22.2061 12.6505C22.2321 13.3446 22.4178 14.32 22.3915 14.9893C22.3767 15.3631 22.063 15.733 21.6878 15.7905C21.0708 15.8851 20.2593 15.8371 19.6255 15.8906C18.1043 16.019 16.5088 16.2437 14.9903 16.3321ZM13.6771 9.98979C13.3927 10.2721 13.6518 11.1564 13.6587 11.5147C13.6824 12.7391 13.5726 14.2706 13.7552 15.4603C13.8467 16.0566 14.4227 15.9114 14.9231 15.8888C16.7172 15.8077 18.8601 15.6118 20.6579 15.4187C22.1408 15.2595 21.9807 15.2718 21.9319 13.7708C21.8953 12.6461 21.8618 11.215 21.7399 10.1086C21.7184 9.91387 21.6421 9.53949 21.4593 9.44917C21.2544 9.34801 19.2507 9.37946 18.8737 9.40472C18.2761 9.44477 17.6007 9.63191 16.9918 9.68504C16.452 9.73214 13.9035 9.76507 13.6771 9.98979Z" fill="var(--fill-0, white)"/>
<path id="Vector_8" d="M21.5514 10.9078L21.2925 10.4626L21.2232 9.4998C21.5733 9.85531 21.4753 10.4493 21.5514 10.9078Z" fill="var(--fill-0, white)"/>
<path id="Vector_9" d="M21.3646 15.0433C21.3223 14.8431 21.5675 14.706 21.5571 14.528C21.5538 14.4701 21.2281 14.5588 21.434 14.1267C21.4939 14.001 21.4499 13.9798 21.6457 14.0101C21.6057 14.3367 21.8843 14.9703 21.3646 15.0433Z" fill="var(--fill-0, white)"/>
<path id="Vector_10" d="M14.4072 10.4367C14.5612 10.0928 14.9138 10.0236 15.2526 9.96793C15.2977 10.2145 15.2078 10.1343 15.0639 10.1968C14.8596 10.2856 14.6161 10.3515 14.4072 10.4367Z" fill="var(--fill-0, white)"/>
<path id="Vector_11" d="M21.4583 13.8213C21.4772 13.5786 21.3521 13.1883 21.6449 13.0697C21.5842 13.2751 21.8183 13.8963 21.4583 13.8213Z" fill="var(--fill-0, white)"/>
<path id="Vector_12" d="M13.8432 10.5313C13.7421 10.4281 14.2038 9.96093 14.3128 10.0627C14.3032 10.1724 13.9713 10.662 13.8432 10.5313Z" fill="var(--fill-0, white)"/>
<path id="Vector_13" d="M20.7996 15.1367C20.8204 15.0562 20.981 14.8761 21.036 14.8565C21.3097 14.7587 21.158 15.2489 20.7996 15.1367Z" fill="var(--fill-0, white)"/>
<path id="Vector_14" d="M20.7058 9.68665C21.0723 9.63095 20.9959 9.73248 20.9868 10.0617L20.7058 9.68665Z" fill="var(--fill-0, white)"/>
<path id="Vector_15" d="M13.8434 11.0011C13.8113 10.9666 13.784 10.6495 13.9825 10.7205C14.2726 10.8244 13.9345 11.0995 13.8434 11.0011Z" fill="var(--fill-0, white)"/>
<path id="Vector_16" d="M13.8433 11.4709L14.0303 11.4709L14.0303 11.1898L13.8433 11.1898L13.8433 11.4709Z" fill="var(--fill-0, white)"/>
</g>
</g>
</svg>
