<svg preserveAspectRatio="none" width="100%" height="100%" overflow="visible" style="display: block;" viewBox="0 0 247 205" fill="none" xmlns="http://www.w3.org/2000/svg">
<g id="Group">
<path id="Vector" d="M126.739 116.496C127.676 110.859 139.064 110.184 142.933 112.671C146.264 114.812 145.197 119.532 145.935 122.803C147.705 123.118 149.481 123.219 151.285 123.146C153.083 120.44 155.15 117.906 157.036 115.26C158.536 113.158 161.401 107.964 163.133 106.605C167.581 103.113 179.018 107.658 178.907 113.234C178.838 116.676 173.139 122.554 171.531 125.795C182.247 128.022 193.287 130.303 203.067 135.389C210.083 139.039 214.656 142.653 215.155 151.034C215.596 158.444 214.861 166.593 213.965 173.931C214.816 173.624 216.395 174.321 216.999 174.18C217.921 173.966 221.334 171.394 222.51 170.833C227.385 168.507 233.093 168.882 238.13 170.534C246.378 173.239 247.872 179.38 238.653 182.285C235.674 183.223 231.083 183.731 227.962 183.703C222.438 183.653 215.563 181.13 209.992 182.207C209.323 182.336 206.704 184.793 205.807 185.396C205.329 185.718 203.733 186.255 203.651 186.339C202.75 187.271 205.306 186.622 205.552 186.616C210.249 186.519 215.976 186.377 220.591 186.928C221.497 187.036 223.168 187.303 223.688 188.103C221.782 188.541 219.608 188.896 217.66 189.005C212.215 189.31 205.302 188.036 200.287 188.723C198.402 188.982 193.679 191.457 191.427 192.247C189.446 192.941 187.411 193.491 185.382 194.016C185.312 194.53 186.051 194.294 186.407 194.307C193.819 194.58 202.351 191.95 209.403 194.597C216.982 197.443 212.931 201.858 207.311 203.44C202.457 204.807 196.23 204.706 191.417 203.172C188.864 202.358 185.203 200.888 187.884 197.851L190.683 196.083C187.57 195.895 184.493 196.35 181.388 196.389C175.833 196.459 172.279 197.477 166.87 198.349C137.585 203.071 106.181 203.414 76.8405 198.984C72.3522 198.306 66.9145 196.744 62.6452 196.379C58.4971 196.024 52.846 197.249 48.5156 197.272C45.7133 197.287 42.8947 196.8 40.105 196.669C39.2873 196.046 42.1104 195.622 42.3964 195.571C46.4644 194.851 51.0065 194.961 55.1324 194.896C55.0404 194.339 54.5118 194.413 54.1363 194.273C48.5364 192.175 44.5261 191.158 38.4711 191.343C35.0644 191.447 31.6048 192.036 28.1556 191.96C27.3326 191.942 22.0762 191.558 21.8328 191.353C21.3371 190.937 21.9466 190.838 22.243 190.732C23.4595 190.298 25.6534 190.037 26.9931 189.881C31.0323 189.409 35.1579 189.292 39.2184 189.285L31.8878 185.61C28.3537 185.917 0.556941 186.57 0.0258892 185.003C-0.16835 184.43 0.782481 184.43 1.14152 184.358C7.56001 183.068 17.6265 183.292 24.3528 183.368C25.8037 183.384 27.0513 183.909 28.6114 183.379C26.7738 181.791 25.0968 180.113 23.7006 178.115C19.0107 177.868 14.2798 178.272 9.59263 178.079C8.19325 178.021 6.26993 177.905 4.89384 177.767C4.04031 177.682 2.35026 177.482 1.61451 177.214C1.20041 177.063 1.11721 177.301 1.20618 176.593C8.22179 175.482 15.3352 175.709 22.4222 175.702L21.51 171.6C17.4101 171.304 13.1085 172.195 9.16423 170.833C12.9543 169.444 17.2697 169.383 21.2459 169.799C21.1414 163.499 20.5391 156.746 20.9527 150.459C21.578 140.954 28.767 136.923 36.6631 133.424C48.4353 128.207 62.148 125.902 74.8745 124.32C72.9631 118.985 68.3193 115.075 74.8665 110.876C78.7561 108.381 85.1176 106.703 88.0776 111.24C89.0247 112.691 93.6047 122.346 94.2221 122.519C100.161 122.056 106.173 121.852 112.15 121.661C112.713 121.643 113.281 121.372 113.909 121.356C118.299 121.25 122.646 121.828 127.033 121.662C127.145 121.343 126.739 121.017 126.739 120.926C126.739 119.647 126.549 117.643 126.739 116.496ZM175.652 114.87C177.302 112.407 174.52 109.871 172.426 108.807C170.014 107.582 165.207 106.231 164.461 109.852C167.5 108.53 173.217 111.399 175.079 113.827C175.386 114.226 175.158 114.906 175.652 114.87ZM81.2939 110.82C78.7509 111.126 74.7587 112.903 73.8259 115.47C74.8709 116.762 76.3853 116.234 77.774 115.857C80.8255 115.028 89.8543 109.79 81.2939 110.82ZM156.502 128.751C158.251 128.746 158.47 128.687 160.126 129.696C162.161 130.936 161.823 131.405 162.974 133.005C163.208 133.329 163.313 133.311 163.579 133.038C165.554 129.881 167.382 126.623 169.343 123.459C169.969 122.449 172.761 118.832 172.941 118.205C174.478 112.851 167.395 109.466 163.113 111.309L151.547 127.774L151.495 128.456C152.738 128.054 154.774 127.787 156.011 128.225C156.432 128.374 156.413 128.685 156.502 128.751C154.395 128.758 152.367 128.87 150.393 129.72C148.012 133.381 145.586 136.992 143.536 140.856C145.228 140.393 145.553 142.646 146.486 143.07C147.272 143.427 148.438 143.111 149.438 143.36C151.682 143.92 151.943 146.636 154.432 143.936L152.377 141.3C153.844 140.828 151.876 140.971 152.083 139.974C153.147 140.362 155.123 141.532 155.454 142.606C155.519 142.816 155.253 143.176 155.324 143.218C155.481 143.311 156.984 142.843 157.252 142.644C157.959 141.216 162.315 136.01 162.323 134.865C162.345 131.718 158.521 130.264 156.502 128.751ZM94.3095 129.022L85.6318 112.515C84.7688 113.302 84.3239 114.233 83.3953 114.993C81.3047 116.704 77.8986 116.979 76.7872 119.912C76.4227 120.874 81.4702 131.621 82.2402 133.331C85.0605 133.765 88.3649 133.049 90.7644 131.532C92.0355 130.729 92.8706 129.52 94.3095 129.022ZM134.924 113.477C133.815 113.602 129.98 114.435 129.972 115.905C129.97 116.327 130.386 116.761 130.778 116.879C131.708 117.157 136.834 117.033 138.047 116.902C140.391 116.649 144.391 115.111 140.063 113.775C138.513 113.297 136.535 113.295 134.924 113.477ZM142.946 135.1C143.097 131.718 142.835 128.295 142.946 124.912C141.107 126.312 138.716 126.515 136.464 126.386C136.566 125.822 137.077 125.896 137.481 125.784C139.851 125.126 143.284 125.624 142.653 121.958C140.688 122.16 139.068 121.02 137.053 121.366C137.686 119.843 142.002 121.463 142.36 121.236C143.526 119.282 140.166 118.276 138.67 118.124C136.675 117.921 134.858 118.457 133.077 118.441C132.091 118.432 130.828 118.013 129.837 117.821C129.324 117.795 130.526 123.373 130.278 124.026C131.172 123.442 131.269 122.342 132.633 122.553C132.36 123.194 130.452 124.468 130.99 125.221C131.387 125.778 135.005 126.419 135.875 126.39C136.37 126.765 135.837 126.926 135.438 126.98C133.727 127.212 132.174 126.503 130.572 126.095L131.735 139.192L132.926 139.826L132.039 140.125C132.612 141.047 133.091 144.681 134.255 144.597C134.46 144.582 135.043 144.023 135.498 143.875C138.138 143.009 139.612 143.479 140.589 140.271C139.512 140.039 138.47 140.505 137.492 140.566C136.989 140.597 136.771 140.258 137.054 139.977C137.247 139.785 140.637 138.88 141.162 139.378C141.775 137.515 142.853 137.197 142.946 135.1ZM107.486 127.47C107.698 127.263 109.306 124.641 109.291 124.467C109.204 123.45 106.827 124.018 106.097 124.159C103.819 124.599 99.3106 126.49 98.0259 128.472C96.3111 131.116 99.9275 130.494 101.456 130.14C102.565 129.883 106.77 128.167 107.486 127.47ZM127.623 128.748C126.867 127.773 127.903 124.415 126.845 124.068L114.07 123.733L117.209 128.409L127.623 128.748ZM116.425 133.473C116.119 132.09 112.064 123.076 110.253 124.336C110.098 124.444 109.138 127.35 108.906 127.868C110.651 130.546 113.101 133.088 116.425 133.473ZM99.6289 124.617H95.2087L96.5392 126.984L99.6289 124.617ZM145.893 125.208V130.523C146.584 130.702 146.387 130.359 146.569 130.148C147.723 128.807 148.69 126.968 149.724 125.506L145.893 125.208ZM76.029 126.412C66.0912 127.701 55.9945 129.572 46.4337 132.584C39.9936 134.613 33.5005 137.154 28.3991 141.66C28.1996 141.836 27.8332 141.643 28.0237 142.334C29.9889 141.968 31.7277 142.677 33.5048 142.895C34.4638 143.012 35.447 142.823 36.3955 142.951C37.3497 143.079 40.802 144.792 41.2666 144.386C41.3484 144.315 41.61 142.99 42.0393 142.355C45.4919 137.247 58.3395 134.197 64.2127 132.978C68.692 132.049 73.2761 131.35 77.8213 130.817L76.029 126.412ZM211.31 147.649C211.377 147.233 211.273 146.864 211.167 146.467C209.053 138.575 189.478 132.41 182.265 130.544C180.646 130.126 170.528 127.755 169.808 128.21C169.547 128.376 168.186 131.653 167.707 132.149C167.902 132.487 168.144 132.479 168.449 132.577C175.149 134.735 189.554 136.278 193.582 142.827C194.045 143.581 194.153 144.901 194.233 144.98C194.426 145.171 198.807 144.935 199.669 144.996C203.665 145.275 207.61 146.139 211.31 147.649ZM108.15 129.357C107.76 129.082 100.846 133.417 99.3356 132.887C99.8553 135.173 103.299 133.729 104.933 133.479C104.028 134.612 101.82 135.285 100.516 134.657L103.486 140.84C106.27 140.564 108.894 140.221 111.429 138.952C113.027 138.151 114.391 136.61 116.13 136.13C113.403 133.975 109.568 132.836 108.15 129.357ZM95.2071 130.229C94.9177 129.912 91.8863 132.34 91.2842 132.644C88.9267 133.834 85.4605 134.784 82.8337 134.659L87.0285 143.443C87.8526 144.167 93.2017 144.767 93.4409 144.996C94.4214 145.932 90.9606 145.231 90.7894 146.031C90.7602 146.168 92.0251 148.042 92.2265 148.424C92.6261 149.183 92.3508 150.268 93.4385 150.312C93.3961 150.81 92.6525 150.555 92.0967 150.881C91.9699 150.955 90.8281 152.148 90.7944 152.236L92.448 153.795C92.6034 153.826 95.0552 153.054 95.2991 152.909C95.8308 152.593 95.8733 152.061 96.2295 151.774C96.8813 151.25 98.1451 151.238 98.7334 150.459L97.569 149.127C97.982 150.598 96.6376 150.472 95.505 150.897C95.1852 149.456 96.3333 150.596 96.9711 149.57L93.7354 146.472L96.0911 147.354C95.4755 143.47 98.3301 142.531 101.395 144.105C100.513 141.891 99.4166 139.713 98.3091 137.604C97.075 135.254 94.8236 133.019 95.2071 130.229ZM128.21 137.61C128.197 137.197 128.291 136.722 128.165 136.329C128.027 135.894 123.889 133.158 123.498 134.809C123.406 135.201 125.232 136.927 125.634 137.093C126.475 137.442 127.394 137.165 128.21 137.61ZM116.991 136.745C115.545 136.573 114.905 138.076 113.872 138.743C110.951 140.629 107.508 141.784 104.05 142.043L110.593 153.81C112.103 153.222 113.934 155.304 115.1 155.308C116.29 155.311 121.684 150.37 124.086 151.488L116.991 136.745ZM77.9155 140.757C79.4484 141.756 79.9755 141.3 80.6191 139.662C81.0551 138.552 79.3418 137.618 78.4188 138.05C78.2699 138.119 76.991 139.419 76.9456 139.54C76.8901 139.794 77.8411 140.708 77.9155 140.757ZM169.466 141.743C169.911 141.332 166.179 137.712 165.631 138.035C164.814 138.517 165.112 140.344 165.646 140.997C166.599 142.163 168.154 142.04 169.466 141.743ZM121.293 138.2C120.159 138.431 121.778 139.23 121.863 139.372C122 139.602 121.599 140.144 122.006 140.417C122.336 140.639 123.081 140.608 123.609 140.895C124.723 141.499 125.407 142.296 127.009 143.098C127.287 143.237 128.316 144.665 128.508 143.658C128.914 141.536 122.682 137.918 121.293 138.2ZM72.2238 140.268C72.3521 139.629 73.6717 139.868 73.986 139.234L73.0146 138.546L69.8679 140.56C70.6874 140.59 71.3919 140.266 72.2238 140.268C72.087 140.949 72.3254 140.732 72.6358 140.897C73.9329 141.591 75.4091 142.194 76.6425 141.005C75.0569 141.225 73.8429 140.272 72.2238 140.268ZM58.6322 142.596C58.8251 142.264 58.6109 141.86 58.3938 141.576C57.2951 140.136 52.4115 141.387 51.3032 142.779L52.7736 142.927C53.0025 143.131 51.292 145.143 52.0209 146.189C53.2738 147.145 54.0569 145.424 55.0358 144.748C55.6044 144.356 58.5268 142.777 58.6322 142.596ZM66.3287 141.155C64.947 141.141 62.322 140.943 61.9116 142.629L64.6477 142.569L66.3287 141.155ZM182.729 144.991C183.945 145.167 189.356 144.34 188.884 142.543C188.518 141.144 186.545 140.944 185.382 141.452L185.969 141.891C185.705 142.369 182.189 144.525 182.729 144.991ZM140.589 143.81C141.62 143.624 143.897 144.881 144.141 143.361C144.311 142.301 143.503 141.654 142.534 141.471L140.589 143.81ZM180.368 142.043C178.662 141.187 176.918 141.475 175.065 141.45C174.83 142.966 175.662 142.113 176.687 142.041L180.368 142.043ZM75.4642 144.407C75.2966 144.234 71.4502 142.545 71.0627 142.466C67.7252 141.79 67.8476 143.81 65.99 144.503C63.336 145.494 61.2678 143.879 59.4717 144.766C58.682 145.157 58.0487 146.197 57.3431 146.765C56.4433 147.49 55.1149 147.893 54.5432 149.124C56.9141 148.473 58.9496 150.307 60.9037 150.577C63.3826 150.918 66.4332 149.81 68.5437 148.538C68.7689 147.682 66.2315 148.373 67.0705 147.351C67.9284 147.582 70.7403 148.324 70.7545 149.263C70.7632 149.839 69.7913 150.894 70.1599 151.785L72.8117 151.783C72.8435 151.144 72.3284 150.789 72.2318 150.14C71.8385 147.496 74.2618 146.011 74.2807 145.731C74.336 144.911 72.2729 146.118 72.2254 145.291C72.3576 145.123 76.3781 145.349 75.4642 144.407ZM79.5886 142.929L76.644 142.338C76.7918 142.689 77.3804 143.384 77.7089 143.447C77.8047 143.465 79.6075 143.316 79.5886 142.929ZM171.234 144.105C171.219 142.495 168.162 143.349 167.406 143.96C167.041 144.255 166.321 145.579 166.221 146.023C166.02 146.925 167.623 145.717 167.108 146.614C166.895 146.985 166.278 146.999 166.228 147.066C165.736 147.723 166.796 147.605 167.083 147.811C167.432 148.06 167.529 148.546 167.841 148.837C168.971 149.889 168.939 148.904 169.85 148.475C171.112 147.882 175.73 147.037 173.988 145.335L169.919 144.72C169.297 144.424 167.493 145.778 167.255 145.288C167.034 144.835 167.733 144.701 168.048 144.604C169.026 144.303 170.208 144.135 171.234 144.105ZM125.855 144.99L123.501 143.516C123.311 143.728 124.317 145.568 124.527 145.57C124.599 145.571 125.341 144.773 125.855 144.99ZM179.438 145.539C179.596 145.446 180.284 144.357 179.773 143.968C179.005 143.384 177.65 143.297 177.133 144.264C177.003 144.877 178.998 145.797 179.438 145.539ZM41.262 146.194C41.1123 146.03 37.6067 145.632 36.9931 145.009L26.7636 143.859C24.7854 145.213 24.7722 147.863 25.6096 149.92C28.0741 155.975 40.6677 160.438 46.5243 162.331C50.2502 163.535 56.599 164.506 59.7229 165.936C60.9056 166.478 60.3832 167.233 59.3978 167.427C57.2854 167.844 48.4742 165.186 45.9369 164.396C42.8898 163.447 39.8821 162.135 36.8635 161.232L36.5715 162.118C36.4207 160.167 35.1546 160.687 34.2272 160.184C33.1795 159.616 32.0321 158.43 30.6744 158.284C29.6878 159.115 38.9402 164.492 39.6095 164.83C43.363 166.73 47.5147 167.82 51.3002 169.652C48.9275 169.683 46.6843 168.302 44.4505 167.657L35.6854 163.598C35.6617 164.099 35.6493 164.604 35.8157 165.089C36.0585 165.797 37.1516 166.291 36.7166 166.844L35.9814 166.254C35.9565 167.23 36.0642 168.547 36.5032 169.42C36.6593 169.73 39.0651 171.911 39.4412 172.152C41.1321 173.234 45.2568 174.639 47.3184 175.414C48.2538 175.765 52.8643 176.964 53.0703 177.184C53.0917 177.206 53.1767 177.808 52.9277 177.766C48.7264 176.591 44.7856 174.83 40.6182 173.616C40.2912 173.521 40.6238 172.759 39.515 173.34L39.8058 172.768C38.7136 173.026 37.4943 170.411 37.0098 170.395C36.0086 170.361 37.2467 172.202 37.2922 172.421C37.5336 173.58 37.0577 174.068 38.0905 175.507C40.6007 179.004 52.4241 182.149 56.6065 183.824L65.7395 186.332C55.2278 184.762 43.5998 181.726 34.8196 175.537C34.2925 175.165 33.9544 174.561 33.484 174.217C33.054 173.903 32.4455 173.955 31.986 173.651C31.1426 173.095 30.7564 171.629 30.5158 170.695C29.5736 167.038 29.8973 159.978 28.6422 157.217C28.1696 156.177 26.144 155.523 25.9556 154.149C25.4718 154.07 25.6819 154.547 25.6645 154.88C25.4439 159.112 25.983 170.24 27.5843 173.928C31.4806 182.902 53.5116 188.593 62.4962 190.62C95.2157 198.001 135.659 198.543 168.638 192.443C178.18 190.678 201.624 185.109 207.137 176.982C210.407 172.162 210.103 162.301 210.502 156.433C210.525 156.099 211.095 155.851 210.284 155.921L206.648 159.071L204.826 171.864C204.311 171.933 204.55 171.195 204.536 170.836C204.481 169.484 204.817 168.463 204.841 167.3C204.896 164.683 204.396 162.284 205.121 159.758C202.55 160.973 203.638 161.349 203.342 163.124C202.808 166.326 201.373 174.428 199.524 176.737C195.989 181.15 181.103 185.015 175.416 186.242C172.303 186.914 169.112 187.536 165.933 187.808L179.55 184.479C184.273 183.101 188.923 181.364 193.242 179.005C195.217 177.926 198.739 176.531 198.495 173.934C195.647 175.151 192.823 176.453 189.863 177.391C187.335 178.192 183.29 179.368 180.737 179.765C180.422 179.814 179.714 180.08 179.783 179.546C181.588 179.047 192.723 175.988 193.297 175.075C193.418 174.881 193.306 174.493 193.334 174.225L192.75 174.085C193.315 173.31 195.344 168.925 194.808 168.323L188.257 170.762L182.14 172.31C186.097 170.403 190.44 169.336 194.426 167.495C195.001 167.23 196.235 166.61 196.77 166.328C198.347 165.496 200.617 164.582 200.407 162.417C200.302 162.302 197.732 163.324 197.484 163.471C197.103 163.696 196.27 164.768 196.136 164.767C195.977 164.766 193.8 163.081 194.236 162.432C194.39 162.203 198.567 160.689 199.336 160.307C202.038 158.964 211.589 153.983 211.034 150.464C210.869 149.421 206.817 147.989 205.73 147.781C204.42 147.532 201.869 147.16 200.551 147.065C199.812 147.011 194.774 146.896 194.548 147.094C194.45 147.18 193.981 148.914 193.582 149.52C187.713 158.435 157.772 162.193 147.511 163.003C132.143 164.216 116.393 164.176 101.025 163.051C99.9544 163.238 97.6568 165.919 96.6565 166.672C95.0132 167.908 93.127 168.576 91.4576 170.007C91.2453 170.189 90.9008 169.997 91.0847 170.682C93.3115 170.464 95.5349 170.856 97.7165 170.976C112.918 171.816 128.154 171.539 143.399 171.559L144.42 172.157C142.808 172.456 141.19 172.861 139.555 173.044C125.092 174.657 110.411 173.197 95.9576 172.739C94.382 172.689 91.0071 172.365 90.0291 173.614C89.2053 174.666 89.7274 177.591 89.6061 179.096C89.2964 182.939 87.6299 186.241 92.358 188.158C97.0073 190.044 106.118 190.58 111.256 190.777C117.183 191.003 123.166 190.581 129.095 190.767L126.309 191.367C119.144 191.141 111.932 191.623 104.772 191.369C100.993 191.235 94.4344 190.993 91.0845 189.434C89.8867 188.877 89.1215 187.769 87.8462 187.5C89.1146 184.328 87.8136 181.761 87.5518 178.8C87.414 177.241 87.2714 172.644 87.6856 171.264C88.7275 167.791 94.4596 166.192 97.0699 163.542C97.3254 163.283 97.7156 163.294 97.5646 162.712C90.7659 162.481 83.8702 161.852 77.1239 160.901C72.7321 160.282 67.9487 159.449 63.6225 158.485C58.1473 157.264 44.0599 153.672 41.7118 148.255C41.4029 147.542 41.3331 146.272 41.262 146.194ZM146.189 144.406C147.789 145.76 149.494 146.858 151.486 145.436C149.928 143.925 148.198 143.311 146.189 144.406ZM51.0056 147.058C50.7993 146.395 52.2341 143.85 50.6079 144.132C48.6883 144.465 50.4623 147.741 51.0056 147.058ZM162.101 147.651C162.735 145.516 160.948 143.556 158.845 144.233C158.697 144.281 156.309 145.765 156.209 145.884C155.841 146.325 157.708 147.248 157.83 147.256C158.163 147.277 158.827 146.58 159.546 146.744C159.833 146.809 159.808 147.466 160.218 147.607C160.752 147.789 161.519 147.597 162.101 147.651ZM78.9232 145.354C78.053 145.532 74.5158 147.841 74.3333 148.753C74.0363 150.235 75.2374 149.907 75.9224 150.588C76.5037 151.166 76.4121 152.107 77.4191 152.632C78.2322 153.056 80.2967 153.132 81.2048 152.959C82.1328 152.783 82.5355 151.506 83.6307 151.257C84.365 151.09 85.4255 151.153 86.1904 151.227C87.1571 151.32 88.3564 152.258 88.9938 151.318C89.8489 150.057 88.94 149.644 88.7923 148.901C88.7137 148.506 88.9999 148.112 88.946 147.834C88.6705 146.412 86.694 146.328 85.769 146.036C82.9725 145.156 84.152 145.838 82.0955 145.843C81.1083 145.845 80.4723 145.038 78.9232 145.354ZM146.686 147.153C144.918 145.643 143.643 146.468 141.917 146.467C140.132 146.466 139.087 145.15 137.202 146.47C133.91 148.774 139.724 149.603 140.717 150.332C141.218 150.7 141.085 151.324 141.365 151.517C142.008 151.962 143.441 151.716 144.57 152.668C145.918 153.803 146.309 156.859 148.394 156.834C148.993 156.827 149.74 156.439 150.132 156.493C150.409 156.53 150.034 157.396 151.212 156.973C153.101 156.296 153.417 152.858 151.895 152.394C151.064 152.141 150.505 153.71 150.163 152.966C149.977 152.562 150.653 152.467 150.484 152.08C150.282 151.617 149.128 151.123 148.703 150.593C148.021 149.742 147.602 147.935 146.686 147.153ZM128.211 146.175C127.484 146.167 125.207 146.524 125.002 147.254C124.841 147.827 125.946 149.96 126.425 150.161C126.735 150.291 127.152 149.955 127.431 150C127.665 150.037 127.492 151.031 128.8 150.309L127.33 150.9C128.479 154.226 136.055 151.119 133.816 148.086C133.566 147.747 131.871 146.599 131.529 146.512C130.745 146.314 130.52 147.153 129.958 147.48C129.327 147.847 128.52 147.954 127.921 148.536L128.211 146.175ZM186.263 146.473C185.067 146.041 183.561 146.131 182.364 146.547C182.003 146.672 179.989 147.757 179.667 147.979C179.047 148.404 178.014 150.487 178.444 151.198C179.347 152.69 182.75 151.214 183.619 150.168C184.191 149.479 184.073 148.752 184.486 148.084C184.729 147.69 186.399 146.654 186.263 146.473ZM175.955 150.603C176.452 150.975 178.183 148.252 178.261 147.729C178.455 146.418 176.592 146.553 175.782 147.039C175.165 147.888 176.524 148.796 176.242 149.127L175.364 148.536L175.955 150.603ZM160.115 153.183C159.123 152.544 158.243 149.393 155.589 148.122C153.719 147.226 147.819 146.253 151.099 149.373C151.566 149.816 156.104 152.72 156.678 152.937C157.591 153.281 158.323 153.117 158.939 153.329C160.22 153.769 161.629 154.864 162.983 154.592C162.432 153.337 160.731 153.579 160.115 153.183ZM174.477 151.194C175.199 147.989 170.216 148.146 170.352 151.194H174.477ZM172.119 155.916C169.801 153.353 165.357 149.521 161.679 150.028C160.703 150.162 158.862 151.228 160.924 151.196C159.798 153.151 161.906 152.587 162.862 153.827C163.416 154.546 163.32 155.865 164.379 156.163C164.973 156.331 168.44 155.306 169.243 155.009C169.519 154.906 169.535 154.461 169.614 154.437C171.086 153.974 169.901 156.074 170.058 156.212L172.119 155.916ZM57.7845 152.668C57.0752 150.446 55.0714 151.104 53.3652 151.788C54.3452 153.112 56.3798 152.567 57.7845 152.668ZM63.0889 153.258C63.9511 153.362 68.6461 152.841 68.6817 151.932C68.7041 151.363 67.9301 151.62 67.5978 151.723C66.315 152.122 65.2772 152.288 64.0756 152.626C63.6782 152.738 63.1786 152.745 63.0889 153.258ZM105.711 153.367C104.453 152.017 102.045 151.434 100.296 152.012C99.8408 152.162 97.454 153.591 97.8617 154.143C100.837 154.99 103.599 157.104 106.399 154.726C106.563 154.489 105.914 153.585 105.711 153.367ZM140.001 154.447C142.519 153.146 138.968 153.154 138.146 152.904C137.523 152.714 136.967 151.72 135.761 151.866C135.506 151.897 133.142 153.406 133.053 153.557C132.816 153.962 133.328 154.499 133.199 154.695C133.086 154.866 131.653 155.257 131.766 156.031C132.088 157.893 139.715 157.318 140.586 155.177C140.868 154.485 139.88 154.972 140.001 154.447ZM117.31 156.211C119.327 155.412 122.162 158.232 123.347 158.311C124.42 158.381 125.839 157.516 125.834 156.362C125.833 156.107 124.427 153.206 124.23 152.97C123.803 152.46 121.506 152.569 120.857 152.83C119.837 153.24 118.096 155.326 117.31 156.211ZM79.8853 157.688C79.0164 156.346 75.9252 154.112 74.4162 153.872C72.3623 153.547 70.6308 154.408 68.8206 154.723C67.8014 154.901 66.533 154.627 65.448 155.036L68.1859 155.388C69.7337 156.219 76.2095 157.708 77.6362 157.411C77.8436 157.368 77.8217 156.893 77.8735 156.867C78.4263 156.581 79.1243 157.877 79.8853 157.688ZM82.8341 155.914C83.716 156.039 85.8518 157.388 86.5165 157.378C87.0042 157.371 87.3723 156.912 87.7587 156.859C88.4187 156.768 89.0437 157.235 89.9809 157.042C92.5024 156.523 90.2648 153.991 88.0012 153.834C86.5863 153.737 83.2628 154.311 82.8341 155.914ZM155.324 157.098C156.643 153.948 152.194 154.786 152.967 155.914C153.055 156.042 155.455 157.509 155.602 157.559C156.103 157.726 158.523 158.294 159.004 158.311C159.581 158.33 162.201 157.985 162.394 157.542C161.063 155.899 160.309 157.237 159.655 157.073C159.203 156.96 157.384 154.51 156.755 156.036C156.377 156.953 156.822 157.299 155.324 157.098ZM93.7337 155.034C93.08 154.369 92.1518 156.047 92.5582 156.803C93.4012 157.052 94.0654 155.372 93.7337 155.034ZM139.41 157.688C141.916 158.586 146.457 157.477 142.225 155.608L139.41 157.688ZM112.82 157.172C112.704 157.073 110.22 156.028 110.024 155.987C107.55 155.466 106.314 156.87 104.635 158.425C104.254 158.778 103.682 159.166 103.756 159.756C108.4 160.55 113.137 160.053 117.765 160.655L122.023 160.199C120.739 159.95 119.377 159.413 118.045 159.436C117.017 159.453 116.243 160.085 115.758 160.018C115.407 159.968 113.636 158.543 113.267 158.197C112.999 157.946 113.057 157.373 112.82 157.172ZM102.868 157.692C102.544 157.412 100.34 158.585 100.06 158.588C99.4307 158.595 99.3023 157.624 98.6726 157.312C97.4618 156.712 95.1141 157.672 94.9155 159.166C97.2644 159.235 100.34 160.01 102.318 158.459C102.469 158.341 103.378 158.131 102.868 157.692ZM127.329 160.348H131.749L128.658 158.27C127.687 158.302 128.237 159.16 128.024 159.682C127.825 160.17 127.262 159.865 127.329 160.348ZM34.2103 164.184C34.3843 163.415 32.0992 161.014 31.8544 162.272C31.7622 162.746 33.6831 164.605 34.2103 164.184ZM34.1367 164.852C33.8949 164.551 31.6958 163.813 31.2666 163.006C30.7072 165.806 32.8847 166.546 34.6539 168.025C34.9174 167.526 34.3776 165.151 34.1367 164.852ZM196.58 170.099C196.616 170.059 197.077 170.024 197.308 169.806C197.866 169.277 201.466 166.182 200.995 165.664C199.879 166.433 196.582 167.085 195.855 168.04C195.212 168.885 195.276 170.631 194.964 171.576C194.664 172.484 193.772 173.741 193.627 174.67C193.563 175.077 193.637 175.236 194.067 175.109C194.525 174.973 199.084 172.572 199.254 172.332C199.622 171.812 200.048 168.564 200.111 167.731C199.322 168.147 199.139 169.238 198.498 169.802C198.1 170.152 195.618 171.186 196.58 170.099ZM35.0914 170.979C35.2394 168.782 33.1987 167.551 31.5613 166.55C31.2938 169.061 33.186 169.991 35.0914 170.979ZM36.2716 174.521C35.9152 172.361 34.5288 171.168 32.4439 170.685C31.7889 171.989 36.0055 174.801 36.2716 174.521ZM227.521 181.018C231.17 180.856 235.319 180.685 238.784 179.462C246.014 176.911 240.048 173.412 235.834 172.244C229.736 170.555 224.233 171.483 219.293 175.581C217.308 177.228 216.995 178.234 219.568 179.39C224.486 181.601 227.743 179.438 232.231 177.476C232.763 178.851 226.524 180.143 227.521 181.018ZM211.312 180.134H215.437C214.001 178.237 214.857 177.254 215.73 175.41C213.023 174.983 213.587 176.116 212.699 177.833C212.288 178.629 211.785 179.378 211.312 180.134ZM210.042 197.643C209.429 196.955 206.474 196.071 205.478 195.872C201.128 195.003 197.241 195.369 193.275 197.347C192.759 197.604 189.624 199.276 190.096 199.915C192.01 200.316 194.805 201.5 196.722 201.416C198.119 201.354 200.927 199.801 202.174 199.033C201.944 200.476 200.156 200.983 198.936 201.103C199.153 201.822 199.959 201.721 200.544 201.698C202.381 201.627 209.526 200.486 210.292 198.728C210.466 198.331 210.306 197.94 210.042 197.643Z" fill="var(--fill-0, black)"/>
<path id="Vector_2" d="M88.7272 95.3805C88.0455 94.7918 92.4762 92.3145 92.8543 91.9892C98.2003 87.3902 91.4156 84.8123 87.3622 83.9031C80.3711 82.3349 64.0918 82.8437 59.719 76.7591C57.2995 73.3925 59.3833 69.4953 62.2294 67.2056C70.9847 60.1621 86.4156 61.4493 96.9755 58.3206C113.035 53.5625 95.6561 47.5622 89.1448 45.7946C78.2432 42.8353 49.562 40.1688 51.9678 23.5533C53.1069 15.6861 63.3211 11.46 68.8365 7.08864C69.1706 7.6866 67.9208 8.63926 67.5132 9.01081C61.9908 14.0451 50.2124 20.0577 55.2644 29.5455C61.4839 41.2257 89.9356 40.9697 101.079 47.7146C110.902 53.6603 104.276 58.193 96.6815 60.3883C89.402 62.4925 80.7667 62.9896 74.4837 67.6738C66.1727 73.8699 76.8265 77.9841 82.1701 79.9518C85.9005 81.3255 93.442 82.6554 95.6307 85.9526C98.5381 90.3327 92.9132 95.2324 88.7272 95.3805ZM78.4106 63.4926C73.2545 64.2682 65.8081 66.0862 62.5069 70.4367C58.4136 75.8311 65.6201 78.098 69.6419 79.2179C72.4239 79.9926 75.2815 80.4014 78.1157 80.9096L73.2052 78.3048C67.0344 74.5679 67.8502 69.4824 73.6084 65.9107L78.4106 63.4926Z" fill="var(--fill-0, black)"/>
<path id="Vector_3" d="M117.604 113.688C114.58 113.123 110.55 107.179 110.254 104.357C109.219 94.4899 130.102 91.3019 129.366 82.2803C128.84 75.8307 118.441 73.8562 113.329 73.5327C109.042 73.2614 104.712 73.8776 100.446 73.1536C97.8755 72.7173 93.3407 71.3647 96.5374 68.2173C98.9735 65.8187 110.814 64.8628 115.016 63.7011C123.342 61.3991 133.758 56.0905 127.747 45.7955C120.785 33.8735 98.8433 34.4038 86.8483 32.7403C79.8633 31.7717 62.7379 29.203 64.3386 19.1173C65.172 13.8666 73.096 11.0829 73.6667 5.13267C73.8598 3.12023 73.0139 1.74366 72.2267 0C75.1353 2.23129 75.5234 5.49615 74.0487 8.7682C71.5427 14.3283 60.0838 19.4114 70.2513 25.7483C85.1111 35.0097 124.382 27.5147 131.388 47.4622C136.041 60.711 119.403 64.8606 109.997 66.645C106.99 67.2155 101.038 67.4169 98.6412 68.8488C95.3432 70.8191 101.256 71.594 102.761 71.7203C110.595 72.3778 127.944 70.2891 131.515 80.1134C135.574 91.2806 115.737 93.9348 112.583 101.72C110.953 105.742 114.663 111.067 117.604 113.688Z" fill="var(--fill-0, black)"/>
<path id="Vector_4" d="M111.708 112.51C102.954 108.471 100.989 101.589 108.918 95.0933C112.454 92.1961 125.244 87.1848 118.334 81.2143C113.321 76.8818 105.718 78.2536 99.8574 76.9921C99.0886 76.8266 97.9238 76.6902 97.5664 75.8951C100.299 76.5238 103.182 76.0246 105.977 76.1754C111.196 76.4571 124.883 78.5933 122.239 86.5925C119.756 94.1052 97.647 97.6196 109.355 109.998C109.658 110.318 112.194 111.984 111.708 112.51Z" fill="var(--fill-0, black)"/>
<path id="Vector_5" d="M79.8854 48.4263C75.014 48.6416 70.177 47.8776 65.443 46.8084C54.462 44.3284 38.0301 37.5496 45.1557 23.2234C45.6532 22.2231 46.6427 20.5807 47.5676 20.0291C48.8642 19.2558 47.0612 21.8304 46.9609 22.0794C41.256 36.243 55.0927 41.6428 65.9721 44.8017C70.0901 45.9974 75.031 46.555 78.8971 47.7955C79.2882 47.921 79.794 47.896 79.8854 48.4263Z" fill="var(--fill-0, black)"/>
<path id="Vector_6" d="M104.345 63.488C104.213 62.7348 104.462 62.9565 104.933 62.7658C110.524 60.5065 124.059 57.5257 119.924 48.3195C115.996 39.5759 99.9819 38.2867 91.896 36.5383C91.6107 36.4766 91.0124 36.4339 91.0847 36.0296C99.7027 36.385 113.882 38.2863 119.952 45.0429C129.329 55.48 113.165 63.2606 104.345 63.488Z" fill="var(--fill-0, black)"/>
<path id="Vector_7" d="M68.0986 51.0883C68.8213 51.6477 66.7506 51.9444 66.475 51.9706C57.9235 52.7835 39.4936 48.6677 36.2176 39.478C35.7972 38.2988 35.455 37.2532 35.9822 36.0289L36.9149 38.1889C39.2137 42.506 45.258 45.3139 49.6757 46.958C55.5902 49.1592 61.8454 50.2985 68.0986 51.0883Z" fill="var(--fill-0, black)"/>
<path id="Vector_8" d="M159.684 79.5248C162.992 79.3095 166.274 80.2721 165.017 84.2792C163.805 88.1439 156.017 89.6268 152.549 89.1551C148.723 88.6346 150.026 85.7709 151.659 83.5898C153.575 81.0311 156.535 79.7297 159.684 79.5248ZM162.625 81.8588C162.308 81.631 160.42 81.4751 159.903 81.499C156.755 81.6449 153.022 83.9835 152.083 87.1122C154.884 87.5306 162.621 86.3185 162.897 82.7821C162.916 82.5361 162.804 81.9877 162.625 81.8588Z" fill="var(--fill-0, black)"/>
<path id="Vector_9" d="M170.351 204.049C162.121 205.807 153.546 204.808 145.306 203.611C146.421 202.78 148.202 203.251 149.574 203.164C154.856 202.827 164.332 202.194 169.319 203.464C169.728 203.568 170.237 203.456 170.351 204.049Z" fill="var(--fill-0, black)"/>
<path id="Vector_10" d="M103.46 112.211C100.441 111.242 96.7831 108.058 96.224 104.848C95.0004 97.8204 100.86 94.8766 105.52 91.2481C106.187 92.0533 101.916 95.2439 101.383 95.8114C98.1329 99.2754 96.844 104.07 99.5711 108.286C100.621 109.909 102.325 110.707 103.46 112.211Z" fill="var(--fill-0, black)"/>
<path id="Vector_11" d="M246.966 186.041C247.057 186.747 246.978 186.514 246.559 186.664C245.275 187.123 242.096 187.444 240.645 187.528C235.167 187.847 229.695 187.268 224.278 186.923C224.399 186.334 224.883 186.422 225.312 186.338C227.898 185.836 231.5 185.522 234.137 185.437C238.426 185.298 242.696 185.806 246.966 186.041Z" fill="var(--fill-0, black)"/>
<path id="Vector_12" d="M67.1431 91.3259C73.218 90.445 71.5958 95.6061 66.9243 96.15C62.0251 96.7204 62.019 92.069 67.1431 91.3259ZM68.9815 93.6061C70.0061 92.2895 65.1636 92.9671 65.1516 94.198C65.8774 94.3326 68.5937 94.1045 68.9815 93.6061Z" fill="var(--fill-0, black)"/>
<path id="Vector_13" d="M142.877 93.6651C147.145 93.1663 146.757 98.127 142.434 98.8543C136.646 99.8283 138.554 94.1703 142.877 93.6651ZM144.124 95.3838C143.592 94.9225 140.531 95.9961 140.591 97.1524C141.094 97.5809 144.301 96.616 144.124 95.3838Z" fill="var(--fill-0, black)"/>
<path id="Vector_14" d="M144.423 79.7312C144.317 77.626 145.644 75.1432 147.075 73.6807C147.829 72.9106 152.103 69.8175 151.798 72.4848C151.664 73.663 145.551 78.4967 144.423 79.7312Z" fill="var(--fill-0, black)"/>
<path id="Vector_15" d="M74.5812 200.512C74.4602 201.101 73.9753 201.013 73.5466 201.097C70.2113 201.747 63.9784 202.167 60.7863 201.193C60.4094 201.078 59.9254 200.971 59.8475 200.512H74.5812Z" fill="var(--fill-0, black)"/>
<path id="Vector_16" d="M221.92 193.72C222.442 193.09 230.459 193.599 230.46 194.456C229.146 195.922 223.383 195.864 222.214 194.751C221.938 194.488 221.758 193.916 221.92 193.72Z" fill="var(--fill-0, black)"/>
<path id="Vector_17" d="M227.223 168.911C225.131 168.591 221.457 170.064 219.633 169.283C218.04 168.601 222.025 167.83 222.692 167.769C223.167 167.725 228.441 167.867 227.223 168.911Z" fill="var(--fill-0, black)"/>
<path id="Vector_18" d="M179.486 200.801C177.146 201.574 174.286 201.673 171.94 200.837C171.521 200.688 171.441 200.925 171.532 200.216C174.02 200.188 177.399 199.097 179.486 200.801Z" fill="var(--fill-0, black)"/>
<path id="Vector_19" d="M23.0119 180.432C22.0405 181.899 19.3103 181.435 18.0046 180.575C19.6029 180.032 21.3775 179.921 23.0119 180.432Z" fill="var(--fill-0, black)"/>
<path id="Vector_20" d="M190.67 163.621C190.783 163.726 190.608 164.4 190.685 164.483C190.977 164.798 192.928 163.32 192.451 165.067C187.01 166.762 181.58 168.32 175.957 169.362C168.84 170.68 159.42 172.046 152.241 172.173C151.746 172.181 148.693 171.976 148.545 171.864C148.01 171.456 148.669 171.352 148.958 171.245C152.755 169.84 159.684 169.8 163.974 169.165C171.233 168.092 179.739 166.886 186.718 164.79C187.461 164.567 190.06 163.054 190.67 163.621Z" fill="var(--fill-0, black)"/>
<path id="Vector_21" d="M62.1045 166.893C62.6119 166.734 63.5444 166.815 64.1176 166.85C68.3681 167.11 75.11 168.174 79.3642 168.992C80.1204 169.137 83.6564 169.713 83.42 170.827C83.3418 171.196 82.7324 171.25 82.4046 171.288C79.9026 171.575 64.5685 169.346 62.4829 168.191C62.1708 168.018 61.8383 167.879 61.6161 167.58C61.5395 167.254 61.8196 166.983 62.1045 166.893Z" fill="var(--fill-0, black)"/>
<path id="Vector_22" d="M84.3014 176.884C83.2188 177.688 82.318 172.07 83.2787 171.867C84.4586 172.157 85.0156 174.185 84.8901 175.234C84.8683 175.416 84.3717 176.832 84.3014 176.884Z" fill="var(--fill-0, black)"/>
<path id="Vector_23" d="M87.8416 187.814C87.2076 190.033 83.9581 190.025 82.2458 189.136C82.1082 188.407 82.8205 188.73 83.2759 188.701C84.9158 188.599 86.3532 188.563 87.8416 187.814Z" fill="var(--fill-0, black)"/>
<path id="Vector_24" d="M188.915 162.71C188.103 163.269 185.245 161.371 185.971 160.645C186.246 160.37 189.484 161.431 188.915 162.71Z" fill="var(--fill-0, black)"/>
<path id="Vector_25" d="M200.705 179.246L203.352 176.59C203.027 177.806 202.175 179.545 200.705 179.246Z" fill="var(--fill-0, black)"/>
<path id="Vector_26" d="M203.064 175.999C202.868 175.561 204.219 172.693 204.385 172.753C205.355 173.1 203.614 175.8 203.064 175.999Z" fill="var(--fill-0, black)"/>
<path id="Vector_27" d="M165.341 120.777C164.816 120.629 161.707 119.624 162.398 118.711C163.459 119.228 165.165 119.275 165.341 120.777Z" fill="var(--fill-0, black)"/>
<path id="Vector_28" d="M229.286 172.459L223.983 173.929C225.232 172.774 227.646 172.541 229.286 172.459Z" fill="var(--fill-0, black)"/>
</g>
</svg>
