<svg width="360" height="153" viewBox="0 0 360 153" fill="none" xmlns="http://www.w3.org/2000/svg">
<path d="M144.215 82.5152C144.35 82.6538 146.054 82.4126 146.568 82.5202L145.157 83.9789L147.512 83.4989L146.57 84.9576C147.826 84.834 149.022 85.843 150.157 85.9279C152.52 86.1049 157.966 83.4869 159.998 82.0291C162.065 80.5466 166.05 73.7961 162.586 82.0208C162.915 82.2678 166.061 81.4497 165.408 82.7528C164.515 84.5316 156.418 83.9724 155.991 87.8947C158.991 88.4073 161.211 89.1103 164.239 87.9054C165.532 87.3913 165.646 86.1796 166.958 85.3454C168.266 84.5133 170.03 84.1849 171.535 83.9786C170.22 82.0305 171.681 78.0837 172.689 76.1264C174.432 72.7443 179.121 70.0224 182.727 71.6181C183.401 71.9164 183.439 71.7461 183.31 72.7221C178.627 72.1115 173.407 75.4783 173.87 80.8035C173.937 81.5734 174.564 83.5474 175.062 83.9909C175.605 84.4749 182.012 85.5213 183.075 85.495C188.067 85.3716 192.738 81.1506 191.796 75.6619C197.345 81.6208 190.809 86.1539 184.91 86.8681C180.182 87.4404 175.021 85.6944 171.059 86.1366C166.688 86.6245 165.588 90.5905 170.401 91.2822C176.439 92.15 185.863 92.2245 191.266 89.0682C193.302 87.8791 193.958 86.4441 195.358 84.9782C195.889 84.4216 196.77 84.7063 197.134 83.8829C198.775 80.1689 196.298 76.1895 194.142 73.4638L196.97 73.9509C194.055 71.308 191.711 67.8422 187.546 67.3362L188.027 65.8745C181.185 63.3485 173.696 64.0223 167.796 68.5936C167.319 68.9633 164.346 72.1612 165.645 71.7424L168.707 70.5195L164.003 74.1995C163.853 75.1586 165.136 74.4671 165.417 74.6873C166.316 75.3933 162.185 77.5845 161.173 77.1258C161.316 75.5874 163.755 75.3529 163.98 75.1419C164.049 75.0775 163.403 73.8707 163.998 73.2187C162.951 73.0259 162.399 74.1988 161.414 74.1998C159.899 74.2015 162.494 72.6522 162.607 72.5223C164.302 70.5849 165.23 68.3847 167.338 66.6488C176.423 59.1687 189.594 60.8787 196.743 70.2713C204.318 80.2245 199.951 92.2525 187.736 93.7217C183.089 94.2807 174.902 93.8787 170.105 93.549C166.571 93.3061 165.723 90.6828 164.652 90.4644C163.071 90.1422 160.35 91.8934 157.019 90.991C154.147 90.2127 154.066 87.8968 153.836 87.861C152.863 87.7097 150.764 88.514 149.147 88.4149C147.81 88.333 145.768 87.2843 145.017 87.4824C144.241 87.6874 142.538 90.5298 141.86 89.8533L144.215 86.4363C141.784 86.316 140.595 88.9393 138.567 89.858C137.626 88.7622 142.91 86.096 142.806 84.723C141.338 84.1466 139.556 85.3724 138.231 85.8495C137.736 86.0278 137.083 86.8698 136.68 85.6947C136.531 85.2593 141.253 83.3873 141.894 83.2073C140.886 81.2886 142.503 78.3093 142.237 76.9989C141.94 75.5386 137.766 70.2181 138.764 68.7814C139.978 67.0341 145.548 69.7108 147.013 69.0625C147.531 68.8332 148.886 67.4618 149.715 66.9388C150.505 66.4399 152.244 66.1531 152.582 65.7519C153.336 64.8563 154.57 58.9881 156.696 59C159.283 59.866 159.521 63.5152 160.953 65.3647C161.876 66.5553 163.97 67.0229 163.997 68.8057C162.329 69.1928 160.894 67.5884 159.464 67.4944C157.293 67.3519 155.843 69.2211 155.95 65.1215C155.971 64.3061 156.545 63.0106 156.462 62.9388C155.261 61.9007 154.548 67.0023 153.869 67.8265C153.455 68.3284 151.475 68.6416 150.487 69.2079C149.402 69.8302 146.743 72.4254 146.163 72.1566C146.109 72.1315 146.231 71.4926 145.458 71.1732C144.368 70.7228 142.594 70.4846 141.388 70.2819C141.926 71.6449 145.228 72.4155 145.098 73.8664C145.046 74.4464 144.215 75.2051 144.215 75.417C144.215 76.4449 143.972 82.2658 144.215 82.5152Z" fill="black"/>
<path d="M333.37 80.5596L332.674 81.5371C326.707 81.6958 291.709 81.7526 285.747 82.0054C273.889 82.5083 261.853 83.3365 249.986 83.5144C236.084 83.7227 221.944 83.4537 208.273 81.2913L333.37 80.5596Z" fill="black"/>
<path d="M132.438 80.5616C132.258 81.5412 131.445 81.364 130.788 81.5347C129.327 81.9149 127.082 82.2557 125.549 82.4538C113.514 84.0089 101.373 83.299 89.3565 82.9844C78.5159 82.7006 38.0906 82.8855 27.3457 81.5544C26.6391 81.4669 25.895 81.4585 25.7148 80.5619C33.1674 80.689 69.6525 80.3826 77.1091 80.5368C91.7233 80.839 105.187 81.4703 119.936 81.0263C124.1 80.901 128.378 81.5046 132.438 80.5616Z" fill="black"/>
<path d="M345.085 80.6254C344.98 80.5469 342.178 81.7504 343.49 80.0582C344.855 78.2988 348.469 76.1532 350.669 77.023C357.758 79.8248 352.223 85.806 346.209 82.1429C345.288 81.5816 345.241 80.7415 345.085 80.6254Z" fill="black"/>
<path d="M16.2943 81.0414C13.2989 81.6823 12.3046 83.1924 8.97525 83.0275C2.63636 82.7136 7.96168 76.4383 10.8415 76.6467C11.9254 76.7251 17.4049 79.6867 16.2943 81.0414Z" fill="black"/>
<path d="M230.417 77.1354C229.657 78.3145 226.423 78.4823 224.995 78.5943C219.367 79.0355 213.36 79.0913 207.693 79.2603C207.01 79.2807 206.549 79.8767 205.925 78.8413C207.644 77.5979 209.86 78.2943 211.806 78.1055C218.024 77.5024 224.111 76.6578 230.417 77.1354Z" fill="black"/>
<path d="M133.378 78.6046C133.489 79.457 132.308 79.0653 131.737 79.0885C127.205 79.2725 121.67 79.0205 117.136 78.5917C115.926 78.4773 113.256 78.2908 112.654 77.1354C119.604 76.8523 126.508 77.665 133.378 78.6046Z" fill="black"/>
<path d="M337.477 78.6692C340.824 77.8584 340.952 84.1427 337.006 82.9203C334.857 82.2547 335.764 79.0838 337.477 78.6692Z" fill="black"/>
<path d="M23.2409 79.2093C25.4053 81.5375 21.8259 84.632 20.0189 82.3152C18.3332 80.1539 21.8068 77.6667 23.2409 79.2093Z" fill="black"/>
<path d="M155.047 78.6016C155.396 79.7846 154.118 80.4072 154.091 81.2899C154.085 81.4693 156.952 82.214 153.166 83.006C153.815 80.4673 151.218 81.9641 150.807 81.5342C149.61 80.2825 154.467 78.0321 155.047 78.6016Z" fill="black"/>
<path d="M158.343 72.7269C158.457 75.5459 155.902 77.4118 153.638 75.4145C156.499 75.6811 156.262 73.4878 158.343 72.7269Z" fill="black"/>
<path d="M150.336 77.1328C150.934 79.7316 147.805 81.0649 146.104 79.3258C145.922 77.965 147.749 78.8327 148.641 78.5335C149.527 78.2364 148.973 76.7154 150.336 77.1328Z" fill="black"/>
</svg>
