<svg preserveAspectRatio="none" width="100%" height="100%" overflow="visible" style="display: block;" viewBox="0 0 18 14" fill="none" xmlns="http://www.w3.org/2000/svg">
<g id="icon_music">
<path id="Vector" d="M10.3764 1.88984L4.74539 1.96489L4.48043 2.08684L6.18843 8.07244C6.79435 8.06442 7.40561 8.09521 8.01218 8.07938C10.0013 8.02747 12.4094 7.8231 14.3761 7.99393C15.868 8.12351 17.0321 9.36777 17.1274 10.8931C17.2371 12.6492 15.8154 13.4489 14.3055 12.7458C12.9167 12.099 12.2023 10.349 12.7044 8.86969C12.6021 8.77061 11.2889 8.94529 11.0391 8.95185C9.70514 8.98692 8.32182 8.87945 6.99676 8.94527C6.04364 8.99262 5.26963 9.11001 4.28668 9.10384C3.746 9.10044 2.95035 9.34765 2.68629 8.75655L1.00042 2.0654C0.983113 1.32354 1.50496 1.21621 2.1072 1.17246C4.57257 0.993383 7.37179 1.1296 9.87492 1.0996C10.8054 1.08844 11.815 0.829559 12.7257 1.19377C13.5175 1.51042 14.3374 2.4226 14.4711 3.29656C14.9507 6.43038 11.1705 6.23395 10.3722 3.67821C10.1618 3.00486 10.2148 2.56004 10.3764 1.88984ZM1.99426 4.74528C1.96193 4.78158 2.23605 5.557 2.28465 5.68087C2.33178 5.80095 2.23923 5.89548 2.45916 5.85487C2.50924 5.72029 2.17425 4.54322 1.99426 4.74528ZM1.99432 2.12781L3.5057 8.0778L3.85637 8.15488C3.79234 8.09103 3.71506 7.35946 3.93346 7.60008C3.96275 7.63236 3.99317 8.28797 4.28235 8.23432C4.53246 8.18793 4.21862 7.63992 4.36062 7.52142C4.85209 7.74707 4.41744 7.7877 4.47754 8.03467C4.50905 8.16414 4.75453 8.1699 4.86524 8.15499C4.57803 7.5322 3.53159 2.85601 3.30233 2.69469C3.23627 2.64821 3.02318 2.64386 3.08374 2.79681L4.15183 6.54601L4.01264 6.72788L2.68632 2.1324C2.21921 2.03031 2.65814 2.47921 2.49761 2.76274C2.17637 2.69226 2.37746 2.11492 1.99432 2.12781ZM2.92566 2.12783C2.83914 2.2117 3.05871 2.59061 3.23531 2.52361C3.29094 2.35067 3.09509 1.96359 2.92566 2.12783ZM3.27452 8.78995C3.53964 8.86588 4.09404 8.7346 4.39993 8.78995L3.36287 8.46171L3.04169 7.91667C3.00441 8.12153 3.07503 8.73282 3.27452 8.78995ZM3.39136 2.0485L4.99554 7.90367L5.25326 8.15504C5.26955 8.01776 5.24597 7.88933 5.21802 7.75555C4.90426 6.25388 4.36313 4.77254 3.9043 3.32407C3.88158 3.25234 3.66406 1.73499 3.39136 2.0485ZM4.78876 4.74488C5.00257 5.35693 5.00234 6.1338 5.40816 6.64839C5.19497 6.05155 5.20536 5.22005 4.78876 4.74488ZM12.3757 4.48749C12.8908 3.95845 11.5579 2.16892 11.0731 2.72099C10.5937 3.26703 11.8249 5.05319 12.3757 4.48749ZM13.3439 10.4766C13.4292 10.9335 14.0339 11.8689 14.5308 11.8893C15.3102 11.9213 14.8883 10.7706 14.6007 10.3818C14.1616 9.78808 13.1376 9.37204 13.3439 10.4766ZM15.4207 12.2001C15.502 12.1232 15.2748 11.838 15.189 12.0828C15.1304 12.2502 15.3922 12.2271 15.4207 12.2001ZM15.3443 11.2488C15.3235 11.3967 15.3437 11.5236 15.498 11.566C15.5187 11.4181 15.4985 11.2912 15.3443 11.2488Z" fill="var(--fill-0, black)"/>
</g>
</svg>
