<svg preserveAspectRatio="none" width="100%" height="100%" overflow="visible" style="display: block;" viewBox="0 0 11.6668 21" fill="none" xmlns="http://www.w3.org/2000/svg">
<g id="icon_voice">
<g id="Layer_1" clip-path="url(#clip0_64_6847)">
<path id="Vector" d="M5.68397 0.0222241C5.71869 0.0503218 5.98835 0.676361 6.09585 0.833842C7.29413 2.58926 9.16147 3.58464 10.3066 5.47841C12.0486 8.35935 12.1255 12.4028 10.4894 15.3535C9.43656 17.2522 7.61021 18.3862 6.63902 20.2955C6.50788 20.5534 6.41121 21.2756 6.15443 20.888C5.99286 20.644 5.81597 19.9636 5.62166 19.6029C4.31325 17.1737 0.657724 15.3152 2.05143 12.0432C2.17774 11.7467 2.85692 10.8241 2.85179 10.6404C2.84787 10.5003 2.15832 9.59119 2.02809 9.34295C0.216219 5.88929 4.12052 3.76809 5.23956 0.957831C5.29301 0.823606 5.46006 -0.159 5.68397 0.0222241ZM5.53127 1.94547C5.21997 2.33678 5.01059 2.80879 4.72221 3.22078C3.61225 4.80649 1.55118 6.38986 2.40576 8.62672C2.65437 9.27746 3.52791 10.0219 3.5465 10.6437C3.56259 11.1821 3.07672 11.7 2.86564 12.175C2.53729 12.9137 2.38262 13.7818 2.7187 14.5499C3.22662 15.7107 4.03792 16.3981 4.80641 17.3315C5.20082 17.8105 5.52451 18.3374 5.89233 18.8342C5.93068 18.886 5.95563 19.0612 6.06726 18.9349C6.0869 18.9126 5.99492 18.671 5.99102 18.5747C5.91375 16.6696 5.34284 14.0431 5.72066 12.2809C5.85756 11.6425 6.19388 11.1902 6.14718 10.4771C6.10584 9.84593 5.66111 9.13735 5.51039 8.49965C5.19045 7.14598 5.48557 5.82458 5.53519 4.4732C5.56601 3.63372 5.50656 2.78494 5.53127 1.94547ZM6.14472 2.02565C6.15182 2.17986 6.21842 2.29764 6.2255 2.46117C6.29596 4.08724 5.92067 6.35027 6.30155 7.83107C6.54539 8.77912 7.16677 9.50793 7.18546 10.5744C7.20648 11.7745 6.4254 12.8515 6.37459 14.0874C6.32942 15.1861 6.61253 16.4935 6.67869 17.6139C6.68807 17.7726 6.64536 18.9327 6.71773 18.9362C7.21907 18.0726 7.91325 17.3576 8.59125 16.6503C8.64214 16.4438 8.39419 16.6051 8.34495 16.6331C8.18772 16.7228 7.93502 17.0063 7.79089 17.014C7.75206 17.0161 7.6757 16.8112 7.70749 16.7691C7.82889 16.6083 8.60113 16.4771 8.86003 16.2912C9.04667 16.1572 9.24434 15.8377 9.38672 15.6409C10.931 13.5057 11.3113 10.7501 10.6355 8.17923C10.5092 7.69876 10.1306 6.3481 9.62371 6.27384L9.58565 6.51426C9.50566 6.46346 8.9122 6.20399 8.97497 6.11397C8.98738 6.09617 9.19547 6.17523 9.11531 5.9257C8.9513 5.41516 8.20114 5.47119 8.05672 5.31011C7.81654 5.04223 8.49391 5.24822 8.51535 5.23045C8.37883 4.81978 8.07313 4.69992 7.6743 4.74999L7.90276 4.47099C7.76153 4.13394 7.2562 4.0244 7.10171 3.86727C6.93191 3.69456 6.76675 3.25256 7.19342 3.60083C7.36547 3.74125 7.53587 3.89165 7.71256 4.02883C7.82438 3.62792 7.91657 4.19135 8.02087 4.34684C8.16664 4.56413 8.49288 4.73666 8.74449 4.63057L7.25215 3.14826L7.13774 3.38855C6.81206 3.28088 7.02942 2.99717 6.9034 2.7979L6.14472 2.02565ZM8.51575 4.83097C8.60566 5.17244 8.94024 5.47055 9.27997 5.39109C9.38963 5.29566 8.75098 4.62626 8.51575 4.83097ZM9.81506 6.27305C9.74546 5.81705 9.489 5.57448 9.05092 5.55256C9.23213 5.94377 9.37491 6.20526 9.81506 6.27305Z" fill="var(--fill-0, black)"/>
</g>
<circle id="Ellipse 3" cx="0.777778" cy="2.33333" r="0.777778" transform="rotate(-90 0.777778 2.33333)" fill="var(--fill-0, black)"/>
</g>
<defs>
<clipPath id="clip0_64_6847">
<rect width="21" height="10.1111" fill="white" transform="translate(1.55556 21) rotate(-90)"/>
</clipPath>
</defs>
</svg>
