<svg width="18" height="18" viewBox="0 0 18 18" fill="none" xmlns="http://www.w3.org/2000/svg">
  <path d="M1.25 3.2C5.85 2.72 10.55 2.55 15.15 2.92C15.66 6.9 15.78 10.64 15.4 14.72C10.85 15.07 6.2 15.24 1.62 14.86C1.14 10.82 1.01 7.15 1.25 3.2Z" stroke="black" stroke-width="1.35" stroke-linejoin="round"/>
  <path d="M4.7 3.05C4.48 6.98 4.63 10.85 5.08 14.85" stroke="black" stroke-width="1.15"/>
  <path d="M12.3 2.95C12.7 6.9 12.76 10.78 12.45 14.75" stroke="black" stroke-width="1.15"/>
  <path d="M5.02 8.8C7.35 8.56 9.78 8.48 12.2 8.58" stroke="black" stroke-width="1.15"/>
  <path d="M2.45 4.75L3.65 4.62M2.52 7.12L3.74 7.03M2.66 9.56L3.82 9.48M2.8 12.18L3.98 12.08" stroke="black" stroke-width="1.05" stroke-linecap="round"/>
  <path d="M13.62 4.68L14.68 4.74M13.75 7.02L14.76 7.05M13.82 9.45L14.85 9.47M13.73 12.02L14.73 12.03" stroke="black" stroke-width="1.05" stroke-linecap="round"/>
</svg>
