<svg preserveAspectRatio="none" width="100%" height="100%" overflow="visible" style="display: block;" viewBox="0 0 21.9999 19.0925" fill="none" xmlns="http://www.w3.org/2000/svg">
<g id="Group">
<path id="Vector" d="M21.5692 0.348666C21.3951 0.189343 21.1817 0.079238 20.951 0.0296625C20.7203 -0.0199129 20.4805 -0.0071721 20.2563 0.0665762L0.912279 6.44318C0.385096 6.61695 0.0275957 7.08754 0.00151368 7.64197C-0.0245254 8.19644 0.287213 8.69853 0.795705 8.92106L5.57963 11.0142L7.02299 17.7085C7.08294 17.9866 7.22409 18.2343 7.52311 18.3105C7.82556 18.3875 8.03925 18.2222 8.26492 18.0533L11.815 15.395L15.9653 18.7912C16.207 18.9891 16.5025 19.0923 16.8038 19.0923C16.9497 19.0922 17.0947 19.0681 17.2328 19.0211C17.6697 18.873 17.9935 18.5165 18.099 18.0675L21.9648 1.63189C22.0187 1.40213 22.0104 1.16218 21.9409 0.936659C21.8714 0.711142 21.7431 0.508196 21.5692 0.348666ZM8.57417 12.2135C8.5718 12.2191 8.56948 12.2254 8.56729 12.233L7.76704 15.0289L6.87398 10.8869L13.0149 7.47499L8.72146 11.9643C8.65413 12.0351 8.60377 12.1204 8.57417 12.2135ZM8.82815 16.0174L9.19163 14.7474L9.53929 13.5327L10.785 14.5521L8.82815 16.0174ZM20.707 1.336L16.8413 17.7716C16.8394 17.7798 16.8368 17.7911 16.8179 17.7975C16.7992 17.8038 16.79 17.7966 16.7836 17.7912L12.2422 14.0749L12.2418 14.0746L10.1377 12.3528L16.8977 5.28453C17.0045 5.17281 17.0678 5.02649 17.0759 4.87213C17.0841 4.71777 17.0366 4.5656 16.9422 4.44324C16.8477 4.32087 16.7125 4.23643 16.5611 4.20525C16.4097 4.17407 16.2521 4.19821 16.117 4.2733L6.10737 9.83471L1.31365 7.73727C1.29904 7.73091 1.29101 7.72735 1.29217 7.70264C1.29333 7.67802 1.30166 7.67522 1.31679 7.67024L20.6608 1.29368C20.6702 1.29063 20.6807 1.2871 20.6963 1.30128C20.7118 1.31555 20.7093 1.32638 20.707 1.336Z" fill="var(--fill-0, white)"/>
</g>
</svg>
