<svg preserveAspectRatio="none" width="100%" height="100%" overflow="visible" style="display: block;" viewBox="0 0 35 35" fill="none" xmlns="http://www.w3.org/2000/svg">
<g id="Frame 79">
<path id="Vector" d="M17.3665 0.00243238C2.90994 -0.240237 -5.27435 17.7314 3.82312 28.4689C14.8591 41.4942 36.1777 33.7879 34.9491 16.3729C34.3058 7.25482 26.652 0.158299 17.3665 0.00243238Z" fill="var(--fill-0, black)"/>
<path id="Vector_2" d="M27.77 25.8925H25.2402C24.3036 25.8925 23.8342 25.3687 23.0537 24.5015C22.7461 24.1604 22.3692 23.7407 21.8685 23.2389C20.488 21.9081 19.9029 21.7739 19.6878 21.7739C19.6763 21.8695 19.6713 21.9656 19.6728 22.0618V24.3304C19.6728 25.6266 18.7201 25.8925 17.2875 25.8925C14.2858 25.8925 11.2241 24.0691 9.0966 21.0154C6.03254 16.72 5 13.2281 5 12.295C5 11.4729 5.52725 11.0012 6.44532 11.0012H8.97519C10.0852 11.0012 10.424 11.7099 10.6541 12.3736C11.793 15.6932 13.4718 18.1664 14.1702 18.6602C14.176 18.585 14.1806 18.4856 14.1806 18.3514V14.626C14.1332 13.7831 13.8534 13.4362 13.606 13.131C13.4036 12.8812 13.1747 12.5979 13.1747 12.1609C13.1747 11.6036 13.6418 11.0012 14.3968 11.0012H18.372C18.9663 11.0012 19.6728 11.2625 19.6728 12.5089V17.5212L19.6751 17.5848C19.8058 17.4947 19.9919 17.3247 20.259 17.0588C21.9691 15.1452 23.2294 12.1054 23.2422 12.0742C23.5439 11.3688 24.1082 11 24.8783 11H27.4081C27.955 11 28.3539 11.1642 28.5933 11.4856C28.7528 11.6995 28.9055 12.0799 28.7274 12.6743C28.4013 14.1762 25.5628 18.2046 25.239 18.659C25.2147 18.6995 25.1164 18.859 25.1037 18.9134C25.1072 18.9134 25.128 18.97 25.224 19.0949C25.3408 19.2556 25.6287 19.5378 25.9073 19.8118C26.2519 20.1494 26.6415 20.5321 26.9514 20.8987C28.3158 22.433 28.9668 23.3522 29.1945 24.0598C29.3842 24.7143 29.2165 25.1259 29.0408 25.3583C28.8615 25.6034 28.4938 25.8925 27.77 25.8925ZM19.7572 20.6165C20.2798 20.6165 21.036 20.8304 22.6779 22.4133C23.2052 22.9406 23.596 23.3742 23.9139 23.728C24.6701 24.5709 24.854 24.7363 25.239 24.7363H27.7689C28.0082 24.7363 28.1053 24.6819 28.1181 24.6669C28.1308 24.6518 28.147 24.5963 28.0903 24.4009C27.8776 23.7396 26.904 22.5868 26.0796 21.6583C25.7824 21.3068 25.4205 20.953 25.0991 20.6397C24.7418 20.2905 24.4608 20.0141 24.3001 19.7898C23.7243 19.0487 23.9498 18.5503 24.2793 18.0208C25.1361 16.8113 27.3653 13.501 27.6093 12.3875C27.632 12.3182 27.646 12.2464 27.6509 12.1736C27.6301 12.1759 27.5527 12.1586 27.4081 12.1586H24.8783C24.5325 12.1586 24.4077 12.2927 24.3094 12.5228C24.2585 12.6465 22.9658 15.7672 21.0996 17.8543C20.5053 18.4497 20.0856 18.8243 19.489 18.8243C19.0207 18.8243 18.5166 18.4162 18.5166 17.5224V12.5101C18.5236 12.3927 18.5103 12.2749 18.4773 12.162C18.4645 12.1667 18.4333 12.1597 18.372 12.1586H14.3968C14.3402 12.2025 14.4396 12.3251 14.5055 12.406C14.8096 12.7818 15.2675 13.3495 15.3369 14.5959L15.338 18.3538C15.338 18.8151 15.338 19.8973 14.2905 19.8973C12.807 19.8973 10.5916 15.7476 9.56257 12.7529C9.35675 12.1597 9.26079 12.1597 8.97635 12.1597H6.44647C6.21985 12.1597 6.15394 12.2037 6.15278 12.2037C6.15741 12.702 6.87429 15.9083 10.0424 20.3506C11.9572 23.099 14.6639 24.7374 17.2886 24.7374C18.5177 24.7374 18.5177 24.5674 18.5177 24.3316V22.063C18.5177 21.3473 18.6646 20.6165 19.7572 20.6165Z" fill="var(--fill-0, white)"/>
</g>
</svg>
