<svg preserveAspectRatio="none" width="100%" height="100%" overflow="visible" style="display: block;" viewBox="0 0 27.3143 203.634" fill="none" xmlns="http://www.w3.org/2000/svg">
<g id="Group 2">
<path id="Vector" d="M17.2912 187.405C18.8642 186.596 20.5217 188.873 21.3517 190.068C22.9421 192.358 24.8321 196.894 23.6836 199.571C20.5091 206.972 8.76846 202.751 4.24152 198.796C1.69467 196.571 -1.57545 191.475 0.853624 188.127C2.06618 186.456 6.65794 185.512 6.34334 188.318C6.12517 190.265 2.9594 188.149 1.91205 190.27C0.923183 192.272 3.01315 194.842 4.45573 196.043C7.60649 198.664 12.1271 200.119 16.1434 200.277C17.4587 200.329 20.7881 200.202 21.3375 198.636C22.192 196.195 20.7541 192.825 19.4175 190.79C19.0278 190.196 16.8438 187.957 17.2912 187.405Z" fill="var(--fill-0, black)"/>
<path id="Vector_2" d="M14.4072 140.115C14.3937 140.408 14.3439 140.519 14.5463 140.758C15.3312 141.68 17.0781 142.599 17.9777 143.515C20.0969 145.673 20.6992 148.431 16.7785 148.353C15.5699 148.329 12.3828 147.866 11.0691 147.663C9.13721 147.363 6.87888 146.058 9.18305 144.333C11.5908 144.826 13.9795 145.644 16.4608 145.601C16.6054 144.809 16.1185 144.497 15.6411 144.017C14.4933 142.866 11.2667 140.324 9.87154 139.607C8.94671 139.132 7.67961 139.512 7.84086 137.919C8.08669 135.483 10.8312 137.162 12.2737 137.348C13.5068 137.509 16.0276 137.563 17.1912 137.174C18.0188 136.896 18.8535 135.542 19.4226 136.54C19.9167 137.407 19.6811 138.739 18.9151 139.368C18.7523 139.502 17.4868 140.115 17.3832 140.115L14.4072 140.115Z" fill="var(--fill-0, black)"/>
<path id="Vector_3" d="M15.1256 165.654C15.0742 165.652 14.8513 165.252 14.8165 165.55L14.8189 165.861C14.9952 165.888 15.1952 165.945 15.3264 166.071C16.3223 167.024 19.9086 170.132 20.2248 171.177C21.1125 174.108 18.0487 174.054 16.1769 173.859C13.9486 173.627 11.5259 173.016 9.27464 172.725C8.54505 172.581 8.05418 170.873 8.43202 170.389L8.9719 170.087C11.182 170.233 13.5913 171.195 15.7445 171.349C16.3911 171.395 17.4314 171.534 17.8961 171.032C18.0187 170.421 15.1667 168.099 14.596 167.676C13.506 166.869 10.6026 165.519 9.98447 164.819C9.37108 164.125 9.26199 163.322 9.88883 162.592C10.5868 162.168 13.2949 163.049 14.3075 163.119C16.2504 163.253 18.2447 163.063 19.9466 162.066C20.2904 163.121 20.7979 164.493 19.6178 165.207C19.4905 165.284 18.474 165.654 18.4099 165.654C17.3183 165.654 16.2156 165.693 15.1256 165.654Z" fill="var(--fill-0, black)"/>
<path id="Vector_4" d="M8.25081 148.979C8.93376 148.319 13.7959 153.763 14.7128 154.196C15.7649 153.746 16.6976 153.073 17.5829 152.351C18.1442 151.893 19.0216 150.412 19.65 150.864C20.9645 151.809 19.9274 153.434 19.1061 154.34L16.6668 156.259C17.3244 157.357 21.8672 159.093 20.5859 160.712C20.3906 160.947 20.1448 161.024 19.8515 161.027C18.4524 161.038 15.6598 157.054 14.931 157.011L9.38669 159.749C8.10536 159.308 7.87692 157.38 9.12742 156.743C9.63964 156.482 12.9208 155.757 12.7572 155.009L8.56541 150.872C8.08718 150.223 8.04608 149.747 8.25081 148.979Z" fill="var(--fill-0, black)"/>
<path id="Vector_5" d="M8.88093 174.114C9.03744 174.004 9.49037 174.101 9.68561 174.203C10.929 174.851 9.71091 178.282 10.914 179.272L16.5839 180.196C18.2138 180.499 21.5361 179.358 21.9582 181.642C22.3052 183.517 21.265 183.446 19.8485 183.381C17.0266 183.251 13.9691 182.159 11.1242 181.907L11.71 186.416C8.72916 188.599 8.98606 181.17 8.86275 179.481C8.79477 178.549 8.10075 174.66 8.88093 174.114Z" fill="var(--fill-0, black)"/>
<path id="Vector_6" d="M20.1556 130.828C20.7437 135.089 15.8231 132.319 17.3045 129.69C18.7589 127.107 25.0738 130.883 24.164 132.931C23.621 134.154 22.8716 132.096 22.1942 131.581C21.8812 131.343 20.4078 130.572 20.1556 130.828Z" fill="var(--fill-0, black)"/>
<path id="Vector_7" d="M11.897 72.8663C10.8726 73.7145 11.7326 75.9444 12.5073 76.7688C14.1206 76.9696 15.9521 77.6976 17.548 77.8335C17.7764 77.8525 17.9574 77.9205 18.1124 77.6755C19.2246 75.9127 13.8874 71.2182 11.897 72.8663ZM10.611 76.3957C9.74224 74.7982 8.99368 72.5264 10.5627 71.1178C13.9799 68.0517 20.6735 73.6236 19.6941 77.7798L19.8372 77.9869C20.6782 77.9545 21.8749 78.307 22.6188 78.296C23.8859 78.277 26.0699 77.1213 27.009 78.6374C28.6539 81.2926 23.1697 80.8989 21.9951 80.8389C17.8713 80.6278 13.8447 79.2817 9.73355 78.8825C8.97076 78.7805 7.7748 76.7008 7.95976 76.1111C8.26646 75.1389 10.3612 76.602 10.611 76.3957Z" fill="var(--fill-0, black)"/>
<path id="Vector_8" d="M15.1252 117.767L13.074 115.339C12.1926 114.525 8.52727 111.84 9.8418 110.434L10.6038 110.266C12.1397 111.65 13.3032 113.451 15.0201 114.598C15.6809 114.615 19.8569 111.513 20.3541 110.793C20.6766 110.327 20.7446 108.972 21.6117 109.727C21.9152 109.992 22.003 110.642 21.9887 111.042C21.9002 113.649 18.5479 115.522 16.5583 116.613C17.0508 119.609 22.1879 116.811 22.3081 119.797C22.3468 120.764 21.29 120.821 20.5667 120.842C18.7344 120.895 11.501 119.578 9.79753 118.921C8.6411 118.475 8.11623 116.881 9.10114 116.526C9.76433 116.286 14.0763 117.636 15.1252 117.767Z" fill="var(--fill-0, black)"/>
<path id="Vector_9" d="M14.9219 34.1852L15.3614 37.9541C16.8396 38.6117 18.8837 37.3921 19.452 39.3603C20.2678 42.1909 14.416 40.7317 13.028 40.459C12.3885 40.3333 9.34526 39.6899 9.06148 39.4717C8.24652 38.8465 8.53188 37.6774 9.16661 37.0308L13.4841 37.7738C13.5687 37.0545 13.4461 34.4753 12.8723 34.0761C12.0794 33.5251 8.04259 33.8097 8.14535 31.9885C8.16669 31.6122 8.62041 30.6194 9.05437 30.6052C10.6566 31.0083 12.3569 31.3206 14.0003 31.4391C15.1014 31.519 17.679 31.2004 18.4806 31.4763C19.5643 31.8494 18.8955 34.1852 17.898 34.1852L14.9219 34.1852Z" fill="var(--fill-0, black)"/>
<path id="Vector_10" d="M13.4851 26.7965C13.4614 24.712 11.8955 21.8964 9.57633 22.4616C8.42305 24.7792 11.3983 26.9743 13.4851 26.7965ZM7.79148 23.6829C7.28875 20.0847 9.96207 18.9607 12.5603 21.0997C13.542 21.9075 14.4558 23.6686 14.8226 24.8946C15.1198 25.8898 14.6803 27.6462 16.413 26.7467C17.8311 26.01 17.6406 24.1848 17.1497 22.924C16.7979 22.0221 15.0668 20.0254 15.8304 19.3931C16.4612 18.8714 17.3955 20.0523 17.7955 20.5716C19.2657 22.479 19.9226 25.7515 18.5014 27.8399C15.7403 31.8973 8.39934 28.032 7.79148 23.6829Z" fill="var(--fill-0, black)"/>
<path id="Vector_11" d="M11.8794 103.886C12.1592 106.375 15.7938 108.44 17.8987 107.003C20.4076 105.289 16.2688 102.04 14.2405 102.017C13.1513 102.004 11.7269 102.524 11.8794 103.886ZM9.63136 103.455C9.53413 101.656 11.5253 99.9862 13.1766 99.8258C17.0411 99.4511 22.4502 104.161 19.7326 108.255C18.1849 110.587 15.0918 110.184 13.0082 108.865C11.5474 107.941 9.7278 105.24 9.63136 103.455Z" fill="var(--fill-0, black)"/>
<path id="Vector_12" d="M11.8863 85.9581C12.5029 88.6678 17.7665 89.8835 18.1705 87.0055C18.5483 84.3156 10.7686 81.047 11.8863 85.9581ZM9.63433 85.3178C9.26123 83.0311 10.8113 81.4027 12.9764 81.2525C15.0418 81.1095 17.3674 82.4667 18.5815 84.1385C21.4414 88.0773 18.5807 92.3126 13.9882 90.5491C12.314 89.9064 9.92522 87.1003 9.63433 85.3178Z" fill="var(--fill-0, black)"/>
<path id="Vector_13" d="M15.949 52.973C15.8897 53.2687 15.9095 53.2418 16.0802 53.4094C16.8976 54.2093 19.6159 55.6242 19.4444 56.8613C19.3077 57.8438 18.5583 57.6636 17.956 57.1893C17.4185 56.7656 14.8969 54.12 14.5847 54.0591C13.8013 54.2457 10.5249 56.2661 9.98819 56.0281C9.73919 55.9183 9.27046 55.2235 9.20959 54.9255C8.81278 52.9699 11.3462 53.0568 12.4576 52.2324C11.7098 51.0949 7.73065 49.6871 8.78511 48.0359C9.71785 46.5751 11.1691 48.918 11.9509 49.5867C12.3445 49.9235 13.8251 51.1819 14.1997 51.2C15.4281 51.2585 18.1741 47.9892 18.6223 48.2074C20.3013 49.8436 17.5884 52.4837 15.949 52.973Z" fill="var(--fill-0, black)"/>
<path id="Vector_14" d="M9.99651 15.19C9.68981 16.1298 10.9458 18.2981 9.9973 18.8877C9.61076 19.128 8.62507 19.0031 8.52152 18.4846C8.18953 16.1931 7.45994 13.5814 7.32081 11.2922C7.27102 10.4828 7.35006 6.442 8.6717 8.00315C9.55069 9.04181 8.9705 11.2851 9.5752 12.5601C11.5845 12.9957 13.6302 13.4099 15.6657 13.6857C16.9375 13.8581 19.1539 13.2684 19.0196 15.4919C18.9429 16.7598 17.5414 16.5172 16.6585 16.4634C14.4792 16.3298 12.1513 15.5536 9.99651 15.19Z" fill="var(--fill-0, black)"/>
<path id="Vector_15" d="M18.2057 67.3209C18.0097 64.5227 13.9942 62.3664 14.949 66.872L18.2057 67.3209ZM13.2796 66.4783C13.1563 65.0705 12.9444 64.1038 13.7246 62.8193C14.7127 61.1917 16.4035 61.5909 17.5994 62.775C18.9693 64.1314 21.3691 68.7074 18.5227 69.5421L9.87272 68.3983C9.06961 68.1691 8.87279 66.5242 9.5842 66.1606C10.3138 65.7867 13.0472 66.7178 13.2796 66.4783Z" fill="var(--fill-0, black)"/>
<path id="Vector_16" d="M11.2761 93.4453C11.5251 93.6619 16.916 94.4705 17.7009 94.5543C18.2155 94.6097 18.7538 94.3717 19.1949 94.4792C20.1672 94.7156 21.0074 96.1771 19.911 96.8308C18.4242 97.7177 11.9401 95.7289 11.6389 96.0285C11.7306 97.0506 12.2436 98.0252 12.0421 99.0813C11.8595 100.039 10.9251 99.9982 10.4311 99.2726C9.98371 98.6149 9.24068 93.7955 9.17666 92.7529C9.10235 91.5577 9.01698 90.0108 9.57346 88.9429C11.0461 87.8892 10.7244 92.9647 11.2761 93.4453Z" fill="var(--fill-0, black)"/>
<path id="Vector_17" d="M1.05651 2.21732C1.01778 1.74305 1.45885 0.166081 1.92206 0.013523C2.75599 -0.261555 12.2438 3.82669 14.1093 3.67729C14.5607 4.74599 14.4223 6.06288 13.024 5.85895C9.46222 5.33804 5.36766 3.70337 1.73393 3.10579C1.39166 2.97773 1.08734 2.59516 1.05651 2.21732Z" fill="var(--fill-0, black)"/>
<path id="Vector_18" d="M19.1986 58.4938L19.6389 59.6241C19.6334 60.1506 18.7583 60.6928 18.2975 60.7671C16.7885 61.0122 11.581 60.3134 10.1526 59.6676C9.37878 59.3182 9.00568 57.9096 9.57086 57.4923C9.97636 57.1935 13.7579 58.1349 14.6171 58.2424C16.1111 58.4305 17.6952 58.3958 19.1986 58.4938Z" fill="var(--fill-0, black)"/>
<path id="Vector_19" d="M16.6127 4.2639C17.9225 2.92092 20.542 5.59265 18.611 7.05657C16.902 8.35213 15.6222 5.27964 16.6127 4.2639Z" fill="var(--fill-0, black)"/>
</g>
</svg>
