<svg preserveAspectRatio="none" width="100%" height="100%" overflow="visible" style="display: block;" viewBox="0 0 288 44" fill="none" xmlns="http://www.w3.org/2000/svg">
<g id="Layer_1" clip-path="url(#clip0_26_1777)">
<path id="Vector" d="M153.867 24.1728C154.042 19.1778 155.895 8.88729 158.479 4.68799C159.401 3.18862 162.078 2.16664 161.97 4.18937C161.696 9.30457 156.254 21.6762 157.576 25.5537C158.031 26.8851 160.751 28.3756 157.947 29.7035C156.473 30.4036 154.682 28.1581 152.973 28.1387C150.971 28.1174 145.765 29.9828 142.93 30.0111C140.036 30.0412 130.364 29.2915 127.948 28.4056C124.073 26.9858 124.361 24.3248 124.8 20.9141C125.21 17.7297 127.936 6.98479 129.081 3.99311C129.888 1.88728 132.651 -0.17436 133.212 2.33638C133.747 4.72335 129.117 17.5511 128.772 21.5842C128.671 22.7671 128.669 23.7537 129.451 24.7456L139.952 26.1584C140.844 21.9608 142.191 2.66172 144.902 0.638976C146.037 -0.207957 148.093 -0.363551 148.569 1.10753C149.072 2.65818 145.927 11.4635 145.453 13.8982C145.181 15.2879 143.845 24.5653 144.031 25.1099C144.861 27.5216 152.09 24.6307 153.867 24.1728Z" fill="var(--fill-0, #231F20)"/>
<path id="Vector_2" d="M19.9422 27.4433C19.4643 34.2134 7.14545 36.7613 2.60272 31.5877C-4.48408 23.5145 4.15724 5.48312 13.4879 1.84785C18.6986 -0.181962 22.8682 0.175199 25.2631 5.47427L23.6073 6.44852C11.96 -4.84982 -1.53672 24.5966 6.9145 30.0106C11.8179 33.1525 19.2973 26.759 19.9422 27.4433Z" fill="var(--fill-0, #231F20)"/>
<path id="Vector_3" d="M189.133 18.6726C187.95 17.6666 183.702 18.609 182.957 19.7866C181.923 21.4185 182.673 26.2614 184.643 27.1543C188.493 28.8995 191.483 20.6706 189.133 18.6726ZM191.963 5.1553C187.005 6.78905 185.134 11.4728 183.97 15.9745C188.493 14.6166 193.42 9.84438 191.963 5.1553ZM189.302 16.6075C195.808 17.3713 192.267 28.2276 187.339 29.7004C171.665 34.3895 181.101 0.499826 192.96 2.59329C199.089 3.67715 192.739 14.6855 189.302 16.6075Z" fill="var(--fill-0, #231F20)"/>
<path id="Vector_4" d="M43.2855 28.0727C56.5246 30.3872 55.2472 9.35001 45.9344 18.8289C43.568 21.2389 44.0085 25.028 43.2855 28.0727ZM47.2792 11.523L45.9557 15.977C49.7434 12.9994 55.2099 11.9173 56.4606 17.7133C58.1182 25.4081 50.4718 31.9025 42.6477 30.6559C41.6635 32.8272 42.1573 43.2839 40.2084 43.9275L37.9504 44C36.4971 42.6757 41.1642 19.9022 42.2693 16.6011C43.0492 14.2725 44.1542 11.3091 47.2792 11.523Z" fill="var(--fill-0, #231F20)"/>
<path id="Vector_5" d="M257.973 10.8798L256.646 19.1582C257.567 20.1023 264.598 11.9884 266.194 11.3501C267.544 10.8108 267.778 11.4986 268.599 12.5613L262.678 19.4481C263.602 22.8129 265.147 26.1317 267.967 28.3949L266.217 29.8783C262.033 29.2984 259.793 24.7561 259.974 21.0748C255.223 22.3656 255.527 25.8576 254.692 29.7139C253.582 30.2726 251.823 30.2479 251.381 28.9324C250.904 27.5126 254.399 11.5658 255.422 10.9983C256.072 10.6393 257.179 10.9735 257.973 10.8798Z" fill="var(--fill-0, #231F20)"/>
<path id="Vector_6" d="M247.265 11.5687C246.956 17.5131 244.36 22.676 245.694 28.7425L242.701 29.2888L241.633 21.7L234.006 23.0102L233.233 29.2765L230.074 29.2588C229.588 28.4419 229.424 27.6056 229.469 26.6632C229.556 24.8296 232.055 13.7983 232.931 12.7533C233.308 12.306 233.896 11.947 234.326 11.528C238.259 11.9294 234.285 19.4881 234.644 19.794C244.445 21.4366 241.052 16.4204 245.291 11.1726L247.265 11.5687Z" fill="var(--fill-0, #231F20)"/>
<path id="Vector_7" d="M283.877 13.5275C279.883 13.2888 277.575 13.9236 275.713 17.3166C270.403 26.9971 278.513 29.8473 283.454 21.5247C285.065 18.8107 285.71 16.2504 283.877 13.5275ZM285.79 11.7063C286.863 12.5851 287.966 16.2062 287.998 17.5995C288.155 24.4245 274.99 34.8847 271.265 25.8956C267.939 17.8647 278.503 5.73714 285.79 11.7063Z" fill="var(--fill-0, #231F20)"/>
<path id="Vector_8" d="M107.286 27.4521C107.519 29.7012 104.33 29.9186 102.886 28.7764C101.702 27.8411 101.221 24.075 101.962 22.6728L100.635 22.351C98.8475 25.7123 95.2197 29.9063 90.7178 28.6208C88.8791 27.5193 91.2295 13.4344 94.2781 13.4061L95.8575 14.3644C95.154 17.1598 93.667 20.5794 93.3596 23.373C93.2583 24.2907 92.6703 25.8237 94.2799 25.5248C95.4915 24.0909 97.3765 23.4102 98.6378 22.0416C100.661 19.8421 102.55 14.6296 103.975 13.1303C106.183 10.8034 106.647 13.2664 106.334 15.374C105.829 18.7865 102.676 25.7211 107.286 27.4521Z" fill="var(--fill-0, #231F20)"/>
<path id="Vector_9" d="M26.6138 21.7027C29.0495 22.3374 35.2391 18.7163 34.6138 16.3064C34.1483 14.5117 30.787 16.2321 29.9787 16.9623C28.8026 18.0285 28.0671 20.4897 26.6138 21.7027ZM25.944 24.903C27.7331 31.3054 32.5956 28.0626 36.9411 26.1601C37.9698 29.737 31.3147 32.1629 28.4561 31.7739C16.7733 30.1844 26.6778 8.95094 36.6018 13.7603C40.2118 19.8408 31.1423 24.0207 25.944 24.903Z" fill="var(--fill-0, #231F20)"/>
<path id="Vector_10" d="M165.964 20.4294C168.455 20.6098 174.216 17.4979 172.314 14.6883C170.454 11.9389 166.185 19.0804 165.964 20.4294ZM165.296 23.6262C165.586 28.5257 171.973 26.7417 174.97 24.9081C177.72 26.6073 172.776 29.1092 171.186 29.5565C166.945 30.7482 162.258 29.2436 161.922 24.5651C161.56 19.5118 169.654 7.6618 175 12.7593C179.383 16.9409 169.64 23.5025 165.296 23.6262Z" fill="var(--fill-0, #231F20)"/>
<path id="Vector_11" d="M217.312 19.7977C219.46 20.1071 226.902 14.4244 222.961 13.4307C220.858 12.9002 216.276 18.5423 217.312 19.7977ZM225.877 10.9747C229.346 18.3567 221.689 20.6482 215.953 22.6868C217.191 27.6659 222.567 26.4635 225.642 23.6222C226.404 28.8629 216.834 30.6275 213.957 26.9621C209.472 21.2476 218.141 8.57716 225.877 10.9747Z" fill="var(--fill-0, #231F20)"/>
<path id="Vector_12" d="M77.9541 20.4286C78.4889 20.8635 85.9541 17.4793 84.9894 15.3346L83.243 14.3391C80.1233 14.9014 78.9952 17.9355 77.9541 20.4286ZM87.1266 12.3129C92.6039 19.228 77.3945 22.492 77.2542 23.323C76.7283 26.4349 79.3896 27.2023 82.1309 26.6683C82.6674 26.5622 89.4931 23.0454 86.5155 27.0184C84.1917 30.1214 76.8526 31.0745 74.7438 27.639C70.965 21.4806 79.5353 9.27345 87.1266 12.3129Z" fill="var(--fill-0, #231F20)"/>
<path id="Vector_13" d="M207.96 29.9848L205.933 29.7054L205.411 28.9327L205.963 22.3465C201.539 26.5935 195.623 27.5271 196.268 19.765C196.464 17.4151 200.092 9.45327 201.269 13.8099C201.774 15.6771 198.127 20.3184 200.964 22.3305C202.534 21.1088 205.062 20.7728 206.294 19.1532C207.768 17.2136 207.519 9.67252 210.659 11.8155L211.224 12.5811L207.96 29.9848Z" fill="var(--fill-0, #231F20)"/>
<path id="Vector_14" d="M71.0608 12.3608C72.1285 12.329 74.9249 12.9973 74.6157 14.3764C74.2569 15.9784 69.3197 15.0536 67.7599 15.4745C63.1052 16.7298 64.6011 32.5952 60.9609 31.895C59.6604 31.0198 59.8896 29.699 59.9074 28.3889C59.9642 24.2214 62.002 19.0089 62.2809 14.7C62.7588 13.9008 69.7781 12.3997 71.0608 12.3608Z" fill="var(--fill-0, #231F20)"/>
<path id="Vector_15" d="M99.3018 5.14788C100.432 5.88519 103.805 1.41182 104.957 0.69043C105.827 0.147613 106.652 0.253703 106.611 1.01223C106.586 1.4631 102.432 5.88165 101.624 6.4227C97.2356 9.35602 93.9969 6.31838 97.6229 2.61769L99.3018 5.14788Z" fill="var(--fill-0, #231F20)"/>
</g>
<defs>
<clipPath id="clip0_26_1777">
<rect width="288" height="44" fill="white"/>
</clipPath>
</defs>
</svg>
