<svg preserveAspectRatio="none" width="100%" height="100%" overflow="visible" style="display: block;" viewBox="0 0 35 33.81" fill="none" xmlns="http://www.w3.org/2000/svg">
<g id="Layer_1" clip-path="url(#clip0_39_3458)">
<path id="Vector" d="M0.242731 7.43328C0.942709 7.23851 1.71944 6.79587 2.46268 6.63962C4.2985 6.25359 6.13915 6.43998 7.94741 6.85351L4.66156 7.60586C3.28779 7.89889 0.833182 9.54506 0.416921 10.8951C0.362645 11.0712 0.446278 11.1639 0.618224 11.0964C0.955876 10.9638 1.64942 10.3242 2.10235 10.1144C3.22639 9.59353 4.52911 9.40652 5.75614 9.31884L3.70336 10.7566C2.98227 11.5287 2.604 12.863 2.74371 13.9088C2.84417 14.6604 3.15885 13.5706 3.23678 13.4403C3.70878 12.6506 4.2866 11.9392 5.2088 11.6472C4.77679 12.2149 4.6086 13.0969 4.95166 13.7521C5.06631 13.971 5.3847 14.114 5.45453 14.3439C5.7126 15.1943 5.05924 16.9482 4.90982 17.8527C4.78678 18.0874 3.26574 18.4368 2.78565 18.7418C0.789391 20.0104 1.05809 23.0087 2.35598 24.7028C2.9179 25.4363 3.74291 25.8485 4.24998 26.507C4.61596 26.9825 4.9381 27.6244 5.28392 28.2227L5.83665 29.0701C5.84714 29.0836 5.85731 29.0978 5.86786 29.111C5.86772 29.1128 5.86708 29.1146 5.86689 29.1164L6.42079 29.3647C6.44859 29.4 6.89177 30.6828 6.91854 30.7286L7.21036 30.1543C7.67812 30.5783 7.46502 30.8862 7.54875 31.0566L8.07172 31.9885L9.26889 31.9872L9.49448 32.5512L10.284 32.6076L10.6855 33.4698L11.6376 33.1716L12.5747 33.6837L13.0193 33.2562L14.3676 33.81C14.3554 33.7555 14.3198 33.6776 14.2488 33.5618C14.8848 33.6894 15.2329 33.2238 15.6877 32.8765C15.9754 33.7883 16.7724 32.7006 16.9899 32.1921C17.2912 32.2592 16.9765 32.905 17.4651 32.875L18.5639 31.6438L18.6992 32.0532C19.1947 31.9356 19.6393 31.2493 19.8643 31.1533C20.0245 31.085 20.1449 31.3848 20.3253 31.3574C20.4119 31.3442 21.0144 30.7242 21.0958 30.8213C20.9564 31.2247 22.8538 29.6483 22.8538 29.6483L23.1588 29.868C23.2018 29.7965 23.243 29.724 23.287 29.653C23.3648 29.5959 24.1162 29.3961 24.4117 29.5057C26.1601 30.1543 28.8225 28.2075 29.1672 28.0024C31.607 26.5501 33.0136 23.5532 31.4842 20.9137C31.3631 20.7044 31.0091 20.4748 30.9797 20.324C30.9585 20.215 31.5052 19.1067 31.5823 18.7753C31.8622 17.573 31.7375 16.5073 31.3701 15.345L32.1894 16.0999C32.94 17.0931 33.4793 18.3193 33.4256 19.5899C33.7981 19.2902 33.9194 18.3295 33.9538 17.8607C34.168 14.9514 32.3466 12.455 30.0001 10.9623C32.0313 11.4469 34.0729 12.243 35 14.2476C34.9344 11.3279 32.0886 8.85342 29.179 8.76808C29.1794 8.56176 29.5927 8.51245 29.7586 8.45974C30.5765 8.19992 31.5276 8.1356 32.3821 8.23639C32.9899 8.30813 33.5213 8.63773 34.0495 8.76199C34.2305 8.80456 34.3184 8.74014 34.2448 8.566C34.0777 8.17061 32.409 7.3158 31.9552 7.15678C30.3588 6.5972 28.9626 6.90944 27.3977 7.39851C28.0594 6.36497 28.6267 5.26088 28.4927 3.97635C28.127 3.90018 28.2571 4.07149 28.1529 4.24622C27.5937 5.18432 27.0141 6.0282 26.0293 6.57798C26.5921 5.41498 26.5888 3.99976 26.191 2.78535L25.4801 1.64722V3.77022C25.4801 4.40588 24.7452 6.0837 24.2487 6.57793C24.9438 3.86824 23.4908 1.70671 21.3019 0.278229C21.2646 0.806992 21.8059 1.23652 22.0253 1.74636C22.6087 3.1034 22.7291 4.5847 22.4654 6.02952L21.7653 4.19779C20.7334 2.22197 19.3579 0.702878 17.1926 0.00455759C17.0965 -0.0267985 17.1078 0.110378 17.1237 0.209762C17.1784 0.552875 18.1879 2.00847 18.4239 2.60834C18.6571 3.20108 18.9205 3.88652 18.9043 4.5235C17.8494 3.24297 16.7301 1.84399 15.1016 1.27372C14.4713 1.05301 13.0553 0.746279 12.3996 0.688443C11.4557 0.605152 10.4105 0.749448 9.45485 0.688443C9.42749 1.04399 9.43256 0.917299 9.66088 0.958359C11.4024 1.27168 13.0849 2.14038 14.3877 3.35732C14.5108 3.47241 15.2214 4.10621 15.0698 4.2489C14.0317 3.80806 13.1129 3.08824 12.0548 2.67695C10.0868 1.91211 7.06652 1.60392 5.03763 2.22928C4.9203 2.26547 4.79917 2.3334 4.79805 2.46765C7.13133 2.36417 9.51166 3.5812 11.2354 5.07006C7.37705 3.6523 2.84266 4.19531 0.0052439 7.33321C-0.0216258 7.68305 0.0543506 7.4857 0.242731 7.43328ZM3.3605 23.9722C2.03071 22.4076 2.1045 19.436 4.52399 19.1804C3.8483 20.6625 3.3622 22.3404 3.3605 23.9722ZM13.5638 7.53807C13.0073 8.26117 12.2356 8.99596 12.3325 10.0022C13.3412 9.32206 14.0971 8.38108 15.4117 8.22035C15.3682 8.57756 15.1358 8.8778 15.0826 9.26091C15.0242 9.68195 15.0944 10.1269 15.0719 10.55C15.7214 9.78825 16.1042 9.07701 17.0873 8.66324C18.4139 8.10473 20.6528 8.27858 21.9103 8.98372C22.4022 9.25964 22.8432 9.91031 23.1588 10.0635C23.4765 10.2178 24.4688 10.2332 24.5225 10.2767C24.562 10.3086 24.4055 10.5568 24.4578 10.6918C24.4939 10.7851 25.1753 11.5039 25.3663 11.8281C25.5101 12.0722 26.2693 13.5718 26.1636 13.7003C25.8765 13.5851 25.2529 12.7374 24.9998 12.7449C24.5122 12.7594 25.4059 14.0448 25.3418 14.2482C25.3116 14.2848 24.6921 13.7856 24.522 14.0421C24.7586 14.2274 25.319 15.6063 25.2048 15.7548L24.1111 14.9338L24.9309 18.0832C24.655 17.9168 24.0043 16.9038 23.7658 16.8513C23.0371 16.691 23.9228 18.2817 23.9749 18.562C24.0552 18.9935 23.3273 18.3866 23.2925 18.8352C23.282 18.9691 23.8311 20.1016 23.8374 20.4962C23.8422 20.8042 23.5008 20.6911 23.4362 20.9055C23.4119 20.9861 23.6496 22.287 23.7097 22.3273C23.7597 22.3608 23.9797 22.2102 24.1137 22.266C24.2564 22.3256 24.3628 22.6427 24.5764 22.5989C24.7 22.5737 25.8444 21.1108 26.3438 20.7962C29.6517 18.7114 32.6451 22.5639 30.0563 25.7413C29.0919 26.9248 25.8254 28.7697 24.3908 27.8699C23.5999 27.3739 23.928 26.4385 22.5355 27.5337C22.0149 27.9432 21.0616 29.1747 20.6232 29.4571C20.4053 29.5974 20.1479 29.5615 19.9367 29.7293C19.6384 29.9664 19.156 30.79 18.8366 31.0946C18.6629 31.0354 19.0368 30.3891 18.7002 30.4132C18.6097 30.4196 17.5327 31.5204 17.5342 31.779L17.1943 31.0986C16.7449 31.2321 16.4387 32.0591 16.0959 32.1898C15.7831 32.309 15.9307 31.727 15.6877 31.6464C15.2891 31.8059 14.9709 32.3581 14.5674 32.4421C14.0049 32.5591 14.3541 32.1601 14.2452 32.0587C13.939 31.7733 12.2161 33.2957 12.4676 31.9162C11.9717 31.9091 11.5655 32.3602 11.0476 32.1751C10.7813 32.0799 10.8231 31.5547 10.614 31.5063C10.3333 31.4416 10.0273 32.1473 9.60227 31.4125C9.50571 31.2455 9.58149 30.9442 9.46065 30.8838C9.22146 30.7641 8.8918 31.1339 8.62125 30.7651C8.44077 30.519 8.54845 30.1518 8.43536 29.9918C8.30277 29.8042 7.8749 29.9228 7.73616 29.7324C7.61015 29.5592 7.69822 29.0606 7.54983 28.8475C7.45893 28.717 7.20194 28.8191 7.11348 28.6849C6.59783 27.9034 5.58166 26.5582 5.18495 25.709C3.75481 22.6477 5.44751 20.5587 6.10067 17.5369C6.73647 14.5954 6.39828 12.0471 8.62993 9.65664C10.0029 8.18602 11.5864 7.66013 13.5638 7.53807Z" fill="var(--fill-0, black)"/>
<g id="Group">
<path id="Vector_2" d="M10.9618 25.1379C11.6045 24.977 13.858 24.1002 13.8381 23.3504C13.8253 22.8631 12.6388 22.5661 13.289 23.5597C13.0496 23.8893 9.28006 24.3346 8.70873 24.2388C7.75956 24.0796 6.98731 22.138 7.14873 21.3344C7.29692 20.5961 8.5816 19.953 9.24871 19.8637C9.82989 19.7858 10.6803 19.8637 11.3033 19.8637C11.3207 19.8637 11.6662 20.1328 11.6429 19.7952C11.6182 19.435 10.2013 19.3673 10.1455 19.3097C10.0348 19.1956 10.4345 16.5451 8.86941 16.8745C8.08044 17.0406 7.91654 18.0509 7.81979 18.7224C7.78999 18.9285 7.93999 19.2233 7.88357 19.3239C7.80896 19.4568 6.8636 19.8146 6.57388 20.065C5.07571 21.3604 6.18868 24.7352 7.97125 25.2502C8.7966 25.4886 10.1279 25.3468 10.9618 25.1379Z" fill="var(--fill-0, black)"/>
<path id="Vector_3" d="M20.2641 24.3253C19.596 23.7476 18.9851 24.0834 18.2207 24.1102C18.1036 24.6483 19.4127 24.479 19.0462 25.0017C18.8682 25.2557 17.9421 25.8686 17.6269 26.0502C15.3681 27.351 12.0928 27.8918 9.65573 26.8527C9.3487 26.7219 8.13191 25.7021 8.37969 26.6199C8.52408 27.1551 10.0997 27.7891 10.626 27.937C13.6035 28.774 17.7568 27.7289 19.6582 25.2078C19.8708 25.2073 20.5137 26.9044 20.8949 26.3053C21.2092 25.8115 20.6607 24.6682 20.2641 24.3253Z" fill="var(--fill-0, black)"/>
<path id="Vector_4" d="M26.6834 25.2462C26.5969 25.5319 25.9712 25.8318 26.0276 26.0937C27.0276 26.7198 28.0282 25.4088 27.6114 24.374L26.9868 23.2906C27.9991 22.6901 29.2886 22.1044 29.3156 23.8359C30.0734 23.4382 29.6774 22.1225 29.0376 21.853C27.9341 21.3884 25.5465 22.6674 25.6154 23.9724C26.4295 23.9236 26.9338 24.4193 26.6834 25.2462Z" fill="var(--fill-0, black)"/>
<path id="Vector_5" d="M16.5345 21.0542C17.1518 20.4836 17.2151 18.1201 16.4404 17.7402C15.1497 17.1073 14.6687 19.0813 14.8292 20.037C14.9708 20.879 15.7148 21.8117 16.5345 21.0542Z" fill="var(--fill-0, black)"/>
<path id="Vector_6" d="M19.0192 15.7093L19.7256 17.2609C19.9554 15.9214 19.8978 14.5434 18.5462 13.8539C17.5744 13.3581 16.6433 13.3955 15.6801 12.6055C15.515 12.4701 15.4989 12.2127 15.4783 12.1948C14.9889 11.7676 15.3291 13.2623 15.6142 13.6357C16.3839 14.6436 18.342 14.5266 19.0192 15.7093Z" fill="var(--fill-0, black)"/>
<path id="Vector_7" d="M11.1874 13.5155C11.5122 13.1753 11.7089 12.5353 11.3003 12.193C9.96175 13.2379 7.35149 13.0683 7.26352 15.206L8.26452 14.4964C9.08188 14.0615 10.5463 14.187 11.1874 13.5155Z" fill="var(--fill-0, black)"/>
</g>
</g>
<defs>
<clipPath id="clip0_39_3458">
<rect width="35" height="33.81" fill="white"/>
</clipPath>
</defs>
</svg>
