<svg preserveAspectRatio="none" width="100%" height="100%" overflow="visible" style="display: block;" viewBox="0 0 357 158" fill="none" xmlns="http://www.w3.org/2000/svg">
<g id="Layer_1" clip-path="url(#clip0_26_1684)">
<path id="Vector" d="M103.21 51.2765C105.6 55.9411 98.8749 60.8558 95.3426 63.3175C88.5774 68.0342 75.1751 73.6386 67.2676 70.2336C45.4041 60.8176 57.8753 26.0028 69.5573 12.5772C76.1304 5.02354 91.1872 -4.67217 101.076 2.53229C106.012 6.12669 108.8 19.7434 100.514 18.8122C94.7611 18.1642 101.011 8.77603 94.7438 5.66979C88.8301 2.73729 81.2376 8.93412 77.6915 13.213C69.9467 22.5578 65.6495 35.9643 65.1822 47.8732C65.0299 51.7734 65.4037 61.648 70.0333 63.2758C77.2398 65.8105 87.198 61.5455 93.2087 57.5828C94.9636 56.4258 101.58 49.951 103.21 51.2765Z" fill="var(--fill-0, #231F20)"/>
<path id="Vector_2" d="M141.735 112.282C139.229 109.243 132.641 111.792 130.206 114.09C129.614 118.875 127.461 124.306 127.061 129.038C127.004 129.715 126.805 130.254 127.528 130.713C132.734 134.01 146.604 118.182 141.735 112.282ZM131.308 108.467C136.026 105.891 142.739 103.672 146.9 108.324C155.958 118.458 139.496 138.308 127.22 135.401L126.606 135.827C126.703 138.322 125.661 141.871 125.694 144.076C125.751 147.835 129.164 154.31 124.685 157.095C116.843 161.973 118.004 145.71 118.183 142.227C118.804 129.999 122.781 118.057 123.961 105.866C124.263 103.603 130.406 100.055 132.149 100.606C135.022 101.513 130.699 107.727 131.308 108.467Z" fill="var(--fill-0, #231F20)"/>
<path id="Vector_3" d="M242.915 42.724C242.05 42.6857 241.721 42.5363 241.018 43.1357C238.291 45.4636 235.577 50.6459 232.872 53.3126C226.495 59.5981 218.348 61.3822 218.579 49.7564C218.65 46.1707 220.015 36.7217 220.617 32.825C221.502 27.0972 225.356 20.4001 230.454 27.231C228.999 34.3729 226.579 41.4558 226.706 48.8131C229.046 49.2439 229.968 47.8003 231.386 46.3827C234.788 42.9811 242.297 33.4105 244.414 29.2741C245.818 26.5309 244.698 22.7732 249.402 23.2509C256.6 23.9806 251.64 32.1197 251.087 36.3968C250.615 40.0538 250.452 47.5292 251.605 50.9795C252.425 53.4342 256.423 55.9098 253.476 57.5967C250.914 59.063 246.981 58.3629 245.122 56.0922C244.727 55.6093 242.915 51.8568 242.915 51.551V42.724Z" fill="var(--fill-0, #231F20)"/>
<path id="Vector_4" d="M167.467 44.8546C167.472 44.7034 168.654 44.0415 167.774 43.939L166.856 43.946C166.777 44.4672 166.609 45.0613 166.237 45.4504C163.421 48.4038 154.238 59.0393 151.152 59.9775C142.494 62.6094 142.651 53.5235 143.227 47.9712C143.913 41.3644 145.716 34.1791 146.576 27.5027C147.005 25.3398 152.05 23.8823 153.478 25.0045L154.373 26.6046C153.939 33.1593 151.097 40.3047 150.643 46.6891C150.507 48.6088 150.096 51.6924 151.578 53.0718C153.383 53.4349 160.243 44.9762 161.493 43.2841C163.878 40.051 167.867 31.4429 169.933 29.6083C171.984 27.7894 174.357 27.4662 176.513 29.3234C177.765 31.3959 175.163 39.4273 174.958 42.4276C174.559 48.1901 175.122 54.1038 178.066 59.1523C174.951 60.1703 170.897 61.6765 168.788 58.1759C168.559 57.7989 167.467 54.7848 167.467 54.5937C167.467 51.3571 167.353 48.0859 167.467 44.8546Z" fill="var(--fill-0, #231F20)"/>
<path id="Vector_5" d="M9.08892 121.853L16.2591 115.771C18.6647 113.157 26.5964 102.288 30.7534 106.185L31.2484 108.447C27.1588 113 21.8388 116.45 18.4501 121.541C18.3999 123.502 27.5656 135.885 29.6891 137.358C31.0684 138.316 35.0715 138.517 32.8389 141.088C32.0584 141.988 30.1356 142.249 28.9536 142.207C21.2538 141.943 15.7209 132.002 12.4949 126.103C3.64597 127.564 11.9116 142.798 3.09215 143.152C0.234817 143.269 0.0669432 140.135 0.00463854 137.989C-0.152853 132.557 3.73942 111.107 5.68124 106.053C6.99654 102.625 11.7057 101.069 12.7545 103.987C13.4623 105.956 9.47486 118.744 9.08892 121.853Z" fill="var(--fill-0, #231F20)"/>
<path id="Vector_6" d="M256.01 121.251L244.875 122.554C242.933 126.938 246.538 133 240.721 134.683C232.36 137.103 236.669 119.751 237.474 115.634C237.846 113.739 239.747 104.714 240.39 103.871C242.239 101.456 245.693 102.3 247.604 104.182L245.409 116.987C247.533 117.237 255.153 116.873 256.332 115.174C257.96 112.823 257.117 100.85 262.498 101.154C263.611 101.218 266.544 102.565 266.584 103.852C265.395 108.602 264.471 113.645 264.121 118.518C263.888 121.784 264.827 129.428 264.012 131.803C262.91 135.018 256.01 133.034 256.01 130.078V121.251Z" fill="var(--fill-0, #231F20)"/>
<path id="Vector_7" d="M216.727 24.4674C218.676 26.4913 202.593 40.9124 201.318 43.6294C202.647 46.7496 204.635 49.5153 206.769 52.1421C208.121 53.8046 212.496 56.407 211.16 58.2711C208.368 62.1696 203.566 59.0946 200.894 56.6607L195.224 49.425C191.979 51.3742 186.851 64.8467 182.067 61.0473C181.372 60.467 181.145 59.7391 181.138 58.8688C181.103 54.7202 192.874 46.4386 193 44.2774L184.909 27.8359C186.216 24.0365 191.911 23.3573 193.793 27.0681C194.561 28.5847 196.707 38.3151 198.914 37.8304L211.137 25.402C213.055 23.9809 214.46 23.8593 216.727 24.4674Z" fill="var(--fill-0, #231F20)"/>
<path id="Vector_8" d="M277.837 116.988C283.995 116.92 292.314 112.275 290.644 105.397C283.797 101.978 277.313 110.8 277.837 116.988ZM287.036 100.105C297.665 98.6148 300.987 106.544 294.668 114.248C292.279 117.158 287.079 119.867 283.455 120.956C280.516 121.839 275.326 120.534 277.984 125.673C280.161 129.877 285.552 129.314 289.277 127.857C291.942 126.814 297.84 121.681 299.708 123.946C301.25 125.813 297.761 128.586 296.227 129.773C290.592 134.132 280.925 136.081 274.755 131.864C262.768 123.677 274.187 101.907 287.036 100.105Z" fill="var(--fill-0, #231F20)"/>
<path id="Vector_9" d="M142.475 26.336C142.799 26.8016 142.515 28.1445 142.214 28.723C140.298 32.4095 130.161 28.796 127.237 32.3643L124.509 49.1793C123.614 54.0141 126.984 63.8662 120.238 65.117C114.698 66.1455 114.907 63.0601 115.099 58.8594C115.482 50.491 118.71 41.4259 119.452 32.988L106.131 34.727C99.6826 25.886 121.631 26.6487 126.619 26.2821C129.374 26.0806 140.864 24.0219 142.475 26.336Z" fill="var(--fill-0, #231F20)"/>
<path id="Vector_10" d="M50.0965 112.229C42.7446 113.06 36.6422 123.836 40.8893 130.078C45.9498 137.519 55.5515 125.245 55.619 119.23C55.6554 116.001 54.1185 111.774 50.0965 112.229ZM51.3702 105.562C56.6817 105.273 61.6175 111.178 62.0917 116.074C63.1994 127.536 49.2813 143.577 37.1874 135.517C30.3011 130.927 31.4918 121.755 35.3875 115.575C38.1185 111.244 46.0969 105.848 51.3702 105.562Z" fill="var(--fill-0, #231F20)"/>
<path id="Vector_11" d="M103.059 112.249C95.0546 114.078 91.4617 129.688 99.9645 130.886C107.912 132.005 117.569 108.934 103.059 112.249ZM104.951 105.571C111.707 104.464 116.517 109.061 116.96 115.482C117.382 121.608 113.375 128.505 108.436 132.102C96.7991 140.584 84.2864 132.101 89.4957 118.482C91.3942 113.519 99.6841 106.434 104.951 105.571Z" fill="var(--fill-0, #231F20)"/>
<path id="Vector_12" d="M200.505 124.296C199.633 124.121 199.711 124.178 199.216 124.685C196.852 127.109 192.674 135.17 189.019 134.661C186.117 134.256 186.648 132.034 188.05 130.248C189.301 128.653 197.118 121.176 197.298 120.25C196.746 117.927 190.777 108.211 191.478 106.619C191.804 105.881 193.856 104.49 194.737 104.311C200.514 103.133 200.258 110.646 202.695 113.942C206.054 111.724 210.213 99.924 215.091 103.051C219.408 105.817 212.485 110.122 210.509 112.441C209.513 113.607 205.796 117.999 205.744 119.109C205.571 122.752 215.23 130.896 214.584 132.223C209.751 137.202 201.95 129.157 200.505 124.296Z" fill="var(--fill-0, #231F20)"/>
<path id="Vector_13" d="M312.125 106.644C309.349 105.734 302.942 109.459 301.201 106.648C300.49 105.499 300.86 102.577 302.392 102.272C309.162 101.287 316.878 99.1219 323.639 98.7085C326.031 98.5625 337.969 98.7971 333.357 102.716C330.289 105.322 323.662 103.602 319.892 105.395C318.608 111.352 317.383 117.419 316.57 123.456C316.061 127.229 317.802 133.8 311.232 133.402C307.487 133.174 308.205 129.019 308.364 126.4C308.757 119.938 311.052 113.034 312.125 106.644Z" fill="var(--fill-0, #231F20)"/>
<path id="Vector_14" d="M158.117 130.987C166.386 130.406 172.755 118.499 159.446 121.331L158.117 130.987ZM160.608 116.38C164.767 116.015 167.624 115.384 171.417 117.698C176.225 120.631 175.047 125.643 171.547 129.19C167.541 133.252 154.021 140.368 151.555 131.928L154.936 106.278C155.613 103.894 160.471 103.312 161.547 105.421C162.652 107.584 159.902 115.69 160.608 116.38Z" fill="var(--fill-0, #231F20)"/>
<path id="Vector_15" d="M80.9398 110.439C80.2994 111.177 77.9111 127.164 77.6636 129.491C77.5009 131.017 78.2036 132.613 77.8869 133.921C77.1859 136.805 72.8679 139.297 70.9382 136.046C68.318 131.637 74.1919 112.407 73.3092 111.514C70.2892 111.787 67.4111 113.307 64.289 112.709C61.4593 112.169 61.5805 109.398 63.7248 107.932C65.6666 106.606 79.9065 104.404 82.9837 104.212C86.516 103.994 91.0867 103.738 94.2417 105.389C97.3534 109.758 82.3589 108.802 80.9398 110.439Z" fill="var(--fill-0, #231F20)"/>
<path id="Vector_16" d="M350.45 80.1328C351.852 80.0164 356.511 81.3263 356.961 82.7005C357.773 85.1726 345.694 113.308 346.137 118.841C342.981 120.179 339.088 119.769 339.692 115.622C341.231 105.059 346.06 92.9191 347.825 82.1428C348.204 81.1265 349.334 80.2249 350.45 80.1328Z" fill="var(--fill-0, #231F20)"/>
<path id="Vector_17" d="M184.196 133.933L180.856 135.239C179.302 135.222 177.699 132.628 177.479 131.259C176.758 126.786 178.821 111.342 180.728 107.108C181.761 104.813 185.923 103.706 187.154 105.383C188.038 106.585 185.257 117.799 184.938 120.346C184.383 124.778 184.485 129.473 184.196 133.933Z" fill="var(--fill-0, #231F20)"/>
<path id="Vector_18" d="M270.352 59.7714C257.763 61.5157 265.946 46.9226 273.713 51.3161C281.344 55.6298 270.189 74.3575 264.137 71.6578C260.527 70.0491 266.603 67.8254 268.128 65.8154C268.831 64.8894 271.105 60.5185 270.352 59.7714Z" fill="var(--fill-0, #231F20)"/>
<path id="Vector_19" d="M344.403 126.264C348.37 130.147 340.478 137.918 336.153 132.19C332.325 127.121 341.403 123.327 344.403 126.264Z" fill="var(--fill-0, #231F20)"/>
</g>
<defs>
<clipPath id="clip0_26_1684">
<rect width="357" height="158" fill="white"/>
</clipPath>
</defs>
</svg>
