<svg preserveAspectRatio="none" width="100%" height="100%" overflow="visible" style="display: block;" viewBox="0 0 452 246" fill="none" xmlns="http://www.w3.org/2000/svg">
<g id="Group">
<path id="Vector" d="M146.406 242.307C146.198 241.503 147.032 241.599 147.558 241.489C149.705 241.04 151.904 241.276 154.031 240.785C154.086 240.711 153.119 239.346 152.986 239.249C151.435 238.126 145.318 239.949 143.163 240.144C142.822 240.175 142.069 240.426 142.138 239.882C144.274 238.313 150.852 238.492 152.373 237.165C152.745 236.841 153.023 235.838 152.81 235.629C152.617 235.441 148.21 236.127 147.435 236.199C147.095 236.231 146.338 236.477 146.408 235.935C147.956 235.236 151.889 235.617 153.111 234.864C153.69 234.508 154.269 232.361 154.641 231.684L142.698 235.732C135.559 237.218 128.303 236.928 121.091 236.232L122.918 235.781C120.017 234.306 117.894 232.565 114.381 233.196L117.117 232.139C112.197 225.604 117.852 219.813 123.63 216.754C126.195 215.396 129.162 214.619 131.672 213.222C132.576 212.719 133.283 211.723 134.301 211.284C136.104 210.507 138.401 210.579 140.32 209.685C142.29 208.767 143.725 206.927 145.489 205.723C143.593 205.233 141.479 205.488 139.58 205.232C136.899 204.872 131.024 203.55 128.709 202.391C123.912 199.989 126.206 198.676 127.167 194.773C130.068 182.987 123.628 170.929 120.872 159.796C119.361 153.69 120.938 149.008 126.487 145.825C129.903 143.866 135.268 142.227 139.082 143.641L137.623 133.472C138.896 131.136 137.782 128.357 138.315 126.327C138.778 124.564 142.079 120.649 143.501 119.347C147.056 116.093 149.532 117.013 151.948 111.969C152.602 110.604 152.994 108.94 153.673 107.613C154.317 106.353 156.118 104.433 156.354 103.276C156.656 101.795 155.753 99.6537 156.306 97.7869C156.881 95.8465 159.503 95.3983 159.994 93.8699C160.411 92.5712 159.791 91.9328 159.826 90.9692C159.97 87.0672 160.303 83.9551 162.751 80.8256C164.007 79.2196 165.965 77.3837 168.064 77.1537L167.167 73.341C162.805 73.3192 160.153 73.3193 156.378 71.0253C150.347 67.3597 145.679 60.0229 148.092 52.8775C148.48 51.7272 150.589 48.8863 150.634 48.4147C150.676 47.9792 148.942 46.363 148.613 45.6638C147.145 42.5523 148.077 38.8247 149.453 35.8686C149.153 35.5082 145.911 39.1375 145.657 39.5255C144.956 40.5982 145.072 42.1484 143.969 42.8509C143.613 38.3267 146.278 35.6267 148.363 32.1998C150.557 28.5938 152.32 24.398 156.164 22.2032C156.169 21.5827 154.944 21.9479 154.633 22.0475C153.73 22.3365 151.96 23.4705 151.186 24.0805C149.531 25.385 147.632 28.8222 145.647 29.1945C145.227 29.2732 145.062 29.1738 145.191 28.7408C145.456 27.8495 147.324 25.0645 147.983 24.2325C149.952 21.7483 153.242 19.3203 156.392 18.6368C157.984 18.2913 160.502 18.7057 161.657 17.3528C159.354 17.3601 157.455 16.6105 155.086 16.7321C152.034 16.8889 151.031 17.963 147.622 17.199C147.286 17.1237 146.635 17.1963 146.713 16.7464C151.575 14.5628 155.814 13.6115 161.162 14.3506C162.587 14.5475 168.877 16.4816 169.586 15.5246C169.398 15.0198 168.886 14.6731 168.466 14.3676C164.795 11.7026 160.012 9.43 155.557 8.54358C154.574 7.45539 158.669 7.60841 159.059 7.63994C162.776 7.94029 166.583 9.89741 169.44 12.1854L169.895 10.671L171.109 11.8837C170.462 7.71048 171.005 2.62756 175.074 0.349017C175.199 1.87617 173.988 3.05089 173.496 4.38944C172.79 6.30761 173.252 10.1805 173.58 12.314C173.628 12.6262 173.702 13.4488 174.159 13.4014C175.313 7.94426 181.542 0.2708 187.424 0.0345046C187.76 0.0210469 188.274 -0.134023 188.191 0.345057C187.741 0.466238 186.736 0.928879 186.496 1.25656C186.255 1.58613 187.012 1.78415 186.844 2.1705C186.539 2.87238 183.551 5.0296 182.712 5.97444C181.172 7.70806 179.552 10.3279 178.741 12.4923C182.636 7.96667 187.901 4.01802 193.524 1.85995C196.325 0.784905 199.221 -0.0930443 202.224 0.655621C202.655 0.995495 199.442 1.79402 199.094 1.93959C195.914 3.27116 192.325 5.39012 189.718 7.63207C193.126 6.04081 196.736 4.60132 200.551 4.30048C203.891 4.03706 208.879 4.10586 211.069 7.02484C208.335 7.45394 205.633 6.35264 202.993 6.42052C200.517 6.48417 196.495 7.2505 194.599 8.84653C196.252 8.52362 197.951 8.09602 199.635 7.94253C206.328 7.33235 214.096 7.7031 219.583 12.0633C220.763 13.001 222.187 14.5212 222.204 16.134C221.795 15.7294 221.418 15.2916 220.93 14.9733C218.963 13.6917 210.474 10.7917 208.179 10.6603C207.846 10.6412 207.025 10.4631 207.106 10.9711C215.464 13.3943 225.822 18.0465 226.016 28.1263C226.052 28.3892 225.448 28.3083 225.411 28.2765C225.261 28.15 223.968 25.4767 223.518 24.8441C220.884 21.1421 217.455 17.6317 212.902 16.4392L218.206 22.2385C220.008 24.2097 220.755 26.6755 220.844 29.3278C220.858 29.7383 221.111 30.8776 220.377 30.7048C218.174 28.0859 218.352 24.1481 215.037 22.2073C216.501 25.7274 217.576 28.6864 216.727 32.5441C216.383 34.1084 215.25 36.0289 215.061 37.5638C214.844 39.3231 215.611 41.0707 215.341 42.8495C218.119 41.5002 219.973 41.1216 222.64 43.0225C224.925 44.6512 225.683 48.8571 225.406 51.5062C225.191 53.5571 223.461 55.8289 223.345 57.6497C223.261 58.9661 224.085 60.5724 223.885 61.9727C225.455 62.1755 227.685 62.1846 228.996 63.1081C229.93 63.766 230.788 65.3625 231.612 66.121C234.803 69.0574 238.634 71.3774 241.88 74.2678C252.148 83.4102 261.415 99.7507 266.73 112.377C268.107 115.65 268.733 119.845 271.151 122.549C272.279 123.809 273.819 124.688 274.974 126.03C279.302 131.058 278.132 136.902 280.086 142.496C281.074 145.324 283.675 147.674 284.006 150.89C291.228 151.295 298.15 153.588 305.197 154.843C305.889 154.966 306.649 154.767 307.3 154.876C311.563 155.59 317.258 155.946 318.649 160.884C319.24 162.98 319.932 168.699 319.582 170.74C319.241 172.73 317.727 173.317 317.806 175.676C317.956 180.187 318.715 184.822 319.041 189.334C319.484 195.452 319.238 202.822 320.953 208.682C321.53 210.651 323.079 209.549 324.673 209.505C326.569 209.454 328.462 209.497 330.329 209.826C330.4 210.356 329.636 210.112 329.266 210.127C326.664 210.231 324.062 209.953 321.487 210.433L321.483 215.593C325.237 215.683 329.084 215.312 332.788 216.029C333.238 216.116 334.477 216.29 334.599 216.802C329.996 217.133 325.661 217.266 321.182 218.63C321.23 219.117 322.494 219.201 322.861 219.231C325.687 219.46 328.565 219.353 331.391 219.855C331.932 219.951 332.303 219.521 332.158 220.448C324.534 219.694 316.33 220.14 308.978 222.42C306.593 223.16 304.262 224.723 301.661 225.006C301.589 225.535 302.354 225.292 302.723 225.306C310.352 225.599 317.986 224.993 325.565 226.254L328.194 226.821C314.369 226.618 300.17 225.477 286.715 229.256C286.643 229.785 287.408 229.542 287.777 229.556C296.312 229.886 304.878 229.276 313.399 230.167L317.213 230.767L278.667 230.807C277.829 230.891 274.126 231.668 273.527 231.99C273.138 232.198 272.567 233.542 271.918 234.108C270.243 235.568 265.237 237.025 262.998 237.373C253.199 238.898 244.642 234.736 235.01 234.113C225.725 233.513 216.633 234.833 207.646 236.926C205.037 237.533 202.628 238.712 199.847 239.182C198.127 239.473 196.052 239.365 194.577 239.705C193.074 240.051 190.514 242.134 188.918 242.877C181.299 246.423 166.998 247.17 159.223 243.97C158.556 243.696 156.486 242.307 156.319 242.307H146.406ZM212.896 21.2963C211.079 16.7414 205.608 13.3629 200.7 13.4063L206.655 16.4308L212.896 21.2963ZM210.152 29.496C210.463 27.6113 208.791 26.4446 208.297 24.7875C207.683 22.7302 208.376 23.0807 206.332 21.3054C203.291 18.6626 198.193 15.972 194.137 16.1359C193.768 16.1508 193.003 15.906 193.076 16.4352C195.313 17.2962 197.596 18.2414 199.683 19.4228C202.098 20.7899 204.909 22.3748 205.576 25.2429C202.733 23.5722 199.329 21.8894 196.209 20.7558C194.532 20.1465 191.914 19.3169 190.168 19.1759C189.834 19.1489 189.033 18.9515 189.11 19.4715C191.1 19.6344 193.19 20.5998 193.988 22.5077C192.293 22.6209 190.808 21.3432 189.238 21.0172C187.725 20.7029 186.33 21.1147 185.003 20.9989C183.533 20.8707 181.792 20.0602 180.415 20.0601C179.239 20.06 172.811 21.8504 171.812 22.4486C169.48 23.8459 170.601 25.4062 172.752 24.2922C173.962 23.6649 174.796 21.3366 176.601 22.054C175.325 22.7904 174.495 24.024 173.393 24.9328C172.443 25.7164 171.234 26.1928 170.338 27.0532C168.062 29.239 166.261 32.854 165.018 35.7241C164.967 36.6454 165.347 35.9346 165.571 35.6658C167.045 33.894 168.193 31.8605 170.046 30.4055C170.502 30.6442 169.976 31.1354 169.828 31.4027C168.771 33.308 167.274 35.0027 166.54 37.0827C167.37 36.6565 167.535 35.2396 168.67 35.2629C169.014 35.6152 166.986 37.9014 167.603 38.5993C168.869 37.4937 169.848 35.9697 171.414 35.2615C171.69 35.59 169.473 38.7876 170.043 39.51C170.608 39.1716 171.271 37.7181 172.031 38.1492C171.006 41.9556 168.974 45.9767 168.953 49.9801C168.948 50.8782 169.556 53.2283 169.235 53.733C169.104 53.939 168.104 54.1673 167.756 53.9511C167.563 53.8318 166.076 50.8709 165.473 50.1335C161.73 45.5595 156.202 46.4895 152.655 50.7406C148.825 55.331 149.981 60.4722 153.57 64.7128C157.313 69.1347 161.187 70.7838 167.103 70.1314C167.891 69.6406 166.829 64.909 168.364 64.1023C169.079 66.407 169.081 69.9374 169.975 72.0646C170.299 72.8346 174.464 78.0537 174.925 78.0608C175.559 77.0279 175.63 75.9028 176.904 75.3348C177.251 75.7243 175.618 76.8433 175.672 77.6098C175.684 77.7687 176.274 77.7406 176.267 77.8932C176.205 79.1419 175.74 79.0811 176.942 80.3096C179.771 83.2005 179 80.1465 181.483 79.2843C180.153 80.3337 179.3 83.1124 181.784 82.4675L184.531 79.89C184.35 80.9735 183.058 81.7792 182.645 82.7208C182.468 83.1254 182.512 83.5445 182.855 83.5254C183.128 83.5102 185.109 80.9943 185.75 80.7993L183.923 84.136C184.862 84.2105 185.783 84.6754 186.757 84.3813C187.781 84.0721 189.006 81.535 190.328 81.4094C190.202 81.9919 187.101 84.3165 187.585 84.7442C191.259 85.4927 191.498 83.5808 193.833 81.707C193.846 82.3274 191.381 84.6221 191.855 85.0477C193.868 85.6923 195.031 82.549 196.28 82.0161C196.641 81.862 196.886 82.1051 196.731 82.4647C196.539 82.9115 194.68 84.0962 195.053 84.7459C195.595 85.6888 198.303 83.6074 199.018 83.5286L199.018 84.7423C209.894 81.2416 221.908 74.8367 220.791 61.5607C220.575 58.9992 219.274 56.6538 219.308 54.0851L220.067 55.292C220.553 54.3103 221.593 53.9443 222.185 53.1554C224.105 50.5937 222.672 44.3343 219.113 44.0755C217.4 43.951 215.277 45.9945 213.818 46.7969C213.287 40.9669 212.661 34.7925 209.549 29.639L210.152 29.496ZM162.875 24.0303C162.339 23.9244 161.996 24.1739 161.555 24.3832C160.341 24.9597 157.346 28.2938 156.643 29.5117C156.285 30.1302 155.909 30.8961 155.864 31.6182L162.119 25.5515L162.875 24.0303ZM166.232 25.8532C165.474 25.1667 162.688 29.8217 162.411 30.3953C162.095 31.0466 161.713 31.8027 161.66 32.5289L166.232 25.8532ZM150.984 48.0104C151.313 48.2543 151.845 47.6614 152.037 47.3949C153.361 45.5588 151.966 43.3376 152.198 41.3331C151.215 41.8002 151.695 43.1884 151.506 44.1327C151.341 44.958 150.36 47.5482 150.984 48.0104ZM210.456 126.338C210.614 126.168 211.371 122.559 211.599 121.855C213.136 117.093 216.14 110.423 218.644 106.098C220.233 103.354 221.811 103.456 219.565 99.8172C218.942 98.8068 215.648 96.2356 215.719 95.2168C215.818 93.792 225.175 91.2507 225.652 89.6978C225.894 86.5959 225.831 83.4473 226.018 80.3469C226.265 76.2522 227.352 69.75 226.184 65.9072C225.857 64.8328 224.043 64.1597 223.54 64.8869C223.123 65.4885 222.691 68.7801 222.28 69.9478C221.28 72.7936 219.172 74.7172 218.026 77.2498C216.566 80.477 214.313 86.6367 213.819 90.0633C212.674 98.0098 211.099 105.984 210.157 114.045C210.327 117.837 209.368 122.135 209.848 125.887C209.902 126.306 210.033 126.794 210.456 126.338ZM268.109 129.675C267.811 126.887 266.776 123.827 265.884 121.112C262.227 109.979 256.256 98.2815 249.933 88.4145C244.258 79.56 239.697 76.1987 232.111 69.419C231.676 69.0304 228.512 65.5182 228.152 65.925C228.766 73.1575 228.015 80.3734 227.842 87.6268C227.816 88.7373 226.759 90.7626 228.616 91.1121C232.956 91.9291 234.983 88.8629 238.394 88.4146C239.982 88.2059 242.215 88.2741 243.704 88.8428C241.85 90.7009 239.465 90.0181 237.093 91.066C232.518 93.0871 226.456 100.724 227.237 105.995C227.765 106.132 227.846 105.777 228.152 105.543C229.447 104.556 230.89 102.519 232.106 101.282C235.189 98.1492 238.546 95.3327 241.115 91.7298C241.574 91.9676 241.026 92.4618 240.909 92.7396C238.918 97.467 234.559 100.371 231.505 104.023C231.219 104.364 230.765 104.514 230.897 105.084L244.474 95.9826L244.618 96.5829L245.995 95.6764C246.221 95.6281 246.204 95.995 246.144 96.1263C245.755 96.9734 243.579 99.3372 242.795 100.081C236.955 105.623 228.4 108.559 224.732 116.408C224.599 116.692 224.25 117.344 224.64 117.531C228.457 115.852 231.795 113.252 235.463 111.303C236.108 110.96 237.182 110.225 237.909 110.397L227.396 118.148L222.966 122.996C227.91 122.858 232.838 123.103 237.707 123.959C239.597 124.291 242.244 124.754 243.927 125.657C244.287 125.851 244.439 125.652 244.314 126.335C239.45 126.735 234.627 125.366 229.84 125.11C227.659 124.993 223.651 124.86 221.587 125.122C219.788 125.35 222.454 125.972 222.743 126.102C227.028 128.021 231.558 131.061 235.011 134.232C235.675 134.842 236.626 136.636 237.515 136.899C238.664 137.24 242.512 136.623 244.176 136.646C245.652 136.667 247.396 137.251 248.995 136.976C249.326 136.897 250.068 134.118 250.053 133.703C250.004 132.329 247.106 133.284 246.298 133.258C243.772 133.18 241.24 132.414 238.676 132.709L236.082 132.108L249.986 130.918C251.169 130.021 251.199 123.497 251.028 121.933C250.829 120.112 249.706 118.626 249.199 116.926C251.507 118.506 252.244 121.38 253.007 123.907L258.038 114.803C259.234 121.021 254.277 126.716 252.553 132.407C255.266 132.63 257.458 130.357 260.092 130.044C260.549 129.99 260.899 129.75 260.784 130.431C259.934 131.058 259.137 131.916 258.321 132.535C256.33 134.044 252.618 135.044 252.856 137.872C253.304 138.315 261.371 136.24 262.798 136.075C263.365 136.009 263.451 136.393 263.224 136.653C262.924 136.999 257.978 138.688 257.124 138.934C255.716 139.338 252.479 139.359 252.073 140.591C251.58 142.084 252.634 142.294 253.925 142.426C258.382 142.882 263.26 142.401 267.661 142.718C268.435 142.774 269.161 143.045 269.939 143.036C270.016 143.85 269.941 143.524 269.48 143.636C268.163 143.953 266.006 144.164 264.612 144.261C262.715 144.394 260.305 143.779 258.653 144.706C261.392 145.889 264.512 146.256 267.269 147.36C267.793 147.57 268.933 147.747 268.716 148.497C265.488 148.556 262.517 147.012 259.395 146.39L259.567 147.281C257.571 147.469 251.604 144.485 250.187 145.844C249.146 146.843 249.363 149.433 248.798 150.229C248.398 150.792 246.191 152.103 245.844 152.905C245.482 153.74 247.629 153.242 247.67 153.96C247.433 154.12 244.442 153.131 244.928 154.111C253.292 158.8 261.574 166.529 271.93 163.385C275.035 162.442 281.068 158.916 281.209 155.3C281.271 153.715 279.709 153.67 279.695 152.904L281.22 152.601C273.625 145.681 279.663 131.461 270.088 126.036C269.007 127.066 271.962 130.603 270.144 130.543C268.971 130.505 269.346 129.349 269.324 128.462L268.109 129.675ZM170.804 112.674C170.384 110.615 169.531 108.726 169.067 106.666C167.941 101.665 166.903 95.1279 166.271 90.0196C165.742 85.7462 166.41 85.9694 167.129 82.4513C167.192 82.1403 167.393 80.5416 166.846 80.498C165.963 82.4269 164.375 83.9731 163.707 86.0276C161.829 91.8074 165.138 104.566 168.425 109.734L170.804 112.674ZM197.343 87.7817H189.413C189.863 90.3023 191.756 92.6176 192.376 95.008C192.777 96.5551 192.512 98.1032 193.378 99.6185C192.672 100.294 191.42 97.109 191.193 96.7869C189.943 95.0098 187.943 93.516 187.274 91.4269C186.902 91.2463 186.915 92.7239 186.364 92.0319C186.203 91.8291 186.7 90.7522 186.062 90.8198C184.854 100.417 188.411 111.744 193.021 120.166C193.61 121.241 197.039 126.195 197.031 126.794C197.026 127.17 196.701 127.224 196.276 126.946C195.263 126.284 192.944 123.289 192.216 122.181C190.117 118.981 188.595 115.042 187.274 111.464C186.763 111.384 186.96 112.184 186.964 112.53C187.035 118.242 188.403 123.414 190.486 128.761C191.075 130.274 192.355 131.594 192.159 133.319C195.686 133.334 203.22 133.724 205.902 131.06C207.409 129.563 206.78 127.825 206.785 126.197L206.797 121.481C206.213 121.339 206.21 121.693 205.939 121.99C204.796 123.241 204.046 124.937 202.68 126.032C202.45 126.079 202.483 125.737 202.533 125.584C202.847 124.619 204.774 122.445 205.433 121.182C206.137 119.831 206.619 118.364 207.101 116.926C205.238 118.006 203.644 121.377 202.23 122.548C201.818 122.889 201.421 122.702 201.616 122.243C201.829 121.742 203.934 119.557 204.483 118.72C207.046 114.81 208.694 110.36 209.236 105.695L205.116 112.063C204.63 113.698 205.285 112.435 206.187 112.826C204.349 114.409 202.533 116.461 200.701 117.991C200.459 118.193 200.09 118.787 199.785 118.294L209.262 104.653C211.111 97.0225 211.069 89.1396 213.207 81.5605L209.075 84.7347C207.287 89.0127 201.259 93.385 199.93 97.4899C198.864 100.78 198.582 104.825 197.565 108.191C197.427 108.648 196.546 111.337 196.424 111.461C195.392 112.506 196.102 108.92 196.07 108.657C195.724 105.748 191.491 104.528 189.705 102.822C189.097 102.242 186.439 99.1374 186.976 98.4072C187.923 99.1481 189.331 99.2236 190.306 99.7958C191.068 100.243 195.545 105.395 196.427 104.477C196.306 103.126 196.588 101.831 196.883 100.529C198.514 93.3103 200.081 93.4671 203.58 88.069C203.812 87.7108 204.527 86.2125 203.602 86.5711C202.485 87.0037 201.07 88.1474 199.934 88.6906L199.627 87.7764L196.734 88.6895L197.343 87.7817ZM183.31 128.766C183.553 126.101 182.797 123.352 182.69 120.733C182.306 111.301 184.077 98.3068 182.319 89.5296C181.523 85.5571 180.887 87.0699 178.053 85.8823C177.487 85.645 174.696 83.2713 174.469 83.533C174.22 85.9076 175.209 88.1878 174.464 90.5121C174.003 90.5097 173.899 89.6006 173.776 89.2293C173.366 87.9998 173.21 86.7696 172.914 85.5324C172.829 85.1731 172.793 84.8045 172.336 84.7466C172.286 85.6702 171.393 86.6415 171.201 87.4161C170.93 88.506 171.888 90.4947 170.503 90.5198C170.379 90.9774 170.877 90.6932 171.113 91.0273C171.394 91.4243 171.475 92.2361 172.011 92.4733C172.239 92.5739 172.892 92.3568 173.667 92.6629C174.675 93.0614 180.513 97.4942 180.51 98.2589C179.089 100.512 174.879 101.995 175.063 104.926C175.187 106.886 176.452 111.527 176.994 113.652C178.274 118.669 179.933 124.817 183.31 128.766ZM170.201 96.5838L168.668 88.9983C168.127 88.9451 168.345 90.0238 168.371 90.3575C169.177 100.746 171.706 109.488 175.54 119.046C175.923 120.003 176.426 121.48 177.209 122.087C175.559 117.431 175.065 112.141 173.707 107.512C173.426 106.552 172.323 104.709 172.309 104.03C172.259 101.714 177.561 99.7421 177.185 98.31C177.025 97.7027 171.325 93.8919 170.958 92.3368C170.658 93.1238 170.865 94.0341 170.769 94.8778C170.728 95.2345 170.635 96.5413 170.201 96.5838ZM232.42 91.7313C230.849 92.1339 229.118 92.8333 227.64 93.4971C226.688 93.9242 224.979 95.1688 224.332 95.3671C222.825 95.8286 225.536 93.5424 224.949 93.2482C224.326 93.7393 220.463 95.6793 220.26 96.0233C219.864 96.6956 221.553 98.5436 221.989 99.2266C222.287 99.6933 222.896 101.349 222.994 101.42C224.387 102.432 227.927 96.8596 228.768 95.8342C229.927 94.4195 231.242 93.1249 232.42 91.7313ZM173.854 123.301C172.762 120.076 169.553 118.135 167.818 115.195C165.917 111.974 162.369 105.041 161.734 101.518C161.283 99.02 162.232 95.2225 159.449 99.7015C156.75 108.651 164.451 113.463 169.754 118.733C171.134 120.105 172.292 122.073 173.854 123.301ZM224.185 103.568C223.585 103.469 223.317 103.965 222.973 104.336C218.799 108.848 216.485 116.559 215.037 122.39C216.945 121.479 217.801 115.046 218.69 114.355C218.804 114.266 219.179 114.483 219.25 114.424C219.75 114.011 219.595 111.972 220.834 112.835C220.847 115.371 219.173 118.39 219.06 120.811C219.037 121.296 219.045 121.645 219.606 121.783L224.185 111.006V103.568ZM171.109 124.212C171.242 123.643 170.791 123.489 170.503 123.149C166.952 118.949 161.494 115.336 159.162 110.149C158.56 108.81 158.434 106.976 157.39 105.997C157.395 106.388 157.305 106.765 157.145 107.122C155.729 110.277 154.312 113.426 152.946 116.605C152.024 117.663 150.558 117.803 149.363 118.503C146.049 120.443 141.375 124.887 141.834 129.069C142.535 128.638 143.267 128.17 143.837 127.569C144.917 126.432 143.86 126.406 146.345 125.819C149.044 125.182 151.138 125.418 153.724 126.341L148.461 127.928C146.671 128.55 140.422 132.219 140.398 134.013C140.384 135.112 142.81 144.023 143.361 144.551C143.874 145.044 143.884 144.474 143.955 144.091C144.737 139.896 144.917 137.42 147.804 133.952C151.058 130.043 159.14 126.888 163.954 129.364L171.112 134.531L168.98 130.891L171.719 132.105L172.026 130.285L170.81 130.89C171.496 129.143 168.418 127.657 167.047 126.892C161.384 123.732 154.997 122.491 148.543 122.387L151.886 121.014C156.201 119.959 160.391 121.14 164.402 122.691C164.222 121.734 155.422 115.382 156.166 114.804C156.674 114.72 157.066 114.946 157.505 115.138C159.332 115.941 162.33 117.575 164.072 118.62C166.668 120.176 168.842 122.236 171.109 124.212ZM190.327 133.014C190.532 132.823 188.221 128.584 187.96 127.935C186.675 124.737 186.005 121.372 185.05 118.078C184.959 117.765 184.978 117.16 184.536 117.231C184.862 121.117 185.269 125.673 186.521 129.367C187.25 131.515 187.824 132.939 190.327 133.014ZM241.264 151.534C241.892 149.249 240.648 146.557 239.697 144.444C236.61 137.581 228.526 129.778 221.436 127.1C219.161 126.241 213.285 124.869 213.511 128.896C213.62 130.848 220.821 134.578 222.633 135.926C230.173 141.535 230.266 144.932 234.495 152.354C234.918 153.096 235.678 154.077 236.694 153.505L235.473 147.892C236.867 148.515 237.385 152.575 238.372 153.05C238.928 153.318 238.864 152.681 238.806 152.316C238.618 151.141 237.974 149.765 237.913 148.499C239.079 149.1 238.694 150.749 239.431 151.691L240.049 150.926L241.264 151.534ZM227.537 145.463C228.049 144.766 225.536 141.874 224.952 141.208C221.262 137.01 216.219 133.982 211.777 130.65C211.185 130.547 209.568 132.09 208.836 132.463C207.834 132.974 202.054 134.72 201.919 135.297C201.775 135.914 206.262 138.528 207.108 139.236C211.291 142.738 212.803 146.369 218.548 148.191C218.703 148.24 219.046 148.274 218.998 148.045C217.974 146.768 216.665 145.114 217.015 143.339C219.147 144.967 221.575 149.281 224.261 149.798C226.198 150.17 223.18 147.085 222.967 146.22C226.632 145.879 226.919 151.069 230.285 151.835L227.847 148.952L229.977 150.017C229.827 147.514 225.545 146.7 224.842 144.96C224.125 143.182 227.431 145.607 227.537 145.463ZM150.366 158.213C153.496 151.874 155.207 146.882 161.564 143.093C162.685 142.425 169.254 139.482 169.452 139.088C169.67 138.658 169.129 137.09 168.81 136.674C168.407 136.148 164.513 133.545 163.757 133.202C158.97 131.031 152.852 134.04 150.511 138.468C150.241 138.978 149.657 140.035 149.912 140.604C150.977 139.103 151.707 137.961 153.726 138.18C152.129 140.74 149.474 143.444 149.912 146.676C150.72 145.558 151.668 144.275 153.116 143.948C149.754 147.438 148.596 151.373 149.176 156.214C149.211 156.504 149.742 158.803 150.366 158.213ZM190.939 135.448C189.144 135.254 187.615 134.039 185.732 134.668C184.76 134.992 184.551 136.36 183.708 136.597C182.666 136.89 181.482 136.837 180.106 137.262C173.834 139.2 161.201 144.341 157.445 149.619C154.678 153.507 151.766 160.117 152.644 164.907C153.154 167.687 155.552 171.283 158.605 171.569C157.713 168.049 156.681 163.901 157.536 160.336C158.566 156.039 161.274 151.014 164.704 148.195C162.856 152.594 160.49 156.823 160.135 161.709C159.756 166.932 161.251 174.082 167.757 173.997C164.989 167.517 164.889 158.043 168.524 151.841C169.167 151.722 169.021 152.081 168.917 152.535C168.68 153.576 168.078 154.643 167.848 155.723C166.812 160.57 167.063 170.591 171.569 173.697C172.601 174.408 176.822 174.702 176.893 173.852C176.915 173.591 175.395 169.791 175.164 168.905C174.002 164.447 173.342 160.078 174.165 155.481C174.776 155.598 174.665 156.123 174.771 156.545C176.235 162.335 176.154 170.934 184.548 170.518L182.718 159.745C184.772 159.489 187.429 157.438 188.631 155.766C190.916 152.588 190.735 151.542 194.593 149.252C199.278 146.471 204.758 145.52 210.154 145.763C207.854 142.54 205.088 139.107 201.513 137.215C198.946 135.857 195.278 135.472 192.556 136.599C191.659 136.971 191.212 137.703 190.33 137.872L190.939 135.448ZM241.267 141.823C242.999 141.118 245.278 141.367 246.928 140.625C248.117 140.09 249.304 138.97 247.501 138.498C244.547 137.726 240.835 138.321 237.914 137.266C238.682 139.136 240.285 140.579 241.113 142.427C242.179 144.804 242.56 147.526 243.247 150.015C243.705 149.317 244.172 148.359 244.475 147.585C244.924 146.439 244.05 146.182 246.148 146.371C245.423 145.525 246.827 145.7 247.21 144.851C247.38 144.474 247.482 142.845 247.367 142.73C246.766 142.131 241.355 144.368 241.267 141.823ZM143.963 150.32C143.031 149.434 142.63 148.257 141.534 147.428C136.297 143.471 121.649 148.62 123.608 156.77C127.414 167.091 131.711 182.746 140.465 189.779C141.038 190.24 141.707 190.555 142.29 190.999C142.544 181.022 131.652 175.181 128.108 166.714C129.574 168 130.333 169.929 132.067 170.964C131.211 168.135 127.779 161.892 128.555 159.119C128.664 158.729 128.647 158.388 129.169 158.519L132.534 164.887L132.831 163.983L136.947 167.928L133.597 162.31L134.812 162.767L134.207 161.399C134.14 161.191 134.525 161.178 134.66 161.251C135.15 161.514 137.075 164.49 137.709 165.2C141.604 169.555 145.059 172.255 150.037 175.092C153.1 176.837 155.065 179.655 157.383 182.197C156.071 178.887 153.55 175.404 150.82 173.098C145.023 168.204 138.943 163.533 134.049 157.61C133.679 157.162 132.357 155.448 132.384 155.022C132.397 154.822 132.913 154.414 133.184 154.821C137.139 157.508 140.484 161.39 145.186 162.764C143.195 158.385 138.409 156.086 136.037 151.988C136.361 151.585 137.062 151.938 137.432 152.118C140.583 153.656 143.785 157.73 147.013 159.428C147.2 157.482 145.281 156.377 143.967 155.328C144.51 154.78 147.601 157.544 146.949 155.7C146.445 154.273 143.667 152.97 143.353 151.082C144.137 151.195 146.022 153.646 146.559 153.654C146.831 153.658 147.082 153.062 146.969 152.649C146.729 151.765 144.157 150.516 144.267 149.108L143.963 150.32ZM197.343 154.874V159.124L198.256 158.822L198.567 165.803L199.475 164.894C199.869 167.606 200.167 170.264 201.313 172.783C201.84 172.785 201.648 171.454 201.628 171.101C201.574 170.119 201.273 169.214 201.312 168.232C201.386 168.131 201.685 168.41 201.768 168.534C202.767 170.02 203.087 174.516 204.097 176.841C205.239 179.467 207.219 181.591 209.088 183.713C209.436 183.529 209.187 182.799 209.103 182.484C207.929 178.06 205.522 173.273 204.448 168.902C204.066 167.35 203.805 165.835 204.362 164.286C208.49 166.922 210.438 171.598 213.079 175.491C213.606 176.269 216.647 180.321 217.17 180.536C218.037 180.892 218.371 178.038 218.357 177.523C218.259 173.822 213.091 166.016 210.891 162.793C209.068 160.124 206.794 157.724 205.274 154.877L218.548 168.228C219.323 168.291 218.888 168.12 218.769 167.703C218.124 165.448 216.652 161.674 215.71 159.515C214.899 157.657 212.443 155.721 211.679 153.663C212.526 152.893 219.447 159.905 220.228 160.786C222.255 163.073 223.724 165.742 225.864 167.927C226.217 167.607 225.974 166.812 225.877 166.396C224.693 161.325 220.282 157.003 217.475 152.752C218.058 152.231 222.554 156.997 223.122 157.602C225.664 160.316 227.84 163.443 230.439 166.105C230.875 165.313 230.346 164.259 230.033 163.474C229.055 161.024 223.147 152.992 220.945 151.875C213.466 148.08 199.07 145.446 194.123 154.249C189.067 163.248 187.096 178.384 189.871 188.268C191.419 193.78 194.829 199.644 199.633 202.839C199.661 201.792 198.546 200.735 198.163 199.807C194.747 191.535 191.297 180.121 191.856 171.119C192.17 166.064 193.381 159.472 196.477 155.378C196.74 155.03 196.799 154.762 197.343 154.874ZM298.607 155.484L283.969 152.448C284.425 153.621 283.789 154.929 285.222 155.283L295.797 157.856C296.468 158.098 298.983 155.983 298.607 155.484ZM234.557 162.769C236.324 163.005 237.386 166.985 239.435 165.965C241.507 164.933 238.683 161.119 237.762 160.031C234.085 155.693 228.532 153.464 222.965 152.752C224.988 154.798 227.328 156.644 229.222 158.816C231.268 161.163 232.673 164.026 235.014 166.105C235.567 165.5 234.257 163.088 234.557 162.769ZM249.501 161.85L241.746 155.762L239.742 155.483C239.519 156.799 240.93 157.039 241.568 157.761C242.725 159.071 243.606 160.754 244.933 161.964C245.033 162.055 245.421 161.873 245.482 161.929C245.974 162.383 246.944 165.368 247.841 166.393C248.053 166.635 250.118 168.471 250.268 168.533C251.048 168.858 250.722 166.649 250.652 166.327C250.34 164.884 247.392 162.241 249.501 161.85ZM239.94 157.712C239.587 157.385 237.568 156.219 237.142 156.093C236.756 155.979 236.529 156.167 236.693 156.54C236.934 157.088 238.846 158.891 239.384 159.631C240.057 160.558 240.891 161.763 241.424 162.762C241.999 163.84 242.229 165.129 242.719 166.024C242.912 166.377 242.709 166.535 243.396 166.409C243.414 166.047 243.671 165.717 243.661 165.351C243.633 164.291 240.796 158.505 239.94 157.712ZM294.948 164.895C294.324 165.62 298.896 166.426 299.373 166.434C300.256 166.448 305.441 165.482 305.937 165.047C306.577 164.487 305.325 162.916 304.872 162.453C302.782 160.316 300.61 160.49 298.049 159.833C293.401 158.64 288.769 157.391 284.143 156.124C283.847 157.027 281.159 160.669 281.551 161.223C281.822 161.606 284.741 162.157 285.279 162.455C285.659 162.664 285.305 163.263 286.223 163.712C288.14 164.649 289.399 163.921 291.119 163.971C292.473 164.011 294.135 164.678 295.557 164.592C295.678 165.144 295.044 164.783 294.948 164.895ZM312.638 161.859C312.7 163.614 311.362 163.996 310.653 164.907C309.285 166.666 313.007 172.476 316.022 169.929C317.912 168.334 316.553 161.215 314.789 159.565C312.26 157.197 302.701 155.76 299.834 158.365C300.87 160.097 302.122 159.694 303.504 160.172C305.832 160.976 307.835 162.745 309.742 164.275L312.638 161.859ZM255.6 166.409C255.315 164.238 253.52 162.093 251.331 161.556L252.7 163.681L255.6 166.409ZM284.578 163.678H279.85C279.806 163.678 279.168 163.988 279.089 164.132C279.691 165.538 283.129 164.945 284.187 164.357C284.537 164.163 284.703 164.376 284.578 163.678ZM286.712 165.807C283.464 164.902 280.156 166.916 276.952 167.324L278.781 167.931L277.258 169.139C277.824 169.246 278.316 169.48 278.918 169.459C280.125 169.417 284.743 167.37 285.906 166.67C286.106 166.55 286.836 165.974 286.712 165.807ZM277.562 166.71C276.543 165.324 273.316 166.56 272.377 167.622C274.257 168.03 275.846 167.348 277.562 166.71ZM306.794 167.069C302.869 166.906 299.128 167.9 295.255 166.715C294.975 167.005 296.759 170.211 297.012 170.883C298.289 174.266 298.592 177.209 298.315 180.843C298.236 181.885 297.589 185.484 297.108 186.244C296.584 187.073 292.186 187.979 291.047 188.18C288.623 188.608 282.287 189.855 281.817 186.311C281.256 182.08 282.797 177.009 279.831 173.092C275.937 176.045 271.496 176.136 267.026 177.332C269.715 181.879 269.949 189.247 265.375 192.684C264.217 193.554 261.255 194.458 260.479 195.097C259.607 195.815 260.464 201.33 260.494 202.676C260.585 206.767 260.587 211.06 260.496 215.15C260.471 216.26 259.651 218.513 260.605 219.264C261.357 219.856 263.407 219.376 264.531 219.606C264.977 219.696 268.714 221.159 269.13 221.404C271.31 222.687 271.412 226.529 271.807 226.783C272.607 227.298 281.168 224.937 282.675 224.474C289.418 222.404 298.027 219.632 304.569 217.122C305.192 216.883 306.593 216.334 306.986 215.885C307.939 214.797 308.196 210.918 309.116 209.2C309.87 207.791 312.204 205.863 312.565 204.436C313.052 202.509 311.559 199.647 314.774 199.808L314.92 200.711C316.705 199.926 315.951 196.36 315.981 194.48C315.993 193.759 316.312 193.104 316.311 192.381C316.309 191.209 315.68 189.611 315.993 188.27C315.655 187.885 314.06 189.629 313.667 189.706C313.357 189.767 312.899 189.452 312.558 189.549C310.964 190.003 309.452 191.07 307.759 191.301C308.717 189.837 312.922 189.412 312.96 187.525L311.593 176.104C311.487 175.391 310.386 175.187 310.228 174.707C310.014 174.056 310.772 173.06 310.452 172.537C310.382 172.423 309.828 172.328 309.591 172.038C308.249 170.396 307.394 169.158 306.794 167.069ZM284.274 173.088C284.168 172.338 284.877 172.162 285.405 171.94C287.087 171.232 293.112 170.117 294.043 169.297C295.235 168.246 292.575 166.922 291.174 167.045C289.889 167.158 282.743 169.427 282.275 170.359C282.027 170.852 283.466 175.56 283.627 176.617C283.941 178.685 283.884 180.598 283.968 182.655C283.983 183.024 283.737 183.784 284.27 183.713C284.619 182.474 284.1 180.097 285.195 179.594L284.403 174.604C285.005 173.628 293.204 172.864 294.646 171.723C294.627 170.93 285.107 173.05 284.274 173.088ZM224.487 172.178L222.916 169.039L221.443 167.625L223.577 171.418L224.487 172.178ZM273.597 168.235C272.695 168.238 271.196 167.572 270.549 168.532C271.472 168.76 273.03 169.343 273.597 168.235ZM254.381 173.693C259.023 173.95 263.957 175.847 268.56 175.513C270.158 175.397 277.637 174.238 277.791 172.336C277.518 171.293 276.66 171.083 275.737 170.808C270.039 169.111 262.416 170.084 256.887 172.092C256.003 172.413 254.916 172.878 254.381 173.693ZM247.365 172.782C246.048 170.971 241.625 172.584 239.801 173.316C239.341 173.501 238.975 173.138 239.132 173.999L247.365 172.782ZM285.34 185.536C286.616 185.714 288.539 185.536 289.916 185.536C290.303 185.536 293.157 184.877 293.642 184.691C294.003 184.552 294.527 184.283 294.801 184.023C296.365 182.544 295.891 175.896 295.556 173.696L294.033 173.997L294.945 172.482C293.811 173.301 292.718 174.321 291.29 174.611C291.218 175.174 291.905 174.838 292.22 174.778C293.222 174.586 294.153 174.111 295.255 174.302C295.174 175.086 295.422 176.088 295.193 176.823C295.047 177.294 294.395 177.472 294.36 178.074C294.325 178.679 294.703 179.489 294.622 180.514C294.601 180.776 294.143 182.632 293.731 182.201C293.59 182.723 294.66 182.275 294.336 182.952C293.646 184.392 286.271 184.397 284.579 184.932C284.468 185.238 285.216 185.519 285.34 185.536ZM315.075 174.608C314.792 174.422 314.298 174.654 314.014 174.913C312.24 176.529 314.161 185.074 313.556 187.66C314.948 187.65 315.921 187.164 315.971 185.662C316.059 183.021 315.635 178.731 315.386 175.969C315.367 175.755 315.133 174.647 315.075 174.608ZM160.74 174.912C159.494 175.105 158.572 175.877 158.591 177.169C158.63 179.731 159.689 184.728 160.227 187.415C160.852 190.534 163.588 197.871 163.5 200.253C163.396 203.054 159.12 201.441 159.258 202.939C159.46 205.137 165.379 209.256 166.691 211.34L166.078 208.914C166.218 209.387 167.375 209.781 167.425 209.855C167.467 209.916 167.126 210.542 167.126 210.891C167.123 212.454 169.567 212.783 170.658 213.463C170.613 212.406 170.078 210.289 169.656 209.299C169.147 208.105 165.964 204.292 169.279 206.787C169.122 205.571 167.947 204.504 169.584 203.752C169.682 205.442 170.691 207.155 172.33 207.702L170.2 207.846L173.246 210.584L171.114 210.277C171.532 210.749 174.046 212.894 174.467 212.552C173.396 211.634 173.973 210.95 173.783 210.077C173.584 209.161 173.188 208.247 173.023 207.465C172.757 206.202 173.486 204.018 171.417 204.963C172.839 204.219 170.865 202.494 170.347 202.543C170 202.575 169.987 203.81 169.582 203.292C169.807 202.789 170.754 200.008 170.884 199.879C171.039 199.723 171.621 199.747 172.038 199.365C172.831 198.64 174.351 196.031 174.769 194.948C173.525 196.17 171.416 197.46 171.109 199.196L169.952 197.835L177.514 188.269C173.934 191.207 171.496 195.176 167.298 197.375L167.149 196.925C169.633 193.664 172.432 190.597 174.893 187.326C175.5 186.52 176.366 185.614 176.599 184.626L166.85 195.107C165.238 196.62 165.149 195.616 166.16 194.117C167.598 191.986 169.747 190.175 171.112 187.968C170.405 187.349 166.06 193.069 164.853 193.425C164.444 193.546 164.286 193.388 164.406 192.98C164.578 192.4 167.824 188.767 168.515 187.961C169.207 187.155 170.111 186.497 170.799 185.68L173.549 181.893C171.623 183.79 169.842 185.762 167.761 187.514C167.271 187.926 163.492 191.024 163.183 190.696L164.094 184.626C164.01 184.513 162.613 185.493 162.413 185.538C162.234 185.578 162.397 184.583 161.659 185.234C161.215 185.023 161.504 178.755 161.376 177.774C161.302 177.212 160.806 177.376 160.748 177.131C160.596 176.482 160.832 175.606 160.74 174.912ZM260.482 178.86C259.847 180.052 257.513 181.311 257.433 182.675C257.387 183.448 258.679 186.032 258.878 187.285C259.057 188.418 258.774 192.763 260.368 193.068C261.149 193.217 263.481 191.72 264.145 191.156C268.441 187.502 268.301 178.703 262.61 176.587C257.218 174.583 244.983 174.864 239.502 176.647C237.378 177.338 235.357 178.312 239.057 178.78C242.917 179.268 246.639 178.513 250.675 179.359C252.172 179.673 255.346 181.23 256.498 180.829C257.609 180.442 258.806 178.452 260.482 178.86ZM163.79 176.127C162.419 175.851 162.388 179.841 162.573 180.07C163.282 180.26 163.083 179.904 163.271 179.686C163.779 179.095 164.142 178.347 164.703 177.79L163.794 177.642L163.79 176.127ZM163.793 181.588C164.204 182.028 166.464 178.808 166.229 178.554C165.573 178.657 163.287 181.045 163.793 181.588ZM165.013 184.017C165.65 184.156 165.705 183.689 165.994 183.326C166.753 182.376 167.705 180.944 168.059 179.768C167.224 179.96 164.631 183.618 165.013 184.017ZM172.027 180.378C171.455 180.246 171.301 180.695 170.959 180.982C169.666 182.064 165.946 185.813 165.294 187.183C165.066 187.661 164.931 188.027 165.015 188.572C167.789 186.266 169.5 182.944 172.027 180.378ZM257.664 195.627C257.282 195.246 253.981 195.078 252.782 194.566C248.734 192.839 246.186 187.721 245.829 183.548C245.765 182.792 246.62 181.168 245.333 180.728C244.443 180.424 238.548 180.622 237.153 180.684C235.804 180.745 234.228 180.902 232.91 181.011C231.127 181.158 228.114 181.225 226.54 181.657C224.985 182.084 222.361 185.655 221.142 186.91C219.193 188.916 216.074 190.581 215.953 193.733C217.611 192.586 218.244 190.458 219.596 189.014C220.772 187.758 225.121 183.921 226.518 183.153C226.842 182.974 227.555 182.544 227.844 182.954L225.711 185.386C225.663 185.611 226.03 185.593 226.163 185.534C226.855 185.227 228.49 183.31 229.763 182.74C230.144 182.569 231.125 182.154 230.891 182.95C230.38 184.684 222.736 190.763 221.136 192.975C220.748 193.512 219.959 194.589 220.375 195.254C225.259 191.226 228.748 185.774 233.794 181.895L233.943 182.345L220.569 196.963C219.662 198.932 220.584 199.263 222.047 197.983L221.443 199.501C221.519 199.59 222.313 199.024 222.48 198.867C225.465 196.042 228.493 191.573 231.497 188.412C233.016 186.815 235.037 184.635 236.688 183.257C236.93 183.055 237.299 182.46 237.604 182.954C235.033 185.96 232.414 188.918 229.832 191.916C226.396 195.905 221.202 199.96 222.051 205.875L223.267 204.966L223.723 206.177L236.08 193.736C233.379 197.322 230.085 200.445 227.243 203.911C225.047 206.589 221.299 209.843 223.732 213.465C224.149 213.557 224.532 212.974 224.788 212.7C227.521 209.769 230.083 205.479 232.874 202.229C233.698 201.27 234.786 200.457 235.627 199.505C238.624 196.112 241.407 192.536 244.775 189.484L244.923 189.934C241.84 193.714 238.312 197.152 235.174 200.876C232.138 204.478 227.112 210.082 224.85 213.976C223.084 217.015 224.475 219.29 224.799 222.573C231.58 213.369 239.744 205.394 247.358 196.913C247.476 196.782 248.113 195.977 248.284 196.317C242.347 204.525 234.286 211.053 228.158 219.091C226.825 220.84 225.108 222.639 225.102 225.001C225.687 225.1 225.98 224.609 226.313 224.236C228.03 222.316 229.505 219.4 231.349 217.409C231.777 216.948 232.335 216.179 233.03 216.201C233.437 216.593 227.065 224.098 226.687 225.53C226.533 226.115 226.556 226.474 227.102 226.818L228.056 226.421C235.536 215.98 245.083 207.236 253.62 197.681C254.133 198 253.484 198.345 253.313 198.59C252.69 199.483 251.889 200.494 251.183 201.327C245.254 208.321 238.428 214.623 232.733 221.822C232.272 222.405 228.846 226.671 229.372 227.126C230.208 226.926 232.036 227.783 232.678 227.381C232.78 227.318 233.417 225.655 233.701 225.215C236.198 221.343 239.811 217.762 242.945 214.378C243.458 214.703 242.818 215.044 242.634 215.284C241.395 216.896 233.045 226.542 233.771 227.747C237.3 229.22 241.444 229.188 245.241 229.739C246.216 229.429 247.847 225.569 248.765 224.422C251.031 221.589 254.524 220.44 257.765 219.111C258.015 218.783 258.263 216.624 258.314 216.013C258.742 210.897 258.441 206.002 258.045 200.864C257.955 199.696 258.347 196.307 257.664 195.627ZM249.129 181.043C247.599 181.245 247.559 181.869 247.667 183.258C248.1 188.866 258.124 198.73 257.123 188.119C256.746 184.12 253.406 180.476 249.129 181.043ZM190.02 195.858L188.106 190.935L186.366 184.627C186.439 185.736 185.82 186.744 185.749 187.822C185.565 190.636 188.132 193.917 190.02 195.858ZM151.287 197.07C151.512 196.484 151.785 196.223 151.069 195.922C149.414 195.228 146.182 196.037 144.123 195.853C138.278 195.333 133.763 190.967 130.243 186.751C131.471 189.449 129.35 196.786 130.525 198.762C131.052 199.648 135.97 201.305 137.18 201.55C140.562 202.232 144.016 202.378 147.319 201.319L143.358 200.712L146.404 200.112C142.491 199.081 137.986 198.4 135.425 194.95C137.9 195.264 139.693 197.657 142.138 198.436C144.087 199.057 149.646 199.904 151.782 200.073C152.786 200.152 154.516 200.291 154.64 198.896C153.001 199.148 153.631 198.636 153.187 197.774C152.662 196.752 152.35 196.71 151.287 197.07ZM183.311 191.306C182.745 191.173 182.72 191.497 182.448 191.81C181.921 192.416 179.15 197.002 178.901 197.699C177.882 200.559 182.501 203.593 184.634 204.713C188.559 206.774 197.981 209.429 202.383 209.818C202.712 209.847 203.802 210.06 203.747 209.523C197.378 207.593 190.308 205.642 185.143 201.326C186.702 201.674 187.887 202.767 189.333 203.375C195.719 206.063 203.629 206.5 210.458 206.177C210.469 205.723 209.372 205.733 208.993 205.667C199.593 204.02 185.697 202.463 183.311 191.306ZM217.776 194.038C215.533 194.469 215.235 198.534 215.647 200.21C215.705 200.447 216.27 200.419 216.272 200.572C216.276 201.006 215.779 201.391 215.728 201.813C215.594 202.94 216.391 204.927 216.256 206.179C216.723 206.729 219.131 202.872 218.691 202.233L217.472 202.686C217.991 201.334 219.057 200.53 218.693 198.896L216.561 200.107C217.413 198.263 218.412 196.096 217.776 194.038ZM156.854 198.529C156.694 198.246 158.343 195.296 157.688 194.34C155.926 194.937 154.837 196.963 156.037 198.582C156.237 198.852 156.724 198.863 156.761 198.913C156.931 199.145 155.802 200.315 156.474 201.019C157.23 201.014 157.821 200.474 158.295 199.957C158.106 199.452 157.126 199.552 157.077 199.499C157.012 199.429 157.402 198.97 157.393 198.768C157.383 198.548 156.895 198.601 156.854 198.529ZM174.864 201.234C174.549 200.787 174.582 199.008 173.709 199.199C173.323 199.283 171.659 201.452 172.173 202.241C172.769 203.157 174.043 201.272 174.467 201.629C173.313 203.015 173.963 204.807 175.839 204.664C176.17 204.638 175.251 203.845 176.137 204.061C176.654 204.187 177.582 204.958 177.671 204.96C177.874 204.964 178.223 204.517 177.981 204.05C177.523 203.165 175.296 201.847 174.864 201.234ZM316.603 201.021C315.024 201.069 313.57 201.285 314.486 203.133C315.741 203.188 316.85 202.38 316.603 201.021ZM219.914 218.023C218.18 218.932 221.219 225.912 221.897 225.907C222.243 225.905 222.665 224.988 222.676 224.562C222.748 221.815 221.668 218.864 221.207 216.278C220.979 214.995 220.984 213.5 220.747 212.182C220.268 209.525 219.214 207.255 219.459 204.36C216.142 206.671 217.009 209.108 217.783 212.553L218.997 211.341C218.447 212.749 217.291 214.002 218.232 215.597C218.865 216.67 219.629 213.396 220.525 213.773C220.765 214.013 218.672 217.229 218.703 217.568C218.732 217.879 219.582 218.062 219.914 218.023ZM177.309 214.496C178.249 213.821 179.518 213.706 179.349 212.129C179.296 211.633 178.465 209.199 178.191 208.698C177.535 207.502 176.109 206.852 175.536 205.574C174.463 205.947 174.862 207.828 175.469 208.241C175.699 208.398 176.857 208.198 176.292 208.909C176.26 208.95 175.867 208.842 175.75 208.968C175.347 209.405 176.406 211.364 176.513 211.89C176.686 212.746 176.522 214.031 176.911 214.982C177.377 215.108 177.137 214.621 177.309 214.496ZM315.994 214.225C316.286 213.186 315.782 211.021 315.994 209.823C316.509 209.823 316.582 210.838 316.605 211.187C316.676 212.245 316.563 213.067 316.302 214.073C319.13 213.525 317.117 205.994 315.793 205.6C314.339 205.167 311.703 209.505 311.152 210.62C310.723 211.487 309.276 215.307 309.296 216.076C309.305 216.443 309.462 216.612 309.765 216.781C311.053 216.391 315.613 215.582 315.994 214.225ZM178.897 205.875C177.839 206.067 179.481 207.986 179.81 208.3C180.462 208.922 182.213 209.973 183.07 210.221C183.435 210.326 184.255 210.499 184.222 209.975C184.193 209.525 179.371 205.789 178.897 205.875ZM214.118 207.092C213.599 206.559 211.088 209.973 210.772 210.287C209.396 211.655 205.804 213.588 207.87 215.286L213.337 208.893L214.118 207.092ZM160.041 209.553C158.272 210.02 160.618 212.33 161.16 212.233C162.76 211.947 161.213 209.243 160.041 209.553ZM184.532 210.735C183.762 211.201 181.628 210.196 181.484 210.26C180.925 210.506 180.732 213.634 181.016 214.084C181.272 214.488 181.444 214.355 181.809 214.252C182.544 214.045 185.161 211.336 184.532 210.735ZM209.851 218.018C209.424 217.608 214.244 212.807 214.564 211.935C214.813 211.258 214.931 210.624 214.267 210.13L210.162 214.537C206.87 215.811 208.943 217.768 210.307 219.836C211.077 219.267 211.439 218.34 212.122 217.702C212.692 217.17 214.999 215.677 215.19 215.291C215.353 214.961 215.664 213.147 214.886 213.469C214.113 213.857 210.631 218.768 209.851 218.018ZM153.729 211.944C155.02 212.463 156.395 212.81 157.692 213.314C157.922 213.404 160.777 215.33 160.736 213.922C160.73 213.717 158.326 210.861 158.092 210.791C157.631 210.651 155.939 210.632 155.462 210.739C155.206 210.797 155.218 211.254 155.043 211.341C154.571 211.576 153.741 211.445 153.729 211.944ZM171.725 211.948C171.37 212.793 173.436 215.101 174.005 214.983C175.645 214.642 172.5 211.949 171.725 211.948ZM148.739 216.609C146.224 213.969 140.913 211.544 137.257 212.559L141.619 214.74C142.672 215.496 143.872 216.134 144.85 216.989C146.388 218.334 147.502 221.245 149.469 220.619C151.656 219.923 149.751 217.671 148.739 216.609ZM157.081 214.984H151.896C151.857 215.618 153.48 217.598 153.874 217.63C154.367 217.67 157.651 215.472 157.081 214.984ZM131.462 218.016C135.361 219.281 139.127 221.141 142.027 224.06C143.035 223.143 146.62 222.541 145.509 220.89C143.498 217.902 137.898 215.44 134.357 215.35L131.767 215.892C134.023 216.315 136.952 217.191 138.988 218.269C140.242 218.932 141.563 219.731 141.219 221.358C138.285 220.493 136.019 218.121 132.833 217.715C132.534 217.677 131.397 217.493 131.462 218.016ZM211.071 221.661C211.646 221.794 211.793 221.337 212.137 221.056C212.968 220.378 216.424 217.269 215.641 216.198C214.597 216.555 210.256 220.741 211.071 221.661ZM158.3 216.807C157.532 216.905 153.855 218.533 154.644 219.538C155.837 218.866 157.804 218.259 158.3 216.807ZM196.123 220.446C195.335 219.046 193.99 218.541 192.465 218.325C192.334 218.931 193.7 219.717 194.08 219.904C194.756 220.237 195.318 220.562 196.123 220.446ZM187.125 218.627C185.325 218.231 182.226 218.919 180.263 218.627C180.112 219.489 180.467 219.126 180.933 219.312C185.454 221.109 188.795 221.965 192.614 225.308C193.056 225.696 194.652 228.361 195.181 226.629C195.579 225.325 192.711 222.23 191.648 221.411C191.193 221.06 187.385 218.684 187.125 218.627ZM214.119 221.663C213.27 221.495 212.195 222.559 212.337 223.289C212.435 223.794 215.344 226.473 215.948 225.912C215.722 224.319 214.11 223.306 214.119 221.663C214.703 221.778 214.825 222.757 215.956 221.517C216.766 220.629 216.884 219.74 216.556 218.627C215.632 219.431 214.127 220.357 214.119 221.663ZM202.53 222.572C204.119 221.967 205.853 220.23 203.901 218.936C202.696 219.82 202.409 221.137 202.53 222.572ZM133.595 226.517C134.586 226.045 135.418 226.807 136.098 226.772C136.499 226.751 138.407 226.181 138.439 225.767C138.504 224.903 133.658 219.613 132.072 220.599L133.289 222.269C130.78 221.337 121.146 219.044 120.533 223.09C120.216 225.185 122.412 222.716 122.919 223.183C122.378 224.802 123.152 225.923 124.746 224.697C124.852 227.378 126.88 223.971 126.889 226.522L128.258 225.616C128.804 225.823 128.369 226.496 128.409 226.517C128.871 226.768 129.624 225.799 130.075 225.916C130.529 226.033 130.194 227.609 132.35 226.343C132.938 225.997 133.253 225.272 133.897 225.002L133.595 226.517ZM165.012 221.666L158.995 225.238C156.201 226.436 152.49 226.603 149.762 227.583C146.665 228.695 145.912 230.413 141.673 230.766C136.852 231.168 122.562 230.82 119.269 227.27C118.787 226.75 117.259 223.911 117.422 226.069C117.953 233.136 133.747 232.748 138.625 232.285C144.612 231.717 146.052 230.106 151.129 228.337C155.882 226.681 162.172 226.531 165.012 221.666ZM257.026 221.707C256.49 221.76 255.25 222.921 254.593 223.24C253.904 223.575 253.118 223.591 252.335 224.028C251.432 224.532 248.483 228.257 248.335 229.165C247.775 232.585 256.659 234.18 257.766 232.773C257.978 232.504 258.296 229.918 258.316 229.372C258.34 228.724 258.007 228.049 258.014 227.28C258.022 226.417 258.917 221.519 257.026 221.707ZM260.372 221.705C259.304 222.06 260.16 224.237 260.189 225.142C260.284 228.133 260.152 231.15 259.999 234.129C260.85 235.281 267.633 232.884 268.694 231.81C270.746 229.731 269.317 223.934 266.798 222.51C265.473 221.76 261.727 221.255 260.372 221.705ZM174.47 222.57C178.15 223.865 181.923 225.346 185.116 227.61C185.747 228.057 188.138 230.357 188.409 230.426C189.231 230.636 191.23 229.106 191.848 228.494C187.992 225.087 181.162 221.487 175.875 222.004C175.568 222.034 174.441 222.124 174.47 222.57ZM218.081 225.61C218.339 224.968 217.539 222.391 216.716 222.575C215.441 222.861 216.907 225.619 218.081 225.61ZM199.478 224.702C198.99 224.845 195.894 225.613 196.735 226.519C196.982 226.784 199.373 225.248 199.478 224.702ZM171.721 226.518C174.671 226.836 177.549 228.941 179.924 230.652C181.501 231.787 183.105 234.253 184.955 233.474C187.695 232.319 186.536 231.514 184.812 230.341C181.905 228.365 177.568 226.07 174.024 225.899C173.708 225.884 170.771 225.759 171.721 226.518ZM179.946 235.005C181.19 233.296 174.253 229.566 172.93 229.113C170.757 228.37 165.244 227.405 163.102 227.808C161.371 228.133 158.852 229.958 157.998 231.531C159.112 231.73 160.192 231.059 161.044 230.467C161.544 230.976 158.66 232.569 159.983 232.894C161.242 233.204 161.973 231.442 163.182 231.381C162.799 232.051 162.447 232.686 162.573 233.501L164.707 232.595L164.549 233.802L166.534 232.592C166.68 233.201 165.926 233.419 165.918 233.96C165.897 235.303 170.773 236.024 171.72 235.018C171.822 235.149 171.519 235.881 171.889 235.952C172.965 236.158 179.402 235.753 179.946 235.005ZM207.102 229.254L198.417 232.901C194.35 232.984 192.054 235.94 188.82 237.618C183.164 240.553 169.553 239.956 163.424 238.271C161.366 237.705 159.514 236.304 157.975 234.884C157.466 234.415 157.412 233.349 156.775 233.959C156.089 238.399 160.154 239.938 163.776 240.653C176.755 243.213 186.617 240.978 197.502 233.811L197.647 234.407C201.035 235.143 207.187 233.46 207.102 229.254ZM222.658 232.595C219.547 232.637 216.488 231.264 213.529 232.763L211.681 234.714C214.925 234.096 218.643 233.889 221.811 233.111C222.118 233.036 222.73 233.025 222.658 232.595Z" fill="var(--fill-0, black)"/>
<path id="Vector_2" d="M60.5441 187.358C60.7999 187.325 61.2078 186.947 61.6098 187.051L61.6116 186.751H56.2738C56.1847 186.751 54.5781 186.428 54.5977 186.146C56.1673 185.637 65.982 186.201 66.209 185.355C66.4655 184.399 65.4152 182.963 65.5643 181.906L55.2079 181.588L55.6565 180.983C58.5007 180.983 61.6939 181.631 64.5238 181.301C64.9453 181.251 65.3942 181.294 65.5535 180.787L62.221 161.696C61.7444 158.718 66.0466 157.7 68.3184 157.147C74.2717 155.699 80.6302 155.499 86.6795 156.487C89.5278 156.953 95.3186 157.786 95.4078 161.4C94.7126 169.719 93.5394 177.993 92.7259 186.298C92.351 190.125 93.7075 193.461 88.8932 194.93C84.2128 196.359 75.174 196.219 70.5234 194.73C67.4382 193.741 67.1093 192.81 63.3215 193.158C61.1912 193.353 58.0754 194.395 55.9439 194.318C55.5874 194.305 55.257 194.104 55.2063 193.736C56.6278 193.555 58.5694 193.647 59.9165 193.412C61.9457 193.058 61.8706 192.906 64.1837 192.806C64.3578 192.798 66.4068 192.293 66.4941 192.212C66.5729 192.139 65.8709 190.651 66.1855 190.09C65.1913 189.749 66.0041 190.987 65.4292 190.991C65.2732 190.992 64.7471 190.613 64.201 190.657C63.6984 190.697 63.0959 191.001 62.9842 191.001H56.1213L61.6097 190.093C60.7331 189.951 59.9252 189.738 59.0139 189.763C58.2274 189.784 53.8868 190.034 53.5784 190.14C53.2116 190.265 52.5624 191.463 52.0034 191.911C45.8099 196.877 26.8952 196.619 19.0779 195.848L8.23543 197.677C8.51412 197.199 9.74545 197.011 10.3027 196.855C14.3598 195.716 18.6617 194.651 22.8731 194.339C23.0485 193.64 22.7415 193.84 22.4897 193.644C21.8284 193.132 19.6149 192.345 19.5199 192.211C19.3217 191.93 19.979 191.404 20.007 191.152C20.0471 190.793 19.5445 189.989 19.5171 189.331C18.9879 176.618 18.4299 163.492 18.5946 150.792C18.7005 142.629 26.2836 139.448 27.6826 133.399C28.2532 130.932 28.7889 117.243 28.0753 115.241C27.639 114.017 26.0997 113.052 26.7551 111.548C26.9229 111.163 27.4116 110.888 27.5564 110.553C28.3161 108.797 25.6478 107.399 26.6935 105.09C27.5933 103.104 35.5591 103.107 37.5829 103.349C39.2537 103.549 41.2905 104.083 41.6688 105.988C41.9058 107.181 40.9517 108.06 40.9893 108.886C41.0152 109.455 41.8615 110.067 42.0255 110.765C42.6689 113.504 40.5797 114.199 40.5475 115.543C41.8183 121.123 40.8581 128.299 42.168 133.698C42.8142 136.361 46.0234 138.219 47.7372 140.298C53.9579 147.844 52.8162 164.437 52.7516 173.834C52.723 178.004 52.8712 182.141 53.066 186.3C52.9702 186.79 54.1485 187.358 54.4437 187.358C56.283 187.358 58.8219 187.58 60.5441 187.358ZM37.209 108.729C36.8412 106.824 38.1501 106.756 39.3394 105.845C39.0906 105.55 38.8774 105.313 38.5019 105.167C37.0878 104.614 30.4767 104.511 29.1968 105.155C27.4949 106.011 28.8205 106.72 30.061 106.89C31.9121 107.145 36.4466 105.654 36.5937 108.297C36.7627 111.332 30.6318 111.166 28.6718 111.768C28.6097 112.206 29.5033 112.234 29.8223 112.286C30.6254 112.418 31.7983 112.269 32.473 112.66C32.7081 112.797 32.3834 113.167 32.4857 113.286C32.9835 113.868 39.2925 114.144 39.331 111.895C39.37 109.619 36.9134 110.473 36.9115 109.792L39.3439 108.732L37.209 108.729ZM36.9054 132.257C36.6905 134.462 36.9054 137.256 36.9054 139.543C36.9054 140.306 35.9919 139.648 35.6883 139.391C36.4468 140.67 32.4811 143.459 32.9432 143.945C33.6087 143.83 36.5786 140.512 36.9039 140.91C36.5093 141.94 37.3764 142.096 37.4891 142.359C38.4093 144.503 37.0209 144.552 35.9904 146.067C36.138 146.193 38.979 144.306 38.4279 145.611C38.2575 146.014 35.3165 148.74 35.6869 149.104C36.6335 149.142 38.7838 145.933 38.929 147.623C38.9384 147.733 38.6118 148.082 38.7368 148.194C38.8668 148.31 41.3947 147.283 40.2613 150.014C41.1015 149.858 42.2347 149.884 43.0318 150.152C44.4167 150.616 43.4937 152.286 46.0528 149.713C45.5646 151.63 43.776 152.985 42.7008 154.568C43.0475 154.874 45.1586 152.655 45.4529 152.301C49.2265 147.76 48.3122 144.582 44.5217 140.463C43.4305 139.277 40.2248 137.176 39.853 136.002C39.1412 129.038 39.5046 122.039 38.4293 115.103C35.8029 115.355 33.0953 115.824 30.5015 115.408C30.3397 119.796 30.709 124.24 30.5126 128.626C30.4133 130.844 30.2393 134.925 29.2251 136.756C26.2355 142.153 21.0963 144.799 21.6413 152.004C21.8366 154.586 23.2344 154.18 23.8416 152.04C25.8826 144.848 24.7792 145.128 30.2038 139.552C32.0095 137.696 31.5031 134.511 31.4274 131.941C31.4035 131.129 31.0092 130.31 31.076 129.524C31.14 128.772 32.1161 129.071 32.3247 128C32.8402 125.355 31.0937 119.243 32.6312 117.377C32.8947 117.058 33.0919 116.834 33.5485 116.927C32.592 120.568 33.1232 123.954 33.3082 127.64C34.2829 129.561 35.9983 129.041 37.8203 129.072C37.3489 129.899 36.9977 131.309 36.9054 132.257ZM28.368 146.677C29.4332 145.893 30.585 144.573 31.1071 143.338C30.1498 144.234 28.4015 145.26 28.368 146.677ZM46.9739 154.874C48.6182 153.745 49.8013 153.161 49.1029 150.928C48.176 151.984 47.3722 153.532 46.9739 154.874ZM49.7144 177.034C49.6372 172.015 50.2005 167.025 50.0336 161.996C50.0098 161.279 49.7403 160.614 49.7034 159.896C49.6654 159.156 50.0163 154.561 49.2585 154.577C47.7877 154.607 49.0562 159.12 49.1187 159.871C49.5639 165.219 48.7617 171.169 49.1054 176.586L49.7144 177.034ZM21.6562 155.786C21.4553 156.885 21.9342 157.922 21.9722 158.96C22.1641 164.202 21.3075 171.051 21.9442 175.989C22.1542 177.618 23.6572 177.799 24.9993 178.109C30.0574 179.277 39.8289 179.199 44.9546 178.217C47.8553 177.661 46.3086 175.891 46.3425 173.534C46.3974 169.72 46.8831 165.864 46.6784 161.996C46.6268 161.021 46.357 157.202 45.7543 156.84C37.7135 157.208 29.4998 157.927 21.6562 155.786ZM64.6627 160.039C64.0154 160.908 67.2982 161.609 67.7089 161.708C73.524 163.1 84.194 163.215 89.9802 161.707C94.4782 160.535 92.5994 159.57 89.3704 158.667C83.4315 157.004 73.8715 157.203 67.9513 158.907C67.4906 159.04 64.7663 159.9 64.6627 160.039ZM93.0266 162.465C90.2243 162.897 87.4706 163.693 84.6362 163.978C80.8082 164.362 75.703 164.319 71.8688 163.943C69.3879 163.699 67.0432 162.787 64.6628 162.162C65.6707 164.783 66.0276 172.907 67.8582 174.613C68.3723 175.093 69.2855 175.44 69.9925 175.525C72.941 175.878 80.9739 174.719 82.9577 176.282C83.2798 176.536 83.5348 176.748 83.5646 177.193L83.1353 186.771C82.9832 187.747 82.0511 188.5 81.1415 188.733C79.479 189.157 72.3605 188.758 70.8507 188.028C68.6999 186.988 69.9166 185.819 69.8754 184.17C69.8272 182.245 69.18 180.062 69.4085 178.093L68.3235 177.341C68.3504 178.498 68.2751 179.668 68.3251 180.828C68.3924 182.392 69.056 185.208 68.9631 186.603C68.9156 187.315 68.1953 187.747 68.4524 188.26C69.4808 190.314 75.9185 190.296 78.0809 190.397C77.9393 190.793 76.4479 190.933 76.0619 190.962C73.6665 191.148 71.3051 190.607 68.9335 190.395C68.707 191.369 70.2279 191.107 70.7602 191.308L69.8467 192.212C74.457 193.167 80.2268 194.148 84.874 193.055C85.3419 192.945 89.4914 191.48 89.6723 191.3C90.7709 190.208 86.72 190.998 86.4798 191.013C86.1486 191.033 85.3225 191.207 85.4051 190.701C86.3866 190.197 89.8776 190.002 90.2319 188.977C90.3535 186.903 90.768 184.705 90.89 182.649C90.9413 181.784 91.1841 177.129 91.0751 176.729C90.6624 175.213 90.2056 176.254 89.5852 176.494C88.6218 176.865 87.5802 176.815 86.9303 177.799C86.6847 178.431 87.6407 178.158 87.5386 178.399C87.461 178.582 86.0507 179.852 87.0857 180.071C87.997 180.264 88.8523 178.503 89.9765 178.858C90.1829 179.068 89.7758 184 89.6082 184.713C89.4276 185.481 85.2748 188.887 84.626 188.879C84.2507 188.875 84.0399 188.724 83.9241 188.372C83.5541 187.248 84.6286 182.119 84.7888 180.523C84.9478 178.94 84.3188 176.584 85.3949 175.358C87.072 173.447 90.6167 174.921 91.3356 173.68C92.5556 171.575 92.3056 165.067 93.0266 162.465ZM22.5696 179.161V187.206C22.5696 187.794 24.7524 189.559 25.3419 189.911C29.6216 192.465 41.3306 191.481 45.9583 189.538C47.5941 188.851 50.1454 187.717 49.26 185.538C47.1942 187.993 43.982 188.431 40.9857 188.838C36.9801 189.384 30.9458 189.938 27.0827 189.089C26.582 188.979 23.8463 188.107 23.7871 187.805C24.8321 186.397 24.3495 180.837 23.4345 179.666C23.1683 179.326 23.124 179.044 22.5696 179.161ZM81.1341 186.749C81.9228 187.65 82.8417 182.846 81.8936 182.502L81.1341 186.749ZM62.5254 188.273C61.8434 187.551 53.1103 187.74 53.0768 188.722C53.3604 189.904 55.4361 189.548 56.5915 189.495C57.9333 189.435 60.0979 189.287 61.3783 189.091C61.6745 189.045 63.0749 188.855 62.5254 188.273Z" fill="var(--fill-0, black)"/>
<path id="Vector_3" d="M338.263 175.518C341.419 176.656 343.97 178.196 347.348 179.073C355.437 181.173 363.347 181.371 371.103 177.999C371.958 177.628 376.231 175.156 376.531 175.215C376.791 175.267 376.948 175.702 376.997 175.975C377.318 177.756 376.752 183.042 377.777 184.305C378.404 185.079 383.808 187.822 385.026 188.323C388.241 189.648 391.689 190.351 395.149 190.694C396.694 190.847 403.135 190.753 403.847 191.45C404.439 192.029 403.589 194.646 403.386 195.559C400.27 209.577 394.959 229.258 376.543 227.428C371.309 226.908 368.428 222.103 365.52 218.366C352.332 225.488 342.248 211.806 339.326 200.414C338.328 196.523 337.799 191.551 337.638 187.522C337.478 183.515 337.659 179.469 338.263 175.518ZM374.861 177.948C373.21 178.418 371.886 179.558 370.282 180.219C361.189 183.966 348.289 182.311 339.789 177.643C339.938 187.876 339.697 198.756 344.919 207.902C348.624 214.392 354.909 220.298 362.873 216.864C376.462 211.006 375.547 190.132 374.861 177.948ZM382.487 190.087C382.764 189.735 379.559 187.897 379.146 187.794C377.759 187.447 377.613 191.641 378.707 191.887C379.405 192.043 381.556 190.094 382.487 190.087ZM384.622 190.397C384.102 190.362 383.658 189.927 383.102 190.222C382.942 190.307 380.771 192.938 380.965 193.124C381.628 193.19 384.849 190.685 384.622 190.397ZM387.063 191.612C386.886 191.4 386.106 191.438 385.746 191.634C385.387 191.829 382.356 194.253 382.795 194.642C383.814 195.158 387.409 192.027 387.063 191.612ZM390.417 192.523C390.325 192.383 387.61 191.484 387.827 193.163C388.119 195.413 390.966 193.36 390.417 192.523ZM399.567 193.735C398.34 194.12 396.039 192.229 395.909 194.034C397.395 194.061 399.047 196.126 399.567 193.735ZM387.673 194.647C387.151 194.576 386.715 194.705 386.233 194.88C383.325 195.933 386.639 197.111 387.673 194.647ZM377.304 198.892C377.598 199.184 380.346 196.485 380.511 196.167C380.788 195.632 380.559 195.584 380.193 195.25C378.015 196.141 377.516 196.417 377.304 198.892ZM381.878 197.379C381.592 197.145 376.572 200.169 377.611 201.626C378.081 201.344 382.131 197.586 381.878 197.379ZM396.515 206.483C397.735 203.169 393.253 199.536 390.267 199.197C388.575 199.005 386.901 199.39 385.233 199.504C386.229 201.357 388.533 201.361 390.212 202.287C391.111 202.783 395.85 206.964 396.515 206.483ZM386.147 201.628C385.858 201.34 382.817 203.614 382.793 204.356C382.957 204.507 385.241 202.9 385.514 202.665C385.739 202.471 386.455 201.936 386.147 201.628ZM388.582 210.428C389.136 209.089 390.289 208.081 390.779 206.683C391.089 205.796 390.222 205.47 389.732 206.263C389.233 207.071 387.882 209.488 387.975 210.276L388.582 210.428ZM386.152 219.537C388.236 217.876 388.437 215.414 387.331 213.048C385.915 210.017 378.851 205.228 375.764 207.854C375.514 208.067 375.705 208.546 375.492 208.768C374.561 209.733 372.943 210.458 373.034 212.25C373.349 212.547 375.967 211.871 376.476 211.58C377.847 210.797 377.161 209.297 379.652 210.674C380.631 211.215 383.155 213.742 383.842 214.7C384.854 216.112 385.631 217.886 386.152 219.537ZM371.506 217.411C371.517 216.432 371.594 214.947 370.596 214.378C370.211 215.314 370.091 217.224 371.506 217.411ZM382.181 218.019C382.23 216.931 381.061 215.161 380.188 216.491C379.48 217.57 381.261 217.927 382.181 218.019ZM372.726 218.932C371.88 218.675 370.878 220.733 371.204 221.054C372.588 221.192 372.875 220.091 372.726 218.932ZM375.024 222.273C373.943 222.532 375.461 223.732 376.253 223.782C378.324 223.915 376.441 221.933 375.024 222.273Z" fill="var(--fill-0, black)"/>
<path id="Vector_4" d="M376.281 103.462C372.451 107.207 365.971 111.563 361.229 114.133C359.487 115.077 358.594 116.108 356.563 115.253C350.575 112.731 341.412 105.047 337.707 99.7172C332.588 92.3541 331.159 82.6389 340.795 78.3123C348.426 74.8857 355.3 79.0717 359.154 85.6507C361.019 83.315 362.597 81.0314 365.399 79.7286C371.082 77.0865 378.724 78.0574 382.128 83.7378C386.486 91.0098 381.522 98.3357 376.281 103.462ZM352.599 96.282C353.534 95.3928 358.761 91.7266 358.955 90.9072C359.202 89.8636 356.152 84.9734 355.335 83.9934C347.423 74.4984 332.65 81.7565 337.29 93.4529C340.532 101.624 350.072 108.706 357.68 112.61C365.603 108.298 381.032 99.2067 380.678 88.8424C380.316 78.2384 364.327 78.2351 362.053 87.4765C363.368 87.0663 364.54 85.3572 365.943 85.1017C366.63 84.9765 367.137 85.2928 367.643 85.2386C368.83 85.1115 370.024 84.934 371.202 84.7488L370.592 85.6536C371.544 85.5368 372.178 86.0199 372.871 86.5761C373.201 86.8406 375.596 89.3991 375.658 89.5944C376.025 90.7349 374.931 91.4795 374.255 92.188C374.043 92.7755 374.867 92.5752 374.873 92.7921C374.888 93.282 373.943 93.8263 374.254 94.1554C374.758 94.6889 376.536 91.5759 376.688 93.0887C375.993 93.7877 376.198 94.7813 375.843 95.5882C374.204 99.3099 364.983 106.203 361.359 108.495C358.839 110.088 358.104 111.083 355.132 109.697C349.103 106.885 342.082 98.8889 339.591 92.94C339.345 92.3545 338.528 91.8572 338.331 90.8996C337.281 85.8104 341.491 80.89 346.742 81.9311C351.77 82.928 354.584 87.0471 356.783 91.2772C355.617 92.6008 354.348 93.8752 353.205 95.2182C352.916 95.5586 352.467 95.7144 352.599 96.282ZM353.51 88.0868C352.711 87.8745 352.971 88.3996 352.722 88.6598C351.999 89.4157 351.388 90.2835 350.766 91.1181C351.102 91.4411 354.026 88.7311 353.51 88.0868ZM355.34 89.9083C354.622 89.2062 352.853 92.5634 352.291 92.9396C352.678 93.2795 356.015 90.5687 355.34 89.9083Z" fill="var(--fill-0, black)"/>
<path id="Vector_5" d="M21.6561 228.339L26.3855 227.434L29.8899 227.428C29.8044 226.913 29.2931 226.888 28.9075 226.739C25.3291 225.36 20.0597 226.62 16.3299 226.837C15.8387 226.865 14.242 227.064 14.0311 226.524C16.5045 226.055 19.0004 225.616 21.504 225.308C22.9048 225.135 24.6854 225.619 25.9187 224.547C18.6898 218.612 23.5565 210.494 30.7251 207.467C36.8934 204.862 57.888 199.359 64.1524 199.616C68.0394 199.776 75.4312 204.025 79.3067 205.721C81.5014 206.681 89.4325 208.892 89.9261 211.261C90.8704 215.793 82.1764 215.775 80.2229 218.475C80.2201 219.761 86.5856 219.659 83.8325 223.288C82.0992 225.573 74.0312 226.438 71.0035 227.216C69.0165 227.727 66.9975 228.275 65.0314 228.861C60.5846 230.187 53.1765 233.784 48.9584 233.83C43.6914 233.887 38.4328 229.387 33.6839 228.664C30.1114 228.12 25.4036 229.039 21.6561 228.339ZM79.91 209.818C80.3174 209.232 79.0942 208.201 78.6711 207.871C76.7337 206.359 66.7065 201.595 64.3715 201.157C61.454 200.61 53.446 202.687 50.1957 203.47C43.6242 205.053 29.9112 207.933 26.2793 213.667C24.4974 216.48 24.6376 216.994 27.3044 218.924C30.0753 220.928 38.907 223.66 42.5427 224.704C43.391 224.948 44.2487 225.268 45.1407 225.303L26.9765 215.897C26.5154 215.041 28.0519 213.863 28.6662 213.311C33.0589 209.362 44.1408 206.649 50.0094 205.41C55.5276 204.244 61.125 203.34 66.7968 203.451L45.4481 209.827C45.394 210.413 46.0542 210.062 46.3632 209.979C47.5275 209.666 48.7487 208.923 50.0195 209.063C48.6258 210.035 46.9525 210.423 45.4415 211.185C45.2265 211.293 43.7676 211.898 44.0777 212.257C46.6211 211.675 49.0062 210.26 51.5306 209.654C51.8375 209.58 52.5287 209.255 52.4588 209.819C50.1511 210.984 47.7767 212.11 45.539 213.407C45.3935 213.491 44.5683 213.861 44.9904 214.075L55.2061 210.13C53.3748 212.279 49.7175 212.528 47.886 214.678C51.4552 213.566 54.8571 211.318 58.5442 210.564C58.8559 210.501 59.831 210.139 59.7793 210.73L53.1694 213.412L50.9376 214.677C54.4728 214.01 57.8344 212.341 61.3065 211.344L58.7731 212.918L51.5476 215.892C52.1731 215.938 52.7809 215.909 53.3947 215.761C55.7944 215.181 58.79 214.05 61.3077 213.315C62.1761 213.062 62.9052 212.235 64.0503 212.559L54.2952 216.658L53.9863 217.106C55.0168 217.854 60.4143 214.38 61.915 214.38L55.8907 217.947C55.1523 218.165 55.3386 218.41 55.9701 218.331C58.0515 218.07 63.8014 214.977 66.3339 214.068C68.1363 213.421 79.5052 210.4 79.91 209.818ZM87.5363 211.643C87.6772 210.997 87.2057 210.954 86.8281 210.681C85.3399 209.607 83.3536 209.173 81.7457 208.305C81.1483 211.005 85.6269 211.09 87.5363 211.643ZM77.7773 211.951C72.5957 213.106 67.5032 214.175 62.716 216.538C62.2226 216.782 61.2483 217.229 61.0032 217.713C65.2485 216.526 69.5153 215.261 73.6655 213.775C74.9725 213.308 76.7855 212.824 77.7773 211.951ZM86.9278 211.951C82.6102 212.415 78.0641 213.897 73.8836 215.207C67.1962 217.302 60.7303 219.978 54.1148 222.268C48.0961 220.575 41.5454 215.322 35.5126 214.093C35.2361 214.036 34.0926 213.84 34.1626 214.373C35.8869 215.153 37.3799 216.352 39.0339 217.267C42.4151 219.138 47.6593 222.116 51.1334 223.44C54.1113 224.575 55.2584 223.787 58.109 222.882C66.0143 220.372 74.8778 216.922 82.7339 213.997C84.1129 213.484 85.9798 213.039 86.9278 211.951ZM47.2782 230.463C50.2922 232.132 52.925 229.736 55.7352 228.716C59.8709 227.217 65.0266 225.321 69.2263 224.233C70.5817 223.882 81.7267 222.15 81.7365 221.511C81.7444 220.993 80.8066 221.116 80.4584 221.136C77.1894 221.319 73.2834 222.627 69.7639 222.339L50.1646 228.944C46.9816 226.476 43.0225 225.359 39.0419 225.006L43.4086 227.182C43.8172 227.481 49.9098 229.519 49.411 229.857C48.8277 229.896 47.4914 229.736 47.2782 230.463Z" fill="var(--fill-0, black)"/>
<path id="Vector_6" d="M418.065 149.817C420.377 152.695 419.957 155.834 417.939 158.738C416.54 160.751 407.858 168.796 405.775 169.702C399.189 172.567 404.965 160.364 401.856 158.22C401.365 158.216 399.061 163.13 396.912 163.614C394.413 164.176 391.467 162.219 389.656 160.647C387.501 163.821 385.633 167.252 382.641 169.751C382.299 170.037 382.145 170.487 381.573 170.354L388.551 160.119C388.723 158.933 386.244 158.871 386.435 156.244C386.546 154.71 390.703 150.087 388.509 149.306C388.017 149.13 381.951 151.116 380.661 151.386C379.309 151.669 375.187 152.498 374.069 152.429C373.612 152.4 373.346 152.169 373.337 151.703C373.313 150.51 379.052 143.122 380.196 141.816C382.775 138.87 386.698 135.104 390.707 134.366C391.911 134.145 394.009 134.384 394.975 133.756C395.458 133.442 396.547 131.639 397.12 131.035C401.702 126.207 407.114 122.463 413.185 119.701C416.821 118.048 425.541 114.722 429.324 114.845C432.216 114.938 430.648 122.289 430.291 124.28C428.707 133.098 423.763 142.778 417.266 148.967C417.117 149.507 417.837 149.532 418.065 149.817ZM427.63 117.837V122.087L428.255 119.213C428.257 118.728 428.406 117.41 427.796 117.302C427.437 117.239 423.293 118.443 422.517 118.667C414.1 121.1 404.191 125.981 398.662 132.873C397.08 134.845 390.812 144.495 391.024 146.518C391.108 147.322 393.974 150.05 395.094 149.682C395.648 149.499 399.489 144.242 400.327 143.333C400.737 142.889 402.679 140.904 403.078 140.917C403.635 140.934 403.356 141.487 403.31 141.74C402.734 144.886 400.121 148.8 399.69 152.139C399.365 154.659 402.201 153.972 403.825 153.494C413.808 150.553 423.415 140.294 425.947 130.281C426.617 127.632 425.723 126.029 424.223 123.808C423.737 123.088 421.217 120.729 421.852 119.979C422.083 119.707 426.931 118.619 427.63 117.837ZM426.408 120.57C426.032 120.078 425.856 120.576 425.799 121.019C425.684 121.916 425.879 122.983 425.803 123.907C426.592 123.771 426.514 120.709 426.408 120.57ZM393.162 136.357C389.731 136.825 387.537 137.518 385.082 140C383.193 141.91 381.942 144.094 380.681 146.237C380.122 147.188 379.037 147.973 378.831 149.106C382.637 145.885 384.782 140.903 389.048 138.179C389.35 138.702 388.414 139.547 388.099 139.967C387.173 141.206 383.801 144.915 383.406 145.923C382.838 147.378 385.332 144.95 385.545 144.711C387.675 142.322 389.091 139.105 391.793 137.268C392.231 137.489 391.743 138.012 391.581 138.272C390.776 139.562 389.629 140.86 388.741 142.123C388.568 142.369 387.923 142.715 388.434 143.033C389.144 142.559 393.586 136.746 393.162 136.357ZM387.063 145.162L385.994 145.765L384.014 147.889C384.91 148.362 387.221 145.303 387.063 145.162ZM412.077 154.267C412.257 154.442 416.783 151.38 414.966 150.927C414.284 150.757 413.031 151.839 412.827 152.44C412.73 152.727 412.964 153.171 412.829 153.377C412.733 153.523 411.544 153.745 412.077 154.267ZM410.549 160.336C411.811 160.33 412.784 158.889 413.744 158.206C414.539 157.64 415.095 157.989 416.036 156.844C416.997 155.676 417.905 151.669 415.517 152.682C414.035 153.311 407.986 158.78 406.892 160.19C406.648 160.505 406.419 160.874 406.279 161.246C407.18 161.985 414.711 153.959 415.889 153.971C416.261 153.974 416.321 154.297 416.041 154.722C414.838 156.548 411.8 158.354 410.549 160.336ZM391.332 153.054C389.655 152.943 388.932 154.584 388.283 155.782C388.568 156.05 391.823 153.498 391.332 153.054ZM392.858 153.966C392.22 153.462 388.982 156.705 389.505 157.301C390.314 157.427 393.069 154.133 392.858 153.966ZM394.687 155.483C394.129 154.927 391.462 158.657 391.638 158.818C392.183 158.933 392.386 158.54 392.711 158.218C392.949 157.983 394.885 155.68 394.687 155.483ZM396.522 158.821L397.283 156.697L394.079 160.336L395.603 159.734C395.65 159.773 395.064 160.996 395.756 160.94C395.961 160.923 398.233 158.003 398.346 157.754C398.406 157.623 398.424 157.256 398.198 157.304L396.522 158.821ZM409.634 160.949C408.67 160.73 404.821 164.985 405.059 165.193C405.631 165.326 405.785 164.876 406.127 164.59C407.395 163.528 408.527 162.173 409.634 160.949Z" fill="var(--fill-0, black)"/>
<path id="Vector_7" d="M75.6924 27.6242C77.1622 27.7867 78.8747 28.1176 80.2162 28.7356C81.11 29.1474 83.1645 31.0092 83.726 31.0082C84.035 31.0077 85.4768 30.0156 86.1505 29.7819C91.6094 27.8882 95.1497 31.4306 96.4221 36.4398C100.458 35.3917 108.048 35.6909 108.823 40.9554C109.589 46.1566 102.867 47.7687 98.9719 48.0082C96.9945 48.1298 94.5079 47.4759 92.8935 47.727C91.8801 47.8846 90.5779 48.8561 89.3826 49.089C86.9138 49.57 86.3691 49.7108 84.0359 50.4463C81.7153 51.1777 78.5403 51.8096 76.1034 51.6486C74.327 51.5313 71.8491 50.3519 70.3078 50.4216C69.3044 50.467 68.2639 51.3346 67.2607 51.6613C62.8386 53.1014 56.6022 54.1532 52.2541 52.0129C50.8094 51.3017 50.4858 50.2694 49.2442 49.5214C43.3921 50.6494 37.2319 51.3229 31.4126 49.6841C22.1687 47.0809 23.9823 37.9088 30.5273 33.3151C34.9274 30.2269 40.6095 29.4552 45.6065 31.5771C46.5517 29.6833 46.9144 28.0941 48.243 26.3574C55.6371 16.6926 71.8419 13.4097 75.6924 27.6242ZM72.2888 31.6168C71.7652 28.5546 74.6079 28.5254 73.261 25.3336C71.2948 20.6741 65.3498 19.1857 60.7446 19.9781C55.1365 20.9431 45.4931 28.1492 48.4945 34.6525C46.5238 35.1652 46.2091 33.6445 44.9101 32.9105C41.8695 31.1926 36.5991 31.7687 33.5557 33.2935C29.8943 35.128 25.1781 40.87 27.9287 44.9549C31.4402 50.17 44.2282 48.8369 49.4045 46.9429C51.9882 45.9975 53.911 43.911 56.4233 42.8511L54.1643 45.305C53.2433 47.1867 50.8286 48.4005 53.2744 50.0863C56.222 52.1179 63.9414 50.7406 67.1812 49.4571C70.0425 48.3236 72.9808 45.863 75.4939 44.0678C75.8743 43.9461 76.1054 44.1434 75.9447 44.5166C75.6167 45.2784 72.4149 47.6118 72.3093 48.2048C71.9637 50.1465 78.8973 49.9322 80.0602 49.8286C81.7163 49.6812 84.4267 49.1851 85.4021 47.712C84.7692 47.8434 82.1345 46.127 82.6607 45.5834C85.8849 48.2051 87.6323 44.5723 90.1362 43.7658C90.2905 43.7162 90.6343 43.6834 90.5866 43.9121C89.3071 45.6058 87.0179 46.1482 85.7079 47.7053C86.8344 47.6476 88.0288 47.8395 89.1447 47.6379C90.3197 47.4255 91.1393 46.3904 92.2853 46.21C94.3294 45.8882 96.5477 46.6121 98.684 46.5045C102.075 46.3336 109.879 44.1987 106.58 39.5332C105.065 37.3907 101.098 37.1086 98.6714 37.3866C96.1769 37.6724 96.1979 39.2351 94.4053 40.4207C93.529 39.8141 94.4579 39.0891 94.5623 38.1548C95.1141 33.2157 89.7588 28.8724 85.2481 31.9197C84.4014 32.4918 83.5192 34.2124 82.8141 34.3558C81.3379 34.656 82.5053 32.6871 81.7632 31.4462C81.4233 30.8779 79.1584 29.787 78.4539 29.5795C76.6522 29.0489 75.563 29.0218 74.0162 30.1501C73.2366 30.7186 73.1123 31.5778 72.2888 31.6168Z" fill="var(--fill-0, black)"/>
<path id="Vector_8" d="M303.121 17.7428C327.795 15.0691 328.288 49.1889 306.383 50.4362C284.719 51.6698 283.62 19.8559 303.121 17.7428ZM306.437 20.1989C284.976 20.0555 288.896 52.71 308.874 47.4519C324.305 43.3906 322.395 20.3055 306.437 20.1989Z" fill="var(--fill-0, black)"/>
<path id="Vector_9" d="M440.138 181.287C446.438 178.804 453.871 184.136 451.573 191C450.304 194.791 445.608 195.557 442.108 195.262C440.942 195.164 439.499 194.484 438.48 194.645C436.68 194.928 434.935 196.494 432.053 196.494C429.65 196.494 425.567 194.391 425.092 194.415C423.534 194.493 421.286 195.896 418.986 195.836C412.668 195.672 406.605 188.715 412.983 183.86C415.572 181.888 419.006 182.917 419.398 182.675C419.589 182.557 420.993 179.529 421.582 178.757C424.408 175.055 428.843 173.302 433.435 174.445C436.553 175.222 440.043 177.825 440.138 181.287ZM438.917 183.713C439.164 177.691 433.578 174.827 428.122 176.16C424.211 177.115 421.162 181.274 421.223 185.233C418.623 184.592 417.795 183.303 415.01 184.663C411.331 186.461 411.658 189.903 414.675 192.207C419.105 195.591 426.408 192.642 430.985 190.7C430.433 192.398 423.995 192.875 428.779 194.26C431.076 194.925 434.6 194.725 436.691 193.492C438.125 192.647 438.609 190.874 440.285 190.391C440.507 190.77 439.748 191.062 439.589 191.522C439.032 193.14 440.741 193.296 442.122 193.426C445.279 193.724 449.095 193.3 449.991 189.731C451.252 184.713 445.868 181.103 441.289 182.586C440.355 182.888 439.81 183.517 438.917 183.713Z" fill="var(--fill-0, black)"/>
<path id="Vector_10" d="M103.643 205.057C107.052 204.762 115.997 205.326 117.228 209.265C119.803 217.511 105.978 218.055 100.89 217.025C96.7932 216.196 90.9336 213.693 94.5547 208.762C96.4575 206.171 100.59 205.321 103.643 205.057ZM102.726 206.573C101.514 206.695 96.3171 207.844 96.0941 209.097C95.9473 209.922 100.62 211.741 101.489 211.875C104.413 212.328 110.08 211.968 112.853 210.885C114.968 210.059 116.312 209.194 113.739 207.88C110.687 206.323 106.093 206.232 102.726 206.573ZM115.598 211.039C111.226 212.618 104.835 214.132 100.281 212.774C99.2071 212.454 98.1995 211.609 97.2098 211.274C96.6316 211.079 96.5516 210.851 96.0845 211.493L98.5171 213.316L97.6057 213.766C100.302 214.989 103.122 214.64 106.004 214.668C107.804 214.686 109.499 215.26 111.43 214.318C111.987 214.047 111.906 213.495 111.946 213.466C112.104 213.35 112.448 213.961 112.751 214.022C113.464 214.164 116.037 212.196 115.598 211.039Z" fill="var(--fill-0, black)"/>
<path id="Vector_11" d="M91.1301 223.872C94.6123 223.482 100.21 223.688 103.195 225.66C107.005 228.177 106.584 232.336 102.487 234.265C99.7449 235.557 92.3044 236.141 89.2194 235.928C84.5505 235.605 78.8607 233.318 82.7063 227.935C84.5992 225.285 87.9794 224.225 91.1301 223.872ZM91.7451 225.091C90.061 225.264 85.7798 226.192 84.8288 227.625C84.3202 228.392 84.5115 228.539 85.0844 229.113C87.855 231.89 97.284 230.935 100.734 229.484C101.682 229.086 103.815 228.467 102.782 227.285C100.821 225.042 94.5148 224.807 91.7451 225.091ZM103.702 229.558C99.1988 231.312 92.8387 232.714 88.015 231.965C86.7516 231.769 85.2613 230.356 84.0282 229.862C83.4996 231.556 85.1022 233.452 86.9264 233.196L86.0143 232.595C88.0697 232.2 87.9945 233.858 90.1329 233.83C90.7848 233.822 91.3704 233.524 91.964 233.505C94.5696 233.424 97.2437 233.631 99.7412 232.891L99.4325 232.291C101.207 233.095 103.846 231.565 103.702 229.558Z" fill="var(--fill-0, black)"/>
<path id="Vector_12" d="M246.45 239.881L243.541 240.194C240.22 239.905 236.812 239.397 233.485 239.274C225.135 238.966 216.919 240.59 208.626 240.941C216.957 239.308 225.547 237.893 234.095 238.363C238.233 238.591 242.31 239.66 246.45 239.881Z" fill="var(--fill-0, black)"/>
<path id="Vector_13" d="M271.464 39.2049C271.222 38.8702 271.679 38.5165 271.958 38.3354C273.46 37.361 281.884 36.8063 283.796 37.1025C285.075 37.3008 285.672 37.8417 284.27 38.4462C282.598 39.1674 274.824 39.6948 272.833 39.5136C272.614 39.4937 271.505 39.2616 271.464 39.2049Z" fill="var(--fill-0, black)"/>
<path id="Vector_14" d="M326.671 39.2111C327.274 38.419 333.959 39.6652 335.214 39.9638C336.248 40.2101 337.523 40.5177 338.471 40.9722C339.518 41.4747 341 42.3529 339.035 42.5656C337.527 42.7288 329.002 40.9996 327.584 40.2714C327.285 40.1178 326.306 39.6919 326.671 39.2111Z" fill="var(--fill-0, black)"/>
<path id="Vector_15" d="M287.016 26.4557C286.123 27.2196 276.558 23.0029 275.713 21.7709C275.461 21.4023 275.352 21.1497 275.429 20.6908C275.988 20.152 282.067 22.7528 283.061 23.2611C283.452 23.4604 287.739 25.838 287.016 26.4557Z" fill="var(--fill-0, black)"/>
<path id="Vector_16" d="M337.649 23.1195C337.779 23.6773 337.465 23.7098 337.144 23.9802C336.013 24.9343 328.209 27.4325 326.801 27.3415C326.45 27.3188 325.762 26.7876 325.761 26.6092C325.753 25.4928 336.008 22.4164 337.649 23.1195Z" fill="var(--fill-0, black)"/>
<path id="Vector_17" d="M279.393 55.2949C278.749 54.8224 286.704 47.8186 288.221 47.5303C288.605 47.4574 289.07 47.4345 289.155 47.8673C289.313 48.6806 284.256 52.9429 283.332 53.6021C282.168 54.4316 280.922 55.5113 279.393 55.2949Z" fill="var(--fill-0, black)"/>
<path id="Vector_18" d="M330.025 56.8128C329.392 56.8883 328.872 56.7927 328.277 56.583C327.189 56.2 321.704 52.2701 321.011 51.3682C320.432 50.6147 320.302 49.7424 321.496 49.9541C324.052 50.4072 328.68 54.564 330.025 56.8128Z" fill="var(--fill-0, black)"/>
<path id="Vector_19" d="M318.436 17.0446C317.699 16.3149 324.378 7.60476 325.299 7.64247C325.7 7.65889 325.688 8.19995 325.625 8.55944C325.347 10.1255 321.023 16.1236 319.575 16.8145C319.199 16.9935 318.859 17.1077 318.436 17.0446Z" fill="var(--fill-0, black)"/>
<path id="Vector_20" d="M306.236 14.6165C305.847 14.2649 305.815 6.48 305.927 5.35651C305.961 5.01184 306.368 2.79491 306.993 3.08341C307.486 3.31084 307.705 4.22786 307.765 4.74465C307.967 6.46243 307.953 12.8341 307.11 14.1229C306.87 14.4894 306.732 14.7168 306.236 14.6165Z" fill="var(--fill-0, black)"/>
<path id="Vector_21" d="M287.323 7.03092C287.919 6.90475 288.144 7.16684 288.558 7.46841C290.047 8.55187 293.992 13.8831 294.424 15.6035C294.504 15.924 294.71 16.3599 294.179 16.4399C292.514 16.6912 287.632 8.82017 287.323 7.03092Z" fill="var(--fill-0, black)"/>
<path id="Vector_22" d="M413.598 220.755C413.596 221.267 412.584 221.333 412.229 221.361C407.478 221.739 400.352 221.311 395.448 221.056C395.053 221.035 394.158 221.302 394.382 220.604C394.916 218.93 411.161 220.914 413.598 220.755Z" fill="var(--fill-0, black)"/>
<path id="Vector_23" d="M298.302 53.7812C298.96 54.4477 296.714 61.5589 296.13 62.6972C295.227 64.4552 294.542 63.9861 294.64 62.1412C294.713 60.7676 296.334 54.9313 297.241 54.0886C297.622 53.7345 297.784 53.7177 298.302 53.7812Z" fill="var(--fill-0, black)"/>
<path id="Vector_24" d="M308.982 54.3888C309.893 53.7043 311.544 58.2675 311.73 58.7837C312.006 59.553 313.679 63.8611 312.482 64.101C311.544 64.2887 310.766 61.8799 310.499 61.2226C310.088 60.2099 308.173 54.997 308.982 54.3888Z" fill="var(--fill-0, black)"/>
<path id="Vector_25" d="M417.868 218.327C417.599 218.822 416.11 218.918 415.595 218.942C411.723 219.128 407.863 218.634 403.996 218.603C402.021 218.588 399.815 219.242 397.74 218.929C397.684 218.171 397.666 218.409 398.197 218.331C404.732 217.372 411.31 217.957 417.868 218.327Z" fill="var(--fill-0, black)"/>
<path id="Vector_26" d="M19.2137 192.211L0 194.337L3.64839 193.267C8.05695 192.826 13.1494 191.679 17.5353 191.585C18.135 191.572 18.9988 191.488 19.2137 192.211Z" fill="var(--fill-0, black)"/>
<path id="Vector_27" d="M111.633 190.093C111.541 190.65 110.071 190.419 109.654 190.391C106.619 190.182 103.54 189.433 100.498 189.182L94.7009 189.172L94.5529 188.575C100.267 187.333 105.97 189.308 111.633 190.093Z" fill="var(--fill-0, black)"/>
<path id="Vector_28" d="M408.413 224.398C408.484 224.928 407.721 224.683 407.35 224.699C402.413 224.902 397.583 224.398 392.703 223.786C392.288 223.733 391.733 223.572 392.25 223.182C397.716 222.773 402.994 224.047 408.413 224.398Z" fill="var(--fill-0, black)"/>
<path id="Vector_29" d="M391.942 163.072C391.547 164.672 390.404 166.642 389.446 168.024C388.558 169.306 387.45 170.859 385.843 171.265C387.332 168.994 388.819 166.649 390.473 164.493C390.855 163.996 391.244 162.97 391.942 163.072Z" fill="var(--fill-0, black)"/>
<path id="Vector_30" d="M323.772 212.859C323.587 212.86 323.199 213.483 322.854 212.859C322.664 212.514 322.971 212.405 323.229 212.318C325.36 211.596 328.88 211.852 331.091 212.262C331.593 212.355 331.614 212.063 331.55 212.859C328.961 212.867 326.365 212.848 323.772 212.859Z" fill="var(--fill-0, black)"/>
<path id="Vector_31" d="M104.922 192.825C104.993 193.357 104.232 193.109 103.86 193.125C102.084 193.205 100.606 192.803 98.976 192.803C97.7279 192.803 96.5032 193.287 95.3126 193.129C94.7605 193.056 94.8122 193.232 94.8594 192.52C98.3343 192.035 101.489 192.23 104.922 192.825Z" fill="var(--fill-0, black)"/>
<path id="Vector_32" d="M62.5267 179.465C62.5498 179.662 62.1223 180.072 62.0691 180.072H53.6812L53.6831 179.771C54.061 179.888 54.5656 179.465 54.7488 179.465H62.5267Z" fill="var(--fill-0, black)"/>
<path id="Vector_33" d="M144.879 237.756L140.307 238.964C140.443 238.449 141.607 238.264 142.071 238.144C143.005 237.902 143.892 237.635 144.879 237.756Z" fill="var(--fill-0, black)"/>
<path id="Vector_34" d="M206.269 42.9308L204.665 46.1888C207.643 45.8628 215.073 47.644 216.697 50.1518C219.073 53.8195 217.404 59.7909 214.266 62.5779C209.039 67.2189 200.595 66.7968 194.811 63.4349C191.546 61.5373 188.212 58.2129 193.228 55.9071C193.352 57.2746 191.923 56.6273 193.076 58.18C194.275 59.7955 195.57 60.1867 197.343 59.2476C197.437 59.3227 196.574 60.2425 196.76 60.8659C197.564 63.5628 202.25 57.9654 203.442 57.7282C203.962 58.2696 199.872 61.3647 199.48 61.8266C200.577 62.5422 204.283 59.5325 204.664 59.8548L202.224 62.8847C205.359 62.3534 207.248 59.7846 209.393 57.7282C209.519 58.52 208.366 60.159 207.85 60.7458C207.173 61.5148 206.045 61.8859 205.579 62.8847C206.349 63.0403 206.931 61.966 207.561 61.9785C207.982 61.9868 208.332 62.5335 208.799 62.5894C210.442 62.7858 213.888 59.1874 214.58 57.7302C216.927 52.7894 214.452 49.7546 209.678 48.3339C205.667 47.1401 202.343 47.6622 198.26 48.0103C198.253 46.2676 202.12 46.4462 202.486 46.1482C202.719 45.9588 202.91 43.7569 202.854 43.2916C202.504 40.3878 196.725 42.7189 197.37 40.6025C197.693 39.5422 201.666 39.7149 202.678 39.818C203.89 39.9416 204.948 40.5188 206.061 40.7011C206.905 40.8391 208.012 40.5459 208.74 40.767C210.484 41.2963 206.449 42.7137 206.269 42.9308Z" fill="var(--fill-0, black)"/>
<path id="Vector_35" d="M185.752 60.7659C185.565 62.6487 181.96 62.0447 182.933 64.0237C186.866 72.0143 199.911 73.4605 207.477 71.0006C209.21 70.4374 211.054 68.8692 212.896 69.4109C212.554 69.6993 212.764 70.2218 212.375 70.4824C212.132 70.6453 209.705 71.6622 209.232 71.8367C199.316 75.4996 187.01 73.7571 180.677 64.7309C180.05 64.6282 177.735 67.3075 176.902 67.5969C175.624 68.0409 176.92 65.2546 177.157 64.8056C178.701 61.8744 182.562 59.967 185.752 60.7659Z" fill="var(--fill-0, black)"/>
<path id="Vector_36" d="M162.571 65.0082C162.094 65.7003 160.429 64.9284 159.847 64.536C157.844 63.1855 157.351 61.235 158.235 59.0265C158.905 57.3535 161.634 56.3019 158.9 54.5508C155.981 52.6819 154.167 55.2957 154.028 58.031C152.97 57.7685 152.796 57.088 152.787 56.0577C152.76 52.7684 156.395 51.2862 159.288 52.3427C160.97 52.9569 165.314 57.1189 165.569 58.8577C165.915 61.2245 163.483 58.6346 163.177 58.4923C160.888 57.4278 159.294 60.5558 160.365 62.5052C160.814 63.3232 163.193 64.104 162.571 65.0082Z" fill="var(--fill-0, black)"/>
<path id="Vector_37" d="M187.554 44.0908C186.973 43.692 183.72 45.2605 182.577 44.9581C181.224 44.6002 183.516 43.5008 183.927 43.3108C186.217 42.2526 191.121 40.4277 193.545 40.7117C196.585 41.068 192.268 42.5939 191.99 43.1563C191.547 44.0519 193.603 48.1597 191.252 48.8027C190.612 48.9779 188.532 47.8373 188.172 47.274C187.671 46.4922 188.01 44.4034 187.554 44.0908Z" fill="var(--fill-0, black)"/>
<path id="Vector_38" d="M178.427 40.1164L177.819 39.9634C178.245 36.5002 182.434 27.6958 186.517 27.9454C187.41 28 188.538 28.9195 188.057 29.799C187.826 30.2206 185.212 31.7763 184.529 32.3737C182.098 34.5013 179.864 37.2102 178.427 40.1164Z" fill="var(--fill-0, black)"/>
<path id="Vector_39" d="M208.016 34.3506C206.799 33.5786 206.394 31.9933 205.423 31.0145C203.534 29.1097 200.727 28.2139 198.385 27.0839C197.866 26.8186 198.005 27.6734 197.802 27.6804C195.453 27.4463 198.685 23.9445 199.285 24.0496C199.582 24.1016 200.032 24.8437 200.411 25.0739C204.202 27.3771 207.663 29.3306 208.016 34.3506Z" fill="var(--fill-0, black)"/>
<path id="Vector_40" d="M216.718 46.4932C218.327 46.1554 220.428 51.3711 218.542 52.5596C218.264 52.5605 216.353 47.7966 216.306 47.4901C216.246 47.0938 216.336 46.5735 216.718 46.4932Z" fill="var(--fill-0, black)"/>
<path id="Vector_41" d="M181.481 49.835C181.6 50.4374 181.197 50.5588 180.78 50.8044C178.754 51.9999 175.831 52.2311 174.165 54.387C175.022 51.4846 178.663 49.9657 181.481 49.835Z" fill="var(--fill-0, black)"/>
<path id="Vector_42" d="M174.162 74.1173C173.864 74.3614 171.74 73.0594 171.558 72.5966C171.312 71.97 172.163 70.9864 171.112 70.1767C173.153 70.3673 172.538 71.3874 172.826 72.3076C172.94 72.6691 174.25 74.0454 174.162 74.1173Z" fill="var(--fill-0, black)"/>
<path id="Vector_43" d="M189.908 51.3855C191.733 50.8903 193.688 52.6183 191.086 52.5952C190 52.5856 188.822 51.6799 189.908 51.3855Z" fill="var(--fill-0, black)"/>
<path id="Vector_44" d="M171.718 47.4025C171.123 47.4077 171.437 46.1511 171.497 45.8146C171.634 45.0563 171.96 43.5972 172.634 43.156L171.718 47.4025Z" fill="var(--fill-0, black)"/>
<path id="Vector_45" d="M172.939 59.2443C173.04 59.3481 173.175 61.2708 173.552 61.6703C172.841 61.8086 172.323 61.4516 172.159 60.7727C172.055 60.3469 172.341 58.6271 172.939 59.2443Z" fill="var(--fill-0, black)"/>
<path id="Vector_46" d="M262.309 157.303C261.069 156.639 260.762 154.984 260.005 153.982C259.04 152.703 257.437 151.863 256.822 150.323L260.933 153.058C261.491 154.424 262.326 155.782 262.309 157.303Z" fill="var(--fill-0, black)"/>
<path id="Vector_47" d="M252.858 147.889L251.936 148.048C253.238 154.011 249.575 148.663 250.69 147.162C251.133 146.566 252.723 147.133 252.858 147.889Z" fill="var(--fill-0, black)"/>
<path id="Vector_48" d="M256.82 153.658C256.068 153.835 256.011 153.023 255.675 152.531C254.761 151.189 254.021 149.723 253.466 148.198C254.267 147.395 257.065 152.887 256.82 153.658Z" fill="var(--fill-0, black)"/>
<path id="Vector_49" d="M255.297 128.459C256.532 127.23 258.485 126.04 260.03 125.125C260.421 124.893 260.807 124.883 260.781 125.275C260.723 126.118 256.489 128.705 255.297 128.459Z" fill="var(--fill-0, black)"/>
<path id="Vector_50" d="M266.275 158.516C265.315 159.385 264.984 156.85 264.809 156.486C264.337 155.506 263.753 154.607 263.227 153.663C265.314 154.165 265.047 155.663 265.498 157.016C265.622 157.389 266.553 158.264 266.275 158.516Z" fill="var(--fill-0, black)"/>
<path id="Vector_51" d="M268.047 156.16C268.274 156.292 269.691 158.3 269.324 158.821C267.931 158.809 266.227 155.105 268.047 156.16Z" fill="var(--fill-0, black)"/>
<path id="Vector_52" d="M265.052 195.859C265.189 195.991 265.968 198.37 265.986 198.754C266.03 199.644 265.619 200.388 265.641 201.171C265.677 202.432 266.29 204.221 266.275 205.419C266.262 206.465 265.645 207.659 265.645 208.761C265.645 210.112 266.323 211.487 266.299 213.014C266.264 215.282 264.914 216.795 264.599 218.934C263.839 217.728 264.435 216.51 264.446 215.436C264.47 212.904 264.748 210.254 264.765 207.862C264.791 204.195 263.994 199.855 264.446 196.308C264.5 195.885 264.607 195.434 265.052 195.859Z" fill="var(--fill-0, black)"/>
<path id="Vector_53" d="M305.929 209.219C300.818 213.045 294.724 215.096 288.946 217.662C284.297 219.726 279.848 222.403 274.819 223.482L305.929 209.219Z" fill="var(--fill-0, black)"/>
<path id="Vector_54" d="M309.284 201.933L307.051 203.502L283.358 214.981C285.155 213.676 287.435 212.538 289.452 211.486C295.951 208.095 302.65 205.048 309.284 201.933Z" fill="var(--fill-0, black)"/>
<path id="Vector_55" d="M311.419 200.409L312.027 198.895C311.315 198.952 310.669 199.308 309.969 199.426C309.649 199.481 308.906 199.745 308.981 199.201C314.733 198.401 312.118 194.303 313.4 190.395C314.218 192.205 314.525 195.891 314.1 197.768C313.957 198.398 311.824 200.82 311.419 200.409Z" fill="var(--fill-0, black)"/>
<path id="Vector_56" d="M305.012 191.004L292.104 197.125C288.99 198.193 286.036 199.896 282.749 200.409L302.37 191.86L305.012 191.004Z" fill="var(--fill-0, black)"/>
<path id="Vector_57" d="M302.572 199.808L298.205 201.983L288.545 205.873L296.267 202.179L302.572 199.808Z" fill="var(--fill-0, black)"/>
<path id="Vector_58" d="M224.185 201.623C225.468 199.151 227.704 197.562 229.527 195.559C230.258 194.755 239.236 184.387 239.738 184.929C239.64 185.608 238.946 186.36 238.513 186.895C234.614 191.71 229.988 196.142 225.718 200.571C225.469 200.83 224.506 201.929 224.185 201.623Z" fill="var(--fill-0, black)"/>
<path id="Vector_59" d="M239.744 223.484L241.452 220.482C244.69 216.477 247.53 212.052 251.023 208.305C251.261 208.578 250.43 209.49 250.226 209.786C246.977 214.488 243.298 219.008 239.744 223.484Z" fill="var(--fill-0, black)"/>
<path id="Vector_60" d="M255.296 211.648C253.219 215.033 250.912 218.658 247.979 221.359C249.132 218.86 250.983 216.26 252.735 214.105C253.062 213.702 254.841 211.228 255.296 211.648Z" fill="var(--fill-0, black)"/>
<path id="Vector_61" d="M252.859 218.627C253.189 217.16 254.407 215.829 255.598 214.984C255.114 216.324 253.97 217.772 252.859 218.627Z" fill="var(--fill-0, black)"/>
<path id="Vector_62" d="M188.193 148.799C186.238 148.495 185.268 145.735 185.451 143.946L188.193 148.799Z" fill="var(--fill-0, black)"/>
<path id="Vector_63" d="M191.544 150.014L190.308 147.76L190.026 145.767C191.241 146.656 192.262 148.525 191.544 150.014Z" fill="var(--fill-0, black)"/>
<path id="Vector_64" d="M193.076 146.07C193.163 145.961 195.496 147.286 195.507 147.436C194.89 148.514 192.491 146.809 193.076 146.07Z" fill="var(--fill-0, black)"/>
<path id="Vector_65" d="M208.932 99.3233C209.378 99.9667 207.854 100.427 207.408 100.23L208.628 103.263C205.363 102.797 205.844 98.7917 202.532 102.657C202.062 102.157 204.335 100.868 204.355 100.084C204.376 99.2566 201.795 96.1107 201.918 95.5298C202.362 93.4239 206.035 97.5272 206.519 97.9265C207.019 98.3375 208.853 99.209 208.932 99.3233Z" fill="var(--fill-0, black)"/>
<path id="Vector_66" d="M142.438 153.963C140.824 153.173 139.869 151.668 138.781 150.323C139.38 149.833 142.941 153.401 142.438 153.963Z" fill="var(--fill-0, black)"/>
<path id="Vector_67" d="M263.526 188.57C262.121 189.549 261.862 182.874 263.91 185.614C264.993 187.064 263.945 187.177 263.526 188.57Z" fill="var(--fill-0, black)"/>
<path id="Vector_68" d="M147.929 197.378C148.043 198.58 145.442 198.562 144.882 197.83L147.929 197.378Z" fill="var(--fill-0, black)"/>
<path id="Vector_69" d="M315.036 166.767C315.22 167.074 314.641 169.144 314.317 169.137C313.366 169.114 313.801 166.743 313.556 166.108C313.685 165.967 314.995 166.698 315.036 166.767Z" fill="var(--fill-0, black)"/>
<path id="Vector_70" d="M265.671 231.681C265.533 230.198 264.983 228.706 264.729 227.296C264.638 226.789 264.224 226.673 264.909 226.218C266.809 227.184 267.565 230.329 265.671 231.681Z" fill="var(--fill-0, black)"/>
<path id="Vector_71" d="M252.855 185.234L250.874 188.263C249.666 187.421 252.513 184.883 252.855 185.234Z" fill="var(--fill-0, black)"/>
<path id="Vector_72" d="M253.466 225.309C251.771 227.802 254.077 227.628 255.598 226.217L254.684 228.196C255.666 228.205 255.031 229.323 254.487 229.508C251.466 230.533 250.37 226.093 253.466 225.309Z" fill="var(--fill-0, black)"/>
<path id="Vector_73" d="M221.138 113.89C221.225 112.197 221.465 109.697 222.656 108.426C223.338 110.212 222.5 112.601 221.138 113.89Z" fill="var(--fill-0, black)"/>
<path id="Vector_74" d="M314.468 210.129C314.059 211.098 314.273 212.08 314.166 213.017C314 214.459 312.873 212.392 312.995 211.566C313.068 211.074 313.777 209.548 314.468 210.129Z" fill="var(--fill-0, black)"/>
<path id="Vector_75" d="M24.0947 160.339C24.5439 160.286 24.6441 161.131 24.6767 161.428C24.9572 163.991 24.7565 166.796 24.7059 169.298C24.6808 170.539 24.8548 172.082 24.7054 173.246C24.6343 173.8 24.809 173.737 24.0947 173.696V160.339Z" fill="var(--fill-0, black)"/>
<path id="Vector_76" d="M32.0251 164.589V171.723C32.0251 172.2 31.3897 173.487 31.717 174.304C31.0368 174.123 31.1364 173.486 31.094 172.953C30.8824 170.298 31.4995 167.686 31.4141 165.038L32.0251 164.589Z" fill="var(--fill-0, black)"/>
<path id="Vector_77" d="M27.7515 172.177C27.2203 172.248 27.4644 171.487 27.4499 171.119C27.3084 167.508 27.547 163.913 27.9074 160.336C28.2376 164.303 28.5387 168.241 27.7515 172.177Z" fill="var(--fill-0, black)"/>
<path id="Vector_78" d="M86.9261 171.878L82.8052 172.781C81.1986 173.055 79.1654 172.515 77.6768 172.597C74.9504 172.748 71.1422 174.117 68.9335 172.632L86.9261 171.878Z" fill="var(--fill-0, black)"/>
<path id="Vector_79" d="M367.846 200.411C368.114 202.573 367.31 204.361 366.01 206.021C364.797 207.569 360.439 211.534 358.523 211.623C357.567 211.667 355.144 210.918 354.216 210.488C351.149 209.07 346.735 203.611 347.866 200.11C349.22 200.892 349.75 202.399 350.911 203.456C354.281 206.523 359.949 206.137 363.417 203.441C364.819 202.35 365.797 200.21 367.846 200.411Z" fill="var(--fill-0, black)"/>
<path id="Vector_80" d="M347.637 189.849C349.907 189.409 354.216 192.859 353.817 194.79C353.598 195.852 351.809 194.065 351.395 193.867C348.548 192.505 345.242 194.828 344.344 194.207C342.778 193.124 346.171 190.132 347.637 189.849Z" fill="var(--fill-0, black)"/>
<path id="Vector_81" d="M360.528 194.642C360.958 188.701 368.675 188.291 370.288 193.878C370.081 194.924 367.103 193.539 366.45 193.455C363.596 193.088 362.954 194.146 360.528 194.642Z" fill="var(--fill-0, black)"/>
<path id="Vector_82" d="M71.0656 211.041L68.6414 212.114L67.1019 212.249C67.9068 211.22 69.8358 211.103 71.0656 211.041Z" fill="var(--fill-0, black)"/>
<path id="Vector_83" d="M412.299 127.625C420.467 126.332 420.888 137.207 414.143 139.477C410.12 140.831 407.004 139.633 406.359 135.214C405.732 130.914 408.106 128.289 412.299 127.625ZM411.994 129.751C406.635 130.655 406.924 140.637 413.384 138.114C418.547 136.098 418.383 128.673 411.994 129.751Z" fill="var(--fill-0, black)"/>
<path id="Vector_84" d="M395.302 147.892C395.162 147.287 395.457 147.075 395.742 146.663C396.86 145.046 398.83 143.318 400.176 141.82C400.177 142.433 399.616 143.012 399.256 143.482C398.081 145.019 396.674 146.523 395.302 147.892Z" fill="var(--fill-0, black)"/>
<path id="Vector_85" d="M41.1755 39.8181C40.2641 41.3673 38.4754 42.1473 37.35 43.4454C36.7105 44.183 36.7913 45.5152 35.3818 45.2781C34.7737 44.676 37.3267 42.7118 37.66 42.236L41.1755 39.8181Z" fill="var(--fill-0, black)"/>
<path id="Vector_86" d="M32.6313 44.3667C32.2056 44.4358 32.0375 43.5127 32.0372 43.2757C32.0346 41.524 34.5194 39.6362 35.9873 38.9045C36.245 39.1665 33.6065 41.9279 33.2934 42.4434C32.9496 43.0097 32.7802 43.7272 32.6313 44.3667Z" fill="var(--fill-0, black)"/>
<path id="Vector_87" d="M59.4795 48.619C59.0409 48.1836 62.581 45.1026 63.1337 44.9762C63.5369 45.4202 59.7233 48.861 59.4795 48.619Z" fill="var(--fill-0, black)"/>
<path id="Vector_88" d="M47.8858 43.1576C47.056 44.4812 45.59 45.226 44.2287 45.8867C44.2109 45.1396 45.2445 44.6362 45.7846 44.2507C46.3921 43.8171 47.1085 43.1891 47.8858 43.1576Z" fill="var(--fill-0, black)"/>
<path id="Vector_89" d="M42.3942 45.5863L39.8111 46.2055L39.042 45.436C39.2496 44.4438 41.6698 45.9786 42.3942 45.5863Z" fill="var(--fill-0, black)"/>
<path id="Vector_90" d="M299.829 44.0623C295.901 42.7473 293.841 36.139 296.322 32.8341C296.52 34.0436 295.804 35.0836 295.838 36.3243C295.917 39.1488 297.904 42.1278 299.829 44.0623Z" fill="var(--fill-0, black)"/>
<path id="Vector_91" d="M309.894 41.6396C308.815 43.7347 305.97 45.0437 303.668 45.3335C303.201 45.3923 302.941 45.6927 302.575 45.1264C303.72 44.9908 304.671 44.8077 305.737 44.33C307.262 43.6474 308.347 42.2187 309.894 41.6396Z" fill="var(--fill-0, black)"/>
<path id="Vector_92" d="M296.47 27.6695C295.905 27.737 296.206 27.0383 296.309 26.7508C296.952 24.9603 298.34 23.4819 300.131 22.8144L296.951 26.4771L296.47 27.6695Z" fill="var(--fill-0, black)"/>
<path id="Vector_93" d="M308.677 45.5831C308.218 45.1377 310.447 44.05 310.5 43.6051L313.246 41.6367C313.763 42.187 308.897 45.7961 308.677 45.5831Z" fill="var(--fill-0, black)"/>
<path id="Vector_94" d="M305.624 41.9432C305.468 42.6379 302.131 44.5161 301.967 44.3687C301.406 43.8666 302.411 43.7216 302.57 43.6174C303.496 43.0123 304.542 42.179 305.624 41.9432Z" fill="var(--fill-0, black)"/>
<path id="Vector_95" d="M437.695 190.397C435.629 192.218 432.89 193.479 430.072 193.123C430.407 192.294 431.873 192.632 432.586 192.443C434.414 191.958 435.93 191 437.695 190.397Z" fill="var(--fill-0, black)"/>
<path id="Vector_96" d="M423.055 190.397C421.577 191.754 419.272 192.457 417.261 192.212L423.055 190.397Z" fill="var(--fill-0, black)"/>
<path id="Vector_97" d="M430.069 189.486C429.59 190.093 428.454 190.661 427.744 190.962C427.056 191.255 426.24 191.518 425.495 191.605C426.733 190.664 428.555 189.775 430.069 189.486Z" fill="var(--fill-0, black)"/>
<path id="Vector_98" d="M416.039 189.79C415.598 191.331 412.351 189.48 412.991 188.877L416.039 189.79Z" fill="var(--fill-0, black)"/>
</g>
</svg>
