<svg preserveAspectRatio="none" width="100%" height="100%" overflow="visible" style="display: block;" viewBox="0 0 35 35" fill="none" xmlns="http://www.w3.org/2000/svg">
<g id="Layer_1" clip-path="url(#clip0_232_355)">
<path id="Vector" d="M15.4017 0.11951C28.5565 -1.34133 37.8906 10.8382 34.1794 23.0901C30.2321 36.1208 11.8066 39.297 3.5333 28.4137C-4.51128 17.8313 1.91407 1.61732 15.4017 0.11951ZM16.3908 1.87119C-5.09482 3.77825 -1.42039 36.4025 20.0284 33.0422C39.5961 29.9766 35.7909 0.149247 16.3908 1.87119Z" fill="var(--fill-0, black)"/>
<path id="Vector_2" d="M11.7468 26.8291C11.529 26.6154 11.5204 26.1156 11.4949 25.8152C11.1848 22.1729 11.5756 17.8825 11.511 14.1425C11.49 12.9214 10.5004 8.68204 12.7692 8.81098C13.1367 8.83187 15.0157 9.93252 15.5063 10.2058C19.1187 12.218 22.5546 14.5845 26.1677 16.6022C26.9903 17.4382 26.6945 18.1468 25.8838 18.8012C22.282 21.7085 17.2392 23.9231 13.5464 26.8477C13.1401 27.154 12.0934 27.1693 11.7468 26.8291ZM13.2774 11.3336V24.5441L24.1208 17.5528L13.2774 11.3336Z" fill="var(--fill-0, black)"/>
</g>
<defs>
<clipPath id="clip0_232_355">
<rect width="35" height="35" fill="white"/>
</clipPath>
</defs>
</svg>
