<svg preserveAspectRatio="none" width="100%" height="100%" overflow="visible" style="display: block;" viewBox="0 0 19 16.9733" fill="none" xmlns="http://www.w3.org/2000/svg">
<g id="Layer_1" clip-path="url(#clip0_232_376)">
<path id="Vector" d="M10.0135 15.8832C9.95346 16.0991 9.59033 16.3399 9.2827 16.3127C8.04895 16.2038 5.54655 12.2644 4.12354 11.8249C3.06625 11.4984 0.924772 11.9469 0.356445 11.5505C-0.0588454 11.2609 -0.0774704 6.38649 0.127814 5.68662C0.550831 4.24444 3.27888 5.16911 4.64897 4.61185C5.99087 4.06606 8.0979 0.637282 9.38117 0.319012C9.72238 0.234387 10.0135 0.541054 10.0135 0.649891V15.8832ZM8.45912 12.9298V3.60329C7.43696 4.17097 5.98398 6.11399 5.03357 6.55095C4.30357 6.88658 1.98298 6.50108 1.92512 6.89129C2.02698 7.43088 1.80318 10.007 1.92901 10.1335C2.03938 10.2444 4.27459 10.0299 5.0562 10.2704C5.81943 10.5053 8.07179 13.3683 8.45912 12.9298Z" fill="var(--fill-0, black)"/>
<path id="Vector_2" d="M11.9288 15.1517C12.0454 14.9645 14.6568 13.9144 15.6019 12.7671C18.0499 9.79566 17.4222 4.8076 14.1604 2.72068C13.0873 2.03409 11.61 2.26949 11.8651 0.655464C12.1675 -1.25875 15.9014 1.54716 16.6749 2.38232C19.2222 5.13247 19.7707 9.57768 17.8499 12.8389C17.1826 13.972 13.927 16.9836 12.6396 16.9734C11.8217 16.9669 11.6301 15.6311 11.9288 15.1517Z" fill="var(--fill-0, black)"/>
<path id="Vector_3" d="M12.35 5.15917C13.1986 4.9814 14.3311 7.33573 14.3851 8.11587C14.4475 9.0168 13.8435 11.6935 12.6569 11.7006C11.2024 11.7093 12.2152 9.24302 12.2154 8.42215C12.2155 7.7438 11.359 5.36678 12.35 5.15917Z" fill="var(--fill-0, black)"/>
</g>
<defs>
<clipPath id="clip0_232_376">
<rect width="19" height="16.9733" fill="white"/>
</clipPath>
</defs>
</svg>
