<svg preserveAspectRatio="none" width="100%" height="100%" overflow="visible" style="display: block;" viewBox="0 0 35 35" fill="none" xmlns="http://www.w3.org/2000/svg">
<g id="Layer_1" clip-path="url(#clip0_232_412)">
<path id="Vector" d="M16.9739 0.0180418C39.4579 -0.897686 41.8594 33.343 18.7828 34.9412C-5.75367 36.6405 -6.13994 0.959422 16.9739 0.0180418ZM17.6008 1.82402C-3.66606 2.11986 -3.29889 35.104 18.955 33.0879C39.1809 31.2554 36.6204 1.55944 17.6008 1.82402Z" fill="var(--fill-0, black)"/>
<g id="Frame 85">
<path id="Vector_2" d="M13 10C14.6878 9.95798 14 10 14.6675 10.1685C15.1619 10.3996 15.2555 11.1055 15.2989 11.5729C15.6812 15.6884 14.9853 20.3544 15.2995 24.5318C15.2073 25.5491 14.2246 25.7616 13.3325 25.8434C10.5538 26.0982 13.8338 26.1548 11.1194 25.8403C8.6354 25.5524 9.576 22.6661 9.58935 21.0879C9.59501 20.4184 9.36881 19.8684 9.35792 19.2734C9.32715 17.5928 9.06764 12.3248 9.45879 11.0664C9.58044 10.675 10.0762 10.144 10.5089 10.0714C12.5295 10.1761 10.9896 10.0501 13 10ZM11.2275 11.8858V23.7129C11.2275 23.7343 11.5158 24.0161 11.5377 24.0161H13.3245C13.551 24.0161 13.6208 23.5226 13.6453 23.3188C13.907 21.1389 13.4249 18.5629 13.41 16.4338C13.4041 15.587 13.9485 12.4601 13.6059 11.9146L11.2275 11.8858Z" fill="var(--fill-0, black)"/>
<path id="Vector_3" d="M22.1719 10C23.8597 9.95798 23.1719 10 23.8394 10.1685C24.3338 10.3996 24.4274 11.1055 24.4708 11.5729C24.8531 15.6884 24.1572 20.3544 24.4714 24.5318C24.3792 25.5491 23.3965 25.7616 22.5044 25.8434C19.7257 26.0982 23.0057 26.1548 20.2913 25.8403C17.8073 25.5524 18.7479 22.6661 18.7612 21.0879C18.7669 20.4184 18.5407 19.8684 18.5298 19.2734C18.4991 17.5928 18.2395 12.3248 18.6307 11.0664C18.7523 10.675 19.2481 10.144 19.6808 10.0714C21.7014 10.1761 20.1615 10.0501 22.1719 10ZM20.3994 11.8858V23.7129C20.3994 23.7343 20.6877 24.0161 20.7096 24.0161H22.4965C22.7229 24.0161 22.7927 23.5226 22.8172 23.3188C23.0789 21.1389 22.5968 18.5629 22.5819 16.4338C22.576 15.587 23.1205 12.4601 22.7778 11.9146L20.3994 11.8858Z" fill="var(--fill-0, black)"/>
</g>
</g>
<defs>
<clipPath id="clip0_232_412">
<rect width="35" height="35" fill="white"/>
</clipPath>
</defs>
</svg>
