<svg preserveAspectRatio="none" width="100%" height="100%" overflow="visible" style="display: block;" viewBox="0 0 35 35" fill="none" xmlns="http://www.w3.org/2000/svg">
<g id="Layer_1" clip-path="url(#clip0_228_22)">
<path id="Vector" d="M15.4017 0.11951C28.5565 -1.34133 37.8906 10.8382 34.1794 23.0901C30.2321 36.1208 11.8066 39.297 3.5333 28.4137C-4.51128 17.8313 1.91407 1.61732 15.4017 0.11951ZM16.3908 1.87119C-5.09482 3.77825 -1.42039 36.4025 20.0284 33.0422C39.5961 29.9766 35.7909 0.149247 16.3908 1.87119Z" fill="var(--fill-0, black)"/>
<path id="Vector_2" d="M11.7463 26.829C11.5286 26.6153 11.52 26.1155 11.4944 25.8151C11.1843 22.1728 11.5751 17.8824 11.5106 14.1424C11.4895 12.9213 10.4999 8.68192 12.7687 8.81086C13.1362 8.83175 15.0152 9.9324 15.5059 10.2057C19.1183 12.2179 22.5541 14.5844 26.1672 16.6021C26.9899 17.4381 26.6941 18.1466 25.8834 18.801C22.2815 21.7084 17.2388 23.9229 13.5459 26.8476C13.1397 27.1539 12.0929 27.1692 11.7463 26.829ZM13.2769 11.3335V24.544L24.1203 17.5526L13.2769 11.3335Z" fill="var(--fill-0, black)"/>
</g>
<defs>
<clipPath id="clip0_228_22">
<rect width="35" height="35" fill="white"/>
</clipPath>
</defs>
</svg>
