<svg preserveAspectRatio="none" width="100%" height="100%" overflow="visible" style="display: block;" viewBox="0 0 35 35" fill="none" xmlns="http://www.w3.org/2000/svg">
<g id="Layer_1" clip-path="url(#clip0_232_359)">
<path id="Vector" d="M17.6335 0.00243238C32.0901 -0.240237 40.2744 17.7314 31.1769 28.4689C20.1409 41.4942 -1.17773 33.7879 0.0508964 16.3729C0.694173 7.25482 8.34803 0.158299 17.6335 0.00243238Z" fill="var(--fill-0, black)"/>
<path id="Vector_2" d="M23.9596 10.2647C24.6932 10.2627 25.1588 10.6175 25.255 11.3321C25.5731 13.695 25.2017 17.2806 25.2364 19.816C25.243 20.2923 25.4492 20.7336 25.4581 21.2103C25.5852 28.0012 24.6749 26.8121 20.0611 23.7011C17.8029 22.1783 15.6667 20.4729 13.371 19.0005C13.0378 18.6562 13.0927 18.1055 13.2717 17.695C16.6643 15.0264 20.3177 12.6182 23.9596 10.2647ZM23.6058 23.7371L23.2996 12.6561L15.4204 18.1951L23.6058 23.7371Z" fill="var(--fill-0, white)"/>
<path id="Vector_3" d="M11.3205 25.653C11.1152 26.3749 9.43115 26.6959 9.26323 24.8563C8.84879 20.3157 9.58124 15.1564 9.28575 10.5486C9.54144 8.96321 11.3205 9.50262 11.3205 9.93122V25.653Z" fill="var(--fill-0, white)"/>
</g>
<defs>
<clipPath id="clip0_232_359">
<rect width="35" height="35" fill="white"/>
</clipPath>
</defs>
</svg>
