<svg preserveAspectRatio="none" width="100%" height="100%" overflow="visible" style="display: block;" viewBox="0 0 19 16.9733" fill="none" xmlns="http://www.w3.org/2000/svg">
<g id="Layer_1" clip-path="url(#clip0_232_345)">
<path id="Vector" d="M10.0135 15.8832C9.95346 16.0991 9.59033 16.3399 9.2827 16.3127C8.04895 16.2038 5.54655 12.2644 4.12354 11.8249C3.06625 11.4984 0.924772 11.9469 0.356445 11.5505C-0.0588454 11.2609 -0.0774704 6.38649 0.127814 5.68662C0.550831 4.24444 3.27888 5.16911 4.64897 4.61185C5.99087 4.06606 8.0979 0.637282 9.38117 0.319012C9.72238 0.234387 10.0135 0.541054 10.0135 0.649891V15.8832ZM8.45912 12.9298V3.60329C7.43696 4.17097 5.98398 6.11399 5.03357 6.55095C4.30357 6.88658 1.98298 6.50108 1.92512 6.89129C2.02698 7.43088 1.80318 10.007 1.92901 10.1335C2.03938 10.2444 4.27459 10.0299 5.0562 10.2704C5.81943 10.5053 8.07179 13.3683 8.45912 12.9298Z" fill="var(--fill-0, white)"/>
<path id="Vector_2" d="M11.9297 15.1516C12.0463 14.9644 14.6577 13.9143 15.6029 12.767C18.0509 9.79557 17.4232 4.80751 14.1613 2.72058C13.0882 2.034 11.611 2.26939 11.866 0.65537C12.1684 -1.25884 15.9023 1.54707 16.6759 2.38223C19.2232 5.13238 19.7716 9.57759 17.8509 12.8388C17.1836 13.9719 13.928 16.9835 12.6405 16.9733C11.8227 16.9668 11.631 15.631 11.9297 15.1516Z" fill="var(--fill-0, white)"/>
<path id="Vector_3" d="M12.3494 5.15896C13.1979 4.98119 14.3304 7.33552 14.3844 8.11566C14.4468 9.01659 13.8428 11.6933 12.6562 11.7004C11.2018 11.7091 12.2145 9.24281 12.2147 8.42194C12.2148 7.74359 11.3583 5.36657 12.3494 5.15896Z" fill="var(--fill-0, white)"/>
</g>
<defs>
<clipPath id="clip0_232_345">
<rect width="19" height="16.9733" fill="white"/>
</clipPath>
</defs>
</svg>
