<svg width="350" height="350" viewBox="0 0 350 350" fill="none" xmlns="http://www.w3.org/2000/svg">
<g clip-path="url(#clip0_194_1358)">
<g clip-path="url(#clip1_194_1358)">
<path d="M174.014 69.4873C175.546 69.6224 178.854 70.3391 180.327 70.8548C184.132 72.1871 186.746 75.4556 189.211 78.4473C189.249 76.9591 188.634 75.3577 188.089 73.9728C187.537 72.5713 185.179 69.1706 185.051 68.3689C185.014 68.1367 184.988 67.8163 185.212 67.8895C190.271 69.5211 193.485 73.0702 195.896 77.6863L197.531 81.9659C198.147 78.5903 197.866 75.1295 196.503 71.959C195.991 70.7678 194.726 69.7643 194.813 68.529C199.927 71.8663 203.322 76.9164 201.698 83.2471C202.857 82.0924 204.575 78.1725 204.575 76.6874V71.7273L206.235 74.3864C207.165 77.2237 207.173 80.5302 205.858 83.2473C208.159 81.9628 209.513 79.9912 210.819 77.7995C211.062 77.3913 210.759 76.991 211.613 77.169C211.926 80.1701 210.601 82.7496 209.055 85.1643C212.711 84.0217 215.973 83.2922 219.703 84.5995C220.763 84.9711 224.661 86.9682 225.052 87.892C225.224 88.2988 225.018 88.4493 224.596 88.3499C223.361 88.0595 222.12 87.2894 220.7 87.1219C218.703 86.8864 216.481 87.0366 214.571 87.6436C214.183 87.7668 213.217 87.882 213.216 88.3641C220.014 88.5635 226.663 94.3448 226.816 101.166C224.65 96.4826 219.88 94.6227 215.135 93.4906C220.617 96.9779 224.872 102.81 224.372 109.608C224.292 110.703 224.008 112.947 223.138 113.648C223.263 110.679 222.003 107.814 220.25 105.494L218.336 103.73C219.194 106.446 219.485 108.935 218.831 111.744C218.651 112.519 217.374 115.108 217.424 115.362C217.492 115.715 218.319 116.251 218.602 116.74C222.175 122.907 218.889 129.909 213.189 133.302C212.383 133.781 209.317 134.822 209.415 135.509C209.499 136.098 211.397 137.658 211.96 138.102C216.35 141.562 228.083 147.483 228.867 153.196C229.062 154.62 228.737 156.222 228.9 157.643C229.093 159.335 229.694 161.127 229.849 162.773C230.118 165.608 230.101 168.681 230.21 171.534C234.915 172.655 240.769 171.797 245.062 174.12C246.759 175.038 248.189 175.99 248.102 178.111C248.034 179.784 245.356 189.926 245.857 190.447L249.361 190.113L256.73 149.323C255.617 149.234 255.612 150.214 254.253 149.572C251.603 148.319 254.48 143.946 256.127 146.097C256.552 146.651 256.125 147.536 256.732 147.566L258.014 142.45C256.667 142.527 255.571 142.603 255.429 141.011C255.181 138.233 258.824 137.39 258.338 140.528C259.777 139.265 258.926 136.495 260.253 134.926C259.18 134.717 258.263 135.922 257.352 134.631C255.816 132.457 259.205 128.973 260.254 132.204C258.725 131.988 258.52 133.848 259.781 133.78C260.514 133.741 262.468 126.851 263.792 125.985C265.083 125.14 267.808 125.56 269.388 125.501C271.791 125.41 274.727 124.38 276.316 126.867C277.806 129.201 277.669 130.923 276.898 133.488C277.879 132.468 278.845 130.9 280.402 132.055C283.025 134 280.053 138.499 277.676 136.374C277.309 136.045 276.97 134.566 276.101 135.734C275.945 135.944 274.823 140.637 274.978 140.848C279.227 137.901 280.435 145.417 276.111 144.693C275.059 144.517 274.983 142.815 274.037 143.425C273.828 143.56 272.587 148.01 272.738 148.208C276.831 145.756 278.401 152.901 273.845 152.387C272.516 152.237 272.923 151.689 272.099 151.09C271.912 152.301 270.95 153.146 270.308 154.114C271.267 163.833 272.647 173.495 274.097 183.166C274.318 184.641 275.099 186.296 275.261 187.762C275.558 190.445 275.199 193.544 275.608 196.305C282.154 199.724 286.258 207.448 283.353 214.666C282.75 216.165 280.959 218.198 281.112 219.641C281.336 221.751 286.203 228.521 287.785 230.279C295.873 239.266 313.311 246.768 301.799 261.593L299.938 263.405C300.989 263.874 302.143 263.597 303.214 263.81C304.272 264.02 305.523 264.648 306.505 264.704C307.706 264.772 313.619 262.859 314.014 264.533C313.792 265.814 312.066 265.187 311.051 265.405C309.999 265.631 308.846 266.457 308.078 266.592C304.114 267.287 300.665 266.706 296.863 266.324C293.9 266.026 291.249 267.329 288.578 267.275C286.342 267.23 282.766 265.938 280.214 265.69C279.321 265.604 278.428 265.652 277.537 265.65L278.493 266.927C278.187 267.16 273.926 266.54 273.375 267.886C275.056 268.11 277.39 267.586 278.97 267.893C279.714 268.038 279.826 268.725 280.877 268.867C283.315 269.197 286.633 268.695 289.228 268.835C290.143 268.885 295.323 269.36 295.453 269.974C295.594 270.635 293.729 271.089 293.375 271.089H288.255C288.201 271.089 287.752 271.52 287.775 271.726C292.783 271.297 297.781 271.071 302.815 271.092C302.759 271.525 302.38 271.651 302.002 271.715C299.539 272.132 294.527 271.979 291.779 272.05C287.444 272.162 284.009 272.259 279.632 272.706C276.092 273.068 272.248 271.876 269.388 272.035C268.196 272.101 267.399 273.004 266.542 272.995C265.887 272.988 264.046 272.765 263.327 272.657C257.636 271.799 250.846 270.925 245.058 271.091C244.88 271.096 241.306 271.609 242.968 270.603C243.739 270.137 245.643 270.403 246.173 269.492L242.016 269.49L242.84 275.268C244.307 275.567 245.987 274.889 247.295 274.902C255.414 274.986 263.516 274.979 271.618 275.566C272.993 275.665 274.398 275.511 275.778 275.569C276.167 275.585 276.968 275.327 276.893 275.886L213.536 277.489C213.408 278.564 213.832 280.53 213.242 281.438C212.614 282.405 207.201 282.457 206.033 282.27C204.671 282.053 203.914 280.355 202.016 281.007C201.564 280.09 203.428 280.197 203.293 279.89L200.736 279.09C201.497 282.184 202.26 284.663 199.461 286.936L197.216 288.366C199.941 288.241 202.638 287.984 205.388 288.036C206.141 288.05 206.845 288.342 207.601 288.382C209.301 288.472 212.03 287.812 213.214 289.006C208.774 289.27 204.36 288.474 199.921 288.676C198.328 288.748 195.996 289.394 194.505 289.345C193.743 289.32 192.748 288.662 192.298 288.751C192.144 288.782 190.271 290.517 189.944 290.837C189.762 291.015 189.312 290.82 189.538 291.569C192.918 290.837 197.11 290.641 200.571 290.933C200.959 290.965 202.281 291.052 202.333 291.566C198.887 291.852 195.384 291.704 191.938 291.891C187.678 292.124 185.728 293.681 181.804 294.558C176.256 295.798 166.819 296.415 161.302 295.322C158.452 294.757 156.302 292.839 153.376 293.166L154.013 292.532L148.256 292.207C148.223 291.603 148.103 291.551 148.74 291.557C150.09 291.569 152.16 291.957 153.539 292.199C154.404 292.14 153.374 290.592 152.825 290.358C150.962 289.564 147.049 290.113 144.881 289.982C143.766 289.915 142.687 289.459 141.536 289.647C141.384 288.733 141.729 289.116 142.275 288.965C145.536 288.068 149.412 289.164 152.734 289.33C152.726 287.927 152.615 286.521 153.053 285.171C150.745 284.925 148.585 285.504 146.333 285.811C145.81 286.239 146.375 286.391 146.812 286.446C147.716 286.56 148.436 286.451 149.433 286.725C149.979 286.876 150.324 286.493 150.173 287.407C148.241 287.364 146.172 287.266 144.241 287.396C133.637 288.107 121.465 294.212 110.731 289.892C106.368 288.136 104.561 285.978 105.038 281.153C105.335 278.141 109.358 275.717 110.814 273.009H103.294C102.82 273.009 102.82 273.969 103.294 273.969H108.894C109.042 275.22 108.399 274.289 108.094 274.289H102.814C102.311 276.382 104.292 275.368 105.86 275.568C106.327 275.628 106.852 275.812 106.332 276.207C105.73 276.323 103.017 276.044 102.83 276.226C102.306 276.736 103.017 281.806 100.889 282.764C99.9075 283.205 95.2957 282.826 94.0877 282.535C92.6835 282.197 92.1236 280.689 90.8137 280.689H85.5337C85.4911 279.94 85.424 280.123 86.008 280.048C87.4878 279.859 92.2178 279.856 93.618 280.126C93.8822 280.177 94.1423 280.483 94.3344 280.683C95.0538 280.221 94.7172 279.777 94.4425 279.136C91.6116 279.217 88.7935 278.316 86.0104 278.132C83.6808 277.978 81.2967 278.282 78.9678 278.129C78.3278 278.087 78.0423 278.383 78.1766 277.489L94.3464 278.156C94.8956 278.221 94.9031 277.576 95.1338 277.172L82.4988 276.184C73.657 276.684 64.7632 277.438 55.9992 275.503C55.2432 275.336 54.7098 274.529 53.9465 274.356C52.5949 274.05 50.9045 274.5 49.5502 274.273C48.4341 274.085 48.0457 272.993 46.6916 273.611L44.255 273.012L57.6918 273.65C58.024 274.833 56.2573 274.134 56.0951 274.926C57.939 274.708 59.7499 275.39 61.534 274.926C60.3204 270.587 62.252 271.291 65.0478 269.963C73.3818 266.004 82.4709 263.499 91.1055 260.18C92.3918 258.151 92.9408 255.632 95.0274 254.182C97.0202 252.798 98.1097 253.806 98.3458 250.779C98.5741 247.851 98.0427 244.925 98.0006 242.142C97.8341 231.151 97.8039 220.136 97.0406 209.181L96.4321 175.272C96.3918 175.036 94.1737 174.921 94.1737 174.288V167.088C92.7713 167.099 91.3655 167.205 90.0159 166.769C89.8162 174.809 89.9444 182.888 89.7069 190.941C89.2833 205.308 88.971 220.485 86.0167 234.611C80.7812 259.645 65.5525 269.901 40.8974 272.053C40.0028 272.131 37.036 272.907 36.5532 272.555C36.0703 272.203 35.9902 270.101 36.7778 269.853C52.3504 269.788 69.5785 264.543 77.7914 250.386C88.1053 232.608 87.408 195.28 87.7889 174.623C87.8228 172.785 88.1072 167.057 87.7081 165.714C87.3519 164.514 84.0343 162.728 83.6353 160.188C83.2798 157.925 84.5552 157.103 84.5537 156.046C84.5525 155.2 83.2987 154.311 83.3235 152.885C83.3431 151.755 84.6063 148.893 84.5092 148.412C84.3778 147.76 83.0289 147.129 83.1493 145.281C83.3878 141.621 88.7924 136.325 92.5937 136.184C92.6627 135.711 90.9861 129.513 90.6719 129.15C90.0409 128.419 86.3147 127.611 85.1299 126.46C84.3748 125.727 84.5321 124.906 84.2193 124.145C84.1116 123.882 83.7249 123.867 83.6464 123.633C82.9568 121.574 83.985 120.418 83.8882 119.933C83.8143 119.564 83.074 119.296 82.9631 118.592C82.8437 117.835 83.2809 117.226 83.2588 116.671C83.234 116.047 82.3313 115.313 82.3618 114.439C82.4158 112.897 82.6815 113.863 82.3367 111.868C82.0574 110.252 82.1811 107.933 82.2167 106.448C82.2257 106.068 81.4728 104.807 81.3745 103.89C80.4575 95.3359 93.9884 93.5842 100.089 94.1326C104.136 94.4963 110.245 97.1846 110.182 101.977C110.169 102.997 109.301 103.651 109.302 103.888C109.304 104.108 109.902 104.589 110.035 104.992C110.622 106.765 109.223 107.183 109.222 107.407C109.222 107.532 110.514 108.453 110.489 109.336C110.468 110.048 109.186 110.57 109.536 111.082C109.566 111.126 110.243 111.169 110.518 111.532C111.716 113.116 109.532 114.22 109.54 114.448C109.548 114.662 112.546 116.264 109.86 117.648C112.276 118.819 110.884 121.936 110.499 124.054C109.502 126.031 105.408 127.296 105.115 128.269C104.706 129.631 105.243 132.356 105.054 133.968C104.917 135.13 102.675 139.377 105.17 139.23C108.469 139.035 110.802 139.662 112.676 142.666C114.52 145.624 114.418 148.53 114.35 151.902C114.335 152.623 113.793 153.376 114.326 153.808C114.676 154.045 122.094 155.891 122.516 155.866C123.027 155.837 124.188 154.577 125.451 154.365C128.66 153.826 132.068 154.711 135.445 153.479C137.452 152.747 138.644 150.638 140.274 149.348C140.953 148.809 142.371 148.527 142.835 147.749C144.002 145.793 141.753 143.693 145.376 141.969C147.236 141.084 158.622 137.543 158.754 135.892C157.354 134.131 156.285 131.512 154.974 129.808C153.789 128.27 151.862 127.306 150.549 125.593C147.516 121.635 146.889 114.63 151.553 111.666C152.674 110.953 156.228 110.137 156.515 109.589C156.865 107.476 158.391 103.378 157.788 101.391C157.625 100.854 156.881 100.52 156.613 100.008C155.812 98.4778 156.205 96.4169 157.214 95.0907C155.059 95.773 153.709 97.4351 152.607 99.2799C152.425 99.5845 151.689 102.13 151.455 100.374C151.128 97.931 152.012 94.8139 153.697 93.0101L158.493 89.6508C155.626 89.8557 152.582 90.2926 149.956 91.5095C148.898 91.9997 147.278 93.494 146.489 93.8039C146.087 93.9617 145.892 93.7448 146.019 93.3336C146.991 90.1794 152.726 86.3334 155.935 85.6487L163.612 83.891C159.388 82.9249 155.087 82.4894 150.798 83.3912C149.062 83.7563 147.247 84.7905 145.611 85.2455C145.171 85.368 144.994 85.8291 145.057 85.0117C151.686 77.6806 162.28 76.4119 171.294 79.7243C167.267 76.2458 161.706 73.4023 156.254 73.6441C156.257 73.3305 156.54 73.1718 156.814 73.0873C161.554 71.6262 168.611 72.3462 173.209 74.1331C175.681 75.094 177.827 76.7758 180.253 77.8058C180.607 77.4724 178.947 75.9917 178.659 75.7228C175.615 72.8795 171.684 70.85 167.616 70.1179C167.082 70.022 167.07 70.318 167.134 69.4873C169.367 69.6299 171.809 69.2928 174.014 69.4873ZM176.734 85.4904C172.114 85.7756 168.415 87.0042 165.207 90.4401C159.993 96.0249 160.783 101.979 159.298 108.851C157.772 115.911 153.817 120.792 157.158 127.944C158.085 129.928 160.459 133.071 161.664 134.896C161.871 135.21 162.471 134.971 162.683 135.276C163.03 135.774 162.824 136.939 163.119 137.344C163.443 137.789 164.442 137.512 164.752 137.95C165.017 138.324 164.765 139.182 165.186 139.756C165.819 140.618 166.589 139.754 167.148 140.034C167.43 140.175 167.253 140.879 167.479 141.269C168.472 142.986 169.187 141.337 169.842 141.488C170.331 141.601 170.233 142.828 170.855 143.051C172.065 143.483 173.014 142.429 174.173 142.446C173.585 145.669 177.611 142.112 178.326 142.779C178.58 143.016 177.765 143.948 179.079 143.674C180.022 143.478 180.765 142.188 181.696 141.816C182.264 142.004 181.919 143.364 182.65 143.085C183.451 142.78 184.166 140.848 185.216 140.536L186.01 142.125C186.007 141.521 188.523 138.949 188.734 138.934C189.521 138.878 188.647 140.388 189.053 140.526C189.799 139.815 190.926 137.891 191.623 137.337C192.117 136.945 192.718 137.028 193.227 136.7C194.252 136.041 196.479 133.163 197.695 132.207C200.948 129.648 200.182 131.833 202.03 132.993C205.381 135.095 213.013 130.784 215.266 128.019C221.315 120.596 214.321 111.595 206.593 116.466C205.426 117.201 202.752 120.619 202.463 120.678C201.964 120.78 201.716 120.039 201.382 119.9C201.069 119.769 200.555 120.121 200.438 120.043C200.298 119.949 199.742 116.909 199.799 116.721C199.95 116.22 200.748 116.485 200.737 115.765C200.722 114.843 199.439 112.197 199.463 111.884C199.545 110.836 201.246 112.254 201.058 111.246C200.936 110.591 198.867 106.875 200.57 107.249C201.127 107.372 202.647 109.738 203.292 110.127L201.376 102.769L203.931 104.688C204.198 104.341 202.889 101.119 202.336 100.686C202.734 100.087 204.181 101.253 204.251 101.167C204.401 100.692 202.313 97.6892 203.453 97.6553C204.044 97.6378 205.501 99.6183 206.171 99.8874C206.419 99.5873 204.645 96.0836 204.309 95.5134C203.862 94.7559 202.27 93.0766 202.186 92.8586C202.064 92.5431 202.429 91.9633 202.337 91.8886C202.212 91.7871 199.893 91.7511 199.151 91.3907C198.414 91.0327 197.384 89.5126 196.234 88.8679C193.296 87.2204 188.066 86.8143 184.966 88.1191C182.669 89.0859 181.775 90.7475 180.258 92.5274C180.31 91.5387 180.146 90.4992 180.282 89.5155C180.407 88.6205 180.95 87.919 181.051 87.0844C177.98 87.46 176.214 89.6584 173.858 91.2474C173.631 88.8965 175.434 87.1798 176.734 85.4904ZM106.974 121.328H101.694C99.9723 121.328 99.8768 117.808 101.054 117.808H108.254C108.096 117.228 106.667 117.183 106.187 117.156C104.297 117.049 99.177 118.484 100.068 115.225C100.329 114.27 101.774 114.314 102.639 114.274C104.6 114.183 106.325 114.678 108.252 114.604C108.346 114.281 106.892 113.968 106.814 113.968H100.734C99.7095 113.968 98.9359 110.768 100.734 110.768H106.174C106.507 110.768 107.815 111.797 107.612 110.449C105.563 109.818 100.118 111.616 99.4227 109.173C98.5422 106.08 104.495 107.502 106.16 107.583C106.509 107.599 107.673 107.796 107.611 107.252C105.345 105.755 102.155 107.445 100.16 106.858C99.0831 106.542 98.5372 104.848 99.376 104.126C100.363 103.276 105.234 104.262 106.821 104.047C107.398 103.968 107.338 104.166 107.294 103.408H99.7738C98.353 103.408 98.353 100.208 99.7738 100.208H107.294C106.85 98.1242 102.48 96.1961 100.591 95.8703C98.0939 95.4396 94.3136 95.768 91.8688 96.4626C90.838 96.7555 87.8087 98.0736 87.1273 98.7615C86.498 99.3968 86.9088 99.3552 87.4509 99.0856C88.0275 98.7988 88.7476 98.1227 89.4833 98.3219C89.8383 98.418 90.2032 98.9898 90.013 99.2431C89.842 99.4708 86.3216 100.595 86.4954 101.806C88.4405 101.434 95.5186 98.8474 95.1434 102.596C94.9515 104.514 91.7824 103.896 90.5323 104.086C88.5348 104.389 86.548 104.927 84.5731 105.331C84.4508 106.159 84.7013 105.994 85.3667 105.965C87.7358 105.862 91.1447 104.414 93.415 104.391C95.3287 104.372 96.2093 106.631 94.4858 107.4C93.3662 107.9 90.6997 107.395 89.3144 107.988L86.4953 108.844C88.3384 109.327 96.3979 106.173 95.7901 109.958C95.5401 111.515 93.1889 110.943 92.0963 111.09C90.6282 111.288 88.8531 111.497 87.4517 111.901C86.8824 112.065 86.3045 111.808 86.4955 112.686C88.2054 112.831 94.7371 110.843 95.6952 111.807C96.5065 112.623 95.9918 114.226 94.9062 114.54C93.9547 114.815 92.5847 114.505 91.4951 114.649C89.4911 114.914 87.4914 115.405 85.5361 115.892C85.4621 116.463 86.2545 116.202 86.6111 116.168C89.3778 115.9 92.1653 115.068 94.9689 114.925C96.2748 115.287 96.9178 116.922 95.5625 117.758L85.853 119.091L86.3279 119.728L95.2747 118.44C96.0717 118.572 96.4014 119.113 96.4446 119.889C96.5811 122.34 94.3513 121.448 92.774 121.688C91.4872 121.884 87.6944 122.496 86.723 122.997C86.2085 123.262 85.8969 123.93 86.1753 124.206C86.5182 124.546 88.2134 123.119 88.7294 123.571C88.8958 123.717 88.3316 124.838 89.3721 124.53C89.952 120.715 90.622 124.485 90.85 124.547C93.0465 124.153 95.3106 124.379 97.5079 124.182C99.2167 124.029 101.851 123.345 103.604 123.298C106.099 123.231 105.562 124.536 106.974 121.328ZM213.536 101.485C213.273 101.137 211.475 98.4079 210.976 98.9292L212.259 102.765C213.067 102.274 211.885 101.138 213.536 101.485ZM155.614 112.691C149.961 113.288 149.789 120.231 152.896 123.886C152.9 120.073 154.035 116.153 155.614 112.691ZM96.417 132.848C95.8411 137.174 102.402 137.299 102.819 133.654C102.894 133.002 102.616 129.704 102.352 129.311C101.87 128.592 98.7965 129.535 97.8491 129.643C97.0584 129.733 95.2989 129.431 94.7941 129.787C93.9646 130.373 94.992 133.784 95.1378 134.765L95.6437 130.897C97.3441 129.992 97.1061 131.35 97.381 131.567C97.4985 131.66 98.2616 130.841 99.0528 130.991C100.528 131.272 101.27 133.601 99.7059 134.06C99.482 134.126 97.1473 134.548 97.056 134.45C96.9505 134.337 97.2556 132.956 96.417 132.848ZM267.664 141.219C268.151 140.93 269.503 141.557 270.023 140.529C270.833 138.928 268.655 138.563 268.62 138.135C268.605 137.957 269.906 135.166 270.161 134.914C270.807 134.277 272.462 134.199 272.703 133.268C272.999 132.124 270.645 130.844 270.013 132.208C269.72 132.841 269.984 133.569 269.77 134.203C269.198 135.898 267.951 137.943 267.239 139.672C265.595 143.664 264.074 147.711 262.498 151.728C263.4 151.47 264.55 148.06 264.761 147.905C265.044 147.697 267.084 148.93 267.789 147.237C268.291 146.029 266.404 145.696 266.32 144.85C266.275 144.392 267.49 141.323 267.664 141.219ZM263.134 131.888C262.593 131.295 262.146 132.984 262.21 133.306C262.312 133.82 263.368 133.769 263.642 134.109C263.834 134.347 262.912 136.213 263.772 136.366C263.511 135.088 264.924 133.293 264.504 132.298C264.307 131.833 264.422 131.798 263.775 131.891C264.555 132.815 263.552 133.241 263.136 132.848C263.041 132.758 263.23 131.993 263.134 131.888ZM261.533 149.166C261.521 144.943 263.187 140.905 263.452 136.689L262.493 139.89L261.853 138.609C260.901 138.378 260.619 139.981 260.937 140.487C261.094 140.735 262.127 140.628 262.198 141.045C262.24 141.295 261.199 145.771 261.056 145.98C260.654 146.567 259.588 145.573 259.315 146.483C259.033 147.427 260.569 149.047 259.618 150.448C260.509 150.049 260.25 148.668 260.579 147.889L261.533 149.166ZM205.211 137.968C204.26 138.383 202.902 138.43 201.874 138.266C201.147 138.15 199.632 137.025 199.451 137.158C197.331 140.579 195.71 144.265 194.329 148.042C190.745 157.845 188.988 168.618 188.878 179.079C188.862 180.596 189.312 181.907 189.218 183.407L195.56 170.713C196.279 168.822 200.846 164.74 200.288 162.922C199.536 160.475 193.681 160.129 195.13 157.167C195.887 155.619 203.768 155.242 204.827 152.782C204.456 147.83 204.434 142.876 205.211 137.968ZM98.6356 142.475C96.8662 141.819 94.0208 138.867 92.1253 138.939C89.6713 139.031 85.6815 143.059 85.8233 145.489C85.9393 147.478 88.8638 147.211 89.0527 148.053C89.3121 149.21 87.0335 149.038 86.6467 149.481C86.1251 150.078 85.6197 152.842 86.0132 153.651C86.4499 154.548 88.7413 154.693 88.7442 155.723C88.747 156.703 87.3282 156.322 86.655 157.169C84.9388 159.328 87.6106 162.484 89.5358 163.566L89.5367 162.285C91.9287 163.595 92.4804 164.69 95.5354 164.129C97.8694 163.701 96.5544 162.751 97.0523 161.01C95.5227 161.031 93.7125 160.95 92.2408 160.541C91.5308 160.343 90.2451 160.029 90.3353 159.09C90.6498 158.815 96.688 159.76 98.1268 159.361C99.1009 159.091 98.137 158.422 98.0748 157.897C97.9128 156.53 98.1346 155.989 98.9734 154.931C98.35 154.33 90.6981 154.776 89.6938 152.691L98.6537 153.005C97.8063 151.898 97.3811 149.216 96.4043 148.377C95.1054 147.262 91.5522 147.124 90.6505 145.171C91.7786 144.617 95.6548 146.382 96.2204 146.247C96.4663 146.188 98.865 142.811 98.6356 142.475ZM101.532 138.926L99.2967 139.723C99.8346 140.449 101.192 141.388 101.686 140.22C101.741 140.089 101.577 138.973 101.532 138.926ZM214.495 198.288C214.659 199.747 214.376 201.439 214.495 202.928H215.135V197.328C215.135 196.28 216.415 196.279 216.415 197.328V202.288C219.594 201.88 219.658 198.49 221.209 196.772C221.82 196.096 223.252 195.749 223.602 195.235C223.976 194.687 225.391 185.604 225.602 184.115C226.552 177.389 227.217 170.55 226.296 163.767C226.053 161.98 225.267 159.948 225.088 158.254C224.893 156.404 225.445 153.371 224.813 151.81C224.298 150.539 222.059 149.493 221.189 148.394L207.776 138.929C207.739 140.751 207.219 142.721 207.121 144.514C206.98 147.093 207.643 152.553 206.992 154.625C206.406 156.486 201.332 158.155 199.455 158.451C202.832 161.523 204.058 161.875 201.755 166.348C199.564 170.603 198.655 174.859 198.18 179.734C198.145 180.096 197.916 181.49 198.49 181.486C199.377 179.556 201.017 179.19 201.347 176.82C202.28 170.107 204.318 163.637 207.837 157.71C209.732 154.518 212.935 150.219 217.053 150.45C217.171 151.016 216.751 151.228 216.422 151.575C211.84 156.398 209.755 157.917 206.86 164.414C206.324 165.617 205.717 167.172 205.693 168.366C208.331 165.545 210.778 162.266 213.686 159.719C214.523 158.987 216.105 157.445 217.053 157.646L210.655 165.485L216.26 161.332L216.732 161.804C213.243 166.435 205.361 172.286 203.619 177.814C203.568 177.978 203.531 178.337 203.773 178.286L218.013 169.97C218.615 170.573 215.004 173.56 214.466 173.939C211.099 176.317 206.856 177.974 203.936 181.01C206.19 180.874 208.527 179.924 210.813 179.954C212.762 179.98 214.92 180.933 216.896 180.869C218.26 180.825 219.322 180.234 220.575 179.891C218.084 185.465 212.595 181.268 208.097 182.772L210.298 183.605C213.632 185.251 216.255 187.782 217.371 191.408C213.871 188.876 210.515 185.354 205.855 185.331C209.44 188.835 212.861 195.485 212.587 200.543C212.54 201.416 211.934 203.245 211.944 203.413C211.967 203.772 212.37 203.918 212.744 203.578C213.484 202.904 213.287 199.437 213.209 198.293C213.107 196.773 211.85 194.231 213.211 193.329C213.337 194.906 214.325 196.783 214.495 198.288ZM161.484 140.094C161.293 139.921 160.978 139.07 160.738 139.249L154.055 150.988C153.849 152.237 162.268 155.398 157.762 157.556C155.843 158.475 151.929 157.931 152.733 161.009C153.092 161.381 156.293 160.648 156.706 160.742C157.543 160.931 159.242 168.065 159.778 169.326L160.905 166.779L164.818 143.495L163.938 142.448L162.657 148.526C162.674 147.531 162.588 146.526 162.696 145.529C163.104 141.742 164.535 142.859 161.484 140.094ZM168.737 146.928C169.093 148.8 167.982 150.761 168.078 152.517C168.185 154.472 170.037 157.742 171.457 159.085C172.081 159.675 176.213 162.561 176.758 162.459C177.565 162.307 181.649 159.681 182.595 159.029C183.897 158.131 188.372 154.756 189.042 153.636C189.825 152.328 190.537 148.63 191.215 146.849C192.133 144.44 193.495 142.31 194.331 139.888C194.141 139.661 192.734 141.11 192.531 141.14C192.11 141.204 191.828 140.504 191.454 140.664C190.928 140.888 189.89 142.491 188.732 142.766L188.416 141.809L185.849 144.686C184.707 144.756 185.442 143.247 184.739 143.09C184.231 144.279 182.368 146.82 181.696 144.689C180.634 145.501 179.82 146.589 178.334 146.291C179.182 147.673 177.888 146.764 178.016 147.886L180.896 147.889C181.945 148.994 178.352 149.498 177.538 149.512C175.96 149.538 174.444 149 172.894 148.851L177.373 156.526C175.437 156.494 174.297 154.835 173.05 153.652L168.737 146.928ZM109.435 142.549C108.485 141.739 106.795 141.365 105.564 141.515C103.823 141.727 98.7266 145.243 98.6838 147.079C98.5863 151.262 103.992 150.787 106.665 149.339C107.192 149.053 109.959 146.694 110.172 146.929C110.125 150.928 106.272 151.538 105.28 154.994C104.537 157.58 104.458 160.887 104.417 163.568C105.343 163.378 105.864 162.385 106.493 161.966C106.916 161.684 107.279 161.709 107.286 162.126C107.298 162.827 104.258 165.077 104.205 165.97C104.183 166.341 104.859 167.083 104.984 167.638C105.143 168.344 104.883 169.476 105.123 169.902C105.194 170.027 107.01 171.131 107.462 171.56C108.2 172.26 110.155 175.083 110.382 175.115C110.622 175.148 112.025 174.891 111.726 174.345C111.111 173.235 106.865 165.26 107.295 164.85C109.99 164.741 113.504 164.881 116.088 164.201C116.534 164.084 116.58 164.483 116.585 163.729C116.603 161.197 115.187 159.226 112.741 158.595C110.968 158.138 110.279 159.465 108.713 159.707C107.851 159.84 106.893 159.67 106.015 159.726C105.85 158.817 106.237 159.202 106.718 159.007C107.975 158.497 109.249 158.14 110.178 157.012C112.65 154.015 112.502 145.162 109.435 142.549ZM156.252 141.809L146.377 145.051C146.315 150.479 145.801 156.696 149.056 161.326C149.651 159.602 148.634 157.788 148.608 156.081C148.575 154.029 149.267 151.056 149.93 149.084C150.156 148.412 151.977 143.807 152.256 143.72C154.019 143.164 153.172 147.311 153.057 148.208C153.285 148.512 156.863 142.456 156.252 141.809ZM143.452 150.129C138.992 151.033 140.797 158.007 142.214 160.808C142.633 161.635 143.683 162.829 143.432 161.193C143.105 159.065 141.65 156.643 141.856 154.289C142.691 154.134 142.418 154.449 142.641 154.926C143.189 156.1 143.418 157.557 143.939 158.763L145.371 161.646L143.452 150.129ZM264.895 152.688H257.855C257.75 152.688 257.414 152.092 257.091 152.884C256.396 162.121 254.013 171.074 252.348 180.141C250.904 188.008 249.937 196.475 248.269 204.223C247.936 205.77 247.843 205.534 246.496 206.29C246.87 206.781 248.271 205.944 248.107 206.932L246.173 222.127L244.252 221.012L246.167 223.575C245.865 226.643 245.888 229.789 245.533 232.847C245.474 233.357 245.164 235.782 245.077 235.91C244.782 236.341 242.463 236.035 243.296 236.844C243.956 237.486 245.939 236.495 244.896 239.407C245.253 239.541 246.17 239.269 246.169 238.929C246.168 238.694 244.322 237.317 246.815 237.165C244.969 235.461 246.425 235.325 246.492 235.036C246.879 233.358 246.639 230.212 246.819 228.374C246.869 227.865 247.304 224.203 247.46 224.049C247.921 223.593 248.039 224.078 248.096 224.523C248.491 227.647 247.456 231.699 247.595 234.937L249.374 235.25C249.542 232.098 249.772 228.944 249.999 225.793C250.138 223.863 250.994 224.033 250.972 225.803L250.36 235.048C250.528 235.617 251.986 235.898 252.573 235.887L252.896 224.367L253.854 224.367C253.88 225.164 253.824 225.972 253.855 226.773C253.87 227.16 253.614 227.963 254.171 227.886C254.619 222.881 259.437 222.81 260.804 218.038C261.513 215.564 261.329 213.311 260.411 210.933C260.013 209.904 258.872 208.577 258.659 207.882C258.52 207.426 258.701 207.324 259.139 207.403C260.535 207.656 263.743 212.329 264.376 213.687C266.192 217.585 266.916 225.037 266.258 229.251C265.389 234.809 256.834 236.137 254.656 230.767L253.858 228.21C254.362 230.215 253.22 233.648 253.526 235.404C253.589 235.767 253.649 236.061 254.062 236.161L262.815 237.489V243.409C262.815 244.865 260.488 243.037 260.352 242.994C258.395 242.385 255.763 244.338 253.61 244.446C248.893 244.683 244.138 241.507 239.755 240.173C239.827 239.281 239.622 235.396 240.129 234.964C240.419 234.716 243.534 235.071 244.256 234.93C244.204 231.565 245.15 227.796 245.24 224.529C245.299 222.401 243.873 222.279 242.835 220.828C240.354 217.361 240.324 211.929 242.975 208.529C243.667 207.642 246.657 205.601 246.764 205.277C246.961 204.681 246.735 203.818 246.852 203.125C247.477 199.42 248.312 195.73 249.054 192.05C248.486 192.139 245.657 191.92 245.536 192.049C245.341 192.255 246.007 194.383 244.027 194.86C242.671 195.187 241.967 194.315 241.514 196.188L238.476 221.294C238.563 221.608 240.343 221.779 240.836 222.107C241.938 222.842 240.993 229.26 241.716 230.922C241.536 233.733 237.564 233.773 237.515 234.153L240.098 253.169C241.907 251.746 241.538 248.706 242.972 247.089C242.832 249.437 241.786 251.613 241.031 253.794L240.417 253.486L240.788 259.675C256.006 268.919 276.374 262.411 274.65 242.133C273.859 232.826 266.387 227.03 269.445 216.759C270.035 214.778 271.39 212.643 271.928 210.601C274.248 201.778 268.702 196.536 260.897 193.967L258.653 206.77C257.965 206.883 256.625 206.267 256.462 205.589L264.895 152.688ZM135.614 156.208C133.893 156.462 131.089 156.208 129.214 156.208C129.154 156.208 128.643 156.726 128.735 156.844C131.783 157.23 133.574 159.892 135.804 161.458C137.03 162.319 137.451 162.552 138.973 161.964C135.89 157.917 137.908 157.59 140.891 160.688C140.241 158.356 138.96 156.178 139.291 153.648C138.15 154.718 137.328 155.954 135.614 156.208ZM175.457 169.008C175.316 168.345 175.776 168.262 176.191 167.985C178.995 166.11 186.782 162.143 187.912 158.906C188.173 158.157 188.228 157.019 188.251 156.209C185.764 158.277 179.347 163.949 176.205 164.115C174.081 164.227 170.35 160.1 168.417 159.088C170.136 166.447 173.344 173.36 177.054 179.885C176.698 180.241 175.405 178.735 175.144 178.439C170.285 172.939 168.112 164.633 165.851 157.81L165.204 160.541C166.031 166.228 167.253 171.822 168.349 177.457L167.778 177.968L164.89 167.41C164.285 167.411 164.571 168.755 164.614 169.129C164.882 171.505 165.831 175.093 166.58 177.402C167.093 178.983 168.995 181.19 167.775 182.444C170.016 183.283 172.67 184.311 174.662 185.64C175.871 186.447 178.776 189.766 179.278 189.953C179.516 190.042 184.148 189.891 184.364 189.756C184.531 189.652 186.224 186.466 186.193 186.271C185.911 184.524 182.126 181.167 182.178 178.928L185.691 182.128L187.294 162.611L181.749 166.503L175.457 169.008ZM124.298 163.206C124.563 163.376 128.035 163.469 128.408 162.768C128.405 162.451 124.581 158.391 124.104 158.098C123.601 157.789 123.116 158.177 122.592 158.061C120.599 157.62 118.645 156.763 116.574 156.851C116.409 156.972 118.448 159.869 118.656 160.366C118.993 161.176 119.338 163.749 119.468 163.873C119.613 164.011 120.679 163.821 121.053 163.886L120.417 160.368C121.903 161.201 121.152 164.125 123.293 163.566C123.354 163.026 122.634 161.998 123.459 161.651C124.232 161.326 123.941 162.977 124.298 163.206ZM269.853 193.327L266.338 158.77L261.515 190.894L269.853 193.327ZM132.894 162.605C132.67 162.023 130.504 159.966 130.014 160.371C130.847 161.328 131.305 162.937 132.894 162.605ZM155.928 162.933L110.174 167.091C114.327 174.986 118.34 182.971 122.289 190.973C123.394 193.212 129.554 207.051 130.651 207.572C143.815 209.325 156.987 211.561 170.334 211.245C170.184 209.113 167.783 210.146 166.02 209.963C162.781 209.627 157.796 207.643 154.995 205.947C153.525 205.057 153.687 204.189 152.908 203.554C152.21 202.986 151.276 203.14 150.49 202.132C149.525 200.895 150.145 199.829 149.701 199.082C149.314 198.431 147.137 198.185 146.714 195.967C146.276 193.666 148.496 192.811 148.581 192.464C148.805 191.546 148.365 190.293 148.717 189.151C149.597 186.295 158.673 182.814 161.696 183.087L155.928 162.933ZM102.814 173.328C103.044 172.569 102.814 169.328 102.814 168.208C102.814 168.174 102.368 167.728 102.334 167.728H96.7338C96.7554 168.367 96.516 168.353 97.1378 168.279C97.7839 168.202 100.964 168.311 101.236 168.506C101.554 168.736 101.908 171.197 101.888 171.734C101.863 172.424 101.105 173.708 101.215 173.806C101.412 173.981 102.675 173.785 102.814 173.328ZM167.454 182.125C165.38 178.467 164.353 174.437 163.776 170.29L162.027 175.265C161.981 175.928 163.359 180.415 163.777 180.846C164.037 181.114 167.303 182.247 167.454 182.125ZM242.613 175.451L230.177 173.489L230.178 175.088L231.453 174.77L230.498 177.008C230.698 177.246 232.509 174.779 233.212 174.756C234.356 174.72 233.621 175.963 233.697 176.047C233.827 176.191 235.348 174.767 235.457 174.773C235.537 174.777 236.584 175.834 236.592 175.914C236.669 176.694 233.773 179.506 233.053 180.367C232.753 180.726 232.277 180.887 232.418 181.488C233.812 180.949 237.162 175.907 238.059 175.754C238.473 175.683 239.179 176.384 239.106 176.801C239.034 177.214 236.838 179.155 237.218 179.568C238.212 178.953 238.855 177.843 239.928 177.315C240.301 177.131 240.632 176.898 240.736 177.496C240.778 177.737 239.369 179.878 239.081 180.314C238.535 181.138 237.071 182.183 237.373 183.086C237.478 182.755 241.092 178.485 241.048 180.368C241.046 180.493 239.839 181.787 239.633 182.155C239.469 182.448 239.716 182.855 239.479 183.257C239.079 183.935 237.247 185.037 237.693 185.966C238.088 185.674 239.199 184.603 239.607 184.687C241.071 184.986 239.402 185.89 239.327 185.985C238.87 186.558 238.51 187.238 238.175 187.885C238.337 188.025 240.601 186.513 240.092 187.724C239.864 188.267 237.898 190.078 237.537 190.93L234.016 191.405C235.024 191.453 239.973 192.111 240.248 191.743C240.528 189.451 243.365 176.614 242.613 175.451ZM112.732 177.329C112.516 177.152 109.642 178.766 108.56 178.472C107.289 178.128 106.447 176.061 105.377 175.408C105.555 176.48 107.638 178.863 108.56 179.112C109.282 179.308 111.402 178.515 112.108 178.13C112.304 178.022 113.318 177.81 112.732 177.329ZM100.572 175.727L99.2939 175.731C99.4615 177.19 100.238 179.322 100.251 180.69C100.307 186.209 99.4398 192.107 99.9213 197.664C100.274 201.737 101.079 205.663 100.907 209.794C100.873 210.635 100.219 211.805 100.243 212.345C100.253 212.551 100.889 212.393 100.933 212.995C101.189 216.536 100.077 221.262 100.773 224.649C101.899 230.126 101.164 233.841 101.373 239.251C101.384 239.547 101.887 240.047 101.895 240.846C101.908 242.25 100.883 242.454 100.885 243.089C100.886 243.265 101.375 243.185 101.508 243.49C102.275 245.245 101.821 247.623 101.921 249.487C101.978 250.557 102.259 251.765 102.334 252.852L100.572 175.727ZM114.968 180.846C110.541 182.375 109.102 183.229 105.37 180.052L102.497 177.01L104.73 252.372C104.925 253.382 106.669 253.431 107.63 253.952C110.665 255.598 109.935 258.71 111.329 259.854C112.45 260.773 118.438 263.08 120.198 263.785C121.145 264.164 125.08 265.892 125.693 265.839C126.443 265.774 127.972 264.013 127.775 263.09C125.694 263.018 119.871 261.922 119.199 259.663C118.793 258.297 119.271 255.321 119.129 253.654C118.984 251.957 118.124 249.573 118.195 247.913C118.256 246.502 119.769 245.543 119.716 244.459C119.587 241.785 116.282 235.198 115.282 232.22C113.264 226.208 110.649 219.293 113.127 213.082C114.44 209.791 116.744 208.979 119.706 207.5C121.684 206.513 123.841 205.789 125.832 204.823L125.858 204.389L114.968 180.846ZM271.458 188.208C272.63 187.633 272.78 186.156 272.732 185.008C271.705 185.66 271.352 187.077 271.458 188.208ZM164.414 198.768C161.48 199.181 157.688 198.463 154.654 198.768C154.776 199.38 154.465 201.681 154.686 201.938C154.777 202.043 157.009 202.519 157.406 202.576C160.442 203.015 163.728 202.381 166.814 202.611C165.207 204.977 161.031 204.055 158.496 204.687C162.558 207.178 168.844 208.576 173.475 207.189C176.284 206.348 177.938 203.478 180.894 203.572L180.255 204.524C184.028 205.519 187.857 204.283 191.617 203.89C192.386 203.81 194.107 204.155 194.508 203.581C195.79 201.747 194.472 196.144 193.194 194.309C190.7 190.728 189.738 192.484 186.506 192.7C185.084 192.794 179.609 192.934 178.56 192.623C178.033 192.466 175.151 189.472 174.328 188.855C170.411 185.915 163.223 184.706 158.478 185.791C157.795 185.948 152.612 187.959 152.418 188.221C152.268 188.422 153.42 190.73 153.057 191.408C156.301 190.45 159.338 189.171 162.811 189.491C163.445 189.55 167.16 190.259 167.297 190.445C167.978 191.365 165.927 191.744 165.375 191.758C163.566 191.802 161.723 191.155 159.642 191.435C157.226 191.76 153.984 193.378 151.445 193.819C152.017 194.933 152.244 195.9 152.093 197.17L167.133 196.85C167.91 197.522 164.834 198.709 164.414 198.768ZM204.895 206.765C212.026 203.558 210.342 196.844 207.192 191.19C205.229 187.667 201.645 185.092 197.464 186.377C196.184 186.771 195.267 187.591 193.771 187.805C191.643 188.108 187.905 187.198 186.974 189.485C191.133 187.353 195.103 191.165 197.015 194.648C198.597 197.532 201.141 203.506 198.347 206.141C196.527 207.857 195.659 207.196 193.644 206.657C193.431 206.6 192.449 206.11 192.891 206.77C198.179 211.32 202.048 204.862 204.415 200.685C204.827 200.7 204.503 203.022 204.36 203.514C204.162 204.197 202.163 206.912 202.336 207.087C203.067 207.823 205.044 203.721 205.221 203.571C206.35 202.611 205.594 206.377 204.895 206.765ZM227.935 189.168V197.008C227.935 197.762 226.666 201.51 226.265 202.378C225.933 203.095 225.529 203.745 225.057 204.373C224.039 204.572 224.635 202.628 224.255 202.605C223.954 203.114 222.811 204.864 222.199 204.501C222.141 204.467 222.184 203.656 221.322 203.626C220.932 203.612 220.328 204.096 220.274 204.409C220.162 205.047 228.36 210.75 227.291 213.488C225.133 211.876 221.294 207.492 218.808 206.773C218.396 206.654 218.169 206.851 218.337 207.244C218.545 207.728 221.075 210.134 221.668 210.955C222.241 211.749 222.732 212.595 223.135 213.485C222.669 213.853 220.852 212.238 220.423 211.88C218.962 210.663 217.691 209.001 216.253 207.73C215.715 208.071 216.386 208.432 216.579 208.684C217.337 209.675 218.817 211.044 219.308 212.041C219.492 212.415 219.721 212.765 219.128 212.849C218.589 212.926 215.06 209.896 213.975 209.368C212.73 208.762 211.067 208.294 209.695 208.052C212.992 210.909 216.142 213.503 218.793 217.03C219.856 218.445 222.648 223.77 224.088 224.187C225.899 224.71 233.286 217.059 233.351 215.577C233.373 215.081 232.423 212.649 232.152 211.991C231.397 210.153 228.801 206.232 228.586 204.662C228.303 202.581 229.929 199.486 229.877 197.005C229.84 195.271 228.974 191.826 228.477 190.063C228.383 189.73 228.4 189.096 227.935 189.168ZM149.412 194.633C148.266 194.986 149.235 196.829 150.292 196.508C151.532 196.133 150.993 194.146 149.412 194.633ZM235.613 194.607C234.827 193.835 233.394 196.949 233.218 197.492C232.844 198.648 232.056 203.455 232.3 204.457C232.577 205.594 233.639 206.48 233.699 207.726L234.623 204.976L235.613 194.607ZM281.054 207.726C280.787 201.497 274.356 197.17 268.895 195.571C273.17 198.777 275.392 202.901 274.978 208.367C276.224 207.813 274.793 205.296 275.78 204.851C276.309 204.613 276.427 205.387 276.49 205.727C276.691 206.811 276.443 207.947 276.899 209.006C277.686 208.673 276.726 205.122 277.695 205.175C278.403 205.213 278.655 207.744 278.498 208.367C279.123 208.173 278.716 206.093 279.154 205.821C280.649 204.892 279.742 207.922 281.054 207.726ZM151.456 199.731C150.953 200.395 153.047 201.812 153.688 200.208C153.423 199.394 151.804 199.272 151.456 199.731ZM237.212 216.367L238.491 203.57C238.034 203.618 237.941 204.982 237.893 205.367C237.554 208.125 237.377 210.973 236.685 213.694L237.212 216.367ZM149.534 222.125C144.788 218.676 139.408 212.499 133.947 210.355C132.435 209.761 130.527 209.783 129.149 209.073C128.594 208.787 127.909 207.867 127.622 207.835C127.325 207.802 123.723 209.307 123.074 209.588C119.565 211.105 116.371 212.261 115.965 216.566C115.708 219.298 117.173 221.254 117.858 223.726C118.849 223.189 116.809 221.247 118.17 220.849C121.319 226.379 123.192 232.517 125.9 238.243C126.324 239.14 129.102 244.922 129.417 245.149C129.556 245.249 130.029 244.826 130.506 245.132C131.442 245.733 132.393 248.335 133.696 249.007C134.114 248.803 133.722 248.133 133.599 247.823C132.189 244.256 129.836 240.457 128.265 236.838C125.65 230.816 123.398 224.519 121.377 218.288C125.676 223.289 129.398 228.714 133.376 233.967C133.904 233.655 133.225 233.253 133.083 232.98C131.899 230.709 130.352 228.587 129.218 226.285C127.873 223.555 126.319 219.965 125.857 217.01L132.769 227.534C135.814 229.796 139.201 231.7 141.376 234.927C141.848 234.682 141.308 234.155 141.149 233.873C137.71 227.786 132.008 223.061 129.695 216.37C129.941 216.104 133.043 219.004 133.631 219.315C134.68 219.87 135.674 219.829 136.949 220.476C138.975 221.504 142.123 224.415 143.94 225.004C144.102 225.056 144.462 225.091 144.413 224.85C141.41 221.481 138.254 218.198 134.982 215.08C134.633 214.747 132.406 213.369 132.897 212.848C139.265 214.675 143.197 220.597 149.534 222.125ZM208.734 220.205C206.797 216.868 204.006 214.196 201.37 211.413C199.419 210.765 197.496 211.82 195.53 211.491C193.733 211.191 190.978 208.7 190.663 208.695C190.136 208.685 188.947 209.487 188.068 209.621C184.645 210.145 176.917 209.419 174.495 211.729C173.895 212.302 170.424 216.827 170.056 217.528C169.891 217.842 169.731 218.109 169.697 218.477C169.487 220.703 171.088 224.798 170.977 227.247C171.527 227.326 171.318 226.488 171.291 226.134C171.126 223.908 170.294 220.937 170.479 218.754C170.53 218.155 171.232 217.224 171.932 217.328L173.538 223.086C174.187 223.245 173.489 220.21 174.489 221.17C175.154 221.808 176.316 227.384 176.729 228.694C179.365 237.051 182.39 244.934 188.736 251.247L178.975 223.091L189.059 241.644C189.705 242.318 189.622 241.857 189.398 241.305C187.584 236.827 184.42 231.571 183.166 227.052C182.999 226.452 183.316 226.584 183.77 226.609L193.691 244.528C192.177 235.335 186.771 227.399 184.097 218.609C187.964 223.535 193.823 226.941 196.578 232.686C197.196 232.696 196.886 231.347 196.817 231.006C195.803 226.027 191.752 222.524 189.856 217.97C190.221 217.605 196.165 221.678 196.734 222.443C198.572 221.173 195.616 219.433 194.766 218.496C193.955 217.602 190.308 213.922 193.482 215.461C195.548 216.463 199.284 221.289 199.978 221.426C200.438 221.517 202.462 220.544 203.293 220.69C201.539 217.865 198.932 216.103 196.67 213.873C196.352 213.559 195.764 213.56 195.936 212.85C196.416 212.425 200.058 214.807 200.706 215.277C202.084 216.276 205.426 220.029 206.186 220.376C207.038 220.765 207.866 220.105 208.734 220.205ZM242.012 215.727C241.717 213.696 242.667 211.913 242.972 209.97C242.134 210.607 241.859 212.365 241.735 213.368C241.674 213.856 241.401 215.528 242.012 215.727ZM202.017 211.564C203.356 211.881 204.866 213.017 205.868 213.955C206.831 214.858 210.162 219.476 210.646 219.737C211.168 220.019 211.942 219.763 211.928 219.409C211.909 218.897 206.173 212.001 205.392 211.551C204.85 211.239 204.67 211.292 204.114 211.229C203.755 211.188 202.082 211.021 202.017 211.564ZM159.134 220.205C155.554 217.229 151.912 213.48 146.976 213.172L156.796 219.187L159.134 220.205ZM235.295 220.848C237.144 221.79 236.776 218.188 236.891 217.01L235.295 220.848ZM282.653 231.407C282.172 230.41 283.238 228.379 283.147 227.865C283.001 227.046 281.061 224.465 280.559 223.425L279.459 220.851C277.795 224.298 279.977 228.137 281.941 230.99C282.135 231.273 281.889 231.584 282.653 231.407ZM214.175 223.723C213.488 222.562 213.699 221.138 211.936 221.49L212.578 224.368L214.175 223.723ZM207.775 222.132C208.73 222.939 209.765 225.682 210.967 224.211C209.905 222.457 210.197 221.421 207.775 222.132ZM204.884 225.633C205.214 225.168 203.976 223.063 203.466 222.736C202.916 222.384 202.03 222.928 201.376 222.77C201.161 222.945 202.988 225.666 203.299 225.828C203.667 226.02 204.779 225.781 204.884 225.633ZM236.253 224.052C233.662 223.817 231.284 222.365 230.178 225.648L236.253 224.052ZM205.855 236.208H211.295V230.928C211.295 230.87 211.575 229.848 211.618 229.808C212.081 229.371 212.895 231.083 212.895 231.248V235.888C218.713 235.157 224.45 233.54 230.172 232.205C231.928 231.796 237.615 231.254 238.52 229.993C239.213 229.028 238.626 226.58 238.816 225.327C232.053 225.906 225.465 228.139 218.716 229.07C216.445 229.383 214.182 229.266 212.144 229.509C209.659 229.805 207.123 230.685 204.577 230.773L208.1 231.243L208.415 231.725C205.506 232.068 209.689 232.857 209.688 233.168C209.145 233.822 207.845 233.389 208.51 234.54C208.577 234.658 209.362 234.437 209.054 235.247C208.58 235.02 207.249 235.588 207.171 235.533C207.089 235.475 206.17 233.927 206.156 233.793C206.058 232.88 206.808 232.739 206.98 232.368C207.528 231.188 203.319 232.388 202.656 232.052L205.533 232.37C205.647 233.566 203.341 233.244 202.656 233.332C203.061 234.146 204.89 233.072 205.214 234.285L201.697 234.924C203.194 235.73 205.543 234.542 206.495 235.886L205.855 236.208ZM283.291 245.167C283.586 239.86 281.074 233.706 278.308 229.196C278.231 229.071 277.188 227.153 277.22 228.362C277.325 228.862 278.977 231.255 278.813 231.407C278.11 232.058 277.369 230.266 276.898 230.129C277.441 232 276.909 231.948 275.618 230.769L275.613 232.047C274.181 232.06 274.259 230.099 273.378 229.49C275.292 234.59 277.043 239.679 277.538 245.167C278.686 244.901 277.583 241.705 278.017 241.647C279.804 241.406 279.178 245.344 279.779 246.446C280.849 245.872 279.201 242.167 280.26 241.97C281.454 241.748 281.299 245.541 281.378 246.127L281.703 243.096L282.497 241.97L283.291 245.167ZM167.773 233.966C167.236 232.93 167.446 228.528 166.609 228.253C165.044 227.74 160.477 228.404 158.651 228.525C157.169 228.624 155.207 228.098 154.017 229.013C153.499 230.07 157.282 229.7 157.493 229.849C157.756 230.033 157.641 231.434 158.378 231.685C159.854 232.187 163.736 231.487 165.533 232.372C165.06 233.334 163.108 233.075 162.161 233.02C159.493 232.866 156.716 232.121 154.016 232.05L154.013 233.65L167.773 233.966ZM154.331 272.047L154.339 237.004C154.081 235.614 151.244 236.21 150.652 234.931C150.134 233.813 150.48 230.876 150.124 229.699C149.651 228.138 148.652 230.399 148.061 230.736C147.471 231.073 145.411 231.194 145.37 231.595C145.889 233.484 146.692 235.249 147.137 237.165C147.577 239.054 147.673 242.94 148.249 244.303C148.38 244.612 150.175 244.892 150.825 245.638C152.428 247.481 151.531 252.496 151.777 254.926C151.88 255.939 152.717 257.791 152.656 258.403C152.467 260.314 149.2 260.114 149.265 261.265C149.376 263.229 151.679 265.547 152.695 267.127L154.331 272.047ZM285.852 234.608C286.046 232.703 285.85 231.359 284.737 229.81C284.017 230.067 284.663 234.295 285.852 234.608ZM289.692 238.127C289.664 236.521 289.466 234.677 288.098 233.65L288.252 235.252L289.692 238.127ZM174.811 247.727L174.726 244.777L172.578 235.89L174.811 247.727ZM235.295 273.646C236.161 273.493 239.859 274.061 240.011 273.183L234.816 236.21C234.41 236.967 233.302 238.23 233.059 238.934C232.73 239.885 234.676 238.571 234.648 239.569C234.642 239.78 232.848 240.94 232.736 242.157C233.37 247.076 233.98 252.052 234.013 257.007C233.17 257.149 233.448 256.87 233.283 256.315C232.983 255.306 232.969 254.194 232.731 253.171C232.165 253.263 232.374 254.836 232.402 255.262C232.694 259.855 233.418 264.415 233.709 268.997L234.332 269.809C234.217 268.701 233.808 267.59 234.014 266.446C234.158 265.648 234.675 265.403 234.918 266.185C235.349 267.575 235.502 271.256 235.556 272.861C235.566 273.156 235.213 273.581 235.295 273.646ZM227.293 236.53C226.025 236.533 225.872 238.114 225.331 238.885C224.978 239.386 224.284 239.541 224.008 240.122C223.605 240.974 223.809 242.02 223.776 242.927C224.633 243.106 224.326 242.7 224.569 242.296C225.078 241.449 227.782 237.086 227.293 236.53ZM255.775 238.445C254.444 237.045 251.481 237.389 249.561 237.143C248.69 237.031 247.785 236.098 247.138 237.013C246.991 237.83 247.756 237.406 248.263 237.477C249.006 237.582 253.659 238.246 253.857 238.449C253.931 238.525 253.339 240.323 254.335 240.362C255.057 240.391 254.16 237.815 255.775 238.445ZM168.08 237.824C166.377 238.201 162.636 236.846 161.264 237.146C160.965 237.211 160.87 237.768 160.821 238.041C160.04 242.445 160.989 249.212 160.747 253.982C160.626 256.385 159.925 259.08 159.779 261.334C159.581 264.406 159.9 267.663 159.791 270.753C161.468 270.803 165.433 271.46 166.909 271.022C167.267 270.916 171.533 266.145 171.612 265.802C171.884 264.608 166.115 264.288 165.075 262.425C164.121 260.716 165.675 257.219 165.849 255.244C166.024 253.26 165.208 249.838 166.794 248.508C167.413 247.989 168.37 247.94 168.745 247.579C169.775 246.59 168.184 239.555 168.08 237.824ZM294.812 242.928C294.652 240.733 293.934 239.235 292.258 237.809L292.618 239.206L294.812 242.928ZM221.216 238.127C220.761 237.68 213.266 239.399 212.073 239.707L212.253 252.85C213.962 253.047 215.542 252.324 217.203 252.197C218.764 252.078 220.304 252.369 221.833 252.404C222.956 252.429 221.771 250.029 221.621 249.082C221.017 245.272 220.896 241.977 221.216 238.127ZM137.692 249.327L137.444 247.818L131.937 239.089C133.091 241.72 134.29 244.493 135.719 246.984C135.895 247.291 137.238 249.858 137.692 249.327ZM203.28 239.424C202.402 239.753 200.147 238.972 199.654 239.112C198.762 239.366 199.185 243.896 199.131 245.006C199.09 245.854 198.429 248.631 198.548 249.141C198.648 249.565 199.745 249.902 200.109 250.432C201.162 251.966 199.889 255.297 199.762 257.156C199.464 261.525 201.891 265.541 195.928 266.455C195.929 266.782 197.353 270.812 197.593 271.191C198.379 272.434 202.202 271.399 203.602 271.397L203.28 239.424ZM224.731 247.088C225.323 244.375 228.257 241.862 227.611 239.09L224.247 244.839C224.004 245.581 223.834 246.761 224.731 247.088ZM285.218 239.089C286.416 244.349 286.474 249.768 285.673 255.09C286.668 256.001 288.159 255.841 289.287 256.297C291.805 257.315 292.173 259.2 295.363 257.396C297.448 256.218 297.972 254.378 297.666 252.075C297.326 249.517 294.413 247.045 292.58 245.324C290.248 243.136 287.558 241.272 285.218 239.089ZM178.973 250.286C177.843 247.012 177.055 243.594 175.999 240.301C175.891 239.966 175.917 239.334 175.458 239.41C176.012 242.611 176.808 245.888 177.93 248.937C178.14 249.508 178.13 250.519 178.973 250.286ZM155.934 269.486C155.918 266.479 156.024 263.364 156.236 260.352C156.556 255.798 157.381 250.815 156.672 246.235C156.593 245.724 157.416 240.02 156.414 240.045C155.737 243.701 156.083 247.408 155.947 251.102C155.746 256.586 154.942 263.322 155.294 268.694C155.336 269.335 155.04 269.62 155.934 269.486ZM298.334 246.767C298.296 245.158 298.783 243.196 297.058 242.289C297.284 243.508 297.394 244.785 297.686 245.992C297.818 246.535 297.373 246.922 298.334 246.767ZM226.336 250.287C226.481 247.596 228.714 245.768 227.931 242.93L225.838 246.75C225.702 247.306 224.432 247.667 224.392 247.937C224.334 248.328 225.232 251.919 225.524 252.217C227.402 254.137 229.241 249.26 228.573 247.73L226.336 250.287ZM209.693 243.57C209.22 243.038 207.42 245.655 207.136 245.97C207.439 246.4 209.07 244.813 209.048 245.968C209.043 246.256 206.801 248.45 206.804 249.167C206.804 249.347 207.388 249.285 207.454 249.54C207.974 251.563 206.936 254.554 206.848 256.564C206.585 262.581 207.003 268.693 206.828 274.782C206.711 278.818 204.818 280.248 210.656 279.73L209.693 243.57ZM299.938 250.609C301.622 249.566 302.37 247.633 300.734 246.13L299.938 250.609ZM148.546 249.602C148.663 249.439 148.248 248.325 148.098 248.372C145.32 249.96 141.992 251.272 138.858 251.933C135.228 252.698 129.436 253.315 125.95 251.952C124.389 251.342 123.091 249.897 121.697 249.009C121.56 251.114 123.288 252.327 124.572 253.65L122.336 253.17C123.154 256.937 121.208 258.047 125.584 259.039C132.183 260.536 141.569 259.547 147.932 257.325C148.013 256.883 147.81 257.011 147.449 256.997C144.45 256.883 140.332 258.973 137.056 258.287C136.908 257.42 137.215 257.735 137.752 257.562C139.18 257.101 140.786 257.144 142.177 256.517C142.666 256.297 142.964 256.556 142.812 255.73C139.812 255.82 136.58 256.842 133.631 256.896C133.35 256.901 132.71 256.803 132.576 256.53C132.948 255.941 133.5 256.147 134.009 256.044C136.898 255.455 140.065 255.438 142.938 254.733C143.271 254.651 145.784 253.79 145.374 253.492C143.201 253.443 140.668 254.74 138.491 254.452C138.053 254.394 137.551 254.274 138.015 253.813C138.357 253.473 143.281 252.358 144.316 251.95C144.942 251.704 148.307 249.935 148.546 249.602ZM196.893 253.491C194.053 254.694 191.246 256.062 188.11 256.377L169.056 251.25C169.17 252.081 168.73 253.753 169.373 254.29C170.116 254.908 176.691 256.535 176.728 257.169C176.772 257.931 174.627 257.1 174.327 257.016C172.5 256.504 170.838 255.737 169.217 254.765C168.924 255.225 168.939 256.633 169.201 257.022C169.55 257.539 173.942 258.631 174.904 258.999C175.507 259.23 176.704 259.672 177.053 260.205C174.387 259.865 171.768 259.178 169.236 258.306C168.16 259.863 168.211 260.242 169.844 260.861C174.97 262.805 188.558 264.265 193.759 262.993C195.895 262.471 196.592 262.414 196.251 259.889C193.817 260.556 190.844 261.349 188.326 261.402C187.86 261.412 186.234 261.335 186.016 260.852C189.515 261.217 192.863 259.288 196.253 259.568C196.124 257.488 196.333 255.487 196.893 253.491ZM282.014 251.571C281.079 251.412 281.494 251.79 281.336 252.314C280.755 254.238 280.241 256.113 279.458 257.969C281.129 256.316 281.287 253.686 282.014 251.571ZM222.736 253.887C222.355 253.504 213.263 253.007 212.879 253.319C212.288 253.799 212.666 255.313 212.573 256.05C216.203 256.288 219.521 254.551 223.134 255.406C223.192 255.354 222.866 254.019 222.736 253.887ZM107.252 255.767C107.179 255.651 105.578 255.068 105.238 255.09C104.311 255.15 102.348 256.204 101.02 256.335C99.6146 256.473 98.9031 256.217 97.6166 255.964C97.1892 255.88 96.9902 255.369 97.056 256.205C98.1815 257.922 106.651 257.63 107.273 256.664C107.344 256.554 107.34 255.908 107.252 255.767ZM225.055 257.332C220.898 256.552 216.756 256.935 212.572 257.01L212.573 257.967C214.999 257.979 217.351 257.602 219.79 257.633C221.369 257.653 223.898 258.734 225.055 257.332ZM285.212 261.489L284.737 257.33C283.606 258.628 283.596 260.627 285.212 261.489ZM290.015 263.406C288.822 261.939 288.296 259.755 286.818 258.609C286.875 260.537 287.874 263.097 290.015 263.406ZM222.015 259.569C219.002 259.294 215.627 259.771 212.575 259.569L212.577 260.848C212.739 261.039 214.656 260.209 214.975 260.209H224.095L224.093 259.892C223.337 260.186 222.504 259.613 222.015 259.569ZM299.294 259.893C299.079 259.599 295.727 259.181 295.458 260.205C296.809 260.686 298.462 261.595 299.294 259.893ZM114.98 265.007C115.258 265.21 115.743 264.802 115.928 264.529C114.798 262.848 112.735 262.829 111.137 261.809C111.339 263.184 113.806 263.487 114.525 264.027C114.908 264.314 114.936 264.975 114.98 265.007ZM90.3319 262.772L87.8441 263.319L81.3752 265.645C83.5709 265.236 86.4134 264.72 88.4799 263.955C88.9177 263.793 90.0739 263.191 90.3319 262.772ZM226.495 265.009C225.397 264.784 222.991 265.009 221.695 265.009C221.64 265.009 221.191 264.578 221.215 264.372L223.453 263.732C221.064 263.438 218.629 263.567 216.236 263.425C215.651 263.39 215.27 262.952 214.977 262.928C214.305 262.873 213.35 263.274 212.575 263.09C213.155 264.213 212.537 268.225 213.205 268.713C218.428 267.701 223.629 268.679 228.896 268.53L228.897 269.488C227.777 269.079 226.664 270.057 225.874 270.088C223.875 270.167 221.225 269.123 219.793 269.154C218.2 269.188 215.588 269.71 213.994 270.122C213.465 270.259 213.057 269.795 213.216 270.767C219.311 270.194 225.347 271.003 231.456 270.45L231.069 266.997C229.689 266.935 227.461 265.206 226.495 265.009ZM143.451 266.609C143.982 266.048 140.728 263.695 139.934 264.052L143.451 266.609ZM142.811 268.849C143.511 267.951 139.062 264.224 137.696 265.012L142.811 268.849ZM103.134 272.369H110.654C110.738 272.369 111.042 272.941 111.294 272.937C111.505 272.934 112.199 272.026 112.625 271.78C114.743 270.559 117.119 270.724 119.452 270.29C116.178 268.01 112.169 267.247 108.678 265.387C108.003 266.283 104.084 267.038 103.926 267.241C103.698 267.532 102.951 272.185 103.134 272.369ZM123.614 267.566C122.5 266.182 120.513 265.579 118.816 265.33C118.65 266.241 119.039 265.854 119.518 266.049C120.853 266.593 122.216 267.214 123.614 267.566ZM72.4152 273.006C74.3464 273.122 76.4148 272.854 78.3284 273.014C81.8759 273.31 86.0318 274.357 89.5313 274.611C90.5772 274.687 95.212 274.799 95.8925 274.568C96.447 274.379 97.9252 267.922 97.6554 267.135C97.538 266.792 95.2931 265.9 94.812 265.791C93.5811 265.513 91.0903 266.908 89.6245 267.339C85.818 268.459 81.9853 269.595 78.1731 270.608L72.4152 273.006ZM129.375 267.884C130.753 268.395 132.397 269.092 133.631 269.872C134.572 270.468 137.036 272.917 137.59 272.963C138.005 272.998 139.984 271.239 140.569 270.93C138.774 267.923 131.236 262.973 129.375 267.884ZM188.571 269.489L188.592 267.719L186.016 267.57C185.825 268.44 186.279 268.116 186.651 268.361C187.264 268.764 187.923 269.148 188.571 269.489ZM146.974 271.086C148.835 270.359 151.176 270.371 149.529 267.889C149.161 267.634 146.811 270.949 146.974 271.086ZM187.295 272.695C185.826 271.942 184.912 270.835 183.356 270.067C180.931 268.871 176.388 267.488 174.176 269.33C178.142 269.714 183.209 271.124 185.38 274.609L187.295 272.695ZM99.6127 277.487C98.67 274.852 99.9343 272.119 99.4538 269.486L98.0091 277.324L99.6127 277.487ZM135.774 275.245C135.211 272.086 126.178 267.198 124.578 271.254C124.429 271.886 124.824 271.696 125.198 271.889C126.403 272.509 127.416 272.793 128.646 273.577C129.384 274.047 131.866 276.425 132.09 276.443C132.351 276.463 134.934 275.041 135.774 275.245ZM67.2929 270.453C66.3168 270.088 65.2848 269.995 64.7338 271.085C65.8485 271.27 66.7325 271.787 67.2929 270.453ZM277.533 271.09L253.216 270.132C253.355 270.605 254.88 270.737 255.299 270.764C256.674 270.853 258.057 270.471 259.135 270.513C263.397 270.68 267.668 271.562 271.922 271.742C273.359 271.803 275.707 271.902 277.061 271.729C277.527 271.67 278.052 271.486 277.533 271.09ZM149.217 274.289C149.929 273.776 151.231 271.475 150.333 270.77L149.217 274.289ZM194.331 271.088C193.835 270.573 193.77 271.29 193.621 271.506C193.037 272.35 192.69 273.458 191.777 274.133L193.053 274.29L192.098 279.087C192.558 279.163 192.531 278.532 192.639 278.197C193.049 276.921 193.242 275.554 193.699 274.29C194.552 274.158 194.331 274.445 194.347 275.096C194.377 276.327 193.907 277.291 193.696 278.447C194.12 278.877 195.786 276.757 195.855 276.316C195.897 276.047 194.52 271.285 194.331 271.088ZM170.016 274.285C174.316 274.659 177.703 276.396 180.734 279.387C181.353 278.342 184.646 277.54 183.476 276.029C183.194 275.665 180.459 273.788 179.914 273.509C178.215 272.64 175.252 271.814 173.373 271.794C173.095 271.791 171.883 271.892 171.936 272.365C175.027 272.934 179.832 273.74 180.893 277.167C178.698 276.463 177.182 275.009 174.825 274.438C173.96 274.229 172.672 274.014 171.787 273.956C171.417 273.932 170.016 273.724 170.016 274.285ZM203.293 272.05L198.176 272.527C198.6 273.201 198.91 272.817 199.378 272.801C200.438 272.765 201.862 272.812 202.82 272.689C203.287 272.63 203.814 272.444 203.293 272.05ZM83.9322 274.932C82.7093 275.292 82.0845 274.317 81.169 274.08C79.7119 273.704 76.7889 274.019 75.1203 273.982C73.2849 273.941 71.5404 273.381 69.5351 273.972C69.453 274.481 70.1798 274.331 70.5562 274.378C73.2547 274.716 76.5533 274.226 78.9554 274.627C79.7796 274.764 80.7071 275.49 81.8888 275.534C82.2381 275.547 83.8396 275.411 83.9322 274.932ZM129.053 279.727C129.616 279.124 125.789 276.555 125.311 276.272C121.687 274.129 115.561 272.119 112.737 276.373C112.534 277.235 113.538 276.687 113.695 276.85C113.898 277.06 113.317 278.077 113.375 278.126C113.508 278.24 116.275 277.062 114.654 279.086C114.846 279.243 118.084 277.302 116.254 280.046C117.082 280.191 118.137 278.773 118.826 279.234C119.145 279.448 118.893 280.314 119.935 280.056C120.002 280.039 120.419 278.817 121.052 279.411C121.274 279.618 120.564 280.802 120.737 281.008L123.136 279.736L123.457 280.692C125.189 279.229 125.272 280.266 126.319 280.342C127.039 280.395 128.201 279.618 129.053 279.727ZM77.3736 275.249C75.7946 274.846 70.1828 275.249 68.0935 275.249C68.0149 275.249 66.5605 275.562 66.6551 275.886C70.4246 276.05 74.0882 276.217 77.8535 275.886C77.864 275.684 77.4819 275.276 77.3736 275.249ZM160.734 275.249H156.094C156.04 275.249 155.591 275.68 155.614 275.886C157.018 275.826 158.461 276.023 159.856 275.808C160.143 275.763 160.818 275.67 160.734 275.249ZM190.49 279.406C190.928 278.057 191.574 276.719 191.451 275.249C190.529 275.704 190.309 277.397 190.213 278.33C190.177 278.683 189.923 279.482 190.49 279.406ZM152.091 275.57L148.425 277.82C145.585 278.765 142.446 278.704 139.713 279.988C138.388 280.61 137.505 281.667 136.315 282.35C132.557 284.508 122.806 284.036 118.374 283.529C115.216 283.168 111.606 282.722 109.052 280.69C107.768 284.356 116.122 286.45 118.688 286.735C122.253 287.131 131.861 286.407 135.032 284.907C137.756 283.618 139.106 281.096 142.652 280.988C143.892 280.95 144.884 281.402 146.132 281.304C147.207 281.22 150.864 280.129 151.744 279.539C153.509 278.354 152.358 277.22 152.091 275.57ZM158.494 276.852L156.254 276.852L156.577 279.727L158.494 276.852ZM175.826 284.143C176.22 284.415 176.604 283.747 176.975 283.649C177.488 283.513 179.182 283.724 178.973 282.774C178.926 282.564 176.316 280.116 175.88 279.783C172.828 277.461 170.14 277.17 166.339 277.494C163.699 277.719 161.285 278.123 160.419 280.855C160.107 281.84 161.572 280.599 161.656 281.484C161.673 281.665 161.242 282.156 161.375 282.287C161.542 282.45 162.566 281.82 162.972 281.97L162.334 283.566C162.767 283.92 165.518 280.869 164.254 284.206C165.285 284.095 165.565 282.894 166.813 283.251L166.177 284.849C166.392 285.101 169.746 281.487 169.057 284.848L170.82 283.572L171.297 284.849L173.058 283.571L173.538 284.849C174.155 284.664 174.434 283.815 175.026 283.617C175.956 283.307 175.686 284.046 175.826 284.143ZM156.577 285.489C156.646 286.889 157.804 288.02 158.842 288.821C164.157 292.927 180.435 292.446 185.994 288.828C187.586 287.792 189.683 284.949 191.605 284.901C193.3 284.859 193.668 285.326 195.582 284.337C198.095 283.039 198.131 281.575 197.056 279.091C194.861 281.74 191.311 281.571 188.67 282.864C187.142 283.611 186.164 285.175 184.409 285.963C178.552 288.593 168.833 288.769 162.585 287.639C160.493 287.26 158.467 286.451 156.577 285.489ZM145.374 286.449C144.409 284.663 141.539 284.663 140.574 286.449H145.374Z" fill="black"/>
<path d="M89.6709 24.3895C90.6876 27.7027 88.6356 27.7534 85.9177 28.4314C80.352 29.8198 74.618 30.5834 69.2124 32.689L70.3255 34.2911C70.2974 40.1832 69.0068 46.163 68.2542 52.0482C67.8618 55.1161 67.9419 59.3216 67.2176 62.2102C66.8192 63.7995 66.3887 63.0659 65.5831 63.2191C64.4201 63.4404 63.4073 64.0263 63.4249 61.9688C63.4446 59.6716 63.8579 56.3569 64.0939 53.968C64.6292 48.5489 65.2716 42.4091 66.0519 37.0458C66.1811 36.1575 66.2849 35.0481 66.9662 34.4455C66.5172 33.6907 65.4562 34.2127 64.7418 34.4563C62.7975 35.1191 58.5426 38.0079 56.8691 38.1231C55.9769 38.1845 54.2679 36.9392 54.6309 36.1975C55.184 35.0673 67.0626 30.1806 69.0403 29.4741C71.4556 28.6112 88.6323 23.6907 89.6709 24.3895Z" fill="black"/>
<path d="M122.335 50.9246C122.899 51.5819 125.142 48.0135 125.346 47.6993C126.242 46.3253 127.009 44.8343 127.728 43.3607C128.331 42.1252 128.411 39.7966 130.174 39.6945C133.618 39.4951 130.853 44.2784 130.477 46.1098C130.216 47.3775 129.475 51.6613 130.65 52.3842C131.529 52.9256 132.509 51.2666 133.054 52.5171C133.311 53.1077 132.335 54.5129 131.706 54.6991C128.667 55.5987 127.076 52.1873 127.45 49.6463C125.495 50.8866 124.042 55.2818 121.289 54.7099C118.903 54.2142 119.332 49.4957 119.542 47.6549C119.683 46.4143 121.247 39.6251 122.007 39.2368C122.765 38.8498 123.344 39.0575 123.695 39.8031C124.636 41.7988 121.592 48.2706 122.335 50.9246Z" fill="black"/>
<path d="M201.265 40.4742C204.681 43.8777 200.917 49.869 197.439 51.6309C196.748 51.9808 194.401 52.4546 194.159 52.8312C194.054 52.9942 193.706 55.7015 193.68 56.1925C193.599 57.7326 194.233 60.9071 193.949 61.8984C193.698 62.776 192.31 62.7821 191.834 62.3852C191.668 62.2469 191.176 58.714 191.137 58.1227C190.706 51.6167 192.028 45.1514 192.872 38.7455C193.96 37.7576 194.995 38.959 195.788 39.0708C197.715 39.3421 199.583 38.7987 201.265 40.4742ZM194.335 49.9642C199.783 49.5959 203.911 40.3102 195.617 41.0096L194.335 49.9642Z" fill="black"/>
<path d="M202.014 301.169C202.658 301.828 197.762 313.908 197.854 315.886C198.844 315.902 200.741 316.018 201.319 315.035C201.989 313.416 205.219 301.692 205.846 301.302C206.345 300.992 207.45 301.633 207.434 302.257L203.11 315.237C202.881 316.211 205.717 316.163 205.994 315.229L211.141 300.536C211.53 299.813 212.375 300.528 212.524 301.08C212.711 301.775 209.429 312.203 208.877 313.633C207.728 316.606 206.517 318.197 202.883 317.416C202.277 317.285 201.609 316.616 201.159 316.589C200.748 316.564 199.928 317.283 199.217 317.416C196.921 317.848 195.554 316.951 196.009 314.524C196.49 311.959 198.977 303.934 200.167 301.722C200.546 301.017 201.54 300.684 202.014 301.169Z" fill="black"/>
<path d="M79.6615 30.222C81.3308 30.1296 81.7393 31.3967 81.7031 32.8307C81.5579 38.5706 79.8618 45.2892 79.135 51.0873C78.8126 53.6594 78.8698 56.4479 78.4503 59.0426C78.0358 59.2298 76.5394 60.5078 76.414 60.5087C75.2111 60.5176 75.2513 57.6315 75.2817 56.8309C75.554 49.6652 76.555 40.6391 77.5374 33.4895C77.7421 31.9994 77.7701 30.3268 79.6615 30.222Z" fill="black"/>
<path d="M150.812 46.1228C151.363 46.2667 151.453 45.9029 151.775 45.6485C152.803 44.8358 157.595 38.6977 158.497 39.2269C158.692 39.6483 159.327 40.2152 159.405 40.6069C159.685 42.0288 154.478 46.0211 153.698 47.5661C154.942 48.3614 160.7 53.3498 158.507 54.9409C158.056 55.3123 157.738 55.0145 157.356 54.7814C156.396 54.1939 152.83 49.7837 152.257 49.7355C152.092 49.7216 150.039 50.8625 149.94 51.0134C149.379 51.8666 149.588 54.3431 149.534 55.4075C148.966 55.3671 147.785 55.6099 147.432 55.1065C147.165 54.7273 147.231 50.0307 147.297 49.1711C147.466 46.9977 148.464 41.2196 149.28 39.3141C149.915 37.8348 151.956 36.9846 152.386 38.3307C152.604 39.0113 150.832 44.8359 150.812 46.1228Z" fill="black"/>
<path d="M92.1599 41.7433C92.9547 42.3853 93.0181 44.0355 92.8696 44.9878C92.3857 48.0922 86.9168 51.6717 83.9359 52.0434C85.5163 57.4992 90.2673 53.1479 93.3787 52.212C93.7828 52.0904 94.0217 52.2904 93.8497 52.683C93.6911 53.0449 92.0284 54.8877 91.6153 55.2503C87.948 58.4691 81.7338 58.4468 81.0891 52.653C80.6056 48.3081 84.8926 41.6006 89.5224 41.3118C90.3107 41.2626 91.537 41.2401 92.1599 41.7433ZM90.6518 43.5682C87.6326 43.3733 85.1473 46.6009 84.5735 49.3252C85.4793 50.1349 91.6957 45.6552 90.6518 43.5682Z" fill="black"/>
<path d="M118.121 39.1339C118.652 39.9577 115.666 52.9961 115.789 55.1014C111.616 57.1815 114.39 48.6367 113.528 48.6814C112.549 49.1897 110.078 48.9875 109.365 49.6387C108.6 50.3378 108.895 54.2253 108.423 55.4243C106.735 55.7723 105.937 55.4665 105.999 53.661C106.094 50.9024 106.905 47.4914 107.29 44.6835C107.437 43.6083 107.063 39.8173 108.661 39.8026C112.071 39.7711 109.863 44.6318 109.854 46.7642C110.806 46.8697 113.987 46.642 114.49 45.8033C115.142 44.7171 115.677 38.4217 115.934 38.1274C116.296 38.228 118.056 39.0327 118.121 39.1339Z" fill="black"/>
<path d="M245.853 48.0463C245.656 47.8479 242.288 48.6205 242.004 48.8384C241.539 49.195 241.135 58.0784 238.876 54.2262C238.356 53.3405 238.707 50.0784 238.815 48.8494C238.928 47.5759 240.224 39.0023 240.715 38.6023C240.827 38.5113 242.706 38.308 242.927 38.9757C243.371 40.3193 242.087 44.1063 242.08 45.7328C242.076 46.8091 245.553 46.0275 246.005 45.4794C246.943 44.342 246.731 39.9626 247.292 38.7679C247.74 37.8151 248.933 38.1114 249.537 38.7655L248.348 53.9006C248.062 55.1781 246.089 54.6148 245.688 53.8125C245.033 52.5003 246.211 48.4065 245.853 48.0463Z" fill="black"/>
<path d="M228.816 54.6872C228.718 54.7945 228.197 55.0264 228.088 55.0099C227.529 54.9251 223.7 48.8593 223.45 47.7275C223.036 47.4082 219.207 53.3848 218.652 53.6669C218.103 53.9462 217.079 52.9208 216.877 52.5177C216.312 51.3852 221.203 46.7281 221.742 45.3247C221.791 44.4709 218.795 40.2672 218.693 39.188C218.61 38.3059 220.248 37.8761 221.074 38.4238C221.91 38.9781 223.372 42.6095 223.617 42.6101C224.873 42.6134 226.726 37.4766 228.724 37.7902C232.526 38.3868 225.638 44.188 225.386 45.6453C226.063 47.5615 230.441 52.9195 228.816 54.6872Z" fill="black"/>
<path d="M252.894 48.6889C253.636 52.0084 255.972 51.9285 258.862 51.2939C260.539 50.9255 261.962 49.7499 263.3 49.3304C263.509 49.2648 263.841 49.2655 263.772 49.4837C262.088 53.0658 257.585 55.234 253.776 53.7229C245.478 50.4307 253.342 35.4987 259.601 39.5784C263.922 42.3953 256.408 49.1311 252.894 48.6889ZM252.895 46.7639C254.935 46.9858 260.656 42.3577 257.69 40.8224C256.02 39.9576 252.679 45.1844 252.895 46.7639Z" fill="black"/>
<path d="M266.065 53.7568C265.236 52.4553 267.05 43.0258 267.611 41.0083C266.36 41.277 264.253 41.6213 263.039 41.2614C262.751 41.1762 261.22 39.6912 261.219 39.5669C261.215 39.2762 262.029 38.9002 262.357 38.7909C264.529 38.0665 273.565 37.1486 275.754 37.5052C277.423 37.7769 278.023 39.7012 276.9 40.2029C275.879 40.6586 271.471 40.3263 270.965 40.9986C270.163 44.3367 269.455 47.7319 268.933 51.1265C268.812 51.9122 269.102 54.5401 268.072 54.7638C267.962 54.7876 266.125 53.8515 266.065 53.7568Z" fill="black"/>
<path d="M285.132 26.3383C286.265 26.1332 287.431 27.0764 287.7 28.13C287.997 29.2913 286.102 35.1624 285.617 36.7703C284.48 40.5416 283.005 44.2621 281.839 48.0323C281.553 48.9583 281.621 51.7727 279.952 49.9471C278.454 48.3088 279.45 44.8659 279.869 42.8617C280.735 38.7117 282.348 31.4137 283.833 27.6259C284.107 26.9286 284.294 26.4901 285.132 26.3383Z" fill="black"/>
<path d="M102.166 41.3264C101.594 40.9045 98.6605 44.4502 98.2734 45.2685C96.9444 48.0779 96.3899 54.5978 101.066 53.1819C101.476 53.0575 104.456 51.1133 104.086 52.3599C103.09 55.7222 99.4065 57.4096 96.4301 55.2282C91.3853 51.5307 95.8011 40.3648 101.583 39.6191C105.628 39.0973 106.561 45.608 103.264 45.8077C100.894 45.9512 103.545 42.3446 102.166 41.3264Z" fill="black"/>
<path d="M184.327 40.1198C193.988 38.1024 189.89 54.9426 181.761 53.0989C176.2 51.8377 179.585 41.1099 184.327 40.1198ZM186.897 42.3632C184.691 40.0758 179.342 49.0501 182.407 50.8731C185.551 52.7424 189.065 44.611 186.897 42.3632Z" fill="black"/>
<path d="M172.576 52.8429C171.856 52.157 173.604 41.762 173.851 40.0482C171.888 40.2513 168.903 41.2819 168.731 38.4478C171.601 38.5446 181.861 34.8383 183.781 36.6821C184.358 37.2354 183.931 38.481 183.241 38.7144C182.213 39.0621 177.677 38.6964 176.89 39.724L175.085 52.6385C175.127 53.3166 172.676 52.9374 172.576 52.8429Z" fill="black"/>
<path d="M164.805 40.1218C167.61 39.5444 169.986 41.9426 169.982 44.6479C169.976 48.479 166.717 55.9619 161.837 53.5004C157.047 51.0847 160.373 41.034 164.805 40.1218ZM164.686 42.7223C162.973 44.2392 161.02 51.9221 163.767 51.8909C165.621 51.8699 167.64 47.5887 167.777 45.9663C167.954 43.8818 167.025 40.6524 164.686 42.7223Z" fill="black"/>
<path d="M206.796 38.7822C207.099 39.0897 206.133 44.3015 205.857 45.1662C214.303 42.2518 212.674 51.1421 206.583 53.4158C205.744 53.7289 202.627 54.3966 202.316 53.2854C201.973 52.0596 203.127 45.872 203.446 44.1988C203.642 43.1722 204.279 38.6703 205.082 38.5019C205.167 38.4841 206.735 38.7203 206.796 38.7822ZM209.006 46.4928C208.541 46.1974 205.94 46.8384 205.611 47.1628C204.983 47.7809 205.497 50.3629 204.894 51.2434C206.489 51.6034 210.729 47.5874 209.006 46.4928Z" fill="black"/>
<path d="M229.215 280.692C229.309 281.254 230.878 281.047 231.309 281.024C234.1 280.874 237.462 280.33 240.26 280.688C240.699 280.744 241.248 280.91 240.735 281.326L232.894 281.969C230.342 281.298 228.332 282.778 225.531 282.925C222.845 283.067 220.36 282.471 217.694 282.605C217.696 282.316 217.982 282.109 218.242 282.037C219.761 281.616 223.91 282.232 225.8 282.168L229.212 281.652C228.123 281.926 227.103 281.098 226.186 281.062C224.195 280.982 221.495 281.589 219.156 281.336C217.822 281.191 216.488 280.722 215.134 280.685C215.19 280.251 215.568 280.126 215.947 280.062C217.153 279.857 219.624 279.803 221.038 279.714C228.743 279.232 236.577 278.544 244.362 278.425C245.819 278.402 247.658 277.509 249.047 278.928L229.215 280.692Z" fill="black"/>
<path d="M224.34 300.604C224.601 300.872 225.051 302.787 225.052 303.248C225.06 305.768 221.162 310.198 218.976 311.413C218.886 311.922 219.399 311.758 219.705 311.666C220.771 311.342 220.983 310.682 222.295 311.448C225.762 313.474 218.664 319.466 216.907 316.516C215.893 314.812 217.78 308.601 218.507 306.622C219.04 305.168 222.1 298.296 224.34 300.604ZM223.45 301.808C221.87 300.412 219.496 308.127 219.615 309.167L221.986 306.901C222.323 305.883 224.433 302.676 223.45 301.808ZM218.336 313.009C218.367 313.594 218.092 316.166 218.811 316.201C219.472 316.232 221.997 313.89 221.855 313.176C221.625 312.021 219.132 313.736 218.336 313.009Z" fill="black"/>
<path d="M112.406 310.765C112.433 310.745 112.312 310.2 112.617 310.123C113.106 309.999 117.917 309.436 118.311 309.495C118.726 309.558 119.029 309.966 119.344 310.028C119.783 310.116 120.819 309.443 121.022 310.312C121.117 310.718 120.247 313.406 120.165 314.204C120.134 314.51 119.891 315.208 120.567 314.925C121.48 314.543 124.162 311.17 124.73 310.129C125.088 310.554 125.766 310.855 125.777 311.495C125.784 311.933 124.908 316.09 124.715 316.511C124.126 317.796 123.096 317.543 123.071 316.114C123.062 315.623 123.6 314.741 123.133 314.289C122.373 314.956 119.182 318.13 118.2 317.459C117.228 316.796 118.762 311.993 119.452 311.091C118.913 311.177 116.379 310.959 116.254 311.09C115.993 311.363 115.762 317.596 113.856 317.806C112.329 316.899 114.902 311.627 114.65 311.41C113.233 311.971 111.633 310.016 110.973 311.727C110.113 311.325 111.18 309.654 109.238 310.954C107.713 311.974 106.203 315.436 108.261 316.366C109.32 316.845 110.468 315.686 110.489 316.684C107.241 319.586 103.331 315.592 105.839 312.035C106.088 311.681 107.74 310.036 108.09 309.807C110.796 308.025 112.108 310.983 112.406 310.765Z" fill="black"/>
<path d="M158.408 306.201C157.945 306.664 157.321 306.555 157.034 305.962C156.743 305.361 158.397 303.551 156.667 303.122C154.925 302.69 151.853 308.05 151.297 309.494C150.662 311.141 148.775 317.261 152.429 316.067C153.376 315.757 154.604 313.392 155.29 315.404C151.28 320.11 147.59 318.654 148.291 312.249C148.671 308.784 153.228 301.034 157.36 301.81C158.921 302.103 159.568 305.042 158.408 306.201Z" fill="black"/>
<path d="M290.973 278.132C290.93 278.586 289.55 278.688 289.176 278.73C286.881 278.988 283.79 279.358 281.548 279.422C277.891 279.526 274.258 278.515 270.66 278.774C267.822 278.978 264.588 279.97 261.68 280.061C258.034 280.174 254.152 279.443 250.33 279.587C248.992 279.638 249.087 278.646 250.177 278.451C251.16 278.275 252.594 278.5 253.691 278.446C257.416 278.26 260.899 279 264.266 278.779C266.765 278.616 269.768 277.509 272.27 277.477C274.318 277.45 276.717 278.31 278.641 278.462C282.744 278.787 286.867 277.826 290.973 278.132Z" fill="black"/>
<path d="M216.682 39.7722C217.176 40.3373 215.037 48.0525 214.854 49.525C214.693 50.8154 215.404 54.3829 213.695 54.4531C211.488 52.4994 212.222 48.4748 212.654 45.7258C212.796 44.8228 213.98 39.8618 214.336 39.4086C214.758 38.8722 216.5 39.5636 216.682 39.7722Z" fill="black"/>
<path d="M165.504 309.207C165.55 309.24 165.465 309.745 165.74 309.813C167.253 310.188 168.961 309.185 169.555 311.708C170.152 314.248 168.282 316.179 165.935 316.774C165.476 316.89 164.376 316.769 164.27 316.867C164.06 317.06 163.59 321.506 163.336 322.497C163.254 322.818 163.465 323.512 162.818 323.246C161.261 322.606 161.859 319.659 162.108 318.384C162.711 315.292 164.16 312.238 164.897 309.17C165.096 309.178 165.366 309.107 165.504 309.207ZM168.014 311.167C165.716 308.874 164.843 314.748 164.896 316.209C166.497 315.774 169.59 312.74 168.014 311.167Z" fill="black"/>
<path d="M98.3251 315.889C99.0999 313.57 100.034 316.719 98.0216 317.364C96.4716 317.861 96.327 316.05 96.0862 315.891C95.4765 315.488 93.2281 318.94 91.7546 317.836C89.0871 315.839 94.9738 308.297 97.6878 309.638C99.3772 310.472 96.2979 314.708 98.3251 315.889ZM96.4104 311.41C94.2267 311.813 92.7593 314.081 92.8953 316.209C94.6046 315.075 95.6736 313.284 96.4104 311.41Z" fill="black"/>
<path d="M256.958 309.237C259.331 308.689 261.703 310.29 261.519 312.811C261.143 317.974 252.263 320.243 253.242 313.516C253.444 312.13 255.649 309.539 256.958 309.237ZM255.53 316.138C256.622 317.314 260.463 314.181 259.8 312.037C258.494 307.816 253.469 313.92 255.53 316.138Z" fill="black"/>
<path d="M186.331 315.249C186.17 315.085 183.34 317.733 182.366 317.475C181.912 317.355 181.669 316.493 181.855 316.213C182.033 315.946 183.74 316.175 183.772 315.572C179.718 315.338 183.709 311.08 185.525 310.12C187.141 309.266 189.465 308.662 189.195 311.216C188.952 313.517 187.075 315.579 188.895 317.962C187.686 319.295 186.221 316.382 186.331 315.249ZM187.293 311.091C186.04 310.526 183.604 313.271 183.773 314.122C183.842 314.468 184.304 314.68 184.739 314.455C185.171 314.232 187.736 311.497 187.293 311.091Z" fill="black"/>
<path d="M248.093 311.726C248.551 312.175 252.12 308.538 252.894 309.169C252.931 309.2 253.155 310.02 253.072 310.13C251.469 310.887 250.685 312.801 249.055 313.335C248.626 313.94 251.929 316.347 251.927 316.689C251.927 316.803 251.226 317.498 250.871 317.446C250.245 317.354 248.113 315.189 247.656 315.27C246.922 315.399 245.355 318.234 243.934 317.165C244.895 316.178 246.394 309.171 247.293 309.174C247.847 309.177 248.929 311.044 248.093 311.726Z" fill="black"/>
<path d="M135.774 314.927C136.328 315.071 136.413 314.697 136.734 314.451C137.766 313.659 140.121 310.618 140.886 310.277C141.191 310.141 141.891 310.534 142.037 310.767C142.234 311.078 140.223 317.589 139.927 317.808C138.592 318.795 138.741 314.526 139.289 313.969C138.277 314.655 135.644 317.273 134.592 317.445C132.814 317.733 133.871 314.18 134.081 313.398C134.271 312.691 135.244 309.336 135.927 309.49C137.552 309.855 135.34 313.701 135.774 314.927Z" fill="black"/>
<path d="M138.57 50.3705C140.978 52.6245 137.633 57.9595 135.432 59.3876C134.258 60.149 132.811 59.4333 133.267 58.1921C133.567 57.374 136.316 56.1023 136.419 54.2589C136.495 52.8986 134.435 52.6308 134.854 51.1517C135.194 49.9487 137.725 49.5786 138.57 50.3705Z" fill="black"/>
<path d="M239.772 309.49C240.517 310.061 239.413 312.094 239.275 312.679C239.068 313.552 241.222 313.569 241.858 313.012C242.441 312.501 243.165 308.013 244.426 309.798C245.006 310.619 243.939 311.783 243.701 312.614C243.443 313.514 242.788 317.369 242.353 317.666C240.821 318.712 240.751 315.394 241.374 314.611C238.364 314.338 238.898 314.602 238.066 316.909C237.951 317.226 237.954 318.088 237.379 317.805C236.858 317.548 236.873 316.869 236.867 316.373C236.858 315.615 238.476 308.499 239.772 309.49Z" fill="black"/>
<path d="M86.4925 313.967C87.1075 313.894 88.2763 314.171 88.7512 313.829C88.9616 313.677 89.9072 309.701 90.9697 310.771C91.5753 311.381 89.0493 316.693 90.0131 317.808C87.4901 319.023 88.7604 315.588 88.4126 315.248C88.1729 315.013 86.6081 315.252 86.154 315.712C85.8017 316.069 84.813 319.033 83.933 318.128C83.6193 317.805 85.2199 310.819 85.696 310.131C86.0655 309.598 86.981 310.286 87.0999 310.664C87.3171 311.354 86.3372 313.833 86.4925 313.967Z" fill="black"/>
<path d="M181.212 315.89C181.387 316.807 180.961 316.404 180.513 316.614C178.889 317.374 177.358 318.121 175.921 316.542C173.162 313.511 178.792 308.388 180.883 309.326C183.617 310.551 180.485 313.277 178.736 313.891C178.16 314.093 176.68 313.7 176.773 314.719C176.97 316.863 179.857 316.079 181.212 315.89ZM180.572 310.77C178.984 310.562 177.879 311.856 177.054 313.006C177.864 313.55 181.227 311.33 180.572 310.77Z" fill="black"/>
<path d="M158.202 313.994C157.902 314.347 158.226 315.761 158.811 316.048C160.352 316.805 161.264 315.592 161.534 315.574C163.149 315.47 160.449 317.318 159.217 317.42C155.022 317.77 155.575 311.974 159.088 309.923C162.884 307.708 164.523 311.349 160.094 313.487C159.615 313.718 158.265 313.919 158.202 313.994ZM158.495 312.686C159.326 313.005 161.499 311.261 161.372 310.613C161.104 309.243 158.064 312.309 158.495 312.686Z" fill="black"/>
<path d="M231.772 313.969C231.716 317.56 233.989 315.711 235.77 315.884C236.867 315.991 234.475 317.292 233.779 317.416C226.354 318.746 232.285 306.426 236.125 309.458C238.452 311.296 233.588 314.513 231.772 313.969ZM235.612 310.451C234.881 309.524 232.268 311.779 232.094 312.685C232.943 313.149 236.169 311.157 235.612 310.451Z" fill="black"/>
<path d="M226.31 309.834C226.788 310.454 225.446 312.771 225.696 313.648C226.244 313.098 227.77 313.129 228.098 312.693C228.433 312.25 228.643 310.022 229.194 309.627C229.734 309.239 230.649 309.766 230.706 310.281C230.743 310.617 228.869 316.058 228.592 316.707C228.075 317.92 226.898 318.146 226.762 317.015C226.681 316.345 227.824 315.153 227.611 314.289C227.243 313.926 224.197 316.251 223.833 313.736C223.714 312.914 225.202 308.398 226.31 309.834Z" fill="black"/>
<path d="M131.157 313.208C131.072 313.316 130.829 313.325 130.681 313.355L130.686 313.766C130.961 314.287 132.522 316.357 132.49 316.691C132.309 318.609 129.964 315.726 129.532 314.934C129.065 315.453 126.38 317.577 125.852 317.167C124.644 316.227 128.266 314.565 128.605 313.337C128.897 312.282 126.764 310.631 128.252 309.495L130.172 312.042C130.688 312.055 132.613 308.462 133.532 309.974C133.713 310.671 131.719 312.493 131.157 313.208Z" fill="black"/>
<path d="M211.293 313.97C211.288 316.875 212.618 316.215 214.697 315.93C214.928 315.898 216.084 315.659 215.617 316.21C204.878 321.845 211.474 306.145 215.645 309.458C217.993 311.323 213.131 314.319 211.293 313.97ZM211.616 313.007C212.432 313.344 215.115 311.36 215.128 310.928C215.166 309.589 211.124 311.567 211.616 313.007Z" fill="black"/>
<path d="M280.324 53.2587C282.966 55.5235 279.76 59.4238 277.046 57.0135C274.562 54.8067 277.529 50.8623 280.324 53.2587Z" fill="black"/>
<path d="M172.616 309.852C172.856 309.658 177.375 308.947 177.051 310.285C176.616 311.242 174.57 310.755 174.335 311.07C173.728 311.883 173.062 317.782 171.783 317.485C171.49 317.417 171.132 316.9 171.121 316.511C171.11 316.098 172.351 310.067 172.616 309.852Z" fill="black"/>
<path d="M263.774 282.289C263.781 282.833 263.955 282.985 263.321 282.906C260.655 282.574 258.229 282.72 255.613 282.353C254.718 282.547 244.571 283.206 244.569 282.448C246.748 281.918 249.21 281.504 251.454 281.395C253.853 281.278 255.616 281.777 257.858 281.963C259.809 282.124 261.82 281.871 263.774 282.289Z" fill="black"/>
<path d="M260.251 273.645C259.721 274.4 245.033 272.957 242.974 273.17C243.887 272.625 246.204 272.426 247.292 272.433C248.732 272.442 250.644 272.982 252.078 273.021C254.43 273.084 256.867 272.403 259.148 272.672C259.555 272.72 260.688 273.023 260.251 273.645Z" fill="black"/>
<path d="M273.372 285.173L268.73 286.155C266.886 285.906 264.855 285.724 262.993 285.805C260.932 285.895 258.311 286.733 256.497 286.69C255.956 286.677 255.787 286.291 255.455 285.968C261.393 285.152 267.372 285.057 273.372 285.173Z" fill="black"/>
<path d="M67.6125 279.405C62.6259 279.257 57.6117 280.199 52.6916 279.143C52.1023 279.016 51.7878 279.325 51.934 278.45C54.6229 278.582 57.4056 278.974 60.0925 279.024C62.048 279.06 64.402 278.52 66.5043 278.756C66.9833 278.81 67.4915 278.823 67.6125 279.405Z" fill="black"/>
<path d="M215.933 278.768C215.514 278.78 214.6 279.682 214.174 278.452C218.167 277.907 222.278 277.507 226.332 277.49C226.22 279.069 225.325 278.381 224.607 278.48C224.297 278.523 224.013 278.768 223.933 278.768C221.272 278.768 218.592 278.695 215.933 278.768Z" fill="black"/>
<path d="M248.411 288.37C248.551 289.2 248.286 288.944 247.72 289.1C245.877 289.608 244.702 289.032 243.179 289.118C240.734 289.256 237.767 290.618 234.975 289.966C234.434 289.557 235.013 289.385 235.45 289.331C239.707 288.796 244.124 288.59 248.411 288.37Z" fill="black"/>
<path d="M232.411 285.812C232.488 286.368 231.683 286.114 231.297 286.128C230.126 286.171 228.946 286.065 227.777 286.131C225.793 286.242 223.495 287.296 221.854 285.491C225.395 286.519 228.934 284.828 232.411 285.812Z" fill="black"/>
<path d="M103.13 287.412C102.959 287.841 101.465 287.96 101.013 288.011C99.2666 288.206 96.9868 288.381 95.2947 288.044C94.8312 287.952 94.3035 288.054 94.1719 287.412C97.1954 287.842 100.162 286.944 103.13 287.412Z" fill="black"/>
<path d="M75.6103 283.571L75.1354 284.212C72.2685 283.821 69.3394 284.064 66.5001 283.554C65.9333 283.453 65.5432 283.907 65.6935 282.931L75.6103 283.571Z" fill="black"/>
<path d="M215.453 282.612C215.333 283.193 214.826 283.207 214.347 283.261C211.182 283.619 207.794 282.912 204.575 283.567C204.288 283.351 204.358 282.937 205.023 282.972C208.388 283.149 212.064 282.631 215.453 282.612Z" fill="black"/>
<path d="M308.252 271.411C308.095 271.982 306.659 272.038 306.187 272.059C305.646 272.084 303.139 272.218 303.14 271.568C303.14 270.49 307.505 271.545 308.252 271.411Z" fill="black"/>
<path d="M80.4114 283.251C80.5632 284.165 80.2184 283.783 79.6718 283.933C78.5768 284.234 76.8477 284.596 75.9346 283.728L80.4114 283.251Z" fill="black"/>
<path d="M166.653 114.287C165.095 114.495 162.093 115.998 161.747 117.723C161.37 119.6 163.174 124.136 165.392 124.509C166.727 124.732 175.534 123.692 176.093 122.922C174.573 120.601 177.346 121.294 177.376 122.433C177.422 124.185 172.157 126.233 170.656 126.609C168.707 127.097 165.597 127.428 163.669 126.871C159.504 125.668 156.904 117.784 160.404 114.757C161.081 114.172 163.29 113.336 163.464 113.026C163.596 112.791 163.245 112.102 163.315 111.62C163.541 110.052 163.924 107.691 165.767 107.303C169.424 106.533 168.49 112.726 168.749 112.993C168.879 113.127 172.189 113.285 172.247 114.127C172.301 114.915 171.494 114.287 171.453 114.287C169.998 114.287 168.011 114.105 166.653 114.287Z" fill="black"/>
<path d="M187.614 124.208C189.4 124.145 190.827 123.361 192.388 124.71C193.315 125.511 194.596 128.182 193.862 129.336C192.971 130.736 191.469 126.771 190.973 126.772C186.53 132.662 176.827 135.104 169.87 133.148C168.641 132.803 164.96 131.322 164.622 130.071C164.043 127.927 166.886 130.309 167.603 130.615C173.297 133.043 180.95 131.779 186.227 128.74C186.963 128.316 189.127 126.884 189.543 126.29C190.399 125.069 187.341 125.465 187.614 124.208Z" fill="black"/>
<path d="M213.536 123.567C213.473 119.522 210.46 120.89 208.095 122.293L209.554 124.824C210.528 127.242 208.191 130.305 205.854 128.842C205.722 128.23 207.184 127.529 207.386 126.862C207.971 124.93 206.793 123.772 204.891 123.886C204.73 120.837 210.308 117.849 212.887 118.935C214.381 119.564 215.307 122.638 213.536 123.567Z" fill="black"/>
<path d="M183.675 117.068C181.76 118.838 180.021 116.659 179.691 114.691C179.316 112.459 180.439 107.847 183.455 109.325C185.265 110.213 185.117 115.735 183.675 117.068Z" fill="black"/>
<path d="M181.208 96.3692C181.256 96.4111 181.294 97.0123 181.679 97.3287C183.929 99.1743 186.105 99.0871 188.375 100.245C191.533 101.856 191.668 105.076 191.131 108.205L189.481 104.58C187.898 101.817 183.324 102.09 181.525 99.7355C180.859 98.8632 180.064 95.371 181.208 96.3692Z" fill="black"/>
<path d="M171.182 99.455C169.684 101.024 166.263 100.731 164.353 101.747L162.015 103.405C162.22 98.4101 168.319 98.8064 171.446 96.3652C172.401 97.1648 171.941 98.6601 171.182 99.455Z" fill="black"/>
<path d="M195.933 118.125C193.974 117.887 191.996 117.877 190.01 117.807C189.624 117.794 188.82 118.047 188.896 117.491C190.936 116.995 192.786 116.907 194.829 117.472C195.268 117.593 195.823 117.513 195.933 118.125Z" fill="black"/>
<path d="M152.411 169.97C153.465 170.803 149.384 171.103 149.04 171.089C148.324 171.059 147.715 170.492 146.836 170.606C146.013 170.714 145.409 171.749 144.548 171.885C143.28 172.085 142.308 171.156 141.388 171.249C140.663 171.322 139.514 172.554 138.379 172.678C137.066 172.821 135.65 171.542 135.338 171.6C135.065 171.65 132.879 173.356 132.037 173.432C131.529 173.477 130.946 172.607 130.141 172.523C128.996 172.403 128.296 173.474 127.285 173.454C126.481 173.439 125.867 172.581 125.06 172.562C124.184 172.541 123.249 173.444 122.498 173.457C121.177 173.478 120.276 171.851 119.136 173.808C118.881 170.924 121.199 172.773 122.498 172.706C123.202 172.67 123.998 171.86 125.025 171.907C125.842 171.943 126.787 172.73 127.294 172.728C127.849 172.727 128.578 171.865 129.535 171.867C130.433 171.87 131.006 172.639 132.063 172.529C133.083 172.424 134.072 171.126 135.049 170.982C136.006 170.842 136.844 171.969 138.166 171.911C139.393 171.858 140.353 170.716 141.401 170.613C142.409 170.514 143.413 171.237 144.21 171.158C145.013 171.077 146.382 169.797 147.131 169.776C147.613 169.763 148.515 170.26 149.364 170.305C150.463 170.364 151.36 170.124 152.411 169.97Z" fill="black"/>
<path d="M139.61 176.369C139.762 177.195 139.462 176.935 138.975 177.156C135.735 178.631 135.133 177.193 133.07 177.333C132.148 177.396 131.477 178.456 130.767 178.532C130.027 178.611 128.509 177.644 127.598 177.684C127.001 177.71 126.569 178.249 125.988 178.291C125.228 178.346 124.762 177.715 124.109 177.688C123.525 177.663 122.713 178.16 122.012 177.964C123.166 176.109 124.822 177.574 125.684 177.627C126.393 177.671 127.259 176.891 128.533 177.022C129.352 177.107 130.204 177.839 130.499 177.855C130.997 177.88 132.308 176.539 133.13 176.42C133.725 176.333 134.996 177.048 136.258 177.028C137.562 177.006 138.388 176.488 139.61 176.369Z" fill="black"/>
<path d="M125.533 183.407C124.891 182.835 126.811 182.158 127.292 182.115C129.263 181.94 130.544 183.358 130.815 183.357C131.163 183.356 131.63 181.747 133.673 182.14C134.238 182.249 134.612 182.796 135.29 182.802C136.146 182.809 136.636 181.973 137.548 181.824C138.14 181.728 141.526 181.621 141.525 182.288C141.525 183.332 137.713 182.46 137.257 182.537C136.796 182.614 136.38 183.347 135.594 183.403C134.74 183.465 133.91 182.727 133.041 182.748C132.082 182.771 131.655 183.66 130.795 183.722C129.721 183.8 128.755 182.825 127.906 182.77C127.239 182.726 125.869 183.705 125.533 183.407Z" fill="black"/>
<path d="M130.015 189.485C129.47 189.013 131.215 188.247 131.48 188.209C132.775 188.022 135.657 188.841 137.171 188.743C137.522 188.721 139.682 187.52 139.607 188.367C139.585 188.618 137.565 189.448 137.183 189.484C135.829 189.611 132.742 188.716 131.46 188.845C131.055 188.886 130.302 189.734 130.015 189.485Z" fill="black"/>
<path d="M148.57 181.167C148.7 183.53 146.318 181.855 145.54 181.835C144.968 181.82 143.472 182.737 143.135 182.445C142.244 181.675 145.475 181.113 146.092 181.222C147.036 181.388 147.374 182.392 148.57 181.167Z" fill="black"/>
<path d="M147.612 176.051C146.833 177.801 144.437 176.229 142.812 176.684C144.015 175.136 146.033 176.239 147.612 176.051Z" fill="black"/>
<path d="M154.012 180.531C153.357 182.013 152.342 180.946 151.608 180.969C151.069 180.985 150.153 182.134 149.853 181.806C149.272 181.17 150.614 180.423 151.125 180.357C152.021 180.24 153.049 180.724 154.012 180.531Z" fill="black"/>
<path d="M153.371 175.41C153.344 177.062 150.597 175.668 149.532 176.045C150.238 174.843 152.212 175.608 153.371 175.41Z" fill="black"/>
<path d="M259.296 157.165C259.38 157.248 260.07 157.289 260.26 156.954C260.7 156.176 260.33 154.328 261.378 153.648C263.061 154.091 261.496 156.265 261.856 157.485C263.302 157.671 262.594 154.358 263.138 153.968C264.002 153.349 264.126 155.364 264.116 155.729C263.932 162.5 260.889 173.007 259.653 180.086C258.864 184.604 258.37 189.193 257.601 193.714C256.953 197.527 255.745 201.284 255.774 205.168L251.933 204.845L252.253 202.286C250.239 201.867 251.135 203.319 250.976 204.849L249.374 204.846C249.133 204.612 250.464 199.175 250.616 198.249C252.891 184.374 254.937 170.213 257.795 156.467C257.917 155.88 258.278 153.471 259.13 153.649C260.256 153.884 259.05 156.926 259.296 157.165ZM259.933 159.086C259.85 159.005 259.163 158.966 258.97 159.302C258.547 160.036 258.492 162.583 258.336 163.565C259.772 163.853 260.113 159.261 259.933 159.086ZM262.173 159.408C261.321 159.201 261.405 159.988 261.246 160.549C260.923 161.689 260.793 162.698 260.896 163.885C261.763 164.033 261.447 163.725 261.621 163.189C261.994 162.037 262.196 160.625 262.173 159.408ZM258.653 165.488C257.526 165.231 256.889 169.483 257.056 169.645C258.244 170.797 258.812 166.229 258.653 165.488ZM260.572 170.286C260.568 169.643 261.868 165.495 260.734 165.493C260.455 165.493 258.65 170.503 260.572 170.286ZM257.373 171.569C256.252 171.492 256.074 173.984 255.979 174.827C255.938 175.187 255.603 175.913 256.259 176.045C257.438 176.283 257.46 172.213 257.373 171.569ZM260.253 171.888C260.218 171.855 259.331 171.853 259.296 171.885C259.131 172.041 258.492 176.212 258.656 176.368C258.721 176.43 259.354 176.328 259.613 176.369C259.366 175.607 260.533 172.156 260.253 171.888ZM255.619 177.649C255.254 177.719 254.778 180.653 254.704 181.24C254.553 182.43 255.61 182.478 256.024 181.577C256.312 180.952 256.907 177.399 255.619 177.649ZM258.973 177.965C258.891 177.886 258.182 177.878 257.986 178.154C257.748 178.488 257.214 182.29 257.376 182.448C257.733 182.401 258.099 182.636 258.364 182.259C258.709 181.767 259.239 178.224 258.973 177.965ZM254.176 183.726C254.051 183.84 253.539 186.895 253.574 187.06C253.962 188.867 255.788 186.521 255.467 184.536C255.357 183.857 254.547 183.385 254.176 183.726ZM257.693 187.889C257.806 187.774 258.204 184.957 258.207 184.705C258.22 183.753 257.179 183.746 256.706 184.819C256.581 185.104 256.099 187.242 256.131 187.383C256.263 187.959 257.569 188.017 257.693 187.889ZM254.137 192.327C254.405 192.109 254.944 188.877 253.699 189.169C253.133 189.301 252.824 191.754 252.896 192.367C253.243 192.31 253.937 192.49 254.137 192.327ZM256.413 193.969C255.376 192.905 254.245 196.943 255.299 197.165C256.207 197.357 256.534 194.094 256.413 193.969ZM252.888 198.454C252.854 198.411 252.017 198.048 251.776 198.445C251.64 198.668 251.219 200.302 251.295 200.365C252.395 201.119 253.362 199.056 252.888 198.454Z" fill="black"/>
<path d="M249.915 205.55C251.14 205.182 253.511 205.605 254.743 206.039C261.634 208.464 262.125 219.474 255.683 222.518C255.416 222.644 252.607 223.677 252.399 223.712C251.279 223.899 248.269 223.744 247.445 222.937C246.23 221.746 248.704 211.387 248.452 209.206C248.761 208.218 248.763 205.896 249.915 205.55Z" fill="black"/>
<path d="M261.532 248.688C261.924 248.169 262.113 248.693 262.173 249.162C262.447 251.316 262.176 253.959 262.215 256.167C262.226 256.762 262.528 257.392 262.524 258.128C262.521 258.669 262.508 260.774 261.532 260.528V248.688Z" fill="black"/>
<path d="M264.414 250.128C264.446 250.005 264.975 249.552 265.051 249.649C265.301 252.028 265.782 255.295 265.146 257.596C264.989 258.165 265.248 258.422 264.414 258.289C264.787 256.075 263.911 252.098 264.414 250.128Z" fill="black"/>
<path d="M243.929 258.609C243.75 258.805 243.244 258.804 243.315 258.158C243.586 255.697 244.606 251.523 246.169 249.649L243.929 258.609Z" fill="black"/>
<path d="M267.611 246.766C267.837 247.048 268.022 253.296 267.945 253.98C267.89 254.458 267.879 254.966 267.297 255.087C266.9 252.647 266.661 249.689 266.977 247.245C267.033 246.811 267.183 246.232 267.611 246.766Z" fill="black"/>
<path d="M245.857 260.528C246.188 257.959 246.343 254.526 248.091 252.528C247.631 255.094 247.592 258.53 245.857 260.528Z" fill="black"/>
<path d="M259.292 262.128C258.618 261.949 258.625 261.251 258.626 260.691C258.627 259.221 259.078 256.843 259.453 255.409C260.798 257.429 259.18 259.968 259.292 262.128Z" fill="black"/>
<path d="M178.649 202.607C177.582 201.946 178.626 198.753 178.959 197.634C179.087 197.205 178.985 196.641 179.609 196.529C180.867 199.249 179.714 200.249 178.649 202.607Z" fill="black"/>
<path d="M100.886 146.289C101.138 146.518 101.169 147.663 102.401 147.843C103.699 148.033 102.961 146.762 104.09 146.929C104.216 149.948 100.843 148.813 100.269 146.747C100.105 146.157 100.697 146.119 100.886 146.289Z" fill="black"/>
<path d="M187.294 258.925C187.273 258.462 188.451 258.44 188.826 258.382C191.223 258.013 192.491 257.585 194.756 256.948C195.329 256.787 195.415 256.444 195.926 257.169C193.439 258.918 190.247 259.066 187.294 258.925Z" fill="black"/>
<path d="M160.095 147.248C160.488 145.353 160.43 142.66 161.688 141.168C161.523 143.038 161.371 145.833 160.095 147.248Z" fill="black"/>
<path d="M95.7712 273.328H88.4111V273.968H95.7712V273.328Z" fill="black"/>
<path d="M233.371 227.25C233.776 227.597 232.941 228.077 232.596 228.231C231.251 228.833 226.257 230.043 224.881 229.969C224.194 229.933 223.536 229.479 222.65 229.46C221.612 229.437 220.658 229.919 219.614 229.805C219.843 229.214 221.216 229.046 221.78 228.935C223.437 228.608 225.226 228.731 226.781 228.496C227.746 228.35 233.026 226.953 233.371 227.25Z" fill="black"/>
<path d="M234.011 229.169C234.175 230.076 233.793 229.694 233.309 229.888C231.207 230.734 228.592 231.422 226.334 231.406C226.153 230.567 226.663 230.742 227.22 230.55C229.21 229.868 231.903 229.551 234.011 229.169Z" fill="black"/>
<path d="M235.825 226.973C238.086 226.211 238.686 229.864 236.113 229.497C234.6 229.281 234.805 227.317 235.825 226.973Z" fill="black"/>
<path d="M215.999 231.124C217.993 230.616 217.855 235.149 215.278 233.664C214.011 232.934 215.143 231.343 215.999 231.124Z" fill="black"/>
<path d="M166.172 230.448C166.063 232.198 164.267 231.089 163.417 231.118C161.698 231.177 160.871 231.673 158.913 231.131C158.364 230.98 158.025 231.365 158.172 230.448H166.172Z" fill="black"/>
<path d="M163.934 228.848C163.943 230.428 160.98 229.756 159.936 229.486C159.492 229.371 158.936 229.496 158.814 228.848H163.934Z" fill="black"/>
</g>
</g>
<defs>
<clipPath id="clip0_194_1358">
<rect width="350" height="350" fill="white"/>
</clipPath>
<clipPath id="clip1_194_1358">
<rect width="277.826" height="298.983" fill="white" transform="translate(36.1865 24.3218)"/>
</clipPath>
</defs>
</svg>
