<svg preserveAspectRatio="none" width="100%" height="100%" overflow="visible" style="display: block;" viewBox="0 0 423 96" fill="none" xmlns="http://www.w3.org/2000/svg">
<g id="Group">
<path id="Vector" d="M302.889 64.473C306.921 64.0048 309.921 62.8844 314.138 63.0412C314.482 63.054 315.197 62.8264 315.129 63.3237L301.768 65.9199L301.91 67.0511C305.939 66.604 309.873 65.2977 313.887 64.7945C315.083 64.6446 316.936 64.3729 318.052 64.5448C318.302 64.5835 318.909 64.6688 318.831 65.0411C312.793 65.9538 306.796 67.2215 300.894 68.7665C301.021 69.0241 301.181 69.3127 301.051 69.6094C300.953 69.8326 298.162 72.8549 297.769 73.2011C294.527 76.0575 289.32 77.0699 285.088 76.7845C283.096 76.6501 281.98 75.902 280.288 75.3432C276.701 76.8318 273.207 78.4691 269.516 79.7109C264.923 81.2567 258.896 83.3256 254.271 84.4167C253.601 84.575 249.364 85.7561 249.658 84.36C250.101 83.7782 250.727 83.5016 251.369 83.2167C256.402 80.9859 263.471 79.2701 268.877 77.3519C270.878 76.642 272.842 75.7414 274.841 75.0483C275.661 74.7641 277.357 74.6201 277.844 74.3471C278.313 74.0843 277.455 72.8904 277.148 73.0441L251.575 81.7067C249.684 82.1647 246.2 85.5921 244.434 85.0308C243.647 84.7804 244.296 83.9593 244.249 83.9287C243.323 83.322 240.918 86.3645 240.071 87.0252C232.51 92.9253 218.356 92.3386 209.521 89.7883C207.136 89.0998 207.18 88.5245 205.939 86.5072C202.968 87.6568 199.695 89.4047 196.424 88.9351L200.262 86.4982L186.51 89.2971C186.213 89.3669 184.814 89.1355 184.75 89.0739C184.245 88.5895 184.937 88.5898 185.155 88.4784C187.653 87.2002 190.655 86.7472 193.279 85.7743C193.834 85.5684 194.744 85.3656 194.999 84.7879C193.69 85.1204 192.324 85.2165 191.004 85.4908C187.186 86.2839 179.975 89.028 176.635 89.0758C176.106 89.0834 175.607 88.7637 175.072 88.7876C174.951 88.6682 175.732 87.9501 175.951 87.815C177.525 86.8436 181.031 85.9242 182.969 85.1366C183.557 84.8979 183.688 84.734 182.935 84.8142C177.185 85.6912 171.676 87.9346 165.972 88.9437C164.593 89.1877 162.826 89.8634 161.698 88.6477C161.699 87.6637 171.655 85.0171 173.15 84.4245C173.452 84.305 173.999 84.3409 173.931 83.9296C171.391 84.577 168.751 84.6291 166.189 85.1565C163.663 85.6766 157.741 87.9771 155.589 87.6413C155.254 87.589 154.909 87.4578 154.86 87.0775L163.968 83.6437C155.803 83.5778 147.483 87.3541 139.349 86.7843C137.387 86.6469 130.29 85.5087 129.083 84.2266C128.417 83.5189 128.045 82.2454 127.363 81.3772C125.222 78.6504 121.064 77.4707 118.712 74.6223C115.018 70.1484 114.202 60.9639 116.373 55.6891C116.886 54.4416 118.249 53.7843 118.375 53.4104C118.594 52.7647 118.329 51.6962 118.451 50.9119C120.168 39.9022 137.86 34.8826 146.956 32.0661C148.501 31.5877 151.338 31.2499 152.578 30.564C152.834 30.4226 152.974 30.3469 152.714 30.1446C147.347 25.9566 156.549 24.4127 159.593 24.1682C160.862 24.0663 163.346 24.5754 164.049 24.3644C164.396 24.2605 166.91 21.7765 167.535 21.2768C185.151 7.18158 201.37 5.70625 223.321 4.95877C245.889 4.19029 267.83 6.54833 285.245 22.2671C287.179 24.0127 290.82 28.4948 292.819 29.532C294.17 30.2327 297.402 30.5372 299.264 31.3516C303.631 33.2612 305.158 37.4615 306.167 41.8664C307.14 46.1113 308.144 55.9785 305.576 59.5887C304.323 61.3497 302.119 61.3114 302.889 64.473ZM302.321 58.7496C303.296 59.0568 304.065 57.2883 304.25 56.5399C305.478 51.5796 303.985 38.8702 300.685 34.7875C298.606 32.2147 294.891 32.2622 292.13 31.3689C289.136 30.4 283.986 23.8255 281.259 21.4087C264.268 6.35169 239.98 5.7847 218.482 6.67541C194.886 7.653 177.948 11.0609 161.831 29.5636C161.499 29.9445 160.408 31.7328 160.273 31.5664C160.371 30.8062 159.922 30.9503 159.315 31.0229C156.355 31.377 152.118 32.6059 149.167 33.4302C141.285 35.6321 133.511 38.5993 126.685 43.154C130.431 47.4255 132.662 51.6868 132.087 57.6067C130.351 57.5154 128.555 57.7296 126.823 57.6015C125.464 57.501 119.387 56.0516 118.898 56.2108C117.605 56.6319 117.752 62.2439 117.839 63.4832C118.666 75.2076 126.361 75.9532 135.964 77.3109C152.281 79.6178 169.111 79.9966 185.45 80.2193C194.371 80.3408 203.013 80.7158 211.859 79.2705C214.492 78.8402 219.19 78.4676 219.195 75.0592C218.897 74.7765 212.184 76.0787 211.081 76.1999C207.129 76.6339 201.864 77.2727 197.989 77.346C197.708 77.3513 196.444 77.2197 196.424 76.7771C204.457 76.1404 212.437 74.829 220.272 72.991L221.472 62.184L215.277 63.968C214.893 66.8933 214.152 69.6937 213.215 72.481C212.708 72.5303 212.913 71.5163 212.938 71.2003C213.089 69.2107 214.003 66.6691 214.071 64.8958C214.089 64.4221 214.284 64.1326 213.667 64.2023C210.734 64.5338 207.937 65.7698 204.964 65.9051C205.42 66.5302 206.331 66.5695 206.968 67.1773C209.111 69.2236 206.81 72.707 204.68 73.7727C201.118 75.555 188.6 76.2384 184.373 76.0921C179.57 75.926 183.113 71.2524 184.452 68.8875L183.612 67.3344C196.563 65.7093 209.51 63.8096 222.139 60.4901C224.142 53.2759 230.205 43.5289 238.996 46.4322C239.917 46.7363 241.862 48.1455 242.396 48.1454C243.435 48.1451 247.046 45.8559 248.402 45.5982C248.366 43.5517 247.334 41.837 245.956 40.4417C246.663 40.3701 247.182 40.6891 247.664 41.154C248.461 41.9241 249.416 45.0099 250.026 44.9755C256.091 42.5833 262.254 40.4145 268.66 39.081C269.626 38.6908 269.253 37.5867 269.302 36.7209C269.993 37.0146 269.525 38.7183 270.517 38.6735C276.35 36.9903 282.251 35.2087 288.371 35.0057L271.576 39.5834C271.031 40.1129 271.393 39.9788 271.88 40.0419C272.658 40.1427 273.371 40.2821 274.137 40.4407L273.286 41.301L274.136 42.0085C273.354 42.8435 272.475 43.2431 272.708 44.5797C273.039 46.4814 274.54 43.6424 275.56 43.8735C275.597 44.2724 275.561 44.6476 275.434 45.0306C275.324 45.3616 274.292 46.2845 275.139 46.4459C276.438 46.6932 277.231 41.9488 278.124 42.7305C277.443 43.4961 278.167 44.5929 278.06 45.128C278.025 45.3077 276.875 46.9256 276.798 47.1046C275.707 49.6569 279.017 46.4793 279.261 46.7347L278.411 49.5941C281.55 47.5606 280.217 42.2398 283.53 40.1527C282.212 45.8983 280.688 51.6412 280.685 57.6065L282.555 57.3382C282.948 52.4757 285.974 41.1912 291.723 40.4947C294.211 40.1934 297.581 42.8612 299.055 44.7227C300.083 46.0209 302.321 50.1815 302.321 51.74V58.7496ZM162.546 25.8503C161.471 25.8735 160.385 25.7836 159.309 25.8843C158.581 25.9524 153.364 27.0495 153.154 27.2862C153.094 27.3532 153.17 28.9971 153.201 29.0813C153.802 30.7228 158.394 29.1948 159.794 29.579C160.475 28.1051 161.51 27.0554 162.546 25.8503ZM267.589 41.0138C266.527 41.3235 264.328 41.5948 263.496 42.1871C262.89 42.6185 262.99 43.2138 262.548 43.6011C260.278 45.5947 255.121 46.7194 252.653 49.0295C251.31 50.2864 252.134 50.7733 253.444 49.8238L267.589 41.0138ZM269.581 42.7294C266.661 44.2406 263.564 45.3948 260.783 47.1864C260.335 47.475 256.379 50.0581 257.059 50.7372L269.594 44.0122C270.089 43.6569 269.61 43.2 269.581 42.7294ZM300.895 57.0315C301.498 51.667 298.317 41.005 291.15 44.2323C286.227 46.4495 285.256 56.7661 285.528 61.4646C285.709 64.5959 287.163 73.2926 291.619 72.7621C292.405 72.6686 295.23 71.2935 295.915 70.7648C300.305 67.3743 299.599 57.424 298.314 52.6197C297.584 49.8874 295.837 45.0177 292.208 47.0131C288.184 49.2258 287.523 60.1496 288.214 64.2017C288.648 66.7468 289.798 70.6568 292.641 71.1938C289.022 73.8223 286.92 67.25 286.452 64.5416C285.502 59.0371 286.271 42.6913 294.997 44.5108C297.751 45.085 299.669 50.2785 300.189 52.7383L300.895 57.0315ZM130.091 56.7459C130.01 52.8314 129.798 50.4065 127.483 47.2106C125.281 44.1703 124.778 43.8797 122.574 47.3303C121.57 48.9022 120.116 51.9055 121.045 53.6822C122.013 55.5339 128.079 56.4196 130.091 56.7459ZM270.436 45.8763C270.187 45.6241 269.517 46.1431 269.262 46.2665C266.51 47.5948 262.451 49.9973 259.812 51.6467C257.646 53.0004 255.277 54.8034 253.357 56.4579C256.041 55.2649 258.269 53.1835 260.853 51.8349C263.47 50.4695 265.968 49.8214 268.532 48.1078C268.941 47.8338 271.081 46.5275 270.436 45.8763ZM248.801 47.3065C248.638 47.1304 244.873 48.7015 244.3 48.9441C244.07 49.0417 243.456 48.8869 243.681 49.4472C243.848 49.8644 244.6 50.4846 245.107 50.3438C245.625 50.1999 249.499 48.0613 248.801 47.3065ZM263.321 55.0274L270.699 50.2867C271.419 50.0187 271.527 48.8148 270.574 49.2971C268.121 50.5385 265.392 53.1766 263.321 55.0274ZM245.383 77.0582C248.054 70.3578 246.041 54.4068 239.22 50.7842C234.685 48.3754 229.513 51.0952 227.739 55.6023C234.479 46.4795 241.891 51.4111 244.509 60.6323C246.057 66.0825 246.278 70.6475 245.226 76.1864C245.17 76.4815 244.854 77.1259 245.383 77.0582ZM247.948 50.4554C247.36 50.4638 244.987 50.6861 245.389 51.737C245.81 52.8363 247.724 50.9822 247.948 50.4554ZM249.37 50.7394C249.044 50.4469 246.363 53.2128 246.337 53.4497C246.292 53.8515 247.014 55.0889 247.176 55.6634C247.676 57.4422 248.09 59.2425 248.521 61.0363C249.126 60.7478 249.246 59.7434 249.795 59.2944C250.165 58.9923 250.688 59.779 250.803 58.0371C250.88 56.8927 249.749 58.3039 249.375 58.4635L250.224 56.176L248.236 57.6051C247.859 57.1434 249.597 55.496 249.939 55.1694L248.803 55.0276C250.148 53.8037 249.649 52.3298 249.37 50.7394ZM234.205 53.0929C227.883 54.4088 226.465 66.5736 227.201 71.7328C227.888 76.54 231.863 89.4152 238.557 83.5005C245.006 77.8017 245.111 64.0657 240.951 57.0561C239.488 54.591 237.308 52.4472 234.205 53.0929ZM249.087 67.1897C248.805 68.078 249.293 70.2667 249.087 71.3383C259.316 68.7762 269.708 66.6034 279.765 63.4035C280.335 63.2222 282.197 62.7201 282.51 62.5012C282.782 62.3105 282.959 59.0261 282.21 58.7785C276.688 59.7827 271.251 61.6984 265.778 63.0785C260.824 64.3274 254.725 65.0866 249.991 66.6681C249.723 66.7577 249.168 66.9361 249.087 67.1897ZM250.145 61.953C250.11 61.8922 249.294 61.2045 249.09 61.0402L248.804 64.1846C249.271 64.1981 249.968 64.122 250.247 63.6985C250.344 63.5521 250.187 62.0291 250.145 61.953ZM226.595 77.3464C225.048 73.248 225.348 69.1464 225.174 64.8979C225.16 64.5501 225.389 63.834 224.893 63.9009C224.616 67.9178 224.334 72.6382 225.95 76.4236C226.101 76.7759 226.102 77.2681 226.595 77.3464ZM282.397 70.1937C282.728 70.0027 284.07 69.4784 284.078 69.1924C284.081 69.0923 283.324 68.1047 283.814 67.3328L282.397 70.1937ZM204.107 68.4787C203.731 68.1238 196.913 71.4522 196.104 72.028C195.767 72.2677 195.405 72.0359 195.57 72.7674C197.191 72.1582 202.124 72.0974 203.268 71.1941C203.692 70.8589 203.255 70.3877 203.4 69.9242C203.54 69.4807 204.252 69.1109 204.107 68.4787ZM276.131 69.9106L274.122 70.0342L271.578 71.3353C273.007 71.1451 275.033 70.8717 276.131 69.9106ZM191.012 70.7675C190.671 70.4574 186.659 72.1709 187.314 72.7673C187.655 73.0775 191.667 71.3639 191.012 70.7675ZM223.18 73.3424C222.77 72.8358 221.743 74.8253 221.754 75.1997L222.894 75.0577C223.326 75.72 221.226 76.1636 221.476 77.0603C223.512 76.1785 223.477 75.3569 223.18 73.3424ZM263.319 74.4882C259.133 75.6939 254.53 75.8333 251.08 78.7741C252.948 78.6954 254.693 77.4276 256.409 76.8376C258.284 76.1932 260.246 75.8231 262.111 75.1293C262.474 74.9946 263.312 74.9363 263.319 74.4882ZM246.24 81.9271C244.897 81.7511 243.901 82.2403 243.68 83.6393C244.783 83.6193 245.902 83.0142 246.24 81.9271ZM232.861 87.3553C233.233 86.8605 229.135 83.7254 228.593 83.3548C228.475 84.5918 232.137 86.047 231.436 87.0708C231.316 87.2462 228.094 88.0093 227.38 88.293C227.079 88.4129 226.532 88.3763 226.599 88.7878C228.74 88.5975 230.851 88.1092 232.861 87.3553Z" fill="var(--fill-0, black)"/>
<path id="Vector_2" d="M377.475 12.4004V6.24917C377.475 5.7364 378.619 4.83382 378.86 5.71618C379.075 6.50522 378.796 7.65596 378.903 8.53339C379.062 9.82761 379.617 14.3811 379.907 15.2492C380.406 16.7409 384.513 22.106 385.675 24.0435C386.311 25.102 386.979 26.4144 387.443 27.5632C388.086 27.6828 387.895 27.5286 388.075 27.1996C389.684 24.2601 389.351 18.4586 392.56 16.1198C392.605 17.8932 391.659 19.5136 391.221 21.2079C390.323 24.6801 389.673 28.0674 389.531 31.6705L393.705 45.5881C400.117 40.4719 407.171 37.0444 413.775 44.1546C418.582 49.3311 418.059 53.509 420.78 58.858C421.487 60.2478 423.037 60.8659 422.999 62.4418C420.024 63.5804 416.346 63.2646 413.434 61.9495C412.384 61.4752 411.616 60.505 410.499 60.4674C410.451 62.7826 410.122 65.1411 409.127 67.2425C405.061 75.8278 402.999 64.4612 400.652 61.3494C399.922 60.3824 397.785 58.2128 396.835 57.4599C396.549 57.2329 396.47 56.9068 395.979 57.0358L403.408 89.0485L421.6 89.3658C422.443 89.9843 416.197 90.7626 415.761 90.7907C412.122 91.0257 408.43 90.5171 404.805 91.0824C404.738 91.4878 405.309 91.4969 405.596 91.5685C408.634 92.3288 411.952 92.1179 415.052 92.5129C415.002 92.9004 414.666 93.0129 414.329 93.0702C413.067 93.2848 411.15 93.0384 409.775 93.0692C398.565 93.3204 386.615 94.652 375.343 93.6518C369.22 93.1085 363.769 91.3293 358.117 89.0796C362.378 94.0885 357.306 95.6491 352.862 95.9545C349.505 96.1851 346.105 95.5411 343.119 93.9938C339.156 91.9401 337.8 90.0285 343.028 88.36C344.968 87.7408 349.463 86.8212 351.438 86.7824C352.316 86.7652 354.942 87.4002 355.27 87.2325C355.539 87.0953 357.613 84.2675 358.253 83.634C363.647 78.2927 369.989 77.1472 377.126 79.5575C379.114 80.2292 382.176 82.4096 383.659 82.7163C384.854 82.9635 385.653 82.5352 386.648 82.5738C388.692 82.6531 390.946 83.6416 392.118 85.3759C392.994 86.6726 392.936 88.3177 393.984 89.3628C391.936 80.7039 390.643 71.9031 389.876 63.0233C387.553 61.7386 386.383 62.9747 384.885 64.6226C383.795 65.8212 379.291 72.7956 377.931 72.4616C377.715 72.4086 376.643 70.8322 376.475 70.4835C375.738 68.9541 374.267 64.2418 374.094 62.5767C373.247 54.422 379.588 47.5734 387.724 47.8763C386.175 37.8505 382.521 28.5293 376.45 20.441C372.757 15.5219 364.072 5.20703 357.391 6.09202C356.468 6.21425 355.415 7.21971 355.67 8.11626C355.71 8.25861 356.972 10.5457 357.102 10.7031C357.957 11.7369 361.085 13.3857 362.391 14.5429C368.644 20.0827 368.766 24.4167 370.775 31.8657C371.72 35.3663 373.133 36.9469 375.767 39.2915C373.184 40.2213 368.683 33.5342 367.865 38.0738C367.255 41.4629 370.351 43.6519 370.926 46.7318C369.154 46.6455 367.096 45.83 366.13 44.2594C365.714 43.5828 365.629 42.4874 365.075 41.887C362.833 39.4541 363.056 46.0071 362.542 46.745C362.109 47.3662 359.735 46.822 359.539 47.0179C359.356 47.2019 360.06 49.7557 358.686 50.3216C356.666 49.0954 357.486 46.9235 354.56 49.0233C354.221 49.2668 351.507 51.9765 351.417 52.1808C351.102 52.898 353.482 63.109 353.576 65.1728C353.68 67.4804 353.299 70.9005 351.542 72.5981C349.829 74.2545 346.206 74.6728 345.872 71.7729C345.553 69.0078 348.201 64.144 349.083 61.2572C349.51 59.8612 351.262 53.4416 350.67 52.4997C349.414 51.9962 348.398 51.0694 347.269 50.3405C346.77 50.0182 346.053 49.9175 345.494 49.5494C343.079 47.9604 339.904 43.9128 336.622 44.15C335.038 44.2645 336.488 47.6731 336.85 48.5097C337.254 49.446 338.534 51.0232 338.756 51.7455C338.873 52.1269 338.718 52.2776 338.338 52.1649C337.203 51.8285 335.514 49.3732 335.092 48.273C334.613 47.0202 334.577 44.1309 334.058 43.5904C332.877 42.3615 324.832 43.8208 326.363 38.9923C326.908 37.2735 329.372 37.4362 329.872 36.9426C330.109 36.7084 330.14 35.2932 330.383 34.7376C330.892 33.5733 332.683 32.4757 333.185 31.2601C333.921 29.4767 333.627 26.3771 333.992 24.3464C334.736 20.2117 337.53 15.3793 341.32 13.5413C341.397 13.0528 340.638 13.2337 340.351 13.2821C339.683 13.3947 338.837 13.7224 338.195 13.9789C335.629 15.0045 333.621 17.0968 331.075 17.835C330.475 17.2206 333.237 13.3366 333.774 12.683C335.651 10.4009 338.547 7.97111 341.321 6.96003C341.402 6.56185 341.376 6.59536 341.14 6.36834C340.493 5.74735 338.974 5.41539 339.046 4.10491C339.364 3.79487 343.078 5.81116 343.867 5.97922C349.989 7.28295 350.014 0.874232 355.722 0.122198C364.968 -1.09611 371.287 7.06995 377.475 12.4004ZM395.122 62.7551C392.342 49.8818 390.134 35.785 383.399 24.3288C378.921 16.7122 366.714 1.44794 357.114 1.80103C352.403 1.97431 350.115 4.90026 350.43 9.53992C348.924 9.48387 347.757 8.24149 346.176 7.95374C343.073 7.38941 339.991 9.25432 337.907 11.4005C340.584 11.6451 349.062 9.43155 350.981 10.8468C351.298 11.0808 351.404 11.5783 351.714 11.8268C353.789 13.4936 355.222 14.491 356.557 16.9733C359.342 22.153 357.976 28.4377 362.669 32.7139C361.427 28.4122 361.413 23.8218 360.31 19.4949C359.592 16.6752 358.972 15.1974 356.419 13.678C354.743 12.6798 349.739 11.6479 353.835 10.2589C350.68 4.04139 357.349 3.2882 361.877 4.47336C367.432 5.92735 377.496 18.586 380.724 23.5839C387.904 34.7018 389.322 47.6984 392.264 60.3373C392.828 61.5276 393.965 62.2661 395.122 62.7551ZM347.3 12.6894C346.622 12.1583 343.8 15.1199 343.321 15.6969C340.098 19.5717 338.785 24.5832 338.478 29.5654L341.449 25.5462C341.508 20.5095 344.617 16.6326 347.3 12.6894ZM355.287 40.136C357.778 39.8192 362.937 37.7554 362.379 34.5912C362.168 33.3901 359.077 29.8985 358.351 28.331C357.484 26.4592 357.136 24.0117 356.414 21.9799C355.272 18.7639 353.92 15.675 351.427 13.2706C349.098 15.0044 347.097 17.2675 346.762 20.2987C345.938 27.7455 353.245 33.566 355.287 40.136ZM337.624 31.5681C337.219 31.276 336.994 25.4881 337.086 24.5953C337.382 21.7471 338.889 19.2872 339.895 16.6922C336.932 19.601 336.079 23.7395 335.621 27.7169C335.546 28.367 335.862 29.1244 335.744 29.5791C335.348 31.108 332.18 34.0441 331.242 35.6008C329.934 37.7713 333.266 36.83 334.848 37.0743C338.437 37.6285 339.591 41.2979 342.579 36.6961C343.843 34.7502 344.999 32.2155 343.951 29.9286C343.477 28.8947 342.339 28.8984 342.045 28.4342C341.909 28.2208 342.241 27.0365 341.464 26.7115C341.07 26.706 338.87 30.5213 338.428 31.0928C338.254 31.3168 337.985 31.8289 337.624 31.5681ZM364.377 27.5626C364.556 25.6426 364.151 23.8275 363.451 22.057C363.332 21.7537 363.37 21.2041 362.96 21.2711C363.058 22.7157 363.278 24.2124 363.61 25.62C363.726 26.1131 363.943 27.3149 364.377 27.5626ZM345.874 28.4209C345.648 27.0858 344.863 25.3908 343.886 24.417C343.951 25.1784 344.357 25.9368 344.681 26.6194C344.935 27.1534 345.372 28.1166 345.874 28.4209ZM346.441 28.7095C346.303 28.5738 345.747 28.5701 345.903 29.1067C346.487 31.114 346.985 32.2422 348.293 33.8619C348.913 34.6303 350.693 35.8217 350.645 36.8124C350.557 38.5895 347.824 42.2365 346.587 43.5845L348.727 37.695C348.847 37.312 348.307 36.5006 348.007 36.4348C346.791 36.1677 346.425 42.8173 344.045 41.8686C342.26 42.0574 346.781 44.1821 346.998 44.3186C347.639 44.7222 348.672 46.2358 349.603 46.0321C350.897 45.7491 353.604 40.8807 352.992 40.1541C352.32 39.357 351.85 42.5739 351.288 42.4415C350.913 41.096 351.971 39.0034 351.726 37.8559C351.336 36.0314 348.098 31.8607 346.964 30.0471C346.736 29.6835 346.493 28.7597 346.441 28.7095ZM365.067 31.7482C364.903 31.2682 364.807 30.276 364.383 30.1404C365.012 33.3276 364.336 36.1461 364.098 39.293C364.863 38.8291 365.932 36.1433 366.034 35.365C366.056 35.1991 365.588 32.4136 365.508 32.0591C365.46 31.8447 365.092 31.8225 365.067 31.7482ZM342.747 42.1541C343.409 42.9115 345.11 38.8877 345.229 38.5002C345.462 37.7381 345.649 36.9564 345.589 36.1486L342.968 40.8058L342.747 42.1541ZM330.219 38.439L327.943 39.298C328.449 40.2018 330.295 40.779 331.232 40.7414C331.859 40.7162 332.177 40.2123 332.587 40.2141C333.344 40.2175 334.646 41.2682 335.628 41.0081C333.966 38.3511 332.382 38.6467 329.65 39.2915L330.219 38.439ZM338.474 40.4432C338.254 40.218 335.619 39.2804 335.059 39.2973C335.634 40.312 336.881 41.0318 338.042 41.0225C338.488 41.0189 338.796 40.7738 338.474 40.4432ZM418.752 60.1787C417.116 54.3443 414.46 44.0762 407.879 42.0693C403.582 40.759 400.729 42.8152 397.118 44.7339C397.172 45.1028 397.356 45.171 397.7 45.1742C399.162 45.1878 400.366 44.8546 401.971 45.1455C405.449 45.7756 410.862 49.5456 413.053 52.3192C414.795 54.5245 415.643 57.8634 417.757 59.6077C418.078 59.8726 418.214 60.3038 418.752 60.1787ZM356.126 46.4455C356.496 46.7738 358.939 45.4956 359.262 45.1653C359.674 44.7431 359.582 43.3659 359.823 42.7279C359.656 42.5212 355.688 46.0564 356.126 46.4455ZM407.933 58.4638C408.209 58.1703 408.276 55.201 408.23 54.5902C408.037 52.0199 407.148 50.6216 405.223 49.0305C401.69 46.1107 398.769 46.6269 394.557 47.593L400.093 54.7576C401.853 56.2859 403.55 57.4797 405.804 58.174C406.282 55.2691 405.145 52.4421 404.23 49.7414L404.799 49.6005C406.031 51.2964 407.068 52.72 407.335 54.9179C407.461 55.9453 407.241 57.0634 407.366 58.0393C407.416 58.434 407.532 58.8887 407.933 58.4638ZM388.008 49.5971C378.405 49.3747 373.932 59.2246 378.333 67.3306L379.322 59.8902C380.49 55.1023 384.335 52.3682 388.008 49.5971ZM388.291 52.4566C387.843 51.9357 385.733 54.8964 385.458 55.1849C385.102 55.5571 384.518 55.7412 384.154 56.1638C381.641 59.086 380.329 62.2711 380.325 66.1883C381.115 65.0973 383.293 63.4106 383.623 62.1857C383.845 61.3657 383.187 60.0002 383.451 59.0371L382.318 60.7508L383.172 57.892C384.185 58.2703 383.779 61.2403 384.026 61.6106C384.656 61.264 385.185 60.7478 385.824 60.4061C386.763 59.904 387.199 60.5694 386.801 58.6736C386.724 58.302 385.288 55.6356 386.156 55.6094C386.98 55.5846 388.16 57.7389 388.438 58.4608C388.506 58.6386 388.981 61.347 389.402 59.7167C389.799 58.1753 388.006 54.3132 388.291 52.4566ZM409.928 53.8858V58.4635C409.928 58.5212 410.701 58.4322 411.068 58.5959C412.241 59.1182 413.406 60.2543 414.768 60.4634C414.309 59.6669 413.486 59.1672 412.935 58.4457C412.46 57.8238 411.473 54.9885 411.349 57.3191L410.92 57.0373L409.928 53.8858ZM351.57 68.048C351.821 65.9015 351.57 62.875 351.57 60.6093C351.57 60.5443 351.076 60.0848 351.003 60.1802C350.936 62.1906 347.15 70.2183 347.932 71.5642C347.962 71.6147 348.843 72.13 348.94 72.1483C350.393 72.4206 351.444 69.1249 351.57 68.048ZM405.371 60.7524C404.625 60.8046 403.277 63.0802 404.377 63.0355C404.661 63.024 405.53 61.2028 405.371 60.7524ZM399.108 84.2116C399.134 83.518 399.139 82.8316 399.038 82.1398C398.182 76.247 395.914 70.0229 395.145 64.0226C394.53 62.9147 391.569 60.591 391.729 63.1418C391.905 65.9429 393.175 70.9983 393.785 73.9721C394.53 77.6021 395.753 84.6657 397.097 87.8098C397.604 88.9959 398.018 88.3313 397.979 87.2306L395.982 75.6299C396.519 75.7194 396.447 76.2327 396.582 76.5975C397.306 78.5486 397.533 80.6791 398.251 82.6443C398.41 83.0773 398.646 84.0758 399.108 84.2116ZM404.807 65.0439C405.783 64.409 406.322 62.9546 406.794 61.8969C405.932 62.9152 404.409 63.6173 404.807 65.0439ZM364.097 87.9292C366.318 88.4764 369.011 87.8269 371.216 87.2208C374.425 86.339 377.759 84.6921 380.886 83.4977C376.706 80.0063 367.72 78.6716 363.316 82.1269C363.082 82.3109 362.796 82.1217 362.957 82.7811C365.762 83.3184 368.211 83.5797 371.066 83.6423C371.544 83.6527 372.016 83.9294 372.496 83.9293C373.326 83.9292 373.912 83.2499 374.627 83.4965L370.353 86.067L364.097 87.9292ZM370.073 85.3544C369.179 84.286 367.026 84.9058 365.666 84.7806C362.429 84.4827 362.471 82.8704 359.407 85.3658L356.695 87.9294C358.257 88.0911 359.986 86.3474 361.418 86.218C362.057 86.1603 362.611 86.5398 363.113 86.5142C365.473 86.3936 367.806 85.9733 370.073 85.3544ZM391.996 89.6451C392.211 89.3635 390.751 86.5768 390.258 86.1003C385.772 81.7668 378.2 87.5995 373.492 88.7943C373.431 89.3264 374.091 89.0308 374.403 88.9955C375.708 88.8475 376.981 88.343 378.328 88.5075C378.211 89.0775 374.793 89.9559 376.476 90.2219C376.787 90.271 377.153 90.1858 377.477 90.2235L377.189 90.7912C378.071 91.3934 383.514 89.1843 385.025 89.0806C387.595 88.9041 384.48 90.4919 384.023 91.0768C386.042 90.7498 388.147 89.6427 390.151 89.3664C391.061 89.2407 390.084 90.0258 390.288 90.2205C390.581 89.9504 391.941 89.717 391.996 89.6451ZM342.462 90.788C346.155 92.5008 351.097 95.0135 355.19 93.4303C357.446 92.5578 357.034 90.3317 355.258 89.2323C352.891 87.7668 345.304 88.9444 342.863 90.1951C342.566 90.3477 342.326 90.0485 342.462 90.788Z" fill="var(--fill-0, black)"/>
<path id="Vector_3" d="M89.6692 74.4854C89.8089 74.8697 91.1679 74.9835 91.5549 75.0225C94.6352 75.333 97.7648 75.3764 100.821 76.0088C101.449 76.1386 102.481 76.0748 102.764 76.7714C100.984 76.8735 99.3032 77.0934 97.5006 77.0574C88.9839 76.8875 80.1088 75.3722 71.5894 74.7745C68.8085 74.5794 63.8961 74.0265 61.3528 74.1919C59.0459 74.3419 59.6558 75.3921 58.7691 76.7612C56.0789 80.9149 44.7476 81.3802 40.2665 81.0776C38.5615 80.9624 34.0194 79.5543 33.1752 79.6367C32.7259 79.6805 30.2559 81.4136 29.3147 81.7776C25.0039 83.4447 16.3475 83.9878 12.4269 81.3049C11.2141 80.475 10.321 78.6005 9.26873 78.1846C8.18343 77.7556 7.08747 78.0214 5.95983 77.7908C3.17318 77.2208 -0.504873 75.6028 0.0575393 72.1266C0.61054 68.7085 6.06305 68.3544 6.82566 67.315C6.88812 67.2298 6.21476 66.1379 6.31262 65.2634C6.67144 62.0568 11.8574 60.6322 14.5148 60.1771C14.2165 59.4201 12.6668 59.0859 12.3772 58.4663C11.7296 57.0806 12.7295 56.5597 10.2464 55.7441C10.4133 55.4533 11.5881 55.433 11.6697 55.3141C11.8151 55.1024 11.0971 53.9939 11.8167 53.8848C12.1874 53.8286 13.1528 54.62 13.821 54.7264C16.3915 55.1355 20.3509 54.7863 23.195 55.0329C30.1425 55.6354 37.1244 57.4413 44.12 57.8918C43.9855 56.9543 44.6189 55.2451 43.4105 55.0293L7.39693 52.1673C7.01865 51.1825 8.51286 50.8548 9.27303 50.762C14.1259 50.1695 21.8387 51.1467 26.8972 51.5982C32.5352 52.1014 38.1752 53.1737 43.8379 53.3147C43.8106 52.545 44.1374 51.4236 43.1253 51.3105L26.6167 50.7357C23.5359 50.6763 20.5292 49.8522 17.5006 49.5978C15.5817 49.4367 13.4318 50.014 11.6697 49.1664L13.9457 47.8804C12.2513 47.6402 10.0221 47.3253 8.83638 45.9856C8.68277 45.0879 12.0504 44.0876 12.7719 43.6937C20.2843 39.5922 24.6596 29.802 26.1749 21.6714C31.6606 22.7028 37.2671 22.7756 42.8373 22.9893C58.29 23.5822 74.0697 23.5867 89.524 22.6973C93.3431 22.4776 98.1213 21.5003 101.776 21.5467C106.094 21.6015 103.798 28.3539 103.05 30.7095C104.624 30.1705 106.4 28.1809 107.909 30.2592C108.442 30.9941 107.745 33.3519 108.241 34.7921C108.442 35.3766 109.116 35.6459 109.429 36.1701C110.297 37.6194 109.25 40.1129 108.596 41.5791C108.077 42.742 106.56 45.5251 105.849 46.5429C104.834 47.9951 103.174 48.6974 102.195 50.1636C103.088 49.7963 104.196 48.8303 104.907 48.1712C106.587 46.6132 107.902 44.6928 109.432 42.9935C113.851 41.6443 110.067 46.4385 109.602 48.0284C109.363 48.8486 110.855 48.2739 111.021 48.4482C111.104 48.5359 111.296 50.622 111.286 50.8606C111.253 51.614 110.625 52.3605 110.403 53.1223C110.113 54.1134 110.342 55.074 109.595 55.8859C110.856 55.619 110.467 56.7771 110.758 57.6732C110.847 57.9467 111.365 57.8068 111.318 58.2938C111.237 59.1178 110.282 60.2959 109.881 61.0356C111.006 60.7711 111.968 60.0077 113.184 59.92C115.281 59.7687 111.992 61.8244 111.84 62.0294C111.464 62.5373 111.95 62.9792 111.745 63.323C111.562 63.6306 110.682 63.8754 110.452 64.3301L111.873 64.7611C112.924 66.3086 106.042 68.7111 104.757 68.1924C104.471 69.1058 106.043 68.8012 106.577 68.7326C107.964 68.5542 110.184 67.2767 111.146 67.3404C112.047 67.4002 113.213 68.4426 112.601 69.3499C112.142 70.0317 103.499 70.9958 102.106 71.3916C101.239 71.8586 101.655 74.4854 100.345 74.4854H89.6692ZM13.9455 45.586C18.3705 46.4001 22.75 47.5404 27.2238 48.1228C47.7047 50.7891 70.0475 48.367 90.6053 47.2448C91.6749 47.0077 94.2988 43.3275 95.0253 42.2456C96.9719 39.3468 103.234 27.3692 102.719 24.3423C102.66 23.9962 102.222 23.2782 101.911 23.1289C100.722 22.5582 92.3935 23.9607 90.3782 24.128C73.3971 25.538 56.1087 25.8467 39.1424 24.414C35.1589 24.0776 31.1807 23.4251 27.2106 22.9651C26.6271 25.6728 26.3505 28.1988 25.3394 30.8609C22.6945 37.8245 19.8624 40.5143 14.3059 44.9346C14.0785 45.1155 13.7817 44.9246 13.9455 45.586ZM68.3186 52.7414H97.2131C100.428 48.177 105.593 43.7886 107.456 38.4305C108.542 35.3065 107.294 36.0151 106.818 34.2188C106.692 33.7415 107.035 31.5751 106.326 31.8538C105.272 39.072 100.624 45.0185 95.2899 49.6641C86.3084 50.3073 77.2815 50.1677 68.3169 51.0232L68.3186 52.7414ZM104.471 32.7156C101.055 32.4981 100.155 37.7087 98.7228 40.2395C97.1757 42.9731 94.8328 45.543 93.0853 48.1608C93.5392 48.0664 94.1367 48.4197 94.5189 48.2869C95.267 48.0271 99.3285 43.3721 100.035 42.4169C102.083 39.6498 103.937 36.1482 104.471 32.7156ZM108.741 49.5958C107.959 48.8998 104.041 52.087 103.054 52.6035C102.242 53.0282 101.338 53.4309 100.478 53.7434C100.145 53.8645 99.3994 53.8561 99.3595 53.8963C99.0929 54.1644 99.6262 55.9474 99.6351 56.4609C100.211 56.9749 104.331 54.2305 105.017 53.7181C105.465 53.3839 109.402 50.1844 108.741 49.5958ZM65.8989 51.0247H45.26L47.2912 62.4309C51.2631 62.7553 56.2273 63.1168 57.8756 67.3856L58.0569 71.7779C60.0357 72.2356 61.9109 71.5383 63.9191 71.614C65.0912 71.6581 66.4528 72.1213 67.6086 72.2002C68.2019 72.2408 67.9753 72.1954 68.0355 71.7761C68.4012 69.2278 67.3958 65.0471 67.1827 62.3231C67.0576 60.7227 67.0466 51.3951 65.8989 51.0247ZM69.5997 57.3191H97.6401C97.6613 55.2377 97.8855 54.7145 95.7548 54.4948C89.7941 53.8804 82.9932 54.5541 77.0129 54.7559C75.8411 54.7955 69.3482 54.4206 69.1621 55.2202C69.0623 55.6485 69.0803 57.1578 69.5997 57.3191ZM44.6345 59.949C34.3119 58.8976 24.1069 56.533 13.6612 57.0358C13.8927 57.6361 14.449 57.9079 15.0182 58.1009C17.0949 58.8049 20.9917 58.9372 23.3988 59.4058C28.0669 60.3145 32.9533 61.2747 37.4227 62.6245C39.7311 61.746 46.3788 64.2346 44.6345 59.949ZM97.5715 58.5345C97.0883 57.9724 92.0399 58.1406 90.9385 58.1656C85.4875 58.2891 79.899 58.4895 74.4509 58.7614C73.2226 58.8227 70.9157 58.499 69.9331 58.7383C69.3516 58.8798 69.067 60.5404 70.7249 60.7657C75.2219 61.3769 82.1427 60.6612 86.9765 60.7405C87.6496 60.7516 88.2724 61.0368 88.9458 61.0502C91.9356 61.1098 94.9389 60.9813 97.9261 61.0393C98.0646 60.8989 97.8094 58.8112 97.5715 58.5345ZM104.472 58.7525C103.874 58.884 100.358 59.7459 100.239 59.9317C100.047 60.232 100.282 61.169 100.204 61.6092L104.472 58.7525ZM106.75 61.8996C105.225 62.6424 103.646 63.4565 102.188 64.322C101.877 64.5068 101.408 64.6128 101.341 65.041C103.228 64.4781 105.367 63.2584 106.75 61.8996ZM19.5756 62.2595C17.1355 62.2207 13.2693 62.5659 10.9478 63.3184C7.10467 64.5642 7.82183 66.8891 11.5616 67.297C14.7924 67.6495 24.3718 67.2809 27.1968 65.9159C27.73 65.6582 28.3665 65.2996 28.4485 64.6483C28.1704 63.0513 21.0014 62.2821 19.5756 62.2595ZM34.7249 63.0448L29.3182 62.1858L31.4524 64.7531L34.7249 63.0448ZM70.4967 62.7982C69.7098 63.0552 69.8481 64.4669 70.739 64.471L97.5002 65.3391C98.4809 65.3301 98.4928 63.331 97.7426 63.0813C88.6878 62.4807 79.5775 62.8201 70.4967 62.7982ZM32.2534 66.5585C31.4468 67.4679 32.2356 67.9311 33.0181 68.3356C36.8185 70.3003 49.141 69.9999 53.0565 68.1588C54.006 67.7123 55.0886 66.8477 53.9091 65.9341C51.2346 63.8622 41.6833 63.9923 38.3203 64.5067C37.0657 64.6986 33.0131 65.7019 32.2534 66.5585ZM70.5975 67.0452C78.989 67.5974 87.3652 68.1731 95.7869 68.4802C96.2565 68.4973 98.7398 69.2256 98.7718 68.3359C98.7833 68.016 97.7916 66.8148 97.2268 67.0329C91.2498 67.1395 85.2341 66.5793 79.2922 66.4608C76.9215 66.4136 73.2381 66.1889 71.0179 66.4739C70.6029 66.5271 70.1356 66.6914 70.5975 67.0452ZM28.3909 69.2633C28.7341 68.8941 29.3688 66.8404 28.6098 66.7687C28.4796 66.7564 26.7046 67.6254 26.1892 67.7644C21.1336 69.128 16.0037 69.0319 10.8115 69.1925C13.5674 70.6333 26.628 71.1601 28.3909 69.2633ZM31.8831 69.9078C31.7016 71.871 32.6517 71.191 33.4907 71.5522C38.8706 73.8684 43.7076 74.4028 49.4831 73.1507C52.0655 72.5908 56.5764 71.7252 55.79 68.1925C55.3498 68.1739 55.4693 68.7274 55.0506 69.0174C51.4313 71.5245 38.6852 71.895 34.4287 70.9228C33.5528 70.7227 32.6877 70.2936 31.8831 69.9078ZM98.7527 70.7911L70.5831 69.2385L70.5946 71.0536C74.9182 70.9748 79.2411 71.6699 83.5516 71.9075C87.4308 72.1214 91.3465 72.093 95.2322 72.1849C96.1662 72.207 97.8098 72.98 98.5204 72.081C98.7476 71.7936 98.9341 71.0634 98.7527 70.7911ZM7.96659 72.7668C7.01584 71.0757 9.08044 68.7455 6.47309 69.111C5.62134 69.2304 2.45455 70.6724 2.27773 71.4888C2.02731 72.6449 7.08406 72.7491 7.96659 72.7668ZM9.96046 71.6271C10.7347 72.9703 12.4797 73.4458 13.8846 73.8316C16.6743 74.5976 26.8615 75.9085 28.9065 73.9304C29.5762 73.2826 29.2802 71.8339 28.5813 71.6747C28.2118 71.5905 25.1686 72.3957 24.3333 72.4795C19.5227 72.9623 14.6358 72.9107 9.96046 71.6271ZM33.0218 75.0577C33.0214 76.9953 34.8324 77.6579 36.4329 78.0639C40.4558 79.0845 53.2317 79.3077 56.2194 76.2013C56.8957 75.4982 57.4478 73.6 56.278 73.6694C55.4275 73.7199 52.1557 75.1965 50.6788 75.4968C45.1113 76.6288 38.4974 76.6019 33.0218 75.0577ZM9.1049 74.773L4.26825 74.4883C4.19631 74.9125 4.80245 74.845 5.11673 74.9156C6.04314 75.1237 9.19942 76.1895 9.1049 74.773ZM12.8084 77.0619C13.8371 82.7648 26.9168 81.5801 29.5869 78.9042C30.1319 78.358 30.6417 77.0275 29.7224 76.8026C29.4421 76.734 25.1559 77.8546 24.0634 77.9304C20.2801 78.1931 16.5225 77.6368 12.8084 77.0619Z" fill="var(--fill-0, black)"/>
<path id="Vector_4" d="M321.748 82.2774C323.02 81.0107 329.64 80.9099 331.496 81.0705C333.263 81.2235 335.58 82.2297 337.194 82.231C338.894 82.2323 341.026 80.7661 342.053 80.7855C343.739 80.8174 342.188 83.5537 341.724 84.188C338.68 88.3427 331.265 91.6568 326.431 89.0216C324.971 88.2256 320.063 83.9558 321.748 82.2774ZM333.918 83.6444C331.032 82.7359 326.516 82.1448 323.746 83.579C323.551 83.6798 323.195 83.6054 323.39 84.0661C323.987 85.4775 327.71 87.8973 329.291 88.1494C333.658 88.8457 336.877 86.7612 339.601 83.759C339.951 83.3725 340.91 83.4131 340.328 82.7852C337.198 83.9244 334.019 85.6816 330.657 85.9399C330.288 85.9682 328.876 86.1513 328.798 85.6471C330.049 85.2572 331.346 84.9081 332.568 84.428C332.946 84.2796 333.853 84.0743 333.918 83.6444Z" fill="var(--fill-0, black)"/>
<path id="Vector_5" d="M363.238 48.7362C363.641 52.4574 365.769 55.7258 364.397 59.4815C362.923 63.517 358.008 62.0937 358.421 58.3498C358.735 55.4936 361.279 50.8717 363.238 48.7362ZM362.02 59.52C363.534 58.133 363.382 54.0009 362.669 52.1698C361.297 52.9695 359.688 59.5834 361.388 59.8255C361.611 59.7617 361.846 59.6789 362.02 59.52Z" fill="var(--fill-0, black)"/>
<path id="Vector_6" d="M325.095 65.9051C325.015 66.3872 324.54 66.4171 324.179 66.5551C322.093 67.3522 318.649 68.0642 316.332 68.682C312.418 69.7254 308.33 70.8827 304.315 71.3367C304.177 70.5902 304.457 70.8336 304.882 70.6344C305.669 70.2653 306.81 69.9537 307.669 69.703C311.836 68.4867 318.317 66.559 322.464 65.9757C323.342 65.8522 324.216 65.8991 325.095 65.9051Z" fill="var(--fill-0, black)"/>
<path id="Vector_7" d="M315.7 17.8399C315.592 18.3638 315.141 18.3684 314.715 18.4194C312.563 18.6769 310.39 18.708 308.24 19.064C305.356 19.5415 301.896 20.8737 299.262 21.2116C298.803 21.2706 298.474 21.0574 298.053 20.98L301.183 19.6971C305.806 18.4915 310.914 17.05 315.7 17.8399Z" fill="var(--fill-0, black)"/>
<path id="Vector_8" d="M318.261 22.9899L314.284 23.9938C311.482 24.084 308.22 25.352 305.553 25.5366C304.973 25.5766 304.439 25.6853 304.031 25.1307C304.648 24.8952 305.316 24.6594 305.962 24.4999C308.408 23.8966 314.212 22.4708 316.469 22.5116C317.115 22.5232 317.636 22.9111 318.261 22.9899Z" fill="var(--fill-0, black)"/>
<path id="Vector_9" d="M321.964 27.5669C320.935 28.4425 319.315 29.0345 318.052 29.4981C316.344 30.1252 313.967 30.9016 312.217 31.3582C311.27 31.6052 309.939 32.2987 309.155 31.4251C312.687 30.4598 316.742 28.4523 320.242 27.6932C320.818 27.5681 321.377 27.514 321.964 27.5669Z" fill="var(--fill-0, black)"/>
<path id="Vector_10" d="M250.224 10.9729L246.004 15.7389C243.019 19.5496 241.916 24.6628 238.952 28.3924C238.449 29.0261 237.427 28.8859 238.418 30.1338C238.783 30.5925 239.345 30.5402 239.407 30.9944L227.029 31.8605L227.593 30.9959C226.075 31.0518 224.544 30.9289 223.028 30.9855C216.704 31.2216 210.289 31.8445 203.966 31.8822C193.969 31.9419 183.791 30.8358 173.779 31.2716C165.491 31.6324 141.866 37.2221 136.489 43.5766L135.22 45.587C134.836 44.2164 134.933 43.6884 135.775 42.5731C139.825 37.2104 154.742 32.9515 161.27 32.1465C162.283 32.0215 163.614 32.3814 164.533 31.9927C165.304 31.6662 167.503 27.7489 168.378 26.7023C175.68 17.9773 186.53 12.1945 197.738 10.719C209.258 9.20256 233.737 7.89599 244.16 12.3451C244.642 12.5507 245.884 13.493 246.101 13.4771C246.47 13.4501 248.904 10.2939 250.224 10.9729ZM209.517 13.831H205.247L206.67 12.1171C201.687 12.0171 196.376 12.0989 191.524 13.3428C186.161 14.7176 180.048 18.5979 175.922 22.2671C174.883 23.1908 170.018 27.9529 169.666 28.8563C169.408 29.5193 170.836 29.3078 171.242 29.2943C179.954 29.0058 188.735 29.458 197.407 28.9828C199.415 28.8727 201.385 29.3674 203.254 28.4189C202.724 27.6404 202.518 27.812 203.25 27.1312C208.904 21.872 217.83 18.4229 224.888 15.544C224.959 15.0565 224.228 15.2626 223.893 15.258C215.427 15.1414 205.248 23.4066 198.384 27.6764C198.03 27.8971 197.759 28.2334 197.276 28.1335C197.976 25.4976 199.689 24.3322 201.697 22.7082C204.94 20.0838 208.829 17.5027 212.647 15.8301C212.713 15.2972 212.074 15.6184 211.78 15.6736C210.603 15.894 206.628 17.0808 205.812 16.5527C205.584 16.4058 205.405 16.0148 205.533 15.8377C205.719 15.5783 209.177 14.5968 209.517 13.831ZM242.537 14.6898L240.545 14.9771L240.834 15.8305L239.694 16.4031L240.927 16.0738L242.537 14.6898ZM231.721 16.4089C224.678 17.634 217.998 21.1733 211.708 24.4726L204.393 28.9917L207.242 28.7063L206.953 28.1385C211.806 26.991 215.943 23.3489 220.517 21.3101L231.721 16.4089ZM236.561 17.5532C229.12 19.6901 222.112 23.4246 215.78 27.8473C217.707 28.1439 219.126 26.5857 220.711 25.7963C225.485 23.4191 231.212 20.9664 235.713 18.2717C236.024 18.0859 236.495 17.9833 236.561 17.5532ZM237.131 22.1308C235.14 23.0317 233.031 24.0303 231.437 25.5585C233.403 24.683 235.526 23.5856 237.131 22.1308Z" fill="var(--fill-0, black)"/>
<path id="Vector_11" d="M284.388 30.7101L267.589 31.8531L267.449 33.003L266.025 30.7169C264.557 33.4131 262.435 35.2576 259.482 36.1518C256.578 37.0312 252.283 37.1222 249.034 37.6678C241.144 38.9932 233.566 41.2762 226.028 43.8692C230.532 40.6951 236.355 39.3147 241.681 38.0028C245.068 37.1686 248.529 36.6109 251.932 35.8579C251.778 35.2943 250.882 35.4271 250.49 34.8789C250.275 34.578 250.221 34.2175 250.223 33.8586C248.638 35.2532 248.598 33.8446 247.381 33.2818L248.236 32.5709L247.381 32.145L249.372 31.8548C249.298 30.2926 248.553 28.8763 248.799 27.278C246.433 28.0845 247.466 32.5772 246.384 34.1458C245.917 34.8215 245.057 33.4424 245.113 32.613C245.235 30.7965 246.428 25.7739 246.949 23.8421C250.007 12.5029 257.052 10.0147 267.498 14.6396C272.685 16.9362 281.665 23.9907 284.056 29.1834C284.297 29.7073 284.487 30.099 284.388 30.7101ZM264.45 14.9899C264.384 14.891 262.434 14.1233 262.184 14.5444C264.948 18.8502 266.297 23.2108 269.261 27.466C269.713 28.1145 269.533 29.0919 270.858 29.2827C271.409 28.8833 271.311 28.7057 271.164 28.1276C270.855 26.9166 268.411 22.7691 267.64 21.3638C266.882 19.9845 264.716 17.215 264.307 16.0995C264.098 15.5275 264.481 15.0364 264.45 14.9899ZM272.146 20.12C271.191 18.7498 269.816 17.6432 268.162 17.2657C267.982 17.4435 269.669 20.1663 269.913 20.5201C270.229 20.9769 270.964 20.9579 270.724 21.842C271.052 21.9235 271.46 21.6868 271.575 21.4113C271.617 21.3119 269.916 20.9802 272.146 20.12ZM274.707 21.273C274.057 20.7159 271.021 22.0628 271.012 22.5572L272.429 23.2695C272.677 22.9606 271.263 22.9591 272.143 22.5546C272.916 22.1992 274.24 22.258 274.707 21.273ZM276.414 22.7014L271.861 23.8462C271.802 23.9035 272.102 24.954 272.148 24.9899C272.3 25.1075 275.306 23.8045 275.715 23.5698C276.103 23.3475 276.544 23.3344 276.414 22.7014ZM278.407 24.7045C276.968 24.5283 275.349 25.0003 274.423 26.1307L275.56 26.4164L274.14 26.9889C274.851 27.44 279.062 25.2605 278.407 24.7045ZM254.143 25.3497C248.21 26.2047 249.731 32.0339 255.238 32.6832C257.774 32.9822 264.208 32.3536 264.201 28.8515C264.194 25.1055 256.754 24.9735 254.143 25.3497Z" fill="var(--fill-0, black)"/>
<path id="Vector_12" d="M153.123 48.7638C153.7 49.1031 151.961 54.4588 151.806 55.5374C151.684 56.3834 151.276 61.0423 152.158 61.3219C152.726 61.4071 152.84 61.3211 153.089 60.8324C153.475 60.0735 153.814 57.9102 154.213 56.8124C154.754 55.3252 157.088 49.1027 158.475 48.7811C164.541 49.6229 170.835 49.6281 176.886 50.4892C178.287 50.6887 180.897 51.0465 182.137 51.5056C182.557 51.6612 183.036 51.691 183.046 52.2979C183.055 52.842 181.593 55.2994 181.167 55.8637C178.228 59.7613 172.85 62.8293 168.059 63.5748C160.83 64.6994 142.243 65.2808 136.771 59.9061C134.251 57.4307 134.804 54.7045 134.921 51.5027C135.27 50.0199 150.854 48.6375 153.123 48.7638ZM149.166 50.7416C148.439 50.7054 147.736 50.2591 147.407 51.135C146.42 53.763 146.207 58.0296 146.892 60.7502L147.935 54.5082L149.166 50.7416ZM157.418 59.8919L161.286 51.0361C161.457 50.3172 159.695 50.0804 159.176 50.9285C158.883 51.4092 157.313 56.275 157.211 56.9645C157.115 57.6134 157.119 58.2417 157.137 58.8953C157.146 59.2378 156.927 59.9617 157.418 59.8919ZM144.61 51.0265C144.171 51.1176 143.123 50.7838 142.889 51.2073C141.956 52.8987 142.411 57.6241 142.622 59.6065C143.025 59.5685 143.117 58.3322 143.154 57.9995C143.433 55.4613 143.576 53.4593 144.61 51.0265ZM166.247 51.3147C165.382 51.1257 164.345 50.6022 163.709 51.4793C163.279 52.0729 160.826 60.1045 161.123 60.4642C161.569 61.0025 161.737 60.0555 161.83 59.9003C163.476 57.1435 165.035 54.2941 166.247 51.3147ZM140.056 51.5989C135.781 51.5318 136.839 56.1164 139.062 58.1759L140.056 51.5989ZM165.965 59.894C166.977 59.1408 167.645 57.7534 168.288 56.6527C168.905 55.5976 170.2 53.402 170.568 52.3566C170.896 51.4263 169.561 51.3788 169.136 51.6444C168.762 51.8781 166.123 58.8339 165.965 59.894ZM175.641 52.1722C175.224 52.2528 174.188 51.7143 173.947 51.8907C173.75 52.0344 172.542 55.8492 172.228 56.4606L175.641 52.1722Z" fill="var(--fill-0, black)"/>
<path id="Vector_13" d="M179.625 67.6203C178.624 70.4014 177.921 73.4077 176.358 75.9217C175.429 76.8038 172.845 76.9925 171.525 77.0723C163.67 77.5467 153.745 76.9524 145.933 75.8754C144.104 75.6233 138.496 74.8384 137.368 73.6108C136.71 72.8944 135.476 66.502 135.785 66.1875C139.645 66.1454 143.475 67.0295 147.318 67.3305C150.776 67.6013 154.397 67.8132 157.837 67.9168C165.082 68.135 172.403 67.8962 179.625 67.6203ZM142.334 68.1939L138.635 67.908C138.807 68.2395 140.317 69.2055 140.483 69.2218C140.884 69.2613 142.196 68.7157 142.334 68.1939ZM146.604 68.7662L145.172 68.8983L142.336 70.4771C143.683 70.0909 145.588 69.7241 146.604 68.7662Z" fill="var(--fill-0, black)"/>
<path id="Vector_14" d="M185.963 58.1054C184.457 56.5154 187.111 53.0482 188.301 51.8747C193.858 46.3919 208.245 41.6644 215.919 42.4449C222.465 43.1106 221.412 49.5634 217.339 53.0211C211.89 57.6481 197.283 59.7474 190.305 59.3162C189.428 59.262 186.51 58.6838 185.963 58.1054ZM216.954 48.2017C217.005 48.1387 217.406 48.5723 217.722 47.989C218.768 46.0543 217.765 44.821 215.847 44.5198C209.767 43.565 195.234 48.8772 190.441 52.8811C184.574 57.7819 192.129 57.2276 195.722 57.0448C201.379 56.7571 211.941 55.1191 215.774 50.5891C216.436 49.8066 216.759 48.4402 216.954 48.2017Z" fill="var(--fill-0, black)"/>
<path id="Vector_15" d="M185.035 49.5915C179.603 48.7838 174.133 47.862 168.664 47.3081C159.069 46.3364 150.688 46.1706 141.094 47.3462C138.777 47.6301 135.94 48.7279 133.795 48.0219C136.003 46.1642 138.93 45.5764 141.705 45.0996C152.836 43.1873 166.392 44.3818 177.408 46.8172C179.844 47.3557 183.109 48.0244 185.035 49.5915Z" fill="var(--fill-0, black)"/>
<path id="Vector_16" d="M133.794 73.052C133.157 73.516 126.877 71.9398 125.763 71.5412C120.812 69.7696 120.223 66.8675 119.846 61.898C121.81 62.412 123.675 63.3598 125.599 63.9813C126.824 64.3772 130.719 65.0681 131.384 65.6063C133.456 67.2827 131.7 71.3628 133.794 73.052ZM127.246 67.6229L122.693 64.7593C122.019 65.4934 125.258 69.6895 126.677 69.0465C124.628 67.1979 126.494 68.7011 127.246 67.6229Z" fill="var(--fill-0, black)"/>
<path id="Vector_17" d="M222.326 32.7169L179.912 46.158L190.658 41.6557C200.976 37.9658 211.544 34.7437 222.326 32.7169Z" fill="var(--fill-0, black)"/>
<path id="Vector_18" d="M235.138 33.5752C233.905 34.7413 232.04 35.4825 230.49 36.1968C226.291 38.1316 221.83 39.7921 217.488 41.2943C219.567 39.5127 222.697 38.0866 225.267 36.9559C228.394 35.5805 231.798 34.219 235.138 33.5752Z" fill="var(--fill-0, black)"/>
<path id="Vector_19" d="M301.749 45.5871L300.47 42.4427L299.478 37.2915C301.376 39.4009 301.853 42.8209 301.749 45.5871Z" fill="var(--fill-0, black)"/>
<path id="Vector_20" d="M233.147 65.3285C233.769 63.1955 232.975 57.3339 234.982 56.1583C237.041 54.952 237.787 57.9669 237.704 59.4547C237.592 61.4381 235.532 65.7163 233.147 65.3285Z" fill="var(--fill-0, black)"/>
<path id="Vector_21" d="M235.409 81.0541C232.493 80.8299 230.3 75.6238 231.879 73.3564C233.808 70.5862 236.473 77.2631 236.271 78.8936C236.178 79.6416 235.495 80.2766 235.409 81.0541Z" fill="var(--fill-0, black)"/>
<path id="Vector_22" d="M242.255 64.7606C242.215 65.7334 240.986 66.3155 240.755 66.8209C239.654 69.2289 242.079 71.8172 241.547 74.1959C240.244 73.5835 239.235 73.5449 238.27 72.3391C235 68.2506 238.786 66.1489 242.255 64.7606Z" fill="var(--fill-0, black)"/>
<path id="Vector_23" d="M228.951 63.1215C229.93 62.1762 231.029 63.784 231.364 64.6884C231.862 66.0333 232.986 71.3801 230.378 70.2668C228.395 69.4203 227.511 64.512 228.951 63.1215Z" fill="var(--fill-0, black)"/>
<path id="Vector_24" d="M292.93 70.4798C292.819 67.0824 292.651 63.7206 292.655 60.3118C292.658 57.8876 292.945 57.337 293.177 55.1381C293.289 54.0646 292.746 48.9438 294.737 49.3582C296.273 49.6779 296.045 54.2123 295.507 55.4776C295.224 56.1455 294.563 56.5493 294.408 57.2339C294.059 58.7706 293.975 61.8618 294.068 63.4673C294.222 66.1054 295.603 68.4759 292.93 70.4798Z" fill="var(--fill-0, black)"/>
<path id="Vector_25" d="M289.685 55.6179C291.253 55.3397 291.461 61.1362 289.647 60.9838C288.559 60.8922 288.1 55.8988 289.685 55.6179Z" fill="var(--fill-0, black)"/>
<path id="Vector_26" d="M296.531 59.3501C298.267 58.8751 298.072 63.3682 295.932 63.0474C293.907 62.7437 295.746 59.5651 296.531 59.3501Z" fill="var(--fill-0, black)"/>
<path id="Vector_27" d="M127.243 55.0301C124.681 53.3386 126.061 50.2626 124.684 47.8804C125.158 47.4181 126.402 49.5483 126.531 49.8838C127.17 51.545 126.81 53.3394 127.243 55.0301Z" fill="var(--fill-0, black)"/>
<path id="Vector_28" d="M42.1299 29.5652L44.6878 29.8527C44.8533 28.2003 44.9289 26.0655 46.9679 25.8502C45.0126 27.9327 46.9508 29.117 47.2014 30.6361C47.4913 32.3932 46.1494 31.4781 45.3973 32.1367C45.2275 32.2854 43.0458 35.7831 43.0646 36.0086C43.1264 36.7476 45.3436 37.8036 44.0847 40.2599C42.7682 42.8282 39.1319 42.391 37.8663 43.4508C37.1694 44.0344 36.0309 47.2185 35.2926 48.1631C34.2377 48.8998 35.4794 43.5784 35.8656 43.3027C32.0399 41.9246 33.6134 45.048 31.5888 46.0108C28.907 47.2862 32.1526 43.0881 31.8812 42.732C30.0098 42.2613 27.3854 41.4632 27.8963 39.0097C28.8981 39.2928 29.6843 40.3045 30.7318 40.5894C31.1926 40.7148 32.3393 40.8954 32.6891 40.6765C32.8812 40.5563 34.7571 36.8258 34.7053 36.6044C34.6011 36.1586 31.5708 35.1747 31.6798 33.1868C31.7561 31.7957 33.3929 30.8154 34.5707 30.4111C36.7125 29.676 39.4604 30.4471 40.274 28.1326C40.6671 27.0144 40.2521 25.1785 41.8455 25.9897C43.1059 26.6313 41.9671 29.4132 42.1299 29.5652ZM38.1431 31.5724C36.87 31.4114 32.3261 32.6913 34.9357 34.0759C36.9035 35.12 37.1632 32.8879 38.1431 31.5724ZM43.2658 31.571C40.5093 30.9513 39.5718 32.7794 38.7122 35.0012L40.9868 35.155L43.2658 31.571ZM35.0116 41.0098C37.6975 41.7879 38.2754 39.7566 38.8803 37.5662C37.2276 35.4875 34.7824 40.7978 35.0116 41.0098ZM38.4279 41.0082C39.2539 41.0416 42.4018 39.594 42.4023 38.8653C42.4024 38.7693 41.5815 37.9698 41.3555 37.9053C39.9831 37.5131 39.1026 40.0656 38.4279 41.0082Z" fill="var(--fill-0, black)"/>
<path id="Vector_29" d="M68.1763 34.1445C68.3591 34.1971 68.6537 34.5994 68.6019 34.8556C68.3316 36.1906 63.3078 35.7484 62.201 35.8641C59.9521 36.0991 56.6356 36.1829 55.225 38.0083C56.7921 38.4012 66.6185 37.0209 67.1788 37.5792C68.1807 38.5776 64.8286 39.1431 64.3978 39.2163C63.0191 39.4506 54.9662 39.7367 54.6549 40.1562C57.0778 44.3491 63.1506 41.7094 66.8843 41.0123C66.862 41.311 67.3138 41.9568 67.1773 42.1443C67.1101 42.2365 65.4102 42.935 65.0966 43.0658C62.094 44.3185 56.2518 45.4659 53.6611 43.0106C52.4442 41.8574 52.7918 40.3839 52.6302 40.184C52.5398 40.0721 51.3075 39.9616 51.2389 39.8634C50.4435 38.7259 53.213 38.6093 53.4838 37.3831C53.6159 36.7851 52.9781 37.002 52.7979 36.7345C51.6137 34.9771 56.4133 34.9054 56.6468 34.7139C56.7055 34.6658 56.2557 33.943 56.4079 33.21C56.8905 30.8857 61.1838 28.929 63.3396 28.7112C65.4147 28.5014 71.2502 28.6139 69.872 31.8643C66.6681 29.5483 60.1246 29.6423 58.6393 33.8557C58.9196 33.7718 59.2442 34.1445 59.3514 34.1445C61.1652 34.1445 66.9187 33.7824 68.1763 34.1445Z" fill="var(--fill-0, black)"/>
<path id="Vector_30" d="M91.0926 39.5805C91.2517 40.2452 90.9663 40.0516 90.7331 40.2362C87.964 42.4271 85.0787 40.3733 83.9575 40.8741C82.9571 41.3209 82.1778 46.2932 79.1461 42.8706C79.9779 42.0269 80.8408 41.3756 81.1293 40.1559C80.0918 39.8444 78.5247 40.2869 78.5994 38.8621C78.7248 36.4697 81.9324 37.4728 82.5075 36.5313C82.7719 36.0984 83.2729 32.7943 83.1391 32.3165C83.054 32.0124 81.7654 31.9186 81.4145 31.8537C80.6564 31.028 85.9365 28.224 86.5427 27.9982C89.0827 27.0522 94.6121 26.0933 95.0831 29.9884C95.6276 34.4917 91.2323 37.7089 87.49 38.9773C87.0463 39.1277 86.6791 38.7247 86.8225 39.5805H91.0926ZM84.5438 37.0067C87.5131 37.7376 93.006 33.919 92.8278 30.8534C92.6553 27.8856 85.201 29.5273 84.8358 31.4325C84.551 32.918 84.8922 35.3655 84.5438 37.0067Z" fill="var(--fill-0, black)"/>
<path id="Vector_31" d="M203.539 49.0248C203.703 49.1753 200.423 51.888 202.611 52.6741C203.522 53.0016 207.481 52.6825 206.822 53.8942C206.127 55.1704 202.309 54.8836 201.158 54.1332C198.186 52.1953 203.061 48.5858 203.539 49.0248Z" fill="var(--fill-0, black)"/>
<path id="Vector_32" d="M193.008 51.8845C193.543 51.2601 195.421 54.849 195.576 55.171C196.153 56.3704 194.484 55.4604 193.998 55.0344C192.952 54.117 192.905 53.2354 193.008 51.8845Z" fill="var(--fill-0, black)"/>
<path id="Vector_33" d="M209.52 53.0274L209.868 51.5204L211.222 48.4519C211.983 50.1532 210.955 52.0569 209.52 53.0274Z" fill="var(--fill-0, black)"/>
</g>
</svg>
