<svg width="1280" height="720" viewBox="0 0 1280 720" fill="none" xmlns="http://www.w3.org/2000/svg">
<path d="M438.521 541.205C408.757 538.039 380.587 507.089 383.337 477.345C384.132 468.75 388.46 463.901 395.281 459.235C396.734 458.241 400.248 457.02 401.168 455.931C402.215 454.69 402.062 446.409 401.778 444.32C401.509 442.337 400.163 440.566 400.077 438.557C399.814 432.348 403.435 424.637 405.134 418.652C403.409 416.604 397.928 431.251 397.383 432.1C395.64 434.814 394.702 431.608 394.562 430.007C393.286 415.431 402.508 401.459 415.711 395.3C415.82 394.03 413.672 394.753 413.052 394.963C406.387 397.218 398.414 401.324 393.216 405.983C391.575 407.454 390.363 410.182 388.275 411.514C386.694 411.82 387.195 410.263 387.469 409.424C388.607 405.947 392.932 400.634 395.546 397.893C404.778 388.212 417.466 384.092 430.916 384.279C431.036 383.336 429.182 383.111 428.55 383.045C425.195 382.697 415.86 382.86 413.544 381.553C412.926 381.205 411.826 380.518 412.414 379.753C412.748 379.319 422.026 377.747 423.318 377.747C426.275 377.747 442.116 381.072 442.815 380.391C442.469 376.73 437.705 374.498 435.548 371.64C432.172 367.167 430.535 360.517 432.25 355.107C434.364 353.655 440.42 363.887 441.818 365.489C444.063 368.059 447.647 371.302 450.535 373.148C456.466 376.94 462.976 377.541 469.601 379.735C470.325 379.549 469.844 378.268 469.623 377.768C467.492 372.934 450.336 368.066 450.092 360.297C451.247 359.202 460.414 365.4 462.2 366.245C472.983 371.345 484.826 373.171 496.069 377.119C498.009 377.291 496.529 376.389 495.931 375.953C492.977 373.795 486.902 370.731 484.802 368.714C480.814 364.883 493.135 366.376 495.329 366.817C503.545 368.467 519.224 380.256 524.802 386.537C528.724 390.955 532.238 396.142 534.046 401.791C537.418 404.272 533.807 392.657 533.405 391.715C531.249 386.665 522.298 379.183 522.119 375.542C522.079 374.735 522.135 374.183 523.121 374.566C524.557 375.124 531.159 379.064 532.676 380.11C536.771 382.934 543.544 389.548 544.461 394.487C544.934 397.035 544.444 399.851 544.618 402.439C554.529 399.268 570.476 401.961 571.709 414.113C563.548 409.754 555.76 412.079 547.262 412.82C546.742 414.975 549.203 413.832 550.738 414.266C559.716 416.802 569.588 422.704 572.083 432.233C573.756 438.622 567.6 430.877 566.099 429.674C563.994 427.988 560.769 426.151 558.502 424.488C559.515 428.076 561.711 431.199 562.807 434.848C566.59 447.442 569.976 462.233 564.36 474.658C564.022 475.404 560.606 481.119 560.318 481.388C558.781 482.819 551.206 483.692 550.566 485.119C548.759 489.144 556.596 483.616 557.176 486.428C557.312 487.089 552.907 497.538 552.145 498.987C550.529 502.06 544.996 509.442 541.494 509.968C539.484 510.27 539.987 506.215 537.315 507.79C534.132 509.667 533.071 516.388 528.707 519.441C527.187 520.504 520.894 523.084 519.234 523.031C517.689 522.981 510.3 519.712 509.584 520.458C509.821 522.005 508.787 527.078 510.651 527.545C511.476 527.752 512.595 526.859 513.709 527.078C514.286 527.191 514.933 527.997 515.908 528.195C518.128 528.647 520.531 528.152 522.499 530.154C525.15 532.852 527.53 543.732 529.428 545.404C530.785 546.6 539.21 548.958 541.762 550.164C552.225 555.107 564.257 563.585 570.669 573.033C579.874 586.596 586.069 602.407 593.185 617.086L605.956 638.961C606.635 641.593 605.045 643.426 603.004 644.845C600.937 646.282 598.125 645.969 598.106 648.488C598.086 651.118 600.488 657.986 601.426 660.876C602.971 665.636 604.93 670.487 606.613 675.241C607.038 676.441 608.318 677.528 608.573 678.503C611.021 687.881 602.274 684.03 599.342 679.131L589.552 652.086C586.598 655.652 563.944 663.783 563.189 666.138C561.653 670.932 574.266 685.175 573.378 687.122C572.999 687.555 572.549 688.139 571.969 688.242C568.316 688.891 558.433 683.298 553.989 683.418C541.43 675.147 529.184 665.883 517.158 657.295C516.04 656.497 515.317 654.399 514.514 654.056C512.307 653.113 513.083 655.398 512.569 656.623C508.411 666.519 502.614 655.636 501.643 650.141C499.351 648.056 499.251 657.557 498.998 657.923C495.238 654.877 482.383 659.044 481.174 653.049C479.786 646.172 488.13 632.624 491.069 626.153C490.23 625.411 482.582 629.759 478.219 624.168C477.75 623.567 475.554 619.773 475.375 619.177C474.962 617.81 475.284 614.229 474.371 613.349C473.999 612.99 472.708 613.005 471.87 612.254C459.803 601.457 452.446 587.759 450.747 571.685C448.531 571.876 448.001 574.335 445.545 574.608C444.984 574.67 439.741 573.458 439.45 573.204C436.354 570.501 436.919 565.135 438.277 561.716C439.674 558.197 442.602 555.752 443.803 552.222C438.265 555.45 433.643 559.444 432.899 566.166C428.538 605.556 461.83 657.146 490.72 682.581C495.538 686.823 507.813 693.511 509.267 698.754C511.278 706.003 501.725 705.886 496.879 704.426C486.193 701.207 471.524 682.306 465.279 673.174C454.758 657.791 445.145 641.455 438.183 624.208C437.009 624.655 437.437 628.058 437.502 629.096C438.577 646.316 444.272 665.886 451.4 681.601C453.676 686.618 460.603 696.692 461.679 700.697C465.205 713.828 451.513 703.158 449.09 698.13C446.227 698.423 449.217 702.536 449.319 703.127C449.858 706.232 444.185 704.805 442.779 703.504C436.121 693.119 435.573 680.43 431.9 668.934C428.236 669.644 426.547 672.147 423.669 673.829C417.401 677.495 401.823 681.599 394.336 683.312C387.083 684.972 374.312 687.877 367.933 683.722C364.783 681.67 364.943 676.608 363.038 676.178C361.634 675.86 357.028 677.439 354.928 676.753C354.998 679.514 352.298 683.626 350.235 685.441C347.893 687.504 344.715 687.793 342.751 689.123C337.133 692.928 324.949 701.986 318.207 702.655C315.344 702.94 300.318 704.119 298.547 703.812C294.374 703.088 285.291 700.322 281.174 698.799C277.153 697.311 278.871 697.296 274.028 696.601C267.898 695.721 263.952 691.222 259.385 687.727C253.357 693.449 247.282 691.752 239.882 692.947C244.115 705.736 228.21 701.605 221.074 701.341C197.633 700.474 174.241 699.115 150.968 697.488C137.84 696.57 124.359 696.525 111.391 694.163C107.539 693.461 99.3984 691.391 101.173 686.234C101.682 684.754 104.547 684.873 105.038 683.221C103.341 682.934 101.855 681.236 100.735 679.976C98.9389 677.956 95.4033 671.525 92.806 671.503L74.9717 692.947C74.0769 694.865 67.0105 700.248 67.469 695.326C67.6229 693.674 75.9775 682.232 77.6631 680.025C81.6048 674.863 86.2155 670.284 90.0543 665.056C90.9112 662.12 88.6746 660.464 87.8402 657.927C86.9828 657.346 83.2747 661.317 82.5629 662.136C74.1454 671.827 67.0249 682.858 59.1085 692.948L55.4659 694.232C52.8776 691.5 64.0595 676.118 66.1594 673.279C69.6923 668.503 73.6506 663.662 77.5971 659.211C78.9979 657.63 84.3063 653.64 83.8116 651.9C83.359 650.308 81.5522 648.535 79.7535 648.969C78.0155 649.389 72.5628 655.48 70.9886 657.267C64.8786 664.201 60.0356 672.97 54.1558 679.66C52.724 681.289 47.2281 687.307 47.5241 682.89C47.9992 675.801 65.3459 653.592 70.6725 647.414C71.7115 646.209 76.759 642.096 76.9485 641.72C78.7019 638.241 75.482 637.322 74.6197 634.583C73.8135 634.01 72.1506 635.99 71.6509 636.518C68.6251 639.719 64.5213 644.724 61.8026 648.256C53.9617 658.44 47.6446 669.834 40.26 680.301C38.7353 680.973 38.926 676.754 39.0417 675.841C40.1899 666.778 58.8423 641.782 65.7885 634.658C67.0474 633.367 73.2428 628.903 73.2477 628.423C73.2502 628.177 70.8605 624.348 70.6542 624.208C69.9579 623.736 69.4836 624.481 69.0564 624.895C66.788 627.093 62.985 632.193 60.7688 634.921C54.5149 642.621 44.3292 654.63 39.7683 662.953C37.8583 666.439 35.0489 676.629 33.2957 678.645C29.3774 683.151 23.5338 673.283 23.0578 669.29C22.601 665.458 24.9695 656.225 26.0322 652.072C33.9743 621.037 44.952 583.665 59.7971 555.508C60.9371 553.346 61.4398 549.816 62.8181 548.097C63.3675 547.411 69.4268 543.104 70.7112 542.223C79.3594 536.291 105.407 523.696 110.346 517.556C112.25 515.188 113.74 507.321 118.429 508.23C120.492 508.63 120.677 510.533 121.375 510.733C125.661 511.957 127.471 507.341 126.243 503.9C123.174 503.299 120.7 504.495 117.583 503.281C114.189 501.96 110.762 496.349 109.355 493.177C108.504 491.257 110.206 490.232 106.304 487.766C97.3904 482.131 89.1276 477.27 87.3635 465.494C86.6171 460.512 88.7257 455.314 88.3268 452.116C88.1367 450.593 83.2104 443.4 82.348 440.587C79.5245 431.375 82.4073 422.827 85.2017 414.113L81.9065 414.758C81.9084 414.026 81.7882 413.257 81.9348 412.526C83.3138 405.65 95.7087 397.71 100.411 392.721C93.0118 394.336 86.2764 398.015 80.2422 402.436C77.5419 402.216 81.3693 397.638 81.9186 396.945C89.8243 386.975 97.6482 385.12 109.168 381.528C112.641 380.445 112.506 379.103 117.894 379.781C118.917 379.91 121.633 381.629 122.222 381.04C122.703 380.558 122.442 379.486 121.392 378.932C113.039 374.523 102.561 376.937 93.8046 378.446C91.6602 376.571 103.081 371.835 104.229 371.496C114.52 368.453 125.162 368.725 134.359 374.491C135.976 374.224 139.427 367.55 140.731 365.982C149.13 355.879 164.184 348.211 177.428 347.333C181.078 347.091 187.355 346.247 188.989 349.912C185.484 349.599 187.941 350.535 187.589 352.059C186.946 354.847 174.249 356.178 171.845 359.364L161.232 370.02C171.414 366.602 180.867 360.415 190.978 356.734C206.503 351.083 227.44 348.35 242.455 356.805C243.324 357.294 245.533 358.364 245.171 359.642C238.833 359.772 232.697 357.405 226.362 357.025C214.545 356.316 200.166 359.259 189.659 364.518C188.896 364.9 187.831 365.123 187.666 366.123C199.351 364.451 210.465 362.746 222.397 363.508C233.731 364.233 251.226 370.668 260.033 377.815C261.51 379.014 267.234 384.497 267.639 385.919C268.446 388.756 264.217 385.172 263.919 385.026C256.332 381.305 248.971 376.972 240.688 374.745C235.217 373.274 228.988 372.147 223.361 371.972C224.755 373.878 228.095 373.731 230.328 374.533C244.052 379.455 260.987 389.4 268.328 402.099C270.204 405.342 276.083 417.373 269.086 416.578C268.072 414.118 265.62 412.838 264.057 410.828C261.874 408.02 260.12 404.478 257.715 401.486C251.201 393.381 244.226 388.987 234.604 384.934C234.314 386.272 235.259 386.449 236.119 387.008C243.32 391.693 255.288 401.684 256.258 410.725C256.741 415.219 253.369 421.876 248.468 422.877C252.218 432.393 255.352 444.82 251.283 454.649C254.313 456.706 255.888 457.834 258.004 460.859C271.53 480.188 256.678 503.621 241.217 516.898C229.44 527.013 214.182 532.972 198.6 534.099C193.171 534.492 187.853 532.806 183.039 536.029C182.619 536.615 187.975 540.572 188.773 541.092C195.931 545.756 209.666 552.117 214.752 558.404C220.074 564.984 225.949 591.376 228.325 600.854C230.075 607.833 234.761 622.682 234.618 629.036C234.538 632.572 230.012 640.034 226.367 636.508L217.403 598.269C215.249 598.929 216.75 600.047 216.75 600.537V619.99C216.75 621.26 216.078 625.852 215.792 627.479C214.659 633.922 211.598 639.697 204.623 635.129C199.681 631.892 188.609 619.401 184.021 614.487C177.12 607.097 167.109 596.687 161.226 588.864C159.77 586.927 159.262 584.498 157.586 582.708C156.676 583.156 157.596 584.453 157.796 585.096C159.484 590.518 163.274 597.734 159.813 603.042C158.078 605.702 152.772 607.086 149.835 605.877C147.767 605.026 143.988 600.697 144.164 604.939C149.246 614.22 155.539 623.613 162.868 631.346C165.531 634.157 173.807 640.631 177.537 640.917C178.531 640.994 180.136 639.761 182.044 639.703C185.817 639.589 191.313 640.974 195.24 641.09C212.512 641.602 234.224 640.779 251.448 639.113C255.334 638.737 259.479 635.873 262.998 638.171C265.489 639.798 263.959 641.868 268.597 641.023C283.443 634.869 298.064 621.289 314.904 622.269C320.274 622.581 327.997 624.221 332.644 626.911C338.923 630.545 339.88 638.171 348.907 633.561C350.562 632.716 352.45 629.343 354.047 628.876C356.717 628.096 364.095 628.591 367.737 628.04C369.656 627.75 371.413 626.64 373.239 626.305C377.173 625.582 382.397 625.768 386.125 624.032C388.602 622.878 395.154 613.541 397.087 610.793C407.722 595.665 417.694 576.476 423.961 559.344C425.684 554.636 430.013 552.065 434.529 550.257C437.605 549.027 444.586 548.015 447.038 546.317C448.352 545.408 450.149 541.205 448.437 541.205C445.333 541.205 441.488 541.521 438.521 541.205ZM161.225 357.706C156.137 359.533 150.138 364.386 148.011 369.371L161.225 357.706ZM226.004 380.388C223.889 377.485 218.928 376.609 215.432 376.511C215.422 377.348 217.319 378.046 217.955 378.24C220.565 379.039 223.446 379.209 226.004 380.388ZM159.9 441.992C143.815 446.9 146.138 426.97 148.437 417.455C149.911 411.359 157.102 397.921 160.937 392.757C162.971 390.02 166.327 389.009 167.819 385.902C163.04 381.806 155.444 392.662 152.202 393.183C149.69 393.587 144.788 389.858 141.054 389.482C135.25 388.896 129.427 390.647 123.852 390.466C122.183 390.411 121.151 388.933 118.069 389.608C114.15 390.467 114.988 393.117 113.937 395.284C111.608 400.081 105.271 404.937 105.111 411.266L104.708 417.342C105.398 415.793 106.54 414.199 107.258 412.82C109.138 409.209 111.258 405.782 114.601 402.404C117.894 399.077 127.59 392.483 124.684 401.929C122.689 408.413 117.323 415.193 119.247 422.54L120.724 420.097C123.271 410.589 129.667 402.615 138.425 397.918C139.754 398.818 139.363 399.265 139.122 400.527C137.403 409.505 130.231 413.867 131.541 425.404C131.613 426.034 131.826 427.841 132.794 427.727C133.456 421.461 138.662 406.116 144.889 403.562C145.927 403.136 148.411 403.036 148.691 404.172C150.088 409.828 144.06 419.309 143.375 425.456C142.769 430.896 144.479 437.029 146.681 441.988C142.039 444.333 142.175 438.46 138.093 438.108C136.675 439.67 141.904 459.249 142.031 462.704C140.68 463.076 139.376 463.7 137.908 463.288C137.604 463.202 132.889 460.465 132.463 460.16C128.442 457.279 126.341 450.578 123.159 446.591C116.727 438.531 108.246 438.205 101.395 445.878C89.1658 459.574 98.5597 481.007 116.578 482.227C123.59 482.701 126.398 479.469 131.463 485.132C135.678 489.843 139.08 495.988 143.699 501.012C163.703 522.766 191.279 532.775 220.058 520.783C239.754 512.576 259.886 488.631 253.303 466.767C252.878 465.358 248.971 455.351 248.454 454.968C248.32 454.869 246.104 456.04 245.177 455.611C245.83 447.911 246.858 440.235 244.328 432.774C244.013 431.844 242.16 427.706 241.695 427.252C241.517 427.078 237.67 424.686 237.429 424.614C234.031 423.592 230.722 427.034 227.33 427.078C226.649 422.578 233.335 419.784 236.964 419.318C238.207 419.159 243.553 420.573 243.082 418.456C241.458 411.161 232.461 400.467 226.674 395.625C224.742 394.008 220.408 390.771 218.314 389.56C217.641 389.17 216.021 388.291 215.431 389.146C222.376 394.615 230.678 402.677 228.641 412.166C227.688 412.904 222.95 403.304 222.328 402.481C218.732 397.717 206.281 389.705 200.572 387.511C197.877 386.476 194.975 386.517 192.619 384.938C191.599 385.557 192.708 386.429 193.363 386.802C195.412 387.968 198.623 388.786 201.104 390.231C207.595 394.011 214.025 400.721 214.764 408.276C210.681 408.806 212.843 407.489 211.962 405.848C210.266 402.689 198.354 394.793 194.56 394.052C193.925 393.928 192.11 393.556 192.297 394.653C198.45 396.393 204.876 403.756 204.188 410.219C203.446 411.047 197.201 404.254 196.203 403.469C188.515 397.417 179.007 392.293 170.467 400.16C165.707 404.545 166.057 409.481 167.171 415.407C163.597 414.172 162.236 413.447 160.178 417.298C157.512 422.289 157.156 429.687 157.929 435.178C158.287 437.717 158.861 439.67 159.9 441.992ZM430.255 395.312C429.602 394.688 423.329 399.934 422.988 401.138C425.061 400.521 426.94 398.687 428.692 397.37C429.114 397.053 431.137 396.154 430.255 395.312ZM436.204 405.032C435.038 403.949 429.564 409.724 428.598 410.863C424.566 415.617 420.297 420.655 416.392 425.475C408.928 434.683 409.196 441.291 407.726 451.989C406.689 459.534 395.21 466.946 392.903 477.003C389.565 491.557 403.349 514.881 414.836 523.588C429.911 535.015 446.865 535.134 464.628 530.503C472.101 528.555 479.042 525.171 486.438 523.05C487.384 529.247 477.442 533.795 472.494 536.274C470.648 537.199 460.878 540.446 460.621 541.647C459.779 545.583 469.145 553.427 466.965 561.33C466.19 564.139 463.284 564.852 465.132 568.928C465.919 570.665 468.84 571.858 466.667 574.652C465.201 576.537 462.565 574.666 461.312 573.317C459.933 571.833 460.702 569.766 458.024 570.382C457.859 576.66 458.345 583.764 462.979 588.528C465.253 585.211 467.379 581.618 469.939 578.509C471.81 576.237 478.684 570.481 479.092 567.996C479.449 565.822 468.931 562.253 467.937 559.375C473.878 555.556 480.598 552.903 486.39 548.608C489.175 546.542 494.184 542.321 496.724 539.941C498.06 538.69 501.594 534.934 501.996 533.44C502.456 531.73 502.008 520.024 501.36 519.118C500.764 518.285 498.994 518.443 498.009 518.471C496.238 518.52 492.325 520.346 491.735 518.831C491.52 518.277 492.9 518.78 493.065 518.095C493.313 517.068 492.866 515.752 493.211 514.448C493.311 514.069 496.905 507.933 497.189 507.658C499.048 505.861 506.797 508.888 509.404 509.281C514.087 509.988 518.44 510.505 523.091 509.393C535.933 506.32 546.44 485.626 535.069 475.676C533.703 474.481 527.579 472.027 525.808 471.795C520.848 471.145 513.265 474.901 508.974 477.389C505.447 479.433 503.22 483.126 498.342 482.198C497.238 480.332 500.447 476.007 500.331 475.406C500.049 473.951 495.788 474.786 494.11 473.706C492.532 472.691 492.758 470.118 490.504 469.792C491.025 465.147 492.197 459.932 492.422 455.315C492.541 452.877 491.539 442.46 491.974 441.611C492.336 440.907 493.002 440.786 493.712 440.686L493.71 439.736C483.645 435.763 477.294 429.503 473.205 419.644C472.471 417.872 469.793 407.379 469.252 406.983C468.09 406.133 465.114 411.635 464.792 412.65C463.757 415.916 463.355 431.763 465.993 433.556C466.333 433.788 467.584 432.95 468.292 432.979C471.596 433.116 477.038 440.784 476.848 444.025C476.811 444.666 476.1 448.965 474.887 448.474C474.022 448.124 469.811 440.344 468.918 438.764C468.199 437.491 467.434 434.392 467.268 434.213C465.458 432.268 466.396 437.044 466.324 437.485C465.795 440.74 464.99 444.628 461.686 440.67C460.645 435.866 457.603 432.532 456.344 427.754C454.429 420.483 453.786 412.53 453.391 405.038C451.928 404.792 452.07 405.148 451.742 406.302C450.12 412.013 449.842 420.837 450.062 426.784C450.142 428.934 452.574 434.56 447.742 431.653C441.01 427.603 436.47 412.486 436.204 405.032ZM547.052 422.093C546.074 420.957 540.374 416.968 538.998 416.954C536.731 416.932 535.881 419.389 535.057 419.747C534.465 420.004 531.263 418.406 531.488 420.809C531.661 422.659 535.093 426.794 536.156 428.571C536.758 429.577 536.903 431.573 537.649 432.292C538.79 433.394 540.498 432.575 541.211 433.011C541.537 433.21 543.386 439.493 543.964 440.048C544.712 440.767 545.298 440.101 545.297 439.069C545.293 436.101 541.145 426.811 547.598 429.669C550.838 435.646 554.464 441.706 555.518 448.477C556.861 447.62 556.181 447.037 556.097 446.008C555.57 439.581 551.272 426.99 547.052 422.093ZM524.524 424.088C523.072 422.462 520.588 420.378 518.838 418.973C518.314 418.552 517.527 417.261 516.855 418.325C517.796 419.347 518.966 420.153 519.752 421.319C523.669 427.137 530.262 438.679 530.123 445.559C530.054 448.956 527.728 452.226 528.416 455.609C534.054 446.613 531.448 431.845 524.524 424.088ZM89.8353 440.699V426.757C89.8353 424.815 91.5531 421.361 91.4911 419.304C86.9626 424.14 87.5434 430.918 88.6199 437.027C88.7793 437.931 88.8049 440.554 89.8353 440.699ZM137.968 507.629C137.41 507.299 136.71 507.539 136.107 507.493C137.489 509.853 135.356 512.353 135.593 514.798C135.994 518.92 142.685 521.934 145.511 524.372C151.171 529.257 157.053 534.492 162.556 539.575C166.676 543.38 170.492 549.11 175.179 551.833C182.097 555.853 183.252 553.614 181.157 546.618C179.064 539.625 178.077 543.374 174.17 541.125C173.765 540.892 170.276 537.05 170.165 536.665C169.661 534.908 173.634 530.471 172.821 529.511C167.07 525.785 160.195 523.942 154.4 520.342C149.702 517.424 143.82 512.8 139.042 509.446C138.393 508.99 138.205 507.768 137.968 507.629ZM159.221 547.014C160.26 545.893 155.326 540.305 154.3 539.244C149.127 533.891 142.918 529.544 137.096 524.997C135.901 524.064 131.242 519.178 130.61 519.228C130.196 519.26 128.682 520.088 128.483 520.423C126.901 523.083 142.672 552.814 146.128 556.673C153.015 557.023 153.522 549.892 157.336 547.409C157.915 547.032 159.132 547.11 159.221 547.014ZM126.188 534.718L120.925 523.331C118.934 521.201 114.932 523.848 116.42 526.811C118.292 526.934 125.112 535.792 126.188 534.718ZM124.215 582.056C127.24 580.599 127.844 577.19 129.624 574.725C133.392 569.511 137.375 566.706 143.365 564.225C135.836 557.441 132.525 545.987 124.539 539.909C120.842 537.096 109.925 530.828 105.471 530.881C95.6616 530.997 84.6108 540.569 75.9571 544.775C83.4631 545.042 92.1674 546.689 98.8766 550.168C106.121 553.924 120.773 569.805 123.354 577.382C123.866 578.884 124.206 580.465 124.215 582.056ZM515.296 535.604C510.427 531.114 505.575 540.367 502.671 543.181C498.815 546.92 491.677 551.692 486.887 554.283C484.658 555.488 482.014 556.117 480.01 557.268C479.456 557.586 478.917 557.099 479.181 558.378C485.076 562.85 491.268 564.915 497.043 570.039C501.359 573.869 500.159 575.949 505.595 570.042C507.99 567.44 512.46 561.112 514.493 558.02C515.869 555.927 519.935 549.558 520.39 547.54C521.152 544.164 517.753 537.87 515.296 535.604ZM455.37 548.34C454.369 548.075 454.275 548.598 453.716 548.978C450.948 550.857 444.388 559.491 443.154 562.609C442.805 563.492 441.798 567.305 442.164 567.791C448.641 566.816 454.739 565.061 460.619 562.234C463.312 556.626 455.64 553.695 455.37 548.34ZM185.203 553.009C183.079 554.931 186.519 557.534 187.14 558.905C187.858 560.489 189.865 569.547 191.953 569.084C194.799 568.454 191.819 556.979 191.013 555.105C190.278 553.396 188.379 552.357 188.319 550.285C186.956 550.429 187.383 552.219 186.811 552.729C186.482 553.023 185.492 552.748 185.203 553.009ZM161.882 551.582C160.685 551.349 160.24 552.159 159.614 552.918C158.755 553.956 152.6 563.488 152.71 564.134C153.434 565.353 154.751 566.039 155.564 567.183C159.563 572.806 164.033 579.818 168.492 584.979C169.425 586.059 170.187 586.855 171.798 586.592L161.882 551.582ZM106.615 567.549C100.966 561.092 92.5673 553.06 83.543 552.241C79.0359 551.831 72.1412 552.203 68.8826 555.665C63.5457 561.334 57.5161 580.982 55.532 588.933C53.4157 597.414 51.1608 607.151 55.6154 615.301C57.598 618.928 62.7436 619.308 59.4228 623.88C55.4036 629.413 49.3145 635.047 45.2735 641.119C44.1748 642.77 42.9515 645.039 42.2455 646.896L67.2345 618.558C68.2569 615.306 63.3894 610.603 62.3642 606.735C59.2415 594.952 64.6262 563.635 79.2122 560.288C92.5126 557.236 98.4593 564.728 106.994 572.049C108.3 573.17 110.318 573.325 111.322 575.569C111.804 572.469 108.386 569.574 106.615 567.549ZM204 558.254C202.49 556.798 199.603 555.576 197.907 554.178C196.798 555.084 198.89 556.177 199.468 557.186C200.886 559.661 201.957 563.46 203.363 565.666C205.075 568.353 206.234 562.294 206.183 561.031C206.166 560.615 205.17 560.665 204.847 560.188C204.468 559.625 204.487 558.723 204 558.254ZM559.585 576.449C554.603 570.792 537.57 558.789 530.516 556.008C529.112 555.455 526.604 554.395 525.175 554.774C524.702 554.899 524.426 557.095 523.776 558.048C522.976 559.221 521.654 559.518 521.049 560.237C518.057 563.792 509.548 576.564 506.522 578.084C498.308 582.209 492.015 571.499 484.245 571.099C477.283 577.303 472.482 587.291 463.972 591.143L463.977 592.097C467.306 596.032 469.939 601.134 473.224 605.077C473.688 605.633 475.829 607.978 476.525 607.343C477.17 599.476 479.227 588.265 487.511 584.722C496.359 580.938 502.423 586.21 507.946 592.414C508.832 593.41 509.63 595.643 510.228 596.005C512.922 597.634 519.213 593.142 522.258 592.226C523.546 591.838 526.574 591.904 526.738 591.752C526.904 591.598 527.126 588.914 527.952 587.431C529.742 584.215 538.727 575.99 542.004 573.984C543.041 573.35 543.981 572.795 545.275 572.985C544.565 577.484 540.533 581.024 537.362 584.347C536.399 585.356 529.605 590.789 530.736 591.78C550.188 592.176 541.719 609.209 542.712 621.207C543.447 630.089 546.167 643.852 548.371 652.616C548.841 654.482 549.638 659.913 552.217 659.893C556.522 657.389 561.071 654.945 565.626 652.921C573.739 649.316 583.565 646.907 591.137 642.931C592.571 642.178 593.934 641.422 594.804 640C588.446 628.138 581.293 616.542 575.806 604.306C570.391 595.539 566.437 584.227 559.585 576.449ZM190.959 571.675C190.608 571.924 186.715 566.195 185.349 565.201C184.141 564.322 175.883 560.081 175.106 560.665C180.319 570.361 186.66 580.506 188.257 591.527C188.501 593.213 188.567 602.887 188.991 603.451C190.167 605.014 190.787 601.009 190.883 600.457C191.994 594.062 193.203 584.914 193.609 578.484C193.778 575.798 193.509 573.065 193.612 570.382C190.652 569.604 191.105 571.571 190.959 571.675ZM154.618 598.918C155.431 598.132 153.713 585.877 153.094 583.872C152.715 582.645 147.54 572.124 147.022 571.673C144.218 569.234 136.851 572.459 135.61 576.076C135.159 577.39 134.453 583.053 135.088 584.042C135.737 585.052 137.095 583.913 138.062 584.317C138.733 584.598 138.996 585.659 140.414 585.94C142.052 586.264 148.282 585.169 148.662 586.929C149.605 591.299 136.469 587.107 140.162 593.969C142.111 597.592 144.828 596.334 147.536 597.106C149.779 597.745 151.355 599.918 154.618 598.918ZM430.026 658.992C431.198 657.627 431.457 656.81 431.622 655.048C432.254 648.288 429.731 638.238 429.57 631.039C429.375 622.342 431.085 615.169 429.415 606.552C428.328 600.945 425.81 595.616 426.141 589.662L424.318 582.71C422.591 587.853 420.851 593.044 418.239 597.824C416.494 601.017 405.795 615.214 405.795 616.741C418.081 615.762 426.085 624.753 424.964 636.524C417.837 629.863 414.123 618.76 401.839 622.915C401.828 623.852 403.858 624.171 404.619 624.39C409.314 625.744 415.473 625.834 417.038 631.331C414.381 630.31 411.486 630.846 408.945 630.522C408.67 630.487 402.902 628.118 405.141 630.68C405.252 630.807 407.48 631.151 408.377 631.729C409.841 632.674 414.892 636.362 415.735 637.478C416.452 638.428 420.102 646.337 417.369 646.238C413.122 641.761 406.62 634.431 400.145 633.318C391.777 631.88 378.28 634.457 369.708 635.81C368.416 636.014 363.598 635.397 363.512 636.845C363.468 637.597 369.249 648.349 370.116 650.456C371.574 653.997 374.661 660.822 375.237 664.237C376.794 673.458 370.366 680.841 384.691 677.742C392.498 676.052 403.069 672.854 410.594 670.081C415.978 668.097 426.367 663.253 430.026 658.992ZM113.847 594.58C114.928 593.2 119.608 590.468 120.591 589.196C121.002 588.664 120.315 588.092 119.945 587.859C118.478 586.936 106.655 585.581 104.703 585.946C101.329 586.577 102.008 591.311 102.747 593.713C103.206 595.208 109.149 605.485 109.961 606.083C115.307 610.028 122.495 603.055 122.222 597.622C119.096 599.085 115.932 598.345 113.055 596.665C113.472 596.064 113.44 595.099 113.847 594.58ZM134.103 594.358C134.42 591.567 133.122 588.966 131.817 586.602C130.55 586.95 126.685 591.205 126.87 592.046C126.915 592.253 129.708 595.033 129.923 595.052C131.074 595.149 132.735 594.122 134.103 594.358ZM503.427 594.573C501.499 592.497 494.908 588.68 492.042 588.514C483.721 588.035 482.201 599.607 481.791 605.698C481.464 610.558 480.323 621.982 487.924 620.187C488.839 619.971 499.076 613.764 499.38 613.173C500.01 611.945 498.857 610.823 499.1 609.738C499.348 608.637 501.345 608.206 500.984 606.7C500.34 606.093 491.136 612.739 491.795 608.397C492.392 604.459 503.512 601.494 506.263 598.591C504.633 597.747 504.318 595.533 503.427 594.573ZM530.501 625.274C535.081 620.604 540.281 606.278 535.709 600.843C530.2 594.295 516.433 596.573 516.187 606.045C517.591 607.385 526.79 604.504 526.103 607.66C525.579 610.072 515.653 611.226 513.55 612.854L516.647 615.322L525.784 628.742C526.193 628.842 529.976 625.809 530.501 625.274ZM132.808 600.864C132.459 607.266 135.837 613.298 137.121 619.643C137.908 623.53 138.147 632.7 139.531 635.435C140.587 637.521 140.858 635.322 142.343 635.278C143.78 635.236 148.589 637.333 148.652 634.301C148.698 632.102 142.834 623.922 141.473 621.209L132.808 600.864ZM509.577 602.808C509.213 602.44 502.658 605.194 502.413 605.487C500.9 607.299 505.35 611.511 508.631 608.678C510.238 607.29 509.434 604.716 509.577 602.808ZM115.621 639.118C117.587 637.266 119.12 636.761 121.928 637.139C124.56 637.494 124.698 639.349 125.991 639.67C128.898 640.391 130.867 637.053 131.337 634.706C131.785 632.466 129.549 613.693 128.865 610.274C128.031 606.102 126.238 608.52 125.041 611.08C123.576 614.214 120.881 620.353 119.757 623.404C119.072 625.262 115.113 638.478 115.621 639.118ZM520.813 652.085C520.733 642.238 516.882 632.936 513.685 623.745L510.248 619.669C509.438 628.268 504.59 638.646 507.61 647.21C508.155 648.756 509.787 649.587 509.587 651.44C511.102 651.533 511.468 650.022 513.157 650.123C514.11 650.18 520.332 652.64 520.813 652.085ZM503.628 620.966C496.936 622.028 494.06 632.015 491.901 637.661C491.261 639.335 488.537 645.615 488.446 646.621C488.05 650.976 494.034 651.838 496.574 648.695C499.362 639.555 501.562 630.282 503.628 620.966ZM313.102 628.234C310.971 628.516 307.568 630.197 305.964 631.638C303.816 633.567 296.923 642.745 296.741 645.327C296.463 649.274 301.578 651.269 304.994 650.198C305.724 649.969 311.434 646.823 312.275 646.258C313.653 645.333 314.805 643.224 316.316 642.447C321.036 640.017 321.314 643.513 323.82 645.942C326.011 648.067 328.458 650.094 330.792 652.07C334.242 654.991 348.525 666.897 351.624 667.944C355.512 669.256 368.569 667.889 367.33 661.654C366.722 658.591 360.977 646.748 359.127 643.729C354.276 635.816 353.797 640.872 347.229 641.639C344.757 641.928 339.968 642.028 338.022 640.439C336.936 639.553 336.759 637.959 335.683 636.898C330.492 631.782 320.524 627.252 313.102 628.234ZM543.923 663.073L536.029 629.398C535.154 631.918 528.925 635.358 528.221 637.632C527.369 640.387 529.899 649.265 529.445 653.742C529.032 657.828 526.32 658.206 530.776 661.447C536.972 665.953 553.226 677.01 560.141 678.683C561.763 679.075 560.468 676.165 560.143 675.435C559.21 673.344 556.314 668.228 554.042 667.781C552.083 667.395 541.358 670.094 541.915 664.733C542.091 663.04 543.736 663.326 543.923 663.073ZM318.841 678.376C323.998 681.772 325.104 683.327 331.08 686.155C331.881 686.534 333.087 688.385 333.42 688.387C333.844 688.39 336.229 685.5 336.3 684.719C336.496 682.548 319.201 670.299 319.184 667.329C319.18 666.462 319.627 666.21 320.218 665.704C322.96 665.006 331.726 674.526 334.45 676.365C336.247 677.578 340.119 679.975 342.006 679.372C352.181 676.121 345.211 671.038 340.37 666.667C333.48 660.448 325.456 655.343 318.561 649.102C315.859 648.272 312.161 652.964 309.094 654.162C301.544 657.111 288.612 657.117 290.147 645.982C290.507 643.368 296.852 634.285 296.066 633.283C287.862 637.988 279.493 643.291 270.768 647.042C269.032 647.788 267.179 647.106 266.022 648.87C263.948 652.028 264.723 656.796 264.338 660.187C263.987 663.286 263.237 666.856 263.028 669.925C262.773 673.679 263.695 677.747 262.361 681.26L276.219 671.842C286.45 666.414 293.038 670.553 301.976 675.799C305.301 677.751 307.452 679.183 311.081 681.131C316.361 683.964 316.939 690.756 323.832 689.692C324.851 688.821 318.072 683.814 317.241 682.871C315.336 680.711 314.256 677.666 311.94 675.752C314.4 675.229 317.025 677.18 318.841 678.376ZM258.339 645.659C257.209 645.017 250.119 646.74 248.14 646.891C245.948 647.059 237.716 646.315 236.869 647.507C236.054 660.444 234.322 673.382 230.634 685.802C231.713 686.816 250.777 684.4 252.759 682.546C254.804 680.633 255.812 675.182 256.331 672.434C257.3 667.309 258.067 660.215 258.388 654.998C258.467 653.717 258.773 645.906 258.339 645.659ZM170.479 646.258C169.128 646.191 167.792 646.198 166.465 646.529C160.097 648.113 148.239 656.116 142.759 660.234C142.008 660.798 141.055 661.564 140.734 662.455C142.708 664.301 149.615 660.54 151.782 659.358C156.48 656.796 164.17 651.715 168.454 648.48C169.205 647.913 170.158 647.149 170.479 646.258ZM153.293 649.487C153.124 648.83 152.151 647.798 151.55 647.675C149.137 647.182 137.347 653.426 135.446 655.971C141.832 655.016 146.522 649.108 153.293 649.487ZM227.786 647.65C225.433 648.314 225.693 653.897 225.163 656.125C223.174 664.491 221.001 674.805 218.393 682.549C216.895 686.995 218.48 689.159 222.189 685.629C224.037 679.543 226.474 673.384 227.833 667.174C228.391 664.625 228.39 661.184 228.843 658.438C229.214 656.199 231.89 649.157 230.018 647.824C229.317 647.395 228.548 647.435 227.786 647.65ZM272.547 681.517C270.825 683.486 267.467 687.531 271.963 688.379C278.258 689.567 283.058 685.382 286.836 680.96C289.642 677.675 292.771 674.489 285.731 674.179C280.873 673.965 275.56 678.073 272.547 681.517ZM280.872 694.88C281.263 695.232 290.747 694.202 291.435 693.901C292.45 693.457 296.808 688.286 297.682 687.061C299.797 684.096 302.77 680.598 297.425 678.948C293.793 677.827 294.419 680.351 292.769 682.241C291.122 684.128 288.844 686.506 287.066 688.318C286.049 689.354 279.646 693.776 280.872 694.88ZM296.076 698.771C299.599 699.19 302.983 698.552 305.669 696.192C306.289 695.648 311.075 689.085 311.169 688.629C311.583 686.613 307.557 684.635 305.996 683.856C306.604 686.812 294.264 697.061 296.076 698.771ZM315.899 694.238C315.349 693.681 309.567 697.428 310.621 699.422C313.011 698.393 315.737 697.22 315.899 694.238Z" fill="black"/>
<path d="M425.404 14.904C433.47 21.905 424.793 32.5921 424.51 41.1372C421.163 49.4532 416.92 57.8988 410.692 64.5431C409.402 65.9187 405.553 67.3933 410.066 67.8824C424.268 69.422 446.542 67.4859 458.9 75.7424C463.245 78.6453 463.638 83.2805 461.459 87.7573C457.346 96.2045 446.041 109.164 443.79 117.76C442.22 123.752 446.163 132.675 437.05 134.493C429.11 136.078 423.851 132.19 417.706 128.155C415.982 130.308 429.183 149.705 431.033 153.008C432.391 155.433 435.531 161.031 436.36 163.34C438.475 169.23 433.986 167.825 430.122 166.871C426.685 166.021 417.008 160.985 414.751 161.203C410.257 161.637 408.006 174.105 402.311 170.822C399.121 168.984 393.759 152.694 391.987 148.515C391.65 147.721 391.882 146.51 390.604 146.311L389.887 168.028C391.138 173.012 389.507 177.768 389.913 182.97C390.263 187.461 393.542 195.098 392.564 199.04C392.432 199.573 391.244 199.256 391.183 200.432C391.069 202.618 392.654 203.729 392.453 206.1C391.598 216.191 379.127 225.304 369.7 227.29C329.729 235.709 251.631 206.442 240.586 164.105C232.118 131.646 267.166 130.847 287.692 118.313C295.392 113.611 303.57 104.705 311.113 98.9965C313.547 97.1541 316.941 95.6275 319.195 93.4638C319.24 91.7426 306.405 91.9564 305.063 91.7773C301.501 91.3019 287.317 88.0006 288.283 83.1628C288.691 81.1179 295.528 79.2607 296.444 77.5765C297.438 75.7504 293.949 73.9107 295.253 69.9851C298.231 61.0209 315.518 32.2443 321.851 24.7287C324.702 21.3447 326.619 19.4775 331.362 19.9335C347.925 21.5258 360.715 49.7766 366.5 62.6647C367.541 64.9832 368.115 64.0737 369.281 62.1775C381.259 42.6829 379.325 28.7818 402.549 15.7042C410.313 11.3323 417.612 8.14078 425.404 14.904ZM406.464 20.5237C405.996 21.1846 415.007 24.3795 416.058 24.4488C419.896 24.7021 424.225 21.2878 420.034 18.5491C415.601 15.6524 410.565 18.6519 406.464 20.5237ZM413.071 27.6561C406.242 24.102 398.714 23.1935 393.904 30.2349C397.453 30.8803 401.075 31.1104 404.64 31.7064C405.564 31.8609 406.362 32.7856 407.348 32.7057C408.689 32.597 413.319 27.9789 413.071 27.6561ZM354.241 71.7514C348.242 68.7 343.292 63.5366 336.866 61.2285C334.834 60.4987 321.845 58.3185 321.865 57.1516C326.614 53.1202 335.443 55.2401 340.816 57.3532C345.637 59.2491 354.634 66.705 359.043 65.7726C362.52 65.0372 361.462 62.6351 360.446 60.141C356.926 51.5093 347.796 37.6576 340.673 31.5563C337.459 28.8029 331.92 23.9693 327.544 26.4274C325.828 27.3911 319.513 37.9404 318.015 40.419C312.957 48.7867 307.302 58.3157 302.667 66.8628C302.245 67.6416 301.759 68.0837 302.025 69.1445C312.739 65.824 323.132 68.0395 333.884 69.9894C338.062 70.747 349.37 74.5505 352.74 73.2072C353.228 73.013 354.491 72.1148 354.241 71.7514ZM404.477 35.4361C395.983 33.2568 389.991 31.0139 385.971 40.6103C393.387 39.1274 402.845 45.9698 404.477 35.4361ZM398.525 46.4608C392.794 44.7172 384.171 39.9838 383.331 49.0441C387.165 47.5231 390.443 49.3054 394.144 50.2169L398.525 46.4608ZM409.764 50.3467C409.021 49.6555 408.173 50.4897 407.583 51.1374C406.915 51.8708 403.09 56.855 402.815 57.4754C402.304 58.6342 402.625 58.6671 403.488 59.4082C404.32 58.5584 410.423 50.9593 409.764 50.3467ZM380.022 54.8822H390.267C390.669 54.8822 391.536 53.5471 391.259 52.9438C387.638 51.8152 380.519 49.4003 380.022 54.8822ZM387.957 62.6635C389.971 57.8558 379.171 56.1898 378.134 59.8552C377.213 63.1115 386.203 62.6199 387.957 62.6635ZM358.204 79.5115C361.126 80.1824 363.584 82.3418 366.666 82.6282C368.838 82.8301 370.358 82.0295 372.414 82.0629C374.804 82.1016 380.836 84.7467 382.347 82.777C384.542 79.9136 381.859 74.1645 379.308 72.1176C372.073 66.3132 360.429 70.9434 358.204 79.5115ZM437.523 124.912C438.132 122.591 435.548 104.758 439.183 104.824C439.635 104.832 440.946 107.666 441.827 108.041C443.343 105.901 444.99 103.71 446.384 101.501C448.096 98.7878 455.217 87.4675 455.725 85.3573C457.213 79.174 447.853 77.6479 442.841 76.5817C431.977 74.2704 402.285 70.7351 392.589 74.0186C391.512 74.3831 390.482 74.951 389.573 75.6236C390.674 81.5131 395.011 79.0514 399.511 79.5333C406.479 80.2795 416.107 81.504 422.765 83.3077C423.739 83.5716 430.425 85.8963 430.75 86.1645C432.965 87.9904 430.532 90.9452 428.007 90.5222C417.69 87.4234 407.259 85.9674 396.551 84.7131L400.31 87.8296C402.755 88.8668 417.004 96.3142 417.013 98.0028C416.169 98.7953 415.403 100.147 414.109 100.225C409.98 100.472 389.181 87.9731 387.957 89.2522C385.93 91.3715 394.422 96.9185 395.926 97.9633C403.734 103.388 412.583 107.49 420.549 112.715C426.377 116.537 431.714 121.078 437.523 124.912ZM316.565 74.3408C314.997 73.9666 310.498 73.7392 310.618 76.2769C312.12 76.3958 313.596 76.1125 315.031 75.7198C316.154 75.4125 316.871 76.1963 316.565 74.3408ZM350.939 78.8771C338.566 78.309 326.07 77.7826 313.914 80.489L305.991 83.4064C310.049 84.1414 314.125 84.1589 318.247 84.0924C326.568 83.9581 337.169 83.7587 345.31 82.757C348.161 82.4062 351.762 82.5239 350.939 78.8771ZM369.442 93.1365C368.225 88.3084 362.83 89.2248 358.869 89.2555C361.176 92.0335 366.134 91.7282 369.442 93.1365ZM377.173 106.304C367.057 94.9268 349.808 93.3424 335.377 94.4109C323.531 95.288 314.54 106.293 305.639 113.223C300.342 117.348 295.424 120.654 289.768 124.209C289.231 124.547 288.408 123.85 288.805 125.558C301.754 126.368 313.324 129.678 325.322 134.153C342.02 140.381 359.331 149.745 372.018 162.268C375.812 166.013 378.723 171.847 382.115 175.706C382.703 176.375 382.751 177.069 383.984 176.784C383.247 165.521 382.937 154.041 383.299 142.718C383.733 129.188 387.624 118.058 377.173 106.304ZM384.441 96.6004C383.407 95.9122 378.548 94.8004 379.366 96.6974C380.792 100.004 387.078 103.17 386.488 108.519C387.585 109.173 388.917 115.814 390.257 115.18C393.351 113.716 389.706 103.313 388.242 100.962C387.657 100.02 385.21 97.1117 384.441 96.6004ZM424.967 157.979C416.832 141.968 408.734 125.403 396.555 111.946C395.915 112.412 395.511 121.285 395.058 123.128C394.452 125.598 392.35 128.081 392.583 130.362C392.736 131.856 394.283 133.712 394.763 135.416C397.389 144.734 398.391 154.357 405.471 161.862C410.431 153.934 417.073 155.594 424.967 157.979ZM336.064 198.834H357.547L356.436 197.005C351.161 196.125 345.391 195.896 340.222 194.755C337.392 194.129 332.401 192.656 330.451 190.719C330.074 189.158 332.56 189.694 333.45 189.725C339.112 189.923 344.74 190.868 350.61 190.408C351.378 190.348 353.572 190.208 353.578 189.114C351.532 189 349.425 189.313 347.382 189.027C343.554 188.491 334.59 187.091 331.32 185.98C329.353 185.312 325.852 181.697 324.613 183.403C324.107 184.099 323.59 189.158 322.344 191.211C318.03 198.319 301.634 196.353 297.104 190.364C294.686 187.167 295.086 182.788 293.706 179.429C293.389 178.656 291.586 175.888 290.796 177.098C291.768 177.847 291.312 180.097 290.454 180.016C288.418 179.826 284.247 169.077 283.179 167.064C282.948 172.185 284.12 177.865 285.709 182.739C286.738 185.893 289.592 188.643 288.798 192.346C285.442 191.646 283.431 188.533 281.943 185.784C278.567 179.55 276.552 172.079 273.258 165.77L272.564 172.279C272.066 175.097 279.505 184.793 279.534 185.542C279.569 186.446 277.95 186.565 276.924 186.174C268.889 183.111 257.725 161.444 257.73 152.798C255.824 152.812 253.546 158.459 251.421 155.42C249.639 152.872 252.567 147.392 254.431 145.341C255.046 144.665 262.514 138.436 263.029 138.212C263.841 137.858 268.643 137.334 269.969 137.239C303.975 134.798 341.994 152.262 364.14 177.128C372.592 186.619 380.908 198.107 381.347 211.151C384.281 210.976 385.06 206.678 385.302 204.338C388.172 176.656 351.758 146.382 327.775 137.583C303.745 128.768 278.836 126.087 255.968 139.067C234.489 151.258 253.783 177.22 266.394 188.715C287.919 208.337 337.294 226.925 366.29 220.703C372.284 219.417 376.013 218.054 374.729 211.156C363.924 213.998 354.002 216.012 343.009 212.443C343.288 211.371 345.857 210.9 346.823 210.684C355.31 208.782 364.452 210.085 372.09 205.307C371.663 204.836 370.8 202.898 370.653 202.812C370.041 202.454 361.06 204.526 359.189 204.659C354.654 204.983 352.896 204.136 349.108 203.545C346.997 203.216 335.357 201.69 335.076 200.445C334.944 199.86 335.658 198.948 336.064 198.834ZM321.848 168.361C321.857 163.453 326.155 159.896 325.151 154.741C323.074 155.115 323.139 157.558 322.529 158.307C319.734 161.732 313.463 165.975 321.848 168.361ZM302.674 167.704C305.19 162.599 294.189 151.769 299.447 163.426C300.03 164.72 301.529 166.796 302.674 167.704ZM292.664 160.7C288.55 158.328 291.336 167.137 292.479 168.963L296.394 172.891C297.08 172.243 298.09 171.045 297.919 170.092C297.824 169.565 293.135 160.972 292.664 160.7ZM307.795 169.81C301.312 170.985 298.945 181.696 302.311 186.554C303.827 188.742 310.547 192.666 311.932 188.795C310.891 187.169 306.581 185.653 307.609 183.294C309.135 179.795 311.479 183.316 313.613 183.014C314.522 182.886 318.278 179.659 318.528 178.393C319.96 171.124 314.273 168.635 307.795 169.81Z" fill="black"/>
<path d="M477.184 119.077C478.432 120.361 478.714 134.978 478.544 137.589C477.184 158.572 462.903 183.323 444.743 194.563C438.911 198.173 432.636 200.364 425.632 200.125C431.369 195.999 437.862 193.184 443.159 188.441C460.95 172.512 472.857 150.652 475.788 127.104C476.079 124.768 475.579 122.248 475.868 120.039C475.985 119.144 476.251 118.117 477.184 119.077Z" fill="black"/>
<path d="M277.564 39.9746C260.025 60.3025 251.162 83.9178 248.451 110.352C248.325 111.583 249.102 112.771 248.999 114.065C248.922 115.039 247.209 119.435 245.844 118.426C245.546 118.206 243.37 112.428 243.249 111.563C240.437 91.4704 249.199 68.277 261.718 52.6307C265.366 48.0716 271.551 40.3947 277.564 39.9746Z" fill="black"/>
<path d="M496.356 143.714C501.541 167.242 482.242 190.92 461.304 199.784C458.601 200.928 455.752 202.276 452.733 202.069C457.257 197.567 463.121 194.406 467.946 190.089C482.611 176.969 490.541 163.583 495.048 144.687C495.287 143.688 494.602 143.557 496.356 143.714Z" fill="black"/>
<path d="M219.588 120.174C218.586 119.273 217.487 116.548 217.08 115.188C212.83 101.008 218.631 81.5771 226.652 69.4587C229.414 65.2857 232.437 60.8272 237.235 58.7734C237.927 59.6447 230.373 71.9721 229.389 74.0896C223.419 86.942 221.648 97.4923 222.011 111.647C222.044 112.924 224.076 124.209 219.588 120.174Z" fill="black"/>
<path d="M335.403 569.315C338.438 569.513 338.488 572.904 338.203 575.079C337.822 577.994 334.171 589.152 332.723 591.744C331.136 594.583 328.31 592.654 328.42 589.541C328.473 588.031 330.247 580.02 330.734 578.124C331.22 576.23 333.237 569.173 335.403 569.315Z" fill="black"/>
<path d="M360.002 582.148C362.895 581.692 362.484 585.385 361.828 587.232C358.856 589.165 350.657 600.862 347.323 600.208C345.566 599.864 346.426 596.68 347.065 595.437C348.265 593.105 357.732 582.506 360.002 582.148Z" fill="black"/>
<path d="M319.207 592.434C318.28 592.423 317.266 592.577 316.363 592.303C313.389 591.4 310.09 574.776 311.602 572.326C314.428 567.743 316.441 575.386 316.927 577.484C317.362 579.36 319.761 591.904 319.207 592.434Z" fill="black"/>
<path d="M290.597 579.657C292.11 580.895 298.208 592.184 294.41 593.078C292.923 593.428 285.983 584.59 285.612 582.88C284.844 579.332 287.954 577.494 290.597 579.657Z" fill="black"/>
<path d="M236.578 486.741C236.706 487.672 236.572 488.429 236.218 489.3C235.529 490.991 220.827 507.502 218.751 509.126C207.207 518.16 195.263 514.749 186.382 504.376C180.915 497.99 180.061 493.845 177.11 486.393C176.174 484.03 173.968 481.939 174.443 478.959C180.68 477.642 185.985 483.391 190.799 485.933C200.155 490.873 217.847 491.477 228.018 489.037C230.843 488.359 233.382 486.194 236.578 486.741ZM186.344 491.932C190.904 500.93 203.218 508.199 213.376 503.853C214.603 503.328 221.212 497.488 221.373 496.776C222.074 493.679 215.659 496.364 214.442 496.468C204.177 497.347 196.113 493.55 186.344 491.932Z" fill="black"/>
<path d="M202.027 440.226C206.441 444.661 203.036 456.596 197.936 459.546C194.837 461.339 190.366 456.354 189.503 453.484C187.653 447.333 190.821 437.763 198.528 438.794C199.314 438.899 201.522 439.719 202.027 440.226Z" fill="black"/>
<path d="M235.696 462.316C239.327 465.868 239.392 473.082 235.934 476.7C232.945 479.828 217.889 482.753 220.8 477.735C225.121 475.363 239.595 471.732 231.453 465.325C226.092 461.107 220.382 465.495 219.386 465.046C214.639 462.908 222.45 458.881 225.661 458.85C228.137 458.826 233.909 460.568 235.696 462.316Z" fill="black"/>
<path d="M230.818 440.239C233.209 438.326 238.667 439.112 239.94 442.266C242.884 449.561 239.236 464.462 230.604 454.018C227.988 450.853 227.532 442.868 230.818 440.239Z" fill="black"/>
<path d="M208.814 427.078C205.654 427.556 204.199 424.712 201.862 423.854C194.983 421.328 188.446 425.331 183.045 429.027C181.513 422.677 191.477 418.188 196.622 417.98C202.212 417.755 209.061 420.813 208.814 427.078Z" fill="black"/>
<path d="M162.68 481.435C162.242 480.668 162.478 479.703 162.908 478.958C163.529 477.879 171.049 472.394 172.533 471.568C173.785 470.872 182.194 466.737 182.362 469.549C181.237 473.588 179.553 473.46 177.129 475.427C174.565 477.508 169.42 482.966 166.17 482.899C165.463 482.884 162.891 481.804 162.68 481.435Z" fill="black"/>
<path d="M105.042 460.796C105.151 456.111 103.515 450.663 110.011 450.374C117.833 450.027 121.995 462.351 115.936 467.28C112.934 467.914 115.267 457.745 112.334 455.898C109.069 453.843 108.202 461.802 105.042 460.796Z" fill="black"/>
<path d="M466.023 493.276C465.147 493.885 464.278 498.415 463.645 499.71C457.714 511.834 444.663 525.425 429.567 520.809C423.423 518.93 419.924 510.191 416.361 505.881C413.851 502.844 409.854 500.867 407.441 497.773C404.603 494.135 405.118 493.106 409.941 494.024C415.946 495.167 422 499.256 429.278 499.694C435.045 500.042 450.594 496.831 455.057 493.231C455.777 492.651 458.713 489.027 458.714 488.363C458.714 486.143 455.657 487.53 456.075 485.807C457.7 479.103 469.217 487.724 471.141 491.05C473.907 495.833 466.352 493.048 466.023 493.276ZM421.666 504.893C424.622 507.842 427.142 512.684 431.535 513.692C441.562 515.99 451.498 508.246 454.049 499.057C453.803 498.762 447.934 501.835 446.949 502.137C444.906 502.763 436.148 504.893 434.555 504.893H421.666Z" fill="black"/>
<path d="M431.429 469.366C432.155 470.63 431.929 472.475 430.276 472.847C428.166 473.321 425.033 470.513 420.708 471.208C419.598 471.386 415.107 474.178 415.04 474.851C414.485 480.43 420.74 483.664 423.648 487.379C404.531 488.105 398.559 463.379 421.916 465.423C424.084 465.613 430.422 467.613 431.429 469.366Z" fill="black"/>
<path d="M453.209 450.555C454.737 450.218 455.732 450.249 457.075 451.035C457.915 451.526 460.36 455.9 460.531 456.752C460.615 457.176 459.318 463.263 459.036 464.047C457.266 468.97 452.9 472.967 447.205 471.085C442.802 469.63 446.475 452.039 453.209 450.555Z" fill="black"/>
<path d="M532.055 482.191C529.961 481.676 523.41 483.156 522.88 485.242C522.6 486.341 527.637 497.583 526.764 498.405C524.62 500.421 520.618 493.135 519.893 491.859C518.484 489.381 519.855 487.88 516.37 489.179C515.038 489.676 510.783 493.107 509.584 491.921C507.376 489.736 519.151 480.266 521.656 479.453C524.947 478.384 530.943 478.282 532.055 482.191Z" fill="black"/>
<path d="M420.875 458.716C416.783 461.083 413.262 453.093 413.113 450.009C412.655 440.566 428.029 437.916 424.645 452.376C424.395 453.446 421.561 458.32 420.875 458.716Z" fill="black"/>
<path d="M432.235 435.511C428.114 433.898 424.08 432.557 421.007 429.355C423.465 424.11 434.155 430.476 432.235 435.511Z" fill="black"/>
<path d="M351.594 110.645C351.025 111.22 344.637 106.767 343.008 108.376L345.649 111.938C341.909 112.286 338.474 110.584 335.076 109.355C333.369 110.967 343.102 113.745 341.018 115.832C340.6 116.251 330.838 114.247 329.126 114.545L336.353 118.794C342.372 124.451 332.49 119.323 329.784 119.733L335.067 125.895C335.693 127.318 332.346 126.693 332.208 126.64C331.578 126.397 328.146 123.822 327.808 124.265C327.454 124.73 327.91 126.554 328.413 127.231C328.532 127.391 333.167 130.292 330.116 130.088C329.996 130.08 329.137 129.06 328.062 128.837C325.174 128.237 322.255 127.782 319.352 127.103C317.082 126.572 303.547 123.47 303.344 122.634C305.239 118.381 310.995 117.082 315.239 117.129L313.941 114.862C315.526 114.395 316.941 111.727 317.735 111.307C319.466 110.391 322.819 111.062 323.879 110.349C324.433 109.977 324.3 108.771 324.708 108.258C325.195 107.644 327.231 107.333 326.431 106.148C326.343 106.018 324.237 106.426 325.255 103.941C326.592 100.675 337.689 101.872 340.734 102.824C342.144 103.265 349.445 106.397 350.242 107.115C351.264 108.036 351.715 109.298 351.594 110.645Z" fill="black"/>
<path d="M366.14 126.21C367.584 125.723 367.962 128.206 369.109 126.854C371.637 123.873 370.059 117.116 371.391 116.123C373.101 114.848 375.64 118.951 376.321 120.436C379.811 128.043 376.62 136.339 377.993 143.363C378.147 144.15 379.726 143.505 380.027 143.722C378.789 147.31 376.521 150.812 375.07 154.096C374.199 156.066 374.856 159.358 372.503 158.551C371.202 158.105 360.163 142.442 359.79 140.506C359.105 136.957 364.089 139.787 366.14 139.178V126.21ZM372.744 151.498V145.662C371.163 147.179 370.121 146.395 368.126 146.314C367.381 146.94 371.286 151.609 372.744 151.498Z" fill="black"/>
<path d="M345.653 102.21C345.631 101.147 347.923 100.899 348.611 100.917C351.872 101.002 356.546 102.82 358.574 105.425C359.772 106.963 360.124 108.999 357.767 108.179C354.058 106.887 349.886 102.998 345.653 102.21Z" fill="black"/>
</svg>
