<svg width="444" height="250" viewBox="0 0 444 250" fill="none" xmlns="http://www.w3.org/2000/svg">
<path d="M215.268 27.4159C216.094 27.6715 215.37 32.1379 215.369 33.0643C215.368 33.6829 215.56 36.2331 215.991 36.375C216.683 36.6026 218.734 36.046 219.045 37.0212C219.672 38.9847 214.618 39.4125 213.304 37.2197C212.692 36.1974 212.546 33.1913 212.401 31.9247C212.671 31.2077 213.195 30.7559 212.848 29.9516C210.049 29.8135 209.787 35.2321 210.137 37.1615C210.741 40.4847 216.051 42.7417 218.811 40.8663C219.496 40.401 221.501 37.6511 221.728 36.8781C222.099 35.6189 221.534 32.1095 221.074 30.828C220.437 29.0558 216.567 28.3959 220.854 27.4724C229.794 25.5462 243.196 26.9574 252.579 26.9659C253.866 26.967 259.897 26.8367 260.604 26.4932C261.11 26.2474 261.835 24.8292 262.68 24.3722C264.232 23.5325 265.823 24.096 267.251 24.9624C268.124 25.4918 268.855 26.9624 269.455 27.1375C271.221 27.6533 272.439 26.4118 274.279 28.1894C276.424 30.2625 276.405 32.8654 274.458 35.0066C272.977 36.6353 271.617 36.1096 269.739 36.7797C269.856 46.3775 269.634 55.9834 269.743 65.5812C269.881 77.6806 270.372 89.8924 270.453 101.989C270.524 112.437 270.393 122.889 270.43 133.337C271.132 133.455 272.936 134.422 273.114 135.063C273.478 136.373 272.509 137.014 272.522 137.74C272.531 138.269 273.256 138.474 273.392 138.933C273.711 140.004 273.147 141.723 273.694 142.895C277.827 143.347 276.66 141.477 277.426 138.957C278.438 135.624 282.571 135.789 284.275 138.648C287.032 143.274 286.08 152.335 280.121 153.988C280.2 152.038 279.626 152.704 278.838 152.16C278.295 151.786 278.106 150.298 277.471 150.298H273.9V157.099C273.9 157.173 273.639 158.476 273.607 158.542C273.275 159.253 271.947 159.15 271.816 160.317C271.524 162.907 271.52 169.97 271.819 172.553C272.88 181.716 271.714 191.37 272.96 200.461C273.044 201.08 272.82 202.506 273.079 202.878C273.376 203.305 277.292 203.039 278.159 203.096C284.508 203.515 291.865 204.472 298.006 206.059C302.307 207.171 306.39 208.631 305.919 214.043C305.764 215.816 304.339 216.668 306.103 218.069C306.653 218.507 307.449 218.752 307.906 219.093C309.275 220.118 311.416 221.356 310.632 223.372C310.586 223.488 310.014 224.229 309.89 224.3C307.87 225.456 302.457 225.398 300.05 225.224C298.227 225.093 293.377 224.038 293.025 221.866C292.681 219.733 297.435 218.31 293.536 216.296C289.292 214.105 276.348 214.413 271.241 214.612C267.485 214.758 263.727 215.383 259.971 215.553C257.777 215.653 249.239 215.106 248.083 217.026C247.145 218.584 249.067 218.597 249.938 219.58C250.425 220.131 250.471 220.833 251.085 221.242C251.247 222.619 250.323 223.738 249.151 224.323C248.007 224.895 246.126 225.165 244.766 225.236C242.227 225.369 238.744 225.4 236.222 225.238C233.257 225.046 229.841 224.085 230.688 220.369C231.143 218.372 232.877 219.108 233.07 217.274C233.362 214.503 234.752 211.856 236.354 209.49C241.705 201.585 249.309 204.593 257.175 203.533C258.47 203.358 258.501 202.52 258.843 202.422C259.285 202.296 260.169 203.118 260.318 202.049C260.381 201.601 260.084 200.988 260.067 200.452C259.719 189.347 259.496 178.368 259.607 167.234C259.633 164.56 260.093 162.896 259.424 160.058C259.273 159.418 258.819 158.957 258.714 158.233C258.345 155.681 260.104 150.02 256.036 150.517C254.584 150.695 254.457 152.15 253.407 152.5C252.722 152.728 251.894 152.683 251.227 153.072C247.922 152.409 246.791 148.364 247.195 145.361C247.392 143.904 248.5 141.696 249.95 141.201C252.579 140.302 254.111 142.648 256.622 142.23C256.579 140.845 257.045 139.319 257.098 137.967C257.186 135.731 255.969 134.493 259.617 134.622C259.823 132.117 259.849 129.636 259.856 127.119C259.881 117.61 259.542 107.904 259.605 98.2986C259.721 80.8073 260.457 63.0962 260.067 45.5234C260.011 42.9875 260.394 39.5807 260.087 37.2036C260.04 36.8335 259.998 36.4767 259.617 36.2909C258.879 35.9307 254.951 36.2397 253.744 36.1743C246.833 35.8002 239.908 35.372 233.005 35.0263C231.353 34.9436 227.301 34.6038 225.917 34.8556C224.765 35.0653 225.465 36.5186 225.238 37.6239C225.138 38.1131 224.248 39.9793 223.951 40.4859C223.355 41.5024 221.243 43.469 221.002 44.241C220.826 44.8059 221.251 45.376 221.157 45.9744C221.07 46.5217 219.926 46.7676 220.222 47.703C224.09 47.8295 227.998 47.5409 231.865 47.6946C239.212 47.9868 244.184 48.8118 245.098 57.045C246.104 66.1027 245.234 75.3568 245.553 84.4861C245.87 93.5215 249.066 107.185 238.701 112.008C236.918 112.838 232.781 113.418 231.612 114.55C230.827 115.311 231.467 118.416 231.461 119.518C231.447 122.069 228.985 123.186 226.671 123.093C226.567 126.275 227.568 130.408 223.663 131.534C223.696 133.315 223.977 135.013 223.905 136.809C223.553 145.61 218.304 155.839 211.899 161.905C200.329 172.861 184.549 173.924 170 168.164C168.507 167.573 166.219 166.028 164.759 165.801C160.188 165.089 154.701 166.565 150.756 163.907C149.684 163.185 148.214 161.638 148.121 160.315C148.067 159.541 148.954 158.009 148.523 157.261C148.415 157.073 145.255 155.62 144.683 155.229C139.092 151.405 137.752 144.158 136.81 137.978C136.756 137.623 136.416 137.361 136.373 137.031C136.134 135.162 136.431 132.25 136.07 130.649C135.793 129.418 131.447 124.765 130.38 123.201C127.562 119.068 123.73 110.86 126.911 106.201C127.377 105.519 127.973 105.39 128.581 105.095C128.754 105.012 128.756 104.695 128.923 104.657C131.522 104.063 134.595 106.343 136.124 108.285C137.11 109.537 138.045 111.88 139.058 112.895C139.256 113.093 139.526 113.446 139.818 113.179C140.019 112.994 139.283 111.916 139.196 111.612C139.039 111.059 139.078 110.454 138.882 109.852C137.312 105.02 134.615 100.618 137.791 95.5891C139.224 93.3217 141.196 92.6325 143.847 92.8948C144.609 92.9702 146.185 93.8395 146.728 94.3922C148.587 96.2825 148.666 100.759 149.365 103.281C149.483 103.709 149.779 104.654 150.183 104.879C150.542 103.793 149.988 102.641 149.946 101.547C149.81 98.0372 149.901 92.0705 152.254 89.313C153.098 88.3238 154.299 87.4465 155.592 87.3502C157.442 87.2124 159.444 87.4095 160.655 88.9849C160.956 89.3754 162.165 92.2511 162.165 92.5458V97.0415C163.062 97.0531 162.894 95.8072 163.161 95.1561C163.397 94.5805 163.859 93.5139 164.236 93.0693C166.534 90.3586 170.388 91.1648 172.397 93.8262C174.347 96.4092 174.089 101.973 173.924 105.235C173.649 110.705 171.999 116.143 173.27 121.548C173.304 121.694 173.886 122.785 173.947 122.823C174.673 123.275 175.715 121.055 176.137 120.584C177.418 119.157 179.348 117.786 181.127 117.055C185.901 115.091 193.6 115.883 192.335 122.737C191.944 124.859 186.492 128.831 184.981 130.876C182.778 133.857 182.457 136.828 181.58 140.332C180.832 143.321 180.23 146.16 178.503 148.96C178.171 149.498 176.894 150.374 176.897 151.09C176.897 151.167 177.86 151.825 178.059 152.095C178.449 152.625 178.533 153.02 178.774 153.574C178.85 153.746 179.166 153.753 179.205 153.92C179.731 156.185 177.513 159.779 175.891 161.28C175.748 161.412 174.578 161.678 175.163 162.526C175.243 162.643 176.984 163.269 177.321 163.374C194.358 168.656 214.036 156.417 216.892 138.782C217.045 137.84 217.464 132.557 217.126 132.07C216.793 131.592 215.039 131.998 214.394 131.846C214.231 131.808 214.231 131.465 214.053 131.413C213.045 131.117 212.32 131.262 211.592 130.235C210.419 128.584 211.497 126.582 210.642 124.957C210.022 123.778 208.73 124.01 207.79 123.43C204.582 121.45 207.696 115.951 204.658 115.498C196.582 114.297 189.274 112.96 185.653 104.544C183.226 98.9028 185.063 90.8335 184.752 84.6975C184.439 78.521 183.779 72.2235 183.581 66.0423C183.463 62.3311 183.316 57.0532 184.243 53.5445C184.533 52.4476 186.268 50.4496 187.211 49.8389C190.718 47.5695 198.592 48.2167 202.825 47.9325C203.307 47.9001 205.4 47.6648 205.613 47.4955C206.623 46.6953 205.111 46.2004 205.483 45.3313C205.909 44.6954 208.591 42.2634 208.677 41.7896C208.759 41.3349 207.706 40.4179 207.564 40.1505C205.893 37.0043 205.504 33.2351 207.636 30.0364C208.12 29.3115 210.81 27.4159 211.582 27.4159C212.379 27.4159 214.736 27.2511 215.268 27.4159ZM265.561 26.5426C264.8 26.1049 263.993 26.9047 263.88 27.6258C263.81 28.072 264.241 28.7248 264.243 29.3763C264.246 30.2476 263.776 31.2891 263.992 32.2585C264.492 32.2277 266.87 32.4285 267.001 31.8735C267.163 31.186 266.084 26.8431 265.561 26.5426ZM261.46 32.2582C261.741 29.4735 260.877 30.2679 259.058 29.934C249.972 28.2655 238.548 30.2347 228.857 29.4946C226.715 29.3311 224.954 29.3088 223.216 30.6479C223.578 31.427 224.377 31.7049 225.175 31.7961C229.444 32.2838 234.812 31.0348 239.237 31.5562C246.602 32.1596 254.078 31.8107 261.46 32.2582ZM271.783 30.2311C271.502 30.1016 270.578 30.5299 270.489 30.6854C269.842 31.8191 272.103 32.6321 272.977 32.0241C273.142 31.8014 271.881 30.276 271.783 30.2311ZM265.605 38.0221L264.224 38.2541C264.134 38.3441 265.065 39.9173 265.607 39.2877L265.605 38.0221ZM210.938 43.1404C209.594 43.5354 209.172 45.6841 209.394 46.8979C209.64 48.2458 212.738 47.6989 213.646 47.6936C215.7 47.6817 219.855 48.4942 218.315 45.1151C217.591 43.5264 212.465 42.6913 210.938 43.1404ZM208.933 114.909C209.059 116.192 208.841 117.64 208.933 118.944C209.674 119.109 210.338 119.351 211.113 119.413C214.44 119.678 217.921 119.034 221.247 118.935C223.033 118.882 224.713 119.347 226.511 118.939C226.711 118.893 226.691 118.554 226.832 118.481C227.133 118.326 227.577 118.344 227.766 118.194C228.67 117.474 228.681 113.729 228.535 112.586C228.474 112.103 227.726 112.341 228.163 111.79C228.706 111.104 234.472 109.821 235.8 109.297C236.927 108.852 239.795 107.247 240.7 106.354C242.16 104.914 243.089 102.644 243.256 100.611C243.931 92.3855 242.738 83.2771 242.558 75.0337C242.42 68.6651 243.12 62.2225 242.343 55.8831C242.107 53.9528 240.346 52.0282 238.606 51.3231C234.396 49.6167 224.642 50.721 219.634 50.7123C211.395 50.6978 202.538 50.1012 194.307 50.705C190.012 51.0201 186.986 52.0268 186.577 56.8025C186.434 58.4826 186.807 60.0965 186.826 61.6428C186.938 70.9433 186.643 80.3026 186.826 89.5392C187.112 104.016 188.001 108.541 203.087 111.537C204.177 111.672 207.112 111.943 208.01 112.374C208.579 112.649 208.871 114.288 208.933 114.909ZM264.223 52.5466C262.452 52.4668 263.613 55.5151 263.534 56.6963C264.15 56.7551 263.904 56.7002 263.989 56.3503C264.29 55.105 264.233 53.8176 264.223 52.5466ZM266.987 56.6943L266.298 56.6943C266.251 57.7149 266.375 58.7579 266.267 59.7782C266.035 61.9735 265.19 64.5995 264.933 66.743C264.607 69.4684 264.823 73.0854 264.681 75.9426C263.861 92.3938 264.351 108.995 264.214 125.524L264.683 132.778C265.924 132.708 266.89 132.712 268.023 133.239L266.987 56.6943ZM170.114 155.831C168.894 156.083 166.936 155.646 165.621 155.831C164.926 150.789 166.349 152.996 169.193 152.395C171.454 151.917 174.19 149.223 175.443 147.331C179.365 141.409 177.979 134.468 182.904 128.811C184.54 126.931 189.682 123.365 189.346 120.693C189.067 118.471 185.437 118.231 183.72 118.497C181.064 118.908 177.236 122.495 176.05 124.884C175.349 126.295 174.443 130.616 172.647 130.725C169.945 130.888 172.733 127.134 171.838 125.332C171.05 123.742 170.322 122.767 170.01 120.661C169.295 115.836 170.866 111.914 170.926 107.521C170.939 106.559 170.419 105.554 170.441 104.536C170.49 102.306 171.471 100.23 171.156 97.6118C170.914 95.5921 168.875 93.3161 166.706 94.3328C165.513 94.8915 164.4 98.8689 164.269 100.184C163.92 103.688 163.358 107.289 163.085 110.757C163.003 111.801 162.936 114.804 163.298 115.62C163.577 116.249 164.956 116.962 164.819 117.804C164.494 119.803 163.374 118.961 162.063 119.187C160.905 119.387 158.208 122.012 158.951 118.419C159.029 118.04 160.366 117.511 160.571 117.234C161.21 116.369 160.423 115.475 160.341 114.66C159.779 109.038 159.581 103.518 159.622 97.8389C159.636 95.913 160.07 94.1974 159.583 92.1329C159.052 89.879 155.383 89.2874 154.057 91.3426C152.106 94.366 152.346 100.478 152.48 104.083C152.581 106.815 153.052 109.493 153.387 112.167C153.564 113.583 153.326 116.578 154.347 117.66C154.605 117.934 155.458 118.196 155.5 118.41C155.899 120.436 153.795 120.537 152.427 121.071C151.854 121.295 151.805 121.909 150.767 121.716C149.143 121.414 151.447 119.267 151.304 118.418C151.243 118.05 150.827 117.759 150.706 117.385C149.855 114.746 148.835 111.864 148.126 109.131C147.378 106.247 146.513 98.4296 144.783 96.5689C142.707 94.3363 139.559 96.8863 139.14 99.2448C138.704 101.708 140.455 107.656 141.225 110.274C141.935 112.689 144.084 119.503 145.477 121.235C146.334 122.301 147.668 122.089 147.118 123.727C146.903 124.365 143.523 125.283 143.963 127.013C140.93 126.635 143.326 124.291 142.419 122.694C142.268 122.428 141.997 122.391 141.9 122.228C139.976 119.007 135.194 109.861 132.297 108.142C130.708 107.2 129.085 107.739 128.772 109.618C128.26 112.695 130.169 117.133 131.753 119.753C133.987 123.447 138.316 126.929 139.532 131.112C139.804 132.047 139.176 131.68 139.109 132.184C138.878 133.941 139.492 137.461 139.881 139.284C141.302 145.945 145.633 154.784 153.513 154.685C155.666 154.659 159.351 151.785 159.153 156.39C159.014 159.637 154.021 157.027 152.189 158.124C151.053 158.804 151.441 160.281 152.253 161.025C154.58 163.158 163.071 163.276 166.134 162.685C169.503 162.034 175.104 158.797 175.935 155.203C176.366 153.342 174.7 153.418 173.407 154.008C172.462 154.44 171.369 155.572 170.114 155.831ZM223.678 123.784C220.824 124.115 217.099 123.046 214.346 123.554C213.226 123.761 213.968 126.512 214.362 127.228C215.097 128.562 216.379 127.943 217.344 127.936C218.894 127.925 222.251 128.432 223.439 127.813C224.346 127.34 223.35 124.798 223.678 123.784ZM220.678 132.778C219.423 131.977 219.788 135.603 219.701 136.291C217.066 157.147 198.598 171.217 177.586 166.106C176.055 165.733 174.002 164.661 172.535 164.454C172.151 164.399 171.967 164.38 171.842 164.82C186.327 172.312 204.826 168.833 214.095 155.119C215.598 152.895 217.205 149.807 218.312 147.35C220.5 142.49 221.322 139.505 220.923 134.034C220.906 133.8 220.757 132.828 220.678 132.778ZM265.376 156.062H269.638C269.687 156.062 270.089 155.839 270.153 155.769C271.24 154.582 269.641 146.023 269.525 143.956C269.414 141.989 269.841 139.023 269.523 137.272C269.253 135.789 265.964 136.765 264.914 136.695L265.376 156.062ZM282.582 147.008C283.138 145.708 282.614 141.585 281.979 140.254C281.473 139.194 280.651 140.124 280.633 140.684C280.62 141.086 281.737 142.615 281.909 143.32C282.108 144.134 282.327 146.094 282.09 146.853C281.98 147.208 281.037 148.01 281.273 148.222C281.929 148.813 282.106 147.448 282.21 147.249C282.295 147.089 282.558 147.065 282.582 147.008ZM252.01 143.612C251.984 143.59 251.353 143.591 251.326 143.612C251.16 143.747 250.596 147.361 250.684 147.823C250.722 148.025 251.358 149.821 251.463 149.851C252.572 150.159 252.817 149.044 252.879 148.052C252.906 147.631 252.183 143.757 252.01 143.612ZM262.84 150.068C262.037 149.343 262.407 152.205 262.389 152.499C262.319 153.656 261.969 154.841 262.151 156.061C262.704 156.127 262.97 156.056 263.072 155.486C263.183 154.867 263.088 150.293 262.84 150.068ZM266.297 159.52V164.246C266.297 164.303 266.982 164.991 267.092 165.064C268.845 166.221 268.174 162.251 268.128 161.488C268.018 159.666 269.061 159.367 266.297 159.52ZM268.599 168.281L267.059 169.733C265.609 176.045 266.295 182.886 266.076 189.386C266.038 190.524 265.655 191.906 265.596 193.055C265.546 194.031 265.823 200.156 266.346 200.511C266.408 200.553 267.719 200.921 267.794 200.924C268.079 200.935 269.831 200.417 269.769 199.991L268.599 168.281ZM262.173 200.531C262.334 200.787 262.999 200.761 263.184 200.326C263.315 200.02 263.496 198.378 263.53 197.904C263.99 191.531 263.664 183.331 263.305 176.924C263.212 175.28 263.355 172.235 262.797 170.746C262.685 170.447 262.077 170.074 261.813 170.127C261.094 170.27 261.682 172.025 261.699 172.537C261.885 178.224 262.007 183.941 262.16 189.597C262.2 191.088 261.882 200.068 262.173 200.531ZM261.459 204.477H271.826L271.827 203.786C269.649 204.141 267.326 203.305 265.261 203.303C263.987 203.302 262.762 203.962 261.458 203.786L261.459 204.477ZM248.327 205.633C246.114 205.646 243.652 206.219 241.77 207.482C241.398 207.732 240.685 208.104 240.726 208.626C242.201 209.032 242.928 207.884 244.02 207.429C244.812 207.099 245.777 206.888 246.602 206.554C247.127 206.343 247.999 206.07 248.327 205.633ZM302.405 215.251C303.689 214.007 303.399 211.054 301.758 210.143C298.835 208.52 292.627 207.727 289.232 207.231C284.485 206.539 279.361 205.678 274.478 206.093C273.835 206.148 270.812 206.675 270.704 207.157C270.668 207.319 270.863 207.896 271.06 207.945C273.68 208.067 276.482 207.746 279.079 207.939C283.11 208.238 288.576 209.114 292.482 210.204C294.066 210.647 298.717 212.195 299.443 213.613C299.894 214.493 299.358 216.212 300.915 215.965C301.062 215.942 302.304 215.349 302.405 215.251ZM263.513 207.032C263.106 206.429 255.383 206.458 254.193 206.542C250.641 206.794 243.867 209.745 241.14 212.09C240.297 212.814 238.277 214.936 239.453 216.009C239.797 216.323 242.181 216.122 242.646 215.968C242.938 215.871 244.032 214.085 244.658 213.6C246.624 212.077 252.673 209.932 255.179 209.374L262.853 208.293C263.375 208.238 263.775 207.42 263.513 207.032ZM266.298 206.553C266.031 207.837 268.724 208.389 269.041 207.337C269.405 206.132 266.953 206.644 266.298 206.553ZM305.835 220.478C304.405 219.94 302.257 219.488 300.753 219.707C299.966 219.822 297.276 220.584 297.616 221.64C297.74 222.024 301.062 222.437 301.662 222.457C302.502 222.486 306.87 222.317 307.08 221.652C307.338 220.839 306.541 221.082 306.105 220.827C305.949 220.736 305.889 220.499 305.835 220.478ZM247.636 221.767C247.732 220.535 245.953 220.228 244.995 220.147C241.832 219.876 238.293 220.357 235.087 220.161C234.484 220.127 233.771 221.417 234.612 221.54C236.908 221.875 239.454 221.548 241.752 222.008C243.729 222.044 245.68 221.995 247.636 221.767Z" fill="black"/>
<path d="M73.5699 93.4799C74.9357 94.7839 75.7243 97.0737 75.3082 98.9556C75.2673 99.1403 74.9446 99.1367 74.8612 99.2883C73.4807 101.795 71.1223 104.784 69.2828 107.041C66.807 110.078 63.897 112.741 61.7516 116.022C61.8044 116.636 65.2841 120.306 65.9593 120.936C66.1414 121.106 66.9478 121.615 67.1516 121.796C71.855 125.971 76.8548 129.817 80.8964 134.679C82.2369 137.915 77.562 136.114 77.0248 136.911C76.9151 137.074 76.736 139.095 76.5741 139.688C76.4408 140.175 75.5392 142.371 75.257 142.633C75.1444 142.738 73.4069 143.288 73.2274 143.266C71.6052 143.072 67.0818 139.247 65.6339 137.966C61.6535 134.445 58.1474 130.372 54.3615 126.651C53.9962 126.223 53.5841 126.274 53.1335 126.547C52.8546 126.715 50.5655 129.088 50.2053 129.503C47.7482 132.333 45.527 135.764 42.9466 138.543C42.4905 139.034 40.9361 140.709 40.4666 140.901C39.3964 141.34 37.0033 140.802 36.0736 140.171C35.1896 139.572 36.6481 138.564 36.3771 138.311C36.1013 138.054 34.393 139.462 33.9597 139.462C33.7169 139.462 31.2601 137.921 30.9544 137.628C29.1621 135.912 31.0746 133.719 32.271 132.229C35.2207 128.557 39.6539 125.388 42.9531 121.95C43.6556 121.218 46.934 117.714 46.8775 116.983C46.8494 116.62 42.7484 112.066 42.1539 111.439C38.6301 107.724 34.9596 104.419 31.4462 100.588C30.6711 99.743 27.828 97.4025 27.8313 96.4645C27.8364 95.0372 28.8792 95.3562 29.4137 95.0395C29.6887 94.8766 29.6947 94.6236 29.8682 94.512C31.2534 93.6204 33.374 92.1311 35.0585 92.4822C35.7638 92.6292 36.2858 93.2707 37.1815 93.3607C39.1675 93.5602 39.7622 92.2626 41.6503 93.7333C43.3852 95.0847 45.7179 98.2412 47.1922 99.9936C49.6942 102.967 51.7509 106.405 54.9266 108.74C58.2169 105.52 60.5025 101.488 63.3452 97.916C64.4154 96.5713 67.2266 92.9203 68.6292 92.3122C70.4981 91.502 72.1837 92.1565 73.5699 93.4799ZM61.6226 127.341C61.0284 126.869 60.4305 126.454 59.7602 126.092C59.603 126.042 59.603 126.281 59.6498 126.432C60.1845 128.155 66.2038 132.745 67.7559 134.164C68.4045 134.757 71.9034 138.992 72.5449 138.54C72.7125 137.877 73.0407 137.224 72.4481 136.679C68.7188 133.794 65.2926 130.254 61.6226 127.341Z" fill="black"/>
<path d="M121.618 133.928C122.105 136.897 121.57 140.082 122.092 143.023C122.462 145.106 125.841 152.67 127.547 153.752C127.92 153.988 129.204 154.312 129.391 154.508C129.585 154.71 129.614 155.702 129.43 155.81C129.293 155.89 126.938 155.877 126.586 155.818C121.364 154.944 119.044 145.566 118.648 141.167C118.407 138.486 118.247 134.364 121.618 133.928Z" fill="black"/>
<path d="M9.14531 101.244C9.86925 101.645 9.73764 106.186 9.89629 107.29C10.2612 109.829 11.5601 113.596 12.6004 115.877C13.8718 118.664 15.6874 121.135 17.2567 123.784C11.766 123.635 8.19649 116.06 7.18314 111.388C6.58908 108.65 6.36232 106.726 6.87565 104.06C6.9956 103.437 6.81329 102.719 7.12898 102.068C7.42781 101.451 8.4626 100.867 9.14531 101.244Z" fill="black"/>
<path d="M115.951 151.135C116.602 152.432 117.729 154.035 118.627 155.193C119.385 156.17 120.738 156.693 120.927 158.135C119.94 158.162 119.02 158.198 118.06 157.895C112.498 156.143 108.921 143.684 111.614 139.019C113.085 136.472 113.907 138.334 114.191 140.325C114.788 144.501 113.805 146.858 115.951 151.135Z" fill="black"/>
<path d="M82.6853 122.401C82.4778 121.512 83.2317 121.332 83.5215 120.935C85.8359 117.765 87.9427 113.623 88.4192 109.582C88.5908 108.127 88.2592 106.55 88.5448 105.097C89.0607 102.471 90.6288 102.463 91.6333 104.802C92.3658 106.507 91.4788 107.976 91.4398 109.607C91.4229 110.312 91.7975 110.962 91.6562 111.9C91.3891 113.674 90.3783 116.715 89.5547 118.326C87.9254 121.514 86.4826 122.726 82.6853 122.401Z" fill="black"/>
<path d="M96.4227 123.705C96.2316 124.021 95.2011 125.255 94.9066 125.531C93.938 126.44 92.1682 126.727 90.8675 126.803L88.9033 126.44C89.5382 125.998 90.335 125.627 90.8965 125.087C92.275 123.763 93.8221 120.821 94.3677 118.993C95.2441 116.058 95.0929 111.985 96.0533 109.383C96.658 107.745 97.4307 109.121 97.8204 110.138C99.279 113.941 98.5304 120.212 96.4227 123.705Z" fill="black"/>
<path d="M21.1732 118.943C19.0245 119.188 17.033 116.579 16.1659 114.848C14.5075 111.536 12.1048 103.993 13.4825 100.527C13.8292 99.6551 14.6095 98.3883 15.6276 99.2467C17.6052 100.914 16.5495 103.366 16.6134 105.456C16.6798 107.626 17.7281 112.443 18.6983 114.389C19.0467 115.088 21.7086 118.409 21.1732 118.943Z" fill="black"/>
<path d="M162.476 134.237C160.473 137.024 159.534 141.572 161.033 144.815C161.348 145.497 162.938 146.496 161.362 146.629C157.851 146.927 157.136 141.883 157.319 139.338C157.596 135.48 160.969 131.203 164.647 130.072C165.178 129.909 167.121 129.408 167.471 129.655C168.637 130.476 165.867 131.244 165.407 131.524C164.662 131.978 162.974 133.544 162.476 134.237Z" fill="black"/>
<path d="M161.094 128.021C157.796 129.862 152.526 133.475 148.817 134.062C146.706 134.395 149.247 132.564 149.884 132.129C151.683 130.9 156.178 128.066 158.044 127.384C158.62 127.173 161.627 126.471 162.021 126.57C162.425 126.672 162.479 127.119 162.288 127.48C162.032 127.966 161.451 127.822 161.094 128.021Z" fill="black"/>
<path d="M236.463 65.6872C236.905 65.5508 236.943 64.156 236.708 63.8271C236.394 63.3862 234.38 63.7378 234.089 62.7605C233.334 60.2173 236.321 62.3177 236.797 61.9912C238.066 58.3461 235.4 60.1276 234.488 58.9008C233.277 57.2707 238.016 56.9012 238.831 57.8974L239.244 102.36C236.501 103.335 237.29 101.315 237.144 99.7749C237.104 99.354 236.83 98.9308 236.799 98.3186C236.732 96.9933 237.076 94.3261 236.82 93.2738C236.508 91.9896 233.15 95.4728 232.812 95.9159C232.432 96.4145 231.518 97.8488 231.995 98.403C232.12 98.5488 234.163 98.835 234.245 98.9161C234.619 99.2851 234.498 101.866 233.99 102.291C233.659 102.567 231.521 102.516 231.844 103.978C232.037 104.856 234.085 105.13 234.525 105.667C235.366 106.69 234.019 106.564 233.355 106.843C225.141 110.288 212.93 110.071 204.192 108.817C197.382 107.84 193.54 107.184 191.638 99.9817C191.587 99.7904 191.24 99.8125 191.2 99.6476C191.08 99.1461 190.987 96.7687 190.954 96.0139C190.612 88.2724 191.369 80.2015 190.971 72.4802C190.797 69.0968 190.043 65.2544 189.815 61.8794C189.755 60.9808 189.721 55.7384 190.621 55.5439C191.924 55.2627 191.59 58.2635 191.657 58.8835C192.08 62.8054 192.385 67.4775 193.093 71.2797C193.423 73.0555 194.956 71.9347 194.831 72.9545C194.768 73.4677 193.778 73.4282 193.713 73.6684C193.612 74.0425 193.657 77.4933 193.741 78.0082C194.12 80.3265 196.288 78.8558 197.584 78.6529C206.97 77.1838 225.906 76.4588 234.718 79.4219C234.844 79.4644 236.348 80.5335 236.348 79.6354V66.84C234.899 66.3408 233.491 66.3211 231.97 66.3779L231.971 65.6872C233.117 65.4678 235.5 65.9848 236.463 65.6872ZM231.908 80.7474C231.519 80.5773 227.084 80.0218 226.335 79.9723C218.786 79.4737 205.577 79.4812 198.233 80.686C198.023 80.7205 195.705 81.4258 195.584 81.4933C195.269 81.6693 194.897 82.2619 195.11 82.515C195.178 82.596 196.867 83.0923 197.125 83.1522C202.748 84.458 208.656 83.7571 214.337 83.6605C218.947 83.5821 223.826 83.7508 228.41 83.4491C230.32 83.3234 232.199 82.7577 234.043 82.2829C234.245 81.0354 232.846 81.3359 232.143 81.1187C231.956 81.0611 231.964 80.7721 231.908 80.7474ZM222.987 87.36C221.506 87.7629 220.074 87.3233 218.735 87.3479C215.048 87.4155 211.112 87.9712 207.424 87.6008C206.228 87.4808 205.363 86.3335 204.786 87.5856C205.673 87.7331 207.125 88.6557 207.885 88.7529C210.81 89.1264 213.806 88.1627 216.662 88.2703C217.946 88.3186 219.295 88.7791 220.57 88.759C221.516 88.7442 223.429 88.5842 222.987 87.36ZM197.131 87.6441C196.733 87.2066 194.58 86.7235 194.413 87.949C194.036 90.7225 198.555 89.2091 197.131 87.6441ZM232.661 88.2844C232.446 88.0597 229.7 87.626 229.899 88.7409C230.672 88.6746 231.568 88.8381 232.32 88.7425C232.642 88.7017 232.984 88.6215 232.661 88.2844ZM203.866 90.3572C203.698 91.2597 206.179 91.5126 206.164 90.9323C206.154 90.5678 204.242 90.2814 203.866 90.3572ZM223.906 91.511C222.022 91.7572 220.514 90.7468 218.608 91.0485V91.7382C219.559 91.7741 220.524 91.6846 221.476 91.7501C221.857 91.7764 222.177 92.1258 222.449 92.1503C222.582 92.1624 223.846 91.7936 223.906 91.511ZM197.115 93.2021C194.527 92.3092 192.692 96.3748 196.597 95.6462C197.287 95.5174 198.172 94.7848 198.008 94.0328C197.967 93.8464 197.173 93.222 197.115 93.2021ZM214.001 94.2736C213.924 93.0764 212.083 93.7402 211.237 93.5859C211.646 95.0435 212.877 94.431 214.001 94.2736ZM214.924 97.27C215.732 97.461 216.592 97.061 217.316 97.0657C217.698 97.0682 219.512 97.8548 219.299 96.9294C218.869 96.4198 218.228 96.2858 217.58 96.3406L214.924 97.27ZM199.487 100.729C199.632 98.6934 195.71 99.2324 195.87 100.387C196.065 101.786 198.651 100.866 199.487 100.729ZM213.54 100.5C213.557 100.338 213.566 99.8331 213.541 99.8097C213.384 99.6649 211.265 99.9564 211.468 100.729C212.191 100.698 212.795 100.508 213.54 100.5C213.525 100.651 213.195 100.862 213.412 101.186C214.024 102.104 215.977 102.168 215.479 100.716C214.843 100.448 214.207 100.493 213.54 100.5ZM197.415 104.646C197.877 105.308 202.874 106.538 203.122 104.53C202.615 103.537 201.78 104.333 200.959 104.395C200.358 104.441 199.468 104.508 198.898 104.432C198.415 104.369 197.944 103.923 197.765 103.957C197.598 103.988 197.292 104.468 197.415 104.646ZM213.985 105.361C213.739 104.961 211.705 105.16 211.238 105.456C211.517 106.016 213.85 106.191 214.002 106.032C214.026 106.008 214.031 105.436 213.985 105.361ZM227.132 105.343C224.968 105.069 222.775 105.177 220.595 105.37C218.546 105.551 218.976 105.668 216.869 105.355C216.48 105.297 213.87 105.208 214.463 106.031C214.682 106.335 219.168 106.753 219.874 106.722C220.991 106.672 222.215 106.156 223.114 106.046C224.003 105.937 226.095 106.196 226.741 105.993C227.054 105.895 227.194 105.666 227.132 105.343Z" fill="black"/>
<path d="M232.662 54.6192C231.742 54.4738 231.13 55.2546 230.248 55.3187C220.435 55.6674 210.289 54.8367 200.516 55.305C199.37 55.3599 196.08 56.6463 196.251 54.506C196.315 53.7048 199.117 53.3021 199.836 53.2418C208.123 52.5469 220.578 53.025 228.863 53.9275C230.053 54.0572 231.782 53.5853 232.662 54.6192Z" fill="black"/>
<path d="M225.398 112.612C226.101 113.421 225.943 115.247 224.708 115.479L212.732 115.487C212.047 115.356 211.485 114.128 211.762 113.467C211.783 113.419 212.487 112.775 212.537 112.758C213.064 112.589 213.772 112.797 214.344 112.715C217.402 112.277 219.603 112.337 222.65 112.266C223.891 112.238 224.403 111.467 225.398 112.612Z" fill="black"/>
<path d="M201.099 62.6917C201.975 63.4186 198.101 63.6419 197.75 63.622C196.265 63.5378 195.619 62.3902 197.056 62.2192C198.574 62.0387 199.637 62.7415 201.099 62.6917Z" fill="black"/>
<path d="M200.544 69.9384C200.615 69.9665 200.94 70.4638 201.329 70.413C201.022 71.1383 198.678 71.1535 198.025 71.002C197.678 70.9214 197.655 69.9251 198.032 69.8319C198.843 69.6315 199.777 69.6332 200.544 69.9384Z" fill="black"/>
<path d="M199.257 59.6906C199.019 59.9753 196.116 59.5467 196.031 58.7727C197.088 58.9662 199.429 58.1306 199.257 59.6906Z" fill="black"/>
</svg>
