<svg width="444" height="250" viewBox="0 0 444 250" fill="none" xmlns="http://www.w3.org/2000/svg">
<path d="M32.8173 202.895L33.2449 202.336L46.9542 202.054C46.9522 201.583 45.9944 201.523 45.6588 201.497C40.5789 201.104 33.1139 201.023 28.0542 201.496C27.0257 201.592 26.1191 202.234 25.0279 202.058L25.6023 202.892C24.7558 203.093 19.2544 203.058 18.9675 202.892C18.9246 202.867 19.4206 202.27 18.7871 202.096L13.487 201.502L33.1044 199.82L28.3414 198.991C27.1611 198.739 25.9873 199.262 24.8967 199.275C24.6278 199.278 23.3137 199.131 23.2969 198.709C24.8922 198.847 26.5133 198.26 28.0601 198.151C32.3779 197.847 35.9662 198.222 40.1629 198.439C44.8466 198.681 49.7271 197.795 54.4575 198.145C53.5005 196.451 52.8115 197.054 51.4416 197.041C42.2865 196.954 32.5166 196.72 23.4427 197.313C19.3773 197.579 15.2671 199.288 11.357 198.95C11.0407 198.923 9.76594 198.822 9.73597 198.43C12.0816 197.618 14.4028 198.052 16.7659 197.832C18.9745 197.627 21.1455 196.552 23.4429 196.475C32.896 195.894 42.375 195.586 51.8593 195.633L47.1948 188.283C46.7547 186.675 42.9267 181.902 43.6251 180.557C43.7503 180.316 46.3712 178.292 46.3736 177.904C45.5788 176.299 39.7565 174.213 39.4998 173.102C39.4111 172.718 39.7368 172.266 39.6816 171.824C39.5081 170.434 37.8866 167.134 37.3968 165.375C36.3962 161.78 34.4133 153.601 35.4002 150.247C35.8587 148.689 37.3841 147.435 38.2478 146.069C36.9223 144.561 34.7279 143.517 34.1056 141.475C33.4277 139.25 33.2709 134.218 33.3971 131.834C33.5706 128.558 35.1775 119.03 37.6533 116.888C38.5292 116.13 40.8675 114.859 42.0504 114.656C40.5626 112.396 38.2899 111.828 37.9969 108.672C37.7642 106.165 40.3643 100.047 41.621 97.6299C44.0034 93.0471 47.6566 87.5867 53.2299 86.5091C54.3996 86.2829 55.2168 87.3227 55.7529 86.7406C56.4153 86.0215 57.982 81.8461 58.4241 80.6629C59.3112 78.2889 61.552 71.8044 61.0966 69.5608C61.0121 69.1443 60.9933 69.1119 60.6067 68.9193C60.0428 68.6383 57.1164 68.1166 56.3303 68.032C52.6888 67.6402 52.4524 68.2841 50.6571 71.192C47.147 76.8775 46.1437 84.1237 42.1763 89.5113C41.09 90.9866 39.4219 92.2167 38.3057 93.584C30.4765 103.175 27.3719 124.042 27.9002 136.032C28.1011 140.591 30.1454 149.863 28.9377 153.766C28.1784 156.22 23.4416 156.871 21.5766 158.65C20.0388 159.098 19.0024 158.542 18.5307 157.105C15.8385 148.909 15.3769 134.352 15.7816 125.677C16.569 108.799 22.4156 95.6025 28.2061 80.1804C32.1505 69.6749 35.4209 60.5369 40.36 50.3375C42.9753 44.9369 46.1197 37.8912 49.1366 32.8629C52.8893 26.6081 63.3814 26.6967 69.8915 26.4214C80.6466 25.9665 94.8604 25.4491 105.305 27.8976C106.198 28.1069 106.944 28.7717 108.007 28.9128C112.223 29.4725 120.926 27.7209 122.826 33.2803C124.829 39.1445 119.313 41.0996 114.901 42.8936C114.491 45.3988 115.093 47.9665 114.475 50.4362C122.917 48.649 133.633 50.3028 140.94 54.8422C143.211 56.2533 147.504 59.8403 148.676 62.1547C149.126 63.0441 149.518 65.2332 149.966 65.6528C151.275 66.877 159.12 67.5531 157.109 71.4517C155.838 73.916 150.688 72.2542 148.524 71.6589C149.034 76.1194 145.511 80.5199 142.177 83.2499C138.345 86.3867 133.619 87.9615 128.897 89.3895C133.666 90.9099 136.688 95.6379 139.049 99.673C140.321 101.848 143.878 108.98 143.928 111.169C143.979 113.428 142.205 113.795 141.884 115.773C145.833 116.578 147.486 122.057 148.498 125.432C150.811 133.144 152.675 141.559 146.062 147.616C145.652 147.991 144.875 147.758 145.628 148.592C147.087 150.209 148.934 150.041 149.361 153.077C150.008 157.666 147.673 172.599 143.527 175.305C142.674 175.862 139.78 176.584 139.607 177.111C139.174 178.424 141.091 178.557 141.466 179.704C142.598 183.164 137.09 190.072 135.827 193.399C139.379 193.557 143.11 193.19 146.643 193.404C148.45 193.513 150.443 194.091 152.129 194.237C153.542 194.36 167.567 195.181 167.567 196.054C167.2 196.408 166.486 196.477 165.987 196.488C160.175 196.612 154.836 194.617 149.239 194.242C144.8 193.945 140.151 194.262 135.688 193.967C134.757 194.137 133.275 196.54 132.514 197.317C131.736 198.111 130.623 198.544 130.055 199.541C138.269 199.464 146.446 199.609 154.579 200.664C154.702 200.945 153.907 201.219 153.859 201.219H146.79L148.808 201.775L143.186 202.06L139.001 202.613C144.265 202.705 149.476 202.048 154.73 202.614L155.156 203.172C151.94 203.515 148.721 203.461 145.48 203.466C140.077 203.475 132.91 202.865 127.591 203.443C127.159 203.49 126.701 203.501 126.592 204.009L139.997 204.861C146.764 205.011 153.505 204.993 160.204 205.41C161.245 205.475 163.493 205.55 164.102 206.242C158.427 206.649 152.756 206.589 147.08 206.242L149.962 205.41C141.702 205.16 133.513 205.656 125.29 206.245L124.285 206.522C128.945 206.437 133.628 206.641 138.29 206.536C139.042 206.519 139.753 206.258 140.572 206.232C141.877 206.19 143.325 206.194 144.629 206.245C144.979 206.259 145.702 206.034 145.634 206.522C140.974 206.728 136.309 206.885 131.644 207.086C128.542 207.219 125.211 207.112 122.123 207.365C121.772 207.394 120.578 207.469 120.533 207.921H129.622C129.68 207.921 130.747 208.181 130.63 208.476C126.782 209.131 122.811 208.488 118.935 208.747C118.494 208.777 117.221 208.808 117.072 209.314L132.808 209.584C135.763 210.226 138.75 210.036 141.743 210.154C142.094 210.168 142.816 209.944 142.749 210.431C140.982 210.51 139.181 210.33 137.415 210.436C132.611 210.726 128.879 210.489 124.151 210.42C121.361 210.38 118.565 210.473 115.775 210.436L113.321 210.989C114.551 211.149 115.705 210.761 116.912 210.7C117.251 210.682 118.512 210.505 118.512 210.989C117.629 211.16 116.634 211.155 115.773 211.278C115.27 211.35 115.287 211.131 115.341 211.828C117.493 211.939 119.699 212.091 121.83 212.395C122.333 212.467 122.316 212.249 122.263 212.945L115.182 213.515L113.321 213.223L113.895 212.67C110.703 212.407 107.567 212.306 104.376 212.67L105.238 213.222C103.356 213.593 101.35 213.165 99.3116 213.212C87.0046 213.499 75.8067 212.965 63.5495 212.106C61.0124 211.928 59.0852 211.672 56.8755 210.748L46.38 209.872C46.3125 209.385 47.0347 209.61 47.3855 209.596C52.5784 209.39 57.7846 209.707 62.966 209.872L65.1314 209.32C63.6961 209.089 58.9126 207.296 57.8131 207.672C57.5095 207.776 57.1693 208.758 55.756 208.758H42.339L46.3782 207.918C46.3285 207.542 45.9862 207.428 45.6453 207.374C41.3215 206.683 36.0343 207.094 31.521 206.522C30.3049 206.368 29.8298 205.705 29.5149 205.667C26.1904 205.266 22.3952 206.211 19.1166 205.962C16.9445 205.796 14.3677 205.119 12.1495 204.885C11.1063 204.778 10.0551 204.889 9.01004 204.849C8.65964 204.836 7.9368 205.06 8.00444 204.573L40.4754 204.302C41.8997 203.657 47.9492 204.397 48.6872 203.729C49.25 203.22 47.2296 202.895 47.0999 202.895H32.8173ZM105.816 30.8933C103.702 31.3214 102.086 29.8621 100.345 29.347C97.2884 28.4431 93.5216 28.7979 90.3687 28.6695C81.8339 28.3222 64.2735 27.351 56.691 30.4005C54.9208 31.1124 52.2669 32.3791 52.4393 34.5203C52.7609 34.8315 56.2827 33.6201 57.1975 33.6645C57.9118 33.6991 58.4342 34.1603 59.2094 34.2511C63.4345 34.7458 69.1966 34.1201 73.6573 34.231C77.4891 34.3263 81.3738 34.7182 85.1749 34.8123C89.9841 34.9314 94.7829 34.6696 99.5818 35.0973C99.7194 35.061 100.408 32.6918 100.327 32.5869C100.238 32.4703 98.0057 32.0654 98.605 31.4544C99.5266 30.5148 100.968 32.0076 101.914 32.0168C102.562 32.0232 104.465 31.5735 105.384 31.4442C105.889 31.3731 105.868 31.5865 105.816 30.8933ZM115.195 30.8918C113.09 30.6504 110.569 31.0693 108.414 30.8918L112.738 31.8734C115.901 33.2858 118.886 35.798 117.65 39.5478C122.251 36.5556 120.692 31.5224 115.195 30.8918ZM109.57 41.4996C111.118 41.087 114.49 39.9204 114.748 38.2724C115.491 33.5292 110.197 32.2086 106.38 32.9718C105.36 33.1757 103.253 33.497 103.511 34.7996C105.714 33.9455 109.428 34.3013 111.016 36.1315C111.893 37.1427 111.912 39.7529 110.876 40.6731C110.432 41.0674 109.678 41.0143 109.57 41.4996ZM98.0254 35.9207L57.3431 35.3622C57.4238 35.834 57.906 35.8608 58.2722 35.9959C62.0591 37.3929 65.1655 37.1344 69.0407 37.3025C75.2287 37.5709 85.0343 38.3434 90.9711 37.6062C91.8245 37.5003 92.0873 36.986 92.7574 36.8219C94.1662 36.477 95.6069 36.5945 96.9926 36.4519C97.2699 36.4233 98.0782 36.3263 98.0254 35.9207ZM106.316 35.9824C102.298 36.7952 104.645 41.9531 107.812 40.223C110.459 38.7764 109.42 35.3546 106.316 35.9824ZM58.7891 40.3857C58.747 40.3433 58.8711 39.811 58.3255 39.298C58.0439 39.0333 53.7598 36.7395 53.4892 36.7842C52.6608 36.9209 50.5097 41.0966 49.9791 42.0549C47.9253 45.7642 46.0931 49.6599 44.3602 53.5077C44.4682 53.6117 46.7314 52.6346 47.2306 52.5187C49.7574 51.9319 50.2919 52.1859 52.815 50.9329C53.1645 50.7593 54.8354 50.5691 53.5206 50.0865C52.4892 49.7081 51.4343 50.9081 50.4195 50.5785C51.9631 49.7525 53.9383 48.8145 51.2851 47.7864C52.8715 44.7387 54.724 43.6369 58.3543 44.0149C60.5711 44.2456 60.349 44.6616 61.2 46.1525C61.4268 46.55 62.1129 46.3547 61.8328 47.6391C61.3186 49.9972 59.6682 49.7226 58.0108 50.665C55.335 52.1867 52.8247 54.063 50.2224 55.6931C47.8212 57.1973 44.907 58.106 43.0589 60.4883C42.6984 59.5475 43.9979 58.4123 44.6721 57.8611C46.0534 56.7319 55.2789 52.0582 55.3176 51.415C54.9972 51.0035 54.8944 50.9735 54.3759 51.0495C52.9305 51.2615 49.9488 52.7738 48.3324 53.3057C46.8259 53.8014 45.2663 54.0749 43.7515 54.5182C41.0937 59.574 39.7768 65.5094 37.2863 70.5386C33.5695 78.0444 29.7252 84.9942 26.6253 92.8911C24.8568 97.3965 23.1405 102.044 22.4329 106.84L25.9271 97.7999C34.0245 82.4298 39.7781 69.3619 53.2999 57.5545C56.461 54.7941 60.4182 52.6791 63.557 50.159C64.2554 49.5983 64.1506 48.6284 65.297 48.2042L64.4964 40.1675C64.1094 39.6458 61.4521 39.8555 60.6608 39.8277C60.3237 39.8158 59.4377 39.4681 59.3642 39.5467C59.3215 39.5923 59.4584 41.0607 58.7891 40.3857ZM87.9274 40.9403C87.8183 40.433 87.36 40.4218 86.9287 40.3752C82.9243 39.9424 77.5476 40.4579 73.3448 40.3968C72.5701 40.3856 71.8502 40.0557 71.0424 40.0732C70.2735 40.0898 69.8388 40.6324 69.1758 40.3847C69.2006 43.3482 70.0942 46.9276 68.8954 49.7501C68.5647 50.5288 67.8453 51.0245 67.7332 51.8336L69.1683 50.4395L70.0379 51.5511L68.8859 52.1101L71.1906 52.3886L67.3147 52.9629C66.8884 51.5972 65.5224 53.3036 64.8471 53.9319C64.7626 54.628 65.7033 54.0654 65.1321 54.9026C65.2206 54.9664 67.0865 54.3675 67.2455 54.2891C67.7083 54.0607 67.6801 53.6091 67.7663 53.5501C67.8209 53.5127 68.4614 53.8294 68.9522 53.7456C70.6814 53.4502 72.4635 51.5437 74.3653 51.972C71.8958 53.703 68.8021 54.1671 66.0009 55.1875C65.8562 55.5969 67.1246 55.3949 66.5742 56.017C66.4963 56.105 65.6962 56.1113 65.7108 56.5779C67.6079 55.9985 69.4557 55.3976 71.4091 54.975C72.1173 54.8217 72.8613 54.9707 73.5774 54.8394C74.2355 54.7188 74.8591 54.3433 75.5062 54.191C75.7965 54.1227 76.4506 53.8247 76.3844 54.3433C75.81 54.4916 72.5197 55.5896 72.3934 55.7907C72.2104 56.0823 72.4325 56.7681 72.3459 56.8616C72.256 56.9586 71.1952 56.5617 70.617 56.6951C69.4675 56.9603 67.4829 58.756 66.0082 58.9627L65.7127 59.6513L66.5736 59.3731C66.8038 60.1413 66.1033 59.8682 65.6998 60.3292C64.2967 61.9324 66.0208 62.693 66.5583 61.4495C66.946 60.5527 65.7164 61.0355 66.0013 60.2113L67.7302 60.2131L66.8662 61.4684C67.2209 61.8564 69.4719 60.3073 69.1631 59.9443C69.0676 59.832 68.4821 60.1523 68.5981 59.6555L69.9001 59.0976C71.0216 59.2716 69.1084 59.4323 69.4645 60.347C69.5271 60.5077 69.8885 60.845 70.1313 60.731L76.6597 57.5417L77.5385 57.694L64.8507 63.98C65.1665 64.4237 65.3245 64.3831 65.8187 64.3759C67.7122 64.3486 69.8212 63.5069 71.6618 63.3147C71.9788 63.2816 72.7026 63.0643 72.6333 63.5577C70.8609 64.9015 65.7873 64.689 64.5541 65.6535C63.7922 66.2493 65.8899 66.747 66.3758 66.6497C66.4593 66.633 66.9581 65.8503 67.6332 65.5353C69.5884 64.6228 75.5572 63.8281 77.7041 64.0975C78.2375 64.1645 78.0818 64.616 78.3157 64.6709C79.654 64.9848 81.1272 64.2083 82.4442 64.1223L79.398 65.4968C77.0979 65.8471 78.0714 64.7375 77.671 64.6593C77.2774 64.5824 76.4178 64.6476 75.957 64.683C74.284 64.8117 70.7565 65.4568 69.0967 65.8607C68.6382 65.9722 67.4273 66.4907 67.1554 66.9084C70.4642 67.2432 74.7432 68.5568 77.9702 68.6069C80.6979 68.6493 83.7623 67.573 86.6173 68.0406C86.9589 68.0966 87.3003 68.2063 87.3508 68.5844C85.7354 68.5939 83.9299 68.6754 82.3359 68.8999C82.0137 68.9453 80.9902 69.0006 81.0049 69.4218C82.5452 69.9488 84.2587 69.4992 85.7496 69.718C86.1862 69.7821 86.493 70.1821 86.9355 70.2457C88.0536 70.4067 89.3834 70.4569 90.5242 70.5404C88.8496 63.6559 93.0891 58.4651 98.2673 54.4417C97.9472 51.87 98.2051 49.2388 98.0238 46.671C97.9587 45.7488 97.6384 43.0816 97.2911 42.3553C96.3263 40.3379 92.804 39.6215 91.0821 41.072C90.7503 41.3515 90.6199 41.8964 90.3236 42.0764C89.4329 42.6178 87.9053 42.4459 86.9802 42.6794C86.1014 42.9012 84.5301 44.6037 85.3302 42.342C80.8048 42.1248 76.1025 42.6651 71.6105 42.3547C71.1168 42.3206 70.6565 42.3841 70.3286 41.9198C73.9725 41.0777 77.7213 41.5681 81.4479 41.5137C82.2095 41.5026 82.9179 41.2126 83.7431 41.1991C85.1681 41.1759 86.4018 42.0363 87.9274 40.9403ZM112.163 45.1333C110.74 45.882 110.094 45.0356 109.121 44.8671C107.821 44.6418 106.301 45.114 104.952 44.5765L106.394 45.415L105.242 46.2457L107.259 46.5312C107.077 47.1837 105.143 46.6075 104.95 46.8089C104.314 47.4718 105.512 47.9676 105.508 48.0451C105.487 48.4685 104.242 50.8975 104.662 51.2745C104.813 51.4095 106.573 50.9566 106.683 51.8307C104.477 52.1138 104.893 52.5778 106.682 53.0889C101.012 54.8514 94.3885 58.7846 93.1948 64.8884C88.6889 87.9283 129.215 94.652 143.03 78.7707C144.701 76.8496 146.272 74.2399 145.926 71.6573L143.761 71.66C144.035 70.8574 143.58 70.8592 143.107 71.5849C141.963 73.3383 141.538 75.8419 139.984 77.7775C135.488 83.3798 123.462 85.013 116.626 84.514C105.178 83.6783 88.7289 72.4332 98.6102 60.6354C100.197 58.7404 106.304 53.9194 108.858 55.7353C109.641 56.292 108.707 56.5588 108.708 56.7202C108.708 56.8259 110.282 57.7354 110.562 57.7304C112.585 57.6938 112.462 56.0968 113.228 55.4456C116.155 52.9594 126.948 54.3208 130.635 55.3212C135.55 56.6547 139.588 58.9735 143.045 62.5775C143.557 63.1115 144.085 64.2333 144.5 64.5203C144.873 64.7776 147.472 65.409 147.654 65.2351C145.958 59.6539 139.559 55.8101 134.165 53.8588C129.583 52.2011 123.257 51.1808 118.371 51.5571C116.115 51.7309 113.666 52.8008 111.3 52.1101C112.536 50.1428 111.454 47.4104 112.163 45.1333ZM55.6138 49.3172C57.6589 50.0419 60.7474 47.6427 58.3594 45.9654C55.8948 44.2343 53.8538 47.048 56.1878 48.9032L55.6138 49.3172ZM102.752 48.6646L101.781 46.2506C101.699 47.2416 101.426 50.8609 103.222 49.748C103.926 49.312 102.796 48.746 102.752 48.6646ZM140.729 64.3974C141.165 64.0229 139.199 62.1799 138.862 61.8787C133.549 57.1219 124.669 55.94 117.693 56.3471C116.178 60.1173 113.007 63.5652 108.411 62.5874C107.861 62.4705 105.218 61.4133 104.732 61.1168C104.281 60.8412 104.036 60.1914 103.931 60.197C103.782 60.2048 101.645 61.151 101.419 61.3214C101.207 61.4818 100.096 62.9632 100.051 63.1479C99.8708 63.8777 101.137 63.2472 100.918 64.1162L101.197 64.1176L101.775 63.282C101.848 63.6094 101.677 64.5479 101.779 64.6766C102.292 65.32 102.292 63.9538 102.64 64.1217C102.681 64.7448 103.173 65.373 103.229 65.9665C103.243 66.1264 101.691 67.6647 102.816 68.6078C104.006 68.2113 109.863 68.0319 110.454 67.6297C110.86 67.3539 110.973 63.2267 112.458 63.9645C113.341 64.4032 113.146 66.4163 112.742 67.1884C115.517 66.7331 118.124 68.7675 118.674 71.3636C118.923 72.5395 118.686 73.6466 118.871 74.8026C119.192 76.8099 122.452 82.1889 124.72 82.2863C125.732 82.3298 128.162 81.6514 129.251 81.3523C134.521 79.9056 141.139 76.2451 139.149 69.9785C138.875 69.1171 136.872 65.9833 137.003 65.4055C137.17 64.6714 139.977 64.3931 140.729 64.3974ZM64.2693 58.5336C64.961 58.5612 65.6167 58.5828 66.2975 58.4049C67.1472 58.1829 69.7421 56.5838 67.667 56.6505C66.6396 56.6835 64.3555 57.3131 64.2693 58.5336ZM61.094 62.7263C60.4521 62.6114 57.0508 63.5896 57.9178 64.3979C58.3974 64.3275 60.5674 64.6685 60.8077 64.3985C60.8958 64.2996 60.372 63.1135 61.094 62.7263ZM99.1814 67.1888C101.527 67.4445 101.519 65.4651 100.191 64.1252C100.041 64.1284 99.3432 65.2817 99.2906 65.5171C99.1266 66.2502 100.132 66.362 99.1814 67.1888ZM154.867 70.5404C156.162 69.3368 149.882 67.5475 149.324 67.3912C147.994 67.0183 139.935 65.1796 139.289 65.7964C139.252 67.2639 141.863 68.0192 143.102 68.3865C145.999 69.2454 149.098 69.5627 152.062 70.0471C152.852 70.1762 153.766 70.8955 154.867 70.5404ZM113.32 73.0528C113.52 73.217 114.403 72.7945 114.777 72.9275C115.269 73.1027 116.251 75.0478 116.508 72.9268C116.769 70.7744 115.401 69.1277 113.176 68.9222L99.4717 72.2207C99.4124 72.6649 100.08 72.6265 100.367 72.6196C101.898 72.5829 103.247 72.1394 104.663 71.6615C103.837 72.9424 101.431 73.3488 100.049 73.0556C99.8994 73.7755 100.643 74.6452 101.36 74.7368L113.161 71.6687C113.97 71.9381 113.195 72.9501 113.32 73.0528ZM90.8149 72.4976C90.6493 72.3312 86.8013 72.5429 86.0406 72.5079C81.4745 72.2979 76.1897 71.9802 71.6995 71.308C70.193 71.0825 68.7448 70.2907 67.1547 70.5447L70.4665 71.9427C73.0954 73.4271 89.2099 74.3789 90.6439 73.3587C90.8899 73.1837 90.89 72.5731 90.8149 72.4976ZM117.069 82.2674C116.342 80.5699 116.998 75.6246 116.044 74.4686C114.404 72.4818 111.259 75.2743 109.422 75.8451L109.568 75.012C109.226 74.7665 102.581 75.8502 102.356 76.1297C105.9 79.9116 111.859 82.0441 117.069 82.2674ZM66.5732 79.1965C66.7726 79.0614 67.1272 75.87 67.1503 75.29C66.3922 75.3948 66.743 76.9631 66.5284 77.1993C66.3531 77.3923 65.4788 77.0947 65.399 77.9452C65.3446 78.5238 66.1247 79.5003 66.5732 79.1965ZM72.5743 75.6298C72.2468 75.4461 71.7221 75.6028 71.3379 75.5668C71.0217 76.2675 72.3529 77.1682 73.2125 76.6819C73.0458 76.468 72.6731 75.6852 72.5743 75.6298ZM79.2719 76.964C79.2034 76.8888 79.2101 76.4769 79.0069 76.254C78.3862 75.5731 74.9589 75.8322 73.7897 75.5707C75.2599 77.9499 75.8578 76.2221 76.2946 76.1291C78.2192 75.7192 77.4531 76.9131 77.5407 76.9617C77.7762 77.0922 78.8532 76.877 79.2719 76.964L77.8292 77.246L78.6979 78.4969L77.8306 78.9157C78.8162 78.9606 79.9562 78.9322 80.7135 78.2192C79.8156 77.9968 80.1423 77.439 79.8554 77.1167C79.728 76.9736 79.3285 77.0262 79.2719 76.964ZM44.0688 76.1278L41.0424 78.3619L40.0308 79.7535L43.2157 77.6728L44.0688 76.1278ZM91.0391 77.0322C90.7186 76.8774 88.9088 77.6087 89.3733 78.0806C89.4524 78.161 89.9629 77.7337 90.3341 77.8235C90.6537 77.9009 90.9843 78.4614 90.8138 78.6365C90.7778 78.6734 90.1795 78.7233 89.8034 78.9104C89.4393 79.0914 88.6056 79.3996 88.5065 79.7534L93.1208 78.6374C93.1322 77.349 91.9455 77.7303 91.3102 77.5082C91.0518 77.4178 91.0901 77.0568 91.0391 77.0322ZM87.8595 77.5952C86.6922 77.0337 83.9439 77.5951 83.3128 78.9157L87.6381 78.0838C87.2411 78.6604 86.0944 78.5431 85.4146 78.8595C85.0344 79.0365 84.7405 79.3115 84.4705 79.6167C85.9718 81.6263 87.5427 80.1818 88.7867 78.7689C88.8565 78.5897 87.9279 77.6281 87.8595 77.5952ZM91.9695 80.3126C92.0331 80.3968 94.0052 80.5811 94.1104 80.5584C95.1342 80.3381 93.9733 78.903 93.3165 78.9587C92.905 78.9936 91.6576 79.9 91.9695 80.3126ZM36.5711 84.7822C38.5193 83.2619 41.0981 82.1881 42.0476 79.7563C41.2388 79.9841 35.9276 84.1071 36.5711 84.7822ZM85.3312 82.2665C86.2735 82.3261 91.6568 81.1565 91.6732 80.4543C91.6967 79.444 88.9276 80.6199 88.5738 80.7884C88.2202 80.9569 88.2198 81.4379 88.051 81.4375C87.0857 81.4352 85.8308 80.5212 85.3312 82.2665ZM38.011 87.0134C41.1377 86.3389 42.4323 83.166 43.4903 80.594C41.7935 82.0996 41.3904 84.5082 39.5974 85.9053C39.2667 86.163 38.1763 86.1372 38.011 87.0134ZM122.552 82.5457C121.912 81.2556 120.59 82.4781 119.67 81.4316C119.19 83.299 121.151 82.3422 122.552 82.5457ZM92.2546 81.7137C91.077 81.8847 89.5584 82.0052 88.4463 82.3518C88.0944 82.4614 86.9881 83.0348 86.776 83.3826C87.449 83.5639 88.1082 83.8192 88.8056 83.5481L92.2546 81.7137ZM76.0979 83.3862C76.1845 83.2488 76.4438 82.8954 76.3867 82.8318L74.0797 81.9915C74.4277 83.6796 74.9273 83.2115 76.0979 83.3862C75.6485 84.0992 75.0629 84.1527 74.6553 84.7795C75.2274 84.9531 76.0497 84.4904 76.4932 84.5771C76.8675 84.6503 77.0246 85.2195 77.5391 85.0602C77.719 83.457 77.5054 83.5962 76.0979 83.3862ZM60.8055 87.851C62.0704 86.5998 61.985 84.7405 62.2452 83.1083C61.7711 83.2388 61.4694 84.1502 61.2998 84.5629C60.8302 85.7061 60.6669 87.2307 60.3355 88.1399C60.0398 88.9513 58.3099 89.8404 59.793 90.0891C63.282 90.6743 63.3911 89.0466 63.6879 86.1785L62.8281 86.7368L62.8223 85.3421C62.1745 85.5421 62.4729 86.762 62.1659 87.217C62.0673 87.3631 60.9788 87.9913 60.8055 87.851ZM95.7453 83.6915C95.2748 84.3419 96.7302 86.7034 97.8448 84.7813C98.5562 83.5545 96.1916 83.0745 95.7453 83.6915ZM93.4102 83.6682C91.1691 83.7636 89.6353 85.287 87.9831 86.3633C87.1611 86.8988 86.0455 86.9871 85.6198 87.851L87.0623 87.8566L86.4838 88.6888L87.3494 89.2484L85.9064 89.2477L86.1987 88.6937C85.0941 88.6391 83.7551 88.7041 83.0733 89.6638C83.0195 90.0449 84.9972 91.0937 82.7357 91.6219L83.8867 92.0453L83.3128 92.5977C84.018 92.5873 85.053 92.8289 85.3311 92.0449C85.0174 91.9768 84.387 92.2103 84.2167 91.9068C84.1988 91.8749 84.2747 91.2391 84.3443 91.1918C85.527 90.3893 87.9809 89.8749 89.3706 89.2526C88.5493 90.6468 86.447 90.7375 85.6197 92.0393C86.4446 92.6449 94.1285 87.7284 95.7184 87.5773C95.3475 88.5803 86.8445 92.0226 87.0637 92.4596C87.8199 92.7424 88.8198 93.9935 89.5138 93.9696C90.251 93.9443 92.5144 92.3492 92.8314 92.6018C93.3879 93.0453 92.3967 93.2012 92.2581 93.2908C91.7544 93.6165 91.0703 93.9046 90.6123 94.2122C90.3898 94.3617 89.8271 94.3512 90.2386 94.829C90.9643 95.6714 92.2115 95.0144 92.2544 95.1107C92.3186 95.2547 92.1401 95.6977 92.3066 95.8852C92.8279 96.4721 97.2002 96.6939 98.314 97.0666C97.4612 93.0809 97.0874 89.4859 95.1092 85.8457C94.9332 85.5217 94.3414 85.6531 94.563 84.9228L95.1391 85.0638C95.2576 84.7541 95.0261 83.9552 94.7094 83.9503C94.4303 83.946 90.7281 86.4618 89.6594 86.1757C90.6305 85.0479 92.6367 85.0922 93.4102 83.6682ZM99.5584 85.5304C99.3613 85.2471 99.6903 84.697 99.1839 84.7837L99.2508 86.8092L102.206 92.877C102.748 92.5194 102.631 92.2768 102.528 91.7544C102.278 90.4832 100.315 86.617 99.5584 85.5304ZM103.209 87.2806C103.263 87.2064 103.198 87.024 103.218 86.8804C100.485 84.5542 100.964 86.6706 102.07 88.6894C102.62 88.7232 102.212 87.9955 102.498 87.5621C102.652 87.3299 103.168 87.3362 103.209 87.2806ZM85.6183 86.1799C85.1682 85.7607 82.0783 87.0993 83.0258 88.4122C83.4388 88.2713 86.3667 86.877 85.6183 86.1799ZM77.8274 86.4588C77.6646 86.2809 75.506 87.0498 75.8109 87.8524C76.1539 87.9934 76.8926 87.5108 76.9609 87.5748C77.5698 88.1456 76.2298 88.0283 76.3879 88.4093C77.9994 88.6483 77.9172 87.7388 77.8274 86.4588ZM108.991 88.6945C106.98 88.2929 105.058 87.1123 102.944 87.5865C102.738 87.7844 103.137 92.8472 103.351 93.1722C103.563 93.4936 103.83 93.428 104.157 93.3913C105.72 93.2161 108.161 91.7224 109.855 91.4806C110.022 91.1194 108.645 91.1826 109.281 90.6474C109.445 90.5099 110.411 91.2447 111.14 91.224C111.464 91.2148 114.088 90.4859 114.184 90.3635C114.85 89.5117 110.553 88.7446 109.572 89.1224C108.233 89.6375 108.744 89.3423 107.478 89.5763C106.668 89.7259 105.85 90.6397 104.952 90.6433C105.514 89.8726 106.642 89.3415 107.549 89.0837C108.089 88.9304 108.805 89.4375 108.991 88.6945ZM32.8174 91.481C33.9087 91.1635 38.3394 90.349 38.0117 88.8369C37.8048 87.8819 36.1315 88.8955 35.6977 89.1055C34.6091 89.6326 33.2137 90.3297 32.8174 91.481ZM76.6306 89.5774C76.507 89.4744 75.5628 89.4937 75.5218 89.5299C75.4579 89.5863 75.7726 90.8518 75.5204 91.2031L77.2507 91.203C77.1628 90.9277 76.6984 89.6339 76.6306 89.5774ZM122.839 90.9288L114.967 89.8484L114.474 90.364L116.203 90.6425C115.018 90.9963 113.774 91.1448 112.579 91.4658C111.128 91.856 109.75 92.187 108.255 92.5863C107.426 92.8077 105.287 93.5972 106.108 94.5536L104.953 94.8316C106.106 94.7917 108.037 94.8594 109.097 94.5096C109.464 94.3887 110.117 92.6338 110.005 94.2797C110.883 94.2274 112.156 93.575 112.924 93.5272C114.056 93.4569 115.988 93.4379 117.204 93.4241C117.555 93.4201 118.421 93.8144 118.511 93.718C118.577 93.6483 118.357 93.0664 118.68 92.8508C119.045 92.6077 119.991 92.6684 120.445 92.3749L122.839 90.9288ZM75.2323 91.2017C74.4337 89.8466 72.9928 90.5865 71.77 90.6488C72.4061 91.6974 74.1872 91.0319 75.2323 91.2017ZM139.862 111.309C138.069 106.092 136.211 100.713 132.644 96.377C130.771 94.0996 129.287 92.5671 126.357 91.5677C123.798 90.6948 122.617 92.791 120.246 92.8813C119.763 93.3017 122.502 94.7818 122.827 94.9896C123.248 95.2581 123.862 95.25 124.197 95.4787C127.78 97.9259 131.989 107.642 133.145 111.809C133.329 112.472 133.536 114.629 133.797 114.816C134.147 115.068 139.099 113.011 139.44 112.432C140.075 111.351 138.839 111.664 138.172 110.852C137.493 110.024 136.063 106.824 135.484 105.635C133.911 102.402 132.922 98.8106 130.632 95.9541C131.258 95.3961 133.332 98.9816 133.566 99.3938C135.762 103.26 136.881 107.999 139.862 111.309ZM35.991 91.4864C34.1359 91.847 31.9181 92.4269 31.6659 94.5551C33.0188 93.4104 34.9018 92.9414 35.991 91.4864ZM59.3621 91.7663C58.2256 91.2309 52.9519 91.82 53.0221 93.3004C53.0575 94.047 55.894 93.6613 56.4799 93.4405L56.1859 93.9944C56.6102 93.9446 59.5826 93.1676 59.0723 92.6016L57.9182 92.323L59.3621 91.7663ZM101.486 95.1123C101.567 93.8349 101.305 92.1825 100.05 91.4837C99.9702 92.1097 100.197 92.6619 100.4 93.236C100.577 93.7365 101.023 94.8198 101.486 95.1123ZM100.335 95.9486L98.8954 92.3227C98.9897 93.4339 98.7669 95.808 100.335 95.9486ZM83.8862 93.7211C82.6269 93.2203 82.2515 92.2902 80.7148 92.8828C80.9285 93.3127 81.9546 93.8034 82.3796 93.921C82.6674 94.0006 83.897 94.264 83.8862 93.7211ZM85.0437 93.4339C85.4083 93.7977 87.3009 94.1976 87.3451 93.2987C87.3747 92.6976 84.236 92.628 85.0437 93.4339ZM88.2151 93.7203L86.7771 94.5611C86.9773 95.1562 87.6172 95.4219 88.22 95.398L87.9262 95.949L90.5234 95.9498C90.7616 95.0088 89.5077 95.3404 89.0195 95.0907C88.6637 94.9088 88.4592 94.1387 87.6415 94.2725L88.2151 93.7203ZM81.5793 94.8386C81.5016 94.7635 79.8825 94.141 79.5623 93.9964L79.2719 95.1108C79.3454 95.1044 82.5116 95.7402 81.5793 94.8386ZM87.3495 96.229C87.3315 95.1467 86.231 95.0067 85.3326 95.1151C85.3506 96.1975 86.4511 96.3375 87.3495 96.229ZM76.9624 98.1804C77.5352 97.341 75.9535 96.9187 75.2888 96.8487C72.7981 96.5862 70.1048 96.7377 67.5898 96.5062C66.3112 96.3885 62.4543 95.325 61.8233 95.3879C61.1181 95.4582 59.1191 97.3312 59.9416 98.1835L58.2114 98.6082L61.8985 100.059C63.2953 100.663 67.7353 100.912 68.302 102.241C68.7758 103.353 65.8172 102.488 65.4235 102.375C65.0982 103.342 66.8332 102.959 66.8798 103.386C67.1224 105.608 63.2486 107.651 66.2876 109.91L64.8481 109.354C64.895 110.221 64.2264 111.214 64.2508 112.022C64.2734 112.766 64.8565 112.893 64.8424 113.542C62.9684 112.781 63.7066 115.312 64.2651 116.335L63.1152 115.778C63.18 116.595 62.7276 117.372 63.6945 117.591L63.1162 118.146C64.0158 119.226 65.1199 119.842 66.5101 120.166C70.0769 120.998 68.1144 119.183 68.0361 117.572C67.8963 114.698 69.0375 107.234 70.0238 104.453C70.4882 103.144 72.357 100.228 73.4892 99.4301C74.2845 98.8695 76.8603 98.33 76.9624 98.1804ZM108.413 121.64C109.706 121.747 110.958 121.47 112.219 121.273C115.783 120.716 124.796 118.898 127.665 117.234C129.056 116.427 128.473 114.77 128.245 113.479C127.501 109.259 124.3 100.982 121.261 97.8997C118.979 95.5856 117.299 95.4351 114.078 95.7081C111.466 95.9294 105.981 96.8 103.495 97.473C102.942 97.6224 102.32 97.8055 102.123 98.3817C101.52 100.145 103.636 99.6864 104.811 100.695C105.46 101.252 105.989 102.401 106.256 103.205C107.467 106.845 109.014 114.655 108.882 118.382C108.861 118.969 108.195 121.427 108.413 121.64ZM50.7057 96.2288C50.184 95.6137 49.318 98.0868 49.5548 98.4665L50.1274 98.1829C50.3598 100.094 49.0228 101.153 48.3435 102.739C47.843 103.908 47.5803 105.238 47.0063 106.471C46.3493 107.882 44.8093 108.991 45.2274 110.749L46.3821 107.96L46.8099 108.515L48.3941 106.696L47.5353 106.562C47.173 106.056 49.1008 102.53 49.8382 102.094C49.9344 102.769 48.6882 104.105 49.5492 104.606C49.4499 103.181 53.4724 97.6512 52.9726 96.8397C52.4764 96.034 51.2713 96.5006 50.7093 97.0701C50.6573 96.8474 50.7827 96.3196 50.7057 96.2288ZM91.6789 115.779C90.0571 117.667 88.4816 119.709 86.4908 121.221C86.4724 121.854 89.1504 122.144 89.8067 122.195C92.6439 122.416 95.6831 122.305 98.4629 122.201C99.2456 122.172 101.865 122.418 102.229 121.927C102.541 121.504 101.43 117.035 101.285 116.114C100.778 112.888 99.2159 105.103 100.192 102.375C100.638 101.131 102.267 100.093 100.124 99.0881C98.446 98.3019 93.172 98.8585 90.9458 98.7551C89.1605 98.6721 87.2728 98.5875 85.4801 98.4598C84.2089 98.3693 79.1278 97.326 78.4035 97.7595C77.9473 98.0325 76.967 100.802 76.9457 101.409C76.8632 103.751 80.3869 103.237 82.0177 103.765L94.9955 104.05L95.7171 104.885C94.0535 105.213 86.1591 104.814 85.3314 105.306C84.906 105.558 84.1182 107.252 83.023 107.118C83.3433 106.269 84.7988 106.183 84.7527 105.167C83.93 105.324 83.0526 104.811 82.2978 104.859C81.6398 104.902 81.2929 105.402 80.8481 105.442C80.1219 105.508 79.275 104.795 78.409 105.445C77.8711 104.536 80.3786 105.139 79.5593 104.332C79.134 103.913 77.0522 104.241 76.3893 103.77C75.5478 104.822 81.5013 108.896 80.716 110.47C82.3416 110.028 82.9702 107.684 85.0412 108.096L81.2926 111.17C82.7328 111.867 81.5009 112.039 81.1427 112.418C80.7469 112.835 80.7808 113.508 80.0122 113.273C79.8739 113.231 78.2284 111.463 78.1486 111.12C78.0087 110.519 78.9592 110.639 78.9778 110.332C79.0156 109.708 76.4629 109.428 76.1659 109.008C75.9736 108.737 76.0726 107.082 75.3801 107.402C74.4698 107.821 74.4465 110.814 74.805 111.582C74.963 111.921 80.1695 116.097 80.5314 116.037L89.3679 108.796C89.494 109.319 89.0668 109.46 88.7943 109.774C86.5759 112.326 83.6194 113.846 81.3117 116.234C82.3435 118.12 84.1016 119.454 85.7638 120.791C86.4935 119.884 87.5456 119.319 88.3781 118.582C88.7161 118.283 91.2334 115.375 91.6789 115.779ZM47.717 101.441C47.9008 101.215 48.3726 100.637 47.967 100.42C46.7784 101.228 45.8309 101.874 46.093 103.489C46.6217 103.32 46.6596 102.457 47.0012 101.986C47.2059 101.704 47.5745 101.617 47.717 101.441ZM57.0529 100.42C56.9942 100.365 56.3817 100.326 56.1674 100.592C55.977 100.828 55.1159 102.587 54.9518 102.991C54.6254 103.795 54.2372 105.071 53.9519 105.934C52.875 109.195 52.051 112.646 51.6217 116.004C51.8448 116.373 56.572 118.222 57.3416 117.872C56.58 117.348 55.2675 115.138 54.8919 116.613L53.3044 115.077C53.9438 115.126 53.7671 113.64 53.7211 112.954C53.7062 112.731 53.3191 112.4 53.3195 112.008C53.3202 111.274 54.4034 110.282 53.5915 109.077C53.8695 109.021 54.6604 109.157 54.7488 109.076C54.9208 108.92 54.8929 105.345 55.0942 104.525C55.2647 103.831 57.835 101.157 57.0529 100.42ZM61.341 102.691C60.9735 102.119 58.8996 102.266 58.2091 102.097C58.444 103.851 59.891 103.482 61.3839 103.489C61.3514 103.235 61.4622 102.879 61.341 102.691ZM103.216 102.933C102.521 102.255 102.591 104.135 102.638 104.473C102.874 106.162 103.946 106.517 103.785 104.775C103.764 104.556 103.286 103.001 103.216 102.933ZM65.7091 103.492L62.8266 103.629C63.142 104.093 63.6189 103.841 64.0644 104.036C64.2999 104.139 64.1421 104.702 64.6914 104.62C65.2161 104.542 65.7861 104.067 65.7091 103.492ZM104.66 118.289C104.252 114.455 103.124 110.439 102.064 106.703C101.956 106.321 102.083 105.833 101.492 105.724C101.957 109.522 102.63 113.849 103.939 117.455C104.06 117.789 104.261 118.217 104.66 118.289ZM62.2467 110.47C62.7385 109.994 59.7034 107.043 59.2185 106.567C57.2371 108.332 59.6622 108.122 60.1541 108.59C60.2619 108.693 61.4065 111.283 62.2467 110.47ZM22.7161 150.402C23.139 147.226 21.9907 144.343 21.6054 141.286C20.8538 135.323 20.3983 128.894 20.6868 122.885C20.9166 118.096 22.0997 113.28 21.9971 108.514C21.4208 111.084 20.5767 113.619 20.1605 116.233C18.8436 124.502 18.4449 134.125 19.2587 142.44C19.52 145.109 20.6395 149.865 22.4283 151.937C22.5736 152.106 22.7714 152.35 23.0041 152.355C23.3923 150.958 21.8669 151.255 22.1437 150.119L22.7161 150.402ZM105.526 116.054C105.504 114.939 105.717 113.203 104.666 112.426L104.737 113.89L105.526 116.054ZM74.3681 116.892C74.2442 116.755 74.9868 113.895 74.6523 113.265L74.0811 116.477L74.0797 120.801C75.2743 121.058 74.2626 119.642 74.4878 119.389C74.7015 119.149 75.233 119.216 75.4419 119.055C76.0549 118.581 75.3285 117.056 75.5194 116.336C74.8606 115.91 74.9133 117.493 74.3681 116.892ZM130.627 117.451C131.155 116.959 130.684 113.671 129.769 113.263C129.554 114.101 130.326 114.63 130.371 115.354C130.382 115.537 129.651 118.36 130.627 117.451ZM61.3794 116.055C61.8911 114.826 61.277 113.87 59.9414 113.544C59.6469 113.86 61.1192 116.33 61.3794 116.055ZM78.2106 115.962C77.548 115.468 76.528 114.073 75.6594 113.826C75.273 113.716 75.1198 113.861 75.2366 114.235C75.4526 114.927 76.2458 116.022 76.5353 116.889C76.7746 117.606 76.5739 118.325 76.891 119.058C76.9461 119.185 78.4295 121.018 78.5365 121.095C79.7832 121.997 83.9644 121.754 85.6182 122.197C85.7774 121.53 85.5001 121.745 85.2429 121.575C82.7641 119.938 81.5241 117.899 79.7084 116.611C79.1569 116.22 78.531 116.201 78.2106 115.962ZM57.0501 114.381C57.0117 114.345 56.4725 114.277 56.4734 114.524C56.4768 115.383 57.9262 116.392 58.4983 117.032C58.9315 117.516 59.4041 119.036 60.3548 118.842C61.7032 118.565 60.2427 117.878 60.0901 117.739C59.4038 117.115 58.4646 116.516 57.9077 115.929C57.3923 115.385 57.1157 114.442 57.0501 114.381ZM105.82 120.242L106.103 117.453C105.685 117.388 105.704 117.945 105.618 118.234C105.228 119.557 104.535 122.039 106.682 121.641C106.339 120.333 107.312 118.526 106.537 117.453C106.144 118.208 106.78 119.771 105.82 120.242ZM144.19 121.359C144.213 120.654 142.702 117.332 142.033 117.453C141.719 117.51 141.349 118.159 141.88 118.433L144.19 121.359ZM140.731 118.292C139.974 117.885 139.283 118.879 138.779 119.053C138.248 119.236 131.983 120.188 131.626 120.131C131.148 120.055 130.614 118.707 129.767 119.826C131.545 120.149 130.995 120.728 131.783 121.783C133.059 123.491 135.176 123.188 136.258 126.108C137.253 128.796 138.412 135.395 138.687 138.276C138.881 140.301 138.593 142.492 138.712 144.535C141.823 143.518 145.631 142.937 146.498 139.345C145.697 133.791 145.255 127.73 142.801 122.568C142.255 121.421 141.176 120.198 140.661 119.037C140.507 118.69 140.765 118.31 140.731 118.292ZM77.2507 121.08L75.8129 118.848C75.0117 120.654 74.8511 121.283 77.2507 121.08ZM43.68 119.452C42.8397 119.601 42.5344 121.203 42.0574 121.781C42.7725 122.773 47.0214 122.189 46.255 120.798C46.0659 120.455 44.03 119.39 43.68 119.452ZM94.8529 132.53H88.2165C88.1457 132.53 88.1713 134.389 87.6815 133.233C87.6524 133.164 88.0327 132.727 87.4607 132.568C87.112 132.471 85.1902 132.314 85.0444 132.806C86.5431 132.692 86.7393 133.771 87.4905 134.489C88.3208 135.282 93.0434 140.078 93.5523 140.079C94.0522 140.079 94.4098 139.196 94.8516 139.649C94.3583 140.616 93.4639 140.835 92.8504 141.335C90.4981 143.252 87.3726 146.006 84.852 147.563C83.3419 148.496 80.8058 149.178 79.463 150.166C79.137 150.406 78.8713 150.459 78.9847 150.957C80.2387 151.025 81.8755 151.539 83.1092 151.181C83.5551 151.052 83.987 150.347 84.5487 150.062C85.7542 149.45 87.0942 149.098 88.3095 148.396C88.9499 148.026 93.3612 144.521 93.6987 144.818C92.4582 146.894 87.8819 148.73 87.0657 150.824C86.8275 151.435 87.4848 151.183 87.7918 151.225C88.5293 151.326 89.2844 151.446 90.0272 151.478C93.3048 149.102 96.0907 145.422 99.1775 142.997C99.8635 142.459 100.712 141.783 101.632 141.742C101.997 141.856 101.317 142.323 101.201 142.442C99.0445 144.661 96.462 147.269 94.1382 149.29C93.5925 149.764 90.352 151.446 92.4063 151.527C94.4336 151.607 95.8916 149.649 97.3096 148.448C97.9147 148.296 97.5914 148.774 97.8811 149.003L100.621 146.491C100.335 147.419 99.1379 149.837 98.4512 150.392C97.5333 151.135 96.0418 150.595 95.1429 151.379C96.0642 151.538 97.2539 151.641 98.1806 151.539C98.899 151.46 99.0001 149.875 100.045 150.538L99.4696 151.235C100.079 151.294 103.587 151.174 103.799 150.957C104.342 150.4 103.212 150.055 103.22 149.992C103.24 149.836 103.597 149.4 103.67 149.02C104.175 146.425 104.241 143.406 104.098 140.755C103.978 138.543 102.938 135.062 102.98 133.219C103.007 132.058 103.938 129.656 105.344 129.751C108.465 129.96 109.596 131.702 110.35 134.426C111.2 137.505 111.098 140.762 111.012 143.842C110.947 146.178 111.009 148.372 110.436 150.678C112.945 149.938 116.435 150.221 118.773 149.116C120.2 148.441 124.067 144.822 125.442 143.563C127.319 141.844 129.101 140.02 130.777 138.116C131.229 138.362 130.681 138.746 130.52 138.984C127.847 142.933 124.565 144.929 121.106 148.023C120.733 148.357 120.174 148.724 120.246 149.282L132.011 146.991C132.245 146.83 132.644 143.842 132.678 143.28C132.716 142.658 132.402 142.095 132.421 141.604C132.627 136.045 133.253 129.725 130.199 124.717C125.719 127.669 120.128 129.891 114.763 130.852C115.001 130.397 116.006 130.095 116.502 129.886C118.631 128.989 120.91 128.458 123.036 127.553C124.531 126.917 126.98 125.227 128.247 124.769C128.612 124.638 129.335 124.799 129.458 124.692C129.588 124.58 129.972 121.754 129.626 121.365C123.6 123.407 117.612 125.19 111.229 125.903C107.987 126.265 104.472 126.069 101.086 126.416C93.0194 127.241 85.5666 127.542 77.399 126.943C75.89 126.832 74.3227 126.015 72.648 126.4C72.2323 128.129 71.787 129.191 72.8113 130.872C75.9058 131.101 79.5809 130.507 82.599 130.846C83.3652 130.932 83.8645 131.37 84.6003 131.422C87.2783 131.612 91.1266 131.34 93.5365 131.71C94.036 131.786 94.6858 132.005 94.8529 132.53ZM70.3261 125.832C70.2326 125.696 67.4888 125.282 67.017 125.256C64.3394 125.105 62.4112 125.152 59.599 124.623C55.9181 123.93 52.3242 122.703 48.6906 121.92C48.9044 122.926 47.147 124.096 48.3094 124.658C51.1267 124.862 59.5564 129.472 61.7523 128.855C62.2225 128.722 62.4747 127.984 62.9651 128.064C63.6043 128.167 63.0685 129.143 63.1145 129.177C63.3223 129.333 64.6549 128.472 65.1307 129.602C65.4574 130.378 63.1412 129.886 62.8267 130.018C62.1129 130.571 64.9482 131.078 64.8449 131.689L61.9583 131.412L62.2503 133.365C62.1115 133.459 61.4301 133.181 61.3632 133.52C61.3141 133.768 61.1697 136.841 61.2161 137.01C61.5536 138.236 64.3364 139.268 63.1101 141.184L59.9438 137.971L58.4943 137.14C58.8253 137.901 59.4539 138.682 59.9875 139.325C60.5456 139.997 64.2231 143.328 63.688 143.978C62.9525 143.521 62.3941 142.717 61.384 142.862C60.8633 144.815 61.9553 145.313 62.5991 146.57C63.4965 148.323 63.4079 150.025 66.2887 149.562C66.468 149.388 65.7512 145.394 65.7134 144.673C65.5605 141.758 66.4262 130.595 68.0159 128.478C68.4924 127.844 70.8928 126.652 70.3261 125.832ZM40.899 125.27C42.3889 126.242 43.8032 123.595 41.8914 123.311C39.9157 123.018 40.766 125.262 40.6063 126.526L40.899 125.27ZM146.787 128.619C146.493 127.02 146.185 124.816 145.061 123.595C145.49 124.85 145.721 126.181 146.136 127.438C146.248 127.776 146.353 128.618 146.787 128.619ZM102.643 123.877L98.3168 124.429C99.6034 124.205 101.775 124.999 102.643 123.877ZM48.9753 127.78L47.0999 125.267C45.7293 127.508 45.3643 130.615 45.2123 133.216C45.0795 135.491 44.924 140.273 45.2936 142.375C45.9142 145.906 49.919 146.299 52.7235 147.608C52.7617 146.579 51.451 146.451 50.8439 145.939C50.3924 145.559 50.1945 144.995 49.8216 144.695C49.2012 144.195 48.1777 143.965 47.6755 143.142L46.9558 144.255C47.6001 142.454 46.1031 140.518 45.8255 138.789C45.46 136.513 45.2408 130.929 46.6698 129.101C46.8768 128.836 47.2259 128.92 47.2417 128.895C47.3113 128.783 46.5017 127.928 46.3855 127.642C47.0714 126.716 47.9921 128.099 48.9753 127.78ZM57.0545 130.857C57.3238 131.892 59.5414 133.837 59.9336 132.099C60.1165 131.289 57.6298 130.868 57.0545 130.857ZM83.8871 132.533C80.1067 132.397 76.4318 131.453 72.634 131.691L72.6384 133.647C73.109 133.637 73.0526 132.869 73.394 132.822C74.4854 132.671 74.8079 133.388 75.0757 133.4C75.7577 133.43 78.1758 132.651 78.4085 132.811L78.1156 133.365C79.3757 133.721 80.5051 132.994 81.5137 132.86C82.1605 132.774 83.5125 133.329 83.8871 132.533ZM23.8726 132.251V138.812C23.8726 139.238 24.6946 140.474 24.4526 141.184L24.7382 141.186V135.182C24.7382 134.566 24.1354 133.16 24.4481 132.252L23.8726 132.251ZM60.8041 132.811C60.0935 132.165 59.955 133.391 59.8467 133.556C59.7482 133.705 59.3804 133.633 59.3659 133.653C59.2089 133.861 60.3635 134.453 60.2312 134.9L59.3656 134.484C59.2645 135.113 59.9769 135.42 60.374 135.879C60.3262 135.376 60.9207 132.917 60.8041 132.811ZM85.3311 133.651C84.6972 133.506 84.1402 133.306 83.4612 133.349C81.153 133.494 75.2633 138.73 73.3554 140.347L73.5094 139.379L78.9819 134.623L73.648 137.279C73.9078 136.501 75.2703 135.491 75.9926 135.081C76.5229 134.779 77.5659 134.813 77.8264 134.341C78.063 133.912 77.3335 133.744 77.0993 133.766C76.8565 133.789 74.3355 134.526 74.099 134.644C71.7631 135.816 72.1577 139.547 72.0599 141.743C73.2239 141.963 73.3951 140.849 74.0143 140.346L79.8488 136.162L73.2136 141.885L73.9795 142.593C76.4277 141.631 78.5301 139.231 80.5781 137.563C81.1718 137.08 85.6508 134.083 85.3311 133.651ZM107.84 136.16C109.083 135.877 107.909 133.397 107.404 133.373C106.273 133.32 108.274 135.774 107.84 136.16ZM58.7856 139.787C59.3574 139.327 53.0851 134.353 52.4407 133.926C52.9378 136.328 55.0694 137.031 56.7502 138.269C57.4033 138.75 57.6726 139.888 58.7856 139.787ZM78.1177 146.212C77.5947 146.491 74.6353 148.116 74.3682 147.886L75.5196 146.629C73.7498 146.9 75.0695 146.259 75.1844 145.459C75.2463 145.028 74.543 143.519 75.6608 143.7C76.267 143.798 75.443 144.742 76.2253 144.523C80.8186 143.235 84.1851 138.872 88.2149 136.713C88.4827 136.334 86.5813 134.459 85.8837 134.61C85.6055 134.67 84.7978 135.264 84.49 135.486C81.3524 137.748 77.981 141.476 74.8707 143.481C74.6117 143.648 73.0871 144.384 72.9241 144.255C73.7565 143.192 73.5659 142.296 72.0584 142.303V147.468C72.0584 148.31 75.1083 151.512 76.4572 150.615C82.1081 147.658 87.4576 144.288 92.8315 140.902C93.2473 140.313 89.1093 137.481 88.6534 136.786L78.1177 146.212C78.2 146.168 78.565 146.293 78.9001 146.134C79.6597 145.772 80.8631 143.602 82.1571 143.702L79.2744 146.355L80.1362 146.909C78.976 148.007 77.5815 149.639 75.8108 149.704C76.2044 148.792 78.7165 147.681 78.9813 147.186C79.3716 146.456 77.8455 147.198 78.1177 146.212ZM136.595 139.708C136.864 139.124 136.443 135.475 135.54 135.043C135.967 137.002 136.023 138.631 135.828 140.626L136.595 139.708ZM40.0278 139.51C40.0938 138.469 39.555 137.25 38.5909 136.718C38.6596 137.654 39.2187 138.938 40.0278 139.51ZM56.7644 141.184C57.1819 140.774 53.4868 137.184 53.0177 136.718C53.5543 137.949 54.6707 139.538 55.62 140.48C55.8087 140.667 56.4642 141.48 56.7644 141.184ZM108.703 144.955C108.896 143.108 108.703 140.734 108.703 138.812C108.703 138.439 108.106 137.39 108.411 136.72L108.126 136.718V146.491L108.411 146.49C108.184 145.918 108.666 145.31 108.703 144.955ZM54.1662 145.095C53.8645 143.34 52.137 141.013 50.8555 139.785C50.5477 139.49 50.3568 139.128 49.8411 139.234C49.5655 139.48 53.2542 144.928 54.1662 145.095ZM56.0807 142.969C55.898 142.802 53.1983 140.351 53.596 141.599C54.2847 143.762 57.5932 145.37 58.6388 147.053C58.7886 147.294 59.0365 147.939 58.5008 147.885L57.0559 146.772C57.0958 148.519 59.1565 148.323 60.5169 148.443C59.0287 146.562 57.8722 144.602 56.0807 142.969ZM134.961 144.814C135.112 145.068 134.43 146.449 135.1 146.483C136.537 146.555 136.925 144.735 134.961 144.814ZM142.461 149.565C141.2 149.333 140.368 150.28 139.372 150.622C137.956 151.108 133.544 152.397 132.268 152.261C131.617 152.191 130.72 151.153 130.5 151.246C130.134 151.401 129.735 151.984 128.981 152.293C121.969 155.169 113.29 155.534 105.818 156.547C106.508 158.75 109.884 158.863 109.859 161.85L116.782 160.734C115.009 162.67 112.579 162.484 110.144 162.405C110.168 167.074 110.409 171.787 109.281 176.366C110.206 177.181 118.17 170.976 119.524 170.226C119.781 171.186 119.879 170.405 120.531 170.643C119.505 171.658 118.118 172.215 116.969 173.059C116.702 173.256 116.062 173.623 116.921 173.572C120.349 171.623 123.285 169.07 126.301 166.595L123.43 170.097C121.198 172.499 116.645 174.395 114.492 176.526C114.027 176.987 113.957 177.701 113.892 177.764C112.933 178.699 113.681 176.157 113.607 176.091C111.763 176.226 108.733 176.197 108.993 178.6C115.279 178.35 121.393 176.899 127.385 175.183C128.581 172.403 129.452 169.638 129.975 166.658C130.53 163.496 130.473 160.083 130.994 157.034C131.431 154.476 131.883 153.206 134.734 154.11C136.578 154.694 137.497 155.916 137.567 157.815C137.631 159.56 137.168 163.14 136.901 164.984C136.436 168.198 135.529 171.373 134.383 174.411C134.801 174.709 139.775 172.993 140.152 172.039L139.578 171.624C143.101 171.805 142.985 167.053 143.324 164.642L139.821 169.764L139.001 170.087C140.345 168.296 141.207 166.232 142.229 164.27C142.565 163.626 143.135 163.327 143.368 162.854C144.521 160.519 144.513 157.536 144.773 155.011C144.851 154.256 145.394 152.466 145.354 151.959C145.335 151.713 142.849 150.113 142.174 150.678L142.461 149.565ZM44.0716 152.912C44.5123 151.346 41.6931 149.134 41.7322 151.656C41.7575 153.283 42.7906 153.245 44.0716 152.912ZM21.8483 154.588C22.7102 152.908 22.511 152.292 20.7015 151.517C20.6274 152.456 20.6588 153.419 21.2038 154.231C21.3872 154.504 21.1814 154.728 21.8483 154.588ZM61.9589 154.871L47.2456 151.798C47.8875 155.905 47.9337 160.1 49.2671 164.081C49.9867 163.757 50.0877 162.618 50.4126 162.036C50.5553 161.78 51.0566 161.921 50.9941 161.713C50.7266 160.821 49.1776 160.281 49.5544 159.057L50.9951 159.333C50.299 158.092 48.646 157.284 48.9783 155.706L50.1294 156.261L49.5539 155.148C50.2074 155.168 50.5595 155.693 51.1989 155.927C53.5006 156.769 57.3263 158.1 59.6417 158.661C61.1109 159.017 60.5568 158.325 62.1485 159.302C62.2884 159.388 64.0637 160.016 62.9081 160.178C62.6087 160.22 62.1648 159.982 62.2504 160.449C63.1176 160.632 63.7828 161.445 64.2678 162.125C62.7949 161.98 61.478 160.631 59.9413 161.149L62.3938 163.802C63.0079 163.353 61.8822 161.922 61.9597 161.851C63.4099 161.881 62.9357 163.287 63.2493 164.091C63.7998 165.503 63.7654 165.617 64.1074 166.886C64.3568 167.811 64.8746 168.732 65.1293 169.533C65.5777 170.941 63.6373 168.632 63.5142 168.581C62.5043 168.166 62.6641 169.2 63.415 169.794C63.8355 170.127 66.2954 171.179 65.4205 172.178C65.0874 172.559 62.6024 169.542 61.6725 170.084C63.1022 172.006 66.6542 172.407 66.4333 175.25L65.1342 174.695L65.4217 175.528C64.6473 175.367 64.2256 174.775 63.4037 175.39C64.9805 176.438 67.3051 176.9 69.1598 176.355C68.6501 172.805 66.9638 169.339 66.3667 165.821C66.1039 164.272 65.7088 161.504 65.7508 160.02C65.7976 158.369 68.4466 158.747 68.0205 156.821C69.2307 156.602 67.7525 157.901 68.885 158.363C70.0207 158.826 69.8555 155.664 68.5277 155.074C67.954 154.819 64.8794 154.564 64.5589 154.871C64.4405 154.984 64.6594 155.881 64.5581 155.987C64.2812 156.276 61.1918 155.651 60.5183 155.703L61.9589 154.871ZM44.0674 162.964L41.7853 154.426L40.8964 153.754L42.6209 160.04L44.0674 162.964ZM104.664 156.543C102.761 156.27 100.855 156.997 99.033 157.098C93.6851 157.395 87.0847 157.385 81.7272 157.099C78.0397 156.902 74.2879 156.141 70.6129 155.848C71.51 157.265 72.3496 158.563 72.8303 160.181C80.0015 160.99 87.1982 161.495 94.4313 161.277C95.5098 161.956 98.8084 160.549 97.2523 162.076C94.1444 165.126 90.8729 166.463 87.3511 168.826C89.7048 168.302 91.7361 166.942 93.556 165.48C94.0265 165.76 93.4582 166.096 93.2678 166.318C92.2835 167.463 90.9086 167.981 89.9478 169.106C91.2685 169.403 92.4255 167.575 93.2627 167.428C94.235 167.258 93.3417 168.228 93.1218 168.547C95.751 167.754 97.5069 164.636 100.335 163.806L95.7195 168.412C95.6262 168.652 96.9909 168.291 95.6999 169.23C94.3106 170.241 92.2337 170.624 90.5263 170.507L92.7558 171.555C94.1825 171.823 95.062 171.471 96.3075 170.935C96.8562 170.699 99.6075 168.699 99.758 168.832C99.4704 169.58 98.9041 170.116 98.318 170.647C97.7462 171.164 95.5435 172.337 95.4322 172.464C95.3856 172.517 95.3287 173.025 95.5771 173.02C96.1589 173.008 96.3286 172.425 96.7322 172.182C97.4709 171.738 96.5623 173.171 97.3016 172.736C97.8076 172.438 99.3397 170.099 99.7566 170.506C98.7622 173.143 96.8217 174.651 94.9667 176.618C94.2662 177.051 93.1177 176.864 92.5459 177.626C93.672 179.493 98.3696 177.278 98.6023 177.486C99.3274 178.137 96.802 178.538 96.8744 178.878C97.4562 178.856 98.1823 179.264 98.7258 179.183C98.8525 179.164 99.4712 177.385 100.192 177.207L99.7598 178.88C100.095 178.818 101.132 178.695 101.213 178.421C101.443 177.644 101.36 176.037 101.523 175.145C102.388 170.423 102.224 164.555 103.294 160.384C103.675 158.895 104.881 158.09 104.664 156.543ZM72.924 160.732V165.06C72.924 165.227 73.3262 165.689 73.2158 166.035L73.7868 165.201C74.0951 166.583 73.8198 167.503 73.5039 168.828L74.0753 168.272C74.0749 168.947 74.0275 169.622 74.152 170.294C74.3731 171.487 75.2034 174.806 75.6627 175.812C76.0438 176.647 77.3393 178.068 78.4091 177.622C78.2338 176.837 76.9432 175.993 76.7386 175.329C76.3157 173.958 76.3205 171.815 76.0295 170.431C75.845 169.553 75.012 168.378 74.9383 167.854C74.8251 167.051 75.6271 167.62 75.8002 167.426C76.3859 166.771 74.3743 163.307 73.2146 163.102C73.0216 162.362 73.9415 162.825 74.0724 162.681C74.4745 162.237 73.5634 160.865 72.924 160.732ZM80.1396 163.248C85.8316 162.055 83.4314 161.189 79.2699 161.851L79.5469 162.386C79.4463 162.515 77.2748 162.879 77.8314 163.518C77.8888 163.584 79.3066 164.337 79.3955 164.342C79.5029 164.348 80.6663 164.125 80.7149 164.08C81.3265 163.512 79.9681 163.621 80.1396 163.248ZM88.5051 164.082C87.4963 165.704 85.5089 166.002 84.1828 167.293C84.458 167.599 84.8448 167.862 85.258 167.942C87.604 168.396 94.2789 163.601 96.007 161.851L83.8899 161.571C83.4353 161.912 85.2094 162.908 85.4804 162.96C87.0944 163.272 88.8839 162.474 90.5248 162.689C90.1221 163.427 89.1229 163.726 88.5051 164.082C88.7158 163.743 89.0415 163.336 88.3576 163.519C87.7475 163.683 84.4949 165.124 84.0343 165.48C83.769 165.685 83.409 165.994 83.3114 166.313C85.1646 166.229 86.9183 164.997 88.5051 164.082ZM41.182 167.711L39.4566 162.129C39.5355 163.325 39.8579 164.85 40.231 165.982C40.3837 166.446 40.6998 167.51 41.182 167.711ZM85.3297 163.525C84.8195 163.47 82.3686 163.595 82.157 163.806C81.5949 164.367 83.131 164.265 82.7321 164.915L81.2931 165.755C82.4186 165.502 83.7662 164.785 84.7614 164.218C85.1346 164.006 85.4885 164.268 85.3297 163.525ZM63.3993 167.991C63.782 167.283 61.8688 165.586 61.3839 166.038C60.9993 166.397 62.7183 168.109 63.3993 167.991ZM83.8865 168.833C83.3654 168.374 81.9232 167.91 81.3157 167.549C80.4171 167.016 79.7538 165.783 78.4076 166.038C77.7911 166.546 82.4012 169.761 83.1281 169.68C83.1856 169.674 83.9322 168.873 83.8865 168.833ZM56.2808 173.21C55.8832 172.787 55.5567 171.815 55.0275 171.21C53.6664 169.654 51.9773 167.978 50.421 166.595C50.809 169.682 53.4437 171.523 55.6023 173.457C55.8903 173.715 55.8068 174.178 56.0983 174.431C56.6915 174.946 59.3948 175.42 60.2269 175.113C59.1686 174.326 58.1218 172.408 56.7678 172.597L57.6314 173.852C57.443 174.015 56.4429 173.382 56.2808 173.21ZM78.1118 167.715C76.9422 167.378 77.9361 169.361 78.1911 169.593C78.5692 169.938 79.3461 169.954 79.8489 169.943L78.1118 167.715ZM88.7861 170.794C88.6751 170.644 85.3359 169.731 85.133 169.712C84.6865 169.67 84.4588 170.119 84.1784 170.366C85.5888 170.776 86.771 172.266 88.0782 172.734C88.6588 172.942 88.3476 172.656 88.41 172.463C88.5077 172.161 88.8785 170.919 88.7861 170.794ZM54.5733 173.755L51.8638 170.785C51.5929 171.944 53.6201 174.13 54.6197 174.399C55.1263 174.536 55.202 174.082 55.0292 173.86C55.0087 173.834 54.6842 173.887 54.5733 173.755ZM95.0376 172.845C94.2444 172.536 93.3549 172.572 92.5468 172.317C91.5884 172.015 90.2218 170.72 89.2203 171.616C89.0065 171.807 88.7241 172.561 88.7697 172.839C88.8014 173.032 91.9723 174.897 92.1766 174.93C92.9545 175.053 93.2764 174.365 93.9872 174.416L93.1231 175.392C94.6739 176.005 95.1732 174.355 96.2901 173.716C95.9583 173.651 95.1091 172.873 95.0376 172.845ZM80.7132 174.133C81.0589 173.848 78.4483 171.299 78.1192 171.623C78.0033 172.491 79.8497 174.845 80.7132 174.133ZM63.6908 174.411C63.5917 173.923 61.2284 172.068 61.0973 172.18C60.0286 173.093 62.3965 175.037 63.6908 174.411ZM89.6591 175.528C88.0152 174.362 86.3606 172.902 84.4657 172.183C85.7394 173.616 87.8108 174.905 89.6591 175.528ZM91.1018 178.041C90.7126 177.317 89.7468 177.507 88.9814 177.164C87.3919 176.45 85.0875 174.073 83.3572 173.113C82.9595 172.893 82.6816 172.635 82.1587 172.741C83.2623 174.431 85.3379 175.093 86.7458 176.256C88.3594 177.588 88.0214 178.983 91.1018 178.041ZM86.196 178.047C85.888 177.73 82.4043 178.203 81.5816 177.766C81.4632 178.543 81.7196 178.288 82.2968 178.323C83.3238 178.385 84.2005 178.506 85.1925 178.599C85.5065 178.628 86.7877 178.657 86.196 178.047ZM124.641 178.941C124.365 179.129 124.188 179.716 124.708 179.91C125.291 180.128 128.562 179.996 128.605 179.302C128.471 177.809 125.357 178.455 124.641 178.941ZM53.25 181.167C53.0663 180.896 49.9535 179.429 49.5525 179.722C50.4808 181.7 51.7666 183.298 53.4491 184.744C53.7329 184.201 53.4864 181.516 53.25 181.167ZM137.555 179.72C135.479 179.751 132.411 179.571 130.555 180.561C130.015 180.849 129.026 182.233 129.479 182.792C129.525 182.849 130.587 182.119 130.581 183.152L125.441 195.914C126.142 195.525 126.96 195.289 127.602 194.797C129.659 193.218 135.732 183.887 137.03 181.303C137.287 180.79 137.655 180.346 137.555 179.72ZM71.1912 186.698C71.0058 185.533 71.3685 184.167 71.3613 183.081C71.3554 182.206 68.9519 182.477 68.1512 182.5C67.3758 182.522 66.6585 182.873 65.8705 182.8L55.9004 181.397C58.3415 184.22 61.7707 184.277 65.3132 184.711C66.1423 184.812 66.7674 184.897 67.6143 185.028C68.0592 185.097 68.5725 184.784 68.7588 184.817C68.9202 184.845 69.9621 187.041 71.1912 186.698ZM126.592 181.676L104.514 184.461C103.912 185.057 105.404 185.212 105.923 185.621C106.274 185.897 106.428 186.222 106.68 186.563C106.711 186.67 104.465 187.343 105.242 188.094C105.914 188.744 106.862 186.784 107.144 186.718C107.392 186.66 109.843 188.134 109.876 188.285C110.058 189.113 107.474 192.934 108.129 194.518C110.544 192.796 112.929 191.394 114.472 188.792L113.608 188.651C113.374 188.488 116.317 186.966 116.78 187.396L113.319 192.281L117.359 189.215C115.753 190.793 114.059 192.85 112.31 194.239C110.528 195.655 107.624 196.467 106.876 198.499C106.747 198.849 106.903 199.253 106.787 199.546C106.6 200.014 105.666 200.478 105.819 201.218C107.95 201.51 108.884 200.896 110.293 199.546L108.993 199.263C108.94 198.997 108.994 198.906 109.127 198.698C109.76 197.707 114.401 195.521 115.337 194.095L115.197 193.682L112.167 194.938C113.533 193.804 115.375 192.985 116.649 191.737C117.926 190.487 119.06 188.518 120.252 187.126C120.869 186.406 124.3 182.409 124.721 182.234C125.879 181.753 124.379 183.431 124.343 183.545C123.056 187.646 120.951 191.555 119.21 195.611L117.36 197.588C117.363 196.407 119.089 195.625 118.082 194.519C116.716 196.396 114.909 197.81 113.61 199.685C114.935 199.999 115.502 197.333 116.492 197.728L115.628 199.262C116.639 200.02 119.623 196.189 120.105 195.36C122.536 191.174 123.835 185.733 126.592 181.676ZM101.778 184.468L76.9636 183.91C77.7093 184.476 77.6493 186.177 78.1167 186.561C78.3258 186.733 81.5901 187.592 82.1409 187.693C84.1956 188.068 86.7764 188.625 88.6668 188.916C90.6037 189.215 93.9899 188.81 95.8088 189.219C95.9594 189.253 96.2206 190.176 97.1598 189.77L96.5852 189.074C97.6882 187.849 98.4969 188.654 99.7578 188.936C99.5564 190.11 96.9443 191.184 97.2044 192.076C97.3335 192.519 98.0257 192.618 97.4551 192.987C95.4746 193.307 93.8173 194.904 91.9689 195.776L95.1166 194.633L96.1526 193.681L97.0092 194.514L98.6024 193.123C98.7812 194.059 96.8672 196.1 96.1661 196.487C95.3688 196.926 94.3407 196.64 93.7045 197.45C95.4034 198.853 96.7157 196.042 98.0239 195.356C97.9968 196.754 96.2218 197.532 95.4314 198.568L96.8713 198.565C95.8097 199.796 94.2498 200.444 92.835 201.224C92.7419 202.837 97.0632 202.417 97.6712 201.993C98.5961 201.349 99.7123 194.231 100.001 192.659C100.23 191.411 100.145 189.922 100.351 188.809C100.49 188.057 101.101 187.518 101.198 186.811C101.339 185.791 100.621 185.387 101.778 184.468ZM65.7077 189.492C65.5147 188.459 64.7234 187.332 63.6937 186.979C63.3257 187.4 65.1836 189.299 65.7077 189.492ZM72.0555 190.888C71.6008 188.798 72.4074 187.36 69.4627 187.818C68.9471 188.305 71.6062 190.453 72.0555 190.888ZM81.2915 190.606C81.2394 190.028 78.5769 188.471 78.4078 188.655C78.308 189.392 79.4329 192.315 80.0023 192.555C81.8066 193.313 79.2875 190.308 79.5619 190.052L81.2915 190.606ZM59.3599 193.401C58.9147 191.892 57.9131 190.321 56.7687 189.213C57.2767 190.681 58.0656 192.431 59.3599 193.401ZM93.7015 190.052C90.6672 190.174 87.7746 189.033 84.7555 189.215L88.1412 190.263C90.7363 190.005 93.1547 191.469 95.7171 191.029C95.0174 190.229 94.3424 190.326 93.4081 190.607L93.7015 190.052ZM66.5748 193.958C67.0139 193.571 64.3679 190.786 63.9795 191.17C64.1873 191.792 65.4667 194.935 66.5748 193.958ZM87.0624 195.632C85.8893 193.662 83.8036 192.377 81.8716 191.167C81.3185 191.842 85.0589 194.955 85.8124 195.309C86.2242 195.501 86.5708 195.724 87.0624 195.632ZM93.266 192.005C91.8538 191.858 90.2325 192.111 88.7936 192.005C88.6364 192.815 89.0355 192.45 89.428 192.635C91.9726 193.834 91.9023 193.787 94.5622 192.56C94.6469 192.275 93.3831 192.017 93.266 192.005ZM73.7881 195.354C74.0619 195.056 73.321 193.243 72.9141 192.977C72.7788 192.888 70.25 192.564 69.7515 192.286L70.626 193.81L73.7881 195.354ZM124.778 196.417L125.724 193.401C125.067 194.056 123.972 195.813 123.711 196.618C123.665 196.76 123.632 197.073 123.85 197.029C124.019 196.707 124.641 196.589 124.778 196.417ZM73.9988 198.656C75.2621 197.098 71.5422 198.232 71.1979 198.022C70.9368 197.863 70.6972 197.183 70.342 196.877C69.8615 196.464 67.3951 194.338 66.8661 194.799C67.3186 196.308 69.2609 196.971 70.4652 197.875C71.0881 198.342 71.5933 199.046 72.2068 199.542C72.7858 199.735 72.5891 198.938 72.774 198.982L74.9437 200.658C74.5928 199.84 74.3588 199.253 73.5019 198.845C73.4512 198.588 73.9061 198.77 73.9988 198.656ZM87.0602 201.783C87.0283 201.747 86.5712 201.712 86.3478 201.506C84.2978 199.612 82.5835 197.412 80.7174 195.356C80.9427 196.089 81.4756 198.33 81.8461 198.801C82.0448 199.054 83.8961 199.729 84.1756 200.523L82.4473 199.824C82.4762 201.113 83.2538 201.65 84.4047 201.974C84.8229 202.092 87.9129 202.746 87.0602 201.783ZM112.078 200.295L115.913 195.356L109.858 200.523C110.315 200.821 111.677 200.571 112.078 200.295ZM65.132 198.426C65.5866 198.004 62.52 195.675 62.2482 195.917C62.2847 196.577 64.668 198.856 65.132 198.426ZM89.5789 198.225C89.5134 198.123 87.9005 197.091 87.7803 197.102C86.0139 197.27 88.5839 199.236 89.5208 199.54C90.2159 199.765 89.6524 198.34 89.5789 198.225ZM69.7501 199.82C69.1499 198.708 68.3648 198.471 67.1537 198.429C67.6862 199.254 68.716 199.938 69.7501 199.82ZM91.1018 202.333L86.7768 199.544C86.644 201.257 88.7762 200.67 87.9293 202.335L91.1018 202.333ZM63.1123 203.452C64.2273 202.508 58.2775 201.251 57.7879 201.207C55.8991 201.039 54.0194 201.411 52.1507 201.501L54.4575 201.78C53.6817 203.132 51.4936 202.647 50.1302 203.177C51.0848 204.398 53.2939 203.475 54.59 203.441C57.4251 203.367 60.279 203.521 63.1123 203.452ZM131.207 201.221C131.064 201.115 127.908 201.037 127.748 201.775C128.716 201.697 129.84 201.894 130.781 201.778C131.202 201.726 131.676 201.566 131.207 201.221ZM121.974 202.617C120.554 202.214 119.806 203.24 118.749 203.541C115.715 204.405 113.024 204.02 110.436 204.709C109.163 205.047 107.935 205.509 106.515 205.665C105.712 205.753 104.89 205.66 104.088 205.684L106.682 204.708C104.981 204.552 103.375 205.273 101.78 205.69C101.664 206.196 102.267 205.866 102.355 205.969C102.752 206.43 100.934 206.443 100.769 206.499C91.8629 209.507 80.7772 207.316 71.7681 205.27C70.4288 204.966 69.1438 203.925 67.7318 204.429C69.036 205.561 71.2794 206.12 72.992 206.598C85.9587 210.223 101.51 208.923 114.476 205.829C116.287 205.397 118.46 204.792 120.151 204.061C120.376 203.964 122.527 203.066 121.974 202.617ZM93.9873 204.849H86.1968C86.2305 205.248 87.4879 205.34 87.8195 205.373C89.5195 205.546 91.868 205.6 93.56 205.408C93.9929 205.359 94.4451 205.184 93.9873 204.849Z" fill="black"/>
<path d="M369.974 112.425C371.049 112.278 372.133 111.286 373.291 111.447C371.766 112.502 369.956 113.259 368.1 113.545C368.059 114.086 368.997 113.784 369.316 113.744C373.712 113.191 378.979 111.194 382.96 109.356C383.417 109.974 381.888 110.602 381.376 110.895C376.042 113.949 369.088 115.405 363.193 117.175L364.059 117.733L363.195 118.565L382.1 112.706C382.82 112.707 382.827 112.717 382.166 113.05C380.272 114.004 378.222 114.707 376.467 115.917C377.696 116.11 378.926 115.527 380.07 115.215C380.446 115.338 379.735 115.819 379.62 115.897C378.103 116.924 375.8 117.053 374.446 118.286L383.829 116.339C384.07 116.3 383.995 116.854 383.966 116.888C383.801 117.077 380.387 118.354 379.789 118.573C374.197 120.623 361.802 124.512 356.127 124.147C349.919 123.747 347.125 118.338 342.78 115.009C338.439 114.947 333.545 116.107 329.626 113.775C327.755 112.663 324.158 108.711 323.728 106.639C323.206 104.118 324.311 101.539 320.199 101.656C314.334 104.557 307.937 107.113 301.298 107.675C292.419 108.427 278.875 109.157 270.848 105.318C268.75 104.314 267.074 102.319 264.65 102.354C262.98 102.378 261.25 102.989 259.608 103.214C262.104 105.13 265.52 108.833 263.706 112.063C263.31 112.77 262.238 113.412 262.056 113.831C261.771 114.487 262.622 115.061 260.967 115.835C258.533 116.972 254.718 115.961 252.24 115.227C250.771 114.792 244.926 112.12 244.157 112.16C243.572 112.191 242.156 113.93 241.296 114.389C236.081 117.174 229.656 114.674 225.549 111.18C224.773 110.52 224.598 109.671 223.456 109.017C221.691 108.006 218.418 107.535 216.332 106.696C213.162 105.422 206.338 101.421 206.202 97.7683C206.126 95.7017 207.295 94.9469 207.944 93.3343C204.836 90.7617 198.922 86.2915 199.315 81.8842C199.725 77.2821 207.178 71.5071 210.557 68.5898C207.483 68.3835 204.412 69.5656 201.439 69.9552C195.706 70.7065 189.247 71.6733 183.575 72.2138C177.307 72.8112 163.464 72.079 160.114 65.8847C154.573 55.6381 171.118 54.523 177.377 52.813C182.463 51.4234 186.161 49.7317 191.705 48.8082C197.973 47.764 204.21 46.4423 210.446 45.4442C211.269 45.3125 212.127 45.5277 212.947 45.3517C213.523 45.2282 215.572 43.259 217.114 42.682C229.303 38.122 242.536 43.3977 254.835 44.0266C261.574 44.3713 267.257 44.0609 274.095 45.2136C280.195 46.2419 285.94 48.7651 291.914 50.3077C300.383 52.4943 309.072 54.1367 317.735 55.4538C319.754 54.4413 320.579 52.7745 322.887 51.7798C325.113 50.8204 329.637 50.5829 331.152 49.7265C332.424 49.0081 332.581 46.2396 335.212 45.2784C338.734 43.9918 346.504 42.5489 350.438 41.863C358.197 40.5102 370.196 40.3975 378.065 41.2116C378.496 41.2562 378.955 41.2745 379.063 41.7786C370.228 41.8768 361.584 44.0196 352.909 45.3715C349.177 45.953 339.082 46.3892 336.379 48.3619C336.148 48.53 335.823 48.7495 335.782 49.0384C337.009 49.3041 338.326 49.2057 339.549 49.4447C349.221 51.3349 357.938 68.8047 360.891 77.0979C361.396 78.5172 362.513 83.3849 363.065 84.2077C363.714 85.1726 367.474 87.4991 368.68 88.5476C370.47 90.1043 372.701 92.2589 374.306 93.9926C375.549 95.3353 379.202 99.6011 379.636 101.122C379.786 101.65 379.448 101.643 379.058 101.401C378.454 101.023 376.906 99.3666 376.318 98.7472C372.397 94.6153 368.677 89.4748 364.204 85.8984C363.879 85.6385 363.737 85.2205 363.194 85.3423C363.455 86.4883 363.488 87.4754 364.05 88.5598C366.417 93.1231 374.928 100.735 375.607 105.577C375.688 106.15 375.552 106.81 375.598 107.399C375.317 107.771 372.237 101.701 371.971 101.279C370.033 98.2019 366.87 93.6373 364.586 90.8339C364.364 90.561 364.154 90.1597 363.773 90.0875C364.137 91.5345 364.071 93.0483 364.575 94.4738C365.659 97.5327 371.486 105.191 371.575 107.828C371.65 110.079 369.98 108.58 369.294 107.499C368.484 106.221 368.299 104.318 367.661 102.936L365.216 98.1862C365.75 103.045 367.537 107.562 365.79 112.425C367.105 112.299 368.703 112.6 369.974 112.425ZM360.018 43.1803L355.299 43.4963L351.076 44.2915L356.376 43.9792L360.018 43.1803ZM280.093 49.882C277.913 49.4384 275.875 48.5786 273.694 48.1149C267.343 46.7647 260.945 47.4643 254.561 47.084C245.287 46.5314 233.279 42.8924 224.266 44.0185C223.031 44.1728 221.842 44.5227 220.656 44.8562C220.264 45.376 222.786 46.6175 221.332 47.0546C219.82 47.5091 218.845 45.9193 217.943 45.9648C216.437 46.0407 215.441 47.9516 214.676 48.1596C213.981 48.3483 213.302 47.9233 212.514 47.9784C210.506 48.1187 207.578 49.3646 205.422 49.7968C198.227 51.2399 190.598 51.5907 183.573 53.7832C183.035 53.9513 179.834 55.0561 179.73 55.2284C179.284 55.9679 180.311 56.9586 178.241 57.8378C174.725 59.3312 170.144 59.5134 166.457 60.3946C165.974 60.5099 162.825 61.493 162.694 61.6379C162.231 62.1507 162.991 65.3769 163.951 65.8016C166.067 66.295 168.049 67.6923 170.006 68.3184C174.516 69.7614 188.397 69.6445 192.302 66.977C192.433 66.8872 193.209 66.5247 192.809 66.3502C190.157 66.5134 187.565 67.7228 184.985 67.9941C184.666 68.0276 183.678 68.2692 183.724 67.7524C187.525 66.8286 191.392 66.5682 194.879 64.7241C195.138 64.5874 197.463 62.8593 197.282 63.4195L194.4 66.7734C196.133 67.3989 196.737 64.9997 197.573 63.9799C198.032 63.4192 200.227 61.189 199.755 63.014C199.455 64.1746 197.993 65.3031 197.713 66.0788C197.586 66.4332 197.825 66.436 198.01 66.6321C205.351 65.862 212.612 64.4723 219.793 62.8659C221.237 62.543 225.191 61.0886 226.248 61.3567C227.913 61.7795 223.968 62.5184 224.119 62.8614C224.484 63.4473 225.212 63.1388 225.635 63.2987C225.893 63.3961 225.838 63.7818 226.051 63.8316C227.485 64.1672 229.534 63.9603 231.041 64.3973C231.305 63.7991 230.235 62.7077 231.192 62.7141C232.27 62.7212 232.722 63.5927 233.555 63.7822C235.262 64.1702 237.505 64.0457 239.263 64.1219C240.775 64.1875 242.097 64.4671 243.737 64.1223C243.806 64.5148 243.226 64.53 242.937 64.5977C242.183 64.7745 240.194 65.2288 239.543 65.245C238.176 65.2791 235.615 64.7412 233.783 64.6787C233.448 64.6672 232.563 64.3158 232.488 64.3995C232.347 64.5561 232.458 65.1347 232.781 65.3691C234.24 66.4285 241.84 65.8393 243.815 65.4498C244.767 65.2621 245.567 64.5689 246.612 64.6664C246.585 64.0543 246.473 61.6195 247.345 61.612C247.659 61.6092 249.06 66.4667 249.546 67.2951C250.893 69.5909 255.538 71.7362 258.165 72.2141C256.147 69.7662 253.217 66.8488 253.115 63.5623C253.771 64.4205 254.276 65.3917 255 66.2053C256.809 68.2376 259.049 69.107 261.058 70.9537C261.822 71.6569 263.018 73.8789 264.363 73.6136C264.936 73.5008 264.673 73.2267 264.519 72.9147C263.204 70.2396 262.269 67.854 262.205 64.8118C262.182 63.7238 262.48 62.9684 262.519 62.0253C262.527 61.8313 261.844 58.7681 263.067 59.6527C263.229 59.7699 263.628 62.215 263.799 62.7166C264.746 65.5032 266.292 68.4455 267.544 71.0987L268.699 68.3091L268.984 70.8195C269.254 70.4549 272.071 66.653 272.591 67.1923C271.939 69.2322 270.59 70.9989 269.418 72.7725C271.225 72.2286 273.763 71.8908 275.453 71.2155C278.022 70.1884 280.207 67.4978 283.121 66.9091C282.946 68.2305 281.3 68.8709 280.671 69.9803L283.994 68.8699L284.132 69.4192C282.441 70.4627 280.652 71.3617 278.934 72.3611C278.569 72.5733 278.203 72.3057 278.365 73.0531C280.913 72.9062 283.477 72.4138 286.014 72.2194C286.332 72.1951 287.091 72.015 287.017 72.493C280.49 73.0501 274.412 75.5555 268.084 76.9291C263.492 77.9258 258.798 78.431 254.125 78.9195L255.279 79.7531C249.576 79.6585 243.971 80.9814 238.611 82.7517C237.203 83.2168 232.902 84.5751 231.905 85.1978C231.767 85.284 231.531 85.5542 231.62 85.6169C232.911 85.4859 234.187 85.4425 235.48 85.6584C235.727 85.6996 237.406 85.8961 236.814 86.4546C236.356 86.8866 232.141 86.6409 231.025 86.8593C229.285 87.2 225.83 88.7539 225.343 90.5735C224.831 92.491 226.092 96.1406 227.465 97.5985C231.306 101.679 243.971 102.224 249.36 101.81C254.097 101.447 259.326 99.5351 263.452 97.2979C264.235 96.8738 264.92 96.3104 265.525 95.6732C265.629 96.8058 263.782 97.5843 262.975 98.2317C262.719 98.4369 262.044 98.7841 262.919 98.738C264.751 97.8098 266.75 97.3779 268.71 96.8014C269.235 96.6469 269.623 96.1718 270.203 96.0119C270.6 95.9024 272.942 95.6112 273.307 95.6583C274.314 95.7884 273.693 96.4762 273.747 96.5072C273.937 96.6172 277.59 96.5326 278.184 96.4756C282.617 96.0501 286.976 94.1657 291.059 92.6031C288.846 94.5628 286.009 97.2075 283.135 98.1954C282.841 98.2965 278.485 99.0747 280.277 99.5416C282.268 100.06 289.144 97.7408 291.253 96.8372L299.715 92.0446C297.932 93.5538 296.036 95.8842 294.032 97.0138C292.269 98.0079 289.71 98.7753 287.726 99.2989C287.261 99.4216 286.874 99.0013 287.021 99.8587C290.765 100.064 294.287 99.3669 297.767 98.1143C299.328 97.5522 300.785 96.6698 302.312 96.2331L301.873 96.7826L298.274 99.0196C299.79 98.8738 301.477 98.3088 302.884 97.7616C304.366 97.1855 306.392 95.7807 307.655 95.3967C307.803 95.3518 308.126 95.3202 308.081 95.5308C305.3 97.9794 301.805 99.5556 298.165 100.454C294.321 101.404 291.069 101.393 287.161 101.536C286.812 101.548 286.087 101.326 286.156 101.811C296.915 103.817 307.504 105.089 317.116 98.9691C318.774 97.9135 321.897 95.6494 323.348 94.3892C324.812 93.1174 325.912 90.9329 327.272 89.5303C327.967 90.9658 323.91 95.4387 324.532 96.2302C325.935 95.3066 327.606 94.746 328.717 93.4403L329.148 94.8367L329.719 94.9683L328.28 96.786C331.298 95.8695 332.4 91.2532 332.605 88.548C332.829 85.5788 332.322 82.9134 331.746 80.0366C332.374 80.4905 332.676 81.694 332.901 82.4042C333.667 84.8145 333.96 87.1319 333.758 89.664C333.591 91.7459 332.632 93.8135 332.9 95.951C335.808 94.9277 336.435 92.4313 336.658 89.6784C337 85.4587 336.361 81.2071 334.918 77.2448C335.402 76.6775 335.988 78.5554 336.078 78.7731C337.298 81.7363 338.328 85.6421 338.086 88.8263C337.954 90.5636 337.138 92.2454 337.227 93.9983L337.8 93.7154C338.093 95.0651 337.456 95.6 336.88 96.5942C336.756 96.8062 336.308 97.504 336.938 97.2107C337.622 96.3659 338.191 95.4381 338.827 94.5627C339.14 94.131 339.6 94.1896 339.872 93.6047C341.373 90.3738 339.921 80.4332 339.05 76.7333C338.074 72.5893 336.192 68.0944 333.709 64.5898C333.019 63.6151 329.544 59.4093 328.655 59.1519C327.604 58.8476 324.201 59.4401 322.642 59.3842C320.554 59.3094 318.297 58.6559 316.163 58.8169L320.206 60.6246C321.48 61.1718 323.081 61.3974 324.321 61.947C324.668 62.1008 325.236 62.4572 324.39 62.4423C319.697 61.9036 315.678 59.6535 311.255 58.3966C305.377 56.7263 298.984 55.8705 293.016 54.2671C289.924 53.4361 285.875 51.6305 282.991 51.1217C281.696 50.8932 279.613 51.0973 278.222 50.9929C276.36 50.8532 274.445 50.6758 272.594 50.4342C272.596 49.9636 273.554 49.9032 273.889 49.8772C274.946 49.7954 276.274 49.8382 277.35 49.8817C278.058 49.9103 279.603 50.6168 280.093 49.882ZM352.226 68.027C350.574 63.3167 345.673 57.2906 341.168 54.8585C338.277 53.2974 333.103 52.7089 329.949 53.5877C328.814 53.9039 326.936 54.5627 328.372 55.5141C330.862 57.1638 332.324 57.4806 334.487 59.9277C341.797 68.1954 345.253 83.2 344.146 93.8535C343.701 98.138 342.542 104.75 339.4 107.969C337.065 110.361 336.935 109.075 334.899 108.116C334.295 107.831 333.54 108.018 332.977 107.597C332.385 107.153 331.675 105.613 331.166 105.025C330.176 103.881 328.945 102.866 327.993 101.674L329.721 101.259C328.106 100.633 326.969 101.684 325.394 101.817C327.177 105.915 332.25 111.753 337.39 111.052C338.116 110.953 337.206 110.708 339.1 110.75C342.557 110.828 351.173 109.219 354.457 108.02C354.761 107.909 355.76 107.23 355.984 106.985C357.381 105.455 359.551 98.5137 359.741 96.38C360.156 91.7405 358.651 84.7174 356.977 80.3263C356.77 79.7823 356.564 78.8888 355.983 78.6392C359.095 87.4301 359.724 98.5574 353.674 106.282C359.914 91.6178 356.11 73.866 345.741 61.8816C345.175 61.2272 343.707 60.3889 344.004 59.6532L346.61 61.5993L352.226 68.027ZM177.873 55.536C177.626 55.3373 176.793 55.223 176.436 55.2508C173.952 55.4442 166.641 57.5216 164.582 58.8601C164.076 59.1892 163.527 59.6841 163.236 60.2074L177.374 56.9993C178.193 56.8873 178.488 56.0296 177.873 55.536ZM237.101 77.7999C237.542 77.4247 235.459 76.1072 235.173 75.8985C233.266 74.5022 231.254 73.7831 229.335 72.6134C226.098 70.6415 223.098 67.3456 218.924 67.7521C220.706 69.0331 222.773 69.8697 224.671 70.984C227.376 72.5723 230.141 74.6923 232.863 76.1801C233.492 76.5241 236.667 78.1686 237.101 77.7999ZM236.236 75.0064C235.972 74.3184 235.492 73.8154 234.932 73.3399C234.289 72.7947 229.296 69.4874 228.724 69.2957C228.075 69.0784 227.391 69.2489 226.925 69.0817C225.708 68.6449 224.623 67.7491 223.254 67.752L227.089 69.7603C228.258 70.217 235.824 75.3408 236.236 75.0064ZM253.547 74.175C251.555 73.3785 249.464 71.7319 248.074 70.1159C247.652 69.6264 246.851 68.0105 246.625 67.8711C246.305 67.6732 242.578 68.4456 242.59 68.7267C243.731 69.2066 244.737 70.5579 245.614 71.1052C246.508 71.6626 248.228 72.1168 249.197 72.6592C249.865 73.0338 250.206 73.7862 251.125 74.1438C251.664 74.3537 253.197 74.8548 253.547 74.175ZM217.483 68.0307L213.732 68.03C213.514 69.1532 215.805 68.3764 216.037 69.1426C213.917 68.7831 214.429 69.6152 213.601 70.5557C211.6 72.8291 208.351 74.5549 206.235 77.1094C201.25 83.1264 203.876 85.6403 208.977 89.8012C213.221 93.263 217.094 94.8922 221.329 97.6724C221.717 97.9268 223.221 99.6124 223.541 99.299C221.076 95.4259 220.498 90.7009 222.624 86.5473L224.983 82.8314C222.67 82.2618 220.338 80.7586 217.921 80.876C216.639 80.9383 214.99 81.7478 213.806 81.2202C212.704 80.7292 213.047 80.0664 214.113 80.124C214.919 80.1674 216.324 81.1052 216.903 80.0383L214.071 79.5664L212.001 78.6419C215.13 78.3722 218.156 79.031 221.231 79.3385C218.733 77.847 215.78 77.3653 213.081 76.3325C212.776 76.2155 212.222 76.2512 212.289 75.8497C214.367 76.0641 216.577 76.5456 218.567 77.17C220.589 77.8043 225.397 80.4198 227.079 79.9693C227.677 79.809 228.379 79.0052 229.31 79.0593C228.696 78.3586 227.826 78.0397 226.998 77.6665C222.936 75.8346 218.607 74.5867 214.416 73.0894C214.05 72.9588 213.532 73.0226 213.443 72.4995C213.885 72.4504 214.291 72.2328 214.744 72.209C216.531 72.115 223.353 74.9621 225.467 75.7977C226.525 76.2161 230.672 78.3681 231.362 78.2224C231.688 78.1535 231.974 77.901 232.191 77.6618L220.745 69.4781C219.687 68.8558 218.427 68.5625 217.191 68.5848L217.483 68.0307ZM236.812 70.2608C237.726 69.5159 233.312 68.2373 232.775 68.5899L235.384 70.11L236.812 70.2608ZM241.43 77.5273C239.509 76.8344 238.545 74.6729 237.25 73.3305C235.647 71.6691 233.495 69.1239 231.043 69.1482C231.782 70.0423 232.971 70.2391 233.935 70.9536C235.072 71.796 236.775 73.6505 237.827 74.7267C238.623 75.541 239.77 77.494 240.853 77.9489C241.183 78.0875 241.374 77.7969 241.43 77.5273ZM247.201 76.9615C245.229 74.7982 242.978 71.5247 240.577 69.8315C239.449 69.036 237.916 68.8107 239.434 70.0996C241.566 71.909 244.189 73.0272 245.599 75.8661C245.786 76.243 245.712 76.8987 245.76 76.9681C245.8 77.026 246.789 76.6256 247.201 76.9615ZM235.059 112.401C236.26 109.178 233.296 105.937 230.731 104.211C226.339 101.254 220.804 100.47 215.839 98.5178C214.714 98.0755 210.369 95.1459 209.547 96.7899C208.756 98.3706 210.971 100.971 212.285 101.815L211.565 99.8615C213.098 101.894 214.076 103.384 216.351 104.724C217.816 105.587 220.088 106.689 221.808 106.703C219.322 104.516 216.29 102.97 214.021 100.557C213.975 100.35 214.323 100.366 214.448 100.421C214.901 100.619 216.556 102.118 217.393 102.598C219.414 103.756 221.677 104.488 223.636 105.772C227.17 108.087 230.443 112.18 235.059 112.401ZM325.683 97.3499L321.934 99.0198C323.258 98.8578 324.939 98.5548 325.683 97.3499ZM332.344 104.913C332.548 109.007 337.923 105.407 338.376 103.211C337.784 103.448 337.666 104.346 336.952 104.49C336.623 104.557 336.372 104.114 335.994 104.126C335.378 104.146 332.613 104.544 332.344 104.913ZM241.427 108.516C240.281 108.045 240.155 106.047 239.115 105.591C238.264 105.218 236.49 105.273 235.424 104.975C234.192 104.63 233.176 103.737 231.909 103.493C233.873 105.276 237.111 107.679 236.829 110.612C236.753 111.407 236.178 111.912 236.239 112.704C237.333 112.453 238.296 112.46 239.325 111.924C241.468 110.808 243.42 107.056 240.276 106.006C240.747 106.817 241.627 107.454 241.427 108.516ZM288.172 105.727L277.21 103.493L278.361 104.052L277.788 104.604C280.604 105.225 283.402 105.811 286.3 106C286.695 106.026 288.084 106.239 288.172 105.727ZM256.434 112.703C260.339 113.078 262.516 110.334 259.166 107.408C258.354 106.699 253.906 103.783 253.261 105.306C253.184 105.489 254.405 105.577 254.123 106.282C253.887 106.496 250.442 104.504 250.086 105.721C250.574 105.684 250.994 105.772 251.448 105.942C253.014 106.531 254.952 107.009 256.347 107.624C257.096 107.954 259.804 109.368 259.177 110.19L250.45 106.628C249.483 106.319 248.539 105.887 247.489 106.002C247.542 106.645 247.263 107.627 247.769 108.107C247.966 108.294 252.098 109.779 252.878 110.142C253.885 110.611 254.972 111.06 255.856 111.729C253.668 111.908 251.729 110.295 249.823 109.469C249.341 109.26 248.9 109.224 249.513 109.769C251.333 110.42 254.011 112.573 255.959 112.15C256.263 112.084 255.947 111.321 256.722 111.59L256.434 112.703ZM348.474 114.101C347.951 113.523 347.789 114.328 348.238 115.031C348.876 116.031 353.319 119.995 354.385 120.53C354.847 120.762 355.135 120.907 355.69 120.799L349.917 116.198C349.02 115.946 348.596 114.235 348.474 114.101Z" fill="black"/>
<path d="M282.4 42.3461C282.467 42.8646 281.813 42.5666 281.522 42.4985C280.211 42.1923 278.901 41.6244 277.507 41.3557C265.297 39.0032 252.741 40.7127 240.423 40.1059L237.104 39.5532C252.116 39.2576 268.308 35.812 282.4 42.3461Z" fill="black"/>
<path d="M289.616 37.872C284.103 36.5271 278.453 34.8865 272.734 34.527C267.038 34.1689 261.255 34.8616 255.57 34.6651C255.926 34.2174 256.503 34.2322 257.008 34.1023C265.845 31.8285 278.177 32.2158 286.545 35.9602C287.591 36.4284 288.877 36.9865 289.616 37.872Z" fill="black"/>
<path d="M304.041 120.808L301.573 121.905C292.84 124.496 283.858 123.411 275.407 120.455L271.44 118.574C282.139 120.936 293.082 122.829 304.041 120.808Z" fill="black"/>
<path d="M148.235 45.1334C149.294 40.798 151.409 36.5633 153.77 32.7617C154.902 30.9392 157.162 27.4354 158.927 26.3029C159.63 25.8516 160.717 25.8393 160.518 26.717C160.401 27.2374 158.453 30.2172 157.987 30.979C155.54 34.9828 151.955 40.8233 149.048 44.387C148.826 44.6598 148.617 45.0609 148.235 45.1334Z" fill="black"/>
<path d="M380.503 87.5746C376.868 84.1515 373.502 80.4915 369.677 77.2518C367.97 75.8059 365.846 74.6259 364.197 73.0612C363.136 72.0548 362.393 70.7831 364.443 71.7061C368.748 73.6438 378.202 81.7068 380.066 85.9062C380.273 86.3742 380.438 87.0592 380.503 87.5746Z" fill="black"/>
<path d="M306.638 113.268C306.242 113.817 304.993 114.054 304.331 114.242C295.815 116.658 285.587 116.917 277.495 113.125C280.359 113.026 283.175 113.862 286.013 114.1C287.556 114.229 289.643 114.354 291.189 114.395C296.365 114.534 301.526 113.923 306.638 113.268Z" fill="black"/>
<path d="M381.08 96.2329L363.771 78.3653C364.26 78.2679 364.535 78.5958 364.895 78.8103C368.404 80.8997 379.833 91.305 380.884 94.8896C381.014 95.3351 381.14 95.7625 381.08 96.2329Z" fill="black"/>
<path d="M380.793 73.6129L357.134 57.9805C361.249 59.5236 365.086 61.8171 368.767 64.1719C371.784 66.1022 375.967 68.8267 378.621 71.1097C378.943 71.3861 381.122 73.2874 380.793 73.6129Z" fill="black"/>
<path d="M174.488 88.6958C174.565 89.0623 173.957 89.1403 173.698 89.181C167.632 90.1356 160.833 87.9894 157.466 82.832C159.451 83.7474 161.394 84.7735 163.448 85.5562C166.514 86.7244 169.878 87.6609 173.045 88.5549C173.533 88.6924 173.986 88.7342 174.488 88.6958Z" fill="black"/>
<path d="M139.765 43.0813C138.297 44.4773 137.32 43.3823 137.571 41.6638C137.749 40.445 139.751 35.9864 140.392 34.6137C140.915 33.4944 141.561 32.0043 142.459 31.1719C142.397 34.1727 142.058 40.9 139.765 43.0813Z" fill="black"/>
<path d="M378.773 77.5212C377.056 77.2636 375.411 75.9844 373.95 75.0714C369.712 72.4244 364.761 69.2663 360.794 66.3024C360.237 65.8862 359.189 65.4268 359.155 64.6797C365.391 67.3503 370.762 71.5718 376.442 75.1723L378.773 77.5212Z" fill="black"/>
<path d="M172.18 38.1562L156.603 49.3223L159.915 44.8514C163.362 41.8406 167.399 38.6848 172.18 38.1562Z" fill="black"/>
<path d="M159.842 198.641C160.275 198.89 161.386 198.393 160.78 199.27C157.949 198.622 155.014 198.681 152.129 198.427C149.916 198.232 147.414 197.66 145.2 197.594C142.68 197.519 140.284 197.971 137.698 197.87C137.347 197.856 136.625 198.081 136.692 197.594C138.413 197.575 140.043 196.894 141.745 196.757C144.521 196.535 157.285 196.821 159.299 197.922C159.654 198.116 159.706 198.563 159.842 198.641Z" fill="black"/>
<path d="M184.298 80.0398C184.237 80.4887 183.253 80.6166 182.857 80.7353C176.752 82.5677 170.459 81.8996 164.96 78.7769C164.781 78.6754 163.885 78.5411 164.394 78.0826C164.559 77.9337 167.962 79.188 168.716 79.3418C173.821 80.384 179.123 80.6495 184.298 80.0398Z" fill="black"/>
<path d="M379.928 67.1902L369.517 59.817C365.742 57.3634 361.385 55.7743 357.711 53.2344C366.1 56.1849 374.086 60.5412 379.928 67.1902Z" fill="black"/>
<path d="M161.218 202.893L164.531 202.317C167.848 202.479 171.253 202.403 174.631 202.335C176.266 202.301 178.564 201.366 179.966 202.756C179.968 203.023 178.917 203.333 178.603 203.386C177.657 203.544 175.635 203.716 174.645 203.745C170.24 203.874 165.633 202.953 161.218 202.893Z" fill="black"/>
<path d="M75.8097 215.462C76.6433 216.227 73.6797 216.033 73.3594 216.015C70.9052 215.88 67.8592 215.25 65.4152 214.768C62.5391 214.2 59.0546 213.727 56.7659 211.832L75.8097 215.462Z" fill="black"/>
<path d="M40.6092 189.494L40.1802 190.052L22.4314 190.886L25.5454 189.855C30.5674 189.436 35.6325 188.25 40.6092 189.494Z" fill="black"/>
<path d="M38.2979 193.965C38.3227 194.376 37.2655 194.456 36.9669 194.487C32.4092 194.967 27.1475 195.405 22.5588 195.094C22.0648 195.06 21.6047 195.122 21.2771 194.659L38.2979 193.965Z" fill="black"/>
<path d="M48.3961 217.138L43.9367 217.698C42.0291 217.246 40.0019 217.533 38.1229 216.886C37.8329 216.786 37.2356 216.692 37.7213 216.299C38.0653 216.02 42.0407 215.961 42.7671 216.022C44.5808 216.176 46.5505 216.935 48.3961 217.138Z" fill="black"/>
<path d="M158.044 190.331C158.522 190.678 158.012 190.84 157.615 190.889C156.437 191.035 154.83 190.875 153.574 190.89C153.026 190.896 152.487 191.183 151.854 191.176C150.337 191.16 148.03 190.468 146.354 190.333C145.846 190.292 142.459 190.458 142.459 190.19C147.668 190.066 152.881 189.401 158.044 190.331Z" fill="black"/>
<path d="M64.7006 223.001L58.4988 221.602L60.0846 221.047L70.3271 223.001H64.7006Z" fill="black"/>
<path d="M78.6951 220.212C79.096 220.58 78.6652 220.739 78.2568 220.778C77.6421 220.836 76.123 220.557 75.4564 220.411C73.1296 219.899 70.05 219.055 67.7312 218.393C67.3411 218.282 66.3485 218.144 66.2891 217.699C70.6411 217.347 74.4498 219.78 78.6951 220.212Z" fill="black"/>
<path d="M32.5273 209.879C32.5527 210.289 31.4914 210.371 31.1958 210.401C28.0016 210.721 24.7521 210.823 21.5657 210.431C21.4949 210.049 22.0798 210.009 22.3599 209.95C25.6739 209.254 29.1254 210.175 32.5273 209.879Z" fill="black"/>
<path d="M53.5897 212.95C53.6583 213.437 52.9358 213.21 52.5862 213.224C50.5708 213.304 48.6212 212.937 46.6685 212.529C48.699 211.448 51.469 212.669 53.5897 212.95Z" fill="black"/>
<path d="M150.829 216.017C149.644 216.083 148.448 215.963 147.306 215.66C146.958 215.567 145.976 215.319 145.926 214.906C147.532 214.869 149.612 214.763 150.829 216.017Z" fill="black"/>
<path d="M376.177 109.911C376.61 108.782 378.865 107.692 379.374 107.003C379.756 106.486 379.391 105.762 379.925 105.727L380.089 107.397L376.177 109.911Z" fill="black"/>
<path d="M169.296 209.875C170.263 210.581 167.124 210.462 166.83 210.446C166.327 210.418 165.109 210.495 164.968 209.875H169.296Z" fill="black"/>
<path d="M376.465 79.1988C375.984 79.6629 374.337 77.9542 374.158 77.5277C374.799 77.1507 377.119 78.5663 376.465 79.1988Z" fill="black"/>
<path d="M152.849 204.293C153.409 203.427 155.142 203.711 156.033 203.87C156.341 203.924 156.963 203.89 156.889 204.293H152.849Z" fill="black"/>
<path d="M112.165 149.283C114.329 147.622 116.537 145.978 118.65 144.253C122.606 141.021 125.904 138.037 128.676 133.571L131.206 129.461C131.233 130.198 130.896 130.861 130.579 131.504C128.322 136.075 124.169 140.985 120.146 144.025C117.727 145.852 115.041 148.39 112.165 149.283Z" fill="black"/>
<path d="M117.936 140.067L118.643 138.94L125.724 132.531C125.398 133.359 124.469 134.382 123.855 135.048C122.954 136.025 121.874 136.862 120.973 137.844L117.936 140.067Z" fill="black"/>
<path d="M88.2118 44.8551C90.2369 40.4885 96.663 45.8921 92.9349 48.4437C88.7504 51.3077 83.2917 45.9646 87.7857 42.9023C88.036 43.5867 87.1048 44.4776 88.2118 44.8551ZM91.3245 44.3676C90.1576 43.2223 89.2736 45.4049 87.9316 45.1374C87.7062 46.1447 88.5597 47.2544 88.9328 45.9691C90.1541 47.1906 90.7444 46.4806 91.9648 45.6929C92.2532 46.0418 91.1311 47.2721 90.8149 47.5091C91.5612 48.0792 92.5737 46.7168 92.5521 46.096C92.5316 45.5075 91.9459 45.5674 91.6616 45.2086C91.5012 45.0061 91.5321 44.5714 91.3245 44.3676Z" fill="black"/>
<path d="M79.5588 44.0195L76.3878 45.2746L70.6172 46.527L73.2717 45.0513L79.5588 44.0195Z" fill="black"/>
<path d="M81.2904 47.643C80.9793 47.9688 73.6231 50.3741 72.6494 50.5926C72.1636 50.7017 71.6924 50.7694 71.1941 50.716L81.1502 47.0916C81.3971 47.0545 81.3139 47.6184 81.2904 47.643Z" fill="black"/>
<path d="M75.8093 42.9023C74.6879 44.1467 72.2327 44.1655 70.617 44.2928C70.5494 43.8911 71.1259 43.9032 71.4229 43.8232C72.844 43.4404 74.3836 43.2942 75.8093 42.9023Z" fill="black"/>
<path d="M78.9818 50.4414L76.688 51.7074L75.2324 51.832C75.9608 50.8275 77.8044 50.7304 78.9818 50.4414Z" fill="black"/>
<path d="M126.885 169.948C126.914 169.979 127.651 169.302 127.462 170.089C127.138 171.44 124.868 172.908 125.435 174.692L125.007 174.137L122.555 176.09C122.707 174.375 125.281 173.651 125.295 171.903C124.917 172.352 121.884 175.954 121.398 175.529C122.143 173.718 124.424 172.38 125.34 170.829C126.39 169.052 126.718 166.619 128.321 165.057C128.971 164.769 128.476 165.465 128.38 165.673C127.992 166.508 127.734 167.237 127.394 168.068C127.108 168.765 126.259 168.803 126.885 169.948Z" fill="black"/>
<path d="M126.591 163.246L126.011 166.314L125.873 164.084C124.189 165.138 122.619 166.358 120.916 167.385C120.413 167.689 119.788 167.741 119.279 168.034C118.312 168.59 117.388 169.707 116.205 169.943L119.805 166.855L120.964 166.622L126.591 163.246Z" fill="black"/>
<path d="M139.574 162.963C139.155 163.003 139.074 161.666 139.094 161.465C139.286 159.551 142.404 156.963 143.613 155.426C143.207 158.369 139.086 159.614 139.574 162.963Z" fill="black"/>
<path d="M123.129 161.293C123.502 161.615 116.193 166.782 115.052 166.314L123.129 161.293Z" fill="black"/>
<path d="M138.036 169.853C137.727 170.115 136.829 170.155 136.545 170.783C136.463 168.985 138.911 167.518 140.15 166.316C140.127 167.331 138.787 169.219 138.036 169.853Z" fill="black"/>
<path d="M128.323 159.338C127.895 160.475 126.786 161.121 125.996 161.991C125.769 162.241 126.158 162.711 125.002 163.244C125.062 162.812 124.31 162.719 124.287 162.68C124.182 162.506 126.945 160.193 127.312 159.893C127.636 159.628 127.783 159.217 128.323 159.338Z" fill="black"/>
<path d="M114.762 165.48C113.995 166.957 112.815 168.066 111.012 168.267L114.762 165.48Z" fill="black"/>
<path d="M124.282 158.221L121.922 159.423L120.246 159.612C120.382 159.16 121.393 158.924 121.827 158.773C122.618 158.497 123.412 158.164 124.282 158.221Z" fill="black"/>
<path d="M88.2151 112.986C88.4775 113.238 87.8738 113.787 87.5525 113.878L84.1771 116.332C84.0709 116.237 85.6843 114.706 85.9042 114.516C86.1733 114.283 88.0151 112.794 88.2151 112.986Z" fill="black"/>
<path d="M119.089 101.82L112.883 102.931C112.201 102.971 109.039 102.961 108.703 102.652C108.275 102.26 108.732 102.145 109.131 102.096C112.166 101.722 115.968 102.149 119.089 101.82Z" fill="black"/>
<path d="M141.794 135.236L138.712 137.555C138.714 135.303 141.437 134.848 142.607 133.09L141.794 135.236Z" fill="black"/>
<path d="M143.037 137.839C143.176 138.72 142.081 138.663 141.684 139.041C141.086 139.61 140.9 140.728 139.868 140.909C139.476 140.508 142.155 137.674 143.037 137.839Z" fill="black"/>
<path d="M111.3 78.0806L113.894 76.1289C114.308 76.5673 111.989 78.3457 111.3 78.0806Z" fill="black"/>
<path d="M93.1217 85.9034C92.2223 86.6588 90.68 87.4082 89.5278 87.6096C89.0761 87.6885 88.876 87.9779 88.5066 87.4349C89.963 86.7829 91.4508 85.8209 93.1217 85.9034Z" fill="black"/>
<path d="M229.315 90.3704L231.754 94.0093C236.093 97.1119 248.147 96.6102 244.28 88.8678C243.823 87.9527 242.624 86.8702 242.573 86.0479C242.511 85.0403 243.933 85.9565 244.316 86.32C245.923 87.844 247.248 91.1092 246.893 93.2838C246.143 97.8756 236.112 97.9639 232.909 96.2423C230.83 95.1252 229.475 92.6157 229.315 90.3704Z" fill="black"/>
<path d="M256.437 96.5101C258.039 91.9276 256.14 87.7717 254.994 83.3867C258.184 86.476 260.051 93.1677 256.437 96.5101Z" fill="black"/>
<path d="M224.967 58.8334C225.009 58.8615 225.597 59.6148 225.558 59.648C225.194 59.9639 221.699 61.3336 221.006 61.5265C218.153 62.3206 215.084 62.317 212.222 62.7989C209.264 63.2971 206.386 64.4604 203.345 64.3956L216.908 61.4694C219.009 60.5736 222.052 60.3223 224.056 59.4589C224.478 59.277 224.376 58.4428 224.967 58.8334Z" fill="black"/>
<path d="M263.644 93.1563L261.833 87.7947C261.595 87.0732 258.213 82.2273 258.456 81.9908C258.787 81.6672 260.488 83.7671 260.755 84.0912C262.697 86.4515 265.068 90.1376 263.644 93.1563Z" fill="black"/>
<path d="M308.948 100.974C311.27 98.7148 314.663 97.9133 317.024 95.6719C317.151 96.1958 316.723 96.3362 316.451 96.6499C314.672 98.702 311.644 100.389 308.948 100.974Z" fill="black"/>
<path d="M351.359 105.722C350.822 105.787 351.146 105.161 351.202 104.872C351.488 103.397 352.105 101.933 352.432 100.476C353.098 97.516 353.839 93.7969 353.972 90.7966C354.066 88.6791 353.694 86.6002 353.814 84.5039C354.953 87.3489 355.028 91.0915 354.838 94.1474C354.575 98.3684 353.303 101.994 351.359 105.722Z" fill="black"/>
<path d="M351.362 91.4883C350.829 96.2679 350.62 102.26 346.75 105.727L351.362 91.4883Z" fill="black"/>
<path d="M224.983 73.6107C222.219 72.6945 219.003 71.6731 216.905 69.707C219.715 70.4845 222.682 71.8634 224.983 73.6107Z" fill="black"/>
<path d="M220.367 94.5539C217.302 93.366 214.261 91.858 211.711 89.8125C214.655 91.2076 217.923 92.4588 220.367 94.5539Z" fill="black"/>
</svg>
