<svg width="333" height="250" viewBox="0 0 333 250" fill="none" xmlns="http://www.w3.org/2000/svg">
<path d="M123.601 237.083C122.162 236.678 124.287 235.884 124.854 235.708C126.399 235.226 127.534 235.478 128.845 235.199C131.972 234.534 135.013 233.083 138.328 233.441L136.737 234.738C141.326 234.533 145.713 236.244 150.188 237.036C150.569 237.104 150.623 237.109 150.538 236.689C150.393 235.982 149.057 235.12 148.561 234.463C145.019 229.772 145.931 224.272 141.515 220.29C132.36 212.033 122.284 206.137 120.554 192.697C120.332 190.969 120.563 188.448 120.285 186.974C120.135 186.181 117.559 186.058 116.711 186.046C116.16 186.039 115.573 185.96 115.09 186.303C114.516 186.71 112.423 191.507 111.529 192.701C106.091 199.963 89.3684 203.76 80.9438 207.208C79.9234 207.626 77.3757 208.592 76.7619 209.353C75.5991 210.795 74.1881 216.048 74.1055 217.938C73.9303 221.948 77.3033 224.249 76.7522 227.826C76.5794 228.947 75.3998 230.209 74.3842 230.708C68.562 233.569 60.3287 226.562 58.9121 221.153C58.54 219.732 58.657 216.134 58.3305 215.476C58.1143 215.041 56.9203 214.587 56.4725 214.175C51.4939 209.599 55.1123 198.92 61.8007 198.059C63.5288 197.837 65.2701 198.309 66.7914 198.272C72.2053 198.14 78.3097 189.307 82.5198 186.108C85.1661 184.097 89.3025 182.196 92.6886 182.157C92.7723 181.525 92.6922 181.742 92.3193 181.611C90.2836 180.893 87.5398 179.991 85.3854 180.062C83.0929 180.137 80.5961 181.759 78.2081 182.138C69.6444 183.498 60.9521 180.523 54.8708 174.617C52.6186 172.43 48.7122 167.842 50.5368 164.623C51.055 163.709 52.4676 163.386 52.0503 162.038C51.7193 160.968 47.2722 160.399 45.9807 157.309C43.1528 150.543 52.7363 145.644 58.1871 144.536C66.7261 142.799 74.0644 146.424 79.856 137.941C83.218 133.017 83.4336 128.815 89.1543 125.198C90.1275 124.582 95.3726 122.286 95.5655 121.987C95.7191 121.75 95.5694 120.134 95.7389 119.417C96.0831 117.961 98.2118 117.829 97.825 116.103C97.6674 115.4 95.8783 112.206 95.3554 111.734C94.0252 110.534 91.8397 111.38 90.1872 108.996C89.2054 107.579 89.372 105.021 89.2391 104.85C88.7383 104.204 88.4609 106.072 88.4466 106.282C88.3173 108.19 88.8109 109.936 90.2967 111.231C91.1823 112.002 92.2386 112.087 92.9552 112.915C90.3294 113.322 87.6767 112.861 85.5492 111.203C84.8545 110.661 83.5087 108.548 82.875 108.868C77.0653 114.848 70.4298 119.443 63.3209 123.802C61.9871 124.62 58.0575 126.394 57.252 127.219C56.7165 127.768 56.3182 130.116 55.8562 131.056C54.3329 134.157 52.4342 134.478 49.7886 136.036C46.9225 137.724 47.6247 139.192 46.2642 141.689C44.1524 145.567 39.3595 145.407 40.416 140.51C38.528 141.689 36.0471 144.417 33.6865 142.819C31.5789 141.393 33.719 139.135 33.5186 138.95C31.2519 139.613 28.468 141.334 26.6154 138.825C24.4458 135.885 28.9768 134.315 30.1571 132.977C31.1453 131.857 29.8417 132.416 29.4151 132.448C27.1626 132.614 22.7385 132.416 22.621 129.441C22.4951 126.253 26.5744 126.772 28.7573 126.337C30.3299 126.023 31.7815 125.478 33.2541 124.888C32.4242 123.191 30.7824 121.441 32.4463 119.616C33.5008 118.459 36.7981 119.022 38.3964 118.873C41.102 118.622 42.8113 117.717 45.8535 117.868C46.6033 117.905 47.5318 118.351 48.2125 118.301C51.4791 118.06 58.0682 108.3 60.6115 105.786C63.3802 103.05 66.9658 101.465 70.1311 99.2519C64.8981 97.0759 62.6263 92.6865 65.2321 87.4125L69.0736 82.2032C64.3495 83.8548 57.2225 91.3346 61.2686 96.2377C62.0665 97.2047 62.7229 97.0677 63.3397 97.5391C64.2213 98.2128 62.8362 98.5504 62.1182 98.5313C58.6011 98.4379 54.6386 93.0373 54.5545 89.8099C54.3026 80.1361 67.1014 76.7711 73.5614 72.677C76.1871 71.0129 79.7134 68.4892 80.7471 65.5425C79.6085 66.3897 78.8836 67.5816 77.8348 68.5396C70.6977 75.0595 58.0015 75.3583 53.3664 84.6221C51.5022 88.3479 52.4682 91.7088 54.2135 95.217C48.2476 91.6384 48.7178 83.8068 52.8953 78.9538C53.7645 77.944 55.1529 77.3832 55.5414 76.2162C55.1415 75.8457 48.6179 78.0584 47.6642 78.5075C43.6093 80.417 38.7903 85.9021 44.5355 88.9682C44.4444 89.9602 42.6643 89.3892 42.0087 89.102C38.7174 87.6603 39.0604 82.6285 40.3723 79.9438C44.9917 70.4907 57.9988 71.1622 66.6299 68.2197C73.1997 65.98 79.0064 61.3767 80.2163 54.3506L78.8946 57.0847C71.7604 69.8927 59.134 65.5168 47.7057 69.4376C44.1795 70.6473 42.4564 72.0091 40.5481 75.1719C39.9668 75.2758 40.1466 74.9398 40.1767 74.5487C40.4303 71.2543 43.1893 68.3024 45.9098 66.6345C53.0074 62.2831 62.4572 64.7044 69.5844 60.4457C72.7893 58.5306 77.7095 53.2942 76.9745 49.3364C76.3462 45.9535 72.587 44.1084 74.955 40.4649C75.9134 38.9904 77.9562 38.7011 78.3763 38.0288C78.9065 37.1804 79.1029 35.0055 79.6753 33.9026C82.2558 28.931 89.2369 25.2114 94.7123 24.4461C95.8978 24.2804 96.9719 24.6047 98.1913 24.2149C99.4628 23.8085 101.657 21.7729 103.125 20.9857C109.161 17.749 117.069 16.6523 123.29 20.035C123.703 20.2599 125.862 21.5404 125.325 22.0702C125.097 22.2952 120.99 20.8016 120.288 20.6371C114.905 19.3759 109.628 20.1865 104.816 22.9045C103.647 23.5646 101.347 25.9063 100.665 26.121C99.192 26.585 96.8583 26.5223 95.1249 26.9334C92.328 27.5966 88.7627 29.2157 86.4999 30.9665C86.2372 31.1698 85.0056 32.2198 85.0062 32.3537C85.0067 32.4735 86.3741 34.0848 86.6862 34.0286C87.1377 33.9472 89.8263 31.2857 90.4683 30.9552C90.9405 30.7122 91.357 30.6 91.8938 30.6643C90.5878 32.8064 91.7596 32.1673 92.6546 33.1703C94.0209 34.7016 93.486 36.7048 92.4242 38.206C93.068 38.1729 94.0771 39.3366 94.2743 38.3403C94.5761 36.8153 94.6293 33.8015 96.4034 33.2663C95.8139 35.1358 95.7241 37.1612 95.8767 39.1188C96.0673 41.5641 97.0097 43.4711 97.4444 39.8812C97.8403 36.6115 96.6536 34.3197 99.7271 31.7086C100.586 30.9789 103.323 30.0825 103.447 29.8854C104.094 28.8544 102.276 27.9756 102.896 27.0123C103.341 26.3202 109.864 23.9022 111.061 23.5653C119.331 21.2378 125.992 22.0316 132.615 27.5457C136.478 30.7618 138.701 35.3208 136.871 40.2957C136.744 40.6422 135.311 43.1012 134.88 42.6344C135.762 39.1419 134.792 36.1044 132.483 33.4016C132.023 32.8621 131.437 32.1105 130.633 32.2261C132.179 34.2263 133.189 37.0802 133.021 39.6368C132.973 40.3632 131.971 44.1059 131.035 43.9358C130.463 43.5739 130.804 43.423 130.861 43.0008C131.093 41.2935 131.634 39.6116 130.105 38.2105C130.605 39.8546 129.106 42.1087 129.299 43.5335C129.398 44.2631 132.428 46.6944 133.131 47.604C135.55 50.7347 135.917 54.7749 135.024 58.5265C134.697 59.8991 133.174 62.1885 133.29 63.3061C133.405 64.4139 135.247 67.0817 135.687 68.5236C136.706 71.865 135.792 75.1616 133.145 77.508C132.086 78.4466 130.753 79.0062 129.64 79.7905C129.506 79.8845 129.108 79.8363 129.308 80.2465C129.42 80.4771 131.82 81.7818 132.352 82.2075C136.494 85.526 135.136 88.0195 137.036 91.4079C138.538 94.0852 142.136 94.7009 143.301 99.0586C143.703 100.563 143.355 103.802 144.011 104.609C145.001 105.828 147.431 105.628 148.944 106.017C151.255 106.612 156.616 109.02 158.605 108.745C160.149 108.531 161.639 105.76 162.726 104.706C164.087 103.387 165.81 102.291 167.781 102.244C167.363 99.807 166.246 101.035 164.867 101.34C163.392 101.666 160.054 102.435 158.74 102.133C156.67 101.657 156.728 99.8912 158.488 98.9916C158.494 98.7965 155.712 97.3926 155.294 96.6639C154.866 95.9192 155.207 95.0731 154.929 94.679C154.771 94.455 152.804 94.2129 152.111 93.0183C150.752 90.6735 153.536 88.3239 155.576 87.5401C155.975 87.3867 157.265 87.3172 157.398 87.1132C157.584 86.8267 157.293 85.4358 157.632 84.6112C158.637 82.1676 162.789 82.1406 164.452 84.0349C164.775 84.4029 165.631 86.3267 165.834 86.3768C166.632 86.5742 167.751 86.1921 168.564 86.0948C168.612 84.9423 167.845 84.0112 167.777 82.8433C167.656 80.7617 169.388 77.5981 171.646 77.2719C174.83 76.8116 176.287 79.9027 176.804 82.4623C178.935 81.3897 182.297 81.1284 183.972 83.1065C184.448 83.6682 184.617 84.9664 185.023 85.1992C185.487 85.4654 186.724 85.3556 187.6 85.7944C188.37 86.1798 189.203 87.4895 189.729 87.6314C190.691 87.8909 192.173 86.3593 194.038 87.5485C196.464 89.096 194.046 93.4005 194.312 93.6538C202.323 95.3501 199.281 104.595 191.212 101.774C190.517 101.531 189.026 100.451 188.59 100.414C188.455 100.403 186.182 101.371 186.089 101.468C185.708 101.867 186.211 101.916 186.427 102.05C188.034 103.05 190.295 103.088 191.773 104.868C193.135 106.508 192.607 107.906 190.26 107.392C187.147 106.71 185.5 100.926 181.844 103.678C184.507 104.531 187.073 106.98 185.141 109.776C184.818 110.244 183.839 110.874 183.743 111.276C183.501 112.298 184.693 113.052 183.554 114.729C183.198 115.254 182.172 115.879 181.979 116.305C181.651 117.03 182.01 117.79 181.54 118.738C180.545 120.745 178.045 121.143 176.006 121.249C175.128 122.086 178.327 128.769 178.388 129.997C178.453 131.284 177.474 130.861 176.79 130.239C175.989 129.511 175.58 128.047 175.288 127.028C174.79 125.293 174.624 121.887 173.944 120.537C173.511 119.677 172.912 120.305 172.811 121.107C172.356 124.725 173.04 128.18 173.352 131.787C173.207 132.689 172.362 132.645 171.91 131.903L170.696 119.427L169.767 121.765C168.621 124.517 169.214 127.594 168.854 130.241C168.631 131.887 167.454 131.705 167.245 129.973C166.934 127.413 167.91 123.881 168.043 121.248C166.589 122.567 165.882 124.442 164.812 126.015C164.29 126.782 162.341 129.824 161.697 129.993C160.656 130.267 160.424 129.72 160.759 128.81C161.327 127.265 163.669 124.417 164.641 122.724C165.488 121.249 166.464 119.436 166.981 117.864C165.129 119.396 159.532 126.416 157.45 126.605C156.924 126.652 156.546 126.043 156.665 125.594C156.911 124.664 161.181 121.867 160.88 120.865C160.697 120.258 158.237 120.438 157.567 120.469C151.464 120.748 146.301 122.26 140.125 120.135C138.841 119.694 137.739 118.711 136.373 118.623C136.014 118.698 133.752 123.868 133.687 124.6C133.614 125.423 136.334 131.324 136.811 132.757C141.566 147.038 140.266 163.497 143.905 178.132C143.867 180.187 140.716 180.57 139.156 181.147C139.097 187.338 142.558 193.143 145.446 198.473C147.691 202.616 150.492 207.968 153.076 211.812C155.747 215.786 158.057 216.122 162.867 215.734C169.16 215.226 174.462 208.848 180.432 211.786C189.032 216.017 178.05 226.74 173.167 229.482C171.5 230.418 167.369 231.535 166.57 232.121C166.104 232.464 165.808 233.579 164.993 234.219C164.278 234.781 162.386 235.117 162.877 235.787C163.12 235.761 163.331 235.521 163.402 235.521H170.831C171.128 235.521 174.65 236.462 175.265 236.637C175.635 236.743 176.665 236.994 176.801 237.343H165.923C165.925 237.786 166.805 237.841 167.115 237.865C168.5 237.975 169.985 237.765 171.373 237.853C174.864 238.074 178.394 238.422 181.842 238.908C181.63 239.492 180.945 239.627 180.389 239.692C178.25 239.938 174.733 239.899 172.434 239.957C159.892 240.272 148.148 238.807 135.803 237.348C134.983 237.251 133.936 237.5 133.19 237.307C131.631 236.905 135.345 236.073 135.545 235.783C136.169 234.88 133.163 235.603 132.808 235.703C130.443 236.367 130.349 237.083 127.582 237.083C126.668 237.083 124.252 237.266 123.601 237.083ZM131.164 29.8781C129.098 27.3194 121.408 24.5438 118.346 25.2C118.129 25.2466 118.167 25.7268 117.661 25.8647C116.956 26.0569 116.225 25.9662 115.51 25.9775C115.091 26.2856 115.504 26.4525 115.901 26.4983C118.311 26.7767 120.817 26.6972 123.219 27.1328C126.03 27.6428 128.464 29.0662 131.164 29.8781ZM130.365 37.9501C129.882 34.2025 126.279 30.98 122.853 29.5741C118.404 27.7485 112.841 28.3861 108.081 28.0612C108.203 28.3895 109.288 28.6923 109.612 28.7681C115.974 30.2592 123.152 28.6934 127.986 34.1698C129.109 35.4429 129.338 36.7375 130.365 37.9501ZM122.937 34.3046C123.236 34.0353 122.077 33.0464 121.86 32.8909C119.323 31.0788 114.879 31.2865 111.929 30.9193C110.792 30.7776 105.384 29.6298 104.877 29.9939C104.623 30.1764 104.645 30.9807 104.255 31.4648C103.477 32.4296 101.505 32.9512 100.535 34.323C99.0173 36.4676 99.5477 40.89 98.8828 43.6352C97.9912 47.3163 94.2525 50.6379 97.0847 54.5931C97.5067 55.1825 98.2213 55.5986 98.6431 56.1879C99.7762 57.7712 99.9931 59.6595 99.0545 61.3769C98.6376 61.6578 98.1213 59.2287 97.9609 58.9397C96.9546 57.1269 94.4695 57.3868 92.8654 56.3896C92.1924 55.9713 91.2838 54.9542 90.697 54.3522C89.3866 53.0079 89.9471 52.1823 87.5107 52.249C80.0408 52.4533 83.1982 63.6907 89.139 64.2277C90.6531 64.3646 91.0232 63.087 92.3604 62.9864C93.0689 62.9331 93.4227 63.4681 93.8854 63.4528C94.2456 63.4409 94.5587 63.0008 94.9661 62.936C96.5287 62.6875 96.9834 64.2634 97.8516 65.0339C101.834 68.5682 113.878 71.8456 119.062 70.9809C126.875 69.6779 134.759 59.7801 132.565 52.064C131.693 48.9996 127.05 43.9472 123.607 44.1905C121.932 44.3088 121.146 45.7248 119.52 45.4695C118.804 44.1716 120.56 42.14 121.69 41.5414C123.465 40.601 124.623 41.246 126.387 41.5927C126.108 40.5257 125.654 37.7129 124.78 37.0545C124.522 36.8604 121.467 35.4422 121.142 35.3982C119.859 35.2244 118.265 36.6617 117.926 35.4251C117.72 34.6735 119.054 33.9705 119.682 33.8455C120.962 33.5905 121.766 33.9987 122.937 34.3046ZM85.5259 38.4665C84.4711 37.1377 85.7134 33.7139 83.2742 33.5026C80.3652 33.2505 80.5282 36.6093 81.8124 38.3391C83.2175 40.2317 83.6343 38.8882 85.5259 38.4665ZM92.0265 39.7723C91.1061 39.5904 89.1282 39.7723 88.0464 39.7723C87.9486 39.7723 87.5948 39.3797 87.6495 39.1251C87.7792 38.5218 89.3752 38.2144 89.866 37.9131C93.0017 35.988 91.5007 32.3366 88.4631 34.4544C87.6928 34.9915 85.6467 38.1762 85.8176 38.8092C85.9098 39.1506 86.5084 39.3407 86.5963 39.9148C86.7986 41.2353 85.0375 42.8463 83.6681 42.6382C83.9335 44.0892 84.6948 50.8593 87.5737 48.5455C89.8684 46.7013 86.5977 44.1971 86.8538 42.1163C88.8137 42.4946 89.1592 44.1082 91.49 43.9424C94.7072 43.7136 94.7841 40.3171 92.0265 39.7723ZM82.8723 39.7749C81.4249 40.1065 79.9581 39.5676 78.511 39.7895C76.9207 40.0334 75.2339 42.0938 75.9098 43.6109C76.7599 45.519 78.6388 45.0681 80.2315 44.3398C80.5564 44.1912 83.117 42.6759 83.1318 42.5073C83.1443 42.3646 81.9776 40.6013 82.8723 39.7749ZM94.0133 50.4442C94.1848 48.5333 94.6688 46.8381 95.0752 44.9784C94.1781 46.0753 92.8543 49.3812 94.0133 50.4442ZM79.5081 48.5406C80.2854 49.3797 81.7692 49.1471 82.3606 48.2507C82.6972 47.7406 82.8156 45.671 82.3552 45.3481C81.8152 44.9695 77.5919 46.4722 79.5081 48.5406ZM92.1578 51.4846C92.3401 51.2613 92.4019 46.1137 90.8339 46.2812C90.7777 47.8979 90.7586 49.6937 91.565 51.154C91.734 51.46 91.5595 51.5922 92.1578 51.4846ZM92.3509 65.3351C89.9445 65.8582 91.373 68.9849 93.5007 68.2932C95.2313 67.7306 94.8487 64.7921 92.3509 65.3351ZM79.1603 74.1324C79.7052 74.6725 85.602 67.8987 84.7271 66.3234L82.4017 70.1566L79.1603 74.1324ZM127.519 78.373C127.857 77.9918 128.914 77.5421 129.564 76.8584C131.941 74.3602 132.866 70.3377 130.762 67.367C130.1 67.2807 130.448 67.5467 130.482 67.8998C130.673 69.8384 131.086 70.5196 130.505 72.5754C129.827 74.9793 127.127 78.0873 124.393 78.0509C123.792 78.0429 123.337 77.5632 122.92 77.6375C122.367 77.7357 121.245 78.5098 120.817 78.9494C122.763 79.9028 125.286 79.6835 127.448 79.8579C127.441 79.3382 127.126 78.8164 127.519 78.373ZM85.7912 80.1169C90.6127 78.6127 95.5998 74.9686 95.0752 69.4471C94.2094 69.9192 94.4048 71.1543 94.0727 71.975C92.3553 76.2194 88.9437 77.3149 85.7912 80.1169ZM120.02 81.9434C120.351 82.9238 121.106 86.1966 119.377 84.5239C118.563 83.737 117.921 81.5642 117.7 80.4427C117.386 78.8539 117.472 74.3056 116.299 73.4876L102.774 69.7085C103.884 71.969 104.784 74.4912 104.304 77.0662C104.163 77.8207 103.127 79.0783 103.322 79.6964C103.457 80.125 107.335 81.4129 108.084 81.807C109.015 82.2967 111.347 83.7917 108.742 83.5043C107.518 83.3692 106.398 82.4548 105.162 82.8513C107.588 85.6265 109.275 88.8921 111.269 91.9581L122.011 95.4755C122.3 94.9731 120.522 93.6415 121.75 93.3941C122.604 93.2219 125.198 95.8832 126.035 95.9617C126.8 96.0334 129.287 92.8375 128.367 91.8434C126.038 89.2398 124.256 85.6115 121.869 83.1203C121.355 82.5836 120.867 81.8171 120.02 81.9434ZM84.2915 75.7855C85.5347 74.5798 86.4735 73.7992 87.4921 72.2871C87.7714 71.8725 88.4758 70.9874 88.3131 70.4895C86.987 72.1746 85.634 74.2248 84.0789 75.7065C79.2457 80.3113 63.5621 88.0045 69.3846 96.6053C69.8291 97.2618 72.0235 99.4472 72.0032 97.6881C71.9972 97.17 69.589 94.7902 69.5829 92.4831C69.5647 85.5123 79.7061 80.2323 84.2915 75.7855ZM127.978 70.7473C127.244 70.6448 127.572 70.8318 127.448 71.1359C126.922 72.4238 126.706 73.7771 125.709 74.8983C125.121 75.5588 124.139 75.8765 123.734 76.7329C126.503 76.3258 128.672 73.488 127.978 70.7473ZM96.9312 75.6935C97.0133 75.614 97.832 73.8356 97.8826 73.6305C98.0331 73.0209 98.0213 72.4096 97.9938 71.791L96.4143 75.3158C96.213 75.7639 96.8045 75.8161 96.9312 75.6935ZM175.974 87.1125C175.66 87.3053 174.822 87.1558 174.698 86.7251C174.626 86.4751 175.038 83.5335 174.941 82.5954C174.648 79.7678 172.062 77.4389 170.207 80.5487C169.209 82.2233 169.828 84.5176 170.965 85.9754C172.818 88.3521 175.324 86.6461 177.067 88.9641C175.986 88.9049 176.22 90.5448 175.57 90.765C174.191 91.2318 173.36 88.9974 171.096 90.5312C170.774 90.7495 169.879 91.6423 169.639 91.9646C167.32 95.0708 170.466 99.1893 173.362 96.9194C174.786 95.8037 173.73 93.9669 174.815 92.6166L176.788 95.1006C179.54 97.4552 183.216 94.3014 180.392 91.0439C179.798 90.3586 178.828 90.0718 178.394 89.2332C180.576 89.1982 184.928 86.248 182.362 84.166C180.485 82.644 178.426 83.5745 177.073 85.2019C176.69 85.6632 176.069 87.0544 175.974 87.1125ZM122.94 80.9017L131.147 92.7431C130.445 94.751 128.877 97.9807 126.496 98.317C123.201 98.7824 117.928 96.2347 114.651 95.1476C113.163 94.654 110.552 94.399 109.416 93.5149C108.212 92.5776 106.429 88.1848 105.376 86.5462C103.656 83.8718 101.012 80.0076 97.4659 80.1221C103.687 85.8079 106.621 95.418 99.3266 101.598C98.7079 102.122 95.8512 103.645 95.9003 104.154C95.9366 104.53 98.5149 108.701 98.9309 109.528C99.6744 111.006 101.688 114.586 101.568 116.08C101.504 116.877 100.885 117.344 100.915 118.121C102.625 118.002 107.404 121.198 103.163 121.001C101.947 120.944 99.7386 119.701 98.7851 120.33C97.3069 121.305 101.513 122.32 100.916 123.589C100.784 123.723 98.2496 123.816 97.7179 123.968C96.6444 124.274 93.4117 126.09 92.3435 126.765C88.3174 129.306 86.029 132.71 84.2038 137.002C84.0528 137.521 84.4858 137.438 84.8466 137.373C86.5731 137.065 90.1804 134.759 91.7121 133.694C93.7835 132.254 95.5195 130.47 97.6003 129.058C97.7801 129.003 97.7923 129.305 97.729 129.444C97.5752 129.78 94.4224 133.001 93.8909 133.489C89.1748 137.812 82.236 139.111 78.4926 143.892C78.2882 144.153 77.978 144.223 78.0977 144.674C84.6781 143.885 91.3355 142.168 97.1677 139.046C98.6775 138.238 101.439 135.984 102.645 135.568C103.383 135.313 102.704 136.286 102.51 136.478C97.8148 141.131 88.6417 144.536 82.1371 145.646C74.9732 146.867 67.8551 146.063 60.7587 147.059C58.3322 147.399 55.3676 148.017 53.4213 149.492C56.8074 149.821 59.4829 151.785 61.3337 154.482C63.051 156.984 63.9943 160.901 67.3366 161.867C71.8804 163.18 76.9508 157.457 82.059 160.18C85.8358 162.193 85.4145 166.302 86.7255 169.658C89.881 177.736 101.288 180.564 109.201 179.224C118.472 177.654 124.018 170.584 134.572 173.219C136.561 173.715 138.294 174.677 140.184 175.389C138.502 168.546 138.582 161.44 137.763 154.47C136.546 144.113 134.399 134.437 130.382 124.784L135.148 113.57C135.203 113.21 135.144 113.071 134.754 113.184C133.716 113.486 132.34 114.495 131.265 114.713C130.723 114.823 130.815 114.431 130.94 114.131C131.251 113.389 135.27 110.57 136.209 109.668C139.318 106.68 141.754 102.221 139.59 98.0136C138.272 95.4511 134.673 93.5168 132.619 91.3163C129.385 87.851 127.711 82.2725 122.94 80.9017ZM35.3387 129.874C35.5763 130.248 35.3591 131.143 35.1262 131.545C34.2078 133.13 30.1528 135.077 28.8595 136.588C28.1166 137.456 28.6503 138.096 29.676 138.056C31.7142 137.978 37.1686 132.823 38.1253 132.998C38.3684 133.043 38.7214 133.431 38.7887 133.671C39.2266 135.233 34.4548 139.582 34.8658 140.868C35.0662 141.277 35.2845 141.323 35.7184 141.253C36.5819 141.115 39.0007 138.783 39.6168 138.031C40.3406 137.149 41.8303 133.541 43.0516 135.2C43.4007 135.675 43.1439 137.584 43.0088 138.235C42.8481 139.011 41.2992 142.005 42.4172 142.33C44.3143 142.883 45.4334 136.909 46.1364 135.837C47.3999 133.912 50.9884 133.138 52.6235 131.008C53.766 129.52 53.8422 127.892 54.598 126.438C55.6081 124.495 61.6961 121.575 63.8518 120.158C75.0256 112.813 84.6315 103.614 94.9931 95.2647C95.8859 94.8345 96.8354 94.2823 97.4497 95.3798C96.5425 97.23 93.5697 97.2532 95.2287 99.6256C96.4845 101.421 96.8574 101.064 98.1326 99.6456C102.203 95.1186 101.673 89.0899 98.3719 84.3066C90.7802 73.3061 82.3121 88.6833 78.2 94.1474C74.084 99.6166 73.2693 100.565 67.3957 104.112C61.0792 107.926 56.6224 116.956 51.0132 120.058C48.871 121.243 48.1995 120.358 46.1189 120.21C43.2441 120.007 39.972 120.661 37.0999 120.985C36.0854 121.1 32.8036 120.676 34.7034 122.561C36.635 124.478 40.0054 122.952 41.7404 123.725C42.313 123.98 43.329 125.477 44.0004 125.933C45.748 127.121 47.5654 126.132 49.4387 125.934C48.9031 128.7 43.8783 128.459 42.1428 126.714C41.6721 126.241 41.2599 124.989 41.1725 124.935C39.9047 124.162 34.6292 126.908 32.9913 127.367C31.4494 127.798 26.0867 128.307 25.4122 128.781C24.6097 129.345 25.5045 130.217 26.2292 130.352C27.9751 130.678 34.8796 129.151 35.3387 129.874ZM133.284 88.4492C133.018 86.4266 131.545 83.7559 129.308 83.5048C128.893 83.8759 132.7 88.143 133.284 88.4492ZM162.914 84.893C162.045 84.0403 160.709 83.7184 159.68 84.5372C158.308 85.6286 159.747 87.5397 159.555 88.9697C157.827 88.6168 154.209 88.8232 153.762 90.9828C153.18 93.7918 157.761 93.5698 159.03 91.9697C160.233 90.4539 159.156 89.9161 162.222 90.426C162.661 88.2744 165.003 86.9418 162.914 84.893ZM78.0963 86.8899C77.616 86.4422 75.5275 89.3334 75.3013 89.7418C74.6064 90.9965 74.0392 92.2353 74.6503 93.6533L76.6282 88.9611L78.0963 86.8899ZM196.357 96.5937C196.068 96.2401 194.391 95.2766 193.889 95.2219C192.706 95.093 190.43 96.1028 189.533 95.6113C189.052 95.3474 189.473 95.1915 189.668 94.9546C190.246 94.2512 191.072 94.0301 191.635 93.5008C192.681 92.5186 194.683 89.819 192.65 88.897C190.927 88.115 189.264 91.1886 188.613 91.051C187.956 90.5486 188.327 89.6945 188.094 88.9542C187.771 87.9264 186.335 86.8645 185.215 87.199C184.76 87.3351 183.028 89.3679 182.84 89.8176C182.397 90.879 182.941 92.0138 183.585 92.8572C185.25 95.0369 185.254 93.1647 186.549 92.9121C188.095 92.6106 190.122 96.5209 188.83 97.3203C187.292 98.2715 185.697 96.7981 185.292 96.9116C184.767 97.0583 182.449 99.3469 181.972 99.8989C181.555 100.381 180.907 101.1 180.783 101.723C180.965 101.893 184.918 100.21 185.472 99.949C186.208 99.6023 187.7 98.369 188.367 98.334C189.082 98.2965 191.514 100.581 193.423 100.668C195.608 100.768 198.059 98.6809 196.357 96.5937ZM166.376 87.7233C165.204 87.9822 163.494 89.3537 164.315 90.6799C165.785 93.0576 169.119 89.9704 170.433 88.8369C169.916 87.5387 167.568 87.4601 166.376 87.7233ZM167.777 98.601C167.057 95.7927 165.721 93.3009 162.869 92.1824C161.998 92.7367 161.082 92.5107 160.154 92.8121C159.568 93.0027 157.049 94.5862 156.943 95.1248C156.734 96.1809 159.503 97.8085 160.49 97.7939C162.271 97.7676 162.407 94.7672 163.375 94.968C164.57 96.4546 166.149 97.5837 167.777 98.601ZM187.112 95.7057C187.941 94.3775 184.944 93.6079 185.281 95.6033C185.462 96.6756 186.988 95.9036 187.112 95.7057ZM181.576 97.3009C180.91 97.2717 179.193 97.2619 178.794 97.8231C178.625 98.0608 177.165 102.324 177.333 102.504C177.853 102.592 178.089 102.164 178.386 101.847C178.789 101.417 181.882 97.5728 181.576 97.3009ZM175.472 97.561C174.482 97.8147 173.99 98.7736 172.968 99.1346C172.389 99.3391 171.843 99.4298 171.228 99.3832C171.173 101.25 173.068 105.665 175.156 103.364C175.068 101.396 176.175 99.4713 175.472 97.561ZM165.656 99.1256C165.411 98.8751 162.656 98.4938 162.473 99.3794C163.41 99.4108 164.302 99.7693 165.262 99.6449C165.627 99.5975 166.03 99.5078 165.656 99.1256ZM167.977 104.12C166.233 104.281 164.796 106.084 163.845 107.366C161.134 111.019 161.99 112.038 156.361 110.975C153.653 110.463 144.256 106.964 142.49 107.501C141.741 107.729 137.593 114.256 137.932 115.01C138 115.16 139.029 116.13 139.256 116.302C143.195 119.278 151.992 118.216 156.756 118.111C158.868 118.065 160.981 118.109 163.077 118.343C164.315 117.993 168.883 110.89 168.822 109.656C168.801 109.228 167.433 107.897 168.449 107.711C168.745 107.656 171.464 109.017 172.423 109.019C173.294 109.021 174.867 108.353 175.107 107.457C175.45 106.181 173.533 106.505 172.808 106.293C171.539 105.922 169.845 103.948 167.977 104.12ZM176.838 108.717C177.22 109.307 182.887 109.939 183.378 108.308C184.469 104.681 176.835 104.853 176.554 105.791C176.512 105.932 176.758 108.593 176.838 108.717ZM181.495 113.622C182.465 112.48 181.024 111.111 179.79 110.897C177.501 110.5 174.442 110.442 172.157 110.834C171.219 110.995 170.73 111.405 171.662 112.103C173.148 113.218 180.212 115.133 181.495 113.622ZM179.106 118.301C180.118 117.394 179.874 116.429 178.659 115.912C178.188 115.711 172.797 114.457 172.413 114.461C171.736 114.469 171.342 114.908 170.986 115.428C170.806 116.477 177.193 120.012 179.106 118.301ZM63.2363 162.893C63.426 162.641 61.2116 160.346 60.8967 159.856C59.1638 157.164 58.6031 153.614 55.0743 152.293C50.7482 150.673 46.1296 154.799 49.6981 157.827C51.7268 159.549 54.7736 158.777 55.6834 162.108C56.5493 165.28 52.5789 164.69 53.2151 167.653C53.5626 169.272 57.0867 172.815 58.4584 173.962C66.3996 180.604 76.5292 181.757 85.2552 175.781C84.7558 175.121 84.825 175.597 84.4446 175.76C82.4194 176.624 80.58 177.913 78.3762 178.399C78.0225 178.476 75.5449 178.88 75.4444 178.774C75.3971 178.723 75.348 178.149 75.6002 177.971C76.1279 177.599 78.1227 177.142 78.8632 176.794C79.7672 176.368 84.005 174.152 84.1439 173.399C84.1976 173.108 84.0203 172.438 83.5413 172.524C82.898 172.638 81.2305 173.849 80.4901 174.225C77.1369 175.926 73.4557 177.735 69.607 177.732C69.4733 177.041 69.7557 177.279 70.1377 177.096C72.9247 175.763 76.396 174.656 78.9816 173.005C80.2337 172.206 83.5049 169.255 79.9596 170.581C75.6389 172.197 72.0539 174.701 67.0805 175.126C66.443 175.181 63.2811 175.157 62.9719 174.868C62.5186 174.443 63.0774 174.427 63.3593 174.342C64.9645 173.86 67.1546 173.758 68.9224 173.289C71.19 172.686 74.4595 171.441 76.4887 170.3C77.5952 169.677 79.5711 168.717 79.1563 167.323C76.5679 167.907 74.2728 169.481 71.7228 170.309C69.0938 171.164 64.7664 172.114 62.0372 172.019C61.3183 171.994 57.8192 171.334 59.7011 170.75C60.7541 170.423 63.6318 170.629 64.9413 170.425C66.359 170.203 75.1948 167.606 75.6748 166.77C75.9127 166.356 75.6387 165.828 75.1109 165.811C73.5125 165.758 70.1692 167.118 68.3333 167.505C64.0271 168.413 60.1136 168.727 55.8094 167.58C56.154 165.997 58.9958 167.096 60.1861 167.085C61.1314 167.076 62.9388 166.913 63.8977 166.798C64.5322 166.721 68.6579 165.954 68.8086 165.757C68.9676 165.549 68.6759 165.085 68.3603 165.029C67.1318 165.142 66.0589 164.288 64.9223 164.214C62.6726 164.069 60.4837 164.988 58.0084 163.991C57.4242 163.756 55.8826 162.733 57.0379 162.397C57.9701 162.125 61.7204 164.009 63.2363 162.893ZM165.364 218.107C161.702 218.125 157.083 219.002 153.976 216.655C147.703 211.917 139.181 194.82 137.285 187.216C136.527 184.174 136.631 180.629 135.863 177.939C135.3 175.962 134.382 175.588 132.355 175.393C127.197 174.899 123.378 176.449 118.95 178.649C118.705 178.771 118.188 178.749 118.162 178.779C117.644 179.37 119.934 180.651 120.425 181.11C123.867 184.338 122.673 185.541 123.241 189.801C124.33 197.958 128.292 203.921 133.946 209.755C137.306 213.222 145.286 219.041 146.947 223.03C148.132 225.876 147.292 227.882 151.265 228.426C156.021 229.076 161.623 226.092 164.072 222.123C164.435 221.535 166.086 218.524 165.364 218.107ZM107.985 192.478C109.648 190.879 111.631 186.829 112.634 184.675C112.863 184.184 114.128 181.639 114.145 181.463C114.256 180.31 110.97 181.515 110.301 181.605C108.22 181.885 104.943 182.3 102.91 182.155C101.808 182.076 98.3599 181.168 97.6374 181.403C97.0749 181.586 97.001 184.399 96.754 185.235C96.3087 186.742 94.8976 188.521 93.6178 189.447C93.1613 189.777 91.851 190.536 92.2039 189.362C92.6439 187.9 94.6852 186.419 94.2828 184.501C83.5477 184.866 79.0291 196.333 70.1905 200.303C68.6527 200.994 68.3092 200.341 66.9984 202.117C64.3585 205.695 63.8959 212.643 66.4653 216.346C67.0819 217.234 68.9153 219.088 70.0085 219.139C71.7255 219.218 71.0409 218.012 71.3158 216.765C72.0268 213.54 73.2244 208.27 76.1065 206.367C80.0356 203.773 88.6138 201.636 93.4053 199.65C93.9269 199.434 101.275 196.297 100.915 195.958C100.021 196.232 96.3819 194.195 98.1723 193.644C98.9007 193.42 100.889 194.269 101.876 194.36C103.9 194.546 106.512 193.893 107.985 192.478ZM64.8288 200.642C59.3422 199.943 55.8852 205.719 57.5914 210.474C58.4193 212.782 60.1484 212.539 60.7889 213.845C61.3742 215.038 61.1335 216.912 61.4396 218.153C61.8784 219.93 66.4048 224.35 68.0358 225.478C69.4246 226.438 74.3314 229.413 73.8441 225.783C73.7967 225.43 72.0959 222.001 71.8579 221.728C71.6341 221.471 69.8108 221.317 69.0806 221.069C64.3497 219.46 62.1115 213.641 62.4311 209.09C62.6426 206.077 64.0387 203.486 64.8288 200.642ZM154.911 230.575C153.436 230.787 151.533 230.421 150.002 230.575C151.834 236.377 157.399 235.753 161.606 232.718C165.109 230.189 160.844 230.926 160.865 229.401C160.841 229.241 160.925 229.135 161.005 229.01C161.271 228.594 166.737 226.103 167.868 225.325C171.996 222.486 174.848 217.91 177.86 214.042C178.093 213.551 176.628 213.43 176.396 213.439C175.296 213.481 169.931 216.517 169.095 217.419C168.116 218.474 167.506 220.882 166.667 222.325C164.503 226.046 159.277 229.95 154.911 230.575ZM180.515 214.958C179.968 214.863 179.813 215.019 179.451 215.344C177.875 216.759 175.771 220.529 174.14 222.368C173.078 223.566 171.792 224.587 170.702 225.763L163.8 230.052C169.725 228.38 175.192 223.656 178.61 218.683C178.963 218.169 180.926 215.362 180.515 214.958Z" fill="black"/>
<path d="M45.5934 226.93C47.5421 227.199 48.8991 229.019 50.5886 229.838C52.9704 230.994 54.9759 230.743 57.5168 231.1L58.1962 230.577L49.9745 225.755L49.7061 225.371C50.3771 224.891 57.9637 227.863 59.3213 228.3C60.453 228.664 61.6655 228.733 62.7684 229.083C64.4659 229.62 66.3666 230.718 68.0669 231.173C73.536 232.638 79.6883 230.035 85.584 231.689C86.0664 231.824 88.797 233.233 88.9353 233.473C89.3302 234.158 88.6472 234.425 88.0608 234.492C83.0726 235.059 74.7277 234.625 69.4627 234.489C57.8469 234.191 46.3703 232.254 34.7036 232.146C32.8574 232.129 32.6073 232.237 30.9768 232.396C30.2234 232.469 29.3147 231.942 28.4805 232.133L31.0027 231.618C32.9937 231.924 34.9612 231.194 36.8407 231.098C40.9414 230.888 45.0792 231.277 49.1741 230.832L45.3336 228.226C44.3023 227.829 43.1993 227.644 42.1104 227.483C41.2105 227.351 39.8333 227.823 39.358 226.93C41.3026 227.121 43.7132 226.67 45.5934 226.93Z" fill="black"/>
<path d="M118.959 226.152L119.757 229.275C119.978 229.491 123.623 228.029 124.429 227.992C125.084 227.961 126.019 228.288 125.563 228.985C125.43 229.187 122.741 230.032 122.228 230.268C120.924 230.868 119.419 231.592 118.158 232.262C117.019 232.867 113.666 235.262 112.926 235.459C111.26 235.902 111.3 234.723 111.118 234.722C110.654 234.722 109.852 235.537 109.144 235.261L109.672 231.878C105.403 232.444 104.422 230.058 105.682 226.426C97.79 224.871 101.205 217.334 108.079 219.121C107.311 212.047 116.725 211.78 117.083 218.481C119.183 218.324 120.844 218.133 122.505 219.679C125.345 222.325 122.134 225.934 118.959 226.152ZM113.615 221.685C113.746 221.572 115.068 218.843 115.121 218.601C115.65 216.194 112.884 213.917 110.722 215.596C108.156 217.588 111.269 221.199 110.733 221.724C109.389 221.789 108.459 220.703 107.088 220.487C101.459 219.6 101.6 224.975 105.815 224.857C106.558 224.836 109.481 223.591 109.672 224.462C109.752 224.829 104.873 228.855 107.617 230.127C110.893 231.644 111.521 225.592 111.832 225.406C113.224 224.574 112.984 227.174 113.251 227.977C113.809 229.657 116.171 231.366 117.515 229.55C119.218 227.248 115.349 225.634 113.921 224.454C112.893 225.155 110.678 225.237 110.253 223.887C109.345 221.006 113.277 221.977 113.615 221.685ZM114.51 223.488C114.654 223.585 117.619 224.516 117.836 224.54C121.826 224.979 123.149 220.474 119.286 219.954C117.298 219.686 115.732 221.538 113.918 221.989C113.84 222.092 114.38 223.4 114.51 223.488ZM114.714 231.62L112.595 230.576L111.533 234.22L114.714 231.62Z" fill="black"/>
<path d="M208.909 63.7185C215.479 62.9308 217.784 69.8582 210.498 71.0099C211.787 75.4105 207.805 76.4348 204.419 74.6662C202.788 79.2608 196.621 78.5362 196.701 73.6103C195.505 73.7054 194.415 74.0649 193.18 73.8109C190.98 73.3584 189.789 71.3039 191.17 69.3555C191.652 68.675 194.032 67.401 194.061 67.2261C194.199 66.417 193.473 66.4511 193.146 66.0374C190.289 62.4265 193.872 60.1121 197.608 60.6194C198.662 60.7624 199.418 61.4411 200.414 61.638C201.934 55.2712 211.512 56.8042 208.909 63.7185ZM205.725 68.4068C208.243 68.3752 209.845 70.4076 212.344 68.7825C215.374 66.8117 211.629 65.1843 209.312 65.2836C208.636 65.3126 204.023 66.7832 205.189 65.1474C205.808 64.278 207.036 63.6365 207.538 62.5082C208.837 59.5924 205.221 57.9205 203.097 59.9714C201.402 61.6077 202.512 63.2341 202.273 65.283C204.03 64.9776 205.791 66.1583 204.865 67.9633C204.645 68.3911 203.901 68.4797 203.971 69.0495C203.991 69.2075 204.912 71.6832 205.063 72.0466C206.408 75.2806 210.3 73.597 208.381 71.2077C208.171 70.9466 205.251 68.8169 205.725 68.4068ZM200.059 63.8109C199.737 63.4982 198.75 62.6878 198.383 62.4618C195.408 60.6308 192.18 63.9357 195.767 65.8084C196.913 66.4064 197.652 66.2032 198.783 66.494C199.233 66.6097 199.62 67.0919 200.014 67.1093C200.153 67.1155 200.609 65.3477 201.479 65.5371C200.973 65.033 200.559 64.296 200.059 63.8109ZM203.302 68.9586C203.192 68.7938 201.581 68.5683 201.138 68.3485C200.599 68.0809 200.348 67.439 199.741 67.3572C199.349 67.3043 196.133 68.0355 195.582 68.2173C191.742 69.4846 190.965 73.3657 195.757 72.0333C197.492 71.5511 197.635 70.5772 198.729 70.0037C199.284 69.7131 200.285 69.4095 199.934 70.3982C199.395 71.9222 197.379 73.6746 198.933 75.4574C200.308 77.0346 202.529 75.1843 202.947 73.62C203.06 73.1962 203.431 69.1546 203.302 68.9586Z" fill="black"/>
<path d="M36.4384 38.9919C36.8322 39.3951 42.037 37.4489 42.946 40.8057C43.66 43.4421 42.2134 44.1694 40.43 45.6568C45.7493 51.8816 38.3521 55.9074 33.388 50.9752C31.5925 53.4371 28.8871 55.6291 25.8418 53.4219C23.7093 51.8762 24.7088 50.1082 25.2942 48.1028C21.0218 48.7817 18.2564 43.2531 22.0216 40.8555C23.9631 39.6192 25.5602 40.1419 27.6839 40.2935C26.0492 33.1453 36.3543 32.1697 36.4384 38.9919ZM33.7857 43.1588C33.4717 43.492 34.4246 44.2792 34.2907 44.794C33.8308 46.5633 29.2108 47.3207 29.8095 44.3343C30.1679 42.547 32.9268 43.5301 33.3942 42.9017C33.4986 42.7614 34.5151 39.9214 34.5572 39.6199C34.8856 37.2648 33.786 35.8313 31.256 36.115C27.3841 36.5493 30.5083 42.2192 30.0697 42.6338C28.2173 42.7921 26.5762 41.2476 24.7082 41.3879C20.5771 41.6981 20.9382 46.9275 25.6628 46.5144C26.1552 46.4714 29.2939 45.3065 29.2697 46.1492C29.2628 46.3927 26.5783 48.7183 26.367 50.0707C25.8445 53.4154 30.2166 53.0082 31.3435 49.9993C31.5502 49.4475 31.8834 46.9034 32.3303 46.8013C32.9263 46.6652 34.0031 49.1364 34.4432 49.6692C38.2477 54.275 43.429 49.5002 37.9495 46.2294C36.7229 45.4972 34.8978 45.7007 34.5827 44.459C36.3263 43.9078 38.1966 44.6219 39.8091 43.7286C42.5619 42.2036 41.0233 39.4218 37.702 40.6203C36.3855 41.0954 35.6987 42.2043 34.7176 42.9075C34.3675 43.1585 33.8186 43.124 33.7857 43.1588Z" fill="black"/>
<path d="M192.491 29.0647C193.285 29.5705 197.278 27.62 198.168 30.9131C198.811 33.2922 197.416 34.3053 195.646 35.4767C200.276 39.7572 195.823 44.0523 190.6 41.8569C192.083 43.6786 192.404 46.1129 191.444 48.2795C189.608 52.4221 190.368 46.5263 190.353 45.6258C190.341 44.8973 190.03 41.5559 189.817 41.1908C188.964 39.7241 188.273 41.8487 187.401 42.4907C185.775 43.6867 183.389 43.7685 181.751 42.5954C179.379 40.8958 181.923 37.7474 181.579 37.4303C173.769 36.8891 176.586 28.0123 183.702 30.0155C184.018 29.852 183.487 26.277 186.291 25.2634C188.14 24.5951 190.867 25.188 191.809 27.0015C192.04 27.4448 192.399 29.0057 192.491 29.0647ZM185.291 35.0878C185.541 36.3196 184.344 36.7449 183.707 37.5656C180.222 42.0553 185.767 43.3483 187.278 39.5068C187.721 38.3798 187.508 37.2153 188.344 36.3932C189.112 37.1345 189.271 38.1125 189.96 38.9673C193.416 43.2498 198.443 39.2656 193.772 36.269C193.124 35.853 190.179 35.1632 190.336 34.4396C190.479 33.779 193.183 34.1154 193.893 34.0221C197.865 33.5001 196.946 29.2654 193.254 30.7944C192.802 30.9816 190.079 33.0062 189.919 33.2655C189.695 33.6292 190.616 34.9087 188.89 35.8802C187.329 36.7581 184.989 35.6328 186.121 33.6839C186.928 32.2924 188.443 33.0886 189.145 32.4877C189.467 32.2113 190.56 29.4378 190.584 28.9485C190.748 25.6901 184.733 24.9156 185.575 29.9961C185.672 30.5801 186.894 32.3112 186.358 32.6168C185.478 33.1185 184.548 32.0582 183.774 31.7605C177.268 29.2556 176.811 36.394 181.949 35.8519C182.534 35.7901 184.996 34.7876 185.291 35.0878Z" fill="black"/>
<path d="M23.7044 71.5329L23.7073 71.9123C26.288 74.1565 27.0812 77.7227 23.054 78.8293C20.1875 79.617 18.2347 77.5607 16.976 77.7553C16.8281 77.7782 15.9277 79.4863 15.5359 79.8597C12.2964 82.9472 6.908 80.2577 9.0999 75.8311C9.04012 75.4727 7.29117 75.4941 6.7218 75.2993C3.63539 74.2431 2.94829 70.254 5.83541 68.4465C7.38307 67.4775 8.93866 67.5728 10.7027 67.6249C10.7138 65.3012 10.163 63.0471 12.8275 62.0302C14.9436 61.2226 17.3504 61.7133 18.6183 63.6311C18.9606 64.1488 19.2591 65.4692 19.7076 65.673C20.0738 65.8396 22.0015 65.0278 22.7481 65.044C26.7461 65.1312 27.2357 70.1691 23.7044 71.5329ZM16.5138 69.941C16.647 69.8287 17.4982 66.9421 17.5416 66.6462C18.1473 62.5115 11.3511 61.1895 12.3573 66.9115C12.4702 67.5532 13.6286 69.4964 13.49 69.7062C13.057 70.3613 9.76997 68.9571 8.70769 68.9771C4.75984 69.0516 3.90696 74.6756 9.44418 73.8075C10.4012 73.6575 13.7487 71.7034 12.686 73.8658C12.5064 74.2312 11.8384 74.5939 11.5411 75.0851C8.52134 80.0738 13.367 80.4935 15.0583 77.4945C15.3672 76.9468 15.9968 73.5935 15.7442 73.349C15.4606 73.0745 12.2837 74.0914 13.2092 71.2536C13.8134 69.4007 16.201 70.2048 16.5138 69.941ZM17.8665 71.0102C18.1727 70.6118 21.019 70.5449 21.6503 70.4257C26.1781 69.5707 24.1082 64.1259 19.7209 67.7508C19.1733 68.2032 18.9034 68.7743 18.4542 69.1863C18.1164 69.4961 17.1154 69.9071 17.0692 69.9712C17.0164 70.0445 17.7959 70.5983 17.5446 71.5911C17.3572 72.3316 16.1623 73.1001 16.009 73.4816C15.9449 73.6412 16.4617 73.6503 16.6461 73.884C17.9992 75.5986 19.2987 77.9111 21.9619 77.5012C24.8466 77.0573 24.0688 73.775 21.8479 72.6971C21.2961 72.4293 17.2705 71.7858 17.8665 71.0102Z" fill="black"/>
<path d="M154.512 14.7786C157.167 14.981 161.562 16.5138 160.15 19.9225C159.267 22.0509 155.983 21.6528 155.688 22.0528C155.324 22.5453 155.874 23.4615 155.739 24.1614C155.455 25.6304 153.424 26.654 152.018 26.4902C151.056 26.378 149.526 24.915 149.121 24.9755C148.837 25.018 147.621 26.046 147.004 26.288C144.698 27.1925 141.119 26.4804 141.263 23.5394C141.331 22.1443 142.465 21.0786 142.574 19.7308C135.023 17.9821 140.529 9.05612 146.404 13.2191C147.458 11.5068 147.519 9.6048 149.929 9.11534C153.629 8.36412 156.14 11.4009 154.512 14.7786ZM151.028 16.8417C151.292 15.971 152.122 15.5879 152.612 14.8694C155.755 10.2565 148.704 8.4538 148.394 13.3412C148.369 13.7357 148.592 16.2156 148.696 16.325C148.778 16.4106 150.653 16.6246 151.028 16.8417ZM147.877 16.3513C145.8 15.3325 144.487 12.2831 141.797 14.1509C139.747 15.5736 140.794 17.8075 142.987 18.1489C144.132 18.3271 144.932 17.9906 145.921 17.9282C146.298 17.9043 146.966 18.2407 147.072 18.1644C147.153 18.1056 147.736 16.6432 147.877 16.3513ZM153.637 24.338C155.212 22.4367 151.319 20.3189 151.595 19.3425C152.29 18.4422 153.262 19.4979 154.101 19.7418C155.337 20.1014 157.875 20.5295 158.565 19.1397C159.348 17.5618 156.306 16.3258 154.935 16.369C153.807 16.4046 152.563 17.3246 151.329 17.1279C152.629 19.6926 150.386 19.2364 150.047 19.7713C149.884 20.0293 149.981 21.7055 150.064 22.1413C150.334 23.5562 152.272 25.9846 153.637 24.338ZM148.937 19.7427C148.768 19.523 147.182 19.3264 147.218 18.4281C146.734 19.2426 145.67 19.4707 145.088 19.9831C140.008 24.4537 146.144 27.5576 148.155 22.7317C148.307 22.3687 149.032 19.8658 148.937 19.7427Z" fill="black"/>
<path d="M43.7754 172.618C44.559 173.353 44.8246 174.209 44.6778 175.273C44.4866 176.659 42.9904 176.855 42.8288 177.383C42.653 177.956 44.7152 180.779 43.0592 182.275C42.7939 182.515 41.4167 183.161 41.0565 183.197C39.2868 183.376 37.9132 180.975 37.3308 180.875C36.7336 180.773 35.5328 183.555 32.584 181.905C31.0628 181.053 30.8595 179.561 31.3963 177.995C26.7049 178.493 24.0112 173.191 29.3727 171.697C30.1237 171.488 30.7216 171.834 31.1269 171.35C29.9272 168.069 34.1709 166.155 36.7136 168.222C37.9603 169.235 38.3875 171.519 38.5467 171.639C38.7534 171.794 40.8292 171.383 41.5967 171.503C42.1568 171.592 43.3696 172.238 43.7754 172.618ZM33.7747 175.901C32.9583 173.279 36.4555 174.15 36.7057 172.921C37.1705 170.637 34.9677 167.336 32.9985 169.023C31.2524 170.519 34.2862 173.326 33.7838 173.827C32.8667 173.801 32.1186 173.228 31.1931 173.113C27.221 172.621 27.0225 176.202 30.2744 176.64C31.6587 176.827 32.429 175.885 33.7747 175.901ZM42.727 173.902C41.9083 172.942 39.8487 172.888 38.7371 173.35C36.7253 174.187 37.9623 175.544 37.1273 176.196C36.5042 176.682 35.4562 176.299 34.7175 176.435C33.4424 176.668 31.5314 180.53 33.933 180.863C36.5689 181.229 36.0316 177.323 36.4673 176.982C37.5279 176.151 37.9714 178.678 38.3661 179.356C40.7148 183.387 43.8109 180.646 40.6971 177.85C39.9568 177.185 38.7366 176.948 38.296 175.913C39.4288 175.598 41.1106 176.401 42.0838 176.121C43.0314 175.849 43.3651 174.65 42.727 173.902Z" fill="black"/>
<path d="M25.2959 95.7362C23.4604 96.1251 22.0399 94.9214 20.3575 94.7258C18.6628 94.5288 16.1332 94.8276 17.1985 97.035C18.7377 100.224 23.6018 97.4852 25.8224 98.4738C26.3639 98.7149 28.8756 102.266 28.2123 102.766C26.4423 102.728 26.1915 101.277 25.2878 100.3C23.6402 98.5176 23.3661 99.9511 21.4483 100.163C19.1693 100.415 16.7381 99.9532 15.6907 97.7401C13.7559 93.6519 18.2886 92.3553 21.5791 93.3933C21.7923 93.1907 19.1483 89.4737 22.4458 88.3878C23.092 88.175 23.5536 88.2942 24.044 88.1796C24.4151 88.0929 24.6694 86.8529 26.5545 87.6057C28.4577 88.3657 29.844 93.331 27.5545 94.4345C26.7774 94.272 27.6252 89.4921 25.5774 88.8247C24.7835 88.5659 23.3574 88.5835 22.7837 89.2383C20.7467 91.563 26.2041 94.8226 25.2959 95.7362Z" fill="black"/>
<path d="M199.412 51.7979C199.157 51.9824 199.08 53.274 198.883 53.7556C197.652 56.7758 193.055 58.5706 192.724 53.9522C192.408 49.5365 198.368 44.6811 202.68 44.7617C206.514 44.8335 206.321 50.2071 202.021 51.3666C201.437 51.5238 199.714 51.5795 199.412 51.7979ZM200.874 46.3392C198.409 46.8489 194.485 50.4345 194.066 52.9315C193.44 56.6647 196.087 55.7804 197.199 53.665C197.935 52.2668 196.702 50.4612 198.723 50.1908C199.782 50.0491 200.292 50.4658 201.623 49.9325C204.913 48.6137 204.498 45.5898 200.874 46.3392Z" fill="black"/>
<path d="M99.0589 228.494C99.3463 230.113 103.08 232.993 102.377 234.472C101.424 236.476 100.459 233.644 99.9714 232.932C99.1848 231.784 98.1802 230.368 97.3109 229.295C96.2129 227.94 93.2867 225.432 92.6926 223.933C92.5661 223.614 92.7584 223.424 93.0831 223.55C94.179 223.973 95.5206 225.68 96.9275 226.027C99.6203 226.692 100.512 225.366 102.727 228.147C103.414 229.01 106.237 233.882 105.178 234.628C103.594 235.743 102.742 231.537 102.289 230.658C101.59 229.301 100.685 228.559 99.0589 228.494Z" fill="black"/>
<path d="M94.813 231.094L94.5485 230.317C95.2494 229.744 99.1211 232.829 99.6019 233.556C99.813 233.876 99.93 234.074 99.8532 234.479C97.1155 234.207 94.2648 233.782 91.9178 232.244C90.4979 231.314 89.7555 229.938 88.2594 229.066C87.5737 228.666 83.3043 227.301 83.4051 227.063C83.6059 226.587 84.1214 226.716 84.5111 226.732C85.7621 226.783 87.6118 227.29 88.78 227.774C91.0864 228.73 92.4587 230.805 94.813 231.094Z" fill="black"/>
<path d="M202.734 83.0439C204.356 82.7489 208.786 82.7718 209.381 84.7276C210.464 88.2834 204.052 90.6836 201.744 88.3152C201.532 87.2957 204.135 88.0003 204.997 87.866C207.023 87.5503 209.471 85.3901 206.581 84.354C203.479 83.2415 201.02 85.4585 198.69 87.113C196.478 85.8047 201.623 83.2461 202.734 83.0439Z" fill="black"/>
<path d="M20.7148 178.057C22.2208 177.808 23.5123 178.196 24.8597 178.812C30.5056 181.395 23.0356 182.485 20.4108 182.136C16.8211 181.658 17.4191 178.601 20.7148 178.057ZM24.5001 180.594C24.1663 179.278 19.9788 178.932 19.7253 179.95C20.6337 181.612 22.9996 180.492 24.5001 180.594Z" fill="black"/>
<path d="M163.8 23.63C163.743 22.6234 165.062 22.7972 165.801 22.8408C171.702 23.1885 172.42 31.4671 165.738 28.8904C164.848 28.5475 162.183 26.586 163.971 26.2626C164.327 26.1983 169.176 29.9731 168.841 26.6494C168.65 24.7461 165.368 23.9707 163.8 23.63Z" fill="black"/>
<path d="M56.87 190.228C55.5688 190.468 54.2393 189.938 53.0229 189.946C51.6061 189.955 49.572 190.625 48.2428 190.617C46.4493 190.606 48.4288 188.624 49.0862 188.19C51.7313 186.441 56.4754 186.644 56.87 190.228ZM53.6852 188.925C52.9863 187.494 51.6343 188.413 50.5032 188.67C50.44 189.123 51.1068 188.915 51.4271 188.927C52.1778 188.955 52.9367 188.91 53.6852 188.925Z" fill="black"/>
<path d="M125.516 234.413C123.649 235.006 121.976 236.357 120.084 236.754C119.407 236.896 116.037 237.42 116.045 236.431C116.532 235.814 117.026 235.525 117.753 235.248C118.453 234.982 125.063 233.386 125.455 233.44C125.907 233.502 125.801 234.139 125.516 234.413Z" fill="black"/>
<path d="M18.4883 82.632C17.6852 81.7402 17.1226 79.6521 18.7358 79.891C19.2907 79.9731 22.2369 81.9217 22.3714 82.5997C22.978 85.6588 19.5873 83.8523 18.4883 82.632Z" fill="black"/>
<path d="M61.2956 28.1406C61.7092 28.5932 62.4025 29.9797 62.8611 30.6402C63.3464 31.3391 64.4444 31.6984 63.9069 32.7436C62.7888 34.9175 59.9472 30.18 59.6411 29.1053C59.2435 27.7094 60.441 27.2054 61.2956 28.1406Z" fill="black"/>
<path d="M57.6643 26.2323C56.4242 26.6924 55.1025 26.1778 53.8152 25.9775C52.9254 25.8391 51.8622 26.2222 51.1169 25.3757C50.2313 24.3699 51.6039 23.5592 52.6851 23.6787C53.2829 23.7448 58.3046 25.3626 57.6643 26.2323Z" fill="black"/>
<path d="M57.3179 27.3121C57.6478 27.2628 58.3666 27.9593 58.4178 28.2256C58.5742 29.0395 56.1759 32.3788 54.483 31.5707C52.7466 30.7419 56.6284 27.4151 57.3179 27.3121Z" fill="black"/>
<path d="M63.1607 19.7682C63.9958 19.5356 64.6869 20.2339 64.374 20.9529C64.2296 21.2848 61.7297 24.2153 61.3623 24.5257C60.7912 25.0083 59.9812 24.9998 59.8313 24.2468C59.7061 23.6183 62.48 19.9578 63.1607 19.7682Z" fill="black"/>
<path d="M24.2321 55.3923C24.4785 55.6202 22.7246 58.4842 22.5093 59.0357C22.3833 59.3585 21.7603 62.4916 21.4495 62.4171C18.7298 61.7653 22.7846 54.0527 24.2321 55.3923Z" fill="black"/>
<path d="M57.0559 20.0195C58.501 19.6498 59.505 24.4017 58.5844 24.673C57.4383 25.0106 55.9195 21.4012 56.1974 20.7811C56.2841 20.5877 56.8462 20.0732 57.0559 20.0195Z" fill="black"/>
<path d="M62.1023 25.5135C62.843 25.347 65.1863 25.2847 65.6497 25.8238C67.0936 27.5039 62.6947 27.473 61.8326 27.2243C60.7825 26.9215 60.8789 25.7887 62.1023 25.5135Z" fill="black"/>
<path d="M135.41 229.271C133.539 229.145 130.877 230.364 129.162 230.324C128.723 230.314 128.521 230.31 128.251 229.925C128.275 228.601 134.679 227.662 135.41 229.271Z" fill="black"/>
<path d="M38.0219 189.439C36.8625 189.527 34.1382 188.351 33.6598 187.358C32.5669 185.088 36.2533 187.077 37.0566 187.669C37.6944 188.139 38.4961 188.589 38.0219 189.439Z" fill="black"/>
<path d="M127.98 139.47C124.512 149.856 115.664 158.27 105.963 163.291C103.595 164.517 100.241 166.157 97.719 166.916C97.3162 167.037 96.3703 167.501 96.1416 166.929C99.8257 164.906 103.696 163.161 107.262 160.921C113.956 156.718 121.006 150.558 125.174 143.873C125.903 142.704 126.436 141.08 127.134 140.069C127.364 139.735 127.432 139.356 127.98 139.47Z" fill="black"/>
<path d="M109.14 139.471C107.46 142.108 103.976 144.156 101.148 145.554C92.7064 149.729 82.3035 151.156 72.9266 150.397C72.2467 150.342 71.2046 150.196 70.668 149.749L81.6755 149.358C89.1692 148.422 96.79 146.788 103.384 143.062C104.127 142.642 108.822 139.21 109.14 139.471Z" fill="black"/>
<path d="M128.244 105.631C127.736 107.563 125.14 109.25 123.383 110.101C119.815 111.83 115.403 112.088 111.571 111.184C108.588 110.48 105.587 109.103 103.571 106.797C103.458 106.159 104.041 106.386 104.38 106.525C105.162 106.847 106.174 107.737 107.188 108.195C111.701 110.231 116.975 110.664 121.684 108.955C124.011 108.11 125.889 106.224 128.244 105.631Z" fill="black"/>
<path d="M128.243 126.448C128.14 126.592 125.564 128.047 125.156 128.237C120.259 130.52 113.678 130.9 108.443 129.61C107.488 129.374 104.245 128.146 103.836 127.361C103.562 126.836 104.137 127.032 104.392 127.074C108.563 127.759 111.595 128.987 116.184 128.806C120.169 128.648 124.289 127.37 127.853 125.704C128.103 125.832 128.402 126.227 128.243 126.448Z" fill="black"/>
<path d="M111.528 145.456C111.772 145.688 111.183 146.199 111.002 146.37C103.952 153.034 92.2365 156.254 82.6074 156.125C84.0532 154.884 86.77 155.141 88.7646 154.749C94.1065 153.699 100.749 151.902 105.512 149.313C106.227 148.924 111.268 145.211 111.528 145.456Z" fill="black"/>
<path d="M124.796 156.907C126.828 156.727 128.771 153.898 130.239 153.268C130.566 153.127 130.728 153.322 130.63 153.651C130.135 155.299 123.706 159.524 121.939 159.728C119.385 160.024 121.095 158.299 122.004 157.424C123.467 156.016 125.227 154.962 126.646 153.388C128.618 151.2 129.838 148.493 131.692 146.237C130.939 150.465 127.702 153.897 124.796 156.907Z" fill="black"/>
<path d="M125.326 122.812C125.212 123.202 124.786 123.448 124.453 123.645C120.613 125.909 110.998 126.353 107.194 123.808C106.886 123.602 106.459 123.369 106.485 122.943C108.39 122.848 110.232 123.929 112.196 124.107C116.565 124.503 121.142 123.976 125.326 122.812Z" fill="black"/>
<path d="M129.305 107.713C130.046 108.49 126.198 111.398 125.627 111.781C124.75 112.368 119.879 115.15 119.225 114.216C118.475 113.146 122.54 112.164 123.171 111.714L129.305 107.713Z" fill="black"/>
<path d="M118.958 112.66C117.839 114.444 110.356 114.204 109.407 113.174C109.383 113.147 109.307 112.624 109.542 112.654C112.616 113.289 115.849 112.778 118.958 112.66Z" fill="black"/>
<path d="M128.776 54.0875C127.051 53.8163 126.622 54.2493 126.191 55.8482C125.664 57.8022 126.308 58.9771 124.802 60.7328C121.447 64.6445 114.871 63.3994 111.26 60.4693C110.56 59.9007 108.41 57.3897 107.888 57.2496C107.043 57.0228 105.364 58.5662 105.162 57.5982C104.978 56.7225 108.859 53.7498 109.807 53.8358C110.782 53.9242 109.51 55.577 109.79 55.9215C113.27 57.2755 122.827 57.1342 125.331 54.2229C126.281 53.1178 125.262 51.2783 127.11 51.9459C128.031 52.2789 128.995 53.0243 128.776 54.0875ZM123.998 57.2136C120.383 57.9768 116.69 58.3779 112.975 58.2673C112.192 58.244 111.201 57.5519 111.523 58.6442C111.608 58.9324 114.954 60.5411 115.515 60.7205C118.797 61.7692 124.095 61.6539 123.998 57.2136Z" fill="black"/>
<path d="M99.8559 49.1396C99.4651 48.6491 102.335 48.0687 102.499 47.9619C102.885 47.7113 103.439 46.1165 103.962 45.4928C106.001 43.0636 109.915 43.0289 111.793 45.6299C113.763 48.3582 109.889 46.8063 108.731 46.7934C107.588 46.7806 105.94 47.4201 105.069 48.1406C104.445 48.6571 104.05 49.7407 103.118 49.8745C102.233 50.0016 100.767 49.2868 99.8559 49.1396Z" fill="black"/>
<path d="M92.9531 60.0807C93.5991 60.9714 91.2992 61.3682 89.8921 60.0869C87.836 58.2149 89.5116 57.4069 89.21 56.3419C89.0352 55.7246 87.7033 55.4868 87.1154 55.7756C86.7821 55.9394 84.688 59.3558 84.7181 56.2988C84.7524 52.8188 90.8506 53.9229 91.5168 56.6944C91.8784 58.1984 90.0984 57.8088 92.2979 59.8223C92.5209 60.0264 92.9327 60.0524 92.9531 60.0807Z" fill="black"/>
<path d="M107.017 36.6535C107.823 37.8176 105.031 37.9294 104.623 38.0741C102.791 38.7227 101.992 40.2417 100.783 41.59C99.8909 40.9345 100.057 40.5559 100.414 39.6694C101.063 38.0536 103.312 36.2787 105.097 36.188C105.422 36.1715 106.961 36.5732 107.017 36.6535Z" fill="black"/>
<path d="M116.838 50.1829C116.324 49.7275 119.451 47.2355 120.968 48.864C121.672 49.6199 121.962 50.9716 120.69 51.2243C119.728 49.3377 118.595 49.988 116.838 50.1829Z" fill="black"/>
<path d="M129.71 178.513C130.891 178.278 133.996 181.628 134.399 182.765C134.502 183.058 134.684 183.362 134.21 183.46C133.06 183.696 130.077 180.172 129.562 179.169C129.405 178.864 129.217 178.611 129.71 178.513Z" fill="black"/>
<path d="M101.445 190.228C101.844 190.664 100.15 192.394 99.7258 192.308C98.3223 192.026 101.232 189.996 101.445 190.228Z" fill="black"/>
<path d="M112.492 82.7423C113.324 82.5078 115.851 84.0809 115.125 85.0747C114.296 86.2079 110.611 83.272 112.492 82.7423Z" fill="black"/>
</svg>
