<svg width="381" height="286" viewBox="0 0 381 286" fill="none" xmlns="http://www.w3.org/2000/svg">
<path d="M192.844 183.419C193.809 177.618 205.538 176.924 209.523 179.483C212.954 181.686 211.855 186.542 212.615 189.909C214.438 190.232 216.267 190.336 218.125 190.261C219.977 187.477 222.106 184.869 224.049 182.147C225.593 179.984 228.544 174.64 230.328 173.241C234.909 169.649 246.688 174.325 246.574 180.062C246.504 183.604 240.634 189.651 238.977 192.986C250.014 195.278 261.385 197.624 271.458 202.858C278.684 206.613 283.394 210.332 283.908 218.955C284.362 226.579 283.605 234.964 282.682 242.513C283.558 242.198 285.185 242.915 285.807 242.77C286.756 242.549 290.271 239.904 291.484 239.326C296.504 236.933 302.383 237.319 307.571 239.019C316.066 241.802 317.604 248.12 308.11 251.109C305.041 252.075 300.313 252.597 297.099 252.568C291.409 252.517 284.328 249.921 278.59 251.028C277.901 251.161 275.204 253.689 274.28 254.31C273.787 254.641 272.144 255.194 272.06 255.281C271.131 256.24 273.764 255.571 274.017 255.566C278.855 255.466 284.754 255.319 289.507 255.887C290.44 255.998 292.161 256.272 292.696 257.096C290.733 257.546 288.494 257.911 286.487 258.023C280.879 258.337 273.76 257.026 268.595 257.733C266.653 257.999 261.789 260.546 259.469 261.359C257.429 262.074 255.333 262.639 253.244 263.18C253.171 263.708 253.932 263.465 254.299 263.478C261.933 263.759 270.721 261.053 277.983 263.777C285.79 266.705 281.617 271.248 275.829 272.876C270.83 274.282 264.416 274.178 259.458 272.599C256.83 271.762 253.059 270.25 255.82 267.125L258.703 265.306C255.497 265.113 252.327 265.581 249.129 265.621C243.408 265.692 239.748 266.74 234.177 267.638C204.015 272.496 171.67 272.849 141.451 268.29C136.828 267.593 131.228 265.987 126.831 265.611C122.558 265.245 116.738 266.505 112.278 266.529C109.392 266.545 106.489 266.044 103.616 265.909C102.773 265.268 105.681 264.832 105.976 264.78C110.165 264.038 114.844 264.152 119.093 264.084C118.998 263.511 118.454 263.588 118.067 263.443C112.299 261.285 108.169 260.239 101.933 260.429C98.4241 260.536 94.8608 261.142 91.3083 261.064C90.4607 261.045 85.0469 260.65 84.7962 260.44C84.2857 260.011 84.9134 259.909 85.2186 259.8C86.4716 259.354 88.7312 259.085 90.111 258.925C94.2712 258.439 98.5204 258.319 102.702 258.311L95.1523 254.53C91.5124 254.846 62.8832 255.518 62.3362 253.906C62.1362 253.316 63.1155 253.316 63.4853 253.242C70.096 251.914 80.4639 252.146 87.3916 252.223C88.8861 252.24 90.171 252.78 91.7778 252.235C89.8851 250.601 88.1579 248.875 86.7199 246.819C81.8896 246.564 77.017 246.981 72.1895 246.781C70.7482 246.722 68.7673 246.602 67.35 246.461C66.4709 246.373 64.7302 246.168 63.9724 245.892C63.5459 245.736 63.4602 245.981 63.5519 245.253C70.7776 244.109 78.104 244.343 85.4032 244.336L84.4637 240.115C80.2411 239.811 75.8106 240.728 71.7482 239.326C75.6519 237.897 80.0965 237.835 84.1917 238.263C84.0841 231.78 83.4637 224.832 83.8898 218.363C84.5338 208.584 91.9381 204.436 100.071 200.836C112.195 195.468 126.319 193.096 139.426 191.469C137.458 185.98 132.675 181.957 139.418 177.636C143.424 175.07 149.976 173.343 153.025 178.011C154 179.504 158.717 189.438 159.353 189.616C165.47 189.14 171.662 188.929 177.818 188.733C178.398 188.714 178.983 188.435 179.629 188.42C184.151 188.31 188.628 188.905 193.147 188.734C193.262 188.406 192.844 188.071 192.844 187.976C192.844 186.66 192.648 184.599 192.844 183.419ZM243.222 181.745C244.921 179.211 242.056 176.602 239.899 175.507C237.415 174.247 232.464 172.858 231.696 176.582C234.826 175.223 240.714 178.174 242.632 180.672C242.947 181.083 242.713 181.783 243.222 181.745ZM146.038 177.579C143.419 177.894 139.307 179.721 138.346 182.363C139.423 183.692 140.982 183.149 142.413 182.761C145.556 181.908 154.855 176.519 146.038 177.579ZM223.498 196.028C225.299 196.022 225.526 195.962 227.231 197C229.327 198.276 228.979 198.758 230.165 200.404C230.405 200.738 230.514 200.72 230.787 200.439C232.821 197.191 234.704 193.838 236.724 190.583C237.369 189.544 240.244 185.822 240.43 185.177C242.013 179.669 234.717 176.186 230.307 178.082L218.395 195.022L218.341 195.724C219.622 195.311 221.718 195.036 222.992 195.487C223.426 195.64 223.407 195.96 223.498 196.028C221.328 196.035 219.239 196.151 217.207 197.025C214.754 200.791 212.255 204.507 210.144 208.482C211.887 208.007 212.221 210.324 213.183 210.76C213.992 211.128 215.193 210.803 216.223 211.059C218.534 211.635 218.803 214.43 221.367 211.652L219.25 208.94C220.76 208.454 218.734 208.601 218.947 207.575C220.043 207.975 222.078 209.178 222.419 210.283C222.486 210.5 222.212 210.87 222.285 210.913C222.446 211.009 223.995 210.527 224.271 210.323C224.999 208.853 229.485 203.497 229.493 202.319C229.516 199.081 225.578 197.585 223.498 196.028ZM159.443 196.307L150.506 179.323C149.617 180.133 149.159 181.091 148.202 181.873C146.049 183.633 142.541 183.916 141.396 186.933C141.021 187.923 146.22 198.98 147.013 200.741C149.917 201.187 153.321 200.45 155.792 198.89C157.101 198.063 157.961 196.819 159.443 196.307ZM201.275 180.313C200.132 180.442 196.182 181.299 196.174 182.811C196.172 183.245 196.6 183.692 197.004 183.812C197.962 184.099 203.241 183.971 204.491 183.837C206.905 183.576 211.024 181.994 206.567 180.619C204.97 180.127 202.933 180.125 201.275 180.313ZM209.537 202.561C209.692 199.081 209.422 195.559 209.537 192.078C207.642 193.519 205.179 193.727 202.86 193.594C202.965 193.014 203.491 193.091 203.908 192.975C206.349 192.298 209.884 192.81 209.235 189.038C207.211 189.246 205.542 188.073 203.467 188.429C204.119 186.862 208.565 188.529 208.933 188.295C210.134 186.285 206.673 185.25 205.133 185.094C203.078 184.885 201.207 185.436 199.372 185.419C198.356 185.41 197.056 184.979 196.035 184.782C195.506 184.755 196.744 190.494 196.489 191.167C197.409 190.565 197.51 189.434 198.914 189.651C198.633 190.31 196.669 191.621 197.222 192.396C197.631 192.968 201.358 193.628 202.254 193.599C202.764 193.984 202.215 194.15 201.803 194.206C200.042 194.444 198.442 193.715 196.792 193.295L197.99 206.77L199.216 207.423L198.302 207.73C198.893 208.68 199.386 212.418 200.585 212.332C200.797 212.317 201.397 211.742 201.865 211.589C204.584 210.698 206.102 211.182 207.109 207.881C206 207.642 204.926 208.121 203.919 208.184C203.401 208.216 203.176 207.867 203.468 207.578C203.667 207.381 207.158 206.449 207.699 206.962C208.331 205.045 209.441 204.718 209.537 202.561ZM173.014 194.71C173.233 194.497 174.889 191.799 174.874 191.62C174.784 190.574 172.336 191.158 171.583 191.303C169.238 191.756 164.594 193.702 163.271 195.74C161.505 198.462 165.23 197.822 166.804 197.457C167.947 197.192 172.277 195.427 173.014 194.71ZM193.755 196.025C192.976 195.022 194.043 191.567 192.954 191.209L179.795 190.864L183.029 195.676L193.755 196.025ZM182.222 200.886C181.906 199.463 177.73 190.188 175.864 191.485C175.704 191.596 174.716 194.586 174.477 195.119C176.274 197.874 178.797 200.49 182.222 200.886ZM164.922 191.774H160.369L161.74 194.21L164.922 191.774ZM212.572 192.382V197.851C213.283 198.036 213.081 197.682 213.268 197.465C214.456 196.086 215.452 194.193 216.517 192.689L212.572 192.382ZM140.615 193.621C130.38 194.947 119.981 196.873 110.134 199.972C103.501 202.06 96.8133 204.673 91.5591 209.31C91.3537 209.491 90.9763 209.293 91.1725 210.003C93.1966 209.627 94.9874 210.356 96.8177 210.58C97.8055 210.701 98.8181 210.507 99.795 210.638C100.778 210.77 104.333 212.532 104.812 212.115C104.896 212.042 105.166 210.678 105.608 210.025C109.164 204.77 122.396 201.631 128.445 200.377C133.059 199.421 137.78 198.702 142.461 198.153L140.615 193.621ZM279.948 215.472C280.016 215.044 279.909 214.664 279.8 214.256C277.623 206.135 257.461 199.793 250.032 197.873C248.365 197.442 237.944 195.003 237.203 195.471C236.934 195.642 235.533 199.014 235.039 199.524C235.239 199.872 235.489 199.863 235.803 199.964C242.704 202.185 257.54 203.773 261.688 210.511C262.166 211.286 262.277 212.644 262.359 212.726C262.558 212.923 267.07 212.68 267.958 212.742C272.073 213.03 276.137 213.918 279.948 215.472ZM173.698 196.652C173.297 196.368 166.176 200.829 164.62 200.283C165.155 202.636 168.702 201.15 170.385 200.893C169.453 202.058 167.179 202.75 165.835 202.105L168.895 208.466C171.762 208.183 174.465 207.829 177.075 206.523C178.721 205.7 180.126 204.114 181.917 203.62C179.109 201.403 175.159 200.231 173.698 196.652ZM160.368 197.549C160.07 197.222 156.948 199.72 156.327 200.033C153.899 201.258 150.329 202.236 147.624 202.106L151.944 211.145C152.793 211.89 158.302 212.507 158.549 212.742C159.559 213.706 155.994 212.984 155.818 213.808C155.788 213.948 157.091 215.876 157.298 216.27C157.71 217.051 157.426 218.167 158.546 218.212C158.503 218.725 157.737 218.462 157.164 218.797C157.034 218.874 155.858 220.101 155.823 220.191L157.526 221.796C157.686 221.828 160.211 221.033 160.463 220.884C161.01 220.559 161.054 220.011 161.421 219.716C162.092 219.177 163.394 219.165 164 218.364L162.8 216.993C163.226 218.507 161.841 218.377 160.675 218.814C160.345 217.331 161.528 218.505 162.185 217.448L158.852 214.261L161.278 215.168C160.644 211.172 163.584 210.206 166.741 211.826C165.833 209.547 164.703 207.307 163.563 205.137C162.292 202.718 159.973 200.419 160.368 197.549ZM194.359 205.143C194.346 204.718 194.442 204.229 194.313 203.824C194.17 203.377 189.908 200.563 189.506 202.261C189.411 202.664 191.292 204.44 191.706 204.611C192.572 204.97 193.519 204.685 194.359 205.143ZM182.804 204.253C181.315 204.076 180.655 205.622 179.592 206.308C176.583 208.25 173.037 209.437 169.475 209.704L176.215 221.811C177.77 221.206 179.656 223.348 180.857 223.352C182.082 223.356 187.638 218.272 190.111 219.422L182.804 204.253ZM142.558 208.381C144.137 209.408 144.68 208.94 145.343 207.254C145.792 206.113 144.027 205.151 143.077 205.595C142.923 205.667 141.606 207.004 141.559 207.129C141.502 207.39 142.482 208.331 142.558 208.381ZM236.851 209.395C237.309 208.972 233.466 205.248 232.901 205.581C232.059 206.076 232.366 207.956 232.916 208.628C233.898 209.827 235.499 209.701 236.851 209.395ZM187.235 205.75C186.067 205.987 187.734 206.81 187.822 206.956C187.963 207.192 187.55 207.75 187.969 208.031C188.309 208.26 189.077 208.228 189.62 208.523C190.768 209.145 191.473 209.964 193.122 210.79C193.408 210.933 194.468 212.402 194.666 211.366C195.084 209.183 188.666 205.459 187.235 205.75ZM136.696 207.878C136.828 207.22 138.187 207.466 138.511 206.814L137.511 206.106L134.27 208.178C135.114 208.209 135.839 207.876 136.696 207.878C136.555 208.579 136.801 208.355 137.121 208.525C138.457 209.239 139.977 209.859 141.247 208.636C139.614 208.862 138.364 207.882 136.696 207.878ZM122.698 210.273C122.896 209.931 122.676 209.516 122.452 209.223C121.32 207.742 116.291 209.029 115.149 210.462L116.664 210.614C116.899 210.824 115.138 212.893 115.888 213.97C117.179 214.954 117.985 213.183 118.994 212.487C119.579 212.084 122.589 210.46 122.698 210.273ZM130.625 208.791C129.202 208.776 126.498 208.572 126.075 210.307L128.893 210.246L130.625 208.791ZM250.511 212.737C251.764 212.919 257.336 212.068 256.851 210.218C256.473 208.779 254.441 208.573 253.243 209.096L253.847 209.548C253.576 210.04 249.954 212.258 250.511 212.737ZM207.109 211.522C208.171 211.331 210.515 212.624 210.767 211.06C210.942 209.969 210.11 209.304 209.112 209.116L207.109 211.522ZM248.079 209.705C246.322 208.824 244.526 209.12 242.617 209.094C242.376 210.654 243.232 209.776 244.288 209.702L248.079 209.705ZM140.034 212.136C139.861 211.958 135.899 210.22 135.5 210.14C132.063 209.443 132.189 211.522 130.276 212.235C127.542 213.255 125.412 211.593 123.562 212.506C122.749 212.908 122.097 213.978 121.37 214.563C120.443 215.309 119.075 215.724 118.486 216.99C120.928 216.32 123.025 218.207 125.037 218.484C127.59 218.836 130.732 217.695 132.906 216.387C133.138 215.506 130.524 216.217 131.389 215.166C132.272 215.403 135.168 216.166 135.183 217.133C135.192 217.725 134.191 218.811 134.571 219.727L137.302 219.726C137.335 219.069 136.804 218.703 136.704 218.035C136.299 215.315 138.795 213.786 138.815 213.499C138.872 212.655 136.747 213.897 136.698 213.046C136.834 212.873 140.975 213.106 140.034 212.136ZM144.282 210.616L141.249 210.008C141.401 210.369 142.007 211.084 142.346 211.148C142.444 211.167 144.301 211.014 144.282 210.616ZM238.672 211.826C238.656 210.169 235.508 211.048 234.729 211.677C234.353 211.98 233.611 213.343 233.509 213.799C233.301 214.728 234.953 213.484 234.422 214.407C234.203 214.789 233.567 214.804 233.516 214.872C233.009 215.549 234.101 215.427 234.397 215.639C234.755 215.895 234.856 216.395 235.177 216.694C236.341 217.776 236.307 216.763 237.246 216.322C238.545 215.712 243.303 214.843 241.508 213.091L237.317 212.458C236.677 212.154 234.819 213.547 234.573 213.043C234.345 212.577 235.065 212.439 235.39 212.339C236.397 212.03 237.615 211.856 238.672 211.826ZM191.933 212.736L189.509 211.22C189.313 211.437 190.349 213.331 190.565 213.334C190.64 213.334 191.405 212.513 191.933 212.736ZM247.121 213.301C247.284 213.206 247.993 212.085 247.466 211.685C246.675 211.083 245.28 210.994 244.747 211.989C244.613 212.62 246.668 213.567 247.121 213.301ZM104.807 213.975C104.653 213.807 101.043 213.397 100.411 212.756L89.8746 211.573C87.8372 212.966 87.8236 215.692 88.6861 217.809C91.2244 224.039 104.195 228.631 110.227 230.578C114.065 231.817 120.604 232.816 123.821 234.288C125.039 234.845 124.501 235.622 123.486 235.822C121.31 236.25 112.235 233.516 109.622 232.703C106.484 231.726 103.386 230.377 100.277 229.447L99.9763 230.359C99.8209 228.352 98.5169 228.886 97.5618 228.369C96.4827 227.785 95.3009 226.565 93.9025 226.415C92.8865 227.269 102.416 232.802 103.105 233.15C106.971 235.105 111.247 236.226 115.146 238.111C112.702 238.143 110.392 236.722 108.091 236.058L99.0636 231.882C99.0393 232.398 99.0265 232.917 99.1979 233.416C99.4479 234.145 100.574 234.653 100.126 235.221L99.3685 234.615C99.3428 235.619 99.4538 236.974 99.9059 237.872C100.067 238.192 102.545 240.435 102.932 240.683C104.673 241.796 108.922 243.242 111.045 244.04C112.008 244.401 116.757 245.634 116.969 245.86C116.991 245.884 117.079 246.502 116.822 246.46C112.495 245.251 108.436 243.439 104.144 242.189C103.807 242.091 104.15 241.308 103.008 241.905L103.307 241.317C102.183 241.582 100.927 238.892 100.428 238.875C99.3965 238.841 100.672 240.735 100.719 240.96C100.967 242.152 100.477 242.655 101.541 244.135C104.126 247.733 116.304 250.969 120.611 252.693L130.018 255.273C119.191 253.658 107.215 250.534 98.1719 244.166C97.6291 243.783 97.2808 243.162 96.7963 242.808C96.3534 242.485 95.7267 242.538 95.2535 242.226C94.3848 241.653 93.987 240.145 93.7393 239.184C92.7688 235.421 93.1022 228.158 91.8096 225.317C91.3228 224.247 89.2365 223.573 89.0425 222.16C88.5442 222.078 88.7606 222.57 88.7427 222.913C88.5155 227.266 89.0707 238.716 90.7199 242.511C94.733 251.744 117.424 257.6 126.677 259.685C160.377 267.28 202.031 267.837 235.998 261.561C245.826 259.745 269.972 254.015 275.65 245.653C279.017 240.694 278.704 230.548 279.116 224.51C279.139 224.166 279.727 223.911 278.891 223.984L275.146 227.224L273.269 240.387C272.74 240.458 272.985 239.698 272.97 239.329C272.914 237.938 273.26 236.888 273.285 235.691C273.342 232.999 272.826 230.53 273.573 227.931C270.925 229.181 272.046 229.568 271.741 231.394C271.191 234.689 269.713 243.025 267.808 245.4C264.167 249.941 248.836 253.918 242.979 255.181C239.772 255.872 236.486 256.512 233.212 256.792L247.237 253.367C252.101 251.949 256.89 250.162 261.338 247.734C263.373 246.624 267.001 245.189 266.749 242.517C263.816 243.769 260.907 245.109 257.858 246.074C255.255 246.898 251.089 248.108 248.459 248.516C248.135 248.567 247.405 248.84 247.477 248.291C249.336 247.777 260.804 244.63 261.395 243.691C261.52 243.491 261.405 243.092 261.433 242.816L260.832 242.672C261.414 241.874 263.504 237.363 262.952 236.744L256.205 239.253L249.904 240.845C253.98 238.884 258.453 237.786 262.559 235.892C263.15 235.619 264.421 234.981 264.973 234.691C266.597 233.835 268.934 232.895 268.718 230.667C268.61 230.549 265.963 231.601 265.707 231.751C265.315 231.983 264.457 233.086 264.319 233.085C264.155 233.084 261.913 231.35 262.362 230.683C262.521 230.447 266.823 228.889 267.615 228.496C270.398 227.115 280.235 221.989 279.663 218.368C279.494 217.296 275.32 215.822 274.2 215.608C272.851 215.351 270.224 214.969 268.867 214.871C268.105 214.816 262.916 214.698 262.683 214.901C262.582 214.99 262.1 216.774 261.689 217.398C255.644 226.569 224.806 230.437 214.238 231.27C198.41 232.518 182.189 232.477 166.36 231.319C165.257 231.512 162.891 234.27 161.861 235.045C160.168 236.317 158.225 237.004 156.506 238.476C156.287 238.663 155.933 238.466 156.122 239.171C158.415 238.947 160.705 239.35 162.952 239.474C178.609 240.338 194.301 240.053 210.003 240.073L211.054 240.689C209.394 240.996 207.728 241.413 206.044 241.601C191.148 243.261 176.027 241.758 161.141 241.287C159.518 241.236 156.042 240.903 155.035 242.188C154.186 243.27 154.724 246.279 154.599 247.828C154.28 251.782 152.564 255.179 157.433 257.152C162.222 259.092 171.605 259.644 176.898 259.846C183.002 260.079 189.164 259.645 195.271 259.837L192.402 260.454C185.022 260.221 177.593 260.717 170.219 260.456C166.327 260.318 159.572 260.069 156.122 258.465C154.888 257.892 154.1 256.752 152.786 256.475C154.093 253.211 152.753 250.57 152.483 247.523C152.341 245.919 152.195 241.19 152.621 239.769C153.694 236.196 159.598 234.552 162.286 231.825C162.55 231.558 162.951 231.569 162.796 230.971C155.794 230.733 148.691 230.086 141.743 229.107C137.22 228.47 132.293 227.614 127.837 226.621C122.198 225.365 107.689 221.669 105.271 216.095C104.952 215.362 104.88 214.055 104.807 213.975ZM212.876 212.135C214.525 213.528 216.28 214.658 218.332 213.195C216.727 211.641 214.945 211.009 212.876 212.135ZM114.843 214.865C114.63 214.182 116.108 211.563 114.433 211.854C112.456 212.196 114.283 215.567 114.843 214.865ZM229.265 215.474C229.918 213.278 228.077 211.261 225.911 211.958C225.759 212.007 223.299 213.533 223.197 213.656C222.818 214.11 224.74 215.06 224.866 215.068C225.209 215.089 225.892 214.372 226.634 214.541C226.93 214.608 226.903 215.284 227.326 215.429C227.876 215.617 228.666 215.418 229.265 215.474ZM143.596 213.111C142.7 213.294 139.057 215.67 138.869 216.608C138.563 218.133 139.8 217.796 140.506 218.496C141.104 219.091 141.01 220.059 142.047 220.599C142.885 221.035 145.011 221.114 145.946 220.936C146.902 220.754 147.317 219.441 148.445 219.184C149.201 219.012 150.293 219.077 151.081 219.153C152.077 219.249 153.312 220.214 153.968 219.247C154.849 217.949 153.913 217.525 153.761 216.76C153.68 216.354 153.975 215.949 153.919 215.662C153.635 214.199 151.6 214.113 150.647 213.813C147.767 212.907 148.982 213.609 146.864 213.614C145.847 213.616 145.192 212.786 143.596 213.111ZM213.389 214.962C211.568 213.408 210.254 214.257 208.476 214.256C206.638 214.255 205.562 212.901 203.62 214.259C200.229 216.63 206.218 217.482 207.24 218.233C207.756 218.611 207.62 219.253 207.908 219.452C208.57 219.91 210.046 219.656 211.209 220.636C212.597 221.804 213 224.948 215.148 224.923C215.764 224.916 216.534 224.516 216.938 224.571C217.222 224.61 216.836 225.501 218.05 225.066C219.995 224.369 220.32 220.831 218.753 220.354C217.898 220.093 217.322 221.708 216.97 220.943C216.778 220.527 217.474 220.429 217.301 220.031C217.092 219.555 215.903 219.047 215.466 218.501C214.764 217.625 214.332 215.766 213.389 214.962ZM194.36 213.956C193.611 213.948 191.266 214.315 191.055 215.066C190.889 215.655 192.028 217.85 192.521 218.057C192.84 218.191 193.269 217.845 193.557 217.891C193.797 217.929 193.619 218.952 194.967 218.209L193.453 218.817C194.636 222.239 202.439 219.043 200.133 215.922C199.875 215.573 198.13 214.391 197.778 214.302C196.97 214.098 196.738 214.962 196.159 215.298C195.51 215.676 194.678 215.786 194.061 216.385L194.36 213.956ZM254.151 214.262C252.918 213.818 251.368 213.91 250.135 214.338C249.763 214.467 247.689 215.584 247.357 215.811C246.719 216.249 245.654 218.392 246.097 219.123C247.028 220.659 250.532 219.14 251.428 218.064C252.016 217.355 251.895 216.607 252.321 215.919C252.571 215.515 254.29 214.449 254.151 214.262ZM243.533 218.511C244.046 218.894 245.829 216.092 245.909 215.555C246.109 214.205 244.19 214.344 243.355 214.844C242.72 215.718 244.12 216.653 243.83 216.993L242.925 216.385L243.533 218.511ZM227.22 221.166C226.198 220.509 225.291 217.266 222.558 215.958C220.632 215.036 214.556 214.036 217.934 217.246C218.414 217.702 223.088 220.69 223.68 220.913C224.62 221.266 225.374 221.098 226.008 221.316C227.328 221.769 228.779 222.895 230.174 222.615C229.606 221.325 227.854 221.574 227.22 221.166ZM242.012 219.12C242.755 215.822 237.623 215.983 237.763 219.12H242.012ZM239.583 223.978C237.195 221.341 232.618 217.398 228.83 217.92C227.825 218.058 225.929 219.155 228.053 219.122C226.893 221.134 229.065 220.553 230.049 221.829C230.619 222.569 230.52 223.926 231.611 224.232C232.223 224.405 235.794 223.35 236.621 223.044C236.905 222.939 236.922 222.481 237.003 222.456C238.52 221.98 237.299 224.141 237.46 224.283L239.583 223.978ZM121.825 220.636C121.094 218.35 119.03 219.027 117.273 219.731C118.282 221.093 120.378 220.532 121.825 220.636ZM127.288 221.243C128.176 221.35 133.011 220.814 133.048 219.879C133.071 219.293 132.274 219.557 131.932 219.664C130.611 220.074 129.542 220.245 128.304 220.593C127.895 220.708 127.38 220.715 127.288 221.243ZM171.186 221.356C169.891 219.966 167.41 219.366 165.609 219.961C165.14 220.116 162.682 221.586 163.102 222.154C166.167 223.025 169.011 225.201 171.895 222.753C172.064 222.51 171.395 221.58 171.186 221.356ZM206.503 222.467C209.097 221.128 205.44 221.136 204.593 220.879C203.951 220.684 203.379 219.661 202.136 219.811C201.874 219.843 199.438 221.396 199.347 221.551C199.103 221.967 199.631 222.52 199.497 222.721C199.381 222.897 197.905 223.3 198.022 224.097C198.354 226.012 206.208 225.421 207.106 223.217C207.396 222.506 206.378 223.007 206.503 222.467ZM183.132 224.282C185.21 223.459 188.13 226.361 189.351 226.442C190.456 226.515 191.917 225.625 191.912 224.437C191.911 224.175 190.463 221.189 190.26 220.947C189.82 220.422 187.455 220.535 186.786 220.803C185.735 221.224 183.942 223.371 183.132 224.282ZM144.587 225.801C143.692 224.42 140.508 222.121 138.954 221.875C136.839 221.54 135.056 222.426 133.191 222.751C132.141 222.933 130.835 222.652 129.718 223.073L132.537 223.435C134.132 224.29 140.801 225.822 142.271 225.517C142.484 225.472 142.462 224.984 142.515 224.956C143.085 224.662 143.803 225.995 144.587 225.801ZM147.624 223.976C148.533 224.105 150.732 225.493 151.417 225.483C151.919 225.475 152.298 225.003 152.696 224.948C153.376 224.855 154.02 225.335 154.985 225.137C157.582 224.603 155.278 221.997 152.946 221.836C151.489 221.736 148.066 222.327 147.624 223.976ZM222.285 225.194C223.644 221.953 219.061 222.815 219.858 223.976C219.948 224.108 222.42 225.617 222.572 225.668C223.087 225.84 225.58 226.425 226.076 226.442C226.67 226.462 229.368 226.107 229.567 225.651C228.196 223.961 227.419 225.337 226.746 225.169C226.28 225.052 224.406 222.531 223.759 224.102C223.369 225.045 223.828 225.401 222.285 225.194ZM158.85 223.071C158.177 222.386 157.221 224.113 157.64 224.891C158.508 225.147 159.192 223.418 158.85 223.071ZM205.895 225.801C208.476 226.725 213.153 225.584 208.794 223.661L205.895 225.801ZM178.508 225.27C178.389 225.169 175.831 224.094 175.629 224.051C173.08 223.515 171.807 224.959 170.078 226.56C169.685 226.923 169.097 227.322 169.172 227.929C173.956 228.746 178.835 228.235 183.602 228.854L187.987 228.385C186.664 228.129 185.261 227.576 183.89 227.599C182.831 227.617 182.033 228.268 181.535 228.198C181.172 228.148 179.349 226.681 178.969 226.325C178.692 226.067 178.752 225.478 178.508 225.27ZM168.258 225.805C167.924 225.517 165.654 226.724 165.366 226.728C164.718 226.734 164.586 225.736 163.937 225.414C162.69 224.797 160.272 225.785 160.067 227.322C162.487 227.393 165.654 228.19 167.691 226.595C167.847 226.473 168.783 226.257 168.258 225.805ZM193.451 228.539H198.004L194.82 226.4C193.82 226.433 194.387 227.316 194.168 227.853C193.963 228.355 193.383 228.041 193.451 228.539ZM97.5444 232.485C97.7235 231.693 95.3701 229.223 95.1179 230.518C95.023 231.005 97.0014 232.918 97.5444 232.485ZM97.4686 233.172C97.2196 232.863 94.9546 232.103 94.5125 231.273C93.9364 234.154 96.1791 234.916 98.0012 236.437C98.2727 235.924 97.7167 233.48 97.4686 233.172ZM264.777 238.571C264.813 238.53 265.289 238.494 265.526 238.269C266.101 237.725 269.809 234.54 269.324 234.008C268.174 234.799 264.779 235.469 264.03 236.453C263.368 237.322 263.433 239.118 263.112 240.091C262.803 241.025 261.885 242.318 261.735 243.274C261.669 243.693 261.745 243.857 262.188 243.726C262.66 243.586 267.355 241.116 267.531 240.869C267.91 240.334 268.349 236.992 268.413 236.135C267.601 236.563 267.412 237.685 266.751 238.266C266.342 238.626 263.786 239.689 264.777 238.571ZM98.4519 239.477C98.6043 237.216 96.5024 235.95 94.816 234.919C94.5405 237.503 96.4894 238.46 98.4519 239.477ZM99.6674 243.121C99.3004 240.898 97.8725 239.671 95.7251 239.174C95.0505 240.515 99.3934 243.409 99.6674 243.121ZM296.644 249.805C300.403 249.638 304.675 249.463 308.244 248.205C315.691 245.58 309.546 241.98 305.206 240.778C298.925 239.04 293.258 239.995 288.17 244.212C286.125 245.906 285.803 246.941 288.453 248.131C293.518 250.405 296.873 248.18 301.495 246.161C302.044 247.576 295.618 248.906 296.644 249.805ZM279.949 248.896H284.199C282.719 246.944 283.601 245.933 284.5 244.036C281.712 243.596 282.293 244.762 281.379 246.528C280.955 247.348 280.437 248.118 279.949 248.896ZM278.641 266.911C278.01 266.203 274.967 265.294 273.941 265.089C269.461 264.194 265.457 264.572 261.372 266.606C260.841 266.871 257.613 268.591 258.098 269.249C260.069 269.662 262.948 270.88 264.923 270.793C266.362 270.729 269.253 269.131 270.538 268.341C270.302 269.826 268.459 270.347 267.203 270.471C267.427 271.21 268.257 271.106 268.859 271.083C270.751 271.01 278.11 269.836 278.9 268.028C279.078 267.619 278.914 267.217 278.641 266.911Z" fill="black"/>
<path d="M153.694 161.693C152.991 161.087 157.555 158.538 157.944 158.204C163.45 153.472 156.463 150.819 152.288 149.884C145.087 148.27 128.321 148.794 123.817 142.533C121.325 139.069 123.471 135.059 126.402 132.704C135.42 125.457 151.313 126.781 162.189 123.562C178.729 118.666 160.83 112.492 154.124 110.674C142.896 107.629 113.356 104.885 115.833 87.7897C117.007 79.6951 127.527 75.3469 133.207 70.8491C133.551 71.4644 132.264 72.4446 131.844 72.8269C126.157 78.0066 114.025 84.193 119.229 93.955C125.634 105.973 154.938 105.709 166.415 112.649C176.532 118.767 169.708 123.43 161.886 125.689C154.389 127.854 145.495 128.366 139.024 133.185C130.464 139.561 141.437 143.794 146.94 145.818C150.782 147.232 158.55 148.6 160.804 151.992C163.798 156.499 158.005 161.54 153.694 161.693ZM143.068 128.883C137.758 129.681 130.088 131.552 126.688 136.028C122.472 141.578 129.895 143.911 134.037 145.063C136.902 145.86 139.845 146.281 142.764 146.804L137.707 144.124C131.351 140.279 132.191 135.046 138.122 131.371L143.068 128.883Z" fill="black"/>
<path d="M183.436 180.529C180.321 179.948 176.171 173.832 175.866 170.929C174.8 160.777 196.307 157.496 195.549 148.214C195.008 141.578 184.297 139.547 179.032 139.214C174.617 138.935 170.158 139.569 165.764 138.824C163.116 138.375 158.446 136.983 161.738 133.745C164.247 131.277 176.442 130.293 180.77 129.098C189.345 126.729 200.073 121.267 193.882 110.675C186.712 98.4082 164.113 98.9538 151.759 97.2423C144.565 96.2456 126.926 93.6027 128.575 83.2256C129.433 77.823 137.595 74.9589 138.182 68.8367C138.381 66.7661 137.51 65.3497 136.699 63.5557C139.695 65.8514 140.095 69.2107 138.576 72.5773C135.995 78.298 124.193 83.5281 134.665 90.0481C149.97 99.5772 190.416 91.8656 197.632 112.39C202.424 126.021 185.288 130.291 175.601 132.127C172.504 132.714 166.373 132.921 163.905 134.394C160.508 136.422 166.598 137.219 168.148 137.349C176.216 138.025 194.085 135.876 197.763 145.985C201.944 157.474 181.513 160.205 178.264 168.215C176.585 172.354 180.407 177.833 183.436 180.529Z" fill="black"/>
<path d="M177.363 179.317C168.347 175.162 166.323 168.081 174.489 161.398C178.131 158.417 191.304 153.261 184.188 147.118C179.024 142.66 171.194 144.071 165.157 142.773C164.366 142.603 163.166 142.463 162.798 141.645C165.613 142.291 168.582 141.778 171.46 141.933C176.836 142.223 190.932 144.421 188.209 152.651C185.652 160.381 162.881 163.997 174.939 176.733C175.252 177.063 177.863 178.776 177.363 179.317Z" fill="black"/>
<path d="M144.587 113.382C139.57 113.603 134.588 112.817 129.712 111.717C118.402 109.165 101.478 102.191 108.817 87.4502C109.33 86.421 110.349 84.7311 111.301 84.1636C112.637 83.368 110.78 86.017 110.677 86.2731C104.801 100.846 119.052 106.402 130.257 109.652C134.499 110.882 139.587 111.456 143.569 112.733C143.972 112.862 144.493 112.836 144.587 113.382Z" fill="black"/>
<path d="M169.78 128.878C169.644 128.104 169.9 128.332 170.386 128.135C176.144 125.811 190.085 122.744 185.825 113.272C181.78 104.275 165.286 102.949 156.958 101.15C156.664 101.086 156.048 101.042 156.122 100.626C164.998 100.992 179.602 102.948 185.854 109.9C195.512 120.639 178.864 128.645 169.78 128.878Z" fill="black"/>
<path d="M132.447 116.121C133.192 116.696 131.059 117.002 130.775 117.028C121.967 117.865 102.986 113.63 99.6116 104.175C99.1786 102.962 98.8261 101.886 99.3691 100.626L100.33 102.848C102.697 107.29 108.923 110.179 113.473 111.871C119.564 114.136 126.007 115.308 132.447 116.121Z" fill="black"/>
<path d="M226.776 145.379C230.183 145.158 233.563 146.148 232.269 150.271C231.02 154.247 222.999 155.773 219.428 155.288C215.486 154.752 216.829 151.806 218.511 149.562C220.483 146.929 223.533 145.59 226.776 145.379ZM229.805 147.781C229.479 147.546 227.534 147.386 227.002 147.41C223.759 147.56 219.914 149.967 218.947 153.186C221.832 153.616 229.801 152.369 230.084 148.731C230.104 148.477 229.989 147.913 229.805 147.781Z" fill="black"/>
<path d="M237.762 273.503C229.286 275.312 220.453 274.283 211.967 273.052C213.116 272.197 214.95 272.682 216.363 272.592C221.803 272.245 231.563 271.594 236.699 272.9C237.12 273.007 237.645 272.892 237.762 273.503Z" fill="black"/>
<path d="M168.868 179.01C165.758 178.013 161.991 174.737 161.415 171.434C160.155 164.203 166.19 161.174 170.989 157.441C171.677 158.269 167.278 161.552 166.729 162.136C163.381 165.7 162.054 170.633 164.863 174.971C165.944 176.641 167.699 177.462 168.868 179.01Z" fill="black"/>
<path d="M316.672 254.974C316.765 255.7 316.684 255.46 316.252 255.614C314.93 256.087 311.656 256.417 310.161 256.504C304.519 256.831 298.884 256.236 293.304 255.881C293.428 255.275 293.927 255.365 294.369 255.279C297.033 254.763 300.742 254.44 303.458 254.352C307.875 254.209 312.273 254.732 316.672 254.974Z" fill="black"/>
<path d="M131.463 157.521C137.72 156.615 136.049 161.925 131.238 162.485C126.192 163.072 126.185 158.286 131.463 157.521ZM133.356 159.867C134.412 158.513 129.424 159.21 129.412 160.476C130.159 160.615 132.957 160.38 133.356 159.867Z" fill="black"/>
<path d="M209.465 159.928C213.861 159.415 213.461 164.519 209.009 165.267C203.048 166.269 205.012 160.448 209.465 159.928ZM210.75 161.696C210.202 161.222 207.049 162.326 207.11 163.516C207.629 163.957 210.932 162.964 210.75 161.696Z" fill="black"/>
<path d="M211.057 145.591C210.948 143.425 212.314 140.871 213.789 139.366C214.565 138.574 218.967 135.391 218.653 138.136C218.514 139.348 212.218 144.321 211.057 145.591Z" fill="black"/>
<path d="M139.124 269.863C139 270.469 138.5 270.378 138.059 270.464C134.623 271.134 128.204 271.566 124.916 270.563C124.528 270.445 124.029 270.335 123.949 269.863H139.124Z" fill="black"/>
<path d="M290.875 262.875C291.413 262.227 299.669 262.751 299.67 263.632C298.317 265.141 292.382 265.081 291.178 263.936C290.893 263.665 290.708 263.076 290.875 262.875Z" fill="black"/>
<path d="M296.337 237.348C294.183 237.019 290.398 238.535 288.52 237.731C286.879 237.029 290.983 236.236 291.671 236.173C292.16 236.128 297.592 236.274 296.337 237.348Z" fill="black"/>
<path d="M247.17 270.16C244.76 270.955 241.815 271.058 239.399 270.197C238.967 270.044 238.884 270.288 238.978 269.558C241.54 269.53 245.021 268.407 247.17 270.16Z" fill="black"/>
<path d="M86.0108 249.203C85.0103 250.712 82.1984 250.235 80.8535 249.35C82.4997 248.791 84.3275 248.677 86.0108 249.203Z" fill="black"/>
<path d="M258.689 231.906C258.806 232.014 258.626 232.707 258.705 232.793C259.005 233.117 261.015 231.597 260.524 233.393C254.919 235.138 249.327 236.741 243.536 237.813C236.206 239.169 226.503 240.574 219.109 240.705C218.6 240.714 215.455 240.503 215.303 240.387C214.752 239.967 215.43 239.86 215.728 239.75C219.639 238.305 226.776 238.263 231.194 237.61C238.67 236.506 247.431 235.266 254.619 233.109C255.384 232.879 258.061 231.323 258.689 231.906Z" fill="black"/>
<path d="M126.274 235.272C126.797 235.109 127.757 235.192 128.347 235.228C132.725 235.495 139.669 236.59 144.051 237.431C144.829 237.581 148.471 238.174 148.228 239.32C148.147 239.699 147.52 239.755 147.182 239.794C144.605 240.09 128.812 237.796 126.664 236.607C126.342 236.429 126 236.286 125.771 235.979C125.692 235.644 125.981 235.364 126.274 235.272Z" fill="black"/>
<path d="M149.135 245.552C148.02 246.379 147.092 240.598 148.082 240.39C149.297 240.689 149.871 242.775 149.741 243.854C149.719 244.042 149.207 245.499 149.135 245.552Z" fill="black"/>
<path d="M152.782 256.798C152.129 259.081 148.782 259.073 147.019 258.158C146.877 257.408 147.611 257.74 148.08 257.711C149.769 257.606 151.249 257.569 152.782 256.798Z" fill="black"/>
<path d="M256.882 230.968C256.046 231.543 253.102 229.591 253.85 228.844C254.133 228.561 257.468 229.652 256.882 230.968Z" fill="black"/>
<path d="M269.024 247.982L271.751 245.25C271.416 246.501 270.538 248.29 269.024 247.982Z" fill="black"/>
<path d="M271.454 244.642C271.253 244.191 272.644 241.24 272.816 241.301C273.814 241.658 272.021 244.437 271.454 244.642Z" fill="black"/>
<path d="M232.602 187.823C232.061 187.671 228.86 186.637 229.571 185.698C230.664 186.23 232.421 186.278 232.602 187.823Z" fill="black"/>
<path d="M298.462 240.999L293 242.512C294.286 241.323 296.773 241.083 298.462 240.999Z" fill="black"/>
</svg>
