<svg xmlns="http://www.w3.org/2000/svg" viewBox="0 0 244 383" role="img" aria-label="Рисунок читающего человека">
  <rect width="244" height="383" fill="none"/>
  <g fill="none" stroke="#111" stroke-width="4" stroke-linecap="round" stroke-linejoin="round">
    <path d="M84 80c-20 8-36 30-34 58 2 33 21 51 47 54 28 3 52-13 61-38 9-26 1-55-20-69-16-11-35-12-54-5Z"/>
    <path d="M93 55c-18 4-29 18-29 36m22-45 8-24m16 29 20-20m3 31 29-4"/>
    <path d="M77 122c9-7 22-7 31 0m33 1c-8-6-18-6-27 0"/>
    <path d="M91 151c16 12 34 12 51-1"/>
    <path d="M52 197c-18 29-24 67-15 113m119-112c16 32 20 70 8 112"/>
    <path d="M70 211c25 18 56 18 85 0"/>
    <path d="M63 247h84l-12 67H76L63 247Z"/>
    <path d="M38 316c26 12 59 15 96 10m29-4c21 2 35 6 45 13"/>
    <path d="M72 333 48 366m91-36 19 38"/>
    <path d="M50 368h54m42 0h51"/>
    <path d="M158 240c18-20 31-34 49-40 10 36 3 68-26 96"/>
  </g>
</svg>
